<svg width="40" height="40" fill="none" xmlns="http://www.w3.org/2000/svg"><path fill-rule="evenodd" clip-rule="evenodd" d="M21.757 22.733c-.492 0-.886-.511-.886-.973 0-.531.54-.887.934-1.177l1.151 1.514c-.305.289-.746.636-1.2.636zm-10.083-1.73.843-2.234.828 2.234z" fill="#fff" style="stroke-width:1.4"/><path fill-rule="evenodd" clip-rule="evenodd" d="M6 11.986h28v16.028H6Zm7.15 4.204h-1.197l-2.837 7.475h1.496l.597-1.535h2.685l.597 1.535h1.497zm9.112.938c.383-.02.6.344.618.682.019.347-.126.586-.37.811l-.235.215-.38-.472a.907.907 0 0 1-.206-.529c-.018-.346.18-.686.573-.707zm2.645 4.832.78-.823-.823-.975-.822.843-1.058-1.335c.608-.438 1.233-1.06 1.19-1.86-.059-1.087-.922-1.745-1.993-1.687-1.061.057-1.848.823-1.79 1.902.032.587.314 1.054.683 1.508l-.454.3c-.669.443-1.073 1.08-1.073 1.89 0 1.223.926 2.12 2.175 2.12.836 0 1.515-.404 2.126-.925l.6.732h1.762zm1.581-3.553c-.03 1.131 1.172 1.706 1.702 2.038.387.242.985.582 1.128 1.055a.801.801 0 0 1-.164.725c-.163.186-.436.29-.722.281-.574-.015-.891-.494-1.258-1.05l-.058-.088-.992.987.017.03c.542.953 1.323 1.47 2.257 1.495a2.553 2.553 0 0 0 1.905-.754c.414-.424.614-1.028.577-1.747-.051-1.024-1.124-1.643-1.9-2.123-.645-.398-1.08-.477-1.066-1.006.013-.472.478-.755.873-.744.406.01.831.23 1.165.603l.037.042.794-1.054-.027-.028c-.505-.527-1.286-.88-1.988-.898-1.287-.034-2.246.959-2.28 2.236zm-8.362 5.263h-1.448v-6.26h-1.77v-1.235h4.898v1.235h-1.68Z" fill="#fff" style="stroke-width:1.4"/></svg>