<svg width="40" height="40" fill="none" xmlns="http://www.w3.org/2000/svg"><path fill-rule="evenodd" clip-rule="evenodd" d="m10.144 17.395-.04.113c-.115.343-.283.81-.497 1.413l-.198.55-.412 1.106c-.176.49-.228.646-.312 1.05h-.049a6.14 6.14 0 0 0-.289-1.073l-.374-1.092-.305-.931c-.046-.13-.084-.245-.138-.405-.069-.207-.13-.413-.199-.62l-.033-.111H6l.073.219c.32.97.534 1.587.893 2.557.343.946.565 1.518.947 2.442l.07.183h1.256l.07-.177c.406-.915.695-1.602 1.016-2.411.382-.946.725-1.847 1-2.625l.07-.188zm2.533 1.618c-1.125.002-1.859.765-1.861 1.953.002 1.21.718 1.911 1.96 1.914.495 0 .952-.111 1.395-.341v-.848a2.284 2.284 0 0 1-1.227.337c-.624.003-1.002-.26-1.04-.74l-.002-.026h2.455l.005-.061c.008-.129.008-.235.008-.296-.003-1.214-.613-1.89-1.693-1.892zm-.762 1.481.005-.028c.06-.414.348-.679.757-.678.393-.002.63.244.666.679l.002.027zm7.938-1.473c-.266 0-.482.038-.786.15l-.034.014V17.12h-1.125v5.618c.498.074.806.103 1.189.103 1.635-.003 2.46-.675 2.463-1.982-.002-1.12-.675-1.837-1.707-1.838zm.276 2.67c-.19.171-.476.253-.857.253h-.239V20.01l.017-.005c.17-.062.311-.086.482-.086.276 0 .498.092.649.265.15.173.23.424.23.737 0 .34-.091.598-.282.77zm2.385.783c.268.246.696.368 1.327.368.48 0 .928-.046 1.56-.16l.125-.02v-3.557H24.4v2.728l-.02.005a2.55 2.55 0 0 1-.486.053c-.235 0-.393-.038-.494-.144-.1-.107-.133-.272-.134-.514v-2.128H22.14v2.113c.001.693.099 1.002.374 1.256zm5.65-3.453c-.573 0-1.138.082-1.824.261v3.514h1.127v-2.788l.017-.005c.239-.07.387-.085.55-.085.212 0 .363.042.461.148.098.106.135.267.136.495v2.235h1.126v-2.28c0-.588-.075-.851-.314-1.098-.252-.26-.68-.397-1.28-.397Zm4.174 0c-1.219.001-1.997.765-1.999 1.952.003 1.232.73 1.865 2.16 1.87.473-.001.91-.046 1.501-.158V17.12h-1.126v1.97l-.031-.009a1.85 1.85 0 0 0-.505-.06Zm.536.965v1.925l-.021.003a2.79 2.79 0 0 1-.408.03c-.306 0-.547-.087-.71-.257-.163-.17-.246-.419-.246-.736 0-.325.087-.584.253-.762.165-.178.408-.271.71-.271.147 0 .265.016.406.062zm-15.434-.87a2.503 2.503 0 0 0-.73-.095c-.563 0-1.173.119-1.76.35v3.425h1.125V20.1l.017-.006a2.2 2.2 0 0 1 .748-.124c.22 0 .415.028.6.087v-.943Z" fill="#fff" style="stroke-width:1.4"/></svg>