<svg width="39" height="40" fill="none" xmlns="http://www.w3.org/2000/svg"><g clip-path="url(#a)" transform="matrix(1.4 0 0 1.4 -7.997 -8)"><g clip-path="url(#b)" fill="#fff"><path d="M29.987 20.008c.025 5.439-4.415 10.045-10.09 9.992-5.47-.052-9.834-4.465-9.896-9.88C9.936 14.484 14.51 9.94 20.112 10c5.48.06 9.902 4.548 9.875 10.008zm-19.277-.02c.011 5.13 4.116 9.207 9.106 9.298 5.258.096 9.425-4.137 9.464-9.2.039-5.205-4.138-9.246-9.032-9.37-5.259-.131-9.524 4.103-9.538 9.273z"/><path d="M22 19.858v3.314c0 .126-.007.251-.044.37-.115.375-.435.544-.899.481-.355-.047-.609-.328-.619-.712-.01-.4-.001-.802-.005-1.203 0-.1.038-.106.112-.067l.014.006c.41.166.41.166.41.615 0 .192-.003.385 0 .578.003.176.087.255.261.251.17-.003.222-.057.223-.245.001-.448-.003-.896.003-1.344.002-.094-.034-.126-.114-.152a5.831 5.831 0 0 1-.497-.18c-.275-.117-.406-.35-.407-.63-.008-1.657-.003-3.314-.005-4.971 0-.09.02-.112.114-.104.421.04.421.035.421.458v4.346c0 .283.085.39.347.482.12.041.141.008.14-.107-.003-.714-.001-1.428-.001-2.142V16.26c0-.173 0-.173.16-.106.387.163.387.163.387.577v3.127zM19.595 11.838c-.001.309-.002.299-.313.328a7.631 7.631 0 0 0-3.127.976c-1.89 1.085-3.134 2.683-3.742 4.772a6.608 6.608 0 0 0-.26 1.551c-.004.105-.036.136-.136.13a4.187 4.187 0 0 0-.375 0c-.09.004-.115-.03-.109-.12a8.207 8.207 0 0 1 .713-2.922c.872-1.916 2.26-3.334 4.163-4.24.948-.45 1.95-.699 2.997-.777.15-.011.214.02.19.176-.007.041-.001.084-.001.126zM28.143 19.596c-.281-.001-.282-.001-.304-.242-.12-1.274-.499-2.463-1.19-3.541-1.069-1.664-2.551-2.79-4.447-3.363a6.754 6.754 0 0 0-1.637-.291c-.124-.006-.192-.037-.172-.181.014-.108.007-.219.001-.328-.005-.097.029-.124.127-.117.72.048 1.423.178 2.109.402a8.38 8.38 0 0 1 3.479 2.184 8.394 8.394 0 0 1 2.021 3.468c.178.595.28 1.204.332 1.823.013.15-.026.21-.178.187-.046-.007-.094-.001-.14-.001zM20.395 28.162c0-.295 0-.3.294-.326 1.81-.167 3.378-.877 4.7-2.119a7.74 7.74 0 0 0 2.247-3.85c.11-.446.176-.898.208-1.356.005-.079.022-.11.106-.107.13.007.26.009.39 0 .108-.007.128.031.122.134a8.285 8.285 0 0 1-.657 2.777c-.799 1.842-2.08 3.241-3.852 4.188a8.33 8.33 0 0 1-3.33.96c-.274.02-.223.036-.228-.207v-.094zM19.595 28.17c0 .307 0 .31-.31.283-1.96-.175-3.662-.931-5.098-2.277-1.211-1.135-2.011-2.515-2.42-4.123a8.253 8.253 0 0 1-.233-1.524c-.005-.082.006-.13.104-.125.135.006.27.005.406 0 .081-.002.103.028.108.108a7.675 7.675 0 0 0 1.59 4.243c1.138 1.487 2.623 2.454 4.444 2.9.41.101.827.163 1.247.193.142.01.183.05.163.181-.007.047-.001.094-.001.141z"/><path d="M13.251 19.595c-.31 0-.315 0-.281-.306.172-1.564.777-2.936 1.85-4.09 1.098-1.183 2.453-1.902 4.045-2.171.205-.035.414-.05.62-.073.077-.01.116.018.11.104-.006.094 0 .188-.001.282-.005.261.045.214-.233.25-2.716.36-4.535 1.84-5.484 4.398a4.545 4.545 0 0 0-.29 1.416c-.005.16-.06.215-.211.19-.04-.005-.083 0-.125 0zM20.395 13.256c0-.297.001-.307.297-.28a6.797 6.797 0 0 1 2.774.872 6.992 6.992 0 0 1 2.792 2.886 6.96 6.96 0 0 1 .778 2.723c.01.116-.029.146-.135.14a3.055 3.055 0 0 0-.344 0c-.095.004-.135-.022-.143-.129-.217-2.706-2.168-5.034-4.782-5.704a5.74 5.74 0 0 0-1.013-.175c-.223-.016-.223-.018-.223-.24v-.093zM19.595 26.752c0 .317 0 .308-.322.275a6.994 6.994 0 0 1-4.373-2.141 6.985 6.985 0 0 1-1.792-3.336 6.068 6.068 0 0 1-.15-1.033c-.006-.094.022-.115.108-.111.156.007.343-.047.46.022.129.075.063.285.084.434a6.376 6.376 0 0 0 1.65 3.498 6.385 6.385 0 0 0 3.182 1.897c.323.083.652.145.984.16.152.006.187.063.17.195-.006.046-.001.093-.001.14zM20.395 26.739c.001-.291 0-.295.275-.327 1.5-.17 2.795-.78 3.863-1.843a6.277 6.277 0 0 0 1.851-3.758c.007-.051.02-.102.025-.154.028-.25.028-.25.271-.25.383 0 .376-.001.33.397a7.005 7.005 0 0 1-.654 2.263 7.018 7.018 0 0 1-2.434 2.805 7.049 7.049 0 0 1-3.298 1.168c-.23.022-.23.022-.229-.301zM22.474 16.64c.726.572 1.255 1.243 1.478 2.122.13.513.057.989-.307 1.4-.052.06-.172.076-.154.173.012.07.08.132.12.198.105.168.204.339.313.504.064.095.078.185.032.29-.049.115-.09.232-.137.348-.015.036-.019.09-.068.092-.04 0-.047-.05-.065-.08-.19-.31-.378-.62-.569-.93-.028-.047-.061-.091-.118-.173v.295c0 .636-.001 1.271.002 1.907 0 .084-.019.148-.085.202-.141.118-.28.24-.441.38V16.64zM23 17.945l-.001 1.907c0 .093.048.071.1.047.205-.099.304-.271.344-.488.105-.55-.134-.996-.443-1.466zM19.033 19.995c0-1.298.001-2.596-.003-3.894 0-.128.03-.176.167-.197.289-.043.576-.08.87-.078.087 0 .128.013.128.118.002.353.006.353-.353.378-.037.002-.073.01-.109.012-.132.01-.173.075-.172.212.007 1 .004 2.002.004 3.002 0 .252-.015.198.211.205.104.003.21.006.313-.001.086-.006.11.03.104.108-.011.15.06.341-.029.438-.083.09-.276.031-.42.025-.138-.007-.184.028-.183.177.008.99.008 1.98.001 2.97 0 .142.057.183.176.193.099.008.2.039.295.027.154-.02.164.054.162.175-.008.31-.004.314-.314.305a4.56 4.56 0 0 1-.712-.08c-.109-.02-.14-.06-.139-.171.005-1.048.003-2.095.002-3.143v-.782z"/><path d="M25.305 19.595c-.288.001-.29.001-.333-.278-.246-1.574-1.045-2.784-2.397-3.622a4.652 4.652 0 0 0-2.037-.682c-.113-.011-.155-.046-.145-.162.01-.124.006-.25 0-.375-.003-.084.027-.104.11-.097.7.066 1.372.243 1.998.564 1.464.75 2.44 1.914 2.914 3.492.097.323.157.656.192.993.014.144-.022.19-.161.168-.046-.007-.094 0-.14 0zM19.595 14.681c0 .301 0 .301-.303.343-1.985.27-3.684 1.795-4.162 3.733-.06.242-.11.487-.127.736-.006.072-.027.104-.101.103a18.766 18.766 0 0 0-.438-.001c-.074 0-.093-.024-.084-.104.21-1.927 1.15-3.387 2.807-4.382.701-.42 1.471-.646 2.285-.728.097-.01.135.013.124.113-.007.062-.001.125-.001.187zM14.69 20.406c.283 0 .289 0 .327.265a4.987 4.987 0 0 0 1.376 2.825 4.904 4.904 0 0 0 2.43 1.387c.217.052.44.085.66.115.082.012.12.028.113.12-.009.124-.008.25 0 .375.009.106-.027.133-.13.124a5.275 5.275 0 0 1-1.941-.545c-1.686-.857-2.71-2.221-3.081-4.074-.03-.152-.03-.311-.061-.464-.023-.115.023-.136.12-.129.062.005.125.001.187.001zM20.396 25.305c-.001-.288 0-.285.28-.33 1.831-.292 3.13-1.29 3.918-2.959.223-.473.342-.98.399-1.5.01-.09.038-.114.121-.11.125.004.25.008.375 0 .112-.009.127.034.118.135a5.433 5.433 0 0 1-.987 2.69c-.859 1.22-2.029 1.978-3.482 2.298-.198.044-.402.055-.602.088-.122.02-.158-.026-.142-.14.009-.057.002-.115.002-.172z"/><path d="m17.968 16.971-.294.221c-.056.044-.083.036-.082-.038 0-.167 0-.334-.002-.5 0-.062.04-.093.084-.122.319-.21.659-.377 1.021-.498.096-.032.121-.01.114.084a.828.828 0 0 0 0 .171c.025.179-.011.316-.218.349-.104.017-.085.1-.085.17l-.001 4.566v2.52a2.8 2.8 0 0 1-.48-.215c-.075-.04-.052-.107-.052-.165l-.001-2.815.001-3.628-.005-.1zM17.29 16.872v.645c0 .041-.023.067-.048.094-.383.422-.418.908-.26 1.428.19.62.453 1.212.696 1.812.123.302.173.62.114.947a.697.697 0 0 1-.858.539c-.355-.098-.586-.338-.762-.648-.275-.487-.324-1.024-.358-1.565-.004-.063.012-.089.08-.057.117.055.235.108.356.155.09.034.084.11.093.18.043.32.121.632.253.928.06.133.13.26.246.355.082.067.17.102.274.055.105-.047.136-.134.131-.241-.012-.286-.132-.543-.223-.807-.196-.562-.449-1.103-.613-1.678-.27-.946.311-1.762.878-2.142z"/></g></g><defs><clipPath id="a"><path fill="#fff" d="M0 0h39v40H0z"/></clipPath><clipPath id="b"><path fill="#fff" transform="translate(10 10)" d="M0 0h19.987v20H0z"/></clipPath></defs></svg>