<svg width="40" height="40" fill="none" xmlns="http://www.w3.org/2000/svg"><mask id="a" mask-type="alpha" maskUnits="userSpaceOnUse" x="10" y="10" width="20" height="20"><path fill-rule="evenodd" clip-rule="evenodd" d="M10 10h20v20H10V10Z" fill="#fff"/></mask><g mask="url(#a)" transform="matrix(1.4 0 0 1.4 -8 -8)" fill-rule="evenodd" clip-rule="evenodd"><path d="m20 20.125 14.41-.092-.006.53z" fill="#373536"/><path d="m20 20.125 14.405.35-.016.442z" fill="#383637"/><path d="m20 20.125 14.392.704-.027.44z" fill="#393738"/><path d="m20 20.125 14.37 1.057-.037.44z" fill="#3a3838"/><path d="m20 20.125 14.34 1.409-.049.44z" fill="#3b3939"/><path d="m20 20.125 14.301 1.76-.06.438z" fill="#3b3a3a"/><path d="m20 20.125 14.254 2.11-.07.437z" fill="#3c3b3b"/><path d="m20 20.125 14.197 2.46-.08.435z" fill="#3d3c3c"/><path d="m20 20.125 14.133 2.808-.092.432z" fill="#3e3c3d"/><path d="m20 20.125 14.06 3.154-.102.43z" fill="#3f3d3e"/><path d="m20 20.125 13.978 3.498-.113.427z" fill="#403e3f"/><path d="m20 20.125 13.888 3.84-.123.425z" fill="#413f40"/><path d="m20 20.125 13.79 4.18-.134.42z" fill="#414041"/><path d="m20 20.125 13.683 4.517-.144.418z" fill="#424142"/><path d="m20 20.125 13.568 4.851-.154.414z" fill="#434243"/><path d="m20 20.125 13.445 5.183-.164.41z" fill="#444344"/><path d="m20 20.125 13.314 5.511-.174.406z" fill="#454445"/><path d="m20 20.125 13.174 5.836-.184.402z" fill="#464546"/><path d="m20 20.125 13.027 6.158-.194.397Z" fill="#474647"/><path d="M20 20.125 32.872 26.6l-.203.393z" fill="#474748"/><path d="m20 20.125 12.71 6.79-.214.387z" fill="#484849"/><path d="m20 20.125 12.539 7.1-.223.381z" fill="#49494a"/><path d="m20 20.125 12.36 7.405-.23.376z" fill="#4a4a4b"/><path d="m20 20.125 12.175 7.706-.24.37z" fill="#4b4a4c"/><path d="m20 20.125 11.983 8.002-.25.365z" fill="#4b4b4d"/><path d="m20 20.125 11.783 8.294-.26.358z" fill="#4c4c4d"/><path d="m20 20.125 11.576 8.58-.268.353z" fill="#4d4d4e"/><path d="m20 20.125 11.361 8.862-.276.345z" fill="#4e4e4f"/><path d="m20 20.125 11.14 9.138-.284.339z" fill="#4f4f50"/><path d="m20 20.125 10.913 9.41-.293.33z" fill="#4f4f51"/><path d="M20 20.125 30.679 29.8l-.301.324z" fill="#505052"/><path d="m20 20.125 10.438 9.933-.308.317z" fill="#515153"/><path d="m20 20.125 10.191 10.186-.316.31Z" fill="#525253"/><path d="m20 20.125 9.938 10.433-.324.301z" fill="#535354"/><path d="M20 20.125 29.68 30.8l-.332.293z" fill="#535455"/><path d="m20 20.125 9.414 10.909-.338.284z" fill="#545456"/><path d="m20 20.125 9.144 11.136-.345.277z" fill="#555557"/><path d="m20 20.125 8.868 11.357-.352.268z" fill="#565658"/><path d="m20 20.125 8.586 11.572-.358.259z" fill="#565758"/><path d="m20 20.125 8.3 11.779-.365.25z" fill="#575859"/><path d="m20 20.125 8.008 11.979-.37.241z" fill="#58585a"/><path d="m20 20.125 7.712 12.172-.376.232z" fill="#59595b"/><path d="m20 20.125 7.41 12.357-.381.223z" fill="#5a5a5c"/><path d="m20 20.125 7.105 12.536-.387.213z" fill="#5a5b5d"/><path d="m20 20.125 6.795 12.706-.392.204z" fill="#5b5c5d"/><path d="m20 20.125 6.482 12.87-.398.193z" fill="#5c5c5e"/><path d="m20 20.125 6.164 13.024-.402.184z" fill="#5d5d5f"/><path d="m20 20.125 5.842 13.172-.406.174z" fill="#5d5e60"/><path d="m20 20.125 5.517 13.311-.41.164z" fill="#5e5f61"/><path d="m20 20.125 5.19 13.442-.415.155z" fill="#5f6062"/><path d="m20 20.125 4.858 13.566-.418.144z" fill="#606062"/><path d="m20 20.125 4.523 13.68-.421.135z" fill="#606163"/><path d="m20 20.125 4.186 13.788-.424.123z" fill="#616264"/><path d="m20 20.125 3.846 13.886-.427.113z" fill="#626365"/><path d="m20 20.125 3.505 13.977-.43.102z" fill="#636466"/><path d="m20 20.125 3.16 14.058-.432.092z" fill="#636466"/><path d="m20 20.125 2.815 14.132-.435.08z" fill="#646567"/><path d="m20 20.125 2.467 14.197-.436.07z" fill="#656668"/><path d="m20 20.125 2.118 14.253-.438.06z" fill="#666769"/><path d="m20 20.125 1.767 14.3-.439.05z" fill="#66676a"/><path d="m20 20.125 1.416 14.34-.44.038z" fill="#67686a"/><path d="m20 20.125 1.063 14.37-.44.027z" fill="#68696b"/><path d="m20 20.125.71 14.392-.441.016z" fill="#696a6c"/><path d="m20 20.125.357 14.405-.442.005z" fill="#696b6d"/><path d="m20 20.125.004 14.41-.443-.006z" fill="#6a6b6d"/><path d="m20 20.125-.35 14.405-.442-.016Z" fill="#6b6c6e"/><path d="m20 20.125-.703 14.392-.442-.027z" fill="#6c6d6f"/><path d="m20 20.125-1.056 14.37-.44-.037Z" fill="#6c6e70"/><path d="m20 20.125-1.409 14.34-.44-.048z" fill="#6d6e70"/><path d="m20 20.125-1.76 14.301-.438-.059Z" fill="#6e6f71"/><path d="M20 20.125 17.89 34.38l-.437-.07Z" fill="#6f7072"/><path d="m20 20.125-2.46 14.198-.434-.081Z" fill="#6f7173"/><path d="m20 20.125-2.808 14.133-.432-.091Z" fill="#707173"/><path d="m20 20.125-3.154 14.06-.43-.102z" fill="#717274"/><path d="m20 20.125-3.497 13.978-.428-.112Z" fill="#717375"/><path d="m20 20.125-3.84 13.888-.424-.123Z" fill="#727376"/><path d="m20 20.125-4.18 13.79-.42-.133Z" fill="#737476"/><path d="m20 20.125-4.517 13.683-.418-.144Z" fill="#747577"/><path d="m20 20.125-4.851 13.568-.414-.154z" fill="#747678"/><path d="M20 20.125 14.818 33.57l-.411-.164Z" fill="#757679"/><path d="M20 20.125 14.49 33.44l-.407-.174Z" fill="#767779"/><path d="M20 20.125 14.164 33.3l-.402-.184z" fill="#76787a"/><path d="m20 20.125-6.157 13.027-.398-.194Z" fill="#77797b"/><path d="m20 20.125-6.475 12.872-.393-.203Z" fill="#78797c"/><path d="m20 20.125-6.79 12.71-.387-.214Z" fill="#797a7c"/><path d="m20 20.125-7.099 12.54-.382-.223Z" fill="#797b7d"/><path d="m20 20.125-7.405 12.361-.376-.232Z" fill="#7a7b7e"/><path d="m20 20.125-7.706 12.176-.37-.241Z" fill="#7b7c7e"/><path d="m20 20.125-8.002 11.983-.365-.25z" fill="#7b7d7f"/><path d="m20 20.125-8.294 11.783-.358-.259Z" fill="#7c7e80"/><path d="m20 20.125-8.58 11.576-.352-.268Z" fill="#7d7e81"/><path d="m20 20.125-8.862 11.362-.345-.276Z" fill="#7d7f81"/><path d="m20 20.125-9.138 11.14-.339-.284Z" fill="#7e8082"/><path d="M20 20.125 10.59 31.038l-.331-.293Z" fill="#7f8083"/><path d="m20 20.125-9.674 10.679-.324-.3Z" fill="#7f8183"/><path d="m20 20.125-9.933 10.438-.317-.308Z" fill="#808284"/><path d="M20 20.125 9.814 30.316 9.504 30Z" fill="#818385"/><path d="M20 20.125 9.567 30.063l-.301-.323Z" fill="#828386"/><path d="m20 20.125-10.674 9.68-.293-.332Z" fill="#828486"/><path d="M20 20.125 9.092 29.54l-.285-.339Z" fill="#838587"/><path d="M20 20.125 8.864 29.27l-.276-.345Z" fill="#848588"/><path d="M20 20.125 8.643 28.993l-.268-.352Z" fill="#848688"/><path d="M20 20.125 8.43 28.712l-.26-.359Z" fill="#858789"/><path d="m20 20.125-11.779 8.3-.25-.364Z" fill="#86878a"/><path d="M20 20.125 8.02 28.133l-.241-.37Z" fill="#86888b"/><path d="M20 20.125 7.828 27.837l-.232-.376Z" fill="#87898b"/><path d="M20 20.125 7.643 27.536l-.223-.382Z" fill="#888a8c"/><path d="M20 20.125 7.465 27.23l-.214-.387Z" fill="#888a8d"/><path d="M20 20.125 7.294 26.921l-.204-.393Z" fill="#898b8d"/><path d="M20 20.125 7.13 26.607l-.194-.397Z" fill="#8a8c8e"/><path d="M20 20.125 6.976 26.29l-.184-.402Z" fill="#8b8c8f"/><path d="M20 20.125 6.83 25.968l-.175-.407Z" fill="#8b8d90"/><path d="M20 20.125 6.69 25.643l-.165-.41Z" fill="#8c8e90"/><path d="m20 20.125-13.442 5.19-.154-.415Z" fill="#8d8e91"/><path d="M20 20.125 6.434 24.983l-.143-.418Z" fill="#8d8f92"/><path d="M20 20.125 6.32 24.648l-.134-.421Z" fill="#8e9092"/><path d="M20 20.125 6.212 24.311l-.123-.424Z" fill="#8f9193"/><path d="M20 20.125 6.114 23.972 6 23.544Z" fill="#8f9194"/><path d="M20 20.125 6.024 23.63l-.103-.43Z" fill="#909295"/><path d="m20 20.125-14.058 3.16-.092-.432Z" fill="#919395"/><path d="M20 20.125 5.868 22.94l-.08-.435Z" fill="#929396"/><path d="M20 20.125 5.804 22.592l-.07-.436Z" fill="#929497"/><path d="M20 20.125 5.747 22.243l-.06-.438Z" fill="#939597"/><path d="M20 20.125 5.7 21.893l-.05-.44Z" fill="#949698"/><path d="M20 20.125 5.66 21.541l-.037-.44Z" fill="#949699"/><path d="M20 20.125 5.63 21.19l-.027-.442Z" fill="#95979a"/><path d="m20 20.125-14.392.71-.016-.441Z" fill="#96989a"/><path d="m20 20.125-14.405.357-.005-.442Z" fill="#97999b"/><path d="m20 20.125-14.409.004.005-.442z" fill="#97999c"/><path d="m20 20.125-14.405-.35.016-.442Z" fill="#989a9c"/><path d="m20 20.125-14.392-.703.027-.442Z" fill="#999b9d"/><path d="M20 20.125 5.63 19.07l.037-.44Z" fill="#999b9e"/><path d="M20 20.125 5.66 18.716l.049-.439Z" fill="#9a9c9f"/><path d="M20 20.125 5.7 18.365l.06-.438Z" fill="#9b9d9f"/><path d="m20 20.125-14.254-2.11.07-.437Z" fill="#9c9ea0"/><path d="m20 20.125-14.198-2.46.081-.434Z" fill="#9c9ea1"/><path d="M20 20.125 5.867 17.318l.092-.433Z" fill="#9d9fa2"/><path d="M20 20.125 5.94 16.972l.102-.43Z" fill="#9ea0a2"/><path d="M20 20.125 6.022 16.628l.113-.428Z" fill="#9fa1a3"/><path d="m20 20.125-13.888-3.84.123-.424Z" fill="#9fa1a4"/><path d="m20 20.125-13.79-4.18.134-.42Z" fill="#a0a2a5"/><path d="M20 20.125 6.317 15.61l.144-.418Z" fill="#a1a3a5"/><path d="m20 20.125-13.568-4.85.154-.415Z" fill="#a2a4a6"/><path d="M20 20.125 6.555 14.943l.164-.41Z" fill="#a2a4a7"/><path d="m20 20.125-13.314-5.51.174-.407Z" fill="#a3a5a8"/><path d="M20 20.125 6.826 14.29l.184-.402Z" fill="#a4a6a8"/><path d="M20 20.125 6.973 13.968l.194-.398Z" fill="#a5a7a9"/><path d="M20 20.125 7.128 13.65l.203-.393Z" fill="#a5a7aa"/><path d="M20 20.125 7.29 13.336l.214-.387Z" fill="#a6a8ab"/><path d="M20 20.125 7.461 13.026l.223-.382Z" fill="#a7a9ab"/><path d="M20 20.125 7.64 12.72l.231-.376Z" fill="#a8aaac"/><path d="M20 20.125 7.824 12.42l.241-.37Z" fill="#a8aaad"/><path d="M20 20.125 8.017 12.123l.25-.365Z" fill="#a9abae"/><path d="M20 20.125 8.217 11.831l.26-.358Z" fill="#aaacae"/><path d="m20 20.125-11.575-8.58.267-.352Z" fill="#abadaf"/><path d="M20 20.125 8.638 11.263l.277-.345Z" fill="#abadb0"/><path d="M20 20.125 8.86 10.987l.284-.338Z" fill="#acaeb1"/><path d="M20 20.125 9.087 10.716l.293-.33Z" fill="#adafb1"/><path d="M20 20.125 9.321 10.451l.301-.324Z" fill="#aeb0b2"/><path d="M20 20.125 9.562 10.192l.308-.316Z" fill="#afb1b3"/><path d="M20 20.125 9.81 9.94l.316-.309Z" fill="#afb1b4"/><path d="M20 20.125 10.062 9.692l.324-.301Z" fill="#b0b2b4"/><path d="M20 20.125 10.32 9.451l.332-.293Z" fill="#b1b3b5"/><path d="M20 20.125 10.586 9.217l.338-.285Z" fill="#b2b4b6"/><path d="M20 20.125 10.856 8.99l.345-.276Z" fill="#b2b4b7"/><path d="M20 20.125 11.132 8.768l.352-.268Z" fill="#b3b5b7"/><path d="M20 20.125 11.414 8.554l.358-.26Z" fill="#b4b6b8"/><path d="M20 20.125 11.7 8.347l.365-.25Z" fill="#b5b7b9"/><path d="M20 20.125 11.992 8.146l.37-.24Z" fill="#b6b8ba"/><path d="M20 20.125 12.288 7.954l.376-.232Z" fill="#b6b8bb"/><path d="M20 20.125 12.59 7.768l.381-.223Z" fill="#b7b9bb"/><path d="M20 20.125 12.895 7.59l.387-.213Z" fill="#b8babc"/><path d="M20 20.125 13.205 7.42l.392-.203Z" fill="#b9bbbd"/><path d="M20 20.125 13.518 7.256l.397-.194Z" fill="#babbbe"/><path d="M20 20.125 13.836 7.101l.402-.184Z" fill="#babcbe"/><path d="M20 20.125 14.158 6.954l.406-.175Z" fill="#bbbdbf"/><path d="m20 20.125-5.517-13.31.41-.165Z" fill="#bcbec0"/><path d="M20 20.125 14.81 6.683l.415-.154Z" fill="#bdbfc1"/><path d="M20 20.125 15.142 6.56l.418-.144Z" fill="#bebfc1"/><path d="m20 20.125-4.523-13.68.421-.134Z" fill="#bec0c2"/><path d="M20 20.125 15.814 6.338l.424-.124Z" fill="#bfc1c3"/><path d="M20 20.125 16.154 6.24l.427-.113Z" fill="#c0c2c4"/><path d="M20 20.125 16.495 6.15l.43-.102Z" fill="#c1c3c5"/><path d="M20 20.125 16.84 6.067l.432-.092Z" fill="#c2c3c5"/><path d="M20 20.125 17.185 5.994l.435-.081Z" fill="#c2c4c6"/><path d="M20 20.125 17.533 5.93l.437-.07Z" fill="#c3c5c7"/><path d="M20 20.125 17.882 5.873l.438-.06Z" fill="#c4c6c8"/><path d="m20 20.125-1.767-14.3.44-.049Z" fill="#c5c7c8"/><path d="m20 20.125-1.416-14.34.44-.037Z" fill="#c6c7c9"/><path d="m20 20.125-1.064-14.37.442-.027Z" fill="#c6c8ca"/><path d="m20 20.125-.71-14.391.441-.017Z" fill="#c7c9cb"/><path d="m20 20.125-.357-14.404.442-.006Z" fill="#c8cacc"/><path d="m20 20.125-.003-14.409.442.005Z" fill="#c9cbcc"/><path d="m20 20.125.35-14.405.442.017Z" fill="#cacbcd"/><path d="m20 20.125.703-14.392.442.027Z" fill="#caccce"/><path d="m20 20.125 1.056-14.37.44.038Z" fill="#cbcdcf"/><path d="m20 20.125 1.409-14.34.44.049Z" fill="#cccecf"/><path d="m20 20.125 1.76-14.301.438.06z" fill="#cdced0"/><path d="m20 20.125 2.11-14.253.437.07Z" fill="#cecfd1"/><path d="m20 20.125 2.46-14.197.434.08Z" fill="#cfd0d2"/><path d="m20 20.125 2.808-14.133.432.092Z" fill="#cfd1d2"/><path d="m20 20.125 3.154-14.06.43.103Z" fill="#d0d2d3"/><path d="m20 20.125 3.498-13.978.427.113Z" fill="#d1d2d4"/><path d="m20 20.125 3.84-13.888.424.123Z" fill="#d2d3d5"/><path d="m20 20.125 4.18-13.79.42.134Z" fill="#d3d4d5"/><path d="m20 20.125 4.517-13.683.418.144Z" fill="#d3d5d6"/><path d="m20 20.125 4.85-13.568.415.154Z" fill="#d4d5d7"/><path d="M20 20.125 25.182 6.68l.41.164Z" fill="#d5d6d8"/><path d="m20 20.125 5.51-13.313.407.174Z" fill="#d6d7d9"/><path d="m20 20.125 5.836-13.174.402.184z" fill="#d7d8d9"/><path d="m20 20.125 6.157-13.027.398.194Z" fill="#d7d9da"/><path d="m20 20.125 6.475-12.872.393.204Z" fill="#d8d9db"/><path d="m20 20.125 6.79-12.71.387.214Z" fill="#d9dadc"/><path d="m20 20.125 7.1-12.539.381.223z" fill="#dadbdc"/><path d="m20 20.125 7.405-12.36.376.231Z" fill="#dbdcdd"/><path d="M20 20.125 27.706 7.95l.37.24Z" fill="#dbddde"/><path d="m20 20.125 8.002-11.982.365.25Z" fill="#dcdddf"/><path d="m20 20.125 8.294-11.783.358.26Z" fill="#dddedf"/><path d="M20 20.125 28.58 8.55l.353.267Z" fill="#dedfe0"/><path d="m20 20.125 8.862-11.361.345.276Z" fill="#dfe0e1"/><path d="m20 20.125 9.138-11.14.339.284Z" fill="#dfe0e2"/><path d="m20 20.125 9.409-10.913.331.293Z" fill="#e0e1e2"/><path d="m20 20.125 9.674-10.679.324.301z" fill="#e1e2e3"/><path d="m20 20.125 9.933-10.438.317.309z" fill="#e2e3e4"/><path d="M20 20.125 30.186 9.934l.309.316Z" fill="#e3e4e5"/><path d="m20 20.125 10.433-9.938.301.324z" fill="#e3e4e5"/><path d="m20 20.125 10.674-9.679.293.331z" fill="#e4e5e6"/><path d="m20 20.125 10.908-9.414.285.338Z" fill="#e5e6e7"/><path d="m20 20.125 11.136-9.144.276.345z" fill="#e6e7e8"/><path d="m20 20.125 11.357-8.868.268.352z" fill="#e7e8e8"/><path d="m20 20.125 11.571-8.586.26.358z" fill="#e8e8e9"/><path d="m20 20.125 11.779-8.3.25.365z" fill="#e8e9ea"/><path d="m20 20.125 11.979-8.008.24.37z" fill="#e9eaeb"/><path d="m20 20.125 12.172-7.712.232.377z" fill="#eaebec"/><path d="m20 20.125 12.357-7.41.223.381z" fill="#ebecec"/><path d="m20 20.125 12.535-7.105.214.387z" fill="#ececed"/><path d="m20 20.125 12.706-6.795.204.392z" fill="#ecedee"/><path d="m20 20.125 12.869-6.481.194.397z" fill="#edeeef"/><path d="m20 20.125 13.024-6.164.184.402z" fill="#eeefef"/><path d="m20 20.125 13.171-5.842.175.406z" fill="#efeff0"/><path d="m20 20.125 13.31-5.517.165.41z" fill="#f0f0f1"/><path d="m20 20.125 13.442-5.189.154.414z" fill="#f1f1f2"/><path d="m20 20.125 13.566-4.857.144.418z" fill="#f1f2f2"/><path d="m20 20.125 13.68-4.523.134.421z" fill="#f2f3f3"/><path d="m20 20.125 13.788-4.186.123.425z" fill="#f3f3f4"/><path d="m20 20.125 13.886-3.846.113.427z" fill="#f4f4f5"/><path d="m20 20.125 13.976-3.504.103.43z" fill="#f5f5f5"/><path d="m20 20.125 14.058-3.16.092.432z" fill="#f6f6f6"/><path d="m20 20.125 14.132-2.814.08.434z" fill="#f7f7f7"/><path d="m20 20.125 14.196-2.467.07.437z" fill="#f8f8f8"/><path d="m20 20.125 14.253-2.118.06.438z" fill="#f9f9f9"/><path d="m20 20.125 14.3-1.767.05.44z" fill="#fafafa"/><path d="m20 20.125 14.34-1.416.037.44z" fill="#fbfbfb"/><path d="m20 20.125 14.37-1.063.027.44z" fill="#fdfdfd"/><path d="m20 20.125 14.392-.71.016.441z" fill="#fefefe"/><path d="m20 20.125 14.405-.357.004.354z" fill="#373435"/></g></svg>