<svg width="40" height="40" fill="none" xmlns="http://www.w3.org/2000/svg"><g clip-path="url(#a)" transform="matrix(1.4 0 0 1.4 -8 -8)"><g clip-path="url(#b)"><path d="M20 30c5.522 0 10-4.478 10-10 0-5.523-4.478-10-10-10-5.523 0-10 4.477-10 10 0 5.522 4.477 10 10 10z" fill="#255e35"/><path d="M26.375 25.465c-1.314 1.54-2.969 2.497-4.956 2.85-4.122.732-8.194-1.7-9.485-5.686-.502-1.55-.698-3.135-.04-4.7.799-1.897 2.222-3.037 4.26-3.37 2.816-.462 5.535 1.383 6.166 4.165.644 2.844-.95 5.625-3.733 6.503-.081.026-.169.031-.256.123 2.675 1.163 5.344 1.18 8.044.115z" fill="#fad347"/><path d="M15.414 20.72c.345-1.066.705-2.116 1.02-3.18.108-.368.348-.298.597-.312.246-.013.408.028.495.316.32 1.062.675 2.114 1.042 3.249.17-.517.319-.967.464-1.418.199-.62.398-1.24.59-1.86.062-.204.17-.304.393-.288.203.015.407 0 .61.004.34.007.393.082.28.415-.484 1.425-.97 2.849-1.456 4.272-.004.01-.01.02-.013.03-.312.899-.088.699-1.022.735-.238.01-.338-.084-.41-.3-.3-.9-.618-1.795-.929-2.693-.02-.058-.046-.114-.081-.202-.13.153-.15.324-.204.475-.285.805-.567 1.61-.835 2.421-.072.217-.174.309-.411.3-.942-.036-.71.162-1.02-.736-.49-1.412-.971-2.826-1.456-4.239-.138-.401-.086-.484.332-.477 1.017.017.771-.167 1.095.805.273.82.534 1.644.8 2.467.023.07.025.149.119.216z" fill="#255e35"/></g></g><defs><clipPath id="a"><path fill="#fff" d="M0 0h40v40H0z"/></clipPath><clipPath id="b"><path fill="#fff" transform="translate(10 10)" d="M0 0h20v20H0z"/></clipPath></defs></svg>