<svg width="40" height="40" fill="none" xmlns="http://www.w3.org/2000/svg"><path fill-rule="evenodd" clip-rule="evenodd" d="M26.46 11.131c-.22-.001-.45.008-.662.008H13.083c-.123.212-.336.358-.476.548-.256.349-.541.65-.796.998-.073.099-.202.176-.274.274-.172.234-.353.44-.526.674l-.148.126c-.666.907-1.477 1.686-2.144 2.593-.05.041-.1.08-.149.122-.217.296-.457.554-.674.85-.072.098-.202.175-.274.273-.339.462-.734.861-1.074 1.322l-.125.099-.274.377c-.045.06-.095.057-.122.148H6c.065.208.49.465.625.648.208.283.477.503.723.75.361.361.709.734 1.07 1.096.283.3.567.596.85.895.262.262.55.498.772.8.091.083.183.164.274.248.295.294.624.587.872.925.375.365.75.73 1.124 1.097.128.174.272.32.422.472.511.511 1.009 1.035 1.52 1.546l.35.323c.062.083.105.154.175.225.098.098.223.18.297.3h8.256c-.111-.179-.326-.282-.45-.448-.315-.43-.749-.776-1.123-1.15-.365-.366-.704-.754-1.07-1.12-.207-.2-.417-.398-.624-.598-.041-.055-.053-.105-.1-.152-.431-.424-.866-.848-1.298-1.272v-.05l-1.393-1.37c-.223-.303-.511-.534-.773-.796-.412-.411-.812-.838-1.223-1.25-.324-.332-.65-.66-.975-.993.032-.106.1-.13.153-.202.112-.153.21-.295.323-.45l.122-.098c.283-.387.592-.733.876-1.12.041-.033.08-.07.122-.103v-.05l.103-.075v-.05l.122-.099c.074-.101.127-.195.201-.297.042-.033.081-.07.122-.103.068-.092.105-.185.202-.247.013-.012.458 0 .575 0h6.679c1.134 0 1.858-.168 2.32.575.248.4.35 1.263.076 1.717-.169.279-.388.435-.701.575-.211.095-.368.124-.67.149-.073.006-.183.053-.252 0h-7.452c.035.111.125.152.198.224l.499.5c.054.054.078.11.126.174l.521.5c.12.118.223.235.324.372l.697.674.278.324c.253.254.53.48.746.773l.198.175c.223.223.462.441.651.697.075.067.147.135.221.202.223.223.463.44.651.697l.45.423c.182.182.339.392.521.575.254.254.531.48.747.773l.525.498c.3.316.6.629.899.945l.274.251c.008.025.014.051.023.076.07.079.167.131.225.225H34c-.114-.184-.3-.326-.45-.476a2.224 2.224 0 0 1-.224-.274l-.423-.4c-.055-.055-.077-.107-.125-.171l-.149-.126a4.152 4.152 0 0 1-.423-.476c-.05-.042-.102-.08-.152-.122a4.266 4.266 0 0 1-.423-.476c-.107-.1-.216-.197-.323-.297a2.709 2.709 0 0 1-.274-.324l-.176-.152a4.583 4.583 0 0 1-.472-.522c-.041-.033-.084-.065-.125-.099l-.575-.601c-.028-.022-.001.005-.023-.023 1.804-.744 3.164-1.87 3.865-3.717.094-.247.13-.542.198-.796l.026-.373c.05-.194.073-.573.023-.773-.039-.16.01-.394-.023-.525v-.297c-.03-.118-.046-.312-.076-.427l-.05-.472c-.098-.36-.152-.746-.273-1.097-.434-1.254-1.116-2.355-2.095-3.069-.083-.06-.187-.186-.274-.248-.638-.445-1.386-.77-2.193-1.047-.459-.156-.986-.175-1.474-.3h-.248a2.643 2.643 0 0 0-.609-.058z" fill="#da2128" style="stroke-width:1.4"/></svg>