<svg width="40" height="40" fill="none" xmlns="http://www.w3.org/2000/svg"><g clip-path="url(#a)" transform="matrix(1.4 0 0 1.4 -8 -8)" fill-rule="evenodd" clip-rule="evenodd"><path d="M10 10h20v20H10Z" fill="#000"/><path d="M10.578 10.578h18.843v18.843H10.578z" fill="#fff200"/><path d="m11.578 25.614 2.458 2.506 5.76-5.843 5.95 5.963 2.495-2.47-5.892-5.89 1.132-1.097v-2.337l.711-.602v1.83l.916.748 2.735-2.735.88.674c.518-1.915-2.483-6.265-4.964-3.855l-2.892 2.867.59.711-1.47 1.434-1.421-1.398.747-.675-3.169-3.06c-2.385-1.964-4.831 1.025-4.916 3.94l.868-.723 2.662 2.868.952-.795v-1.76l.59.446v2.302l1.157 1.156z" fill="#000"/></g><defs><clipPath id="a"><path fill="#fff" d="M0 0h40v40H0z"/></clipPath></defs></svg>