<svg width="40" height="40" fill="none" xmlns="http://www.w3.org/2000/svg"><g clip-path="url(#a)" transform="matrix(1.4 0 0 1.4 -7.6 -7.901)"><g clip-path="url(#b)"><path d="M29 27.493h-.458c-1.577 0-3.154-.019-4.729.014-.42.008-.581-.148-.736-.504-1.297-2.986-2.615-5.963-3.925-8.943l-.121-.277a6015.51 6015.51 0 0 0-2.345 5.234c.114.083.226.05.326.05.953.003 1.907.008 2.86-.002.197-.002.299.048.38.24.547 1.29 1.11 2.573 1.67 3.859.083.188.161.334-.17.334-4.204-.006-8.407-.005-12.612-.006-.047 0-.094-.013-.14-.02-.015-.144.07-.242.122-.348 2.434-4.92 4.87-9.837 7.294-14.759.13-.263.267-.368.571-.365 1.442.02 2.885.013 4.326.003.239-.002.367.06.474.287 2.35 4.959 4.707 9.912 7.064 14.866.042.087.078.175.149.337z" fill="#fafcff"/></g></g><defs><clipPath id="a"><path fill="#fff" d="M0 0h40v40H0z"/></clipPath><clipPath id="b"><path fill="#fff" transform="translate(9 12)" d="M0 0h20v15.507H0z"/></clipPath></defs></svg>