<svg width="40" height="40" fill="none" xmlns="http://www.w3.org/2000/svg"><g clip-path="url(#a)" transform="matrix(1.4 0 0 1.4 -8 -8)"><path fill-rule="evenodd" clip-rule="evenodd" d="M20 10c5.523 0 10 4.477 10 10s-4.477 10-10 10-10-4.477-10-10 4.477-10 10-10zm.476 18.977c3.466-.761 6.583-2.664 7.808-6.358.868-2.616.39-5.31-.821-7.264-5.163-8.337-13.346-.545-6.476 3.507 1.57.926 2.644 2.018 3.125 3.307 1.323 3.54-1.184 5.245-3.636 6.808zm-.952-17.954c-3.466.761-6.583 2.664-7.808 6.358-.868 2.615-.39 5.309.821 7.264 5.163 8.336 13.345.545 6.476-3.507-1.57-.926-2.644-2.018-3.125-3.307-1.323-3.54 1.184-5.245 3.636-6.808z" fill="#fff"/></g><defs><clipPath id="a"><path fill="#fff" d="M0 0h40v40H0z"/></clipPath></defs></svg>