<svg width="40" height="40" fill="none" xmlns="http://www.w3.org/2000/svg"><g clip-path="url(#a)" transform="matrix(1.4 0 0 1.4 -7.997 -7.997)"><mask id="b" mask-type="alpha" maskUnits="userSpaceOnUse" x="10" y="11" width="20" height="18"><path fill="#fff" d="M10 11.149h20v17.702H10z"/></mask><g mask="url(#b)" fill-rule="evenodd" clip-rule="evenodd"><path d="M25.718 15.935a6.633 6.633 0 0 1-2.366 12.827 6.61 6.61 0 0 1-4.7-1.953l2.05-3.78a2.8 2.8 0 0 0 5.447-.898 2.798 2.798 0 0 0-2.317-2.756zM19.298 15.733c1.23-.816 2.733-1.165 4.106-1.165.723 0 1.139.063 1.839.246l2.007-3.665h-5.44z" fill="#b1b2b4"/><path d="m24.759 15.67-2.088 3.808c-.365.08-.57.168-.883.373-.426.28-.499.445-.882.964l-2.193 4.01c-.615 1.123-1.54 2.467-3.638 3.426-1.787.816-3.605.668-5.075.213l2.029-3.665c.65.122 1.077.075 1.684-.187.692-.299 1.066-.645 1.417-1.312l2.71-4.874c.27-.366 1.27-1.892 3.392-2.563a6.787 6.787 0 0 1 3.527-.193z" fill="#006caa"/></g></g><defs><clipPath id="a"><path fill="#fff" d="M0 0h40v40H0z"/></clipPath></defs></svg>