<svg width="40" height="40" fill="none" xmlns="http://www.w3.org/2000/svg"><path fill-rule="evenodd" clip-rule="evenodd" d="M17.467 12.254a3.564 3.564 0 0 1-1.057-2.59c0-.99.353-1.856 1.046-2.571C18.16 6.369 19.012 6 20 6c.97 0 1.82.362 2.525 1.083a3.57 3.57 0 0 1 1.068 2.58c0 1.011-.354 1.875-1.06 2.591-.707.721-1.563 1.081-2.534 1.081a3.39 3.39 0 0 1-2.532-1.08zm14.457 8.273v-2.228a3.819 3.819 0 0 0-3.815-3.819H11.89A3.818 3.818 0 0 0 8.076 18.3v8.39h18.093v1.271H8.075v2.224A3.815 3.815 0 0 0 11.89 34h16.22a3.816 3.816 0 0 0 3.814-3.816v-8.387h-18.09v-1.27z" fill="#e30613" style="stroke-width:1.4"/></svg>