<svg width="40" height="40" fill="none" xmlns="http://www.w3.org/2000/svg"><g clip-path="url(#a)" transform="matrix(1.4 0 0 1.4 -7.997 -8)"><mask id="b" mask-type="alpha" maskUnits="userSpaceOnUse" x="10" y="14" width="20" height="12"><path fill="#fff" d="M10 14.789h20v10.422H10z"/></mask><g mask="url(#b)" fill-rule="evenodd" clip-rule="evenodd" fill="#ff4d5a"><path d="M16.67 14.792c.289-.002.579-.001.868 0-.002.952 0 1.904 0 2.856-.006.369-.093.744-.304 1.05-.212.322-.564.531-.936.615-.483.096-1.02.038-1.422-.268-.675-.48-.863-1.497-.425-2.196.42-.746 1.507-1.036 2.222-.546-.006-.504 0-1.007-.003-1.511zm-.98 2.038c-.608.102-.81.884-.53 1.37.23.435.872.537 1.245.232.353-.28.405-.824.208-1.21-.169-.326-.574-.472-.923-.392zM20.466 14.791c.29.001.58-.001.868.002-.002.951 0 1.903 0 2.855-.002.39-.1.788-.338 1.102-.301.416-.831.618-1.334.604a1.624 1.624 0 0 1-1.112-.407c-.582-.522-.71-1.471-.283-2.127.43-.723 1.497-1 2.201-.522-.004-.502 0-1.005-.002-1.507zm-.972 2.038c-.601.096-.814.863-.545 1.35.217.442.848.56 1.233.27.356-.258.417-.777.261-1.164-.15-.36-.578-.542-.949-.456zM21.96 14.791c.29 0 .578.002.866-.002.007.287-.006.575.008.862-.29.018-.581.002-.872.01-.003-.29 0-.58-.001-.87zM23.518 14.791h.867v2.432c.248.01.513 0 .723-.149.301-.202.423-.58.44-.926.276-.012.552-.002.828-.006a1.847 1.847 0 0 1-.665 1.47c.32.56.65 1.114.965 1.677-.316-.002-.632 0-.948 0-.226-.42-.466-.83-.695-1.248-.027-.037-.043-.111-.103-.096a5.42 5.42 0 0 1-.545.013c.001.443-.001.886.001 1.33-.29.002-.58 0-.868 0V14.79zM10 19.29c.59-1.397 1.17-2.798 1.768-4.191.248.007.497 0 .745.005.528 1.397 1.068 2.79 1.6 4.186a68.295 68.295 0 0 0-.97 0c-.104-.295-.205-.59-.308-.884-.52.002-1.04 0-1.559.001-.105.294-.217.585-.32.88-.318.005-.637-.002-.956.003zm2.074-3.042c-.166.487-.35.969-.537 1.448.35-.004.7 0 1.049-.002-.172-.481-.322-.972-.512-1.446zM28.086 16.08c.455-.067.935.063 1.294.35.54.414.744 1.19.514 1.824a1.65 1.65 0 0 1-1.313 1.083c-.286.033-.585.022-.856-.085a1.645 1.645 0 0 1-1.002-1.06 1.67 1.67 0 0 1 .165-1.345 1.65 1.65 0 0 1 1.198-.768zm.048.749a.778.778 0 0 0-.404.206c-.316.316-.331.858-.097 1.225.263.398.88.461 1.235.152.314-.271.36-.755.213-1.125-.148-.362-.576-.544-.947-.458zM21.96 16.143h.87c-.005 1.049 0 2.098-.003 3.147-.289-.003-.577 0-.866-.002-.001-1.049.002-2.097-.001-3.145zM21.309 20.65h.88c-.003.81-.009 1.62.002 2.43.26.003.543-.008.753-.18.279-.214.38-.575.407-.91.275-.002.55 0 .826-.002.01.555-.22 1.123-.661 1.47.322.558.637 1.12.957 1.679a50.32 50.32 0 0 0-.96 0c-.256-.443-.486-.904-.757-1.337-.19.002-.38.01-.57.003 0 .444-.002.887.002 1.33-.293.002-.586.003-.879 0 .003-1.494.004-2.989 0-4.483zM10.091 20.948c.576.002 1.152-.002 1.728.002.32.005.65.089.9.298.377.31.499.876.315 1.322-.07.18-.22.305-.377.408.231.06.416.242.519.454.198.438.08.99-.262 1.322-.26.262-.638.383-1.002.38-.608 0-1.216.003-1.824 0 .006-1.395 0-2.79.003-4.186zm.842.736c.006.328.001.656.002.984l.788.001c.182.001.384-.065.478-.232a.583.583 0 0 0 .017-.491c-.09-.18-.3-.263-.491-.261-.265-.002-.53 0-.794-.001zm.002 1.692v1.022h.837c.165 0 .34-.026.47-.136.19-.153.215-.446.103-.653-.108-.179-.332-.232-.526-.234l-.884.001zM14.168 22.392c.587-.593 1.622-.636 2.265-.111.367.296.567.767.572 1.235.005.54 0 1.08.002 1.62-.277-.001-.555-.002-.832 0 .001-.104.004-.208.008-.312-.516.549-1.467.484-1.998-.01-.65-.623-.674-1.794-.017-2.422zm.958.298a.793.793 0 0 0-.561.518c-.107.331-.064.731.175.997.337.371 1.016.335 1.295-.088.237-.362.221-.898-.082-1.218-.21-.219-.54-.27-.827-.209zM18.088 22.276c.262-.235.617-.34.962-.357.366-.02.745.054 1.053.259.294.196.488.524.549.87.046.216.029.437.03.656.003.476-.002.952.004 1.428-.289.007-.576-.003-.865.007-.013-.494-.002-.989-.005-1.483-.004-.223.026-.468-.097-.667-.226-.41-.929-.4-1.136.023a.965.965 0 0 0-.09.457c.002.556 0 1.112.001 1.667-.285-.002-.57-.002-.855 0l-.001-1.806a1.382 1.382 0 0 1 .45-1.054z"/></g></g><defs><clipPath id="a"><path fill="#fff" d="M0 0h40v40H0z"/></clipPath></defs></svg>