<svg width="40" height="40" fill="none" xmlns="http://www.w3.org/2000/svg"><g clip-path="url(#a)" transform="matrix(1.4 0 0 1.4 -8.082 -8)"><g clip-path="url(#b)"><path d="M26.59 30c-8.646 0 .176 0-5.7-.01-3.204-.003-5.856-1.206-7.843-3.756a9.41 9.41 0 0 1-1.945-4.608A11.534 11.534 0 0 1 11 20.092c0-2.95-.002-5.902.002-8.852 0-.77.513-1.287 1.212-1.236.655.046 1.109.554 1.109 1.258.002 2.938-.02 5.877.006 8.815.03 3.18 1.468 5.512 4.338 6.917.839.411 1.745.605 2.682.605 8.119.002-10.14 0 7.348.002.452 0 1 .056 1.318.337.354.315.402.785.395.933-.016.338-.107.608-.369.828a1.443 1.443 0 0 1-.857.302c-8.632-.002-1.594 0-1.594 0z" fill="#00a44e"/><path d="M16.843 17.193c0-1.873.007-3.746-.007-5.618-.002-.314.092-.395.392-.382.513.023 1.029.024 1.542 0 .29-.015.361.072.36.36-.01 2.987 0 5.973-.015 8.96-.001.351.077.45.437.443 1.481-.022 2.963.001 4.444-.017.303-.004.359.093.35.366-.02.538-.015 1.077-.002 1.615.004.192-.05.246-.244.245a828.41 828.41 0 0 0-7.014.003c-.287.002-.241-.152-.241-.319-.002-1.886-.002-3.772-.002-5.656z" fill="#fff"/></g></g><defs><clipPath id="a"><path fill="#fff" d="M0 0h40v40H0z"/></clipPath><clipPath id="b"><path fill="#fff" transform="translate(11 10)" d="M0 0h18.412v20H0z"/></clipPath></defs></svg>