<svg width="40" height="40" fill="none" xmlns="http://www.w3.org/2000/svg"><mask id="a" mask-type="alpha" maskUnits="userSpaceOnUse" x="10" y="18" width="20" height="4"><path fill="#fff" d="M10 18.255h20v3.49H10z"/></mask><g mask="url(#a)" transform="matrix(1.4 0 0 1.4 -8.002 -7.983)" fill-rule="evenodd" clip-rule="evenodd" fill="#df0024"><path d="m12.362 18.58-.337.626a.976.976 0 0 0-.261-.15.853.853 0 0 0-.3-.056.482.482 0 0 0-.24.065.227.227 0 0 0-.123.194c.002.06.024.11.065.147a.48.48 0 0 0 .148.093c.058.023.112.042.163.056l.216.062c.232.06.422.154.571.283.15.13.227.317.232.564.002.157-.022.308-.071.455a.849.849 0 0 1-.266.38c-.13.102-.274.177-.434.223-.16.047-.324.07-.49.07a2.015 2.015 0 0 1-.601-.094 2.135 2.135 0 0 1-.543-.26l.363-.65c.105.09.22.166.346.226.125.06.26.092.405.094a.52.52 0 0 0 .28-.074c.082-.05.125-.13.13-.238a.231.231 0 0 0-.093-.181.683.683 0 0 0-.207-.11 2.83 2.83 0 0 0-.214-.063 2.742 2.742 0 0 1-.464-.157.709.709 0 0 1-.306-.257c-.073-.11-.11-.265-.11-.462.001-.21.05-.394.146-.55a.967.967 0 0 1 .395-.36 1.28 1.28 0 0 1 .581-.13c.168 0 .343.023.524.069.182.045.346.107.495.186zM15.664 19.024v.773h.082c.095.002.186-.007.275-.025a.442.442 0 0 0 .222-.111c.058-.056.088-.14.09-.25-.002-.111-.032-.195-.09-.25a.441.441 0 0 0-.222-.112 1.246 1.246 0 0 0-.275-.025h-.082zm.838 1.213 1.023 1.271h-1.053l-.8-1.193h-.008v1.193h-.846v-3.1h1.265c.217-.001.41.032.58.1.169.067.303.17.401.312.098.14.148.321.15.541a.924.924 0 0 1-.183.57.826.826 0 0 1-.529.306zM14 19.091v2.418h-.846V19.09h-.7v-.683H14.7v.683z"/><path d="M21.594 19.02v.6h.095a.741.741 0 0 0 .313-.051c.091-.038.14-.121.144-.25-.001-.092-.027-.16-.076-.203a.359.359 0 0 0-.186-.082 1.339 1.339 0 0 0-.23-.014zm.458 2.484h-1.304v-3.101h1.209c.293-.004.527.057.7.18.174.125.263.333.267.626a.793.793 0 0 1-.08.374.594.594 0 0 1-.279.26v.008c.232.03.401.115.508.254.106.139.159.317.157.535-.003.215-.06.386-.173.513a.928.928 0 0 1-.435.271c-.178.055-.368.081-.57.08zm-.458-1.283v.666h.108c.087.002.182-.001.286-.01a.6.6 0 0 0 .269-.082c.075-.047.115-.126.119-.237-.004-.122-.043-.207-.12-.254a.563.563 0 0 0-.273-.08 3.664 3.664 0 0 0-.303-.003zm-2.259.132-.345-.987h-.009l-.35.987zm.229.617h-1.166l-.225.539h-.898l1.253-3.101h.924l1.226 3.1h-.903zM25.252 20.353l-.345-.987h-.009l-.35.987zm.229.617h-1.166l-.225.539h-.898l1.253-3.101h.924l1.226 3.1h-.903zM28.237 19.777h1.68c0 .225-.02.438-.06.638a1.52 1.52 0 0 1-.272.588c-.162.21-.358.365-.588.463-.23.098-.481.147-.755.145a1.944 1.944 0 0 1-.905-.207 1.51 1.51 0 0 1-.608-.572 1.668 1.668 0 0 1-.223-.857c.002-.338.077-.632.225-.881.147-.25.353-.443.617-.58.264-.137.572-.207.924-.21.336 0 .63.073.88.217.25.144.446.362.588.652l-.803.32a.728.728 0 0 0-.704-.493.772.772 0 0 0-.467.148.896.896 0 0 0-.283.367 1.17 1.17 0 0 0 .003.93.887.887 0 0 0 .29.36.798.798 0 0 0 .47.144.77.77 0 0 0 .466-.135.55.55 0 0 0 .217-.403h-.691v-.634z"/></g></svg>