<svg width="40" height="40" fill="none" xmlns="http://www.w3.org/2000/svg"><g clip-path="url(#a)" transform="matrix(1.4 0 0 1.4 -7.998 -7.999)"><mask id="b" mask-type="alpha" maskUnits="userSpaceOnUse" x="10" y="13" width="20" height="14"><path fill="#fff" d="M10 13.968h20v12.064H10z"/></mask><g mask="url(#b)"><path fill-rule="evenodd" clip-rule="evenodd" d="M18.753 13.968c-.809.008-1.464.18-1.846.34-1.464.612-2.354 1.498-2.95 2.519a5.697 5.697 0 0 0-.739 3.4c.024.236.04.406.073.573.227 1.434 1.127 2.751 2.36 3.698 1.026.79 2.269 1.408 3.588 1.411.46 0 .96-.056 1.47-.182l.154-.044a7.606 7.606 0 0 1-2.214-1.14c-.294.042-.94.066-1.522-.045-1.005-.19-1.67-.64-1.676-.65a5.461 5.461 0 0 1-.962-3.126c.024-1.832.89-3.098.978-3.232a5.93 5.93 0 0 1 1.514-1.558c.928-.667 2.041-1.067 3.206-1.044.106.002.213.007.32.016 2.355.205 3.73 1.994 3.73 1.994-.896-1.3-2.291-2.29-3.888-2.73a5.982 5.982 0 0 0-1.596-.2zm.096 1.455c-.687.188-1.093.38-1.661.797-.342.25-.806.64-1.155 1.107-.843 2.06.322 4.028.854 4.838a8.153 8.153 0 0 0 2.044 2.147c1.944 1.415 4.133 1.524 6.485 1.65 1.45.076 4.573.064 4.573.064l-.92-1.752-.4-.003c-.375 0-2.524-.01-3.574-.067-1.295-.07-2.3-.152-2.951-.32-1.392-.359-2.743-1.057-3.82-2.694-.422-.643-.843-1.682-.886-2.569-.093-1.888.8-2.87 1.41-3.198zm3.717.49c.813.844 1.486 2.644.905 4.597a6.15 6.15 0 0 1-1.84 2.852c.199.069.4.128.6.18.401.103.954.173 1.654.23.525-.711 1.422-2.318 1.313-3.782-.07-1.187-.647-2.803-2.632-4.077zm-11.794 8.62L10 25.907h7.406c-.72-.273-1.386-.678-1.972-1.129a7.518 7.518 0 0 1-.303-.247z" fill="#005fa8"/></g></g><defs><clipPath id="a"><path fill="#fff" d="M0 0h40v40H0z"/></clipPath></defs></svg>