<svg width="40" height="40" fill="none" xmlns="http://www.w3.org/2000/svg"><g clip-path="url(#a)" transform="matrix(1.4 0 0 1.4 -8 -8)"><mask id="b" mask-type="alpha" maskUnits="userSpaceOnUse" x="10" y="13" width="20" height="14"><path fill="#fff" d="M10 13.661h20V26.34H10z"/></mask><g mask="url(#b)" fill-rule="evenodd" clip-rule="evenodd"><path d="M10 13.66h18.563c.397 0 .756.162 1.016.422s.421.62.421 1.016V26.34H11.438a1.437 1.437 0 0 1-1.437-1.437z" fill="#143e70"/><path d="M14.706 16.14c.481 0 .87.39.87.872v6.075c0 .481-.39.871-.87.871h-.93v.756h-1.22V16.14zm3.951.052c.481 0 .87.39.87.871v6.024c0 .481-.39.871-.87.871h-1.279a.872.872 0 0 1-.872-.871v-6.024c0-.481.39-.871.872-.871zm3.95 0c.482 0 .872.39.872.871v2.908a.523.523 0 0 1-.523.523c.289 0 .523.234.523.523v2.941h-1.22v-2.476a.29.29 0 0 0-.291-.29h-.29v2.766h-1.22v-7.766zm3.952 0c.481 0 .87.39.87.871v2.908a.523.523 0 0 1-.522.523c.288 0 .523.234.523.523v2.941h-1.22v-2.476a.29.29 0 0 0-.291-.29h-.29v2.766h-1.22v-7.766zm-8.541 6.546a.291.291 0 0 1-.291-.29v-4.746a.29.29 0 0 1 .58 0l.001 4.746c0 .16-.13.29-.29.29m4.241-3.232c0 .16-.13.29-.291.29h-.29v-2.384h.29c.16 0 .29.13.29.29zm3.951 0c0 .16-.13.29-.291.29h-.29v-2.384h.29c.16 0 .29.13.29.29zM14.067 17.36c.16 0 .29.13.29.29v4.798c0 .16-.13.29-.29.29h-.29l-.001-5.378z" fill="#ffed00"/></g></g><defs><clipPath id="a"><path fill="#fff" d="M0 0h40v40H0z"/></clipPath></defs></svg>