<svg width="40" height="40" fill="none" xmlns="http://www.w3.org/2000/svg"><mask id="a" mask-type="alpha" maskUnits="userSpaceOnUse" x="10" y="15" width="20" height="10"><path fill="#fff" d="M10 15.003h20v9.995H10z"/></mask><g mask="url(#a)" transform="matrix(1.4 0 0 1.4 -8.054 -7.999)"><path fill-rule="evenodd" clip-rule="evenodd" d="M27.834 21.89v-2.236h1.502v-1.637h-1.502v-2.642L25.252 16.7v1.318h-1.437v1.637h1.437v2.593c-.006.27.016.54.06.81l-3.172-2.706c.573-.405 1.14-.924 1.14-1.831 0-1.75-2.048-1.875-2.772-1.875-1.518 0-2.852.654-2.858 1.853-.005.918.773 1.696 1.113 1.994-.513.216-1.237.443-1.534 1.15-.184-.648-.648-.983-1.275-1.183-1.62-.502-2.669-.486-2.669-.988 0-.395.238-.6.621-.6.357 0 .557.092.692.243.124.135.162.335.162.567h2.453c-.108-1.89-1.588-2.29-3.21-2.29-1.36 0-3.16.443-3.16 2.128 0 2.48 4.047 1.756 4.047 2.966 0 .438-.368.627-.87.627-.243 0-.465-.135-.616-.313a.764.764 0 0 1-.178-.611h-2.458c-.011 2.085 1.62 2.426 3.295 2.426 1.34 0 2.766-.34 3.15-1.578.08.205.194.4.335.573.654.843 1.858 1 2.555 1 1.453 0 1.918-.573 2.366-.94l1.06.95 2.96-.005v.005h3.004l.01-1.405c-.302.044-1.658-.059-1.669-1.318m-7.326-4.111c.346 0 .66.184.649.513-.006.303-.487.735-.66.86-.632-.482-.68-.708-.68-.854 0-.303.324-.519.691-.519zm-.054 5.246c-.648 0-.924-.378-.924-.675 0-.249.098-.422.67-.681l1.14.994c-.216.254-.572.362-.886.362z" fill="#005083"/></g></svg>