<svg width="40" height="40" fill="none" xmlns="http://www.w3.org/2000/svg"><g clip-path="url(#a)" transform="matrix(1.4 0 0 1.4 -8 -8)" fill-rule="evenodd" clip-rule="evenodd"><path d="M10.7 15.405c-.192 0-.329.051-.407.153-.116.152-.062.36-.06.369.089.274 1.328 2.385 1.706 3.026l.313.553c.131-2.588 2.037-4.104 2.037-4.104M13.538 20a4.805 4.805 0 0 0 4.798 4.802c2.236 0 4.296-1.098 6.68-3.56 1.069-1.106 3.941-4.404 4.505-5.053.262-.286.217-.485.185-.557-.046-.108-.161-.176-.299-.176l-5.063-.001-.211.296c-.828 1.16-3.027 4.242-3.247 4.535l-.23.316c-.555.779-1.13 1.582-2.318 1.582-1.171 0-2.153-.965-2.188-2.152a2.162 2.162 0 0 1 .64-1.568c.42-.425.985-.662 1.549-.65.416.007 1.198.132 1.756.877l.152.204 1.532-2.233-.13-.107c-.804-.656-2.096-1.356-3.313-1.356a4.804 4.804 0 0 0-4.798 4.8z" fill="#fd0"/><path d="m12.103 18.793-1.63-2.868s-.067-.094-.01-.207c0 0 .024-.097.206-.09h3.058s-1.28 1.232-1.624 3.165zm2.839-3.616-4.211-.005s-.469-.024-.649.298c0 0-.22.341.058.794l2.301 4.041s-.322-3.14 2.5-5.128zm14.442.892c-.45.517-3.404 3.914-4.5 5.046-2.345 2.423-4.365 3.504-6.548 3.504a4.623 4.623 0 0 1-4.616-4.62 4.622 4.622 0 0 1 4.616-4.618c1.12 0 2.382.646 3.21 1.323l-1.33 1.851c-.624-.79-1.395-.915-1.873-.924a2.328 2.328 0 0 0-1.683.705 2.347 2.347 0 0 0-.691 1.702c.037 1.283 1.1 2.328 2.37 2.328 1.281 0 1.91-.88 2.465-1.657l.228-.314c.237-.317 2.782-3.885 3.406-4.759l4.968.001c.066 0 .134.042.14.12.005.069.013.117-.164.31zm-5.18-.884c-.032.046-3.272 4.589-3.534 4.94l-.234.321c-.54.755-1.048 1.468-2.098 1.468-1.028 0-1.888-.848-1.918-1.89-.014-.495.19-.995.562-1.37.369-.373.861-.581 1.351-.571.45.008 1.278.164 1.76 1.117l.013.02.078.164 1.969-2.754c-.868-.82-2.434-1.702-3.817-1.702A5.075 5.075 0 0 0 13.268 20a5.076 5.076 0 0 0 5.068 5.072c3 0 5.36-2.08 6.873-3.643 1.19-1.228 4.542-5.093 4.575-5.131l-.002-.003c.296-.367.221-.659.172-.772a.578.578 0 0 0-.535-.337h-.014l-5.195-.002" fill="#231f20"/></g><defs><clipPath id="a"><path fill="#fff" d="M0 0h40v40H0z"/></clipPath></defs></svg>