<svg width="40" height="40" fill="none" xmlns="http://www.w3.org/2000/svg"><path fill-rule="evenodd" clip-rule="evenodd" d="M6 29.627h28V10.373H6Zm15.391-13.958h-1.226a.085.085 0 0 0-.078.052c-.244.431-5.448 10.231-5.448 10.231v.052c0 .018.048 0 .048 0h1.235c.03 0 .037 0 .055-.044l5.455-10.228s.033-.063-.04-.063zm-1.393-1.975c-5.808.007-10.519 2.082-10.519 4.032 0 1.253 1.884 2.528 4.736 3.317a.03.03 0 0 0 .026-.018l.232-.432a.03.03 0 0 0-.018-.025c-1.976-.664-3.232-1.674-3.232-2.805 0-2.002 3.936-3.623 8.794-3.623 4.857 0 8.801 1.621 8.801 3.623 0 2.001-3.74 3.538-8.43 3.615l3.016-5.646s.033-.063-.04-.063H22.122a.081.081 0 0 0-.072.045L16.6 25.956s-.018.03 0 .048c.018.018.048 0 .048 0h1.235c.03 0 .036 0 .055-.044l2.26-4.228c5.72-.044 10.319-2.02 10.319-4.02 0-2.057-4.71-4.026-10.519-4.018z" fill="#fff" style="stroke-width:1.4"/></svg>