<svg width="40" height="40" fill="none" xmlns="http://www.w3.org/2000/svg"><g clip-path="url(#a)" transform="matrix(1.4 0 0 1.4 -8 -8)"><g clip-path="url(#b)" fill="#d83832"><path d="M20.01 10c5.513-.004 9.986 4.466 9.99 9.977.005 5.63-4.54 9.906-9.769 10.016-5.69.12-10.139-4.476-10.23-9.812C9.908 14.594 14.45 9.966 20.011 10Zm-9.58 9.99c.01 5.31 4.306 9.57 9.647 9.57 5.188-.002 9.48-4.315 9.49-9.54.01-5.282-4.346-9.643-9.587-9.598-5.278.046-9.56 4.335-9.55 9.568z"/><path d="M17.251 22.898c.149-.612.29-1.225.447-1.835.409-1.58.828-3.158 1.235-4.74.056-.218.14-.327.39-.32.585.019 1.171.017 1.757.003.224-.005.319.07.372.289.532 2.152 1.074 4.302 1.614 6.452.014.055.044.107.11.262.169-.695.307-1.294.46-1.888.417-1.617.838-3.233 1.269-4.846.027-.102.155-.25.24-.252.764-.02 1.53-.011 2.356-.011-.14.424-.26.804-.389 1.18-.857 2.49-1.72 4.976-2.566 7.468-.096.282-.227.378-.521.37a42.78 42.78 0 0 0-2.231 0c-.256.005-.366-.075-.423-.323-.395-1.708-.802-3.414-1.206-5.12-.016-.065-.046-.127-.107-.29-.166.658-.297 1.221-.451 1.78-.337 1.22-.689 2.438-1.024 3.66-.058.211-.15.297-.377.293-.792-.013-1.585.002-2.377-.016-.107-.002-.276-.116-.306-.212-.91-2.858-1.805-5.718-2.7-8.58-.014-.044-.013-.094-.028-.211h.833c.488 0 .977.015 1.463-.007.263-.011.36.093.42.334.532 2.14 1.074 4.278 1.613 6.416.011.045.028.089.042.133l.085.011z"/></g></g><defs><clipPath id="a"><path fill="#fff" d="M0 0h40v40H0z"/></clipPath><clipPath id="b"><path fill="#fff" transform="translate(10 10)" d="M0 0h20v19.996H0z"/></clipPath></defs></svg>