<svg width="40" height="40" fill="none" xmlns="http://www.w3.org/2000/svg"><path fill-rule="evenodd" clip-rule="evenodd" d="M17.751 11.77c-.46.044-.91.101-1.354.17H23.6c-.443-.069-.895-.126-1.354-.17zM26.202 12.52c-.203-.06-.41-.116-.619-.17h-11.17c-.208.054-.415.11-.618.17zM27.956 13.132a16.817 16.817 0 0 0-.435-.17H12.476c-.147.055-.292.111-.435.17zM29.273 13.743c-.11-.057-.22-.115-.332-.17H11.057c-.113.055-.223.113-.333.17zM30.327 14.355c-.09-.058-.182-.114-.275-.17H9.945c-.093.056-.185.112-.275.17zM31.187 14.967c-.074-.058-.15-.114-.227-.17H9.037c-.076.056-.153.112-.226.17ZM31.893 15.579a9.38 9.38 0 0 0-.184-.17H8.289a9.007 9.007 0 0 0-.185.17zM32.476 16.19c-.05-.057-.097-.114-.148-.17H7.67c-.051.056-.098.113-.147.17zM32.953 16.802a6.277 6.277 0 0 0-.123-.17H7.167a6.951 6.951 0 0 0-.122.17ZM33.33 17.413c-.03-.057-.064-.113-.097-.17H6.764a6.113 6.113 0 0 0-.097.17ZM33.618 18.025c-.023-.057-.044-.114-.07-.17h-27.1c-.024.056-.046.113-.068.17Z" fill="#4e99d2" style="stroke-width:1.4"/><path fill-rule="evenodd" clip-rule="evenodd" d="M28.691 18.702c.662.182 1.016.988 1.701 1.112.57.126.947.716 1.552.739.634.21 1.143.837 1.834.868.14-.461.217-.935.222-1.42-.465.031-.855-.226-1.211-.47-.526-.318-1.335-.057-1.69-.693.012-.057.07-.08.126-.08.434.08.822.262 1.278.307.137.068.263.17.423.204.38-.021.698.237 1.054.226a5.083 5.083 0 0 0-.165-.891c-.478-.198-1.052-.005-1.54-.072-.616-.125-1.37-.182-1.952.045-.776.193-1.46-.318-2.18 0-.639.114-1.152-.193-1.791-.125-.469.102-1.027.17-1.484-.023-.674-.113-1.267.295-1.93.057-.467-.159-.844.136-1.312.068-.456-.181-.958-.045-1.438-.011-.559-.17-1.187-.08-1.769-.045-.536-.194-1.095-.057-1.644 0-.49-.148-1.084-.148-1.597-.035-.48.091-.856-.08-1.313-.09-.639.068-1.312.25-1.94.034-.685-.046-1.256.295-1.963.17-.571-.193-1.244-.193-1.86-.08-.62-.01-1.266-.09-1.886-.006-.079.263-.137.53-.173.801.362.142.85.05 1.168-.102.582-.034 1.084-.284 1.61-.477.114.011.262-.068.353.034 0 .034 0 .068-.011.091-.434.5-1.096.511-1.701.648-.376.102-.662.442-1.05.522-.135.01-.283.036-.412.057.01.47.088.928.225 1.376.57-.016 1.047-.43 1.523-.684.468-.159.936-.317 1.346-.636.571-.238 1.187-.363 1.621-.931.274-.25.57-.488.948-.477.01.023.045.034.033.068-.49.602-1.118 1.125-1.803 1.375-.639.204-1.084.84-1.609 1.271-.548.296-1.187.409-1.62 1l-.016.031c.21.393.47.774.773 1.14.539-.137 1.025-.642 1.4-1.046.399-.386.935-.455 1.358-.773.513-.59 1.004-1.408 1.768-1.669.686-.352 1.016-1.295 1.827-1.34.023.023.057.034.045.08-.433.59-.901 1.34-1.62 1.635-.64.442-.856 1.147-1.358 1.68-.48.512-1.12.648-1.564 1.159-.185.453-.522.959-.976 1.184.393.352.828.687 1.304.999.283-.303.65-.44.962-.695.308-.319.41-.715.616-1.08.365-.545 1.027-.703 1.37-1.27.171-.535.593-1.023 1.05-1.42.879-.637.97-1.806 1.997-2.284.103-.034.263-.124.342 0a.318.318 0 0 1-.034.25c-.582.557-.64 1.352-1.324 1.829-.73.545-.845 1.408-1.232 2.124-.48.624-1.256 1.09-1.473 1.85-.133.573-.673.975-1.09 1.382.589.305 1.22.582 1.89.826.298-.482.371-1.086.627-1.594.285-.67 1.027-1.135 1.336-1.794.376-.92.661-1.875 1.414-2.636.697-.658.514-1.805 1.507-2.214.08-.023.194-.102.263 0 .011.137-.114.239-.171.352-.252.704-.469 1.42-1.04 1.999-.9.954-.581 2.407-1.46 3.373-.754.817-.5 2.053-1.04 2.97.597.163 1.214.303 1.852.416.234-.719.197-1.584.432-2.308.217-.68.73-1.249.833-1.975.012-.875.205-1.67.628-2.374.411-.59.456-1.328.708-1.987.125-.204.25-.5.525-.534.068.034.102.102.08.17-.115.42-.309.807-.309 1.273.069.715-.228 1.283-.502 1.862-.251.795-.068 1.76-.468 2.487-.274.556-.342 1.181-.297 1.84 0 .616-.446 1.117-.505 1.716.706.088 1.43.146 2.17.169.089-.522.01-1.106-.078-1.601-.16-.67.045-1.306.251-1.886.32-.783.034-1.624.08-2.464.206-.692.376-1.465.251-2.237-.045-.42-.102-.954.24-1.238.057-.023.125 0 .17.046.355.726-.045 1.59.138 2.373.194.727.49 1.544.17 2.306-.136.885.412 1.532.435 2.384-.068.754-.214 1.575-.005 2.309a23.175 23.175 0 0 0 2.1-.176c-.02-.14-.078-.305-.11-.43-.32-.635-.547-1.316-.467-2.112-.069-.636-.446-1.135-.525-1.749 0-.93-.103-1.817-.594-2.532-.262-.58.069-1.238-.229-1.806-.045-.204-.193-.443-.08-.647.08-.034.138.011.206.034.617.523.377 1.43.788 2.056.456.817.879 1.646.856 2.657.125 1.158.925 2.044 1.073 3.191.033.404.034.829.188 1.168a20.544 20.544 0 0 0 1.847-.425 6.082 6.082 0 0 1-.266-.595c-.149-.84-.274-1.67-.845-2.329-.513-.68-.559-1.543-.81-2.328-.126-.681-.856-1.112-1.142-1.737-.308-.477-.32-1.067-.627-1.544-.023-.046-.057-.114.011-.148a.512.512 0 0 1 .32.034c.959.636.924 1.783 1.792 2.51.582.636.674 1.476.958 2.237.274.692 1.04 1.158 1.324 1.85.31.497.259 1.152.642 1.616.688-.25 1.336-.536 1.938-.851-.374-.361-.727-.781-.856-1.263-.274-.818-1.221-1.193-1.655-1.942-.434-.795-.57-1.716-1.393-2.329-.524-.488-.81-1.09-1.187-1.646l-.034-.16c.057-.079.183-.068.274-.045.4.16.73.546 1.004.898.263.601.8 1.124 1.347 1.578.502.476.502 1.182 1.142 1.579.49.295 1.073.693 1.22 1.272.222.658.923.893 1.413 1.3.452-.306.866-.631 1.239-.974-.377-.221-.662-.6-.882-.951-.388-.546-.981-.738-1.46-1.136-.457-.34-.572-.851-.926-1.25-.593-.578-1.415-.907-1.78-1.69-.114-.194-.388-.353-.445-.58.057-.091.194-.069.296-.057.4.114.685.488.96.818.502.681 1.37.681 1.791 1.453.354.58.959.784 1.473 1.068.67.367 1.09 1.224 1.816 1.44.323-.397.591-.812.806-1.24a3.401 3.401 0 0 0-1.219-.666c-.525-.284-.844-.886-1.358-1.146-.764-.353-1.552-.637-2.157-1.364-.103-.102-.228-.215-.205-.352.034-.08.126-.08.205-.08z" fill="#cb575e" style="stroke-width:1.4"/></svg>