<svg width="40" height="40" fill="none" xmlns="http://www.w3.org/2000/svg"><g clip-path="url(#a)" transform="matrix(1.4 0 0 1.4 -8 -8)" fill-rule="evenodd" clip-rule="evenodd"><path d="M13.824 12.996a3.098 3.098 0 0 0-3.777 3.016 3.101 3.101 0 0 0 3.092 3.096 3.104 3.104 0 0 0 3.096-3.096 3.077 3.077 0 0 0-2.062-2.915l-1.279 2.191h-.405l1.335-2.292zm7.443.06-1.31 2.232h.405l1.3-2.233h1.006v5.92h-5.874v-5.92h2.488l-1.3 2.233h.406l1.307-2.233h1.572zm6.07 0-1.32 2.232h.405l1.31-2.233H30l-3.439 5.92-3.442-5.92h4.218z" fill="#093b6a"/><path d="M29.95 20.222H10v-.35h19.95z" fill="#82ba51"/><path d="M13.084 22.21c.99 0 1.795.907 1.795 2.018 0 1.112-.805 2.016-1.795 2.016-.986 0-1.791-.903-1.791-2.015s.805-2.019 1.791-2.019zm.003-.84c1.506 0 2.734 1.279 2.734 2.856 0 1.576-1.228 2.855-2.734 2.855-1.505 0-2.733-1.279-2.733-2.856 0-1.576 1.228-2.855 2.733-2.855zm13.548 4.185-1.955-4.051h-.942l2.64 5.47h.537l2.612-5.47h-.942zm-9.664-4.057v5.482h.823V22.6l1.517 4.38h.742l1.53-4.39v4.39h.831v-5.482h-1.282l-1.44 4.176-1.448-4.176h-1.273z" fill="#fff"/></g><defs><clipPath id="a"><path fill="#fff" d="M0 0h40v40H0z"/></clipPath></defs></svg>