<svg width="40" height="40" fill="none" xmlns="http://www.w3.org/2000/svg"><g clip-path="url(#a)" transform="matrix(1.4 0 0 1.4 -7.945 -7.945)" clip-rule="evenodd"><path fill-rule="evenodd" d="M10.773 11.432s-.773 0-.773.773V25.476c0 1.117.902 2.033 2.019 2.033.53 0 1.002-.215 1.36-.544l11.624-10.967v-3.793s0-.773-.773-.773z" fill="#fff"/><path fill-rule="evenodd" d="M27.358 16.056c-1.408-.026-1.911.616-1.911.616s-9.363 8.904-10.966 10.393c-.745.745-1.69 1.346-2.735 1.503h12.298L30 16.328s-2.248-.258-2.348-.258a4.883 4.883 0 0 0-.294-.014z" fill="#34546c"/><path fill-rule="evenodd" d="M18.389 13.239s-.196-.004-.4.098a.812.812 0 0 0-.427.729v1.317s-.004.196.098.4a.812.812 0 0 0 .729.427h2.133v-.509H18.39c-.202 0-.232-.063-.274-.146-.04-.082-.044-.172-.044-.172v-1.317c0-.202.063-.232.145-.274.083-.041.173-.044.173-.044h2.133v-.51zm-.845 3.003-1.69-2.82c-.056-.1-.128-.172-.243-.172-.114 0-.186.071-.243.172l-1.69 2.82h.588l1.331-2.262.644 1.102h-.902l-.229.415H16.5l.444.745zm-3.68-1.675h-2.06v.444h2.075v-.444zm-1.918 1.675v-2.434h2.506v-.515h-3.007v2.949zm9.736-3.003s-.197-.004-.4.098a.812.812 0 0 0-.428.729v1.317s-.003.196.099.4a.812.812 0 0 0 .729.427h2.133v-.509h-2.133c-.202 0-.233-.063-.274-.146-.041-.082-.045-.172-.045-.172v-1.317c0-.202.064-.233.146-.274.083-.041.173-.045.173-.045h2.133v-.508z" fill="#1d1d1b"/><path d="M25.004 15.999v-3.794s0-.773-.773-.773H10.773s-.773 0-.773.773V25.476c0 1.117.902 2.033 2.019 2.033.53 0 1.002-.215 1.36-.544z" stroke="#1d1d1b" stroke-width=".55"/></g><defs><clipPath id="a"><path fill="#fff" d="M0 0h40v40H0z"/></clipPath></defs></svg>