<svg width="40" height="40" fill="none" xmlns="http://www.w3.org/2000/svg"><g clip-path="url(#a)" transform="matrix(1.4 0 0 1.4 -7.997 -8)"><g clip-path="url(#b)"><path d="M28.502 14.747c.235.413.467.829.655 1.266.367.849.611 1.73.735 2.646.108.795.122 1.59.039 2.385a9.555 9.555 0 0 1-.534 2.346c-.012.03-.018.062-.026.093-.186.452-.373.902-.615 1.328-1.513 2.653-3.757 4.324-6.74 4.98a9.66 9.66 0 0 1-2.893.17c-3.832-.32-7.127-2.853-8.481-6.411-.008-.023-.02-.044-.031-.067-.143-.435-.287-.871-.38-1.322a10.441 10.441 0 0 1-.222-2.583 9.896 9.896 0 0 1 1.458-4.798c.006-.01.008-.022.012-.034.306-.463.625-.917.995-1.332 1.433-1.612 3.195-2.674 5.299-3.159a9.45 9.45 0 0 1 3.258-.193c3.17.378 5.631 1.915 7.394 4.575l.077.11z" fill="#397450"/><path d="m24.006 21.861.176-.491c.513-1.463 1.027-2.926 1.536-4.39.034-.099.08-.133.183-.128.197.009.395.007.592 0 .081-.002.112.02.124.103.091.61.188 1.218.283 1.827l.363 2.335c.084.539.166 1.077.252 1.616.011.073-.01.092-.082.09a21.105 21.105 0 0 0-.641 0c-.06 0-.082-.013-.092-.079-.136-.901-.276-1.802-.414-2.703-.086-.555-.17-1.11-.26-1.7-.052.143-.096.256-.136.37-.472 1.334-.944 2.666-1.413 4-.029.082-.064.117-.155.113a9.318 9.318 0 0 0-.654 0c-.087.003-.12-.028-.147-.106-.467-1.33-.936-2.66-1.405-3.99l-.144-.41-.205 1.339c-.157 1.027-.315 2.055-.47 3.083-.01.07-.042.084-.105.083a21.105 21.105 0 0 0-.642 0c-.07.001-.088-.011-.076-.09.301-1.931.6-3.863.896-5.796.01-.07.035-.086.1-.085.218.004.436.007.654 0 .09-.004.127.028.156.111.558 1.587 1.119 3.173 1.679 4.76l.047.138zM13.975 18.325l-.3 1.946-.374 2.462c-.01.064-.028.092-.099.091a19.598 19.598 0 0 0-.641 0c-.065 0-.092-.003-.078-.086.098-.611.188-1.224.283-1.835.136-.88.275-1.761.411-2.642.069-.439.137-.877.2-1.316.011-.075.042-.093.112-.092.214.004.428.007.642-.002.094-.004.125.036.154.116.466 1.328.936 2.655 1.404 3.983l.312.888c.047-.031.048-.083.063-.125.554-1.571 1.107-3.142 1.657-4.715.037-.108.083-.155.204-.148.197.013.395.008.592.002.076-.003.099.026.109.095.124.816.25 1.633.376 2.449l.314 2.03c.068.438.135.876.204 1.313.01.066-.012.085-.078.084a19.598 19.598 0 0 0-.641 0c-.066.001-.088-.017-.098-.086-.119-.788-.243-1.574-.363-2.362-.103-.667-.203-1.333-.307-2.012-.071.112-.096.232-.137.344a1135.56 1135.56 0 0 0-1.409 4.003c-.03.089-.072.118-.165.114a9.598 9.598 0 0 0-.642 0c-.087.002-.127-.024-.156-.11-.499-1.423-1.002-2.846-1.503-4.269l-.046-.12z" fill="#fff"/></g></g><defs><clipPath id="a"><path fill="#fff" d="M0 0h40v40H0z"/></clipPath><clipPath id="b"><path fill="#fff" transform="translate(10 10)" d="M0 0h19.984v20H0z"/></clipPath></defs></svg>