<svg width="40" height="40" fill="none" xmlns="http://www.w3.org/2000/svg"><path fill-rule="evenodd" clip-rule="evenodd" d="M15.113 17.526c-.016.032-.03.077-.046.112h1.512c-.016-.035-.03-.08-.046-.113zm17.097 0-.037.112h1.662v-.113zM6 17.53v.112h2.152v-.112zm2.423 0v.112h2.11l-.046-.112zm3.217 0v.112h2.213v-.112zm6.219 0v.112h1.27v-.112zm1.946 0v.112h1.186v-.112zm1.541 0v.112h2.292v-.112zm2.638 0v.112h1.21l-.02-.112zm2.091 0v.112h1.13v-.112zm1.326 0v.112h2.592v-.112zm2.825 0v.112h1.2v-.112zm-6.242.225v.112h1.33l-.037-.112zm2.091 0v.112h1.13v-.112zm5.94 0c-.019.035-.04.072-.057.112h1.882v-.112zM6 17.759v.112h2.152v-.112zm2.423 0v.112h2.493l-.047-.112zm3.217 0v.112h2.213v-.112zm3.198 0c-.022.038-.045.072-.065.112h2.1c-.02-.04-.043-.074-.065-.112zm3.02 0v.112h1.27v-.112zm1.947 0v.112h1.186v-.112zm1.541 0v.112h2.292v-.112zm6.055 0v.112h2.592v-.112zm2.825 0v.112h1.2v-.112zM6 18.035v.112h2.152v-.112zm2.423 0v.112h2.736l-.028-.112zm3.217 0v.112h2.213v-.112zm6.219 0v.112h1.27v-.112zm1.946 0v.112h1.186v-.112zm1.541 0v.112h2.292v-.112zm6.055 0v.112h2.592v-.112zm2.825 0v.112h1.2v-.112zm1.61 0c-.015.037-.031.072-.046.112h2.054v-.112zm-17.227.004c-.02.038-.038.073-.056.112h2.54c-.018-.04-.037-.074-.056-.112zm9.375 0v.112h1.466l-.042-.112zm2.091 0v.112h1.13v-.112zm5.645.271c-.012.037-.019.077-.028.117h2.157v-.117zM6 18.315v.112h2.152v-.112zm2.423 0v.112h2.88l-.032-.112zm3.217 0v.112h2.213v-.112zm2.806 0c-.019.035-.035.074-.052.112h2.858c-.017-.038-.034-.076-.052-.112zm3.413 0v.112h1.27v-.112zm1.946 0v.112h1.186v-.112zm1.541 0v.112h2.292v-.112zm6.055 0v.112h2.592v-.112zm2.825 0v.112h1.2v-.112zm-6.242.004v.112h1.606l-.051-.112zm2.091 0v.112h1.13v-.112zm5.584.271c-.005.043-.007.09-.009.136h1.2c-.008-.027-.008-.045-.01-.075 0-.021.005-.044.01-.06zm1.957 0c.057.046.105.094.144.136h.094v-.136zm-19.292.005c-.015.043-.028.086-.042.13h1.214a.76.76 0 0 1 .089-.13zm1.737 0c.032.036.061.08.089.13h1.214c-.014-.044-.031-.087-.047-.13zM6 18.6v.126h1.228V18.6zm2.423 0v.126h1.2V18.6zm1.662 0v.126h1.27l-.005-.126zm1.555 0v.126h1.2V18.6zm6.219 0v.126h1.27V18.6zm1.946 0v.126h1.186V18.6zm1.541 0v.126h1.2V18.6zm2.638 0v.126h1.741l-.06-.126zm2.091 0v.126h1.13V18.6zm1.98 0v.126h1.242V18.6zm2.17 0v.126h1.201V18.6zM6 18.912v.16h1.228v-.16zm2.423 0v.16H9.61v-.16zm1.779 0v.16h1.134l.028-.16zm1.438 0v.16h1.228v-.16zm2.591 0c-.013.052-.027.105-.037.16h1.167c.014-.057.033-.11.051-.16zm2.003 0c.017.05.033.103.047.16h1.171c-.01-.055-.024-.108-.037-.16zm1.625 0v.16h1.27v-.16zm1.946 0v.16h1.186v-.16zm1.541 0v.16h1.2v-.16zm2.638 0v.16h1.9l-.075-.16zm2.091 0v.16h1.13v-.16zm1.98 0v.16h1.242v-.16zm2.17 0v.16h1.201v-.16zm1.43 0c.006.057.018.112.032.164h1.466a1.734 1.734 0 0 1-.14-.131l-.032-.033zm.112.36c.04.078.09.153.144.22h1.714a3.065 3.065 0 0 0-.234-.22zm-7.783.005v.21h2.091l-.098-.21zm2.091.21h1.13v-.21h-1.13zM6 19.28v.205h2.152v-.205Zm2.423 0v.205H9.61v-.205Zm1.783 0s-.015.06-.05.103a.8.8 0 0 1-.132.102h1.298l.028-.205zm1.434 0v.205h2.157v-.205Zm6.219 0v.205h1.27v-.205Zm1.946 0v.205h1.186v-.205Zm1.541 0v.205h2.157v-.205Zm6.71 0v.205h1.241v-.205Zm2.17 0v.205h1.2v-.205Zm-16.065.005c-.008.065-.014.13-.019.196H15.3c.004-.068.014-.132.023-.196zm2.162 0c.009.064.014.128.018.196h1.163a3.273 3.273 0 0 0-.019-.196zM6 19.7v.276h2.152V19.7zm2.423 0v.276h2.554s.069-.072.107-.122c.047-.06.103-.154.103-.154zm3.217 0v.276h2.157V19.7zm4.706 0a2.512 2.512 0 0 1-.023.276h1.176c.007-.09.01-.183.01-.276zm1.513 0v.276h1.27V19.7zm1.946 0v.276h1.186V19.7zm1.541 0v.276h2.157V19.7zm6.71 0v.276h1.241V19.7zm2.17 0v.276h1.2V19.7zm1.886 0c.108.098.225.188.327.276h1.503a1.206 1.206 0 0 0-.144-.276zm-17.979.005c0 .092.007.181.014.27h1.172a2.525 2.525 0 0 1-.019-.27zm9.85 0v.27h1.126v-.27Zm1.336 0v.27h1.886v-.27Zm7.33.476a.54.54 0 0 1 .136.322h1.204c.008-.069.01-.107.01-.107.004-.074 0-.148-.01-.215zM6 20.187v.313h1.247v-.252h.905v-.061Zm2.423 0v.313h1.2v-.313Zm1.237 0 .136.313h1.134l-.117-.248v-.065Zm1.98 0v.313h1.2v-.313Zm2.53 0c.016.108.036.215.061.317h1.233a1.543 1.543 0 0 1-.108-.317zm2.115 0a1.58 1.58 0 0 1-.107.317h1.237c.026-.102.046-.209.06-.317zm1.574 0v.313h1.27v-.313Zm1.946 0v.313h1.186v-.313Zm1.541 0v.313h1.2v-.313Zm2.638 0v.313h1.125v-.313Zm1.387 0 .13.313h1.704v-.313Zm2.684 0v.313h1.242v-.313Zm2.17 0v.313h1.201v-.313Zm1.416.177v.14h.168zm0 .341v.434h2.161c.076-.152.121-.308.15-.434h-1.214a.428.428 0 0 1-.505.15c-.078-.03-.154-.127-.154-.127l-.028-.023zM6 20.715v.42h1.242v-.42zm2.423 0v.42h1.2v-.42zm1.466 0 .187.42h1.148l-.191-.42zm1.75 0v.42h2.214v-.28H12.84v-.14zm2.653 0c.048.148.105.29.172.42h2.713c.068-.13.13-.272.177-.42h-1.316a.303.303 0 0 1-.215.102.302.302 0 0 1-.215-.103zm3.576 0a.96.96 0 0 0 .098.42h2.918a.959.959 0 0 0 .098-.42h-1.205c-.064.065-.144.145-.312.14-.169.005-.235-.075-.3-.14zm3.478 0v.42h2.292v-.35h-1.097v-.07zm2.638 0v.42h1.125v-.42zm1.606 0 .173.42h1.442v-.42zm2.465 0v.42h1.242v-.42zm2.17 0v.42h1.201v-.42zm1.416.62v.379s.272.2.91.186c.578-.012.926-.268 1.135-.565zM6 21.34v.546h1.242v-.546zm2.423 0v.546h1.2v-.546zm1.741 0 .243.546h1.181l-.266-.546zm1.476 0v.546h2.213v-.546zm2.946 0c.163.25.364.45.588.584h2.34l-.463-.547v-.037zm3.478 0c.257.35.772.588 1.363.588.592 0 1.101-.238 1.359-.588zm3.282 0v.546h2.292v-.546zm2.638 0v.556h1.125v-.556zm1.867 0 .23.556h1.124v-.556zm2.204 0v.546h1.242v-.546zm2.17 0v.546h1.201v-.546zm-13.87.766.234.368.635-.368z" fill="#fff" style="stroke-width:1.4"/></svg>