<svg width="41" height="40" fill="none" xmlns="http://www.w3.org/2000/svg"><g clip-path="url(#a)" transform="matrix(1.4 0 0 1.4 -8.4 -7.865)"><g clip-path="url(#b)"><path d="M23.605 11.06h6.836c.186 0 .397-.045.515.154.12.205-.038.352-.132.514-1.346 2.294-2.69 4.59-4.03 6.886-1.525 2.612-3.045 5.225-4.565 7.839-.312.536-.614 1.08-.932 1.613-.21.355-.433.33-.634.022l-.155-.24c-.48-.738-.548-1.303-.06-2.1 1.655-2.705 3.218-5.467 4.816-8.206.775-1.33 1.545-2.663 2.328-3.987.252-.425.206-.711-.428-.706-3.147.023-6.293.002-9.44.02-.515.003-.82-.205-1.077-.63-.377-.626-.256-.415-.377-.626-.179-.312-.064-.531.294-.547.338-.015.678-.004 1.017-.004l6.024-.001z" fill="#6bbfbd"/><path d="M12.058 11.004c.122 0 .245 0 .366-.002.59-.008.62.11.814.45 1.05 1.845 2.123 3.677 3.189 5.513.809 1.396 1.615 2.793 2.43 4.184.262.446.52.436.791-.031 1.068-1.834 2.143-3.661 3.176-5.513.304-.545.63-.79 1.298-.782.691.009.46-.006.691.009.371.024.51.263.329.578-.953 1.651-1.91 3.297-2.869 4.943l-2.507 4.309c-.04.07-.082.14-.126.209-.296.474-.53.466-.812-.018-1.685-2.895-3.374-5.788-5.062-8.681-.873-1.496-1.75-2.991-2.622-4.489-.275-.47-.162-.668.384-.68.176-.003.353 0 .53 0z" fill="#fff"/></g></g><defs><clipPath id="a"><path fill="#fff" transform="translate(.879)" d="M0 0h40v40H0z"/></clipPath><clipPath id="b"><path fill="#fff" transform="translate(11 11)" d="M0 0h20v17.326H0z"/></clipPath></defs></svg>