<svg width="40" height="40" fill="none" xmlns="http://www.w3.org/2000/svg"><g clip-path="url(#a)" transform="matrix(1.4 0 0 1.4 -8 -8.164)"><g clip-path="url(#b)" fill="#fff"><path d="M28.008 17h.455c.464.033.889.182 1.277.438.044.029.05.044.01.083-.126.118-.248.24-.367.365-.04.042-.066.043-.116.011a2 2 0 0 0-1.66-.258c-.422.112-.627.486-.516.895.071.265.276.375.52.433.25.059.507.06.761.085.301.029.603.05.892.152.458.159.712.51.734.996.017.38-.064.722-.33 1.004a1.557 1.557 0 0 1-.821.45c-.667.147-1.328.154-1.967-.134a2.63 2.63 0 0 1-.629-.404c-.038-.032-.044-.05-.004-.088.124-.12.245-.242.363-.367.038-.04.056-.031.092 0 .396.353.86.515 1.39.494.246-.009.49-.02.723-.106.253-.093.448-.247.512-.523.104-.443-.114-.763-.571-.84-.288-.048-.58-.057-.87-.084-.264-.025-.524-.06-.771-.162-.54-.222-.735-.669-.698-1.192.042-.592.446-.988 1.017-1.158.187-.056.379-.086.574-.09zM25.907 18.171c-.062-.4-.265-.71-.62-.908a2.13 2.13 0 0 0-.946-.263h-.572a1.7 1.7 0 0 0-.432.085c-.332.108-.62.282-.849.55-.025.029-.064.057-.013.102.141.126.28.255.422.385l.058-.074c.154-.192.347-.33.584-.394a1.878 1.878 0 0 1 1.155.042c.308.111.525.41.53.737.001.18-.004.361.002.542.002.068-.022.08-.084.08-.448-.002-.896-.008-1.344 0-.369.008-.72.086-1.03.306-.238.169-.45.362-.62.598a6.195 6.195 0 0 1-.691.8c-.107.104-.225.19-.357.258-.373.194-.767.214-1.167.117a1.108 1.108 0 0 1-.762-.62 1.78 1.78 0 0 1-.179-.844c.002-.068.022-.082.085-.082.39.003.78.002 1.169.002.595 0 1.19-.002 1.785.002.08 0 .1-.024.095-.098a2.211 2.211 0 0 1 0-.266 2.379 2.379 0 0 0-.319-1.33c-.31-.55-.785-.835-1.405-.897h-.372c-.03.003-.06.003-.09.008-.747.126-1.237.567-1.47 1.268-.206.619-.21 1.26-.078 1.9.08.388.233.745.524 1.028.326.317.717.476 1.168.524.723.078 1.354-.093 1.875-.618.142-.143.277-.293.405-.463l.019.09c.097.515.37.847.893.963.326.072.656.082.987.044a1.596 1.596 0 0 0 .997-.478c0 .13.002.243-.001.356-.002.048.015.062.062.06h.509c.111 0 .111 0 .111-.108 0-.803-.006-1.605.003-2.407.004-.334.014-.666-.037-.997zm-6.93.774c.038-.348.105-.685.341-.962.534-.628 1.546-.53 1.92.19.132.252.179.527.191.81.003.065-.037.054-.075.054h-1.15c-.38 0-.761-.003-1.142.002-.078 0-.092-.023-.084-.094zm6.299.693c-.008.13-.019.262-.008.39.014.152.001.298-.033.443-.088.384-.357.573-.723.643-.35.067-.702.058-1.05-.02-.344-.076-.57-.4-.548-.773.02-.362.2-.623.598-.735.129-.037.26-.057.394-.055h.592v.003c.222 0 .444.004.667-.002.083-.002.116.016.11.106zM17.81 21.006c0-1.285 0-2.57.002-3.856 0-.063-.012-.086-.081-.084a9.49 9.49 0 0 1-.5 0c-.055-.001-.071.015-.07.07.004.145.001.29.001.456-.274-.344-.61-.545-1.032-.592h-.455c-.411.035-.772.183-1.05.494-.203.226-.313.501-.383.793-.114.478-.114.963-.092 1.449.012.263.049.524.126.778.118.384.31.716.668.93.277.165.578.227.9.233.501.008.915-.168 1.242-.548.01-.012.014-.038.043-.029v.5c.002.222 0 .444-.05.662-.089.382-.28.693-.654.849-.49.205-1.179.154-1.626-.295-.045-.045-.07-.05-.116-.003-.11.114-.225.223-.341.331-.038.035-.046.056-.003.095.101.092.206.178.32.253.471.306.993.367 1.537.309a1.84 1.84 0 0 0 1.617-1.795l-.002-1zm-.765-.753c-.1.357-.293.639-.669.755a1.298 1.298 0 0 1-.803-.013c-.329-.109-.512-.358-.613-.675-.104-.323-.12-.658-.119-.995.001-.35.018-.698.136-1.033.156-.444.484-.68.955-.692a1.44 1.44 0 0 1 .43.043c.357.1.558.353.668.692.067.207.097.421.107.638.022.43.026.86-.092 1.28zM13.676 18.578c0-.109-.003-.216-.017-.324-.066-.478-.294-.842-.74-1.054-.283-.135-.585-.184-.895-.199l-.37-.001c-.089.006-.177.012-.266.02a1.657 1.657 0 0 0-1.17.61c-.035.042-.037.063.005.099.123.104.245.21.363.32.041.037.06.033.094-.01.19-.245.44-.403.745-.45.312-.047.627-.024.933.056.36.093.565.332.619.7.029.203.01.405.019.607.003.07-.019.087-.087.087a99.369 99.369 0 0 0-1.36 0c-.22.001-.437.031-.648.097-.533.167-.864.57-.9 1.097l-.001.303c.01.063.016.127.03.189.131.562.544.875 1.136.993.21.041.422.011.632.014.393.006.742-.121 1.048-.365.046-.037.09-.078.148-.128 0 .127.004.237-.001.347-.003.064.013.087.081.085.172-.006.345-.006.517 0 .07.002.086-.019.086-.087-.002-1.002-.001-2.004-.001-3.006zm-.674 1.57c-.008.554-.234.824-.744.97-.239.068-.48.038-.72.025a1.553 1.553 0 0 1-.36-.06c-.325-.095-.497-.306-.522-.642a.999.999 0 0 1 .038-.37c.088-.283.302-.418.574-.485.15-.037.302-.043.455-.044.16-.002.322 0 .483 0 .236 0 .473 0 .709-.002.06-.001.082.011.08.077 0 .177.009.355.007.532z"/></g></g><defs><clipPath id="a"><path fill="#fff" d="M0 0h40v40H0z"/></clipPath><clipPath id="b"><path fill="#fff" transform="translate(10 17)" d="M0 0h20v6.82H0z"/></clipPath></defs></svg>