<svg width="41" height="40" fill="none" xmlns="http://www.w3.org/2000/svg"><g clip-path="url(#a)" transform="matrix(1.4 0 0 1.4 -8.4 -7.991)"><g clip-path="url(#b)" fill="#e4c42e"><path d="M31 19.98c.027 4.457-2.774 8.32-7.02 9.697-.46.148-.773.124-1.09-.34-3.851-5.614-1.818-13.601 4.245-16.65.42-.21.636-.028.898.228 1.901 1.85 2.951 4.34 2.967 7.065zM12.51 19.309c-1.655.008-1.655.008-1.363-1.456.778-3.899 4.151-7.095 8.135-7.73a10.722 10.722 0 0 1 2.854-.053c.53.058.586.265.506.719-.466 2.672-1.787 4.821-3.945 6.446-1.826 1.376-3.9 2.054-6.187 2.074zM19.38 29.401c.111.487-.023.642-.54.512-3.818-.97-6.357-3.297-7.56-7.06-.039-.125-.069-.251-.103-.377-.112-.416-.04-.6.46-.48 1.692.406 3.227 1.113 4.591 2.206 1.446 1.158 2.48 2.587 2.998 4.373.077.267.103.55.154.826z"/></g></g><defs><clipPath id="a"><path fill="#fff" transform="translate(.879)" d="M0 0h40v40H0z"/></clipPath><clipPath id="b"><path fill="#fff" transform="translate(11 10)" d="M0 0h20v19.957H0z"/></clipPath></defs></svg>