<svg width="40" height="40" fill="none" xmlns="http://www.w3.org/2000/svg"><g clip-path="url(#a)" transform="matrix(1.4 0 0 1.4 -8.04 -8)"><path fill-rule="evenodd" clip-rule="evenodd" d="M29.747 16.605c0-.024 0-.024-.023-.047a22.072 22.072 0 0 0-2.471-.21c.046.14.093.257.14.396a8.369 8.369 0 0 1-16.104 4.544c-.397.304-.793.607-1.189.93 1.616 5.344 7.222 8.4 12.589 6.866a10.218 10.218 0 0 0 7.057-12.482zm-13.914 2.004a2.092 2.092 0 0 1 3.915-1.422c.443-.116.885-.234 1.329-.327a3.26 3.26 0 0 0-6.129 2.121c.302-.105.598-.23.885-.372.028.128.067.252.117.372a2.085 2.085 0 1 0 3.775-1.766c-1.33.37-2.63.836-3.892 1.394zm5.455-1.189a3.256 3.256 0 0 1-6.293 1.674c0-.023-.023-.07-.023-.093-.279.14-.558.303-.837.443 0 .046.024.07.024.116a4.415 4.415 0 0 0 8.53-2.284 3.936 3.936 0 0 0-.234-.63c-.465.07-.909.163-1.375.257.097.158.168.331.21.512zm-7.13 2.027a4.406 4.406 0 0 1 8.32-2.796c.465-.07.93-.14 1.394-.186A5.57 5.57 0 0 0 13.32 19.94c.28-.163.536-.326.837-.489zm9.946-2.307a5.574 5.574 0 1 1-10.765 2.892c0-.023-.023-.07-.023-.093-.28.163-.558.327-.837.513v.046a6.733 6.733 0 0 0 13.002-3.497c-.07-.21-.14-.443-.21-.651-.466.023-.957.046-1.446.093.123.22.217.455.28.7zm3.123-.792a8.36 8.36 0 0 0-16.034 4.731l.07.21c.396-.279.792-.558 1.208-.837a6.735 6.735 0 0 1 12.818-4.078c.644-.043 1.29-.05 1.934-.023z" fill="url(#b)" style="fill:url(#b)"/></g><defs><linearGradient id="b" x1="27.37" y1="31.576" x2="31.765" y2="13.318" gradientUnits="userSpaceOnUse"><stop offset=".2" stop-color="#006DAA"/><stop offset=".75" stop-color="#35AC46"/><stop offset=".84" stop-color="#47AF46"/><stop offset=".987" stop-color="#68B943"/><stop offset="1" stop-color="#6CBA43"/></linearGradient><clipPath id="a"><path fill="#fff" d="M0 0h40v40H0z"/></clipPath></defs></svg>