<svg width="40" height="40" fill="none" xmlns="http://www.w3.org/2000/svg"><g clip-path="url(#a)" transform="matrix(1.4 0 0 1.4 -8 -8)"><path fill-rule="evenodd" clip-rule="evenodd" d="M10.54 11.903c-.34.667-.34 1.54-.34 3.286v9.622c0 1.746 0 2.62.34 3.287a3.117 3.117 0 0 0 1.363 1.362c.667.34 1.54.34 3.286.34h9.622c1.746 0 2.62 0 3.287-.34a3.117 3.117 0 0 0 1.362-1.362c.34-.667.34-1.54.34-3.287V15.19c0-1.746 0-2.62-.34-3.286a3.117 3.117 0 0 0-1.362-1.363c-.667-.34-1.54-.34-3.287-.34H15.19c-1.746 0-2.62 0-3.286.34a3.117 3.117 0 0 0-1.363 1.363zm6.13 4.572c.315.172.674.258 1.077.258.398 0 .752-.086 1.063-.257a1.83 1.83 0 0 0 .73-.733c.175-.317.263-.684.263-1.103 0-.416-.088-.785-.263-1.105a1.854 1.854 0 0 0-.732-.744 2.104 2.104 0 0 0-1.06-.266c-.404 0-.762.089-1.075.266a1.873 1.873 0 0 0-.735.744c-.176.32-.263.689-.263 1.105 0 .419.087.786.263 1.103.175.317.419.561.732.732zm1.612-.746a1.022 1.022 0 0 1-.546.144c-.207 0-.39-.048-.546-.144a.962.962 0 0 1-.359-.424 1.603 1.603 0 0 1-.127-.667c0-.257.041-.48.124-.668a.957.957 0 0 1 .36-.43c.156-.1.339-.15.548-.15.21 0 .391.05.546.15a.95.95 0 0 1 .362.43c.084.189.127.411.127.668 0 .256-.043.477-.127.664a.953.953 0 0 1-.362.427zM12.27 12.59v4.078h.998v-1.46h.668c.314 0 .584-.053.808-.16.225-.11.394-.263.51-.461.116-.198.175-.43.175-.693 0-.266-.059-.496-.176-.69a1.127 1.127 0 0 0-.509-.452 1.846 1.846 0 0 0-.808-.162zm1.892 1.785a.78.78 0 0 1-.32.059h-.574v-1.066h.574c.125 0 .232.019.323.057a.42.42 0 0 1 .209.172.546.546 0 0 1 .073.297.553.553 0 0 1-.076.3.47.47 0 0 1-.21.18zm6.11 2.293V12.59h1.007v3.232h1.595v.846zm-6.885 2.159-1.408 4.077h1.077l.24-.794h1.423l.24.794h1.077l-1.408-4.077zm1.117 2.536h-.99l.32-1.046c.052-.177.107-.37.164-.58h.022c.055.21.109.403.162.58zm1.906-2.536v4.077h.958v-2.471h.006l.2.336 1.29 2.135h.998v-4.077l-.955.003v2.496H18.9a26.098 26.098 0 0 1-.201-.336l-1.3-2.163zm4.117 4.077v-4.077h1.436c.441 0 .818.086 1.131.26a1.7 1.7 0 0 1 .71.72c.16.308.24.663.24 1.064 0 .402-.08.755-.24 1.06-.16.306-.397.544-.71.716-.313.171-.69.257-1.13.257zm1.428-.806c.222 0 .414-.05.576-.15a.985.985 0 0 0 .377-.43c.086-.186.13-.402.13-.647 0-.247-.045-.464-.133-.65a.982.982 0 0 0-.376-.433 1.047 1.047 0 0 0-.577-.155h-.444v2.465z" fill="#fff"/></g><defs><clipPath id="a"><path fill="#fff" transform="translate(10.2 10.2)" d="M0 0h19.6v19.6H0z"/></clipPath></defs></svg>