<svg width="40" height="40" fill="none" xmlns="http://www.w3.org/2000/svg"><g clip-path="url(#a)" transform="matrix(1.4 0 0 1.4 -8 -8)"><path fill-rule="evenodd" clip-rule="evenodd" d="M10.54 11.903c-.34.667-.34 1.54-.34 3.286v9.622c0 1.746 0 2.62.34 3.287a3.117 3.117 0 0 0 1.363 1.362c.667.34 1.54.34 3.286.34h9.622c1.746 0 2.62 0 3.287-.34a3.117 3.117 0 0 0 1.362-1.362c.34-.667.34-1.54.34-3.287V15.19c0-1.746 0-2.62-.34-3.286a3.117 3.117 0 0 0-1.362-1.363c-.667-.34-1.54-.34-3.287-.34H15.19c-1.746 0-2.62 0-3.286.34a3.117 3.117 0 0 0-1.363 1.363zm3.184 4.833c-.345 0-.64-.051-.883-.153a1.262 1.262 0 0 1-.568-.458 1.492 1.492 0 0 1-.226-.747h1.037c.004.117.03.22.08.309.05.086.123.155.217.206a.766.766 0 0 0 .351.073.882.882 0 0 0 .3-.045.416.416 0 0 0 .192-.141.387.387 0 0 0 .068-.23.41.41 0 0 0-.06-.228.398.398 0 0 0-.189-.147 1.786 1.786 0 0 0-.37-.1 4.046 4.046 0 0 1-.82-.214 1.162 1.162 0 0 1-.498-.37c-.117-.16-.175-.368-.175-.623 0-.282.059-.524.178-.723.12-.202.296-.356.526-.461.232-.108.51-.162.837-.162a2 2 0 0 1 .811.15c.228.098.406.246.535.444.128.196.203.439.226.727H14.26a.664.664 0 0 0-.077-.294.455.455 0 0 0-.192-.19.633.633 0 0 0-.297-.064.663.663 0 0 0-.268.05.406.406 0 0 0-.181.15.418.418 0 0 0-.065.235.35.35 0 0 0 .053.2c.038.052.1.095.187.13.089.037.212.07.37.1.35.066.633.143.852.232.218.088.388.215.508.381.121.164.181.383.181.656 0 .289-.063.53-.19.727-.125.194-.308.34-.548.435-.239.097-.53.145-.87.145zm1.733-.068 1.408-4.078h1.241l1.408 4.078h-1.077l-.24-.795h-1.422l-.24.795zm1.535-1.541h.99l-.322-1.046c-.053-.178-.107-.37-.162-.58h-.022c-.057.21-.111.402-.164.58zm3.936-.506-1.312 2.047h1.126l.791-1.307c.021-.037.045-.077.071-.118h.006c.026.041.05.08.07.118l.795 1.307h1.179l-1.36-2.047 1.272-2.03h-1.128l-.744 1.263-.073.13h-.006a2.976 2.976 0 0 1-.079-.13l-.75-1.264h-1.181z" fill="#fff"/></g><defs><clipPath id="a"><path fill="#fff" transform="translate(10.2 10.2)" d="M0 0h19.6v19.6H0z"/></clipPath></defs></svg>