<svg width="40" height="40" fill="none" xmlns="http://www.w3.org/2000/svg"><g clip-path="url(#a)" transform="matrix(1.4 0 0 1.4 -8 -8)"><path fill-rule="evenodd" clip-rule="evenodd" d="M10.54 11.903c-.34.667-.34 1.54-.34 3.286v9.622c0 1.746 0 2.62.34 3.287a3.117 3.117 0 0 0 1.363 1.362c.667.34 1.54.34 3.286.34h9.622c1.746 0 2.62 0 3.287-.34a3.117 3.117 0 0 0 1.362-1.362c.34-.667.34-1.54.34-3.287V15.19c0-1.746 0-2.62-.34-3.286a3.117 3.117 0 0 0-1.362-1.363c-.667-.34-1.54-.34-3.287-.34H15.19c-1.746 0-2.62 0-3.286.34a3.117 3.117 0 0 0-1.363 1.363zm2.301 4.68c.244.102.538.153.883.153.34 0 .631-.048.87-.145.24-.096.423-.24.549-.435.126-.196.19-.438.19-.727 0-.273-.06-.492-.182-.656a1.14 1.14 0 0 0-.508-.381 4.596 4.596 0 0 0-.852-.232 2.053 2.053 0 0 1-.37-.1.43.43 0 0 1-.187-.13.35.35 0 0 1-.053-.2c0-.09.021-.169.065-.235a.406.406 0 0 1 .18-.15.662.662 0 0 1 .27-.05c.114 0 .213.021.296.064a.454.454 0 0 1 .192.19c.046.081.071.179.077.294h1.032a1.525 1.525 0 0 0-.226-.727 1.17 1.17 0 0 0-.535-.444 2 2 0 0 0-.811-.15 1.98 1.98 0 0 0-.837.162c-.23.105-.406.259-.526.46-.119.2-.178.442-.178.724 0 .255.058.462.175.623.119.158.285.281.498.37.214.087.488.158.82.215.158.028.281.061.37.099a.397.397 0 0 1 .19.147c.04.06.059.136.059.229a.387.387 0 0 1-.068.229.415.415 0 0 1-.192.141.878.878 0 0 1-.3.046.765.765 0 0 1-.35-.074.548.548 0 0 1-.218-.206.671.671 0 0 1-.08-.309h-1.037c.017.294.092.543.226.747.136.202.325.354.568.458zm2.97-3.993v4.078h1.981c.251 0 .47-.052.656-.156.187-.105.33-.248.43-.427.102-.18.153-.382.153-.605 0-.156-.028-.3-.085-.432a1.05 1.05 0 0 0-.642-.574v-.006a.872.872 0 0 0 .47-.48.959.959 0 0 0 .065-.357.998.998 0 0 0-.145-.529.974.974 0 0 0-.41-.373 1.334 1.334 0 0 0-.625-.139zm1.945 3.26a.67.67 0 0 1-.292.06h-.658v-1.015h.658a.67.67 0 0 1 .292.06c.085.037.15.093.195.166.047.074.07.163.07.269a.549.549 0 0 1-.07.285.431.431 0 0 1-.195.176zm-.11-1.665a.621.621 0 0 1-.27.054h-.57v-.9h.57c.099 0 .186.018.26.052a.367.367 0 0 1 .179.15.433.433 0 0 1 .065.243c0 .096-.02.178-.062.246a.385.385 0 0 1-.173.155zm1.835 2.483V12.59h1.006v4.078zm-3.15 6.044c.314.171.674.257 1.077.257.398 0 .752-.086 1.063-.257.311-.172.554-.416.73-.732a2.24 2.24 0 0 0 .263-1.103c0-.417-.088-.785-.263-1.106a1.855 1.855 0 0 0-.733-.743 2.104 2.104 0 0 0-1.06-.266c-.403 0-.762.088-1.075.266a1.873 1.873 0 0 0-.735.743c-.175.32-.263.69-.263 1.106 0 .418.088.786.263 1.103.176.316.42.56.733.732zm1.611-.747a1.022 1.022 0 0 1-.545.145c-.208 0-.39-.048-.546-.145a.963.963 0 0 1-.36-.424 1.604 1.604 0 0 1-.126-.667c0-.256.041-.479.124-.667a.957.957 0 0 1 .359-.43c.157-.1.34-.15.549-.15.209 0 .39.05.545.15a.952.952 0 0 1 .362.43c.085.188.128.41.128.667 0 .256-.043.478-.128.664a.953.953 0 0 1-.362.427zm-4.815-2.298v3.237h.998v-3.237h1.106v-.84h-3.21v.84zm6.806 3.237v-4.077h1.665c.317 0 .587.053.809.16.224.107.394.257.509.453.117.194.175.424.175.69 0 .264-.058.495-.175.693a1.155 1.155 0 0 1-.509.46 1.857 1.857 0 0 1-.809.162h-.667v1.46zm1.572-2.234a.78.78 0 0 0 .32-.059.47.47 0 0 0 .209-.181.553.553 0 0 0 .076-.3c0-.12-.024-.22-.073-.297a.42.42 0 0 0-.21-.172.835.835 0 0 0-.322-.057h-.574v1.066z" fill="#fff"/></g><defs><clipPath id="a"><path fill="#fff" transform="translate(10.2 10.2)" d="M0 0h19.6v19.6H0z"/></clipPath></defs></svg>