<svg width="40" height="40" fill="none" xmlns="http://www.w3.org/2000/svg"><g clip-path="url(#a)" transform="matrix(1.4 0 0 1.4 -8 -8)"><mask id="b" mask-type="alpha" maskUnits="userSpaceOnUse" x="10" y="10" width="20" height="20"><path fill="#fff" d="M10 10.992h20v18.016H10z"/></mask><g mask="url(#b)"><path fill-rule="evenodd" clip-rule="evenodd" d="M21.425 23.624c.107-.051.25-.2.12-.634l-1.54-4.191-1.18 3.449a.492.492 0 0 1-.466.333h-5.14a.492.492 0 0 1-.45-.694l4.754-10.604a.492.492 0 0 1 .449-.29h4.167c.195-.001.371.114.45.292l5.403 12.242h-.01l1.978 4.835a.468.468 0 0 1-.433.646H10.492a.491.491 0 0 1-.465-.653l1.482-4.26a.492.492 0 0 1 .457-.33z" fill="url(#c)" style="fill:url(#c)"/></g></g><defs><linearGradient id="c" x1="10.192" y1="36.547" x2="33.013" y2="36.547" gradientUnits="userSpaceOnUse"><stop stop-color="#951D1E"/><stop offset=".5" stop-color="#EA2C24"/><stop offset="1" stop-color="#951D1E"/></linearGradient><clipPath id="a"><path fill="#fff" d="M0 0h40v40H0z"/></clipPath></defs></svg>