<svg width="40" height="40" fill="none" xmlns="http://www.w3.org/2000/svg"><mask id="a" style="mask-type:alpha" maskUnits="userSpaceOnUse" x="10" y="18" width="20" height="4"><path fill="#fff" d="M10 18.453h20v3.095H10z"/></mask><g mask="url(#a)" transform="matrix(1.4 0 0 1.4 -8 -8)" fill-rule="evenodd" clip-rule="evenodd"><path d="M29.155 21.547c.178-.072.641-.337.845-.396-.204 0-.103.002-.307.002A1859.7 1859.7 0 0 0 10 21.352c6.386.105 12.769.16 19.155.196" fill="#a39161"/><path d="M10.003 18.51h1.21c.47 0 .954.162.954.584 0 .263-.219.438-.54.51v.008c.39.034.672.263.672.562 0 .508-.59.665-1.178.665h-1.118zm.554.945h.505c.368 0 .554-.119.554-.294 0-.2-.186-.299-.603-.299h-.456zm0 1.028h.51c.286 0 .68-.036.68-.343 0-.244-.211-.33-.66-.33h-.53zm3.545-1.974h.48l1.34 2.33h-.634l-.291-.534h-1.35l-.279.534h-.618zm.704 1.44-.48-.948-.486.949zm1.714-1.44h1.082c.598 0 1.16.144 1.16.668 0 .335-.26.582-.722.631l.827 1.03H18.2l-.722-.986h-.404v.987h-.554zm.984.987c.312 0 .678-.02.678-.322 0-.276-.343-.31-.629-.31h-.48v.632zm2.036-.987h1.082c.598 0 1.16.144 1.16.668 0 .335-.26.582-.722.631l.828 1.03h-.668l-.721-.986h-.405v.987h-.554Zm.984.987c.312 0 .678-.02.678-.322 0-.276-.343-.31-.629-.31h-.479v.632zm2.02-.987h.555v2.33h-.554zm3.624.546a.996.996 0 0 0-.654-.229c-.642 0-1.067.369-1.067.832 0 .498.425.866 1.067.866.25 0 .492-.085.698-.283l.456.245c-.28.288-.704.415-1.16.415-.958 0-1.644-.487-1.644-1.214 0-.747.686-1.235 1.644-1.235.423 0 .784.104 1.09.369zm1.118-.546h.554v.987h.026l1.289-.987h.747l-1.456 1.077L30 20.84h-.778l-1.35-1.144h-.032v1.144h-.554z" fill="#fff"/></g></svg>