<svg width="40" height="40" fill="none" xmlns="http://www.w3.org/2000/svg"><g clip-path="url(#a)" transform="matrix(1.4 0 0 1.4 -7.997 -8)"><g clip-path="url(#b)"><path d="M27.556 19.996c.776.78 1.548 1.565 2.33 2.34.128.126.115.184-.005.302-.784.772-1.56 1.554-2.339 2.332-.057.057-.095.132-.196.03-.797-.81-1.602-1.613-2.404-2.419.01-.058.053-.093.091-.131.796-.796 1.591-1.592 2.388-2.387a.356.356 0 0 1 .085-.068.062.062 0 0 1 .05.001z" fill="#2bb6e0"/><path d="M17.428 15.068c-.805-.803-1.608-1.607-2.416-2.407-.077-.077-.084-.118-.002-.199.803-.796 1.602-1.597 2.4-2.398.066-.067.106-.09.186-.01.78.784 1.566 1.564 2.35 2.345.012.013.02.03.03.044.022.106-.069.147-.124.203-.73.733-1.46 1.464-2.193 2.193-.077.077-.14.167-.23.23z" fill="#477bbb"/><path d="M12.427 20.004c-.125-.13-.249-.262-.377-.39-.657-.66-1.313-1.32-1.974-1.976-.092-.09-.107-.144-.006-.244.8-.79 1.594-1.587 2.387-2.383.066-.067.104-.09.183-.01.798.809 1.6 1.614 2.401 2.42-.01.058-.055.092-.093.13l-2.386 2.386a.363.363 0 0 1-.084.068.065.065 0 0 1-.05 0z" fill="#2bb6e0"/><path d="m27.556 19.996-.029.005c-.072-.012-.112-.069-.158-.115-.77-.769-1.54-1.538-2.309-2.309-.046-.046-.104-.085-.118-.156.803-.805 1.606-1.609 2.407-2.416.065-.066.103-.07.17-.001.8.807 1.603 1.613 2.41 2.413.097.098.052.144-.019.215-.754.75-1.506 1.504-2.258 2.257-.034.033-.064.071-.096.107z" fill="#477bbb"/><path d="M20.002 12.446c.793-.796 1.589-1.59 2.378-2.39.087-.088.13-.062.2.01.4.404.802.805 1.204 1.206.398.397.796.794 1.196 1.189.067.065.094.107.012.187-.804.794-1.605 1.591-2.407 2.387-.085.006-.128-.061-.177-.11a1161.59 1161.59 0 0 1-2.302-2.302c-.048-.048-.118-.09-.104-.177z" fill="#2bb6e0"/><path d="M22.587 24.973c.823.777 1.604 1.595 2.412 2.387.084.082.029.12-.024.171l-1.31 1.31-1.09 1.09c-.053.054-.09.107-.172.024-.796-.804-1.596-1.603-2.395-2.403-.02-.09.053-.13.1-.177.766-.768 1.533-1.535 2.301-2.3.05-.049.09-.12.178-.102z" fill="#477bbb"/><path d="m19.98 27.55-1.88 1.892c-.17.172-.344.34-.512.515-.054.055-.087.06-.144.002a833.18 833.18 0 0 0-2.46-2.442c-.066-.065-.05-.103.008-.16l2.429-2.42c.09.042.142.128.21.196.74.737 1.478 1.475 2.216 2.215.057.057.14.102.133.203z" fill="#2bb6e0"/><path d="m12.428 20.004.027-.005c.072.012.112.07.158.116.77.769 1.54 1.538 2.308 2.308.046.046.103.085.117.156-.8.806-1.602 1.61-2.4 2.419-.069.07-.107.061-.17-.004a476.959 476.959 0 0 0-2.417-2.428c-.096-.095-.04-.137.023-.2.753-.75 1.504-1.503 2.256-2.255.034-.034.065-.071.098-.107z" fill="#477bbb"/><path d="M15.039 22.58c-.033-.026-.07-.05-.098-.079l-2.419-2.417c-.025-.026-.045-.056-.067-.085.442-.444.881-.891 1.325-1.334.418-.417.84-.83 1.261-1.245.594.528 1.052 1.141 1.201 1.944.198 1.06-.064 1.993-.78 2.797-.132.148-.282.28-.423.419zM24.943 17.42c.033.026.069.05.098.078l2.42 2.419c.025.025.044.056.066.084-.569.574-1.135 1.15-1.707 1.72-.29.29-.566.593-.877.86-.587-.529-1.043-1.138-1.197-1.934-.195-1.019.04-1.928.703-2.724.15-.18.313-.35.494-.503zM19.98 27.55c-.806-.81-1.612-1.62-2.417-2.432-.054-.055-.127-.097-.143-.182.51-.559 1.09-1.007 1.85-1.167 1.083-.227 2.045.015 2.875.752.157.14.312.284.442.451-.122.116-.246.23-.365.349-.695.693-1.39 1.388-2.083 2.083-.047.046-.088.098-.132.147h-.027zM20.002 12.446l2.273 2.286c.102.102.207.202.31.303-.497.562-1.069 1.016-1.818 1.184-1.18.265-2.208-.035-3.075-.878-.09-.088-.176-.181-.264-.273.003-.09.077-.133.131-.186.757-.76 1.516-1.518 2.274-2.276.05-.051.096-.108.143-.162a.202.202 0 0 0 .026.002z" fill="#315ca6"/></g></g><defs><clipPath id="a"><path fill="#fff" d="M0 0h40v40H0z"/></clipPath><clipPath id="b"><path fill="#fff" transform="translate(10 10)" d="M0 0h19.985v20H0z"/></clipPath></defs></svg>