<svg width="40" height="40" fill="none" xmlns="http://www.w3.org/2000/svg"><mask id="a" mask-type="alpha" maskUnits="userSpaceOnUse" x="9" y="13" width="21" height="14"><path fill="#fff" d="M10 13.103h20v13.794H10z"/></mask><g mask="url(#a)" transform="matrix(1.4 0 0 1.4 -8 -8)"><path fill-rule="evenodd" clip-rule="evenodd" d="m20.387 14.052.756.43.58-.5-.04-.19-1.339.066zm7.244 6.472c0-1.522-.871-2.1-2.022-2.1-1.049 0-1.815.487-2.248 1.207h-.027c-.32-.879-1.062-1.207-1.893-1.207-.78 0-1.675.433-2.159 1.049l-.013-.01c-.014-.342-.127-.751-.511-.751h-1.245l.379-.81 1.334-3.108-.035.105c.457-.909 1.035-1.301 1.584-1.393l-.057-.005c.895-.108 1.202.196 1.202.196l.341.38c.398.005 1.807.096 2.014.688.207.591-.443.693-.443.693s.17-.35-.127-.473c-.293-.126-1.683.269-1.683.269s.253.226.885.008a.622.622 0 0 1 .594.083l-.108.474s1.493-.207 1.175-1.114c-.357-1.016-2.118-.984-2.118-.984l-.398-.422s-.97-.427-2.178-.019c-1.079.468-2.063 2.291-2.829 3.929l-.188.395-.52 1.108h-4.04l-.138.317 4.036-.01-1.551 3.32c-1.493 3.195-1.837 4.249-2.64 4.017-.434-.123-.834-.744-1.17-.841-.35-.1-.802.204-.831.304-.043.148.392.833 1.03 1.016.583.167 1.414-.008 2.08-.484.845-.602 1.455-1.328 2.335-3.221l1.925-4.114h.782c.245.21.27.653.27 1.508v1.43c0 1.837-.076 2.243-.167 2.426-.205.118-.562.159-.998.159h-.306v.282c.78 0 1.868-.032 2.43.019-.037-.433-.091-.906-.091-2.885v-1.603c0-.707.834-1.417 1.74-1.417 1.126 0 1.546.67 1.546 1.904v.903c0 2.05-.076 2.455-.164 2.638-.205.118-.562.159-.998.159v.236c.511 0 1.049-.008 1.624-.008.576 0 1.138.008 1.573.008v-.236c-.435 0-.793-.04-.997-.159-.092-.183-.167-.589-.167-2.689v-1.339c0-.707.83-1.417 1.737-1.417 1.127 0 1.549.67 1.549 1.904 0 1.417-.051 2.046-.051 2.966 0 .917.637.97 3.135.97l.18-.236c-2.07 0-2.396-.264-2.396-1.103 0-1.271.027-1.928.027-2.912z" fill="#fff"/></g></svg>