<svg width="40" height="40" fill="none" xmlns="http://www.w3.org/2000/svg"><mask id="a" mask-type="alpha" maskUnits="userSpaceOnUse" x="10" y="16" width="20" height="8"><path fill="#fff" d="M10 16.963h20v6.073H10z"/></mask><g mask="url(#a)" transform="matrix(1.4 0 0 1.4 -8 -8)" fill-rule="evenodd" clip-rule="evenodd" fill="#fff"><path d="M30 23.037H10v-6.073h20Zm-.365-5.694H10.372v5.36h19.263Z"/><path d="M12.847 19.885h.015c.11-.12.584-.603.678-.713.091-.108.162-.19.162-.244 0-.036-.012-.058-.044-.065-.03-.007-.043-.014-.043-.033 0-.023.016-.029.052-.029.068 0 .246.01.334.01.101 0 .28-.01.38-.01.032 0 .055.006.055.03 0 .022-.016.028-.05.028a.635.635 0 0 0-.187.036c-.1.04-.21.107-.35.244-.1.096-.59.584-.701.7.117.153.752.837.88.958.142.135.288.281.463.35.097.04.162.048.201.048.023 0 .042.007.042.027 0 .023-.016.032-.077.032h-.283c-.098 0-.155 0-.224-.007-.175-.015-.262-.087-.402-.21-.142-.127-.782-.876-.85-.97l-.036-.049h-.016v.295c0 .298 0 .555.01.694.006.092.035.163.117.175.045.007.116.013.158.013.027 0 .043.01.043.027 0 .023-.026.032-.062.032-.181 0-.386-.01-.467-.01-.075 0-.28.01-.409.01-.042 0-.065-.01-.065-.032 0-.017.013-.027.052-.027a.539.539 0 0 0 .117-.013c.065-.012.081-.083.094-.178.017-.136.017-.393.017-.691v-.571c0-.493 0-.584-.008-.688-.006-.11-.032-.162-.14-.184a.658.658 0 0 0-.125-.01c-.036 0-.055-.007-.055-.03 0-.022.022-.029.071-.029.172 0 .376.01.454.01.078 0 .283-.01.393-.01.046 0 .068.007.068.03 0 .022-.02.029-.045.029-.033 0-.052.003-.091.01-.088.015-.114.07-.12.184-.007.104-.007.195-.007.688v.143zM15.145 19.742c0-.493 0-.584-.006-.688-.007-.11-.04-.165-.11-.182a.49.49 0 0 0-.118-.012c-.032 0-.051-.007-.051-.033 0-.02.025-.026.077-.026.123 0 .329.01.423.01.08 0 .271-.01.396-.01.042 0 .067.007.067.026 0 .026-.02.033-.052.033a.552.552 0 0 0-.097.01c-.087.015-.114.07-.12.184-.006.104-.006.195-.006.688v.571c0 .315 0 .571.012.71.01.088.033.147.13.16.045.006.117.012.166.012.035 0 .052.01.052.027 0 .023-.027.032-.062.032-.215 0-.419-.01-.507-.01-.073 0-.279.01-.408.01-.042 0-.065-.01-.065-.032 0-.017.013-.027.052-.027a.54.54 0 0 0 .117-.012c.065-.013.084-.069.094-.163.016-.136.016-.392.016-.707zM16.725 20.813c.007.253.05.338.114.36a.52.52 0 0 0 .17.022c.035 0 .054.007.054.027 0 .025-.03.032-.075.032-.21 0-.34-.01-.402-.01-.03 0-.182.01-.35.01-.043 0-.072-.003-.072-.032 0-.02.02-.027.052-.027.042 0 .1-.003.146-.015.084-.027.098-.12.1-.403l.03-1.921c0-.065.01-.11.042-.11.035 0 .066.042.12.1.04.043.532.572 1.006 1.042.22.22.658.688.714.74h.016l-.032-1.457c-.004-.198-.033-.26-.11-.292-.05-.02-.127-.02-.173-.02-.038 0-.051-.01-.051-.029 0-.026.035-.029.084-.029.169 0 .325.01.392.01.036 0 .16-.01.318-.01.042 0 .075.003.075.03 0 .018-.02.028-.058.028-.033 0-.06 0-.098.01-.091.026-.116.094-.12.276l-.036 2.047c0 .072-.013.1-.042.1-.035 0-.075-.035-.11-.07-.204-.196-.62-.62-.957-.955-.353-.35-.714-.755-.772-.817h-.01zM19.932 19.998c0 .036.006.05.029.059a.851.851 0 0 0 .246.033c.13 0 .173-.014.23-.056.098-.071.192-.221.192-.486 0-.461-.305-.594-.497-.594a.742.742 0 0 0-.171.012c-.023.007-.03.02-.03.046zm-.384-.256c0-.493 0-.584-.006-.688-.006-.11-.032-.162-.14-.184a.666.666 0 0 0-.126-.01c-.036 0-.055-.007-.055-.03 0-.022.023-.029.072-.029.171 0 .376.01.443.01.11 0 .358-.01.458-.01.205 0 .422.02.597.14a.56.56 0 0 1 .22.444c0 .24-.1.46-.427.727.288.363.513.652.703.853.183.188.315.211.364.221a.5.5 0 0 0 .09.01c.027 0 .04.01.04.026 0 .025-.023.032-.062.032h-.308c-.182 0-.263-.016-.347-.061-.14-.075-.263-.228-.445-.478-.129-.177-.279-.4-.32-.448-.017-.019-.036-.022-.059-.022l-.283-.007c-.015 0-.025.007-.025.027v.045c0 .301 0 .558.016.695.01.094.03.165.126.177.05.007.12.013.16.013.025 0 .038.01.038.027 0 .023-.023.032-.065.032-.188 0-.428-.01-.476-.01-.062 0-.267.01-.396.01-.042 0-.066-.01-.066-.032 0-.017.014-.027.052-.027.05 0 .088-.006.118-.013.065-.012.08-.083.094-.177.015-.137.015-.394.015-.692zM23.825 20.09c0-.728-.419-1.178-.95-1.178-.373 0-.798.207-.798 1.015 0 .675.373 1.21.995 1.21.227 0 .753-.11.753-1.048zm-2.196-.063c0-.554.366-1.272 1.34-1.272.807 0 1.31.471 1.31 1.214 0 .744-.519 1.33-1.343 1.33-.931 0-1.307-.697-1.307-1.272zM24.744 21.214c-.052-.021-.062-.038-.062-.11 0-.177.013-.372.016-.424.004-.05.014-.084.04-.084.028 0 .032.028.032.055 0 .042.013.11.028.165.072.24.264.327.465.327.292 0 .435-.197.435-.37 0-.158-.05-.31-.318-.518l-.15-.117c-.357-.28-.48-.507-.48-.77 0-.356.3-.612.75-.612.21 0 .347.032.432.055.028.007.044.016.044.04 0 .04-.013.135-.013.388 0 .071-.01.098-.035.098-.023 0-.033-.02-.033-.059a.39.39 0 0 0-.084-.214c-.05-.062-.143-.159-.354-.159-.24 0-.386.14-.386.334 0 .15.075.263.344.467l.091.069c.39.3.532.519.532.827a.655.655 0 0 1-.304.564.938.938 0 0 1-.517.133c-.188 0-.334-.022-.473-.085zM26.631 21.214c-.05-.021-.06-.038-.06-.11 0-.177.012-.372.016-.424.002-.05.012-.084.038-.084.03 0 .033.028.033.055 0 .042.013.11.029.165.071.24.263.327.465.327.29 0 .434-.197.434-.37 0-.158-.049-.31-.318-.518l-.15-.117c-.356-.28-.48-.507-.48-.77 0-.356.299-.613.75-.613.21 0 .347.033.431.056.03.006.045.016.045.04 0 .04-.013.135-.013.388 0 .071-.009.098-.035.098-.023 0-.032-.02-.032-.059 0-.029-.017-.13-.085-.214-.048-.062-.142-.159-.354-.159-.24 0-.386.14-.386.334 0 .15.075.263.344.467l.091.069c.39.3.532.519.532.827a.653.653 0 0 1-.305.564.936.936 0 0 1-.515.133c-.189 0-.334-.023-.475-.085z"/></g></svg>