<svg width="40" height="40" fill="none" xmlns="http://www.w3.org/2000/svg"><g clip-path="url(#a)" transform="matrix(1.4 0 0 1.4 -8 -8)" fill-rule="evenodd" clip-rule="evenodd"><path d="M16.969 26.334c.163-.12 1.711-3.079 1.931-3.441l1.53-2.79c.132-.247.26-.458.386-.702l2.324-4.21h3.158c.066-.125.13-.238.206-.375l.628-1.15h-5.045l-1.264 2.33c-.063.104-.098.18-.151.284l-.798 1.452c-.1.19-.23.389-.328.58-.056.108-.095.17-.157.279-.54.969-1.215 2.288-1.751 3.185l-.632 1.182c-.113-.082-.385-.639-.484-.823-.063-.116-.11-.187-.17-.303-.505-.978-1.28-2.24-1.766-3.206l-2.735-4.96H10c.037.159.608 1.134.737 1.367.047.084.063.13.113.215.162.271.28.52.441.793.547.916 1.185 2.223 1.743 3.158l.22.395c.044.08.055.115.097.194l.984 1.776c.162.27.28.52.441.793.047.079.057.108.1.19.664 1.245 1.437 2.547 2.093 3.787z" fill="#bb9a53"/><path d="M22.994 22.958c-.036-.155-.116-.237-.181-.362-.067-.131-.124-.215-.193-.351l-.969-1.754c-.057-.113-.154-.246-.18-.364-.09.066-.383.622-.449.75-.386.761-.601.812-.385 1.173l.531.956c.05.09.075.118.121.206l1.5 2.71c.065.129.179.297.205.412h.073c.034-.146.219-.42.302-.57l2.396-4.355c.046-.084.062-.13.113-.214.085-.142.137-.251.223-.394.396-.661 1.03-1.876 1.406-2.55.046-.083.064-.133.11-.218l1.305-2.359c.116-.208 1.042-1.855 1.078-2.008h-1.851c-.497.938-1.134 2.006-1.597 2.904l-1.597 2.904c-.056.108-.098.158-.158.278l-.484.894c-.113.203-.221.374-.326.582-.061.12-.102.17-.158.278-.104.2-.703 1.355-.835 1.452zM13.702 15.19h3.158c.236.446 1.629 2.893 1.67 3.05.122-.082.279-.426.375-.606.106-.199.568-.952.568-1.064 0-.122-1.509-2.711-1.56-2.904h-5.045c.271.514.562 1.01.834 1.525z" fill="#7e8083"/></g><defs><clipPath id="a"><path fill="#fff" d="M0 0h40v40H0z"/></clipPath></defs></svg>