<svg width="40" height="40" fill="none" xmlns="http://www.w3.org/2000/svg"><g clip-path="url(#a)" transform="matrix(1.4 0 0 1.4 -8 -8.128)"><g clip-path="url(#b)"><path d="M26.431 20.362c1.946.48 3.103 1.742 3.473 3.663.564 2.918-1.442 5.622-4.524 5.616-3.69-.008-2.46-.008-3.69-.008-.315 0-1.165.008-1.477.008l.757-.273c1.697-.608 2.845-2.26 2.901-4.163.062-2.102-.904-3.75-2.637-4.505-.247-.107-.488-.228-.733-.343 3.982-.001 2.656-.009 3.982-.001M11.518 20.392c-.426-.031-.937.03-1.363 0 1.982-.971 3.142-2.59 3.113-4.762-.03-2.148-1.22-3.788-3.268-4.588l.579-.008c1.42-.01 0 0 4.26-.019 2.78-.013 4.754 2.356 4.53 5.037-.177 2.14-1.418 3.643-3.388 4.192-.598.146-1.208.103-1.815.11l-2.648.038z" fill="#e52126"/><path d="M17.48 20.392c2.882.669 4.348 4.106 2.893 6.867-.81 1.536-2.093 2.354-3.848 2.362-1.668.01-3.337.003-5.162.003 2.508-.926 3.634-2.66 3.434-5.141-.166-2.045-1.302-3.436-3.28-4.091.883-.013 1.766-.026 2.65-.037M25.268 20.189c-.257.08-.505.167-.784.166-1.326-.007-.946 0-3.981 0h-1.46c2.329-.946 3.458-2.668 3.272-5.143-.15-2.01-1.256-3.394-3.31-4.138 2.052 0 3.985-.191 5.864.043 3.036.379 4.567 4.29 2.906 7.065a4.444 4.444 0 0 1-2.507 2.007z" fill="#84716c"/></g></g><defs><clipPath id="a"><path fill="#fff" d="M0 0h40v40H0z"/></clipPath><clipPath id="b"><path fill="#fff" transform="translate(10 11)" d="M0 0h20v18.64H0z"/></clipPath></defs></svg>