<svg width="40" height="40" fill="none" xmlns="http://www.w3.org/2000/svg"><g clip-path="url(#a)" transform="matrix(1.4 0 0 1.4 -7.974 -8)"><g clip-path="url(#b)"><path d="M26.236 27.721c-1.092.903-2.307 1.57-3.693 1.902-.33-.1-.61.141-.866.073.034-.031.128-.021.221.063-1.569.405-3.122.26-4.668-.14-.086-.023-.105-.093-.119-.167-.023-.172.1-.236.226-.253.29-.038.39-.275.567-.45.453-.446.211-.68-.187-.914a1.385 1.385 0 0 0-.275-.133c-.39-.075-.79-.121-1.108-.398a2.208 2.208 0 0 1-.614-.621c-.186-.441-.623-.598-.972-.856-.299-.198-.515-.488-.793-.71-.509-.238-.84-.731-1.371-.937-.428-.039-.697-.304-.91-.644-.098-.669-.308-1.317-.36-1.993-.015-.187-.057-.326-.22-.419-.188-.109-.316-.259-.338-.484-.03-.342.03-.666.225-.95.265-.383.57-.384.83.002.163.245.312.5.4.785.075.17-.022.376.112.53.45-.775 1.165-1.161 1.997-1.375.13-.02.257-.05.387-.066.345-.037.69-.045 1.024.071.358.072.29-.188.293-.382.01-.754-.28-1.456-.386-2.19a.293.293 0 0 1 .068-.136c.305-.221.784-.235.86-.727.024-.467-.02-.948.297-1.348a.37.37 0 0 1 .138-.06c.163.048.242-.035.28-.185.105-.07.198-.061.283.036.354.707.062 1.366-.14 2.031-.095.252-.051.5.015.747.173.212.22-.004.304-.09.207-.289.44-.55.763-.714.417-.182.605-.512.65-.953.02-.187-.043-.425.225-.508.159.157.034.353.081.476.004-.105.023-.26-.02-.415a.196.196 0 0 1-.074-.13c.03-.135.124-.226.219-.316.2-.156.38-.348.666-.332.086-.012.256-.023.207-.11-.242-.43-.062-.732.241-1.025.037-.036-.023-.14-.03-.214-.057-.598.066-.708.68-.615.116.05.23.107.343.166.236.102.28.344.393.535.09.117.232.19.293.332-.058.339.25.576.25.9-.066.264-.277.386-.494.497-.221.113-.43.233-.449.52-.006.107-.006.213-.012.318a.648.648 0 0 1-.086.313c-1.252.843-1.61 2.559-.828 4.023.174.325.339.668.67.876.178.217.421.334.666.452.036.037.06.082.073.132a.43.43 0 0 1-.01.152c-.075.267-.353.428-.37.726a.986.986 0 0 1-.255.642c-.142.182-.27.372-.373.58-.172.303-.198.62-.094.95.02.075.034.151.042.229.012.926.745 1.025 1.396 1.218a.697.697 0 0 0 .5-.001c.407-.097.757-.315 1.105-.537.295-.232.657-.25 1.003-.323.081-.02.165-.026.25-.02.149.02.256.096.32.231.08.189.135.393.316.52.37.31.363.698.24 1.112-.128.231.235.47-.004.701z" fill="#20224f"/><path d="M14.806 25.727c.359.266.849.385.988.894.09.294.269.499.58.566.338.265.76.302 1.151.42-.029.057-.09.053-.138.074.042.015.082-.001.123-.003a.81.81 0 0 1 .269.045c.223.033.285.308.55.329.143.012.278.223.026.405-.43.31-.587.964-1.245.997-.015.113-.088.096-.164.074-.093-.089-.191-.164-.331-.134-.988-.307-1.869-.815-2.69-1.434-.105-.199-.28-.325-.456-.45-.123-.24-.508-.183-.566-.497-.217-.45-.64-.753-.864-1.2-.335-.56-.341-1.112.041-1.654.323-.064.153.147.199.262-.066-.318.192-.32.4-.382l1.36.997c.2.292.391.592.767.691z" fill="#848588"/><path d="M12.141 24.149c-.17.556-.359 1.113.019 1.663-.086.093-.18.075-.278.023-.829-1.158-1.418-2.417-1.653-3.83.076-.165.038-.333.037-.44.009.022.016.101-.07.16-.253-1.148-.269-2.295.005-3.442.043.025.06.067.063.115.01-.102.025-.204-.039-.297.336-1.925 1.23-3.552 2.565-4.964 1.397-1.477 3.1-2.389 5.06-2.852.165-.04.36-.155.509.053.049-.04.1-.043.153-.01.032.049.043.1.033.157-.35.49-.955.547-1.422.835-.015.062-.204-.022-.102.13.215.016.444-.04.608.157.044.158-.069.247-.15.35-.134.129-.258.272-.422.366a.512.512 0 0 1-.467-.013c-.163-.388-.335-.757-.87-.503-.348.016-.543.204-.601.542-.094.246-.26.44-.446.622-.128.122-.253.246-.375.373-.183.18-.363.365-.573.514-.61.506-1.143 1.096-1.722 1.634-.723.675-.994 1.669-1.207 2.637a1.75 1.75 0 0 1-.046.25c-.024.748-.23 1.495-.003 2.243.248.982.546 1.95.942 2.883.103.247.446.328.452.644z" fill="#202450"/><path d="M17.279 16.746c.012-.09.006-.188.04-.27.246-.603.361-1.213.154-1.852.046-.04.1-.04.156-.03-.107-.588.403-.914.607-1.365.48-1.049 1.386-1.659 2.443-2.074.743-.29 1.49-.436 2.282-.293.189.034.37 0 .549-.059l.077-.013a.095.095 0 0 1 .083.024c.405.347.941.461 1.368.768.089-.004.175-.002.211.102-.011.312-.235.214-.399.196-.24-.027-.471-.11-.702-.179-2.405-.707-4.328 1.053-5.084 2.473-.407.765-.533 1.61-.71 2.44-.05.35-.518.423-.53.8-.111.358-.255.56-.532.11.101-.261-.002-.519-.013-.778z" fill="#95969a"/><path d="M18.288 16.634c-.231-.461.085-.9.186-1.278.486-1.813 1.586-3.18 3.43-3.775.82-.264 1.682-.308 2.53.035.239.097.524.323.816.069.218.233.638.186.76.552.289.183.473.476.732.691l.29.221a.198.198 0 0 1 .028.24c-.218.136-.338-.054-.487-.148-1.057-.675-2.157-1.144-3.466-.96-.459.064-.83.328-1.272.393-.184.041-.332-.126-.516-.088-.499-.217-.508.146-.552.467-.069.263-.22.464-.394.675-.166.2-.154.511-.178.783-.234.037-.36.248-.559.34-.117.034-.2.096-.203.23a.82.82 0 0 0-.017.105l-.004.004c-.179.15-.05.347-.084.518-.095.485-.228.941-.823 1.024-.064-.05-.171-.006-.217-.098z" fill="#98999c"/><path d="m17.38 11.921.237-.218c.335.13.53.025.595-.335.039-.22.185-.407.393-.425.415-.035-.062-.24.078-.312a.22.22 0 0 1 .105-.12.594.594 0 0 1 .337-.016c.435.047.867.125 1.358.169-.209-.08-.398.037-.54-.099.134-.359.466-.198.71-.271.422-.22.825.042 1.237.054l.432.02c.074.076.16.147.142.271-.36.267-.805.185-1.206.26-.696.13-1.32.37-1.877.797-.178.137-.353.272-.576.328-.129.033-.266.087-.315.211-.296.75-.93 1.318-1.13 2.115-.062.252-.26.344-.453.454-.36.458-.321.97-.195 1.492-.176.444-.521.652-.982.693-.29-.175-.3-.47-.257-.738.175-1.099.447-2.173.982-3.159.117-.216.194-.382.012-.582.116-.189.348-.128.502-.237a.336.336 0 0 0 .082-.014.564.564 0 0 0 .33-.338z" fill="#8d8f92"/><path d="M20.963 24.621c-.13-.37-.212-.735.118-1.054.281-.416.583-.361.989-.132 1.296.73 2.654 1.151 4.17.74.991-.27 1.71-.876 2.319-1.662.138-.177.271-.517.585-.177a3.068 3.068 0 0 1-.205 1.511l.007.01c-.018.162-.007.335-.179.432-.198-.334-.198-.334-.023-.74-.32.62-.957.87-1.44 1.294-.428.375-1.007.254-1.409.6-.095.054-.194.089-.304.044-.009-.155-.103-.218-.245-.232-.199-.095-.402-.021-.503-.04.038-.007.177-.042.303.061-.347.083-.709.12-1.01.337-.017.008-.037.025-.05.02-.19-.057-.077-.2-.094-.313-.022-.148-.094-.006-.131.001-.132.025-.258-.001-.386-.013-.673-.067-1.147-.572-1.75-.792-.182-.066-.32-.273-.55-.162-.078.084-.099.213-.212.267z" fill="#99999d"/><path d="M28.939 23.846a8.894 8.894 0 0 1 .144-1.599.907.907 0 0 1-.04-.392c.005-.08.02-.158.038-.235.081-.283.039-.574.053-.86 0-.199.027-.408-.222-.497a.46.46 0 0 1-.157-.177.636.636 0 0 1-.045-.242c.001-.083.014-.165.033-.246.065-.508.115-1.016-.067-1.513-.055-.11-.058-.242-.132-.352-.157.082-.13.265-.242.354-.188.143-.355.105-.51-.057a.294.294 0 0 1-.036-.231c.076-.162.247-.248.33-.404.07-.097.152-.186.208-.295.092-.183.04-.391.102-.578.046-.133.145-.218.257-.29.352-.22.375.135.513.292.346.589.493 1.236.55 1.909-.097.108-.021.249-.072.375.05-.06.014-.149.09-.185.131.223.106.467.091.71-.078.444-.082.888.001 1.334.015 1.001-.255 1.944-.608 2.867-.047.127-.093.29-.279.312z" fill="#202450"/><path d="M29.168 16.523c-.17-.02-.182-.377-.44-.204-.452-.042-.371-.49-.562-.732-1.001-1.664-2.306-2.836-4.406-2.743-.348.016-.645.154-.962.25-.264.08-.524.202-.812.179-.165-.153-.082-.473-.368-.543.023-.072.099-.088.146-.133 1.132-.625 2.308-.654 3.502-.217.642.235 1.21.616 1.77 1.001.274-.032.348.26.552.34l.004.006c.094.297.305.496.555.663.298.517.607 1.026.883 1.554.087.17.17.368.138.579z" fill="#9d9ea2"/><path d="M25.8 25.377c.172-.164.352-.248.607-.308.8-.19 1.481-.66 1.99-1.294.132-.165.23-.252.44-.322-.089.285-.158.551-.11.828.03.027.038.052.025.073-.013.022-.025.032-.036.032.074.272-.117.448-.235.651-.428.027-.595.434-.905.637-.259.17-.455.438-.752.561-.41.17-.32.593-.476.892-.047.092-.096.229-.234.115-.057-.047-.027-.138.012-.205.07-.395.116-.785-.22-1.1-.061-.18-.246-.338-.106-.56z" fill="#95969a"/><path d="M26.127 27.04c.029.043.096.15.092.11-.087-1.047 1.009-1.132 1.438-1.756.098-.141.338-.212.444-.433.176-.367.27-.041.38.077-.286.594-.638 1.14-1.14 1.576-.31.276-.633.542-.872.888-.04.115-.133.172-.234.22.09-.248-.39-.405-.108-.683z" fill="#8d8e92"/><path d="m11.882 25.834.278-.023c.257.394.655.7.742 1.199-.41-.33-.727-.744-1.02-1.176Z" fill="#1e2246"/><path d="M25.038 11.581c-.503-.171-1.031-.298-1.368-.768.482.212 1.017.325 1.368.768z" fill="#8d8e91"/><path d="M22.435 10.584c-.086-.046-.108-.124-.112-.214.432.109.875.18 1.264.42l-.04.015c-.42.18-.793.12-1.112-.22z" fill="#898a90"/><path d="M21.893 10.35c-.373.146-.803-.297-1.149.114-.09-.12-.332.034-.361-.2a.231.231 0 0 1 .15-.166.377.377 0 0 1 .154.012c.423-.027.82.074 1.206.24z" fill="#848690"/><path d="M26.47 27.502c.112-.47.492-.68.872-.888-.225.36-.53.642-.871.888z" fill="#828286"/><path d="M20.687 10.111c-.06.011-.121.022-.182.035-.45.223-.918.146-1.387.094a.333.333 0 0 1-.157-.126c.574-.14 1.15-.162 1.726-.003z" fill="#8d8f92"/><path d="m21.898 29.759-.215-.02c.28-.093.536-.364.86-.116-.207.08-.414.165-.645.136z" fill="#1a1f46"/><path d="M26.74 12.927c-.324-.143-.539-.406-.731-.69.36.106.604.336.732.69z" fill="#8d8f93"/><path d="M29.828 20.665a1.863 1.863 0 0 1 0-1.335c.05.445.059.89 0 1.335z" fill="#0f133b"/><path d="M28.146 14.39c-.353-.081-.547-.294-.555-.663l.555.663z" fill="#8b8d94"/><path d="m18.96 10.113.126.043.008.087-.058.067c-.184.102-.37.195-.573.044a.19.19 0 0 1-.103-.015c.106-.324.396-.16.6-.226z" fill="#2b325d"/><path d="M27.587 13.721c-.257.006-.348-.259-.552-.34a15.27 15.27 0 0 0-.005-.234c.261.118.404.351.556.574z" fill="#8d8e92"/><path d="M13.469 27.506c.252.05.433.17.455.45-.178-.122-.392-.21-.455-.45z" fill="#424565"/><path d="M28.717 24.388a.162.162 0 0 0 .011-.106l.219-.425c.176.286.068.45-.23.53z" fill="#4c516e"/><path d="m10.194 21.722.046-.256c.07.183.148.366-.011.538a22.518 22.518 0 0 0-.035-.282z" fill="#10133b"/><path d="m29.736 18.622-.06.343c-.077-.245-.113-.398.041-.532l.02.19z" fill="#0f1339"/><path d="M16.615 29.392c.193-.16.294-.09.33.134-.136.022-.226-.073-.33-.134z" fill="#6d707e"/><path d="M10.224 18.099c.143.125.112.275.068.444-.123-.064-.053-.182-.092-.26l.024-.185z" fill="#0f133a"/><path d="M10.652 20.694c-.35-.802-.084-1.605-.006-2.408.14.186.044.396.072.594-.028-.26.05-.525-.043-.784.33-1.2.608-2.421 1.778-3.164.485-.308.722-.902 1.245-1.188.282-.044.409-.266.547-.476l.339-.339c.253-.108.378-.32.445-.573-.042-.499.186-.714.682-.641.44.31.445.593.09.913-.703.628-1.044 1.454-1.304 2.351-.25.869-.134 1.771-.387 2.64-.141.485.038 1.032.164 1.54.048.194.174.377.083.591-.788.276-1.601.515-1.923 1.427-.025.07-.134.109-.203.163-.135-.247.015-.529-.093-.779-.136-.237-.273-.475-.408-.714-.086-.154-.135-.402-.346-.36-.186.036-.347.21-.393.423-.052.249-.08.503-.12.754-.205.06-.107-.178-.262-.265.142.134.122.215.043.295z" fill="#848588"/><path d="M29.158 21.9c.005.123.012.245-.075.347-.22-.03-.286.154-.375.284-.976 1.45-2.388 2.09-4.07 1.937-.795-.073-1.644-.258-2.357-.737-.37-.248-.744-.527-1.201-.165.025-.239.191-.393.34-.556.167-.033.27-.233.47-.189.799.3 1.563.695 2.434.78 1.55.151 2.879-.222 3.864-1.514.2-.265.472-.467.47-.85 0-.166.16-.262.324-.24.161.02.153.177.18.306.04.202-.134.399-.004.597z" fill="#9d9ea2"/><path d="M28.266 15.624c.255.165.127.584.461.696l-.249.2a.283.283 0 0 1-.104.075c-.089.301-.277.402-.41.075-.218-.54-.638-.927-.993-1.34-.702-.817-1.661-1.233-2.745-1.194-.514.02-1.056.055-1.55.273-.048.024-.091.018-.132-.017-.023-.313-.486-.51-.235-.894.7-.168 1.385-.4 2.126-.381 1.02.026 1.89.389 2.616 1.079.455.43.913.865 1.215 1.428z" fill="#a6a6aa"/><path d="M22.545 14.39h.114c.094.074.053.215.149.289.836.037 1.667-.003 2.48.327 1.077.44 1.813 1.204 2.214 2.245a2.41 2.41 0 0 1-.106 2.028c-.193.053-.357-.014-.51-.12-.206-.178-.238-.423-.217-.665.16-1.793-2.27-3.877-4.473-2.92-.26.113-.531.252-.652-.172-.01-.318.144-.52.453-.584.258-.054.423-.21.548-.427z" fill="#afafb3"/><path d="M21.668 22.354c-.038-.34.277-.455.43-.671.888.362 1.79.371 2.703.108 1.044-.002 1.569-.733 2.071-1.486.119-.178.14-.431.415-.468.443.19.886.378 1.234.73-.091.287-.31.207-.503.163-.288-.068-.494-.059-.418.33.055.285-.135.461-.329.6-1.572 1.128-3.239 1.739-5.146.872-.206-.093-.137.087-.202.134a.162.162 0 0 1-.14.052c-.134-.092-.028-.258-.115-.364z" fill="#acacb0"/><path d="M14.358 19.752c-.343-.56-.503-1.249-.397-1.814.16-.839.111-1.693.327-2.532.151-.588.247-1.19.529-1.729.277-.531.562-1.078 1.211-1.352-.355-.072-.08-.453-.316-.61.241-.185.505-.185.76-.053.273.142.06.388.092.583-.026.128-.14.22-.148.357a.443.443 0 0 1-.119.114c-.657.387-.829 1.091-1.07 1.723-.538 1.402-.622 2.869-.49 4.355.023.252.183.448.219.69-.016.163-.187.106-.262.187-.097.085-.203.138-.336.08z" fill="#86878b"/><path d="M14.696 19.67c.046-.096.131-.12.226-.123.243-.353.075-.724.036-1.084-.208-1.923.069-3.747 1.081-5.427.097-.16.198-.315.341-.437l.005-.122c.042-.029.078-.023.109.02.408.097.338.269.156.573-.468.777-.713 1.635-.882 2.53-.09.478-.255.92-.035 1.392l-.003-.015c.164.59.004 1.221.234 1.801.111.28-.08.578.07.873.045.085-.216.056-.323.116-.322-.22-.685.02-1.015-.097z" fill="#8b8b8f"/><path d="M21.09 24.258c.272-.272.455.025.668.109.576.227 1.046.666 1.678.803.33.071.564.01.803-.321.018.345-.29.518-.103.764-.326.298-.72.453-1.142.546a.907.907 0 0 0-.445 0c-1.162-.22-1.54-.497-1.566-1.345.128-.168-.022-.39.107-.556z" fill="#959699"/><path d="M22.435 10.584c.36.136.723.244 1.113.221-.117.273-.347.235-.57.204-1.783-.245-3.187.47-4.33 1.761-.228.257-.312.743-.495.95-.253.286-.249.776-.68.905-.075.012-.157.016-.192.104-.035.113-.116.154-.227.15l.002-.05c-.069-.05-.177-.011-.226-.1.278-.104.415-.294.453-.598.058-.466.625-.737.514-1.279.629.031.322-.746.72-.857.418-.116.73-.372 1.067-.605.805-.556 1.722-.677 2.665-.706.063-.003.125-.065.186-.1z" fill="#919296"/><path d="M28.266 15.624c-.437-.444-.858-.907-1.316-1.329-1.17-1.074-2.525-1.278-4.008-.798-.217.07-.421.14-.633 0l-.325-.223c1.522-.77 2.967-.834 4.459.195.706.487 1.158 1.143 1.712 1.735.105.112.119.268.111.42z" fill="#a1a2a6"/><path d="M21.543 15.402c.144.203.298.192.516.083 2.207-1.101 4.932.999 4.752 3.023-.017.205 0 .408.11.592-.051.277-.169.072-.263.037a1.941 1.941 0 0 1-.248-.479c-.116-.35-.258-.692-.342-1.052-.044-.11-.127-.196-.196-.292a1.032 1.032 0 0 1-.056-.136c-.635-1.076-1.637-1.465-2.82-1.516-.198-.008-.358.091-.507.21a.365.365 0 0 1-.149.043c-.247-.135-.574.09-.79-.178l-.007-.335z" fill="#c2c4c6"/><path d="M24.9 21.9c-.74.228-1.485.336-2.25.116-.217-.063-.434-.111-.552-.334a.431.431 0 0 0 .013-.092c.073-.13.18-.208.333-.209.055.005.107.02.156.044.863.46 1.626.131 2.365-.313.174-.104.319-.258.477-.388.193-.292.39-.58.525-.906a.887.887 0 0 1 .515-.459.402.402 0 0 1 .162.025c.254.204.13.446.042.658-.352.849-.87 1.548-1.787 1.858z" fill="#c5c6c9"/><path d="M21.435 21.017c-.487-.06-.575-.5-.766-.825-.728-1.237-.545-2.992.396-3.925.121-.12.214-.332.454-.212.167.06.22.172.151.338-1.142.884-1.357 2.681-.462 3.892.1.134.231.243.293.404.03.12.025.232-.066.328z" fill="#4d5483"/><path d="m10.652 20.694.039-.262.183.234c.453.342.456.872.648 1.329.218.518-.025 1.033.252 1.479-.031.048-.041.114-.112.128-.542-.899-.796-1.897-1.01-2.908z" fill="#848688"/><path d="M15.71 19.766c-.012-.128.508-.08.11-.342-.132-.087-.169-.195.024-.281.142-.063.107-.208.045-.284-.478-.596.001-1.265-.16-1.882.236.796.43 1.6.454 2.436.01.359-.066.567-.473.353z" fill="#8e9091"/><path d="M21.435 21.017c-.009-.116-.02-.231-.028-.347-.047-.1-.083-.203-.027-.314a.205.205 0 0 1 .14-.073c.429.112.76.377 1.058.693.018.053.02.107.006.162a.694.694 0 0 1-.512.358c-.283-.064-.566-.13-.637-.48z" fill="#dbdcdf"/><path d="M20.195 14.507c-.298-.328-.05-.656.119-.859.159-.193.275-.421.454-.599.165.223.206.397-.114.541-.291.13-.26.351-.092.589.077.107.266.23.135.373-.154.168-.34.053-.502-.045z" fill="#9d9ea1"/><path d="M19.624 16.866c.227.008.362.1.353.303-.008.166-.065.362-.276.349-.235-.015-.354-.22-.376-.423-.02-.201.212-.157.299-.23z" fill="#a2a3a8"/><path d="M16.829 14.728c.075.034.15.068.225.1-.402.423-.336.955-.34 1.47-.294-.34-.246-1 .115-1.57z" fill="#939395"/><path d="M21.635 16.41c.086-.159-.081-.235-.116-.354l.03-.32c.234.204.568-.292.772.113.05.083.001.14-.05.196-.163.167-.482.109-.566.39a1.65 1.65 0 0 0-.07-.024z" fill="#c6c8cf"/><path d="m11.662 23.602.112-.128c.237.292.465.598.905.562-.132.148-.45.133-.39.448l-.148-.335-.479-.547z" fill="#8c8d8c"/><path d="M14.806 25.727c-.475.01-.646-.313-.766-.693l.766.693z" fill="#8d8e8c"/><path d="m18.288 16.634.219.096-.68.684c-.121-.423.376-.479.461-.78z" fill="#a0a1a0"/><path d="M16.375 27.186c-.406.03-.583-.176-.581-.566l.58.566z" fill="#8c8c8b"/><path d="M25.8 25.377c-.048.203.251.341.108.562-.278-.031-.233-.288-.317-.453l.209-.109z" fill="#9a9b9c"/><path d="M17.279 16.746c.18.256.161.516.013.777-.012-.258-.161-.515-.013-.777z" fill="#a1a29f"/><path d="M21.668 22.354c.116.087.091.214.094.333.067.075.067.149 0 .224-.124-.005-.172.259-.342.1.162-.19.264-.4.248-.657z" fill="#a6a6ab"/><path d="m22.073 21.497.474-.38c.098-.039.13.018.145.1-.035.143-.17.17-.274.23-.102.047-.202.096-.305.143a.082.082 0 0 1-.04-.093z" fill="#585e91"/><path d="M12.618 22.776c.258.14.412.211.452.432-.226-.013-.326-.139-.452-.432z" fill="#90918d"/><path d="M12.139 20.562c.18.243.058.52.093.779-.166-.244-.088-.516-.093-.779z" fill="#7d7e84"/><path d="M19.417 15.182c.178.212.104.44-.004.667v-.662l.004-.004z" fill="#171845"/><path d="m25.147 25.275-.472-.04c.231-.072.461-.159.672.019l-.2.021z" fill="#a8a9a6"/><path d="M12.234 21.848c.148.1.23.226.175.3-.122.166-.158.007-.184-.09-.013-.045.002-.1.01-.21z" fill="#6f727c"/><path d="M22.55 26.159c.148-.154.296-.155.445 0-.15.129-.297.097-.445 0z" fill="#a1a29e"/><path d="m17.053 14.879.227-.15c.085.05.142.15.084.216-.116.129-.211-.015-.31-.066z" fill="#1a1d48"/><path d="M21.09 24.258c-.027.187.076.4-.107.556a11.832 11.832 0 0 0-.021-.193c.031-.125-.01-.276.128-.363z" fill="#a5a6a2"/><path d="M19.434 15.078c-.097-.222-.005-.278.203-.23l-.203.23z" fill="#a8a8a6"/><path d="m21.762 12.597-.145.133-.299-.147c.155-.18.295.055.444.014z" fill="#a9a9a7"/><path d="M17.779 27.721h-.488c.028-.16.164-.07.234-.114.106-.008.194.021.254.114z" fill="#91928e"/><path d="M18.725 10.59c0 .163.145.19.301.3-.717.114-.761.692-.932 1.23-.166-.145-.32-.282-.477-.417-.224-.262-.527-.053-.783-.133-.1-.198.318-.118.182-.335l1.509-.762c.123-.058.172.013.2.117z" fill="#8a8b8f"/><path d="M17.016 11.235c.108.022.223.027.3.161-.124.16-.372 0-.481.174-.077.02-.188.01-.181-.06.02-.202.2-.236.362-.275z" fill="#8e8f8e"/><path d="M14.246 13.268c-.093.357-.213.461-.547.476l.547-.476z" fill="#8c8d8c"/><path d="M15.03 12.357c-.001.307-.065.562-.445.574l.445-.574z" fill="#8b8d8c"/><path d="M16.492 12.495a.325.325 0 0 0-.108-.019c-.001-.124.063-.2.18-.232l.405.03c-.095.21-.298.189-.477.221z" fill="#11153f"/><path d="M10.675 18.097c.2.289.048.594.01.893l-.039-.704.03-.189z" fill="#8e8e8d"/><path d="m18.725 10.59-.2-.117-.062-.12c.209.023.38-.17.598-.102.08.299-.226.214-.328.332z" fill="#8e8e8e"/><path d="M17.38 11.921c.044.262-.077.364-.328.339a.598.598 0 0 1 .329-.339z" fill="#969795"/><path d="M18.732 10.583c.054-.166.307-.133.328-.332l.023-.023c.453-.046.905-.092 1.355.022.056.137.276.04.305.213-.266.042-.546-.03-.802.099-.287.013-.573.047-.861.04a40.481 40.481 0 0 1-.348-.019z" fill="#2d3156"/><path d="M19.08 10.603a1.13 1.13 0 0 1 .861-.04l.586.045c-.486.044-.97.186-1.447-.005z" fill="#959694"/><path d="M21.762 22.91v-.223h.113c.454-.116.808.193 1.21.293 1.559.395 3.9-.136 4.837-1.355.287-.374.47-.827.867-1.113.028-.108.057-.215.156-.284.47-.11.324.217.316.446-.114.344.024.708-.084 1.054l-.02.172c-.191-.186-.075-.423-.108-.635-.013-.09-.001-.201-.148-.164-.073.019-.132.054-.15.142-.169.933-.797 1.532-1.564 1.958-1.377.763-2.807.79-4.273.19-.382-.157-.752-.354-1.152-.48z" fill="#a2a2a7"/><path d="M27.369 19.212c.418-1.268-.25-2.967-1.348-3.66-.994-.626-2.057-.779-3.186-.707-.12.008-.266.106-.287-.118.533-.42 1.144-.479 1.78-.357.899.173 1.785.4 2.477 1.05.6.563 1.143 1.169 1.155 2.066a.514.514 0 0 1-.073.141c-.11.096-.261.184-.064.34.15.087.297.234.458.015.103-.012.146.053.174.136.048.544-.199 1.024-.34 1.527-.045.166-.167.227-.323.247-.243.018-.446-.094-.653-.194-.158-.273.098-.35.23-.486z" fill="#abacb0"/><path d="M27.819 17.533c.068-.808-.457-1.346-.931-1.864-.766-.835-1.856-1.058-2.905-1.224-.44-.07-.976.081-1.434.283l.11-.338c.01-.072.024-.208.028-.208.74.059 1.433-.32 2.205-.152.816.177 1.582.46 2.087 1.084.421.52 1.023.942 1.135 1.669.216-.038.112-.193.169-.27.009-.013.034-.022.05-.02.016.003.03.02.046.03a.968.968 0 0 1 .003.68l-.207.246c-.129-.016-.19.254-.356.084z" fill="#abacaf"/><path d="M27.804 19.78c.349-.238.326-.655.442-.993.072-.21.087-.463.135-.696.078-.155.185-.226.35-.118.368.544.242 1.115.097 1.688-.042-.038-.05-.089-.054-.142-.003-.041.005-.07.032-.085a.586.586 0 0 0 .004.444l.02.23c.103.216-.01.298-.192.236-.324-.111-.675-.202-.834-.564z" fill="#a7a9ac"/><path d="M27.804 19.78c.215.127.455.204.647.38.115.105.284.198.377-.05l.116.12-.01.319c-.144.127-.292.143-.447.017-.473-.103-.825-.436-1.236-.656-.176-.015-.174-.108-.1-.232.218.032.435.067.653.102z" fill="#21264e"/><path d="m28.73 17.973-.35.118-.098-.11c0-.017-.005-.037.001-.054.068-.176.011-.494.296-.455.275.038.146.316.151.5z" fill="#aaaaac"/><path d="M29.178 21.728c.017-.353-.109-.717.084-1.055.002.354.062.713-.084 1.055z" fill="#9d9ea2"/><path d="M27.819 17.533c.141.066.195-.234.355-.086-.012.223-.156.3-.354.315-.03-.026-.04-.053-.03-.08.009-.026.017-.04.028-.04v-.109z" fill="#c0c1bd"/><path d="m28.382 17.201-.003-.678.1-.002c.007.232.03.466-.097.68z" fill="#9c9da3"/><path d="m27.817 17.642.003.12c0 .067.002.136.004.203-.181.112-.157-.083-.18-.142-.059-.15.07-.163.174-.181z" fill="#afafb3"/><path d="M28.809 19.878c-.15-.134-.079-.296-.086-.47.132.072.085.173.104.253l-.018.217z" fill="#b6b7b3"/><path d="m20.44 10.251-1.356-.022a.109.109 0 0 1 .002-.073l1.42-.011c-.023.036-.046.07-.067.106z" fill="#0f1135"/><path d="M27.151 19.675c-.009.097-.003.185.101.232-.395.76-.882 1.42-1.645 1.877-.259.155-.452.192-.708.118.666-.476 1.311-.976 1.609-1.777.08-.214.327-.446.058-.7-.036-.149.013-.257.148-.327.068.019.136.128.205.002l.45.112c.018.196-.252.258-.218.463z" fill="#afafb3"/><path d="m28.488 20.564.448-.017c0 .037.013.098-.003.107-.703.405-.856 1.301-1.573 1.712-1.054.603-2.157.93-3.38.884-.753-.028-1.43-.275-2.104-.564v-.428c1.07.564 2.174.737 3.303.352.58-.197 1.165-.43 1.668-.807.312-.235.738-.361.597-.933-.064-.263.196-.41.485-.309.19.067.372.204.56.003z" fill="#a6a6ab"/><path d="M16.38 12.597c-.092.547-.495.941-.697 1.442-.632 1.569-.78 3.176-.53 4.831.043.28.336.616-.23.676-.28-.282-.317-.624-.35-1.011-.123-1.388.02-2.737.472-4.048a9.298 9.298 0 0 1 .662-1.47c.127-.229.336-.462.673-.42z" fill="#88898d"/><path d="M22.439 15.824c.01-.129.09-.203.203-.24.905-.294 3.004.452 3.265 1.612a.38.38 0 0 1-.41.07c-.35-.185-.54-.545-.87-.765-.633-.42-1.344-.494-2.058-.586a.21.21 0 0 1-.13-.091z" fill="#cdcfd4"/><path d="M26.126 17.526c.144.362.356.701.346 1.11-.045.105-.135.15-.237.18a.354.354 0 0 1-.152-.019c-.436-.343-.354-.749-.144-1.17.044-.07.094-.125.187-.1z" fill="#ced0d3"/><path d="M25.462 17.187c.148.003.296.005.443.009.015.023.026.049.036.075 0 .178-.003.356-.067.528a.22.22 0 0 1-.187.124c-.248-.057-.298-.28-.39-.467a.396.396 0 0 1-.01-.158c.03-.08.076-.138.175-.111z" fill="#5f6593"/><path d="M26.236 18.742c.048-.103.154-.078.236-.105.14.122.181.296.243.46l-.148.326-.048.003-.047-.01c-.29-.15-.302-.399-.236-.674Z" fill="#3e4473"/><path d="M22.439 15.824c.028.024.06.038.095.046.083.064.092.148.07.242-.063.131-.17.162-.304.134-.126-.068-.193-.152-.078-.285l.1-.115c.038-.006.077-.014.117-.022z" fill="#5e6596"/><path d="M25.801 17.76c.05-.162-.011-.356.14-.49.122.042.187.125.185.256l-.104.116c-.06.064-.094.176-.221.118z" fill="#434c7e"/><path d="M25.575 20.78c-.517.517-1.113.897-1.857.971-.42.042-.879.18-1.176-.293.1-.114.229-.24.37-.217.657.103 1.234-.247 1.86-.303.005 0 .015-.031.012-.046-.003-.017-.02-.031-.03-.048a.175.175 0 0 1 .074-.127c.203-.09.409-.158.636-.123.081.035.15.078.11.186z" fill="#d8d9dc"/><path d="M24.767 20.881c.126.036.23.022.01.133-.709.36-1.486.322-2.236.445a4.358 4.358 0 0 1-.125-.012l.24-.22a.518.518 0 0 1 .333-.276c.05-.013.1-.018.15-.02.401-.07.796-.173 1.202-.21a.584.584 0 0 1 .426.16z" fill="#dedee2"/><path d="m26.236 18.742.236.673-.47.454c-.103.153-.23.24-.42.155.025-.342.24-.654.165-1.013a.499.499 0 0 1 .392-.245.77.77 0 0 0 .097-.024z" fill="#515887"/><path d="M25.578 19.998 26 19.87c.027.383-.312.594-.428.91l-.122-.116c-.164-.26-.114-.482.127-.666z" fill="#d2d4d7"/><path d="m21.442 20.345-.035.325c-1.125-.988-1.198-3.093-.145-4.153.108-.108.204-.225.374-.108a.125.125 0 0 0 .056-.019.279.279 0 0 1 .018.246c-.515.518-.829 1.124-.809 1.873.002.188.055.366.113.543.042.464.402.824.428 1.293z" fill="#5f6694"/><path d="M21.442 20.345c-.313-.361-.45-.802-.567-1.252.289-.258.066-.484-.042-.719.05-.128.156-.144.273-.14.258.065.386.245.441.491-.041.522.257.924.476 1.356-.078.23-.263.273-.474.273a1.184 1.184 0 0 0-.107-.01z" fill="#9195ba"/><path d="m21.548 20.353.434-.247c.083-.092.125-.23.274-.252.262.096.276.355.368.564.041.149.07.3.08.455-.008.085-.042.146-.142.138l-1.014-.658z" fill="#e8e8ec"/><path d="m22.563 21.012.083-.113c-.041-.054-.036-.102.016-.146.18-.007.352 0 .336.254l-.342.218-.11-.109.017-.104z" fill="#8e93b8"/><path d="m21.631 16.63.06-.238c.074-.27.34-.303.53-.43-.016.094-.013.182.084.235.157.063.263.171.295.343a.332.332 0 0 1-.035.157c-.255.25-.53.467-.906.504-.19-.181-.113-.377-.028-.572z" fill="#e0e1e4"/><path d="m22.568 16.056-.034-.185c1.221-.106 2.23.258 2.928 1.316l-.13.12c-.334.244-.492-.044-.697-.222-.534-.461-1.11-.812-1.862-.642-.267-.023-.151-.25-.205-.387z" fill="#dadbde"/><path d="M26.137 18.767a.496.496 0 0 1-.328.24.274.274 0 0 1-.258.019c-.17-.117-.21-.285-.196-.478.07-.246.046-.54.336-.678l.111-.111.221-.118c-.095.39-.247.784.114 1.126z" fill="#dbdbde"/><path d="M22.767 16.418c.31-.517.7-.103 1.002-.027.435.11.867.338 1.118.766.109.186.285.138.446.15l.03.11c.035.238-.16.236-.301.29-.166.016-.352.045-.455-.116-.376-.583-1.003-.7-1.596-.884a.368.368 0 0 1-.257-.147.136.136 0 0 1 .013-.142z" fill="#e2e3e5"/><path d="m25.023 17.654.338-.237.329.454c-.157.194-.04.491-.252.664a.146.146 0 0 1-.154.002c-.217-.256-.428-.514-.261-.883z" fill="#7f84ae"/><path d="M22.767 16.418c.01.034.02.069.028.102-.084.069-.169.072-.256.007l-.235-.33c.108-.01.204-.04.263-.142l.2.363z" fill="#797ea9"/><path d="m25.357 18.54.08-.004c-.014.168.057.308.151.44.141.78-.242 1.335-.784 1.822a.402.402 0 0 1-.037.084l-.432-.089c-.156.02-.17-.087-.18-.2.346-.335.604-.74.881-1.13.124-.15.002-.313.025-.464.029-.19-.016-.445.296-.459z" fill="#8b8fb5"/><path d="M24.804 20.797c.351-.569.744-1.12.784-1.823.073.012.147.022.22.033.171.388.11.722-.231.991l-.127.666c-.216.03-.41.182-.646.133z" fill="#7177a3"/><path d="m24.239 20.55.097.242c-.404.106-.797.277-1.231.203-.01-.224.187-.262.32-.357.262-.113.515-.316.814-.088z" fill="#e9eaec"/><path d="m23.438 20.776-.334.22a.48.48 0 0 1-.106.012l-.328-.218c-.103-.141-.057-.267.1-.265.242.004.552-.11.668.25z" fill="#a4a8c7"/><path d="M21.631 16.63c.038.196-.066.42.113.588a.18.18 0 0 1 .07.133c-.098.27-.193.542-.477.684-.42-.192-.059.262-.228.278-.098.003-.191.019-.24.12.027.09-.018.122-.101.122.002-.77.144-1.477.863-1.926z" fill="#7b81aa"/><path d="m20.769 18.556.1-.122c.23-.01.337.12.334.33-.003.2-.083.354-.328.33-.061-.175-.135-.346-.106-.538z" fill="#cbccd9"/><path d="M21.11 18.313c-.015-.05-.023-.106-.047-.152-.055-.109-.167-.248-.046-.33.12-.084.19.115.3.16.297.265.885.332.656.959-.088.139-.196.304-.37.267-.239-.052-.03-.332-.176-.453-.013-.216-.152-.342-.317-.451z" fill="#eff0f1"/><path d="M21.427 18.765c.135.1.144.677.451.119.223-.026.18.139.19.264-.177.288.153.48.142.738-.003.15-.076.226-.228.221-.393-.362-.599-.8-.555-1.342z" fill="#cbccd9"/><path d="M22.211 19.885c.024-.259-.707-.265-.228-.676.105-.258.05-.534.093-.799.113-.705.374-.95 1.068-.998.42.168.74.444 1.004.821.22.316.238.562-.063.81.023.175.199.194.293.294.122.13.224.259-.022.369a1.676 1.676 0 0 0-1.33.198.88.88 0 0 0-.179.202c-.063.089-.131.174-.196.26a.297.297 0 0 1-.102.08c-.18-.147-.123-.437-.338-.561z" fill="#fdfdfe"/><path d="m22.549 20.445.014-.108c.115-.113.238-.046.364-.024.488.087.918.003 1.227-.428a.539.539 0 0 1 .118-.094c.26-.109.372-.241.074-.444-.17-.117-.19-.248-.024-.39.05-.018.1-.024.153-.017.273.143.594.235.654.606-.326.309-.357.877-.89 1.005-.3-.046-.542.12-.8.226-.259-.123-.517-.252-.77.013a.528.528 0 0 1-.022.11c-.14-.129-.075-.302-.098-.455z" fill="#b6b9d3"/><path d="M21.775 17.304a.125.125 0 0 1-.03-.085c.143-.36.555-.358.796-.584.157.004.269.073.32.226a.565.565 0 0 1-.013.331c-.31.495-.71.13-1.073.112z" fill="#eeedef"/><path d="m22.774 16.856-.233-.221a.235.235 0 0 0-.001-.108l.257-.007.195.12c.04.043.056.092.048.15-.066.119-.15.159-.266.066z" fill="#989cbf"/><path d="M23.01 16.741c-.007-.033-.014-.067-.018-.1.653.052 1.28.198 1.633.812.116.203.305.069.399.201.04.323.194.601.334.886-.202.215-.28.441-.096.714.102.151.081.272-.133.292l-.695-.543c.224-.548-.076-1.266-.699-1.606a3.513 3.513 0 0 1-.548-.366c-.142-.047-.136-.183-.177-.29Z" fill="#ebebed"/><path d="M21.775 17.304c.226-.051.45-.17.68.006.159.122.215-.065.316-.117.16.054.323.101.462.203a.108.108 0 0 1-.014.133c-.59-.057-.845.297-.995.797-.087.293-.052.62-.24.883-.002-.12.026-.25-.106-.325.124-.196.058-.32-.132-.43-.187-.107-.357-.243-.43-.462.153-.23.305-.459.459-.688z" fill="#e0e1ec"/><path d="M23.218 17.529c0-.04-.003-.079-.004-.118-.11-.148-.125-.295.005-.44.687.28 1.214.708 1.463 1.445.103.307.082.494-.25.586h-.036L24.36 19c-.195.105-.388.124-.579-.011.53-.25.55-.664-.009-1.034-.197-.131-.352-.307-.554-.425z" fill="#f2f3f5"/><path d="M22.882 19.882c.443-.363.91-.563 1.46-.224.045.052.04.1-.012.143-.202-.017-.319.157-.484.218-.34.125-.693.259-.964-.137z" fill="#e0e1ef"/><path d="M22.882 19.882c.373.156.74.228 1.062-.105.137-.14.265-.07.397-.006.033.022.045.046.035.07-.01.024-.02.036-.03.036l-.115.01c-.494.557-1.05.638-1.465.216.006-.091.025-.174.116-.221z" fill="#d2d4e6"/><path d="M22.766 20.104c.546.32 1.013.1 1.465-.217-.282.601-.796.74-1.669.451.022-.119.107-.183.204-.234z" fill="#c2c5db"/><path d="m24.346 19.878-.004-.106v-.112c.172-.153.022-.207-.086-.262-.192-.098-.38-.198-.475-.409l.579.011c-.09.127-.07.212.06.316.26.21.168.402-.074.562z" fill="#ebebed"/><path d="m23.22 16.971-.006.44c-.177-.014-.406.08-.444-.218 0-.112.002-.225.004-.337.098.001.182-.025.236-.115l.21.23z" fill="#c1c3db"/></g></g><defs><clipPath id="a"><path fill="#fff" d="M0 0h40v40H0z"/></clipPath><clipPath id="b"><path fill="#fff" transform="translate(10 10)" d="M0 0h19.869v20H0z"/></clipPath></defs></svg>