<svg width="40" height="40" fill="none" xmlns="http://www.w3.org/2000/svg"><g clip-path="url(#a)" transform="matrix(1.4 0 0 1.4 -7.978 -7.989)"><mask id="b" mask-type="alpha" maskUnits="userSpaceOnUse" x="10" y="12" width="20" height="16"><path fill="#fff" d="M10 12.866h20v14.269H10z"/></mask><g mask="url(#b)" fill-rule="evenodd" clip-rule="evenodd" fill="#455662"><path d="M15.727 18.995h10.287l-.415 1.952H15.31ZM17.022 12.866H27.31l-.416 1.953H16.606ZM14.431 25.125h10.287l-.415 1.952H14.015Z"/><path d="M28.16 24.054 10 24.057l18.166-.003 1.722-8.098c.007.004-18.16 0-18.16 0l-.425 1.953 16.2-.004-.89 4.201-16.18.004L10 24.058"/></g></g><defs><clipPath id="a"><path fill="#fff" d="M0 0h40v40H0z"/></clipPath></defs></svg>