<svg width="40" height="40" fill="none" xmlns="http://www.w3.org/2000/svg"><g clip-path="url(#a)" transform="matrix(1.4 0 0 1.4 -8 -7.919)"><g clip-path="url(#b)"><path d="M24.322 20.82c-.383.528-.698 1.1-1.043 1.651-.605.968-1.207 1.938-1.8 2.913-.098.162-.207.212-.39.209-.825-.014-1.649-.012-2.473-.016-.005-.17.11-.287.188-.417 1.327-2.184 2.658-4.366 3.987-6.549.883-1.45 1.76-2.905 2.65-4.351.05-.082.087-.18.198-.203.132.07.175.212.245.326 1.34 2.19 2.676 4.385 4.013 6.578.06.099.103.2.103.32-.002 1.389-.001 2.777-.002 4.165 0 .048.008.099-.04.133-.166-.084-.223-.257-.31-.4-1.271-2.076-2.561-4.14-3.832-6.216-.148-.242-.16-.242-.308.005-.32.532-.654 1.056-.973 1.588-.058.096-.109.203-.213.264zM17.01 14.019c.27.266.416.614.61.93.793 1.283 1.576 2.573 2.362 3.861.069.092-.014.152-.051.214-.369.608-.73 1.22-1.1 1.826-.19.312-.268.309-.465-.01-.37-.596-.74-1.192-1.106-1.791-.058-.096-.104-.204-.217-.285-.293.447-.558.904-.843 1.35-.16.252-.287.527-.488.753-.294.29-.457.667-.671 1.009-.741 1.182-1.47 2.372-2.202 3.56-.053.086-.099.155-.221.154-.833-.005-1.666-.002-2.5-.003-.045 0-.101.013-.118-.054.25-.506.566-.975.858-1.456l2.524-4.147c1.17-1.919 2.346-3.834 3.505-5.76a.47.47 0 0 1 .122-.151z" fill="#9acebf"/><path d="M15.712 20.868c.015-.172.139-.29.221-.428.366-.602.739-1.201 1.126-1.83l1.547 2.5 1.377-2.3c.84-1.384 1.706-2.752 2.505-4.16.277-.487.57-.696 1.134-.642.591.056 1.192.01 1.788.015.076 0 .163-.04.23.034l-4.58 7.522c-.813 1.333-1.629 2.665-2.443 3.998-.572-.925-1.146-1.85-1.717-2.775-.398-.644-.792-1.29-1.188-1.934zM17.01 14.019c.017.11-.063.183-.111.263-2.237 3.678-4.477 7.355-6.717 11.03-.05.081-.082.18-.181.221 0-1.397.003-2.795-.001-4.193 0-.162.04-.296.124-.435 1.349-2.228 2.695-4.458 4.037-6.691.085-.143.177-.199.347-.197.833.009 1.667.003 2.501.002zM24.322 20.82c.19-.397.448-.754.673-1.13.213-.356.435-.707.67-1.086l1.083 1.753 3.128 5.072c.03.049.055.1.082.15-.865.003-1.729.004-2.594.014-.143.002-.172-.097-.225-.183l-2.679-4.393c-.042-.068-.092-.13-.138-.197z" fill="#fff"/></g></g><defs><clipPath id="a"><path fill="#fff" d="M0 0h40v40H0z"/></clipPath><clipPath id="b"><path fill="#fff" transform="translate(10 14)" d="M0 0h20v11.594H0z"/></clipPath></defs></svg>