<svg width="40" height="40" fill="none" xmlns="http://www.w3.org/2000/svg"><path fill-rule="evenodd" clip-rule="evenodd" d="M30.312 21.508c.012-.113.02-.226.02-.34 0-1.739-1.44-3.147-3.217-3.147-1.777 0-3.217 1.408-3.217 3.146 0 1.737 1.44 3.145 3.217 3.145a3.217 3.217 0 0 0 2.983-1.968l-1.386-.243c-.307.562-.888.94-1.553.94-.882 0-1.612-.663-1.759-1.533zm-3.153-2.181c.753 0 1.396.485 1.659 1.171h-3.32c.263-.686.907-1.171 1.661-1.171z" fill="#005baa" style="stroke-width:1.4"/><path fill="#005baa" style="stroke-width:1.4" d="M21.391 18.153h1.643v6.046h-1.643z"/><path fill-rule="evenodd" clip-rule="evenodd" d="M22.213 15.688a.917.917 0 1 0 0 1.833.917.917 0 0 0 0-1.833zM11.337 16.215v3.254H7.796v-3.254H6v7.979h1.796v-3.255h3.54v3.255h1.798v-7.98zM18.751 18.156v.324a3.147 3.147 0 0 0-1.637-.455 3.149 3.149 0 0 0-3.153 3.143 3.149 3.149 0 0 0 3.153 3.144c.584 0 1.13-.159 1.6-.433v.315h1.602v-6.038zm-1.556 4.83a1.827 1.827 0 0 1-1.838-1.817c0-1.005.821-1.819 1.838-1.819 1.016 0 1.839.814 1.839 1.82a1.828 1.828 0 0 1-1.84 1.817zM33.728 17.592a3.25 3.25 0 0 0-2.68 3.167v3.44h1.573v-3.505c0-.802.603-1.464 1.379-1.56z" fill="#005baa" style="stroke-width:1.4"/></svg>