<svg width="40" height="40" fill="none" xmlns="http://www.w3.org/2000/svg"><g clip-path="url(#a)" transform="matrix(1.4 0 0 1.4 -8 -8)"><mask id="b" maskUnits="userSpaceOnUse" x="10" y="13" width="20" height="14"><path fill="#fff" d="M10 13.158h20v13.684H10z"/></mask><g mask="url(#b)"><path fill-rule="evenodd" clip-rule="evenodd" d="M20.023 13.158C14.485 13.158 10 16.27 10 19.978c0 3.752 4.53 6.864 10.023 6.864 5.492 0 9.977-3.112 9.977-6.865 0-3.707-4.485-6.82-9.977-6.82Zm-1.098 8.055-.275 1.419h-4.485c0-.412.046-.733.137-1.053.092-.32.183-.595.32-.824.32-.55.824-1.144 1.694-1.876.137-.092.274-.23.458-.412.777-.641 1.19-1.19 1.19-1.74a.773.773 0 0 0-.138-.457c-.091-.092-.229-.137-.412-.137a.477.477 0 0 0-.458.32 2.63 2.63 0 0 0-.182 1.007h-1.648c.091-.87.275-1.51.686-1.968.367-.412.962-.595 1.694-.595.686 0 1.235.137 1.602.503.412.367.595.87.595 1.465 0 .458-.092.87-.32 1.236-.23.366-.642.778-1.236 1.327-.092.046-.184.137-.32.275-.87.686-1.374 1.19-1.603 1.51zm6.178-2.06c-.046.092-.046.23-.092.412h-1.647c0-.137.046-.274.046-.366.045-.137.045-.229.045-.32 0-.183-.091-.32-.137-.458-.137-.091-.229-.137-.412-.137-.229 0-.366.091-.503.229-.092.183-.23.595-.412 1.327l-.412 2.014c-.137.595-.183.915-.183 1.052 0 .183.046.32.137.412.046.092.183.137.32.137.275 0 .458-.137.595-.32.138-.183.275-.595.412-1.327h-.64l.274-1.327h2.426l-.87 4.21h-1.19l.046-.732c-.183.274-.412.503-.686.64-.23.138-.55.23-.916.23-.549 0-.96-.184-1.19-.504-.32-.366-.457-.824-.457-1.465 0-.137.045-.32.045-.549 0-.229.092-.503.138-.778.137-.778.274-1.419.412-1.922.137-.595.274-1.007.412-1.373.228-.458.549-.824.915-1.053.366-.183.824-.32 1.419-.32.732 0 1.235.183 1.556.503.366.32.549.778.549 1.42v.365z" fill="#fff"/></g></g><defs><clipPath id="a"><path fill="#fff" d="M0 0h40v40H0z"/></clipPath></defs></svg>