<svg width="40" height="40" fill="none" xmlns="http://www.w3.org/2000/svg"><path fill-rule="evenodd" clip-rule="evenodd" d="M12.672 16.721c-.687-.11-.172-1.633-.737-1.951.708-.188.432.957.579 1.483.056.202.214.297.158.468zM26.592 17.112c.251.176.051.725-.203.78.03-.293.244-.422.203-.78zM16.62 17.807c-.05.498-.559.2-.71.102.213-.264.425-.068.71-.102zM24.599 18.197c-.11.32-.437-.035-.553-.137.125-.133.447.023.553.137zM10.538 18.257c-.176.228-.462.303-.632.546-.185.266-.14.652-.42.859.08-.615.356-1.398 1.052-1.405M25.333 18.754c-.01.18-.131.227-.266.26-.171-.206.121-.425.266-.26zM19.598 19.875c-.017.214-.233.318-.318.235.004-.236.2-.372.318-.235zM30.373 19.844h.096c.075.316-.018.87-.224 1.067-.201-.233.1-.764.128-1.067zM20.545 20.284c-.13.207-.373.001-.343-.232.104-.018.221.176.343.232zM20.339 20.523c.016.205-.08.303-.263.314-.144-.144.019-.35.263-.314zM20.23 21.514c.007.14-.065.164-.052.312h-.265c.007-.25.12-.344.318-.312zM19.835 21.9c-.098.173.079.26.106.416-.331.044-.462-.404-.106-.416zM21.36 24.743c-.19-.045-.322-.101-.5 0-.131-.386.651-.462.5 0zM21.785 24.997h.314v.315c-.374.03-.317-.155-.314-.315zM21.647 25.126c.034.015.07.029.077.064-.013.159-.148.218-.308.255-.062-.108.18-.202.231-.319M20.494 25.856c-.065.12-.119.333-.319.269-.005-.17.148-.398.319-.269zM21.042 26.109c.003.23-.132.279-.311.271-.05-.275.167-.39.31-.271z" fill="#1f407a" style="stroke-width:1.4"/><path fill-rule="evenodd" clip-rule="evenodd" d="M21.255 26.198c-.025.17-.084.307-.284.295-.13-.195.139-.384.284-.295zM20.123 26.22c-.1.178-.426.134-.448.39-.108-.007-.154.14-.237.078.072-.293.318-.554.685-.468zM20.345 26.532c.416.02.269.35-.064.364-.004-.174.083-.168.064-.364zM19.228 27.026c-.009.288-.193.272-.342.319.037-.24.175-.304.342-.319zM19.491 27.028c.205-.024.255.108.234.311-.204.022-.333-.028-.312-.233.067.014.074-.03.078-.078zM20.828 27.162c.063.342-.364.445-.307.084.072-.07.165-.11.307-.084zM18.333 27.614c-.245-.025-.32.208-.553.2.062-.2.433-.479.553-.2zM19.701 27.896c-.052.153-.185.212-.342.243-.176-.272.178-.416.342-.243zM18.59 28.57h-.307c-.06-.424.367-.424.307 0zM17.148 28.562c.035.078.027.198.026.312-.3.01-.308-.268-.526-.339.088-.421.283-.002.5.027M21.413 28.795c-.104.329-.544.175-.763.144.18-.29.552-.326.763-.144zM18.78 28.692c.242.023.525-.032.631.25-.177.045-.637.217-.632-.25zM21.123 29.184c-.068.486-.582.085-.658 0 .163-.11.495-.11.658 0zM19.546 29.266c.01.46-.163.303-.318.23.054-.171.16-.247.318-.23zM21.57 29.637c-.1.212-.229.226-.394.15.052-.263.3-.388.395-.15zM18.332 29.883c-.198.022-.363-.01-.395-.26.125-.13.364-.013.395.26zM19.991 32.933c.132-.009.18.065.21.156-.243-.01-.686.458-.789-.051.223.081.486.12.58-.105" fill="#1f407a" style="stroke-width:1.4"/><path fill-rule="evenodd" clip-rule="evenodd" d="M21.79 32.14c-.056.057-.053.193-.088.279.143-.056.242-.172.319-.318-.093-.01-.123.07-.232.04m-.929.002c.017.194.175.23.316.289.03-.24-.205-.383-.316-.29zm-2.08.157c.189.08.416-.175.274-.303-.043.167-.258.097-.274.303zm7.136-.356c-.1.145-.255.235-.422.313-.111 0-.17-.05-.263 0 .276.415 1.084.188 1.264-.156-.122-.123-.381-.11-.58-.157zm-13.35.001c-.02.233.197.297.314.203.035-.292-.21-.34-.313-.203zm10.48.16c.136-.04.197.059.315.052-.03-.225-.123-.335-.287-.316a.592.592 0 0 0-.028.264zm-2.37 1.01c-.205.003-.223-.178-.316-.286-.403-.232-.946.08-1.422-.052-.153.057-.18.239-.395.234-.086-.097-.132-.233-.158-.39.27-.06.293.127.526.104-.006-.297-.348-.263-.579-.338-.11.204-.465.165-.605.338.576.411 1.404.872 2.317.885.446.006.798-.211 1.237-.208.53-.24 1.162-.38 1.449-.86-.282.036-.422.209-.606.34-.102-.082-.259-.11-.422-.13-.049-.146-.158-.238-.105-.417-.093.063-.104.25-.263.312-.08-.078-.206.02-.29.026-.053.27.202.235.238.416-.144-.005-.317.018-.422-.026-.019-.632-.257-1.11-.658-1.43.025.284-.243.28-.395.39-.052-.036-.125-.05-.184-.079-.086-.11.014-.254-.105-.312-.381.918 1.356.662 1.158 1.484m5.187-1.666c.033.112-.002.129 0 .26.212.12.517.307.816.182.157.018.07.278.132.39.081-.032.206-.02.21-.13-.04-.116-.12-.193-.131-.338-.454.005-.716-.315-1.027-.364m-4.134.39c-.52-.11-.62-.636-1.132-.754.112.482.635.983 1.132.754zm4.95-.234c.07-.12.217-.167.21-.364.126 0 .194-.22.053-.26-.124.15-.08.359-.263.39-.236.04-.511-.323-.71-.39-.194.463.343.552.71.624zm-14.245-.494c.002.14-.235.044-.237.182.104.193.504.093.659.234-.102.152-.424-.005-.58.13.106.13.234.08.37.052.348-.071 1.003-.03.947-.39-.02-.129-.487-.325-.737-.417-.22-.08-.424.05-.632-.026-.021.169.17.126.21.235m6.398-.079c.062-.008.1-.04.185-.025.053.077.11.152.105.286-.139.262-.533.27-.606.598.5-.036.634-.432.738-.859-.212.002-.345-.213-.5-.181.037.049.06.112.078.181zm1.212-.025c-.121 0-.097-.149-.21-.209-.193-.1-.238-.001-.448.078.216.004.11.326.184.469.242-.149.505-.043.737-.026-.022-.237.006-.399 0-.546-.156.078-.097.234-.263.234m6.003-.183c.148.097.216.273.42.313.04-.342-.234-.375-.393-.52-.041.037-.024.133-.027.207m-7.557-.528c-.006.156.055.219.132.259.119-.177.277-.24.5-.185-.083-.194-.53-.138-.632-.074M17.07 32.62c.25.222.468.405.737.546.259.137.552.324.868.417.16.047.332.074.5.13.429.142.841.177 1.37.13.236-.021.534-.106.658-.26-.49-.02-1.01.156-1.448.052-.195-.047-.411-.032-.606-.078-.736-.173-1.325-.665-1.895-.937-.104-.349-.492-.437-.711-.624-.548-.469-.836-1.2-1.211-1.796.289 1.015 1.014 1.78 1.738 2.42m9.636-1.535c.077-.084-.042-.132-.026-.234.061-.06.209-.036.263-.105-.072-.186-.247-.11-.29-.286-.044-.183.186-.427.053-.676-.235.036-.688.15-.948-.027.184.574.62.898.948 1.328m-1.29 1.014c.156.014.335-.151.368-.312.012-.053-.05-.136-.052-.208-.006-.252.194-.586.184-.806-.014-.31-.326-.81-.448-1.016.157.716.306 1.685-.052 2.342zm-9.958-2.185c.04-.162-.079-.269-.31-.339-.018.155.16.242.31.339zm9.195-.052c-.096-.137-.003-.392-.237-.443-.058-.012-.271.028-.369.052-.21.053-.445.214-.684.26-.304.06-.66-.078-.843-.052-.195.029-.56.396-.685.469.068.228-.16.406-.132.598.035.227.289.395.422.599.343.09.602-.181.869-.208.37-.038.527.16.816.312.47-.342.639-.982.843-1.587m-1.606-.443c-.233.024-.5-.093-.685.052.204-.046.368.08.553.104.54.072.843-.135 1.211-.234.122-.033.275.019.316-.13-.406-.319-.89.157-1.395.208m-9.637 1.223c-.087-.07-.061-.251-.106-.364-.23.085-.342.286-.447.495.28.27.969.15.948.598-.014.307-.37.278-.527.494.219.241.726.213 1.08.13-.22-.463-.64-.641-.658-1.222-.023-.692.702-1.225.71-1.848-.334.57-.93.884-1 1.717m9.373-1.379c.54.005.96-.11 1.264-.338-.479-.047-.797.288-1.264.338zm-.527-.078c.507-.064 1.116-.116 1.501-.442-.612.037-1.052.244-1.501.442zm-10.794-.546c-.142.242-.405.363-.58.572.19-.048.258-.041.395.052.196-.049.488-.49.185-.624zm11.558-.105c-.145.028-.31.097-.474.13-.166.035-.387.015-.447.157.053.157.291.125.42.104.28-.046.67-.268.896-.339-.066-.133-.272-.075-.395-.052m-8.479.293c.027-.098.4-.224.165-.319.05.128-.42.218-.165.319zm-4.686.046c.088.055.125.15.184.182.264.138.775.027.922-.104.105-.094.287-.318.264-.365-.525.17-1.426.55-1.738-.078-.03.221.204.26.368.365m19.405-.299c.105.15.447.161.395-.222-.116.101-.303.081-.395.222zm-7.399.067c.302.089.849-.024 1.001-.289-.261 0-.792.056-1 .289zm6.959.076a.575.575 0 0 0-.243-.443h-.054c-.08.22.07.433.297.443m-7.011-.729c-.024.133-.153.24-.08.39.324-.036.724.004.817-.26-.236-.053-.49-.09-.737-.13zm-5.661.443c-.394-.102-.575-.648-1.08-.339.01.664.209 1.184.316 1.796.167.407.357.777.685 1.223.129.176.215.4.421.599.153.146.509.485.684.468.06-.006.133-.11.237-.182.4-.277 1.028-.61.843-1.301-.227-.099-.198.2-.421.182-.14-.043-.1-.265-.106-.443.08-.19.35-.192.5-.312-.32-.23-.733-.367-.947-.702-.15-.008-.178-.03-.316-.079-.112-.461-.655-.498-.816-.91zm11.058.103a.643.643 0 0 0 .395 0c-.06-.244-.1-.507-.21-.702-.12.177-.162.43-.185.702zm-5.292-.754c.009.208.56.163.71.208.13-.448-.72-.466-.71-.208zm-5.66-.338c-.26-.238-.499.06-.764.208.046.51.76.36.895.78-.06.114.019.217.079.287.064.01.058-.048.132-.027.077.262.443.239.579.443.109-.023.18-.081.29-.104.006-.22.161-.418.026-.625-.21-.044-.199-.307-.421-.338-.043.08-.082.163-.185.182-.156-.097-.454-.054-.473-.286.015-.063.17.012.157-.078-.213-.087-.182-.32-.316-.442m9.374.234c.133-.09.26-.185.3-.365-.078-.055-.117-.149-.246-.156-.025.144-.11.332-.054.52m-3.713-.26c.241.06.639.268.684-.104-.122-.127-.77-.315-.684.105zm-7.925-.598c-.105.229.131.488.158.833.053.683-.259 1.017-.343 1.535-.247.235-.479.51-.842.65-.204.079-.515 0-.632.235 0 .13.192.07.184.208-.045.137-.02.298.132.312.309-.276.558-.61.895-.859.394-.625.99-1.454.606-2.393.062-.008.049-.09.131-.079.222.189.254.564.316.911.043-.597-.114-1.198-.605-1.353m.422.028c-.018.173.144.209.314.238-.016-.12.058-.309-.105-.318-.035.053-.112.074-.21.08zm7.529.154c.157.024.402.052.553 0 .006-.02 0-.051.026-.052.02-.08-.026-.095-.026-.156-.238-.105-.813-.21-.553.208zm5.294-.02a.402.402 0 0 0 .315-.318c-.132.075-.347.055-.315.318zm-12.355.176c.044-.461.261-.846-.053-1.17-.163.406-.258.783.053 1.17zm14.223.026c-.303-.438-.59-.828-.843-1.275h-.079c-.27.273-.035.57.027.911.055.304.002.64.21.78.184-.026.148-.27.263-.364.342.053.417.369.659.52.003-.293-.114-.394-.237-.572m-14.77-.91c.235.263.411-.23.263-.365-.057.148-.233.193-.264.364zm11.637.26c-.02.153-.23.142-.237.286-.009.19.41.32.395.547-.008.123-.171.147-.29.312-.35.487-.2 1.316-.026 1.874.19.068.348.216.553.156.186-.056.113-.31.316-.339.085.171.267.374.5.312-.094-.354-.134-.725 0-1.066-.248-.245.051-.71.079-1.015-.122.047-.28.003-.369.026-.08.295-.349.566-.448.884-.075.246.018.564-.184.755-.138-1.014.528-1.68.922-2.342-.01-.058-.144.004-.132-.078.067-.15.22-.216.237-.416-.109-.135-.301-.188-.42-.312-.457.177-.764-.115-1.107-.26-.212.356.247.4.211.676m1.448-.78c-.072.07-.034.367.026.468.155-.073.308-.148.316-.365-.104-.044-.193-.104-.342-.104zm-5.635 1.222c-.03-.33-.204-.572-.29-.807-.06-.166-.014-.297-.157-.39-.312-.201-.724-.14-1.185-.052-.136.091-.159.295-.342.339-.059-.056-.023-.204-.132-.209-.173.055-.334.12-.342.338-.286.004-.203.373-.448.417-.103-.066.007-.212-.078-.26-.142-.001-.225.055-.343.078.013.082-.047.092-.026.182-.227.14-.409.435-.684.442-.063.077-.067.212-.211.208-.086-.408.538-.334.58-.702-.62.16-.783.771-1.028 1.3.279.185.517.41.685.704-.066.177-.119.369-.158.572-.097.044-.19.091-.264.156.163.42.726.445 1.054.703.813-.058 1.465-.242 1.632-.989-.055-.362-.363-.474-.605-.65.385-.058.733.322.736.598.004.273-.355.782-.552.885-.175.09-.377.044-.474.208.47.039.9.116 1.159.364.126-.213.505-.176.71-.312-.17-.116-.577.108-.605-.104a2.94 2.94 0 0 1 1.448-.052c.194-.198.321-.61.237-.885-.046-.151-.175-.132-.29-.26-.055-.062-.058-.146-.105-.182-.357-.276-1.055.066-1.395-.287.078-.124.3-.22.5-.234.113-.008.342-.002.421.104.016.111-.111.081-.158.13.718 0 .765-.744.71-1.353m2.054-.729c-.248.156-.412-.036-.685-.13-.127.056-.16.206-.157.39.65.662 1.757-.29 1.29-.962-.457-.016-.197.545-.448.702zm-1.263-.702c-.073.11-.265.103-.237.312.378-.002.716-.26 1.026-.416.114.004.23.067.263-.052-.337-.133-.736.096-1.052.156zm-9.664.286c-.023.46.54.301.79.364-.154.319-.66.068-.895 0 .258.54.528 1.273.342 1.952-.076.279-.404.441-.368.755-.112.159-.231.31-.29.52a.72.72 0 0 0 .448 0c.25-.272.305-.738.526-1.04.16.014.1.249.29.234.106-.158.185-.376.21-.573.075-.577-.238-1.125-.342-1.483.154-.037.564.222.737 0-.11-.118-.297-.158-.342-.338.033-.135.222-.104.316-.235.147-.205.124-.597-.106-.702-.26.405-.795.53-1.316.546m2.007.104c.089-.282.258-.481.087-.754-.181.215-.4.545-.087.754zm7.393-.416c.262-.133.55-.318.922-.364.137-.018.382.074.473-.078-.532-.11-1.314-.106-1.395.442zm-4.134-.676c-.173.394.203.632.553.676.062-.069.15-.111.132-.26-.572.074-.22-.291-.132-.625-.24.015-.37.137-.553.209zm4.16 0a.639.639 0 0 0 .026.26c.388-.183.947-.27 1.475-.235-.27-.366-1.145-.275-1.5-.025zm-8.583-.677c-.268.057-.476-.004-.658.052-.042.47-.163.964-.053 1.379.551.145.943-.247 1.185-.573.263.044.211.399.395.52.048-.3.175-.657.158-.936-.011-.058-.13-.01-.184-.026-.103-.055-.064-.25-.185-.286-.212.085-.141.45-.395.494-.1-.196-.048-.542-.263-.624m9.426-.026c-.392-.035-.913.152-.87.468.16.048.351-.079.58-.104.299-.033.615.052.816 0 .047-.23-.299-.344-.526-.364zm-4.713.26c.534-.059.943-.194 1.395.104.077.089.086.245.264.234-.082-.58-1.218-.805-1.66-.338zm3.528-.208c-.48-.253-1.19-.1-1.448.234-.077.306-.335.433-.527.624-.063-.136-.181-.219-.368-.234-.008-.087.035-.225-.08-.208-.164.28.154.458.264.677.067.134.022.308.184.364.406-.26 1.241-.155 1.527.156.036.346.224.542.343.807.214.012.405.001.5-.104-.548-.527.061-1.82-.395-2.316m.474-.017c.246-.096.564-.092.764-.251-.247-.132-.698-.084-.764.25zm-3.45-.175c.208.066.496.208.738.083-.04-.335-.637-.35-.737-.083zm7.979 1.363c.015.227-.055.54.131.598.132-.154.007-.787.474-.65.07-.501.33-.661.342-1.197-.08-.009-.205.029-.21-.053-.058-.168.173-.303.026-.39-.26.559-.208 1.425-.763 1.692m5.107-1.77c-.653.433-1.469.949-2.29.468-.094-.098-.125-.258-.316-.26.047.757.553 1.073 1.264 1.145.261.027.549-.076.842-.026.316.054.564.325.843.365.049-.406-.364-.576-.71-.677.071-.32.447-.338.631-.547-.003-.239-.088-.399-.264-.468m.633.52c-.107.008-.215.015-.211.13.31.22.92-.505.368-.702-.066.178-.026.46-.157.573m-10.638-.235c-.005.05-.068.173 0 .209.175-.27.566-.326.896-.443-.253-.363-.66.106-.896.234zm-2.58-.364c-.001.033-.033.036-.026.078.333.192.755.294.816.755.121.007.142-.086.184-.156-.19-.342-.398-.803-.974-.677m6.03.755c-.11-.029-.254-.054-.238.104.098.018.113-.045.211-.026.102.072.09.257.237.286.095-.522.411-.825.553-1.301-.006-.02-.022-.03-.053-.026-.27.289-.364.75-.71.963m-5.477-.91c.197.116.325.303.5.441.046.093-.02.298.105.313.07-.284-.269-.873-.605-.755zm-5.24.025c.032.16.067.316.158.416.102-.096.281-.423.132-.52-.088.043-.195.068-.29.104zm17.298-.104c.148.201.322.376.448.598.222-.289-.11-.773-.448-.598zm-21.247.807c-.043.088-.138.146-.184.234-.118.221-.157.496-.264.728-.037.082-.128.13-.158.209-.092.242-.101.619-.053.936.052.338.432.625.237.99-.317-.25-.402-.73-.5-1.198-.21.16-.126.437-.157.677-.044.327-.076.66-.132 1.015.064.168.128.379.053.546.033.098.09.17.079.312.124.096.368.256.552.13-.138-.208-.178-.796.053-.936.222.14.4.419.763.338a1.36 1.36 0 0 0 0-.677c-.13-.466-.657-.73-.71-1.223-.022-.202.008-.673.21-.78.254.26.448.58.843.702-.013-.26-.223-.471-.29-.728-.179-.69-.052-1.46-.052-2.134-.138.273-.152.577-.29.859m-.395-.86c-.255.254-.574.566-1.027.651-.235.045-.476.036-.71.105-.298.086-.571.296-.87.234-.027-.121.13-.145.053-.234-.28.032-.559.186-.5.468.38-.026.568-.13.869-.078.349.06.62.38.921.416.242.029.438-.134.737-.078.372.444-.345.39-.658.572-.398.234-.194.895-.237 1.354-.006.074-.067.134-.079.208-.07.433-.06.868-.131 1.249.384.094.44-.315.658-.468.018-.404.035-.775.079-1.093.181-1.327.98-1.976 1.264-3.227-.097.004-.28-.001-.37-.078m11.56.182c-.124.166-.251.481-.211.599.179-.206.363-.405.58-.573.102-.046.213-.084.236-.208-.165-.19-.473.003-.606.182zm-1.58-.208c.218.183.373.43.448.755.102.015.152-.023.21-.053-.073-.318-.162-.62-.368-.806-.128.003-.296-.032-.29.104m5.556 1.51c.003.134.107.27-.026.416-.265.094-.305-.23-.527-.26-.132.21-.085.658.105.78.07-.07.122-.157.237-.182.202.243.47.669.948.468.054-.108.01-.245 0-.364-.46-.091-.312-.757-.132-1.041-.098-.155-.367-.14-.394-.364.062-.158.33-.163.42-.365.067-.147.105-.745-.052-.78-.106.601-.594 1.025-.58 1.691m-5.002-1.77c.022.226.173.464.237.677.03.103-.04.323.184.26.031-.306-.017-1.075-.42-.936zm5.582 1.302c.121.027.301-.003.342.104-.094.255-.405.51-.263.833.768-.238.657-1.346.895-2.108-.07-.096-.178-.154-.29-.208.126.809-.429.946-.684 1.379M7.142 23.227c-.07-.034-.052-.157-.158-.156-.11.003-.133.094-.21.13-.021.186.028.302.105.39.505.114.483-.508.658-.807-.275-.094-.217.355-.395.443zm14.982-.208c.018-.21-.129-.362-.264-.365-.427-.006-.284.804-.158 1.093.035-.343.397-.438.422-.728zm-8.925.39c-.145-.18-.062-.804-.237-1.04-.151.333-.102.951.237 1.04zm-3.002-.182c.069-.069.334-.402.315-.65-.007-.104-.111-.253-.184-.261-.216-.024-.238.304-.316.442-.108.191-.346.448-.526.469-.376.043-.76-.29-.764-.728-.276.013-.284.29-.526.337-.07-.025-.12-.072-.21-.078-.267.092-.397.32-.422.651.26.117.534.219.606.52.21-.018.355-.099.526-.156-.062-.269-.602-.2-.526-.52.452.143.808.38 1.448.338.148-.164.41-.196.579-.364m4.055.286c-.054.008-.052.07-.106.078-.325-.286-.418-.801-.553-1.275-.074.166.02.338-.079.468-.13.035-.112-.08-.21-.078-.08.43.242.678.42.937.1.016.272-.042.29.052.012.168-.084.229-.105.364.099.068.113.218.263.235.1-.114.01-.28.132-.338.148.07.215.22.395.26.235-.37-.09-.75-.237-.99.047-.023.044-.095.105-.103.124.032.473.143.474-.078-.619-.1-.915-.386-1.106-.833-.187.525.179.927.317 1.301zm11.716-1.535c.076.731-.15 1.639-1 1.457.07.272.316.439.631.39.32-.483 1.007-1.264.448-1.925h-.08c-.01.037-.03.044.001.078zm.948 1.457c.421-.409-.178-1.435-.422-1.613-.065-.048-.167-.048-.21-.053.178.588.589.945.632 1.666m2.054-.104c-.195-.06-.083-.422-.237-.52-.15.278-.304.8.105.91.075-.06-.098-.307.079-.312.103.14.133.354.369.364.12-.08.106-.293.21-.39.257.383.733.826 1.343.729.151-.024.263-.159.395-.235.198-.113.44-.185.526-.364-.116-.195-.458-.443-.737-.234.091.363-.11.578-.342.624-.557.112-.972-.568-1.185-.91-.264.026-.423-.05-.421-.287.203-.006.342.149.553.052a1.304 1.304 0 0 1-.185-1.066c-.347.366-.548.932-.473 1.639m-13.56 0c.245-.192.42-.452.553-.755.283-.327.724-.636.921-.962-.588.476-1.117 1.012-1.474 1.717m8.873-2.004v.156c.214.077.455.293.658.157-.103-.204-.311-.436-.658-.313m-11.69.468a1.673 1.673 0 0 0-.21.6c-.079.605.166 1.302.157 1.769-.002.109-.014.369-.21.364.057-.853-.27-1.797-.132-2.498-.182.045-.05.401-.263.416-.112.023-.027-.147-.132-.13a1.14 1.14 0 0 0-.132.78c.04.176.274.297.132.417-.21.038-.193-.27-.342-.208-.011.383.208.519.184.807-.123.007-.165-.17-.263-.104-.085.8-.015 1.43.342 1.977.079.12.214.19.29.313.32.514.253 1.25.131 1.977.25.048.323-.281.606-.286.09.006.022.169.132.156.326-.566.048-1.473-.264-1.821-.14-.018-.274.085-.316-.053-.01-.139.078-.182.053-.338-.124-.138-.278-.232-.527-.182-.205-.42-.514-1.344.106-1.535-.124.349-.276.929.052 1.17.18-.046.175-.278.343-.338.214.144.232.482.263.807.335-.166.3-.713.184-1.067.266-.272.053-.657.026-.936.213.077.664.355.817.025a2.472 2.472 0 0 1-.685-.338c-.57-.812.025-1.776.447-2.238-.306-.005-.64.264-.79.495m5.32-.703c-.291.154-.792.619-1.001.859-.658.339-.93 1.058-1.396 1.587-.184.413-.275.855-.395 1.353-.047.198-.142.397-.158.573-.056.633-.065 1.25.053 1.925.422.17.641-.29.922-.312.338-.026.591.233.71.547.114.035.173.123.343.104.17-.473.35-.938.71-1.223.341-.278.832-.184 1.211-.364.3-.143.476-.479.79-.547.02-.454-.296-.575-.658-.65.476 1.113-1.395.955-1.106-.079.202-.132.143-.374.263-.572.087-.141.598-.562.738-.65.155-.1.281-.252.394-.313.089-.048.196-.016.29-.052.178-.068.33-.3.553-.312-.545.164-1.142-.13-1.264-.625-.808.088-.882-.649-.843-1.249-.05.004-.146-.006-.157 0m6.346.573c-.3-.271-.648-.622-1.186-.573.54.595 1.178 1.317 1.633 2.082.24-.053.396.112.606.078.415-.067.578-.818.447-1.275-.44-.135-1.015-.124-1.5-.312m.026 1.821c-.249-.474-.527-.846-.843-1.25-.366-.467-.69-.962-1.21-1.17h-.054c-.268.507-.309 1.239-1.079 1.249-.145.17-.317.311-.448.495.252-.02.44-.233.711-.078.31-.328.841-.454.974.13.26-.064.369.17.553.338.095.086.237.112.316.208.042.052.034.148.079.208.061.083.194.104.263.182.055.063.073.19.132.26.157.19.34.233.29.547.117.281.454.676.579.937.338.705-.486 1.497-1.317 1.353-.133-.144-.36-.196-.421-.39-.07-.217.085-.57.316-.599.334-.042.452.449.684.104-.136-.573-1.387-.183-1.395.182-.002.098.096.115.158.26.216.513.26 1.225.131 1.744.49.01.77.228 1.16.338.023.055.04.116.078.156.349.063.53.293.711.521.005.116.006.237.105.26.58-2.085.38-4.36-.473-5.985zm-13.296-.729c.293-.128.605-.762.42-1.17-.129-.288-.537-.325-.763-.52.197.48.35 1.007.343 1.69m17.956 2.759c-.085-.455.308-1.362-.079-1.614-.126-.082-.234-.024-.316-.078-.204-.133-.147-.513-.079-.754-.35-.645-.809-1.475-1.395-1.926a.604.604 0 0 0-.316-.104c-.3.437.27.632.526.833-.022.083.042.08.053.13.368.19.505.61.737.937.09.609.372.808.316 1.483.029.084.138.09.158.182.033.174.187.42.237.625.022.091.104.28-.053.312-.181-.115-.16-.432-.342-.547-.069.115-.068.297-.08.469.094.159.196.31.185.572.188.18.223.436.395.677.28.39.873.687.632 1.223-.111-.003-.068-.158-.184-.156.067.132-.028.31.026.416.461-.093.367-1.04.105-1.275.02-.076.142-.05.132-.156-.376-.25-.56-.724-.658-1.249m-17.351-4.034c.012.127-.027.305.026.39.351-.19.506-.575.79-.832-.308-.082-.485.377-.816.442zm.975.026c.21-.173.45-.317.658-.494-.314-.131-.52.28-.658.494zm12.085-.54c.075.282.679.397.842.163-.3 0-.617-.285-.842-.163zm-9.242.358c-.076-.011-.083-.092-.185-.078-.165.357-.59.458-1.079.495-.126.676.338 1.04.895 1.092.105.01.322.03.421 0 .147-.044.166-.195.264-.312.148-.176.404-.355.605-.572.352-.38.688-.706 1.054-.99-.735-.214-1.479.1-1.975.365m10.69-.364c-.083.257-.444.238-.58.442.309.551 1.105.019 1.08-.546-.23-.11-.288.261-.5.104zm-5.582.13c-.183-.38-.436-.028-.632 0-.062.009-.14-.04-.21-.052-.318-.052-.75-.174-1.028-.234-.155.568-.136 1.303.658 1.145.208.174.179.531.448.624.228.079.456-.063.737-.104.13-.148.136-.387.316-.494.253-.151.546-.082.71-.339.129-.198.092-.435.211-.754-.366.002-.69.27-1.21.208zm3.422-.13c.096.042.238.174.343.052-.047-.163-.165-.254-.316-.312.02.115-.035.156-.027.26zm2.239-.226c-.15-.074-.23-.246-.474-.187.043.369.287.37.474.187zm-3.37.018c.282.044.583.202.842.182.042-.18-.173-.107-.158-.26 0-.105.211 0 .21-.105-.282-.093-.758-.03-.894.183m3.448-.18v.158c.05.005.096.012.081.08h.157c.006-.049.014-.095.081-.08v-.159c-.05-.005-.095-.011-.08-.08h-.158c-.006.05-.013.095-.08.08zm-1.684.024c.185.138.503.144.79.182-.005-.47-.553-.436-.79-.182zm-9.137.52c.243-.08.446-.201.737-.234-.01-.34.436-.228.474-.52-.568.088-.962.349-1.211.754zm-1.711-.755c-.155.272-.286.67-.08.937.17.218.676.354.949.13-.419.084-.596-.208-.527-.52.13-.024.124.086.264.052-.052-.278-.442-.223-.422-.572-.062-.009-.098-.042-.184-.027m-1.343.39c.298.166.74.026.763-.363-.28-.156-.583.178-.763.364zm2.185 0c.172.057.418-.045.606-.13.346-.155.794-.348 1.027-.572-.66.016-1.04.533-1.633.703m12.586-.026c.206.81 1.506.172 1.237-.547-.055-.146-.223-.23-.421-.286.083.552-.29.805-.816.833zm.737-.625c-.117-.569-1.052-.321-1.474-.234.205.213.457.38.447.807.069-.15-.001-.435.21-.443.063.212.353.294.633.209.076-.099.12-.23.184-.339zm-15.165-.312c-.047.075-.098.219-.053.338.213.02.64-.034.737.235.222-.162.351-.417.632-.521-.328-.335-1.044-.487-1.316-.052m-.896.937c-.115-.463-.095-1.01.21-1.353-.548.025-.932 1.22-.21 1.353zm4.634-1.275c-.05.063-.098.128-.08.26.532-.014.998-.09 1.265-.365-.38.049-.82.202-1.185.105m1.712-.13c-.182.006-.329.196-.5.286-.346.181-.85.19-.975.52.248.053.478.09.685.208.13.075.176.195.315.209.159.015.31-.128.474-.13.25-.004.346.185.606.13.131-.391-.132-1.242-.605-1.223m3.738-.027c-.053.06-.087.14-.184.157h-.21c-.208.294-.57.965-.29 1.327.58-.237 1.2-.339 1.842-.469-.383-.34-.743-.705-1.158-1.015m7.215 2.499c.014-.053-.025-.128 0-.182.034-.076.13-.103.158-.157.083-.159.044-.285.079-.494.034-.206.132-.418.131-.65-.001-.424-.271-1.114-.79-.99.323.245.587.548.632 1.068-.103.788-.683 1.334-1.58 1.17.016.221.226.385.369.573.146.19.213.484.448.572.109-.265.474-.623.553-.91m-.053-1.718c-.118-.273-.319-.466-.526-.65-.405-.065-.765-.222-1.185-.208-.47.014-.929.17-1.37.208-.39.033-.877-.133-1.158.026.115.295.438.448.763.442.318-.006.674-.182 1.027-.26.102-.023.233-.01.343-.026.623-.098 1.49-.067 1.632.546.165.71-.4.914-.737 1.197.693.215 1.369-.32 1.211-1.275m-10.427-.833c.237.315.41.764.395 1.25.152.092.32.17.58.156.018-.164.077-.288.131-.417-.031-.064-.1.054-.132-.026.103-.072.071-.277.211-.312.052.191.222.266.368.364-.014.038.031.135-.026.13-.143.03-.084-.142-.21-.13-.066.04-.12.09-.132.183.055.101.128.185.184.286.275.077.518-.02.816-.052.203-.33.169-.892.421-1.171-.099-.041-.199-.08-.29-.13-.1.13-.235.124-.42.13-.046-.078.008-.132-.027-.182-.167.113-.312-.015-.447-.079-.056.067-.156.09-.29.079-.063-.033-.06-.132-.158-.13-.286.134-.615-.048-.974.051m10.611-.13c.048.207.272.217.21.469.095-.029.147-.098.185-.182-.087-.127-.235-.318-.395-.287zm-13.296.573c.363-.015.416-.478.158-.599-.099.169-.12.39-.158.599zm.448-.468c.317.243.951.146 1.158-.183-.387.257-.91-.073-1.158.183zm6.503.025c-.222-.177-.366-.38-.58-.39a.59.59 0 0 0-.157.286c.393.48.831.913 1.474 1.145-.133-.57-.337-.72-.737-1.04m1.053 1.014c.447.062.93.094 1.158-.234-.132-.085-.22.07-.394.026-.062-.06-.16-.085-.158-.208.003-.066.088-.051.158-.052-.131-.261-.309-.476-.474-.703-.115.282.08.473.158.65-.03.125-.18.027-.237.079.053.18.498.226.316.468-.677-.046-.894-1.04-.448-1.457-.584.165-.525 1.16-.08 1.431m-.868-1.327c.03.152.119.248.263.287.112-.055.15-.182.158-.339a.925.925 0 0 0-.263-.13c.049.098-.03.185-.158.182m-12.217.287c-.156.199-.34.674-.342.988-.004.658.924 1.464 1.395.755-.48-.002-.617-.344-.71-.729.075-.286.136-.758.473-.989.289-.197.977-.413 1.186-.156-.113.149-.368.158-.553.235-.192.265-.531.62-.343 1.093.134.095.338.023.474-.026.027-.125-.017-.351 0-.547.146-.211.334-.38.553-.52-.04-.12-.027-.224.08-.26.15-.026.193.096.315.025-.637-.502-1.96-.598-2.528.13m5.156-.44c.027-.204-.037-.336-.306-.312-.03.204.038.337.306.313zm14.486 2.496c.056-.085.15-.164.184-.234.305-.612.045-1.38-.395-1.873-.104-.118-.286-.2-.421-.313-.286-.239-.52-.543-.948-.598-.568-.075-.818.155-1.185.338-.245.122-.53.204-.658.416.728.07 1.415-.434 2.133-.182 1.053.37.929 2.047.263 2.785.188-.101.238-.338.5-.365.076.142-.043.476.105.547.224-.069.303-.34.422-.52m-9.083-2.779c.015-.077.46-.283 0-.318-.053.069-.22.26 0 .318zm-2.251.176c-.011-.312.338-.58 0-.833-.12.26-.316.65 0 .833zm1.065-.416c.307-.048.389-.306.261-.443-.083-.001-.09-.033-.195-.026-.018.158.053.35-.066.469zm-.515.546c.184-.328.302-.815 0-1.093-.176.279-.18.891 0 1.093zm-1.05-.729c-.098-.13.318-.265 0-.364-.242.089-.28.278 0 .364zm-7.966-.122c.347.047.675-.026 1 0-.186-.415-.8-.39-1 0zm11.743-.424c.552.27.992.65 1.5.963.788.078 1.33-.09 1.396-.78-.095-.07-.19.041-.263.077-.019.128.12.1.053.208-.264.25-.446.02-.658-.052-.06-.02-.145.01-.21 0-.315-.05-.577-.33-.817-.364.09.207.425.17.448.443-.273-.005-.467-.15-.659-.26-.2-.117-.422-.152-.631-.287-.02-.08.072-.05.053-.13-.151-.079-.298.02-.212.182m2.186-.546c-.251.046-.388-.017-.553.054.111.294.487.427.553-.054zm-9.927-.157c-.115.166.04.285.105.417-.058.047-.14.07-.184.13-.016.605.274.91.737 1.04.092-.098-.084-.22 0-.311.478-.16.69.624.975.754.26.12.99.095 1.158-.13-.075-.392.027-.975.08-1.405-.607-.072-1.353.224-2.002.156-.183-.02-.536-.034-.605-.234.878.091 1.86-.063 2.738-.208-.757-.624-2.053-.075-3.002-.209m3.292-.2c-.004.105.05.15.131.168.112-.012.112-.143.237-.14.12.02.115.176.237.196-.005-.089.07-.094.052-.197-.162-.166-.456-.148-.657-.028zm-4.608-.164c-.273-.099-.488.248-.5.599-.007.178.16.369 0 .494-.104.068-.224-.09-.316-.026-.053.426.21.762.368 1.067.415.197.857.367 1.185.65.098-.018.113.045.21.026.198.164.762.473.975.209-.319-.345-.811-.542-1.159-.885-.157-.156-.322-.351-.473-.52-.145-.162-.36-.372-.317-.625.196.249.391.5.58.755.5.347.95.88 1.58 1.015.094-.135.047-.311 0-.443-.306-.149-.54-.37-.843-.52-.33-.394-.299-1.013-.237-1.484-.41-.148-.523.208-.71.365-.177-.222-.081-.582-.343-.677m2.975.199c.174.056.58.143.71-.05-.189-.193-.548-.351-.71.05zm7.109-.019c.135.149.354.008.313-.258a.378.378 0 0 0-.313.258zm.71-.232c-.032.118.073.102.053.208-.168.045-.249-.105-.368-.026.027.227.62.31.71.078-.078-.084-.085-.147-.026-.26-.07-.117-.287-.084-.368 0zm1.37-.104c.073.268.075.475.158.755.225-.107.184-.478.29-.703-.047-.146-.35-.178-.448-.052m-10.663.26c-.032-.137.038-.223.051-.338-.374-.036-.452.356-.051.338zm.475-.18c-.011-.256-.15-.283-.318-.259-.018.318.185.368.318.26zm8.376-.05c.023-.148.262-.117.226-.313-.213-.047-.446.206-.226.313zm-7.035-.23c.02.165.226.229.318.14.002-.141-.028-.236-.095-.278-.054.075-.116.14-.223.139m-6.372.59c.024-.325.338-.498.316-.781-.44-.282-.564.604-.316.78zm19.563-.834c-.252-.124-.52-.002-.42.417.214.135.264.432.446.599.234-.154.242-.884-.026-1.016zm-13.665-.057c.118.033.112.224.31.157.072-.311-.289-.418-.31-.157zm3.528.682c-.266-.146-.007-.945-.526-.754.086.288.47.47.316.832-.046-.002-.082.006-.105.026-.167-.297-.232-.826-.764-.676.125.232.499.218.5.572-.05.003-.018.086-.079.078-.193-.112-.444-.554-.763-.286.41.003.602.22.763.468.111-.003.126-.1.237-.104.09.033.127.118.237.13.089-.042.113-.149.237-.156.067.029.144.049.184.104.31-.11.949-.065 1.29.078.23-.178.504.201.711-.026-.034-.463-.568-.277-.842-.156-.082-.264.31-.234.395-.416-.286-.046-.45.248-.738.286-.111-.279.298-.258.343-.468-.307.052-.379.337-.632.442-.168-.318.368-.355.395-.65-.474-.086-.372.62-.79.676-.238-.18-.01-.823-.395-.859.071.286.179.606.026.86m.422-.912c-.113.112-.016.35.079.417.072-.086.173-.141.21-.26-.05-.098-.112-.184-.29-.157zm7.846-.286c-.161.43.062.995-.132 1.38.05.14.272.112.316.26.017.138-.138.106-.158.208.127.016.188.074.132.208.094.002.18.012.21.078-.09.197-.318.258-.526.338-.046-.068-.044-.182-.158-.182-.238.008-.211.277-.42.312-.162-.269-.037-.673-.185-.963-.132-.256-.553-.587-.816-.52-.405.103-.115.765-.29 1.067-.23-.058-.38-.386-.658-.234.394.588-.133 1.292-.606 1.509.025.063.192-.016.158.104-.097.07-.272.061-.368.13-.02.333.447.183.658.286.262-.13.724.031.948-.051.684-.252 1.389-.635 1.685-1.276.437.015.844-.262 1.29-.26.292.001.52.149.816.13.096-.296-.206-.35-.368-.468.116-.257.187-.744-.132-.833-.143.125-.583.452-.763.13.034-.13.144-.186.131-.364-.133-.215-.452.143-.579-.078.122-.228.257-.657.158-.937-.14-.016-.227.02-.343.026zm-12.267.147c-.09-.032-.238-.361-.319-.154.082.043.195.425.319.154zm7.949.92c.355-.17.643-.405.895-.677-.057-.217.16-.426 0-.572-.075.061.026.147-.026.208-.247.147-.374.411-.632.546.058.039.196-.002.21.078-.075.195-.45.231-.447.417zm2.554-1.38c-.003.224-.14.313-.263.417.161.24.542.262.447.755.121.114.255.217.474.234.095-.019.082-.144.158-.182.158.038.185.05.316-.026.139.036.186.163.316.208v-.572c-.07-.044-.14.092-.263.078-.174-.358-.489-.576-.659-.937-.167-.046-.406-.088-.526.026m-10.48.39c.06.027.16.017.211.052-.055-.144-.051-.22.027-.338a.972.972 0 0 1-.29-.182c-.152.176.162.264.053.468m8.004-.156c.265-.027.377-.276.288-.442h-.165c-.045.144-.105.28-.123.442zm1.596-.291c.267.08.368-.342.078-.306-.054.103-.241.201-.078.306zm-11.944-.307c-.123.398-.383.661-.684.884-.29-.173-.17-.75-.5-.884-.198-.005-.4-.014-.5.078.164.471-.202 1.133.026 1.587-.168-.038-.262-.32-.474-.156-.012.237.184.27.184.494-.31.216-.596-.095-.842-.182-.178.216-.142.592-.027.807-.108.214-.485.162-.474.494.297-.047.674-.235 1.028-.312.398.118.826.206.974.572-.371.138-.82-.064-1.238-.026a2.693 2.693 0 0 0-.526.13c-.495.177-.847.493-1.185.781-.379.602.081 1.616-.29 2.264.447.017.545-.312.816-.468.143.19.271.478.263.754-.008.322-.222.573-.315.807.333.124.524-.234.763-.364.1.23.131.53.29.702a1.446 1.446 0 0 0 0-.65c-.116-.544-.574-1.132-.632-1.64-.113-.983.36-1.797 1.185-1.9-.096.188-.329.174-.474.287-.258.2-.408.574-.448.989.373-.762 1.063-1.391 2.29-1.145l-.289-1.145c-.287-.09-.559-.325-.895-.365-.226-.026-.45.107-.658 0-.03-.107.055-.1.053-.182.725-.16 1.312.193 1.816.417.055-.514.216-1.049.763-.99.025-.582.3-1.028.975-1.04-.031-.225-.349-.032-.526-.13-.033-.278-.14-.54-.449-.468m11.49.266c.112-.07.433-.27.144-.319-.015.1-.326.245-.144.319zm-.642.202c.108-.197.32-.291.369-.547-.204.086-.406.31-.369.547zm-8.978-.515c.064.166.26.174.368.287.005-.133-.08-.157-.079-.287a.341.341 0 0 0-.29 0zm11.19.09c.12.113.407.184.579.145.014-.346-.47-.409-.58-.146zm-11.44.119c.141-.016.173-.128.277-.177-.107-.022-.098-.148-.237-.142-.012.108-.148.212-.04.319zm5.492-.198c-.075-.024-.24-.329-.319-.08.134.05.24.418.319.08zm-3.83.146c-.117-.097.266-.323-.247-.319-.05.037-.126.292.248.319zm-3.518-.239c.159-.05.284.161.394.047 0-.319-.381-.416-.394-.047zm14.77.024c.081.048.284-.106.316.078-.21.107-.533.205-.447.521.39-.122 1.282.117.948-.547.015-.114.223-.04.21-.182-.184-.356-.972-.328-1.027.13zm-2.975-.098c.228-.034.248-.19.318-.318-.282.003-.257.186-.318.318zm-3.21-.056c.218-.015.332-.093.313-.25-.1-.014-.094-.09-.262-.063-.092.06-.037.207-.051.313zm-6.642-.027c-.128-.074-.092-.273-.297-.287-.108.22.229.391.297.287zm-3.997-.625c-.03.071-.159.136-.105.208.098-.02.169-.037.21.052-.314.253-.227.875.158.989.077-.41.35-.626.87-.599-.178-.415-.46-.726-1.133-.65m13.404.312c.145-.066.184-.396-.209-.417.048.147-.135.381.209.417zm-9.27 0c.01.088-.111.047-.106.13.043.189.24.07.342.182.037-.05.015-.159.132-.13.235.11.065.745.5.573.057-.121-.057-.218-.026-.39-.103.02-.025.217-.158.207-.151-.137-.05-.522-.237-.624-.024.045-.082.057-.158.052-.136-.057-.11-.273-.237-.338-.028.059-.165.01-.237.026-.115-.06-.019-.329-.132-.39-.194.343.205.494.316.702m.087-.448c.103-.005.235.024.287-.043.035-.445-.439-.285-.287.043zm9.895-.203c.2-.119.227-.28.137-.416-.111.107-.456.309-.137.416zm-9.508-.182c.033.097.046.209.14.26.049-.13.303-.345.103-.494-.04.108-.053.237-.243.234zm.036-.15c.078-.068.078-.25 0-.318h-.173c-.176.116-.068.309.173.318zm-.522-.422c-.116.082-.278.122-.25.338.037.023.21.004.278-.026.026-.05.08-.306-.028-.312m9.833-.313c-.074-.037-.203.094-.29.13 0 .164-.028.302-.183.313-.038.192.034.289.026.468.083.013.06-.08.157-.052.16.133-.14.365-.026.442.294-.33.105-.91.316-1.3zm-9.452.215c.166-.052.316-.12.318-.319-.227-.002-.26.169-.318.319zm6.136-.24a.433.433 0 0 0 .3-.339c-.054 0-.035-.07-.11-.052-.039.13-.274.312-.19.39zm-3.556-.417c-.001.204.073.432.29.338-.07-.154-.054-.267.079-.338-.09-.061-.304-.132-.369 0zm7.162-.044a.544.544 0 0 0 .315.17c.038-.256-.232-.476-.315-.17zm-.658-.346c-.019.113.045.146.026.26-.118.03-.255.043-.316.13-.08.253-.132.58.132.677.16-.19-.043-.456.079-.65.123-.042.15.082.21.025-.025-.184.167-.341.053-.52-.037.05-.136.038-.184.078zm-9.373.312c.14.047.167.16.306.208.058-.312-.15-.465-.262-.676-.14.134.093.331-.044.468zm-.606-.494c-.02.047.05.23.105.29.097.01.146-.028.21-.052a.658.658 0 0 0-.026-.264 1.193 1.193 0 0 0-.289.026m7.899-.078c.172.125.379-.046.342-.287a.277.277 0 0 0-.342.287zm-1.58-.308c.031.2.158.282.342.293.17-.29-.092-.366-.342-.293zm-3.777.213c-.302-.688-.532.365 0 0zm7.146.38c.01-.102.06-.281-.03-.39.049-.053.163-.05.152-.156-.307-.422-.47.607-.122.547zm-1.316-.917c.112.05.152.215.319.173-.01-.238-.296-.467-.319-.173zm2.014.163c0-.094-.056-.354-.295-.364-.112.172.212.244.295.364zm-8.49-.173c.15.14.295 0 .394-.184-.096-.18-.351-.015-.395.184zm6.582-.182c.098.005.268.282.318 0-.047-.193-.285-.313-.318 0zm1.053-.321c-.353.206-.722.396-.895.78-.102.02-.135.11-.21.156v.235c.112.123.349.261.579.182-.103-.038-.194-.087-.237-.182.174-.029.01-.232.131-.313.117-.002.163.082.263.027.008-.142-.036-.174 0-.287.13-.054.254-.113.448-.104.009-.078.015-.158.079-.182.08-.001.102.055.158.078.016-.07.11-.065.105-.156-.174-.045-.236-.2-.42-.234m-8.347.078c-.082-.37-.668-.168-.737.078.158.23-.049.555 0 .832.219-.052.013-.524.263-.546.16.173-.047.344 0 .624.15-.009.52-.079.474.26.088-.009.112.046.158.079.11.005.081-.128.21-.104.1.03.12.142.106.286.253-.018.396-.146.368-.442-.16-.094-.32-.206-.237-.469-.15-.19-.396-.285-.447-.572-.063 0-.078-.045-.158-.026zm.368.007c.108.148.22-.068.319-.107.002-.092-.022-.138-.058-.16-.097.17-.233-.048-.26.267m5.87-.297c-.166.102-.202-.043-.368-.049.015.295.389.516.369.049zm-3.844.264c.084-.242.317.123.343-.205-.155-.128-.317-.24-.343.205zm3.897-2.038c.187.022.294-.042.474-.027-.012-.295-.644-.472-.474.027zm-4.238.034c.111.119.233.047.368 0 .01-.123-.171-.057-.185-.156.05-.09.216-.065.237-.182-.224-.07-.41.11-.42.338m3.296-1.657c.125.01.246.01.307-.066.022-.335-.386-.348-.307.066zm.205-.087a2.24 2.24 0 0 1-.368.052c-.647.53-.545 1.794-.658 2.785.226-.02.24-.278.394-.469a3.57 3.57 0 0 1 .527-.52c.158-.122.37-.17.5-.286.187-.165.27-.547.632-.365.143.072.547.483.579.625-.133.117-.437.111-.684.078-.203-.027-.365-.2-.527-.208-.198-.01-.545.267-.684.416-.13.14-.28.405-.395.65-.189.402-.5.713-.263 1.146.19-.024.218-.29.42-.443.265-.198 1.148-.518 1.344-.208.085.136.07.456-.027.573-.432.028-.606-.199-.763-.443-.486.075-.632.486-.87.807.317.029.66-.057.922.13.052.178.102.485.053.677-.485.002-.783-.18-.843-.599-.515.09-.161.894-.184 1.38-.038.799-.101 1.752 0 2.497.18-.668.54-1.503.763-2.133.068-.19.007-.476.132-.625.182-.217.556-.234.87-.208-.018.304-.106.599-.37.729-.176.087-.347.036-.473.156-.067.063-.165.292-.21.416-.232.62-.41 1.306-.553 2.056.192-.2.6-.412.632-.859.11-.255.522-.46.842-.338-.092.243-.077.435-.237.572-.15.13-.372.07-.553.156-.156.075-.265.306-.368.443-.12.157-.312.297-.29.52.432.206.836.44 1.158.755.47-.37.856-.82 1.106-1.405.349-.107.408-.5.632-.729.021-.116-.034-.156-.026-.26.247-.158.381-.67.185-.963.01-.111.144-.1.184-.182-.09-.31-.026-.599-.132-.859-.193-.475-.908-.588-1.475-.442-.074-.303.16-.518.316-.677.17-.007.286.062.369-.052.025-.163-.278-.003-.29-.13 0-.217.265-.172.237-.416.52-.215.779-.599 1.396-.235.111.066.236.192.395.287.248.148.348.173.473.39.071.122.23.236.264.417-.034.537.473.877.316 1.535-.014.1.067.107.079.182-.034.115-.1.196-.158.286.242.101-.093.367.131.468-.137.262-.14.499-.29.73.095.467-.152.927-.552 1.066.061.425-.424.488-.553.807.063.18.238.137.316.26.156.247.029.748-.158.859-.442.263-.957-.27-1.264-.365-.462-.141-.858.122-1.106.234.13.095.262.034.395.053.468.065.846.322 1.264.494.345.142.903.144 1.132-.156.038-.126-.151-.16-.079-.234.063-.19.357-.151.422-.339.016-.31-.101-.382-.211-.598.14-.243.663-.254.948-.13.233-.134.058-.535-.158-.547-.17.032-.258.145-.474.13-.077-.314.189-.48.395-.598.086-.233.08-.476.29-.65.508-.423 1.318.012.921.65.05.124.15.198.264.26.227-.365.189-.993.5-1.275.126-.014.157-.122.263-.156.58-.127 1.4.242.816.703.031.386-.194.52-.447.624-.01.237-.082.54-.08.703.09.093.344.024.422.13.07.166-.023.277-.026.442.453.083.315-.641.578-.832.231-.075.463.01.606.103.24.487-.007 1.076-.263 1.38.182.149.413.614.131.832-.661-.403-1.626-.302-2.106.209.293-.037.46-.236.922-.209.65.038 1.369.653 1.843 1.223.16.193.392.904.342 1.275-.063.475-.366.837-.658 1.146a.92.92 0 0 1-.158.442c-.242-.047-.241-.334-.343-.52-.245.099-.318.409-.236.65.073.216.343.292.421.443.038.184-.172.124-.21.234.046.467.71 1.022 1.105.572.005-.17-.148-.183-.131-.364.257-.253.756-.176 1.027 0 .623-.353 1.578.14 1.527.728-.036.409-.664.57-1.027.651-.067-.046-.035-.191-.132-.208-.094.011-.144.065-.184.13.138.115.324.183.447.312.134.164.374.8.027.807-.13.003-.154-.138-.237-.234-.297-.116-.453-.277-.764-.339-.232-.046-.44.06-.684.053-.296-.01-.765-.154-.948-.313-.235-.204-.214-.585-.553-.728-.184.204-.085.572-.132.884-.108.716.128 1.624.79 1.796.003.159-.166.148-.21.26.158.331.116.841.184 1.197-.035.633-.767 1.004-1.317.65-.226-.144-.31-.533-.105-.806.238.09.69.308.737-.026.03-.204-.252-.395-.395-.52-.223.074-.254.338-.579.312-.213-.441.007-1.007-.316-1.301-.379.589-.368 1.492-.052 2.16-.101.09-.282.103-.474.104-.241.302-.082.826.079 1.066-.109.072-.352.102-.5.053-.114.12-.23.368-.185.52.055.188.331.167.448.286.492.642.094 1.67-.606 1.822-.065-.068.026-.128 0-.234-.33.112-.714.407-1.132.312a.955.955 0 0 1-.421-.26c.172-.244.398-.49.448-.859.072-.544-.047-1.164-.29-1.561-.94 2.235-2.476 3.996-5.477 4.111-1.556-.248-2.631-.973-3.528-1.873-.309-.437-.677-.837-.921-1.353-.267-.565-.35-1.272-.606-1.848-.19.163-.256.462-.394.729-.175.332-.479.643-.474 1.092.005.59.58.773.816 1.224-.19.313-.994.325-1.396.182-1.144.461-1.61-1.022-1.053-1.796-.107-.21-.332-.56-.08-.755.57.294 1.164-.076 1.423-.468-.011-.068-.079-.078-.08-.156-.165.42-.843.845-1.263.468.01-.227.295-.3.395-.494.102-.198.116-.437.053-.703-.273.034-.54.295-.817.156.157-.33.374-.892.29-1.43-.038-.246-.218-.437-.29-.625-.46-.101-.858-.262-1.053-.625-.174.103-.172.31-.158.442.052.493.742.816.764 1.458.005.175-.062.34.105.468-.232.405-.74.057-1.001-.104-.251.164-.04.56.132.598.386.088.502-.346.869-.208.443.167.174.812-.105.989-.22.14-.703.215-1.028.183A1.399 1.399 0 0 1 9.33 28.9c.076-.236-.051-.391-.106-.573-.246.032-.47.033-.632-.078.066-.36.251-.663.29-1.04.073-.716-.207-1.51.342-2.004.206-.126.572-.094.658-.339-.137-.166-.485.032-.658.078-.286-.07-.438-.373-.79-.442-.442-.087-.913.13-1.29.104.053-.46.4-.629.711-.833-.285-.497-.835.32-1.159-.13-.13-.87.742-1.261 1.554-1.04.184-.107.313-.4.632-.287.016.356.116.718.473.729.277.008.553-.271.606-.573-.286-.04-.623-.064-.606-.286.01-.123.126-.084.237-.182.23-.202.454-.713.106-1.04-.27.189-.669.483-1.08.363.116-.363.395-.666.369-1.145-.014-.24-.1-.414-.105-.624-.024-.847.54-1.103 1.105-1.535-.152-.372.13-.637.316-.833-.229-.355-.346-.93-.184-1.301.062-.143.367-.309.58-.209.324.154-.043.77.473.781.133-.06-.078-.411.079-.494.033-.106.242-.04.29-.13.057-.204.097-.425.13-.651h-.262c-.217-.118-.339-.364-.448-.676-.076-.218-.232-.275-.184-.573.053-.327.346-.53.737-.468.767.119 1.144.969 1.211 1.69.252-.02.494-.108.474-.39-.012-.166-.232-.263-.236-.39-.007-.216.304-.357.5-.338.337.033.536.42.578.729.403.036.737.14.685.624-.395.012-.999.117-1.08.573-.046.262.119.498.316.65.185.018.29-.044.474-.026-.032-.558.713-.931 1.159-.468-.02.155-.069.28-.185.338-.098-.033-.325-.048-.421 0 .217.443.825.062 1.027-.13-.075-.186-.33-.193-.29-.494-.378-.18-.546-.57-.895-.781.026-.225-.124-.277-.237-.364-.005-.374-.167-.695-.184-1.041-.015-.323.15-.661-.079-.911-.021-.143.118-.127.105-.26-.004-.126-.137-.125-.157-.234.175-.33-.005-.683.026-1.015.01-.114.16-.599.237-.73.102-.173.317-.293.368-.494.49-.035.757-.292 1.106-.468.388-.036.524.175.843.208.144.32.597.465.579.86-.115.077-.32-.126-.395.051.271.14.684.14.632.599-.19.068-.324-.038-.474 0-.272.067-.234.456-.5.52.003.384-.414.664-.29 1.171-.006.133-.182.098-.184.234.099.275.059.572-.184.703-.057.135.043.154.026.312.158-.165.29-.355.343-.624.083.074.043.269.052.416.108.112.252.262.21.443.083.16.29.198.29.442.155.142.35.245.369.52.16-.014.228.189.395.286.04.024.128.027.184.053.294.132.399.413.605.026.376-.029.619-.187.87-.339-.147-.38-.152-.736-.448-.963-.112-.085-.295-.071-.395-.182-.074-.082-.066-.207-.106-.312-.052-.142-.196-.287-.131-.442.389.063.722.08.79.39.024.11-.046.233-.027.364.028.19.2.387.29.573.105.215.13.443.29.546.155-.1.05-.35.052-.572.002-.265-.085-.642-.158-.963a3.35 3.35 0 0 0-.79-1.484c-.566.057-.62-.53-.736-.832.218.027.65.025.79.234.075.114.038.335.078.469.091.305.37.573.527.91.172.371.331.748.394 1.223.033.242.016.491.106.755.136-.056.061-.225.078-.364.073-.568.113-.943.106-1.614-.006-.603.136-1.455.026-1.873-.05-.191-.247-.348-.447-.313-.076.36-.528.346-.843.469-.016-.236.092-.566.237-.729.346-.056.642.117 1 .13-.082-.342-.4-.735-.71-.858-.16-.065-.253.018-.395.052-.243.058-.517.057-.764.156a.56.56 0 0 1 .106-.52c.5-.527 1.447.467 1.817.728.215-.572-.223-1.404-.606-1.848-.14-.163-.543-.466-.763-.442-.153.016-.272.21-.422.234-.247.04-.44-.063-.684 0 .132-.291.309-.906.816-.755.2.374.772.466 1.08.755.274.258.365.616.684.91.132-.917-.09-2.007-.42-2.758-.143-.041-.286-.082-.343-.208.128-.479.456.02.553.26.188.467.224 1.21.394 1.536.164-.836.353-1.647.923-2.082.181.022.306.188.183.364" fill="#fff" style="stroke-width:1.4"/></svg>