<svg width="40" height="40" fill="none" xmlns="http://www.w3.org/2000/svg"><mask id="a" mask-type="alpha" maskUnits="userSpaceOnUse" x="10" y="9" width="20" height="21"><path fill-rule="evenodd" clip-rule="evenodd" d="M10 10h19.28v19.28H10V10Z" fill="#fff"/></mask><g mask="url(#a)" transform="matrix(1.4 0 0 1.4 -7.856 -7.856)"><path fill-rule="evenodd" clip-rule="evenodd" d="M27.816 16.59c-.175.383-.373.755-.555 1.134-.054.104-.106.209-.157.314-.051.105-.103.209-.153.314l-.06.112-.057.12-.04.082-.058.112c-.03.068-.064.136-.096.204-.639 1.293-1.291 2.58-1.929 3.874l-.038.078c-.028.052-.053.105-.079.157a7.702 7.702 0 0 0-.077.158c-.025.052-.052.103-.077.156a2.843 2.843 0 0 1-.095.188c-.063.132-.13.262-.194.393-.478.978-.968 1.95-1.456 2.924-.068.167-.282.255-.438.152-.161-.113-.2-.321-.283-.488a26.532 26.532 0 0 1-.172-.385c-.58-1.31-1.169-2.617-1.751-3.927-.051-.118-.106-.234-.156-.353-.052-.118-.108-.235-.151-.357-.034-.048-.095-.082-.15-.043-.083.142-.137.299-.205.448-.588 1.32-1.182 2.638-1.766 3.96l-.138.304c-.056.134-.118.265-.174.399-.056.117-.097.24-.168.35a.305.305 0 0 1-.354.117c-.095-.031-.151-.12-.196-.203-.485-.977-.978-1.951-1.459-2.93l-.076-.156c-.051-.106-.103-.21-.156-.314l-.039-.08c-.024-.052-.051-.103-.078-.155a5.669 5.669 0 0 0-.078-.156 4.904 4.904 0 0 0-.058-.127c-.033-.062-.064-.125-.096-.188-.039-.078-.077-.157-.118-.235-.636-1.296-1.293-2.582-1.927-3.88l-.039-.08c-.044-.092-.091-.184-.137-.277-.047-.09-.09-.18-.137-.27l-.055-.123-.058-.11c-.197-.398-.393-.796-.592-1.193-.076.12-.107.26-.154.394a8.668 8.668 0 0 0 .572 6.633l.016.043c.101.174.195.353.302.524a8.878 8.878 0 0 0 4.06 3.503c.066.027.131.054.197.079l.145.059c.056.018.112.039.168.058l.117.043.118.037c.101.032.203.058.304.09.155.042.313.08.47.117.065.012.13.024.195.039.065.012.132.025.197.04.315.039.629.097.948.099.323.033.652.038.976.002a7.23 7.23 0 0 0 .985-.103c.065-.016.131-.027.198-.038.064-.016.13-.027.196-.04.156-.037.313-.074.469-.116.101-.032.202-.06.303-.091l.119-.042.082-.022c.116-.044.234-.086.349-.131l.196-.081a8.789 8.789 0 0 0 2.601-1.711 8.826 8.826 0 0 0 2.323-3.652c.611-1.856.586-3.93-.126-5.753zm-12.493-4.536a9.238 9.238 0 0 0-2.996 2.852c.021.095.066.18.111.266.059.115.114.232.17.348.065.13.129.26.196.39.683 1.389 1.382 2.77 2.062 4.159l.057.11c.078.157.156.315.232.473.536 1.08 1.075 2.159 1.611 3.239.022.066.079.095.146.094.061-.111.115-.227.164-.343.043-.108.092-.214.138-.321.045-.102.088-.205.133-.306.046-.108.095-.214.138-.322.046-.101.09-.203.134-.305.342-.785.686-1.57 1.032-2.353.036-.085.122-.15.218-.137.523 0 1.046-.001 1.569 0 .103-.012.188.063.223.154.341.778.684 1.556 1.022 2.336.045.102.089.205.136.306.043.108.092.214.138.32.045.102.087.206.132.308.101.217.18.445.299.654l.096.003c.434-.834.842-1.681 1.264-2.521.939-1.904 1.887-3.803 2.83-5.705.074-.138.135-.283.21-.421.066-.134.121-.276.211-.397-.079-.097-.146-.202-.216-.304a9.15 9.15 0 0 0-2.799-2.576.405.405 0 0 0-.133-.054 771.052 771.052 0 0 0-1.45 3.216c-.062.144-.13.285-.191.429-.045.102-.092.204-.14.306-.057.134-.118.266-.174.4a626.75 626.75 0 0 1-1.172 2.602c-.036.079-.065.164-.118.233-.062.068-.164.065-.248.069-.485-.002-.97 0-1.454-.002-.102.003-.217-.032-.252-.14a558.962 558.962 0 0 1-1.244-2.761c-.057-.135-.119-.266-.178-.4l-.171-.385c-.529-1.194-1.077-2.381-1.604-3.576a1.32 1.32 0 0 0-.132.062zm3.459-1.121c-.103.024-.207.03-.311.04-.156.03-.314.048-.468.08-.064.017-.129.029-.194.042-.052.014-.105.025-.159.037-.154.04-.311.077-.462.13-.021.007-.065.017-.087.022l-.117.044-.119.035-.061.04c.035.069.067.138.097.208l.138.306c.057.133.118.265.174.4.053.116.107.233.156.352.101.218.194.44.295.659.488 1.102.983 2.199 1.472 3.3.052.118.107.234.157.352l.157.352c.057.122.093.26.203.349.098-.081.139-.203.184-.317.059-.127.115-.256.172-.384.531-1.192 1.067-2.382 1.596-3.574l.157-.352c.051-.118.105-.235.156-.353.052-.117.105-.234.156-.352l.17-.385c.052-.118.106-.235.156-.353.033-.072.065-.144.102-.214-.061-.023-.12-.05-.18-.072l-.119-.04a2.769 2.769 0 0 1-.087-.022c-.151-.054-.308-.088-.462-.132a5.35 5.35 0 0 1-.35-.08c-.157-.025-.315-.046-.47-.078-.105-.01-.211-.016-.314-.04-.195-.018-.393-.008-.587-.041-.385-.02-.768.026-1.151.04zm.571-.933h.7a9.824 9.824 0 0 1 4.143 1.13 9.67 9.67 0 0 1 4.66 5.613 9.28 9.28 0 0 1 .391 1.959c.057.52.023 1.046.027 1.569a9.501 9.501 0 0 1-1.268 4.195 9.686 9.686 0 0 1-2.9 3.135 9.747 9.747 0 0 1-5.06 1.68h-.796a11.703 11.703 0 0 1-1.211-.132 9.597 9.597 0 0 1-5.305-2.785c-1.642-1.68-2.647-3.98-2.712-6.331-.039-.286-.019-.575.003-.862-.006-.264.046-.524.055-.787l.019-.024c.31-2.605 1.793-5.027 3.918-6.552A9.695 9.695 0 0 1 19.353 10z" fill="#fff"/></g></svg>