<svg width="40" height="40" fill="none" xmlns="http://www.w3.org/2000/svg"><g clip-path="url(#a)" transform="matrix(1.4 0 0 1.4 -8 -8)"><mask id="b" mask-type="alpha" maskUnits="userSpaceOnUse" x="10" y="10" width="21" height="20"><path fill="#fff" d="M10 10.006h20v19.988H10z"/></mask><g mask="url(#b)"><path fill-rule="evenodd" clip-rule="evenodd" d="M13.788 14.425c.316.236.475.633.237.949-.316.319-.712.319-1.029.078-.395-.237-.474-.632-.237-1.027.237-.32.632-.32 1.029 0zm.158-.237c-.317-.237-.95-.476-1.345.158-.475.554-.079 1.028.238 1.345.316.235.87.395 1.344-.158.396-.555.08-1.108-.237-1.345zm6.57-1.898-.95-1.582h-.32v1.899h.239v-1.505l.95 1.505h.316v-1.9h-.237v1.583zm-4.75-.316.633-.238.633 1.505.238-.079-.632-1.501.632-.32-.157-.16-1.424.554.078.238zm0 1.581-1.663-.633-.237.158 1.186 1.502.157-.157-.95-1.186 1.741.634.238-.16-1.186-1.58-.158.158.87 1.265zm8.706.158-.08-.079.08-1.739-.319-.159-.95 1.582.159.159.87-1.345v1.82l.239.157.95-1.583-.16-.157-.789 1.343zm-1.663-.869-1.107-.319.157-.55 1.03.236.078-.158-1.028-.317.158-.553 1.108.319v-.238l-1.266-.398-.554 1.82 1.345.395.08-.238zm4.036 3.164-.395.474.158.237 1.186-1.66-.159-.238-1.978.475.158.238.555-.16.474.633zm-.237-.712.871-.158-.554.632zm-8.468-4.35h-.237l.395 1.897.238-.078-.396-1.82zm7.676 2.134.475.396-1.186 1.185.156.239 1.188-1.186.475.395.159-.157-1.108-1.028-.16.158zm2.929 3.717-.08-.237-1.82.554.32 1.186.237-.078-.317-.95 1.662-.475zm-16.62-.79c-.316-.081-.632.079-.87.474-.158.554.08 1.028.634 1.186.633.317 1.107 0 1.266-.396 0-.08.236-.632-.396-1.027l-.079.237c.316.237.316.554.237.71-.158.397-.554.476-.95.239-.474-.159-.633-.553-.474-.87.08-.158.237-.395.554-.316l.079-.237zm14.088 9.648c-.397-.317-.475-.711-.238-1.028.237-.317.633-.317 1.028-.08.32.32.476.712.238 1.028-.316.32-.712.32-1.028.08zm-.16.159c.32.236.872.473 1.347-.16.395-.553.08-1.027-.238-1.265-.32-.316-.949-.474-1.346.08-.474.553-.078 1.106.237 1.345zm-6.566 1.975.95 1.505h.316v-1.9h-.238v1.502h-.078l-.95-1.502h-.24v1.899h.24v-1.505zm4.668.237-.554.32-.633-1.583-.238.079.633 1.58-.633.238.08.159 1.423-.555zm0-1.5 1.661.634.317-.158-1.185-1.582-.159.157.87 1.263-1.66-.632-.238.159 1.109 1.504.238-.159-.951-1.185zm-8.626-.16v1.82l.237.158 1.027-1.662-.237-.078-.791 1.266v-1.82l-.237-.157-1.03 1.66.238.079.792-1.265zm1.661.794 1.03.316-.158.634-.95-.32-.08.237.95.32-.158.552-1.03-.318-.08.157 1.346.397.475-1.82-1.346-.395v.24zm-4.036-3.164.32-.394-.081-.238-1.265 1.582.158.237 1.979-.396-.162-.24-.554.08-.396-.633zm.159.712-.87.238.553-.713zm8.546 4.429.238-.079-.395-1.82h-.237l.394 1.899zM14.103 27l-.395-.474 1.185-1.188-.238-.158-1.185 1.186-.397-.474-.156.158 1.03 1.11zm-2.849-3.797.079.317 1.822-.556-.396-1.185-.158.08.238.87-1.583.474zm16.54.79c.319.08.713 0 .87-.473.238-.475 0-.95-.553-1.186-.713-.317-1.11 0-1.267.395-.079.159-.237.712.396 1.028l.079-.158c-.395-.316-.32-.554-.32-.711.239-.477.556-.477 1.03-.32a.758.758 0 0 1 .476.872c-.08.158-.238.395-.634.315l-.08.238zm-14.867-3.805v-.296a7.032 7.032 0 0 1 14.063.148 6.873 6.873 0 0 1-2.052 4.918 7.123 7.123 0 0 1-9.962 0 6.877 6.877 0 0 1-2.052-4.77zm2.27-4.908a6.709 6.709 0 0 0-1.973 4.76 6.587 6.587 0 0 0 1.961 4.71 6.834 6.834 0 0 0 9.55-.001 6.588 6.588 0 0 0 1.96-4.71 6.736 6.736 0 0 0-11.497-4.759zm-3.863 4.76h.475v.474h-.475Zm12.504 4.904h-.912l.04-.08c-.316 0-.238-.158-.238-.158.079-.158.555-.08.555-.08v-.237s.077-.158.158-.316c.238-.395.558-.79.792-.948v-.237a1.471 1.471 0 0 0-.316-.238c-.079-.158-.238-.395-.316-.633 0-.08-.157-.316.158-.792.158-.158.396-.395.158-1.107l.397-.156s.158-.08.237.078c.079.078.316.078.158.79-.237.633-.32.395-.32 1.029 0 .553.793 1.186 1.347.87 0 0-.237-.16-.237-.395-.08-.713.553-2.216.395-2.69-.238-.396-.474-.553-.712-.476-.317 0-.711.238-.87.397a.684.684 0 0 1-.555 0c-.08 0-.474-.555-.87-.633-.553-.159-1.424 0-1.424 0l-.713-.08-.474-.079c-.158-.157-.158-.474-.158-.474s.236 0 .317-.078c0-.238-.24-.238-.159-.397 0-.078.078.079.237-.158.079-.079-.078-.158-.078-.237 0-.159.236 0 .236-.238 0-.315-.158-.237-.158-.315 0-.16.237-.08.237-.238 0-.237-.158-.158-.237-.316 0-.157.316-.079.237-.316-.078-.237-.237 0-.315-.158-.079-.159.236-.08.157-.316-.08-.236-.316-.08-.397-.16 0-.158.24-.158.081-.394 0-.08-.08-.08-.237-.08l-.634-.791v.632l-.87.238-.079.08-1.03.316h-.158l-.08.078v.159l-.075.081-.08.078v.157l.158.08.554-.156.158.078-.08.16-.474.08-.079.078-.08.079.08.158.158.08.159-.08.158-.079.079-.08.553-.078.08.079.317.079-.08.475s0 .158-.236.394c-.16.159-.396.32-.555.475-.158.237-.316.316-.475.554-.158.158-.396.87-.396.87l-.474-.317-.159-.158-.396-.079c-.237.158-.87.316-1.345.395-.16.207-.347.393-.555.553v-.08l-.158.95.712-.238.08-.236s-.316-.08-.239-.24c.159-.236.397.08.397.08l.158-.08.079-.156.633-.397.474.16.713.71-.634-.236-.08-.08-.63.159c-.158.394-.713 1.028-.713 1.028-.08.474 0 .315-.158.79l.158.792.634-.555-.078-.158s-.24-.079-.24-.237c0-.158.32 0 .32 0v-.08s-.08-.237 0-.316c0-.158.474-.79.474-.79h.316l1.583.869.159-.08.078-.157 1.108.396s.239 0 .396.078c.159 0 1.505-.156 1.505-.156l-.161.473c.004.11.031.218.08.316 0 .16.316.474.316.554 0 0 .474.395.474.633.08.237-.157.395-.315.474-.159.159-.634.317-.634.317a.967.967 0 0 1-.395.395l-.178.475h-4.255l.319.394h7.2l.237-.394zm-1.79 0H21.2l.026-.08c-.316 0-.237-.237-.237-.237.08-.158.555-.08.555-.08l.078-.078s-.078-.159.08-.239c.157-.157.95-.789.95-.789l.078-.08v-.078c0-.08 0-.08-.078-.158-.158-.16-.478-.633-.478-.95 0-.319.08-.238.16-.396 0 .317.237.632.395.79.159.08.632.32.713.556 0 .236-.08.236-.239.474-.079.158-.552.631-.71.711l-.32.317-.127.319zm5.984-4.904h.476v.474h-.476Zm-18.03.148v-.295a10.042 10.042 0 0 1 2.91-6.957 9.881 9.881 0 0 1 7.049-2.93c5.541 0 10.035 4.49 10.04 10.032 0 2.734-1.128 5.226-2.952 7.033a10.046 10.046 0 0 1-7.088 2.922A9.955 9.955 0 0 1 10 20.188zm3.12-7.045a9.756 9.756 0 0 0-2.828 6.897 9.659 9.659 0 0 0 9.667 9.658 9.752 9.752 0 0 0 6.882-2.834c1.769-1.754 2.863-4.171 2.863-6.824-.004-5.38-4.366-9.739-9.746-9.738a9.589 9.589 0 0 0-6.84 2.841z" fill="#fdbb30"/></g></g><defs><clipPath id="a"><path fill="#fff" d="M0 0h40v40H0z"/></clipPath></defs></svg>