<svg width="40" height="40" fill="none" xmlns="http://www.w3.org/2000/svg"><g clip-path="url(#a)" transform="matrix(1.4 0 0 1.4 -8.04 -8)"><mask id="b" mask-type="alpha" maskUnits="userSpaceOnUse" x="10" y="17" width="21" height="6"><path fill="#fff" d="M10.1 17.44h20v5.119h-20z"/></mask><g mask="url(#b)" fill-rule="evenodd" clip-rule="evenodd"><path d="M29.934 19.515c-.041-.053-.14-.04-.276.037-.204.115-1.187.591-1.895.887-.813.344-1.645.645-2.489.905-.76.23-1.854.32-2.472.045-.514-.224-1.125-.89-1.708-1.538l-.155-.17-.149-.168c-.512-.568-1.467-1.626-2.026-1.806-.772-.246-1.484-.133-2.938.47a23.169 23.169 0 0 0-3.105 1.632c-1.21.747-2.3 1.561-2.419 1.718-.084.119-.057.185-.038.21.051.069.18.06.348-.026l.559-.288c.734-.38 1.647-.853 2.043-1.022 1.461-.622 2.955-1.239 3.993-1.584 1.791-.591 2.266-.092 2.993.66.104.107.212.22.332.336.143.14.304.333.493.557.67.807 1.587 1.913 2.904 2.018.212.017.402.027.585.027.636 0 1.174-.113 2.093-.404 1.161-.367 1.815-.797 2.101-1.02.439-.36.832-.772 1.174-1.225.073-.118.092-.203.052-.251z" fill="#a1c63c"/><path d="M12.986 19.67h.295v.36h.007c.046-.112.18-.395.486-.395.245 0 .35.223.35.442v1.105h-.295v-.946c0-.19-.027-.362-.175-.362-.295 0-.373.493-.373.682v.626h-.294m-1.426 0h1.084v-.229h-.762v-.806h.698v-.208h-.698V19.2h.74v-.21h-1.062v2.19zm16.39-1.511h.296v.385h.005c.094-.204.197-.394.45-.42v.334c-.284.01-.455.115-.455.52v.69h-.296m-1.595-.753c0-.51.205-.788.613-.788.407 0 .615.278.615.788s-.208.788-.615.788c-.408 0-.613-.279-.613-.788zm.613.657c.261 0 .295-.38.295-.657 0-.276-.032-.658-.295-.658s-.296.382-.296.658c0 .277.037.656.296.656v.001zm-.842.11a.827.827 0 0 1-.204.023c-.277 0-.437-.091-.437-.384v-.996h-.222v-.166h.222v-.355l.296-.198v.549h.377v.165h-.377v.87c0 .22.02.33.209.33a.331.331 0 0 0 .137-.027m-2.332-1.334h.296v.359h.006c.046-.112.181-.395.487-.395.245 0 .35.223.35.442v1.105h-.296v-.946c0-.19-.026-.362-.174-.362-.296 0-.373.493-.373.682v.626h-.296m-1.594-.755c0-.51.204-.788.612-.788.408 0 .615.278.615.788s-.207.788-.615.788c-.408 0-.612-.279-.612-.788m.612.657c.262 0 .296-.38.296-.657 0-.276-.031-.658-.296-.658-.264 0-.295.382-.295.658 0 .277.036.656.295.656v.001zm-2.096-2.092h.321v.968h.006l.658-.968h.324l-.709 1 .788 1.19h-.382l-.68-1.063h-.005v1.063h-.321m-.404-.05a.899.899 0 0 1-.405.086c-.384 0-.69-.247-.69-.857 0-.419.155-.724.59-.724.438 0 .535.328.535.62h-.835c0 .295.122.793.539.793a.56.56 0 0 0 .265-.063m-.262-.878c0-.117-.037-.34-.257-.34-.218 0-.27.254-.276.34zm-1.512-.438h.296v1.51h-.296m-.016-2.19h.318v.319h-.318zm-.461 2.142c0 .425-.128.758-.685.758-.135 0-.27-.02-.398-.06v-.309c.092.06.255.184.445.184.308 0 .344-.234.344-.568v-.166h-.006a.37.37 0 0 1-.362.21c-.368 0-.52-.328-.52-.772 0-.429.12-.775.52-.775a.39.39 0 0 1 .362.283h.006v-.247h.295m-.584 1.327c.256 0 .28-.32.28-.572 0-.251-.035-.592-.28-.592-.246 0-.28.328-.28.572 0 .245.044.592.28.592zm-1.506-1.327h.296v.385h.006c.093-.204.197-.394.448-.42v.334c-.283.01-.454.115-.454.52v.69h-.296m-.388-.047a.897.897 0 0 1-.404.085c-.385 0-.69-.247-.69-.857 0-.419.154-.724.591-.724.437 0 .533.328.533.62h-.837c0 .295.123.793.54.793.092 0 .183-.02.265-.063m-.262-.876c0-.118-.038-.34-.256-.34-.22 0-.272.254-.277.34z" fill="#fff"/></g></g><defs><clipPath id="a"><path fill="#fff" d="M0 0h40v40H0z"/></clipPath></defs></svg>