<svg width="40" height="40" fill="none" xmlns="http://www.w3.org/2000/svg"><mask id="a" mask-type="alpha" maskUnits="userSpaceOnUse" x="10" y="14" width="20" height="12"><path fill="#fff" d="M10 14.759h20v10.482H10z"/></mask><g mask="url(#a)" transform="matrix(1.4 0 0 1.4 -8 -8)" fill-rule="evenodd" clip-rule="evenodd" fill="#009d3c"><path d="m30 18.37-1.172 1.013h-2.903v4.827a1.031 1.031 0 0 1-2.062 0v-4.827h-.294a1.031 1.031 0 1 1 0-2.063h.294v-1.604h.003a1.03 1.03 0 0 1 2.055 0h.004v1.604h2.903zM18.814 19.858v4.35a1.046 1.046 0 0 1-2.093 0v-4.045a.78.78 0 1 0-1.56 0v4.045a1.021 1.021 0 0 1-1.007 1.033 1.061 1.061 0 0 1-1.056-1.032v-4.157c0-.084-.003-.15-.003-.226 0-1.385 1.313-2.506 2.884-2.506s2.834 1.122 2.834 2.506zM11.031 20.083A1.03 1.03 0 0 0 10 21.115v3.095a1.031 1.031 0 0 0 2.063 0v-3.093c0-.57-.462-1.032-1.032-1.034M11.031 19.382a1.031 1.031 0 1 0 0-2.063 1.031 1.031 0 0 0 0 2.063M21.908 21.119v-.003a1.031 1.031 0 0 0-2.063 0v3.094a1.031 1.031 0 1 0 2.063 0zM20.877 19.382a1.031 1.031 0 1 0 0-2.062 1.031 1.031 0 0 0 0 2.062"/></g></svg>