<svg width="40" height="40" fill="none" xmlns="http://www.w3.org/2000/svg"><g clip-path="url(#a)" transform="matrix(1.4 0 0 1.4 -8 -8.033)"><path d="M10.806 20.689h.78c.174 0 .348 0 .521-.087.174-.087.26-.173.347-.26.087-.174.173-.26.173-.347.087-.174.087-.26.087-.434 0-.173-.086-.347-.086-.433a1.195 1.195 0 0 0-.26-.347c-.087-.087-.26-.174-.348-.174-.173-.087-.346-.087-.433-.087h-.78ZM10.112 18h1.561c.26 0 .52 0 .781.087.26.087.434.26.52.347.174.173.26.347.347.52.087.26.087.434.087.694v.347c0 .087-.087.26-.087.347-.086.087-.173.26-.26.347l-.26.26c-.173.087-.347.173-.52.173-.174.087-.347.087-.608.087h-1.56zm5.985 1.821c0-.086 0-.173-.087-.26 0 0-.087-.087-.173-.087 0-.086-.087-.086-.174-.173h-.52c-.087.087-.174.087-.26.173l-.174.174s0 .087-.087.173zm-1.475.434c0 .087.087.26.087.347l.174.173c.086.087.173.087.26.087.087.087.173.087.26.087h.173c.087-.087.174-.087.174-.087.087 0 .087-.086.173-.086 0 0 .087-.087.087-.174h.694c0 .173 0 .26-.173.347l-.26.26c-.174 0-.348.087-.434.087h-.434c-.26 0-.52 0-.694-.087-.173-.087-.347-.173-.434-.26-.173-.087-.173-.26-.26-.347 0-.173-.086-.347-.086-.52 0-.087.086-.26.086-.434.087-.173.087-.26.26-.347a.477.477 0 0 1 .434-.26c.174-.087.434-.174.694-.174.173 0 .347.087.52.087.174.087.26.087.434.174.174.173.26.26.347.433.087.174.087.347.087.607v.087zM18.005 18v3.21h-.607V18Zm.694 0h.694v.52h-.694Zm.694.954v2.255h-.694v-2.255zm1.214 1.128c0 .086 0 .173.087.26 0 .087.087.173.087.26.086 0 .173.087.26.087.086.087.173.087.26.087.173 0 .26 0 .347-.087.087 0 .173-.087.173-.087.087-.087.174-.173.174-.26v-.607c0-.087-.087-.087-.174-.174a.186.186 0 0 0-.173-.173c-.087 0-.173-.087-.347-.087-.087 0-.173.087-.26.087-.087 0-.174.086-.26.173 0 .087-.087.087-.087.174-.087.086-.087.26-.087.347zm2.082 1.04c0 .174 0 .347-.087.434-.087.174-.173.26-.26.347-.174.087-.26.174-.434.174-.173 0-.434.086-.607.086s-.347 0-.52-.086c-.174 0-.26-.087-.434-.087l-.26-.26c0-.087-.087-.174-.087-.347h.694c0 .086.087.173.173.26.087.087.26.087.434.087s.434-.087.52-.174c.174-.087.174-.26.174-.434v-.347a.187.187 0 0 1-.174.174c-.086.087-.086.173-.173.173s-.173.087-.26.087h-.26c-.174 0-.347 0-.52-.087-.174-.086-.261-.173-.434-.26-.087-.086-.174-.26-.174-.347-.087-.173-.087-.26-.087-.433 0-.174 0-.347.087-.52.087-.087.087-.261.26-.348.087-.086.26-.173.347-.26.174 0 .347-.087.52-.087.174 0 .434.087.521.174.173 0 .347.173.434.26v-.347h.693c0 .087-.086.087-.086.174v.433zm.694-1.56v-.608h.607v.434c.173-.174.26-.347.433-.347.174-.087.347-.174.52-.174.174 0 .261.087.348.087.173 0 .26.087.347.174l.26.26c.087.173.087.26.087.433v1.388h-.694v-1.474c0-.087-.087-.174-.174-.26 0 0-.086-.087-.173-.087h-.434c-.087.086-.173.086-.26.173-.087.087-.087.174-.174.26v1.388h-.693ZM26.592 18h.78v.52h-.78zm.78.954v2.255h-.693v-2.255zm1.648-.694v.694h.868v.434h-.868v1.04c0 .174.087.26.087.347.087 0 .174.087.347.087h.173c.087 0 .174 0 .174-.086v.433c-.087 0-.173.087-.26.087h-.26c-.174 0-.347 0-.434-.087-.087 0-.26-.087-.26-.087-.087-.086-.174-.173-.174-.26 0-.086-.087-.173-.087-.347v-1.127h-.607v-.434h.607v-.434z" fill="#fff"/></g><defs><clipPath id="a"><path fill="#fff" transform="translate(10 18)" d="M0 0h20v4.163H0z"/></clipPath></defs></svg>