<svg width="40" height="40" fill="none" xmlns="http://www.w3.org/2000/svg"><path fill-rule="evenodd" clip-rule="evenodd" d="M27.845 19.964a7.879 7.879 0 1 1-15.758 0 7.879 7.879 0 0 1 15.758 0z" fill="#fff" style="stroke-width:1.4"/><mask id="a" style="mask-type:alpha" maskUnits="userSpaceOnUse" x="10" y="9" width="20" height="21"><path fill-rule="evenodd" clip-rule="evenodd" d="M10 9.998h19.931V29.93h-19.93V9.998Z" fill="#fff"/></mask><g mask="url(#a)" transform="matrix(1.4 0 0 1.4 -7.986 -7.985)"><path fill-rule="evenodd" clip-rule="evenodd" d="M29.284 19.964a9.317 9.317 0 0 1-9.318 9.318 9.317 9.317 0 0 1-9.318-9.318 9.318 9.318 0 0 1 9.318-9.318 9.317 9.317 0 0 1 9.317 9.318zm-9.318-9.966C14.463 9.998 10 14.46 10 19.964c0 5.503 4.463 9.966 9.966 9.966 5.504 0 9.965-4.463 9.965-9.966 0-5.504-4.461-9.966-9.965-9.966z" fill="#fff"/></g><path fill-rule="evenodd" clip-rule="evenodd" d="M19.966 27.778c-4.308 0-7.814-3.505-7.814-7.814h-.454a8.268 8.268 0 0 0 8.268 8.268m0-16.536v.452c4.308 0 7.814 3.506 7.814 7.816h.454a8.268 8.268 0 0 0-8.268-8.268z" fill="#fff" style="stroke-width:1.4"/><path fill-rule="evenodd" clip-rule="evenodd" d="M26.647 14.076c.189.202.462.528.615.725l2.822-1.78a20.177 20.177 0 0 0-.533-.657l-1.787 1.174-.123.104.091-.132.79-1.564-.559-.554-1.577.784-.131.09.105-.12 1.183-1.775a16.584 16.584 0 0 0-.664-.533l-1.79 2.801c.226.173.526.427.716.601l1.688-.87.107-.078-.08.108zM20.24 10.526l.772-1.715.05-.152-.015.158.083 2.293c.269.026.549.062.825.108l-.126-3.395a17.848 17.848 0 0 0-1.151-.09l-.76 1.874-.029.138-.028-.138-.757-1.874c-.384.017-.767.048-1.152.09l-.126 3.395c.276-.046.556-.081.826-.108l.08-2.293-.013-.158.049.152.771 1.715zM11.804 13.567s.916-.962 1.214-1.27c.12-.122.196-.196.278-.237.106-.05.222-.061.324.007a.284.284 0 0 1 .124.3c-.031.137-.145.269-.237.368l-1.214 1.292zm-.943-.89a15.14 15.14 0 0 1 1.233-1.335.64.64 0 0 1 .252-.16c.158-.042.32.069.359.23.036.162-.066.316-.18.442-.257.287-1.198 1.266-1.198 1.266zm3.142.556c.446-.466.698-1.006.253-1.52-.242-.279-.65-.34-.987-.202l-.035.013.011-.03a.807.807 0 0 0-.281-.848.837.837 0 0 0-.623-.172c-.419.042-.741.326-1.617 1.298-.266.292-.65.754-.881 1.054l2.407 2.27c.8-.878 1.124-1.205 1.753-1.863z" fill="#fff" style="stroke-width:1.4"/><path fill-rule="evenodd" clip-rule="evenodd" d="M19.966 11.695v8.268h-8.268a8.264 8.264 0 0 1 8.268-8.268zM28.234 19.964c0 4.569-3.699 8.268-8.268 8.268v-8.268z" fill="#0066b1" style="stroke-width:1.4"/></svg>