<svg width="40" height="40" fill="none" xmlns="http://www.w3.org/2000/svg"><mask id="a" mask-type="alpha" maskUnits="userSpaceOnUse" x="10" y="13" width="12" height="12"><path fill-rule="evenodd" clip-rule="evenodd" d="M10 14h11.605v10.876H10V14Z" fill="#fff"/></mask><g mask="url(#a)" transform="matrix(1.4 0 0 1.4 -8 -8.157)"><path fill-rule="evenodd" clip-rule="evenodd" d="M17.213 14.952c1.683 0 3.214.649 4.358 1.71.02.022.05.004.024-.03a6.414 6.414 0 1 0-9.801 8.231c.02.023.054.014.024-.026a6.386 6.386 0 0 1-1.018-3.47 6.412 6.412 0 0 1 6.415-6.415z" fill="#fff"/></g><path fill-rule="evenodd" clip-rule="evenodd" d="M16.79 29.167a7.46 7.46 0 0 1-1.687-14.686c.037-.008.046-.05-.019-.046a7.45 7.45 0 0 0-5.817 3.37 7.461 7.461 0 0 0 2.172 10.323 7.436 7.436 0 0 0 4.978 1.157c.129-.021.258-.044.384-.069.04-.007.058-.052-.012-.049z" fill="#fff" style="stroke-width:1.4"/><path fill-rule="evenodd" clip-rule="evenodd" d="M22.956 23.862a6.381 6.381 0 0 1-2.143 2.254 6.366 6.366 0 0 1-9.61-6.788c.014-.05-.023-.067-.05-.007a6.356 6.356 0 0 0 .38 6.12 6.36 6.36 0 0 0 9.566 1.39 6.342 6.342 0 0 0 1.903-2.953c.015-.046-.02-.066-.046-.016z" fill="#fff" style="stroke-width:1.4"/><path fill-rule="evenodd" clip-rule="evenodd" d="m21.06 22.583-.163-3.73-2.004 3.73h-.887l-.955-3.85-1.207 3.85H14.35l1.9-5.83H17.8l.913 3.702 1.977-3.703h1.51l.274 5.831zM23.783 22.583l.681-4.642h-1.859l.18-1.189h5.192l-.17 1.189h-1.868l-.69 4.642zM29.81 16.753l-.443 3.048c-.077.533-.171 1.552 1.223 1.552.665 0 1.295-.284 1.441-1.247l.503-3.35h1.465l-.51 3.564c-.23 1.585-1.347 2.342-2.89 2.342-2.253 0-2.774-1.394-2.774-2.144 0-.12.017-.482.077-.87l.434-2.892h1.473z" fill="#fff" style="stroke-width:1.4"/></svg>