<svg width="40" height="40" fill="none" xmlns="http://www.w3.org/2000/svg"><g clip-path="url(#a)" transform="matrix(1.4 0 0 1.4 -8.04 -8)" fill-rule="evenodd" clip-rule="evenodd"><path d="m29.24 23.801-.375-.37-.37.37z" fill="#0a5b90"/><path d="m30.054 22.875-.317-.317-.872.873.374.37H30.054v-.131Z" fill="#004483"/><path d="m30 22.295-.263.263.317.317V22.295z" fill="#08558d"/><path d="m27.498 23.801-.37-.37-.375.37z" fill="#0a5b90"/><path d="m28.865 23.43-.869-.872-.869.873.371.37h.996z" fill="#004d85"/><path d="m29.737 22.558-.262-.263h-1.216l-.263.263.869.873z" fill="#07548c"/><path d="m29.475 22.295.262.263.263-.263h-.081z" fill="#0a5b90"/><path d="m25.756 23.801-.37-.37-.37.37z" fill="#075182"/><path d="m27.127 23.43-.873-.872-.868.873.37.37h.996z" fill="#0a5688"/><path d="m27.996 22.558-.263-.263h-1.216l-.263.263.873.873z" fill="#0e5e91"/><path d="m27.733 22.295.263.263.263-.263z" fill="#206e9c"/><path d="m29.49 20.573-.625-.625-.622.625z" fill="#2f7ea9"/><path d="m29.633 19.183-.768.765.625.625H29.633V19.2Z" fill="#126392"/><path d="m25.386 23.43-.668-.667V23.8H25.015z" fill="#0b5987"/><path d="m26.255 22.558-.87-.869-.667.664v.41l.668.667z" fill="#146290"/><path d="m26.467 21.033-.212-.216-.87.872.87.869.262-.263h-.05z" fill="#206e9c"/><path d="m27.749 20.573-.622-.625-.625.625zm-1.282.031-.213.213.213.216z" fill="#2f7ea9"/><path d="m28.865 19.948-.869-.869-.869.869.622.625h.494z" fill="#2a79a4"/><path d="m28.004 19.068-.008.011.869.869.768-.764v-.116h-.131z" fill="#1d70a4"/><path d="m29.907 17.508-.17-.17-.366.363h.536v-.131z" fill="#15678d"/><path d="m29.907 17.164-.17.174.17.17z" fill="#0a6083"/><path d="m22.274 23.801-.37-.37-.371.37z" fill="#3c8eb4"/><path d="m22.892 22.681-.12-.123-.869.873.371.37h.618v-.131Z" fill="#3c90b4"/><path d="m22.892 22.438-.12.12.12.124z" fill="#a4d1e4"/><path d="m25.386 21.69-.668-.665v1.328z" fill="#1e7199"/><path d="m26.255 20.817-.87-.87-.667.665v.413l.668.664z" fill="#3181a6"/><path d="m27.127 19.948-.873-.869-.868.869.869.869.212-.213v-.03h.035z" fill="#4c98bc"/><path d="m27.996 19.08-.008-.012h-1.521v-.205l-.213.216.873.869z" fill="#3f8db1"/><path d="m28.363 17.7-.367-.362-.367.363zm-.374 1.368.007.011.008-.011z" fill="#4d9cba"/><path d="m29.737 17.338-.872-.873-.869.873.367.363h1.008z" fill="#25799d"/><path d="m29.135 16.199-.27.266.872.873.17-.174V16.2h-.131z" fill="#1a708b"/><path d="m21.903 23.43-.872-.872-.367.367.502.815.039.061h.328z" fill="#51a0bf"/><path d="m22.772 22.558-.869-.869-.872.869.872.873z" fill="#519dc1"/><path d="m22.892 20.94-.12-.123-.869.872.869.869.12-.12z" fill="#57a1c4"/><path d="m22.892 20.697-.12.12.12.123z" fill="#a4d1e4"/><path d="m25.386 19.948-.668-.664v1.328Z" fill="#4e99b8"/><path d="m26.255 19.08-.87-.873-.667.664v.413l.668.664z" fill="#6aabc9"/><path d="m26.621 17.7-.366-.362-.87.869.87.872.212-.216v-1.162z" fill="#62a8c2"/><path d="m27.996 17.338-.869-.873-.873.873.367.363h1.008z" fill="#4d9cba"/><path d="m28.865 16.465-.266-.266h-1.205l-.267.266.87.873z" fill="#358ca7"/><path d="m28.598 16.199.267.266.27-.266z" fill="#358ca7"/><path d="m18.436 23.446-.015-.015-.371.37h.386v-.131z" fill="#4ca2bb"/><path d="m21.03 22.558-.868-.869-.162.159.664 1.077z" fill="#5aa8be"/><path d="m21.903 21.69-.872-.873-.869.872.869.869z" fill="#6fb2cd"/><path d="m22.772 20.817-.869-.87-.648.646v.189l-.07-.116-.154.15.872.873z" fill="#a4d1e4"/><path d="m22.892 19.199-.12-.12-.869.869.869.869.12-.12z" fill="#89c1da"/><path d="m22.892 18.956-.12.123.12.12z" fill="#77bccc"/><path d="m25.386 18.207-.668-.664v1.328z" fill="#90c4dc"/><path d="m26.255 17.338-.87-.873-.667.668v.41l.668.664z" fill="#94c7da"/><path d="m27.127 16.465-.27-.266h-1.205l-.266.266.869.873z" fill="#6eb7ca"/><path d="m26.857 16.199.27.266.267-.266z" fill="#6eb7ca"/><path d="m17.05 23.801-.251-.25v.25h.131z" fill="#0e84aa"/><path d="m18.42 23.43-.872-.872-.75.753v.24l.252.25h1z" fill="#0e84aa"/><path d="m18.436 21.705-.016-.016-.872.869.872.873.016-.016z" fill="#4ca2bb"/><path d="m20.162 21.69-.675-.677.513.834Zm-1.726-.016-.015.015.015.016z" fill="#6fb2cd"/><path d="m21.03 20.817-.868-.87-.826.823.15.243.676.676z" fill="#9bcade"/><path d="m21.903 19.948-.648-.645v1.29zm-1.382-.36-.359.36.869.869.154-.151z" fill="#a3d0e3"/><path d="m22.772 19.08-.869-.873-.649.644v.452l.649.645z" fill="#93cbdc"/><path d="m22.892 17.458-.12-.12-.869.869.869.872.12-.123z" fill="#96cbd9"/><path d="m22.892 17.214-.12.124.12.12z" fill="#77bccc"/><path d="m25.386 16.465-.27-.266h-.398v.934z" fill="#a3d1e0"/><path d="m25.116 16.199.27.266.266-.266z" fill="#a3d1e0"/><path d="m17.548 22.558-.75-.75v1.503z" fill="#0e84aa"/><path d="m18.42 21.69-.872-.873-.75.753v.239l.75.749z" fill="#60aec5"/><path d="m18.436 19.963-.016-.015-.872.869.872.872.016-.015z" fill="#68b4cc"/><path d="m20.162 19.948-.872-.869-.618.618.664 1.073zm-1.726-.016-.015.016.015.015z" fill="#bedee9"/><path d="m19.861 18.508-.571.571.872.869.36-.36z" fill="#c9e6ec"/><path d="m21.903 18.207-.649-.645v1.29z" fill="#add9e2"/><path d="m22.772 17.338-.869-.873-.649.645v.452l.649.644z" fill="#77bccc"/><path d="m22.17 16.199-.267.266.869.873.12-.124V16.2h-.131z" fill="#6cb5c6"/><path d="m17.548 20.817-.75-.75v1.503z" fill="#5db5cb"/><path d="m18.42 19.948-.872-.869-.75.75v.238l.75.75z" fill="#7ebfd3"/><path d="m19.29 19.08-.87-.873-.872.872.872.869.016-.016v-.625l.235.39z" fill="#badce8"/><path d="m19.197 17.43-.776.777.869.872.571-.571z" fill="#c7e4ec"/><path d="m21.903 16.465-.27-.266h-.379v.911Z" fill="#66b3c5"/><path d="m21.633 16.199.27.266.266-.266z" fill="#96cbd9"/><path d="m11.826 23.801-.37-.37-.371.37h.63z" fill="#0287a8"/><path d="m11.842 23.044-.386.386.37.371h.016v-.131z" fill="#0a89aa"/><path d="m14.17 20.92-.105-.103-.143.146c.085-.011.162-.023.236-.038z" fill="#5fafd0"/><path d="m15.262 20.272-.324-.324-.873.869.105.104c.131-.031.262-.073.39-.135.13-.062.258-.135.386-.228h.004c.112-.085.216-.178.312-.286z" fill="#5fafd0"/><path d="m15.807 19.08-.869.868.324.324c.016-.015.027-.035.043-.05.104-.128.2-.274.285-.436a2.19 2.19 0 0 0 .217-.707z" fill="#40a2c5"/><path d="m17.548 19.08-.75-.754v1.502z" fill="#75bcd0"/><path d="m18.42 18.207-.872-.87-.75.75v.24l.75.752z" fill="#8fc8d9"/><path d="m18.9 16.944-.48-.479-.872.873.872.868.776-.776z" fill="#94ccdd"/><path d="m18.537 16.35-.116.115.479.48z" fill="#8fc8d9"/><path d="m11.455 23.43-.868-.872-.437.436v.807h.935z" fill="#017da3"/><path d="m11.842 22.075-.386-.386-.87.869.87.873.386-.387z" fill="#0c7da5"/><path d="m12.54 21.033-.212-.216-.216.216zm-.698.27-.386.386.386.386z" fill="#1887b2"/><path d="m14.066 20.817-.87-.87-.868.87.212.216h.109c.324 0 .61-.008.86-.027a5.5 5.5 0 0 0 .414-.043z" fill="#3f91c0"/><path d="m14.938 19.948-.873-.869-.868.869.869.869z" fill="#499dc9"/><path d="m15.807 19.075-.869-.869-.873.873.873.869.869-.869z" fill="#2489b5"/><path d="m15.645 17.5-.707.707.869.868a3.2 3.2 0 0 0 .035-.486 2.97 2.97 0 0 0-.109-.834 2.5 2.5 0 0 0-.088-.255Z" fill="#0d79a7"/><path d="m17.548 17.338-.75-.753v1.502z" fill="#71b6d3"/><path d="m18.42 16.465-.27-.266h-1.204l-.147.147v.239l.749.753z" fill="#72b8d2"/><path d="m18.15 16.199.27.266.116-.116-.057-.088-.039-.062h-.073z" fill="#6db3cd"/><path d="m10.587 22.558-.437-.432v.868z" fill="#02739f"/><path d="m11.455 21.69-.868-.873-.437.436v.873l.437.432z" fill="#0574a1"/><path d="m12.328 20.817-.872-.87-.87.87.87.872.386-.386v-.27h.27z" fill="#177dad"/><path d="m13.197 19.948-.421-.421c-.089 0-.181.004-.278.004h-.625l-.417.417.872.869z" fill="#2385b6"/><path d="m14.066 19.08-.05-.055c-.012.031-.032.058-.047.085a.947.947 0 0 1-.166.185.965.965 0 0 1-.224.128 1.392 1.392 0 0 1-.39.077 5.57 5.57 0 0 1-.413.027l.42.42z" fill="#0479a5"/><path d="m14.938 18.207-.873-.87-.467.468a.842.842 0 0 1 .317.232.77.77 0 0 1 .143.25c.034.097.05.205.05.325a.966.966 0 0 1-.035.266.82.82 0 0 1-.058.147l.05.054z" fill="#0d73a4"/><path d="m14.853 16.554-.788.784.873.869.707-.707a2.06 2.06 0 0 0-.244-.42 2.166 2.166 0 0 0-.49-.487c-.02-.012-.039-.027-.058-.039Z" fill="#026294"/><path d="m16.799 16.346.147-.147H16.799v.131z" fill="#72b8d2"/><path d="m10.587 20.817-.437-.433v.869z" fill="#005d93"/><path d="m11.455 19.948-.868-.869-.437.432v.873l.437.433z" fill="#036ea2"/><path d="m11.842 18.593-.386-.386-.87.872.87.869.417-.417h-.031z" fill="#066fa9"/><path d="m12.695 17.705-.367-.367-.367.363h.444c.105 0 .201 0 .29.004zm-.853.116-.386.386.386.386z" fill="#0365a2"/><path d="m14.066 17.338-.87-.873-.868.873.367.367c.131 0 .247.004.343.007.17.008.294.024.371.035.07.016.131.035.19.058z" fill="#016096"/><path d="m13.448 16.214-.251.251.869.873.787-.784a1.948 1.948 0 0 0-.54-.243 3.538 3.538 0 0 0-.649-.085l-.216-.012z" fill="#00558b"/><path d="m10.587 19.08-.437-.437v.869z" fill="#015d90"/><path d="m11.455 18.207-.868-.87-.437.433v.873l.437.436z" fill="#005d9a"/><path d="m12.328 17.338-.872-.873-.87.873.87.869.386-.387v-.12h.12z" fill="#005995"/><path d="m13.197 16.465-.266-.266h-1.209l-.266.266.872.873z" fill="#005190"/><path d="m12.93 16.199.267.266.25-.25a18.07 18.07 0 0 0-.517-.016z" fill="#0d73a4"/><path d="m10.587 17.338-.437-.436v.868z" fill="#026294"/><path d="m11.455 16.465-.266-.266H10.15v.703l.437.436z" fill="#004c88"/><path d="m11.189 16.199.266.266.267-.266z" fill="#005190"/><path d="M10.1 23.67v-7.521h2.475c.216 0 .413.003.602.007.182.004.344.012.49.02.147.011.275.023.383.038.112.012.204.031.274.05l.05.012v.004a1.864 1.864 0 0 1 .568.274 2.32 2.32 0 0 1 .502.494c.073.104.139.213.197.328a2.641 2.641 0 0 1 .224.768c.015.144.027.29.027.445a2.868 2.868 0 0 1-.147.954c-.031.092-.07.181-.112.266a2.695 2.695 0 0 1-.135.235c-.05.074-.1.143-.155.209a4.087 4.087 0 0 1-.173.185 2.468 2.468 0 0 1-.39.29 1.977 1.977 0 0 1-.406.185 1.801 1.801 0 0 1-.204.058l-.004.004c-.09.015-.19.03-.298.046a4.446 4.446 0 0 1-.355.035c-.123.008-.259.015-.405.02-.147.003-.301.007-.46.007h-.756v2.768H10.1v-.05zm.1-7.34v7.421h1.595v-2.768H12.648c.166 0 .317 0 .456-.004.143-.008.278-.012.405-.023.128-.008.244-.02.348-.031a7.59 7.59 0 0 0 .29-.047l.003-.004a1.19 1.19 0 0 0 .193-.054c.066-.023.132-.05.193-.077.066-.03.128-.065.193-.1.062-.039.128-.081.19-.128.065-.046.123-.096.181-.15a1.78 1.78 0 0 0 .313-.375c.046-.073.092-.146.131-.227h.004a2.517 2.517 0 0 0 .181-.537c.024-.097.035-.197.047-.305.011-.104.015-.216.015-.332a3.04 3.04 0 0 0-.104-.819 2.365 2.365 0 0 0-.135-.351 1.814 1.814 0 0 0-.19-.313 2.454 2.454 0 0 0-.227-.262 1.831 1.831 0 0 0-.251-.209 1.824 1.824 0 0 0-.583-.274l-.02-.008a4.138 4.138 0 0 0-.622-.077c-.146-.012-.308-.015-.486-.023-.173-.004-.374-.004-.598-.004h-2.374zm14.468 7.34v-7.521h5.289v1.602h-3.44v1.266h3.162v1.603h-3.162v1.63H30.1v1.601h-5.432v-.05zm.1-7.34v7.421H30.004v-1.405H26.42V20.523h3.161v-1.405h-3.161V17.65h3.44V16.25h-5.092zm-8.02 7.34v-7.521H18.468l.015.023.039.065 2.687 4.371V16.15H22.942v7.702h-1.765l-.015-.023-.039-.065-2.64-4.282v4.37H16.748v-.05zm.097-7.34v7.421H18.386V19.307l.089-.023 2.733 4.428.023.039H22.845V16.25h-1.54v4.532l-.09.027-2.779-4.521-.023-.039H16.845zm-4.953 1.421v1.73h.606c.143 0 .266-.004.378-.008.116-.004.216-.012.309-.02.085-.01.162-.019.224-.034a.968.968 0 0 0 .154-.043.847.847 0 0 0 .209-.12c.03-.026.058-.053.085-.08a.972.972 0 0 0 .127-.197.958.958 0 0 0 .043-.112c.007-.039.019-.081.023-.124a1.147 1.147 0 0 0-.004-.297.724.724 0 0 0-.093-.266.53.53 0 0 0-.077-.112l-.004-.004a.73.73 0 0 0-.096-.093.689.689 0 0 0-.108-.077h-.004a.724.724 0 0 0-.124-.058 1.154 1.154 0 0 0-.286-.058 5.97 5.97 0 0 0-.498-.023c-.1-.004-.216-.004-.35-.004Zm-.097 1.78V17.65h.61c.124 0 .24.003.351.003l.286.012a2.932 2.932 0 0 1 .379.035c.054.011.104.023.154.042.05.016.097.039.139.066a.702.702 0 0 1 .123.085c.043.03.078.07.112.108l.031.035v.004a.72.72 0 0 1 .062.088c.023.047.046.093.062.143.02.05.03.105.039.162a.93.93 0 0 1 .004.324.852.852 0 0 1-.073.263c-.02.039-.04.078-.063.116h-.004a.722.722 0 0 1-.173.197 1.08 1.08 0 0 1-.108.073.942.942 0 0 1-.297.108 1.713 1.713 0 0 1-.236.035c-.093.008-.197.016-.313.023-.116.004-.243.004-.382.004H11.795z" fill="url(#b)" style="fill:url(#b)"/></g><defs><linearGradient id="b" x1="10.3" y1="23.774" x2="29.901" y2="23.774" gradientUnits="userSpaceOnUse"><stop stop-color="#004D85"/><stop offset=".569" stop-color="#359BCB"/><stop offset="1" stop-color="#0E5E91"/></linearGradient><clipPath id="a"><path fill="#fff" d="M0 0h40v40H0z"/></clipPath></defs></svg>