<svg width="41" height="40" fill="none" xmlns="http://www.w3.org/2000/svg"><g clip-path="url(#a)" transform="matrix(1.4 0 0 1.4 -8.4 -7.87)"><g clip-path="url(#b)" fill="#da1f45"><path d="m19.424 16.43-2.556 4.159h2.187l-1.215 1.984c-.076.123-.117.083-.359.08-.5-.006 0 0-1.498-.005-.305 0-.467.107-.61.354-.389.667-.806 1.318-1.193 1.985-.146.251-.317.353-.617.352h-2.224c-.366.009-.426-.07-.227-.392.89-1.435 1.763-2.88 2.643-4.321 1.225-2.004 2.458-4.002 3.67-6.014.178-.296.361-.425.719-.417 1.192.024 2.386.019 3.577.002.32-.004.448.057.446.416a1403.34 1403.34 0 0 0-.001 10.3c0 .346-.11.426-.44.427l-1.692.004c-.457.036-.52-.147-.517-.548.017-2.612.008-5.223.008-7.834v-.515l-.101-.018zM23.431 25.334c.41-.677.771-1.263 1.12-1.858.12-.203.284-.205.491-.204.707 0 1.414-.021 2.12-.04.315-.01.6-.114.855-.297a1.02 1.02 0 0 0 .156-1.559c-.376-.404-.882-.58-1.379-.764-.757-.28-1.49-.6-2.122-1.118a2.905 2.905 0 0 1 .265-4.706c1.554-1 3.232-.905 4.936-.49.256.061.214.17.112.333-.28.45-.569.898-.83 1.36-.119.21-.265.184-.445.142a4.272 4.272 0 0 0-1.442-.062c-.623.07-1.04.412-1.129.89-.08.436.16.814.735 1.124.766.411 1.613.635 2.383 1.044 2.092 1.11 2.085 3.402 1.113 4.689-.684.904-1.666 1.3-2.75 1.432-1.36.165-2.729.061-4.189.084z"/></g></g><defs><clipPath id="a"><path fill="#fff" transform="translate(.878)" d="M0 0h40v40H0z"/></clipPath><clipPath id="b"><path fill="#fff" transform="translate(11 14)" d="M0 0h20v11.348H0z"/></clipPath></defs></svg>