<svg width="40" height="40" fill="none" xmlns="http://www.w3.org/2000/svg"><mask id="a" mask-type="alpha" maskUnits="userSpaceOnUse" x="27" y="16" width="3" height="5"><path fill-rule="evenodd" clip-rule="evenodd" d="M27.648 17h2.339v3.154h-2.34V17Z" fill="#fff"/></mask><g mask="url(#a)" transform="matrix(1.4 0 0 1.4 -7.997 -8.17)"><path fill-rule="evenodd" clip-rule="evenodd" d="M29.987 19.316c-.021.042-.021.089-.033.132-.082.279-.278.45-.532.566a1.776 1.776 0 0 1-.69.139 4.088 4.088 0 0 1-.98-.1c-.035-.007-.044-.02-.044-.055.003-.17.003-.34 0-.51 0-.04.009-.044.047-.032.275.086.556.144.846.149.128.002.257-.006.379-.052.139-.051.2-.152.178-.284-.013-.078-.062-.131-.126-.171-.104-.066-.218-.114-.331-.162-.231-.098-.462-.194-.676-.328-.295-.187-.405-.46-.371-.797.039-.387.284-.598.628-.721.123-.044.25-.067.38-.08.012-.001.026.004.036-.01h.35c.002.007.008.009.015.009.215.016.426.056.637.09.039.008.05.022.05.062-.003.154-.001.309-.001.464 0 .064 0 .064-.061.04a2.002 2.002 0 0 0-.784-.144.719.719 0 0 0-.323.068.225.225 0 0 0-.131.208c-.001.09.05.147.125.188.125.067.254.125.382.184.23.105.464.209.676.352a.755.755 0 0 1 .33.456c.008.033.006.068.024.099z" fill="#019999"/></g><path fill-rule="evenodd" clip-rule="evenodd" d="M7.947 15.63c.098.03.202.027.303.04.214.029.427.068.64.103.043.007.055.025.055.069a22.32 22.32 0 0 0 0 .684c0 .065-.02.062-.067.042a2.884 2.884 0 0 0-1.111-.21c-.14.004-.275.02-.404.07-.179.072-.267.22-.23.382.022.091.082.15.159.192.256.142.525.252.788.375.247.117.49.237.716.392.385.264.522.635.471 1.084-.057.526-.382.834-.847 1.023-.324.132-.666.17-1.013.17a5.929 5.929 0 0 1-1.255-.14c-.047-.01-.065-.028-.065-.081.004-.237.004-.475 0-.713 0-.053.012-.06.063-.045.417.129.84.217 1.282.209.17-.003.34-.02.496-.098a.328.328 0 0 0 .186-.39c-.025-.111-.104-.181-.2-.239-.19-.112-.398-.19-.601-.278-.29-.125-.581-.25-.843-.432-.37-.26-.5-.628-.46-1.065.051-.546.394-.844.879-1.018.172-.061.351-.094.532-.112.018-.001.038.006.05-.014z" fill="#019999" style="stroke-width:1.4"/><path fill-rule="evenodd" clip-rule="evenodd" d="M33.984 20.94c-.027.006-.032.031-.046.05-.68.897-1.356 1.794-2.033 2.692a.794.794 0 0 0-.167.493c.003.31 0 .623.003.935 0 .052-.011.067-.064.066a8.684 8.684 0 0 0-.427 0c-.04 0-.058-.006-.058-.054.003-.334 0-.67.003-1.005.003-.277.094-.523.26-.745.604-.8 1.21-1.601 1.812-2.403a.098.098 0 0 1 .088-.044c.209.003.42.002.629.002z" fill="#641f8c" style="stroke-width:1.4"/><path fill-rule="evenodd" clip-rule="evenodd" d="m18.727 18.42.328-.811c.248-.612.496-1.224.742-1.836.021-.054.048-.071.105-.071.441.003.882.003 1.322 0 .056 0 .07.015.07.07-.002 1.375-.002 2.748 0 4.121 0 .058-.017.07-.07.07-.33-.002-.663-.002-.994 0-.055 0-.07-.015-.069-.07v-2.909c-.004-.001-.007-.003-.011-.003l-.168.408c-.347.848-.695 1.695-1.039 2.544-.022.057-.05.074-.11.072a13.722 13.722 0 0 0-.589 0c-.053 0-.075-.015-.095-.064L17 17.068l-.038-.084c-.02.028-.013.055-.013.079l.001 2.815c0 .066-.012.087-.082.085a16.27 16.27 0 0 0-.692 0c-.054 0-.066-.018-.066-.068.002-1.374.002-2.748 0-4.122 0-.053.012-.071.069-.071.472.003.942.003 1.413 0 .057 0 .074.026.092.071.335.854.672 1.708 1.01 2.562.008.025.019.05.034.086zM27.108 17.11v.076c0 .9 0 1.798.002 2.697 0 .064-.017.081-.082.08a22.778 22.778 0 0 0-.691 0c-.05 0-.069-.009-.069-.065.002-1.376.002-2.752 0-4.128-.001-.06.023-.068.073-.068.413.002.826.003 1.239 0 .052 0 .077.016.1.062.459.896.92 1.792 1.38 2.687a.203.203 0 0 0 .053.074v-.067c0-.892.001-1.784-.001-2.676 0-.063.014-.081.08-.08.23.005.461.003.691 0 .05 0 .07.009.07.065-.003 1.377-.001 2.756-.001 4.135 0 .045-.01.06-.058.06-.41-.002-.82-.002-1.23 0-.052 0-.068-.026-.086-.062l-1.42-2.73-.034-.065-.016.004zM12.23 17.829c0-.682.002-1.365 0-2.047 0-.065.017-.08.08-.08h2.896c.067 0 .08.02.08.083-.003.207-.003.413 0 .62 0 .057-.017.07-.07.07-.586-.003-1.171-.002-1.756-.003-.062 0-.086.011-.084.078.004.27.004.54 0 .811-.002.066.02.074.078.074.501-.003 1.004 0 1.504-.003.071-.001.085.02.082.086-.004.179-.005.358.002.537.001.07-.023.083-.087.083-.498-.003-.998-.001-1.497-.003-.061-.001-.084.013-.082.079.004.288.003.578 0 .866 0 .056.017.07.071.069.604-.002 1.207 0 1.812-.002.057-.001.08.01.078.075-.005.224-.004.446-.001.67.001.053-.01.07-.067.07h-2.966c-.058 0-.074-.014-.074-.073.003-.687.002-1.373.002-2.06zM22.385 17.83c0-.685 0-1.37-.002-2.054 0-.058.014-.075.073-.075.969.003 1.94.003 2.91 0 .06 0 .072.019.072.076-.004.209-.004.419 0 .627 0 .055-.014.07-.069.07-.588-.001-1.176 0-1.764-.003-.063 0-.077.019-.075.077.003.276.003.55 0 .825 0 .049.012.063.061.062.51-.002 1.018 0 1.526-.002.06-.001.073.017.073.074-.004.188-.004.377 0 .565 0 .054-.018.065-.068.065-.503-.001-1.007 0-1.511-.002-.062 0-.083.012-.081.078.004.29.003.578 0 .867 0 .054.014.07.07.07.603-.003 1.207 0 1.811-.003.063 0 .077.017.077.078-.004.226-.002.451-.001.676 0 .044-.01.06-.057.06-.996 0-1.993 0-2.988.002-.063 0-.057-.03-.057-.073z" fill="#019999" style="stroke-width:1.4"/><path fill-rule="evenodd" clip-rule="evenodd" d="m9.276 23.33-1.329.001c-.058 0-.072-.015-.071-.073a6.724 6.724 0 0 0 0-.411c-.001-.06.011-.077.076-.077.701.002 1.402 0 2.104.002.063 0 .077-.014.075-.075-.005-.168 0-.335-.001-.504a.717.717 0 0 0-.67-.724 15.046 15.046 0 0 0-1.979-.015c-.12.007-.242.002-.361.029a.715.715 0 0 0-.57.694c-.003.581-.004 1.164 0 1.746.002.374.289.68.665.709.658.047 1.319.053 1.977.016.113-.007.23-.002.343-.025a.715.715 0 0 0 .592-.722c0-.066.014-.087.084-.084.135.007.269.004.405.001.05-.001.06.014.061.062a1.287 1.287 0 0 1-1.255 1.307c-.721.033-1.444.038-2.166-.002-.61-.034-1.075-.408-1.218-.973a1.357 1.357 0 0 1-.035-.318v-1.656c0-.745.51-1.281 1.257-1.323.72-.04 1.44-.04 2.16.001.612.034 1.08.407 1.221.977.022.095.035.192.035.29 0 .361-.001.722.001 1.084 0 .051-.012.064-.065.064l-1.336-.001zM27.68 22.771l1.328-.001c.056 0 .069.015.068.068-.002.354 0 .709-.002 1.063a1.262 1.262 0 0 1-1.085 1.267c-.143.022-.287.024-.433.03-.67.03-1.342.024-2.011-.023-.57-.04-1.077-.54-1.133-1.108a3.263 3.263 0 0 1-.01-.285v-1.586a1.271 1.271 0 0 1 1.003-1.25c.187-.041.38-.036.57-.044.611-.03 1.222-.018 1.832.013.613.03 1.084.399 1.23.966.03.116.04.233.039.352 0 .034-.006.05-.045.05a12.324 12.324 0 0 0-.455 0c-.053 0-.048-.03-.048-.062a.715.715 0 0 0-.29-.612.759.759 0 0 0-.442-.147 16.435 16.435 0 0 0-2.181.007.712.712 0 0 0-.665.701c-.007.587-.007 1.175.001 1.762a.708.708 0 0 0 .665.7c.657.049 1.315.053 1.971.016.122-.007.247-.004.369-.029a.715.715 0 0 0 .572-.692c.003-.177-.003-.354.002-.532 0-.056-.016-.067-.07-.067-.7.002-1.402 0-2.105.003-.063 0-.082-.014-.08-.078a5.608 5.608 0 0 0 0-.406c-.002-.06.01-.079.076-.077.443.002.886.001 1.329.001z" fill="#641f8c" style="stroke-width:1.4"/><mask id="b" mask-type="alpha" maskUnits="userSpaceOnUse" x="17" y="20" width="4" height="4"><path fill-rule="evenodd" clip-rule="evenodd" d="M17.294 20.752h3.341v3.096h-3.341v-3.096Z" fill="#fff"/></mask><g mask="url(#b)" transform="matrix(1.4 0 0 1.4 -7.997 -8.17)"><path fill-rule="evenodd" clip-rule="evenodd" d="M19.637 22.5h-.95c-.04 0-.054-.006-.053-.05.004-.102.004-.203 0-.305-.001-.038.012-.046.048-.046.5.002 1.003 0 1.504.002.047.001.06-.009.059-.059-.004-.116 0-.232-.001-.349a.508.508 0 0 0-.483-.523 10.58 10.58 0 0 0-1.402-.01c-.087.004-.174.001-.26.02a.508.508 0 0 0-.411.49c-.005.42-.005.84 0 1.258a.507.507 0 0 0 .475.501c.47.035.942.038 1.412.012.083-.005.165-.002.245-.018a.51.51 0 0 0 .423-.516c0-.049.012-.062.06-.06.099.005.196.003.295.001.027 0 .036.006.037.035a.905.905 0 0 1-.832.935c-.49.036-.981.038-1.473.012-.126-.007-.253-.007-.376-.042a.905.905 0 0 1-.656-.848 49.806 49.806 0 0 1 0-1.282.9.9 0 0 1 .829-.877c.492-.035.986-.038 1.478-.01.138.006.276.007.409.052.36.12.614.46.619.84.003.264 0 .528.002.793 0 .035-.01.044-.044.044h-.954z" fill="#641f8c"/></g><path fill-rule="evenodd" clip-rule="evenodd" d="M11.387 23.599c0-.468-.003-.935 0-1.404a1.266 1.266 0 0 1 1.018-1.249c.152-.03.31-.032.466-.043a9.524 9.524 0 0 1 1.522.026 1.27 1.27 0 0 1 1.125 1.137c.006.064.009.13.009.195.001.943 0 1.887.003 2.829 0 .074-.021.088-.089.085a6.1 6.1 0 0 0-.392 0c-.056.003-.07-.015-.068-.068V22.22c0-.338-.188-.614-.486-.718-.15-.052-.304-.046-.456-.056a10.49 10.49 0 0 0-1.392.013c-.433.03-.714.33-.714.764-.001.958-.001 1.915.001 2.872 0 .063-.015.082-.08.08a6.1 6.1 0 0 0-.391 0c-.06.002-.079-.01-.079-.075.004-.501.003-1 .003-1.502z" fill="#641f8c" style="stroke-width:1.4"/><path fill-rule="evenodd" clip-rule="evenodd" d="M9.949 17.828c0-.685.001-1.37-.002-2.054 0-.057.017-.073.075-.073.352.003.704.003 1.055.002.048-.002.064.011.064.06v4.141c0 .048-.015.058-.06.058-.357-.002-.712-.003-1.07.001-.055 0-.062-.02-.062-.069v-2.066z" fill="#019999" style="stroke-width:1.4"/><path fill-rule="evenodd" clip-rule="evenodd" d="M21.66 23.613v-1.425c.003-.58.385-1.075.942-1.225.091-.025.186-.036.283-.036.354 0 .708.001 1.063-.002.054-.001.065.016.064.066a6.724 6.724 0 0 0 0 .412c.001.053-.011.071-.069.07-.333-.003-.667.007-1-.003a.724.724 0 0 0-.738.735c.002.959.001 1.92.001 2.878 0 .091 0 .091-.094.091-.126 0-.25-.003-.376.002-.06.002-.079-.012-.077-.076.002-.496.001-.991.001-1.487zM29.137 20.927h.686c.028-.002.042.015.056.033.504.6 1.005 1.197 1.51 1.796.016.021.03.037.008.066-.105.136-.207.273-.315.417a3568.1 3568.1 0 0 0-1.945-2.312z" fill="#641f8c" style="stroke-width:1.4"/></svg>