<svg width="40" height="40" fill="none" xmlns="http://www.w3.org/2000/svg"><path fill-rule="evenodd" clip-rule="evenodd" d="M19.489 7.142c-.22.031-.394.156-.494.205-.396.265-.594.661-.726 1.124-.066.066-.133.397-.265 1.19-.066.529-.066.793-.132 1.19-.132.858-.2.926-.397 2.05-.133.99-.066.792-.198 1.718-.132.859-.265 1.124-.133 1.586.132.397.331.793.53.925.198.132.396.067.726.067.265-.066.463-.331.595-.463.067-.133.33-.462.463-1.52.066-.463.067-.463.133-1.19.066-.397.065-.596.197-1.257.199-1.388.133-1.189.199-1.52.198-.925.397-1.19.595-2.181 0-.132.133-.595-.066-1.123l-.199-.398c-.066-.132-.264-.33-.595-.396a.704.704 0 0 0-.234-.007zm5.918.998a.98.98 0 0 0-.594.199c-.066 0-.132.066-.265.33l-.33.661c-.198.463-.265.661-.464 1.058-.198.397-.264.528-.462.793-.066.132-.133.198-.199.33-.264.463-.528.926-.66 1.256-.331.727-.198.728-.595 1.521-.264.595-.33.53-.66 1.256-.53 1.058-.53 1.455-.53 1.653.066.198.066.66.462.924.33.265.728.133.794.133.397-.066.66-.33.793-.529.264-.33.265-.595.463-1.057 0-.133.198-.53.594-1.322.133-.199.2-.463.86-1.719.661-1.256.992-1.917.992-1.917.33-.595.661-1.057.86-1.784.132-.265.198-.662.066-1.059-.066-.132-.133-.396-.464-.594a1.44 1.44 0 0 0-.66-.133zm4.43 4.43c-.595 0-.992.396-1.388.792-.33.397-.265.463-.926 1.257-.198.264-.396.462-.727.858-.463.53-.727.86-.926 1.059-.462.463-.528.528-1.322 1.255-.595.529-.728.728-.794 1.058 0 .067-.065.528.2.925l.461.463c.199.067.464 0 .794-.133.595-.264.926-.66 1.257-.991.595-.661.924-.992 1.189-1.322.991-1.124 1.058-1.321 1.256-1.52l.199-.199 1.057-1.057c.265-.33.396-.462.528-.727.132-.198.199-.463.199-.794 0-.132-.066-.462-.33-.727-.265-.198-.595-.197-.727-.197zM7.296 17.46c-.264 0-.53 0-.794.133-.33.265-.462.595-.462.727-.066.265-.067.529.131 1.058.199.66.464 1.388 1.19 2.048.463.397.86.53 1.124.662.33.198.86.397 1.19.132.133-.066.132-.131.198-.396.066-.132.199-.398.199-.728 0-.397-.133-.66-.265-.924-.264-.463-.33-.398-.595-.86-.265-.463-.198-.595-.462-.992a1.639 1.639 0 0 0-.596-.595c-.396-.198-.726-.265-.858-.265zm10.203 1.036c-.123.01-.24.04-.355.089-.529.198-.726.66-.793.727-.264.462-.132.727-.198 1.322 0 .132-.132 1.057-.594 1.652-.133.133-.463.464-2.182.86-.661.198-2.314.33-2.513.397-.198 0-.528.132-.726.66-.265.463-.132.926-.132 1.058 0 .264.198.529.595 1.057.33.397.595.728.992 1.521.528.992.527 1.256.924 1.719.463.462.992.595 1.917.925.992.33 1.059.198 1.786.528.528.199.925.464 1.453.86.86.53.86.728 1.322.86.133.066.793.265 1.454 0 .198-.066.463-.2.992-.728a7.266 7.266 0 0 0 1.19-1.388c.595-.86 1.124-1.388 1.917-2.248 1.256-1.322 1.719-1.519 1.785-2.246 0-.066.066-.86-.397-1.39-.264-.33-.396-.263-.991-.726-.33-.265-.662-.528-.926-.859-.264-.33-.265-.397-.595-1.124-.264-.529-.397-.793-.661-1.124-.198-.33-.594-.86-1.255-1.19-.463-.264-.464-.132-1.455-.462-.595-.198-.595-.264-1.058-.397-.694-.247-1.127-.384-1.496-.353zm15.65 2.368c-.156-.016-.405.034-.801.232-.33.198-.529.331-1.124.794-.859.661-.99.727-1.057.793-.397.198-.86.397-1.124.529-.33.132-.594.198-.925.462a1.527 1.527 0 0 0-.463.53.831.831 0 0 0-.066.595c.066.33.33.462.396.528.33.264.728.133.794.133.198-.066.198-.067.528-.265s.33-.198.727-.396c.529-.265.53-.331 1.058-.595.595-.33.595-.331 1.124-.596.264-.132.595-.33.926-.595.396-.33.528-.528.66-.727.133-.198.198-.33.198-.595 0-.264-.197-.462-.263-.528a.93.93 0 0 0-.464-.264.354.354 0 0 0-.125-.036z" fill="#fff" style="stroke-width:1.4"/><path fill-rule="evenodd" clip-rule="evenodd" d="M25.804 22.22c-.066-.33 0-.529.132-.727.066-.066.198-.463.793-.925.33-.265.397-.265.925-.595.53-.33.397-.33.992-.727.33-.199.86-.53 1.19-.86.396-.33.396-.396 1.124-1.057.595-.53.859-.727 1.19-.794.198-.066.528-.132.793.067.066 0 .33.198.396.528.066.265-.066.463-.198.794-.066.132-.198.33-.397.595-.198.198-.396.396-.727.66-.529.331-.529.331-1.19.728-.264.198-.528.396-1.123.793-.53.396-.661.529-.926.727-.132.066-.198.132-.33.198l-.794.53c-.727.528-.859.528-.925.594-.264.066-.463.132-.727.066a1.522 1.522 0 0 1-.198-.595" fill="#f29222" style="stroke-width:1.4"/></svg>