<svg width="40" height="40" fill="none" xmlns="http://www.w3.org/2000/svg"><g clip-path="url(#a)" transform="matrix(1.4 0 0 1.4 -8 -8)"><path fill-rule="evenodd" clip-rule="evenodd" d="M22.352 23.035a.686.686 0 1 1 0-1.371.686.686 0 0 1 0 1.371zm0-2.515a.604.604 0 1 1 0-1.21.604.604 0 0 1 0 1.21zm0-2.353a.523.523 0 1 1 0-1.045.523.523 0 0 1 0 1.045zm0-2.188a.44.44 0 1 1 0-.882.44.44 0 0 1 0 .882zm0-2.026a.36.36 0 1 1 0-.718.36.36 0 0 1 0 .718zm-.001-1.862a.278.278 0 1 1 0-.555.278.278 0 0 1 0 .555zm.001-1.699a.196.196 0 1 1 0-.392.196.196 0 0 1 0 .392zM20 14.871a.686.686 0 1 1 0 1.372.686.686 0 0 1 0-1.372zM20 17.386a.604.604 0 1 1 0 1.21.604.604 0 0 1 0-1.21zm0 2.353a.522.522 0 1 1 0 1.045.522.522 0 0 1 0-1.045zm0 2.188a.44.44 0 1 1 0 .882.44.44 0 0 1 0-.882zm0 2.026a.36.36 0 1 1 0 .718.36.36 0 0 1 0-.718zm0 1.862a.278.278 0 1 1 0 .556.278.278 0 0 1 0-.556zm0 1.699a.196.196 0 1 1 0 .392.196.196 0 0 1 0-.392zm-2.352-10.549a.686.686 0 1 1 0 1.372.686.686 0 0 1 0-1.372zm0 2.516a.604.604 0 1 1 0 1.208.604.604 0 0 1 0-1.208zm.001 2.352a.523.523 0 1 1 0 1.045.523.523 0 0 1 0-1.045zm0 2.188a.44.44 0 1 1 0 .882.44.44 0 0 1 0-.882zm-.001 2.026a.36.36 0 1 1 0 .718.36.36 0 0 1 0-.718zm0 1.862a.278.278 0 1 1 0 .555.278.278 0 0 1 0-.555zm0 1.7a.196.196 0 1 1 0 .39.196.196 0 0 1 0-.39z" fill="#ded420"/></g><defs><clipPath id="a"><path fill="#fff" d="M0 0h40v40H0z"/></clipPath></defs></svg>