<svg width="40" height="40" fill="none" xmlns="http://www.w3.org/2000/svg"><mask id="a" mask-type="alpha" maskUnits="userSpaceOnUse" x="10" y="17" width="20" height="6"><path fill="#fff" d="M10 17.037h20v5.926H10z"/></mask><g mask="url(#a)" transform="matrix(1.4 0 0 1.4 -8 -8)" fill-rule="evenodd" clip-rule="evenodd" fill="#d90021"><path d="M15.078 18.068A.099.099 0 0 0 15.06 18l-.152-.195a.036.036 0 0 0-.052-.005l-.226.196a.123.123 0 0 0-.035.063l-.276 1.615a.101.101 0 0 0 .017.068l.146.192c.012.017.036.02.053.008l.222-.163a.105.105 0 0 0 .037-.06zM14.231 20.22a.126.126 0 0 0-.034.064l-.268 1.615a.104.104 0 0 0 .016.068l.15.2c.012.017.035.021.052.008l.243-.19a.112.112 0 0 0 .036-.061l.268-1.644a.103.103 0 0 0-.017-.069l-.153-.205a.034.034 0 0 0-.05-.005zM20.318 17.808a.087.087 0 0 0-.06-.03h-1.876c-.02 0-.05.012-.065.026l-.25.239a.04.04 0 0 0-.002.054l.156.18a.094.094 0 0 0 .061.028h1.883a.11.11 0 0 0 .064-.025l.236-.222a.042.042 0 0 0 .005-.055zM19.014 18.45c-.02 0-.04.018-.043.039l-.193 1.185a.102.102 0 0 0 .017.068l.146.192c.013.017.037.02.054.008l.222-.163a.106.106 0 0 0 .036-.06l.2-1.23c.003-.02-.01-.037-.03-.037zM18.69 20.22a.13.13 0 0 0-.034.064l-.275 1.615a.104.104 0 0 0 .017.068l.149.2c.012.017.035.021.052.008l.243-.19a.112.112 0 0 0 .036-.061l.274-1.644a.102.102 0 0 0-.016-.069l-.153-.205a.034.034 0 0 0-.05-.005zM13.31 17.808a.087.087 0 0 0-.06-.03h-1.093c-.02 0-.05.01-.066.024l-.298.243a.042.042 0 0 0-.007.055l.122.174a.081.081 0 0 0 .059.031h1.17c.02 0 .05-.011.065-.025l.254-.223a.04.04 0 0 0 .005-.054zM11.82 18.443a.097.097 0 0 0-.017-.068l-.152-.195a.037.037 0 0 0-.053-.006l-.217.172a.116.116 0 0 0-.036.06l-.211 1.18a.103.103 0 0 0 .015.068l.154.211c.012.017.035.02.051.007l.219-.18a.118.118 0 0 0 .036-.061zM11.012 20.384a.13.13 0 0 0-.034.064l-.236 1.444a.123.123 0 0 0 .013.071l.143.243c.01.019.031.022.046.007l.249-.245a.139.139 0 0 0 .033-.064l.242-1.454a.111.111 0 0 0-.015-.07l-.15-.216a.032.032 0 0 0-.048-.006ZM13.75 18.477a.099.099 0 0 0-.017-.068l-.152-.194a.038.038 0 0 0-.052-.007l-.218.172a.116.116 0 0 0-.036.06l-.211 1.145a.103.103 0 0 0 .015.07l.154.21c.013.017.036.02.052.007l.218-.18a.12.12 0 0 0 .036-.061zM12.942 20.39a.132.132 0 0 0-.034.065l-.242 1.437a.114.114 0 0 0 .015.07l.14.212c.01.017.033.02.049.007l.251-.215a.122.122 0 0 0 .035-.063l.249-1.46a.105.105 0 0 0-.016-.069l-.154-.211a.032.032 0 0 0-.05-.005zM11.627 20.294a.082.082 0 0 1-.06-.03l-.145-.2a.043.043 0 0 1 .006-.057l.255-.231a.11.11 0 0 1 .065-.025h1.164a.08.08 0 0 1 .058.03l.138.202a.045.045 0 0 1-.006.056l-.247.223a.113.113 0 0 1-.064.025zM16.323 20.48a.198.198 0 0 1-.024.071l-1.002 1.613a.075.075 0 0 1-.057.032h-.29c-.02 0-.033-.017-.03-.038l.06-.374a.224.224 0 0 1 .025-.07l1.01-1.64a.075.075 0 0 1 .056-.032h.257c.02 0 .035.017.033.038zM16.574 19.498a.204.204 0 0 1 .025-.07l1.004-1.597a.075.075 0 0 1 .057-.033h.29c.02 0 .034.018.03.038l-.059.374a.223.223 0 0 1-.026.07l-.994 1.593a.074.074 0 0 1-.057.032h-.278c-.02 0-.035-.017-.033-.038zM16.459 20.528a.213.213 0 0 1-.008-.075l.043-.38a.043.043 0 0 1 .041-.038h.283c.02 0 .042.016.048.037l.503 1.699c.006.02.008.054.005.075l-.047.305c-.003.021-.022.038-.043.038h-.25a.055.055 0 0 1-.048-.036zM16.444 19.405c.007.02.01.054.008.075l-.043.38a.043.043 0 0 1-.041.038h-.27a.054.054 0 0 1-.048-.036l-.509-1.652a.2.2 0 0 1-.005-.075l.047-.305a.046.046 0 0 1 .042-.039h.25c.02 0 .043.017.05.037zM25.664 17.808a.087.087 0 0 0-.06-.03H24.51a.13.13 0 0 0-.066.022l-.29.219a.043.043 0 0 0-.01.055l.12.199c.01.017.036.032.056.032h1.17c.02 0 .05-.011.065-.025l.255-.223a.04.04 0 0 0 .005-.054zM25.02 21.707a.088.088 0 0 0-.06-.03h-1.145c-.02 0-.05.011-.066.023l-.297.226a.039.039 0 0 0-.007.053l.14.195c.013.017.04.031.06.031h1.196c.02 0 .05-.01.065-.024l.267-.224a.039.039 0 0 0 .005-.054zM23.701 18.41a.122.122 0 0 1 .035-.063l.248-.21c.015-.014.037-.01.049.007l.147.235c.011.018.017.05.014.071l-.214 1.213a.131.131 0 0 1-.034.063l-.243.222a.034.034 0 0 1-.05-.005l-.161-.206a.098.098 0 0 1-.017-.068zM25.657 18.409a.124.124 0 0 1 .036-.062l.247-.21a.032.032 0 0 1 .049.007l.147.235c.011.018.017.05.014.071l-.214 1.199a.131.131 0 0 1-.034.063l-.243.222a.034.034 0 0 1-.05-.004l-.161-.206a.096.096 0 0 1-.017-.068zM23.365 20.284a.119.119 0 0 1 .035-.062l.247-.21a.032.032 0 0 1 .049.007l.147.236c.011.017.017.05.014.07l-.208 1.24a.112.112 0 0 1-.036.06l-.232.18a.035.035 0 0 1-.05-.009l-.159-.236a.114.114 0 0 1-.015-.07ZM25.314 20.277c.004-.02.02-.049.035-.062l.248-.21c.015-.014.037-.01.049.007l.147.236c.011.018.017.05.014.07l-.201 1.213a.127.127 0 0 1-.034.063l-.243.222a.034.034 0 0 1-.051-.004l-.16-.207a.099.099 0 0 1-.017-.067zM20.36 20.234a.13.13 0 0 0-.035.064l-.268 1.601a.104.104 0 0 0 .016.068l.15.2c.012.017.035.021.052.008l.243-.19a.112.112 0 0 0 .036-.061l.268-1.63a.103.103 0 0 0-.017-.07l-.153-.205a.034.034 0 0 0-.05-.005zM20.78 17.923c-.012-.016-.026-.012-.03.009l-.3 1.697a.102.102 0 0 0 .017.068l.149.2c.012.017.036.02.052.008l.243-.19a.115.115 0 0 0 .036-.062l.21-1.221a.096.096 0 0 0-.018-.068zM20.888 17.785c-.02 0-.027.013-.013.03l.376.465c.013.016.04.03.06.03h1.116a.12.12 0 0 0 .065-.024l.293-.246a.038.038 0 0 0 .005-.053l-.14-.17a.09.09 0 0 0-.061-.029ZM22.606 18.409a.126.126 0 0 1 .035-.062l.247-.21a.032.032 0 0 1 .05.007l.147.235c.01.018.017.05.013.071l-.2 1.144a.135.135 0 0 1-.034.064l-.25.235a.034.034 0 0 1-.05-.004l-.161-.206a.097.097 0 0 1-.016-.068ZM22.46 20.054a.043.043 0 0 0 .004-.056l-.154-.2a.086.086 0 0 0-.06-.03h-1.157c-.02 0-.05.011-.066.024l-.214.171a.041.041 0 0 0-.007.055l.157.23a.08.08 0 0 0 .059.032h1.163a.11.11 0 0 0 .064-.026zM21.302 20.415a.09.09 0 0 0-.06-.03h-.296c-.02 0-.04.018-.043.039l-.027.19a.1.1 0 0 0 .018.067l1.19 1.495c.013.017.04.03.06.03h.257c.02 0 .04-.017.045-.038l.055-.265a.09.09 0 0 0-.016-.067zM27.298 18.068a.1.1 0 0 0-.016-.068l-.152-.195a.036.036 0 0 0-.052-.005l-.226.196a.123.123 0 0 0-.035.063l-.276 1.622a.102.102 0 0 0 .016.068l.146.192c.013.017.037.02.053.008l.223-.163a.11.11 0 0 0 .037-.06zM26.458 20.228a.128.128 0 0 0-.034.063l-.274 1.608a.103.103 0 0 0 .016.068l.149.2c.012.017.036.021.052.008l.243-.19a.113.113 0 0 0 .036-.061l.275-1.638a.104.104 0 0 0-.016-.068l-.154-.205a.034.034 0 0 0-.05-.005ZM29.259 18.068a.1.1 0 0 0-.017-.068l-.152-.195a.036.036 0 0 0-.052-.005l-.226.196a.124.124 0 0 0-.035.063l-.276 1.629a.1.1 0 0 0 .016.068l.147.192a.04.04 0 0 0 .053.008l.222-.163a.109.109 0 0 0 .037-.06zM28.419 20.234a.128.128 0 0 0-.034.064l-.275 1.601a.104.104 0 0 0 .017.068l.148.2c.013.017.036.021.053.008l.243-.19a.112.112 0 0 0 .036-.061l.274-1.63a.102.102 0 0 0-.016-.07l-.153-.204a.034.034 0 0 0-.05-.005ZM27.744 18.05a.07.07 0 0 0-.055-.033h-.218c-.02 0-.04.017-.043.038l-.051.285a.132.132 0 0 0 .01.072l.69 1.323c.01.019.034.034.055.034h.179c.02 0 .04-.017.043-.038l.065-.395a.13.13 0 0 0-.012-.071z"/></g></svg>