<svg width="40" height="40" fill="none" xmlns="http://www.w3.org/2000/svg"><path fill-rule="evenodd" clip-rule="evenodd" d="m14.598 23.736 2.206-.045L16.444 34l8.958-12.74-1.71.09-1.801.09c1.08-2.7 2.025-5.401 2.97-8.102-.72-.045-8.822 1.08-9.228 1.305zm3.376 6.303.09-1.891c0-.585-.585-.765-.63 0l-.09 1.846c-.045.765.585.45.63.045zm-2.386-7.113h1.936l-.135 3.421c0 .856.675.946.72-.09l.135-3.961-1.89-.045.585-7.023c-.045-.675-.585-.81-.675 0zM19.235 10.006c0 .81-.135.72-.63 1.17-.225.181-.316.226-.54.406-.766.72-1.666 1.35-2.432 2.16l9.049-1.215c-.72-.45-1.396-.72-2.206-1.08l-1.98-.855c-.09-1.35.134-1.44-.406-2.656-.405-.856-1.35-1.71-2.25-1.936l-.36 1.125c.674.315 1.17.676 1.44 1.26.18.406.315.946.315 1.621z" fill="#e2010e" style="stroke-width:1.4"/></svg>