<svg width="40" height="40" fill="none" xmlns="http://www.w3.org/2000/svg"><g clip-path="url(#a)" transform="matrix(1.4 0 0 1.4 -8 -8)" fill-rule="evenodd" clip-rule="evenodd" fill="#fff"><path d="M27.718 20.224s-.008.075-.038.11c-.035.038-.124.05-.124.05h-.678s-.075-.007-.109-.037c-.04-.034-.052-.123-.052-.123v-.989h-.465v1.15c.007.118.05.192.132.274a.36.36 0 0 0 .286.105h1.157c.11-.01.178-.041.256-.119a.362.362 0 0 0 .119-.26v-1.15h-.484v.99zM28.952 20.385v-1.15h-.484v1.529H30v-.38zM15.809 19.62v-.378h-1.743v.382l.659-.001v1.14l.437-.003-.002-1.139ZM19.952 20.232l-.552-.997h-.725v1.522h.415l.002-1.128.666 1.128h.387l.659-1.128.002 1.128.425.002.001-1.52-.719-.004zM12.987 19.238l-.842 1.522h.513l.16-.267.905.001.14.268h.518l-.852-1.521zm-.013.939.284-.545.29.545zM16.37 19.24l-.872 1.522.529-.002.151-.272.904.002.16.27h.513l-.852-1.52h-.533zm-.005.932c.076-.184.171-.36.257-.54.104.167.202.354.28.54zM23.215 19.235c-.437.002-.798.002-1.23.002-.072.014-.234.026-.331.123a.376.376 0 0 0-.123.265v.751a.38.38 0 0 0 .113.257c.074.08.14.115.247.132h1.258c.137-.001.225-.015.327-.1a.39.39 0 0 0 .152-.279v-.761a.353.353 0 0 0-.114-.274c-.088-.089-.205-.096-.3-.116zm-.09.991a.147.147 0 0 1-.053.117.146.146 0 0 1-.109.043h-.79a.16.16 0 0 1-.102-.048.163.163 0 0 1-.057-.116l.004-.44a.156.156 0 0 1 .043-.102.156.156 0 0 1 .084-.052l.813-.004a.145.145 0 0 1 .114.042.145.145 0 0 1 .053.12v.44zM11.366 19.242H10v1.514h1.54a.568.568 0 0 0 .344-.1.368.368 0 0 0 .16-.233 2.41 2.41 0 0 0 .026-.176 2.11 2.11 0 0 0 .004-.15v-.174c0-.272-.048-.454-.144-.545-.096-.09-.284-.136-.564-.136zm.232.761c0 .148-.02.248-.057.301-.038.053-.13.08-.275.08h-.794v-.77h.8c.15 0 .24.026.275.077.034.051.05.151.05.299zM25.273 19.246h-1.366v1.513h1.54a.568.568 0 0 0 .344-.1.368.368 0 0 0 .16-.232c.016-.089.025-.147.027-.176.002-.029.003-.079.003-.15v-.175c0-.272-.048-.453-.144-.544-.096-.091-.284-.136-.564-.136zm.232.76c0 .149-.019.249-.057.302-.038.053-.13.079-.275.079h-.794v-.77h.801c.149 0 .24.026.274.078.034.05.051.15.051.298v.014z"/></g><defs><clipPath id="a"><path fill="#fff" d="M0 0h40v40H0z"/></clipPath></defs></svg>