<svg width="40" height="40" fill="none" xmlns="http://www.w3.org/2000/svg"><g clip-path="url(#a)" transform="matrix(1.4 0 0 1.4 -8 -8)"><path fill-rule="evenodd" clip-rule="evenodd" d="M18.286 21.797v-2.954h1.7v.648h-.965v.511h.906v.636h-.906v.498h.965v.661zM10 21.631h3.337v.191H10Zm0-1.155h3.337v.631H10Zm0-2.352h3.337v.632H10Zm4.388 3.702V18.86h1.051l.62 2.024.615-2.024h1.05v2.967h-.647v-2.335l-.686 2.335h-.673l-.678-2.335-.004 2.335zm6.096-.029v-2.954h.578c.432 0 .735.02.914.062a1.25 1.25 0 0 1 .868.719c.092.204.137.436.137.698 0 .262-.045.495-.137.698a1.28 1.28 0 0 1-.399.503c-.133.1-.286.17-.457.212-.17.041-.44.062-.798.062h-.128zm.748-.66h.129c.295 0 .511-.067.648-.196s.204-.336.204-.619c0-.282-.067-.49-.204-.623-.137-.13-.353-.196-.648-.196h-.129zm2.244.66v-2.954h.765v2.954zm4.218-1.47c0 .211-.038.41-.108.598a1.506 1.506 0 0 1-.806.835c-.183.079-.37.116-.566.116a1.425 1.425 0 0 1-1.047-.453 1.575 1.575 0 0 1-.436-1.097c0-.212.037-.411.112-.598.075-.187.183-.353.324-.499a1.425 1.425 0 0 1 1.047-.453c.196 0 .387.038.57.117.182.078.34.19.482.336.137.146.245.312.32.499.07.187.108.386.108.598zm-1.48.868a.655.655 0 0 0 .52-.245.945.945 0 0 0 .204-.624.915.915 0 0 0-.208-.619.645.645 0 0 0-.516-.25.65.65 0 0 0-.519.246.948.948 0 0 0-.208.623c0 .254.067.461.204.623a.646.646 0 0 0 .523.246zm2.078-.353c.112.137.224.236.333.307.108.067.216.1.324.1a.35.35 0 0 0 .249-.088.282.282 0 0 0 .1-.22.314.314 0 0 0-.083-.228c-.058-.05-.183-.108-.383-.162-.27-.08-.465-.18-.577-.304-.112-.129-.166-.299-.166-.515 0-.287.087-.515.266-.694.174-.179.407-.266.69-.266.153 0 .298.02.436.062.132.046.265.113.386.2l-.237.582a1.013 1.013 0 0 0-.262-.179.72.72 0 0 0-.27-.058.342.342 0 0 0-.22.07.215.215 0 0 0-.087.18c0 .07.025.132.075.174.05.045.145.087.29.128l.034.013c.307.087.51.183.606.29.067.071.117.163.15.263.037.1.054.212.054.336 0 .316-.096.57-.29.757-.192.19-.454.286-.774.286-.195 0-.37-.033-.528-.104a1.488 1.488 0 0 1-.457-.328z" fill="#fff"/></g><defs><clipPath id="a"><path fill="#fff" d="M0 0h40v40H0z"/></clipPath></defs></svg>