<svg width="40" height="40" fill="none" xmlns="http://www.w3.org/2000/svg"><g clip-path="url(#a)" transform="matrix(1.4 0 0 1.4 -7.997 -7.997)"><path fill-rule="evenodd" clip-rule="evenodd" d="M19.991 10c5.518 0 9.992 4.473 9.992 9.991s-4.474 9.992-9.992 9.992c-5.518 0-9.991-4.474-9.991-9.992C10 14.473 14.473 10 19.991 10Z" fill="url(#b)" style="fill:url(#b)"/><path fill-rule="evenodd" clip-rule="evenodd" d="M20.062 12.445c4.202 0 7.608 3.401 7.608 7.597 0 4.196-3.406 7.597-7.608 7.597-4.201 0-7.608-3.401-7.608-7.597 0-4.196 3.407-7.597 7.608-7.597z" fill="#037dc1"/><path d="M20.016 12.324c2.13 0 4.058.86 5.454 2.252a7.649 7.649 0 0 1 2.26 5.435 7.65 7.65 0 0 1-2.26 5.435 7.703 7.703 0 0 1-5.454 2.252c-2.13 0-4.059-.86-5.455-2.252a7.65 7.65 0 0 1-2.26-5.435 7.65 7.65 0 0 1 2.26-5.435 7.703 7.703 0 0 1 5.455-2.252zm5.282 2.422a7.46 7.46 0 0 0-5.282-2.18 7.46 7.46 0 0 0-5.283 2.18 7.41 7.41 0 0 0-2.188 5.265 7.41 7.41 0 0 0 2.188 5.265 7.46 7.46 0 0 0 5.283 2.18 7.46 7.46 0 0 0 5.282-2.18 7.41 7.41 0 0 0 2.188-5.265 7.41 7.41 0 0 0-2.188-5.265z" fill="#04356a"/><path fill-rule="evenodd" clip-rule="evenodd" d="M19.983 13.11c2.9 0 5.252 1.546 5.252 3.452 0 1.907-2.351 3.452-5.252 3.452s-5.253-1.545-5.253-3.452c0-1.906 2.352-3.451 5.253-3.451z" fill="url(#c)" style="fill:url(#c)"/><path fill-rule="evenodd" clip-rule="evenodd" d="M18.293 19.697s1.53-2.18 1.66-2.382c.143-.201.12-.379.06-.474-.095-.166-.344-.177-.534-.13-.166.036-1.02.403-1.78.984-.77.604-1.625 1.48-2.004 1.954-.202.261-.297.19-.214-.012.32-.663 1.175-1.883 1.637-2.405.605-.687 1.15-1.22 1.958-1.682 1.115-.652 1.886-.272 2.182-.036.665.534.51 1.481.57 1.493.225.012 1.163.142 1.578.593.617.675.462 1.504.462 1.504s.19.012.285.024c.273.047 1.032.201 1.376.9.64 1.316-.77 2.619-1.388 3.08-1.186.89-3.143 1.66-3.464 1.743-.546.13-.415-.012-.26-.095 1.482-.818 2.028-1.28 2.396-1.612.557-.497 1.47-1.599 1.233-2.085-.166-.331-.45-.379-.878-.32-.605.083-2.728 1.233-2.811 1.304-.083.07-1.495 2.31-1.625 2.488-.143.201-.202.201-.309.035-.06-.106-.356-.651-.83-.853-.51-.213-1.65.047-1.839.107-.332.095-.356-.012-.19-.095.13-.071 2.029-.806 2.397-.96.355-.154 2.111-.817 2.23-.912.19-.154 1.518-2.097 1.66-2.37a.588.588 0 0 0-.035-.651c-.19-.213-.486-.13-.64-.095-.12.024-2.587 1.043-2.73 1.185-.13.118-1.612 2.5-1.684 2.583-.07.083-.118.13-.201-.06-.048-.118-.404-.687-.878-.864-.451-.178-1.732.094-1.898.154-.19.059-.261-.036-.095-.107.332-.166 1.672-.71 2.194-.912.51-.225 2.409-1.02 2.409-1.02zm7.426-1.529v-.793h-.771a.77.77 0 1 0 0 1.54c.415 0 .76-.332.771-.747zm-2.076-2.109v-.781h-.771a.769.769 0 1 0 0 1.54.76.76 0 0 0 .77-.759z" fill="#fff"/></g><defs><radialGradient id="b" cx="0" cy="0" r="1" gradientUnits="userSpaceOnUse" gradientTransform="translate(19.991 19.991) scale(9.99133)"><stop stop-color="#C5C6C7"/><stop offset=".678" stop-color="#F0F0F0"/><stop offset="1" stop-color="#CACBCB"/></radialGradient><linearGradient id="c" x1="19.983" y1="13.111" x2="19.983" y2="18.748" gradientUnits="userSpaceOnUse"><stop stop-color="#D0E0F4"/><stop offset=".569" stop-color="#6AAFDB"/><stop offset="1" stop-color="#037DC1"/></linearGradient><clipPath id="a"><path fill="#fff" transform="translate(10 10)" d="M0 0h20v20H0z"/></clipPath></defs></svg>