<svg width="40" height="40" fill="none" xmlns="http://www.w3.org/2000/svg"><path fill-rule="evenodd" clip-rule="evenodd" d="m17.665 6.069-.121-.01a.7.7 0 0 0-.594.34L15.095 9.49l-3.721 1.24-.117.052a.7.7 0 0 0-.362.613v4.395l-1.382 3.456-.03.09-.633 2.535-.018.108c-.01.109.006.219.047.321l1.205 3.012.05.102a.7.7 0 0 0 .34.288l3.221 1.288-1.264 5.055-.019.12a.7.7 0 0 0 .385.676l2.017 1.009.11.044a.7.7 0 0 0 .463-.02l3.208-1.284 2.652 1.326.1.041c.07.022.141.033.213.033h3.87l.108-.008a.697.697 0 0 0 .205-.066l2.265-1.132.111-.07a.7.7 0 0 0 .276-.556v-2.933l-.005-.089a.702.702 0 0 0-.045-.171l-1.342-3.356-.708-2.119 4.476-1.918.104-.056a.7.7 0 0 0 .32-.587v-6.327l-.013-.136a.7.7 0 0 0-.104-.252l-1.283-1.924V9.78l-.009-.11a.7.7 0 0 0-.196-.385l-1.589-1.589-.1-.083a.7.7 0 0 0-.616-.086l-3.79 1.263-1.941-1.941-.083-.07a.7.7 0 0 0-.297-.126zm.948 2.996 1.437.239 2.383 2.384a.7.7 0 0 0 .716.169l3.79-1.264.055.055.001 2.278a.7.7 0 0 0 .118.388l1.28 1.923v4.307l-4.977 2.134a.7.7 0 0 0-.388.864l1.33 3.986 1.236 3.098v1.234l-.661.33h-2.877l-3.052-1.526a.7.7 0 0 0-.573-.024l-2.793 1.116 1.218-4.865a.7.7 0 0 0-.42-.82l-4.088-1.635-.617-1.545.435-1.741 1.48-3.695a.703.703 0 0 0 .05-.26l-.002-3.287 3.023-1.007a.7.7 0 0 0 .38-.305z" fill="#fff" style="stroke-width:1.4"/></svg>