<svg width="40" height="40" fill="none" xmlns="http://www.w3.org/2000/svg"><g clip-path="url(#a)" transform="matrix(1.4 0 0 1.4 -8 -7.833)"><g clip-path="url(#b)" fill="#f1594a"><path d="M10 18.375c.162.001.325.004.487.002.04 0 .061.012.08.047.048.091.1.18.15.27.011.002.015-.005.019-.01a.882.882 0 0 1 .658-.371c.183-.02.364-.004.54.06.2.072.364.194.486.37.016.023.023.035.045.002.172-.258.42-.389.723-.427.24-.03.476-.012.698.093.33.155.507.422.565.776.012.069.014.138.014.208l.001 1.532c0 .029-.007.038-.036.038a49.729 49.729 0 0 0-.67 0c-.041 0-.034-.024-.034-.048v-1.286a.84.84 0 0 0-.053-.318.462.462 0 0 0-.426-.307c-.278-.02-.485.096-.584.32a.76.76 0 0 0-.058.313v1.268c.001.046-.01.059-.057.058-.208-.003-.415 0-.623-.001-.07 0-.063.006-.063-.061v-1.259a.88.88 0 0 0-.05-.328.463.463 0 0 0-.423-.31c-.184-.015-.352.026-.484.163a.598.598 0 0 0-.161.432c-.002.437-.001.873 0 1.31 0 .04-.008.055-.052.054-.214-.002-.428-.001-.641 0-.017 0-.034 0-.051.002v-2.592zM26.849 17l.075.02c.215.066.36.29.328.51a.462.462 0 0 1-.455.419.463.463 0 0 1-.486-.41.472.472 0 0 1 .382-.531c.006-.001.011-.005.016-.008h.14zM17.68 18.378l-.352.653c-.556 1.031-1.113 2.061-1.668 3.093-.017.03-.035.042-.07.042-.253-.002-.505-.001-.758-.001-.003-.02.01-.03.017-.044l.847-1.523c.02-.035.022-.06.002-.097-.381-.691-.76-1.384-1.14-2.076l-.02-.042c.017-.01.032-.005.047-.005.248 0 .496.001.743-.001.037 0 .055.013.071.044l.705 1.32.025.045c.02-.01.023-.03.031-.046l.684-1.32c.015-.03.032-.043.067-.043.24.002.48.001.72.001h.05zM18.644 18.698c.051-.064.094-.119.147-.165a.955.955 0 0 1 .646-.227c.334-.003.624.1.846.36.167.194.241.427.243.68.005.526.002 1.052.003 1.578 0 .035-.012.04-.043.04-.22 0-.44-.001-.66.001-.037 0-.042-.013-.042-.046l.001-1.3a.856.856 0 0 0-.045-.287.47.47 0 0 0-.435-.327c-.277-.016-.485.099-.584.323a.795.795 0 0 0-.057.326c0 .418-.001.836.001 1.254 0 .048-.013.058-.06.057a34.252 34.252 0 0 0-.64 0c-.035 0-.045-.009-.045-.044v-2.498c0-.04.013-.046.048-.045h.632c.038-.001.046.012.045.047-.002.086-.001.172-.001.273zM27.595 19.677c.006-.378.113-.711.383-.98.221-.22.493-.332.798-.368.278-.032.546.002.8.128.16.08.294.192.407.332.02.025.018.038-.006.059-.156.127-.31.256-.464.386-.023.02-.035.017-.055-.003a.686.686 0 0 0-.4-.226.599.599 0 0 0-.694.446.795.795 0 0 0 .011.48c.124.365.516.52.87.345a.747.747 0 0 0 .221-.167c.02-.02.031-.024.055-.004.153.133.307.265.462.396.025.02.02.032.003.054a1.21 1.21 0 0 1-.75.443c-.378.066-.738.013-1.065-.198-.31-.2-.483-.492-.55-.851a1.86 1.86 0 0 1-.026-.272zM24.883 18.648c.051-.046.095-.094.145-.135a.894.894 0 0 1 .496-.2c.191-.018.38-.005.562.066.028.01.035.019.02.048-.108.195-.213.39-.318.587-.014.027-.029.033-.058.027a.947.947 0 0 0-.392-.013.521.521 0 0 0-.422.47c-.007.055-.01.11-.01.166l.001 1.25c0 .038-.006.052-.05.051-.215-.002-.43-.002-.645 0-.037 0-.05-.007-.05-.047v-2.494c0-.035.008-.047.046-.047.21.002.42.002.631 0 .04 0 .046.013.045.048-.003.074 0 .148 0 .223zM27.155 19.672l.001 1.245c0 .038-.01.048-.048.048a39.145 39.145 0 0 0-.65 0c-.037 0-.046-.01-.046-.046V18.42c0-.035.009-.044.044-.044.218.002.436.002.654 0 .037 0 .046.01.046.047v1.248zM23.608 18.438v-.027c.002-.024-.01-.029-.03-.029h-.66c-.025 0-.032.008-.032.032v.193h-.008l-.041-.038a.887.887 0 0 0-.313-.194 1.192 1.192 0 0 0-1.337.42c-.25.336-.32.718-.26 1.126.087.59.531 1.066 1.146 1.105.295.019.56-.053.779-.265.008-.009.015-.023.034-.022 0 .062.002.122 0 .182-.002.035.01.044.044.044.208-.002.415-.003.623 0 .045 0 .055-.012.055-.056v-2.47zm-.73 1.454a.593.593 0 0 1-.596.446.6.6 0 0 1-.609-.527.79.79 0 0 1 .06-.47c.115-.237.349-.36.63-.334.246.024.45.201.516.45a.814.814 0 0 1-.002.435z"/></g></g><defs><clipPath id="a"><path fill="#fff" d="M0 0h40v40H0z"/></clipPath><clipPath id="b"><path fill="#fff" transform="translate(10 17)" d="M0 0h20v5.166H0z"/></clipPath></defs></svg>