<svg width="41" height="40" fill="none" xmlns="http://www.w3.org/2000/svg"><g clip-path="url(#a)" transform="matrix(1.4 0 0 1.4 -8.4 -8.116)"><g clip-path="url(#b)" fill="#fff"><path d="M19.864 16.245 23.752 14 31 26.554c-.1.008-.17.02-.24.02-1.571 0-3.142-.003-4.713.004-.166 0-.254-.05-.337-.195-1.893-3.288-3.791-6.573-5.689-9.859-.05-.086-.098-.174-.157-.279zM19.313 18.27l4.787 8.287c-.103.008-.165.016-.227.016-1.58.001-3.16 0-4.739.003-.137 0-.23-.025-.308-.158-1.117-1.946-2.24-3.89-3.362-5.834-.008-.014-.007-.032-.019-.081l3.868-2.233zM14.887 22.546l2.326 4.027h-.29c-1.553 0-3.106-.002-4.658.004-.172.001-.271-.045-.358-.204-.287-.525-.595-1.04-.907-1.58l3.887-2.247z"/></g></g><defs><clipPath id="a"><path fill="#fff" transform="translate(.878)" d="M0 0h40v40H0z"/></clipPath><clipPath id="b"><path fill="#fff" transform="translate(11 14)" d="M0 0h20v12.578H0z"/></clipPath></defs></svg>