<svg width="40" height="40" fill="none" xmlns="http://www.w3.org/2000/svg"><path fill-rule="evenodd" clip-rule="evenodd" d="M32.985 18.375v2.382l-1.995-2.382h-1.515v3.244h1.032v-2.36l1.995 2.36H34v-3.244zM28.744 18.948a.75.75 0 0 0-.379-.452 1.521 1.521 0 0 0-.491-.138c-.234-.015-.466-.032-.7-.023h-1.2a4.671 4.671 0 0 0-.83.049 1.158 1.158 0 0 0-.442.159.766.766 0 0 0-.32.442c-.05.194-.073.387-.073.581v.902c0 .185.015.37.072.538.081.266.28.477.547.555.193.058.393.09.595.09.153.008.307.008.46.008H27.174c.266.009.538-.008.804-.04.17-.023.33-.081.468-.17a.772.772 0 0 0 .312-.443c.05-.176.073-.37.067-.555v-.908a1.729 1.729 0 0 0-.081-.595zm-.951 1.35c-.009.09-.015.17-.046.242a.39.39 0 0 1-.243.235 1.272 1.272 0 0 1-.298.063c-.104.009-.208.009-.306.009h-.651a2.23 2.23 0 0 1-.46-.035.597.597 0 0 1-.243-.086.424.424 0 0 1-.159-.226.956.956 0 0 1-.04-.275l.009-.523c0-.08.014-.159.04-.24a.392.392 0 0 1 .24-.243 1.18 1.18 0 0 1 .275-.063c.113-.009.225-.009.338-.009h.651c.153-.009.306.009.46.032.089.008.167.04.24.09.08.054.138.135.161.225.023.095.032.185.032.28v.524z" fill="#fff" style="stroke-width:1.4"/><path fill="#fff" style="stroke-width:1.4" d="M6 22.07h27.983v.57H6zM6 17.36h27.983v.564H6z"/><path fill-rule="evenodd" clip-rule="evenodd" d="M23.615 19.879c.04-.177.058-.362.04-.538 0-.154-.022-.298-.072-.443a.678.678 0 0 0-.419-.41 1.675 1.675 0 0 0-.538-.104c-.112-.009-.225-.009-.338-.009h-2.677v3.244h1.018v-.83h1.529c.072 0 .153.009.234.018.05.005.09.031.13.054a.252.252 0 0 1 .073.113c.014.05.023.104.014.153v.492h1.024v-.7a.58.58 0 0 0-.145-.37.6.6 0 0 0-.315-.194c-.023-.008-.04-.008-.064-.017a.648.648 0 0 0 .312-.153.578.578 0 0 0 .194-.307zm-1.014-.12a.278.278 0 0 1-.064.12.233.233 0 0 1-.122.08 1.104 1.104 0 0 1-.159.018H20.63v-.798h1.627c.055 0 .119.008.177.032.08.026.136.08.162.153.014.058.031.121.023.185a.583.583 0 0 1-.017.21zM17.567 21.619v-2.455h1.4v-.789H15.14v.79h1.403v2.454zM13.196 18.375h-.645l-1.818 3.244h1.101l.33-.54H14.202l.32.54h1.12l-1.787-3.244zm0 1.923h-.645l.636-1.151.009.015.642 1.136zM10.354 18.922a.882.882 0 0 0-.483-.42 2.272 2.272 0 0 0-.717-.127H6.063v3.244H9.3c.21.009.41-.023.612-.09a.796.796 0 0 0 .498-.532c.031-.136.057-.28.049-.416v-1.119a1.244 1.244 0 0 0-.104-.54zm-.911.806v.57c0 .09-.015.185-.046.266a.448.448 0 0 1-.252.217c-.104.031-.217.049-.33.049H7.094v-1.66H8.689c.135 0 .271.017.41.058.104.032.19.095.263.185.05.072.072.162.081.257v.058z" fill="#fff" style="stroke-width:1.4"/></svg>