<svg width="40" height="40" fill="none" xmlns="http://www.w3.org/2000/svg"><g clip-path="url(#a)" transform="matrix(1.4 0 0 1.4 -7.988 -7.988)"><mask id="b" mask-type="alpha" maskUnits="userSpaceOnUse" x="10" y="12" width="21" height="16"><path fill="#fff" d="M10 12.094h20v15.812H10z"/></mask><g mask="url(#b)"><path fill-rule="evenodd" clip-rule="evenodd" d="M13.106 12.094h.028c.864 2.608 1.727 5.216 2.592 7.823.097.279.166.577.343.82.136.175.383.119.577.132.405-.016.815.034 1.219-.023.166-.228.092-.533.114-.796-.019-.397.045-.806-.057-1.192-.217-.236-.511-.383-.736-.609-.518-.512-.873-1.226-.835-1.966.01-1.007.697-1.96 1.645-2.297 1.045-.387 2.361-.054 3 .885.689 1.002.555 2.502-.333 3.343-.262.315-.875.379-.844.877-.024.426-.015.854-.011 1.28.01.162-.008.35.116.475.476.085.98.033 1.438.21.54.185.962.586 1.372.965 1.035.92 1.949 1.962 2.92 2.947.351.343.676.754 1.154.925.54.187 1.147.241 1.694.046.582-.195 1.055-.619 1.437-1.088v.8c-.038.472-.023.948-.08 1.418-.634.548-1.506.754-2.326.777-1.145-.031-2.137-.74-2.913-1.527-.709-.76-1.488-1.452-2.196-2.213-.343-.356-.677-.737-1.112-.982-.336-.191-.732-.218-1.109-.218-3.4-.024-6.802-.05-10.203-.059 1.042-3.582 2.045-7.177 3.106-10.753z" fill="#fff"/></g></g><defs><clipPath id="a"><path fill="#fff" d="M0 0h40v40H0z"/></clipPath></defs></svg>