<svg width="40" height="40" fill="none" xmlns="http://www.w3.org/2000/svg"><g clip-path="url(#a)" transform="matrix(1.4 0 0 1.4 -7.993 -7.992)"><mask id="b" mask-type="alpha" maskUnits="userSpaceOnUse" x="10" y="18" width="20" height="4"><path fill="#fff" d="M10 18.779h20v2.441H10z"/></mask><g mask="url(#b)"><path fill-rule="evenodd" clip-rule="evenodd" d="M11.819 19.945a1.331 1.331 0 0 1-.386.551.784.784 0 0 1-.496.19c-.11 0-.189-.025-.236-.08-.032-.031-.048-.07-.063-.134l-.292.71H10l.772-1.906h.338l-.079.204a.95.95 0 0 1 .182-.141.608.608 0 0 1 .315-.095c.157 0 .267.055.33.173.063.126.047.3-.04.528zm-.52-.386a.434.434 0 0 0-.338.181 1.17 1.17 0 0 0-.134.244c-.063.158-.063.268-.008.331.031.04.086.055.157.055.103 0 .19-.04.276-.118a.875.875 0 0 0 .205-.307.51.51 0 0 0 .04-.276c-.032-.07-.088-.11-.198-.11zm1.882-.772-.118.292c-.016 0-.055-.008-.095-.008-.047 0-.086.008-.11.031a.217.217 0 0 0-.055.071 1.728 1.728 0 0 1-.047.118h.236l-.102.252h-.237l-.448 1.095h-.355l.441-1.095h-.197l.103-.252h.197l.04-.086a.656.656 0 0 1 .196-.3c.086-.078.228-.125.425-.125h.063c.008.007.032.007.063.007zm.992.725a.582.582 0 0 1-.008.283c-.015.063-.047.15-.094.268h-.937c-.047.134-.047.236.016.291a.222.222 0 0 0 .157.056.39.39 0 0 0 .307-.158h.362a.722.722 0 0 1-.228.244.903.903 0 0 1-.567.197c-.173 0-.307-.055-.394-.165-.086-.11-.078-.292.024-.544.095-.236.228-.417.402-.543a.91.91 0 0 1 .543-.189c.11 0 .205.024.283.063.063.032.11.102.134.197zm-.937.315h.551c.032-.095.032-.166 0-.213-.031-.047-.086-.07-.165-.07a.33.33 0 0 0-.22.078.555.555 0 0 0-.166.205zm2.181-.575-.15.362c-.023 0-.039-.008-.054-.008h-.04a.451.451 0 0 0-.346.142.952.952 0 0 0-.142.244l-.26.654h-.362l.551-1.362h.339l-.095.236a1.69 1.69 0 0 1 .22-.19.548.548 0 0 1 .292-.086h.016c.008 0 .016.008.031.008zm1.008.197.26-.654h.362l-.748 1.843h-.346l.079-.19a.879.879 0 0 1-.245.174.583.583 0 0 1-.267.055c-.158 0-.268-.063-.323-.197-.055-.126-.047-.291.04-.496.094-.236.22-.417.385-.55a.776.776 0 0 1 .512-.198c.079 0 .15.016.197.055a.326.326 0 0 1 .094.158zm-.205.527c.071-.165.071-.283.016-.354-.031-.04-.086-.063-.157-.063a.382.382 0 0 0-.276.118.847.847 0 0 0-.189.292c-.047.126-.063.228-.047.299.016.079.079.11.181.11s.189-.04.276-.11a.731.731 0 0 0 .197-.292zm1.93-.464a.582.582 0 0 1-.008.283c-.016.063-.047.15-.095.268h-.937c-.047.134-.047.236.016.291a.222.222 0 0 0 .157.056.391.391 0 0 0 .308-.158h.362a.723.723 0 0 1-.229.244.903.903 0 0 1-.567.197c-.173 0-.307-.055-.393-.165-.087-.11-.079-.292.023-.544.095-.236.229-.417.402-.543a.91.91 0 0 1 .543-.189c.11 0 .205.024.284.063.063.032.11.102.134.197zm-.937.315h.55c.032-.095.032-.166 0-.213-.03-.047-.086-.07-.165-.07a.33.33 0 0 0-.22.078.644.644 0 0 0-.165.205zm2.031-.551h.354l-.189.984.615-.984h.37l-.945 1.362h-.37l.189-.992-.615.992h-.37l.166-1.362h.386l-.19.984zm2.323.236a.582.582 0 0 1-.008.283c-.016.063-.047.15-.094.268h-.93c-.047.134-.047.236.016.291a.222.222 0 0 0 .158.056.391.391 0 0 0 .307-.158h.362a.723.723 0 0 1-.228.244.903.903 0 0 1-.567.197c-.174 0-.307-.055-.394-.165-.087-.11-.079-.292.024-.544.094-.236.228-.417.401-.543a.91.91 0 0 1 .543-.189c.11 0 .205.024.284.063.055.032.102.102.126.197zm-.937.315h.551c.032-.095.032-.166 0-.213-.031-.047-.087-.07-.165-.07a.33.33 0 0 0-.22.078.555.555 0 0 0-.166.205zm1.134-.284.102-.252h.19l.157-.378h.354l-.158.378h.22l-.101.252h-.22l-.292.717c-.024.055-.032.094-.024.102.008.016.047.024.118.024h.071l-.11.268-.173.007c-.174.008-.276-.023-.307-.086-.024-.04-.016-.102.015-.19l.339-.834zm.85 0 .102-.252h.19l.157-.378h.354l-.157.378h.22l-.102.252h-.22l-.292.717c-.024.055-.031.094-.024.102.008.016.048.024.119.024h.07l-.11.268-.173.007c-.173.008-.276-.023-.307-.086-.024-.04-.016-.102.016-.19l.338-.834zm2.079-.031a.582.582 0 0 1-.008.283c-.016.063-.047.15-.094.268h-.93c-.047.134-.047.236.016.291a.222.222 0 0 0 .158.056.391.391 0 0 0 .307-.158h.362a.721.721 0 0 1-.228.244.903.903 0 0 1-.567.197c-.174 0-.307-.055-.394-.165-.087-.11-.079-.292.024-.544.094-.236.228-.417.401-.543a.91.91 0 0 1 .543-.189c.11 0 .205.024.284.063.055.032.102.102.126.197zm-.937.315h.551c.032-.095.032-.166 0-.213-.031-.047-.086-.07-.165-.07a.33.33 0 0 0-.22.078.555.555 0 0 0-.166.205zm2.44-.103-.37.914h-.361l.33-.827a.405.405 0 0 0 .04-.165c-.008-.071-.056-.103-.158-.103a.396.396 0 0 0-.307.158.734.734 0 0 0-.118.205l-.3.74h-.354l.552-1.362h.346l-.079.196c.071-.07.142-.118.19-.15a.604.604 0 0 1 .314-.078c.142 0 .244.04.3.11.047.071.039.19-.024.362zm.103.544h.378l-.15.37h-.377zm1.921-.82.26-.653h.362l-.74 1.843h-.346l.079-.19a.879.879 0 0 1-.244.174.583.583 0 0 1-.268.055c-.158 0-.268-.063-.323-.197-.055-.126-.047-.291.04-.496a1.31 1.31 0 0 1 .385-.55.775.775 0 0 1 .512-.198c.079 0 .15.016.197.055.04.048.07.095.086.158zm-.204.528c.07-.165.07-.283.016-.354-.032-.04-.087-.063-.158-.063a.382.382 0 0 0-.276.118.85.85 0 0 0-.189.292c-.047.126-.063.228-.047.299.016.079.079.11.181.11.103 0 .19-.04.276-.11a.659.659 0 0 0 .197-.292zm1.937-.464a.583.583 0 0 1-.008.283c-.016.063-.047.15-.095.268h-.929c-.047.134-.047.236.016.291a.222.222 0 0 0 .158.056.39.39 0 0 0 .307-.158h.362a.722.722 0 0 1-.229.244.903.903 0 0 1-.567.197c-.173 0-.307-.055-.393-.165-.087-.11-.079-.292.023-.544.095-.236.229-.417.402-.543a.91.91 0 0 1 .543-.189c.11 0 .205.024.284.063.055.032.102.102.126.197zm-.937.315h.55c.032-.095.032-.166 0-.213-.03-.047-.086-.07-.164-.07a.33.33 0 0 0-.22.078.555.555 0 0 0-.166.205z" fill="#fff"/></g></g><defs><clipPath id="a"><path fill="#fff" d="M0 0h40v40H0z"/></clipPath></defs></svg>