<svg width="40" height="40" fill="none" xmlns="http://www.w3.org/2000/svg"><g clip-path="url(#a)" transform="matrix(1.4 0 0 1.4 -8 -8)"><mask id="b" mask-type="alpha" maskUnits="userSpaceOnUse" x="24" y="17" width="3" height="6"><path fill-rule="evenodd" clip-rule="evenodd" d="M24.542 17.623a2.39 2.39 0 0 1 2.174.993h-.456a2.381 2.381 0 0 0-1.718-.993Zm1.718 3.76c-.39.55-1.01.927-1.718.994a2.383 2.383 0 0 0 2.174-.993z" fill="#fff"/></mask><g mask="url(#b)"><path fill-rule="evenodd" clip-rule="evenodd" d="M24.542 22.377A2.386 2.386 0 0 0 27.158 20a2.386 2.386 0 0 0-2.616-2.377 2.388 2.388 0 0 1 0 4.754z" fill="#009b49"/></g><mask id="c" mask-type="alpha" maskUnits="userSpaceOnUse" x="25" y="17" width="4" height="6"><path fill-rule="evenodd" clip-rule="evenodd" d="M28.136 18.616h-.457a2.382 2.382 0 0 0-1.717-.993 2.386 2.386 0 0 1 2.174.993zm.188 2.457a2.395 2.395 0 0 0 .138-1.81h-.138zm-.645.31c-.39.55-1.009.927-1.717.994a2.382 2.382 0 0 0 2.174-.993h-.447z" fill="#fff"/></mask><g mask="url(#c)"><path fill-rule="evenodd" clip-rule="evenodd" d="M25.965 22.377A2.386 2.386 0 0 0 28.58 20a2.386 2.386 0 0 0-2.617-2.377 2.388 2.388 0 0 1 0 4.754z" fill="#3db375"/></g><path fill-rule="evenodd" clip-rule="evenodd" d="M27.384 22.377A2.386 2.386 0 0 0 30 20a2.386 2.386 0 0 0-2.616-2.377 2.388 2.388 0 0 1 0 4.754z" fill="#78ca9f"/><path fill-rule="evenodd" clip-rule="evenodd" d="M28.224 19.163v2.12h-.534v-2.12h-.773v-.446h2.082v.446zM22.517 21.284v-2.567h.536v2.12h1.258v.447zM19.408 20.852a.667.667 0 0 1-.2.257.957.957 0 0 1-.331.17c-.131.04-.285.061-.46.061-.14 0-.277-.018-.41-.051a1.041 1.041 0 0 1-.35-.165.797.797 0 0 1-.323-.672h.516a.492.492 0 0 0 .049.213.449.449 0 0 0 .13.154.6.6 0 0 0 .188.087.912.912 0 0 0 .385.016.525.525 0 0 0 .167-.052.387.387 0 0 0 .134-.105.275.275 0 0 0 .054-.172.24.24 0 0 0-.072-.182.566.566 0 0 0-.18-.113 2.068 2.068 0 0 0-.25-.077l-.276-.072a2.528 2.528 0 0 1-.28-.09.913.913 0 0 1-.241-.133.656.656 0 0 1-.172-.203.611.611 0 0 1-.065-.295.676.676 0 0 1 .3-.58.959.959 0 0 1 .306-.144c.116-.031.229-.047.344-.047.134 0 .262.016.385.047.123.03.231.077.326.143a.71.71 0 0 1 .224.255c.053.097.08.218.082.359h-.516a.49.49 0 0 0-.049-.185.322.322 0 0 0-.116-.126.496.496 0 0 0-.161-.064.939.939 0 0 0-.198-.018.659.659 0 0 0-.141.016.371.371 0 0 0-.229.148.274.274 0 0 0-.038.15c0 .053.01.097.03.133a.28.28 0 0 0 .121.095c.06.028.139.054.24.082.1.026.23.062.392.103.049.012.115.028.2.051a.939.939 0 0 1 .252.12.753.753 0 0 1 .213.219c.059.09.09.205.09.349a.845.845 0 0 1-.07.318zM16.484 21.284l-1.073-1.74h-.033v1.74h-.498v-2.567h.536l1.079 1.745h.033v-1.745h.498v2.567zM12.598 21.284v-2.567h1.897v.446h-1.363v.59h1.25v.411h-1.25v.673h1.391v.447zM11.612 21.284v-1.122h-1.078v1.122H10v-2.567h.534v.998h1.078v-.998h.537v2.567zM26.735 20.506c-.049.159-.12.295-.216.408a.97.97 0 0 1-.36.27 1.198 1.198 0 0 1-.508.097h-1.096v-2.564h1.096c.165 0 .319.025.46.08a.974.974 0 0 1 .367.235c.103.106.185.237.241.396.06.159.088.344.088.56 0 .187-.023.359-.072.518zm-.5-.824a.728.728 0 0 0-.13-.277.57.57 0 0 0-.235-.178.93.93 0 0 0-.36-.061h-.42v1.674h.523a.715.715 0 0 0 .244-.042.57.57 0 0 0 .213-.136.716.716 0 0 0 .149-.249 1.12 1.12 0 0 0 .056-.37 1.673 1.673 0 0 0-.04-.361zM22.09 20.537a1.243 1.243 0 0 1-.245.423 1.15 1.15 0 0 1-.393.282c-.154.07-.331.103-.53.103-.194 0-.371-.033-.525-.103a1.101 1.101 0 0 1-.393-.282c-.108-.12-.19-.26-.247-.423a1.58 1.58 0 0 1-.084-.524c0-.193.028-.372.084-.537.057-.164.14-.308.247-.428.108-.121.239-.218.393-.288.156-.07.33-.105.526-.105.198 0 .375.036.529.105.154.07.285.164.392.288.108.123.19.264.247.428.056.165.085.344.085.537.002.185-.026.36-.085.524zm-.484-.86a.928.928 0 0 0-.123-.293.614.614 0 0 0-.224-.205.674.674 0 0 0-.334-.077.675.675 0 0 0-.333.077.636.636 0 0 0-.224.205.882.882 0 0 0-.123.293 1.451 1.451 0 0 0 0 .66c.026.105.067.2.123.284.057.085.131.154.224.203a.676.676 0 0 0 .334.077.63.63 0 0 0 .557-.28.886.886 0 0 0 .123-.285 1.435 1.435 0 0 0 0-.66z" fill="#fff"/></g><defs><clipPath id="a"><path fill="#fff" d="M0 0h40v40H0z"/></clipPath></defs></svg>