<svg width="40" height="40" fill="none" xmlns="http://www.w3.org/2000/svg"><g clip-path="url(#a)" transform="matrix(1.4 0 0 1.4 -8 -8)"><path fill-rule="evenodd" clip-rule="evenodd" d="M24.805 10.686c-1.14.001-2.363.28-3.564.833 1.35.055 2.576.534 3.48 1.448 2.468 2.494 1.666 7.358-1.798 10.858a11.79 11.79 0 0 1-3.43 2.415c2.337.097 5.081-1.045 7.277-3.264 3.465-3.5 4.266-8.347 1.798-10.841-.967-.978-2.299-1.451-3.763-1.45zm-4.747 3.064c-2.234.053-4.77 1.184-6.828 3.264-3.465 3.5-4.266 8.365-1.798 10.858 1.719 1.738 4.565 1.864 7.31.6-1.35-.056-2.56-.536-3.463-1.449-2.468-2.493-1.667-7.34 1.798-10.841a11.847 11.847 0 0 1 3.43-2.432 6.948 6.948 0 0 0-.449 0zm-.066 3.564c-1.466 0-2.648 1.2-2.648 2.681s1.182 2.681 2.648 2.681c1.465 0 2.664-1.2 2.664-2.68a2.677 2.677 0 0 0-2.664-2.682z" fill="#0f68b3"/></g><defs><clipPath id="a"><path fill="#fff" d="M0 0h40v40H0z"/></clipPath></defs></svg>