<svg width="40" height="40" fill="none" xmlns="http://www.w3.org/2000/svg"><g clip-path="url(#a)" transform="matrix(1.4 0 0 1.4 -8 -8)" fill-rule="evenodd" clip-rule="evenodd"><path d="M20.656 10.38a14.42 14.42 0 0 0-3.273-.38h-5.98v20h5.98c1.085 0 2.169-.135 3.254-.404L12.731 20" fill="#042046"/><path d="M27.599 15.452c-.665-1.262-1.536-2.299-2.612-3.108a10.847 10.847 0 0 0-1.978-1.18L15.73 20l7.234 8.781a11.308 11.308 0 0 0 2.023-1.224 9.378 9.378 0 0 0 2.612-3.108c.665-1.253 1-2.736 1-4.45 0-1.77-.335-3.286-1-4.547" fill="#c6b187"/></g><defs><clipPath id="a"><path fill="#fff" d="M0 0h40v40H0z"/></clipPath></defs></svg>