<svg width="40" height="40" fill="none" xmlns="http://www.w3.org/2000/svg"><g clip-path="url(#a)" transform="matrix(1.4 0 0 1.4 -7.985 -7.944)"><mask id="b" mask-type="alpha" maskUnits="userSpaceOnUse" x="10" y="10" width="20" height="20"><path fill="#fff" d="M10 10.188h20v19.623H10z"/></mask><g mask="url(#b)"><circle cx="12.555" cy="12.744" r="2.555" fill="url(#c)" style="fill:url(#c)"/><path fill-rule="evenodd" clip-rule="evenodd" d="M29.925 11.253H15.712c.528 1.046.524 2.04 0 2.98h14.213z" fill="url(#d)" style="fill:url(#d)"/><path fill-rule="evenodd" clip-rule="evenodd" d="M26.185 14.234h3.74L21.65 29.533h-3.74z" fill="url(#e)" style="fill:url(#e)"/><path fill-rule="evenodd" clip-rule="evenodd" d="M10.602 16.999h3.74l7.308 12.534h-3.74z" fill="url(#f)" style="fill:url(#f)"/></g></g><defs><linearGradient id="d" x1="12.355" y1="11.253" x2="12.355" y2="15.152" gradientUnits="userSpaceOnUse"><stop stop-color="#001C44"/><stop offset=".26" stop-color="#3A506F"/><stop offset=".5" stop-color="#fff"/><stop offset=".68" stop-color="#495D79"/><stop offset=".84" stop-color="#001C44"/><stop offset="1" stop-color="#1A5AB5"/></linearGradient><linearGradient id="e" x1="20.257" y1="7.66" x2="6.111" y2="24.829" gradientUnits="userSpaceOnUse"><stop stop-color="#001C44"/><stop offset=".21" stop-color="#fff"/><stop offset=".53" stop-color="#405573"/><stop offset=".84" stop-color="#001C44"/><stop offset=".86" stop-color="#0C3979"/><stop offset=".89" stop-color="#1651A5"/><stop offset="1" stop-color="#1A5AB5"/></linearGradient><linearGradient id="f" x1="17.847" y1="29.671" x2="21.805" y2="27.84" gradientUnits="userSpaceOnUse"><stop stop-color="#001C44"/><stop offset=".26" stop-color="#3A506F"/><stop offset=".5" stop-color="#fff"/><stop offset=".68" stop-color="#495D79"/><stop offset=".84" stop-color="#001C44"/><stop offset="1" stop-color="#1A5AB5"/></linearGradient><radialGradient id="c" cx="0" cy="0" r="1" gradientUnits="userSpaceOnUse" gradientTransform="rotate(62.879 -2.638 15.72) scale(2.73739)"><stop stop-color="#fff"/><stop offset="1" stop-color="#001C44"/></radialGradient><clipPath id="a"><path fill="#fff" d="M0 0h40v40H0z"/></clipPath></defs></svg>