<svg width="40" height="40" fill="none" xmlns="http://www.w3.org/2000/svg"><g clip-path="url(#a)" transform="matrix(1.4 0 0 1.4 -8 -7.99)"><g clip-path="url(#b)" fill="#d43832"><path d="M10 17.377c.039-.042.025-.096.033-.144.09-.533.383-.783.927-.787.426-.003.852 0 1.278 0h3.333c.725 0 .969.2 1.104.91.03.155.053.31.05.468-.01.404-.21.651-.61.705-.346.047-.696.065-1.045.093-.177.014-.354.027-.531.032-.089.003-.113.032-.097.119.338 1.896 1.01 3.63 2.453 4.982.715.67 1.554 1.111 2.537 1.238.92.118 1.782-.084 2.591-.525.9-.49 1.601-1.198 2.207-2.01.548-.732.971-1.537 1.358-2.361.124-.266.257-.527.432-.764.187-.253.432-.336.735-.268.169.038.334.083.488.163a.678.678 0 0 1 .392.605c.02.398-.098.769-.22 1.138-.512 1.556-1.245 2.993-2.32 4.242-.9 1.043-1.963 1.867-3.264 2.36a5.88 5.88 0 0 1-1.412.347c-.034.004-.072-.002-.099.029h-1.187c-.208-.034-.42-.029-.629-.076a5.944 5.944 0 0 1-2.284-1.062 8.138 8.138 0 0 1-2-2.202c-.85-1.348-1.381-2.822-1.742-4.364-.093-.4-.18-.8-.24-1.205-.019-.125-.074-.177-.2-.165-.329.03-.658.038-.985.073-.639.068-1.056-.333-1.038-.876 0-.02 0-.04-.015-.056v-.64ZM28.241 12c.97.003 1.76.795 1.759 1.762a1.77 1.77 0 0 1-1.778 1.759 1.771 1.771 0 0 1-1.75-1.772c.005-.966.8-1.752 1.77-1.749z"/></g></g><defs><clipPath id="a"><path fill="#fff" d="M0 0h40v40H0z"/></clipPath><clipPath id="b"><path fill="#fff" transform="translate(10 12)" d="M0 0h20v15.949H0z"/></clipPath></defs></svg>