<svg width="40" height="40" fill="none" xmlns="http://www.w3.org/2000/svg"><g clip-path="url(#a)" transform="matrix(1.4 0 0 1.4 -8 -7.918)"><g clip-path="url(#b)"><path d="M25.72 16.581c-.36.505-.688 1.026-.924 1.602-.43 1.053-.363 2.073.168 3.076.445.838 1.038 1.557 1.71 2.217l.384.381c-.027.199.026.391.067.58.022.104.011.164-.08.21-1.293-.78-2.487-1.663-3.267-3-.616-1.056-.661-2.128-.116-3.22.455-.913 1.091-1.688 1.844-2.371.235.109.126.357.213.525zM17.274 13.613c.666.776 1.378 1.5 2.308 1.966.923.461 1.87.454 2.828.102.266-.098.54-.176.81-.263.03.158.18.13.281.175.152.066.34.05.454.202-.843.516-1.716.944-2.723 1.053-1.236.134-2.267-.268-3.144-1.114-.659-.635-1.14-1.394-1.538-2.21.252-.059.475.117.724.089zM25.132 25.655c-.65-.402-1.29-.822-2.037-1.033-1.398-.394-2.687-.176-3.859.692-.069.051-.139.1-.208.15l-.867-.002c.442-.634.953-1.201 1.632-1.589 1.217-.695 2.458-.64 3.685-.046.763.368 1.412.907 2.018 1.496.066.064.139.123.209.184-.197.029-.41-.008-.573.148z" fill="#fff"/><path d="M17.169 20.874c0-.764.68-1.395 1.5-1.392.736.004 1.36.59 1.361 1.277 0 .761-.69 1.38-1.542 1.38-.741 0-1.32-.555-1.32-1.265z" fill="#60728e"/><path d="M15.765 15.531c.094.485.132.964.116 1.468-.047 1.458-1.011 2.026-2.2 2.388-.764.233-1.547.19-2.323.02-.014-.103.102-.15.105-.245.853-.093 1.694-.207 2.462-.649.94-.54 1.42-1.338 1.47-2.408.006-.137.004-.275.006-.412l.364-.162zM23.956 15.795c-.114-.152-.303-.136-.454-.203-.101-.044-.25-.016-.281-.174.493-.218 1.002-.398 1.48-.65.418-.222.824-.461 1.22-.722.074-.05.16-.171.26-.035.1.138-.06.148-.115.2a13.101 13.101 0 0 1-2.11 1.584zM27.045 24.647c.091-.046.102-.106.08-.209-.04-.19-.094-.381-.067-.58a29.81 29.81 0 0 0 1.949 1.501c.326.227.654.45.992.683-.152.093-.25-.014-.354-.058-.847-.357-1.67-.76-2.46-1.232-.05-.03-.093-.07-.14-.105zM18.161 25.462l.867.002c-.333.31-.662.622-.958.97-.45.53-.816 1.114-1.156 1.718-.083.148-.161.298-.263.438.126-.454.306-.888.499-1.317.284-.632.59-1.253 1.011-1.81zM25.72 16.581c-.088-.168.02-.416-.214-.525.342-.374.735-.69 1.13-1.002.7-.552 1.411-1.086 2.181-1.538l-.003-.004c-.142.265-.414.393-.63.577-.856.728-1.666 1.5-2.357 2.387-.03.039-.071.07-.108.105zM17.274 13.613c-.249.028-.472-.148-.725-.09-.377-.668-.612-1.396-.88-2.11A1.331 1.331 0 0 1 15.57 11c.091.16.183.321.273.482.419.75.922 1.441 1.43 2.13zM25.132 25.655c.163-.156.376-.12.572-.148.46.359.845.796 1.234 1.226.285.315.6.603.846.953l.004-.004c-.032-.007-.073-.006-.094-.024a40.195 40.195 0 0 0-2.562-2.003Z" fill="#fff"/><path d="m15.765 15.531-.364.163c-.104-.843-.204-1.686-.453-2.502-.031-.104-.118-.192-.098-.315.088-.02.095.057.12.1.368.642.546 1.35.7 2.064.034.16.14.313.095.49zM11.463 19.162c-.003.096-.12.143-.105.246-.482-.034-.918-.228-1.358-.423l1.463.177z" fill="#fff"/><path d="M28.969 13.408c-.021.08-.07.117-.154.104l.003.003.155-.103z" fill="#60728e"/><path d="m28.973 13.412.11-.044-.003-.004-.11.045.003.003zM27.837 27.738c.01.013.02.024.028.038.001.003-.005.01-.008.016l-.016-.058z" fill="#60728e"/><path d="m29.083 13.367.004-.017-.008.014.004.003zM27.841 27.734c-.036.001-.057-.013-.053-.052l-.004.003.053.052.004-.003z" fill="#60728e"/></g></g><defs><clipPath id="a"><path fill="#fff" d="M0 0h40v40H0z"/></clipPath><clipPath id="b"><path fill="#fff" transform="translate(10 11)" d="M0 0h20v17.59H0z"/></clipPath></defs></svg>