<svg width="40" height="40" fill="none" xmlns="http://www.w3.org/2000/svg"><g clip-path="url(#a)" transform="matrix(1.4 0 0 1.4 -7.984 -7.996)"><mask id="b" mask-type="alpha" maskUnits="userSpaceOnUse" x="11" y="10" width="18" height="20"><path fill="#fff" d="M11.839 10h16.322v20H11.839z"/></mask><g mask="url(#b)" fill-rule="evenodd" clip-rule="evenodd" fill="#7a2e27"><path d="M16.182 12.857c-.35-1.039-.037-2.28.94-2.852.234 1.052-.062 2.186-.94 2.852zM22.899 10c.924.6 1.333 1.871.853 2.883-.761-.745-1.21-1.832-.853-2.883ZM15.115 14.216c-.814-.975-.952-2.439-.177-3.48a3.2 3.2 0 0 1 .177 3.48zM25.032 10.798c.763.862.662 2.232.042 3.145-.449.115-.502-.387-.582-.702-.172-.848.02-1.749.54-2.443zM19.858 11.92c.409-.074.46.388.53.682.051.577.074 1.334-.519 1.649-.354-.738-.46-1.605-.011-2.331zM12.828 12.577c1.329.625 2.046 2.324 1.55 3.706-1.208-.805-1.84-2.278-1.55-3.706zM18.244 15.995c-.52-.947-.81-2.312-.05-3.195.953.65.723 2.055.482 3.04l-.432.156zM21.315 13.43c.145-.216.218-.614.545-.605.582.984.628 2.561-.39 3.27-.346-.838-.555-1.81-.155-2.665zM25.602 16.255c-.47-1.377.228-3.106 1.598-3.664.214 1.404-.375 2.901-1.598 3.664zM16.416 14.94c.124.01.373.03.497.042.871.813 1.306 1.995 1.085 3.179-1.2-.584-1.685-1.956-1.582-3.22zM23.173 15.034c.36-.296.448.279.397.536a3.3 3.3 0 0 1-.777 2.055c-.237.198-.487.538-.834.412-.104-1.108.246-2.361 1.214-3.003zM11.84 15.602c1.553.127 2.751 1.57 2.933 3.065-1.525-.25-2.697-1.561-2.934-3.065zM25.198 18.69c.168-1.534 1.356-2.858 2.885-3.13-.025 1.596-1.405 2.81-2.885 3.13zM18.442 20.474c-1.393-.325-2.658-1.49-2.706-2.982 1.423.283 2.625 1.501 2.706 2.982zM21.485 20.476c.232-1.448 1.354-2.667 2.802-2.954-.119 1.487-1.317 2.775-2.802 2.954zM12.161 18.782c1.662-.21 3.313.675 4.094 2.147-1.602.292-3.597-.497-4.094-2.147zM23.754 20.943c.729-1.495 2.474-2.421 4.12-2.102-.637 1.57-2.497 2.389-4.12 2.102zM13.81 22.05c1.137-.593 2.544-.632 3.691-.043.28.152.637.296.685.657-1.377.81-3.253.492-4.377-.613zM21.665 22.634c1.11-1.117 2.979-1.393 4.351-.618-.096.506-.657.644-1.062.83a3.908 3.908 0 0 1-3.29-.212zM18.906 22.607c.743.076 1.49.083 2.232.005a60.614 60.614 0 0 0 .002 7.367 14.24 14.24 0 0 0-2.257-.011c.143-2.45.099-4.908.023-7.361z"/></g></g><defs><clipPath id="a"><path fill="#fff" d="M0 0h40v40H0z"/></clipPath></defs></svg>