<svg width="40" height="40" fill="none" xmlns="http://www.w3.org/2000/svg"><g clip-path="url(#a)" transform="matrix(1.4 0 0 1.4 -8 -8)"><mask id="b" mask-type="alpha" maskUnits="userSpaceOnUse" x="10" y="14" width="20" height="12"><path fill="#fff" d="M10 14.681h20v10.638H10z"/></mask><g mask="url(#b)" fill-rule="evenodd" clip-rule="evenodd"><path d="M11.446 14.68h14.726L24.754 20H10.03Z" fill="#20419a"/><path d="M26.138 14.68h3.86c-.477 1.751-.94 3.505-1.413 5.257h-3.828l-.003-.064a.123.123 0 0 0 .047-.14l-.004-.033a40.1 40.1 0 0 0 .042-.096l.01-.071c.007-.025.024-.075.033-.1l.014-.068.03-.1-.003-.03a.118.118 0 0 0 .049-.14l-.004-.033.043-.095a4.36 4.36 0 0 0 .009-.072l.032-.1.016-.067c.006-.025.02-.076.028-.1v-.03a.121.121 0 0 0 .047-.141l-.005-.032.044-.096.01-.07.03-.1-.002-.03a.12.12 0 0 0 .05-.14l-.005-.034.042-.096.01-.07.032-.1.015-.069.03-.1-.003-.03c.049-.035.065-.082.049-.14l-.004-.033.043-.096.008-.07.033-.1.016-.067.027-.102v-.03a.122.122 0 0 0 .048-.14l-.005-.033.044-.096.008-.07.034-.1a5.78 5.78 0 0 1 .014-.072l.033-.1-.006-.031.042-.095.009-.071.033-.1.015-.07.03-.1-.003-.03c.049-.035.065-.081.049-.14l-.004-.031.042-.096.01-.071.032-.1.013-.067.033-.1.052-.199.026-.102.021-.078.03-.053zm1.334 1.267c-.264.158-.546.283-.826.409-.062.032-.14.056-.165.13-.061.145-.1.3-.125.455-.023.064.049.124.109.108.27-.025.51-.163.757-.266-.138.611-.326 1.21-.477 1.818a.594.594 0 0 0 .006.16c.261.01.523.014.785.003.114.003.174-.11.197-.207.223-.852.457-1.702.677-2.554.039-.15-.146-.148-.244-.143-.23.017-.489-.05-.694.087z" fill="#f58220"/><path d="M12.002 22.77c.344-.352.87-.492 1.349-.407.33.063.62.255.84.506l-.29.189c-.352-.423-1.023-.516-1.471-.198-.494.341-.6 1.07-.323 1.58.156.292.455.502.783.545.34.053.693-.062.947-.29-.004-.194-.003-.388-.003-.581h-.99v-.33l1.346-.001v1.043a1.62 1.62 0 0 1-1.08.493h-.095c-.405-.02-.81-.185-1.074-.5-.485-.57-.469-1.513.061-2.05zM19.718 22.37c.455-.088.961.02 1.3.348.564.544.59 1.536.079 2.124-.515.59-1.54.622-2.088.061-.445-.46-.522-1.2-.265-1.773a1.34 1.34 0 0 1 .974-.76zm-.003.33c-.346.094-.605.4-.689.741-.104.41-.047.886.236 1.214.39.453 1.201.446 1.565-.038.37-.494.344-1.283-.117-1.712-.265-.24-.658-.301-.995-.205zM15.434 22.387c.386.001.772-.003 1.158.001a.943.943 0 0 1 .623.22c.313.276.357.786.136 1.13-.132.208-.37.317-.608.354.26.387.514.776.773 1.163-.142.006-.284.01-.425.01-.238-.382-.488-.756-.728-1.137-.191-.003-.383-.002-.574-.002v1.142h-.355zm.368 1.422c.292-.009.586.017.877-.014.3-.038.495-.361.432-.649a.521.521 0 0 0-.477-.434c-.277-.019-.554-.003-.832-.008v1.105zM22.67 22.387h.355c.002.594-.003 1.189.003 1.783 0 .29.124.608.4.74.278.13.63.124.894-.039.23-.15.323-.436.326-.7.005-.594 0-1.19.002-1.784h.356c-.002.58.002 1.161-.002 1.742-.001.32-.083.66-.324.886-.269.255-.665.314-1.021.279-.296-.026-.596-.154-.772-.4-.164-.219-.215-.498-.217-.766-.002-.58 0-1.16 0-1.741zM26.351 22.387c.392.002.785-.004 1.178.002.243.003.494.087.66.27.284.313.29.84.014 1.16a.882.882 0 0 1-.636.29c-.287.01-.573 0-.86.005v1.142l-.356.012v-2.881zm.369.317v1.092c.31-.012.625.028.932-.03.273-.056.434-.36.376-.624a.526.526 0 0 0-.502-.433c-.269-.013-.538-.001-.806-.005z" fill="#20419a"/><path d="M10 20.965h19.296v.368H10v-.368z" fill="#f58220"/><path d="M23.117 15.845c.386-.016.813.004 1.133.247.269.201.342.563.312.88-.052.532-.25 1.083-.677 1.427-.41.332-.963.416-1.475.384-.327-.02-.68-.115-.893-.38-.227-.291-.229-.688-.172-1.036.086-.43.286-.853.632-1.13.32-.26.735-.373 1.14-.392zm-.085.47c-.274.02-.55.117-.747.315-.231.228-.339.55-.384.865-.026.194-.012.411.113.571.126.163.337.228.534.248.334.033.694-.033.955-.254.28-.235.413-.6.455-.954.026-.22-.011-.476-.192-.626-.202-.168-.483-.183-.734-.166zM11.587 18.768l2.03-2.906h.598l.774 2.906c-.194 0-.388 0-.582.002-.076-.262-.144-.527-.219-.79-.38.002-.761.001-1.142.002.11-.156.22-.31.326-.467.23-.006.46-.002.69-.003-.093-.347-.185-.694-.279-1.04-.536.765-1.065 1.536-1.604 2.3-.197-.005-.395-.003-.592-.003zM15.789 15.862h.596c-.15.562-.299 1.125-.45 1.687-.043.177-.085.377.01.545.089.152.274.207.439.222.266.022.557-.007.775-.177.16-.12.25-.309.3-.498.164-.593.325-1.186.488-1.78h.584c-.165.614-.324 1.229-.492 1.841-.087.332-.28.646-.575.83-.382.243-.854.283-1.295.247-.282-.027-.593-.111-.764-.356-.17-.248-.138-.57-.072-.846.15-.572.304-1.144.456-1.715zM18.937 15.862h2.412l-.127.47h-.9c-.216.81-.434 1.621-.646 2.433-.195.005-.391.003-.586.003.215-.812.43-1.624.647-2.436-.31-.002-.618 0-.927 0l.127-.47zM27.472 15.947c.205-.138.463-.07.694-.087.098-.005.283-.007.244.143-.22.852-.454 1.702-.677 2.555-.023.097-.083.21-.197.206a9.627 9.627 0 0 1-.785-.004.589.589 0 0 1-.006-.16c.151-.607.34-1.206.477-1.817-.246.103-.486.241-.757.266-.06.016-.132-.044-.108-.108.024-.155.063-.31.124-.456.024-.073.103-.097.165-.13.28-.125.562-.25.826-.408z" fill="#fff"/></g></g><defs><clipPath id="a"><path fill="#fff" d="M0 0h40v40H0z"/></clipPath></defs></svg>