<svg width="40" height="40" fill="none" xmlns="http://www.w3.org/2000/svg"><path fill-rule="evenodd" clip-rule="evenodd" d="M20.102 6c-.502 0-.804.1-1.205.1-4.014 3.814-8.029 9.234-8.029 14.051 0 6.021 3.714 9.132 5.72 10.437l.302-.301c-.702-.602-1.404-1.004-2.609-3.111-.602-1.104-1.004-2.51-1.105-4.115-.401-7.728 6.022-13.548 11.04-16.459A14.078 14.078 0 0 0 20.102 6Zm-6.926 1.807s-.301.2-.703.401C8.76 10.315 6.05 14.932 6.05 20.051A13.92 13.92 0 0 0 20 34c7.928 0 13.95-6.222 13.95-13.95 0-.702 0-1.405-.1-2.107-1.305-.2-2.81-.401-4.215-.401-9.032 0-11.943 5.219-11.943 8.13 0 1.505.301 2.608.603 3.21l.3-.2c-.2-.602-.3-1.104-.3-1.706a5.183 5.183 0 0 1 5.218-5.219 5.183 5.183 0 0 1 5.219 5.219c0 1.405-.603 2.81-1.606 3.813-1.104 1.104-2.51 1.606-3.914 1.907-2.71.502-5.62.201-8.028-1.204a14.029 14.029 0 0 1-2.71-2.108c-2.91-2.91-4.416-7.225-3.914-11.34.301-2.81 1.505-5.62 3.11-7.928 1.004-1.405 1.807-2.008 1.807-2.008zM28.73 9.111c-11.14 2.911-13.75 10.237-13.65 14.553a8.853 8.853 0 0 0 2.31 6.02l.3-.3c-.2-.301-1.204-1.806-1.204-4.316.1-8.129 8.43-11.54 15.355-12.644-.903-1.205-1.906-2.41-3.11-3.313Z" fill="#fff" style="stroke-width:1.4"/></svg>