<svg width="40" height="40" fill="none" xmlns="http://www.w3.org/2000/svg"><g clip-path="url(#a)" transform="matrix(1.4 0 0 1.4 -8 -7.86)"><g clip-path="url(#b)" fill="#3a76b8"><path d="M16.101 16.494 16.1 13.55c0-.074.015-.098.094-.098 1.007.004 2.014.001 3.02.009.33.002.653.06.966.168.69.236 1.108.722 1.289 1.421.076.295.111.596.112.9.004 1.17.002 2.341.004 3.512 0 .067-.024.076-.082.076-.567-.002-1.135-.003-1.702 0-.076.001-.097-.018-.097-.095.003-1.11.002-2.22.002-3.33 0-.15 0-.3-.034-.447-.086-.366-.303-.55-.68-.572-.316-.02-.633-.005-.95-.012-.082-.002-.063.05-.063.094v4.23c0 .02-.002.04 0 .058.009.06-.017.074-.074.074-.576-.002-1.152-.003-1.727.001-.077 0-.077-.034-.077-.09v-2.954zM10 17.096c0-.069.003-.138.003-.208v-3.43c.191-.002.383-.005.575-.005.403 0 .806.002 1.21-.002.07 0 .086.02.086.088-.002 1.123-.002 2.247-.002 3.37 0 .159.008.316.048.471.078.305.267.474.58.517.282.038.567.012.85.019.058.002.117-.004.175.002.069.007.082-.022.081-.085v-3.404c0-.297 0-.595-.002-.892 0-.063.011-.086.08-.086.574.003 1.146.003 1.72 0 .056 0 .075.014.075.074-.002 1.98-.002 3.96 0 5.94 0 .06-.02.072-.076.072-1.001-.003-2.002.004-3.003-.008-.502-.007-.989-.103-1.428-.366-.475-.284-.736-.719-.868-1.242a3.806 3.806 0 0 1-.104-.825ZM25.628 24.338c0-.576-.004-1.152.001-1.727.003-.326.042-.649.133-.963.227-.775.749-1.231 1.524-1.415a4.19 4.19 0 0 1 .976-.102c.55 0 1.101.002 1.652-.002.07 0 .086.02.086.088a96.02 96.02 0 0 0 0 1.46c0 .079-.025.09-.094.09-.517-.003-1.035-.001-1.552-.001a1.3 1.3 0 0 0-.338.042c-.302.08-.44.298-.489.59a2.57 2.57 0 0 0-.026.424c0 1.107-.001 2.213.001 3.32 0 .065-.018.078-.079.078-.57-.002-1.14-.003-1.71 0-.07 0-.088-.02-.088-.088.003-.598.002-1.196.002-1.794zM22.206 16.496c0-.985 0-1.969-.002-2.953 0-.075.02-.092.092-.092.567.003 1.135.003 1.702 0 .071 0 .086.022.086.09v5.905c0 .076-.02.092-.092.092a140.57 140.57 0 0 0-1.694 0c-.079 0-.094-.024-.094-.098.002-.982.002-1.963.002-2.944zM23.155 11.002c.284 0 .567.001.85-.002.065 0 .08.019.08.08a163.72 163.72 0 0 0 0 1.567c0 .068-.022.082-.086.082-.57-.002-1.14-.002-1.709 0-.07 0-.087-.02-.086-.088.003-.52.003-1.04 0-1.56 0-.067.021-.081.084-.08.29.002.578 0 .867 0zM18.591 21.986c-.196-.689-.615-1.205-1.268-1.518-.49-.235-1.014-.328-1.552-.333-.895-.009-1.79-.002-2.686-.006-.08 0-.1.02-.1.1.003 1.33.002 2.658.002 3.988 0 1.329 0 2.658-.002 3.987 0 .078.022.095.097.095.559-.003 1.118-.004 1.677 0 .089.002.102-.026.102-.106-.003-.631-.001-1.262-.004-1.894 0-.066.02-.083.084-.082.206.004.412.003.617.001.438-.004.872-.039 1.294-.161.884-.257 1.484-.811 1.74-1.701a4.238 4.238 0 0 0 0-2.37zm-1.84 1.81c-.116.43-.408.666-.838.742-.333.06-.67.027-1.006.036-.062.002-.048-.04-.048-.073v-1.326c0-.439.001-.878-.001-1.317 0-.066.011-.092.084-.09.3.01.601-.018.899.03.563.09.835.344.945.9a2.38 2.38 0 0 1-.034 1.098zM24.992 21.922c-.274-.935-.861-1.557-1.812-1.811a3.934 3.934 0 0 0-1.84-.042c-.917.192-1.581.706-1.93 1.583-.34.857-.351 1.74-.13 2.627.16.643.503 1.17 1.063 1.54.39.258.823.394 1.282.46.675.096 1.335.054 1.978-.186a3.008 3.008 0 0 0 1.087-.678c.024-.023.06-.04.016-.084-.342-.342-.682-.686-1.022-1.03-.03-.031-.049-.032-.08-.002-.088.081-.187.15-.291.208-.414.232-.855.278-1.316.2-.431-.072-.722-.308-.848-.734-.028-.098-.03-.098.077-.098H23.97c.36 0 .718-.002 1.077.001.061 0 .083-.016.083-.077 0-.105.01-.211.012-.316.013-.527 0-1.05-.15-1.561zm-1.835.662c-.33-.005-.661-.002-.992-.002h-.975c-.102 0-.103 0-.089-.1.022-.163.065-.32.139-.468.172-.345.475-.47.838-.49.148-.008.294.003.439.037.375.087.573.345.67.7.02.074.032.15.05.227.015.068.002.097-.08.096z"/></g></g><defs><clipPath id="a"><path fill="#fff" d="M0 0h40v40H0z"/></clipPath><clipPath id="b"><path fill="#fff" transform="translate(10 11)" d="M0 0h20v17.3H0z"/></clipPath></defs></svg>