<svg width="40" height="40" fill="none" xmlns="http://www.w3.org/2000/svg"><path fill-rule="evenodd" clip-rule="evenodd" d="M10.129 23.788c3.23.558 6.521.849 9.872.849 3.35 0 6.64-.291 9.812-.85l.06.256A46.772 46.772 0 0 1 20 25.094c-3.41 0-6.701-.362-9.872-1.05z" fill="#fff" style="stroke-width:1.4"/><path fill-rule="evenodd" clip-rule="evenodd" d="M34 25.323a66.665 66.665 0 0 1-14 1.487c-4.846 0-9.513-.513-14-1.487l.06-.255A75.406 75.406 0 0 0 20 26.353c4.727 0 9.393-.44 13.94-1.285zM25.864 22.811a30.818 30.818 0 0 1-5.864.567c-2.034 0-4.008-.195-5.923-.567l.06-.256c1.915.241 3.83.366 5.863.366 1.975 0 3.89-.125 5.864-.366zM17.367 16.37c0-1.476.957-2.392 2.094-2.392s2.094.902 2.094 2.128h-.12c0-1-.778-1.742-1.735-1.742-.957 0-1.735.735-1.735 2.015v5.026h-.598z" fill="#fff" style="stroke-width:1.4"/><path fill-rule="evenodd" clip-rule="evenodd" d="M17.367 14.736c.42-.692 1.197-1.147 2.095-1.147 1.376 0 2.512.995 2.512 2.782v5.034h.599V16.33c0-1.984-1.317-3.14-2.812-3.14a2.87 2.87 0 0 0-2.513 1.493z" fill="#fff" style="stroke-width:1.4"/></svg>