<svg width="40" height="40" fill="none" xmlns="http://www.w3.org/2000/svg"><g clip-path="url(#a)" transform="matrix(1.4 0 0 1.4 -8 -7.91)"><g clip-path="url(#b)" fill-rule="evenodd" clip-rule="evenodd"><path d="M10.006 25.546h19.988V14H10.006Z" fill="#00583f"/><path d="M25.364 16.51c-.483.093-.725.13-1.06.372-.297.204-.52.428-.706.744-.725 1.208-.688 3.347.297 4.462 1.19 1.339 4.556 1.116 4.351-2.789-.056-.818-.316-1.543-.78-2.064-.41-.446-1.247-.874-2.102-.725ZM13.688 22.72c.185.037.595 0 .8 0 .427.019.408.037.501-.335.242-1.078.595-2.417.781-3.477.037-.111.093-.669.112-.725.074.112.074.577.093.781.037.26.074.502.13.763.056.334.502 2.882.613 2.974.093.056.707.02.856.02.446.018.39-.02.502-.41.427-1.58 1.004-3.254 1.45-4.834.056-.242.223-.614.149-.707-.112-.074-1.116-.204-1.302-.167-.13.167-.242.874-.297 1.134-.168.781-.372 1.618-.484 2.399-.056.316-.093 1.19-.167 1.283-.112-1.562-.298-2.12-.558-3.57l-.167-.874c-.019-.093-.019-.205-.093-.26-.112-.056-1.19-.038-1.358 0-.111.148-.427 1.896-.502 2.268-.167.855-.279 1.525-.334 2.436-.056-.075-.149-1.135-.168-1.246-.111-.781-.297-1.655-.446-2.417-.074-.335-.111-.893-.279-1.153-.316-.019-.725.056-1.06.093-.483.056-.371.056-.223.613l1.172 4.519c.055.223.148.762.279.892z" fill="#fdfdfd"/><path d="M24.713 19.634c0 .8 0 1.97.949 1.99.967 0 .985-1.172.985-1.99 0-.781-.037-1.934-.948-1.934-.948-.019-.986 1.078-.986 1.934z" fill="#00583f"/><path d="M21.218 16.715c-1.525.26-1.097 2.472.372 2.23.91-.148 1.283-1.394.502-1.989-.205-.167-.502-.316-.874-.241z" fill="#b20818"/><path d="M22.52 21.753c0-.67-.447-1.19-1.079-1.208-.65-.019-1.153.446-1.171 1.078-.019.688.409 1.153 1.078 1.19.595.037 1.171-.52 1.171-1.06z" fill="#931018"/><path d="M23.672 25.416c.335.037.316-.056.28-.204v-.019c-.02-.112.092-.186-.28-.149z" fill="#477768"/></g></g><defs><clipPath id="a"><path fill="#fff" d="M0 0h40v40H0z"/></clipPath><clipPath id="b"><path fill="#fff" transform="translate(10 14)" d="M0 0h20v11.546H0z"/></clipPath></defs></svg>