<svg width="40" height="40" fill="none" xmlns="http://www.w3.org/2000/svg"><g clip-path="url(#a)" transform="matrix(1.4 0 0 1.4 -8 -8)"><mask id="b" mask-type="alpha" maskUnits="userSpaceOnUse" x="10" y="10" width="20" height="20"><path fill="#fff" d="M10 10.105h20v19.789H10z"/></mask><g mask="url(#b)"><path fill-rule="evenodd" clip-rule="evenodd" d="M10 25.552a4.347 4.347 0 0 1 4.342-4.342h.075l2.444-3.76a4.337 4.337 0 0 1-1.203-3.002A4.347 4.347 0 0 1 20 10.105a4.347 4.347 0 0 1 4.342 4.343 4.341 4.341 0 0 1-1.228 3.027l2.42 3.735h.124A4.347 4.347 0 0 1 30 25.552a4.347 4.347 0 0 1-4.342 4.342 4.35 4.35 0 0 1-4.231-3.35H18.56a4.337 4.337 0 0 1-8.56-.993zm11.427-.968a4.335 4.335 0 0 1 2.121-2.829l-2.084-3.213A4.423 4.423 0 0 1 20 18.79c-.533 0-1.03-.099-1.501-.273l-2.085 3.214a4.327 4.327 0 0 1 2.16 2.853zm-5.72-2.518c.1.099.757.632.496.856-.124.111-.744-.41-1.34-.447 0 0-.26-.012-.322-.012a3.166 3.166 0 0 0-3.164 2.903s-.074 1.067-.161 1.29c-.211.521-.695-.161-.695-1.067 0-2.097 1.563-3.747 3.548-3.908.348-.025.484-.062.484-.062.596-.124 2.568-4.008 3.052-4.305.298-.186-.21 1.29-.682 2.035-.385.72-1.092 1.86-1.266 2.431 0-.025-.074.162.05.286zm1.315-8.102a3.187 3.187 0 0 1 3.14-2.63c.222 0 .433.024.644.062l.82.149c.359.074.632.086.669-.025.05-.174-.273-.968-2.134-.968a3.96 3.96 0 0 0-3.958 3.958c0 .918.422 1.575.583 1.042.075-.26.15-1.042.236-1.588zm6.898 8.263c.186-.112.273-.372.124-.645-.645-1.191-.967-1.638-1.042-1.824 0 0-.186-.62.248-.236.36.31 1.216 1.588 1.415 1.787.174.173.36.459.72.459.16 0 .322-.025.483-.025 1.861 0 1.998.707 1.96.881-.062.223-.992-.124-1.96-.124-1.575 0-2.953 1.203-3.213 2.705-.037.223-.112.384-.248.409-.249.05-.683.012-1.018 0-1.352-.012-2.481-.161-2.717-.223 0 0-.62-.186-.062-.335.46-.124 2.655-.087 2.928-.112.161-.012.447.013.46-.112.111-1.054.855-2.047 1.922-2.605z" fill="#d13239"/></g></g><defs><clipPath id="a"><path fill="#fff" d="M0 0h40v40H0z"/></clipPath></defs></svg>