<svg width="40" height="40" fill="none" xmlns="http://www.w3.org/2000/svg"><mask id="a" mask-type="alpha" maskUnits="userSpaceOnUse" x="10" y="17" width="20" height="6"><path fill="#fff" d="M10 17.308h20v5.385H10z"/></mask><g mask="url(#a)" transform="matrix(1.4 0 0 1.4 -8 -8)"><mask id="b" mask-type="alpha" maskUnits="userSpaceOnUse" x="9" y="16" width="22" height="8"><path fill-rule="evenodd" clip-rule="evenodd" d="M9.555 16.802h21.307v6.548H9.555Z" fill="#fff"/></mask><g mask="url(#b)"><mask id="c" mask-type="alpha" maskUnits="userSpaceOnUse" x="6" y="-3" width="85" height="120"><path fill-rule="evenodd" clip-rule="evenodd" d="M6.08-2.143h84.093V116.72H6.079Z" fill="#fff"/></mask><g mask="url(#c)"><mask id="d" mask-type="alpha" maskUnits="userSpaceOnUse" x="6" y="-3" width="85" height="120"><path fill-rule="evenodd" clip-rule="evenodd" d="M6.08-2.146h84.087v118.857H6.08Z" fill="#fff"/></mask><g mask="url(#d)" fill-rule="evenodd" clip-rule="evenodd"><path d="M10 17.308H26.54v5.384H10Z" fill="#214185"/><path d="M18.2 21.013H16.99v-2.395h-.515v2.766h2.116l.209-.61h1.192l.213.61h.489l-.98-2.766h-.628Zm-5.09-.85v1.22h.515v-2.765h-.515v1.177h-1.285v-1.177h-.516v2.766h.516v-1.22zm3.099 1.22v-2.765h-.516v1.177h-1.285v-1.177h-.516v2.766h.516v-1.22h1.285v1.22zm2.716-2.998h.953l1.144 3.23h-.983l-.21-.61h-.863l-.207.61h-3.298v-1.218h-.82v1.218h-1.764v-1.218h-.82v1.218h-.98v-3.23h.98v1.177h.82v-1.178h1.763v1.178h.82v-1.178h1.764v2.397h.814zm-.037 2.036.51-1.422.509 1.422zm.724-.198-.214-.627-.215.627z" fill="#fffeff"/><path d="M29.308 17.308H30v5.384h-.692z" fill="#bdbdbd"/><path d="M27.23 17.308h1.385v5.384H27.23Z" fill="#c6003d"/></g></g></g></g></svg>