<svg width="40" height="40" fill="none" xmlns="http://www.w3.org/2000/svg"><g clip-path="url(#a)" transform="matrix(1.4 0 0 1.4 -7.943 -7.943)"><path fill-rule="evenodd" clip-rule="evenodd" d="m14.363 10.49-.368.104c-.626.179-.94.268-1.391.268h-.02c-.006.001-.638.025-1.125-.233l-.416-.22-1.186 2.941.28.195c.005.003.5.353.882 1.127.3.608.453 1.31.453 2.087-.008.15-.13 2.236-.693 4.424-.607 2.358-.614 3.183-.614 3.216 0 .043.06 4.277 5.266 4.277.023 0 .747.01 1.693-.224.509-.127.99-.13.994-.13.03.001.824.022 1.41.752l.33.413.331-.413c.585-.73 1.38-.75 1.413-.751.001 0 .481.002.99.129.946.234 1.67.225 1.7.224 5.2 0 5.26-4.234 5.26-4.276 0-.034-.007-.859-.615-3.217a25.154 25.154 0 0 1-.693-4.424c0-.777.153-1.48.453-2.087.382-.773.877-1.124.882-1.127l.278-.193-.124-.315-1.06-2.628-.416.22c-.487.258-1.119.234-1.125.234h-.02c-.451 0-.765-.09-1.39-.27l-.368-.104a7.455 7.455 0 0 0-1.811-.263c-1.7 0-3.108.9-3.685 1.332-.577-.431-1.984-1.332-3.685-1.332-.035 0-.881.003-1.81.263z" fill="#000"/><path fill-rule="evenodd" clip-rule="evenodd" d="m14.419 10.694-.366.103c-.625.179-.969.277-1.45.277-.017 0-.704.028-1.244-.258l-.208-.11-1.035 2.568.14.096c.006.004.542.378.952 1.208.316.639.476 1.375.476 2.187-.001.011-.112 2.188-.7 4.471-.601 2.332-.608 3.13-.608 3.163 0 .041.058 4.065 5.054 4.065.026 0 .723.01 1.642-.218a4.969 4.969 0 0 1 1.045-.135c.036 0 .922.016 1.575.83l.165.207.166-.207a2.182 2.182 0 0 1 1.576-.83c.004 0 .507.002 1.044.135a7.006 7.006 0 0 0 1.645.218c4.993 0 5.05-4.024 5.05-4.065 0-.032-.006-.831-.607-3.163-.588-2.283-.7-4.46-.7-4.481 0-.802.16-1.538.475-2.177.41-.83.946-1.204.952-1.207l.14-.097-.063-.158-.972-2.41-.208.11c-.54.286-1.227.259-1.234.259-.49 0-.835-.099-1.46-.277l-.366-.104a7.22 7.22 0 0 0-1.753-.256c-1.787 0-3.241 1.035-3.685 1.387-.443-.352-1.898-1.387-3.685-1.387a7.21 7.21 0 0 0-1.753.255z" fill="#fff"/><path fill-rule="evenodd" clip-rule="evenodd" d="M28.316 14.484c.443-.898 1.022-1.289 1.022-1.289l-.884-2.191c-.6.318-1.343.283-1.343.283-.6 0-.99-.142-1.873-.39-.883-.247-1.696-.247-1.696-.247-2.05 0-3.685 1.45-3.685 1.45s-1.635-1.45-3.685-1.45c0 0-.813 0-1.696.248-.884.247-1.273.388-1.874.388 0 0-.742.036-1.343-.282l-.884 2.191s.58.391 1.023 1.289c.275.556.498 1.307.498 2.28 0 0-.107 2.192-.707 4.525-.296 1.146-.446 1.915-.522 2.403l17.635-9.179.014-.03z" fill="#cd3529"/><path fill-rule="evenodd" clip-rule="evenodd" d="M27.818 16.765c0-.958.216-1.698.484-2.252l-17.635 9.18a5.38 5.38 0 0 0-.08.707s0 3.852 4.843 3.852c0 0 .688.012 1.59-.212.57-.141 1.096-.141 1.096-.141s1.012 0 1.74.91c.73-.91 1.741-.91 1.741-.91s.526 0 1.096.141c.903.224 1.59.212 1.59.212 4.843 0 4.843-3.852 4.843-3.852s0-.778-.601-3.11a25.351 25.351 0 0 1-.707-4.525z" fill="#2d4f9e"/><path fill-rule="evenodd" clip-rule="evenodd" d="M13.444 13.863v-.21c.07.044.128.075.176.092a.4.4 0 0 0 .139.027c.045 0 .08-.007.102-.022a.07.07 0 0 0 .035-.063.072.072 0 0 0-.022-.054.332.332 0 0 0-.101-.05.766.766 0 0 1-.272-.143.253.253 0 0 1-.074-.188c0-.08.032-.145.097-.195a.399.399 0 0 1 .252-.076c.052 0 .105.007.157.02a.797.797 0 0 1 .157.057v.192a1.081 1.081 0 0 0-.168-.07.462.462 0 0 0-.134-.023.21.21 0 0 0-.1.02c-.024.013-.035.031-.035.055 0 .02.01.038.03.056a.33.33 0 0 0 .095.049l.04.015c.088.034.15.062.189.086a.25.25 0 0 1 .09.097.3.3 0 0 1 .031.139.246.246 0 0 1-.096.205.429.429 0 0 1-.269.075.598.598 0 0 1-.32-.092zm1.052-.477v-.214h.11c.042 0 .073.01.095.028a.097.097 0 0 1 .033.079c0 .036-.01.063-.031.08-.022.018-.054.027-.098.027zm0 .551v-.367h.09c.128 0 .225-.025.289-.073.064-.049.096-.122.096-.22 0-.094-.03-.165-.09-.211-.06-.047-.152-.07-.277-.07h-.34v.941h.232zm.614 0v-.94h.237v.94h-.237zm.422 0v-.94h.616v.173h-.386v.19h.37v.176h-.37v.226h.398v.175h-.628zm.776 0v-.94h.23v.758h.398v.182h-.628zm.961.009-.417-.95h.246l.228.547.243-.547h.25l-.449.95h-.1zm.613-.009v-.94h.616v.173h-.386v.19h.37v.176h-.37v.226h.398v.175h-.628zm1.014-.555v-.218h.11c.04 0 .072.009.093.028.022.018.033.045.033.08 0 .038-.01.065-.031.083-.021.018-.053.027-.095.027zm0 .555v-.382a.209.209 0 0 0 .027-.002c.044 0 .078.008.103.024a.2.2 0 0 1 .064.09l.117.27h.261l-.147-.322a.285.285 0 0 0-.049-.076.155.155 0 0 0-.061-.042.302.302 0 0 0 .122-.094.225.225 0 0 0 .04-.134c0-.093-.03-.162-.09-.206-.06-.045-.153-.067-.278-.067h-.34v.941h.231zm.644 0v-.94h.616v.173h-.386v.19h.37v.176h-.37v.226h.398v.175h-.628zm.784 0v-.94h.237v.94h-.237Zm.651-.59v.59h-.229v-.94h.203l.495.56v-.56h.228v.94h-.18l-.517-.59Zm.886.59v-.94h.237v.94h-.237zm1.264-.11a.6.6 0 0 1-.386.127.567.567 0 0 1-.2-.034.451.451 0 0 1-.264-.257.514.514 0 0 1-.037-.195c0-.147.048-.265.144-.354a.535.535 0 0 1 .38-.134.716.716 0 0 1 .343.085v.206a.931.931 0 0 0-.175-.07.574.574 0 0 0-.156-.024.302.302 0 0 0-.22.077.284.284 0 0 0-.079.214c0 .088.026.158.076.21a.27.27 0 0 0 .203.079.32.32 0 0 0 .135-.03v-.118h-.127v-.177h.363v.395zm1.027-.83v.538a.406.406 0 0 1-.115.308.444.444 0 0 1-.321.111.445.445 0 0 1-.322-.11.407.407 0 0 1-.115-.31v-.538h.232v.53c0 .074.018.132.053.171.035.04.087.06.154.06s.117-.02.152-.06c.035-.039.052-.096.052-.171v-.53h.23zm.404.35v.59h-.229v-.94h.203l.495.56v-.56h.228v.94h-.18l-.517-.59Zm1.719.48a.6.6 0 0 1-.386.127.567.567 0 0 1-.2-.034.451.451 0 0 1-.264-.257.516.516 0 0 1-.036-.195c0-.147.048-.265.143-.354a.535.535 0 0 1 .38-.134.712.712 0 0 1 .343.085v.206a.924.924 0 0 0-.175-.07.574.574 0 0 0-.155-.024.301.301 0 0 0-.22.077.284.284 0 0 0-.08.214c0 .088.026.158.076.21a.27.27 0 0 0 .204.079.32.32 0 0 0 .135-.03v-.118h-.128v-.177h.363v.395ZM15.203 25.456v.538a.409.409 0 0 1-.115.308.446.446 0 0 1-.321.111.445.445 0 0 1-.321-.11.407.407 0 0 1-.116-.31v-.537h.232v.529c0 .074.018.132.053.171.036.04.087.06.154.06s.118-.02.152-.06c.035-.039.052-.096.052-.171v-.53h.23zm.404.35v.59h-.229v-.94h.203l.495.56v-.56h.229v.94h-.182zm1.103.59v-.765h-.305v-.176h.853v.176h-.305v.766h-.243zm.647 0v-.94h.617v.173h-.386v.19h.369v.177h-.37v.225h.398v.176h-.628zm1.014-.555v-.218h.11c.04 0 .072.01.093.027.022.02.033.046.033.081 0 .037-.01.065-.031.083-.021.018-.053.027-.095.027h-.11zm0 .556v-.383h.013l.014-.002c.044 0 .078.008.102.025a.2.2 0 0 1 .065.088l.117.272h.261l-.147-.323a.286.286 0 0 0-.049-.075.158.158 0 0 0-.061-.043.297.297 0 0 0 .122-.094.222.222 0 0 0 .039-.134c0-.093-.03-.162-.09-.206-.06-.045-.152-.066-.277-.066h-.34v.94h.231zm.644 0v-.941h.23v.377h.413v-.377h.23v.94h-.23v-.38h-.413v.38zm1.466-.703.13.358h-.273zm-.284.703.074-.183h.398l.066.183h.244l-.359-.941h-.266l-.402.94h.245zm1.63-.08a.698.698 0 0 1-.352.096.568.568 0 0 1-.2-.034.46.46 0 0 1-.3-.452c0-.147.047-.265.142-.354a.532.532 0 0 1 .38-.134.72.72 0 0 1 .322.076v.222a.623.623 0 0 0-.154-.076.498.498 0 0 0-.154-.025.305.305 0 0 0-.22.077.283.283 0 0 0-.08.214.29.29 0 0 0 .077.21c.05.053.119.079.205.079.056 0 .112-.01.168-.03a.684.684 0 0 0 .166-.09v.221zm.136.08v-.941h.23v.377h.413v-.377h.23v.94h-.23v-.38h-.413v.38zm1.062 0v-.941h.237v.94zm.651-.592v.592h-.229v-.941h.203l.495.56v-.56h.229v.94h-.181l-.517-.59Zm1.72.48a.608.608 0 0 1-.387.128.566.566 0 0 1-.2-.034.447.447 0 0 1-.263-.257.514.514 0 0 1-.037-.195c0-.147.048-.265.143-.354a.534.534 0 0 1 .38-.134c.058 0 .115.007.172.02a.828.828 0 0 1 .171.065v.207a.925.925 0 0 0-.174-.072.575.575 0 0 0-.156-.023.302.302 0 0 0-.22.077.284.284 0 0 0-.08.214.29.29 0 0 0 .076.21c.051.053.119.079.204.079a.399.399 0 0 0 .135-.029v-.118h-.127v-.178h.362v.395zm2.193-4.807v-.01a.52.52 0 0 0-.179-.303.616.616 0 0 0 .077-.28v-.01l-.006-.083-.002-.009a.642.642 0 0 0-.157-.322l-.027-.031-.871-.494-.036-.008a.483.483 0 0 1-.189-.073l.055-.618.01-.082a.172.172 0 0 0-.15-.192c-.1-.008-.249-.023-.294-.027l-.051-.061a.75.75 0 0 0-.48-.321.72.72 0 0 0-.724.292.72.72 0 0 0-.384-.217.736.736 0 0 0-.775.359.738.738 0 0 0-.37-.202.782.782 0 0 0-.857.471h-.001l.006-.016-.007.014a.762.762 0 0 0-.394-.233.765.765 0 0 0-.87.493l.018-.038-.16.281-.084.025a17.57 17.57 0 0 0-.065-.056c-.002-.002-.005-.001-.007-.002a.092.092 0 0 0-.089-.012l-.094.044-4.932 2.355-.026.023a.654.654 0 0 0-.222.485v.01l.006.082.002.01c.025.159.103.27.176.345a.522.522 0 0 0-.074.256v.01l.005.065.002.01c.046.289.317.486.607.44l11.17-1.772a.526.526 0 0 0 .449-.523v-.01z" fill="#fff"/><path fill-rule="evenodd" clip-rule="evenodd" d="m24.696 19.12-.002.004-.097.17.002.004s.028.034.11.035h.026l-.002.027a.771.771 0 0 0-.003.071c0 .093.015.234.103.309a.205.205 0 0 0 .097.043l.087.017-.083.03a.674.674 0 0 0-.41.41l-.029.078-.018-.08c-.022-.1-.07-.234-.17-.31l-.087-.053.045-.02c.067-.025.163-.094.234-.4l.011-.1a.456.456 0 0 0-.075-.25.49.49 0 0 0-.315-.212.477.477 0 0 0-.543.308l-.1.178.002.003s.029.035.112.036h.027l-.002.027a.776.776 0 0 0-.004.073c0 .095.016.239.106.315a.226.226 0 0 0 .153.049l.01.047a.782.782 0 0 0-.466.436l-.024.058-.021-.06a.476.476 0 0 0-.23-.272l-.048-.022.048-.023c.065-.03.159-.104.23-.41a.47.47 0 0 0-.067-.365.51.51 0 0 0-.328-.22.515.515 0 0 0-.564.32l-.105.185.003.004s.033.033.121.032h.027l-.002.027c-.007.07-.02.304.104.41.039.033.09.05.154.05l.011.047c-.244.124-.355.392-.399.541l-.026.087-.021-.088c-.077-.313-.162-.368-.324-.373l-.065-.002.05-.042c.075-.063.133-.186.177-.378a.471.471 0 0 0-.066-.364.51.51 0 0 0-.329-.22.496.496 0 0 0-.564.32l-.105.185.003.003s.03.037.118.038h.026l-.002.026a.813.813 0 0 0-.004.078c0 .1.017.249.11.328.058.049.14.063.243.041l.015.046a.872.872 0 0 0-.277.2l-.013.014-.017-.01a5.017 5.017 0 0 1-.729-.547l-.003-.003-4.748 2.217.018.04.01.003-.008.046 11.193-1.646-.014-.118h.016l.015-.033-.682-.323c-.121-.026-.406-.11-.406-.302l.001-.019.06-.65-.014-.001c-.03.255-.122.753-.278.957l-.032.043-.011-.053c-.02-.1-.083-.335-.237-.373l-.06-.015.054-.03c.089-.05.152-.17.2-.38a.443.443 0 0 0-.062-.342.48.48 0 0 0-.31-.208.467.467 0 0 0-.531.301Zm-10.527-4.018a2.27 2.27 0 0 0-1.018 1.423 2.27 2.27 0 0 0 .284 1.725c.321.517.827.879 1.422 1.018a2.272 2.272 0 0 0 1.726-.284 2.289 2.289 0 0 0 .734-3.148 2.288 2.288 0 0 0-3.148-.734z" fill="#fff"/><path fill-rule="evenodd" clip-rule="evenodd" d="M16.454 18.776c-.954.594-2.217.3-2.81-.655a2.045 2.045 0 0 1 .654-2.811 2.045 2.045 0 0 1 2.811.655c.594.954.3 2.217-.655 2.811z" fill="#fff"/><path fill-rule="evenodd" clip-rule="evenodd" d="M15.904 15.867c-.005.24-.047.543-.101.78.179.1.507.298.664.437l.43-.422a1.57 1.57 0 0 0-.298-.82c-.24-.02-.461.01-.695.025zm.788 2.716a2.046 2.046 0 0 1-.704.39c-.084-.055-.227-.088-.465-.212.043-.136.122-.343.124-.469.212-.08.56-.265.756-.412.098.099.203.225.308.304.006.153.02.272-.02.399zm-1.825.42a2.008 2.008 0 0 1-.877-.484c.085.006.175.008.237.001.18.165.437.268.656.345a.674.674 0 0 0-.016.139zm-.74-3.552a2.04 2.04 0 0 1 1.268-.433c-.112.128-.192.355-.119.49-.226.023-.621.28-.83.381-.12-.13-.241-.155-.363-.18a.723.723 0 0 0 .045-.258zm-.37 1.72c.1-.065.523-.454.61-.56.23.077.467.308.666.409-.005.245-.058.53-.1.798-.178.033-.389.087-.674.155a6.69 6.69 0 0 1-.502-.801z" fill="#000"/><path fill-rule="evenodd" clip-rule="evenodd" d="M13.352 16.99c.137.071.303.162.401.189zm.906 1.623c-.092-.17.003-.558.069-.713zm.122-1.902c0-.251.07-.62.11-.885zm-.164-1.091c0 .016-.325.218-.572.374.247-.156.572-.358.572-.374zm2.428-.164zm-1.441.049c.263.082.585.278.77.404zm-.294 1.576c.27-.096.75-.362.983-.47zm-.014.684c.247.206.699.472.809.557l-.81-.557zm-.071 1.103c.219 0 .588-.071.76-.134zm1.726-.61c.182-.092.483-.269.684-.405zm.295-1.615c.116.035.375.163.552.264zm-.452 1.364c.076-.262.11-.848.106-1.024l-.106 1.024zm-.988-2.989c-.13.056-.259.115-.372.138.113-.023.242-.082.372-.138z" fill="#000"/><path d="m16.537 15.92-.268-.1.537.2zm-1.504-.764-.057-.281.114.562zm-1.813 2.088c.064.034.146.077.22.114.072.035.16.076.239.097l.15-.553a.963.963 0 0 1-.135-.058c-.067-.033-.137-.07-.21-.108zm1.29 1.232c.006.012 0 .004-.003-.038a.781.781 0 0 1 .01-.145 1.3 1.3 0 0 1 .073-.28l-.527-.225a1.85 1.85 0 0 0-.113.42c-.012.082-.02.17-.015.258.004.083.02.188.072.284zm.156-1.765c0-.222.063-.556.107-.841l-.566-.088c-.038.244-.113.649-.114.929zm-.736-1.09a.284.284 0 0 1 .081-.2l.013-.012a5.112 5.112 0 0 1-.156.104l-.377.238.307.485c.12-.077.266-.168.38-.24a5.68 5.68 0 0 0 .2-.137.422.422 0 0 0 .07-.07c.003-.005.055-.071.055-.171zm-.132.615c.12-.077.266-.168.38-.24a5.68 5.68 0 0 0 .2-.137.422.422 0 0 0 .07-.07c.003-.005.055-.071.055-.171l-.573.004a.284.284 0 0 1 .081-.2l.013-.013a5.112 5.112 0 0 1-.156.104l-.377.238zm2.56-.803c-.008.11-.054.292-.089.386l.537.2c.05-.131.11-.365.124-.54zm.448.586c.049-.132.11-.365.124-.54l-.571-.046c-.01.11-.055.292-.09.386zm-1.689-.24c.22.068.514.243.695.367l.323-.474c-.19-.128-.541-.345-.847-.44zm-.112 1.572c.154-.055.357-.154.538-.245.192-.096.359-.184.47-.235l-.243-.52c-.12.057-.31.156-.484.244a4.85 4.85 0 0 1-.473.216zm-.294.634c.138.115.326.241.483.344.171.112.292.187.335.22l.35-.454c-.067-.052-.228-.152-.372-.246a4.924 4.924 0 0 1-.429-.304Zm.112 1.17c.255 0 .658-.078.86-.152l-.196-.538c-.143.052-.48.116-.663.116zm1.856-.641c.193-.098.505-.281.716-.424l-.322-.474c-.192.13-.482.3-.653.387zm.084-1.596c.082.024.315.137.492.238l.284-.498a3.86 3.86 0 0 0-.613-.29zm-.095 1.17c.047-.161.076-.399.093-.6a5.82 5.82 0 0 0 .025-.51l-.573.01a5.32 5.32 0 0 1-.023.45 2.972 2.972 0 0 1-.072.489zm-1.377-3.333c-.145.063-.239.105-.315.12l.114.562c.15-.03.314-.106.428-.156zm-.201.682c.15-.03.313-.106.428-.156l-.227-.526c-.145.063-.239.105-.315.12z" fill="#000"/><path fill-rule="evenodd" clip-rule="evenodd" d="M27.336 21.497a.286.286 0 0 1-.237.327l-11.171 1.772a.286.286 0 0 1-.09-.564l11.171-1.773a.286.286 0 0 1 .327.238z" fill="#fff" stroke="#000" stroke-width=".573"/><path fill-rule="evenodd" clip-rule="evenodd" d="m24.331 21.705.004.023a.187.187 0 0 1-.012.115.097.097 0 0 1-.075.053.101.101 0 0 1-.092-.028.203.203 0 0 1-.05-.116l-.002-.011-.24.038.009.05c.018.113.062.195.133.247.072.05.165.067.28.049a.363.363 0 0 0 .244-.13.326.326 0 0 0 .054-.26l-.01-.069-.242.039zm-.862.237a.244.244 0 0 1-.064-.09l-.256.04a.52.52 0 0 0 .158.239.44.44 0 0 0 .357.092.488.488 0 0 0 .196-.074l-.04-.253a.324.324 0 0 1-.169.095.222.222 0 0 1-.182-.05zm-.602-.005a.21.21 0 0 1 .017.054.154.154 0 0 1-.016.11.122.122 0 0 1-.088.053l-.067.013-.032-.2-.24.038.06.38.396-.063a.29.29 0 0 0 .194-.114.267.267 0 0 0 .053-.211.418.418 0 0 0-.028-.1l-.249.04zm-7.419.494-.052-.033a.439.439 0 0 0 .064.545l.043-.044a.376.376 0 0 1-.055-.468z" fill="#000"/><path fill-rule="evenodd" clip-rule="evenodd" d="M27.227 20.811a.406.406 0 0 0-.204-.29l.014-.028-.704-.334c-.012-.003-.392-.076-.392-.279v-.017l.062-.673v-.002l-.061-.005c-.025.219-.117.76-.276.969-.023-.115-.09-.351-.255-.392.081-.046.156-.15.212-.396a.466.466 0 0 0-.066-.361.503.503 0 0 0-.325-.219.492.492 0 0 0-.559.317l-.105.185.013.016c.004.006.038.044.128.045-.007.073-.016.295.109.401.03.026.067.041.108.05a.698.698 0 0 0-.424.425c-.023-.102-.072-.244-.178-.325a.28.28 0 0 0-.05-.03c.096-.036.184-.136.25-.418a.479.479 0 0 0-.067-.369.513.513 0 0 0-.332-.222.502.502 0 0 0-.57.323l-.107.189.013.016c.004.006.039.044.13.045-.006.074-.016.3.111.41a.25.25 0 0 0 .17.054.802.802 0 0 0-.479.449.496.496 0 0 0-.242-.287c.093-.042.179-.15.242-.428a.494.494 0 0 0-.07-.382.534.534 0 0 0-.343-.232.54.54 0 0 0-.592.336l-.113.198.016.016c.005.006.044.041.14.04-.008.077-.02.317.112.43a.256.256 0 0 0 .17.057c-.25.128-.364.396-.412.557-.077-.318-.168-.387-.347-.392.071-.06.135-.172.186-.392a.495.495 0 0 0-.07-.382.533.533 0 0 0-.344-.232.52.52 0 0 0-.592.336l-.111.196.012.016c.005.006.042.046.137.047-.007.075-.018.313.115.426.065.056.155.07.264.047a.897.897 0 0 0-.285.205 4.966 4.966 0 0 1-.725-.545l-.015-.013-4.785 2.233.012.026a.408.408 0 0 0 .206.786l9.428-1.496-.169.56.059.019.178-.589 1.433-.228a.408.408 0 0 0 .339-.467zm-2.582-1.537.083-.147a.433.433 0 0 1 .492-.283c.118.023.22.092.286.192a.406.406 0 0 1 .057.315c-.087.38-.199.382-.341.384l-.035.001c-.177.006-.198-.194-.199-.203.004-.01.034-.176-.039-.243-.02-.02-.059-.039-.122-.021-.106.03-.158.017-.182.005zm.212.428c-.106-.091-.092-.307-.086-.359a.606.606 0 0 0 .073-.015c.043-.012.058.002.063.006.037.034.032.138.02.196a.329.329 0 0 0 .097.21c-.07.01-.126-.003-.167-.038zm-.072.237a.825.825 0 0 1 .609-.12c.154.035.208.315.219.386-.007.005-.015.012-.023.016-.086.046-.53.136-1.079.23.03-.228.12-.401.274-.512zm-1.26-.58.085-.152a.442.442 0 0 1 .503-.288c.12.023.225.094.292.196.062.095.084.21.058.322-.089.387-.203.39-.349.392l-.035.001c-.181.006-.203-.199-.204-.207.004-.01.035-.18-.04-.249-.02-.02-.06-.039-.123-.02-.11.03-.163.016-.187.005zm.217.436c-.11-.094-.094-.316-.089-.367a.58.58 0 0 0 .075-.016c.045-.012.06.002.066.007.037.035.033.141.02.2a.334.334 0 0 0 .1.215c-.072.01-.13-.003-.172-.04zm.325.108a.263.263 0 0 1 .219.044c.151.116.173.392.173.395h.008a1.138 1.138 0 0 0-.02.119c-.353.06-.706.114-1.06.165.006-.133.071-.604.68-.723zm-1.712-.37.088-.156a.479.479 0 0 1 .525-.3.473.473 0 0 1 .304.204c.066.101.088.22.062.336-.084.364-.19.402-.32.408a.451.451 0 0 0-.078.002h-.004c-.19.007-.212-.208-.213-.217.003-.011.036-.191-.042-.263-.021-.02-.06-.039-.124-.02-.111.03-.17.018-.198.007zm.228.458c-.116-.1-.096-.338-.09-.39a.633.633 0 0 0 .076-.016c.045-.012.061.002.067.008.04.036.035.15.022.214a.343.343 0 0 0 .105.224c-.076.01-.136-.003-.18-.04zm.353.098.034-.001c.014 0 .028 0 .042-.002.278.018.342.337.345.351h.003a.855.855 0 0 0-.034.198c-.386.055-.741.1-.99.122.027-.127.157-.614.6-.668zm-1.61.138c-.115-.1-.097-.334-.092-.385a.612.612 0 0 0 .079-.016c.047-.013.064.002.07.008.039.036.034.147.022.209a.344.344 0 0 0 .104.224c-.077.01-.138-.003-.182-.04zm.14-.18c.003-.012.035-.187-.042-.258-.022-.02-.061-.04-.128-.022-.117.033-.172.017-.196.005l.09-.159c.08-.22.299-.344.524-.3a.473.473 0 0 1 .305.204c.066.101.088.22.061.336-.093.405-.213.407-.364.41h-.037c-.19.007-.213-.208-.214-.217Zm.315.278.047-.003c.254-.015.342-.018.437.442-.14.012-.238.015-.271.006l-.14-.028a1.452 1.452 0 0 1-.533-.185c.058-.061.231-.22.46-.232zm-1.264-.286c.768.668 1.091.724 1.326.763l.135.027c.246.065 3.377-.411 3.641-.554.121-.065.208-.275.268-.493l-.006.075-.002.024c0 .253.417.333.435.336l.274.13-10.217 1.627h.005zm6.243.433-10.864 1.724.273-.128 10.517-1.674.155.073a.39.39 0 0 0-.081.005z" fill="#000"/><path fill-rule="evenodd" clip-rule="evenodd" d="m24.105 21.74-.001-.004-.117-.738-.24.038.118.743zm-.694.11a.613.613 0 0 1-.056-.188c-.02-.126-.01-.219.028-.278a.22.22 0 0 1 .152-.103.275.275 0 0 1 .06-.003c.02 0 .063.013.13.035l-.036-.233a.542.542 0 0 0-.236-.02.413.413 0 0 0-.287.194c-.073.111-.094.263-.064.455.011.069.03.128.05.183l.26-.041zm-.73.117-.018-.108.048-.008c.084-.013.135.017.159.086l.25-.04a.269.269 0 0 0-.044-.08.297.297 0 0 0-.153-.088.307.307 0 0 0 .099-.125.322.322 0 0 0 .01-.167.257.257 0 0 0-.123-.187.352.352 0 0 0-.248-.042l-.338.054.118.743.24-.038zm-.09-.566.03-.004c.1-.016.157.026.173.124a.147.147 0 0 1-.02.109.127.127 0 0 1-.089.053l-.048.008zm1.983.265-.118-.743-.242.039.117.743z" fill="#fff"/></g><defs><clipPath id="a"><path fill="#fff" d="M0 0h40v40H0z"/></clipPath></defs></svg>