<svg width="40" height="40" fill="none" xmlns="http://www.w3.org/2000/svg"><g clip-path="url(#a)" transform="matrix(1.4 0 0 1.4 -7.953 -7.953)" fill-rule="evenodd" clip-rule="evenodd" fill="#fff"><path d="M12.742 24.177h2.86v3.848c1.852.75 5.206 1.862 8.627 1.862a14.1 14.1 0 0 0 2.1-.152 8.875 8.875 0 0 0 3.553-1.33V24.31c-.161.294-.352.57-.56.817-.818.96-1.977 1.558-3.43 1.786-.552.086-1.112.123-1.673.123-1.425 0-3.002-.228-4.703-.684l-1.064-.285v-8.066l1.064-.285c1.701-.456 3.278-.684 4.703-.684.56 0 1.121.038 1.673.123 1.463.228 2.612.827 3.43 1.786.218.257.408.533.56.818v-4.095a8.875 8.875 0 0 0-3.553-1.33 12.936 12.936 0 0 0-2.1-.153c-3.42 0-6.765 1.112-8.627 1.863V19.9h-2.86v-5.748l.845-.38c1.673-.741 6.053-2.47 10.632-2.47.855 0 1.701.057 2.547.19 1.073.161 2.128.465 3.116.912V9.877h-20v20h2.86z"/><path d="M25.464 19.977a8.982 8.982 0 0 0-1.235-.085c-.979.01-1.948.123-2.907.332v3.62a14.2 14.2 0 0 0 2.907.333c.418 0 .826-.029 1.235-.086.76-.114 1.33-.39 1.691-.817a1.95 1.95 0 0 0 0-2.49c-.36-.417-.93-.693-1.691-.807z"/></g><defs><clipPath id="a"><path fill="#fff" d="M0 0h40v40H0z"/></clipPath></defs></svg>