<svg width="40" height="40" fill="none" xmlns="http://www.w3.org/2000/svg"><mask id="a" style="mask-type:alpha" maskUnits="userSpaceOnUse" x="10" y="14" width="20" height="12"><path fill="#fff" d="M10 14h20v11.255H10z"/></mask><g mask="url(#a)" transform="matrix(1.4 0 0 1.4 -8 -7.85)" fill-rule="evenodd" clip-rule="evenodd"><path d="M10.76 18.753h-.456v.494h.609c.038 0 .076 0 .076-.038 0 0 .038 0 .038-.038v-.342c0-.038-.038-.038-.038-.038s-.038-.038-.077-.038h-.152zM10 20.122v-1.673h1.065c.076.038.114.038.152.076a.524.524 0 0 1 .114.152c0 .076.038.114.038.19v.266c0 .038 0 .076-.038.114 0 .038 0 .076-.038.114 0 .038-.038.038-.038.038 0 .038.038.038.038.076.038.038.038.076.038.114.038.038.038.114.038.152v.457h-.342v-.533c0-.038-.038-.038-.038-.038 0-.038-.038-.038-.038-.038h-.647v.609H10Zm2.243 0v-1.673h.304v1.749h-.304zm1.18 0v-1.673h.417l.76 1.254V18.45h.305v1.749h-.38l-.76-1.255v1.255h-.343zm2.357-1.065c0-.114 0-.228.038-.304.038-.076.076-.152.114-.19a.618.618 0 0 1 .228-.114c.076-.038.152-.038.266-.038h.228c.114 0 .19 0 .266.038.076 0 .152.038.228.076.038.038.076.114.114.152.038.076.038.152.038.228v.152h-.342v-.228l-.038-.038c-.038-.038-.038-.038-.114-.038-.038-.038-.076-.038-.152-.038h-.304c-.038.038-.076.038-.076.038h-.076s0 .038-.038.038v.038c-.038 0-.038.038-.038.038V19.78s0 .038.038.038v.038c.038 0 .038 0 .038.038h.152c.038.038.076.038.152.038h.152c.038 0 .076 0 .114-.038H16.882l.038-.038.038-.038V19.55h-.418v-.304h.76v.342c0 .114 0 .229-.038.305-.038.076-.076.152-.114.19-.038.038-.114.076-.19.114-.114 0-.19.038-.304.038h-.228c-.114 0-.19-.038-.266-.038a.617.617 0 0 1-.228-.114.826.826 0 0 1-.114-.19c-.038-.076-.038-.19-.038-.305zm2.28 1.065v-1.673h.42l.531 1.292.495-1.292h.418v1.749h-.342v-1.141l-.418 1.14h-.343l-.418-1.14v1.14h-.342zm2.739-1.673h1.14v.304H20.8zm0 .684H21.9v.304h-1.103zm0 .76h1.14v.305H20.8zm1.825-1.216v-.228h1.368v.304h-.494v1.445h-.342v-1.445h-.532zm2.395 1.103-.152.418h-.342l.038-.076.646-1.673h.38l.647 1.749h-.304l-.19-.418-.077-.305-.266-.684zm1.901.342v-1.673h.304v1.445h.913v.304H26.92zm1.863 0v-1.673h.304v1.445H30v.304h-1.217z" fill="#fff"/><path d="M28.821 19.4v-.913h.19v.912zm-18.06-.723h-.533v.684h.533c.152 0 .266-.038.304-.076.038-.038.038-.076.038-.19v-.19c0-.076 0-.152-.038-.19-.038-.038-.152-.038-.304-.038zm-.685.722v-.912h.723c.19 0 .342.038.418.076.076.076.076.19.076.304v.266c0 .076 0 .152-.038.19 0 .038-.038.038-.038.076zm2.205 0v-.912h.19v.912zm1.217 0v-.912h.304l.495.912h-.19l-.419-.722v.722zm1.179 0v-.912h.19v.912zm1.179-.342c0-.228.037-.38.114-.456a.81.81 0 0 1 .456-.114h.228a.81.81 0 0 1 .456.114c.076.038.114.152.114.304v.076h-.152v-.038c0-.114-.038-.19-.114-.228-.038-.038-.152-.076-.304-.076h-.152c-.114 0-.19.038-.266.038-.038 0-.076.038-.114.076-.038 0-.038.038-.076.076V19.399h-.19zm.76.342v-.076h.608v.076zm1.52 0v-.912h.305l.342.912h-.19l-.266-.76v.76zm1.104 0 .342-.912h.304v.912h-.19v-.76l-.266.76zm3.498-.722v-.19h1.216v.19h-.532v.722h-.19v-.722zm2.965.722-.266-.722h-.076l-.266.722h-.19l.342-.912h.304l.342.912zm1.293 0v-.912h.19v.912z" fill="url(#b)" style="fill:url(#b)"/><path d="M20.875 19.21h.988v.151h-.988zm0-.723h.988v.19h-.988z" fill="url(#c)" style="fill:url(#c)"/><path d="M16.996 16.13c4.373-2.206 11.255-2.662 10.076 1.444h.913c1.407-4.639-6.198-4.373-10.989-1.445z" fill="#37b4e0"/><path d="M15.285 17.688h1.027c2.51-1.787 5.285-2.852 8.289-2.852-2.472-.19-5.4.457-9.316 2.852zM23.194 22.783C18.44 25.37 10.532 25.977 12.7 20.996h-.951c-2.243 5.514 6.198 5.171 11.445 1.787z" fill="#fff"/><path d="M25.171 20.958h-.989c-2.509 1.75-5.74 3.232-8.745 3.46 3.46.038 6.008-.988 9.734-3.46z" fill="#37b4e0"/></g><defs><linearGradient id="b" x1="10.83" y1="18.518" x2="10.83" y2="19.382" gradientUnits="userSpaceOnUse"><stop stop-color="#294256"/><stop offset="1" stop-color="#7992A6"/></linearGradient><linearGradient id="c" x1="20.893" y1="18.518" x2="20.893" y2="19.375" gradientUnits="userSpaceOnUse"><stop stop-color="#294256"/><stop offset="1" stop-color="#7992A6"/></linearGradient></defs></svg>