<svg width="40" height="40" fill="none" xmlns="http://www.w3.org/2000/svg"><g clip-path="url(#a)" transform="matrix(1.4 0 0 1.4 -8 -8)"><mask id="b" mask-type="alpha" maskUnits="userSpaceOnUse" x="10" y="18" width="20" height="4"><path fill="#fff" d="M10 18.967h20v2.066H10z"/></mask><g mask="url(#b)" fill-rule="evenodd" clip-rule="evenodd" fill="#fff"><path d="M12.05 19.45h-1.652v-.442a.04.04 0 0 0-.041-.04h-.316a.04.04 0 0 0-.041.04v1.98c0 .024.018.042.041.042h2.01a.395.395 0 0 0 .395-.395v-.793a.395.395 0 0 0-.395-.392zm-.16 1.194h-1.492v-.805h1.492c.09 0 .167.085.167.178v.46a.167.167 0 0 1-.167.167zM25.71 19.845v.796c0 .216.176.395.396.395h2.01c.023 0 .04-.018.04-.053v-1.987c0-.011-.017-.029-.04-.029H27.8a.04.04 0 0 0-.041.041v.442h-1.653a.395.395 0 0 0-.395.395zm.39.632v-.468c0-.09.073-.17.167-.17h1.492v.805h-1.492a.165.165 0 0 1-.167-.167zM15.723 20.006c0-.09.073-.167.166-.167h.995a.04.04 0 0 0 .041-.04v-.305a.04.04 0 0 0-.04-.041H15.73a.395.395 0 0 0-.395.395v1.147a.04.04 0 0 0 .041.04h.308a.04.04 0 0 0 .04-.04zM19.213 20.006c0-.09.073-.167.167-.167h.994a.04.04 0 0 0 .041-.04v-.305a.04.04 0 0 0-.04-.041h-1.153a.395.395 0 0 0-.395.395v1.147a.04.04 0 0 0 .04.04h.308a.04.04 0 0 0 .04-.04zM18.59 20.647h-.972a.167.167 0 0 1-.166-.167v-.64h1.129a.04.04 0 0 0 .04-.042v-.304a.04.04 0 0 0-.04-.041h-1.126v-.442a.04.04 0 0 0-.041-.04h-.32c-.023 0-.04.017-.04.031v1.63c0 .228.175.404.395.404h1.135a.04.04 0 0 0 .04-.041v-.31c-.005-.018-.02-.035-.034-.038zM29.97 20.647H29a.167.167 0 0 1-.167-.167v-.64h1.129a.04.04 0 0 0 .04-.042v-.304a.04.04 0 0 0-.04-.041h-1.127v-.442a.04.04 0 0 0-.04-.04h-.32c-.023 0-.04.017-.04.034v1.63c0 .222.175.4.395.4h1.135a.04.04 0 0 0 .04-.04v-.31c-.005-.018-.02-.035-.034-.038zM22.782 19.854c0-.226-.175-.401-.395-.401h-1.779a.04.04 0 0 0-.04.04v.308a.04.04 0 0 0 .04.041h1.621c.091 0 .167.102.167.193v.015h-1.568a.492.492 0 1 0 0 .986h1.916c.024 0 .041-.018.041-.032zm-1.957.79c-.079 0-.143-.05-.143-.126s.064-.123.14-.123h1.571v.249zM25.457 19.845a.395.395 0 0 0-.395-.395h-1.99a.04.04 0 0 0-.04.04v1.502c0 .023.017.04.04.04h.322a.04.04 0 0 0 .041-.04v-1.153h1.451c.09 0 .167.073.167.167v.986c0 .023.018.04.04.04h.323a.04.04 0 0 0 .04-.04zM15.079 20.688c0-.021-.015-.036-.032-.041h-1.788a.164.164 0 0 1-.167-.164v-.07h1.984v-.568a.395.395 0 0 0-.395-.395h-1.589a.395.395 0 0 0-.395.395v.796c0 .216.176.395.395.395h1.946a.04.04 0 0 0 .04-.041v-.308zm-1.984-.644c0-.09.073-.205.167-.205h1.261c.09 0 .167.114.167.205v.026h-1.595z"/></g></g><defs><clipPath id="a"><path fill="#fff" d="M0 0h40v40H0z"/></clipPath></defs></svg>