<svg width="40" height="40" fill="none" xmlns="http://www.w3.org/2000/svg"><g clip-path="url(#a)" transform="matrix(1.4 0 0 1.4 -8 -8)"><mask id="b" mask-type="alpha" maskUnits="userSpaceOnUse" x="10" y="19" width="20" height="2"><path fill="#fff" d="M10 19.09h20v1.82H10z"/></mask><g mask="url(#b)" fill-rule="evenodd" clip-rule="evenodd" fill="#fff"><path d="M11.714 19.214c.083.09.257-.05.27.188.011.17.012 1.337-.022 1.38-.034.031-.084.03-.133.036a.932.932 0 0 1-.08.008c-.063.006-.053.051.027.053.038.001.08-.005.108-.005.118 0 .545.019.586-.014-.015-.053-.072-.031-.19-.075-.082-.031-.07-.1-.069-.204 0-.18-.003-.363.004-.544.253.005.225-.053.426.343.047.092.093.16.14.249.026.044.117.221.143.247l.469-.001c-.008-.099-.1-.011-.254-.136-.088-.07-.252-.367-.318-.483-.042-.076-.115-.182-.14-.266.138-.054.276-.157.312-.312a.408.408 0 0 0-.165-.43c-.186-.12-.59-.085-.845-.084-.05 0-.099-.001-.15.001-.125.008-.11.002-.119.049zm.498.478.005.27c.168.01.368-.015.456-.114.166-.188.116-.597-.356-.61-.165-.004-.105.03-.105.454zM30 20.11c-.123-.012-.746-.023-.837.004.018.097.106.02.27.074.09.03.08.14.08.272.003.275-.064.343-.332.373-.414.047-.729-.254-.822-.595-.124-.453.124-.846.403-.98.222-.105.61-.124.809.125l.103.164c.022.044.005.036.044.042.02-.025.017-.317-.038-.348-.252-.145-.79-.143-1.065-.03-.636.266-.76 1.161-.171 1.544.402.26 1.245.142 1.285-.074.02-.117.005-.278.008-.4.004-.148.09-.099.204-.11.063-.007.054-.012.059-.061zM21.972 20.864c.009.002.023.002.047.002l.524.005c.05 0 .06.009.079-.022-.019-.033.012-.02-.124-.032a1.504 1.504 0 0 1-.147-.02c-.017-.085.063-.258.09-.349l.114-.343.562.002.214.677a.547.547 0 0 1-.132.019c-.129.007-.115-.004-.126.046.078.045.25.013.348.016.078.003.244.022.329.005.037-.007.044-.038.02-.05a.516.516 0 0 0-.085-.024c-.134-.035-.126-.013-.213-.275-.061-.18-.48-1.35-.54-1.428l-.078-.003-.54 1.465c-.114.28-.124.244-.317.262-.064.007-.068.04-.025.047zm.61-.833.502.008-.25-.681zM26.14 20.85c.02.016-.007.005.03.013h.307l.17.006c.087.002.148.016.17-.02-.018-.033.01-.018-.053-.026-.077-.01-.113-.006-.218-.025l.091-.35.113-.343.563.002.213.677c-.077.024-.154.015-.21.022-.077.011-.056.05.008.061.087.016.213-.004.292-.001.076.002.232.02.32.006.063-.01.056-.036.005-.059a.28.28 0 0 0-.093-.026c-.071-.01-.093 0-.182-.266-.06-.18-.48-1.35-.54-1.428l-.078-.003-.538 1.465c-.032.078-.062.167-.117.217-.058.051-.128.039-.202.045-.051.006-.04 0-.051.032zm.636-.82.503.01-.251-.682zM15.893 20.861c.07.012.221-.002.302.002l.172.006c.085.002.148.016.17-.02-.02-.033.01-.02-.125-.032a1.497 1.497 0 0 1-.148-.02c-.016-.085.064-.258.092-.349l.112-.343.563.002c.047.101.225.58.214.677-.077.024-.154.015-.21.022-.053.008-.072.039-.018.055.086.026.23.001.318.004.08.003.252.024.336.003.034-.008.034-.039.01-.049a.782.782 0 0 0-.082-.023c-.047-.013-.094-.015-.12-.046-.029-.036-.075-.175-.094-.23l-.559-1.424h-.051l-.546 1.459c-.033.078-.063.167-.117.217-.058.051-.128.039-.201.045-.055.006-.08.034-.018.044zm.602-.83.503.008c-.014-.115-.2-.567-.251-.681zM17.804 19.18c-.01.057-.01.044.054.054a.997.997 0 0 1 .103.022c.072.02.107.035.115.116.015.134.004.333.006.476.003.16.036.838.003.937-.023.044-.128.045-.178.056-.067.016-.067.038 0 .046.044.005.1 0 .129 0 .067.002.133-.003.2-.005.064-.003.257.02.337.01.039-.007.037-.02.004-.04-.054-.033-.178-.05-.253-.066l-.025-1.54c.287-.06.62.022.665.362.03.233-.11.418-.317.452-.094.014-.189-.023-.232-.013.027.087.186.117.298.11a.527.527 0 0 0 .307-.115.513.513 0 0 0 .164-.248.514.514 0 0 0-.026-.356c-.164-.366-.576-.289-.967-.266-.067.004-.357-.003-.387.008zM20.985 19.241c-.11 0-.226 0-.335-.005-.207-.01-.09-.117-.215-.126-.023.067-.129.455-.114.51.055-.006.125-.126.194-.208.116-.14.288-.1.53-.093-.004.204.027 1.27 0 1.4-.015.072-.066.079-.137.097-.097.026-.139.022-.157.031-.012.006-.03.046.013.053.091.015.307-.011.387-.012l.335.008c.094.005.077.005.096-.013-.014-.048-.101-.044-.213-.074-.12-.033-.092-.078-.092-.205l-.005-1.28c.148-.004.45-.034.531.05a.289.289 0 0 1 .062.127c.032.108.01.116.067.121.04-.054.02-.296.022-.386 0-.315-.094-.004-.148.009zM15.736 20.483c-.078.017-.067.18-.299.294-.388.191-.937.034-.949-.706-.011-.646.434-1.008.884-.842.105.039.19.118.238.207.03.057.013.081.078.076.028-.056.016-.253-.035-.286-.192-.124-.661-.122-.887-.022a.899.899 0 0 0-.375.314c-.232.325-.215.848.04 1.108.268.276.65.321 1.03.262.192-.03.197-.043.22-.125.015-.063.069-.231.055-.28zM11.508 20.483c-.078.017-.066.18-.298.294a.717.717 0 0 1-.5.043c-.31-.092-.443-.368-.45-.75-.016-.963.884-1.073 1.122-.634.03.057.013.081.078.076.029-.056.017-.253-.035-.286a.913.913 0 0 0-.263-.083c-.41-.067-.767.052-.998.375-.24.335-.22.863.081 1.154.263.254.766.281 1.124.185.07-.019.065-.024.083-.094.017-.063.07-.231.056-.28zM23.9 19.191c.007.047-.015.028.124.053.042.007.12.012.144.052.025.05.01.815.012.941 0 .15-.002.319-.011.468-.006.101-.035.093-.128.105-.099.012-.167.013-.18.062.03.016.623-.007.718-.007.238 0 .515.023.745.012.013-.03.076-.397.08-.45-.082.004-.033.045-.15.197a.628.628 0 0 1-.187.157c-.071.03-.571.046-.653.024-.028-.06-.01-.65-.011-.768-.001-.171-.022-.643.019-.77.087-.027.217-.009.289-.031l.008-.048c-.1-.01-.438.004-.617-.002-.047-.002-.169-.015-.201.005zM19.396 20.866c.118.009.632.008.767.001.05-.002.018-.04-.002-.05-.039-.02-.11-.012-.163-.027-.097-.03-.089-.093-.091-.197-.004-.187.003-.379 0-.568-.001-.188-.007-.38 0-.568.007-.202-.008-.205.19-.228.012-.002.053-.005.062-.008.053-.014.032.005.034-.04l-.817-.006c0 .076.073.042.21.068.12.022.1.06.103.18.005.196-.006.397-.001.591.004.136.017.585-.009.709-.023.113-.188.069-.273.094-.044.014-.053.045-.01.048z"/></g></g><defs><clipPath id="a"><path fill="#fff" d="M0 0h40v40H0z"/></clipPath></defs></svg>