<svg width="40" height="40" fill="none" xmlns="http://www.w3.org/2000/svg"><mask id="a" mask-type="alpha" maskUnits="userSpaceOnUse" x="10" y="11" width="20" height="17"><path fill-rule="evenodd" clip-rule="evenodd" d="M10 12h19.698v15.584H10V12Z" fill="#fff"/></mask><g mask="url(#a)" transform="matrix(1.4 0 0 1.4 -7.94 -7.917)"><path fill-rule="evenodd" clip-rule="evenodd" d="M18.597 13.896a3.712 3.712 0 1 0 .006 7.424 3.712 3.712 0 0 0-.006-7.424zm-8.308 13.688 2.644-2.67h2.614l-2.64 2.67zm6.148 0h-2.618l2.64-2.67h2.617zm5.889 0-2.644-2.67H22.3l2.639 2.67zm3.526 0-2.637-2.67h2.61l2.642 2.67zm-6.67-3.147c-6.855-.006-9.506-5.967-9.15-10.49l2.014-.637c-.328 2.567.466 4.422 1.018 5.272C12.41 14.946 15.152 12 18.589 12c3.09-.005 5.647 2.258 5.636 5.493.455-1.234.766-3.12.83-4.433l4.644 1.157c-.371 5.445-4.458 10.22-10.516 10.22z" fill="#fff"/></g></svg>