<svg width="40" height="40" fill="none" xmlns="http://www.w3.org/2000/svg"><g clip-path="url(#a)" transform="matrix(1.4 0 0 1.4 -8 -8)"><path d="M30.057 10H10v20.057h20.057z" fill="#00ee4d"/><path d="M16.974 28.524a.652.652 0 0 1-.649-.656v-6.987c0-.51.044-.637.421-1.164 1.05-1.47 5.682-7.919 5.682-7.919a.644.644 0 0 1 .905-.146.66.66 0 0 1 .145.915s-4.755 6.624-5.683 7.921c-.151.212-.173.414-.173.64v6.74c0 .363-.29.656-.648.656z" fill="#1a1a1a"/></g><defs><clipPath id="a"><path fill="#fff" transform="translate(10 10)" d="M0 0h20v20H0z"/></clipPath></defs></svg>