<svg width="40" height="40" fill="none" xmlns="http://www.w3.org/2000/svg"><g clip-path="url(#a)" transform="matrix(1.4 0 0 1.4 -8 -7.997)"><mask id="b" mask-type="alpha" maskUnits="userSpaceOnUse" x="10" y="11" width="20" height="18"><path fill="#fff" d="M10 11.062h20v17.875H10z"/></mask><g mask="url(#b)" fill-rule="evenodd" clip-rule="evenodd" fill="#fff"><path d="M23.864 16.189h3.931c-.026.026-2.417.982-3.134 3.479h-2.072l-1.407 3.878c-.133.345-.107.558.239.558h2.709c.398 0 .743-.346.797-.717l.185-2.763c.027-.345.054-.637.16-.956 0 0 .983-2.63 3.32-3.347.319-.106.717-.159 1.275-.159.026-1.354 0-2.63-.08-3.028-.239-1.248-.531-2.39-2.603-1.78 0 0-.637.187-1.647.479z"/><path d="M29.575 19.668c-.398 0-.797.425-.797.797l-.16 2.736c-.132 2.523-3 3.904-5.418 3.904H20.2c-2.204-.053-3.346-1.328-2.55-3.56.372-1.009.877-2.416 1.408-3.85h-2.31c.132-.611.77-2.524 2.682-3.48h.876c.293-.77.903-2.443 1.142-3.107-3.984 1.195-8.818 2.735-10.278 3.532-1.09.584-1.488 4.25-.399 7.437h.399c.371 0 .743-.345.823-.717l.16-2.736c.132-2.523 2.15-4.462 4.594-4.462h1.886c-.584.319-2.045 1.328-2.443 3.48-.32.132-.452.504-.452.796l-.08 2.736c-.106 1.726-1.514 3.16-3.16 3.904 1.035 1.116 2.443 1.7 4.329 1.7h7.888s3.161.399 4.224-2.098c.664-1.567.796-4.41.93-7.039z"/></g></g><defs><clipPath id="a"><path fill="#fff" d="M0 0h40v40H0z"/></clipPath></defs></svg>