<svg width="40" height="40" fill="none" xmlns="http://www.w3.org/2000/svg"><g clip-path="url(#a)" transform="matrix(1.4 0 0 1.4 -7.802 -8)"><path fill-rule="evenodd" clip-rule="evenodd" d="m15.46 10.026-1.103 2.87-.26.156a8.907 8.907 0 0 0-3.778 5.447 10.425 10.425 0 0 0-.273 2.332c0 3.966 2.174 7.157 5.906 8.494 1.66.596 3.097.646 3.767.646 5.37 0 9.246-3.837 9.246-9.216a10.76 10.76 0 0 0-.272-2.455c-.74-2.845-2.79-4.503-3.604-5.048l-.6-.38 1.093-2.846h-4.239l-.631 1.642c-.43-.041-.86-.064-1.292-.053l-.328.001.607-1.59zm2.554 7.523a3.213 3.213 0 0 1 1.45-.342c1.426-.026 2.585.816 3.084 2.126.109.245.263.739.263 1.464 0 2.034-1.258 2.981-1.948 3.299-.271.135-.72.29-1.424.29-2.039 0-3.27-1.643-3.295-3.538 0-1.98 1.18-2.955 1.87-3.299z" fill="#ff5a10"/></g><defs><clipPath id="a"><path fill="#fff" d="M0 0h40v40H0z"/></clipPath></defs></svg>