<svg width="40" height="40" fill="none" xmlns="http://www.w3.org/2000/svg"><path fill="#b50039" style="stroke-width:1.4" d="M32.508 21.706h1.467v1.467h-1.467z"/><path fill-rule="evenodd" clip-rule="evenodd" d="M9.935 19.586v-.895H6.02v.895h1.1v2.273c0 .879.443 1.38 1.346 1.38.345 0 .771-.066 1.15-.198l-.01-.804a2.618 2.618 0 0 1-.82.131c-.534 0-.525-.344-.525-.763v-2.019h1.674m5.58 3.587h1.125v-6.46h-1.125zm4.679-1.133a.977.977 0 0 1-.805.394c-.418 0-.739-.164-.739-.542 0-.681.772-.706 1.289-.706h.5c0 .345-.057.6-.245.854zm-.616-3.406c-.493 0-1.231.155-1.543.295v.78c.304-.099.911-.246 1.403-.246.682 0 1.002.254 1.002 1.034h-.64c-.485 0-1.05.04-1.494.254-.435.214-.755.55-.755 1.207 0 .845.763 1.321 1.55 1.321.526 0 1.101-.279 1.372-.763h.016v.657h1.002v-2.668c0-1.313-.559-1.871-1.913-1.871zm7.139 4.539v-2.8c0-1-.452-1.74-1.51-1.74-.6 0-1.092.198-1.453.707h-.016v-.6h-1.043v4.433h1.1v-2.167c0-.567.18-1.478 1.018-1.478.738 0 .746.74.746 1.28v2.365zm5.2 0-1.6-2.34 1.395-2.093h-1.166l-.867 1.449-.88-1.449h-1.363l1.452 2.11-1.543 2.323h1.207l.99-1.617.996 1.617h1.379M13.046 22.04a.992.992 0 0 1-.813.394c-.41 0-.73-.164-.73-.542 0-.681.763-.706 1.28-.706h.5c0 .345-.048.6-.237.854zm-.624-3.406c-.484 0-1.223.155-1.543.295v.78c.304-.099.92-.246 1.412-.246.673 0 .993.254.993 1.034h-.632c-.484 0-1.05.04-1.494.254-.443.214-.755.55-.755 1.207 0 .845.763 1.321 1.551 1.321.525 0 1.1-.279 1.37-.763h.017l-.008.657h1.002v-2.668c0-1.313-.559-1.871-1.913-1.871z" fill="#fff" style="stroke-width:1.4"/></svg>