<svg width="40" height="40" fill="none" xmlns="http://www.w3.org/2000/svg"><g clip-path="url(#a)" transform="matrix(1.4 0 0 1.4 -7.99 -7.851)"><path d="M12.23 15a2.216 2.216 0 0 0-2.208 2.22v4.758c0 1.224.99 2.22 2.207 2.22l15.49.085a2.216 2.216 0 0 0 2.208-2.22v-4.758c0-1.224-.99-2.22-2.207-2.22zm7.618 8.748-.022-8.214-7.597-.042c-.947 0-1.718.775-1.718 1.727v4.76c0 .951.771 1.727 1.718 1.727z" fill="#542791"/><path d="M28.175 20.181c-.218 1.183-.858 2.28-3.403 2.28-2.275 0-3.382-1.02-3.382-2.91 0-1.834 1.047-2.909 3.382-2.909 1.64 0 2.996.384 3.388 2.28h-1.996c-.105-.391-.369-1.051-1.385-1.051-1.122 0-1.491.775-1.491 1.68 0 .907.33 1.682 1.49 1.682.807 0 1.289-.414 1.409-1.052z" fill="#fff"/><path fill-rule="evenodd" clip-rule="evenodd" d="m19.924 23.726-7.677-.042a1.73 1.73 0 0 1-1.73-1.724v-4.747c0-.95.776-1.723 1.73-1.723l7.655.041z" fill="#fff"/><path d="M12.503 22.315H14.3v-3.48h.015l2.672 3.48h2.055v-5.51h-1.797v3.45h-.016l-2.586-3.45h-2.14z" fill="#231f20"/></g><defs><clipPath id="a"><path fill="#fff" transform="translate(10 15)" d="M0 0h20v9.256H0z"/></clipPath></defs></svg>