<svg width="40" height="40" fill="none" xmlns="http://www.w3.org/2000/svg"><g clip-path="url(#a)" transform="matrix(1.4 0 0 1.4 -8 -8)" fill-rule="evenodd" clip-rule="evenodd"><path d="m30 20.496-7.433 1.897.878-3.57L30 20.496m-10-10-1.59 6.235 2.617-2.21zm-10 10 3.035.774 2.627-2.22z" fill="#999"/><path d="m13.892 21.488-2.852 2.409 6.554-.48a57414.369 57414.369 0 0 0 2.482 6.087 87263.294 87263.294 0 0 0 4.11-16.709l-2.962 2.501-3.122 2.637-.84.71-3.37 2.845" fill="#fff"/></g><defs><clipPath id="a"><path fill="#fff" d="M0 0h40v40H0z"/></clipPath></defs></svg>