<svg width="40" height="40" fill="none" xmlns="http://www.w3.org/2000/svg"><path fill-rule="evenodd" clip-rule="evenodd" d="M6.756 8.664c-.476.934-.476 2.156-.476 4.6v13.471c0 2.445 0 3.668.476 4.602a4.364 4.364 0 0 0 1.908 1.907c.934.476 2.156.476 4.6.476h13.471c2.445 0 3.668 0 4.602-.476a4.364 4.364 0 0 0 1.907-1.907c.476-.934.476-2.157.476-4.602v-13.47c0-2.445 0-3.667-.476-4.601a4.364 4.364 0 0 0-1.907-1.908c-.934-.476-2.157-.476-4.602-.476h-13.47c-2.445 0-3.667 0-4.601.476a4.364 4.364 0 0 0-1.908 1.908ZM21.01 15.43c-.573 0-1.074-.127-1.504-.38a2.572 2.572 0 0 1-.994-1.05 3.26 3.26 0 0 1-.348-1.52c0-.567.114-1.073.344-1.52.23-.448.557-.799.982-1.052.425-.254.92-.38 1.488-.38.473 0 .894.092 1.263.277.372.182.674.44.907.772.232.332.38.72.443 1.163h-1.397a1.46 1.46 0 0 0-.226-.538 1.033 1.033 0 0 0-.404-.348 1.25 1.25 0 0 0-.566-.123 1.22 1.22 0 0 0-.744.234c-.209.155-.37.366-.483.633-.111.267-.166.56-.166.883 0 .35.055.658.166.922.11.261.27.465.479.61.211.142.462.214.752.214.214 0 .405-.043.574-.127.172-.085.311-.205.42-.36.108-.159.178-.343.21-.555h1.4c-.039.438-.17.828-.395 1.168a2.306 2.306 0 0 1-.903.792 2.85 2.85 0 0 1-1.298.285zm-10.633-4.628v4.533h1.397v-4.533h1.548V9.627H8.83v1.175zm3.527-1.175v5.708h3.808v-1.168h-2.414v-1.211h2.074v-1.033h-2.074v-1.129h2.414V9.627Zm-4.726 8.73v5.709h2.01c.618 0 1.146-.12 1.584-.36.438-.24.77-.574.994-1.002.224-.427.336-.922.336-1.484 0-.563-.112-1.059-.336-1.489a2.38 2.38 0 0 0-.994-1.01c-.438-.242-.966-.364-1.583-.364zm2.806 4.37c-.227.14-.496.21-.807.21h-.626v-3.451h.622c.311 0 .58.072.807.217.23.143.405.345.527.606.124.261.186.565.186.91 0 .344-.06.646-.182.907-.122.259-.297.46-.527.602zm4.133-4.37-1.971 5.709h1.508l.336-1.113h1.992l.336 1.113h1.508l-1.971-5.709zm1.564 3.551h-1.386l.448-1.464c.073-.248.15-.519.23-.812h.03c.077.293.153.564.226.812zm2.288 2.158 1.837-2.866-1.853-2.843h1.655l1.049 1.77c.031.055.068.116.11.182h.009a27.1 27.1 0 0 1 .102-.182l1.042-1.77h1.58L23.717 21.2l1.904 2.866H23.97l-1.112-1.829a3.12 3.12 0 0 0-.1-.166h-.007c-.037.058-.07.113-.1.166l-1.108 1.829Z" fill="#fff" style="stroke-width:1.4"/></svg>