<svg width="40" height="40" fill="none" xmlns="http://www.w3.org/2000/svg"><mask id="a" mask-type="alpha" maskUnits="userSpaceOnUse" x="10" y="16" width="20" height="8"><path fill="#fff" d="M10 16.404h20v7.191H10z"/></mask><g mask="url(#a)" transform="matrix(1.4 0 0 1.4 -8 -7.999)" fill-rule="evenodd" clip-rule="evenodd"><path d="M18.154 17.905c.025.184.028.306.028.462v2.008h.42v-2.008c0-.236-.007-.445-.025-.577zm.868.688-.41.773.538 1.01h.495l-.63-1.038.51-.745h-.503zM20.167 17.8l-.43.108c.016.16.023.303.023.536v1.33c0 .253.006.309.037.4.05.15.194.243.373.243.09 0 .178-.017.25-.049l-.072-.278c-.022.007-.031.007-.047.007a.094.094 0 0 1-.084-.049c-.025-.049-.028-.09-.028-.396v-1.389c0-.25-.006-.366-.022-.463zM20.946 17.814c-.144 0-.263.129-.263.29 0 .16.115.288.256.288.144 0 .26-.129.26-.289 0-.16-.112-.289-.253-.289zm-.216.811v1.75h.42v-1.823zM21.527 18.667c.038.118.057.264.057.417v1.291h.42v-1.26c.096-.097.206-.16.29-.16.11 0 .141.06.141.261v1.16h.414v-1.302a.788.788 0 0 0-.032-.254c-.05-.153-.206-.258-.385-.258a.61.61 0 0 0-.288.077c-.069.042-.122.083-.185.132a.496.496 0 0 0-.059-.223zM23.848 18.903c.16 0 .253.098.253.265 0 .163-.09.254-.257.254-.147 0-.247-.073-.247-.254 0-.167.09-.265.25-.265zm.82-.41a.48.48 0 0 1-.332.153.77.77 0 0 1-.197-.038 1.043 1.043 0 0 0-.288-.046c-.41 0-.677.237-.677.602 0 .265.113.428.345.494-.263.077-.294.185-.294.3 0 .122.046.202.121.233.076.035.198.052.386.056l.178.003c.166.003.295.052.295.212a.22.22 0 0 1-.104.181.464.464 0 0 1-.263.06c-.194 0-.3-.077-.3-.22 0-.049.003-.073.018-.115h-.388a.386.386 0 0 0-.038.181.44.44 0 0 0 .132.317c.144.15.379.19.607.19.251 0 .492-.062.633-.229a.537.537 0 0 0 .129-.368.515.515 0 0 0-.138-.38c-.113-.115-.241-.156-.486-.16l-.225-.003c-.044 0-.069-.018-.069-.042 0-.049.06-.09.166-.146a.46.46 0 0 0 .063.003c.341 0 .592-.223.592-.529a.46.46 0 0 0-.094-.292c.025.003.068.01.11.01a.379.379 0 0 0 .294-.132zM25.333 19.29v-.007c0-.247.091-.387.25-.387.085 0 .145.035.186.105.037.066.05.135.05.268v.02zm.74.609a.594.594 0 0 1-.408.177c-.216 0-.338-.157-.338-.431v-.015h.927v-.107c0-.373-.066-.613-.213-.78a.62.62 0 0 0-.464-.188.603.603 0 0 0-.504.24c-.14.175-.2.387-.2.707 0 .56.297.922.758.922.225 0 .42-.08.604-.247zM26.513 18.663c.034.101.06.282.06.522v1.19h.419v-1.26c.078-.1.163-.15.256-.15.047 0 .082.011.123.036l.115-.41a.295.295 0 0 0-.156-.04.341.341 0 0 0-.138.029.717.717 0 0 0-.238.226.618.618 0 0 0-.066-.254Z" fill="#024ca3"/><path d="M25.266 17.933c.804-.662 1.597-1.051 2.184-1.064-.552.172-1.197.54-1.845 1.064zM25.434 22.62c-1.028.661-1.964.87-2.416.448-.343-.319-.343-.934-.068-1.682h-.3c-.178.555-.226 1.069-.132 1.49a.856.856 0 0 0 .28.53c.515.431 1.549.073 2.636-.786z" fill="#bcbee0"/><path d="M25.933 23.413a8.718 8.718 0 0 0 1.653-1.453c1.755-1.967 2.344-4.269 1.316-5.14-.299-.253-.702-.357-1.166-.33.772-.178 1.436-.084 1.85.33.952.952.208 3.241-1.663 5.112a8.463 8.463 0 0 1-1.99 1.48z" fill="#024ca3"/><path d="M10.46 19.29v-.007c0-.247.091-.387.25-.387.085 0 .145.035.186.105.037.066.05.135.05.268v.02zm.74.609a.594.594 0 0 1-.408.177c-.216 0-.338-.157-.338-.431v-.015h.927v-.107c0-.373-.066-.613-.213-.78a.62.62 0 0 0-.463-.188.603.603 0 0 0-.505.24c-.14.174-.2.387-.2.707 0 .56.297.922.758.922.225 0 .42-.08.604-.247zM12.084 17.8l-.429.108c.016.16.022.303.022.536v1.33c0 .253.007.309.038.4.05.15.194.243.372.243.091 0 .179-.017.25-.049l-.071-.278c-.022.007-.031.007-.047.007a.094.094 0 0 1-.085-.049c-.025-.049-.028-.09-.028-.396v-1.389c0-.25-.006-.366-.022-.463zM12.553 18.663c.035.101.06.282.06.522v1.19h.42v-1.26c.078-.1.162-.15.256-.15.047 0 .082.011.122.036l.116-.41a.296.296 0 0 0-.157-.04.34.34 0 0 0-.137.029.717.717 0 0 0-.238.226.624.624 0 0 0-.066-.254zM13.961 17.814c-.144 0-.263.129-.263.29 0 .16.116.288.257.288.144 0 .26-.129.26-.289 0-.16-.113-.289-.254-.289zm-.216.811v1.75h.42v-1.823zM14.543 18.667c.037.118.056.264.056.417v1.291h.42v-1.26c.097-.097.206-.16.29-.16.11 0 .142.06.142.261v1.16h.413v-1.302a.794.794 0 0 0-.031-.254.397.397 0 0 0-.385-.258.61.61 0 0 0-.288.077c-.07.042-.122.083-.185.132a.497.497 0 0 0-.06-.223zM16.881 18.903c.16 0 .254.098.254.265 0 .163-.091.254-.257.254-.147 0-.247-.073-.247-.254 0-.167.09-.265.25-.265zm.82-.41a.48.48 0 0 1-.331.153.77.77 0 0 1-.198-.038 1.044 1.044 0 0 0-.288-.046c-.41 0-.676.237-.676.602 0 .265.113.428.344.494-.263.077-.294.185-.294.3 0 .122.047.202.122.233.075.035.197.052.385.056l.179.003c.166.003.294.052.294.212a.22.22 0 0 1-.103.181.464.464 0 0 1-.263.06c-.195 0-.301-.077-.301-.22 0-.049.003-.073.019-.115H16.2c-.015.035-.037.084-.037.181a.44.44 0 0 0 .131.317c.144.15.38.19.608.19.25 0 .492-.062.633-.229a.538.538 0 0 0 .128-.368.514.514 0 0 0-.138-.38c-.112-.115-.24-.156-.485-.16l-.226-.003c-.044 0-.069-.018-.069-.042 0-.049.06-.09.167-.146a.458.458 0 0 0 .062.003c.342 0 .592-.223.592-.529a.46.46 0 0 0-.094-.292c.025.003.07.01.11.01a.379.379 0 0 0 .294-.132z" fill="#ed1c29"/></g></svg>