<svg width="40" height="40" fill="none" xmlns="http://www.w3.org/2000/svg"><g clip-path="url(#a)" transform="matrix(1.4 0 0 1.4 -8.006 -8)" fill-rule="evenodd" clip-rule="evenodd"><path d="m12.12 15.263 16.841 3.509-1.052 6.316-16.842-3.509Z" fill="url(#b)" style="fill:url(#b)"/><path d="m12.47 14.21 6.667-3.86c.35-.35.702-.35 1.052-.35.351 0 .702 0 1.053.35l7.72 4.562-17.895 6.667v-5.614c0-.702.702-1.404 1.403-1.755z" fill="url(#c)" style="fill:url(#c)"/><path d="m19.137 29.65-8.07-4.562L28.96 18.42v5.263c0 1.053-.35 1.755-1.052 2.106l-6.667 3.86c-.35.35-.702.35-1.053.35-.35 0-.701 0-1.052-.35z" fill="url(#d)" style="fill:url(#d)"/></g><defs><linearGradient id="b" x1="1409.14" y1="254.055" x2="1415.58" y2="268.224" gradientUnits="userSpaceOnUse"><stop stop-color="#076E31"/><stop offset=".4" stop-color="#076E31"/><stop offset=".6" stop-color="#003D4B"/><stop offset="1" stop-color="#003D4B"/></linearGradient><linearGradient id="c" x1="28.515" y1="11.01" x2="11.723" y2="16.361" gradientUnits="userSpaceOnUse"><stop stop-color="#2A3C5B"/><stop offset=".549" stop-color="#557EA2"/><stop offset="1" stop-color="#81C0E9"/></linearGradient><linearGradient id="d" x1="28.514" y1="19.583" x2="11.725" y2="24.938" gradientUnits="userSpaceOnUse"><stop stop-color="#139D53"/><stop offset=".549" stop-color="#6CBDA3"/><stop offset="1" stop-color="#C5DEF3"/></linearGradient><clipPath id="a"><path fill="#fff" transform="translate(11 10)" d="M0 0h18.028v20H0z"/></clipPath></defs></svg>