<svg width="40" height="40" fill="none" xmlns="http://www.w3.org/2000/svg"><g clip-path="url(#a)" transform="matrix(1.4 0 0 1.4 -8 -8)"><mask id="b" mask-type="alpha" maskUnits="userSpaceOnUse" x="10" y="17" width="20" height="6"><path fill="#fff" d="M10 17.107h20v5.786H10z"/></mask><g mask="url(#b)" fill-rule="evenodd" clip-rule="evenodd"><path d="M23.425 18.95c-1.04.185-1.603 1.096-1.503 2.268.094 1.126.838 1.867 2.101 1.63.954-.178 1.595-1.096 1.486-2.255-.054-.563-.237-1.065-.579-1.318-.39-.285-.89-.433-1.505-.326zm.047.48c-.712.16-1.023.864-.929 1.73.083.764.538 1.378 1.423 1.202 1.368-.27 1.284-3.334-.494-2.932zM16.375 19.816c.014-.277.07-.527.05-.835l-1.258.042-.004.355.67.065.01 3.37.584.004c.053-.991-.338-3.095.966-3.403.351-.083.632.015.784.241.154.228.137.645.137.954 0 .696-.04 1.527.004 2.208h.587c.054-1.011-.348-3.097.965-3.403.357-.083.643.024.78.248.147.241.124.643.124.973 0 .697-.035 1.494.005 2.178l.587.004c.043-.55.007-1.244.007-1.809 0-.556.078-1.246-.192-1.663-.342-.534-1.307-.61-1.918-.087-.2.167-.23.24-.355.446-.027.045-.027.05-.059.085-.158-1.094-1.44-1.03-2.005-.576-.284.225-.313.355-.469.603zM13.106 22.66l-.045-.466c-.007 0-.018-.009-.02-.002l-.384.112c-.688.185-1.61.178-1.907-.579-.09-.225-.172-.656-.123-.944h2.613c.047-.898-.206-1.698-1.224-1.845-1.03-.147-1.66.433-1.896 1.177-.134.42-.152.918-.074 1.384.159.943.773 1.372 1.716 1.385.58.007.855-.083 1.344-.221zm-2.457-2.322 1.986.01c-.016-.608-.351-1.005-.979-.99-.631.018-.87.458-1.007.98zM25.93 22.297l-.012.516c.803.116 1.467.132 2.034-.277.2-.148.397-.425.429-.768.04-.422-.125-.661-.367-.833-.455-.322-1.48-.32-1.536-.887-.103-1.036 1.568-.556 1.668-.567l.016-.482c-.704-.092-1.508-.168-1.963.29-.24.239-.366.467-.333.864.031.375.226.594.49.737.48.261 1.591.268 1.39 1.014-.212.786-1.721.377-1.815.393zM13.334 17.167l.002.344.68.065.008 5.244.582-.003.005-5.697c-.436-.042-.858.032-1.277.047z" fill="#a6013b"/><path d="m27.641 18.05.93-.005.001-.92-.93-.016z" fill="#96274b"/><path d="m29.07 18.038.925.007.004-.929h-.933zM29.068 19.454l.927.009.005-.924-.936.004zM27.693 17.158c-.04.362-.027.476-.02.84h.857l.002-.855c-.109-.01-.728-.034-.84.015z" fill="#a6013b"/></g></g><defs><clipPath id="a"><path fill="#fff" d="M0 0h40v40H0z"/></clipPath></defs></svg>