<svg width="41" height="40" fill="none" xmlns="http://www.w3.org/2000/svg"><path fill-rule="evenodd" clip-rule="evenodd" d="M24.476 20.002a4.107 4.107 0 0 1-1.174-2.88 4.112 4.112 0 0 1 4.106-4.113h7.393v2.469h-7.393a1.643 1.643 0 0 0 0 3.288h4.911v2.468h-4.91a1.644 1.644 0 0 0 0 3.286H34.8v2.471h-7.393a4.112 4.112 0 0 1-2.932-6.99z" fill="#fff" style="stroke-width:1.4"/><path fill-rule="evenodd" clip-rule="evenodd" d="M7.154 21.051c-.195 0-.353-.47-.353-1.051 0-.583.158-1.051.353-1.051h12.315v2.098l-6.99.004z" fill="#fd951f" style="stroke-width:1.4"/></svg>