<svg width="40" height="40" fill="none" xmlns="http://www.w3.org/2000/svg"><g clip-path="url(#a)" transform="matrix(1.4 0 0 1.4 -7.6 -8.012)" fill="#fefeff"><path d="M18.738 22.198c0-1.874.003-3.748-.005-5.621 0-.193.04-.246.24-.245 2.002.01 4.003-.003 6.003.016.754.007 1.503.114 2.183.474.973.514 1.53 1.329 1.726 2.408.099.544.105 1.091.106 1.639.004 2.313-.002 4.626.007 6.938.001.215-.061.254-.26.25a47.046 47.046 0 0 0-1.93 0c-.197.003-.26-.035-.26-.25.01-1.929.007-3.857.006-5.787 0-.72.017-1.443-.078-2.159-.1-.75-.449-1.084-1.205-1.174-.72-.086-1.442-.035-2.164-.044-.564-.008-1.13.007-1.694-.007-.197-.005-.243.05-.243.245.006 2.963 0 5.926.011 8.89 0 .247-.07.291-.297.285a42.826 42.826 0 0 0-1.907 0c-.19.003-.248-.037-.247-.24.012-1.87.008-3.745.008-5.618zM12.909 23.348c0 1.498-.004 2.995.004 4.493.001.176-.042.22-.218.217a56.314 56.314 0 0 0-2.001 0c-.192.004-.245-.037-.245-.238.007-2.972.002-5.943.01-8.914 0-.208-.043-.281-.263-.268-.344.02-.69.001-1.036.008-.121.002-.16-.032-.16-.158.006-.666.007-1.333 0-1.999 0-.132.05-.154.165-.153.353.006.707-.006 1.06.006.173.007.235-.03.24-.222.02-.626.049-1.256.265-1.852.432-1.19 1.327-1.84 2.527-2.117.437-.101.88-.145 1.33-.145.824 0 1.648.002 2.471-.006.148 0 .202.031.2.191-.01.643-.011 1.286 0 1.929.002.167-.062.19-.204.188-.746-.003-1.491-.002-2.237.009a4.555 4.555 0 0 0-.726.058c-.735.13-1.073.525-1.138 1.307-.017.21-.106.487-.008.612.106.135.397.04.606.042.934.004 1.868.006 2.801-.002.163-.002.198.049.178.196-.097.666-.193 1.332-.28 2-.02.156-.123.112-.206.112-.949.002-1.899.01-2.848-.005-.23-.004-.297.045-.295.289.014 1.474.008 2.948.008 4.422z"/></g><defs><clipPath id="a"><path fill="#fff" transform="translate(9 12)" d="M0 0h20v16.059H0z"/></clipPath></defs></svg>