<svg width="40" height="40" fill="none" xmlns="http://www.w3.org/2000/svg"><g clip-path="url(#a)" transform="matrix(1.4 0 0 1.4 -8 -7.976)"><g clip-path="url(#b)" fill="#fff"><path d="M17.777 19.945c-.017-1.059.854-1.908 1.878-1.936 1.13-.032 2.023.846 2.016 1.943-.007 1.077-.87 1.877-1.872 1.916-1.151.045-2.043-.901-2.022-1.923zm3.058.644c.32-.495.227-1.238-.284-1.647-.541-.433-1.328-.38-1.774.106-.478.521-.478 1.292.003 1.783.471.479 1.174.495 1.582.217l-.613-.645.454-.449.632.635zM26.666 18.094c.278 0 .55-.003.82.004.033.001.074.05.097.085.551.836 1.1 1.673 1.65 2.51.033.05.07.097.104.146l.028-.008V18.1H30v3.679c-.264 0-.522 0-.781-.003-.022 0-.05-.026-.064-.047l-1.308-2.01c-.155-.239-.312-.477-.469-.714-.013-.02-.03-.037-.07-.052v2.818h-.641v-3.678zM24.051 21.88c-.527-.01-.998-.161-1.385-.523a1.774 1.774 0 0 1-.538-1.055 2.11 2.11 0 0 1 .15-1.212 1.72 1.72 0 0 1 1.194-1.005c.537-.14 1.069-.114 1.57.127.511.246.825.666.942 1.218.14.668.038 1.29-.425 1.817a1.808 1.808 0 0 1-1.038.576c-.154.03-.313.04-.47.058zm-.04-.583c.428.006.748-.12.997-.39.379-.407.47-1.103.231-1.604a1.206 1.206 0 0 0-1.018-.717c-.487-.05-.902.105-1.197.515-.246.343-.288.727-.22 1.13.112.649.61 1.066 1.206 1.066zM16.086 21.78c-.23 0-.447.004-.663-.004-.036 0-.086-.046-.103-.083-.089-.208-.172-.417-.252-.628-.034-.089-.077-.134-.187-.132-.47.008-.94.006-1.41.001-.078 0-.118.026-.145.096-.086.224-.173.449-.267.67-.014.034-.062.076-.095.077-.21.007-.419.003-.647.003.04-.097.075-.184.113-.27l.827-1.887c.212-.48.425-.96.635-1.44.027-.064.062-.095.137-.09.13.006.26-.003.39.004.033.002.082.031.095.06.268.61.532 1.223.798 1.834l.756 1.734c.006.013.01.027.018.055zm-2.493-1.403h1.187l-.574-1.501h-.029l-.584 1.502zM12.21 21.208v.563H10V18.1h.632v.127c0 .949.002 1.897-.003 2.845 0 .111.03.139.14.138.433-.006.867-.003 1.3-.003h.142zM17.111 21.776h-.621V18.1h.621v3.675z"/></g></g><defs><clipPath id="a"><path fill="#fff" d="M0 0h40v40H0z"/></clipPath><clipPath id="b"><path fill="#fff" transform="translate(10 18)" d="M0 0h20v3.881H0z"/></clipPath></defs></svg>