<svg width="40" height="40" fill="none" xmlns="http://www.w3.org/2000/svg"><g clip-path="url(#a)" transform="matrix(1.4 0 0 1.4 -8 -8)"><mask id="b" mask-type="alpha" maskUnits="userSpaceOnUse" x="10" y="18" width="20" height="4"><path fill="#fff" d="M10 18.555h20v2.891H10z"/></mask><g mask="url(#b)"><mask id="c" mask-type="alpha" maskUnits="userSpaceOnUse" x="-18" y="14" width="52" height="73"><path fill-rule="evenodd" clip-rule="evenodd" d="M-17.134 86.813H33.99V14.51h-51.124z" fill="#fff"/></mask><g mask="url(#c)" fill-rule="evenodd" clip-rule="evenodd" fill="#fff"><path d="M13.52 20.255h1.2a.496.496 0 0 0-.156-.387c-.102-.09-.246-.136-.434-.136-.18 0-.323.045-.427.134a.566.566 0 0 0-.182.389zm1.19.478h.364a.707.707 0 0 1-.314.465c-.17.114-.384.17-.642.17-.304 0-.543-.083-.718-.25-.176-.166-.263-.394-.263-.682 0-.305.087-.543.26-.714.174-.171.414-.257.72-.257.314 0 .557.08.728.237.172.158.258.38.258.669v.081a.45.45 0 0 1-.006.052h-1.574c.004.188.061.334.171.437.11.103.263.154.458.154.15 0 .273-.031.37-.094a.43.43 0 0 0 .189-.268M18.072 21.074a1.145 1.145 0 0 1-.776.294c-.224 0-.399-.047-.525-.143a.47.47 0 0 1-.188-.395c0-.163.062-.29.185-.383.124-.093.312-.153.565-.18l.26-.023c.187-.016.302-.03.344-.045.042-.014.07-.031.084-.053.014-.022.02-.07.02-.142 0-.092-.04-.16-.122-.206-.082-.046-.206-.069-.371-.069-.17 0-.3.028-.386.084a.277.277 0 0 0-.13.249h-.348v-.014c0-.18.077-.324.233-.429.156-.105.37-.158.642-.158.294 0 .51.046.648.136.139.09.208.23.208.421v.897c0 .077.01.127.03.15.021.021.058.033.112.033l.04-.003.057-.007v.233a1.15 1.15 0 0 1-.213.027.477.477 0 0 1-.277-.066c-.061-.043-.092-.11-.092-.198zm-.035-.673c-.098.044-.266.078-.505.102a8.172 8.172 0 0 0-.19.022.596.596 0 0 0-.29.097c-.058.047-.088.115-.088.204 0 .09.035.158.103.206a.505.505 0 0 0 .293.072c.198 0 .36-.04.487-.122.127-.081.19-.186.19-.313zM19.483 20.877c0 .084.014.139.043.167.029.027.082.041.159.041a2.401 2.401 0 0 0 .204-.009v.265c-.063.009-.12.016-.17.02-.05.005-.094.007-.134.007-.179 0-.304-.028-.376-.084-.072-.057-.108-.157-.108-.301v-1.19h-.343v-.285h.343v-.534h.381v.534h.497v.285h-.497zM21.833 21.295V20.2c0-.177-.033-.298-.098-.364-.066-.067-.178-.1-.338-.1-.197 0-.354.046-.47.137a.445.445 0 0 0-.175.37v1.05h-.365V18.85h.365v.917a.624.624 0 0 1 .274-.22c.117-.05.252-.075.408-.075.164 0 .302.02.414.06.112.041.199.101.26.182a.403.403 0 0 1 .072.152c.015.058.023.15.023.276v1.153zM28.753 21.295v-1.098c0-.18-.03-.303-.09-.369s-.163-.099-.311-.099c-.176 0-.314.045-.411.134a.485.485 0 0 0-.147.377v1.055h-.37v-1.098c0-.18-.03-.303-.09-.369s-.163-.099-.31-.099c-.175 0-.312.045-.411.136a.483.483 0 0 0-.148.376v1.054h-.367V19.51h.35v.252a.768.768 0 0 1 .289-.223.965.965 0 0 1 .39-.073.82.82 0 0 1 .348.067.634.634 0 0 1 .248.212.912.912 0 0 1 .312-.212c.112-.045.242-.067.389-.067.14 0 .264.02.368.062a.52.52 0 0 1 .24.18c.032.046.054.1.067.164.014.063.02.163.02.3v1.122zM12.459 20.976c-.12.13-.264.228-.43.293a1.536 1.536 0 0 1-.565.098c-.4 0-.724-.117-.972-.351-.248-.234-.372-.54-.372-.92 0-.395.128-.707.385-.935.257-.228.605-.342 1.045-.342.337 0 .612.07.824.21a.84.84 0 0 1 .383.583h-.39a.574.574 0 0 0-.268-.378 1.024 1.024 0 0 0-.549-.133c-.322 0-.572.086-.75.257-.176.171-.265.413-.265.725 0 .308.088.55.263.723.175.174.416.261.724.261.278 0 .5-.069.666-.208a.694.694 0 0 0 .249-.56v-.032h-.925v-.272h1.294V21.3h-.261zM15.435 21.295v-1.79h.355v.321a.617.617 0 0 1 .238-.27.71.71 0 0 1 .368-.088h.06c.012.001.107.003.12.005l-.002.379c-.01-.001-.086-.033-.193-.036-.168-.005-.307.027-.41.114a.456.456 0 0 0-.169.369v.996zM22.9 20.255h1.198a.496.496 0 0 0-.155-.387c-.102-.09-.246-.136-.434-.136-.18 0-.323.045-.427.134a.566.566 0 0 0-.182.389zm1.19.478h.363a.708.708 0 0 1-.314.465c-.17.114-.384.17-.642.17-.304 0-.543-.083-.718-.25-.176-.166-.263-.394-.263-.682 0-.305.087-.543.26-.714.174-.171.414-.257.72-.257.314 0 .557.08.728.237.172.158.258.38.258.669v.081a.45.45 0 0 1-.006.052h-1.574c.004.188.06.334.17.437.111.103.264.154.46.154.149 0 .272-.031.37-.094a.43.43 0 0 0 .188-.268M24.814 21.295v-1.79h.355v.321a.618.618 0 0 1 .238-.27.71.71 0 0 1 .368-.088h.06c.012.001.107.003.12.005l-.003.379c-.01-.001-.085-.033-.192-.036-.168-.005-.307.027-.41.114a.456.456 0 0 0-.169.369v.996zM29.367 18.9l.002.143h.06a.14.14 0 0 0 .076-.019c.016-.012.024-.03.024-.053 0-.026-.01-.044-.027-.056a.145.145 0 0 0-.082-.016Zm-.122-.074.194-.004c.07-.001.123.01.159.033a.12.12 0 0 1 .055.106.128.128 0 0 1-.027.084.145.145 0 0 1-.08.049l.115.22-.134.002-.097-.201h-.06l.004.203-.12.002zm.183-.12a.352.352 0 0 0-.257.11.383.383 0 0 0-.108.268.364.364 0 0 0 .112.258.375.375 0 0 0 .265.108.361.361 0 0 0 .14-.03.403.403 0 0 0 .122-.084.356.356 0 0 0 .105-.257.358.358 0 0 0-.11-.265.362.362 0 0 0-.268-.107zm-.002-.074a.445.445 0 0 1 .184.856.439.439 0 0 1-.488-.093.435.435 0 0 1-.119-.427.475.475 0 0 1 .047-.114.435.435 0 0 1 .376-.222"/></g></g></g><defs><clipPath id="a"><path fill="#fff" d="M0 0h40v40H0z"/></clipPath></defs></svg>