<svg width="40" height="40" fill="none" xmlns="http://www.w3.org/2000/svg"><mask id="a" mask-type="alpha" maskUnits="userSpaceOnUse" x="10" y="17" width="20" height="6"><path fill="#fff" d="M10 17.09h20v5.82H10z"/></mask><g mask="url(#a)" transform="matrix(1.4 0 0 1.4 -8 -8)" fill-rule="evenodd" clip-rule="evenodd" fill="#ef402f"><path d="M27.982 21.79c.21-.622.472-1.433.472-1.663 0-.183-.055-.32-.236-.32-.773 0-1.994 1.145-2.792 1.984-.348.366-.615.673-.73.801a.645.645 0 0 1-.516.167 1.443 1.443 0 0 1-.568-.151c-.083-.043-.086-.09-.062-.19l.07-.282c.02-.083.054-.2.098-.343v-.017c.233-.756.756-2.254 1.146-3.127.02-.044.037-.08.137-.096.134-.027.271-.041.408-.042.206-.01.411.021.605.09v.252c0 .109.012.479.361.479.59 0 1.663-1.011 2.605-1.011.831 0 1.019.514 1.019.907 0 .465-.387 1.717-.664 2.545v.017c-.12.358-.22.638-.259.74-.084.226-.249.257-.46.257a1.386 1.386 0 0 1-.814-.204.129.129 0 0 1-.04-.15c.043-.134.126-.371.219-.648zM18.353 21.79v-.026c0-.453.4-1.298.727-2.095.14-.339.733-1.477 2.757-1.477.835 0 1.87.132 1.87 1.04 0 .56-.553 1.79-.731 2.131-.075.146-.16.287-.254.422-.71 1.005-1.604.998-2.602.998-.544.004-1.744.01-1.767-.993zm3.011-2.488c-.14 0-.349.022-.444.15-.354.49-.588 1.718-.588 2.06 0 .232.162.217.378.217.125 0 .33 0 .444-.116.311-.325.58-1.794.58-2.059 0-.186-.015-.252-.37-.252zM13.812 21.79c.135-.072.257-.164.363-.274 0 0 .656-.075 1.076-.075.42 0 1.012.066 1.012.302l-.013.05c-.1.453-1.511 1.12-2.707 1.12-1.248 0-2.418-.454-3.047-1.12A1.622 1.622 0 0 1 10 20.68c0-2.045 3.948-3.587 5.1-3.587 1.037 0 1.18 1.652 1.18 2.255 0 1.29-.794 1.557-1.674 1.557h-.614a90.05 90.05 0 0 1-1.862-.036c-.101 0-.175-.021-.175.036 0 .286.219.67.586.888h.008c.185.11.397.168.613.167.229 0 .454-.058.655-.167m.998-2.582c0-.263-.013-.641-.218-.641-.67 0-1.847 1.025-1.965 1.143-.088.087-.021.08.095.08h1.512c.523-.003.57-.092.57-.585zM18.237 20.08c-.04.199-.101.392-.185.576-.15.357-.523.414-.79.414-.4 0-.538-.143-.538-.372.026-.182.082-.359.166-.523.181-.414.503-.453.822-.453.27 0 .525.112.525.363"/></g></svg>