<svg width="40" height="40" fill="none" xmlns="http://www.w3.org/2000/svg"><g clip-path="url(#a)" transform="matrix(1.4 0 0 1.4 -8 -8)"><mask id="b" mask-type="alpha" maskUnits="userSpaceOnUse" x="10" y="10" width="20" height="20"><path fill="#fff" d="M10 10.008h20v19.984H10z"/></mask><g mask="url(#b)" fill-rule="evenodd" clip-rule="evenodd" fill="#785e9b"><path d="M22.393 28.54c-.356-.008-.97.04-1.378.055l-2.9-.004c-.238-.002-1.184.047-1.368-.124.657-.284.892.022 1.913-.416.238-.102.312-.188.297-.499-.031-.648-.061-.775.096-1.409.064-.258.128-1.207.192-1.277l-.701.176-.59-1.081-1.034.726c-.679-.192-.86-.718-1.41-.54-.495.16-2.464.778-2.697.78.012-.379.172-1.097.229-1.527.033-.25-.017-.24-.177-.384-.247-.22-.935-1.083-1.185-1.248.013-.263.31-.984.412-1.26.165-.448-.14-.83-.142-1.326.341-.377.752-.673 1.076-1.017.314-.335.226-.29.225-.843 0-.354.002-.709 0-1.063-.003-.518.015-.441.261-.75l1.386-1.802c.27-.349.878-.57 1.285-.798.436-.243.961-.538 1.387-.74.308-.145 1.275-.34 1.675-.449.534-.145 1.391-.371 1.557.246.433-.033.772.255 1.166.356.071.074.268.127.374.2.167.114.156.172.334.255l.025-.11c.05-.15-.11.068.04-.083.258.261.412.307.594.628l.116.192c.227.221.263.077.442.482.19-.053.212-.124.376-.197.203-.09.202-.017.204-.248.003-.339.166-.18.652-.234.066.226.062.342.1.592l.171.512c-.103.059-.106-.001-.232.045.049.33.286-.137.302.523l.257.052c-.08.235-.098.501.112.664-.08.128-.073.068-.101.212.257-.035.032-.207.353 0 .058-.135.161-.317.318-.33.12-.009.05-.017.116.04-.116.106-.165.062-.248.2.468-.08.789.221.912.635.017.056.035.144.072.19l.188.116c-.067.653.147.193.315.542.172.356-.153.237-.128.614.147-.044.15-.117.163-.124.076.294-.074.21.106.428.124.153.113.117.183.355.1.044.072-.003.122.024.085.047-.013-.03.055.053.108.132-.049.08.169.148.029.01.142.02.183.03.015.09.046.193.009.295-.062.173-.432.356-.631.383-.057.411-.02.248.035.565-.19-.015-.271-.14-.4.13-.103.215-.035.271-.214.463.072.11.065.223.14.38.11.226.058.4.164.55.086.12.046.091.08.243.015.07.005.026.032.081.043.085.045.038.093.173-.323.087-.346.43-.175.706.09.145.276.13.21.274-.074.158-.197-.053-.287-.105-.073.072-.06.073-.114.16-.156-.072-.035-.043-.185-.085-.175.32-.079.102-.342.287l.003.382c.144.114.117.031.168.221h-.05c-.086-.005-.047-.044-.122-.006-.127.063-.06.078-.078.217-.038.268-.066.239-.349.219l.001.363c-.23-.066-.067-.207-.381.077l-.058.043c-.19.154-.09.355-.094.672-.294-.016-.686-.24-1.01-.188-.236.037-.346.126-.507-.039a2.402 2.402 0 0 1-.246-.373c-.182-.008-.086-.005-.256.056l-.034-.117c-.079-.175-.444-.24-.617-.159-.244.115 0 .16-.18.355-.121.132-.234.142-.323.031l.275-.133c-.185-.107-.297-.052-.423-.085-.401-.106-.37-.182-.79-.046-.124.04.075-.046-.074.02-.067.029-.005-.008-.071.043-.215.166-.32.126-.543.257-.507.296-.28-.301-1.18-.031-.056.192-.023.254-.02.464.003.316-.151.536-.085 1.37.062.774.376.888.517 1.379.295.021 1.795.052 1.892.32zM10.08 11.54c.009.22-.058.53-.057.822v13.549c0 1.444-.322 3.33 1.44 3.951.487.172 1.132.123 1.694.123h14.478c1.006 0 1.826-.448 2.188-1.392.267-.698.152-2.582.152-3.479V12.452c.001-.304-.002-.527-.076-.81-.11-.419-.23-.463-.255-.654-.183-.118-.607-.949-1.83-.96-4.513-.044-9.236 0-13.772 0-.698 0-2.034-.083-2.605.128-1.064.392-1.216 1.26-1.357 1.385z"/><path d="m13.16 23.139 3.509-.587-2.909-3.886c-.123-.155-.286-.416-.417-.538ZM19.181 22.079c.1-.298.336-.674.49-.987.145-.3.401-.69.494-.998l-6.547-1.975.645.488c.234.161.452.328.698.498.477.33.926.648 1.396.994.462.341.918.667 1.393.999.27.188 1.224.912 1.431.98zM15.97 17.408l2.066 1.278c.317.19 1.926 1.197 2.11 1.258l-.995-3.206c-.458-.03-2.547.567-3.18.67zM13.59 18.261l1.585 2.134c.274.365.528.69.802 1.057.142.19.259.34.401.528.136.18.254.377.412.55l2.238-.399c-.211-.177-.449-.32-.675-.486l-4.081-2.915c-.199-.138-.49-.389-.682-.469zM13.523 17.974l6.278 1.92c-.42-.314-.96-.607-1.422-.887l-2.149-1.305c-.376-.227-.305-.278-.818-.162-.5.113-1.463.272-1.889.434zM16.922 14.833c.14.168.873.69 1.099.858.379.283.74.593 1.113.83.09-.095.21-.466.265-.614.087-.233.159-.428.255-.674.144-.368.416-.992.502-1.353zM13.558 15.849l5.442.72c-.324-.305-.762-.592-1.125-.866-.205-.155-1.002-.828-1.199-.797l-1.57.469c-.405.126-1.225.317-1.548.474zM16.864 14.747l3.24-.959-2.447-1.512zM11.773 21.724c.14.077.996 1.068 1.288 1.338l.177-4.803c-.223.54-.487 1.123-.734 1.688-.17.392-.655 1.411-.73 1.777zM18.802 16.64l-5.246-.69c.114.107 2.204 1.37 2.273 1.383.096.019 1.262-.26 1.457-.305.256-.059.5-.115.761-.173.121-.027.233-.054.362-.081.053-.012.127-.022.18-.037a1.74 1.74 0 0 0 .108-.036c.073-.032.065-.03.105-.062zM13.44 15.755l3.213-.938c-.151-.173-1.324-1.049-1.549-1.189-.009.008-.021.009-.025.025zM15.21 13.559c.16.17.545.424.742.572.25.188.523.417.791.588l.416-1.185c.116-.37.312-.865.382-1.224-.214.074-2.262 1.173-2.331 1.249zM13.34 17.897l2.33-.508c-.243-.22-.82-.524-1.15-.723-.398-.241-.776-.459-1.166-.695zM15.575 24.024c-.627-.298-1.715-.488-2.422-.752l-.237 1.558zM19.288 22.049c.179-.018 2.384-.864 2.5-.96l-1.499-.927c-.115.105-.895 1.651-1 1.887zM15.772 23.959c.191-.4.686-.893.866-1.31l-3.285.587zM21.738 20.94c-.152-.305-.387-.656-.575-.955l-1.797-2.919.734 2.388c.224.682.09.545.659.893.337.206.65.422.98.593zM19.281 16.476l1.637-1.058-.492-1.116c-.06-.132-.09-.254-.195-.357zM17.933 23.785c.12-.094 1.009-1.345 1.113-1.541-.288.02-2.01.297-2.158.39l.514.583c.098.11.191.175.287.288.092.108.152.186.244.28zM16.95 24.516c.133.003.77-.532.93-.648l-1.053-1.132zM19.05 22.46c-.125.108-.94 1.245-1.023 1.415l.53.946zM16.723 22.744c-.161.186-.286.41-.442.626-.126.176-.338.458-.424.643l1.002.525zM12.041 19.226l.184.89.894-1.886-.802.732c-.104.114-.175.15-.276.264z"/></g></g><defs><clipPath id="a"><path fill="#fff" d="M0 0h40v40H0z"/></clipPath></defs></svg>