<svg width="40" height="40" fill="none" xmlns="http://www.w3.org/2000/svg"><g clip-path="url(#a)" transform="matrix(1.4 0 0 1.4 -8 -8.14)"><g clip-path="url(#b)" fill="#fff"><path d="m20.031 13 3.575 2.638c.09.066.178.135.342.258-.817.049-1.559-.005-2.365.203l.542-1.213a11.23 11.23 0 0 0-2.044.583c-.243.094-.338.302-.418.51-.237.622-.626 1.066-1.26 1.325-.419.17-.78.476-1.19.671-.546.259-.635.767-.867 1.334.817-.458 1.486-.952 2.26-1.248.14.195-.005.334-.057.47-.757 1.975-1.532 3.941-2.278 5.92-.141.374-.242.375-.548.15a470.421 470.421 0 0 0-5.463-3.965c-.311-.223-.376-.329-.013-.59 3.1-2.225 6.187-4.47 9.275-6.71.144-.105.275-.223.412-.336h.097z"/><path d="M19.933 27.695c-.526-.486-1.138-.859-1.71-1.283-.196-.145-.254-.262-.171-.521.874-2.727 1.806-5.432 2.851-8.098.12-.305.298-.446.595-.472.243-.022.49-.04.733-.035 1.014.021 1.496.665 1.173 1.64-.428 1.287-1.443 1.916-2.69 2.24-.732.19-.735.18-.93.976.32.032.647.03.956.103 1.397.327 2.05 1.579 1.592 3.04-.184.589-.502 1.077-1.026 1.442-.437.303-.907.571-1.275.968h-.098z"/><path d="m26.493 17.735 2.047 1.476c.435.315.863.642 1.307.945.225.153.185.237-.01.378-1.468 1.055-2.93 2.12-4.396 3.18-.092.066-.206.222-.301.003-.53-1.214-1.547-1.772-2.816-2.048 1.885-.806 3.892-1.423 4.17-3.934z"/></g></g><defs><clipPath id="a"><path fill="#fff" d="M0 0h40v40H0z"/></clipPath><clipPath id="b"><path fill="#fff" transform="translate(10 13)" d="M0 0h20v14.695H0z"/></clipPath></defs></svg>