<svg width="40" height="40" fill="none" xmlns="http://www.w3.org/2000/svg"><path fill-rule="evenodd" clip-rule="evenodd" d="M20.613 17.9h-7.525a.088.088 0 0 0-.088.087v.578c0 .023.005.046.014.067l.672 1.615c.01.021.014.044.014.068v4.497c0 .049.04.088.088.088h6.125c.048 0 .087-.04.087-.088v-4.497c0-.024.005-.047.013-.068l.674-1.615a.184.184 0 0 0 .014-.067v-.578a.088.088 0 0 0-.088-.087z" fill="#f7f7f7" style="stroke-width:1.4"/><path fill-rule="evenodd" clip-rule="evenodd" d="M27.637 22.25a.087.087 0 0 0-.077-.126h-6.02a.087.087 0 0 0-.077.126l.269.539a.184.184 0 0 1 .018.078v2.97c0 .028.013.053.033.07l2.194 1.754c.03.026.07.039.11.039h3.17a.087.087 0 0 0 .088-.088l.005-4.745c0-.027.006-.054.019-.078l.268-.54z" fill="#eaeaea" style="stroke-width:1.4"/><path fill-rule="evenodd" clip-rule="evenodd" d="M28.7 29.1h-5.138a.177.177 0 0 1-.11-.038l-3.404-2.724a.176.176 0 0 0-.11-.038H9.1A12.522 12.522 0 0 1 7.4 20C7.4 13.04 13.041 7.4 20 7.4S32.6 13.04 32.6 20c0 3.581-1.5 6.806-3.9 9.1zM20 6C12.268 6 6 12.267 6 20s6.268 14 14 14 14-6.268 14-14S27.732 6 20 6Z" fill="#fff" style="stroke-width:1.4"/><path fill-rule="evenodd" clip-rule="evenodd" d="M18.775 12.533h-3.85a.088.088 0 0 1-.07-.14l1.925-2.567a.088.088 0 0 1 .14 0l1.925 2.566a.088.088 0 0 1-.07.14zM21.19 16.582H12.51a.087.087 0 0 1-.061-.15l2.625-2.625a.085.085 0 0 1 .061-.026h3.428c.023 0 .045.01.062.026l2.625 2.625a.087.087 0 0 1-.062.15zM27.08 19.39a.088.088 0 0 0-.162 0l-.538 1.291c-.03.072-.133.072-.162 0L24.63 16.87a.087.087 0 0 0-.16 0l-1.59 3.812a.087.087 0 0 1-.16 0l-.54-1.292a.088.088 0 0 0-.161 0l-.569 1.366a.087.087 0 0 0 .08.12h6.039a.087.087 0 0 0 .08-.12z" fill="#fff" style="stroke-width:1.4"/></svg>