<svg width="40" height="40" fill="none" xmlns="http://www.w3.org/2000/svg"><g clip-path="url(#a)" transform="matrix(1.4 0 0 1.4 -8 -8)"><path fill-rule="evenodd" clip-rule="evenodd" d="M20.451 14.558c-.643.004-1.078.195-1.516.656-.403.443-.544.831-.534 1.434v.862h-5.86c-1.384-.006-2.557.969-2.54 2.416-.017 1.393 1.156 2.458 2.54 2.46h2.54c.312-.045.61.227.614.534-.03.308-.313.494-.614.49H10c-.017.926.905 1.957 2.54 1.967.986-.01 1.51-.01 2.54 0 1.391.035 2.564-1.113 2.542-2.499-.004-1.381-1.165-2.446-2.542-2.46h-2.54c-.333.014-.553-.208-.534-.491-.015-.3.2-.525.534-.532h5.86v4.015c-.01.98.265 1.784 1.148 1.967.523.098 1.412.161 1.967-.41V23.41a.55.55 0 0 1-.78.166.52.52 0 0 1-.285-.493v-3.688h1.798a3.77 3.77 0 0 0-.61 2.048c.006 2.163 1.875 3.924 4.18 3.934 2.308-.01 4.178-1.77 4.181-3.934-.003-2.18-1.873-3.939-4.18-3.933H20.45zm5.326 4.837c1.187.007 2.158.906 2.172 2.008-.014 1.114-.985 2.012-2.172 2.007-1.21.004-2.18-.893-2.172-2.007-.009-1.102.962-2.001 2.172-2.008z" fill="#fff"/></g><defs><clipPath id="a"><path fill="#fff" d="M0 0h40v40H0z"/></clipPath></defs></svg>