<svg width="40" height="40" fill="none" xmlns="http://www.w3.org/2000/svg"><g clip-path="url(#a)" transform="matrix(1.4 0 0 1.4 -7.999 -7.994)"><mask id="b" mask-type="alpha" maskUnits="userSpaceOnUse" x="10" y="15" width="21" height="10"><path fill="#fff" d="M10 15.281h20v9.438H10z"/></mask><g mask="url(#b)" fill-rule="evenodd" clip-rule="evenodd"><path d="M21.607 16.194c.664-.528 1.513-.771 2.345-.873a7.117 7.117 0 0 1 3.247.406c-.101.414-.285.801-.43 1.201-.832-.444-1.833-.59-2.752-.361-.538.139-.86.65-1.001 1.156-.37 1.248-.34 2.583-.132 3.856.086.563.283 1.153.75 1.512.586.47 1.394.482 2.102.372.425-.06.809-.285 1.099-.596.016-1.243.038-2.486.035-3.728 1.04-.023 2.082 0 3.123-.012-.413 1.378-.887 2.74-1.331 4.11-.25.45-.73.72-1.173.953-1.066.52-2.289.538-3.45.472-1.032-.078-2.132-.342-2.861-1.131-.696-.675-.996-1.62-1.242-2.528.195-.647.498-1.273.626-1.933.421-.927.65-1.937 1.045-2.876z" fill="#bdbcbc"/><path d="M10 24.5c1.018-2.904 1.976-5.831 3.002-8.73.385.011.77-.009 1.154.01-.026 1.075-.032 2.152-.053 3.227 1.168-.76 2.63-.892 3.986-.753.862.113 1.748.311 2.473.816-.128.66-.43 1.285-.626 1.933-.39 1.166-.797 2.328-1.192 3.493-.405.019-.811.01-1.216.003-.011-1.357.01-2.717-.01-4.074-.066-.59-.66-.956-1.212-.989-.736-.05-1.587.02-2.156.52.004 1.515-.005 3.029.004 4.543-1.384.01-2.77.01-4.154 0z" fill="#e40514"/></g></g><defs><clipPath id="a"><path fill="#fff" d="M0 0h40v40H0z"/></clipPath></defs></svg>