<svg width="40" height="40" fill="none" xmlns="http://www.w3.org/2000/svg"><path fill-rule="evenodd" clip-rule="evenodd" d="M6.756 8.664c-.476.934-.476 2.156-.476 4.6v13.471c0 2.445 0 3.668.476 4.602a4.364 4.364 0 0 0 1.908 1.907c.934.476 2.156.476 4.6.476h13.471c2.445 0 3.668 0 4.602-.476a4.364 4.364 0 0 0 1.907-1.907c.476-.934.476-2.157.476-4.602v-13.47c0-2.445 0-3.667-.476-4.601a4.364 4.364 0 0 0-1.907-1.908c-.934-.476-2.157-.476-4.602-.476h-13.47c-2.445 0-3.667 0-4.601.476a4.364 4.364 0 0 0-1.908 1.908Zm2.014 6.67 1.972-5.708h1.738l1.971 5.709h-1.508l-.337-1.113h-1.991l-.336 1.113zm2.15-2.157h1.385l-.45-1.464c-.075-.248-.15-.519-.227-.812h-.031c-.08.293-.156.564-.23.812zm4.683 2.158v-4.533h-1.548V9.626h4.493v1.176H17v4.533zm4.976-2.866-1.837 2.866h1.576l1.108-1.83c.03-.052.062-.107.1-.165h.007c.037.058.07.113.099.166l1.112 1.829h1.651l-1.904-2.866 1.781-2.843h-1.58l-1.04 1.77a27.33 27.33 0 0 0-.103.182h-.008a4.167 4.167 0 0 1-.11-.182l-1.05-1.77h-1.655z" fill="#fff" style="stroke-width:1.4"/></svg>