<svg width="40" height="40" fill="none" xmlns="http://www.w3.org/2000/svg"><path fill-rule="evenodd" clip-rule="evenodd" d="M16.776 24.012h1.358c.437 0 .52-.596.7-1.063l1.305-3.597c.03-.083.106-.265.114-.355.075.053.218.513.263.626l1.426 3.959c.09.226.203.43.482.43h1.38c.06 0 .174-.053.22-.083.21-.136.24-.445.293-.679.083-.332.166-.701.25-1.04.142-.611.376-1.486.497-2.067.068-.339.18-.701.249-1.033.165-.792.422-1.764.618-2.579.03-.128.113-.415.113-.543H23.94c-.098 0-.143.415-.173.573l-.754 3.726c-.03.135-.121.512-.121.626-.045-.068-.189-.544-.226-.642l-1.35-3.92a.516.516 0 0 0-.528-.363h-1.07c-.483 0-.566.603-.71 1.018l-1.342 3.884c-.166-.709-.362-1.727-.505-2.459l-.468-2.337c-.015-.068 0-.106-.075-.106h-2.104c0 .166.188.852.234 1.048.083.347.158.687.248 1.041.34 1.357.649 2.79.988 4.14.053.204.317 1.418.393 1.546.075.12.218.249.4.249zM6 16.591v7.42h2.127v-6.485h2.7c.474 0 .821.136.987.528.166.385.12 1.049-.188 1.396-.129.15-.43.294-.702.294-.203 0-1.342-.015-1.478.015-.218.06-.249.158-.249.339 0 .113.528.875.604.98l1.893 2.934h2.428c-.023-.068-1.772-2.428-2.036-2.768-.053-.068-.09-.128-.136-.196.535-.12 1.04-.188 1.455-.739.747-1.003.589-3.13-.188-3.725-.302-.234-.423-.34-.867-.453a4.626 4.626 0 0 0-1.215-.143H6.701c-.4 0-.701.287-.701.603zM26.972 16.644v6.72c0 .339.301.648.61.648H34v-1.606h-4.97V20.7h4.125v-1.538H29.03v-1.614h4.917v-1.56H27.65a.666.666 0 0 0-.678.655z" fill="#1c4276" style="stroke-width:1.4"/></svg>