<svg width="40" height="40" fill="none" xmlns="http://www.w3.org/2000/svg"><mask id="a" mask-type="alpha" maskUnits="userSpaceOnUse" x="10" y="17" width="20" height="6"><path fill="#fff" d="M10 17.29h20v5.42H10z"/></mask><g mask="url(#a)" transform="matrix(1.4 0 0 1.4 -8 -8)"><path fill-rule="evenodd" clip-rule="evenodd" d="M10.934 17.414h.971l-.145.8-.32 1.802-.324 1.801c-.049.27-.098.54-.145.81H10c.047-.27.096-.54.145-.81.106-.6.216-1.2.323-1.8l.321-1.802c.05-.267.096-.534.145-.8zm9.697-.124h.975c-.061.332-.12.664-.18.997h-.973l.178-.997zm-6.32 5.336c.078-.44.16-.88.238-1.32l.235-1.321c.08-.446-.041-.667-.364-.667-.16 0-.326.065-.499.2a4.449 4.449 0 0 0-.562.542l-.231 1.284-.229 1.282h-.949c.121-.675.24-1.35.362-2.026.122-.675.244-1.35.364-2.026h.822l-.084.598c.098-.104.198-.199.3-.283.104-.086.211-.159.322-.218.112-.06.23-.107.353-.14.12-.03.256-.047.401-.047.204 0 .374.034.513.102a.794.794 0 0 1 .325.288c.08.124.13.272.147.446.019.175.01.37-.028.585-.08.453-.162.907-.244 1.36-.081.454-.161.908-.243 1.361h-.948zm4.15-4.395c-.13.733-.262 1.466-.394 2.198-.132.733-.264 1.465-.394 2.197h-.98c.131-.732.261-1.465.393-2.197l.395-2.198h-1.397c.05-.272.098-.544.147-.817h3.774l-.147.817h-1.396zm1.94.343h.974l-.294 1.647c-.098.548-.199 1.097-.297 1.646l-.135.76h-.975c.045-.254.09-.507.137-.76l.227-1.266.227-1.267c.045-.253.09-.506.137-.76zm5.175 3.848a4.406 4.406 0 0 1-.695.21c-.22.045-.443.068-.672.068-.366 0-.68-.056-.939-.166a1.427 1.427 0 0 1-.625-.493c-.155-.22-.25-.49-.293-.812-.043-.323-.025-.698.051-1.127.079-.438.204-.829.375-1.171.17-.341.376-.63.619-.866.245-.237.525-.416.836-.54a2.703 2.703 0 0 1 1.008-.184 6.2 6.2 0 0 1 .327.008 2.952 2.952 0 0 1 .587.087c.098.024.196.056.3.092l-.175.973a2.496 2.496 0 0 0-1.125-.294c-.239 0-.454.043-.642.133a1.48 1.48 0 0 0-.488.376c-.139.16-.252.352-.344.574a3.54 3.54 0 0 0-.21.732c-.05.282-.07.534-.058.757.013.222.064.409.148.564a.836.836 0 0 0 .363.353c.158.08.358.121.597.121.084 0 .18-.008.28-.025a3.91 3.91 0 0 0 .939-.285c-.055.305-.108.61-.164.915zm3.077.198c.027-.176.05-.353.074-.53-.1.09-.202.173-.307.249a1.934 1.934 0 0 1-.713.325 1.913 1.913 0 0 1-.432.046c-.202 0-.378-.03-.52-.091a.843.843 0 0 1-.338-.256.865.865 0 0 1-.166-.394 1.5 1.5 0 0 1 .225-1.04c.109-.162.253-.3.437-.418.184-.117.403-.208.659-.275.255-.066.546-.1.875-.1h.519l.043-.243a.834.834 0 0 0 .008-.282.41.41 0 0 0-.102-.214.51.51 0 0 0-.223-.136 1.171 1.171 0 0 0-.364-.047c-.233 0-.47.027-.707.081-.233.054-.47.131-.7.23l.14-.777a4.276 4.276 0 0 1 1.476-.27c.292 0 .541.03.742.086.2.057.357.143.472.258a.814.814 0 0 1 .225.428c.034.172.033.372-.008.6l-.25 1.386c-.082.462-.165.923-.25 1.385h-.815zm.186-1.789h-.582c-.162 0-.3.016-.417.048a.946.946 0 0 0-.295.132.648.648 0 0 0-.282.427c-.03.162 0 .29.088.375.09.086.223.13.403.13.133 0 .28-.05.441-.148.16-.098.344-.24.548-.422.033-.18.066-.361.096-.542z" fill="#fff"/></g></svg>