<svg width="39" height="40" fill="none" xmlns="http://www.w3.org/2000/svg"><g clip-path="url(#a)" transform="matrix(1.4 0 0 1.4 -8 -7.972)"><g clip-path="url(#b)"><path d="M20.567 17.091c.52-.172.602-.125.602.357 0 1.622.004 3.243-.006 4.864 0 .15.136.386-.149.443-.267.054-.43-.051-.396-.443-.515.524-1.05.65-1.653.46a1.36 1.36 0 0 1-.353-.159c-.766-.515-.853-1.292-.756-2.107.105-.891.557-1.402 1.317-1.587.504-.123.935.04 1.387.4v-2.152c.011-.007.031-.016.03-.019-.004-.02-.014-.038-.023-.057zm-.028 3.768v-.779c-.001-.1.01-.192-.072-.287-.446-.515-1.39-.48-1.73.1-.367.626-.363 1.29-.034 1.933.203.4.695.572 1.142.45.505-.14.693-.387.693-.91.002-.17.001-.338.001-.507zM12.668 19.257c0-.403.294-.251.49-.262.246-.013.161.19.162.31.005 1.012.01 2.024-.004 3.035-.002.142.15.376-.17.423-.285.041-.356-.13-.402-.38-.295.21-.556.439-.922.467-.882.067-1.583-.43-1.76-1.299a3.438 3.438 0 0 1 .004-1.315c.21-1.111 1.493-1.822 2.602-.98zm.02 1.585v-.777c-.001-.1.007-.194-.074-.287-.447-.512-1.387-.46-1.721.13-.355.628-.347 1.29-.016 1.929.209.403.683.56 1.144.432.501-.14.667-.36.667-.882v-.545zM26.719 20.472c-.026.392.05.86-.055 1.322-.158.698-.715 1.069-1.594 1.055-.745-.012-1.302-.42-1.397-1.093-.122-.862-.034-1.733-.047-2.6-.005-.293.245-.143.383-.172.19-.04.24.06.236.242-.01.686-.011 1.373 0 2.06.01.676.352 1.035.947 1.023.544-.012.878-.346.887-.917.011-.66.004-1.32.003-1.982 0-.229-.066-.45.328-.445.41.005.302.252.307.463.007.323.002.648.002 1.044zM14.714 19.114c.006.723.005 1.447.02 2.17.012.598.247.92.709 1.01.647.126 1.108-.246 1.125-.933.019-.748.014-1.498.02-2.247.01-.006.03-.014.03-.018-.003-.019-.012-.037-.018-.056.565-.152.608-.123.608.407 0 .635.009 1.27-.003 1.906-.018.959-.58 1.494-1.55 1.496-.971.003-1.54-.539-1.555-1.497-.011-.635-.003-1.27-.003-1.905 0-.53.043-.558.606-.407-.009.008-.027.022-.025.025.01.018.023.033.036.05zM27.4 22.11c.402.115.735.224 1.093.199.184-.014.358-.051.524-.128a.516.516 0 0 0 .319-.492.456.456 0 0 0-.312-.45c-.279-.1-.57-.167-.854-.253-.405-.122-.693-.368-.737-.806-.046-.46.117-.843.528-1.085.564-.332 1.15-.247 1.726-.046.197.068.18.277.146.436-.047.215-.197.074-.304.05-.354-.08-.706-.169-1.068-.035-.217.08-.343.217-.358.454-.017.243.099.403.315.477.256.088.521.149.783.222.497.14.737.397.788.84.06.527-.14.931-.6 1.155-.58.281-1.175.257-1.777.065-.335-.107-.139-.36-.211-.603zM22.118 22.62v-3.505c.01-.006.032-.013.031-.017-.002-.02-.012-.04-.018-.058.557-.148.597-.12.597.42v2.83c0 .53-.059.57-.6.405.01-.008.027-.022.026-.025-.009-.018-.023-.034-.036-.05z" fill="#fff"/><path d="M22.836 17.432c-.012.3-.162.467-.438.46-.248-.006-.42-.156-.42-.418-.002-.275.166-.44.435-.44.252 0 .397.162.423.398z" fill="#912b61"/><path d="M20.567 17.091c.008.019.018.038.023.057 0 .004-.02.013-.03.019l.007-.076zM14.714 19.114c-.012-.016-.027-.032-.037-.05-.002-.003.016-.016.025-.024.006.016.015.03.019.048.001.008-.004.018-.007.026zM16.6 19.04c.006.019.014.037.017.056.001.004-.02.011-.03.017.005-.024.008-.049.012-.073zM22.131 19.04c.006.019.016.038.018.057 0 .005-.02.012-.031.017.004-.025.01-.05.013-.074zM22.118 22.62c.012.016.026.032.036.05.002.003-.016.017-.025.025-.006-.016-.014-.032-.017-.049-.002-.008.004-.018.006-.026z" fill="#fff"/></g></g><defs><clipPath id="a"><path fill="#fff" d="M0 0h39v40H0z"/></clipPath><clipPath id="b"><path fill="#fff" transform="translate(10 17)" d="M0 0h20v5.858H0z"/></clipPath></defs></svg>