<svg width="40" height="40" fill="none" xmlns="http://www.w3.org/2000/svg"><g clip-path="url(#a)" transform="matrix(1.4 0 0 1.4 -7.992 -7.991)"><mask id="b" mask-type="alpha" maskUnits="userSpaceOnUse" x="10" y="10" width="21" height="20"><path fill="#fff" d="M10 10h20v20H10z"/></mask><g mask="url(#b)" fill-rule="evenodd" clip-rule="evenodd"><path d="M23.575 10v2.387h2.402V10Zm3.996 0v2.387h2.389V10Zm-17.57 3.996v15.961h15.976V13.996Zm17.57 0v2.389h2.389v-2.389Z" fill="#fff"/><path d="M21.388 15.351c-1.447 0-2.494.953-2.494 2.414 0 1.395.778 1.704 1.945 2.04.415.12 1.14.307 1.14.831 0 .51-.457.67-.898.683-.619.028-1.29-.374-1.677-.696l-.791 1.501c.737.524 1.663.887 2.56.887.725 0 1.476-.217 2.039-.7.577-.481.724-1.273.724-1.983 0-1.168-.763-1.676-1.769-1.973l-.483-.146c-.335-.109-.845-.27-.845-.684 0-.403.469-.591.817-.604.55-.014.967.215 1.275.416l.711-1.396a4.962 4.962 0 0 0-2.254-.59zm-8.987.241v7.176h2.951c1.328 0 2.67-.51 2.67-2.066 0-.993-.416-1.756-1.409-1.931.524-.307.725-.79.725-1.421 0-1.41-.9-1.758-2.2-1.758zm1.798 1.262h.39c.603 0 .992.054.992.75 0 .591-.376.751-.993.751h-.39zm0 2.83h.779c.454 0 1.125.013 1.125.846 0 .83-.723.804-1.125.804H14.2z" fill="#000"/></g></g><defs><clipPath id="a"><path fill="#fff" d="M0 0h40v40H0z"/></clipPath></defs></svg>