<svg width="40" height="40" fill="none" xmlns="http://www.w3.org/2000/svg"><g clip-path="url(#a)" transform="matrix(1.4 0 0 1.4 -8 -8)" fill="#fff"><path d="M20 10a10 10 0 1 0 10 10 10.009 10.009 0 0 0-10-10Zm0 19.155A9.156 9.156 0 1 1 29.155 20 9.164 9.164 0 0 1 20 29.155z"/><path d="M21.69 12.576a3.648 3.648 0 0 0-3.81 3.97v1.604h-1.934v.566h1.934v8.708H20v-8.708h2.534v-.566H20v-2.533c0-1.622.515-2.931 1.867-2.931a1.47 1.47 0 0 1 1.444.988 1.2 1.2 0 0 0-.904 1.2 1.199 1.199 0 1 0 2.39 0c-.034-1.124-1.14-2.298-3.108-2.298Z"/></g><defs><clipPath id="a"><path fill="#fff" d="M0 0h40v40H0z"/></clipPath></defs></svg>