<svg width="40" height="40" fill="none" xmlns="http://www.w3.org/2000/svg"><g clip-path="url(#a)" transform="matrix(1.4 0 0 1.4 -8.192 -8)"><g clip-path="url(#b)"><path d="M23.733 19.62c-.331-1.82.49-2.989 2.04-3.876 1.03-.59 1.932-1.402 2.875-2.103.323.223.223.481.225.695.029 4.797.03 9.593.087 14.388.013.95-.256 1.345-1.265 1.264-1.103-.09-2.22-.039-3.33-.047-.514-.538-.498-1.225-.506-1.894-.02-1.777-.026-3.555 0-5.333.016-1.034-.077-2.062-.126-3.094z" fill="#7ebc5d"/><path d="M12.08 25.496c-.015-4.354-.027-8.71-.043-13.064-.003-.668-.025-1.339-.037-2.007.17-.358.475-.39.827-.384 1.353.022 2.708.028 4.061.038.181.17.274.39.277.626.014 2.531.182 5.063-.106 7.59.177 3.42.177 3.422-2.558 5.435-.804.591-1.613 1.176-2.422 1.766z" fill="#62a353"/><path d="M23.733 19.62c.34.352.453.758.445 1.256-.028 1.997-.008 3.996-.014 5.995-.002 1.028-.025 2.056.2 3.07-.41.071-.73.059-.972-.408-1.114-2.15-2.272-4.279-3.413-6.414.075-2.481.01-4.962.044-7.44.008-.592-.07-1.23.522-1.648l3.188 5.59z" fill="#73b456"/><path d="M20.545 14.03c-.355.974-.2 1.988-.213 2.983-.02 1.674-.004 3.35-.006 5.025 0 .394.091.823-.345 1.08-.905-1.645-1.809-3.289-2.715-4.932-.008-.017-.063-.029-.077-.017-.047.037-.087.084-.13.126-.283-.313-.16-.697-.163-1.048-.01-2.39-.006-4.779-.006-7.166 1.101-.252 1.82.086 2.25 1.203.365.953.928 1.833 1.405 2.747z" fill="#6cab54"/><path d="m12 29.608.002-3.493c1.644-1.251 3.285-2.503 5.085-3.874 0 2.548 0 4.907.002 7.267 0 .275-.101.46-.4.46-1.446.001-2.893.006-4.34-.02-.12-.003-.233-.222-.349-.34Z" fill="#66a653"/><path d="M23.792 16.745c0-2.137.002-4.063 0-5.99 0-.507.262-.716.754-.712 1.176.008 2.35.008 3.527.006.242 0 .47.026.634.231.231.29.227 2.583-.063 2.806-1.555 1.197-3.131 2.365-4.852 3.66z" fill="#7dbb5d"/></g></g><defs><clipPath id="a"><path fill="#fff" d="M0 0h40v40H0z"/></clipPath><clipPath id="b"><path fill="#fff" transform="translate(12 10)" d="M0 0h16.961v20H0z"/></clipPath></defs></svg>