<svg width="40" height="40" fill="none" xmlns="http://www.w3.org/2000/svg"><g clip-path="url(#a)" transform="matrix(1.4 0 0 1.4 -8 -8)" fill-rule="evenodd" clip-rule="evenodd" fill="#fff"><path d="M14.438 20.009c0-3.184 2.486-5.778 5.545-5.778 3.06 0 5.582 2.594 5.582 5.778 0 3.184-2.505 5.76-5.564 5.76s-5.564-2.576-5.564-5.76m5.546 4.383c2.326 0 4.222-1.968 4.222-4.383s-1.878-4.383-4.222-4.383c-2.343 0-4.24 1.968-4.24 4.383s1.897 4.383 4.24 4.383"/><path d="M26.635 16.771a7.871 7.871 0 0 1 0 6.476h-1.52a6.44 6.44 0 0 0 0-6.476zm-11.807 0a6.44 6.44 0 0 0 0 6.458h-1.502a7.872 7.872 0 0 1 0-6.458zm2.648 0h1.789v6.458h-1.79zm5.098 6.458-1.52-3.22 1.52-3.22h-1.789l-1.502 3.22 1.502 3.22z"/><path d="M12.182 20.01a8.298 8.298 0 0 1 .644-3.22h-1.323L10 20.01l1.503 3.22h1.341a8.3 8.3 0 0 1-.644-3.22m15.6 0a8.3 8.3 0 0 0-.644-3.22h1.341L30 20.01l-1.503 3.22h-1.341a8.3 8.3 0 0 0 .644-3.22"/></g><defs><clipPath id="a"><path fill="#fff" d="M0 0h40v40H0z"/></clipPath></defs></svg>