<svg width="39" height="40" fill="none" xmlns="http://www.w3.org/2000/svg"><g clip-path="url(#a)" transform="matrix(1.4 0 0 1.4 -8 -7.999)"><g clip-path="url(#b)"><path d="M13.378 12.505a9.049 9.049 0 0 1 4.034-2.148c.062.08.012.15-.027.213-.384.632-.796 1.245-1.175 1.88a.082.082 0 0 1-.087.042c-.162-.117-.335-.13-.533-.11-.655.069-1.31.143-1.967.193-.088.008-.192.05-.245-.07z" fill="#e48053"/><path d="M19.073 29.955c-1.163-.079-2.257-.418-3.322-.871-.037-.015-.068-.046-.102-.068.016-.147.143-.14.231-.14.618.003 1.225-.14 1.841-.152.13-.003.227-.073.32-.15a.86.86 0 0 1 .58.129c.192.346.448.649.668.976.056.084.14.158.097.276a.163.163 0 0 1-.076.015c-.08-.005-.16.015-.237-.015z" fill="#51b293"/><path d="m29.788 18.08.12.52c.03.062.017.127.013.192-.484.74-.963 1.482-1.416 2.242-.027.045-.059.084-.111.102-.298.01-.317-.014-.333-.402.001-.206-.02-.413.024-.617.11-.07.11-.07.194.125.133-.179.236-.362.348-.538.3-.471.597-.943.9-1.41.062-.096.106-.227.261-.213z" fill="#76579e"/><path d="M29.788 18.08c-.314.313-.49.72-.734 1.08-.24.354-.454.726-.684 1.088-.034.054-.075.117-.157.122-.057-.102.019-.226-.058-.321-.135-.12-.087-.268-.068-.412.468-.625.835-1.314 1.277-1.956.068-.098.108-.246.278-.223.085.198.136.406.146.623z" fill="#79549d"/><path d="m29.123 15.956.245.572c-.274.576-.671 1.075-.995 1.62-.106.18-.182.388-.37.511-.164-.243-.19-.524-.218-.805l1.114-1.752c.05-.08.113-.153.224-.146z" fill="#844d98"/><path d="m29.962 20.875-.012.197c-.338.044-.674.121-1.017.069-.141-.056-.113-.162-.058-.253.285-.47.574-.936.885-1.389.04-.057.088-.108.169-.097.044.015.056.054.07.091L30 20.501c-.054.121.005.253-.038.374z" fill="#715ca2"/><path d="m28.5 14.763.247.415c-.312.554-.671 1.08-1.01 1.618-.051.083-.121.148-.234.124-.159-.103-.217-.26-.238-.438.172-.402.454-.74.67-1.115.095-.162.205-.315.306-.473.057-.09.115-.204.26-.131z" fill="#8f4694"/><path d="M29.641 17.457c-.217.18-.334.432-.483.661-.286.44-.565.884-.844 1.328-.043.068-.08.135-.172.136-.143-.136-.134-.304-.106-.478.421-.676.842-1.352 1.288-2.012.043-.063.08-.134.163-.155.085.164.149.334.154.52z" fill="#7d529b"/><path d="M29.959 19.427c-.157.032-.198.179-.265.289-.274.458-.616.875-.83 1.37-.138.098-.276.099-.414 0 .02-.295.248-.48.385-.71.287-.484.597-.955.902-1.429.04-.06.07-.144.167-.142.03.011.033.04.044.064l.013.197a.79.79 0 0 1-.002.36z" fill="#7359a0"/><path d="M27.498 16.893c.181-.016.216-.18.291-.297.27-.419.529-.843.798-1.262.04-.06.065-.147.16-.156l.21.414c-.341.58-.712 1.14-1.073 1.707-.045.07-.09.15-.185.17-.156-.16-.253-.342-.2-.576z" fill="#8b4895"/><path d="M29.487 16.937c-.427.676-.853 1.353-1.283 2.027-.026.042-.076.067-.116.1-.134-.114-.151-.247-.062-.396.07-.31.297-.533.453-.794.275-.462.552-.924.888-1.347.004.148.133.258.12.41z" fill="#7f509a"/><path d="m12.79 13.1.168-.202.059-.052c.15-.1.322-.112.494-.13.66-.071 1.322-.114 1.98-.192.138-.017.276-.022.395.07.08.093-.002.14-.06.182-.145.104-.294.204-.476.238-.7.046-1.397.136-2.097.2-.164.015-.346.074-.463-.114z" fill="#e68851"/><path d="M15.914 12.64c-.314-.127-.627-.002-.938.016-.655.039-1.306.124-1.96.19.094-.142.2-.27.362-.34.416.006.827-.065 1.24-.103.408-.038.816-.08 1.223-.128.173-.021.235.112.328.206.026-.013.047-.007.062.018-.072.121-.166.194-.317.142z" fill="#e58452"/><path d="M26.845 12.736c.119.089.222.193.311.31.05.074.043.15-.001.22-.285.452-.557.913-.869 1.348a.182.182 0 0 1-.104.072c-.205-.055-.342-.179-.388-.391.296-.372.513-.795.778-1.186.087-.128.153-.27.273-.373z" fill="#ba328a"/><path d="m20.985 10.039.415.07c.025.052.011.103-.016.147-.28.45-.555.904-.858 1.34a.289.289 0 0 1-.12.097.485.485 0 0 1-.157.031c-.108 0-.218.011-.321-.034-.08-.058-.038-.127-.005-.182.306-.497.593-1.007.95-1.47a.12.12 0 0 1 .112 0z" fill="#dd555d"/><path d="m20.246 11.662.172-.011c.122-.042.191-.14.258-.242.225-.337.428-.689.651-1.027.06-.09.105-.203.23-.23.144-.016.28.018.415.06.057.06.045.129.009.19-.28.46-.56.921-.868 1.364-.014.02-.042.029-.065.04-.229.045-.45-.03-.675-.041-.058-.003-.113-.034-.127-.103z" fill="#dc4d60"/><path d="M22.233 10.264c.173.046.355.057.516.146.058.068.02.131-.016.189-.255.407-.507.817-.775 1.216a.331.331 0 0 1-.153.133.48.48 0 0 1-.41-.11c-.065-.11.01-.196.06-.281.175-.293.363-.579.548-.866.088-.137.17-.276.23-.427z" fill="#db4564"/><path d="M27.718 17.471c.256-.41.504-.825.77-1.228.148-.222.227-.496.47-.651.063.117.139.229.164.364-.285.257-.42.619-.64.922-.225.31-.361.68-.655.942-.134-.085-.18-.199-.11-.349z" fill="#874b97"/><path d="m16.224 12.484-.055-.003c.007-.184.135-.31.222-.456.335-.559.726-1.083 1.02-1.668.132-.065.27-.1.417-.102.05.103.052.105-.028.235-.299.481-.603.96-.909 1.436-.078.123-.157.246-.219.379-.128.112-.248.247-.448.18z" fill="#e47d53"/><path d="M11.042 24.44c-.13-.126-.164-.295-.209-.458-.082-.164.02-.267.15-.285.392-.054.785-.158 1.187-.077.136.137.25.283.222.494-.119.141-.287.132-.449.156-.302.045-.624-.007-.901.17z" fill="#cad952"/><path d="M16.637 12.284c.08-.316.317-.542.473-.814.22-.385.471-.753.71-1.127.018-.03.046-.054.009-.087a1.33 1.33 0 0 1 .463-.095c.028.062.004.12-.028.17-.399.611-.758 1.248-1.186 1.84-.137.078-.263.197-.441.113z" fill="#e37954"/><path d="M21.816 11.909c.32-.494.662-.974.933-1.499.145.013.282.057.414.115.064.078.018.151-.023.213-.255.389-.492.79-.749 1.179-.043.065-.092.127-.175.146-.152-.002-.309.006-.4-.154z" fill="#db4166"/><path d="M27.936 13.932c.087.091.17.186.208.31a12.145 12.145 0 0 1-1.098 1.726c-.165-.068-.221-.208-.246-.37.095-.281.285-.508.437-.757.152-.25.307-.498.471-.74.054-.078.09-.196.228-.17z" fill="#9d4090"/><path d="M10.073 21.287c.028-.16-.095-.307-.046-.47-.003-.122.086-.165.18-.178.418-.06.837-.118 1.26-.123.08.213.112.43.061.656-.49-.013-.97.074-1.455.115z" fill="#f6e84d"/><path d="M10.636 23.57 10.47 23c-.007-.053.024-.088.067-.094.43-.065.86-.15 1.3-.103.158.132.239.295.203.506-.273.158-.585.11-.878.158-.177.029-.354.05-.526.103z" fill="#d7de52"/><path d="M27.208 26.892c-.175.204-.36.398-.573.565a1.195 1.195 0 0 1-.506-.673 1.26 1.26 0 0 1 .564-.559c.314.113.444.367.515.667z" fill="#5eaadd"/><path d="M23.527 10.668c.12-.003.213.063.312.115.11.048.1.138.052.214-.254.408-.5.82-.772 1.216a.267.267 0 0 1-.17.11c-.166.003-.313-.039-.42-.178.37-.468.615-1.019.998-1.477z" fill="#da3c6a"/><path d="M23.527 10.668c-.074.291-.306.49-.435.753-.094.19-.229.362-.342.544-.052.084-.112.152-.218.16-.137.066-.245.045-.309-.105.348-.477.664-.974.94-1.496.13.027.25.076.364.144z" fill="#db3f68"/><path d="M18.398 10.151c.113-.075.241-.044.364-.051.199-.027.13.094.09.177-.128.264-.304.498-.462.743-.2.31-.376.635-.597.931-.126.082-.26.132-.413.094-.12-.126-.01-.224.048-.317.272-.437.546-.873.828-1.304.056-.085.11-.173.142-.273z" fill="#e17156"/><path d="M11.444 20.515c-.297.172-.634.096-.95.153-.164.03-.343 0-.466.15l-.016-.715c.406.118.804-.015 1.206-.04.076-.004.106-.077.149-.13.035-.042.074-.072.12-.01.058.202.1.404-.043.592z" fill="#fae64d"/><path d="M11.042 24.44c.003-.207.158-.185.29-.194.303-.021.606-.037.904-.1.049-.01.094-.037.141-.055.179.121.318.262.252.506-.25.143-.535.092-.803.129-.195.027-.391.034-.58.092-.144-.086-.136-.253-.204-.379z" fill="#c3d653"/><path d="M17.775 11.908c.3-.573.692-1.088 1.012-1.648.036-.062.13-.13-.025-.16.076-.065.175-.03.258-.062.077-.03.158-.013.237-.013.08.059.034.129.001.181-.342.556-.676 1.119-1.06 1.649-.135.07-.267.157-.423.053z" fill="#e16c57"/><path d="M26.166 26.771c.1.266.319.453.47.686-.185.197-.4.356-.623.507-.198-.205-.327-.465-.531-.666.163-.258.385-.443.684-.527z" fill="#56a6db"/><path d="M14.364 28.26a1.12 1.12 0 0 1-.36-.26c.093-.147.249-.134.39-.147.42-.039.838-.082 1.258-.117a.413.413 0 0 0 .174-.043.567.567 0 0 1 .524.287c-.012.09-.07.143-.152.149-.563.04-1.123.109-1.684.167-.052.005-.1-.027-.15-.036z" fill="#5fb477"/><path d="M28.5 14.763c-.12.007-.167.099-.223.188-.32.508-.644 1.012-.966 1.518-.135.005-.136-.104-.164-.19a.54.54 0 0 1 .094-.366c.276-.432.543-.871.83-1.297.054-.078.092-.194.228-.167.103.082.137.208.202.314z" fill="#934493"/><path d="M15.033 28.684c-.125-.03-.22-.11-.318-.185.064-.197.247-.16.384-.174.426-.042.852-.088 1.279-.12.128-.01.255-.033.38-.06.238.02.449.097.61.281-.073.118-.196.13-.315.141-.52.048-1.042.086-1.561.153-.157.022-.307-.012-.46-.036z" fill="#58b383"/><path d="M24.978 11.342c.117.007.168.118.26.165.129.064.08.156.03.239-.24.39-.484.777-.738 1.158-.054.081-.121.146-.229.148-.157-.033-.302-.086-.372-.25.404-.31.576-.792.865-1.187.065-.088.095-.2.184-.273z" fill="#d93474"/><path d="M15.858 27.716c-.062.133-.184.093-.29.106-.521.066-1.05.055-1.564.177-.16-.047-.253-.185-.378-.28.091-.137.236-.118.37-.131.468-.046.937-.074 1.4-.153.204.01.377.073.462.282z" fill="#63b570"/><path d="m10.27 22.38-.092-.419c.03-.086.103-.11.182-.116.347-.025.693-.065 1.04-.09.089-.006.169.014.23.084.077.128.127.258.041.402-.286.176-.616.116-.925.157-.153.021-.322.083-.476-.018z" fill="#e6e54f"/><path d="M25.487 27.3c.28.137.403.4.526.663-.182.138-.34.31-.567.382-.215-.198-.344-.463-.534-.681a.695.695 0 0 1 .575-.364z" fill="#4fa3d9"/><path d="M10.073 21.287c.096-.166.262-.082.396-.105.242-.042.487-.068.731-.095.11-.013.226-.018.293.102.092.073.083.167.054.264-.022.05-.06.09-.11.1-.435.084-.868.173-1.315.102a343.43 343.43 0 0 0-.05-.368z" fill="#f0e74d"/><path d="M24.98 28.655c-.162.106-.33.197-.516.256-.076.03-.118-.026-.145-.072-.137-.236-.41-.397-.4-.715a.935.935 0 0 1 .535-.243c.277.189.497.417.526.774z" fill="#489ed1"/><path d="M27.936 13.932c-.289.289-.445.669-.679.996-.154.217-.281.452-.42.68-.153-.028-.198-.144-.224-.275.3-.545.64-1.065.988-1.58a.175.175 0 0 1 .124-.083l.21.262z" fill="#a33e8f"/><path d="M26.151 14.666c.386-.47.668-1.009.994-1.518.017-.025.008-.066.011-.1.1.072.188.157.259.26.034.1-.042.16-.086.23-.247.398-.502.793-.757 1.188-.06.095-.118.193-.255.18-.111-.04-.199-.099-.166-.24z" fill="#b3368c"/><path d="M20.884 10.053c-.292.555-.665 1.06-.985 1.6-.08.081-.175.072-.272.043-.14-.103-.038-.2.015-.287.228-.374.453-.75.703-1.11.118-.17.044-.2-.115-.19a.236.236 0 0 1-.107-.035c-.015-.012-.022-.025-.021-.04 0-.018.002-.025.006-.025L20.61 10c.084.053.191-.017.273.052z" fill="#de5a5c"/><path d="M24.409 11.041c.122.013.203.11.309.157.064.073.038.147-.006.214-.26.394-.495.806-.762 1.196a.265.265 0 0 1-.16.122c-.132.006-.234-.037-.284-.168.09-.312.33-.535.475-.817.125-.244.298-.46.428-.704z" fill="#da3771"/><path d="M12.847 26.994a.637.637 0 0 1-.202-.208c-.047-.22.13-.207.251-.227.42-.072.848-.082 1.271-.126.18.04.313.127.31.336-.051.093-.14.125-.235.134-.4.037-.8.07-1.198.131a.288.288 0 0 1-.197-.04z" fill="#75b95b"/><path d="M24.409 11.041c.01.04.044.1.03.118-.352.434-.547.973-.931 1.385-.157.035-.286.006-.356-.157.342-.375.561-.833.842-1.25.048-.07.074-.155.155-.2.105-.011.175.066.26.104z" fill="#da396e"/><path d="M26.067 12.065c.07.05.159.078.207.159.072.094.024.177-.026.259-.248.399-.503.794-.755 1.19-.046.072-.093.146-.195.145-.13-.028-.215-.102-.237-.236.279-.505.612-.976.92-1.462.019-.03.051-.046.086-.055z" fill="#cd307f"/><path d="M16.79 28.186c-.29.158-.616.105-.924.145-.345.046-.696.06-1.04.115-.039.006-.074.035-.111.053-.116-.082-.267-.112-.352-.24.519-.126 1.06-.08 1.58-.208.125-.03.286.107.383-.08.207-.04.351.052.464.215z" fill="#5cb47d"/><path d="M23.78 12.692c.263-.25.408-.58.594-.882.122-.198.314-.361.344-.612l.26.144c.022.116-.06.192-.113.277-.207.333-.415.665-.63.994-.065.1-.143.196-.287.18-.097.035-.156.006-.167-.1z" fill="#da3573"/><path d="M22.233 10.264c.08.112 0 .191-.054.278-.262.421-.564.818-.778 1.269-.122.084-.229.082-.31-.056.223-.481.558-.895.82-1.354.034-.061.066-.118.06-.19.097-.026.171.053.262.054z" fill="#dc4962"/><path d="m10.014 19.636-.007-.352a.104.104 0 0 1 .076-.04c.35.01.694-.05 1.04-.082.134-.012.268-.06.4.008.085.161.059.306-.064.436-.404.116-.824.1-1.237.147-.087.009-.17-.024-.207-.117z" fill="#f8da4b"/><path d="M15.033 28.683c.466-.045.934-.075 1.397-.142.31-.045.636.015.93-.14.205-.062.36.006.475.182-.055.092-.144.114-.242.124-.717.07-1.434.137-2.151.205l-.41-.229Z" fill="#54b38a"/><path d="M11.856 22.847c-.465.025-.929.057-1.386.152-.066-.112-.125-.225-.105-.362-.008-.083.057-.103.113-.11.363-.044.727-.084 1.091-.109a.288.288 0 0 1 .191.06c.106.105.165.22.096.369z" fill="#dce151"/><path d="M24.148 10.937c-.17.454-.498.814-.728 1.233-.054.1-.102.227-.259.21-.112.057-.182.015-.221-.097.213-.115.27-.349.397-.529.164-.232.31-.476.462-.715.051-.08.114-.158.04-.257.126.006.214.089.31.155z" fill="#da3a6d"/><path d="M10.636 23.57c.053-.053.074-.141.166-.15.406-.035.812-.07 1.217-.107.14.083.223.191.154.363-.192-.057-.386 0-.575.012-.16.011-.32.033-.481.043-.152.01-.294.05-.285.251l-.196-.412z" fill="#d0dc53"/><path d="M24.98 28.655a2.078 2.078 0 0 0-.53-.735c.097-.194.27-.249.469-.257.265.158.394.421.527.682-.128.145-.308.21-.466.31z" fill="#4ba0d6"/><path d="M28.3 14.45c-.336.366-.555.81-.82 1.224-.115.18-.304.336-.272.588-.176-.034-.202-.149-.16-.299.333-.594.681-1.179 1.096-1.72.09.04.1.14.156.207z" fill="#984292"/><path d="m12.282 26.37-.208-.259c-.086-.2.066-.211.191-.23.403-.06.809-.097 1.215-.124.157.087.389.11.336.382-.37.119-.76.082-1.138.14-.135.023-.268.044-.396.091z" fill="#8abf56"/><path d="M25.29 13.778a6.6 6.6 0 0 0 .983-1.554l.207.171c.073.086.024.163-.02.236a26.49 26.49 0 0 1-.765 1.195c-.05.072-.11.134-.203.15-.122-.01-.216-.05-.202-.198z" fill="#c82f82"/><path d="M24.294 13.005c.116.001.155-.09.205-.17.243-.381.483-.765.732-1.143.046-.07.049-.12.007-.185.11.01.177.09.258.149.075.096.022.179-.028.26-.227.367-.46.73-.694 1.093-.06.094-.123.192-.257.19-.11-.024-.216-.052-.223-.194z" fill="#d63276"/><path d="M24.512 13.157c.121.003.153-.101.201-.177.248-.384.49-.77.738-1.152a.3.3 0 0 0 .044-.172c.074.045.163.068.21.15.076.093.025.178-.025.258-.233.368-.452.745-.7 1.103-.062.092-.122.19-.255.187-.102-.031-.21-.058-.213-.197z" fill="#d43178"/><path d="M25.475 13.944a.358.358 0 0 0 .17-.151c.266-.417.533-.834.797-1.252.025-.04.026-.097.038-.146.09.04.154.11.209.189.053.068.022.132-.017.189-.275.403-.523.824-.787 1.234a.372.372 0 0 1-.171.15c-.141-.002-.216-.08-.24-.213z" fill="#c42f85"/><path d="m21.299 29.937-.365.017a.069.069 0 0 1-.071-.006c-.24-.264-.423-.571-.632-.858-.045-.063-.082-.134-.012-.206.252-.097.45-.036.605.189.137.198.289.385.423.586.057.084.135.167.052.278z" fill="#4daaa5"/><path d="M26.317 14.87c.117 0 .148-.093.199-.173.297-.464.599-.926.899-1.388a.542.542 0 0 1 .187.211c-.292.514-.637.995-.942 1.501a.265.265 0 0 1-.129.122c-.158-.023-.227-.117-.214-.274z" fill="#ae398d"/><path d="M26.524 15.143c.323-.522.645-1.044.97-1.563.02-.03.071-.04.108-.06l.124.15-1.076 1.663c-.104-.023-.164-.074-.125-.19z" fill="#a93a8e"/><path d="M10.122 21.655c.29-.072.59-.071.885-.102.175-.018.355-.012.507-.124.157.12.163.268.083.433-.181-.122-.363.007-.543.01-.291.004-.589.015-.876.09l-.056-.307z" fill="#ebe74f"/><path d="M10.053 18.751a.159.159 0 0 1 .032-.005c.183-.145.406-.114.616-.136.297-.032.592-.089.892-.08.099.1.034.199 0 .298-.038.072-.095.127-.175.138-.43.059-.859.15-1.297.101a.18.18 0 0 1-.076-.05l.008-.266z" fill="#f7d34a"/><path d="M25.696 14.16c.346-.516.685-1.037.993-1.577l.156.154c-.03.205-.18.35-.282.511-.197.311-.397.618-.579.938-.034.06-.088.107-.166.109-.126.033-.118-.056-.122-.135z" fill="#c03087"/><path d="M11.245 24.817c.068-.174.225-.153.363-.155.347-.004.69-.045 1.03-.105.122.06.22.134.151.293-.203.132-.44.106-.664.142-.24.039-.492.023-.721.127-.063-.095-.14-.184-.159-.302z" fill="#b8d154"/><path d="M11.443 19.893c-.031.211-.145.273-.362.268-.254-.006-.51.047-.763.087-.144.023-.252.003-.307-.146l.001-.31c.31.119.619.014.927-.004.169-.01.337-.055.5.03.025.024.027.049.004.075z" fill="#f9e14b"/><path d="M15.442 28.913c.252-.202.561-.103.842-.15.43-.071.87-.077 1.305-.12.081-.007.159-.058.238-.089.091-.075.158-.05.207.05.002.22-.214.206-.295.187-.285-.066-.542.067-.817.071-.351.005-.705.08-1.064.08-.065 0-.158-.004-.209.074-.084-.004-.144-.058-.207-.103z" fill="#52b38f"/><path d="M26.067 12.066c-.3.478-.6.957-.903 1.434-.021.033-.065.052-.1.077-.12.006-.202-.032-.199-.171.322-.415.564-.881.858-1.313.043-.063.063-.143.137-.182.07.05.161.07.207.155z" fill="#d1317c"/><path d="M21.299 29.937c-.073-.291-.317-.475-.454-.726-.14-.255-.348-.358-.635-.297-.093.081-.207.066-.318.07-.077-.028-.213.02-.19-.142.401-.125.809-.062 1.214-.043.27.21.399.532.61.789.058.07.128.146.084.254l-.311.095z" fill="#4ca9a9"/><path d="M18.398 10.151c.129.019.045.076.02.118-.314.5-.627 1-.942 1.498-.051.08-.109.155-.115.254-.061.163-.173.173-.31.102l1.24-1.963.107-.009z" fill="#e27555"/><path d="M12.282 26.37c.009-.103.066-.148.167-.155.457-.033.915-.069 1.372-.103.118.041.24.08.138.246-.474.14-.967.126-1.453.164-.042.003-.081-.024-.116-.05-.059-.01-.088-.051-.108-.102Z" fill="#81bc57"/><path d="M15.442 27.461c-.263.182-.574.091-.86.149-.314.063-.642.034-.956.109-.076-.028-.106-.1-.15-.158.109-.174.296-.157.458-.17.409-.032.816-.074 1.222-.127.138.002.266.022.286.197z" fill="#67b569"/><path d="M15.184 27.308c-.359.123-.737.11-1.106.146-.205.02-.406.041-.6.107-.11.002-.16-.075-.212-.153.01-.192.164-.165.284-.18.444-.051.89-.079 1.332-.14.17-.023.273.049.302.22z" fill="#69b666"/><path d="m19.9 28.912.31.001c.16.316.4.58.594.872.033.05.08.09.08.154-.079.074-.188-.003-.27.055l-1.266-.002c-.024-.004-.033-.017-.027-.04l.057-.015c.073-.072.166-.062.257-.065.155-.006.31-.004.465.001.105-.013.256.062.306-.038.05-.097-.095-.181-.149-.273-.082-.14-.191-.26-.279-.396-.049-.076-.121-.148-.078-.254Z" fill="#4eaca1"/><path d="M12.847 26.994c.453-.08.908-.144 1.368-.157.099-.003.186-.028.246-.113.16.014.28.067.268.26-.147.126-.334.11-.508.132-.37.045-.747.043-1.112.14a1.092 1.092 0 0 1-.262-.262z" fill="#70b75e"/><path d="M11.444 19.84a6.465 6.465 0 0 0-1.099.098c-.138.022-.276.027-.332-.146l.002-.157c.302.133.602-.025.904-.021.172.002.354-.026.532-.032.076.088.08.175-.007.259z" fill="#f9dd4b"/><path d="M13.11 27.256c.089-.144.239-.146.382-.16.38-.036.762-.07 1.142-.109.03-.003.057-.033.085-.05.115-.006.2.026.206.16-.01.072-.053.097-.123.102-.432.034-.864.071-1.296.103-.096.006-.192-.001-.24.106a.367.367 0 0 1-.156-.152z" fill="#6bb662"/><path d="m12.39 26.473 1.626-.163c.102.009.204.019.174.167-.238.068-.484.1-.729.096-.217-.004-.421.064-.636.065-.084 0-.169.04-.18.148-.132-.067-.18-.2-.255-.313z" fill="#7bbb59"/><path d="M11.756 22.536c-.198-.134-.397 0-.595.006-.265.008-.536.018-.795.096-.028-.088-.113-.154-.096-.258l1.399-.157c.145.072.156.181.087.313z" fill="#e1e351"/><path d="M11.972 25.953c-.1-.03-.099-.139-.158-.2-.068-.13-.006-.21.117-.218.436-.028.866-.128 1.305-.107.11.036.205.086.195.226-.226.194-.511.128-.771.168-.231.035-.472.015-.688.131z" fill="#96c456"/><path d="M25.86 11.91c-.086.341-.352.58-.504.885-.083.166-.202.315-.3.474-.046.075-.087.15-.19.15-.079.006-.16.015-.14-.109.19-.04.225-.225.312-.353.213-.313.404-.64.61-.959a.338.338 0 0 0 .057-.193c.064.017.12.044.154.105z" fill="#d3327a"/><path d="M28.349 25.441a.62.62 0 0 1-.207.309c-.085.034-.127-.03-.164-.082-.123-.172-.279-.318-.387-.5 0-.167.086-.275.231-.344.244.036.477.31.527.617z" fill="#83c2ea"/><path d="M27.208 26.892c-.164-.215-.24-.502-.516-.624.002-.208.143-.287.313-.34.22.19.453.37.46.699a.904.904 0 0 1-.257.265z" fill="#68b0e0"/><path d="M27.61 25.175c.246.128.323.413.532.575-.051.148-.157.255-.261.366-.228-.165-.329-.437-.532-.622.025-.158.094-.28.261-.32z" fill="#7abde8"/><path d="M22.646 29.625a.435.435 0 0 1-.258.063c-.178-.049-.234-.215-.324-.344a2.61 2.61 0 0 0-.515-.575c.093-.116.223-.079.343-.086.104.005.203.03.27.119.168.223.334.447.484.683.027.044.04.094 0 .14z" fill="#4ba5b5"/><path d="M22.646 29.625c-.148-.297-.38-.536-.553-.816-.04-.065-.12-.054-.187-.062.094-.16.25-.135.398-.137.275.267.504.567.655.922a.502.502 0 0 1-.313.093z" fill="#4aa4b9"/><path d="M21.55 28.802c.15-.01.25.046.335.18.155.244.333.472.502.706a.805.805 0 0 1-.36.09c-.135-.25-.317-.469-.475-.703-.056-.084-.141-.156-.105-.275.035-.023.069-.025.102.001z" fill="#4da6b2"/><path d="M21.61 29.843c-.163-.238-.325-.476-.49-.712-.058-.084-.122-.163-.133-.27a.153.153 0 0 1 .105-.058c.06-.007.126-.004.17.036.268.252.466.557.64.878.02.038-.006.083-.033.117l-.26.009z" fill="#4ca8ac"/><path d="M11.713 25.59c-.08-.021-.08-.097-.103-.156-.062-.128.03-.193.12-.202.433-.04.862-.145 1.302-.101.086.046.163.099.133.216-.207.159-.46.097-.69.139-.252.045-.514.027-.762.103z" fill="#a1c855"/><path d="M28.349 25.441c-.108-.152-.219-.303-.322-.458-.052-.076-.11-.13-.207-.119-.04-.19.085-.288.213-.385.321.098.433.364.522.65a.633.633 0 0 1-.206.312z" fill="#8cc7ed"/><path d="M22.96 29.532a6.87 6.87 0 0 1-.625-.875c.069-.113.17-.125.287-.095.229.276.493.53.588.896l-.25.074z" fill="#4ba3bc"/><path d="m23.839 29.22-.367.142c-.282-.228-.46-.533-.633-.843.075-.115.185-.131.309-.113.155.076.228.229.32.359.116.159.23.318.37.456z" fill="#49a2c3"/><path d="M22.838 28.539c.276.225.43.542.634.823-.073.07-.175.064-.262.096-.166-.304-.442-.538-.566-.87.038-.12.113-.096.194-.05z" fill="#49a2bf"/><path d="M29.279 23.676c-.03.13-.087.249-.156.362-.22-.174-.324-.449-.536-.63.008-.148.048-.281.172-.377.239.04.513.38.52.645z" fill="#b4dbf4"/><path d="M23.839 29.221c-.155.024-.2-.114-.268-.2-.146-.185-.273-.385-.408-.58.024-.146.137-.132.242-.134.286.213.433.535.64.81a.399.399 0 0 1-.206.104z" fill="#4aa0c6"/><path d="M27.464 26.627c-.1-.264-.298-.461-.472-.674-.01-.128.06-.201.17-.248.266.04.538.394.512.67-.073.081-.11.192-.21.252z" fill="#6eb4e3"/><path d="M11.403 25.12c-.012-.138.075-.142.18-.151.348-.03.695-.069 1.042-.107.059-.007.116-.03.173-.046.14.025.2.095.137.237-.356.103-.727.095-1.09.142-.12.016-.233.036-.34.09l-.102-.166z" fill="#afcd54"/><path d="M24.045 29.117c-.292-.188-.402-.522-.621-.768.055-.14.17-.153.296-.14.216.254.399.531.587.805-.076.064-.171.078-.262.103z" fill="#489fc9"/><path d="m21.558 10.15-.84 1.317c-.07.109-.138.223-.3.183l.983-1.541c.057-.006.116-.017.157.042z" fill="#dd505f"/><path d="M28.61 23.418c.284.113.364.395.513.62a.624.624 0 0 1-.154.313c-.22-.172-.319-.449-.535-.625 0-.136.04-.25.176-.309z" fill="#abd7f3"/><path d="M11.504 25.284c.009-.102.065-.15.166-.157.424-.033.847-.068 1.27-.103.085.017.15.05.109.155l-1.295.106c-.091.007-.137.06-.144.15-.071-.026-.107-.075-.106-.15z" fill="#a8cb55"/><path d="M28.457 23.729c.282.115.364.396.512.622a.654.654 0 0 1-.155.312 2.918 2.918 0 0 1-.499-.685c-.009-.115.019-.21.142-.25z" fill="#a2d2f1"/><path d="M27.674 26.374c-.125-.246-.203-.533-.516-.625-.018-.157.086-.216.21-.26.267.13.358.404.513.626-.058.096-.104.2-.207.26z" fill="#74b9e5"/><path d="M11.972 25.953c-.008-.107.04-.146.15-.155.373-.028.745-.065 1.117-.103.058-.006.113-.032.17-.049.085.017.143.053.111.155-.423.052-.846.108-1.27.152-.113.011-.186.03-.176.159-.071-.029-.074-.102-.102-.159z" fill="#90c256"/><path d="M29.745 22.173c-.028.14-.026.287-.104.414-.135-.235-.261-.478-.49-.642-.004-.165.044-.306.178-.41a.659.659 0 0 1 .416.638z" fill="#e0f1fb"/><path d="M29.745 22.173a1.15 1.15 0 0 0-.415-.622c-.093-.162-.007-.289.083-.414.026-.02.05-.019.073.004.114.146.223.304.308.46.09.166.018.384-.049.572z" fill="#ecf6fd"/><path d="M28.34 23.984c.188.205.367.417.473.679a.633.633 0 0 1-.157.306c-.147-.25-.336-.475-.487-.724.011-.117.022-.235.171-.26z" fill="#9aceef"/><path d="M29.279 23.676c-.142-.231-.248-.493-.514-.62-.034-.148.012-.26.142-.338.243.092.468.398.476.648a.505.505 0 0 1-.104.31z" fill="#bfe0f6"/><path d="M21.869 29.834c-.198-.379-.357-.788-.787-.981.107-.173.236-.138.372-.042l.512.738c.048.069.116.133.061.23l-.158.055z" fill="#4da7ae"/><path d="M29.176 21.966c.195.012.444.345.466.622a.505.505 0 0 1-.103.311c-.153-.22-.265-.471-.489-.637-.025-.127.027-.222.126-.296z" fill="#d6ecfa"/><path d="M24.306 29.013c-.275-.196-.429-.482-.572-.776.043-.089.1-.148.207-.092.123.29.326.526.523.766l-.157.102z" fill="#489ecc"/><path d="M28.194 24.246c.197.214.42.41.462.723l-.101.16c-.172-.208-.264-.48-.514-.623-.044-.143.033-.214.153-.26z" fill="#94cbef"/><path d="M11.713 25.59c.161-.18.386-.124.584-.148.288-.034.578-.05.863-.107.12-.012.122.067.117.151-.439.036-.878.076-1.317.105-.115.008-.148.06-.145.161-.071-.031-.075-.104-.102-.163z" fill="#9cc656"/><path d="M29.073 22.277c.032-.007.087-.028.094-.018.132.208.368.358.371.64-.002.057.008.118-.052.155-.112.003-.166-.081-.213-.16-.086-.14-.219-.237-.322-.36-.009-.11.006-.208.122-.257z" fill="#cde7f8"/><path d="M28.97 22.536c.276.07.324.367.516.518a.502.502 0 0 1-.103.311c-.125-.232-.249-.464-.47-.623-.057-.09-.017-.152.058-.206z" fill="#c6e4f7"/><path d="M20.107 10.008v.039c-.068.074-.159.072-.248.073-.116 0-.231.005-.346-.005a.242.242 0 0 1-.12-.045c-.026-.024-.025-.047.001-.07l.713.008z" fill="#de5d5b"/><path d="M10.045 19.257a.239.239 0 0 0-.039.026c.006-.09-.036-.186.039-.266l.018-.008c.054.087.07.171-.018.248z" fill="#f1f4f9"/><path d="M10.468 17.042c.036-.205.103-.399.203-.582.402.01.799-.055 1.197-.093.136-.013.271-.042.401.025.14.259-.06.412-.185.59-.257.127-.542.067-.812.12-.176.035-.359.034-.539.053-.099.012-.232.052-.265-.113z" fill="#f2b848"/><path d="M11.565 14.66c.079-.152.166-.297.285-.421a.5.5 0 0 1 .268-.074c.469-.024.934-.088 1.401-.131.138-.013.273-.03.394.059.105.172-.058.237-.137.332a.408.408 0 0 1-.238.142c-.51.067-1.021.104-1.532.162-.148.016-.309.048-.441-.07z" fill="#ea9a4e"/><path d="M12.79 13.1c.314.147.629.003.939-.014.555-.03 1.104-.144 1.663-.136-.09.238-.308.3-.515.379-.73.118-1.467.166-2.202.224-.08.006-.237.059-.186-.137a1.55 1.55 0 0 1 .3-.316z" fill="#e78d50"/><path d="M10.468 17.042c.25.145.497-.022.748-.01.283.011.57-.059.855-.093.078.2-.048.334-.152.475-.173.147-.39.107-.59.139-.247.039-.496.051-.743.073-.14.012-.298-.002-.223-.224a.836.836 0 0 1 .105-.36z" fill="#f4bf49"/><path d="M12.303 16.428c-.486-.017-.962.095-1.446.119-.092.005-.168.042-.187-.086a.66.66 0 0 1 .115-.3c.044-.086.122-.115.211-.123.392-.03.783-.068 1.174-.106.11-.01.223-.01.319.064.086.207-.03.328-.186.432z" fill="#f0b249"/><path d="M11.241 15.22a.797.797 0 0 1 .166-.301c.209-.14.451-.069.677-.104.337-.052.68-.075 1.02-.104.079-.006.156-.009.218.05.044.245-.123.357-.294.466-.517.052-1.033.12-1.553.142-.108.005-.236.025-.234-.149z" fill="#eca24b"/><path d="M13.921 14.14c-.147-.054-.293-.026-.447-.017-.542.032-1.077.156-1.624.116.072-.136.157-.262.273-.365.471.04.933-.066 1.4-.096.246-.016.49-.061.737-.04.13.146-.027.207-.09.288a.274.274 0 0 1-.249.115z" fill="#e9954e"/><path d="M14.304 13.779c-.631.068-1.263.136-1.895.202-.11.011-.228.027-.286-.107a.272.272 0 0 1 .111-.146c.309-.17.656-.125.986-.169.332-.043.668-.065 1.002-.096.096-.01.19-.012.269.057.075.185-.025.244-.187.259z" fill="#e8924f"/><path d="M11.242 15.22c.041.103.113.08.207.077.536-.014 1.063-.14 1.601-.12 0 .206-.086.346-.298.392-.363-.008-.722.055-1.082.083-.21.016-.43.08-.626-.059.047-.135.104-.263.198-.373z" fill="#eda74b"/><path d="M14.53 13.58c-.268-.133-.537 0-.802.01-.5.018-.996.089-1.494.138l.256-.311c.012.11.078.071.149.064.765-.076 1.53-.145 2.296-.217-.073.185-.193.31-.406.316z" fill="#e89050"/><path d="M13.32 14.818c-.215-.104-.433-.004-.642.012-.423.032-.844.1-1.27.088l.157-.26c.557.002 1.106-.082 1.657-.145.118-.013.24-.006.36-.009-.02.161-.084.286-.263.314z" fill="#eb9e4d"/><path d="M12.49 16.06c-.035-.047-.084-.056-.137-.053-.524.035-1.048.067-1.567.154a.754.754 0 0 1 .14-.313c.339-.183.718-.12 1.079-.17.214-.029.436-.104.658-.024.086.194.047.283-.173.406z" fill="#efad4a"/><path d="M10.363 17.402c-.003.101.03.17.147.159.414-.042.83-.082 1.244-.13.056-.006.107-.05.161-.077.083.151-.004.26-.093.367-.195.169-.444.11-.668.152-.212.04-.43.034-.642.066-.093.014-.192.012-.263-.07a1.23 1.23 0 0 1 .114-.467z" fill="#f5c54a"/><path d="M10.248 17.869c.522-.058 1.058-.016 1.564-.204.084.168.012.296-.107.412-.178.113-.386.068-.579.104-.229.043-.463.037-.694.061-.103.011-.263.037-.225-.168.002-.071-.01-.144.04-.205z" fill="#f6c84a"/><path d="M10.207 18.074c.01.086.066.12.142.107.45-.078.912-.055 1.359-.153.09.11.03.207-.03.303-.035.038-.073.083-.123.092a8.728 8.728 0 0 1-1.283.127c-.091.003-.17-.051-.12-.171.006-.104-.01-.212.055-.305z" fill="#f8cd4a"/><path d="M12.701 15.697c-.498.048-.996.096-1.494.141-.094.01-.188.007-.281.01a.535.535 0 0 1 .118-.256c.5.029.992-.081 1.488-.102.09-.003.192-.034.269.05.023.089.007.152-.1.157z" fill="#eeaa4a"/><path d="M10.153 18.378c.01.052.026.114.087.108.444-.043.886-.091 1.328-.141.03-.003.055-.039.083-.059.077.106.034.187-.053.26-.322.136-.67.102-1.007.146-.166.022-.336.056-.507.053.037-.12-.005-.254.07-.367z" fill="#f7d04a"/><path d="m18.61 28.74.152.024c.12.032.223.09.295.193.178.252.36.503.537.756.046.066.116.137.046.23l-.263-.005c-.214-.308-.426-.618-.644-.924-.061-.085-.126-.163-.124-.274z" fill="#51b096"/><path d="M18.448 11.76a.434.434 0 0 1-.26.05l1.09-1.764.087-.006.118.014c.028.051.014.104-.014.146-.342.518-.637 1.068-1.02 1.56z" fill="#e06958"/><path d="m19.588 11.655-.515.04c.335-.447.612-.932.913-1.401.06-.094.119-.191.224-.245h.343c-.3.57-.695 1.052-.965 1.606z" fill="#de5d5b"/><path d="M20.21 10.049c-.312.501-.626 1-.931 1.506-.052.086-.146.081-.206.14l-.21.008c-.043-.046-.033-.1-.006-.143.323-.51.614-1.038.99-1.512l.26-.001.103.002z" fill="#df6159"/><path d="m11.548 18.807-.051.362c-.434.102-.876.134-1.32.152a.144.144 0 0 1-.132-.064l.018-.248c.452.025.896-.072 1.344-.102.072-.005.095-.066.141-.1z" fill="#f7d64a"/><path d="m19.485 28.862.21.006c.059.062.136.034.205.044.153.28.357.524.539.783.045.063.15.13.093.219-.042.066-.144.025-.22.03-.05.004-.103 0-.154 0-.292-.259-.465-.607-.69-.917-.037-.05-.032-.113.017-.165z" fill="#4fad9e"/><path d="M19.485 28.862c.025.23.21.367.323.543.115.18.25.348.35.54l-.518-.001c-.25-.426-.507-.845-.878-1.18l.723.098z" fill="#50af99"/><path d="M19.848 10.048c-.099.31-.328.542-.483.818-.16.284-.367.538-.502.837a1.034 1.034 0 0 1-.415.057c.066-.256.25-.445.379-.664.208-.354.436-.696.656-1.043l.365-.005z" fill="#e06659"/><path d="M14.133 20.927c-.082.54-.673.84-1.334.704-.59-.122-.928-.665-.816-1.268a1.156 1.156 0 0 1 1.3-.919c.347.055.64.194.811.523.047.09.058.152-.069.187-.201.056-.401.215-.553-.092-.046-.095-.183-.116-.3-.118a.515.515 0 0 0-.527.37c-.093.305-.001.628.216.766.22.14.462.122.663-.065.19-.177.405-.04.609-.088zM21.896 21.656c-.347-.009-.672-.065-.863-.405-.086-.153-.098-.261.135-.245.167.012.335-.027.461.148.063.087.198.098.313.084.117-.014.228-.048.245-.185.018-.143-.083-.198-.2-.225-.175-.04-.355-.067-.528-.117-.226-.066-.398-.19-.446-.447-.046-.248.04-.439.219-.599.388-.347 1.17-.287 1.445.108.109.156.138.269-.107.31-.163.027-.297.097-.42-.114-.085-.146-.29-.124-.452-.063-.069.026-.103.09-.102.166.001.078.045.134.115.155.147.047.297.087.446.124.51.127.692.325.646.712-.04.325-.382.578-.803.592-.034.002-.07.001-.104.001zM18.726 19.433c-.24.683-.467 1.33-.697 1.974-.061.17-.184.254-.375.255-.197.001-.366-.03-.443-.233-.246-.656-.487-1.314-.73-1.969.028-.014.035-.02.042-.02.596-.041.596-.041.777.514L17.639 21c.144-.469.285-.881.393-1.302.055-.217.155-.3.373-.269.092.015.188.004.321.004zM23.01 20.195c0-.258-.006-.516.002-.775.009-.286.152-.471.375-.516.166-.034.275-.01.238.196-.045.253.032.386.316.334.141-.026.19.029.13.171-.077.178-.034.46-.373.394-.074-.014-.069.058-.069.108 0 .258-.005.517.006.775.006.143.092.248.243.252.33.007.13.248.163.376.049.19-.12.142-.217.144-.554.014-.807-.232-.814-.787-.003-.223 0-.447 0-.672zM25.655 19.473c-.131.164-.246.303-.32.47-.015.037-.043.09-.075.097-.328.075-.33.33-.33.586-.001.173 0 .346-.005.518-.004.162-.055.31-.19.405-.115.08-.26.151-.387.09-.091-.045-.035-.188-.036-.286-.004-.57.004-1.14-.006-1.709-.003-.172.05-.246.218-.21.158.036.455-.15.38.289.227-.23.449-.343.751-.25zM20.101 19.483c-.484-.131-.996.037-1.268.415-.25.35-.254.954-.008 1.317.243.359.763.53 1.246.415.281-.067.514-.193.628-.478.03-.072.054-.148-.059-.14-.205.015-.411-.059-.61.108-.225.19-.597.06-.72-.208-.057-.125-.07-.213.118-.205.198.009.396.002.594.002.207 0 .414-.003.62.001.09.002.138-.02.155-.122.078-.463-.246-.983-.696-1.105zm-.053.823c-.102-.009-.206-.001-.308-.001-.077 0-.155.004-.231-.001-.074-.006-.179.04-.212-.03-.046-.093.043-.176.103-.243.215-.235.63-.184.766.085.069.137.057.205-.118.19zM15.431 19.435c-.68-.002-1.18.465-1.182 1.101-.001.655.488 1.118 1.185 1.123.656.004 1.147-.465 1.151-1.096.004-.65-.485-1.127-1.154-1.128zm-.013 1.732c-.338-.007-.584-.275-.58-.63.005-.361.253-.613.598-.609.321.004.565.267.567.613.002.353-.26.633-.585.626zM26.586 19.435c-.669.003-1.184.487-1.182 1.109.002.644.505 1.112 1.197 1.114.65.003 1.138-.467 1.145-1.102.006-.636-.5-1.125-1.16-1.121zm.009 1.731c-.349.004-.583-.241-.586-.613-.002-.375.223-.621.57-.625.328-.004.568.246.575.598.008.37-.226.637-.559.64z" fill="#fff"/></g></g><defs><clipPath id="a"><path fill="#fff" d="M0 0h39v40H0z"/></clipPath><clipPath id="b"><path fill="#fff" transform="translate(10 10)" d="M0 0h20v19.994H0z"/></clipPath></defs></svg>