<svg width="40" height="40" fill="none" xmlns="http://www.w3.org/2000/svg"><g clip-path="url(#a)" transform="matrix(1.4 0 0 1.4 -8 -8)"><path fill-rule="evenodd" clip-rule="evenodd" d="M20 12.261A7.729 7.729 0 0 0 12.263 20 7.729 7.729 0 0 0 20 27.738c2.346 0 4.403-1.029 5.844-2.675h-8.107c-.083 0-.206-.041-.247-.041A5.604 5.604 0 0 1 14.403 20c0-2.182 1.235-4.075 3.087-5.022.082-.041.164-.041.247-.041h4.527c.123 0 .205.041.246.041a5.456 5.456 0 0 1 2.017 1.729c.165.206 0 .494-.247.494h-6.09A3.307 3.307 0 0 0 16.666 20c0 1.153.617 2.182 1.522 2.799h10.988c.206 0 .37.206.288.412A9.968 9.968 0 0 1 20 30.002c-5.514 0-10-4.486-10-10.002 0-5.516 4.486-10.002 10-10.002S30 14.484 30 20c0 .288 0 .576-.041.864 0 .165-.165.288-.288.288h-10.7a.31.31 0 0 1-.288-.205 2.443 2.443 0 0 1-.206-.947c0-.33.083-.659.206-.947a.31.31 0 0 1 .288-.206h8.683c-.576-3.704-3.786-6.586-7.654-6.586z" fill="#991d85"/></g><defs><clipPath id="a"><path fill="#fff" d="M0 0h40v40H0z"/></clipPath></defs></svg>