<svg width="40" height="40" fill="none" xmlns="http://www.w3.org/2000/svg"><g clip-path="url(#a)" transform="matrix(1.4 0 0 1.4 -8 -8)"><mask id="b" mask-type="alpha" maskUnits="userSpaceOnUse" x="10" y="12" width="20" height="16"><path fill="#fff" d="M10 12.902h20v14.196H10z"/></mask><g mask="url(#b)" fill-rule="evenodd" clip-rule="evenodd"><path d="M18.96 15.755c-.039.017-.077.033-.116.055h-.002c-.722.419-1.413.886-2.073 1.396-.029.024-.05.044-.08.065a.57.57 0 0 0-.084.058 40.288 40.288 0 0 0-2.017 1.68c-.031.03-.063.058-.089.09a.902.902 0 0 0-.104.081c-.108.094-2.18 2.025-2.559 2.352-.014.01-.033.015-.05.007-.014-.014-.01-.05-.01-.05.01-.036.015-.065.024-.099l-1.788 1.59c.021.187.096.365.212.514.17.207.423.335.693.35h.07c.291-.015.573-.109.813-.266.246-.149.482-.32.703-.505.487-.392 1.07-.924 1.748-1.548.392-.364.807-.734 1.233-1.117.028-.026.055-.053.081-.082.032-.022.063-.043.094-.07.005-.002.007-.01.015-.012.72-.64 1.353-1.17 1.93-1.617a.582.582 0 0 0 .07-.065.27.27 0 0 0 .08-.058c.6-.465 1.232-.893 1.89-1.274a.84.84 0 0 0 .122-.082c.046-.014.09-.036.133-.057a5.797 5.797 0 0 1 1.832-.677 2 2 0 0 1 1.302.186.475.475 0 0 0 .108.086l.884-1.391a2.501 2.501 0 0 0-.18-.113 3.635 3.635 0 0 0-2.36-.385 6.36 6.36 0 0 0-1.19.313 9.69 9.69 0 0 0-1.174.532.88.88 0 0 0-.161.113z" fill="url(#c)" style="fill:url(#c)"/><path d="m22.128 21.227-.308 1.348a.838.838 0 0 0 .621.72.819.819 0 0 0 .99-.604l.265-1.077c0-.01.221-.912.512-1.902.166-.573.323-1.057.465-1.44.084-.283.207-.553.363-.806l.02-.029.043-.043a6.656 6.656 0 0 1 3.048-1.596l.438-1.683c-.27 0-.542.027-.807.085a8.921 8.921 0 0 0-2.83 1.213c-.395.25-.759.551-1.077.89-.012.013-.021.027-.03.04a.848.848 0 0 0-.112.117 3.035 3.035 0 0 0-.298.513c-.703 1.53-1.303 4.254-1.303 4.254z" fill="url(#d)" style="fill:url(#d)"/><path d="M29.853 14.72a1.032 1.032 0 0 0-.604-.516 2.643 2.643 0 0 0-.727-.094l-.443 1.698a2.07 2.07 0 0 1 .24-.039c-.04.421-.462 1.789-.854 2.988a.831.831 0 0 0 .77 1.1.832.832 0 0 0 .778-.55c.236-.675.563-1.66.777-2.524.102-.417.378-1.493.063-2.063z" fill="#1e55a3"/><path d="M20.227 16.337c-.203-.84-.53-2.231-.686-2.722-.193-.59-.561-.713-.84-.713-.571 0-.822.506-.906.698-.614 1.346-1.817 5.561-1.911 5.9 0 0-.01.039-.036.039-.03 0-.039-.039-.039-.039-.08-.27-1.203-3.519-1.675-4.53-.448-.97-.949-.893-1.211-.828a1.087 1.087 0 0 0-.592.402c-.718.939-1.288 3.192-1.582 4.282a.822.822 0 0 0 1.591.42c.24-.906.491-1.739.722-2.403.012-.034.027-.07.037-.108.014.028.021.057.036.086.27.705.57 1.562.869 2.388.27.768.534 1.495.741 2.03.113.298.207.53.28.683.04.094.086.186.141.27.039.07.09.132.15.185a.836.836 0 0 0 .705.241.864.864 0 0 0 .684-.522c.043-.085.082-.174.113-.263.065-.17.151-.407.25-.727.193-.585.433-1.384.693-2.224.263-.855.532-1.738.783-2.523.029.106.05.221.08.335z" fill="#f2001a"/><path d="m10.026 23.058 1.76-1.562v-.007c.137-.67.359-1.505.576-2.318a.82.82 0 1 0-1.59-.414c-.264.982-.476 1.94-.618 2.7-.072.407-.123.742-.142.997-.012.137-.014.27-.01.407.003.07.012.135.024.197z" fill="#f2001a"/><path d="M22.848 21.626a.813.813 0 0 0-.896.376l-.185.828c-.002.02-.022.031-.043.026a.03.03 0 0 1-.027-.026c-.007-.041-.02-.077-.029-.113l-1.596.325c.448 2.003.698 3.1.698 3.12.152.635.472.936.898.936.32 0 .727-.195.92-.956l.864-3.512a.826.826 0 0 0-.595-1.004c-.004.003-.01 0-.01 0z" fill="#ba65a5"/><path d="M28.537 18.19a.847.847 0 0 0-1.048.506c0 .01-.472 1.385-.722 1.984 0 0-.014.029-.036.029a.038.038 0 0 1-.036-.029c-.067-.255-.116-.443-.185-.672a23.874 23.874 0 0 0-.968-2.65 8.644 8.644 0 0 1-.109-.221 6.286 6.286 0 0 0-.592-.997 3.544 3.544 0 0 0-.447-.52 2.757 2.757 0 0 0-.434-.35l-.876 1.375c.229.15.57.518.97 1.392.344.802.643 1.625.896 2.467.207.64.387 1.19.57 1.623.123.28.378 1.115 1.262 1.115.818 0 1.14-.913 1.37-1.541.12-.342.584-1.623.88-2.468a.803.803 0 0 0-.476-1.033.036.036 0 0 0-.02-.01z" fill="#1e55a3"/><path d="m20.089 23.11 1.596-.326c-.202-.898-.414-1.89-.633-2.88l-.693-3.006-.142-.62-1.604.363c.248 1.05.556 2.388.92 3.998.192.845.385 1.693.556 2.47z" fill="url(#e)" style="fill:url(#e)"/></g></g><defs><linearGradient id="c" x1="17.938" y1="12.197" x2="11.125" y2="21.953" gradientUnits="userSpaceOnUse"><stop stop-color="#005F97"/><stop offset=".149" stop-color="#76345F"/><stop offset=".502" stop-color="#D3B7D1"/><stop offset="1" stop-color="#ED0826"/></linearGradient><linearGradient id="d" x1="25.724" y1="12.321" x2="19.281" y2="16.402" gradientUnits="userSpaceOnUse"><stop stop-color="#005F97"/><stop offset=".137" stop-color="#5D629E"/><stop offset=".459" stop-color="#9ABFD6"/><stop offset="1" stop-color="#BA65A5"/></linearGradient><linearGradient id="e" x1="17.925" y1="18.426" x2="22.076" y2="21.558" gradientUnits="userSpaceOnUse"><stop stop-color="#F2001A"/><stop offset=".059" stop-color="#ED0826"/><stop offset=".38" stop-color="#D8305C"/><stop offset=".651" stop-color="#C84D84"/><stop offset=".871" stop-color="#BE5F9C"/><stop offset="1" stop-color="#BA65A5"/></linearGradient><clipPath id="a"><path fill="#fff" d="M0 0h40v40H0z"/></clipPath></defs></svg>