<svg width="40" height="40" fill="none" xmlns="http://www.w3.org/2000/svg"><g clip-path="url(#a)" transform="matrix(1.4 0 0 1.4 -7.999 -7.997)"><mask id="b" mask-type="alpha" maskUnits="userSpaceOnUse" x="10" y="17" width="21" height="6"><path fill="#fff" d="M10 17.315h20v5.371H10z"/></mask><g mask="url(#b)" fill-rule="evenodd" clip-rule="evenodd" fill="#076372"><path d="M10 17.315h1.827l.743 2.558c.122.409.234.82.361 1.228.389-1.264.79-2.524 1.183-3.786h1.777v5.218c-.372-.002-.744 0-1.116-.001-.002-1.374 0-2.748 0-4.122-.002-.11.004-.221-.006-.332-.034.137-.081.27-.123.404l-1.285 4.05h-.925l-1.298-4.174c-.028-.089-.05-.179-.088-.264-.007 1.48-.001 2.959-.003 4.439H10v-5.218zM19.606 17.335a248.8 248.8 0 0 1 1.222 0c.45 1.358.904 2.716 1.357 4.073.09-.227.158-.464.24-.696l1.13-3.378h1.106c-.638 1.734-1.278 3.466-1.919 5.198h-1.218c-.64-1.732-1.28-3.464-1.918-5.197zM25.024 18.256v-.937c.38.002.76 0 1.14 0v.936h-1.14zM17.28 19.07c.365-.255.828-.35 1.266-.293.306.035.606.151.842.353.258.209.424.512.52.826.096.332.108.681.092 1.024h-2.446c.01.168.005.34.067.5.073.208.237.4.46.448.19.042.396.028.57-.065.159-.079.236-.253.279-.416.326-.003.651-.002.977-.001-.014.111-.021.225-.06.331-.11.312-.342.583-.648.714-.412.18-.877.21-1.318.146-.34-.063-.686-.193-.917-.46-.252-.273-.37-.64-.41-1.002a3.107 3.107 0 0 1 .07-1.139c.1-.383.324-.743.657-.966zm.5.66c-.129.162-.172.373-.189.576.44-.001.88.001 1.32-.002-.007-.224-.036-.468-.201-.636a.54.54 0 0 0-.446-.172.597.597 0 0 0-.484.233zM28.06 18.83a2.376 2.376 0 0 1 1.001.048c.243.072.471.213.616.424.12.167.177.372.186.575-.323 0-.647-.001-.971.001-.018-.095-.036-.196-.1-.272-.085-.113-.231-.158-.367-.162-.178-.01-.378.03-.497.173-.103.133-.082.377.088.446.22.099.458.146.689.214.27.077.552.135.797.28a.947.947 0 0 1 .434.486c.106.296.06.636-.098.905a1.366 1.366 0 0 1-.69.549c-.273.113-.572.142-.866.143-.326-.015-.667-.058-.948-.235-.19-.124-.37-.289-.455-.504a1.878 1.878 0 0 1-.074-.43l1 .001c.02.13.06.27.166.357.173.15.42.163.636.124.19-.033.356-.2.367-.396.007-.139-.092-.263-.214-.319-.207-.1-.436-.141-.656-.206-.287-.084-.595-.136-.842-.316a.875.875 0 0 1-.376-.703.971.971 0 0 1 .225-.712c.237-.278.597-.416.95-.472zM25.061 18.878h1.066v3.655c-.356-.002-.71 0-1.066 0v-3.655z"/></g></g><defs><clipPath id="a"><path fill="#fff" d="M0 0h40v40H0z"/></clipPath></defs></svg>