<svg width="40" height="40" fill="none" xmlns="http://www.w3.org/2000/svg"><g clip-path="url(#a)" transform="matrix(1.4 0 0 1.4 -8 -8)" fill-rule="evenodd" clip-rule="evenodd"><path d="M10 17.685v4.661h2.869v-.73h-2.03v-1.252h1.555v-.73H10.84v-1.221h1.926v-.728zM19.941 21.829c-.221.364-.709.55-1.123.55-.901 0-1.696-.68-1.696-1.744 0-1.065.795-1.737 1.696-1.737.4 0 .895.164 1.123.543v-.471h.73v3.337h-.73Zm-1.037-.165c.544 0 1.03-.379 1.03-1.036s-.529-1.015-1.03-1.015c-.558 0-1.023.4-1.023 1.015 0 .614.465 1.036 1.023 1.036zM21.714 21.303s.37.37.92.37c.238 0 .443-.106.443-.305 0-.502-1.641-.436-1.641-1.52 0-.628.562-.991 1.29-.991.762 0 1.132.383 1.132.383l-.31.621s-.312-.29-.828-.29c-.218 0-.43.093-.43.303 0 .477 1.641.417 1.641 1.501 0 .562-.49 1.012-1.29 1.012-.84 0-1.311-.495-1.311-.495zM26.207 18.857c1.032 0 1.86.734 1.86 1.765 0 1.038-.827 1.765-1.853 1.765-1.032 0-1.86-.727-1.86-1.765 0-1.032.827-1.765 1.853-1.765zm.007 2.816c.543 0 1-.423 1-1.051 0-.621-.456-1.051-1-1.051-.549 0-1.005.43-1.005 1.05 0 .628.456 1.052 1.005 1.052zM28.696 17.613h.834v3.517c0 .37.126.463.345.463.066 0 .125-.007.125-.007v.734s-.125.02-.265.02c-.463 0-1.039-.119-1.039-1.084z" fill="#fff"/><path d="m13.367 22.307 1.286-1.675-1.28-1.666h.987l1.28 1.666-1.286 1.675z" fill="#77b82a"/><path d="m15.322 19.802.494.642 1.13-1.479-.988-.002zM15.322 21.469l.494-.642 1.13 1.479-.988.001z" fill="#fff"/></g><defs><clipPath id="a"><path fill="#fff" d="M0 0h40v40H0z"/></clipPath></defs></svg>