<svg width="40" height="40" fill="none" xmlns="http://www.w3.org/2000/svg"><g clip-path="url(#a)" transform="matrix(1.4 0 0 1.4 -8 -8)"><mask id="b" mask-type="alpha" maskUnits="userSpaceOnUse" x="10" y="14" width="20" height="12"><path fill="#fff" d="M10 14.314h20v11.372H10z"/></mask><g mask="url(#b)"><path fill-rule="evenodd" clip-rule="evenodd" d="M12.187 19.076c0 .063.078.099.226.099.134 0 .211-.014.232-.05a120.98 120.98 0 0 0 1.235-2.215.176.176 0 0 1 .176-.113h2.138c.042 0 .07.014.092.043.02.028.02.049.007.07-.085.141-1.616 2.624-1.757 2.85-.042.057-.063.106-.063.148 0 .05.014.106.049.163.05.084 1.813 3.202 1.841 3.245.014.028.014.056-.014.084-.028.036-.07.05-.134.05h-2.137c-.05 0-.092-.007-.12-.028a.335.335 0 0 1-.07-.071 437.128 437.128 0 0 0-1.242-2.596c-.043-.085-.128-.127-.247-.127-.092 0-.149.007-.177.028-.028.014-.035.042-.035.085v2.582c0 .084-.042.127-.127.127h-1.933c-.085 0-.127-.043-.127-.127V14.44c0-.085.042-.127.127-.127h1.94c.078 0 .12.042.12.127zm6.998-.65c-.113 0-.247.008-.395.015-.148.007-.303.021-.458.035-.156.014-.31.035-.452.05-.148.014-.268.035-.367.049-.042.007-.077.007-.12.007-.035-.007-.063-.028-.07-.07l-.085-1.433c-.014-.091.007-.148.078-.176a3.31 3.31 0 0 1 .472-.092c.198-.028.41-.056.642-.077.226-.021.466-.036.706-.05.247-.014.473-.02.677-.02.381 0 .734.027 1.065.09.325.064.614.17.854.311.24.148.423.339.557.586.134.247.198.55.198.91v4.564a.17.17 0 0 1-.028.106c-.022.028-.064.056-.134.078-.142.042-.31.077-.501.105a12.806 12.806 0 0 1-1.313.127c-.232.015-.458.022-.684.022-.585 0-1.08-.029-1.474-.085-.395-.057-.706-.162-.946-.31a1.238 1.238 0 0 1-.507-.6c-.106-.247-.156-.564-.156-.96 0-.338.029-.627.078-.86.05-.233.148-.43.303-.593.155-.155.374-.282.65-.38.281-.092.648-.17 1.107-.234l1.34-.162c.05-.007.078-.035.078-.077v-.339c0-.226-.078-.374-.24-.444-.176-.057-.459-.092-.875-.092zm1.108 2.251c0-.056-.028-.084-.085-.084h-.437c-.17 0-.31.007-.438.028a.622.622 0 0 0-.303.113.53.53 0 0 0-.176.254 1.514 1.514 0 0 0-.057.444c0 .19.014.339.05.445.035.105.084.19.155.247.07.056.162.091.275.105.113.014.247.021.402.021a4.4 4.4 0 0 0 .31-.014 1.37 1.37 0 0 0 .233-.035c.042-.014.064-.042.064-.085v-1.439zm6.314-4c.677 0 1.234.064 1.672.198.437.134.783.338 1.037.607.254.275.437.62.536 1.037.099.416.148.91.148 1.488 0 .579-.05 1.086-.155 1.517-.106.43-.282.79-.536 1.072-.254.29-.586.501-1.002.642-.416.141-.931.212-1.552.212h-.607c-.063 0-.099.035-.099.113v2.003c0 .085-.042.127-.127.127h-1.954c-.084 0-.127-.042-.127-.127v-8.465c0-.085.043-.135.127-.163.099-.028.24-.05.424-.077.183-.029.395-.057.627-.078.233-.028.494-.05.762-.07.275-.029.55-.036.826-.036zm-.565 5.157c0 .057.036.099.106.12.07.021.219.028.445.028.204 0 .38-.028.522-.084a.703.703 0 0 0 .338-.304c.085-.148.148-.338.184-.592.035-.247.056-.565.056-.96 0-.374-.021-.677-.056-.91a1.439 1.439 0 0 0-.184-.55.632.632 0 0 0-.338-.268 1.918 1.918 0 0 0-.53-.07c-.366 0-.55.042-.55.133v3.457z" fill="url(#c)" style="fill:url(#c)"/></g></g><defs><linearGradient id="c" x1="1.62" y1="21.03" x2="11.993" y2="35.973" gradientUnits="userSpaceOnUse"><stop stop-color="#DEE326"/><stop offset=".039" stop-color="#DAE128"/><stop offset=".074" stop-color="#CFDC2C"/><stop offset=".108" stop-color="#BDD333"/><stop offset=".109" stop-color="#BCD233"/><stop offset=".154" stop-color="#B9D134"/><stop offset=".196" stop-color="#AECC37"/><stop offset=".236" stop-color="#9BC33B"/><stop offset=".246" stop-color="#95C03D"/><stop offset=".262" stop-color="#91BF45"/><stop offset=".287" stop-color="#86BC5C"/><stop offset=".318" stop-color="#73B782"/><stop offset=".354" stop-color="#5AB1B6"/><stop offset=".384" stop-color="#43AAE6"/><stop offset=".438" stop-color="#41A6E3"/><stop offset=".497" stop-color="#3E99D9"/><stop offset=".559" stop-color="#3882C9"/><stop offset=".623" stop-color="#3064B2"/><stop offset=".634" stop-color="#2E5DAD"/><stop offset=".639" stop-color="#305AAB"/><stop offset=".696" stop-color="#463598"/><stop offset=".741" stop-color="#531E8D"/><stop offset=".77" stop-color="#581689"/><stop offset=".771" stop-color="#5A1687"/><stop offset=".8" stop-color="#80166B"/><stop offset=".828" stop-color="#9E1656"/><stop offset=".856" stop-color="#B31646"/><stop offset=".882" stop-color="#C0153D"/><stop offset=".908" stop-color="#C4153A"/><stop offset=".921" stop-color="#C51D3B"/><stop offset=".943" stop-color="#C9333F"/><stop offset=".969" stop-color="#CE5745"/><stop offset=".998" stop-color="#D6884D"/><stop offset="1" stop-color="#D68B4E"/></linearGradient><clipPath id="a"><path fill="#fff" d="M0 0h40v40H0z"/></clipPath></defs></svg>