<svg width="40" height="40" fill="none" xmlns="http://www.w3.org/2000/svg"><g clip-path="url(#a)" transform="matrix(1.4 0 0 1.4 -8.001 -8.065)"><path d="M13.25 25.271h3.191c.71 0 1.037-.205 1.282-.886.245-.668.382-1.364.559-2.045.614-2.305 1.214-4.69 1.936-6.94.082-.3.205-.587.341-.86.409-.954 1.145-1.39 2.14-1.526.178-.014 1.296-.055 2.005.095 1.036.245 1.595.968 1.922 1.923-.068.054-.136.013-.204.013h-2.945c-.614 0-.86.164-1.05.75-.982 2.809-1.663 5.972-2.59 8.876-.191.573-.423 1.132-.75 1.65-.314.45-.75.709-1.282.832a5.66 5.66 0 0 1-2.863-.028c-.573-.15-1.023-.477-1.31-1.009-.122-.272-.272-.545-.381-.845zm-3.244-12.04c.709 0 1.418.014 2.127 0 .15 0 .204.028.232.178.695 2.74 1.404 5.481 2.113 8.235.286 1.118-.354 2.29-1.445 2.686-.137.041-.191.027-.218-.122-.396-1.527-.805-3.055-1.2-4.595-.518-2.045-1.05-4.104-1.568-6.163-.014-.027 0-.068-.041-.082zm15.993 7.786c-.15-.532-.286-1.023-.422-1.527-.123-.436-.287-.873-.328-1.336a2.266 2.266 0 0 1 1.418-2.359c.177-.082.232-.055.3.15.491 1.813 1.01 3.64 1.514 5.467.504 1.773.995 3.545 1.5 5.332.04.177.04.245-.178.218a48.564 48.564 0 0 0-1.99 0c-.123 0-.178-.041-.205-.15-.314-1.146-.627-2.29-.927-3.436-.055-.164-.11-.218-.286-.218-1.623.013-3.232 0-4.827.013-.205 0-.218-.082-.191-.245a2.283 2.283 0 0 1 2.25-1.909z" fill="#fff"/></g><defs><clipPath id="a"><path fill="#fff" transform="translate(10 13)" d="M0 0h20v14.33H0z"/></clipPath></defs></svg>