<svg width="40" height="40" fill="none" xmlns="http://www.w3.org/2000/svg"><mask id="a" mask-type="alpha" maskUnits="userSpaceOnUse" x="10" y="13" width="20" height="14"><path fill="#fff" d="M10 13.566h20v12.867H10z"/></mask><g mask="url(#a)" transform="matrix(1.4 0 0 1.4 -8 -8)" fill-rule="evenodd" clip-rule="evenodd"><path d="M10 26.434V15.81a2.248 2.248 0 0 1 2.245-2.245H30V24.19a2.247 2.247 0 0 1-2.244 2.245z" fill="#fff"/><path d="M10.66 15.811v9.964h17.095a1.585 1.585 0 0 0 1.584-1.586v-9.962H12.245c-.876 0-1.585.71-1.585 1.584z" fill="#fff"/><path d="M27.08 20.143a30.647 30.647 0 0 1 2.26-.068v-5.848H12.245c-.876 0-1.585.71-1.585 1.584v9.417c2.602-1.635 5.775-3.001 9.241-3.928 2.828-.756 5.465-1.047 7.18-1.157z" fill="#005496"/><path d="M20.106 22.065c-3.304.884-6.33 2.172-8.825 3.709h16.474c.875 0 1.584-.71 1.584-1.585v-3.3c-1.56-.025-5.212.1-9.233 1.176z" fill="#ed1c24"/><path d="M14.104 17.488c-.13-.106-.222-.162-.533-.296-.157-.074-.463-.19-.468-.445 0-.184.163-.3.338-.3.273 0 .444.259.481.31l.456-.511c-.05-.056-.194-.222-.407-.324a1.409 1.409 0 0 0-.538-.116c-.162 0-.616.023-.903.435a.941.941 0 0 0-.167.537c0 .287.134.558.362.732.148.11.306.204.472.283.125.055.337.143.426.277a.322.322 0 0 1 .056.184c0 .223-.184.38-.399.38-.269 0-.454-.208-.607-.38l-.472.522c.056.055.264.273.523.37.223.084.482.093.552.093.088 0 .357-.01.598-.14a.979.979 0 0 0 .231-.17.976.976 0 0 0 .315-.746.854.854 0 0 0-.316-.695zM17.419 15.894l-.435 1.288c-.053.167-.11.333-.164.5l-.133.468c-.022-.092-.044-.184-.071-.278-.058-.2-.123-.39-.187-.583l-.466-1.395h-.701l-.44 3.27h.653l.164-1.501c.018-.158.035-.315.049-.472.004-.125.009-.246.009-.37.026.101.048.198.08.296.035.139.08.273.128.407l.568 1.64h.426l.52-1.538c.088-.273.173-.552.248-.828 0 .111 0 .222.005.333.009.154.026.307.04.459l.186 1.574h.661l-.444-3.27zM20.836 15.894h-.714l-1.214 3.27h.719l.228-.663h1.283l.241.662h.727zm-.771 1.993c.074-.213.144-.426.215-.64.052-.157.14-.42.175-.578.013-.065.022-.134.03-.2.031.228.062.334.202.756.074.217.153.44.228.662z" fill="#fff"/></g></svg>