<svg width="40" height="40" fill="none" xmlns="http://www.w3.org/2000/svg"><path fill-rule="evenodd" clip-rule="evenodd" d="M6 14.804v.91h2.792c.326 0 .489.064.652.228.13.163.13.227.13.811v4.677c0 .876-.164 1.04-.942 1.04h-.781v-5.846H6v6.85h3.444c.812 0 1.04-.064 1.43-.451.357-.36.421-.618.421-1.627V16.49c0-.614-.064-.842-.326-1.168-.323-.356-.747-.52-1.332-.52zm5.845 8.67h1.722V19.06c0-.326 0-.424.065-.52.098-.227.36-.356.682-.356.292 0 .49.065.717.228V17.11c-1.92.034-2.534.163-3.186.682zm4.518-8.898c-.554 0-.975.421-.975.94 0 .554.42.975.975.975.52 0 .94-.42.94-.974a.94.94 0 0 0-.94-.941zm2.306 0c-.554 0-.975.421-.975.94 0 .554.42.975.975.975.52 0 .94-.42.94-.974a.94.94 0 0 0-.94-.941zm-.717 4.84h-1.49c-.589 0-.847.064-1.139.356-.326.262-.489.65-.489 1.172v1.006c0 .455.099.777.36 1.073.323.357.615.451 1.297.451h3.217v-4.84c0-.42-.129-.777-.421-1.069-.36-.357-.652-.455-1.301-.455h-2.598v1.3c.648-.26 1.073-.36 1.657-.36.615 0 .907.198.907.619zm0 3.053h-.748c-.292 0-.52-.098-.648-.326-.065-.095-.065-.129-.065-.421v-.584c0-.49.228-.717.713-.717h.748zm6.918-5.325h-3.05c-.587 0-.815.064-1.137.322-.326.292-.49.717-.49 1.203v.94c0 .391.133.782.391 1.074.326.356.584.455 1.237.455h1.395c.615 0 .877-.099 1.169-.326.326-.292.485-.683.485-1.203zm-3.05 1.623c0-.425.259-.682.744-.682.49 0 .747.257.747.682v.747c0 .422-.292.683-.747.683-.485 0-.743-.261-.743-.683zm3.183 4.157c0-.489-.099-.811-.357-1.103-.326-.357-.682-.455-1.365-.455h-1.43c-.649 0-.91.064-1.233.322-.326.296-.52.747-.52 1.236v.941c0 .455.16.846.422 1.104.326.36.618.455 1.33.455h1.43c.62 0 .911-.065 1.234-.322.326-.292.489-.653.489-1.237zm-3.182.164c0-.49.223-.748.713-.748.485 0 .747.258.747.748v.713c0 .42-.262.682-.717.682-.485 0-.743-.261-.743-.682zm8.443-1.95v-2.47c0-1.039-.554-1.524-1.722-1.524h-1.43c-.615 0-.876.064-1.199.322a1.59 1.59 0 0 0-.52 1.203v3.28c0 .456.13.778.422 1.104.322.327.618.422 1.297.422h3.122v-1.298c-.88.258-1.4.326-2.049.326-.747 0-1.073-.163-1.073-.588v-.777Zm-3.152-1.01v-1.296c0-.49.228-.747.717-.747.455 0 .713.257.713.713v1.33zm3.706 3.346h1.722V19.06c0-.326 0-.424.064-.52.095-.227.357-.356.68-.356.295 0 .488.065.716.228V17.11c-1.915.034-2.534.163-3.182.682z" fill="#fff" style="stroke-width:1.4"/></svg>