<svg width="41" height="40" fill="none" xmlns="http://www.w3.org/2000/svg"><g clip-path="url(#a)" transform="matrix(1.4 0 0 1.4 -8.4 -8.031)"><g clip-path="url(#b)"><path d="M17.472 22.081h-6.37c-.096 0-.097 0-.097-.096 0-1.276 0-2.552-.002-3.828 0-.078.034-.08.094-.08h12.667c.212 0 .176-.01.176.177.002 1.254.001 2.507.003 3.76 0 .056-.023.068-.073.068-.356-.001-.712 0-1.068 0h-5.33z" fill="#ffcf2f"/><path d="M25.814 13.084h5.091c.092 0 .093 0 .093.092v3.793c0 .02-.002.041 0 .061.002.039-.015.053-.053.051-.063-.002-.127-.001-.19-.001-3.35 0-6.698 0-10.048.002-.061 0-.075-.018-.075-.076.001-1.283.002-2.565-.001-3.848 0-.077.036-.075.09-.075h5.092z" fill="#f3787c"/><path d="M28.604 27.076c-.77 0-1.541-.001-2.312.001-.067 0-.081-.02-.08-.083v-3.828c0-.066.016-.09.086-.09 1.541.002 3.082.002 4.623 0 .062 0 .079.016.079.08-.002 1.282-.002 2.565 0 3.847 0 .064-.022.074-.078.074-.773-.002-1.545-.001-2.318-.001z" fill="#94cfc7"/><path d="M13.336 24.36c0-.406.001-.811-.001-1.217 0-.055.01-.075.068-.072.105.005.209.004.313 0 .052-.002.068.01.068.065-.003.574-.002 1.147-.002 1.72 0 .207-.006.413.004.62.015.297.082.582.267.826a.98.98 0 0 0 .725.389c.297.026.578-.028.82-.218.24-.188.358-.447.415-.74.026-.133.035-.269.035-.405v-2.182c0-.058.009-.08.072-.076.095.007.19.005.285 0 .054-.002.067.012.067.066-.002.664-.002 1.328 0 1.993 0 .285-.003.57-.077.849-.133.498-.403.89-.904 1.065-.559.194-1.099.15-1.578-.23-.265-.21-.41-.5-.497-.822a2.461 2.461 0 0 1-.078-.618c-.004-.338-.001-.675-.001-1.013zM19.416 14.044c-.06 0-.122-.004-.183 0-.042.004-.055-.014-.063-.049a.76.76 0 0 0-.177-.346c-.178-.192-.502-.246-.754-.13a.615.615 0 0 0-.345.637c.025.252.162.419.382.529.198.1.414.154.62.232.132.05.26.105.377.185.237.16.363.389.405.669.047.317.013.62-.17.891-.25.371-.609.525-1.05.495a1.147 1.147 0 0 1-.601-.206c-.244-.174-.38-.42-.456-.702-.013-.048-.02-.097-.032-.145-.007-.03-.002-.042.03-.041.135 0 .268.001.402-.001.038 0 .038.025.044.047.03.122.08.236.156.336.183.24.565.33.85.203a.685.685 0 0 0 .378-.735c-.036-.243-.177-.399-.387-.504-.188-.094-.392-.147-.589-.22a1.91 1.91 0 0 1-.379-.179.886.886 0 0 1-.398-.553c-.07-.293-.07-.584.067-.86.199-.402.633-.633 1.08-.592.608.055.92.467 1.022.987.008.04 0 .056-.045.053-.061-.004-.122 0-.184 0v-.001zM27.945 20.08c0-.644.001-1.288-.001-1.931 0-.058.017-.07.072-.07.557.001 1.115.002 1.672 0 .066-.001.084.016.08.081-.006.1-.005.2 0 .3.002.051-.014.063-.064.062-.415-.002-.83 0-1.244-.002-.054 0-.072.01-.072.069.003.362.003.725 0 1.087 0 .053.013.069.068.068.36-.002.72 0 1.08-.002.05 0 .065.01.063.063a3.78 3.78 0 0 0 0 .32c.002.049-.015.058-.061.058-.349-.002-.698-.001-1.047-.001-.101 0-.101 0-.101.104l-.001 1.285c0 .052.011.068.066.068.433-.003.865 0 1.298-.003.05 0 .07.008.068.065a3.102 3.102 0 0 0 0 .313c.002.054-.015.067-.067.067-.415-.002-.83-.001-1.244-.001-.163 0-.327-.004-.49.001-.065.003-.076-.02-.075-.078v-1.924zM23.406 25.067c0-.64 0-1.282-.002-1.923 0-.062.017-.073.075-.073.56.002 1.12.002 1.68 0 .053 0 .069.012.066.066a3.958 3.958 0 0 0 0 .32c.002.045-.01.057-.055.056-.417-.002-.834 0-1.25-.003-.063 0-.074.018-.073.076.003.356.004.711 0 1.067-.002.073.02.084.086.083.354-.003.707 0 1.06-.003.051 0 .067.012.064.064a3.225 3.225 0 0 0 0 .312c.003.058-.02.065-.068.065-.356-.002-.712 0-1.068-.003-.059 0-.075.013-.074.074.003.433.003.865 0 1.298 0 .065.01.087.082.086.428-.004.857 0 1.285-.003.055 0 .067.015.065.067a5.08 5.08 0 0 0 0 .32c0 .037-.003.055-.05.055-.589-.002-1.178-.002-1.767 0-.052 0-.057-.02-.057-.063v-1.938zM26.312 20.302c0 .568-.002 1.137.001 1.705 0 .061-.016.077-.075.074a3.316 3.316 0 0 0-.306 0c-.051.002-.063-.013-.063-.064.002-.435 0-.87 0-1.305 0-.706 0-1.413.002-2.12 0-.055-.011-.073-.07-.072-.287.003-.575 0-.862.003-.048 0-.062-.013-.06-.06a4.857 4.857 0 0 0 0-.327c-.001-.046.013-.056.056-.056h.89l1.42-.001c.048 0 .062.01.06.059-.003.11-.003.222 0 .333.002.044-.012.052-.053.051-.287-.001-.575.002-.863-.002-.068-.002-.08.02-.08.082.004.567.003 1.133.003 1.7zM11.002 25.066c0-.641 0-1.283-.002-1.924 0-.055.012-.074.07-.071.104.004.209.004.313 0 .051-.003.063.012.063.063-.002.611-.002 1.223-.002 1.835 0 .53.001 1.06-.001 1.59 0 .059.016.07.07.07.415-.003.83-.001 1.245-.003.05 0 .065.01.063.062a4.997 4.997 0 0 0 0 .326c0 .04-.007.054-.051.054a262.23 262.23 0 0 0-1.706 0c-.053 0-.064-.015-.064-.065.002-.646.002-1.292.002-1.937zM30.998 20.082l.001 1.93c0 .052-.01.072-.066.07a3.658 3.658 0 0 0-.32 0c-.052.001-.063-.015-.063-.065.002-.675.001-1.35.001-2.026 0-.614.001-1.228-.001-1.842 0-.058.015-.072.07-.07.104.004.209.006.313 0 .056-.004.066.014.066.066-.002.646-.001 1.291-.001 1.937z" fill="#fff"/><path d="M14.913 23.53h-.55c-.15 0-.242-.09-.241-.231.001-.14.098-.23.247-.229l.795.002h.313c.14.002.236.1.233.236-.003.13-.098.221-.233.222h-.564zM12.668 14.934a.849.849 0 0 0 .263-.234c.165-.24.195-.507.151-.786a.915.915 0 0 0-.417-.653 1.126 1.126 0 0 0-.604-.176c-.327-.005-.653 0-.98-.004-.064 0-.081.015-.081.08.002 1.263.002 2.525.002 3.787 0 .027.002.054-.001.081-.005.043.013.053.054.053.145-.003.29 0 .435-.002.27-.005.54.018.808-.014.283-.033.53-.143.723-.36.169-.19.247-.419.266-.668.035-.473-.114-.894-.62-1.105zm-1.173-1.421c.188.003.376-.003.564.004.433.017.621.317.588.698-.034.393-.306.54-.611.551-.181.007-.362 0-.543.003-.039 0-.05-.01-.05-.05.002-.194.001-.389.002-.583 0-.19.001-.38-.002-.57 0-.042.01-.054.052-.054zm1.345 2.46c-.03.42-.302.671-.723.677-.206.003-.413-.001-.619.001-.046.001-.055-.014-.054-.057.002-.229 0-.458 0-.686v-.686c0-.026-.009-.056.037-.056.233.005.466-.01.7.007.447.031.69.37.66.8zM19.676 25.716a.94.94 0 0 0-.295-.602 1.1 1.1 0 0 0-.315-.192.932.932 0 0 0 .256-.227c.228-.311.235-.838.013-1.174-.196-.296-.488-.428-.829-.442-.353-.015-.707-.005-1.06-.009-.05 0-.047.023-.047.057v3.88c0 .046.008.061.057.06.34-.002.68 0 1.02 0 .088 0 .176-.003.263-.018.356-.062.641-.228.815-.555.129-.244.153-.508.122-.778zm-1.836-1.593v-.57c0-.028-.005-.055.038-.054.222.008.444-.015.665.014a.552.552 0 0 1 .501.542c.012.198-.018.384-.168.531a.582.582 0 0 1-.399.163c-.196.008-.393.003-.59.005-.043.001-.047-.019-.047-.053v-.577zm1.122 2.377a.727.727 0 0 1-.432.138c-.213.005-.426 0-.638.003-.053 0-.053-.025-.053-.062v-.68c.001-.226.002-.452 0-.679 0-.048.009-.066.062-.065.211.004.422-.001.632.003.42.009.7.296.705.717.003.251-.068.469-.276.625zM22.684 25.754a.974.974 0 0 0-.217-.552 1.006 1.006 0 0 0-.397-.28c.044-.032.089-.06.128-.093a.843.843 0 0 0 .11-.11c.255-.32.258-.89.006-1.235-.195-.266-.47-.39-.788-.403-.36-.016-.72-.006-1.08-.01-.048 0-.043.025-.043.055v3.882c0 .045.008.06.058.06.333-.002.666-.001.999-.001.095 0 .19-.002.284-.018.309-.053.57-.187.751-.452.174-.255.216-.542.189-.843zm-1.84-1.63v-.57c0-.027-.007-.056.037-.054.217.006.435-.015.652.012.308.038.497.239.516.55.01.17-.014.334-.124.474a.564.564 0 0 1-.437.212c-.198.01-.398.004-.597.007-.042 0-.048-.017-.048-.053.002-.192 0-.385 0-.577zm1.39 1.895c-.05.386-.32.616-.709.62-.206.003-.412 0-.618.002-.05 0-.065-.011-.064-.063.003-.227 0-.453 0-.68.001-.229.002-.457 0-.686 0-.044.011-.057.056-.057.202.003.403.002.605.002.505 0 .794.368.73.862zM17.065 17.05l-.441-1.352c-.28-.853-.56-1.705-.838-2.559-.015-.045-.033-.058-.08-.057-.265.002-.53.003-.795 0-.065-.002-.09.018-.111.08-.346 1.069-.695 2.137-1.043 3.205l-.231.714c.14 0 .273-.003.405.002.048.001.066-.015.08-.058.124-.391.252-.782.377-1.173.011-.035.021-.057.067-.057.55.002 1.101.002 1.652 0 .058 0 .08.022.097.075.124.387.252.772.378 1.158.008.024.008.054.048.054.146-.002.293-.001.444-.001l-.009-.032zm-1.106-1.694c-.44-.003-.88-.002-1.32-.002h-.087l.74-2.266.064.188c.219.67.436 1.338.656 2.007.02.06.012.074-.053.073z" fill="#fff"/></g></g><defs><clipPath id="a"><path fill="#fff" transform="translate(.878)" d="M0 0h40v40H0z"/></clipPath><clipPath id="b"><path fill="#fff" transform="translate(11 13)" d="M0 0h20v14.156H0z"/></clipPath></defs></svg>