<svg width="40" height="40" fill="none" xmlns="http://www.w3.org/2000/svg"><g clip-path="url(#a)" transform="matrix(1.4 0 0 1.4 -8 -8)" fill-rule="evenodd" clip-rule="evenodd"><path d="M20.771 10.783a8.431 8.431 0 0 0-8.445 8.446 8.431 8.431 0 0 0 8.445 8.445 8.431 8.431 0 0 0 8.446-8.445 8.431 8.431 0 0 0-8.446-8.446zm-5.826 8.593c0 .93.27 1.224 1.004 1.224h1.42v.71h-1.47c-.489 0-.88-.025-1.272-.343-.416-.343-.637-.881-.637-1.616 0-1.444.612-2.13 1.934-2.13h1.444v.71h-1.42c-.734 0-1.003.44-1.003 1.445zm4.627-.49h2.031v2.424h-1.836c-.49 0-.905-.025-1.297-.343-.416-.343-.636-.881-.636-1.616 0-1.444.612-2.13 1.933-2.13h1.836v.71h-1.836c-.685 0-.979.44-.979 1.371 0 .881.27 1.273.98 1.273h.954v-.955h-1.15zm4.235-1.665 1.052 3.158 1.028-3.158h1.273v4.088h-.857l.074-3.182-1.053 3.182h-.905l-1.078-3.206.074 3.206h-.881v-4.088z" fill="url(#b)" style="fill:url(#b)"/><path d="M29.878 18.519c.024.147.024.318.024.465.025.171.025.318.025.49 0 .146-.025.318-.025.465 0 .147-.024.318-.049.465 0 .171-.024.318-.049.49-.024.146-.073.293-.098.464-.024.147-.073.294-.122.466a2.946 2.946 0 0 1-.123.44c-.048.147-.122.294-.17.44-.05.148-.123.295-.172.441l-.22.441c-.074.147-.147.27-.22.416-.074.147-.172.27-.246.392-.098.147-.171.27-.269.416l-.294.367c-.098.123-.196.245-.318.368a4.06 4.06 0 0 1-.318.342c-.123.098-.22.22-.343.318-.122.123-.245.22-.367.319l-.367.293c-.123.098-.27.196-.392.27-.122.098-.27.171-.392.245-.147.098-.293.17-.416.244-.147.074-.294.147-.44.196a3.465 3.465 0 0 1-.441.196c-.147.049-.294.123-.44.171l-.441.147c-.172.025-.319.074-.466.098a3.953 3.953 0 0 1-.465.098c-.171.025-.318.05-.49.074a2.71 2.71 0 0 1-.464.048c-.147 0-.319.025-.465.025h-.49c-.147 0-.318-.025-.465-.025-.172-.024-.318-.048-.465-.048a3.48 3.48 0 0 1-.49-.098 3.975 3.975 0 0 1-.465-.098c-.147-.025-.294-.074-.44-.123-.172-.049-.319-.098-.466-.146-.147-.05-.294-.099-.44-.172-.147-.049-.294-.122-.441-.171-.147-.074-.27-.147-.416-.22-.147-.074-.27-.172-.416-.245-.147-.074-.27-.172-.392-.245-.147-.098-.27-.196-.392-.294l-.367-.294c-.122-.098-.245-.195-.367-.318-.123-.098-.22-.22-.343-.318-.098-.123-.22-.245-.318-.367a2.405 2.405 0 0 1-.294-.368l-.293-.367c-.099-.122-.172-.269-.27-.391-.073-.147-.171-.27-.245-.417-.073-.146-.146-.269-.22-.416-.073-.147-.122-.293-.196-.44a3.266 3.266 0 0 1-.171-.441c-.074-.147-.122-.294-.171-.44-.05-.148-.074-.319-.123-.466a2.598 2.598 0 0 1-.098-.465 2.59 2.59 0 0 1-.098-.465 2.997 2.997 0 0 1-.049-.465c-.024-.171-.049-.318-.049-.465V18.886c0-.171.025-.318.05-.49 0-.146.024-.318.048-.465.025-.146.05-.318.098-.465.025-.147.05-.318.098-.465.05-.147.098-.294.122-.465.05-.147.123-.294.172-.44.049-.147.122-.294.171-.441.074-.147.147-.294.196-.44.074-.123.147-.27.245-.417.073-.122.147-.27.245-.392.073-.147.171-.269.245-.416l.293-.367.294-.367c.122-.123.22-.245.343-.343.098-.122.22-.245.318-.343.122-.098.245-.22.367-.318l.367-.294c.123-.098.27-.196.392-.269.122-.098.27-.171.392-.27a6.44 6.44 0 0 0 .416-.22l.44-.22c.123-.073.27-.122.417-.196.147-.049.293-.122.465-.171l.44-.147c.147-.049.319-.073.465-.122.147-.025.294-.074.466-.098.146-.025.318-.05.465-.074.147-.024.318-.024.465-.049.171 0 .318-.024.49-.024h.465c.17 0 .318 0 .49.024.146 0 .293.025.464.05-.171-.05-.343-.074-.514-.099-.171-.024-.343-.024-.538-.049-.172 0-.343-.024-.514-.024h-.515c-.195 0-.367.024-.538.024l-.514.074-.514.073c-.172.025-.343.074-.514.123-.172.024-.343.073-.514.122-.172.049-.343.098-.49.171a2.927 2.927 0 0 0-.49.196c-.17.05-.318.123-.49.196-.146.098-.317.171-.464.245-.147.098-.294.171-.465.27-.147.097-.294.195-.417.293l-.44.294c-.123.122-.27.22-.392.342-.147.123-.27.245-.391.343-.123.123-.245.27-.368.392-.122.122-.244.245-.367.391-.098.123-.22.27-.318.392l-.294.44-.294.441c-.098.147-.171.294-.269.466-.073.146-.147.293-.22.465-.074.147-.147.318-.22.465-.074.171-.123.343-.172.49a4.22 4.22 0 0 0-.171.513 3.91 3.91 0 0 0-.123.515c-.049.17-.073.342-.122.514l-.074.514c-.024.171-.024.342-.048.514 0 .171-.025.342-.025.538v.514c0 .172.025.343.049.514 0 .196.024.368.049.539l.073.514c.05.171.074.343.123.514.049.171.098.343.147.49.049.171.098.342.171.514.049.171.122.318.171.49.074.146.147.318.22.464.074.172.172.319.246.466.097.171.17.318.269.465l.294.44c.097.147.195.27.318.416.098.147.22.27.318.392.122.147.245.27.367.392l.367.367c.123.122.27.245.392.343.147.122.27.22.416.342l.44.294.442.294c.146.073.293.171.44.245.172.098.318.171.49.245.147.073.318.146.465.195.171.074.343.123.49.196.17.05.342.098.514.147.17.05.342.098.514.123.17.049.342.073.514.122l.514.073c.171.025.342.025.514.05.171 0 .342 0 .538.024.172 0 .343 0 .514-.025.172 0 .343 0 .514-.024.196-.025.368-.049.54-.074l.513-.073c.171-.049.343-.073.514-.122.172-.05.343-.098.49-.147.171-.05.342-.098.514-.172.147-.049.318-.122.49-.195.146-.074.318-.147.465-.22a2.78 2.78 0 0 0 .465-.246c.147-.073.293-.17.465-.269.147-.098.27-.171.416-.294.147-.098.294-.195.416-.293.147-.123.294-.22.416-.343.123-.123.27-.245.392-.367l.367-.368c.098-.122.22-.269.343-.391.098-.147.22-.27.318-.416l.294-.44.294-.442c.073-.146.171-.293.244-.465.074-.147.172-.293.245-.465.074-.147.123-.318.196-.49.073-.146.122-.318.171-.489.074-.171.123-.318.172-.49.049-.17.073-.342.122-.514.025-.171.074-.342.098-.514l.074-.514c.024-.171.024-.367.048-.538 0-.172 0-.343.025-.514 0-.172-.025-.343-.025-.539 0-.171-.024-.343-.024-.514l-.073-.514z" fill="#82898f"/></g><defs><radialGradient id="b" cx="0" cy="0" r="1" gradientUnits="userSpaceOnUse" gradientTransform="rotate(145.322 9.852 11.77) scale(6.02649)"><stop stop-color="#ABC2DB"/><stop offset="1" stop-color="#1F688E"/></radialGradient><clipPath id="a"><path fill="#fff" d="M0 0h40v40H0z"/></clipPath></defs></svg>