<svg width="39" height="40" fill="none" xmlns="http://www.w3.org/2000/svg"><g clip-path="url(#a)" transform="matrix(1.4 0 0 1.4 -8 -8.048)"><g clip-path="url(#b)"><path d="M14.017 25.515a35.199 35.199 0 0 1-1.493-.863c-.04-.096-.14-.123-.215-.171-.26-.171-.422-.441-.662-.634a3.098 3.098 0 0 1-.499-.467 5.445 5.445 0 0 0-.615-.649c-.131-.117-.302-.19-.393-.36-.043-.08-.084-.161-.13-.24v-.715c.064-.065.118-.047.17.016.291.347.672.605.957.958.245.304.558.537.834.807.068.067.113.157.201.205.172.204.3.447.537.592a.572.572 0 0 1 .041.02c.038.013.076.023.11.044a.331.331 0 0 1 .109.122c.014.028.029.054.045.08.067.092.103.213.233.243.023.01.041.025.053.047.208.195.37.436.609.598.079.054.12.133.167.21.043.074.028.13-.06.157z" fill="#437196"/><path d="M22.024 23.831c.013-.01.024-.023.038-.032.463-.287.463-.287.918.03.014.037.023.073.063.095.227.13.378.345.574.509.404.336.73.748 1.103 1.112.101.099.226.165.321.273.066.076.07.133.02.207-.225.204-.452.247-.7.033-.106-.092-.255-.122-.36-.22-.105-.16-.293-.228-.414-.375-.315-.382-.721-.673-1.048-1.045-.139-.16-.27-.33-.448-.452-.045-.03-.103-.061-.067-.135z" fill="#5d9aaf"/><path d="M15.696 26.09c-.288.281-.541.12-.793-.062a.35.35 0 0 0-.21-.195c-.104-.042-.203-.1-.255-.2-.172-.328-.475-.536-.722-.794-.086-.09-.223-.11-.31-.203a1.365 1.365 0 0 1-.171-.309c-.066-.179-.27-.216-.38-.354-.05-.061-.12-.103-.154-.183-.04-.095-.125-.143-.23-.151a.202.202 0 0 1-.131-.106c-.146-.139-.207-.344-.377-.465-.062-.045-.061-.118.02-.163.421.238.852.46 1.26.723.05.113.17.147.256.218.227.184.435.39.63.606.186.206.383.399.585.587.288.269.56.553.825.843.055.061.2.068.157.207z" fill="#467598"/><path d="M29.986 18.828v.341c-.067.069-.114.03-.17-.024-.211-.202-.4-.427-.61-.631-.098-.094-.207-.175-.3-.275a.72.72 0 0 1-.169-.295c.016-.142-.051-.224-.179-.285-.14-.067-.27-.157-.405-.237-.099-.143-.255-.223-.373-.35a16.329 16.329 0 0 0-.869-.887c-.34-.316-.647-.666-.982-.985-.279-.266-.547-.542-.82-.813-.042-.043-.145-.098-.053-.192l.825.476c.186.185.405.331.594.515.132.129.26.264.39.395.248.253.499.503.76.744.2.187.374.405.573.596.17.164.334.335.512.492.12.107.231.23.34.35.236.258.48.506.748.732.1.084.147.21.188.333z" fill="#c5aa62"/><path d="M15.696 26.09c-.225-.01-.27-.242-.422-.345-.156-.106-.227-.299-.41-.398-.083-.046-.164-.169-.244-.258-.019-.02-.027-.057-.05-.067-.238-.113-.364-.349-.537-.525-.18-.184-.406-.33-.544-.558-.017-.027-.05-.057-.078-.062-.146-.026-.141-.147-.169-.25l1.57.887c.053.03.101.069.152.103.086.174.244.287.388.398.14.108.24.245.351.374a.836.836 0 0 0 .204.188c.098.06.267.09.197.277-.129.09-.265.17-.408.235z" fill="#48779a"/><path d="M19.374 20.293v-1.054c.132-.053.215.044.292.112.197.173.387.355.549.563.028.036.06.067.099.09.19.12.277.305.332.512v.85c-.055.128-.11.152-.208.084-.06-.042-.106-.1-.16-.15-.271-.254-.51-.541-.796-.778-.077-.062-.038-.169-.108-.23z" fill="#5f9db1"/><path d="M29.986 18.828c-.442-.431-.872-.875-1.312-1.308-.206-.203-.402-.42-.627-.608-.152-.128-.269-.303-.423-.437-.233-.202-.425-.445-.66-.645-.145-.122-.255-.284-.398-.415-.227-.208-.438-.433-.66-.648-.032-.032-.058-.052-.024-.096.301.159.6.324.885.51.048.112.154.163.244.23.04.03.084.055.118.093.394.445.851.828 1.253 1.266.267.292.576.544.843.837.25.275.55.503.761.813v.408z" fill="#c9ab60"/><path d="M10.01 22.13c.112.093.209.206.313.298.113.098.209.219.33.305.2.143.335.347.512.51.132.123.282.25.389.376.182.213.44.35.584.6.068.117.192.203.296.297.043.039.085.074.09.135a49.823 49.823 0 0 1-1.876-1.083c-.092-.08-.173-.17-.271-.245-.163-.124-.327-.255-.366-.476v-.717z" fill="#426e94"/><path d="M25.06 26.025c-.095-.208-.308-.303-.448-.469-.195-.23-.429-.424-.626-.656-.148-.173-.34-.308-.503-.47-.163-.163-.312-.34-.487-.49-.036-.031-.03-.07-.016-.11.497.284.995.567 1.492.852.073.042.144.089.215.134.28.249.548.51.789.799.032.038.075.07.067.13-.152.109-.316.197-.483.28z" fill="#5f9db0"/><path d="M29.986 18.42c-.262-.099-.407-.335-.594-.519-.508-.498-1.007-1.006-1.51-1.51l-1.063-1.068c-.04-.04-.093-.073-.052-.142.286.187.609.309.885.511.017.084.09.115.15.153.256.17.474.374.66.62.125.166.295.298.452.434.163.14.318.29.463.445.153.165.29.344.464.49.077.065.092.167.145.246v.34z" fill="#cdab5d"/><path d="M19.374 20.293c.165.112.313.25.435.4.192.237.445.41.631.65.044.057.112.073.183.071.05.222.01.447.022.67.004.074 0 .147 0 .22-.006.15-.09.117-.17.067-.079-.048-.123-.133-.189-.195-.28-.267-.552-.542-.812-.828-.039-.043-.065-.093-.1-.137v-.918z" fill="#5d9aaf"/><path d="M13.917 14.803a5.78 5.78 0 0 1 .642-.372c.091-.036.172-.03.246.045.343.348.7.681 1.033 1.04.069.073.116.147-.01.213-.131-.072-.267-.138-.394-.218-.078-.05-.137-.043-.213.003-.134.08-.274.151-.41.226-.185-.017-.278-.174-.385-.283a7.97 7.97 0 0 1-.468-.508c-.038-.045-.083-.082-.041-.146z" fill="#5f9db1"/><path d="M22.024 23.831c.245.125.416.329.598.528.243.266.485.537.777.754.086.063.139.162.212.231.108.103.159.263.324.313.06.02.067.111.066.18-.52-.279-1.03-.573-1.534-.88-.1-.158-.269-.235-.414-.337-.08-.056-.155-.102-.19-.2-.03-.088-.108-.144-.179-.2-.05-.038-.105-.072-.068-.15.128-.092.264-.172.408-.239z" fill="#5b96ac"/><path d="m14.904 14.23.276-.165c.34.218.575.55.87.816.215.196.406.416.632.603.257.213.48.465.715.703.064.064.128.129.194.19.062.058.08.12.04.197-.122.116-.238.088-.361-.004-.093-.07-.198-.124-.298-.186a.885.885 0 0 0-.23-.213c-.227-.14-.38-.355-.57-.528-.262-.238-.482-.517-.753-.749a3.249 3.249 0 0 1-.472-.505c-.034-.047-.06-.097-.043-.158Z" fill="#67a0aa"/><path d="m20.624 22.365-.001-.95v-.955c-.077-.146-.077-.308-.095-.466.028-.168.019-.337.005-.505.043-.062.008-.146.06-.205a.06.06 0 0 1 .057-.014l.008 2.314c.001.437-.023.875.008 1.31.021.3-.102.453-.364.537-.247.031-.284.01-.36-.207-.04-.111-.145-.14-.234-.184-.103-.05-.21-.084-.204-.234.003-.064-.064-.082-.123-.096-.096-.024-.134-.08-.082-.175.061-.044.073-.104.072-.176-.003-.189.002-.378.004-.568.058-.047.13-.051.165.007.07.115.194.174.265.285.072.111.16.205.308.216.062.004.085.058.114.11.082.147.18.284.307.393-.002-.003.007-.007.006-.01.013-.085 0-.17.006-.253.004-.068.006-.137.078-.174z" fill="#5a94ab"/><path d="M19.131 24.107c-.204.146-.43.25-.647.374-.06-.012-.093-.062-.132-.101a8.547 8.547 0 0 0-.705-.654c-.099-.079-.062-.155-.017-.238l.61-.348c.149.083.276.188.385.321.128.156.29.28.437.42.067.063.142.122.07.226z" fill="#538aa5"/><path d="M14.904 14.231c.116.115.258.214.342.35.154.245.4.395.599.586.316.303.561.682.944.918.096.06.11.21.238.25.01.004-.032.037-.055.05-.39-.204-.77-.424-1.144-.656.035-.113-.064-.166-.118-.223a44.037 44.037 0 0 0-.9-.909.678.678 0 0 0-.251-.165c.107-.081.222-.148.345-.201z" fill="#649fae"/><path d="M11.259 20.396v.577c-.039.048-.083.054-.134.02-.108-.07-.238-.133-.31-.229-.108-.144-.243-.262-.35-.405-.017-.023-.031-.053-.058-.059-.262-.056-.303-.29-.397-.483v-.647c.132-.056.22.044.295.11.192.171.375.357.57.522.196.165.32.355.384.594z" fill="#4a7a9c"/><path d="M10.01 19.817c.092.059.176.123.204.237.011.046.043.089.086.1.265.066.372.297.529.482.117.138.265.252.43.337v.748c-.062.045-.114.011-.149-.032-.158-.196-.374-.328-.54-.522-.17-.199-.344-.407-.56-.568v-.782z" fill="#48779a"/><path d="M11.259 19.033v.713c-.088.062-.157.045-.21-.049a.617.617 0 0 0-.2-.203c-.08-.055-.156-.11-.188-.21-.021-.067-.089-.102-.15-.131-.256-.124-.37-.367-.5-.596v-.647c.141-.092.195-.076.28.054.186.285.411.534.7.717.051.033.091.063.102.125.017.102.116.147.166.227z" fill="#4d7f9e"/><path d="M13.917 14.803c.315.296.616.605.893.936-.164.114-.337.211-.517.297-.07.04-.135.016-.182-.034-.127-.135-.287-.241-.391-.394-.091-.135-.254-.184-.339-.323-.037-.063-.047-.11-.005-.168.173-.118.352-.224.54-.314z" fill="#5d9aaf"/><path d="M11.982 22.905c.012.03.016.077.037.09.188.101.215.344.398.45.019.01-.009.037-.029.048-.039.114-.108.11-.188.044-.03-.024-.05-.058-.084-.078-.161-.077-.25-.235-.383-.345a6.813 6.813 0 0 1-.637-.624c-.268-.289-.555-.554-.834-.83l-.251-.244v-.274c.05-.105.125-.087.19-.024.143.137.325.234.435.406a.26.26 0 0 0 .112.1c.183.08.278.259.42.384.082.071.051.218.092.326-.01.118.053.182.152.237.193.105.38.222.57.334z" fill="#457397"/><path d="M29.986 18.08c-.198-.165-.399-.329-.552-.538-.142-.193-.334-.336-.5-.504-.212-.216-.449-.405-.641-.644-.147-.183-.34-.328-.509-.494-.058-.058-.171-.086-.132-.208.306.2.65.333.948.547.414.36.781.768 1.187 1.135.092.083.132.199.2.297v.409z" fill="#d0ab5c"/><path d="m24.402 14.15.171-.098c.172.06.266.215.383.334.393.403.8.792 1.193 1.194.405.413.82.815 1.225 1.228.046.047.118.103.03.179a7.681 7.681 0 0 1-.715-.41.29.29 0 0 0-.073-.09c-.429-.308-.75-.73-1.138-1.08-.335-.303-.621-.656-.964-.953-.083-.073-.188-.161-.112-.304z" fill="#bfa966"/><path d="M20.624 22.365c-.007.194.036.391-.03.583-.238-.092-.32-.336-.483-.5-.013-.014-.012-.058-.02-.06-.351-.032-.416-.403-.662-.558-.019-.012-.037-.026-.055-.039v-.58c.235.03.314.256.468.386.112.096.2.225.327.31.114.076.176.197.26.3a.495.495 0 0 0 .195.158z" fill="#5b96ac"/><path d="M10.01 17.399c-.018-.357-.018-.357.302-.509.12.063.202.176.298.264.225.206.484.39.615.684.007.014.023.025.034.038v.682c-.053.103-.114.066-.172.006a124.55 124.55 0 0 0-.83-.858c-.092-.093-.217-.163-.247-.307z" fill="#4f84a1"/><path d="M24.402 14.15c.086.207.275.326.423.477.576.59 1.163 1.168 1.746 1.751.056.056.114.111.119.198a8.415 8.415 0 0 1-.75-.434c-.267-.226-.55-.435-.783-.697-.29-.324-.61-.618-.921-.92-.067-.066-.126-.135-.073-.238l.239-.137z" fill="#bca968"/><path d="M10.01 18.557c.139.09.267.191.326.353.027.072.101.06.15.095.25.178.417.437.639.642.04.037.089.066.134.1v.649c-.07.006-.088-.055-.101-.097-.058-.187-.237-.263-.347-.398-.113-.14-.274-.224-.378-.375-.106-.153-.28-.24-.422-.356v-.613z" fill="#4b7c9d"/><path d="M17.63 23.488c.008.09.036.157.136.19.133.046.179.192.28.28.132.114.251.243.374.368.041.042.059.096.064.155-.15.105-.31.196-.476.274a2.43 2.43 0 0 1-.51-.48 1.919 1.919 0 0 0-.343-.321c-.056-.04-.1-.074-.066-.149l.541-.317z" fill="#5187a3"/><path d="M11.259 22.334c-.163-.277-.352-.529-.654-.671-.047-.023-.039-.08-.063-.116-.015-.023-.027-.06-.048-.067-.183-.061-.273-.234-.419-.34-.014-.01-.043.001-.065.003v-.544c.072-.025.128.003.187.047.178.136.34.301.477.467.18.22.413.383.584.608v.613z" fill="#467598"/><path d="M16.104 25.855c-.124-.185-.381-.205-.49-.43a.86.86 0 0 0-.324-.33c-.143-.088-.22-.251-.359-.352-.049-.036-.01-.091.033-.126.045.02.097.032.133.062.152.13.303.124.458.01.134-.018.212.054.283.159.082.12.222.189.321.287.144.144.333.249.429.44-.145.12-.328.176-.484.28z" fill="#4a7a9b"/><path d="M13.865 16.282c-.128.094-.266.17-.41.236-.19.042-.295-.007-.379-.176-.027-.056-.053-.13-.109-.145-.222-.059-.292-.273-.44-.407-.052-.048-.066-.1-.04-.166l.448-.256a.412.412 0 0 1 .38.209c.058.093.136.164.25.182.062.01.101.045.12.105.02.06.058.111.105.15.092.073.108.163.075.268z" fill="#5a94ab"/><path d="m15.589 14.135.788.457c.101.139.25.222.382.323.1.077.174.171.26.257.31.304.58.647.933.906.099.073.142.16.058.273a.685.685 0 0 1-.208.123c-.245-.169-.45-.379-.657-.594-.157-.165-.32-.326-.472-.496a2.633 2.633 0 0 0-.458-.463.255.255 0 0 1-.054-.047 12.934 12.934 0 0 0-.554-.565.153.153 0 0 1-.033-.038c-.025-.049-.038-.096.015-.136z" fill="#6ca0a5"/><path d="M10.01 17.399c.312.214.567.486.812.77.085.1.175.21.317.238.038.008.058-.005.026.053-.042.078.021.103.094.097v.476c-.128-.033-.282-.032-.277-.228 0-.016-.025-.042-.042-.046-.194-.052-.305-.225-.437-.348a1.538 1.538 0 0 1-.316-.397c-.052-.102-.124-.064-.177-.104v-.511z" fill="#4e819f"/><path d="M17.089 23.806c.34.17.53.508.815.74.063.05.076.136.103.21a1.73 1.73 0 0 1-.346.2c-.078.046-.16.035-.213-.028-.226-.264-.501-.477-.742-.726-.047-.048-.082-.096-.027-.16.129-.091.267-.169.41-.236z" fill="#4f84a1"/><path d="M19.298 22.535c.175.077.327.162.369.384.01.059.172.089.263.133.045.022.117.039.108.093-.035.214.134.229.263.286a2.256 2.256 0 0 1-.41.237c-.235.084-.38-.087-.5-.223-.14-.159-.29-.308-.432-.465-.072-.078-.1-.145-.033-.234.12-.079.24-.156.372-.21z" fill="#5891a9"/><path d="M12.488 15.623c.187.145.285.382.516.48.06.024.103.075.122.135.052.164.2.21.329.28-.167.102-.322.23-.52.273a.644.644 0 0 1-.313-.192c-.172-.184-.393-.319-.531-.54-.048-.078-.054-.13-.011-.198l.408-.238z" fill="#5891aa"/><path d="m12.257 17.207-.477.276a.691.691 0 0 1-.297-.228c-.155-.194-.37-.335-.53-.528-.046-.054-.097-.095-.062-.173a3.59 3.59 0 0 1 .477-.275c.116-.01.18.041.25.143a1.2 1.2 0 0 0 .33.331c.13.086.208.232.318.343.032.033.007.075-.009.111z" fill="#538aa5"/><path d="M15.965 24.453c.153-.102.31-.196.476-.273.077.11.192.19.25.317l.025.037c.12.02.203.072.227.203.012.066.06.132.125.151.167.05.195.164.168.313a1.71 1.71 0 0 1-.347.2c-.13.053-.223.035-.307-.098-.07-.11-.201-.168-.291-.269-.098-.11-.173-.238-.304-.326-.066-.045-.053-.166-.022-.255z" fill="#4d7f9e"/><path d="M20.624 19.984v.476c-.204-.28-.486-.486-.717-.741a2.932 2.932 0 0 0-.533-.481v-.443c.055-.085.123-.105.19-.02.263.326.617.558.891.872.088.1.149.207.17.337z" fill="#649fae"/><path d="M24.163 14.287c.198.263.454.47.684.702.345.349.69.7 1.033 1.05.026.028.04.069.06.103a10.658 10.658 0 0 1-.886-.51c-.076-.109-.202-.155-.298-.239-.267-.231-.493-.505-.749-.747-.08-.075-.12-.15-.044-.249l.2-.11z" fill="#b8a86a"/><path d="M13.865 16.282c-.069-.168-.24-.262-.309-.43-.303-.038-.362-.388-.62-.485.139-.095.286-.178.439-.25.014.068.068.103.12.136.25.159.358.467.635.602.068.032.065.158.163.181a2.46 2.46 0 0 1-.428.246z" fill="#5b96ac"/><path d="m16.202 14.846.034.034a.843.843 0 0 0 .342.334c.063.033.061.122.135.142.085-.012.113.064.157.11.234.238.463.48.696.719.087.09.233.13.236.288l-.17.102c-.17-.242-.4-.427-.603-.637-.324-.336-.662-.66-.994-.989-.256-.253-.511-.508-.768-.76a.278.278 0 0 1-.086-.123l.07-.037c.129-.004.226.061.297.158.023.031.044.06.076.08.137.181.321.317.463.494.03.037.074.06.115.085z" fill="#6aa0a8"/><path d="M29.986 21.96v.477c-.053.054-.096.032-.144-.013-.348-.327-.66-.69-1.016-1.01-.057-.052-.047-.14-.089-.201v-.442c.069-.052.118-.007.162.036.33.323.674.63.978.978.047.052.063.123.11.176z" fill="#a5a677"/><path d="M20.624 19.984c-.07-.148-.206-.238-.316-.349-.26-.264-.551-.496-.791-.78-.042-.05-.08-.077-.143-.06v-.51c.078-.057.128.002.174.049.318.319.642.632.954.958.053.055.073.129.122.184v.508z" fill="#67a0aa"/><path d="M28.738 21.212c.4.362.765.758 1.147 1.138.031.032.067.058.101.087v.375c-.068.09-.137.058-.198-.006-.165-.173-.381-.294-.514-.504a.964.964 0 0 0-.266-.28.907.907 0 0 1-.27-.333v-.477z" fill="#a0a57a"/><path d="M27.404 16.987c-.079-.183-.235-.303-.369-.439-.336-.343-.68-.678-1.021-1.016-.418-.413-.837-.825-1.252-1.241-.071-.071-.127-.16-.19-.24.03-.03.064-.053.109-.05.254.143.424.378.624.58.318.321.653.626.965.955.407.43.846.828 1.253 1.257.079.083.159.165.236.25.045.049.098.095.018.157a2.038 2.038 0 0 1-.373-.213z" fill="#c2a964"/><path d="M17.236 25.2c-.011-.003-.03-.004-.031-.01-.057-.223-.38-.242-.386-.506-.001-.053-.051-.05-.093-.041-.082.015-.077-.044-.073-.107.01-.013.01-.013 0 0-.043-.023-.07-.073-.112-.09-.133-.056-.143-.15-.1-.266a.901.901 0 0 1 .238-.137c.246.28.566.485.786.792a.28.28 0 0 0 .196.12 2.468 2.468 0 0 1-.425.246z" fill="#4e819f"/><path d="M15.965 24.453c.03.225.246.314.367.47.118.151.3.264.414.436.021.031.094.029.143.042-.092.072-.192.13-.3.173-.15-.02-.242-.16-.388-.19-.005 0-.015-.004-.015-.005.012-.206-.205-.212-.294-.332-.096-.13-.223-.24-.336-.357.129-.092.266-.17.41-.237z" fill="#4b7c9c"/><path d="M12.257 17.207c-.204-.202-.372-.447-.643-.572-.05-.023-.015-.058-.031-.08-.068-.095-.109-.212-.215-.276l.342-.2c.064-.005.12.01.17.056.127.117.28.208.367.367.063.113.195.148.282.239.073.077.11.15.101.25a2.13 2.13 0 0 1-.373.216zM19.131 24.107c-.066-.15-.22-.215-.322-.333-.153-.18-.331-.336-.5-.5a.223.223 0 0 1-.068-.134l.313-.181a.203.203 0 0 1 .194.073c.078.09.181.152.272.23.162.137.297.3.426.47.04.053.055.11.033.174a1.695 1.695 0 0 1-.348.201z" fill="#558da7"/><path d="M27.777 17.2c-.054-.185-.212-.29-.336-.417-.484-.495-.97-.99-1.468-1.47-.397-.384-.781-.78-1.17-1.172-.044-.044-.081-.094-.121-.141.148.02.255.12.375.195.054.165.199.259.312.373.59.593 1.192 1.172 1.78 1.766.299.3.587.611.898.9.054.05.1.109.107.188l-.377-.222z" fill="#c2a964"/><path d="M13.478 24.582c.344.179.588.475.863.734.104.099.16.24.262.348.038.038.064.089.118.101.144.033.188.13.182.263l-.886-.513c.015-.173-.135-.241-.228-.336-.19-.193-.403-.364-.55-.597.08-.12.16-.036.239 0z" fill="#457397"/><path d="M19.374 17.4c.005-.126-.042-.256.035-.374.166-.03.25.105.336.194.239.25.507.47.726.737.064.079.13.154.173.247l.001.21c0 .053.001.105-.001.157-.05.098-.109.045-.164.009-.192-.124-.321-.314-.486-.468-.16-.149-.31-.309-.459-.471a.781.781 0 0 1-.161-.241z" fill="#71a1a0"/><path d="M29.986 21.96c-.256-.145-.415-.395-.627-.588-.213-.194-.415-.4-.621-.602v-.375c.068-.073.135-.051.188.013.223.272.495.493.744.738.121.12.244.245.316.405v.41z" fill="#a8a674"/><path d="M19.48 23.905c-.126-.104-.173-.285-.36-.343-.037-.012-.088-.172-.169-.24-.138-.115-.28-.226-.397-.364.119-.081.238-.16.373-.212.043.19.205.303.336.407.135.106.204.267.364.355.085.047.179.102.265.16-.13.093-.267.173-.413.237z" fill="#568fa8"/><path d="M11.259 17.875c-.158.008-.22-.119-.283-.223a.573.573 0 0 0-.174-.197c-.163-.106-.286-.258-.432-.384-.059-.051-.07-.11-.059-.181l.34-.2c.134.187.347.287.493.468.09.111.22.218.349.304.055.038.072.08.074.14-.07.044-.139.093-.212.131-.06.032-.097.073-.096.142z" fill="#5186a3"/><path d="m12.63 16.992-.92-.913.37-.218c.15.187.272.392.48.54.14.1.286.226.375.39-.078.103-.215.116-.305.2z" fill="#568fa8"/><path d="M28.738 19.306v-.374c.07-.054.135-.05.197.012.33.326.651.658.965.999.037.04.065.093.087.145v.408c-.068.052-.116.005-.162-.036-.264-.239-.508-.497-.757-.749-.122-.124-.284-.22-.33-.405z" fill="#b8a96a"/><path d="M11.567 17.602c-.093-.071-.219-.055-.301-.196-.06-.103-.208-.175-.296-.302-.041-.059-.152-.128-.234-.184-.1-.069-.097-.138-.084-.229l.24-.137c.267.23.52.475.754.74.053.061.137.09.134.189l-.213.119z" fill="#5288a4"/><path d="M18.551 16.03c-.13.062-.231.173-.37.221-.106-.016-.156-.109-.222-.174-.296-.287-.592-.574-.879-.87-.06-.062-.147-.13-.027-.22.394.214.782.437 1.158.681.074.106.215.122.295.228.036.047.092.067.045.135z" fill="#71a1a0"/><path d="M28.738 19.306c.405.327.746.72 1.123 1.076.04.04.084.076.126.114v.374c-.133.053-.23-.04-.289-.118-.237-.306-.546-.541-.797-.834-.064-.075-.107-.161-.163-.24v-.372z" fill="#b4a86d"/><path d="M28.738 21.689c.215.117.383.29.534.476.175.215.385.392.578.587a.215.215 0 0 0 .137.06c-.003.125.036.254-.028.375-.214.042-.318-.12-.424-.249-.134-.162-.297-.293-.445-.438-.137-.134-.272-.261-.352-.438v-.374z" fill="#9ca57d"/><path d="M28.738 19.68c.14.037.214.16.303.255.305.322.619.636.946.935v.34c-.086.074-.147.014-.204-.042-.356-.353-.727-.69-1.045-1.08v-.409z" fill="#b0a76f"/><path d="M25.543 25.745c-.17-.049-.266-.2-.363-.318-.138-.166-.313-.289-.449-.453-.04-.05-.092-.087-.044-.158a.779.779 0 0 1 .254-.138c.065-.018.115-.004.165.05.133.142.289.263.41.419.073.092.158.174.26.238.085.054.103.13.028.211-.081.06-.165.115-.261.149z" fill="#619eb1"/><path d="M28.738 20.088c.089-.02.135.046.184.096.286.286.57.574.853.862a.748.748 0 0 0 .211.165v.34c-.262-.134-.406-.398-.632-.574-.223-.174-.388-.412-.616-.582v-.307z" fill="#aca771"/><path d="M25.186 24.534c.11-.071.215-.15.34-.194.131-.007.195.073.284.161.18.179.335.38.516.557.059.056.125.107.057.198-.105.083-.22.148-.34.203a4.467 4.467 0 0 1-.53-.505c-.082-.088-.177-.156-.266-.234-.057-.05-.108-.101-.061-.186z" fill="#67a0aa"/><path d="M17.053 14.988c.055.207.242.305.376.445.226.237.46.466.687.701.03.031.044.078.065.117a.44.44 0 0 1-.17.1c-.023-.096-.078-.157-.154-.226a14.302 14.302 0 0 1-.966-.97c-.12-.132-.26-.245-.39-.368-.056-.054-.116-.108-.123-.195l.675.396z" fill="#6ea0a3"/><path d="M29.986 20.088c-.23-.129-.383-.341-.564-.522-.221-.219-.418-.464-.684-.634v-.341c.055-.065.106-.04.16.003.114.086.208.19.305.293.172.18.345.358.533.521.115.1.21.22.25.374v.306z" fill="#bca968"/><path d="M23.869 15.904c-.092.071-.192.13-.3.174-.158.02-.227-.112-.312-.198-.164-.163-.308-.346-.483-.5-.066-.058-.174-.112-.106-.236l.306-.174c.119.054.216.137.31.227.184.174.328.386.53.54.057.043.067.102.055.167z" fill="#a4a677"/><path d="M20.624 18.182c-.228-.115-.355-.34-.538-.503-.234-.208-.452-.435-.677-.653a.623.623 0 0 1 .23-.139c.094-.04.173-.01.22.07.14.227.358.378.553.543.23.196.278.412.212.682z" fill="#74a19e"/><path d="M28.738 17.944c.402.392.807.782 1.19 1.194.013.015.038.021.058.031v.306c-.1.063-.166-.017-.221-.07-.313-.296-.611-.607-.917-.91-.05-.05-.064-.123-.11-.176v-.375z" fill="#c2a964"/><path d="M19.374 17.978v-.272c.077-.083.142-.044.2.022.172.197.375.36.561.54.169.163.32.348.47.531.029.036.032.084.04.128v.282c-.06.105-.115.045-.17-.005-.311-.281-.572-.613-.894-.884a.673.673 0 0 1-.207-.342z" fill="#6ca0a5"/><path d="M21.002 16.105c.094-.07.194-.13.303-.173.065-.024.11.02.148.056.239.231.484.457.71.701.053.057.097.115.031.191l-.267.155c-.16-.018-.254-.143-.348-.247a7.9 7.9 0 0 0-.481-.497c-.054-.051-.11-.1-.096-.186z" fill="#8ba389"/><path d="m26.383 25.256-.857-.915c.076-.055.148-.117.241-.14.107-.003.183.039.263.118.195.196.392.39.593.58.064.06.106.12.036.202a.905.905 0 0 1-.276.155z" fill="#6ba0a6"/><path d="M19.374 17.978c.24.233.501.449.715.704.167.2.394.336.535.556.013.005.018.012.016.02-.002.01-.006.014-.009.014l-.007.204c-.21-.089-.327-.285-.485-.433-.262-.245-.51-.504-.765-.758v-.307z" fill="#6aa0a8"/><path d="M23.963 14.398c.035.21.233.293.355.434.2.233.43.44.649.658.04.04.074.084.087.141-.093-.049-.187-.094-.276-.148-.052-.032-.098-.045-.153-.02-.183.061-.295-.07-.386-.176a4.321 4.321 0 0 0-.493-.508c-.074-.063-.11-.127-.058-.218l.275-.163z" fill="#b4a86d"/><path d="M27.166 24.812c-.1.03-.158.14-.273.141a.27.27 0 0 1-.173-.092 8.517 8.517 0 0 0-.652-.647c-.047-.04-.072-.086-.069-.147.096-.073.2-.132.309-.18a.436.436 0 0 1 .25.127c.207.2.394.419.602.616.06.057.053.12.006.182z" fill="#71a1a0"/><path d="M23.869 15.903c-.3-.241-.533-.55-.82-.804a.256.256 0 0 1-.075-.13l.238-.133c.106-.017.192.033.252.108.177.22.372.42.584.606.066.058.122.123.055.217a.812.812 0 0 1-.234.136z" fill="#a8a674"/><path d="M25.186 24.534c.264.243.538.476.775.748.047.054.082.105.082.177l-.239.137c-.006-.046-.015-.093-.053-.12-.31-.226-.535-.539-.81-.799a.96.96 0 0 1 .245-.143z" fill="#649fae"/><path d="m21.207 17.457-.24.139c-.11.02-.184-.017-.256-.11a3.984 3.984 0 0 0-.57-.616c-.093-.079-.118-.161-.025-.257a.453.453 0 0 1 .172-.1c.142-.01.246.052.331.164.163.211.374.377.555.572.064.07.09.128.033.208z" fill="#7ea296"/><path d="M27.884 22.982c.093-.072.193-.13.302-.173.078.006.14.049.192.101.223.226.46.437.659.686.025.032.05.061.046.105l-.317.188c-.01-.004-.022-.007-.03-.014-.322-.262-.664-.504-.852-.893z" fill="#8ba38a"/><path d="M22.668 15.144c.134.19.341.309.485.494.123.158.276.294.416.44-.062.068-.152.086-.229.129-.086.044-.146-.004-.21-.054a1.957 1.957 0 0 1-.414-.415 1.2 1.2 0 0 0-.205-.223c-.077-.065-.118-.154-.043-.253l.2-.118z" fill="#a0a57a"/><path d="M29.986 17.671c-.136-.04-.193-.17-.286-.258-.37-.348-.742-.693-1.066-1.087-.022-.027-.052-.046-.033-.087.223.11.438.234.644.373.174.181.398.306.562.5.068.08.136.157.18.253v.306z" fill="#d4ac5a"/><path d="M22.705 16.581a.82.82 0 0 1-.235.138c-.092.04-.164.005-.226-.06-.192-.198-.4-.38-.594-.575-.073-.074-.172-.16-.106-.293l.276-.157c.326.228.576.537.863.806.046.043.03.092.022.141z" fill="#93a384"/><path d="m28.394 22.685.267-.153c.106-.009.183.047.245.122.167.199.37.362.545.553.06.065.107.13.105.22a.775.775 0 0 1-.236.137c-.132.04-.228-.011-.31-.114a2.941 2.941 0 0 0-.458-.448c-.084-.068-.231-.15-.158-.317z" fill="#92a384"/><path d="M21.207 17.457c-.177-.304-.5-.476-.695-.765-.05-.075-.148-.12-.223-.178a.851.851 0 0 1 .238-.137c.1-.042.172-.011.245.07.18.196.371.38.553.573.076.08.195.154.12.3l-.238.137z" fill="#81a292"/><path d="M22.468 15.262c.027.167.177.243.27.36.175.22.368.424.603.584-.081.087-.196.117-.293.176-.117-.04-.2-.133-.281-.213-.174-.171-.365-.326-.52-.514-.047-.057-.135-.118-.084-.22l.304-.173z" fill="#9ca57d"/><path d="M28.738 18.318c.215.094.337.295.502.446.254.231.468.504.747.71v.307c-.37-.364-.742-.729-1.111-1.095-.041-.04-.08-.08-.138-.095v-.273z" fill="#bfaa66"/><path d="M26 24.067c.343.25.632.554.893.886a.63.63 0 0 1-.234.148c-.082-.192-.276-.285-.403-.44-.14-.172-.324-.308-.488-.46a.773.773 0 0 1 .232-.134z" fill="#6ea0a3"/><path d="M20.623 18.897c-.37-.368-.74-.736-1.107-1.105a.296.296 0 0 0-.142-.087V17.4c.306.228.546.523.812.792.14.14.279.28.438.4a.47.47 0 0 1 0 .306z" fill="#6fa0a3"/><path d="M21.445 17.32c-.23-.335-.547-.59-.813-.892-.024-.027-.07-.034-.105-.05l.272-.16a.543.543 0 0 1 .257.158c.185.182.376.357.555.546.065.07.135.143.08.253l-.246.145z" fill="#84a28f"/><path d="M21.69 17.175c-.192-.313-.498-.516-.744-.777-.053-.057-.121-.101-.147-.18l.203-.113c.356.262.633.604.926.93l-.238.14z" fill="#88a38d"/><path d="M29.556 23.427c-.233-.22-.477-.431-.684-.68-.064-.077-.14-.144-.211-.215.078-.06.07-.147.077-.23.05-.045.104-.044.15 0 .294.284.58.577.87.866a.124.124 0 0 1 .035.123.773.773 0 0 1-.236.137z" fill="#96a482"/><path d="M24.103 15.768c-.029-.1-.115-.153-.186-.214-.254-.221-.46-.49-.706-.718.085-.066.178-.119.278-.16.18.102.304.27.453.405.145.132.273.286.412.428a.12.12 0 0 1 .034.092c-.087.07-.182.124-.285.167z" fill="#aca671"/><path d="M22.705 16.582c-.258-.25-.514-.5-.774-.746-.06-.057-.106-.117-.11-.201.066-.04.133-.078.2-.117a.387.387 0 0 1 .21.128c.193.202.398.392.597.588.062.062.147.117.089.227l-.212.12z" fill="#96a482"/><path d="M27.166 24.812c-.09-.181-.25-.305-.387-.443-.126-.127-.23-.28-.39-.375-.035-.021-.054-.07-.08-.107.05-.037.098-.082.164-.093.13-.058.223-.022.315.09.17.21.411.348.577.563.045.059.135.1.073.198a1.055 1.055 0 0 1-.272.167z" fill="#75a19e"/><path d="M27.438 24.645c-.264-.263-.528-.526-.794-.787-.046-.045-.11-.055-.17-.063.087-.069.182-.123.285-.166.086-.04.146.002.21.058.235.205.437.442.646.672.05.055.084.11.028.18-.065.04-.125.094-.205.106z" fill="#78a19a"/><path d="M24.388 15.601c-.149-.045-.23-.176-.334-.275-.167-.157-.324-.324-.486-.486a.245.245 0 0 1-.079-.163l.199-.116c.036.109.135.162.21.236l.573.568a.332.332 0 0 0 .153.099.784.784 0 0 1-.236.137z" fill="#b0a76f"/><path d="M27.643 24.538a5.408 5.408 0 0 0-.884-.91.86.86 0 0 1 .238-.135c.106-.052.18.016.235.082.197.235.435.429.642.653.044.047.07.087.04.148l-.271.162z" fill="#7ca298"/><path d="m27.424 23.246.253-.15a.318.318 0 0 1 .195.088c.213.194.395.42.611.612.06.053.114.115.078.207a.533.533 0 0 1-.19.11c-.252.036-.364-.18-.52-.306-.129-.103-.221-.251-.345-.366-.054-.05-.092-.114-.081-.195z" fill="#84a28f"/><path d="M21.544 15.79c.124.176.263.337.43.476.12.1.224.222.333.336.047.05.093.1.163.117l-.275.162c-.058-.128-.166-.212-.261-.309-.21-.212-.42-.426-.629-.64l.24-.142z" fill="#8ea387"/><path d="m28.561 24.003-.884-.907.207-.114c.201.12.318.328.494.475.15.125.299.252.388.432l-.205.114z" fill="#88a38d"/><path d="M28.394 22.685c.17.215.386.385.582.575.11.106.173.267.344.304a.776.776 0 0 1-.237.137c-.04-.019-.09-.029-.12-.06-.24-.256-.478-.518-.735-.76-.02-.018-.028-.048-.042-.072l.208-.124z" fill="#8ea387"/><path d="M20.624 18.182c.06-.258-.066-.426-.248-.593-.182-.166-.387-.31-.54-.506-.058-.075-.087-.174-.197-.196a.814.814 0 0 1 .24-.136c.115.009.183.073.254.166.168.225.394.4.58.612.044.05.106.093.051.172-.084.054-.113.128-.11.228.006.163-.002.327-.005.49l-.014.001-.011-.238Z" fill="#78a19b"/><path d="M27.424 23.247c.164.12.286.283.428.425a3.2 3.2 0 0 0 .52.44c-.085.05-.169.101-.252.152-.333-.081-.502-.366-.715-.59-.081-.086-.195-.157-.219-.29a.827.827 0 0 1 .238-.137z" fill="#81a292"/><path d="M21.615 24.07c.147.113.294.213.385.394.055.11.233.125.327.233.068.079.138.15.14.26l-1.059-.595c-.11-.061-.105-.122 0-.181.068-.039.138-.074.207-.11z" fill="#5a94aa"/><path d="M27.186 23.384c.041.017.097.022.122.053.157.194.346.358.508.545.092.107.254.133.304.281l-.205.113c-.267-.24-.518-.494-.76-.76-.044-.048-.105-.082-.158-.123a.529.529 0 0 1 .19-.109z" fill="#7fa295"/><path d="M20.764 17.701c-.294-.318-.621-.605-.885-.95a.787.787 0 0 1 .238-.137c0 .076.022.142.083.194.244.207.454.444.647.698.03.038.08.06.12.09-.063.043-.12.098-.203.105z" fill="#7ba199"/><path d="M29.793 23.29c-.294-.22-.522-.509-.785-.761-.085-.082-.16-.175-.27-.227v-.24c.105-.035.151.07.18.116.178.285.476.449.688.7.095.115.198.25.352.309-.04.058-.102.082-.165.104z" fill="#99a480"/><path d="M22.916 16.46c-.2-.206-.392-.421-.602-.617a2.761 2.761 0 0 1-.293-.326l.142-.082c.04.045.097.06.138.115.173.23.374.435.602.612a.368.368 0 0 1 .145.22l-.132.079z" fill="#99a47f"/><path d="M29.987 17.364a2.985 2.985 0 0 1-.742-.752c.16.088.313.194.481.261.237.095.307.257.26.491z" fill="#d6ac58"/><path d="M10.01 22.847c.148.13.262.292.423.408a.483.483 0 0 1 .215.314c-.177-.099-.354-.196-.53-.296-.182-.104-.096-.277-.108-.426z" fill="#406c92"/><path d="M15.623 14.267c-.064.016-.123.076-.154-.06-.016-.072-.143-.12-.22-.178.153-.09.233.053.34.106l.034.132z" fill="#6aa0a7"/><path d="M18.551 16.03c-.08-.151-.264-.206-.34-.362.135.042.246.13.366.199s.081.124-.026.163z" fill="#729f9c"/><path d="M20.635 18.42h.014v.85l-.018.002-.007-.034v-.647l.011-.17z" fill="#74a19e"/><path d="M13.478 24.582h-.239l-.034-.034a.49.49 0 0 0-.272-.238l-.034-.068a.188.188 0 0 1-.068-.102c-.04-.036-.098-.033-.137-.068v-.034c-.051-.08-.102-.158-.193-.201-.053-.025-.074-.085-.095-.134-.032-.072-.006-.12.084-.108.076-.001.154.004.195.075.106.179.3.265.432.416.09.103.22.174.238.33.007.057.056.077.11.09.048.012.071.04.013.076z" fill="#457397"/><path d="M12.49 23.595c-.072.094.009.158.067.176.147.047.148.15.138.267-.195-.061-.28-.249-.42-.374-.058-.052-.147-.106-.159-.205.089.029.172.1.272.034l.102.102zM12.933 24.31c.077.018.14-.01.197-.076-.003.12.085.205.076.314-.133-.032-.174-.168-.273-.238zM12.831 24.14c.035.025.058.06.068.102-.064-.007-.092-.038-.068-.102zM12.695 24.071a.172.172 0 0 1 .136.068.17.17 0 0 1-.136-.068z" fill="#457397"/><path d="M20.605 22.98c0 .017 0 .035-.024.032-.006-.001-.017-.02-.015-.024.007-.015.018-.027.028-.04.004.01.008.021.01.032z" fill="#5b96ac"/><path d="M16.713 15.356c-.067.018-.146.079-.146-.066 0-.087-.098-.02-.135-.065-.084-.104-.18-.198-.254-.308-.033-.048.036-.026.058-.037.172.146.38.255.477.476zM16.202 14.845c-.099-.002-.184-.004-.21-.139-.016-.078-.125-.103-.192-.153-.097-.071-.186-.149-.177-.286.07-.02.1.032.133.076.098.138.214.259.358.347.062.039.064.1.088.155z" fill="#6aa0a7"/><path d="M16.705 24.489c.004.035-.028.037-.046.052-.016.012-.019.01-.009-.008.013-.021.02-.049.055-.044z" fill="#4d7f9e"/></g></g><defs><clipPath id="a"><path fill="#fff" d="M0 0h39v40H0z"/></clipPath><clipPath id="b"><path fill="#fff" transform="translate(10 14)" d="M0 0h20v12.242H0z"/></clipPath></defs></svg>