<svg width="40" height="40" fill="none" xmlns="http://www.w3.org/2000/svg"><path fill-rule="evenodd" clip-rule="evenodd" d="M17.284 28.933c.859.26 1.771.401 2.716.401a9.334 9.334 0 0 0 9.322-9.8h4.67c.006.154.008.31.008.466 0 7.732-6.268 14-14 14-1.751 0-3.428-.321-4.974-.908zM10.667 20c0 .945.14 1.857.401 2.717L6.91 24.975A13.966 13.966 0 0 1 6 20c0-7.733 6.268-14 14-14 .156 0 .312.002.467.006v4.671a9.334 9.334 0 0 0-9.8 9.323z" fill="#a7a5a5" style="stroke-width:1.4"/><path fill-rule="evenodd" clip-rule="evenodd" d="M15.334 15.333h9.333v9.334a15.912 15.912 0 0 0-9.333-9.334z" fill="#f47216" style="stroke-width:1.4"/></svg>