<svg width="40" height="40" fill="none" xmlns="http://www.w3.org/2000/svg"><g clip-path="url(#a)" transform="matrix(1.4 0 0 1.4 -7.996 -7.197)"><mask id="b" mask-type="alpha" maskUnits="userSpaceOnUse" x="10" y="8" width="21" height="20"><path fill="#fff" d="M10 8.625h20v18.75H10z"/></mask><g mask="url(#b)" fill-rule="evenodd" clip-rule="evenodd" fill="#dc1934"><path d="M22.353 8.625h.304c.276.095.535.28.64.563.254.63.494 1.265.747 1.897a.926.926 0 0 1-.085.896c-.168.245-.465.338-.718.466-3.087 1.461-5.68 3.923-7.326 6.913a16.49 16.49 0 0 0-2.04 7.109.886.886 0 0 1-.852.868c-.727.004-1.456.012-2.183-.003a.892.892 0 0 1-.838-.926 20.296 20.296 0 0 1 2.668-9.191 20.379 20.379 0 0 1 8.603-8.129c.354-.166.699-.363 1.08-.463Z"/><path d="M24.294 14.203c.47-.157 1.033.103 1.199.575a8913.66 8913.66 0 0 1 4.423 11.282c.233.567-.216 1.29-.838 1.296-2.107.005-4.214 0-6.322.002-1.965-.042-3.933-.002-5.898-.022a.964.964 0 0 1-.823-.533c-.167-.317-.082-.683-.053-1.021a14.474 14.474 0 0 1 3.103-7.505c1.39-1.733 3.178-3.164 5.209-4.074z"/></g></g><defs><clipPath id="a"><path fill="#fff" d="M0 0h40v40H0z"/></clipPath></defs></svg>