<svg width="40" height="40" fill="none" xmlns="http://www.w3.org/2000/svg"><g clip-path="url(#a)" transform="matrix(1.4 0 0 1.4 -8 -7.804)"><g clip-path="url(#b)" fill="#fff"><path d="M17.32 21.015h-1.886c-.151 0-.15 0-.15-.15l.005-2.608v-.191c.001-.039.022-.058.06-.06l.07-.002h3.698c.13 0 .136.006.137.138v.372c-.001.074-.017.09-.092.093h-3.05c-.148 0-.163.016-.162.164v.308c0 .074.026.102.1.11a.753.753 0 0 0 .08.004h2.226c.08 0 .113.003.115.115.004.127.001.255 0 .382 0 .08-.017.098-.101.098h-2.306c-.07.002-.111.035-.113.106-.003.147 0 .294.001.44 0 .051.032.078.081.081.025.003.05.002.075.002h3.135c.105 0 .131.026.13.132 0 .126-.002.252.001.377.001.052-.021.077-.067.084a.488.488 0 0 1-.08.005H17.32zM14.157 20.99c-.034.01-.061.022-.088.022-.227.002-.454.003-.68 0a.123.123 0 0 1-.08-.036c-.074-.08-.144-.164-.215-.246l-.173-.199c-.073-.084-.146-.168-.22-.25-.075-.085-.15-.168-.227-.25a.125.125 0 0 0-.065-.03.553.553 0 0 0-.101-.006h-1.472c-.154 0-.172.019-.171.175l.001.76c0 .068-.014.083-.085.084a28.67 28.67 0 0 1-.473 0c-.091 0-.108-.02-.108-.108V18.12c.001-.095.024-.118.12-.118.874 0 1.747.003 2.62-.001.196 0 .384.04.57.091.084.024.16.08.24.12.11.055.195.139.266.237a.78.78 0 0 1 .113.201c.069.209.083.421.018.637a.903.903 0 0 1-.274.412c-.095.086-.21.132-.321.19-.093.049-.096.07-.03.153.053.069.114.133.172.199l.271.304.306.344.086.1zm-2.32-2.38v-.003h-1.03c-.122 0-.142.02-.142.142v.505c0 .123.02.143.146.144h1.917c.078 0 .158.003.232-.015a.727.727 0 0 0 .236-.099c.115-.079.146-.2.133-.337a.3.3 0 0 0-.111-.208.544.544 0 0 0-.356-.13h-1.025zM24.645 19.517v1.392c0 .093-.013.106-.108.106-.133 0-.267-.01-.399.003-.13.012-.223-.042-.314-.12-.116-.097-.236-.19-.354-.286-.152-.122-.304-.245-.457-.366-.147-.116-.295-.23-.44-.346-.115-.091-.227-.185-.341-.277-.096-.077-.194-.152-.29-.23-.166-.131-.329-.266-.497-.395-.054-.041-.095-.105-.173-.117-.031-.004-.05.001-.057.03a.311.311 0 0 0-.012.078l.002 1.93c0 .084-.011.095-.094.096h-.452c-.087 0-.105-.02-.105-.107v-2.796c.006-.094.021-.108.117-.108.133 0 .267.008.398-.003.108-.009.184.042.26.1.09.069.176.145.265.217l.449.361c.112.09.225.176.337.264l.437.351c.115.092.23.181.345.272l.44.354c.093.074.183.15.278.22a.106.106 0 0 0 .09.011c.017-.008.028-.05.028-.076.002-.64 0-1.279 0-1.918 0-.15.003-.154.149-.153h.404c.075 0 .092.013.093.088.002.142.001.284.001.425v1zM29.99 18.031c-.036.033-.071.066-.108.098l-.217.185-.634.543-.38.33c-.082.071-.168.14-.252.21-.028.023-.058.048-.08.077a.07.07 0 0 0-.005.062.26.26 0 0 0 .062.078c.139.118.28.233.417.35l.589.509.541.464c.019.016.04.027.077.05-.039.012-.064.025-.089.026-.257.001-.513.002-.77-.001-.03 0-.064-.021-.089-.042l-.66-.57c-.165-.143-.332-.285-.498-.427-.06-.05-.096-.05-.156 0-.141.12-.285.237-.426.356-.071.06-.138.126-.209.187-.1.088-.204.173-.306.26-.08.068-.156.139-.237.202a.185.185 0 0 1-.103.035c-.143.004-.287.003-.43.002-.054 0-.073-.023-.073-.082V18.1c.004-.085.018-.097.102-.097h.446c.075 0 .09.014.097.088a.52.52 0 0 1 .001.053v1.86c0 .026.012.064.031.075.032.017.07.009.102-.02.165-.146.331-.29.497-.435.106-.093.212-.186.32-.277.137-.119.277-.235.415-.354.167-.143.332-.289.5-.432.1-.086.201-.17.302-.255.073-.063.148-.125.218-.192a.353.353 0 0 1 .277-.114c.204.01.408.002.611.003.038 0 .075.005.113.008l.004.02z"/></g></g><defs><clipPath id="a"><path fill="#fff" d="M0 0h40v40H0z"/></clipPath><clipPath id="b"><path fill="#fff" transform="translate(10 18)" d="M0 0h20v3.019H0z"/></clipPath></defs></svg>