<svg width="40" height="40" fill="none" xmlns="http://www.w3.org/2000/svg"><mask id="a" mask-type="alpha" maskUnits="userSpaceOnUse" x="10" y="16" width="20" height="8"><path fill="#fff" d="M10 16.313h20v7.373H10z"/></mask><g mask="url(#a)" transform="matrix(1.4 0 0 1.4 -7.99 -7.995)" fill-rule="evenodd" clip-rule="evenodd" fill="#fff"><path d="M10 16.316h1.624c.608 2.034 1.204 4.072 1.808 6.107.618-2.034 1.216-4.075 1.834-6.109.537.005 1.075 0 1.612.002v7.346h-1.047c-.003-2.01.006-4.019-.004-6.028-.615 2.006-1.202 4.02-1.806 6.03-.393-.004-.786 0-1.18-.003-.592-2.011-1.183-4.022-1.79-6.028-.01 2.01 0 4.02-.004 6.029H10v-7.346zM18.705 16.316c.756.001 1.511-.004 2.267.006.553.031 1.143.078 1.61.406.711.491.876 1.535.502 2.28-.2.379-.596.605-.995.72.519.15 1.069.386 1.346.879.473.864.23 2.081-.594 2.646-.52.347-1.168.396-1.775.407-.787.005-1.574.001-2.361.002zm1.115.938c-.003.712-.003 1.423 0 2.134.525 0 1.06.023 1.575-.097.313-.07.618-.277.702-.602.07-.294.077-.618-.039-.901-.122-.275-.42-.408-.7-.459-.507-.093-1.025-.078-1.538-.075zm-.002 3.05v2.427c.59-.014 1.187.036 1.772-.057.297-.044.588-.201.734-.472.237-.442.231-1.026-.067-1.438-.207-.284-.562-.4-.897-.436-.513-.045-1.028-.018-1.542-.023ZM24.988 23.662c0-2.449-.002-4.898.002-7.347.956.019 1.915-.043 2.867.057.428.063.87.195 1.186.504.348.325.515.809.512 1.277.006.367-.08.751-.314 1.042-.217.272-.541.427-.863.54.536.145 1.098.404 1.366.921.42.846.2 1.996-.577 2.564-.527.38-1.205.428-1.834.441-.781.003-1.563 0-2.345 0zm1.121-6.408c-.001.711-.001 1.423 0 2.134.477.004.957.014 1.428-.066.315-.057.659-.2.795-.513.132-.323.139-.706.002-1.029-.126-.289-.45-.408-.738-.46-.491-.08-.99-.07-1.487-.066zm0 3.05v2.427c.452 0 .904.004 1.356-.01.312-.023.644-.055.904-.246.248-.187.363-.5.397-.8.037-.383-.068-.81-.374-1.065-.183-.166-.432-.229-.67-.273-.535-.061-1.075-.024-1.613-.033Z"/></g></svg>