<svg width="40" height="40" fill="none" xmlns="http://www.w3.org/2000/svg"><g clip-path="url(#a)" transform="matrix(1.4 0 0 1.4 -8.006 -8.076)"><g clip-path="url(#b)"><path d="M29.358 20.672c0 .084-.085.156-.228.156-.313 0-.512-.212-.512-.212l-.341.454s.285.312.853.312c.457 0 .855-.284.855-.708 0-.68-1.084-.738-1.084-.964 0-.084.115-.156.286-.156.227 0 .355.114.355.114l.328-.44s-.285-.226-.74-.226c-.428 0-.797.312-.797.708-.002.678 1.025.706 1.025.962zm-6.865.142h-.47v-.426h.47a.213.213 0 1 1 0 .426zm-.47-1.262h.356a.198.198 0 1 1 0 .396h-.356zm.983.524a.625.625 0 0 0-.484-1.02H21.44v2.268h1.182a.696.696 0 0 0 .697-.694.62.62 0 0 0-.313-.554zm4.358.596c0 .084-.084.156-.227.156-.313 0-.512-.212-.512-.212l-.342.454s.285.312.854.312c.456 0 .854-.284.854-.708 0-.68-1.083-.738-1.083-.964 0-.084.115-.156.285-.156.227 0 .356.114.356.114l.328-.44s-.286-.226-.74-.226c-.428 0-.798.312-.798.708-.002.678 1.025.706 1.025.962zm-2.536.708c-.655 0-1.195-.51-1.195-1.19 0-.68.54-1.19 1.195-1.19s1.196.51 1.196 1.19c0 .68-.54 1.19-1.196 1.19zm0-1.814c-.341 0-.582.284-.582.624s.24.624.582.624c.342 0 .583-.284.583-.624.002-.34-.241-.624-.583-.624zM18.82 21.38c-.655 0-1.196-.51-1.196-1.19 0-.68.54-1.19 1.196-1.19.655 0 1.196.51 1.196 1.19 0 .68-.54 1.19-1.196 1.19zm0-1.814c-.342 0-.583.284-.583.624s.241.624.583.624c.342 0 .583-.284.583-.624s-.241-.624-.583-.624zm-2.536 1.814c-.655 0-1.195-.51-1.195-1.19 0-.68.54-1.19 1.195-1.19.456 0 .74.226.74.226l-.356.44s-.129-.114-.384-.114c-.342 0-.583.298-.583.638s.241.624.583.624c.285 0 .428-.114.428-.114v-.284h-.484v-.496h1.025v1.064s-.314.396-.969.396zm-2.62 0c-.513-.002-1.025-.34-1.025-1.02v-1.304h.627v1.36c0 .284.229.396.4.396.17 0 .4-.114.4-.396v-1.36h.623v1.304c0 .68-.513 1.022-1.025 1.02zm-2.192-2.324v.85h-.798v-.85h-.627v2.268h.627v-.908h.798v.908h.626v-2.268Z" fill="#fff"/></g></g><defs><clipPath id="a"><path fill="#fff" d="M0 0h40v40H0z"/></clipPath><clipPath id="b"><path fill="#fff" transform="translate(10 19)" d="M0 0h20v2.389H0z"/></clipPath></defs></svg>