<svg width="40" height="40" fill="none" xmlns="http://www.w3.org/2000/svg"><g clip-path="url(#a)" transform="matrix(1.4 0 0 1.4 -7.812 -8)"><g clip-path="url(#b)"><path d="M10.001 18.884c0-2.56.004-5.12-.001-7.68-.002-1.078-.005-1.042 1.055-1.19.522-.073.69.127.799.572.192.79.137 1.592.142 2.39.005 1.035-.002 2.071.004 3.106.001.15-.065.345.085.434.166.1.278-.095.395-.175 1.194-.806 2.49-1.29 3.95-1.264 2.01.036 3.045 1.016 3.074 3.035.044 2.91.021 5.823.039 8.734.002.391-.116.562-.536.552-1.683-.042-1.399.229-1.412-1.367-.018-2.15-.004-4.299-.004-6.45 0-.234 0-.468-.013-.702-.102-1.696-.847-2.288-2.533-2.006-.89.149-1.733.448-2.579.754-.385.14-.479.355-.476.737.014 2.775-.008 5.55.02 8.324.006.567-.154.736-.72.72-1.287-.036-1.288-.007-1.288-1.315v-7.21c.001 0 0 0 0 0z" fill="#507d99"/><path d="M28.831 29.403c-.761-1.338-1.53-2.672-2.292-4.009-.107-.187-.32-.366.055-.54 1.71-.8 2.378-2.188 2.3-4.03-.08-1.866-1.19-3.06-3.062-3.18-1.737-.11-3.476-.02-5.214-.052-.335-.006-.433.122-.432.446.008 3.847.008 7.694 0 11.542 0 .3.088.424.399.41.448-.02.9-.035 1.347.004.46.04.557-.15.548-.57-.025-1.152-.01-2.304-.006-3.456 0-.172-.05-.368.1-.5.266-.237 1.433.003 1.615.326.706 1.258 1.409 2.517 2.115 3.774.101.18.153.416.433.414.773-.002 1.547 0 2.324 0 .012-.272-.137-.415-.23-.58zm-3.923-6.019c-.68.059-1.367.018-2.05.039-.328.01-.394-.154-.388-.433.012-.488.004-.977.004-1.465V20c0-.183.007-.378.261-.366.914.04 1.838-.094 2.743.122.234.055.46.153.601.342.52.695.42 1.478.233 2.24-.17.704-.747.989-1.404 1.045z" fill="#d92127"/></g></g><defs><clipPath id="a"><path fill="#fff" d="M0 0h40v40H0z"/></clipPath><clipPath id="b"><path fill="#fff" transform="translate(10 10)" d="M0 0h19.064v20H0z"/></clipPath></defs></svg>