<svg width="40" height="40" fill="none" xmlns="http://www.w3.org/2000/svg"><path fill-rule="evenodd" clip-rule="evenodd" d="M8.825 22.251c.33.177.706.216 1.075.216.699 0 1.367-.385 1.367-1.22 0-1.25-1.698-1.022-1.698-1.82 0-.324.324-.476.691-.476.17 0 .599.1.76.2l.062-.629a3.006 3.006 0 0 0-.899-.154c-.775 0-1.381.393-1.381 1.205 0 1.099 1.697 1.037 1.697 1.75 0 .422-.406.56-.737.56-.208 0-.614-.092-.899-.276l-.038.644M12.725 16.77h-.814v.813h.814zm-.768 5.604h.722V18.46h-.722ZM13.707 16.616h.721v5.758h-.721zm3.89 1.843H16.56v-1.137l-.721.23v.907h-.884v.583h.883v2.288c0 .783.46 1.137 1.205 1.137.23 0 .452-.062.614-.108v-.614a.892.892 0 0 1-.49.139c-.332 0-.607-.247-.607-.699v-2.143h1.037zm.748 3.915h.722v-1.781c0-.984.421-1.597 1.068-1.597.123 0 .27.015.4.069v-.645c-.154-.03-.262-.054-.475-.054-.416 0-.83.293-1.022.699h-.015v-.606h-.676v3.915M21.376 20.416c0-.745.452-1.467 1.227-1.467.768 0 1.22.722 1.22 1.467 0 .698-.377 1.466-1.22 1.466-.85.002-1.227-.766-1.227-1.466zm-.768 0c0 1.121.814 2.049 1.997 2.049 1.176 0 1.988-.93 1.988-2.05 0-1.189-.799-2.049-1.988-2.049-1.198 0-1.997.86-1.997 2.05zM25.292 22.374h.722v-1.812c0-.953.369-1.613 1.19-1.613.63.039.83.483.83 1.397v2.028h.721v-2.326c0-1.052-.452-1.682-1.466-1.682-.544 0-1.068.27-1.281.714h-.016v-.621h-.698v3.915M30.454 16.77h-.814v.813h.814zm-.768 5.604h.722V18.46h-.722z" fill="#007fa3" style="stroke-width:1.4"/><path fill-rule="evenodd" clip-rule="evenodd" d="M33.97 18.52a2.696 2.696 0 0 0-.876-.154c-1.197 0-1.997.86-1.997 2.05 0 1.121.813 2.049 1.997 2.049.261 0 .606-.023.906-.162l-.054-.644c-.223.146-.529.223-.775.223-.93 0-1.305-.768-1.305-1.466 0-.745.452-1.467 1.259-1.467.23 0 .506.054.783.17l.061-.599M6 20a7.185 7.185 0 0 1 8.443-7.075 6.81 6.81 0 1 0 5.54 9.407A7.186 7.186 0 0 1 6 20Z" fill="#007fa3" style="stroke-width:1.4"/></svg>