<svg width="40" height="40" fill="none" xmlns="http://www.w3.org/2000/svg"><g clip-path="url(#a)" transform="matrix(1.4 0 0 1.4 -8 -8)"><mask id="b" mask-type="alpha" maskUnits="userSpaceOnUse" x="10" y="13" width="20" height="14"><path fill="#fff" d="M10 13.219h20V26.78H10z"/></mask><g mask="url(#b)" fill-rule="evenodd" clip-rule="evenodd" fill="#80ba35"><path d="M23.722 24.366h2.701c.5 0 1.067-.07 1.449-.195 1.115-.375 1.746-.967 2.036-2.11.15-.592.111-1.44-.08-2.013-.038-.115-.08-.195-.126-.302a.77.77 0 0 0-.069-.138c-.107-.175-.092-.18-.248-.378-.99-1.246-2.51-1.18-3.955-1.18v-4.83h-1.708Zm1.704-4.815h1.414c.802 0 1.402.466 1.452 1.525.057 1.18-.558 1.78-1.464 1.78h-1.402ZM10 26.78h1.704v-2.414c1.143 0 2.025.069 3.038-.436a2.56 2.56 0 0 0 .508-.325c.646-.512 1.024-1.368 1.024-2.247 0-.37 0-.645-.091-1.005-.027-.114-.046-.214-.084-.32a2.705 2.705 0 0 0-1.368-1.556 3.651 3.651 0 0 0-.596-.237 5.43 5.43 0 0 0-1.495-.19H10Zm1.689-7.229h1.418c.802 0 1.402.466 1.452 1.525.057 1.18-.558 1.78-1.464 1.78H11.69ZM16.863 24.366h2.74c1.07 0 1.925-.287 2.518-.768.78-.635 1.012-1.48 1.012-2.503 0-.252-.034-.531-.088-.741-.087-.356-.068-.29-.21-.623a2.59 2.59 0 0 0-.416-.62 2.564 2.564 0 0 0-.826-.634 3.696 3.696 0 0 0-.6-.237c-.81-.229-1.562-.19-2.426-.19v-2.416h-1.704zm1.708-4.815h1.417c.803 0 1.403.466 1.452 1.525.058 1.18-.557 1.78-1.463 1.78h-1.406z"/></g></g><defs><clipPath id="a"><path fill="#fff" d="M0 0h40v40H0z"/></clipPath></defs></svg>