<svg width="40" height="40" fill="none" xmlns="http://www.w3.org/2000/svg"><g clip-path="url(#a)" transform="matrix(1.4 0 0 1.4 -8 -8)" fill-rule="evenodd" clip-rule="evenodd" fill="#fff"><path d="m29.796 14.153-.733-.068.017-.102.12.017v-.051l-.137-.017v-.051l.34.034v-.085l-.374-.035v-.068l.647.068v-.05h.069l.017-.12c-5.86-.494-13.39 1.192-16.388 3.663a7.98 7.98 0 0 0-.546.51c-.102.103-.187.222-.272.324l.511-.306c.273-.17.562-.324.852-.477 4.14-2.147 9.914-3.39 15.468-2.777l.017-.17-.58-.069v-.068l.137.017v-.05l.664.067v-.068h.068v-.05h.051zM11.977 19.179c.085-.043.085-.086.17-.17v.17z"/><path d="M29.523 15.005v-.068h.068l.017-.17c-5.792-.46-11.635.766-15.28 2.623a7.993 7.993 0 0 0-.852.477 11.09 11.09 0 0 0-.988.664c-.034.034-.068.051-.102.085l-.018.12-.017.119c.069-.034.12-.068.188-.102.102-.068.204-.12.324-.188a19.62 19.62 0 0 1 2.317-1.073c4.139-1.652 9.488-2.436 13.73-1.789v-.068h.068l.017-.102.596.068v-.051h.068l.017-.12h.051v-.05l-.306-.034v-.051h.05v-.052h-.067v-.068l.528.051v-.05h.051l.017-.103ZM11.176 20.371c.085-.068.17-.102.17-.17 0 .068 0 .102-.085.136z"/><path d="M15.673 17.543c-.374.153-.75.29-1.107.443-.477.204-.92.409-1.329.63-.119.068-.238.12-.34.188a8.815 8.815 0 0 0-.58.324c-.034.016-.05.033-.068.05v.358c.239-.119.477-.221.716-.34.238-.103.477-.222.715-.324.137-.051.273-.12.41-.17.51-.205 1.038-.41 1.566-.597.443-.153.886-.29 1.33-.426 3.236-.936 6.762-1.328 10.595-.953l.017-.12h.068v-.068l-.46-.051.017-.12h.068v-.05l.188.017.017-.12h.068v-.05l.273.033.017-.119h.085v-.051l.187.017v-.051h.068v-.051l-.187-.017v-.051l.528.05v-.05h.068v-.068c-4.804-.528-9.472.426-12.93 1.737zM24.14 19.962c-.017-.068-.034-.153-.051-.221a3.101 3.101 0 0 0-.358-.8 1.733 1.733 0 0 0-.307-.393l-.238.341-.409.58c.034.05.085.101.12.153l.187.238c.102.136.204.273.29.426.17.29.272.647.306 1.312v.085c.034-.017.068-.034.102-.068.34-.256.46-.716.426-1.244-.017-.136-.051-.273-.068-.409z"/><path d="M24.924 19.076a1.827 1.827 0 0 0-.154-.579 3.065 3.065 0 0 0-.613-.988l-.596.852-.017.017c.204.204.357.392.477.596.153.256.255.511.323.8a.86.86 0 0 1 .034.222c.017.12.034.256.034.392a2.56 2.56 0 0 1 0 .511c.137-.12.239-.29.341-.477.051-.12.102-.238.12-.375a.853.853 0 0 0 .033-.204c.052-.256.052-.511.017-.767zM23.05 20.252a2.657 2.657 0 0 0-.29-.426c-.051-.051-.102-.102-.153-.136l-.086.119-.255.358-.273.391c.222.239.443.597.63.937.137.29.24.563.273.767l.494-.324c.068-.05.085-.17.085-.357a3.749 3.749 0 0 0-.426-1.33zM21.005 24.068c-3.202 1.158-6.473.51-8.313-.87-1.056-.8-1.652-1.839-1.482-2.912h-.017c-.51 1.073-.46 1.993-.017 2.742 1.482 2.505 7.223 3.135 10.579 1.108a5.697 5.697 0 0 0 1.346-1.108c-.699.443-1.397.784-2.096 1.04z"/><path d="M12.232 20.388a4.494 4.494 0 0 1-.221-1.312h-.034a3.485 3.485 0 0 0-.426 1.244c-.12 1.192.596 2.215 1.772 2.93 1.771 1.073 4.565 1.465 7.07.75 1.243-.358 2.418-.988 3.372-1.942-3.151 2.044-10.221 2.129-11.533-1.67z"/><path d="M16.951 25.652c-1.04.034-2.095-.068-3.05-.324-1.43-.374-2.623-1.124-3.134-2.35-.221-.494-.324-1.09-.29-1.755-.323.613-.476 1.175-.476 1.686-.017.852.357 1.568.988 2.113.732.63 1.805 1.073 3.015 1.277l1.465.154c1.329.05 2.725-.137 3.935-.562 1.073-.375 2.027-.937 2.658-1.704-1.04.835-3.05 1.397-5.111 1.465z"/></g><defs><clipPath id="a"><path fill="#fff" d="M0 0h40v40H0z"/></clipPath></defs></svg>