<svg width="40" height="40" fill="none" xmlns="http://www.w3.org/2000/svg"><g clip-path="url(#a)" transform="matrix(1.4 0 0 1.4 -8 -8.12)" fill-rule="evenodd" clip-rule="evenodd"><path d="m25.1 19.552-.88 1.236 2.033 2.977v-4.213zm-6.087.253v3.813l1.92-2.853-.9-1.18a5.71 5.71 0 0 0 2.03-.993l.58.736 1.1-1.663H30v1.887h-1.407v4.606h-4.85l-1.24-1.85-1.29 1.85h-4.56v-1.266c-.326.89-1.363 1.443-3.413 1.443-3.043 0-3.193-1.077-3.24-2.307h2.407c.006.367.07.634.223.81.173.187.42.284.677.267.49 0 1.016-.137 1.016-.67a.516.516 0 0 0-.1-.303c-.323-.427-3.003-.74-3.756-1.52-.304-.314-.397-.78-.397-1.16 0-1.447 1.127-2.107 3.37-2.107 2.383 0 2.95.833 2.98 2.203h-2.317c-.016-.366-.126-.656-.286-.79a.72.72 0 0 0-.53-.183c-.497.01-.76.223-.76.557a.474.474 0 0 0 .1.303c.363.417 2.956.713 3.703 1.507.143.146.253.323.323.513v-1.533c.79.036 1.58-.004 2.36-.117z" fill="#fff"/><path d="M16.653 17.662c2.404.176 3.757-.507 4.22-1.397h2.45c-.736 2.133-3.036 3.47-6.673 3.29v-1.893z" fill="#ef7d00"/></g><defs><clipPath id="a"><path fill="#fff" d="M0 0h40v40H0z"/></clipPath></defs></svg>