<svg width="40" height="40" fill="none" xmlns="http://www.w3.org/2000/svg"><g clip-path="url(#a)" transform="matrix(1.4 0 0 1.4 -7.982 -7.998)"><mask id="b" mask-type="alpha" maskUnits="userSpaceOnUse" x="10" y="10" width="20" height="20"><path fill="#fff" d="M10 10.053h20v19.894H10z"/></mask><g mask="url(#b)" fill-rule="evenodd" clip-rule="evenodd"><path d="M11.973 14.06c2.028-2.767 5.582-4.382 9-3.933-.34.053-.682.097-1.024.126-.003.974.008 1.95.005 2.924-.236 0-.471 0-.707.002.003.618.002 1.236.002 1.854-3.085 1.649-6.172 3.297-9.249 4.962.03-2.12.69-4.239 1.973-5.935zM10.003 20.2c3.079-1.666 6.177-3.3 9.252-4.973-.058.326.166.827-.24.981-2.974 1.69-5.951 3.373-8.92 5.073-.026-.361-.061-.72-.092-1.08ZM10.11 21.479c3.049-1.726 6.089-3.464 9.139-5.188.001.252.002.504.005.757-2.967 1.852-5.93 3.708-8.902 5.552-.084-.373-.16-.748-.241-1.122zM10.406 22.783c2.954-1.83 5.9-3.674 8.845-5.518 0 .262.014.527-.012.789-.088.12-.219.197-.337.283-2.703 1.848-5.393 3.715-8.1 5.557a37.12 37.12 0 0 1-.396-1.111zM10.88 24.068c2.797-1.91 5.585-3.831 8.373-5.753 0 .271-.002.541 0 .813-2.466 1.931-4.958 3.83-7.43 5.755-.12.092-.245.177-.38.247-.211-.34-.377-.707-.562-1.062zM11.566 25.322c2.554-1.997 5.133-3.964 7.691-5.955-.004.272-.007.544-.007.818a1660.228 1660.228 0 0 1-6.81 6.324c-.3-.388-.622-.764-.874-1.187zM12.571 26.65l6.688-6.21c-.005.267-.009.534-.009.801-1.428 1.813-2.907 3.586-4.33 5.404-.783.013-1.566.007-2.349.006zM15.136 26.652c1.377-1.694 2.74-3.398 4.114-5.094.001 1.698-.005 3.397.002 5.096-1.372-.003-2.743-.001-4.116-.002zM26.464 26.191c.32.194.698.367 1.055.154l.007.03c-.064.1-.133.197-.209.289l-.37-.012c-.164-.15-.327-.302-.483-.46zM24.183 26.499c.735-.005 1.48.086 2.203-.093l.26.244c-.75-.015-1.5.016-2.248-.014l-.215-.137zM12.903 27.003c2.116.001 4.232 0 6.348-.002-.005.968.001 1.936-.004 2.903-2.377-.164-4.659-1.222-6.344-2.901z" fill="#b00f45"/><path d="M20.973 10.127c1.609.098 3.166.713 4.509 1.59a10.01 10.01 0 0 1 3.98 5.364c.328 1.055.458 2.166.447 3.269-3.325-1.776-6.645-3.56-9.969-5.342.02-.61.012-1.22.014-1.83.003-.975-.008-1.95-.005-2.925.342-.029.684-.073 1.024-.126zM19.941 15.22c3.32 1.77 6.63 3.56 9.95 5.328-.036.362-.08.723-.135 1.084-3.264-1.862-6.537-3.71-9.8-5.573-.003-.28-.007-.56-.015-.839ZM19.935 16.276c3.278 1.828 6.529 3.708 9.798 5.551-.086.381-.175.761-.29 1.134a4783.821 4783.821 0 0 0-9.3-5.803c-.338-.154-.159-.59-.208-.882zM19.94 17.252c3.156 1.952 6.296 3.93 9.45 5.888-.135.382-.29.756-.462 1.121-2.979-2.083-5.99-4.115-8.977-6.188l-.012-.821zM19.937 18.303c2.348 1.588 4.675 3.208 7.014 4.81.633.447 1.292.86 1.91 1.328a122 122 0 0 1-.63 1.07c-2.54-1.943-5.06-3.911-7.596-5.86-.22-.172-.455-.329-.653-.527-.078-.265-.033-.549-.045-.821zM19.94 19.349c2.33 1.791 4.651 3.591 6.977 5.387.39.316.81.597 1.183.936a2.975 2.975 0 0 1-.575.703l-.006-.03c-.357.213-.735.04-1.055-.154-2.131-1.922-4.21-3.906-6.328-5.845-.308-.236-.158-.668-.196-.997ZM19.946 20.425c2.155 1.983 4.3 3.98 6.44 5.981-.723.179-1.468.088-2.203.093-1.344-1.731-2.746-3.416-4.112-5.129-.222-.262-.104-.633-.125-.945ZM19.942 21.527c1.399 1.694 2.762 3.416 4.141 5.127-1.383-.002-2.766 0-4.149-.002.034-1.707.025-3.417.007-5.124zM19.94 27.002c2.35.002 4.698.001 7.048.001-1.827 1.877-4.428 2.917-7.038 2.934-.002-.978.02-1.956-.01-2.935z" fill="#c72f56"/></g></g><defs><clipPath id="a"><path fill="#fff" d="M0 0h40v40H0z"/></clipPath></defs></svg>