<svg width="39" height="40" fill="none" xmlns="http://www.w3.org/2000/svg"><g clip-path="url(#a)" transform="matrix(1.4 0 0 1.4 -8 -7.986)"><g clip-path="url(#b)"><path d="M17.231 20.93c-.02-.017-.047-.014-.07-.02a.493.493 0 0 1-.392-.367 1.674 1.674 0 0 1-.01-.893c.076-.285.278-.44.573-.465a1.06 1.06 0 0 1 .599.123c.029.015.041.027.024.063-.032.067-.058.137-.084.207-.01.026-.017.033-.047.02a.721.721 0 0 0-.33-.091c-.172.005-.279.085-.331.249a1.12 1.12 0 0 0-.036.4c.004.074.01.147.027.218.044.187.149.262.34.24.118-.013.118-.013.118-.132v-.194c.001-.024-.006-.032-.03-.03h-.114c-.02 0-.031-.004-.03-.028a8.588 8.588 0 0 0 0-.232c-.001-.02.006-.027.026-.027h.5c.023 0 .026.01.026.03v.77c0 .025-.012.034-.03.042a1.376 1.376 0 0 1-.381.108c-.01 0-.02-.004-.026.008h-.322zM10.762 19l.153.034c.087.022.167.058.246.1.024.012.029.023.016.047a5.59 5.59 0 0 0-.122.241c-.013.028-.026.028-.05.017a.789.789 0 0 0-.346-.087c-.1.004-.17.069-.179.167a.149.149 0 0 0 .045.122.568.568 0 0 0 .163.104c.102.05.207.095.302.16.205.14.263.34.22.573a.495.495 0 0 1-.405.416c-.26.06-.508.012-.745-.108-.019-.01-.036-.027-.06-.026v-.026c.013-.002.012-.014.016-.022.037-.078.077-.156.11-.236.017-.04.031-.049.071-.027a.89.89 0 0 0 .233.086c.084.02.17.028.253-.005.123-.048.152-.182.06-.276a.495.495 0 0 0-.124-.087c-.095-.052-.194-.095-.287-.152-.188-.114-.3-.27-.293-.5a.494.494 0 0 1 .378-.49c.035-.01.074-.008.108-.025h.237z" fill="#fff"/><path d="M30 20.887c-.11-.006-.22.002-.329.003-.13 0-.262.012-.393 0-.163-.017-.267-.128-.268-.293-.002-.45 0-.9-.001-1.349 0-.02.002-.03.027-.03.321.002.643.002.964.002v.322l-.055.001h-.5c-.031-.001-.04.008-.038.04.002.082.002.165 0 .249-.001.031.007.04.04.039.151-.002.304 0 .456-.001.032 0 .044.006.043.04-.003.08-.003.161 0 .241.001.038-.012.044-.045.043-.154-.002-.308 0-.461-.001-.026 0-.034.005-.033.032.001.096.002.192 0 .288-.002.034.007.044.043.044.183-.002.367 0 .55 0v.33zM22.474 20.29v-.046l-.001-1.18c0-.04.012-.049.049-.048.101.003.203.002.305 0 .028 0 .034.009.034.036v1.793c0 .028-.008.036-.035.036a19.268 19.268 0 0 0-.424 0c-.029 0-.04-.01-.052-.035l-.562-1.195c-.006-.012-.008-.026-.025-.038V20.836c0 .035-.006.046-.043.045-.1-.003-.2-.002-.3 0-.027 0-.04-.005-.039-.036V19.05c0-.028.008-.035.036-.035.138.002.276.002.414 0 .03 0 .042.01.053.035l.571 1.218.011.022.008-.002z" fill="#c9383a"/><path d="M15.494 19.86v.434l.001.546c0 .034-.01.042-.042.041a8.862 8.862 0 0 0-.296 0c-.026 0-.034-.006-.034-.033V19.25c0-.023.006-.031.03-.031h.403c.03-.001.034.017.043.036l.447.982a.12.12 0 0 0 .026.04l.002-.043v-.973c0-.032.006-.043.041-.043.099.003.198.002.296 0 .026 0 .033.006.033.033v1.599c0 .027-.008.032-.033.032a15.95 15.95 0 0 0-.372 0c-.027 0-.04-.01-.05-.032l-.472-.962-.015-.029-.008.001zM19.563 20.049l-.001-.787c0-.036.01-.044.045-.044.183-.002.366-.008.55-.003a.748.748 0 0 1 .422.128.46.46 0 0 1 .199.36c.013.203-.04.383-.198.521-.02.018-.008.029 0 .043.088.149.163.304.21.472.011.038.018.077.028.115.005.02 0 .027-.022.027-.135 0-.27-.002-.406 0-.036 0-.028-.026-.031-.043a1.312 1.312 0 0 0-.16-.433c-.014-.025-.029-.034-.06-.03a.607.607 0 0 1-.118 0c-.03-.001-.04.007-.04.04.002.142 0 .284.002.427 0 .032-.008.04-.04.04a9.55 9.55 0 0 0-.338 0c-.033 0-.043-.008-.043-.042v-.791zm.42-.256-.001.236c0 .02.002.03.027.03.049.002.098.003.147-.001.092-.009.156-.064.173-.153a.537.537 0 0 0-.008-.238.165.165 0 0 0-.13-.13c-.063-.013-.127-.006-.19-.006-.022 0-.019.015-.019.03v.232zM12.83 20.05c0-.262 0-.524-.002-.787 0-.033.006-.046.043-.046.185-.001.37-.007.554-.002a.782.782 0 0 1 .361.09c.198.11.273.284.259.502a.57.57 0 0 1-.198.415c-.024.021-.007.034.002.05.094.159.173.325.218.505.026.103.027.103-.078.103h-.326c-.026.001-.034-.008-.037-.032a1.246 1.246 0 0 0-.161-.445c-.014-.024-.028-.032-.057-.029a.677.677 0 0 1-.123.001c-.03-.001-.038.008-.037.038.001.14-.001.282.001.423.001.039-.011.046-.047.045a8.28 8.28 0 0 0-.334 0c-.033 0-.04-.009-.04-.04.002-.264.001-.527.001-.791zm.418-.255v.233c0 .023.005.03.03.031.047.001.095.003.143-.002.092-.008.15-.057.172-.147a.526.526 0 0 0-.004-.238c-.02-.084-.077-.132-.164-.14-.046-.003-.093 0-.14-.003-.028 0-.038.008-.037.038.002.076 0 .152 0 .228z" fill="#fff"/><path d="M27.512 20.047v-.79c0-.02-.004-.039.028-.039.211 0 .423-.015.634.003a.65.65 0 0 1 .413.172c.114.112.15.252.14.406a.572.572 0 0 1-.198.423c-.022.019-.01.031 0 .046.086.144.158.295.206.456.013.043.02.088.03.132.006.019 0 .024-.019.024h-.41c-.03 0-.025-.022-.027-.037a1.285 1.285 0 0 0-.163-.441c-.013-.023-.026-.032-.053-.029a.591.591 0 0 1-.118.002c-.04-.004-.046.012-.046.047.002.14 0 .28.002.419 0 .031-.008.04-.04.04a10.044 10.044 0 0 0-.343 0c-.03 0-.037-.01-.037-.038l.001-.796zm.515.016.076-.005c.096-.009.16-.064.176-.16a.56.56 0 0 0-.007-.226.17.17 0 0 0-.16-.139c-.046-.004-.093-.002-.14-.004-.032-.002-.044.008-.043.042.002.131.001.263.001.394 0 .097 0 .097.097.098zM26.778 19.836v-.58c0-.028.005-.039.036-.038.12.002.24 0 .36 0 .02 0 .034-.002.034.027-.002.378.002.756-.004 1.134a.517.517 0 0 1-.193.42.582.582 0 0 1-.297.11c-.149.019-.298.016-.444-.027-.196-.058-.297-.196-.326-.394a1.144 1.144 0 0 1-.01-.164v-1.062c0-.033.005-.046.042-.045.117.003.234.002.351 0 .032 0 .04.009.04.04v1.07c0 .054 0 .107.016.16.016.053.051.087.104.1a.34.34 0 0 0 .18 0c.068-.02.102-.07.107-.16.008-.154.002-.31.004-.465v-.126zM23.825 19.219h.288c.026-.001.038.005.045.033.125.526.252 1.05.379 1.575.013.053.013.053-.043.053-.117 0-.234-.002-.35.001-.038.001-.048-.013-.054-.045-.013-.063-.03-.126-.042-.19-.004-.022-.014-.03-.036-.029h-.402c-.023 0-.033.006-.037.03-.013.065-.03.13-.043.197-.005.025-.014.037-.043.037a13.158 13.158 0 0 0-.356 0c-.028 0-.035-.005-.028-.036.13-.53.26-1.06.387-1.59.007-.028.017-.038.047-.037.096.002.192 0 .288 0zm-.017 1.083h.156c.022 0 .027-.006.022-.027l-.164-.667c-.002-.008.001-.023-.012-.024-.014 0-.013.013-.015.022l-.16.668c-.006.024.003.028.025.028h.148z" fill="#c9383a"/><path d="M11.455 20.049v-.79c0-.027 0-.041.034-.042.187-.002.374-.007.562-.002a.69.69 0 0 1 .362.098.46.46 0 0 1 .21.372.75.75 0 0 1-.05.36c-.08.187-.23.28-.423.317-.08.015-.162.016-.244.013-.027 0-.036.007-.035.035v.435c.001.027-.005.036-.033.036a11.462 11.462 0 0 0-.347 0c-.03 0-.037-.008-.037-.038v-.794zm.52-.517v-.002h-.077c-.017 0-.027.004-.027.026v.478c0 .018.004.025.023.025.051.002.102.004.153-.001.09-.01.152-.06.17-.145a.51.51 0 0 0-.005-.243c-.023-.086-.077-.13-.166-.138-.023-.002-.047 0-.071 0zM18.267 19.919v-.66c0-.034.01-.042.042-.042.303.002.606.002.91 0 .03 0 .037.008.037.038a3.991 3.991 0 0 0 0 .249c.001.036-.013.04-.043.04l-.504-.001c-.032 0-.044.007-.042.041.002.082.002.164 0 .245-.002.036.011.042.043.041l.457-.001c.028 0 .039.005.038.036-.002.085-.002.17 0 .254 0 .027-.007.035-.035.035-.155-.002-.31 0-.466-.002-.028 0-.038.006-.038.037.003.097.002.194 0 .291 0 .03.01.036.037.035h.52c.032-.001.04.007.04.039a6.724 6.724 0 0 0 0 .258c0 .022-.005.032-.03.032-.216.003-.432.01-.647.01-.201 0-.318-.122-.319-.324v-.651z" fill="#fff"/><path d="m25.368 20.221.001.622c0 .028-.005.038-.036.038a10.27 10.27 0 0 0-.36 0c-.033 0-.039-.01-.039-.04.001-.412 0-.823.002-1.235 0-.038-.008-.05-.048-.048-.097.003-.194 0-.292.001-.023 0-.035-.002-.034-.031a7.632 7.632 0 0 0 0-.279c0-.024.007-.03.03-.03h1.067c.025 0 .03.008.03.03v.28c0 .025-.008.03-.031.03-.085-.001-.17.001-.254-.001-.03 0-.036.009-.036.038v.625z" fill="#c9383a"/><path d="M14.347 20.047v-.787c0-.032.006-.043.04-.043.113.003.226.002.339 0 .028 0 .039.006.039.037v1.594c0 .028-.007.038-.036.036-.115-.008-.231-.003-.347-.003-.032 0-.036-.012-.036-.04v-.794z" fill="#fff"/></g></g><defs><clipPath id="a"><path fill="#fff" d="M0 0h39v40H0z"/></clipPath><clipPath id="b"><path fill="#fff" transform="translate(10 19)" d="M0 0h20v1.929H0z"/></clipPath></defs></svg>