<svg width="40" height="40" fill="none" xmlns="http://www.w3.org/2000/svg"><g clip-path="url(#a)" transform="matrix(1.4 0 0 1.4 -8 -8)" fill-rule="evenodd" clip-rule="evenodd"><path d="M10.932 22.407h1.485c2.112 0 2.597-1.608 2.597-2.407 0-1.304-.827-2.407-2.645-2.407h-1.437ZM10 16.755h2.521c2.398 0 3.454 1.713 3.454 3.245 0 1.665-1.303 3.244-3.444 3.244H10M17.612 23.244h.932v-6.489h-.932zM25.985 18.202c-.8-.467-1.484-.676-2.236-.676-1.485 0-2.588 1.056-2.588 2.483 0 1.456 1.065 2.465 2.626 2.465.732 0 1.532-.257 2.264-.733v1.018c-.637.333-1.332.57-2.35.57-2.436 0-3.501-1.874-3.501-3.234 0-1.98 1.494-3.425 3.558-3.425.666 0 1.342.161 2.227.532" fill="#fff"/><path d="M28.736 20.783H30v-1.266h-1.264z" fill="#b62134"/></g><defs><clipPath id="a"><path fill="#fff" d="M0 0h40v40H0z"/></clipPath></defs></svg>