<svg width="40" height="40" fill="none" xmlns="http://www.w3.org/2000/svg"><g clip-path="url(#a)" transform="matrix(1.4 0 0 1.4 -7.962 -7.96)"><mask id="b" mask-type="alpha" maskUnits="userSpaceOnUse" x="10" y="10" width="20" height="20"><path fill="#fff" d="M10 10.109h20v19.783H10z"/></mask><g mask="url(#b)" fill-rule="evenodd" clip-rule="evenodd"><path d="M19.508 26.29c-4.097-.392-7.724-2.36-9.067-4.628.07.425.554 1.355.776 1.967.162.448.397.814.507 1.143 1.696 1.2 3.643 1.828 6.319 2.083 2.758.263 5.184-.074 7.097-.987a16.26 16.26 0 0 1-5.632.421zM16.315 18.039a51.701 51.701 0 0 1-3.774-4.593c-.147.193-.314.42-.488.677-.241.352-.436.682-.582.957a52.658 52.658 0 0 0 3.57 3.548c3.693 3.339 7.29 5.506 10.165 7.07-2.592-1.908-5.733-4.23-8.89-7.66zM22.144 15.33c-1.054-2.099-1.88-3.488-3.094-5.118-.158.017-.422.15-.89.222-.349.055-.704.02-.987.132 1.772 1.86 3.201 3.806 4.773 6.606 1.79 3.183 2.686 5.722 3.44 8.378-.32-3.058-1.253-6.262-3.242-10.22z" fill="#f5d303"/><path d="M20.42 29.535c-5.125 0-9.28-4.017-9.28-8.973s4.13-8.83 9.255-8.83c5.025 0 9.142 3.719 9.3 8.541.004-.124.008-.249.008-.374 0-5.407-4.41-9.79-9.852-9.79-5.44 0-9.851 4.383-9.851 9.79 0 5.407 4.41 9.79 9.851 9.79a9.91 9.91 0 0 0 3.04-.476 9.61 9.61 0 0 1-2.47.322z" fill="#265092"/><path d="M15.112 15.757c3.512-3.58 8.975-3.851 12.203-.606 1.971 1.983 2.754 4.974 2.08 7.54.914-3.053.355-6.513-1.963-8.844-3.395-3.414-9.121-3.2-12.633.381-2.313 2.358-3.144 5.622-2.473 8.55-.096-2.459.842-5.04 2.786-7.021z" fill="#9c1574"/><path d="M29.22 20.784c-.03-2.155-.853-4.147-2.367-5.19-2.93-2.016-7.48-.44-10.316 3.703-1.469 2.145-2.154 4.516-2.07 6.585-.65-2.426-.115-5.431 1.668-8.035 2.837-4.143 7.753-5.7 10.983-3.477 1.913 1.316 2.842 3.68 2.661 6.236 0 0-.058.737-.127 1.059-.065.305-.235.967-.302 1.162-.067.194-.13-2.043-.13-2.043z" fill="#25845c"/><path d="M19.485 19.532c-2.892 3.067-3.547 7.147-1.461 9.114.092.088.189.168.29.244-1.837-1.836-1.285-5.352 1.255-8.095 2.334-2.523 6.305-3.626 8.227-1.813 1.695 1.598 1.468 4.666-.39 7.26 2.575-3.012 3.085-6.823 1.091-8.703-2.085-1.966-6.12-1.074-9.012 1.993z" fill="#d06519"/><path d="M22.185 22.658c-1.947 1.692-2.598 4.13-1.454 5.447.897 1.032 2.629 1.069 4.273.223-1.383.637-2.81.558-3.57-.317-1.015-1.168-.459-3.312 1.24-4.79 1.702-1.476 3.902-1.727 4.916-.558.761.875.64 2.298-.184 3.579 1.066-1.51 1.272-3.23.376-4.262-1.144-1.317-3.65-1.014-5.597.678z" fill="#b6161a"/></g></g><defs><clipPath id="a"><path fill="#fff" d="M0 0h40v40H0z"/></clipPath></defs></svg>