<svg width="40" height="40" fill="none" xmlns="http://www.w3.org/2000/svg"><g clip-path="url(#a)" transform="matrix(1.4 0 0 1.4 -8.4 -8.007)"><mask id="b" mask-type="alpha" maskUnits="userSpaceOnUse" x="11" y="15" width="20" height="10"><path fill="#fff" d="M11 15.742h20v8.516H11z"/></mask><g mask="url(#b)"><path fill-rule="evenodd" clip-rule="evenodd" d="m12.703 20.026-.855.85-.853-.85.855-.85zm1.708 1.7-.855.85-.853-.85.854-.851zm1.708 1.699-.855.85-.853-.85.855-.85zm-1.708-5.099-.855.85-.853-.85.854-.85Zm1.708 1.7-.855.85-.853-.85.855-.85zm1.708 1.7-.855.85-.853-.85.855-.851zm-1.708-5.1-.855.85-.853-.85.855-.85zm1.708 1.7-.855.85-.853-.85.855-.85z" fill="#a6a8ab"/><path fill-rule="evenodd" clip-rule="evenodd" d="M28.963 19.903c-.077-.124-.127-.38.066-.77l.344-.738.705.324-.392.846v.646s-.504.047-.723-.308zm1.269-.356c.491-.02.764.303.763.794 0 .622-.345.95-.799.959h-1.29v-.728h1.326zm-12.93.408c0-.784.668-1.42 1.456-1.42.788 0 1.456.636 1.456 1.42 0 .785-.668 1.42-1.456 1.42-.788 0-1.457-.635-1.457-1.42zm.633.003.821.816.82-.816-.821-.816zm2.97-1.37h1.102c.652.003 1.096.05 1.143.718.029.418-.183.729-.183.729l.581 1.097-.671.355-.553-1.054v-1.118h-.634V21.3h-.784v-2.711zm7.183 0V21.3h-.797v-2.711zm-3.182.72v1.293h.705v-1.293zm-.75-.719h1.132c.573.003 1.096.013 1.11.716.01.492-.33.587-.33.587s.416.092.407.674c-.011.779-.783.733-1.06.733h-1.259z" fill="#10509c"/><path fill-rule="evenodd" clip-rule="evenodd" d="M24.156 18.59h1.132c.573.002 1.096.012 1.11.715.01.491-.33.587-.33.587s.416.092.407.674c-.011.778-.783.732-1.06.733h-1.259zm.75.718v1.293h.705v-1.293z" fill="#10509c"/><path fill="#10509c" d="M27.291 18.589h.797V21.3h-.797z"/><path fill-rule="evenodd" clip-rule="evenodd" d="M20.905 18.589h1.101c.652.002 1.096.049 1.143.717.03.418-.182.729-.182.729l.581 1.097-.671.355-.553-1.054v-1.118h-.634V21.3h-.785v-2.711M17.301 19.955c0-.784.669-1.42 1.457-1.42s1.456.636 1.456 1.42c0 .785-.668 1.42-1.456 1.42-.788 0-1.457-.635-1.457-1.42zm.634.003.821.816.82-.816-.821-.816zM30.232 19.547c.491-.02.764.303.763.794 0 .622-.346.95-.799.959h-1.29v-.728h1.326z" fill="#10509c"/><path fill-rule="evenodd" clip-rule="evenodd" d="M28.963 19.903c-.077-.124-.127-.38.065-.77l.345-.738.704.324-.39.846v.646s-.505.047-.724-.308z" fill="#10509c"/></g></g><defs><clipPath id="a"><path fill="#fff" d="M0 0h40v40H0z"/></clipPath></defs></svg>