<svg width="41" height="40" fill="none" xmlns="http://www.w3.org/2000/svg"><g clip-path="url(#a)" transform="matrix(1.4 0 0 1.4 -8.4 -8.173)"><g clip-path="url(#b)" fill="#fff"><path d="M11.008 19.008h.55v1.98h-.55v-1.98zM21.049 19.013v1.985h-.646c-.175 0-.35-.005-.524.002-.084.003-.134-.027-.184-.091-.247-.32-.497-.637-.772-.986v1.066h-.566V19c.175 0 .345-.005.513.004.04.003.084.048.113.084.462.585.922 1.172 1.382 1.758.03.04.064.076.121.145v-1.98l.563.001zM14.425 20.998l1.581-1.429h-1.85v-.558h2.696c0 .174.004.343-.003.512-.002.038-.037.081-.069.11-.48.436-.962.87-1.445 1.303-.032.029-.078.059-.118.06-.252.005-.504.002-.792.002zM28.573 20.998l1.58-1.427h-1.85v-.56h2.694c0 .178.004.355-.003.533-.001.032-.042.068-.071.094-.478.433-.956.865-1.436 1.295-.035.03-.086.062-.13.063-.248.005-.497.002-.784.002zM28.038 19.013v.551h-1.015v1.42h-.578V19.57h-1.013v-.556h2.606zM25.145 21.302c.006.02.011.028.012.037.027.44-.049.52-.487.52-.58 0-1.16-.01-1.74.003-.447.01-.522-.122-.471-.56h2.686zM11 21.295h2.696c0 .124.014.248-.003.367-.019.124-.143.194-.312.196-.271.002-.543 0-.814 0h-1.145c-.357 0-.425-.068-.423-.429l.001-.134zM14.153 21.295h2.692c0 .119.013.237-.003.352-.019.132-.134.207-.3.21-.226.005-.451.002-.677.002H14.57c-.36 0-.425-.066-.422-.429 0-.04.003-.081.006-.135zM28.295 21.298h2.702c0 .11.007.216-.002.32-.01.122-.087.2-.207.226a1.011 1.011 0 0 1-.205.014h-1.875c-.343 0-.413-.07-.413-.41v-.15zM23.004 19.011v1.975h-.55v-1.975h.55zM24.6 19.009h.548v1.977h-.547v-1.977zM17.302 19.008h.538v1.98h-.538v-1.98zM13.696 20.994h-.54V19.01h.54v1.983zM20.003 21.297h1.049c0 .114.008.224-.003.332a.264.264 0 0 1-.073.142c-.136.142-.507.12-.627-.034l-.345-.44zM18.356 21.295h.548v.554h-.548v-.554zM27.008 21.3v.548h-.55V21.3h.55zM17.843 21.3v.548h-.54V21.3h.54z"/></g></g><defs><clipPath id="a"><path fill="#fff" transform="translate(.878)" d="M0 0h40v40H0z"/></clipPath><clipPath id="b"><path fill="#fff" transform="translate(11 19)" d="M0 0h20v2.866H0z"/></clipPath></defs></svg>