<svg width="40" height="40" fill="none" xmlns="http://www.w3.org/2000/svg"><g clip-path="url(#a)" transform="matrix(1.4 0 0 1.4 -7.747 -8)"><g clip-path="url(#b)" fill="#2666eb"><path d="M19.52 18.933c.774-.96 1.555-1.913 2.314-2.884.278-.356.526-.123.771-.007 4.216 1.997 5.454 7.614 2.48 11.233-1.933 2.353-5.063 3.293-7.922 2.38-2.805-.895-4.875-3.492-5.097-6.344-.04-.517.057-.764.623-.708.346.034.701.036 1.049.002 1.207-.118 2.11-.089 2.486 1.51.363 1.548 2.245 2.326 3.871 2.017 1.597-.304 2.829-1.804 2.842-3.462.013-1.638-1.125-3.104-2.705-3.476-.23-.055-.48-.045-.712-.261zM26.734 10.005c-1.035 1.286-1.953 2.408-2.847 3.55-.218.28-.48.294-.782.294-3.47-.004-6.941-.013-10.41.01-.53.003-.714-.153-.693-.681.032-.886.012-1.775.01-2.662-.002-.3.041-.516.43-.516 4.7.008 9.399.005 14.292.005z"/></g></g><defs><clipPath id="a"><path fill="#fff" d="M0 0h40v40H0z"/></clipPath><clipPath id="b"><path fill="#fff" transform="translate(12 10)" d="M0 0h14.734v20H0z"/></clipPath></defs></svg>