<svg width="40" height="40" fill="none" xmlns="http://www.w3.org/2000/svg"><g clip-path="url(#a)" transform="matrix(1.4 0 0 1.4 -8 -8)"><path d="M12.565 29.986c-.657 0-1.314-.032-1.968.01-.485.032-.61-.13-.596-.604.132-4.4 1.51-8.36 4.24-11.814 2.885-3.654 6.645-5.983 11.16-7.071A19.084 19.084 0 0 1 29.48 10c.383-.007.519.112.511.507-.021 1.291-.009 2.583-.009 3.874 0 .849.002.873-.879.905a12.625 12.625 0 0 0-3.718.7c-4.594 1.598-7.723 4.684-9.383 9.256a12.45 12.45 0 0 0-.75 4.092c-.007.537-.21.692-.72.661-.654-.038-1.312-.009-1.968-.009z" fill="#397697"/><path d="M19.678 29.988c-.487 0-.976-.03-1.46.007-.51.04-.537-.23-.52-.62.12-2.519.95-4.776 2.461-6.786 1.727-2.294 4.016-3.764 6.76-4.53a9.837 9.837 0 0 1 2.57-.346c.349-.002.503.102.5.467-.014.974-.026 1.948.004 2.921.014.459-.173.554-.592.588-2.862.23-5.081 1.551-6.614 3.994-.723 1.153-1.076 2.424-1.157 3.769-.024.402-.13.574-.555.543-.464-.033-.931-.008-1.397-.008z" fill="#397697"/><path d="M29.983 26.558c0 .974-.014 1.946.008 2.92.008.377-.1.518-.497.516a325.014 325.014 0 0 0-5.9.002c-.397.004-.513-.125-.491-.508.137-2.459 1.715-4.905 4.374-5.917.593-.226 1.22-.313 1.842-.431.563-.107.696.104.677.63-.038.927-.013 1.859-.013 2.789z" fill="#397696"/></g><defs><clipPath id="a"><path fill="#fff" d="M0 0h40v40H0z"/></clipPath></defs></svg>