<svg width="40" height="40" fill="none" xmlns="http://www.w3.org/2000/svg"><path fill-rule="evenodd" clip-rule="evenodd" d="M20.614 18.397c.818 0 1.34.564 1.462.879h-.358c-.173-.306-.587-.597-1.1-.597-.78 0-1.35.634-1.35 1.326 0 .691.57 1.316 1.364 1.316.659 0 1.143-.484 1.251-.917h-1.73v-.282h2.097c-.07.922-.875 1.477-1.636 1.477-.922 0-1.66-.748-1.66-1.604.005-.799.667-1.598 1.66-1.598zm-2.455.056h.31v3.094h-.31zm-4.039 0 .767 2.694.733-2.694h.287l.748 2.694.757-2.694h.315l-.884 3.094h-.395l-.692-2.54-.677 2.54h-.395l-.883-3.094zm-8.12 0h.31v2.812h1.505v.282H6Zm2.304 2.572a1.576 1.576 0 0 1-.118-.644v-1.928h.306v1.928c0 .225.033.423.103.55.188.348.612.367.757.367.146 0 .522-.02.71-.367.07-.132.104-.325.104-.55v-1.928h.31v1.928c0 .259-.042.48-.117.644-.212.465-.72.578-1.007.578-.282 0-.836-.113-1.048-.578zm19.565-2.29h-1.51v1.115h1.458v.282h-1.458v1.133h1.51v.282h-1.815v-3.094h1.815zm1.98 2.864c-.866 0-1.618-.682-1.618-1.599 0-.917.733-1.603 1.613-1.603.794 0 1.297.554 1.415.846h-.348c-.339-.503-.884-.564-1.072-.564-.724 0-1.303.634-1.303 1.326 0 .724.635 1.312 1.303 1.312.155 0 .658-.02 1.081-.584h.348a1.626 1.626 0 0 1-1.42.866zM34 21.547h-.418l-1.143-1.312-.414.475v.837h-.31v-3.094h.31v1.782l1.557-1.782H34l-1.354 1.542zm-22.005 0h-.903v-3.094h.903c.38 0 .757.094 1.006.254.546.339.7.926.7 1.302 0 .287-.112.908-.7 1.284-.25.16-.625.254-1.006.254zm.875-2.577c-.278-.178-.565-.24-1.02-.24h-.448v2.535h.447c.282 0 .706 0 1.063-.25.188-.16.484-.479.484-1.02 0-.409-.207-.79-.526-1.025zm12.295 2.403c-.263.155-.517.174-.88.17h-.775v-3.09h.776c1.006 0 1.058.696 1.058.823 0 .362-.23.536-.339.62a.8.8 0 0 1 .513.762.836.836 0 0 1-.353.715zm-.376-1.674a.494.494 0 0 0 .25-.432.505.505 0 0 0-.142-.34c-.122-.135-.348-.192-.663-.192h-.414v1.053h.39c.24-.004.428-.014.579-.089zm.061.437c-.146-.056-.32-.07-.649-.07h-.38v1.199h.432c.258 0 .465-.014.635-.08.192-.08.324-.292.324-.527a.57.57 0 0 0-.362-.522z" fill="#fff" style="stroke-width:1.4"/></svg>