<svg width="40" height="40" fill="none" xmlns="http://www.w3.org/2000/svg"><g clip-path="url(#a)" transform="matrix(1.4 0 0 1.4 -8 -7.967)"><g clip-path="url(#b)" fill="#fff"><path d="M20.283 17.87c.254.319.498.624.74.933.023.03.08.06.05.108-.023.037-.074.018-.112.018-.185.002-.371 0-.556.002a.236.236 0 0 1-.196-.085c-.196-.226-.4-.445-.594-.674a.575.575 0 0 0-.483-.222 10.66 10.66 0 0 1-.609 0c-.09-.004-.123.022-.12.117.006.234-.002.468.003.701.003.115-.047.16-.155.161-.133.001-.265.002-.397 0-.155-.001-.185-.03-.185-.187V16.76c0-.137-.002-.274 0-.41.004-.17.083-.263.248-.261.71.006 1.421-.032 2.13.02.315.024.604.135.761.427.267.491.121 1.12-.525 1.335zm-1.122-1.152c-.247 0-.45.003-.653-.001-.079-.002-.109.017-.105.102.007.15.007.3 0 .449-.004.09.031.11.115.11.3-.005.6 0 .9-.003.154-.002.308.012.462-.018.2-.041.297-.135.298-.307 0-.17-.095-.269-.295-.307-.254-.049-.51-.011-.722-.025zM15.32 18.998c-.458.003-.855-.054-1.23-.231-.61-.288-.843-.875-.757-1.495.089-.636.496-.99 1.082-1.152a3.02 3.02 0 0 1 1.833.046c.694.244 1.004.782.945 1.493-.062.755-.588 1.139-1.265 1.279-.216.045-.435.07-.608.06zm-.036-.585c.156.01.329-.012.5-.054.398-.098.646-.394.666-.797.021-.423-.178-.745-.572-.873a1.856 1.856 0 0 0-1.328.039.747.747 0 0 0-.465.627c-.042.33.019.632.312.84.26.184.557.227.887.218zM11.645 16.085h1.35c.164 0 .19.027.19.193.001.106-.007.213.003.318.01.112-.04.129-.137.129-.72-.003-1.44-.003-2.159 0-.049 0-.136-.05-.147.05-.01.103.08.117.152.124.289.03.578.054.868.08.205.018.412.035.618.055.218.021.383.204.399.438.017.244-.114.465-.322.512-.259.057-.525.056-.788.083-.227.023-.457.035-.684.059-.208.021-.246.068-.246.275 0 .128-.002.256.001.384.003.086-.035.138-.118.14a9.35 9.35 0 0 1-.503 0c-.083-.002-.122-.049-.12-.138.004-.242 0-.485.002-.727.002-.243.105-.36.346-.377.497-.035.994-.062 1.49-.091.035-.003.07-.004.106-.005.039 0 .072-.01.075-.056.003-.056-.04-.046-.074-.047l-.778-.047c-.286-.017-.572-.031-.857-.053-.199-.016-.3-.122-.306-.326a15.723 15.723 0 0 1-.001-.74c.001-.152.099-.231.276-.232.454-.002.909 0 1.364 0zM29.665 18.93c-.104.004-.223 0-.338-.032-.212-.059-.34-.211-.42-.406-.035-.083-.084-.113-.178-.112-.463.006-.926.005-1.39 0-.093-.001-.142.027-.177.113-.045.11-.109.212-.156.32-.037.086-.1.116-.187.116-.194 0-.388-.002-.582.001-.093.002-.104-.03-.064-.107.457-.863.91-1.727 1.365-2.591a.255.255 0 0 1 .244-.148c.185 0 .37.002.556 0 .084-.001.137.035.177.11.45.86.902 1.716 1.353 2.574.085.16.083.16-.095.16-.031.002-.062.002-.108.002Zm-1.624-2.192-.555 1.112h1.105l-.55-1.112zM22.92 18.25c.052-.037.064-.091.086-.136.312-.628.623-1.256.93-1.886.05-.106.116-.15.235-.144.18.008.362.004.542 0 .084 0 .117.014.07.104-.382.725-.76 1.45-1.14 2.176-.078.147-.158.294-.23.444a.199.199 0 0 1-.198.122c-.18 0-.361.002-.542 0-.122-.001-.202-.061-.259-.17-.442-.848-.886-1.693-1.33-2.54-.062-.12-.053-.134.088-.134.172 0 .344.006.516-.002.114-.005.175.041.224.14.311.635.627 1.266.942 1.899l.066.126zM27.262 23.832c-.525-.013-1.038-.082-1.528-.286-.413-.172-.778-.408-1.057-.762-.559-.707-.43-1.577.245-2.175.567-.501 1.25-.717 1.993-.77.738-.051 1.442.077 2.097.429.263.14.49.326.682.555.047.055.04.092-.028.097-.094.007-.185.015-.269-.066-.455-.44-1.016-.66-1.632-.746a3.726 3.726 0 0 0-1.684.13c-.503.162-.944.417-1.267.853a1.273 1.273 0 0 0 .077 1.58c.472.527 1.08.774 1.762.875a3.74 3.74 0 0 0 1.669-.127c.412-.127.794-.315 1.09-.638.087-.096.188-.09.29-.078.084.01.04.065.015.104a1.55 1.55 0 0 1-.386.377c-.515.37-1.096.566-1.726.624-.115.012-.229.017-.343.024zM25.843 17.502v1.216c0 .184-.03.212-.216.212-.128.001-.256.002-.384 0-.092-.002-.145-.04-.145-.144.002-.82 0-1.64.002-2.46 0-.142.08-.226.228-.236.127-.009.256-.006.383-.003.111.003.133.078.132.173v1.242z"/><path d="M27.206 23.307c-.658-.007-1.278-.147-1.821-.54-.069-.05-.194-.1-.17-.178.027-.091.148-.026.222-.02.98.072 1.96.122 2.943.114.19-.001.38.008.568.014.032.001.08-.016.092.029.01.039-.032.058-.06.078-.34.24-.723.375-1.13.448a3.015 3.015 0 0 1-.644.055zM28.64 20.925c-1.08.018-2.158.046-3.236.106-.018.001-.035.003-.053.003-.03 0-.068.007-.079-.03-.008-.03.022-.042.043-.06.186-.154.393-.277.62-.361.938-.349 1.865-.321 2.774.106.087.04.165.1.248.15.018.013.04.025.035.05-.006.035-.034.036-.06.036h-.292zM29.575 22.437c.012-.12.02-.224.037-.328.01-.061-.013-.077-.07-.076-.096.003-.195.009-.29-.001-.097-.01-.138.025-.14.118l-.005.052c-.018.228-.068.263-.298.22-.045-.008-.06-.026-.055-.069.042-.364.041-.729 0-1.093-.007-.056.018-.068.067-.069l1.045-.021c.074-.002.07.054.08.098.075.358.07.716.001 1.074-.011.061-.031.104-.11.097-.086-.008-.174-.002-.262-.002zm-.198-.643c.276 0 .276 0 .238-.277 0-.004-.003-.008-.002-.013.003-.063-.028-.08-.089-.077-.11.006-.22.005-.33.005-.046 0-.07.01-.075.064-.028.267-.002.298.258.298zM26.342 22.344c-.11 0-.221-.005-.33.001-.085.006-.105-.036-.11-.108-.02-.29-.014-.58 0-.87.003-.065.025-.1.103-.1.203-.002.405-.014.607-.022.063-.003.123-.012.115.088-.006.078.006.15-.108.146-.128-.004-.256.005-.383 0-.081-.002-.095.036-.095.105 0 .068.014.11.095.104.11-.007.22-.005.33-.013.08-.005.108.026.104.107-.003.074-.003.13-.103.121-.1-.009-.203-.005-.303-.01-.07-.002-.128-.004-.124.1.004.096.034.13.133.124.127-.008.256.003.383 0 .137-.004.076.097.089.158.015.07-.014.09-.084.086-.106-.007-.212-.002-.318-.002l-.001-.015zM24.92 21.807c-.013-.137.019-.271.028-.407.009-.13.115-.103.189-.099.088.005.042.082.038.124-.033.335-.067.255.256.267.054.002.066-.023.067-.071.002-.08.012-.158.017-.237.008-.142.117-.105.194-.1.094.005.052.083.048.132a4.09 4.09 0 0 0 0 .79c.004.046.05.13-.053.122-.069-.006-.181.053-.188-.09-.004-.088-.017-.176-.017-.264 0-.066-.019-.097-.09-.093-.277.014-.275-.074-.236.266.02.171.02.17-.14.16-.07-.004-.079-.044-.083-.093-.012-.136-.041-.27-.03-.407ZM27.807 21.785c0-.158.005-.317-.002-.475-.003-.074.016-.097.092-.096.234.004.221-.059.227.221.003.188.026.377.004.565-.013.11.016.162.139.146.095-.011.194 0 .29-.003.068-.002.095.018.086.092-.02.179-.017.177-.2.173a10.633 10.633 0 0 0-.489-.002c-.107.003-.16-.023-.15-.147.013-.157.004-.316.003-.474zM26.9 21.795c0-.145.008-.291-.003-.435-.008-.104.032-.119.124-.125.125-.009.179.015.17.159-.015.214-.002.43-.005.645-.001.073.022.104.098.098.07-.005.14 0 .211 0 .155 0 .197.063.154.214-.013.049-.042.034-.068.033-.198-.002-.396-.007-.594-.006-.072 0-.088-.033-.087-.097v-.486z"/></g></g><defs><clipPath id="a"><path fill="#fff" d="M0 0h40v40H0z"/></clipPath><clipPath id="b"><path fill="#fff" transform="translate(10 16)" d="M0 0h20v7.832H0z"/></clipPath></defs></svg>