<svg width="40" height="40" fill="none" xmlns="http://www.w3.org/2000/svg"><path fill-rule="evenodd" clip-rule="evenodd" d="M10.217 33.581c.785.21 2.712.419 4.281.419 6.992 0 9.847-1.885 11.416-7.121l3.782-12.357h-5.494l-3.282 11.03c-.214.35-.428 1.048-.714 1.606-.927 1.606-2.711 2.025-4.78 2.025-2.07 0-3.853-.28-3.853-.28z" fill="#fff" style="stroke-width:1.4"/><path fill-rule="evenodd" clip-rule="evenodd" d="M29.696 13.714 21.996 6l-11.779 7.714h6.647L12.85 27.708s1.316.205 3.158.205c1.448 0 2.303-.478 2.698-1.16.198-.41.263-.547.46-1.23l3.423-11.877h7.107z" fill="#e30613" style="stroke-width:1.4"/></svg>