<svg width="40" height="40" fill="none" xmlns="http://www.w3.org/2000/svg"><g clip-path="url(#a)" transform="matrix(1.4 0 0 1.4 -8 -8)"><mask id="b" mask-type="alpha" maskUnits="userSpaceOnUse" x="10" y="12" width="20" height="16"><path fill="#fff" d="M10 12.713h20v14.575H10z"/></mask><g mask="url(#b)"><path fill-rule="evenodd" clip-rule="evenodd" d="m10.377 27.225 1.189-.377c1.038-.318 2.13-.67 3.169-1.001l1.592-.505c.089-.019.156.016.175.081.021.071-.032.136-.06.187-.066.12-.122.215-.187.332l-.566 1c-.063.112-.03.26.206.207l8.532-1.903c.286-.062.582-.11.865-.184a6.253 6.253 0 0 0 3.663-2.612c.62-.926.948-1.954 1.032-3.072l.007-.052.002-.01c.002-.002.002-.006.004-.01v-.556c-.017-.05-.02-.274-.029-.35a6.285 6.285 0 0 0-.566-2.077c-.686-1.415-1.654-2.36-3.028-3.024a6.254 6.254 0 0 0-2.082-.561c-.072-.007-.307-.012-.351-.025h-.498c-.058.023-.369.034-.465.046a6.298 6.298 0 0 0-2.57.909c-.406.258-.962.69-1.236 1.01l-1.203 1.293c-.048.049-.077.08-.12.127-.04.046-.081.08-.12.128-.04.046-.083.082-.122.127-.169.192-.32.341-.48.515l-.477.516c-.083.09-.15.159-.24.256-.081.085-.162.18-.244.265l-.6.642c-.044.049-.08.081-.12.128-.038.045-.083.084-.121.128-.22.25-.504.53-.72.771l-.961 1.036c-.039.045-.085.082-.122.127-.183.214-.518.541-.72.771l-.238.259c-.096.097-.231.21-.156.318.052.078.315.063.426.07l1.403.087c.2.013.18.139.07.264l-.842.908-.119.13-1.436 1.545c-.16.173-.315.349-.476.517l-.48.514c-.158.176-.318.345-.474.519l-.362.385c-.294.35.01.275.256.2zm11.278-8.16c-.039.044-.82.62-.888.671l-6.115 4.581c-.037.026-.106.067-.043.116.043.036.204-.053.256-.076l.771-.331c.345-.15.686-.295 1.028-.442.675-.29 1.38-.59 2.054-.882l3.59-1.542c.095-.04.447-.206.523-.216l.354.422c.228.26.485.587.712.843.123.138.229.28.356.42.099.109.196.076.223-.034l.419-1.915.035-.161c.016-.077 0-.099.074-.13.372-.155.735-.301 1.105-.451.082-.034.907-.356.956-.405.033-.036.044-.11.006-.154-.034-.038-1.768-1.05-1.962-1.159-.043-.452-.069-.922-.101-1.38l-.05-.68c-.01-.122.005-.252-.093-.28-.09-.024-.164.064-.239.134l-.388.345c-.068.056-.128.117-.194.174l-.297.265c-.175.146-.424.39-.583.52-.13.104-.035.089-.413-.003a17.541 17.541 0 0 1-.293-.072l-1.482-.365c-.11-.029-.24-.017-.217.12l.447 1.03c.037.083.436.974.449 1.037z" fill="#d82128"/></g></g><defs><clipPath id="a"><path fill="#fff" d="M0 0h40v40H0z"/></clipPath></defs></svg>