<svg width="40" height="40" fill="none" xmlns="http://www.w3.org/2000/svg"><path fill-rule="evenodd" clip-rule="evenodd" d="M6.667 23.776h9.68v-1.133h-9.68Z" fill="#e43037" style="stroke-width:1.4"/><path fill-rule="evenodd" clip-rule="evenodd" d="M11.081 17.603s.023.14.023.207c.134.655.313 1.665.336 1.838h-.717c.045-.174.224-1.184.358-1.838v-.207zm.583-1.38h-1.076l-1.277 5.665h1.008s.224-1.231.27-1.388h1.008c.022.157.246 1.388.246 1.388h1.009zM15.406 19.742v.178s-.022-.14-.022-.207l-.695-3.49h-1.277v5.665h.896v-3.791s.022.14.022.208l.695 3.583h1.322v-5.665h-.941v3.519zM6.667 16.223v5.665h2.285v-.851h-1.3v-4.814zM21.972 16.223v7.553h3.025v-1.135h-1.725v-2.164h1.636v-1.135h-1.636v-1.983h1.725v-1.136zM25.67 18.008c0 1.016.537 1.625 1.232 2.316 1.03 1.024 1.03 1.191 1.03 1.748 0 .572-.2.69-.515.69-.112 0-.448 0-.448-.64v-.738h-1.3v1.01c0 .917.628 1.443 1.704 1.443 1.21 0 1.792-.634 1.792-1.936 0-.923-.201-1.297-1.21-2.354-.896-.935-.986-1.21-.986-1.66 0-.54.18-.649.47-.649.202 0 .404.06.404.509v.718h1.233v-.829c0-.494-.09-.811-.336-1.031-.314-.286-.762-.442-1.278-.442-1.187 0-1.792.604-1.792 1.845zM29.838 18.008c0 1.016.537 1.625 1.232 2.316 1.03 1.024 1.03 1.191 1.03 1.748 0 .572-.2.69-.514.69-.113 0-.449 0-.449-.64v-.738h-1.3v1.01c0 .917.628 1.443 1.704 1.443 1.21 0 1.792-.634 1.792-1.936 0-.923-.179-1.297-1.21-2.354-.896-.935-.986-1.21-.986-1.66 0-.54.18-.649.47-.649.203 0 .404.06.404.509v.718h1.233v-.829c0-.494-.09-.811-.336-1.031-.292-.286-.762-.442-1.278-.442-1.187 0-1.792.604-1.792 1.845zM21.412 16.223H20.09l-.92 2.22-.94-2.22h-1.322L18.498 20l-1.59 3.776h1.322l.94-2.22.92 2.22h1.322L19.82 20z" fill="#fff" style="stroke-width:1.4"/></svg>