<svg width="40" height="40" fill="none" xmlns="http://www.w3.org/2000/svg"><g clip-path="url(#a)" transform="matrix(1.4 0 0 1.4 -8 -8.143)"><g clip-path="url(#b)" fill="#fff"><path d="M14.441 20.274c.068.02.137.035.202.062.19.08.288.225.29.433v.308c0 .048-.018.07-.069.07a9.481 9.481 0 0 0-.324 0c-.054 0-.074-.026-.074-.077 0-.108.002-.216-.007-.324-.015-.19-.128-.297-.32-.303-.149-.004-.299.002-.448.002-.057 0-.08.023-.079.08.002.174-.002.35.002.524.001.073-.024.1-.097.095-.088-.005-.177 0-.266-.001-.104 0-.11-.005-.11-.106v-1.864c0-.108.004-.11.114-.11.338 0 .676-.003 1.015 0a.879.879 0 0 1 .429.113c.33.185.384.797.026.979-.063.032-.134.049-.201.071-.027.009-.056.014-.083.02v.028zm-.502-.821c0 .004 0-.005 0 0h-.267c-.046-.001-.065.018-.064.064v.466c0 .052.02.075.074.074.122-.003.245.003.366-.002a1.33 1.33 0 0 0 .262-.034c.117-.03.185-.132.19-.263.005-.135-.043-.229-.168-.263-.126-.034-.263-.025-.393-.042zM19.7 20.46c.034 0 .068.002.1 0 .074-.009.12.006.145.091.029.096.118.143.212.171.203.06.41.078.611 0 .125-.05.169-.12.159-.225-.008-.088-.09-.174-.203-.193-.192-.031-.385-.05-.577-.08a1.55 1.55 0 0 1-.313-.075c-.296-.114-.362-.36-.284-.648.069-.256.262-.388.507-.438.16-.032.33-.05.493-.04.192.01.384.052.552.16a.56.56 0 0 1 .266.393c.01.065-.004.1-.08.098-.097-.004-.194.002-.291-.003-.029-.001-.073-.017-.082-.038-.055-.134-.171-.178-.296-.2a.848.848 0 0 0-.468.024.308.308 0 0 0-.102.067c-.1.103-.068.264.07.297.167.04.338.058.508.078.178.021.354.046.51.138.373.219.356.752-.03.99a1.03 1.03 0 0 1-.534.14c-.293.005-.583-.013-.84-.18a.61.61 0 0 1-.272-.456c-.007-.052.018-.07.065-.07h.175v-.001zM10 20.13c.017-.324.105-.614.335-.848a.965.965 0 0 1 .425-.232c.17-.053.343-.05.51-.028.332.043.642.15.8.485.044.093.059.2.083.302.011.048-.018.072-.066.073-.11 0-.222.003-.333-.004-.024-.001-.059-.037-.067-.063-.13-.406-.697-.557-1.004-.257a.639.639 0 0 0-.163.282c-.065.247-.069.495.09.718.079.111.192.171.327.192a.889.889 0 0 0 .45-.035.443.443 0 0 0 .3-.357c.012-.068.04-.087.104-.085.094.003.189.002.283 0 .068-.001.096.024.086.095-.063.444-.36.73-.809.786a1.638 1.638 0 0 1-.683-.04.853.853 0 0 1-.606-.627c-.032-.115-.042-.237-.062-.356ZM16.173 19c.266.012.514.066.734.216.203.138.3.342.332.58.008.057-.014.086-.071.086h-.325c-.047 0-.067-.022-.077-.068-.052-.232-.21-.355-.434-.388a.982.982 0 0 0-.354.014c-.216.05-.335.207-.382.417-.054.238-.057.474.087.688.08.12.197.184.338.205.187.029.37.022.54-.078a.424.424 0 0 0 .208-.315c.01-.063.036-.085.097-.083.092.002.183 0 .275 0 .099 0 .115.017.1.112-.054.348-.239.597-.573.711-.292.1-.593.106-.894.024a.847.847 0 0 1-.629-.634 1.283 1.283 0 0 1 .145-1.049.84.84 0 0 1 .559-.386c.107-.023.216-.035.324-.052zM19.293 19.773c0 .21.014.423-.004.632-.025.306-.165.558-.46.68a1.123 1.123 0 0 1-.974-.032c-.258-.133-.382-.376-.395-.654-.02-.42-.01-.843-.013-1.265 0-.052.02-.074.075-.072.094.003.188 0 .283 0 .105 0 .111.007.111.115v.783c0 .127-.002.255.004.383.01.255.14.39.391.42.316.035.523-.145.526-.463.003-.369 0-.738 0-1.107 0-.13.001-.13.135-.13.08 0 .161.004.241-.002.068-.004.088.025.088.087v.625h-.008zM23.814 20.668l-.052.101c-.112.216-.282.355-.528.383-.58.066-.958-.323-1.03-.84-.038-.275-.016-.542.12-.791a.925.925 0 0 1 .654-.476c.274-.06.523-.007.755.132.169.101.267.26.315.451.017.063-.004.09-.068.087-.017-.001-.034-.003-.05 0-.09.015-.134-.024-.165-.108a.516.516 0 0 0-.304-.312.696.696 0 0 0-.9.333.996.996 0 0 0 .043 1.03c.15.242.39.324.663.28.268-.045.422-.23.497-.482.05-.17.045-.172-.132-.172-.116 0-.233-.003-.349 0-.085.004-.085-.048-.084-.108.002-.056-.007-.111.081-.11.236.004.472.003.708 0 .06 0 .085.026.084.085v.907c0 .059-.024.083-.085.084-.18.004-.183.005-.179-.17.002-.085.019-.17.028-.254.002-.015 0-.03 0-.045l-.022-.005zM28.817 19.932c.03-.045.057-.093.09-.134a.577.577 0 0 1 .844-.037c.336.319.332.932-.01 1.247-.23.212-.693.238-.897-.144-.008-.015-.019-.028-.038-.057v.905c-.059 0-.119.003-.178-.002-.016-.002-.034-.027-.043-.045-.007-.013-.003-.033-.003-.05l.001-1.888c0-.035.016-.095.033-.098a.585.585 0 0 1 .18.003c.009.001.02.043.019.066-.003.076-.01.152-.016.228a.162.162 0 0 1 .018.006zm.953.454c-.019-.09-.028-.174-.053-.252-.051-.157-.15-.274-.317-.31a.425.425 0 0 0-.446.155.662.662 0 0 0-.046.734c.1.162.242.25.436.231a.412.412 0 0 0 .358-.282c.035-.09.047-.187.067-.276zM12.377 20.097c0-.31.002-.621-.001-.932-.001-.08.025-.11.105-.104.083.006.166.001.25.001.11 0 .114.004.114.12v1.854c0 .102-.006.107-.11.107-.082 0-.166-.004-.249.002-.083.006-.112-.022-.11-.108.004-.313.001-.627.001-.94zM26.685 20.323c-.019.35-.104.606-.377.755-.317.172-.806.1-.977-.355-.107-.283-.095-.568.074-.83.144-.222.361-.31.62-.294a.63.63 0 0 1 .573.403c.05.118.068.248.087.32zm-.229.077c-.021-.103-.03-.19-.057-.27-.058-.163-.166-.282-.346-.31-.197-.03-.36.033-.459.21a.692.692 0 0 0-.013.677.41.41 0 0 0 .406.239.404.404 0 0 0 .38-.251c.043-.097.062-.204.09-.295zM28.021 20.786l-.064.097c-.193.322-.598.338-.822.187a.48.48 0 0 1-.21-.397c-.012-.33-.008-.66-.01-.99 0-.046.019-.062.065-.064.173-.01.173-.01.173.158 0 .253-.002.505.001.758 0 .065.007.134.025.196.08.28.44.278.617.114a.625.625 0 0 0 .2-.468c.003-.222.003-.444-.001-.666-.002-.074.024-.095.096-.093.141.004.142 0 .142.115 0 .43 0 .86-.002 1.29 0 .038-.014.102-.033.107a.525.525 0 0 1-.18 0c-.01-.001-.022-.043-.02-.066.004-.084.013-.168.023-.278zM24.65 19.941c.013-.02.028-.038.037-.059a.44.44 0 0 1 .469-.282c.022.002.048.03.06.052.01.02.002.049.004.073.007.077-.009.121-.104.112a.576.576 0 0 0-.205.028.309.309 0 0 0-.227.252c-.017.09-.027.181-.029.272-.004.221-.002.443 0 .665 0 .062-.02.09-.087.089-.148-.002-.149.001-.149-.146 0-.42 0-.842.002-1.264 0-.035.01-.099.026-.102a.709.709 0 0 1 .187-.001c.008 0 .02.038.019.058-.003.082-.01.163-.016.245a.2.2 0 0 0 .014.008z"/></g></g><defs><clipPath id="a"><path fill="#fff" d="M0 0h40v40H0z"/></clipPath><clipPath id="b"><path fill="#fff" transform="translate(10 19)" d="M0 0h20v2.713H0z"/></clipPath></defs></svg>