<svg width="40" height="40" fill="none" xmlns="http://www.w3.org/2000/svg"><path fill-rule="evenodd" clip-rule="evenodd" d="M10.004 15.147 6 24.853h24l4-9.706Z" fill="#173b7a" style="stroke-width:1.4"/><path fill-rule="evenodd" clip-rule="evenodd" d="M29.744 18.763c.527-1.628-1.279-1.904-2.8-1.904-2.147 0-3.668.486-4.298 2.04-.075.177-.112.34-.13.485H20.62l.947-2.296h-.924l-.938 2.296h-3.971l3.761-2.296h-3.024l-3.033 2.007.816-2.007H12.02l-2.347 5.735h2.235l.607-1.479 1.134-.69.737 2.17h2.767l-1.092-2.633h3.328l-1.083 2.632h.915l1.078-2.632h2.632c.242.145.597.252 1.05.308l1.894.243c.528.065.714.145.593.453-.168.41-.728.508-1.232.508-.485 0-.77-.065-.924-.177-.154-.107-.177-.275-.121-.485h-2.604c-.649 1.731 1.386 2.025 2.963 2.025 2.37 0 3.915-.63 4.457-1.993.452-1.124-.112-1.596-1.587-1.764l-1.843-.21c-.542-.065-.63-.219-.56-.406.154-.387.597-.541 1.236-.541.285 0 .565.033.752.13.186.08.284.243.2.486h2.534v-.005z" fill="#fefefe" style="stroke-width:1.4"/></svg>