<svg width="40" height="40" fill="none" xmlns="http://www.w3.org/2000/svg"><g clip-path="url(#a)" transform="matrix(1.4 0 0 1.4 -8 -8)"><path fill-rule="evenodd" clip-rule="evenodd" d="M10 16.288v.65h1.994c.233 0 .35.046.466.163.092.116.092.163.092.58v3.34c0 .626-.116.743-.672.743h-.558v-4.175H10v4.893h2.46c.58 0 .742-.046 1.021-.323.255-.257.301-.441.301-1.162v-3.503c0-.44-.046-.602-.233-.835-.23-.254-.534-.37-.95-.37zm4.175 6.194h1.23v-3.154c0-.233 0-.303.046-.371.07-.163.257-.255.488-.255.208 0 .35.046.512.163v-.93c-1.371.025-1.81.117-2.276.488zm3.227-6.356c-.396 0-.696.3-.696.671 0 .396.3.697.696.697.371 0 .672-.3.672-.696 0-.372-.301-.672-.672-.672zm1.647 0c-.395 0-.696.3-.696.671 0 .396.3.697.696.697.371 0 .672-.3.672-.696 0-.372-.3-.672-.672-.672zm-.512 3.457h-1.065c-.42 0-.604.046-.813.254-.232.187-.349.464-.349.837v.718c0 .326.07.556.257.767.23.255.44.323.927.323h2.297v-3.457c0-.301-.092-.556-.3-.764-.258-.255-.466-.326-.93-.326h-1.855v.93c.463-.187.766-.258 1.184-.258.438 0 .647.141.647.442zm0 2.18h-.534c-.208 0-.37-.07-.463-.232-.046-.068-.046-.092-.046-.301v-.417c0-.35.162-.512.51-.512h.533zm4.942-3.803H21.3c-.42 0-.583.046-.813.23-.233.209-.35.512-.35.859v.672c0 .279.095.558.28.767.232.254.417.325.883.325h.997c.438 0 .625-.07.834-.233.233-.209.347-.488.347-.86zM21.3 19.12c0-.304.184-.488.53-.488.35 0 .534.184.534.487v.534c0 .3-.208.488-.533.488-.347 0-.531-.187-.531-.488zm2.273 2.969c0-.35-.07-.58-.255-.789-.233-.254-.488-.325-.975-.325h-1.022c-.463 0-.65.046-.88.23a1.19 1.19 0 0 0-.372.884v.672c0 .325.114.604.301.788.233.257.442.325.951.325h1.021c.442 0 .65-.046.881-.23.233-.209.35-.466.35-.883zm-2.273.116c0-.35.16-.533.509-.533.347 0 .534.184.534.533v.51c0 .3-.187.487-.512.487-.347 0-.531-.187-.531-.487zm6.03-1.392v-1.764c0-.742-.395-1.09-1.23-1.09H25.08c-.439 0-.626.047-.856.231a1.136 1.136 0 0 0-.371.859v2.344c0 .325.092.555.3.788.23.233.442.3.927.3h2.23v-.926c-.629.184-1 .233-1.463.233-.534 0-.767-.116-.767-.42v-.555Zm-2.251-.721v-.927c0-.35.163-.533.512-.533.325 0 .51.184.51.509v.951zm2.647 2.39h1.23v-3.154c0-.233 0-.303.046-.371.068-.163.255-.255.485-.255.211 0 .35.046.512.163v-.93c-1.368.025-1.81.117-2.273.488z" fill="#fff"/></g><defs><clipPath id="a"><path fill="#fff" d="M0 0h40v40H0z"/></clipPath></defs></svg>