<svg width="40" height="40" fill="none" xmlns="http://www.w3.org/2000/svg"><g clip-path="url(#a)" transform="matrix(1.4 0 0 1.4 -7.6 -7.95)"><g clip-path="url(#b)"><path d="M16.908 19.875h.21c.024-.001.037.008.047.03.084.19.17.38.256.57l.008.018c.004.006.005.017.014.016.01 0 .013-.01.017-.019.03-.08.062-.16.093-.238l.14-.347c.008-.022.02-.031.045-.03h.397c.043 0 .043 0 .023.04l-.444.855a.061.061 0 0 0 0 .065l.461.845c.007.012.011.03.028.03.014-.002.013-.021.017-.033l.457-1.465c.032-.103.065-.205.095-.308.007-.024.02-.03.042-.03.157.001.314.002.47 0 .029 0 .04.012.047.036l.18.582.21.674.17.54c.009.03.007.043-.03.043a16.616 16.616 0 0 0-.392 0c-.027 0-.039-.008-.046-.035-.028-.118-.06-.236-.088-.354-.008-.032-.019-.046-.054-.045h-.479c-.028 0-.042.009-.048.036-.028.117-.059.233-.086.35-.009.034-.023.048-.061.048a93.15 93.15 0 0 0-.853 0c-.026 0-.042-.007-.054-.033-.095-.204-.199-.404-.283-.614-.004-.01-.004-.025-.02-.024-.013 0-.014.015-.018.026-.08.206-.174.407-.263.61-.01.024-.025.035-.053.035a20.595 20.595 0 0 0-.4 0c-.033 0-.036-.01-.021-.036.159-.297.317-.595.477-.891.015-.029.015-.05 0-.079-.149-.275-.296-.552-.444-.829-.02-.039-.02-.04.023-.04h.21zm2.138.333c-.02.012-.02.032-.024.049l-.077.329-.087.346c-.008.032-.001.044.035.043.1-.002.202-.001.303 0 .031 0 .04-.006.032-.04l-.144-.588c-.012-.046-.018-.094-.038-.139zM28.641 20.415c-.021.065-.042.127-.061.19-.097.324-.222.64-.337.958-.008.02-.018.026-.037.026a7.29 7.29 0 0 0-.199 0c-.02 0-.03-.008-.037-.026-.11-.316-.237-.628-.328-.95-.018-.065-.04-.128-.059-.192l-.012.002c.002.034.004.069.008.103.023.19.045.378.047.57v.606c.001.036-.009.047-.045.047a8.073 8.073 0 0 0-.315 0c-.033 0-.042-.011-.042-.043v-1.793c0-.033.01-.043.042-.043.137.002.273.001.409 0 .027 0 .041.007.051.035.096.267.194.533.289.8.034.095.059.193.087.29.003.009.001.024.014.025.015.001.015-.015.018-.026.066-.248.156-.488.24-.73l.127-.363c.007-.021.019-.03.042-.03h.42c.04-.001.037.02.037.046v1.794c0 .029-.01.038-.038.038a15.19 15.19 0 0 0-.33 0c-.026 0-.035-.01-.035-.034.004-.288-.011-.576.012-.864.01-.136.029-.273.043-.41.001-.007.005-.015-.011-.026zM13.51 21.186c-.006-.057-.01-.11-.017-.162a4.98 4.98 0 0 1-.04-.729c.003-.128.002-.257 0-.385 0-.026.007-.036.035-.036h.35c.03 0 .038.01.037.038v1.798c0 .028-.007.039-.037.039-.13-.002-.262-.001-.393 0-.02 0-.034-.007-.043-.026-.177-.353-.373-.697-.536-1.057-.03-.067-.056-.136-.085-.204-.003-.01-.002-.029-.018-.024-.013.004-.004.019-.003.028l.038.379c.011.11.01.22.01.33l.001.53c0 .033-.008.045-.043.044a9.8 9.8 0 0 0-.339 0c-.031 0-.04-.01-.04-.04V19.91c0-.027.007-.037.035-.037h.401c.018 0 .03.005.04.023.181.36.377.712.545 1.078.027.059.05.12.074.18.004.01.006.022.027.031zM25.442 20.807v-.886c0-.035.006-.047.044-.047.245.002.49-.002.735.003.15.002.296.034.424.12.13.087.195.212.21.364a.76.76 0 0 1-.024.316.52.52 0 0 1-.254.306c-.03.017-.033.03-.016.06l.371.66c.025.045.025.045-.028.045h-.409c-.027.001-.042-.008-.054-.032l-.311-.596c-.013-.025-.028-.036-.057-.035a1.535 1.535 0 0 1-.144 0c-.03-.001-.04.008-.04.04.002.189.001.378.001.567 0 .056 0 .056-.058.056h-.338c-.052 0-.052 0-.052-.05v-.89zm.448-.328v.221c0 .02.001.035.028.034.083-.002.166.002.249-.004.184-.012.285-.144.255-.328a.181.181 0 0 0-.098-.136.329.329 0 0 0-.122-.036c-.092-.01-.184-.006-.276-.008-.03 0-.037.011-.037.04.002.072 0 .144 0 .217zM21.833 20.807l-.001-.89c0-.032.007-.043.04-.043.123.002.245.002.367 0 .032 0 .042.01.041.042l-.001.626c0 .036.01.046.046.046.178-.002.355-.002.533 0 .038 0 .048-.012.048-.049-.002-.206 0-.412-.002-.618 0-.035.007-.048.044-.047.12.003.242.002.362 0 .029 0 .038.009.038.038v1.797c0 .032-.011.04-.04.04-.121-.002-.242-.002-.363 0-.033 0-.041-.011-.04-.043v-.688c0-.034-.008-.045-.043-.045-.18.002-.36.002-.54 0-.037 0-.043.013-.043.045l.001.685c0 .036-.01.046-.046.046a8.355 8.355 0 0 0-.354 0c-.041.001-.048-.014-.048-.051v-.891zM24.397 19.875h.234c.023-.001.036.005.043.03.07.228.142.455.213.683l.253.811.097.311c.008.025.006.039-.026.038a16.734 16.734 0 0 0-.4 0c-.032.001-.038-.016-.043-.038l-.086-.34c-.013-.055-.012-.055-.067-.055h-.463c-.035-.001-.047.01-.054.044-.028.118-.061.235-.09.353-.006.03-.02.036-.048.036h-.37c-.046 0-.047 0-.033-.046.055-.176.11-.35.164-.527l.336-1.075c.02-.063.04-.126.058-.19.007-.026.019-.037.049-.036.077.002.155 0 .233 0zm-.01 1.1h.14c.056 0 .057-.001.043-.057a52.836 52.836 0 0 1-.082-.324c-.029-.12-.057-.239-.087-.358-.002-.009 0-.024-.015-.023-.013 0-.012.014-.015.024-.01.048-.02.096-.032.144-.045.187-.09.374-.137.561-.007.026.002.033.026.033h.16zM10.801 20.812v-.895c0-.035.007-.047.045-.047h1.093c.039 0 .052.01.05.05-.003.09 0 .179 0 .268 0 .056 0 .056-.054.056h-.642c-.038-.001-.05.01-.048.047.002.087.002.174 0 .261-.001.037.01.05.048.05.181-.003.363 0 .544-.002.034 0 .046.009.045.043a6.903 6.903 0 0 0 0 .288c0 .033-.01.043-.042.042h-.55c-.035-.001-.046.01-.045.046.002.105.002.21 0 .315 0 .033.011.042.043.042l.68-.001c.039 0 .05.011.049.048-.003.095-.003.19 0 .284 0 .035-.01.044-.045.044H10.84c-.037 0-.04-.016-.04-.044l.001-.895zM9.07 20.807v-.89c0-.032.006-.043.04-.043.236.002.472-.001.708.002.132.002.26.03.378.091.171.09.257.236.273.424a.728.728 0 0 1-.046.363.597.597 0 0 1-.398.333c-.149.046-.302.039-.455.039-.053 0-.053 0-.053.051l.001.526c0 .035-.01.047-.046.046a9.088 9.088 0 0 0-.358 0c-.038 0-.045-.013-.045-.047v-.895zm.447-.311v.245c0 .024.007.034.033.033h.136a.528.528 0 0 0 .173-.02c.123-.042.185-.14.18-.281-.004-.131-.057-.2-.181-.232-.105-.027-.211-.017-.317-.018-.026 0-.024.019-.024.036v.237zM20.103 20.81v-.89c0-.036.008-.046.045-.046.235.002.47 0 .704.002a.841.841 0 0 1 .357.081c.164.08.258.21.286.39a.748.748 0 0 1-.026.368c-.069.198-.216.31-.41.37-.147.047-.299.041-.45.04-.062 0-.062 0-.062.06v.518c0 .036-.01.046-.046.045-.114-.002-.228 0-.342 0-.056 0-.056 0-.056-.055v-.882zm.443-.31v.238c0 .026.008.037.035.036.074-.002.148.003.222-.003.112-.01.205-.053.25-.167a.37.37 0 0 0 .018-.15.215.215 0 0 0-.168-.21c-.108-.029-.219-.02-.329-.021-.025 0-.028.016-.028.037v.24zM15.115 20.997v.704c0 .036-.008.05-.047.048-.114-.002-.228 0-.342 0-.051 0-.051 0-.051-.054v-1.257c0-.049-.002-.098 0-.147.002-.035-.008-.048-.045-.047-.143.002-.286 0-.428.001-.033 0-.042-.01-.041-.042a8.596 8.596 0 0 0 0-.291c0-.03.006-.041.039-.041h1.388c.03 0 .042.008.041.04a7.873 7.873 0 0 0 0 .295c0 .031-.01.04-.04.039h-.42c-.054 0-.054 0-.054.052v.7zM15.923 20.808v-.887c0-.038.01-.048.047-.047.118.002.236.002.354 0 .033 0 .046.007.045.043v1.788c0 .035-.011.044-.045.044a10.183 10.183 0 0 0-.354 0c-.037 0-.048-.01-.048-.047.002-.298.001-.596.001-.895zM9.242 18.003c.064 0 .13.002.194 0a.124.124 0 0 1 .107.05.705.705 0 0 1 .111.23c.07.215.11.437.165.655.044.178.084.359.189.515.012.018.01.028-.014.028h-.44c-.038 0-.064-.026-.086-.055a.777.777 0 0 1-.112-.241c-.069-.215-.11-.438-.164-.656-.035-.14-.069-.28-.133-.41a.993.993 0 0 0-.051-.086c-.014-.022-.01-.03.016-.03h.218z" fill="#fff"/><path d="M13.222 19.48c-.062 0-.124-.002-.186.001-.055.003-.092-.021-.12-.064a.9.9 0 0 1-.11-.243c-.067-.22-.109-.447-.165-.67-.042-.163-.081-.327-.177-.47-.015-.022-.01-.032.018-.032.141 0 .283-.001.424.001.06 0 .093.047.12.093.065.109.097.23.13.352.058.216.098.436.159.65.034.123.072.244.144.35.015.023.008.033-.019.033h-.218z" fill="#779fba"/><path d="M10.473 18.003h.214c.03 0 .038.005.018.034a1.27 1.27 0 0 0-.155.391c-.063.238-.105.48-.176.716a1.01 1.01 0 0 1-.103.25c-.072.115-.148.116-.218 0-.064-.104-.091-.222-.129-.336a.408.408 0 0 1 .001-.239c.045-.177.08-.356.136-.53a.918.918 0 0 1 .086-.2c.035-.057.08-.095.155-.087.056.006.114.001.17.001zM11.176 19.48l-.195.001a.123.123 0 0 1-.106-.052.816.816 0 0 1-.122-.267c-.056-.177-.089-.36-.136-.54a.364.364 0 0 1 .011-.2c.03-.104.06-.207.109-.303a.355.355 0 0 1 .05-.074c.049-.055.1-.056.15-.003a.52.52 0 0 1 .102.186c.06.164.096.335.136.506.043.183.081.369.148.546.022.059.05.114.085.166.017.025.015.036-.018.035h-.214z" fill="#fff"/><path d="M11.875 18.003h.214c.031 0 .037.008.02.034a1.307 1.307 0 0 0-.16.41c-.06.226-.101.456-.166.68-.026.089-.055.177-.103.258-.074.125-.157.125-.23-.002-.06-.107-.087-.226-.126-.341-.03-.088-.007-.166.012-.247.047-.202.087-.406.163-.6a.518.518 0 0 1 .08-.145.119.119 0 0 1 .102-.048c.064.003.13.001.194.001zM12.58 19.48c-.06 0-.12-.003-.18 0-.063.005-.105-.024-.138-.074a.988.988 0 0 1-.11-.26c-.059-.194-.095-.393-.145-.588-.007-.025.003-.046.008-.069.029-.114.06-.228.109-.335a.37.37 0 0 1 .07-.112c.052-.053.099-.052.15.003.043.048.07.106.092.165.06.163.098.332.137.501.05.21.09.423.176.623.016.037.038.07.058.105.022.038.021.04-.021.04l-.206.001z" fill="#3e5b86"/><path d="M16.033 19.48c-.062 0-.124-.002-.186 0a.133.133 0 0 1-.122-.062.956.956 0 0 1-.125-.291c-.053-.182-.089-.367-.135-.55-.01-.043.002-.08.012-.119.033-.124.066-.248.13-.36.071-.124.152-.126.226-.005.068.114.1.24.134.367.07.262.113.532.202.79.023.066.052.13.091.188.007.01.02.022.014.034-.007.016-.025.007-.038.008h-.203z" fill="#a8625d"/><path d="M15.328 18.002h.214c.036 0 .04.007.02.038-.088.134-.126.286-.166.439-.031.122-.058.246-.087.368-.036.15-.07.302-.128.446a.408.408 0 0 1-.1.159c-.041.037-.08.038-.12.001a.52.52 0 0 1-.123-.217 2.361 2.361 0 0 1-.075-.256.153.153 0 0 1 0-.076c.033-.121.057-.244.087-.365.03-.123.062-.245.11-.363a.514.514 0 0 1 .057-.105c.032-.045.07-.076.132-.07.06.005.12 0 .18 0zM14.628 19.48c-.059 0-.117-.004-.175.002-.075.008-.115-.035-.15-.09-.06-.094-.088-.202-.12-.308-.05-.175-.083-.354-.128-.53-.008-.03.007-.054.013-.079.031-.119.062-.237.118-.348a.328.328 0 0 1 .072-.096c.043-.039.08-.04.123 0a.45.45 0 0 1 .106.182c.075.204.116.416.166.627.042.177.08.355.16.52.014.03.032.06.05.087.015.023.015.034-.017.034h-.218z" fill="#b6dee8"/><path d="M13.928 18.002h.21c.033 0 .035.012.02.036-.102.16-.141.34-.186.52-.058.23-.098.465-.178.69a.722.722 0 0 1-.073.153l-.013.02c-.062.08-.13.078-.187-.006-.068-.099-.1-.212-.132-.326-.005-.018-.008-.038-.016-.056-.038-.086-.002-.167.016-.249.042-.188.083-.376.148-.558a.54.54 0 0 1 .09-.171c.029-.035.062-.055.11-.053.064.002.127 0 .19 0z" fill="#779fba"/></g></g><defs><clipPath id="a"><path fill="#fff" d="M0 0h40v40H0z"/></clipPath><clipPath id="b"><path fill="#fff" transform="translate(9 18)" d="M0 0h20v3.751H0z"/></clipPath></defs></svg>