<svg width="40" height="40" fill="none" xmlns="http://www.w3.org/2000/svg"><g clip-path="url(#a)" transform="matrix(1.4 0 0 1.4 -8 -8)" fill-rule="evenodd" clip-rule="evenodd" fill="#fff"><path d="m30 19.878-1.636-1.692L10 18.995ZM26.783 16.544l-13.09.579 14.26.631zM25.472 15.187l-8.693.388 9.477.423zM24.363 14.039l-4.977.225 5.433.247zM23.39 13.032l-1.958.208 2.263.108zM30 20.122l-1.636 1.692L10 21.005ZM26.783 23.456l-13.09-.578 14.26-.632ZM25.472 24.813l-8.693-.388 9.477-.423ZM24.363 25.962l-4.977-.226 5.433-.246zM23.39 26.968l-1.958-.208 2.263-.108z"/></g><defs><clipPath id="a"><path fill="#fff" d="M0 0h40v40H0z"/></clipPath></defs></svg>