<svg width="40" height="40" fill="none" xmlns="http://www.w3.org/2000/svg"><g clip-path="url(#a)" transform="matrix(1.4 0 0 1.4 -8 -7.958)" fill="#fff"><path d="M26.641 20.762h-1.215l-.482.978h-.293l1.767-3.524h.257l.346 3.524h-.293Zm-1.084-.266h1.06l-.16-1.794-.014-.002Zm4.015.765a1.252 1.252 0 0 1-.414.364c-.187.11-.408.166-.663.166-.316 0-.56-.114-.73-.341-.172-.228-.216-.548-.134-.961l.21-1.048c.088-.44.247-.762.477-.967.231-.206.514-.309.848-.309.297 0 .52.088.669.265.15.177.197.418.144.723l-.007.012h-.269c.039-.236.01-.419-.086-.549-.096-.13-.263-.194-.502-.194a.869.869 0 0 0-.616.263c-.183.176-.307.426-.372.75l-.21 1.054c-.074.364-.054.63.061.799.116.167.305.251.568.251a.956.956 0 0 0 .461-.109.758.758 0 0 0 .294-.256l.182-.915h-.688l.051-.254h.976zM11.39 21.206a.93.93 0 0 0 .314-.048.56.56 0 0 0 .216-.134c.057-.059.1-.13.125-.207a.832.832 0 0 0 .04-.267.402.402 0 0 0-.13-.315c-.088-.079-.232-.118-.43-.118h-.641l-.139 1.089zm-.31-2.613-.138 1.076h.503c.235 0 .415-.052.542-.157.127-.105.19-.266.19-.483 0-.152-.045-.263-.135-.332-.09-.07-.23-.104-.42-.104zm.604-.5a2.15 2.15 0 0 1 .54.059c.131.03.256.087.367.166a.661.661 0 0 1 .21.26c.047.108.07.224.069.34 0 .101-.014.2-.043.297a.827.827 0 0 1-.136.262.97.97 0 0 1-.233.215 1.323 1.323 0 0 1-.338.158c.215.051.375.135.48.251a.633.633 0 0 1 .157.442 1.11 1.11 0 0 1-.097.464c-.065.143-.16.27-.28.37-.133.11-.285.193-.448.246a1.864 1.864 0 0 1-.597.088H10l.467-3.618zm2.385 1.05-.323 2.568h-.637l.322-2.567zm.165-.748a.328.328 0 0 1-.035.15.423.423 0 0 1-.094.123.463.463 0 0 1-.13.084.384.384 0 0 1-.3 0 .436.436 0 0 1-.214-.206.353.353 0 0 1 .001-.303.431.431 0 0 1 .217-.212.369.369 0 0 1 .3 0c.048.02.092.049.13.084a.402.402 0 0 1 .09.125.36.36 0 0 1 .035.156zm.986 1.28c.137-.193.288-.336.454-.43.156-.091.333-.14.514-.141a.681.681 0 0 1 .302.065.57.57 0 0 1 .22.189.792.792 0 0 1 .122.305c.024.137.025.277.004.414l-.202 1.634h-.648l.202-1.634c.023-.167.014-.286-.026-.359-.04-.073-.114-.109-.22-.109a.473.473 0 0 0-.22.06.854.854 0 0 0-.218.167 1.35 1.35 0 0 0-.193.26c-.061.107-.11.22-.143.34l-.15 1.276h-.648l.323-2.57h.328a.24.24 0 0 1 .159.047c.037.032.056.082.056.153zm3.39-.136a.583.583 0 0 0-.244.051.673.673 0 0 0-.204.144.924.924 0 0 0-.157.222c-.046.09-.082.184-.106.281.176-.02.35-.052.523-.093.106-.025.208-.062.306-.11a.334.334 0 0 0 .142-.128.31.31 0 0 0 .036-.144.198.198 0 0 0-.07-.149.294.294 0 0 0-.091-.053.381.381 0 0 0-.136-.02Zm-.766 1.126c0 .404.179.606.537.606a.885.885 0 0 0 .36-.073.74.74 0 0 0 .122-.067l.1-.068a.783.783 0 0 1 .09-.051.221.221 0 0 1 .097-.021c.021 0 .042.005.061.015a.19.19 0 0 1 .054.04l.165.19c-.085.083-.176.16-.272.23a1.526 1.526 0 0 1-.273.16 1.327 1.327 0 0 1-.294.093c-.11.02-.223.03-.336.03a1.147 1.147 0 0 1-.427-.076.94.94 0 0 1-.54-.551 1.227 1.227 0 0 1-.074-.44c0-.265.06-.528.178-.767.057-.116.129-.225.213-.323a1.333 1.333 0 0 1 1.041-.483c.125-.003.25.017.369.057a.842.842 0 0 1 .265.15.607.607 0 0 1 .158.203.519.519 0 0 1 .053.22.689.689 0 0 1-.072.316.66.66 0 0 1-.257.255c-.124.075-.292.14-.505.194-.268.063-.54.106-.814.129zm3.987.59c-.08.085-.165.164-.256.236-.076.06-.16.112-.248.153a1.067 1.067 0 0 1-.264.081c-.1.017-.201.025-.303.024a1.089 1.089 0 0 1-.418-.076.87.87 0 0 1-.313-.217.953.953 0 0 1-.197-.338 1.344 1.344 0 0 1-.068-.44 1.741 1.741 0 0 1 .183-.779c.059-.115.13-.222.215-.32a1.35 1.35 0 0 1 .626-.414c.127-.04.26-.06.392-.059.157-.004.312.026.455.09.13.064.243.156.332.27l-.207.236a.235.235 0 0 1-.053.041.131.131 0 0 1-.068.019.13.13 0 0 1-.08-.026 1.227 1.227 0 0 0-.084-.057.557.557 0 0 0-.308-.083c-.1 0-.199.028-.286.078a.777.777 0 0 0-.241.22 1.14 1.14 0 0 0-.167.343 1.503 1.503 0 0 0-.061.443c0 .189.043.334.13.437a.443.443 0 0 0 .358.154.69.69 0 0 0 .414-.132l.084-.062a.766.766 0 0 1 .075-.049.153.153 0 0 1 .077-.02c.023 0 .045.006.064.016.02.011.039.025.054.042zm.532-.067v-.041l.004-.07.013-.123.025-.196.15-1.151H22.3a.1.1 0 0 1-.077-.033.112.112 0 0 1-.02-.097l.03-.246.408-.067.216-.701c.01-.03.03-.058.055-.078a.149.149 0 0 1 .091-.027h.347l-.105.808h.65l-.055.44h-.653l-.144 1.12a59.014 59.014 0 0 1-.033.256.481.481 0 0 0-.004.047v.02a.22.22 0 0 0 .048.15.174.174 0 0 0 .138.054.288.288 0 0 0 .095-.013.523.523 0 0 0 .12-.058.089.089 0 0 1 .045-.014.066.066 0 0 1 .044.014.125.125 0 0 1 .03.041l.138.3a1.05 1.05 0 0 1-.318.17 1.127 1.127 0 0 1-.356.058c-.19 0-.341-.049-.452-.147a.55.55 0 0 1-.175-.416z"/></g><defs><clipPath id="a"><path fill="#fff" transform="translate(10 18)" d="M0 0h20v3.791H0z"/></clipPath></defs></svg>