<svg width="40" height="40" fill="none" xmlns="http://www.w3.org/2000/svg"><g clip-path="url(#a)" transform="matrix(1.4 0 0 1.4 -8.016 -8)"><g clip-path="url(#b)" fill="#fff"><path d="m28.948 30-4.304-1.597c-1.455-.539-2.909-1.08-4.366-1.608a.68.68 0 0 0-.43-.007c-2.723.996-5.44 2.002-8.16 3.006-.155.057-.314.1-.524.074l8.876-8.016 8.943 8.081-.035.067zM14.158 25.552v-.582c.008-3.764.012-7.529.023-11.293.002-.54.02-1.078.046-1.617.026-.52.357-.865.86-.92.441-.049.92.286 1.032.743.047.192.073.392.073.59.004 3.61.01 7.221-.01 10.831-.001.223-.133.498-.293.66-.52.523-1.084 1.002-1.73 1.588zM25.895 25.526c-.502-.45-.914-.881-1.388-1.23-.532-.391-.642-.871-.636-1.503.032-3.44.015-6.882.017-10.322 0-.8.236-1.153.84-1.287.532-.117 1.013.206 1.115.75.013.074.017.154.017.23l.063 13.05c-.002.07-.015.14-.028.312zM29.076 28.377c-.67-.598-1.258-1.11-1.825-1.645-.093-.087-.127-.275-.127-.416-.005-3.843-.007-7.687-.002-11.531 0-.638.4-1.063.965-1.07.506-.006.983.421.985.964.01 4.52.004 9.043.004 13.698zM11 28.392v-.591c0-4.26 0-8.52.002-12.78 0-.14-.004-.279.013-.417.061-.498.489-.89.963-.89.46-.002.885.359.966.835.026.15.017.308.017.46.002 3.72-.004 7.44.01 11.16.001.344-.107.567-.369.784-.516.43-1.003.896-1.602 1.439zM17.4 22.603v-5.51c0-1.944-.003-3.888.002-5.833.002-.73.296-1.141.85-1.238.544-.094 1.015.236 1.1.787.035.226.061.459.061.687.004 2.964-.001 5.927.01 8.89.002.303-.082.51-.32.708-.55.457-1.074.948-1.703 1.51zM22.628 22.557c-.633-.565-1.226-1.078-1.794-1.615-.104-.099-.164-.298-.164-.45-.01-3.1-.011-6.198-.004-9.297.002-.613.24-.974.7-1.13.408-.14.786-.06 1.033.288.15.212.268.504.27.759.016 3.745.01 7.493.009 11.239-.002.042-.02.083-.05.206z"/></g></g><defs><clipPath id="a"><path fill="#fff" d="M0 0h40v40H0z"/></clipPath><clipPath id="b"><path fill="#fff" transform="translate(11 10)" d="M0 0h18.078v20H0z"/></clipPath></defs></svg>