<svg width="40" height="40" fill="none" xmlns="http://www.w3.org/2000/svg"><g clip-path="url(#a)" transform="matrix(1.4 0 0 1.4 -8 -8)" fill-rule="evenodd" clip-rule="evenodd"><path d="M22.253 19.57c-.119-.004-.145.065-.145.065l-.317.905-.007.028c.003.032.018.086.136.09.12.004.146-.067.146-.067l.319-.903.004-.03c-.002-.03-.018-.085-.136-.088zM30 19.84a1.597 1.597 0 0 0-.342-.836l-.796 2.264s-.039.156.06.202c.033.014.07.014.104.007A1.61 1.61 0 0 0 30 20.159zM20.953 19.17l.295-.775h-.541l-.266.775z" fill="#fff"/><path d="m26.797 21.07.492-1.395s.03-.084-.109-.101c-.125-.014-.162.068-.164.072l-.505 1.425h-.524l.68-1.907h.522l-.027.088s.233-.164.48-.048c.247.117.18.419.18.419l-.507 1.448zm-1.641 0 .048-.133c-.099.124-.28.137-.422.132a.362.362 0 0 1-.28-.164c-.027-.07-.058-.157-.04-.236l.39-1.12c.069-.186.25-.36.448-.38 0 0 .3-.038.471.166l.061-.172h.524l-.675 1.91v-.002zm-3.069 0h-.514a.328.328 0 0 1-.28-.165c-.034-.06-.065-.155-.04-.236l.39-1.12c.067-.186.248-.36.447-.38h.475c.159.019.299.092.353.281.02.06.011.123 0 .177-.13.392-.264.78-.414 1.164a.482.482 0 0 1-.417.28zm6.208.322.15-.45c-.099.125-.28.136-.422.133a.364.364 0 0 1-.28-.165.274.274 0 0 1-.04-.235l.39-1.122c.069-.186.25-.358.448-.38 0 0 .3-.038.473.166l.244-.692a1.615 1.615 0 0 0-.867-.252h-3.408l-.948 2.677v-.001h-.524l.948-2.676h-.286l-.95 2.677v-.001H22.7l.95-2.676H21.77l-.953 2.676h-.53l.508-1.451h-.513l-.725 1.984h8.727c-.022-.116.01-.212.01-.212z" fill="#fff"/><path d="M25.462 19.58c-.12-.005-.146.066-.146.066L25 20.55a.103.103 0 0 0-.007.027c.002.032.018.086.136.09.118.005.145-.066.145-.066l.32-.903.004-.028c-.003-.032-.018-.086-.136-.09zM28.515 20.607l.319-.904.008-.029c.004-.02-.022-.086-.14-.09-.118-.003-.146.066-.146.066l-.316.904-.007.029c.003.03.018.086.137.09.118.003.145-.066.145-.066z" fill="#fff"/><path d="M10.47 20.527h.675c0 .42.33.584.703.584.246 0 .62-.07.62-.393 0-.34-.477-.398-.945-.521-.471-.124-.948-.306-.948-.898 0-.43.275-.712.628-.85A1.608 1.608 0 0 0 10 20c0 .754.525 1.387 1.233 1.558-.442-.148-.77-.481-.763-1.032zM15.13 19.404l-.23-1.009h-.107l-.234 1.01zM14.17 20.597l-.308 1.008h1.914l-.264-1.008z" fill="#e0041d"/><path d="m15.493 18.395.491 1.462h-2.278l.51-1.462h-1.998c.463.11.82.41.82.966h-.677c-.022-.379-.295-.476-.628-.476-.223 0-.481.091-.481.357 0 .243.151.274.95.477.23.058.941.204.941.92 0 .468-.3.842-.874.966h.852l.516-1.468h2.437l.44 1.468h.216v-3.21zM18.93 18.395v.6h-1.519v.73h1.319v.55h-1.319v1.33h1.604l1.152-3.21z" fill="#e0041d"/></g><defs><clipPath id="a"><path fill="#fff" d="M0 0h40v40H0z"/></clipPath></defs></svg>