<svg width="40" height="40" fill="none" xmlns="http://www.w3.org/2000/svg"><mask id="a" mask-type="alpha" maskUnits="userSpaceOnUse" x="10" y="14" width="20" height="12"><path fill="#fff" d="M10 14.231h20V25.77H10z"/></mask><g mask="url(#a)" transform="matrix(1.4 0 0 1.4 -8 -8)" fill-rule="evenodd" clip-rule="evenodd"><path d="M23.802 24.72c-.186.044-.804.47-1.345.246-.208-.093-.311-.235-.399-.448-.159-.41-.071-1.06.027-1.493.06-.24.099-.453.153-.694.197-.869.47-1.776.793-2.59.306-.76.683-1.662.967-2.422l.585-1.52c.164-.41.3-.59.12-.95-.229-.46-.874-.383-1.235-.225-.432.191-1.12.683-1.492 1.05l-.213.196c-.219.208-.46.394-.672.607l-1.575 1.596c-.29.35-.6.673-.88 1.028-.093.12-.267.41-.42.426l.76-2.093c.12-.361.404-1.088.453-1.454.038-.29-.115-.58-.284-.673-.552-.3-1.257.263-1.635.624-.218.207-.508.426-.76.677l-.36.345c-.044.038-.077.076-.12.115l-.7.737c-.153.17-.312.306-.454.492-.125.164-.322.34-.459.503l-.443.525c-.043.05-.065.071-.109.126-.027.027-.098.114-.12.13.005-.114.65-1.634.716-1.797l.525-1.367c.054-.148.098-.306.164-.465.12-.311.251-.628.142-1.027a.594.594 0 0 0-.793-.41c-.366.142-.628 1-.82 1.383-.044.082-.06.131-.098.213l-1.203 2.58c-.284.563-.524 1.148-.809 1.71l-1.224 2.553c-.142.285-.552 1.012-.58 1.312-.027.394.033 1.301.498 1.361.18.022.322-.07.415-.208.175-.25.285-.557.443-.82.159-.256.295-.551.443-.82l1.153-1.994c.044-.066.077-.132.12-.192.044-.065.077-.12.126-.191.334-.503.678-.995 1.06-1.46.214-.262.476-.617.717-.858l.306-.322c.065-.066.087-.104.147-.17.361-.371.744-.727 1.143-1.06.032-.033.043-.05.082-.076.136-.115.306-.312.492-.296.098.011.13.077.153.17.07.344-.274 1.585-.356 1.831-.158.475-.317.935-.503 1.388-.306.75-.655 1.421-1.01 2.137-.17.345-.301.443-.29.973.005.323.486.837.825.706a.683.683 0 0 0 .186-.132c.213-.213.535-.929.672-1.213.197-.394.372-.787.536-1.197.07-.17.197-.339.295-.492l1.126-1.71 1.208-1.466c.273-.328 1.022-.984 1.405-1.268.246-.186.492-.36.765-.497.153-.077.35-.12.42.065.06.148.045.405.006.558a1.641 1.641 0 0 1-.082.23c-.464 1.3-.962 2.601-1.47 3.88l-.558 1.334c-.207.454-.295 1.099-.24 1.618.07.689.29 1.284.962 1.552.191.077.836.219 1.088.099.12-.06.267-.17.382-.252.164-.104 1.072-.672 1.132-.754z" fill="#ee7d00"/><path d="M24.353 19.407v.06c.197 0 .263-.137.46-.333l.606-.645c.153-.153.487-.47.607-.618l2.252-2.236c.05-.054.066-.098.148-.103-.006.109-.203.399-.263.502-.098.164-.191.323-.284.481l-2.214 4.007c-.087.18-.164.333-.257.514-.044.093-.087.175-.126.262l-.366.798c-.087.186-.153.355-.235.552-.186.476-.344.776-.344 1.345 0 .322.306.716.46.913l.24.278c.032.044.038.05.082.093l.267.263c.088.054.06.005.132.005.027-.115.027-.115-.077-.257-.24-.311-.262-.459-.262-.841 0-.421.295-1.126.432-1.438l.563-1.312.284-.64a52.349 52.349 0 0 1 1.47-2.995c.295-.546.58-1.12.897-1.667l.338-.601c.06-.11.115-.202.17-.3l.437-.75c.038-.06.334-.513.191-.513-.142 0-.716.338-.896.437-.306.17-.782.705-1.055.973l-2.94 2.787c-.06.055-.11.115-.17.164-.093.077-.093.072-.17.17-.12.153-.377.437-.377.645z" fill="#575656"/></g></svg>