<svg width="40" height="40" fill="none" xmlns="http://www.w3.org/2000/svg"><g clip-path="url(#a)" transform="matrix(1.4 0 0 1.4 -8.045 -8)"><g clip-path="url(#b)"><path d="M12.005 19.977c0-3.237.002-6.473-.005-9.71 0-.208.05-.268.263-.267 1.724.01 3.449.008 5.173.001.182 0 .234.046.231.23a78.093 78.093 0 0 0 0 2.103c.001.154-.041.198-.195.197-.921-.006-1.842.002-2.762-.006-.17-.002-.205.05-.205.21.004 4.844.004 9.688 0 14.532 0 .165.043.21.208.208.913-.008 1.826.002 2.74-.007.178-.002.216.054.214.222-.009.701-.01 1.403 0 2.104.002.17-.052.205-.211.204a667.037 667.037 0 0 0-5.217.002c-.2 0-.239-.059-.239-.247.006-3.26.005-6.518.005-9.776zM28.222 20.002c0 3.244-.002 6.488.005 9.732 0 .21-.05.267-.264.266a537.33 537.33 0 0 0-5.173 0c-.183 0-.232-.05-.23-.231.01-.701.01-1.403.001-2.104-.002-.155.044-.197.196-.196.914.006 1.827-.001 2.74.005.162.002.227-.025.227-.21-.006-4.844-.005-9.688-.001-14.532 0-.165-.044-.208-.208-.206-.906.008-1.812-.004-2.718.008-.202.002-.24-.06-.237-.247.011-.687.011-1.374 0-2.06-.003-.189.058-.226.235-.226 1.724.007 3.448.009 5.172-.001.219-.001.26.067.26.27-.006 3.244-.005 6.488-.005 9.732z" fill="#ec2025"/><path d="M21.386 20.006c0 2.016-.002 4.031.004 6.047 0 .168-.035.222-.213.219-.716-.01-1.432-.01-2.148 0-.157 0-.19-.048-.19-.197.004-4.046.004-8.092 0-12.139 0-.16.032-.21.201-.208.716.01 1.432.01 2.148 0 .169-.003.202.047.202.208-.007 2.023-.004 4.046-.004 6.07z" fill="#fff"/></g></g><defs><clipPath id="a"><path fill="#fff" d="M0 0h40v40H0z"/></clipPath><clipPath id="b"><path fill="#fff" transform="translate(12 10)" d="M0 0h16.227v20H0z"/></clipPath></defs></svg>