<svg width="40" height="40" fill="none" xmlns="http://www.w3.org/2000/svg"><g clip-path="url(#a)" transform="matrix(1.4 0 0 1.4 -8 -7.998)"><mask id="b" mask-type="alpha" maskUnits="userSpaceOnUse" x="10" y="10" width="21" height="20"><path fill="#fff" d="M10 10.169h20V29.83H10z"/></mask><g mask="url(#b)" fill-rule="evenodd" clip-rule="evenodd" fill="#fff"><path d="m14.108 16.297-1.98-.05a.17.17 0 0 0-.088.022l-1.954 1.117a.17.17 0 0 0-.078.2l3.016 9.27a.17.17 0 0 0 .161.117h2.633l.046.734a.17.17 0 0 0 .094.142l3.966 1.954a.17.17 0 0 0 .146.002l3.853-1.787a.169.169 0 0 0 .097-.136l.096-.91h2.472a.17.17 0 0 0 .16-.112l3.239-9.047a.17.17 0 0 0-.06-.194l-1.843-1.34a.17.17 0 0 0-.108-.032l-1.967.1.29-1.727a.17.17 0 0 0-.07-.167L20.094 10.2a.17.17 0 0 0-.195 0l-5.954 4.218a.17.17 0 0 0-.07.161zm.19.344a.17.17 0 0 0 .172-.192l-.244-1.814 5.773-4.09 5.948 4.125-.308 1.83a.17.17 0 0 0 .176.197l2.118-.109 1.692 1.23-3.156 8.816h-2.506a.17.17 0 0 0-.168.151l-.102.966-3.692 1.712-3.805-1.875-.05-.795a.17.17 0 0 0-.168-.16h-2.67l-2.935-9.022 1.794-1.024z"/><path d="m11.967 16.512 2.59 10.281a.17.17 0 0 0 .33-.082l-2.59-10.281a.17.17 0 0 0-.33.082zM14.127 16.396l1.678 10.43a.17.17 0 1 0 .334-.055l-1.678-10.43a.17.17 0 0 0-.334.055zM19.829 10.339V29.65a.17.17 0 0 0 .339 0V10.34a.17.17 0 0 0-.339 0zM24.128 26.828l1.869-10.4a.17.17 0 0 0-.334-.06l-1.868 10.4a.17.17 0 0 0 .333.06zM25.405 26.795l2.712-10.28a.17.17 0 0 0-.328-.087l-2.712 10.28a.17.17 0 0 0 .328.087z"/></g></g><defs><clipPath id="a"><path fill="#fff" d="M0 0h40v40H0z"/></clipPath></defs></svg>