<svg width="40" height="40" fill="none" xmlns="http://www.w3.org/2000/svg"><path fill-rule="evenodd" clip-rule="evenodd" d="m30.765 19.58 3.23-3.97h-2.068l-2.18 2.704z" fill="#005cb9" style="stroke-width:1.4"/><path fill-rule="evenodd" clip-rule="evenodd" d="M28.193 17.264a4.39 4.39 0 0 0-7.031.206 4.39 4.39 0 0 0-7.175.004 4.389 4.389 0 0 0-3.59-1.863A4.396 4.396 0 0 0 6.004 20v4.397h1.603V20a2.79 2.79 0 0 1 2.786-2.786 2.792 2.792 0 0 1 2.786 2.782V20h.004v4.397h1.604V20h-.005v-.004a2.792 2.792 0 0 1 2.786-2.782 2.788 2.788 0 0 1 2.786 2.761v.062a4.393 4.393 0 0 0 7.835 2.7l.861-1.056-1.018-1.252-.997 1.24c-.507.688-1.36 1.125-2.28 1.125a2.794 2.794 0 0 1-2.79-2.786v-.012a2.794 2.794 0 0 1 2.79-2.786c.92 0 1.773.433 2.28 1.125l1.306 1.62 1.134 1.405 2.448 3.033h2.069z" fill="#888" style="stroke-width:1.4"/></svg>