<svg width="40" height="40" fill="none" xmlns="http://www.w3.org/2000/svg"><g clip-path="url(#a)" transform="matrix(1.4 0 0 1.4 -8 -7.997)"><g clip-path="url(#b)"><path d="M10.004 19.998c0-3.262.001-6.523-.004-9.783 0-.173.043-.215.215-.215 6.523.005 13.046.005 19.568 0 .175 0 .216.046.216.217-.004 6.51-.004 13.019 0 19.528 0 .192-.046.24-.238.24-6.51-.006-13.02-.007-19.53 0-.203 0-.231-.063-.23-.242.004-3.249.003-6.497.003-9.745zm9.687 4.959h.01c0-.699-.004-1.398.003-2.097.001-.134-.037-.171-.169-.166-.245.01-.492.014-.737 0-.17-.01-.219.036-.218.213.009 1.296.006 2.593.004 3.89 0 .406-.173.669-.492.76-.628.182-1.066-.141-1.077-.794v-3.89c0-.08-.014-.18-.115-.178-.296.008-.592.006-.888 0-.097-.002-.113.04-.113.124.003 1.398-.01 2.796.01 4.193.01.764.462 1.297 1.188 1.485.37.097.746.098 1.125.058.857-.092 1.429-.663 1.463-1.521.028-.692.006-1.385.006-2.077zm2.718 3.63c.106-.01.213-.017.32-.03.635-.072 1.16-.333 1.404-.954.251-.642.177-1.26-.29-1.798-.324-.374-.76-.594-1.186-.824-.233-.126-.471-.243-.67-.422-.183-.163-.258-.359-.189-.609.06-.215.187-.354.398-.41a.696.696 0 0 1 .767.28c.086.118.15.248.197.384.028.08.066.093.14.07.265-.08.53-.158.798-.231.09-.024.107-.07.082-.15-.09-.284-.217-.55-.428-.765-.52-.533-1.165-.61-1.854-.485-1.099.201-1.364 1.16-1.2 1.93.099.464.432.756.813.993.325.203.665.383.996.576.186.108.36.235.49.41.202.272.183.673-.038.903-.223.23-.598.263-.886.08-.263-.168-.376-.432-.451-.715-.022-.084-.038-.12-.133-.096-.294.068-.59.13-.886.19-.089.017-.112.048-.086.137.28.931.862 1.524 1.892 1.535zm4.377-6.005c-.156.018-.315.025-.469.053-.608.111-1.048.433-1.21 1.047-.166.636-.063 1.208.474 1.654.317.264.682.448 1.04.647.241.136.485.268.679.472.293.307.299.776.015 1.03-.3.269-.78.21-1.055-.13a1.325 1.325 0 0 1-.253-.54c-.017-.071-.027-.116-.118-.095-.307.07-.614.136-.922.199-.078.016-.086.046-.066.116.128.435.32.833.674 1.131.456.385.992.462 1.562.39.634-.08 1.155-.349 1.39-.976.244-.655.158-1.273-.327-1.807-.306-.338-.703-.547-1.096-.76-.249-.136-.506-.259-.722-.446-.166-.145-.26-.32-.214-.55.044-.216.142-.395.367-.46.248-.072.487-.053.692.127.145.129.236.294.298.474.037.107.08.148.203.105.237-.081.48-.148.725-.209.126-.031.136-.084.099-.2-.253-.806-.884-1.26-1.766-1.272zm-13.723.01a2.32 2.32 0 0 0-.658.11c-.447.147-.772.434-.91.886-.229.749-.09 1.356.557 1.839.32.238.677.41 1.02.607.225.128.45.256.621.457.27.316.249.775-.044 1.014-.297.242-.75.183-1.014-.13a1.277 1.277 0 0 1-.267-.554c-.021-.093-.05-.12-.15-.095-.281.068-.566.121-.85.18-.08.017-.143.036-.107.147.13.398.299.773.615 1.063.452.413.993.51 1.581.444.684-.077 1.23-.367 1.453-1.049.228-.7.09-1.342-.469-1.86-.27-.25-.589-.43-.91-.603-.234-.125-.472-.241-.686-.399-.137-.1-.265-.213-.309-.39-.058-.234.04-.514.222-.638a.721.721 0 0 1 .784.028c.16.123.27.286.326.474.05.163.13.177.274.126.214-.075.432-.139.653-.189.145-.033.155-.096.114-.221-.26-.8-.899-1.25-1.846-1.246zm4.897.306c0-.155 0 0 0 0-.091-.107.001.036-.16.035-.464-.005-.042-.559-.04-.092 0 .156-.063.107.017.195.094.104-.162-.001 0 0 .148 0 .013.136.104.043.092-.093.08-.032.08-.18z" fill="#fcb517"/><path d="M19.691 24.957c0 .692.022 1.385-.006 2.076-.034.859-.606 1.43-1.463 1.521-.378.04-.754.04-1.125-.057-.726-.189-1.177-.722-1.188-1.485-.02-1.397-.007-2.795-.01-4.193 0-.084.016-.124.113-.124h.888c.128-.003.115.097.115.177v3.89c.011.653.449.976 1.077.795.32-.092.492-.354.492-.76.002-1.297.005-2.594-.004-3.891 0-.177.048-.213.218-.213h.737c.132-.005.17.032.169.167-.007.699-.004 1.397-.004 2.096h-.009zM22.41 28.587c-1.031-.012-1.612-.605-1.893-1.536-.027-.09-.003-.12.086-.138.296-.058.592-.121.885-.19.096-.022.112.013.134.096.075.284.188.547.451.715.288.183.663.15.885-.08.222-.23.24-.63.038-.903a1.574 1.574 0 0 0-.489-.41c-.331-.193-.671-.373-.996-.575-.38-.238-.714-.53-.813-.995-.164-.768.1-1.728 1.2-1.929.688-.126 1.333-.048 1.853.485.212.216.338.481.429.765.025.08.008.126-.082.15-.267.073-.533.152-.798.232-.074.022-.113.01-.14-.07a1.421 1.421 0 0 0-.197-.384.696.696 0 0 0-.767-.28c-.212.056-.338.194-.398.41-.07.25.006.445.189.609.198.178.437.295.67.421.426.23.862.45 1.187.824.466.538.54 1.156.288 1.798-.243.621-.769.882-1.404.955-.106.013-.212.02-.319.03zM26.786 22.582c.882.011 1.513.466 1.767 1.272.036.116.027.169-.1.2-.244.06-.487.128-.724.21-.124.042-.166 0-.203-.106a1.09 1.09 0 0 0-.298-.474c-.205-.18-.444-.199-.692-.127-.225.065-.323.244-.367.46-.046.23.048.405.214.55.216.187.473.31.722.446.393.213.79.422 1.096.76.485.534.57 1.152.327 1.807-.235.628-.756.895-1.39.975-.57.073-1.107-.004-1.562-.389-.354-.299-.546-.696-.674-1.131-.02-.07-.012-.1.065-.116.309-.063.616-.13.923-.2.091-.02.101.025.118.096.047.197.123.381.253.54.276.34.755.399 1.055.13.283-.254.278-.724-.015-1.03-.194-.204-.438-.336-.68-.472-.357-.2-.722-.383-1.04-.647-.536-.446-.64-1.019-.473-1.654.161-.614.602-.936 1.21-1.047.153-.028.312-.035.468-.052zM13.063 22.593c.947-.005 1.587.447 1.847 1.246.04.125.03.189-.115.222a5.81 5.81 0 0 0-.652.188c-.145.052-.225.038-.274-.125a.932.932 0 0 0-.327-.474.721.721 0 0 0-.783-.029c-.183.125-.28.404-.222.639.044.177.172.289.309.39.214.157.452.274.685.399.322.173.641.352.911.603.558.517.697 1.159.469 1.86-.223.682-.77.972-1.453 1.048-.588.066-1.13-.03-1.581-.444-.317-.289-.486-.664-.616-1.063-.036-.11.028-.13.108-.146.283-.06.568-.112.85-.18.1-.025.129.002.15.094.045.204.13.392.266.555.264.312.717.37 1.015.129.292-.238.313-.697.044-1.014-.171-.2-.397-.328-.62-.456-.345-.197-.702-.37-1.021-.607-.648-.484-.786-1.09-.557-1.84.138-.452.463-.738.91-.885.235-.078.479-.106.657-.11z" fill="#184b7c"/><path d="M18.359 22.366h-1.101v1.101h1.1z" fill="#184b7c"/></g></g><defs><clipPath id="a"><path fill="#fff" d="M0 0h40v40H0z"/></clipPath><clipPath id="b"><path fill="#fff" transform="translate(10 10)" d="M0 0h20v19.985H0z"/></clipPath></defs></svg>