<svg width="40" height="40" fill="none" xmlns="http://www.w3.org/2000/svg"><g clip-path="url(#a)" transform="matrix(1.4 0 0 1.4 -8 -7.902)" fill="#fff"><path d="M22.483 19.027v.195h.38v1.26h.225v-1.26h.385v-.195zM25.645 19.026v.85c0 .216.009.277.046.363.079.17.264.27.502.27.239 0 .424-.1.503-.27.037-.083.046-.147.046-.363v-.85h-.225v.846c0 .155-.005.205-.024.26-.04.113-.149.18-.3.18-.137 0-.244-.056-.288-.154-.028-.061-.035-.112-.035-.286v-.846zM28.384 19.454c-.03-.29-.211-.454-.497-.454a.597.597 0 0 0-.4.15c-.146.136-.223.346-.223.608 0 .457.247.751.632.751.305 0 .484-.186.51-.531l-.205-.015c-.021.232-.129.35-.312.35-.24 0-.389-.214-.389-.557 0-.343.149-.56.385-.56.163 0 .266.092.301.271h.015zM29.69 19.027l-.474.584h-.089v-.584h-.224v1.455h.225v-.677h.072l.506.677H30l-.613-.774.567-.68zM24.07 20.482h.225v-.584h.224l.33.584h.266l-.358-.621a.407.407 0 0 0 .277-.402.398.398 0 0 0-.22-.373c-.098-.046-.19-.059-.432-.059-.102 0-.217-.002-.312.022zm.314-1.26c.194 0 .242.006.303.036.072.035.114.107.114.199 0 .107-.053.188-.142.22-.059.022-.107.026-.264.026h-.1v-.482zM13.473 20.482h.226v-1.455h-.226zM16.77 19.027v1.455h.844l.013-.194h-.626v-1.26zM18.472 19.631v-.41h.637l-.014-.194h-.848v1.455h.865l.014-.194h-.654v-.462h.397v-.194zM12.104 19.027l-.497 1.455h.231l.11-.34h.53l.107.34h.233l-.495-1.455zm.315.92h-.412l.205-.654zM14.562 19.028l-.085 1.454h.207l.071-1.148.43 1.148h.115l.432-1.148.072 1.148h.207l-.086-1.454h-.291l-.391 1.029-.387-1.03zM19.767 20.482h.224v-.584h.225l.33.584h.265l-.357-.621a.407.407 0 0 0 .277-.402.399.399 0 0 0-.22-.373c-.099-.046-.19-.059-.432-.059-.103 0-.218-.002-.312.022zm.314-1.26c.194 0 .242.006.303.036.072.035.113.107.113.199 0 .107-.052.188-.141.22-.06.022-.107.026-.264.026h-.1v-.482zM10 19.049v1.433h.264c.303 0 .403-.017.526-.085.202-.113.32-.355.32-.643 0-.29-.126-.543-.333-.653-.111-.06-.236-.074-.482-.074-.084 0-.217 0-.295.022zm.225 1.24v-1.073h.063c.238 0 .299.01.386.063.133.083.202.257.202.473 0 .216-.064.386-.187.466-.082.055-.157.07-.346.07z"/></g><defs><clipPath id="a"><path fill="#fff" d="M0 0h40v40H0z"/></clipPath></defs></svg>