<svg width="40" height="40" fill="none" xmlns="http://www.w3.org/2000/svg"><g clip-path="url(#a)" transform="matrix(1.4 0 0 1.4 -7.978 -7.978)"><mask id="b" mask-type="alpha" maskUnits="userSpaceOnUse" x="10" y="10" width="20" height="20"><path fill="#fff" d="M10 10.826h20v18.349H10z"/></mask><g mask="url(#b)" fill-rule="evenodd" clip-rule="evenodd"><path d="M15.725 10.826h.837c2.814.19 5.346 2.47 5.676 5.293.14 2.32-.009 4.646.096 6.965.039.727.714 1.296 1.426 1.288 2.036.026 4.073 0 6.11.01.005.46.01.92.022 1.381-2.043.037-4.085.011-6.127.015-1.073.013-2.097-.675-2.527-1.651-.313-.655-.253-1.404-.258-2.11 0-1.777.014-3.553-.006-5.329-.088-2.505-2.418-4.657-4.925-4.527-2.546-.012-4.776 2.292-4.726 4.832-.44 0-.883 0-1.323-.002v-.59c.215-1.44.827-2.849 1.905-3.852 1.02-1.006 2.409-1.564 3.82-1.723z" fill="#fff"/><path d="M20.282 11.949c.833-.51 1.762-.964 2.762-.96.602-.007 1.207-.035 1.81.017 2.82.43 5.073 3.106 5.038 5.961l-1.3.018c-.034-1.372-.647-2.728-1.708-3.609-1.325-1.176-3.332-1.506-4.961-.803-.228.07-.433.244-.675.236-.34-.268-.644-.574-.966-.86zM13.312 17.01c-.145-1.816 1.827-3.339 3.552-2.81 1.213.268 2.145 1.433 2.143 2.675.039 2.141-.038 4.288.037 6.428.108 2.424 2.325 4.44 4.723 4.462 2.028-.002 4.055.018 6.083-.013.034.435.034.872.027 1.309-2.095 0-4.192.007-6.288-.002-2.978-.048-5.662-2.587-5.851-5.565-.059-2.019-.03-4.037-.026-6.055-.01-.46.03-.986-.345-1.325-.508-.68-1.642-.813-2.22-.156-.296.27-.38.671-.483 1.04-.451-.005-.9-.004-1.352.011z" fill="#fff"/><path d="M22.301 14.497c.633-.233 1.317-.438 1.994-.275 1.314.196 2.323 1.448 2.316 2.765-.46 0-.92-.002-1.378-.014-.108-.71-.699-1.422-1.471-1.36-.415-.028-.76.23-1.103.42a10.712 10.712 0 0 0-.358-1.536ZM15.31 24.361c.707-.009 1.466.105 2.1-.291.065.471.311.925.304 1.4-.56.312-1.218.304-1.84.303-1.898-.013-3.795.009-5.69-.013v-1.395c1.71-.009 3.418-.002 5.126-.003zM16.248 27.75c.884.013 1.752-.242 2.545-.625.306.326.622.644.941.96-.947.563-2.017.959-3.13.957-2.14.002-4.28.004-6.42-.004v-1.297c2.022.017 4.042-.002 6.064.01z" fill="#fff"/><path d="M14.27 12.894c.84-.428 1.815-.457 2.732-.342 1.972.349 3.567 2.143 3.65 4.153.043 2.139-.012 4.28.023 6.42.026 1.614 1.51 2.978 3.101 3.01 1.767.023 3.538.008 5.307.004.253.03.552-.07.778.08.036.4.018.801.01 1.203-2.09.007-4.181.024-6.273-.005-2.189-.068-4.104-1.945-4.244-4.125-.068-2.2.02-4.406-.042-6.606-.051-2.042-2.47-3.515-4.32-2.673-1.247.451-1.979 1.712-2.075 2.992-.412-.009-.825-.007-1.238.002-.079-1.735 1.027-3.402 2.59-4.113z" fill="#007dc5"/><path d="M21.54 13.06c1.24-.598 2.74-.755 4.01-.154 1.602.667 2.696 2.334 2.7 4.065-.398.01-.8.03-1.198.003-.276-.42-.197-1.007-.489-1.438-.78-1.56-2.902-2.184-4.403-1.288-.226-.386-.46-.77-.62-1.187zM16.239 26.106a4.149 4.149 0 0 0 1.706-.367c.172.384.38.75.617 1.1-.73.488-1.646.54-2.498.572-1.96-.015-3.92.015-5.88-.017 0-.43.001-.864.005-1.295 2.017.013 4.033.004 6.05.007z" fill="#f48221"/></g></g><defs><clipPath id="a"><path fill="#fff" d="M0 0h40v40H0z"/></clipPath></defs></svg>