<svg width="40" height="40" fill="none" xmlns="http://www.w3.org/2000/svg"><g clip-path="url(#a)" transform="matrix(1.4 0 0 1.4 -8 -7.968)"><g clip-path="url(#b)"><path d="M25.663 29.811h-.455a.477.477 0 0 1-.088-.011c-.13-.026-.262-.046-.39-.08-.155-.043-.306-.097-.46-.145-.025-.008-.053-.01-.077-.019a12.36 12.36 0 0 1-.357-.14 2.952 2.952 0 0 1-.57-.313 9.522 9.522 0 0 1-.545-.423 2.782 2.782 0 0 1-.296-.313 5.035 5.035 0 0 1-.32-.405c-.086-.125-.154-.263-.229-.396a5.432 5.432 0 0 1-.094-.17c-.047-.091-.1-.18-.14-.274-.039-.09-.067-.183-.096-.275-.031-.099-.058-.199-.088-.297-.02-.069-.065-.098-.14-.098-.877.002-1.755.001-2.633.002-.1 0-.17.056-.199.158-.036.131-.065.264-.105.393a1.177 1.177 0 0 1-.095.217c-.14.256-.266.522-.43.762-.179.264-.385.511-.634.715-.201.164-.404.327-.616.476-.122.085-.264.142-.398.21l-.284.136c-.008.004-.015.012-.023.014l-.397.11c-.071.02-.142.042-.212.063-.017.005-.033.015-.05.018-.391.073-.784.13-1.183.09a6.48 6.48 0 0 1-.693-.101 3.921 3.921 0 0 1-.628-.18 4.984 4.984 0 0 1-.601-.298 4.203 4.203 0 0 1-.891-.679 6.352 6.352 0 0 1-.483-.565c-.092-.12-.158-.26-.23-.394a5.248 5.248 0 0 1-.206-.412 3.343 3.343 0 0 1-.138-.388 11.11 11.11 0 0 1-.142-.548c-.016-.066-.02-.135-.024-.202a6.926 6.926 0 0 1 .004-1.194c.019-.18.082-.356.125-.534.007-.032.012-.064.024-.095.052-.146.106-.293.162-.437.032-.082.064-.166.106-.243a7.28 7.28 0 0 1 .243-.408 5.71 5.71 0 0 1 .3-.436c.082-.106.185-.198.28-.295.079-.08.155-.163.24-.235a3.87 3.87 0 0 1 .723-.49c.107-.057.218-.106.328-.156.115-.052.23-.101.346-.151a.22.22 0 0 1 .033-.012c.227-.057.45-.13.68-.167.199-.032.405-.038.605-.028.147.008.216-.064.282-.169.08-.126.168-.248.249-.374.068-.103.13-.21.197-.313l.288-.447.222-.341c.104-.158.21-.314.312-.473.108-.168.21-.34.32-.508.096-.149.199-.293.297-.44.073-.111.142-.225.214-.336.07-.11.143-.217.215-.325.05-.074.038-.128-.02-.197-.13-.15-.267-.295-.373-.46a6.838 6.838 0 0 1-.356-.658 3.252 3.252 0 0 1-.21-.506c-.06-.2-.095-.409-.131-.616-.04-.22-.08-.443-.067-.67.01-.173.026-.347.04-.52.003-.029.012-.058.017-.087.037-.21.07-.419.112-.627.014-.07.047-.139.076-.207.075-.175.145-.353.232-.522.09-.174.187-.347.303-.506.144-.197.299-.388.468-.563.174-.18.367-.342.56-.501.09-.075.195-.134.3-.187.237-.119.475-.235.718-.34a2.2 2.2 0 0 1 .38-.115c.225-.052.449-.108.676-.138.19-.025.385-.016.578-.022.006 0 .012.002.017.003.244.027.49.043.732.083.152.026.3.084.447.132.12.039.238.08.356.126.087.034.173.073.255.116.141.074.283.148.418.232.098.06.186.136.277.208.283.221.538.475.766.751.111.135.193.295.289.443.018.027.047.047.062.075.067.13.133.261.194.395.052.115.103.232.144.352a4.622 4.622 0 0 1 .23 1.347c.005.18-.023.362-.02.543.003.233-.07.45-.118.672-.026.122-.086.237-.13.354-.035.09-.064.184-.106.27-.078.159-.154.319-.247.468-.115.185-.246.361-.374.539-.032.045-.075.083-.114.124-.091.097-.095.182-.022.29.113.165.22.335.332.502.106.16.218.316.32.477.127.2.245.404.372.603.091.145.193.283.287.426.079.12.151.246.23.366.072.109.148.213.22.321.033.049.062.1.093.15.099.16.196.321.298.479.056.087.114.173.18.252a.18.18 0 0 0 .116.053c.207.014.417.009.623.034.196.024.39.072.581.121.145.037.29.084.426.145.212.095.42.199.623.311.145.08.29.167.413.275.23.203.462.41.663.641.185.213.34.454.49.694.088.138.144.297.208.448.054.124.1.251.149.377 0 .003.002.005.003.008.031.116.075.231.09.35.04.284.082.57.096.856.012.26.017.521-.054.778-.05.18-.072.367-.12.547-.035.13-.092.254-.142.38-.032.082-.07.162-.105.244-.086.2-.212.378-.323.565-.216.361-.53.626-.822.913-.11.109-.25.187-.383.27-.175.11-.353.217-.536.31-.117.061-.245.1-.37.141a8.66 8.66 0 0 1-.507.152 2.51 2.51 0 0 1-.323.057c-.214.027-.429.049-.643.073a.1.1 0 0 0 .001-.03zm-5.665-5.253h.295c.342 0 .684.002 1.026-.003.043 0 .11-.025.123-.057.044-.105.069-.218.1-.328.008-.026.014-.052.025-.076.045-.109.091-.218.139-.326.027-.061.057-.122.086-.183.04-.084.071-.175.123-.253.13-.195.265-.39.41-.574a4.533 4.533 0 0 1 .695-.691c.139-.103.287-.196.436-.284.082-.049.113-.144.056-.227-.023-.035-.052-.066-.074-.1-.092-.147-.182-.296-.276-.442-.11-.173-.225-.345-.338-.516l-.318-.48c-.085-.127-.173-.253-.255-.382-.109-.17-.212-.344-.32-.516-.104-.168-.213-.333-.315-.502-.093-.155-.214-.2-.37-.135-.075.03-.157.043-.235.065l-.16.05c-.027.01-.055.025-.083.027-.124.01-.25.027-.373.021-.43-.018-.866.06-1.29-.084-.167-.057-.346-.074-.516-.122-.083-.024-.139.01-.18.061-.069.087-.126.184-.185.28-.073.117-.14.238-.215.354-.105.164-.216.324-.323.487-.08.12-.158.241-.237.362-.06.091-.121.18-.18.273-.073.116-.14.237-.216.352-.097.148-.202.29-.299.44-.103.158-.198.321-.302.48-.07.109-.073.121.024.205.024.021.054.035.081.054.177.122.36.237.528.37.122.096.23.214.337.327.118.124.24.246.341.383.122.166.227.344.33.522.076.13.137.267.203.402.03.063.064.126.085.192.04.133.073.268.108.402.033.123.095.17.223.17.43.002.858.002 1.286.002zm-9.755.876c.015.15.02.302.047.45.027.15.08.295.111.445.04.188.157.32.295.442.058.051.116.047.178.007.094-.061.135-.159.156-.26.026-.124.033-.252.05-.379.018-.137.049-.274.057-.412.029-.483.065-.964.274-1.411.066-.142.127-.29.217-.416.148-.206.312-.4.477-.593.142-.164.313-.294.505-.396.125-.067.247-.139.372-.205.122-.064.236-.15.384-.148.023 0 .045-.012.069-.017.094-.023.187-.047.282-.067.049-.01.102-.004.15-.018.211-.06.428-.058.645-.057a.66.66 0 0 1 .167.023c.16.043.319.086.476.136.1.032.198.072.293.118.137.066.268.144.406.21.03.013.079.007.11-.009a.2.2 0 0 0 .091-.253.729.729 0 0 0-.106-.183c-.114-.133-.225-.271-.355-.386-.139-.122-.154-.262-.11-.42.026-.09.065-.177.106-.261.08-.168.165-.333.248-.498l.1-.197.231-.418c.069-.123.135-.247.206-.368.073-.125.154-.245.223-.371.13-.239.256-.48.38-.722.036-.068.058-.142.091-.21.04-.085.093-.165.128-.25.046-.112.08-.227.118-.341.031-.092.066-.183.091-.277.037-.137.072-.274.095-.413.005-.033-.032-.08-.063-.107-.012-.011-.064.01-.087.029-.063.053-.128.107-.176.172-.1.137-.19.283-.285.424-.079.117-.162.23-.237.35-.095.153-.183.31-.278.463-.136.22-.275.439-.413.658-.031.05-.065.098-.095.15-.093.153-.182.309-.278.46-.07.11-.15.212-.22.32-.103.155-.196.317-.304.468-.129.18-.263.355-.406.523a1.037 1.037 0 0 1-.288.261.932.932 0 0 1-.371.079c-.428.023-.846.09-1.238.27-.177.08-.35.171-.525.255-.196.093-.365.224-.537.355-.223.17-.403.38-.585.589-.077.087-.141.189-.2.29-.11.185-.216.371-.313.563-.05.099-.075.21-.112.315-.044.121-.108.24-.127.364-.047.29-.143.573-.12.874zm9.805-.565c-.453.025-1.005-.031-1.548.083a.979.979 0 0 0-.273.09c-.1.056-.089.138.002.209.097.075.21.094.323.111.29.044.58.094.872.128.21.024.422.021.632.036.202.014.403.04.605.053.157.009.315.002.473.004.33.003.66.01.99.01a.313.313 0 0 0 .164-.056c.132-.089.17-.231.2-.378.036-.165.062-.334.118-.492a2.97 2.97 0 0 1 .22-.463c.096-.171.193-.348.317-.498.147-.18.318-.34.49-.497.116-.105.244-.2.378-.28.14-.082.301-.132.442-.215.224-.13.475-.162.718-.22.16-.04.33-.039.497-.035.348.007.698.006 1.04.092.078.02.165 0 .24.025.174.058.352.07.534.075.21.005.24-.172.175-.301a.858.858 0 0 0-.453-.44c-.076-.031-.15-.07-.228-.09a9.932 9.932 0 0 0-.618-.15c-.095-.019-.196-.007-.294-.012-.119-.007-.238-.025-.356-.023a6.088 6.088 0 0 0-.498.03c-.151.014-.272-.059-.382-.14-.099-.072-.182-.167-.264-.26a12.953 12.953 0 0 1-.421-.496c-.083-.103-.148-.22-.229-.326-.185-.242-.37-.484-.563-.72a4.692 4.692 0 0 0-.352-.372c-.072-.069-.16-.064-.223-.004-.046.042-.054.175-.016.252.04.079.076.159.118.236a106.465 106.465 0 0 0 .63 1.114c.04.066.08.13.117.198.083.154.204.29.236.47.004.023.021.043.026.066.01.05.031.106.019.152a.432.432 0 0 1-.167.266c-.174.116-.35.226-.522.346-.25.175-.486.37-.675.613a6.336 6.336 0 0 0-.505.774.847.847 0 0 0-.084.183c-.043.154-.077.31-.115.465-.02.083-.042.166-.065.247-.006.022-.018.05-.035.059-.09.042-.18.092-.289.063-.028-.008-.058-.01-.087-.008-.094.007-.189.024-.283.025-.312.003-.624.001-1.031.001zm.006-14.496c-.236.033-.463.072-.692.095a2.951 2.951 0 0 0-.764.174c-.167.064-.339.124-.493.213-.209.12-.414.253-.6.404-.21.171-.407.36-.59.56a3.466 3.466 0 0 0-.544.815c-.029.058-.05.12-.075.18-.053.127-.114.252-.154.383-.047.151-.06.314-.113.463-.07.194-.064.393-.066.59-.002.254-.002.505.069.758.05.18.085.36.193.516.047.068.098.135.202.113.1-.02.15-.093.166-.176.063-.334.117-.67.17-1.007.02-.135.025-.272.043-.407.01-.08.044-.156.044-.235.001-.183.073-.348.13-.514.053-.154.143-.295.22-.44.074-.138.145-.274.25-.394.228-.263.457-.525.758-.702.239-.141.489-.268.747-.368.173-.067.367-.095.555-.11.2-.014.4-.067.606-.032.277.048.563.034.835.121.073.023.154.017.228.037.263.07.53.094.8.073a.149.149 0 0 0 .132-.192.76.76 0 0 0-.246-.371c-.211-.177-.446-.315-.725-.36-.02-.002-.039-.013-.059-.018-.09-.023-.18-.05-.273-.066-.07-.013-.142-.008-.213-.019-.18-.026-.36-.056-.541-.084z" fill="#cf323d"/></g></g><defs><clipPath id="a"><path fill="#fff" d="M0 0h40v40H0z"/></clipPath><clipPath id="b"><path fill="#fff" transform="translate(10 10)" d="M0 0h20v19.842H0z"/></clipPath></defs></svg>