<svg width="40" height="40" fill="none" xmlns="http://www.w3.org/2000/svg"><g clip-path="url(#a)" transform="matrix(1.4 0 0 1.4 -8 -7.96)"><mask id="b" mask-type="alpha" maskUnits="userSpaceOnUse" x="11" y="9" width="18" height="21"><path fill="#fff" d="M11.801 9.9h16.398v20H11.801z"/></mask><g mask="url(#b)"><path fill-rule="evenodd" clip-rule="evenodd" d="m19.987 16.247.06.053c.095.104.041.16-.024.492-.248-.083-.141-.297-.61-.283-.981.028-.394 1.195-1.482 1.164.08-.094.143-.123.167-.225.122-.074.131-.111.17-.255-.617.003-.958.122-1.212.477-.228.319-.41.898-.724.98-.572.152-.834-.092-1.056.665-.239.815-.447.677-.803.89.393.36.545.658 1.483.21.493-.236.962-.62 1.615-.397-.067.274.122.019-.072.828-.103.43.051.53.127.864-.758.414-.976.566-1.447 1.233-.13.183-.2.452-.375.569-.289.11-.873-.383-1.576-.16-.448.143-.765.543-1.014.93-.288.448-.378.764-.575 1.323-.276.786-.427.686-.838 1.08.36.294 1-.094 1.19-.315.276-.323.395-.86.64-1.119.3-.318.43-.225.898-.81.245-.307.554-.752 1.186-.49l.046.148c.028.18-.01.28.075.564.186.62.893 1.194 1.29 1.18.054.05-.006.014.092.068l.322.103c.2.046.34.042.486.117-.088.527-.544.653-.614 1.017.017.097 1.287.926 1.817 1.522.093.105.146.157.256.296.184.235.159.108.375.217-.144.266-.1.472.106.68.246.051.707.048.957-.001.006-.25-.276-.342-.42-.525l-.014-.076-.013-.125c-.015-.118-.015-.144-.057-.225a.51.51 0 0 0-.288-.248c-.169-.432-1.828-1.321-1.23-1.934 1.535-1.576.648-1.604.674-2.305 1.98-.817 1.818-1.495 2.334-1.877l.23.85c.065.227.012.176.186.233.17-.148.047-.3-.08-.79-.038-.149-.088-.296-.118-.444-.05-.25.023-.187.102-.409.173-.028.443.163.741.172.32.01.67-.075.927.056.124.184.077.21-.005.38-.421.785-.322.454-.461.668-.09.14-.028.125-.089.265l-.414.009c-.136.26-.42.958.042.75.016-.006.184-.117.201-.128.155-.1.24-.188.368-.281.59-.432.302.006.572-.774.129-.373.976-1.314-.275-1.602l.012-.152c.764.122 1.253-.568 1.92-.414.271.063.545.3.76.436.145.092.204.132.342.26.222.205.195.104.447.205l-.005.401c.288.107.604.19.887.008-.009-.22-.125-.212-.289-.358-.36-.322-.73-.682-1.127-.955-.817-.563-1.199-.83-1.977-.65-.284.066-.918.058-1.152-.064-.125-.066-.463-.646-.59-.794-.25-.292-.494-.306-.646-.74-.129-.37-.323-.64-.42-.976.537.241.597.905.98.75.13-.052.025-.03.183-.1.047-.022.17-.064.227-.087.03-.39-.024-.527-.283-.692-.284-.182-.236-.274-.335-.635-.082-.3-.024-.564-.25-.724-.135-.097-.163-.094-.282-.223-.096-.104-.135-.187-.235-.226-.1-.447-.13-.388-.363-.651-.008.01-.017.014-.02.032l-.128.192c-.215-.06-.34-.12-.602-.11-.338.01-.366.105-.594.17-.08-.27-.284-.97-.296-1.251-.034-.803-.082-.168-.338-1.178-.103-.406-.205-.79-.317-1.209-.267-1.003.108-.794.006-1.303-.07-.046-.084-.052-.17-.102-.027-.113-.338-.416-.463-.462-.059.114-.224.789-.215.88.02.195.385.413.497.599l.597 2.316c-.252.177-.192.2-.278.55-.053.216-.136.446-.202.68-.072.253-.122.408-.16.674-.05.353-.145.405-.199.706.28-.09.253-.148.641-.181.052-.291.123-.583.163-.85.037-.254-.044-.688.173-.843.133.099.23.682.294.91.14.511-.126.392-.199.847zm.04 1.74c.036-.153.086-.314.136-.437-.007-.006-.07-.016-.104-.07-.733.25-.356-.106-.705-.058l-.04.374-.457-.03c-.066.219-.151.22-.234.417.163.115.506.276.727.115.226-.163-.03-.208.677-.311zm-.887 4.575c-.324.083-1.127.588-.674 1.046.118.12.222.266.413.147 1.197-.747.99-1.38.26-1.193zm-1.79 1.735c-.035.428-.27 1.32.284 1.256.01-.494.151-.515.308-.89.16-.385.362-.419.582-.66a3.764 3.764 0 0 0-.407-.358c-.104.13-.171.287-.284.4-.133.133-.305.154-.483.252zm2.894-1.775c.04-.656-.974-1.57-1.818-1.564.027.1.572.89.685.986.33.281.512.157 1.133.578zm-1.594-2.904c-.04.133-.045.08-.152.177-.012 1.174.026.537.477.916.076-.38.097-.615.24-.962-.074-.164-.19-.235-.274-.457-.036.046-.08.122-.125.18-.12.154.007.059-.166.146zm.783-.904c-.004.01-.014.012-.017.027l-.036.052c-.104.143-.19.2-.062.452.2.396 1.03 1.093 1.36.849.26-.192.234-1.612.25-1.686.066-.295.44-.206.056-.776-.103.013-.025.002-.146.075l-.261.146c-.083.955.097.18-.215 1.18-.04.13-.057.263-.142.372-.12-.248-.154-.208-.338-.358-.21-.173-.122-.279-.449-.333z" fill="#f91951"/></g></g><defs><clipPath id="a"><path fill="#fff" d="M0 0h40v40H0z"/></clipPath></defs></svg>