<svg width="40" height="40" fill="none" xmlns="http://www.w3.org/2000/svg"><path fill-rule="evenodd" clip-rule="evenodd" d="M24.141 20.614c.026-.016.037-.048.037-.074a.107.107 0 0 0-.021-.069l-1.1-1.307-.085.201 1.037 1.244a.086.086 0 0 0 .069.031c.026 0 .047-.01.063-.026zM19.405 14.803a.477.477 0 0 0-.37-.778.479.479 0 1 0 .211.905l1.19 1.429a.093.093 0 0 0 .08.042c.058 0 .106-.047.106-.1a.105.105 0 0 0-.032-.074zM24.406 20.984l.058-.031.016-.027Z" fill="#a7c03e" style="stroke-width:1.4"/><path fill-rule="evenodd" clip-rule="evenodd" d="M26.433 13.173a1.34 1.34 0 0 0-1.725 1.28c0 .594.391 1.112.957 1.282l-1.481 5.191-1.61.746v-.005l-8.07 3.741a.944.944 0 0 0-1.72.535c0 .519.424.942.943.942a.94.94 0 0 0 .942-.942c0-.122-.18-.307-.07-.355l7.875-3.651c.016-.005.032-.01.048-.021l.122-.058.02-.011c.011 0 .027-.01.038-.016l1.614-.751a.093.093 0 0 0 .058-.09v-.006l1.487-5.202a1.34 1.34 0 0 0 1.577-1.312 1.34 1.34 0 0 0-1.005-1.297zM25.961 23.482l-1.47-2.545-.027.016-.106.158 1.423 2.472a.574.574 0 1 0 .18-.1z" fill="#a7c03e" style="stroke-width:1.4"/><path fill-rule="evenodd" clip-rule="evenodd" d="M8.19 16.719v.995h.646v3.508h1.17V16.72zM6 16.719v.995h.646v3.508H7.81V16.72zM14.54 19.137a1.53 1.53 0 0 0-.496-.275v-.01c.428-.159.714-.567.714-1.022v-.01c0-.858-.767-1.286-1.54-1.286s-1.535.428-1.535 1.286v.016c0 .455.286.857.71 1.01v.01c-.18.064-.35.16-.493.281a1.186 1.186 0 0 0-.402.884v.037c0 .127.021.254.064.381.217.662 1 .969 1.656.969.656 0 1.44-.307 1.662-.969.037-.127.058-.254.058-.38v-.038c0-.339-.148-.661-.402-.884zm-1.317-1.799h.016a.51.51 0 0 1 .508.513c0 .281-.227.508-.508.508a.51.51 0 0 1-.513-.508v-.01c0-.275.222-.498.497-.503zm.111 3.09c-.037.006-.074.011-.11.011a.537.537 0 0 1-.535-.535.533.533 0 1 1 1.069 0 .537.537 0 0 1-.424.525zM18.299 19.137a1.43 1.43 0 0 0-.498-.275v-.01c.43-.159.715-.567.715-1.022v-.01c0-.863-.768-1.286-1.54-1.286-.773 0-1.54.423-1.54 1.286v.016c0 .45.286.857.714 1.005v.016c-.18.058-.344.159-.487.28a1.177 1.177 0 0 0-.402.884v.037c0 .127.022.254.064.376.222.667 1 .974 1.656.974.656 0 1.44-.307 1.662-.974.037-.122.058-.249.058-.381v-.037c0-.333-.143-.656-.402-.879zm-1.318-1.799h.01a.51.51 0 1 1-.507.513v-.01c0-.275.222-.498.497-.503zm.106 3.096a.405.405 0 0 1-.222 0 .536.536 0 0 1 .111-1.058.536.536 0 0 1 .111 1.058zM21.071 19.005c0-.444.148-1.429.762-1.429s.752.916.762 1.381v.038c0 .444-.148 1.428-.762 1.428-.613 0-.751-.915-.762-1.38v-.038zm2.71.09V19c0-1.19-.582-2.472-1.948-2.472H21.59l-.085.011h-.026l-.074.016h-.032c-.974.243-1.429 1.249-1.482 2.233v.191c0 1.19.577 2.471 1.948 2.471H22.077l.09-.016h.026l.074-.016h.032c.974-.238 1.424-1.243 1.482-2.228v-.095zM24.797 20.92a.51.51 0 0 1-.513.509.508.508 0 0 1-.508-.508.51.51 0 0 1 .508-.513c.286 0 .513.232.513.513zM27.967 20.148c0 .291.238.53.53.53a.53.53 0 0 0 .523-.53.529.529 0 0 0-.524-.524.53.53 0 0 0-.529.524zm1.91 0c0 .82-.64 1.286-1.386 1.286-.74 0-1.386-.46-1.386-1.286 0-.82.645-1.286 1.386-1.286.746 0 1.387.466 1.387 1.286zM30.915 19.249h.01a.889.889 0 0 1 1.509.079c.153-.28.45-.46.772-.46h.011c.582 0 .783.402.783.952v1.54h-.815v-1.154c0-.248.01-.656-.333-.656-.381 0-.392.37-.392.656v1.154h-.815v-1.154c0-.264 0-.677-.36-.677-.354 0-.354.408-.354.677v1.154h-.83v-2.418h.814zM26.406 18.878c-.545 0-1.032.35-1.201.873l-.032.09a1.26 1.26 0 0 0-.021.138c-.011.053-.011.106-.016.158V20.158c.005.054.005.107.016.16 0 .047.026.153.026.158.005.005.016.053.027.08.174.518.656.862 1.2.862.191 0 .382-.042.557-.127v-.725a.67.67 0 0 1-.413.17.607.607 0 0 1-.196-.032.566.566 0 0 1-.365-.482v-.148a.573.573 0 0 1 .365-.482.607.607 0 0 1 .196-.031.695.695 0 0 1 .413.164v-.71c-.17-.09-.36-.137-.556-.137z" fill="#fff" style="stroke-width:1.4"/></svg>