<svg width="40" height="40" fill="none" xmlns="http://www.w3.org/2000/svg"><circle cx="24.276" cy="18.632" fill="url(#a)" style="fill:url(#a);stroke-width:1.4" r="6.401"/><path fill-rule="evenodd" clip-rule="evenodd" d="M6.586 10.911c5.18 2.394 10.067 5.326 14.562 8.991a62.349 62.349 0 0 1 12.266 13.39l-.44.293c-3.616-5.278-7.72-9.627-12.168-13.243-4.447-3.665-9.333-6.548-14.464-8.942Z" fill="#000" style="stroke-width:1.4"/><path fill-rule="evenodd" clip-rule="evenodd" d="M6.44 6.415c5.864 3.421 11.043 7.33 15.588 11.63 4.544 4.3 8.454 8.943 11.972 13.927l-.684.489c-3.47-4.936-7.379-9.578-11.874-13.78C16.946 14.429 11.864 10.52 6 7.148Z" fill="#abaaaa" style="stroke-width:1.4"/><defs><linearGradient id="a" x1="28.496" y1="21.685" x2="25.733" y2="13.572" gradientUnits="userSpaceOnUse" gradientTransform="matrix(1.4 0 0 1.4 -8 -8)"><stop stop-color="#C6DCF3"/><stop offset=".588" stop-color="#E1ECF8"/><stop offset=".761" stop-color="#F1F6FC"/><stop offset="1" stop-color="#F7F9FD"/></linearGradient></defs></svg>