<svg width="40" height="40" fill="none" xmlns="http://www.w3.org/2000/svg"><g clip-path="url(#a)" transform="matrix(1.4 0 0 1.4 -7.993 -8.005)"><path fill-rule="evenodd" clip-rule="evenodd" d="M14.575 20.029c-.004-.079-.003-.158-.013-.235-.03-.246-.151-.383-.345-.4-.229-.019-.388.09-.464.326-.073.224-.055.45 0 .676.036.152.124.258.284.283.176.028.326-.021.428-.178.093-.144.114-.305.11-.473zm-.538 1.693c-.52-.005-1.022-.096-1.31-.582-.373-.634-.365-1.304-.013-1.945.318-.58.846-.825 1.498-.831.633-.006 1.182.162 1.449.788.358.84.17 2.064-.968 2.475a1.731 1.731 0 0 1-.656.095zM16.345 20.489c0-.308-.008-.616.003-.924.005-.153-.032-.236-.201-.208-.167.027-.21-.053-.2-.208a4.829 4.829 0 0 0 0-.536c-.006-.135.035-.211.18-.19.19.03.218-.065.222-.232.011-.397.04-.803.397-1.066.354-.261.774-.28 1.193-.242.296.027.297.038.282.331-.01.171-.033.342-.038.513-.004.126-.03.173-.177.145-.352-.069-.485.06-.47.405.005.114.047.143.154.148.402.019.402.022.402.434v.022c-.003.143.041.314-.022.421-.075.127-.263.047-.4.05-.15.004-.132.096-.132.189 0 .623-.008 1.246.005 1.868.004.194-.053.248-.24.236a7.988 7.988 0 0 0-.775-.001c-.144.005-.187-.053-.185-.189.005-.322.002-.644.002-.966zM18.655 20.192c0-.222-.006-.444.002-.665.006-.13-.036-.192-.17-.17-.2.034-.246-.062-.23-.242.013-.164.01-.33 0-.493-.01-.149.045-.221.195-.198.185.029.215-.066.206-.222-.01-.171 0-.343-.004-.515-.003-.098.022-.156.13-.183.3-.074.595-.158.89-.242.13-.037.184-.004.18.139-.008.279.003.558-.005.837-.004.135.033.187.179.188.425.004.425.01.425.433 0 .475 0 .48-.445.495-.122.004-.16.044-.158.163.006.293 0 .587.003.88.002.274.104.377.372.32.213-.047.243.028.23.21-.013.185-.005.372-.001.558.001.088-.017.155-.117.173-.36.067-.725.104-1.087.027-.393-.083-.566-.326-.589-.806-.01-.229-.001-.458-.001-.687zM10.722 21.73c-.157-.014-.313-.031-.47-.04-.113-.007-.168-.048-.158-.171.017-.213-.001-.428.025-.642.015-.125.051-.155.175-.127.16.037.324.054.487.066.093.008.208-.007.235-.109.029-.108-.078-.157-.16-.198-.141-.071-.292-.124-.425-.206-.55-.34-.578-1.217-.058-1.62.355-.275.764-.334 1.196-.323.47.012.472.008.455.474-.005.149.06.333-.038.437-.097.105-.266-.037-.407-.008h-.021c-.106.015-.26-.052-.294.1-.03.137.127.152.215.198.221.116.456.215.614.42.46.597.165 1.393-.607 1.646-.248.081-.504.105-.764.103z" fill="#2cabe2"/><mask id="b" mask-type="alpha" maskUnits="userSpaceOnUse" x="26" y="18" width="4" height="6"><path fill-rule="evenodd" clip-rule="evenodd" d="M26.678 18.282h3.289v4.993h-3.288z" fill="#fff"/></mask><g mask="url(#b)"><path fill-rule="evenodd" clip-rule="evenodd" d="M29.804 20.25c0-.507-.005-1.015.004-1.523.003-.147-.048-.201-.187-.218-.42-.051-.841-.088-1.263-.054-.403.033-.76.18-1.054.473-.55.547-.583 1.65-.276 2.21.129.237.324.396.594.455.404.089.77.053 1.041-.307.037-.049.082-.088.145-.058.06.03.032.088.03.135-.007.092-.024.184-.026.277-.01.414-.216.623-.637.64-.317.011-.631-.002-.933-.109-.114-.04-.155-.015-.16.105a5.497 5.497 0 0 1-.047.534c-.023.157.044.215.19.24.376.064.754.07 1.134.049.929-.053 1.439-.587 1.445-1.518.003-.443 0-.887 0-1.33zM28.63 21.6c-.62.312-1.229.244-1.595-.173-.243-.277-.328-.615-.349-.972-.046-.783.139-1.465.854-1.91.276-.17.583-.235.9-.255.459-.028.915.029 1.37.084.116.014.157.065.156.181-.004 1.075.01 2.149-.009 3.223-.012.727-.45 1.234-1.165 1.405-.589.141-1.179.107-1.767-.011-.116-.023-.172-.075-.158-.205.035-.312.062-.626.084-.94.008-.116.046-.127.145-.083.37.163.758.21 1.157.169.297-.03.415-.192.377-.513z" fill="#2cabe2"/></g><path fill-rule="evenodd" clip-rule="evenodd" d="M26.265 20.348c0-.336.006-.673 0-1.01-.012-.494-.21-.787-.612-.866-.423-.083-.812-.001-1.125.325-.055.057-.093.175-.2.118-.083-.046-.038-.149-.022-.216.036-.157-.017-.209-.17-.201-.387.019-.774.03-1.16.045-.05.002-.115.002-.126.059a1.16 1.16 0 0 0 0 .53c.032.11.202.086.309.088.19.002.24.081.237.263-.01.63-.002 1.26-.007 1.89 0 .135.033.196.18.19.222-.01.445-.011.667 0 .144.007.184-.047.182-.185-.007-.43-.002-.86-.002-1.289a.89.89 0 0 1 .245-.645c.113-.117.247-.214.42-.15.167.061.158.218.158.364 0 .573.003 1.145-.003 1.718 0 .136.034.194.18.187.223-.012.446-.01.667 0 .143.006.188-.043.185-.184-.008-.343-.002-.687-.003-1.03zm-1.8-1.731c.392-.294.767-.384 1.173-.31.447.08.692.339.755.788.022.155.035.313.036.47.003.651-.002 1.302.004 1.954.001.14-.026.208-.187.202-.322-.012-.645-.01-.968 0-.152.004-.199-.05-.197-.198.005-.602.004-1.203 0-1.804 0-.094.042-.223-.078-.267-.122-.045-.194.068-.263.147a.729.729 0 0 0-.163.499c.002.48-.003.96.004 1.439.002.14-.04.188-.184.184-.322-.01-.645-.01-.967 0-.145.004-.18-.049-.18-.186.007-.637-.006-1.275.009-1.912.004-.19-.059-.259-.235-.26-.064 0-.128-.016-.192-.014-.122.005-.166-.05-.162-.168.006-.135 0-.272.002-.408.007-.413-.063-.349.37-.388.405-.036.815-.028 1.223-.04.146-.005.272.01.2.272zM22.315 20.044c0-.45-.005-.901.003-1.352.003-.15-.046-.202-.195-.195-.4.02-.8.03-1.2.045-.056.002-.135-.008-.15.056a1.107 1.107 0 0 0-.004.53c.03.114.196.094.301.092.203-.003.248.086.245.274-.01.615.003 1.23-.008 1.845-.003.184.057.237.232.224a3.51 3.51 0 0 1 .558 0c.187.016.226-.06.222-.232-.011-.429-.004-.858-.004-1.287zm.164.02c0 .494-.003.988.003 1.482.002.13-.037.177-.17.174-.323-.008-.646-.01-.968 0-.15.005-.197-.041-.195-.193.008-.616-.01-1.232.01-1.848.007-.23-.062-.34-.287-.32-.244.021-.316-.086-.281-.31.013-.085 0-.172.002-.258.012-.449-.085-.365.39-.406.442-.039.888-.014 1.333-.026.14-.004.167.056.166.18-.005.508-.002 1.016-.002 1.525z" fill="#2cabe2"/><mask id="c" mask-type="alpha" maskUnits="userSpaceOnUse" x="21" y="16" width="2" height="3"><path fill-rule="evenodd" clip-rule="evenodd" d="M21.03 16.753H22.6v1.522H21.03z" fill="#fff"/></mask><g mask="url(#c)"><path fill-rule="evenodd" clip-rule="evenodd" d="M21.825 18.11c.337-.003.612-.265.614-.585a.63.63 0 0 0-.621-.613c-.329-.002-.63.29-.626.609.004.33.285.592.633.59zm-.002.165c-.436.003-.795-.342-.794-.762.002-.4.368-.756.78-.76.412-.004.786.348.792.747a.774.774 0 0 1-.778.775z" fill="#2cabe2"/></g><path fill-rule="evenodd" clip-rule="evenodd" d="M28.713 19.891c0-.124.006-.203-.002-.281-.008-.072.048-.171-.06-.208a.36.36 0 0 0-.297.031.457.457 0 0 0-.209.253c-.085.245-.077.495-.029.743.019.098.054.202.191.22.152.019.232-.068.295-.175.117-.198.12-.412.11-.583zm.18-.058c.004.183.012.426-.1.656-.115.234-.287.348-.5.322-.266-.032-.335-.22-.364-.416-.037-.24-.04-.484.034-.722a.628.628 0 0 1 .215-.326.651.651 0 0 1 .625-.088c.176.06.062.226.088.343.012.055.002.114.002.23z" fill="#2cabe2"/></g><defs><clipPath id="a"><path fill="#fff" d="M0 0h40v40H0z"/></clipPath></defs></svg>