<svg width="41" height="40" fill="none" xmlns="http://www.w3.org/2000/svg"><g clip-path="url(#a)" transform="matrix(1.4 0 0 1.4 -8.4 -7.996)"><g clip-path="url(#b)"><path d="M21.206 26.937c0 .959-.003 1.917.004 2.875 0 .135-.037.165-.168.166A9.977 9.977 0 0 1 11.35 22.6c-1.48-5.45 1.883-11.075 7.383-12.343.137-.031.276-.053.413-.083.082-.018.117.01.11.093-.003.028 0 .056 0 .085 0 1.707-.003 3.415.003 5.123 0 .156-.042.195-.196.193-.659-.009-1.319 0-1.979-.006-.118-.001-.155.031-.15.15.007.276.01.553-.001.829-.005.136.027.184.173.18.287-.006.575-.02.86.02.228.032.288.086.34.307.03.122.027.246.027.37v4.548c0 .578-.083.66-.666.665-.208.001-.417.003-.626-.001-.08-.002-.108.023-.107.105.004.316.006.631 0 .947-.003.117.066.106.14.106.666 0 1.331.004 1.997-.004.148-.002.19.036.187.186-.009.564 0 1.127-.006 1.691-.002.13.037.164.162.16.264-.01.53-.012.795 0 .135.006.154-.045.153-.164-.005-.569.003-1.138-.006-1.708-.002-.139.043-.171.171-.164.175.01.35.012.524 0 .13-.009.159.036.158.16-.005.964-.003 1.928-.003 2.891z" fill="#86909b"/><path d="M23.6 19.537c.404-.139.761-.31 1.07-.574.78-.664.847-1.958.127-2.63-.332-.312-.75-.445-1.183-.534a5.421 5.421 0 0 0-1.174-.112c-.113.001-.144-.037-.143-.146.005-.474-.001-.947.005-1.42.002-.121-.022-.17-.156-.165-.27.011-.541.009-.811.001-.107-.003-.132.032-.131.134.005.479-.001.958.004 1.437.002.109-.026.148-.14.142a5.625 5.625 0 0 0-.574 0c-.117.007-.137-.04-.136-.144.004-.716.002-1.432.002-2.148 0-1.054.003-2.109-.003-3.163-.001-.149.032-.2.19-.206 2.572-.104 4.86.657 6.838 2.296 1.784 1.478 2.912 3.366 3.4 5.634.19.882.252 1.774.194 2.668-.14 2.144-.883 4.06-2.253 5.72-1.432 1.735-3.25 2.863-5.439 3.39-.29.07-.581.125-.877.164-.088.012-.115-.007-.11-.089v-.084c0-1.883.001-3.766-.003-5.65 0-.135.027-.175.171-.18.652-.027 1.302-.072 1.925-.294.856-.305 1.303-.93 1.313-1.836.012-1.026-.464-1.67-1.498-2.025-.19-.065-.385-.118-.608-.186z" fill="#f78e1f"/><path d="M20.367 21.51V20.43c0-.065-.02-.14.092-.137.613.018 1.23-.046 1.84.04.93.133 1.364 1.18.813 1.951-.188.263-.47.365-.769.409-.627.092-1.26.026-1.89.044-.1.003-.086-.066-.086-.126v-1.1z" fill="#86909b"/><path d="M20.361 17.97v-.963c0-.075.002-.132.104-.128.512.019 1.025-.03 1.536.032.579.072.863.384.862.962 0 .118.007.239-.015.354-.099.511-.43.78-.987.818-.455.03-.912.018-1.368.024-.103.001-.136-.03-.134-.134.006-.321.002-.643.002-.964z" fill="#f78e1f"/></g></g><defs><clipPath id="a"><path fill="#fff" transform="translate(.879)" d="M0 0h40v40H0z"/></clipPath><clipPath id="b"><path fill="#fff" transform="translate(11 10)" d="M0 0h20v19.978H0z"/></clipPath></defs></svg>