<svg width="40" height="40" fill="none" xmlns="http://www.w3.org/2000/svg"><g clip-path="url(#a)" transform="matrix(1.4 0 0 1.4 -7.99 -7.974)"><mask id="b" mask-type="alpha" maskUnits="userSpaceOnUse" x="11" y="10" width="18" height="20"><path fill="#fff" d="M11.342 10h17.315v20H11.342z"/></mask><g mask="url(#b)" fill-rule="evenodd" clip-rule="evenodd"><path d="M19.66 10.12c.166-.108.386-.18.563-.05 2.795 1.609 5.576 3.241 8.379 4.834-1.614.941-3.247 1.85-4.847 2.812-1.269-.7-2.513-1.444-3.768-2.169-1.258.721-2.51 1.453-3.77 2.17a448.68 448.68 0 0 0-4.868-2.82c2.781-1.571 5.538-3.187 8.31-4.777z" fill="#94c11f"/><path d="M11.35 14.898c1.626.931 3.252 1.868 4.866 2.82-.057 1.452-.048 2.907-.03 4.36 1.267.714 2.518 1.456 3.78 2.18 0 1.87.006 3.74-.003 5.612-2.866-1.672-5.74-3.33-8.616-4.982-.004-3.33-.009-6.66.002-9.99z" fill="#00a2b4"/><path d="M23.755 17.716c1.6-.962 3.233-1.87 4.847-2.812.008 3.332.01 6.665-.002 9.998-2.887 1.641-5.757 3.315-8.637 4.967.009-1.87.004-3.742.002-5.612 1.262-.722 2.516-1.457 3.78-2.176.022-1.455.008-2.91.01-4.365z" fill="#0b4395"/></g></g><defs><clipPath id="a"><path fill="#fff" d="M0 0h40v40H0z"/></clipPath></defs></svg>