<svg width="40" height="40" fill="none" xmlns="http://www.w3.org/2000/svg"><g clip-path="url(#a)" transform="matrix(1.4 0 0 1.4 -8 -7.966)"><g clip-path="url(#b)" fill="#fff"><path d="M14.154 22.83c-.068-.04-.148-.034-.222-.052a1.457 1.457 0 0 1-1.12-1.423v-2.888c0-.736.56-1.367 1.267-1.453a1.478 1.478 0 0 1 1.635 1.154c.021.098.028.198.028.299v2.887c0 .76-.564 1.38-1.324 1.457-.015.001-.032-.002-.038.019h-.226zm.701-2.914h-.003c0-.492.006-.984-.002-1.476a.573.573 0 0 0-.637-.545c-.305.033-.513.277-.514.613-.002.71 0 1.422 0 2.133 0 .251-.005.502.004.752a.567.567 0 0 0 .718.519c.271-.073.433-.292.434-.596v-1.4zM24.039 22.83c-.068-.042-.148-.034-.222-.051-.63-.152-1.106-.706-1.115-1.35a105.387 105.387 0 0 1 0-3.028c.01-.742.597-1.327 1.357-1.395.813-.072 1.563.602 1.567 1.415.004.994.003 1.988 0 2.981-.003.711-.589 1.34-1.305 1.41-.02.001-.045-.012-.056.018h-.226zm.7-2.912v-.075c0-.47.006-.94-.003-1.41-.006-.304-.282-.549-.588-.541a.573.573 0 0 0-.562.567v2.904c0 .17.064.313.192.423a.551.551 0 0 0 .614.095.55.55 0 0 0 .347-.534c.003-.476 0-.952 0-1.429zM28.34 22.83c-.068-.042-.148-.034-.222-.053a1.52 1.52 0 0 1-.92-.656c-.149-.227-.098-.508.114-.647.216-.142.483-.076.634.158.14.219.344.32.6.29a.585.585 0 0 0 .509-.391.59.59 0 0 0-.142-.658c-.467-.483-.936-.963-1.4-1.45-.302-.318-.405-.706-.353-1.135a1.445 1.445 0 0 1 1.438-1.283c.561-.009.995.25 1.286.73a.435.435 0 0 1-.158.605.44.44 0 0 1-.606-.156c-.21-.329-.64-.39-.907-.131a.57.57 0 0 0-.018.805c.222.239.454.469.681.703.234.241.469.48.7.724.243.254.374.56.405.908.001.015-.002.032.019.037v.207c-.03.01-.018.036-.022.056-.116.705-.58 1.181-1.272 1.31-.04.007-.088-.013-.121.027h-.245zM20.36 22.83c-.059-.04-.134-.044-.192-.088a.518.518 0 0 1-.161-.192l-1.986-4.107c-.13-.27-.255-.544-.396-.81-.079-.15-.025-.422.136-.54a.46.46 0 0 1 .693.197l1.342 2.78 1.02 2.113a.437.437 0 0 1-.286.622c-.025.007-.06-.009-.075.025h-.094zM10.42 22.83c-.018-.034-.055-.026-.082-.034a.47.47 0 0 1-.336-.44c-.003-.132-.001-.264-.001-.395v-4.458c0-.384.376-.62.71-.444a.444.444 0 0 1 .254.41c.002 1.627.002 3.254 0 4.88a.474.474 0 0 1-.395.461c-.02.004-.046-.01-.057.02h-.094zM20.848 21.648l-.352-.724-.48-.997a.378.378 0 0 1-.044-.17l.001-2.276c0-.265.142-.436.388-.475a.438.438 0 0 1 .49.342c.01.049.015.1.015.149v4.146l-.018.005zM17.603 18.174l.374.771c.157.324.312.649.47.972a.297.297 0 0 1 .03.134v2.294c0 .287-.176.47-.448.47-.263-.001-.441-.188-.441-.468V18.179a.185.185 0 0 1 .015-.005z"/></g></g><defs><clipPath id="a"><path fill="#fff" d="M0 0h40v40H0z"/></clipPath><clipPath id="b"><path fill="#fff" transform="translate(10 17)" d="M0 0h20v5.83H0z"/></clipPath></defs></svg>