<svg width="40" height="40" fill="none" xmlns="http://www.w3.org/2000/svg"><g clip-path="url(#a)" transform="matrix(1.4 0 0 1.4 -8 -7.92)"><g clip-path="url(#b)"><path d="M10.008 22.225a.014.014 0 0 0-.008-.01v-2.709c0-.048 0-.096.004-.143a.303.303 0 0 1 .29-.29 1.32 1.32 0 0 1 .123-.005h1.847a.59.59 0 0 1 .322.064c.115.11.163.243.142.401l-.007.034c-.077.15-.178.26-.365.26-.481 0-.963.004-1.444.006a.41.41 0 0 1-.104-.01c-.058-.015-.08-.06-.075-.117.004-.055.033-.09.088-.097.031-.005.063-.003.095-.003h1.368c.151 0 .22-.048.221-.15.002-.104-.065-.156-.212-.166h-.019c-.618 0-1.237-.002-1.855 0-.146 0-.188.053-.178.205v.226c-.003.022-.006.044-.006.066v2.097c0 .131.002.132.139.132 4.887 0 9.775 0 14.662-.005.174 0 .263.087.366.2-.06.023-.115.015-.167.015H10.448l-.44-.001z" fill="#aac255"/><path d="M28.191 19.536h-.498c-.027 0-.062-.007-.073.029-.01.029.018.043.035.062.062.072.066.172.01.236a.172.172 0 0 1-.234.011c-.13-.117-.25-.243-.375-.365l-.067-.069c-.081-.081-.087-.17-.008-.252.137-.142.276-.283.417-.421.08-.079.176-.086.25-.027.071.058.077.152.016.248-.013.02-.042.037-.02.066.02.027.052.02.08.02.277-.001.555-.005.832-.005.23 0 .449.042.657.145.257.129.463.316.583.572.264.564.277 1.151.009 1.71-.25.52-.701.756-1.28.741-.087-.002-.128-.039-.123-.129.003-.063 0-.127 0-.191.002-.11.028-.135.137-.138.124-.002.247-.008.367-.052a.82.82 0 0 0 .47-.451 1.46 1.46 0 0 0 .014-1.207c-.127-.31-.426-.544-.777-.534-.14.004-.281.001-.422.001z" fill="#b2c756"/><path d="M27.538 21.773c-.043-.046-.073-.074-.099-.105-.057-.068-.056-.17 0-.227.063-.063.168-.072.234-.008.154.147.305.3.454.452.06.063.053.166-.012.232-.143.146-.288.29-.433.433-.066.065-.171.067-.233.009-.069-.066-.071-.165-.007-.241.02-.024.05-.039.059-.077-.03-.017-.062-.009-.092-.009h-.91c-.735 0-1.338-.587-1.366-1.323-.01-.265-.026-.528.04-.789.14-.558.575-.957 1.144-1.041.084-.013.172-.004.258-.008.086-.004.121.045.125.122.004.07.002.14 0 .211-.001.081-.045.122-.125.125-.086.003-.172-.004-.258.013-.307.061-.506.256-.616.533-.175.443-.165.885.081 1.305.142.242.361.382.641.39.363.012.727.003 1.115.003z" fill="#a8a4a1"/><path d="M14.367 20.117h-1.11c-.136 0-.176-.028-.173-.12.003-.092.04-.123.153-.123h.842l1.332-.001c.081 0 .146-.019.159-.113.006-.054-.013-.088-.071-.09l-.087-.001h-1.905a.95.95 0 0 1-.18-.017.275.275 0 0 1-.23-.227c-.02-.086-.02-.171-.017-.258.002-.086.061-.105.13-.106.071-.002.118.034.119.108.002.26.054.259.298.26.603.002 1.206 0 1.81 0 .123 0 .133-.009.136-.135 0-.038-.003-.076 0-.114.004-.041-.024-.095.038-.115a.31.31 0 0 1 .197.006c.024.008.016.04.017.06.001.198.007.396 0 .594-.009.282-.116.385-.395.388-.354.003-.709 0-1.063 0v.004z" fill="#aac255"/><path d="M24.69 17.634c.168-.1.356-.12.543-.149.027.027.06.016.09.016.226.003.433.051.592.227.064.07.142.128.201.2.05.063.134.104.14.198.022.123-.051.203-.139.256a2.021 2.021 0 0 1-.534.238c-.118.032-.24.047-.361.07h-.077l-.288-.067a2.652 2.652 0 0 1-.033-.022c0-.019-.01-.024-.027-.018l-.03-.024c-.042-.04-.054-.108-.115-.133l-.024-.032c.007-.016 0-.024-.016-.025l-.022-.032c.006-.017 0-.026-.018-.025l-.019-.033c.006-.016 0-.025-.016-.026l-.03-.066c.014-.016.007-.025-.01-.031a24.763 24.763 0 0 0-.024-.068c-.005-.084-.02-.169.036-.245.038-.05.07-.104.105-.157l.032-.02c.017.005.025-.002.025-.019l.02-.013c-.001 0 0 0 0 0z" fill="#c8d152"/><path d="M23.08 19.067c.342 0 .684.007 1.025-.003.2-.006.323.164.327.337.005.198.001.396 0 .593 0 .083-.043.122-.125.121-.081 0-.124-.034-.124-.12 0-.179-.003-.357-.007-.536-.003-.115-.045-.155-.158-.156-.249 0-.497.001-.746-.001-.066 0-.088.022-.087.09.004.197 0 .395 0 .593.001.075-.022.123-.105.128-.08.005-.141-.015-.142-.11v-.564c0-.136 0-.135-.14-.136-.223-.002-.446-.005-.67-.005-.147 0-.186.039-.188.187a34.28 34.28 0 0 0-.004.507c0 .09-.05.126-.133.124-.079-.002-.113-.045-.113-.123 0-.194-.01-.39 0-.583.01-.237.128-.344.366-.346.341-.003.683 0 1.024 0v.003zM20.314 20.116c-.36 0-.721-.007-1.082.002-.244.006-.416-.111-.415-.383 0-.185-.012-.37.003-.555.007-.096.046-.122.144-.118.086.004.105.062.106.13.002.16 0 .32.001.48 0 .166.036.202.202.203h1.847c.191 0 .192 0 .193-.19 0-.163-.002-.326 0-.489.002-.106.042-.14.139-.137.07.002.11.036.11.105.002.297 0 .593.002.89 0 .07-.047.065-.092.064l-.565-.002h-.593zM17.406 19.063h1.11c.144 0 .178.024.176.124-.001.09-.034.112-.18.112h-1.916c-.076 0-.153.002-.23.006-.131.007-.164.04-.165.177-.003.185-.006.37.002.556.003.07-.02.08-.078.081-.176.006-.176.007-.175-.163 0-.185 0-.37.003-.556.004-.206.11-.328.314-.332.379-.007.759-.002 1.139-.002v-.003z" fill="#aac255"/><path d="M26.255 18.126c-.005-.094-.089-.135-.139-.197-.059-.073-.137-.131-.2-.201-.16-.176-.367-.224-.592-.227-.03 0-.064.01-.09-.016.047-.327.354-.536.695-.474a.697.697 0 0 1 .319.14l.004.005.035.03c.02.04.046.074.08.102l.02.032.04.135.008.073c-.015.015-.015.03.002.043l.008.054.016.304c.002.039 0 .08-.045.097-.06.022-.106.068-.16.1z" fill="#b2c756"/><path d="M26.255 18.126c.054-.032.1-.078.161-.101.044-.016.047-.058.045-.097-.004-.101-.01-.203-.016-.304.057.076.03.167.04.25.009.077.028.096.103.088.098-.01.136.047.11.144-.021.076-.078.121-.137.165-.177.13-.38.206-.58.284-.232.09-.435.234-.661.335a.796.796 0 0 1-.107.04c-.04.01-.083.008-.103-.029-.024-.042.006-.077.037-.108.03-.03.097-.035.075-.103.12-.023.243-.039.361-.07.19-.05.368-.135.535-.238.087-.054.16-.134.137-.256zM20.595 21.252c.006.085-.018.201.024.313.012.03-.005.05-.03.061-.03.014-.055.002-.062-.026-.018-.078-.053-.042-.094-.02-.128.07-.26.101-.4.032-.121-.06-.134-.168-.125-.285a.195.195 0 0 1 .162-.187c.09-.022.18-.033.271-.051.065-.013.137-.037.136-.11-.001-.075-.07-.107-.141-.118-.11-.016-.21.002-.283.094-.022.028-.044.064-.085.038-.047-.03-.016-.068.001-.1a.228.228 0 0 1 .111-.102.558.558 0 0 1 .338-.022c.104.023.171.118.176.235.003.073 0 .146 0 .248zm-.095.008v-.083c0-.024-.015-.038-.037-.027-.112.053-.238.04-.353.077-.073.024-.11.072-.112.148-.002.072.021.134.092.163.145.058.436-.019.41-.278zM22.758 21.186a.448.448 0 0 1-.056.257c-.068.13-.165.216-.322.212-.158-.003-.254-.096-.313-.228a.599.599 0 0 1 .015-.509.316.316 0 0 1 .322-.194c.144.006.242.08.3.213.037.08.062.16.054.249zm-.104.012c-.003-.045.001-.091-.01-.133-.027-.1-.065-.2-.179-.228a.246.246 0 0 0-.272.09c-.108.136-.087.452.04.568.121.11.302.074.375-.075a.474.474 0 0 0 .046-.222zM24.12 21.658c-.173 0-.28-.077-.307-.213-.007-.04-.005-.072.037-.082.042-.011.057.022.065.054.032.134.162.163.273.147.08-.01.14-.048.147-.136.008-.088-.031-.15-.115-.176-.063-.02-.13-.028-.195-.044-.166-.039-.225-.135-.191-.302a.149.149 0 0 1 .052-.087c.078-.066.321-.114.44-.011a.232.232 0 0 1 .056.063c.02.04.056.094 0 .126-.05.03-.067-.027-.09-.06-.059-.082-.216-.112-.302-.058a.121.121 0 0 0-.057.114c.003.048.036.083.08.099.067.023.134.043.2.06.163.044.245.152.23.303-.012.116-.128.198-.285.203h-.038zM17.97 21.219a.655.655 0 0 1 .07-.324.338.338 0 0 1 .531-.077c.183.18.183.562 0 .741-.194.19-.498.094-.576-.18a.52.52 0 0 1-.024-.16zm.633-.032a.329.329 0 0 0-.023-.174c-.038-.089-.087-.171-.2-.183-.111-.011-.205.018-.257.123a.503.503 0 0 0 .003.478c.044.082.117.135.217.13a.23.23 0 0 0 .21-.14.44.44 0 0 0 .05-.234zM16.329 21.186v-.373c0-.037.004-.074.044-.087.039-.013.046.023.059.047.017.032.037.013.056.004.042-.021.082-.049.132-.053.176-.016.285.082.293.283.008.185.002.37.002.555 0 .034-.006.068-.046.072-.048.006-.043-.034-.05-.065-.023-.13.014-.26.003-.39-.006-.06.002-.122-.006-.182-.018-.137-.077-.19-.187-.182-.124.01-.196.086-.197.212-.002.163 0 .326 0 .488v.058c0 .035-.012.065-.054.064-.042-.002-.05-.034-.05-.068v-.383zM17.152 21.181v-.363c0-.032-.006-.067.028-.086.038-.022.056.004.076.032.022.031.049.013.076.002.235-.102.395-.008.405.244.007.182.001.364 0 .546 0 .035.003.077-.046.079-.055.002-.057-.044-.057-.082.002-.153.007-.305.01-.458 0-.032.002-.065-.003-.096-.02-.135-.072-.187-.176-.183-.126.005-.212.082-.219.206-.004.083.004.166.006.249l.004.296c0 .035-.007.067-.049.07-.048.001-.054-.034-.054-.073v-.382zM22.992 21.18v-.364c0-.035-.004-.073.038-.09.039-.014.046.018.062.042.018.027.045.013.069.003.241-.104.4-.016.415.24.01.182.003.364.002.546 0 .035-.005.077-.053.076-.047 0-.05-.044-.05-.078v-.517c-.001-.15-.055-.221-.164-.223-.14-.002-.222.078-.225.227-.003.162.002.325 0 .488-.001.038.026.103-.044.105-.072.003-.048-.062-.05-.101-.002-.118 0-.236 0-.354zM21.087 21.199v.22c.001.053.011.106.07.124.053.017.105.01.147-.037.024-.027.049-.087.096-.037.044.045 0 .08-.032.111-.072.07-.158.099-.254.062-.093-.036-.132-.115-.133-.212-.002-.14-.002-.28 0-.421 0-.054-.007-.096-.073-.098-.037 0-.063-.011-.06-.055.003-.041.03-.054.065-.053.058.003.07-.029.067-.078-.002-.064 0-.128 0-.191 0-.037.005-.075.054-.074.048 0 .052.04.053.076.001.064.003.127 0 .191-.004.062.025.087.084.087l.143.001c.031 0 .047.018.047.048 0 .032-.019.045-.049.045h-.01c-.069.012-.165-.036-.203.028-.032.055-.01.142-.012.215v.048zM19.303 21.656c-.04 0-.055-.03-.067-.06l-.291-.748c-.013-.033-.02-.065.019-.082.042-.019.054.014.066.046l.225.579c.012.029.015.072.051.073.04.001.039-.044.05-.072.073-.19.144-.381.216-.572.013-.033.02-.075.07-.06.054.018.033.06.02.096l-.279.732c-.014.04-.034.068-.08.068zM21.67 21.172v-.401c0-.033 0-.066.045-.07.05-.003.06.032.06.068.002.27.002.541.002.811 0 .04-.017.073-.06.071-.046-.002-.048-.042-.048-.079v-.4zM16.074 21.172v.391c0 .038.006.086-.047.09-.062.003-.06-.053-.06-.09a36.858 36.858 0 0 1 0-.773c.001-.036-.002-.091.062-.087.06.004.043.054.044.088.002.127 0 .254 0 .381h.001zM16.092 20.518c.004.054-.024.079-.072.08-.05 0-.073-.03-.073-.079 0-.047.022-.08.073-.076.043.005.082.02.072.075zM21.651 20.517c-.005-.051.023-.066.07-.067.046 0 .074.022.072.067-.002.043-.018.083-.073.08-.05-.002-.074-.029-.069-.08zM24.614 17.686c-.035.053-.067.107-.105.157-.057.076-.041.161-.036.245-.067-.13.01-.347.14-.402zM24.857 18.623l.288.067c-.102.004-.203.001-.288-.067zM24.651 18.426c.061.025.074.093.117.133-.084-.005-.086-.081-.117-.133zM26.367 17.288a.3.3 0 0 1-.08-.102c.06.007.079.048.08.102zM26.427 17.455l-.039-.136c.05.035.048.084.04.136zM26.437 17.57c-.017-.013-.018-.027-.002-.042.021.013.021.027.002.042zM24.797 18.583c.017-.006.026 0 .027.017-.018.009-.027.003-.027-.017zM24.612 18.369c.017.001.022.01.015.025-.02 0-.023-.009-.015-.025zM24.572 18.312c.018 0 .023.008.018.025-.019 0-.025-.008-.018-.025zM24.537 18.252c.016.002.022.01.016.027-.022.001-.027-.008-.016-.027zM24.497 18.155c.017.007.024.016.01.031-.015-.006-.02-.016-.01-.03zM24.671 17.647c0 .017-.009.024-.026.019-.001-.02.007-.027.026-.02zM26.252 17.155l-.004-.005h.006zM24.69 17.633v.001l-.002-.004z" fill="#a8a4a1"/></g></g><defs><clipPath id="a"><path fill="#fff" d="M0 0h40v40H0z"/></clipPath><clipPath id="b"><path fill="#fff" transform="translate(10 17)" d="M0 0h20v5.601H0z"/></clipPath></defs></svg>