<svg width="40" height="40" fill="none" xmlns="http://www.w3.org/2000/svg"><mask id="a" mask-type="alpha" maskUnits="userSpaceOnUse" x="10" y="12" width="20" height="16"><path fill="#fff" d="M10 12.567h20v14.866H10z"/></mask><g mask="url(#a)" transform="matrix(1.4 0 0 1.4 -8 -8)"><path fill-rule="evenodd" clip-rule="evenodd" d="M20 14.425c5.52 0 10 2.496 10 5.575 0 3.078-4.479 5.575-10 5.575-5.52 0-10-2.497-10-5.575 0-3.079 4.48-5.575 10-5.575zm0 .502c-5.24 0-9.494 2.276-9.494 5.073 0 2.797 4.254 5.068 9.495 5.068 5.24 0 9.494-2.271 9.494-5.068 0-2.797-4.255-5.073-9.495-5.073zm-1.757 5.608h-1.967c.021.485.294.71.7.71.304 0 .511-.17.564-.343h.645c-.166.586-.644.858-1.234.858-.84 0-1.36-.576-1.36-1.4 0-.798.551-1.405 1.36-1.405.906 0 1.344.762 1.293 1.58zm-1.313-1.078c-.408 0-.618.272-.65.621h1.277c-.05-.372-.205-.621-.627-.621Zm9.835 1.078h-1.967c.02.485.293.71.7.71.304 0 .51-.17.563-.343h.646c-.166.586-.644.858-1.235.858-.839 0-1.359-.576-1.359-1.4 0-.798.551-1.405 1.36-1.405.906 0 1.343.762 1.292 1.58zm-1.313-1.078c-.408 0-.618.272-.651.621h1.278c-.05-.372-.206-.621-.627-.621Zm-13.304 2.23h.73v-1.585h1.579v1.586h.73v-3.683h-.73v1.508h-1.578v-1.508h-.731zm6.5 0h.685V20.25c0-.541.192-.762.588-.762.34 0 .492.216.492.653v1.548h.687V20.05c0-.66-.196-1.097-.974-1.097a.95.95 0 0 0-.814.443h-.015v-.37h-.65v2.66zm3.038 0h.687v-1.44l1.014 1.44h.854l-1.118-1.492.991-1.168h-.82l-.921 1.147v-2.17h-.687v3.684zm5.482 0h.686v-3.683h-.686z" fill="#e1000f"/></g></svg>