<svg width="40" height="40" fill="none" xmlns="http://www.w3.org/2000/svg"><g clip-path="url(#a)" transform="matrix(1.4 0 0 1.4 -8.078 -8)"><g clip-path="url(#b)"><path d="M21.527 20.413c-.031-.882.065-1.971-.05-3.055-.115-1.078-.594-1.788-1.737-2.077-.8-.203-1.609-.19-2.419-.133a9.724 9.724 0 0 0-1.855.305c-.086.023-.178.035-.154.173.078.444.147.89.219 1.335.014.09.039.13.151.105.435-.092.876-.152 1.32-.188.562-.046 1.124-.064 1.686.014.427.059.653.276.727.697.038.215.018.432.034.646.012.16-.048.196-.199.194-.707-.005-1.416-.02-2.122.01-.786.032-1.431.36-1.762 1.106-.453 1.023-.493 2.083-.075 3.127.221.555.666.898 1.257 1.026.953.206 1.84-.019 2.702-.415.14-.064.286-.245.404-.189.114.055.102.28.141.43.028.108.076.146.19.145a34.4 34.4 0 0 1 1.336.002c.16.004.21-.038.21-.204-.008-.95-.004-1.9-.004-3.054zm-2.225 1.366c-.461.24-.93.448-1.46.474-.502.025-.746-.147-.862-.631a2.85 2.85 0 0 1-.046-.977c.042-.376.208-.531.583-.61.272-.057.548-.025.822-.03.32-.006.641 0 .962-.005.108-.002.151.027.147.142-.007.242-.002.485-.002.727 0 .222-.006.445.004.667.004.123-.041.188-.148.243z" fill="#0070b9"/><path d="m20.468 30-1.13-.006c.44-.509.946-.953 1.426-1.421a476.89 476.89 0 0 1 3.593-3.477.673.673 0 0 0 .222-.539c-.006-4.725-.005-9.45-.001-14.174 0-.122-.081-.32.075-.355.216-.048.454-.026.677 0 .083.011.05.145.05.224.002.517 0 1.034 0 1.551 0 4.322-.003 8.644.008 12.965 0 .314-.084.53-.313.75-1.544 1.486-3.073 2.986-4.607 4.482z" fill="#898379"/></g></g><defs><clipPath id="a"><path fill="#fff" d="M0 0h40v40H0z"/></clipPath><clipPath id="b"><path fill="#fff" transform="translate(15 10)" d="M0 0h10.389v20H0z"/></clipPath></defs></svg>