<svg width="40" height="40" fill="none" xmlns="http://www.w3.org/2000/svg"><g clip-path="url(#a)" transform="matrix(1.4 0 0 1.4 -8 -7.849)"><g clip-path="url(#b)"><path d="M10 22.383h6.718c-.946-1.63-1.808-3.175-2.73-4.68-.398-.651-.493-1.158-.039-1.872.993-1.568 1.856-3.216 2.772-4.831h.168a.949.949 0 0 1 .203.349c.466 2.772.742 5.57 1.165 8.349.079.521-.11.974-.364 1.425-1.232 2.183-2.549 4.318-3.736 6.527-.037.075-.082.149-.13.22-.113.19-.336.236-.492.37h-.168l-3.184-5.524z" fill="#00a9c1"/><path d="M16.922 11.374 16.72 11h6.706l-2.73 4.843c-.135.238-.272.474-.487.848h2.8c.614 0 1.236-.013 1.84-.018 2.225-.017 2.044.246 2.975 1.769.776 1.271 1.444 2.363 2.178 3.664-1.179.02-1.15.028-1.422.02-2.555-1.04-4.16-1.709-6.714-2.753-.488-.2-.832-.522-1.092-.981" fill="#ffd900"/><path d="M13.369 28.24c.303-.223.345-.277.498-.357 1.86-.156 3.722-.059 5.585-.054.25 0 .503.047.668.278-.108.133-.07.096-.108.133H13.37z" fill="#61bb47"/><path d="M20.117 28.11c-1.801-.013-3.602-.02-5.403-.041-.289-.003-.619.12-.849-.185.005-.045-.505.401-.498.358 2.02-1.848 4.977-4.016 7.124-5.705.22-.174.301-.144.585-.186.221-.029.444-.027.666-.025 1.138.005 1.204.085 1.03 1.264-.844 1.528-1.65 3.082-2.655 4.52z" fill="#61bb47"/><path d="M30 22.108c-.104.781-.666 1.586-1.018 2.242-.615 1.145-1.303 2.25-1.928 3.389-.28.51-.421.343-.636-.036-.833-1.467-1.68-2.926-2.525-4.385-.468-.81-.475-.853-.946-.038-.054.092-.116.221-.176.31-.24-1.006-.676-.96-2.331-1.008.52-.473.94-.446 1.256-.45 2.217-.026 4.434-.038 6.65.004" fill="#62bb47"/></g></g><defs><clipPath id="a"><path fill="#fff" d="M0 0h40v40H0z"/></clipPath><clipPath id="b"><path fill="#fff" transform="translate(10 11)" d="M0 0h20v17.243H0z"/></clipPath></defs></svg>