<svg width="40" height="40" fill="none" xmlns="http://www.w3.org/2000/svg"><path fill-rule="evenodd" clip-rule="evenodd" d="M28.626 10.393a12.955 12.955 0 0 0-8.89-3.534 12.93 12.93 0 0 0-9.446 4.085c-4.91 5.232-4.662 13.445.551 18.367 5.207 4.91 13.408 4.674 18.318-.533l.018-.018c4.91-5.232 4.662-13.446-.551-18.367z" fill="url(#a)" style="fill:url(#a);stroke-width:1.4"/><path fill-rule="evenodd" clip-rule="evenodd" d="M20.995 5.991c-7.742-.52-14.437 5.325-14.964 13.067-.019.316-.031.626-.031.943.006 7.748 6.273 14.027 14.022 14.04C27.776 34.01 34.037 27.693 34 19.939 33.969 12.605 28.303 6.53 20.995 5.99zm-.973 26.32c-6.831.007-12.367-5.523-12.38-12.354 0-6.837 5.542-12.379 12.38-12.379 6.837 0 12.378 5.542 12.378 12.38-.018 6.824-5.554 12.353-12.378 12.353z" fill="url(#b)" style="fill:url(#b);stroke-width:1.4"/><path fill-rule="evenodd" clip-rule="evenodd" d="M19.984 7.454c-6.911 0-12.521 5.573-12.521 12.454 0 6.874 5.604 12.447 12.521 12.447 6.912 0 12.522-5.573 12.522-12.447 0-6.875-5.61-12.454-12.522-12.454zm8.524 20.928a12.052 12.052 0 0 1-8.524 3.514 12.041 12.041 0 0 1-8.523-3.514 11.927 11.927 0 0 1-3.533-8.48c0-3.31 1.351-6.31 3.533-8.48a12.052 12.052 0 0 1 8.523-3.515c3.33 0 6.348 1.339 8.524 3.515a11.927 11.927 0 0 1 3.533 8.48c0 3.186-1.27 6.242-3.533 8.48z" fill="url(#c)" style="fill:url(#c);stroke-width:1.4"/><path fill-rule="evenodd" clip-rule="evenodd" d="M24.212 21.098c.83-1.742 1.544-3.31 2.368-5.046.031-.062.192-.087.26-.087h3.943c.112 0 .198.112.149.217-1.792 3.763-3.658 7.65-5.455 11.412-.031.062-.075.1-.143.1h-2.548c-.068 0-.111-.038-.148-.1-.862-1.822-1.519-3.676-2.38-5.498-.056-.118-.174-.025-.23.093-.31.663-.657 1.382-1.004 2.058-.075.148-.459.217-.59-.062-.57-1.271-.836-2.647-1.487-3.874a.12.12 0 0 1 0-.143c.639-1.376 1.16-2.734 1.798-4.11.03-.062.068-.08.142-.08h2.505c.074 0 .111.024.142.093.825 1.741 1.562 3.303 2.405 5.058.05.099.211.086.273-.031z" fill="#2a302e" style="stroke-width:1.4"/><path fill-rule="evenodd" clip-rule="evenodd" d="M18.286 25.673a3431.19 3431.19 0 0 1-4.587-9.627c-.031-.062-.074-.087-.149-.087l-3.967.006c-.155 0-.291.15-.248.248 1.798 3.72 3.428 7.6 5.213 11.32.031.061.062.148.13.148h2.61c.068 0 .112-.025.136-.087.385-.806.695-1.432.862-1.785a.134.134 0 0 0 0-.136z" fill="#101614" style="stroke-width:1.4"/><path fill-rule="evenodd" clip-rule="evenodd" d="m23.877 21.247 2.474-5.195c.03-.062.068-.087.142-.087h3.868c.112 0 .192.118.143.223l-5.35 11.233c-.03.061-.068.086-.142.086h-2.319c-.074 0-.111-.025-.142-.086l-2.579-5.443a.154.154 0 0 0-.279 0c-.329.676-.7 1.444-1.035 2.157-.056.118-.199.118-.254.006a365.018 365.018 0 0 1-1.879-3.899.146.146 0 0 1 0-.142c.639-1.37 1.271-2.678 1.928-4.054.031-.062.068-.093.143-.093h2.374c.068 0 .111.025.143.093.824 1.748 1.655 3.471 2.479 5.194.062.124.23.124.285.007z" fill="#d12028" style="stroke-width:1.4"/><path fill-rule="evenodd" clip-rule="evenodd" d="M28.923 28.74c4.903-4.847 4.947-12.744.105-17.647l-.105-.105a12.636 12.636 0 0 0-8.945-3.676c-3.496 0-6.651 1.4-8.938 3.676-4.904 4.847-4.953 12.75-.106 17.647l.106.106a12.662 12.662 0 0 0 8.944 3.676c3.496 0 6.652-1.401 8.939-3.676zM7.488 19.865c0-3.422 1.394-6.527 3.657-8.765a12.535 12.535 0 0 1 8.833-3.632c3.447 0 6.57 1.388 8.833 3.632a12.307 12.307 0 0 1 3.658 8.771c0 3.428-1.395 6.522-3.658 8.772a12.498 12.498 0 0 1-8.833 3.632c-3.453 0-6.57-1.395-8.833-3.639a12.33 12.33 0 0 1-3.657-8.77z" fill="url(#d)" style="fill:url(#d);stroke-width:1.4"/><defs><radialGradient id="a" cx="0" cy="0" r="1" gradientUnits="userSpaceOnUse" gradientTransform="matrix(24.04052 0 0 24.0821 16.73 13.429)"><stop stop-color="#fff"/><stop offset=".065" stop-color="#fff"/><stop offset=".24" stop-color="#F0F0EF"/><stop offset=".44" stop-color="#DEDEDD"/><stop offset="1" stop-color="#A6ADAC"/></radialGradient><radialGradient id="b" cx="0" cy="0" r="1" gradientUnits="userSpaceOnUse" gradientTransform="matrix(31.11864 0 0 31.2095 16.24 11.134)"><stop stop-color="#DEDEDD"/><stop offset=".023" stop-color="#D2D3D2"/><stop offset=".138" stop-color="#A5A9A8"/><stop offset=".241" stop-color="#89908E"/><stop offset=".327" stop-color="#798380"/><stop offset=".385" stop-color="#747E7C"/><stop offset=".445" stop-color="#68716F"/><stop offset=".581" stop-color="#525B58"/><stop offset=".692" stop-color="#454D4B"/><stop offset=".764" stop-color="#404947"/><stop offset=".824" stop-color="#3E4644"/><stop offset=".904" stop-color="#373E3C"/><stop offset=".995" stop-color="#2B312F"/><stop offset="1" stop-color="#2A302E"/></radialGradient><radialGradient id="d" cx="0" cy="0" r="1" gradientUnits="userSpaceOnUse" gradientTransform="matrix(12.6021 0 0 12.505 19.981 19.865)"><stop stop-color="#fff"/><stop offset=".065" stop-color="#fff"/><stop offset=".24" stop-color="#F0F0EF"/><stop offset=".44" stop-color="#DEDEDD"/><stop offset="1" stop-color="#A6ADAC"/></radialGradient><linearGradient id="c" x1="30.599" y1="26.093" x2="26.315" y2="9.228" gradientUnits="userSpaceOnUse" gradientTransform="matrix(1.4 0 0 1.4 -8 -8)"><stop stop-color="#DEDEDD"/><stop offset=".005" stop-color="#D9D9D7"/><stop offset=".105" stop-color="#9E9D9C"/><stop offset=".209" stop-color="#747472"/><stop offset=".319" stop-color="#565856"/><stop offset=".436" stop-color="#424543"/><stop offset=".563" stop-color="#353937"/><stop offset=".708" stop-color="#2D3230"/><stop offset=".907" stop-color="#2A302E"/><stop offset="1" stop-color="#2A302E"/></linearGradient></defs></svg>