<svg width="40" height="40" fill="none" xmlns="http://www.w3.org/2000/svg"><g clip-path="url(#a)" transform="matrix(1.4 0 0 1.4 -7.997 -7.996)"><mask id="b" mask-type="alpha" maskUnits="userSpaceOnUse" x="10" y="10" width="20" height="20"><path fill="#fff" d="M10 10h20v20H10z"/></mask><g mask="url(#b)"><path fill-rule="evenodd" clip-rule="evenodd" d="M15.67 29.022a10.019 10.019 0 0 1-5.67-9.03C10 14.475 14.474 10 19.993 10s9.993 4.474 9.993 9.993c0 3.966-2.324 7.378-5.672 8.993v-6.29c0-.446.234-.678.53-.806 0 0 3.983-1.695 4.174-1.78.514-.336.662-.459.806-.91.112-.356-.013-.958-.013-.958l-5.54 2.822c-.677.233-.931.741-.931 1.293v7.038l-.551.187v-7.416c0-.857-.021-1.483.89-2.013 0 0 4.492-2.437 4.619-2.5.518-.418.772-.565.847-1.102.049-.343-.165-.873-.165-.873l-5.661 3.458c-1.166.72-1.484 1.71-1.484 2.352v8.31l-.572.102v-8.772c0-1.251.805-2.67 1.653-3.094 0 0 4.068-2.585 4.216-2.69.323-.255.54-.475.615-.89.069-.385-.208-.98-.208-.98l-5.195 3.564c-1.42 1.145-2.034 2.434-2.034 3.857v9.085h-.627v-9.085c0-1.423-.615-2.712-2.035-3.857l-5.212-3.58s-.263.607-.19.995c.076.415.291.636.614.89.148.106 4.216 2.691 4.216 2.691.848.424 1.653 1.843 1.653 3.094V29.9l-.572-.068v-8.344c0-.642-.318-1.632-1.483-2.352l-5.679-3.475s-.2.542-.148.89c.08.536.33.684.848 1.102.127.063 4.618 2.5 4.618 2.5.912.53.89 1.156.89 2.013v7.416l-.55-.153v-7.072c0-.552-.254-1.06-.933-1.293l-5.555-2.839s-.115.614.004.975c.149.45.292.574.805.91.19.085 4.174 1.78 4.174 1.78.297.128.531.36.53.807z" fill="#005d9f"/></g></g><defs><clipPath id="a"><path fill="#fff" d="M0 0h40v40H0z"/></clipPath></defs></svg>