<svg width="40" height="40" fill="none" xmlns="http://www.w3.org/2000/svg"><g clip-path="url(#a)" transform="matrix(1.4 0 0 1.4 -8 -7.895)"><path d="M29.888 25.363h-1.244V21.1h1.244z" fill="#59c134"/><path d="M12.35 15.303c-1.107 0-1.045.552-1.045 1.423 0 .257.074.49.282.662.234.184.48.184.763.184h1.263c1.057 0 1.782.59 1.782 1.681v1.3c0 1.154-.738 1.743-1.856 1.743h-3.414v-1.19h3.058c1.143 0 1.032-.6 1.032-1.51 0-.662-.393-.833-.996-.833h-1.263c-.996 0-1.844-.577-1.844-1.644v-1.277c0-.527.197-1.03.603-1.374.369-.307.75-.356 1.217-.356h3.475v1.19zM17.729 18.8v3.496h-1.192v-6.515c0-.49.172-.957.553-1.288.393-.332.811-.38 1.315-.38h3.14v1.19h-2.82c-.554 0-.996.257-.996.858v1.46h3.816V18.8zM24.839 15.303c-.283 0-.517 0-.737.196-.222.196-.271.417-.271.7v3.864c0 .786.295 1.043 1.07 1.043h2.881v1.19h-3.325c-1.167 0-1.818-.675-1.818-1.84v-4.528c0-.564.061-1.043.504-1.436.405-.355.897-.38 1.413-.38h3.239v1.19z" fill="#fff"/><path d="M10.116 25.345v-2.11h1.309v.202H10.34v.744h.924v.201h-.924v.761h1.084v.202zM14.405 25.345l-1.12-1.691v1.69h-.225v-2.108h.214l1.12 1.685v-1.685h.224v2.109zM16.537 25.345v-2.11h1.309v.202h-1.084v.744h.924v.201h-.924v.761h1.084v.202zM20.834 25.345l-.48-.936h-.506v.936h-.226v-2.109h.809c.367 0 .625.222.625.587 0 .308-.187.51-.459.566l.5.956zm-.424-1.907h-.563v.773h.563c.246 0 .421-.127.421-.385s-.175-.388-.42-.388zM24.094 25.12a.753.753 0 0 1-.562.243.753.753 0 0 1-.54-.22c-.198-.198-.198-.405-.198-.853 0-.447 0-.654.198-.852a.747.747 0 0 1 .54-.22c.402 0 .675.261.737.631h-.225c-.06-.266-.249-.43-.512-.43a.51.51 0 0 0-.365.152c-.133.136-.148.278-.148.72 0 .44.015.586.148.722a.508.508 0 0 0 .365.148.513.513 0 0 0 .4-.18c.085-.104.118-.22.118-.382v-.16h-.518v-.199h.743v.335c0 .243-.05.406-.18.545zM26.72 24.474v.87h-.225v-.87l-.628-1.238h.243l.498 1.01.491-1.01h.243z" fill="#59c134"/></g><defs><clipPath id="a"><path fill="#fff" transform="translate(10 14)" d="M0 0h20v11.476H0z"/></clipPath></defs></svg>