<svg width="40" height="40" fill="none" xmlns="http://www.w3.org/2000/svg"><g clip-path="url(#a)" transform="matrix(1.4 0 0 1.4 -8 -8)"><mask id="b" mask-type="alpha" maskUnits="userSpaceOnUse" x="10" y="10" width="20" height="20"><path fill="#fff" d="M10 10h20v20H10z"/></mask><g mask="url(#b)"><circle cx="20.003" cy="20.003" r="10.003" fill="url(#c)" style="fill:url(#c)"/><path fill-rule="evenodd" clip-rule="evenodd" d="M10.363 22.677c2.839-4.168 9.023-7.062 16.195-7.062.844 0 1.68.041 2.489.117A9.997 9.997 0 0 1 30 20.003C30 25.523 25.523 30 20.003 30c-4.6 0-8.474-3.1-9.64-7.323z" fill="#90c0b7"/><path fill-rule="evenodd" clip-rule="evenodd" d="M17.288 29.63a4.553 4.553 0 0 1-.075-.81c0-3.997 4.97-7.24 11.1-7.24.528 0 1.05.028 1.557.069C29.08 26.387 24.96 30 20.003 30a10.1 10.1 0 0 1-2.715-.37z" fill="#fcd031"/><path fill-rule="evenodd" clip-rule="evenodd" d="M23.205 10.528A9.992 9.992 0 0 1 30 20.003c0 4.834-3.435 8.873-7.995 9.798 2.537-2.413 4.162-6.13 4.162-10.305 0-3.462-1.124-6.616-2.962-8.968z" fill="#fff" fill-opacity=".502"/></g></g><defs><linearGradient id="c" x1="13.347" y1="32.446" x2="32.446" y2="26.656" gradientUnits="userSpaceOnUse"><stop stop-color="#087CD0"/><stop offset="1" stop-color="#61A8E6"/></linearGradient><clipPath id="a"><path fill="#fff" d="M0 0h40v40H0z"/></clipPath></defs></svg>