<svg width="40" height="40" fill="none" xmlns="http://www.w3.org/2000/svg"><g clip-path="url(#a)" transform="matrix(1.4 0 0 1.4 -8 -8)"><mask id="b" mask-type="alpha" maskUnits="userSpaceOnUse" x="10" y="18" width="21" height="4"><path fill="#fff" d="M10 18.475h20v3.05H10z"/></mask><g mask="url(#b)" fill-rule="evenodd" clip-rule="evenodd" fill="#fff"><path d="m12.411 19.18.022 2.067c.002.156.103.25.272.25.083 0 .15-.026.196-.073a.242.242 0 0 0 .063-.18l-.074-2.411c-.008-.198-.228-.352-.412-.352-.19 0-.33.104-.425.32l-.57 1.47-.572-1.471c-.036-.096-.15-.32-.424-.32-.184 0-.405.155-.413.353L10 21.245a.242.242 0 0 0 .063.18.265.265 0 0 0 .197.071c.168 0 .27-.093.271-.249l.023-2.068.696 1.667c.048.119.133.186.232.186.102 0 .178-.06.232-.186zM17.732 18.507c-.177 0-.282.099-.282.265v2.429c0 .161.115.27.286.27h.892c.308 0 .558-.089.723-.255.147-.147.224-.355.222-.602-.002-.367-.317-.692-.733-.724l-.003-.005c.297-.063.48-.41.48-.675 0-.408-.317-.703-.754-.703zm.818 2.51h-.57v-.837h.518c.325 0 .519.15.519.402 0 .265-.183.436-.467.436zm-.173-1.29h-.397v-.768h.397c.245 0 .41.148.41.367 0 .248-.157.402-.41.402zM23.8 18.507c-.152 0-.234.123-.234.24 0 .115.061.238.235.238h.53v2.233c0 .174.1.278.266.278s.265-.104.265-.278v-2.233h.532c.173 0 .235-.123.235-.239 0-.116-.083-.24-.235-.24zM26.544 18.48c-.166 0-.265.105-.265.28v2.458c0 .174.099.278.265.278s.265-.104.265-.278v-2.459c0-.174-.099-.278-.265-.278zM29.73 18.48a.31.31 0 0 0-.232.136l-1.771 2.45a.334.334 0 0 0-.063.187c0 .145.109.243.27.243a.256.256 0 0 0 .22-.118l1.789-2.486a.254.254 0 0 0 .057-.155c0-.15-.11-.256-.27-.256z"/><path d="M27.934 18.48c-.159 0-.27.106-.27.257 0 .053.02.106.057.155l1.79 2.486c.056.08.128.118.22.118.16 0 .27-.098.27-.243a.334.334 0 0 0-.063-.186l-1.77-2.45a.311.311 0 0 0-.234-.136zM15.163 18.475c-.841 0-1.526.684-1.526 1.525 0 .841.684 1.525 1.526 1.525.84 0 1.525-.684 1.525-1.525 0-.841-.684-1.525-1.525-1.525zm0 2.527a1.003 1.003 0 0 1 0-2.004 1.003 1.003 0 0 1 0 2.004zM21.722 18.475c-.84 0-1.525.684-1.525 1.525 0 .841.684 1.525 1.525 1.525.841 0 1.526-.684 1.526-1.525 0-.841-.685-1.525-1.526-1.525zm0 2.527a1.003 1.003 0 0 1 0-2.004 1.003 1.003 0 0 1 0 2.004z"/></g></g><defs><clipPath id="a"><path fill="#fff" d="M0 0h40v40H0z"/></clipPath></defs></svg>