<svg width="40" height="40" fill="none" xmlns="http://www.w3.org/2000/svg"><g clip-path="url(#a)" transform="matrix(1.4 0 0 1.4 -7.6 -7.94)"><g clip-path="url(#b)"><path d="m29 18.063-.248.71c-.326.935-.653 1.87-.978 2.807-.016.047-.038.062-.087.062a102.88 102.88 0 0 0-1.178 0c-.06 0-.063-.017-.046-.066l1.153-3.298.062-.182c.008-.025.018-.042.052-.042l1.26.004.01.005z" fill="#3f8d71"/><path d="M19.202 20.046v-1.4c0-.072-.004-.145-.018-.218a.222.222 0 0 0-.159-.18c-.096-.034-.197-.044-.295-.064-.06-.013-.022-.058-.03-.088-.01-.031.012-.037.04-.037.555.004 1.111-.008 1.667.007.186.005.37.032.55.082.424.118.713.385.84.804.18.586.178 1.181.008 1.77-.146.506-.509.775-1.018.865a4.637 4.637 0 0 1-.775.054c-.25.002-.501-.001-.752.002-.05 0-.06-.014-.059-.06.002-.513.001-1.025 0-1.537zm.588-.197v1.227c.001.032.002.064.007.096.018.12.06.17.18.195.173.039.347.02.52-.005.429-.063.67-.291.767-.715.06-.257.07-.518.07-.78 0-.285-.004-.569-.07-.849-.082-.353-.288-.587-.65-.667a1.935 1.935 0 0 0-.54-.033c-.208.012-.284.09-.284.297v1.234zM14.553 21.641l-.577.001c-.034 0-.04-.023-.053-.044l-.752-1.321c-.046-.08-.094-.158-.135-.24-.021-.042-.048-.053-.091-.05a1.569 1.569 0 0 1-.2-.001c-.055-.004-.069.014-.068.068.002.482.001.965.001 1.447 0 .14 0 .14-.137.14-.128 0-.257-.002-.386.002-.05.001-.064-.012-.064-.064.002-.935.001-1.87.001-2.805 0-.103 0-.206-.012-.31-.013-.118-.072-.196-.188-.224a3.34 3.34 0 0 0-.27-.054c-.067-.011-.03-.06-.037-.09-.008-.04.024-.037.05-.036.546.006 1.093-.019 1.64.013.264.016.522.072.75.219a.785.785 0 0 1 .37.649c.007.12-.001.239-.033.355-.077.286-.274.452-.547.54a1.432 1.432 0 0 1-.173.042c-.046.009-.054.022-.03.065.21.371.418.744.626 1.116.1.178.2.356.298.534.008.014.02.026.017.048zm-1.875-2.547v.583c0 .027-.007.057.038.056.179-.004.359.012.536-.023.242-.048.435-.16.519-.407a.962.962 0 0 0 .03-.402c-.028-.307-.204-.507-.502-.565a1.365 1.365 0 0 0-.37-.019c-.172.014-.235.077-.245.25-.01.184-.004.368-.006.527zM14.683 19.858c0-.348.02-.693.135-1.025.163-.468.494-.73.98-.805.252-.039.503-.039.754.01.476.092.772.385.918.84.086.266.116.541.124.82.009.349-.003.697-.095 1.037-.085.315-.235.587-.521.766-.193.12-.409.173-.632.19-.284.02-.565.006-.835-.094-.362-.135-.582-.403-.702-.762a2.747 2.747 0 0 1-.126-.819v-.158zm.582-.024c.005.33.013.656.111.971.108.347.304.602.697.636.337.029.608-.096.761-.404.098-.196.136-.408.154-.624.03-.364.029-.729 0-1.093a1.9 1.9 0 0 0-.15-.632c-.215-.48-.73-.505-1.049-.356-.227.106-.34.306-.412.533-.1.317-.104.645-.112.969z" fill="#fff"/><path d="M9.513 20.061v-1.426c0-.065-.004-.129-.014-.192a.224.224 0 0 0-.16-.195 1.696 1.696 0 0 0-.296-.062c-.07-.01-.032-.058-.04-.088-.008-.037.019-.039.047-.039.565 0 1.13-.003 1.696.003.201.002.396.05.571.156.289.176.412.446.427.772a1.22 1.22 0 0 1-.081.533c-.119.283-.352.417-.639.478-.27.057-.543.047-.816.048-.104 0-.104 0-.104.106 0 .47 0 .942.002 1.413 0 .06-.014.077-.076.075a7.585 7.585 0 0 0-.455 0c-.053.001-.063-.015-.063-.065.002-.506.002-1.011.002-1.516zm.593-.932h-.002v.613c0 .025-.01.056.037.055.156-.005.312.01.467-.017.243-.042.423-.164.499-.407.069-.221.069-.447.01-.671a.468.468 0 0 0-.371-.355 1.347 1.347 0 0 0-.431-.03c-.147.013-.206.072-.209.22-.003.197 0 .394 0 .592z" fill="#fff"/><path d="M25.87 21.64c-.114 0-.23-.002-.344.002-.056.002-.059-.014-.042-.061l.418-1.198c.264-.755.53-1.51.791-2.265.018-.05.039-.065.09-.064.23.003.46.003.69 0 .051 0 .062.008.044.06-.169.477-.334.954-.5 1.43-.236.676-.473 1.351-.706 2.027-.02.056-.046.073-.102.071-.113-.004-.226-.001-.338-.001z" fill="#3f8d71"/><path d="m26.558 18.055-.248.714c-.326.933-.652 1.865-.976 2.8-.02.054-.043.073-.101.072-.168-.005-.336-.002-.503-.002-.08 0-.08 0-.055-.071l.675-1.93c.177-.508.355-1.015.53-1.523.017-.048.039-.062.087-.061.193.003.386.001.59.001zM23.514 21.639c-.163.009-.163.009-.22-.151l-1.01-2.81c-.023-.062-.048-.124-.073-.185a.419.419 0 0 0-.323-.27c-.063-.011-.126-.027-.189-.038-.067-.011-.027-.06-.034-.092-.008-.034.02-.034.043-.034.317 0 .635.002.952 0 .052-.001.052.037.062.066.163.452.324.905.486 1.357l.532 1.487-.037.117-.19.553z" fill="#fff"/><path d="M24.25 21.64c-.063 0-.128-.002-.192.001-.053.003-.055-.014-.04-.059.124-.349.244-.699.366-1.048.282-.808.566-1.616.847-2.425.015-.042.032-.057.076-.056.127.004.253.004.38 0 .052 0 .054.014.038.059l-.824 2.36c-.128.37-.258.737-.384 1.107-.018.051-.043.066-.094.062-.057-.004-.115 0-.172 0zM23.514 21.639l.189-.552.037-.118c.084-.237.17-.473.252-.71.25-.716.5-1.431.748-2.148.015-.043.034-.06.082-.057.068.005.138.003.206 0 .048-.001.065.005.045.06-.154.435-.305.871-.457 1.307-.248.711-.498 1.422-.743 2.135-.024.07-.055.093-.125.087-.078-.007-.156-.003-.234-.004z" fill="#3f8d71"/></g></g><defs><clipPath id="a"><path fill="#fff" d="M0 0h40v40H0z"/></clipPath><clipPath id="b"><path fill="#fff" transform="translate(9 18)" d="M0 0h20v3.699H0z"/></clipPath></defs></svg>