<svg width="40" height="40" fill="none" xmlns="http://www.w3.org/2000/svg"><g clip-path="url(#a)" transform="matrix(1.4 0 0 1.4 -8 -8.169)"><g clip-path="url(#b)"><path d="M17.579 21.328c.273-.763.548-1.524.82-2.287.414-1.161.84-2.32 1.231-3.488.094-.278.226-.348.495-.343.62.016 1.241.023 1.861-.003.298-.012.427.094.52.367.663 1.932 1.342 3.858 2.047 5.88.186-.577.353-1.07.505-1.568.437-1.442.876-2.882 1.296-4.33.08-.278.212-.353.485-.35.923.016 1.848.023 2.77 0 .379-.011.466.053.339.443-1.14 3.492-2.257 6.99-3.384 10.485-.224.698-.228.697-.982.697-.693 0-1.386-.021-2.077.008-.309.014-.415-.102-.502-.372-.597-1.846-1.208-3.69-1.816-5.536-.032-.096-.07-.188-.136-.364l-.892 2.649c-.364 1.088-.734 2.175-1.083 3.266-.082.258-.188.368-.477.36a59.447 59.447 0 0 0-2.555 0c-.249.003-.344-.086-.417-.318-.892-2.828-1.796-5.649-2.698-8.472-.167-.524-.51-.771-1.06-.76a3.287 3.287 0 0 0-1.054.217c-.228.084-.312.031-.353-.192-.145-.776-.298-1.553-.448-2.33-.03-.15-.031-.273.132-.365 1.388-.787 3.711-.927 4.988.169.893.766 1.219 1.814 1.473 2.904.282 1.21.587 2.417.881 3.626.031.002.061.003.09.007z" fill="#e85352"/></g></g><defs><clipPath id="a"><path fill="#fff" d="M0 0h40v40H0z"/></clipPath><clipPath id="b"><path fill="#fff" transform="translate(10 14)" d="M0 0h20v12.845H0z"/></clipPath></defs></svg>