<svg width="40" height="40" fill="none" xmlns="http://www.w3.org/2000/svg"><g clip-path="url(#a)" transform="matrix(1.4 0 0 1.4 -8 -8)" fill-rule="evenodd" clip-rule="evenodd"><path d="M12.246 14.121c.317 1.693 1.724 3.095 3.388 3.638l4.326 1.413c.557.182 1.086.469 1.56.827 1.01-.765 1.766-1.854 2.008-2.946a13.845 13.845 0 0 0-3.524-1.743l-1.709-.558-2.666.87c-1.694.554-3.105-.188-3.383-1.501zm.198 12.966 7.56 2.468c2.452.801 4.641.484 6.072-.656 1.079-.859 1.729-2.183 1.729-3.856 0-2.054-.56-3.714-1.4-5.046-.787 1.25-1.821 2.214-2.872 2.945.054.245.084.491.084.733 0 1.825-1.64 2.773-3.657 2.115l-1.663-.543-5.584 1.823a.464.464 0 0 1-.269.017" fill="#164c20"/><path d="M27.8 14.958c0-1.674-.65-2.998-1.729-3.857-1.431-1.14-3.62-1.457-6.073-.656l-7.287 2.38c-.284.093-.515.362-.515.812 0 1.605 1.54 2.604 3.433 1.986l4.326-1.413c2.016-.658 3.656.29 3.657 2.115 0 1.825-1.64 3.845-3.656 4.504L15.63 22.24c-1.893.618-3.433 2.348-3.433 4.354 0 .46.231.568.516.475L20 24.69c2.452-.8 7.8-3.383 7.8-9.732z" fill="#23903f"/></g><defs><clipPath id="a"><path fill="#fff" d="M0 0h40v40H0z"/></clipPath></defs></svg>