<svg width="40" height="40" fill="none" xmlns="http://www.w3.org/2000/svg"><g clip-path="url(#a)" transform="matrix(1.4 0 0 1.4 -8 -8)"><mask id="b" mask-type="alpha" maskUnits="userSpaceOnUse" x="10" y="13" width="20" height="14"><path fill="#fff" d="M10 13.499h20v13.002H10z"/></mask><g mask="url(#b)"><path fill="#2765ae" d="M13.446 13.499h13.107v13.002H13.446z"/><path fill-rule="evenodd" clip-rule="evenodd" d="m15.79 23.281-2.344.47v.856c.928-.147 2.639-.92 3.361-.413 2.005 1.406 4.351 1.51 6.316.036.677-.509 2.249.217 3.43.454v-.856c-.419-.086-2.06-.443-2.354-.604.445-.912.87-1.34 1.005-2.64.59-5.705-7.078-8.14-9.807-3.123-.46.846-.713 1.846-.62 3.02.11 1.383.6 1.833 1.013 2.8z" fill="#fefefe"/><path fill-rule="evenodd" clip-rule="evenodd" d="M18.66 19.694c.622.174 2.156.588 2.744.397.148-1.283.048-2.52-.233-3.755-.17-.749-.611-.847-1.003-.194-.604 1.006-1.397 2.146-1.509 3.552zM19.125 24.262c.863-.022 1.8-2.376 1.973-3.09l-2.58-.422c0 .972.128 2.918.607 3.512zM22.392 20.293l1.89.044c.022-1.994-.888-3.376-2.06-3.967.168 1.55.31 2.262.17 3.923zM15.91 18.785c.297.223 1.341.555 1.758.616.16-.678.336-1.277.61-1.91.254-.59.606-1.135.838-1.659-1.442.026-2.957 1.708-3.207 2.952zM20.813 24.226a3.958 3.958 0 0 0 2.043-1c.418-.399 1.052-1.13 1.165-1.877l-1.801-.06ZM17.83 23.67c-.17-1.173-.334-1.93-.292-3.189l-1.82-.616c-.071 1.716 1.007 3.367 2.112 3.805zM26.554 23.828l3.222 1.209c.42.159.174.254-.122.337.044.41.029.485-.324.355l-2.776-1.045zM13.446 23.752l-3.223 1.208c-.418.16-.173.254.123.337-.044.41-.029.486.324.355l2.776-1.044z" fill="#2765ae"/></g></g><defs><clipPath id="a"><path fill="#fff" d="M0 0h40v40H0z"/></clipPath></defs></svg>