<svg width="40" height="40" fill="none" xmlns="http://www.w3.org/2000/svg"><g clip-path="url(#a)" transform="matrix(1.4 0 0 1.4 -7.992 -7.997)"><mask id="b" mask-type="alpha" maskUnits="userSpaceOnUse" x="10" y="15" width="21" height="10"><path fill="#fff" d="M10 15.718h20v8.564H10z"/></mask><g mask="url(#b)" fill-rule="evenodd" clip-rule="evenodd" fill="#fff"><path d="M11.787 16.674c-.083-.319-.26-.491-.6-.491-.366 0-.585.188-.585.46 0 .182.125.35.37.448l.538.204c.429.162.878.387.878 1.024 0 .631-.475 1.06-1.19 1.06-.643 0-1.082-.314-1.191-.83-.032-.163.052-.335.255-.335.126 0 .215.068.256.209.068.287.267.49.664.49.422 0 .657-.224.657-.537 0-.292-.193-.439-.485-.554l-.522-.203c-.45-.173-.763-.45-.763-.94 0-.538.434-.961 1.118-.961.59 0 1.023.313 1.112.815.031.172-.068.334-.256.334a.243.243 0 0 1-.256-.193zM15.39 16.016v2.198c0 .715-.48 1.165-1.185 1.165-.705 0-1.185-.45-1.185-1.165v-2.198c0-.162.114-.272.276-.272.167 0 .282.11.282.272v2.198c0 .392.225.658.627.658.397 0 .627-.272.627-.658v-2.198c0-.162.114-.272.276-.272.167 0 .282.11.282.272zM18.471 18.971a.28.28 0 0 1 .021.1.292.292 0 0 1-.287.281.29.29 0 0 1-.261-.177l-.538-1.201c-.031.005-.058.005-.089.005h-.58v1.102c0 .162-.12.272-.281.272-.167 0-.277-.11-.277-.272v-3.04c0-.161.104-.27.271-.27h.904c.705 0 1.211.427 1.211 1.085 0 .46-.24.81-.61.982zm-1.728-2.705v1.228h.569c.423 0 .694-.246.694-.627 0-.366-.271-.6-.694-.6zM19.13 15.77h1.895c.146 0 .245.11.245.256 0 .146-.099.25-.245.25h-.669v2.805c0 .162-.115.271-.282.271-.162 0-.276-.11-.276-.271v-2.804h-.669c-.146 0-.245-.11-.245-.256 0-.146.099-.25.245-.25zM22.325 17.765v1.06h1.373c.147 0 .246.11.246.256 0 .146-.1.25-.245.25h-1.661c-.167 0-.272-.109-.272-.27v-3.02c0-.161.105-.27.272-.27h1.608c.152 0 .25.104.25.25 0 .146-.098.256-.25.256h-1.32v.997h1.184c.147 0 .246.105.246.25 0 .147-.1.246-.245.246h-1.186zM26.832 18.428c-.068.595-.523.95-1.165.95-.715 0-1.206-.449-1.206-1.164v-1.332c0-.715.449-1.164 1.206-1.164.637 0 1.081.35 1.165.935.02.167-.084.318-.267.318-.151 0-.24-.083-.26-.203-.063-.345-.257-.549-.648-.549-.402 0-.637.272-.637.658v1.337c0 .392.24.658.637.658.391 0 .595-.209.647-.554.021-.13.11-.219.261-.219.178.005.293.146.267.33zM29.866 18.22c0 .715-.491 1.164-1.217 1.164-.72 0-1.212-.45-1.212-1.165v-1.337c0-.715.45-1.164 1.212-1.164.726 0 1.217.45 1.217 1.165zm-1.87 0c0 .391.24.657.653.657.418 0 .653-.271.653-.658v-1.337c0-.391-.24-.658-.653-.658-.418 0-.653.272-.653.658zM17.39 22.506h.773c.084 0 .136.053.136.136v.59c0 .637-.45 1.034-1.107 1.034-.663 0-1.128-.428-1.128-1.112v-1.43c0-.69.46-1.113 1.123-1.113.658 0 1.112.36 1.112.966a.13.13 0 0 1-.136.13c-.083 0-.136-.052-.136-.14 0-.397-.302-.705-.845-.705-.544 0-.846.36-.846.835v1.478c0 .475.308.835.85.835.549 0 .847-.323.847-.757v-.501h-.643a.115.115 0 0 1-.12-.12c0-.073.047-.126.12-.126zM21.108 24.031a.139.139 0 0 1-.125.204.148.148 0 0 1-.13-.089l-.638-1.4c-.062.006-.13.011-.193.011h-.73V24.1c0 .084-.058.136-.142.136-.083 0-.14-.052-.14-.136v-3.31c0-.084.051-.136.135-.136h.877c.695 0 1.19.407 1.19 1.039 0 .48-.281.846-.715.987zm-1.817-3.122v1.613h.72c.56 0 .91-.329.91-.82 0-.48-.35-.788-.91-.788h-.72zM24.017 23.149c0 .69-.46 1.112-1.123 1.112s-1.123-.428-1.123-1.112v-1.431c0-.69.46-1.112 1.123-1.112s1.123.428 1.123 1.112zm-1.969.02c0 .476.303.836.846.836.543 0 .846-.36.846-.835v-1.478c0-.475-.303-.836-.846-.836-.543 0-.846.36-.846.836zM26.947 20.768v2.386c0 .69-.455 1.112-1.107 1.112-.653 0-1.108-.428-1.108-1.112v-2.386c0-.084.063-.136.147-.136.083 0 .135.052.135.136v2.407c0 .475.298.835.826.835.527 0 .825-.36.825-.835v-2.407c0-.084.057-.136.14-.136.084 0 .141.052.141.136zM27.756 20.794c0-.084.052-.136.136-.136h.877c.694 0 1.19.439 1.19 1.117 0 .68-.496 1.128-1.19 1.128h-.731V24.1c0 .084-.058.136-.141.136-.084 0-.141-.052-.141-.136zm.282.11v1.754h.72c.56 0 .91-.35.91-.882 0-.528-.35-.873-.91-.873z"/></g></g><defs><clipPath id="a"><path fill="#fff" d="M0 0h40v40H0z"/></clipPath></defs></svg>