<svg width="40" height="40" fill="none" xmlns="http://www.w3.org/2000/svg"><mask id="a" mask-type="alpha" maskUnits="userSpaceOnUse" x="10" y="10" width="20" height="20"><path fill="#fff" d="M10 10h20v20H10z"/></mask><g mask="url(#a)" transform="matrix(1.4 0 0 1.4 -7.968 -7.942)"><path fill-rule="evenodd" clip-rule="evenodd" d="M23.957 17.93h5.882V10h-7.902v5.969a1.948 1.948 0 0 1-1.953 1.964c-1.094 0-2.008-.878-2.008-1.964V10H10v7.93h6.051c1.094 0 1.98.878 1.98 1.968a1.975 1.975 0 0 1-1.98 1.969H10v7.843h7.976V23.8c0-1.086.914-1.965 2.008-1.965a1.95 1.95 0 0 1 1.953 1.965v5.91h7.902v-7.843h-5.882a1.975 1.975 0 0 1-1.98-1.969c0-1.086.886-1.969 1.98-1.969z" fill="#f37014"/></g></svg>