<svg width="40" height="40" fill="none" xmlns="http://www.w3.org/2000/svg"><g clip-path="url(#a)" transform="matrix(1.4 0 0 1.4 -8 -8)" fill-rule="evenodd" clip-rule="evenodd" fill="#e88200"><path d="M13.232 17.064h-2.738a.5.5 0 0 0-.494.494.49.49 0 0 0 .494.494h2.738a1.072 1.072 0 1 1 0 2.146h-2.738a.5.5 0 0 0-.494.494v1.693a.5.5 0 0 0 .494.494.5.5 0 0 0 .494-.494v-1.2h2.244c1.13 0 2.06-.917 2.06-2.06-.013-1.13-.93-2.06-2.06-2.06zM23.465 17.064a.463.463 0 0 0-.452.31l-1.397 3.628c-.113-.31-1.37-3.641-1.37-3.641a.484.484 0 0 0-.465-.297.506.506 0 0 0-.452.31l-1.383 3.642c-.113-.31-1.397-3.641-1.397-3.641a.463.463 0 0 0-.452-.31.48.48 0 0 0-.494.48l.043.183 1.834 4.84c.071.184.254.311.466.311a.516.516 0 0 0 .452-.296s1.1-2.893 1.383-3.642c.113.31 1.383 3.642 1.383 3.642a.49.49 0 0 0 .452.31.497.497 0 0 0 .466-.296l1.849-4.841.028-.184a.494.494 0 0 0-.494-.508zM27.036 16.994c-1.637 0-2.964 1.34-2.964 3.006 0 1.651 1.327 3.006 2.964 3.006S30 21.666 30 20c0-1.666-1.327-3.006-2.964-3.006Zm0 5.024c-1.087 0-1.976-.903-1.976-2.018 0-1.115.89-2.018 1.976-2.018 1.087 0 1.976.903 1.976 2.018 0 1.115-.89 2.018-1.976 2.018z"/></g><defs><clipPath id="a"><path fill="#fff" d="M0 0h40v40H0z"/></clipPath></defs></svg>