<svg width="40" height="40" fill="none" xmlns="http://www.w3.org/2000/svg"><mask id="a" mask-type="alpha" maskUnits="userSpaceOnUse" x="10" y="14" width="20" height="12"><path fill="#fff" d="M10 14.063h20v11.875H10z"/></mask><g mask="url(#a)" transform="matrix(1.4 0 0 1.4 -7.999 -7.988)"><path fill-rule="evenodd" clip-rule="evenodd" d="M13.006 20.297h1.634V15.38h1.51v-1.212h-4.654v1.212h1.51zM15.362 20.297h1.66l.483-1.308h2.301l.457 1.308h1.79l-2.361-6.13H17.69zm4.058-2.468h-1.538l.791-2.396h.018zM27.624 16.715h-2.538v1.16h.957v1.211a1.42 1.42 0 0 1-.58.106c-1.194 0-2.046-.73-2.046-1.934 0-1.43 1.089-1.984 2.415-1.984.386 0 .984.097 1.493.395l.133-1.334c-.598-.229-1.45-.272-1.854-.272-2.248 0-3.873.886-3.873 3.195 0 2.32 1.888 3.145 3.521 3.145a9 9 0 0 0 2.372-.28z" fill="#fff"/><path fill="#fff" d="M10.569 23.676h.337v2.161h-.337z"/><path fill-rule="evenodd" clip-rule="evenodd" d="M11.629 24.298a.534.534 0 0 1 .032.204v.003a.495.495 0 0 1 .457-.243c.21 0 .35.081.434.26a.54.54 0 0 1 .486-.26c.197 0 .346.078.414.214.049.1.055.14.055.444v.917h-.317v-.914c0-.159-.01-.217-.039-.272-.042-.068-.123-.107-.233-.107-.217 0-.324.133-.324.405v.888h-.318v-.878c0-.194-.006-.24-.032-.292-.039-.077-.126-.123-.237-.123-.132 0-.24.062-.288.169a.578.578 0 0 0-.042.25v.874h-.317v-1.121c0-.266-.004-.305-.04-.418zM14.188 24.298a.536.536 0 0 1 .032.204v.003a.495.495 0 0 1 .457-.243c.21 0 .35.081.434.26a.54.54 0 0 1 .486-.26c.197 0 .346.078.414.214.049.1.055.14.055.444v.917h-.317v-.914c0-.159-.01-.217-.039-.272-.042-.068-.123-.107-.233-.107-.217 0-.324.133-.324.405v.888h-.318v-.878c0-.194-.006-.24-.032-.292-.039-.077-.126-.123-.237-.123-.132 0-.24.062-.288.169a.576.576 0 0 0-.042.25v.874h-.317v-1.121c0-.266-.004-.305-.04-.418zM17.826 25.069c0 .473-.298.81-.716.81-.425 0-.72-.337-.72-.823 0-.46.305-.8.72-.8.418 0 .716.34.716.813zm-1.108-.007c0 .337.155.558.392.558.23 0 .389-.224.389-.551 0-.327-.16-.554-.39-.554s-.391.227-.391.547zM18.464 23.663v.845c.123-.174.246-.246.431-.246.36 0 .612.334.612.804 0 .476-.266.806-.648.806a.44.44 0 0 1-.418-.246.782.782 0 0 1-.029.21h-.282c.017-.116.017-.152.017-.417v-1.756Zm-.003 1.41c0 .323.14.53.356.53.22 0 .363-.21.363-.544 0-.324-.133-.528-.347-.528-.23 0-.372.207-.372.541zM20.2 23.841c0 .12-.08.201-.2.201-.12 0-.201-.08-.201-.194 0-.123.084-.208.207-.208.113 0 .194.085.194.201zm-.038.457v1.539h-.324v-1.54z" fill="#fff"/><path fill="#fff" d="M20.576 23.663h.324v2.174h-.324z"/><path fill-rule="evenodd" clip-rule="evenodd" d="M21.681 23.841c0 .12-.081.201-.2.201-.12 0-.202-.08-.202-.194 0-.123.084-.208.208-.208.113 0 .194.085.194.201zm-.039.457v1.539h-.324v-1.54zM22.287 25.137c.013.31.155.48.408.48.155 0 .256-.062.324-.202l.285.02c-.085.285-.305.444-.62.444-.433 0-.718-.314-.718-.794 0-.499.282-.83.71-.83.404 0 .663.318.663.814 0 .01 0 .039-.003.068h-1.05zm.725-.237c-.029-.259-.146-.388-.347-.388-.197 0-.317.126-.369.388zM23.926 24.298a.617.617 0 0 1 .032.21.525.525 0 0 1 .464-.246c.194 0 .362.091.437.237.052.1.061.168.061.453v.885h-.317v-.833c0-.184-.01-.256-.039-.32-.042-.091-.126-.14-.24-.14a.326.326 0 0 0-.291.169c-.04.068-.055.158-.055.304v.82h-.318v-1.001c0-.376 0-.389-.042-.538h.308zM27.055 23.67l.739 2.167h-.347l-.158-.506h-.787l-.163.506h-.343l.735-2.167zm-.162.401-.304.972h.612zM29.601 24.742v.894c-.23.162-.482.24-.758.24-.596 0-.965-.428-.965-1.121 0-.674.37-1.118.933-1.118.253 0 .473.094.606.26.093.116.136.236.155.43h-.298c-.049-.266-.198-.398-.457-.398-.369 0-.59.31-.59.826 0 .525.227.829.616.829.159 0 .33-.052.473-.14v-.44h-.437v-.262z" fill="#fff"/><path d="M10.35 22.03h19.293" stroke="#fff" stroke-width="1.63"/></g></svg>