<svg width="40" height="40" fill="none" xmlns="http://www.w3.org/2000/svg"><g clip-path="url(#a)" transform="matrix(1.4 0 0 1.4 -8 -8)"><path fill-rule="evenodd" clip-rule="evenodd" d="M14.316 14.59 10 17.111v5.775l4.316 2.523H25.67L30 22.887v-5.775l-4.331-2.523zm.152.531h11.064l3.936 2.295v5.167l-3.936 2.295H14.468l-3.951-2.295v-5.167zm-.638 2.934-.395.03-.274.06-.228.122-.213.213-.136.228-.076.243-.03.228.03.243.106.228.152.228.213.183 1.003.699.076.045.09.137.031.137-.015.137-.045.106-.107.106-.121.03h-.183l-.106-.03-.107-.09-.06-.137v-.396h-.958v.259l.03.258.092.243.152.243.045.061.198.137.167.06.395.062.274.015.38-.03h.03l.228-.061.228-.122.228-.213.137-.228.06-.243.031-.228-.03-.243-.092-.228-.167-.228-.213-.182-1.033-.7-.046-.06-.106-.137-.03-.137v-.137l.06-.106.107-.106.121-.03h.183l.106.03.107.09.06.138.016.167v.228h.957v-.259l-.03-.258-.076-.243-.168-.243-.06-.061-.167-.137-.168-.06-.38-.046zm1.504 0v.79h.927v3.283h.958v-3.283h.912v-.79zm3.663 0-1.125 4.073h1.003l.198-.79h1.094l.182.79h1.019l-1.14-4.073Zm2.736 0v4.073h.957v-1.809h.866v1.808h.958v-4.072h-.958v1.52h-.866v-1.52zm3.647 0v4.073h2.219v-.775h-1.262v-3.298zm-5.76 1.033.365 1.52h-.73z" fill="#fff"/></g><defs><clipPath id="a"><path fill="#fff" d="M0 0h40v40H0z"/></clipPath></defs></svg>