<svg width="40" height="40" fill="none" xmlns="http://www.w3.org/2000/svg"><g clip-path="url(#a)" transform="matrix(1.4 0 0 1.4 -8 -8.12)" fill-rule="evenodd" clip-rule="evenodd"><path d="M30 11.873H12.966L10 28.728h17.04z" fill="#008d58"/><path d="M13.742 24.918c0 .246-.098.526-.384.685.135.09.232.256.232.492 0 .536-.404.873-.927.873-.86 0-1.18-.004-1.18-.004l.482-2.7h1.032c.458 0 .745.25.745.654z" fill="#fff"/><path d="m12.35 25.842-.109.58h.391c.189 0 .293-.165.293-.337 0-.105-.047-.243-.182-.243zm.181-1.035-.098.543h.361c.223 0 .28-.23.28-.324s-.037-.219-.165-.219z" fill="#008d58"/><path d="M17.373 25.191c.03-.256-.044-.41-.23-.41a.297.297 0 0 0-.256.127c-.07.091-.134.32-.205.715-.03.172-.047.347-.05.522 0 .169.073.317.245.317.186 0 .31-.155.358-.411h.677c-.125.701-.556.978-1.068.978-.627 0-.877-.415-.877-.826 0-.196.017-.391.047-.584.074-.434.182-.842.398-1.082a.999.999 0 0 1 .769-.323c.539 0 .87.323.87.85 0 .05 0 .09-.004.13zm2.801 1.773h-.694l.185-1.068h-.715l-.188 1.068h-.681l.472-2.686h.68l-.185 1.035h.715l.185-1.035h.691zm2.582-2.106h-.613l-.364 2.103h-.705l.378-2.103h-.637l.097-.584h1.945zm1.517 2.106h-1.618l.479-2.686h.7l-.38 2.103h.917zm2.37-2.117h-1.055l-.091.476h.903l-.097.57h-.9l-.092.498h1.066l-.095.57H24.55l.475-2.687h1.712zm-10.77 0h-1.055l-.091.476h.903l-.098.57h-.9l-.09.498h1.064l-.094.57h-1.733l.476-2.687h1.712z" fill="#fff"/></g><defs><clipPath id="a"><path fill="#fff" d="M0 0h40v40H0z"/></clipPath></defs></svg>