<svg width="40" height="40" fill="none" xmlns="http://www.w3.org/2000/svg"><mask id="a" mask-type="alpha" maskUnits="userSpaceOnUse" x="13" y="10" width="14" height="20"><path fill="#fff" d="M13.042 10h13.916v20H13.042z"/></mask><g mask="url(#a)" transform="matrix(1.4 0 0 1.4 -8 -8)" fill-rule="evenodd" clip-rule="evenodd" fill="#f58113"><path d="M23.093 10c.051.61.631 2.179-.174 3.382l-1.966-.309c-2.742-.36-5.605 1.015-6.917 3.38-.724 1.308-1.259 2.951-.855 4.684l.131-.51c.423-2.218 1.755-3.174 3.955-3.626 2.22-.456 4.335-.467 5.554-2.667.328-.591.625-1.252.724-2.016a4.76 4.76 0 0 0-.05-1.32c-.036-.194-.101-.371-.16-.54-.063-.174-.109-.36-.242-.458ZM16.913 30c-.051-.61-.227-.45-.234-1.808-.004-.719.121-1.203.409-1.632 1.05 0 2.532 1.058 5.881-.3.366-.148 1.128-.648 1.421-.911.545-.49.6-.502 1.103-1.171.338-.451.625-.933.865-1.467.404-.901.737-2.443.543-3.457l-.134-.45c-.013.593-.352 1.595-.643 2.098-.335.578-.803 1.003-1.386 1.355-.247.15-.64.306-.937.404-1.748.58-4.09.578-5.356 1.524-.495.369-.98.898-1.28 1.46-.696 1.307-1.002 2.475-.494 3.897zM14.697 23.586c0 .766.048 1.49.296 2.21.02.059.017.056.05.127.055.12.02.052.062.112 0-1.485.055-2.924 1.179-3.836.571-.464 1.086-.567 1.744-.764 1.898-.566 3.394-.238 5.616-1.964.457-.355.831-.862 1.102-1.404.55-1.098.575-2.253.442-3.456a4.533 4.533 0 0 0-.05-.358c-.024-.141.004-.06-.04-.193-.075-.217-.028-.078-.08-.153 0 .82-.119 1.497-.358 2.091-.272.676-.51 1.018-.997 1.51-1.974 1.99-5.01 1.34-7.182 2.847-1.036.72-1.784 1.88-1.784 3.231z"/></g></svg>