<svg width="39" height="40" fill="none" xmlns="http://www.w3.org/2000/svg"><g clip-path="url(#a)" transform="matrix(1.4 0 0 1.4 -8 -8.148)"><g clip-path="url(#b)" fill="#fff"><path d="M22.01 18.975c.003-.114.07-.117.149-.113.092.004.185 0 .29 0v.102c0 .82.004 1.639-.001 2.459-.002.258-.02.519-.13.76-.147.323-.407.493-.749.538a2.37 2.37 0 0 1-1.051-.104c-.054-.017-.077-.04-.075-.1.003-.166.001-.334.001-.501.165.043.323.101.485.12.188.024.383.036.568.01.218-.033.349-.208.364-.43.008-.128.001-.257.001-.4l-.105.035c-.32.11-.64.106-.958 0a.762.762 0 0 1-.507-.548 2.607 2.607 0 0 1-.016-1.337c.104-.42.398-.638.83-.677.317-.029.61.03.903.186zm-.147 1.13c0-.194-.002-.388.001-.582.001-.058-.016-.092-.073-.103-.146-.028-.29-.068-.438-.08a.443.443 0 0 0-.491.34c-.08.302-.083.609.02.907a.401.401 0 0 0 .327.271c.2.037.39-.01.58-.069.06-.018.077-.05.075-.11-.004-.19-.001-.382-.001-.573zM12.038 21.353h-.544c-.075.002-.059-.05-.059-.092 0-.503-.01-1.006.003-1.508.01-.344-.16-.445-.433-.406-.105.015-.208.046-.313.069-.08.017-.105.061-.105.145.004.557.002 1.113.002 1.67v.114H10v-2.482c.127 0 .252-.006.376.004.032.003.06.054.087.08.143-.047.286-.109.436-.139.314-.063.617-.036.881.177.018.014.066.008.091-.006.188-.103.384-.18.599-.196.217-.016.43.01.626.113.265.137.37.378.376.657.01.589.004 1.179.004 1.768 0 .006-.003.012-.006.025h-.585c-.002-.035-.005-.07-.005-.104v-1.535c0-.267-.132-.391-.4-.363-.12.013-.237.053-.356.077-.075.015-.088.059-.087.128.002.566.001 1.131.001 1.697v.107zM18.581 21.344c-.124 0-.244.006-.362-.004-.032-.002-.06-.052-.087-.078-.145.046-.294.107-.45.14-.29.06-.577.033-.847-.097a.748.748 0 0 1-.398-.494 2.54 2.54 0 0 1 .007-1.439c.098-.326.34-.5.667-.562.287-.054.57-.04.845.067.01.005.022.004.046.007v-.378c0-.07.005-.138-.001-.207-.014-.153.09-.284.277-.296.098-.005.197 0 .304 0v3.341zm-.58-1.234c0-.194-.002-.388.002-.583.002-.061-.019-.098-.077-.11-.142-.03-.284-.07-.428-.083-.238-.02-.412.086-.487.31-.103.31-.102.63.006.94a.408.408 0 0 0 .362.28c.201.024.391-.02.577-.09.022-.007.043-.052.044-.081.004-.194.002-.388.002-.583zM30 20.387h-1.51c-.014.307.185.497.5.486.267-.01.528-.053.78-.147.024-.01.05-.017.082-.027 0 .183.002.36-.002.535 0 .019-.024.048-.043.055-.399.144-.808.19-1.223.093-.37-.086-.58-.341-.666-.698-.097-.4-.1-.803.013-1.203.113-.405.402-.652.82-.686.162-.013.33-.016.49.01.38.06.612.291.679.695.048.287.054.581.08.887zm-.635-.54c-.008-.355-.143-.52-.409-.513-.275.007-.456.176-.473.514h.882zM24.95 20.39h-1.497c.004.313.196.494.505.483.264-.01.522-.05.77-.144a.54.54 0 0 1 .06-.02c.008-.001.017.003.032.005 0 .173.002.346-.002.52 0 .02-.028.049-.05.057a2.23 2.23 0 0 1-1.012.127c-.238-.022-.455-.096-.625-.273a1.07 1.07 0 0 1-.273-.592c-.058-.362-.06-.725.045-1.082.117-.398.404-.636.82-.678.249-.025.495-.024.729.084.217.101.345.278.411.503.097.325.088.66.086 1.01zm-.618-.542c-.01-.369-.139-.525-.423-.513-.264.01-.437.175-.46.513h.883zM15.987 20.387h-1.49c.004.325.186.497.506.485.274-.01.54-.053.796-.155.019-.007.04-.01.064-.014 0 .175.002.345-.002.516 0 .023-.02.06-.038.067-.441.153-.888.21-1.342.059-.287-.096-.455-.316-.533-.595a2.279 2.279 0 0 1 .014-1.333.82.82 0 0 1 .518-.553c.316-.114.64-.122.957-.01.263.091.409.3.478.562.084.315.077.638.072.971zm-1.5-.54h.88c.012-.334-.12-.509-.386-.515-.279-.006-.486.207-.494.514zM26.893 21.353v-1.631c-.001-.253-.135-.397-.388-.38-.173.011-.344.064-.515.1-.059.012-.057.059-.057.105 0 .566-.001 1.131.003 1.697 0 .084-.02.115-.108.111-.161-.007-.323-.002-.491-.002v-2.49h.37c.013 0 .033.009.037.018.028.085.076.063.139.038.338-.133.685-.188 1.043-.092.34.092.53.318.556.672.013.17.013.34.014.51.002.42-.001.838.002 1.257 0 .065-.016.09-.085.089-.17-.005-.34-.002-.52-.002zM19.9 21.447c-.16-.02-.311-.023-.45-.064-.217-.063-.306-.24-.315-.452-.012-.265-.012-.532-.014-.798-.002-.367.002-.736-.002-1.104 0-.071.02-.092.092-.09.163.004.327.001.5.001v1.697c0 .148.015.168.15.226.016.006.036.027.036.04.003.174.002.346.002.544zM19.707 18.003v.653h-.593c.01-.159.004-.323.033-.48.02-.113.13-.161.239-.171.103-.01.207-.002.321-.002z"/></g></g><defs><clipPath id="a"><path fill="#fff" d="M0 0h39v40H0z"/></clipPath><clipPath id="b"><path fill="#fff" transform="translate(10 18)" d="M0 0h20v4.74H0z"/></clipPath></defs></svg>