<svg width="40" height="40" fill="none" xmlns="http://www.w3.org/2000/svg"><g clip-path="url(#a)" transform="matrix(1.4 0 0 1.4 -8 -8)"><mask id="b" mask-type="alpha" maskUnits="userSpaceOnUse" x="9" y="18" width="21" height="4"><path fill="#fff" d="M10 18.099h20v3.802H10z"/></mask><g mask="url(#b)" fill-rule="evenodd" clip-rule="evenodd"><path d="M20.93 21.814h1.051v-1.947c.05.03.489.835.557.958.05.087.086.161.136.248l.408.742h1.082v-1.052c0-.049.105-.11.179-.185.037-.037.167-.155.204-.16.018.055.173.284.216.352l.656 1.045h1.378c-.123-.242-1.465-2.103-1.496-2.214.044-.068.1-.111.155-.18l.89-.957c.037-.044.037-.056.074-.093.068-.074.118-.099.161-.192l-1.342.006c-.049.013-.167.18-.228.241l-.52.613c-.043.055-.068.08-.11.123l-.217.254v-1.237h-1.045l-.019 1.898-.76-1.403c-.025-.043-.037-.074-.062-.118-.037-.08-.18-.303-.198-.377h-1.15zM15.65 19.762h-.648v-.711c.432 0 1.063-.087 1.063.346 0 .254-.173.365-.414.365zm-1.798 2.053h1.13v-1.268c.91 0 1.12-.13 1.12 1.268h1.1c0-.477.007-1.064-.24-1.429-.062-.086-.186-.21-.297-.24v-.032c.148-.037.29-.197.364-.321.124-.198.173-.451.149-.693-.062-.568-.563-.92-1.113-.92h-2.213z" fill="#356178"/><path d="M17.518 21.814h3.085v-.933h-1.954v-.451h1.719v-.866h-1.719v-.451h1.886v-.934h-3.017z" fill="#356177"/><path d="M26.933 21.814H30v-.933h-1.935v-.451h1.718v-.866h-1.718v-.451h1.885v-.934h-3.017z" fill="#356178"/><path d="M10 19.966c0 .896.402 1.688 1.317 1.892.364.08.828.055 1.15-.142.068-.038.105-.08.167-.118v.217h.884v-1.997h-1.503v.779h.501c-.148.309-.34.439-.705.389-.562-.074-.717-.581-.686-1.082.006-.093.012-.185.025-.272.062-.39.309-.618.705-.618a.507.507 0 0 1 .531.451h1.082c-.025-.29-.192-.63-.414-.878-.334-.364-.748-.482-1.23-.488a1.86 1.86 0 0 0-1.12.358c-.488.359-.704.915-.704 1.509z" fill="#356078"/></g></g><defs><clipPath id="a"><path fill="#fff" d="M0 0h40v40H0z"/></clipPath></defs></svg>