<svg width="40" height="40" fill="none" xmlns="http://www.w3.org/2000/svg"><g clip-path="url(#a)" transform="matrix(1.4 0 0 1.4 -7.869 -8)"><g clip-path="url(#b)" fill="#009dd9"><path d="M12.834 27.403c.248-.188.53-.325.735-.567.457-.544.512-1.195.39-1.831-.33-1.696.195-3.176 1.04-4.596 1.224-2.06 2.577-4.035 3.945-6.001.106-.153.217-.299.435-.263.212.034.248.214.297.376.392 1.29.781 2.578 1.175 3.866.059.194.032.279-.2.314-1.137.177-2.2.552-3.14 1.237-1.512 1.1-2.248 2.985-1.83 4.697a3.776 3.776 0 0 0 3.576 2.855c.71.013 1.41-.039 2.064-.348.256-.12.495-.272.65-.52.363-.577.036-1.208-.675-1.286-.339-.037-.684-.028-1.023-.067-.592-.068-1.141-.251-1.549-.717-.455-.521-.48-1.347-.069-2.06.42-.727 1.098-1.132 1.842-1.445.25-.106.512-.18.77-.264.19-.062.291-.033.36.199.52 1.753 1.062 3.5 1.593 5.25.237.779.56 1.04 1.38 1.096.1.006.285-.015.151.163-.468.626-.848 1.327-1.504 1.798-.983.707-2.063.891-3.208.526-2.299-.732-4.588-1.492-6.88-2.243-.11-.035-.236-.05-.325-.17zM19.019 10.603c-1.537 2.102-3.072 4.167-4.569 6.26-1.49 2.082-3.103 4.082-4.386 6.32-.097-.069-.055-.178-.055-.267.008-2.396.012-4.792.033-7.19.011-1.317.991-2.608 2.322-3.05 2.109-.7 4.225-1.379 6.338-2.067.086-.028.17-.06.317-.006zM21.416 10.012c1.122.086 1.998.604 2.655 1.514 1.555 2.153 3.114 4.302 4.671 6.453.3.414.484.878.583 1.378.04.197.044.307-.228.215a18.187 18.187 0 0 0-4.542-.895c-.13-.01 0 0-.388-.04-.519-.053-.629-.217-.75-.616-.754-2.491-1.528-4.976-2.296-7.463-.012-.039-.02-.077-.033-.115-.157-.462-.157-.462.328-.431zM25.304 20.298c1.115.043 2.741.04 3.856.07.223.007.19.12.168.252a3.553 3.553 0 0 1-.658 1.507c-.865 1.185-1.73 2.372-2.597 3.557-.05.07-.083.189-.188.166-.102-.021-.085-.148-.11-.228-.519-1.67-1.026-3.342-1.553-5.009-.084-.266.003-.319.236-.317.452.004.904.001 1.357.001 0-.017-.511.018-.511 0z"/></g></g><defs><clipPath id="a"><path fill="#fff" d="M0 0h40v40H0z"/></clipPath><clipPath id="b"><path fill="#fff" transform="translate(10 10)" d="M0 0h19.345v20H0z"/></clipPath></defs></svg>