<svg width="40" height="40" fill="none" xmlns="http://www.w3.org/2000/svg"><path fill-rule="evenodd" clip-rule="evenodd" d="M12.887 21.79v.312h-.085v.14h.085v.745h.152v-.745h.16v-.14h-.16v-.312zM14.525 22.577c.012-.26-.14-.496-.42-.496-.27 0-.42.216-.42.473 0 .26.161.454.42.454a.442.442 0 0 0 .41-.248l-.13-.075c-.054.107-.14.183-.27.183a.282.282 0 0 1-.28-.291zm-.69-.129a.287.287 0 0 1 .27-.227c.14 0 .237.108.26.227zM15.808 22.372c-.076-.087-.161-.15-.28-.15a.315.315 0 0 0-.314.323c0 .173.12.322.303.322.13 0 .215-.053.29-.15v.205a.513.513 0 0 1-.28.087.454.454 0 0 1-.463-.464.47.47 0 0 1 .744-.378zM16.616 21.445v.765a.304.304 0 0 1 .259-.128c.236 0 .291.182.291.386v.518h-.151v-.496c0-.14-.011-.268-.184-.268-.204 0-.215.193-.215.344v.42h-.15v-1.541zM18.028 22.21a.292.292 0 0 1 .26-.128c.236 0 .29.183.29.387v.517h-.152v-.496c0-.14-.01-.268-.184-.268-.203 0-.214.193-.214.344v.42h-.151v-.883h.151zM19.677 23.008a.46.46 0 0 0 .463-.463.46.46 0 0 0-.463-.464.46.46 0 0 0-.463.464.46.46 0 0 0 .463.463zm0-.787c.183 0 .312.15.312.324 0 .183-.129.323-.312.323s-.314-.14-.314-.323c0-.174.13-.324.314-.324z" fill="#136aac" style="stroke-width:1.4"/><mask id="a" mask-type="alpha" maskUnits="userSpaceOnUse" x="10" y="16" width="20" height="9"><path fill-rule="evenodd" clip-rule="evenodd" d="M10 24.825h20V16H10v8.825Z" fill="#fff"/></mask><g mask="url(#a)" transform="matrix(1.4 0 0 1.4 -8 -8.165)" fill-rule="evenodd" clip-rule="evenodd"><path d="M20.547 22.251h.107v-1.1h-.107zM21.424 22.267a.328.328 0 0 0 .331-.331.328.328 0 0 0-.33-.331.328.328 0 0 0-.332.33c0 .186.146.332.331.332zm0-.562c.131 0 .223.107.223.23 0 .132-.092.232-.223.232-.13 0-.224-.1-.224-.231 0-.124.093-.231.224-.231zM22.771 21.62h-.107v.092a.27.27 0 0 0-.216-.107c-.185 0-.3.16-.3.33 0 .178.115.332.3.332a.271.271 0 0 0 .216-.108v.077c0 .146-.032.269-.2.269-.116 0-.2-.076-.2-.192h-.108a.294.294 0 0 0 .307.292.31.31 0 0 0 .246-.115c.062-.085.062-.17.062-.27zm-.308.085c.131 0 .208.1.208.223 0 .13-.069.239-.208.239-.138 0-.208-.116-.208-.24 0-.115.078-.222.208-.222zM23.433 21.38a.077.077 0 0 1-.077.078c-.046 0-.076-.031-.076-.077 0-.038.03-.077.076-.077.04 0 .077.039.077.077zm-.13.87h.107v-.63h-.108zM24.48 21.959c.016-.185-.092-.354-.292-.354-.2 0-.309.154-.309.338 0 .185.124.324.31.324.13 0 .23-.062.291-.177l-.092-.054c-.047.077-.1.13-.192.13a.202.202 0 0 1-.208-.207zm-.484-.092a.203.203 0 0 1 .192-.162c.092 0 .17.077.185.162zM25.19 21.766c-.017-.03-.048-.062-.094-.062-.03 0-.077.031-.077.07 0 .054.077.076.147.107.077.031.146.077.146.177a.202.202 0 0 1-.208.208.226.226 0 0 1-.224-.162l.093-.038c.03.062.062.1.131.1.054 0 .1-.038.1-.092 0-.139-.285-.093-.285-.293 0-.1.084-.177.193-.177.07 0 .14.054.161.116z" fill="#136aac"/><path d="M16.02 16.716c1.485-.416 3.133-.654 4.665-.64-1.77-.107-3.38-.006-4.78.247a.898.898 0 0 1 .115.393zM29.977 21.943c-1.594 1.455-5.212 2.302-9.354 2.302-5.62 0-9.252-1.655-9.507-3.85-.138-1.185 1.255-2.308 3.241-3.117a.904.904 0 0 1-.16-.508c0-.008 0-.023.006-.031-2.64.824-4.204 2.256-4.204 3.71 0 2.418 4.296 4.466 10.686 4.373 4.342-.061 7.645-1.301 9.314-2.825z" fill="#e21a4a"/><path d="M15.112 17.532a.766.766 0 0 0 0-1.532.766.766 0 0 0 0 1.532zM14.934 20.803h.37v-2.81h-.37zM16.228 19.133h.008c.076-.154.192-.247.377-.247.377 0 .385.331.385.624v1.293h-.347v-1.308c0-.123-.023-.293-.208-.293-.238 0-.215.262-.215.424v1.177h-.347v-1.886h.347zM17.598 18.925v-.616c0-.316.03-.63.423-.63.093 0 .154.022.24.053v.361c-.055-.022-.094-.038-.147-.038-.177 0-.169.17-.169.3v.57h.292v.27h-.292v1.608h-.347v-1.608h-.177v-.27zM18.56 18.355c0-.13.101-.23.231-.23.123 0 .231.1.231.23a.232.232 0 0 1-.23.231c-.13 0-.232-.1-.232-.23zm.062 2.448h.347v-1.878h-.347zM19.823 19.133h.008c.077-.154.192-.247.385-.247.369 0 .377.331.377.624v1.293h-.346v-1.308c0-.123-.024-.293-.208-.293-.232 0-.216.262-.216.424v1.177h-.347v-1.886h.347zM22.178 19.934v-.062c0-.384-.054-.985-.569-.985-.516 0-.563.6-.563.985 0 .4.047.963.578.963.393 0 .546-.316.546-.662h-.33c0 .146-.03.346-.216.346-.223 0-.223-.431-.223-.585zm-.777-.254c0-.146-.008-.477.208-.477.215 0 .215.33.215.477zM23.172 20.834c.53 0 .593-.57.593-.97 0-.408-.062-.978-.593-.978-.54 0-.593.57-.593.978 0 .4.054.97.593.97zm0-.323c-.27 0-.238-.509-.238-.647 0-.146-.032-.655.238-.655s.23.51.23.655c0 .138.04.647-.23.647zM24.565 19.133h.008c.077-.154.192-.247.377-.247.37 0 .385.331.385.624v1.293h-.346v-1.308c0-.123-.024-.293-.216-.293-.23 0-.208.262-.208.424v1.177h-.354v-1.886h.354z" fill="#136aac"/></g></svg>