<svg width="40" height="40" fill="none" xmlns="http://www.w3.org/2000/svg"><mask id="a" mask-type="alpha" maskUnits="userSpaceOnUse" x="10" y="10" width="20" height="20"><path fill="#fff" d="M10 10h20v20H10z"/></mask><g mask="url(#a)" transform="matrix(1.4 0 0 1.4 -8 -8)" fill-rule="evenodd" clip-rule="evenodd"><path d="M25.67 25c-.258-.412-.464-.825-.722-1.289-.567-1.03-1.134-2.01-1.7-3.04-.155-.31-.361-.671-.516-.98-.103-.155-.206-.31-.258-.464h-.051c-.103.154-.258.31-.361.464-.516-2.371-1.031-4.794-1.547-7.217-.103-.618-.257-1.237-.36-1.907-.052-.103-.103-.515-.155-.567-.67 3.247-1.34 6.495-2.01 9.69h-.052s-.36-.463-.412-.463c0 .051-.155.31-.206.36-.207.413-.413.825-.67 1.238l-2.475 4.484v.052h3.608c.052-.052.155-.258.155-.361.206-.31.361-.619.567-.98.052-.102.103-.257.206-.36.052 0 .052.051.052.051.31.413.618.825.928 1.289.051.051.206.31.309.31.052.05.103-.104.155-.104.36-.515.721-1.03 1.134-1.546.154.206.257.464.412.67.103.31.258.567.412.825.052.051.052.154.155.206H25.876c0-.052-.154-.31-.206-.361zm-2.938-.464h-.052c0-.052-.051-.103-.051-.155-.103-.103-.155-.257-.258-.412-.206-.412-.464-.825-.67-1.237-.052-.103-.155-.258-.206-.36-.052-.052-.052-.104-.103-.155 0 0-.258.309-.258.36-.258.361-.567.67-.825 1.031-.103.155-.206.31-.309.413l-.052-.052a39.666 39.666 0 0 0-1.34-1.752c0 .051-.051.051-.051.103-.103.154-.155.257-.258.412-.206.412-.464.825-.67 1.237a5.627 5.627 0 0 1-.31.567h-.05c-.104.052-.362 0-.465 0h-1.289s-.051 0 0 0c0-.051.104-.155.104-.206.154-.258.309-.516.412-.773.412-.722.773-1.392 1.185-2.114.104-.154.207-.309.258-.515.052-.052.103-.155.206-.258 0-.051 0 0 0 0l.155.155.31.464c.05.103.154.206.206.309h.051c.516-2.577 1.083-5.155 1.598-7.68.052.051.103.309.103.412.103.515.258 1.082.361 1.598.36 1.907.773 3.763 1.134 5.67h.051c0-.052.62-.876.67-.928 0-.051 0 0 0 0a52.41 52.41 0 0 1 1.65 2.887c.155.309.31.618.464.876.052.052.052.103.052.103-.052 0-.464 0-.825.052z" fill="#e93d3a"/><path d="M12.577 25.876c-.36-.051-.773 0-1.185 0H10v2.887h1.34c.825 0 1.65 0 2.217-.464.154-.103.257-.258.36-.412.052-.155.104-.31.104-.464.051-.928-.619-1.392-1.444-1.547zm.052 1.907c-.155.104-.258.104-.361.207h-1.083v-1.392c.413 0 .877-.052 1.186.103.464.103.516.773.258 1.083zM14.278 25.876h3.505v.722h-2.32v.36h1.908v.67h-1.907v.362h2.32v.773h-3.506v-2.887zM17.99 25.876h1.185v1.804c.052.052.052.103.103.207.207.206.619.206.928.206l.052-.052h.103c.051 0 .051-.051.103-.051a.283.283 0 0 0 .258-.155c.051-.052.103-.103.103-.155v-1.803h1.185v1.236c0 .258 0 .516-.051.722 0 .155-.103.258-.155.36-.515.62-1.804.671-2.577.568a2.022 2.022 0 0 1-.67-.258c-.155-.103-.258-.206-.361-.31-.258-.36-.206-.824-.206-1.288v-1.03zM22.217 25.876h3.505v.722h-1.083v2.165h-1.288v-2.165h-1.134v-.722zM25.98 25.876H30v.516c0 .051.051.154 0 .206-.052.103-.31.258-.36.31-.516.308-1.032.67-1.547 1.03h-.052v.052H30v.773h-4.02V27.99c.05-.052.102-.103.154-.103.103-.104.206-.155.258-.207.515-.36 1.03-.721 1.495-1.03h.051v-.052H25.98v-.722z" fill="#fff"/><path d="M10 29.227h20V30H10v-.773z" fill="#e93d3a"/><path d="M28.093 24.433c0 .567.412.98.928.98.515 0 .979-.413.979-.98 0-.515-.464-.928-.98-.928a.924.924 0 0 0-.927.928zm.154 0a.76.76 0 0 1 .774-.773c.463 0 .773.31.773.773 0 .464-.31.825-.773.825-.413 0-.774-.361-.774-.825zm.413.567h.206v-.515h.155l.309.515h.155l-.31-.515c.206 0 .31-.104.31-.31 0-.206-.155-.309-.361-.309h-.464zm.206-.98h.206c.103 0 .206.052.206.155 0 .155-.051.206-.206.206h-.206Z" fill="#fff"/></g></svg>