<svg width="40" height="40" fill="none" xmlns="http://www.w3.org/2000/svg"><path fill-rule="evenodd" clip-rule="evenodd" d="M18.057 19.062c2.338-1.225 5.626-1.997 9.264-1.997h.057v-.921h-.057c-3.764 0-7.178.795-9.69 2.105-2.497 1.304-4.162 3.166-4.172 5.36 0 .046.005.097.01.144h.921c.06-2.016 1.31-3.46 3.667-4.69z" fill="#d1151c" style="stroke-width:1.4"/><path fill-rule="evenodd" clip-rule="evenodd" d="M17.524 20.83h.935v.524h-.935v1.51c0 .351.252.45.42.45.21 0 .426-.07.665-.216v.548c-.206.112-.52.196-.711.196-.636 0-.959-.393-.959-.926V21.36h-.514v-.066l1.099-1.07zm4.022 2.666c-.356.239-.678.346-1.179.346-.921 0-1.436-.758-1.436-1.571 0-.894.566-1.502 1.38-1.502.781 0 1.281.534 1.281 1.623h-2.076c.094.585.425.889.991.889.356 0 .693-.131 1.034-.356v.57zm-.529-1.487c-.019-.45-.276-.73-.692-.73-.449 0-.715.262-.795.73zm1.726-2.493h-.585v4.265h.585zm4.976 1.258c.926 0 1.6.631 1.6 1.506 0 .935-.65 1.567-1.6 1.567-.907 0-1.557-.66-1.557-1.567-.005-.851.673-1.506 1.557-1.506zm-.01.524c-.551 0-.953.416-.953.982 0 .627.388 1.038.954 1.038.617 0 1.005-.393 1.005-1.033 0-.57-.42-.987-1.005-.987zm1.998-.468v2.951h.584v-1.969c0-.126.44-.547.735-.547.29 0 .533.206.533.683v1.833h.584v-1.964c0-.108.468-.557.66-.547.336 0 .612.243.612.692v1.829H34v-1.857c0-.697-.383-1.16-.982-1.16-.421 0-.73.243-.987.533-.196-.35-.505-.533-.88-.533-.275 0-.56.08-.86.384v-.323h-.584zm-3.9 2.17c-.31.183-.637.29-.95.29h-.024c-.603 0-1-.37-1-.977 0-.599.37-1.001.902-1.001.024 0 .585-.019 1.071.304v-.566c-.313-.187-.617-.276-1.061-.276v.005c-.02 0-.033-.005-.052-.005-.893 0-1.459.617-1.459 1.59 0 .87.617 1.478 1.501 1.478.038 0 .08 0 .122-.005a2.02 2.02 0 0 0 .66-.126 3.6 3.6 0 0 0 .294-.15v-.56Zm-18.76-.135c0 .135.108.173.183.187h1.525v.767H6.318c-.28 0-.318-.183-.318-.239v-4.008h1.043v3.283c.005.005.005.005.005.01zm3.265-2.194c0 .632 2.133.454 2.133 1.913 0 .804-.674 1.272-1.61 1.272-.729 0-1.094-.192-1.51-.407v-.902c.604.397.968.537 1.431.537.398 0 .613-.14.613-.388 0-.687-2.133-.435-2.133-1.94 0-.725.627-1.203 1.595-1.203.468 0 .889.099 1.417.328v.818c-.608-.271-.968-.374-1.328-.374-.37 0-.608.136-.608.346z" fill="#fff" style="stroke-width:1.4"/></svg>