<svg width="40" height="40" fill="none" xmlns="http://www.w3.org/2000/svg"><g clip-path="url(#a)" transform="matrix(1.4 0 0 1.4 -8 -8.013)"><g clip-path="url(#b)" fill="#fff"><path d="M10 19.823c.03-.155.042-.312.076-.467a3.038 3.038 0 0 1 2.973-2.354c.73 0 1.459 0 2.188-.002.064 0 .082.015.081.08-.004.286-.003.572 0 .858 0 .06-.014.077-.076.077-.745-.002-1.49-.003-2.234 0-.96.003-1.791.699-1.964 1.64a2.015 2.015 0 0 0 1.949 2.397c.583.001 1.167 0 1.75.002.06 0 .072-.016.072-.073-.003-.457-.003-.914 0-1.372 0-.06-.018-.07-.074-.07h-1.936c-.013-.025.005-.041.014-.058.149-.3.3-.599.448-.899.022-.045.05-.056.096-.055h1.203l11.796-.001c.07 0 .104.02.135.083.136.282.28.562.42.842l.041.089H24.87c-.042 0-.075-.001-.1.048-.41.827-.825 1.652-1.238 2.478h-1.125c-.014-.049.018-.085.037-.123.372-.755.745-1.51 1.124-2.262.06-.117.059-.118-.076-.118H18.477c-.086.002-.094.008-.094.094v1.278c0 .089.007.094.11.094h3.225c.034 0 .068-.001.101.002.081.006.095.03.062.106l-.013.028c-.136.27-.27.54-.406.808-.018.036-.03.08-.081.085h-3.96c-.026 0-.053.004-.078-.004-.034-.04-.024-.089-.024-.134v-2.213c0-.142-.001-.142-.142-.142h-1.21c-.11 0-.114.004-.114.115v2.244c0 .048.01.1-.025.142h-2.985c-.062-.02-.128-.007-.192-.013-.514-.046-.971-.24-1.39-.534a3.013 3.013 0 0 1-.956-1.111 2.829 2.829 0 0 1-.286-.887c-.013-.091-.005-.185-.02-.277l.001-.421Z"/><path d="m17.344 23.066.003-.016h3.938l.11.002c0 .005 0 .01-.004.014h-4.047zM28.875 23.066a.024.024 0 0 1-.003-.014c.029-.03.067-.026.102-.026h.91c.036 0 .073 0 .104.024l.012.016h-1.125z"/><path d="m29.988 23.05-1.116.002c-.207-.412-.416-.824-.622-1.236l-2.004-4.005c-.01-.023-.023-.044-.036-.068-.032.021-.038.053-.052.08l-.572 1.14c-.016.033-.027.063-.076.063-.349-.003-.698-.002-1.047-.002-.007 0-.014-.003-.02-.005-.004-.03.015-.05.026-.072l.94-1.88c.023-.046.048-.067.104-.067.46.003.921.002 1.382.001.042 0 .07.007.091.05l2.989 5.962c.005.012.008.025.012.037zM19.627 17.002c.731 0 1.462.001 2.194-.001.066 0 .081.019.08.082-.003.28-.004.561.001.842.002.08-.024.09-.096.09-1.119-.002-2.238 0-3.357-.003-.075 0-.095.016-.093.092.005.283 0 .566.003.849 0 .059-.015.074-.074.073a42.487 42.487 0 0 0-.874 0c-.056 0-.069-.016-.068-.07.002-.628.002-1.257 0-1.886-.001-.061.019-.07.074-.07.736.002 1.473.001 2.21.001v.001z"/></g></g><defs><clipPath id="a"><path fill="#fff" d="M0 0h40v40H0z"/></clipPath><clipPath id="b"><path fill="#fff" transform="translate(10 17)" d="M0 0h20v6.066H0z"/></clipPath></defs></svg>