<svg width="40" height="40" fill="none" xmlns="http://www.w3.org/2000/svg"><g clip-path="url(#a)" transform="matrix(1.4 0 0 1.4 -7.998 -7.997)"><mask id="b" mask-type="alpha" maskUnits="userSpaceOnUse" x="10" y="17" width="20" height="6"><path fill="#fff" d="M10 17.954h20v4.093H10z"/></mask><g mask="url(#b)" fill-rule="evenodd" clip-rule="evenodd"><path d="M10 21.276V18.71c0-.418.339-.756.757-.756H29.23c.418 0 .757.338.757.756v2.566a.757.757 0 0 1-.757.757H10.757a.757.757 0 0 1-.757-.757Z" fill="#d91919"/><path d="M10.247 21.296v-2.603c0-.278.226-.504.504-.504h18.5c.279 0 .504.226.504.504v2.603a.504.504 0 0 1-.504.504h-18.5a.504.504 0 0 1-.504-.504z" fill="#fff" stroke="#d91919" stroke-width=".34"/><path d="M10.928 18.798v2.33h1.84v-.507h-.561v-1.823zm2.126 0v2.33h2.2v-.512h-.933v-.4h.933v-.506h-.933v-.41h.933v-.502zm2.524 0v2.33h1.246v-2.33zm1.591 0v2.33h1.273v-.911h.96v-.534h-.96V19.3h.96v-.502zm2.497 0v2.33h1.252v-.884h.399v.884h1.262v-2.33h-1.262v.912h-.4v-.912zm3.258 0v2.33h2.233v-.512h-.955v-.4h.955v-.506h-.955v-.41h.955v-.502zm2.573 0v2.33h1.246v-2.33zm1.478 0v.502h.485v1.828h1.279V19.3h.48v-.502z" fill="#d91919"/></g></g><defs><clipPath id="a"><path fill="#fff" d="M0 0h40v40H0z"/></clipPath></defs></svg>