<svg width="40" height="40" fill="none" xmlns="http://www.w3.org/2000/svg"><g clip-path="url(#a)" transform="matrix(1.4 0 0 1.4 -7.999 -7.997)"><mask id="b" mask-type="alpha" maskUnits="userSpaceOnUse" x="10" y="17" width="20" height="6"><path fill="#fff" d="M10 17.235h20v5.53H10z"/></mask><g mask="url(#b)" fill-rule="evenodd" clip-rule="evenodd"><path d="M10.465 20.498h.801l.522-2.5h.01l.568 2.5h1.233l.682-3.263h-.802l-.506 2.422-.01.01-.57-2.432h-1.246zM14.968 19.77c.033-.158.148-.24.286-.303.128-.058.295-.05.473-.05-.063.303-.167.652-.532.652-.16 0-.26-.136-.227-.299zm1.375.728c.025-.271.028-.37.048-.466l.244-1.166c.116-.51-.391-.705-.845-.705-.25 0-.545.027-.799.136-.249.104-.452.289-.515.61h.797c.024-.136.133-.339.34-.348.341-.014.236.276.195.474h-.267c-.73 0-1.276.226-1.4.778-.107.465.109.755.639.755a.982.982 0 0 0 .79-.375h.01c-.035.162-.05.234-.047.307zM18.453 18.658c.36 0 .314.416.255.696-.061.294-.211.714-.581.714-.307 0-.295-.42-.242-.673.063-.303.185-.737.568-.737zm-1.644 1.84h.823l.092-.335h.018c.01.231.281.403.54.403.738 0 1.155-.547 1.3-1.239.134-.642-.064-1.166-.75-1.166-.253 0-.546.104-.745.308h-.009l.258-1.234h-.846zM20.616 19.77c.033-.158.148-.24.286-.303.128-.058.295-.05.473-.05-.063.303-.167.652-.532.652-.16 0-.26-.136-.227-.299zm1.375.728c.025-.271.028-.37.048-.466l.244-1.166c.116-.51-.391-.705-.845-.705-.25 0-.545.027-.799.136-.249.104-.452.289-.515.61h.797c.024-.136.133-.339.34-.348.341-.014.236.276.195.474h-.268c-.73 0-1.275.226-1.4.778-.106.465.11.755.64.755a.982.982 0 0 0 .79-.375h.01c-.035.162-.05.234-.047.307zM23.369 20.498l.682-3.263h-.846l-.682 3.263z" fill="#009a9d"/><path d="m24.19 18.215-.068.321.384-.004-.301 1.442c-.064.302-.043.312.01.42.05.1.154.136.218.15.099.017.178.022.28.022.098 0 .196-.023.295-.027l.069-.33c-.07.018-.162.027-.228.027-.152 0-.26-.077-.226-.24l.306-1.464.515.004.067-.32-.519.013.13-.62-.452.136-.1.484zM27.61 19.445l.044-.212c.132-.629-.095-1.058-.76-1.072-.707 0-1.153.556-1.292 1.22-.14.67.038 1.185.754 1.185.535 0 .98-.258 1.154-.773h-.445c-.117.33-.31.46-.639.46-.432 0-.506-.41-.392-.808zm-1.514-.298c.078-.371.35-.674.702-.674.41 0 .517.294.43.673zM29.981 18.957c.081-.493-.212-.796-.684-.796-.708 0-1.153.556-1.292 1.22-.14.67.037 1.185.754 1.185.494 0 .934-.312 1.076-.823h-.423c-.09.326-.303.51-.583.51-.405 0-.486-.356-.375-.89.111-.533.342-.89.747-.89.303 0 .395.199.358.484z" fill="#fff"/><path d="m10.023 22.63 19.544-1.595-.173.811L10 22.75Z" fill="#009a9d"/></g></g><defs><clipPath id="a"><path fill="#fff" d="M0 0h40v40H0z"/></clipPath></defs></svg>