<svg width="40" height="40" fill="none" xmlns="http://www.w3.org/2000/svg"><g clip-path="url(#a)" transform="matrix(1.4 0 0 1.4 -7.985 -7.986)"><mask id="b" mask-type="alpha" maskUnits="userSpaceOnUse" x="10" y="11" width="21" height="18"><path fill="#fff" d="M10 11.721h20v16.558H10z"/></mask><g mask="url(#b)" fill-rule="evenodd" clip-rule="evenodd" fill="#fff"><path d="M13.762 13.053a8.252 8.252 0 0 1 4.862-1.324c1.761.084 3.501.73 4.851 1.872a8.271 8.271 0 0 1 2.927 5.137c.214 1.35.06 2.748-.398 4.034.257.155.428.498.232.77-.221.458-1.004.26-.98-.251-.044-.246.199-.373.296-.566.913-2.338.569-5.106-.86-7.167-1.432-2.118-3.945-3.437-6.503-3.405 0 2.8.003 5.6-.002 8.401a31.93 31.93 0 0 1-.595.005v-7.405c-.002-.32-.01-.64.02-.96-1.732.113-3.405.87-4.676 2.047a7.842 7.842 0 0 0-2.432 4.7c-.259 1.814.183 3.71 1.18 5.246 1.671 2.676 5.087 4.138 8.17 3.413-.015-2.206-.001-4.412-.007-6.617h.622l-.011.431c.6-.699 1.781-.69 2.399-.02.649.691.609 1.926-.136 2.531-.65.524-1.699.485-2.26-.152.004 1.232 0 2.465.001 3.697 1.256-.399 2.437-1.076 3.352-2.032a18.454 18.454 0 0 1 0-1.202l-.472.012-.004-.536c.159-.003.317-.004.476-.005-.011-.348-.01-.697-.008-1.045.213-.002.428-.002.643-.001-.008.352-.007.703-.01 1.055.188-.005.377-.008.565-.01a46.38 46.38 0 0 0-.001.515 2.9 2.9 0 0 1-.554.003c-.005.868-.023 1.738.008 2.604.037.253.375.147.55.173l-.018.51c-.355.041-.842.134-1.064-.229-.19-.387-.104-.835-.102-1.25-1.523 1.404-3.588 2.229-5.666 2.174-3.38.024-6.589-2.31-7.684-5.496a8.173 8.173 0 0 1 .166-5.908 8.3 8.3 0 0 1 3.123-3.75zm7.413 8.439c-.813.238-.971 1.418-.38 1.962.308.31.8.34 1.197.21.778-.29.906-1.47.294-1.987a1.208 1.208 0 0 0-1.111-.185z"/><path d="M14.39 17.613c.287-.29.652-.537 1.078-.528.602-.053 1.185.312 1.461.837.388.727.271 1.743-.392 2.272-.613.516-1.62.441-2.143-.172.016 1.394-.003 2.789.01 4.182-.2.004-.4.008-.598.009-.003-2.345.005-4.688-.005-7.032.202-.004.405-.007.607-.007l-.017.439zm.737.066c-.845.243-1 1.49-.376 2.042.328.32.871.337 1.26.119.623-.407.69-1.402.179-1.924-.276-.27-.7-.331-1.063-.237zM19.253 17.41c.635-.452 1.586-.34 2.083.27v-.465c.199 0 .398 0 .597-.002.01 1.092 0 2.184.006 3.277-.203 0-.405.003-.608.004l.004-.428c-.295.305-.691.54-1.129.519-.68.04-1.329-.428-1.557-1.06-.257-.733-.064-1.665.604-2.114zm.825.287c-.898.118-1.194 1.347-.625 1.976.377.474 1.164.487 1.576.053.432-.486.434-1.314-.04-1.775a1.157 1.157 0 0 0-.91-.254zM22.438 17.267l.702-.009-.01.361c.507-.552 1.473-.628 2.041-.133.248.256.331.624.326.971.002.688-.001 1.374 0 2.062a40.17 40.17 0 0 0-.677.014c-.013-.722.013-1.445-.012-2.167-.002-.261-.15-.549-.422-.61-.341-.074-.777-.074-1.017.222-.208.227-.226.555-.231.848.001.557-.006 1.115.007 1.673-.23.025-.461.03-.692.033-.008-1.089.017-2.178-.015-3.265zM17.558 20.936c1.006-.282 2.128.558 2.1 1.609.074.923-.765 1.76-1.68 1.741-.86.027-1.668-.688-1.725-1.552-.084-.814.515-1.613 1.305-1.798zm.006.57c-.757.256-.967 1.344-.41 1.895.39.428 1.128.444 1.557.07.4-.37.474-1.02.212-1.487-.245-.478-.872-.677-1.36-.478zM27.02 22.654h.616c-.002 1.05 0 2.1 0 3.15.453-.457.91-.911 1.356-1.376a10 10 0 0 1 .801.014c-.46.425-.907.862-1.335 1.316.53.52.976 1.118 1.467 1.675-.257.004-.515.005-.772 0-.38-.422-.746-.858-1.13-1.276-.13.127-.258.256-.389.383.001.297.001.594.005.891a22.72 22.72 0 0 1-.623.006c.01-1.595.002-3.189.004-4.783zM25.433 24.16c.209 0 .418 0 .627.002-.001.888-.016 1.776.005 2.664.092.218.367.119.55.146v.492c-.283.072-.596.112-.869-.018-.219-.117-.32-.373-.309-.611-.01-.892.001-1.783-.005-2.674z"/></g></g><defs><clipPath id="a"><path fill="#fff" d="M0 0h40v40H0z"/></clipPath></defs></svg>