<svg width="40" height="40" fill="none" xmlns="http://www.w3.org/2000/svg"><g clip-path="url(#a)" transform="matrix(1.4 0 0 1.4 -8 -8)"><mask id="b" mask-type="alpha" maskUnits="userSpaceOnUse" x="10" y="10" width="20" height="20"><path fill="#fff" d="M10 10h20v20H10z"/></mask><g mask="url(#b)" fill-rule="evenodd" clip-rule="evenodd"><path d="M10 30h20V10H10Z" fill="#fff"/><path d="M29.895 11.538c.126.296.126.696-.043.97-.295.358-.674.569-1.137.464-.654-.19-1.307-.843-1.433-1.54 0-.4.189-.884.61-1.032.464-.232.949 0 1.286.274.274.253.527.548.717.864zM21 17.65l-.042.084-1.18 1.18a.803.803 0 0 0-.695.085c-.253.147-.549.4-.485.717.063.147.274.147.4.105 1.075-.4 2.023-1.686 3.33-1.075.59.38.864 1.012.717 1.707-.348 1.282-1.469 2.451-2.824 2.74-.506.063-1.014-.03-1.31-.43l.003-.076 1.243-1.222c.4.168.843.02 1.138-.296.169-.168.274-.421.169-.674-.4-.337-.738.21-1.096.316-.548.358-1.096.632-1.707.78-.485.06-.796-.024-1.222-.422-.38-.442-.548-1.117-.295-1.664.42-1.033 1.584-2.127 2.613-2.255.46-.058.885.126 1.243.4zm5.29-7.65c-.632.864-.927 2.213-.337 3.182.506.927 1.475 1.539 2.55 1.476.547-.085 1.053-.211 1.496-.549v15.87H14.068a2.3 2.3 0 0 0 .526-1.201c.132.031.413.125.413.125l.819-.825-2.08-2.05-1.863 1.904.81.768s.426-.45.637-.576c.148.422-.085.843-.421 1.138-.253.253-.633.317-.95.232a2.053 2.053 0 0 1-1.306-1.37c-.042-.337.021-.695.274-.927a.928.928 0 0 1 .949-.274c.063.021.168.084.253.021L13.33 25.7c-.148-.231-.464-.294-.696-.4-1.032-.21-2.634.97-2.634.97V10Zm-9.38 11.464s-1.298 1.298-1.972 1.93c0 0 .35.347.52.473l1.66-1.614.865.887-1.645 1.634.541.52 2.056-2.038.857.845s-2.306 2.358-3.423 3.454l-3.691-3.678s2.296-2.246 3.393-3.342zm8.919-7.9c-.4.422-.867.84-1.267 1.22-.295-.063-.59-.21-.928-.126-.295.084-.59.379-.695.674-.126.737.337 1.37.948 1.77.316.19.822.274 1.18.085.274-.17.443-.443.527-.738.085-.295-.126-.548-.147-.822l1.265-1.244c.189.127.273.38.379.57.4 1.285-.232 2.507-1.223 3.33-.78.59-1.875 1.011-2.845.547-.906-.527-1.728-1.433-1.812-2.508-.106-1.454 1.075-2.57 2.255-3.16.759-.317 1.773-.167 2.363.402z" fill="#00978f"/></g></g><defs><clipPath id="a"><path fill="#fff" d="M0 0h40v40H0z"/></clipPath></defs></svg>