<svg width="40" height="40" fill="none" xmlns="http://www.w3.org/2000/svg"><path fill-rule="evenodd" clip-rule="evenodd" d="m27.352 21.234.002 4.408c0 5.007-3.592 8.358-8.781 8.358-5.095 0-8.858-3.75-8.858-8.358 0-5.52 4.44-7.274 4.587-7.337-.207-.099-2.993-1.747-2.993-5.473 0-4.26 3.619-6.832 7.268-6.832 3.996 0 7.164 2.558 7.164 6.832h-3.03c0-2.146-1.883-3.883-4.134-3.886-2.248 0-4.13 1.76-4.13 3.889 0 2.636 2.367 4.198 4.078 4.198h.774v2.926h-.774c-3.416 0-5.653 2.74-5.653 5.683 0 2.96 2.58 5.343 5.702 5.343 2.012 0 5.71-.783 5.71-5.646v-7.034h6v2.929z" fill="#fff" style="stroke-width:1.4"/></svg>