<svg width="40" height="40" fill="none" xmlns="http://www.w3.org/2000/svg"><mask id="a" mask-type="alpha" maskUnits="userSpaceOnUse" x="10" y="12" width="20" height="16"><path fill="#fff" d="M10 12.214h20v15.572H10z"/></mask><g mask="url(#a)" transform="matrix(1.4 0 0 1.4 -8 -7.996)"><path fill-rule="evenodd" clip-rule="evenodd" d="M11.89 12.28c-.127.02-.256.493-.5.74-.182.178-.408.168-.528.385-.046.08-.03.222-.084.356-.1.27-.458.293-.458.587 0 .316.298.377.557.603.202.18.221.305.466.393.21.071.513-.161.8-.078.229.068.45.118.501.353.051.235 0 .556-.28.513a3.037 3.037 0 0 0-1.003-.095c-.603.068-1.292.266-1.36.94-.036.374.428.818.878.728.31-.061.164-.427.333-.605.22-.229 1.478.795 2.646.795a1.53 1.53 0 0 0 1.221-.504c.034-.03.075-.091.129-.095a.45.45 0 0 1 .164.073c.94.756 1.652 2.272 5.11 2.29.56.03 1.089.26 1.492.648.403.372.642.954.869 1.54.346.883.966 1.742 1.905 2.694.052.052.826.653.888.698a.376.376 0 0 1 .046.218c-.022.574-.105 2.24 1.137 2.31.304.015.225-.199.225-.345 0-.29-.054-.579.1-.877.209-.409-.444-.596-.426-1.482.014-.658-.54-.546-.82-1.048-.163-.291-.307-.445-.297-.8.065-2.003-.426-3.32-.67-3.643-.19-.244-.347-.34-.173-.453 1.037-.685 1.272-1.323 1.272-1.323.552-1.297 1.048-2.481 1.732-3.002.222-.178.458-.337.707-.475.642-.301.975-.483 1.161-.664.293-.285.525-.882.244-1.244-.35-.445-.955-.09-1.222.067-1.906 1.132-2.187 3.128-2.848 4.274-.528.937-1.383 1.609-2.153 1.664a3.823 3.823 0 0 1-1.809-.344 9.132 9.132 0 0 1-2.513-1.656c-.403-.31-3.53-3.381-6.063-3.506 0 0-.315-.63-.394-.641-.186-.024-.374.376-.513.422-.138.046-.342-.432-.472-.412z" fill="#fff"/></g></svg>