<svg width="40" height="40" fill="none" xmlns="http://www.w3.org/2000/svg"><path fill-rule="evenodd" clip-rule="evenodd" d="M29.459 21.209a.636.636 0 0 0-.63-.57h-.864v3.192h-1.521v-7.667h3.253c.7 0 1.269.565 1.274 1.27v1.441c0 .481-.271.915-.696 1.134.416.21.682.635.696 1.102v2.739h-1.512v-2.641m0-2.357v-.9a.638.638 0 0 0-.635-.575h-.859v2.044h.924a.632.632 0 0 0 .57-.569zm-14.635-5.493h1.526v1.4h-1.526zm3.015 0h1.516v1.4H17.84z" fill="#fff" style="stroke-width:1.4"/><path fill-rule="evenodd" clip-rule="evenodd" d="M6 13.36h7.555v1.4H7.526v10.48h24.953V14.76H20.635v-1.4h13.36L34 26.64H6V13.36" fill="#fff" style="stroke-width:1.4"/><path fill-rule="evenodd" clip-rule="evenodd" d="M11.393 22.618c.341 0 .616-.266.635-.607V17.99a.633.633 0 0 0-.635-.607h-.854v5.236zm-2.38-6.454h3.267a1.27 1.27 0 0 1 1.27 1.218v5.18c-.005.7-.57 1.265-1.27 1.27H9.013Zm5.806 6.477v-6.477h1.521v5.82c0 .35.285.634.635.634h.219a.64.64 0 0 0 .653-.62v-5.834h1.522v6.477c0 .7-.565 1.27-1.27 1.274h-2.006a1.27 1.27 0 0 1-1.279-1.26c.005-.004.005-.009.005-.014zm8.829-1.432a.636.636 0 0 0-.63-.57h-.863v3.192h-1.522v-7.667h3.276c.7 0 1.27.565 1.274 1.27v1.441c0 .481-.27.915-.695 1.134.415.215.681.635.695 1.102v2.725h-1.535zm0-2.357v-.9a.638.638 0 0 0-.635-.575h-.858v2.044h.928a.632.632 0 0 0 .565-.569z" fill="#fff" style="stroke-width:1.4"/></svg>