<svg width="40" height="40" fill="none" xmlns="http://www.w3.org/2000/svg"><g clip-path="url(#a)" transform="matrix(1.4 0 0 1.4 -8 -7.953)"><g clip-path="url(#b)" fill-rule="evenodd" clip-rule="evenodd"><path d="M27.74 17.758c-1.257 0-2.254 1.034-2.254 2.29 0 1.22.997 2.254 2.253 2.254a2.263 2.263 0 0 0 2.254-2.254c0-1.256-.998-2.29-2.253-2.29z" fill="#d40d2e"/><path d="M12.74 20.27h3.473c.776 0 1.515.074 2.07.259 1.588.48 2.437 1.588 2.437 3.398s-.997 2.993-2.438 3.436c-.923.259-1.588.222-2.66.222-.48 0-2.586.037-2.881 0zm4.84-2.29c-.184 0-.37.037-.59.037h-4.212l-.037-5.837h4.396c.776 0 1.625.369 2.106.738.48.407.886 1.072.923 1.921.037.924-.148 1.7-.628 2.217-.406.48-1.367.924-1.958.924zm2.512 1.034c.702-.148 1.478-.739 1.921-1.293 1.441-1.81 1.146-5.061-.886-6.576C19.575 10 17.95 10 16.14 10h-6.133v19.764h6.465c1.071 0 2.106-.11 2.955-.37 1.515-.516 2.623-1.255 3.362-2.548 1.071-1.884 1.071-4.987-.739-6.687-.886-.85-1.736-1.108-1.958-1.145Z" fill="#fff"/></g></g><defs><clipPath id="a"><path fill="#fff" d="M0 0h40v40H0z"/></clipPath><clipPath id="b"><path fill="#fff" transform="translate(10 10)" d="M0 0h20v19.764H0z"/></clipPath></defs></svg>