<svg width="41" height="40" fill="none" xmlns="http://www.w3.org/2000/svg"><g clip-path="url(#a)" transform="matrix(1.4 0 0 1.4 -8.4 -8.058)"><g clip-path="url(#b)" fill="#fff"><path d="M22.272 25.288c-.03-.038-.054-.08-.088-.115a9911.154 9911.154 0 0 0-4.715-4.682c-.029-.03 0 0-.1-.115l-.185.191c-.983 1.016-2.001 1.996-3.012 2.984a.614.614 0 0 1-.383.162c-2.789.007-1.886.007-2.789.007l6.377-6.393 6.453 6.47-1.508 1.49-.05.001zM24.599 23.002l-6.413-6.447 1.5-1.555 4.939 4.909c.197-.204.376-.395.562-.58 2.625-2.601 1.746-1.738 2.625-2.601.075-.073.191-.146.29-.147 2.833-.006 1.888-.006 2.833-.006.03 0 .06.006.065.007l-6.401 6.42z"/></g></g><defs><clipPath id="a"><path fill="#fff" transform="translate(.878)" d="M0 0h40v40H0z"/></clipPath><clipPath id="b"><path fill="#fff" transform="translate(11 15)" d="M0 0h20v10.288H0z"/></clipPath></defs></svg>