<svg width="40" height="40" fill="none" xmlns="http://www.w3.org/2000/svg"><g clip-path="url(#a)" transform="matrix(1.4 0 0 1.4 -7.986 -8)"><g clip-path="url(#b)" fill="#fff"><path d="M29.9 25.042c0 1.091.098 2.128-.053 3.128-.055.36-.676.813-1.106.902-1.516.321-3.056.574-4.598.723-4.024.392-8.035.212-12.02-.48a7.201 7.201 0 0 1-.513-.112c-1.596-.407-1.606-.421-1.606-2.065V25.07c.67.067 1.248.141 1.828.182 2.38.162 4.373-.651 5.99-2.4.398-.432.791-.87 1.21-1.28.636-.617 1.195-.619 1.833-.004.444.427.862.882 1.28 1.335 1.825 1.98 4.1 2.625 6.712 2.283.316-.042.632-.088 1.043-.144zM10.005 14.766c0-1.031.002-1.936 0-2.842-.002-.637.43-.882.945-.972 1.642-.286 3.28-.666 4.936-.777 4.19-.28 8.385-.321 12.524.617 1.392.315 1.495.456 1.495 1.885v1.803c-1.975.261-3.874.381-5.702.803-1.23.282-2.349 1.019-3.54 1.495-.366.146-.921.29-1.196.121-2.876-1.775-5.986-2.461-9.462-2.133z"/><path d="M11.846 24.469c-1.843-.081-1.843-.081-1.843-1.867 0-2.028.004-4.056-.003-6.083-.002-.408-.009-.776.555-.781 2.61-.02 5.02.567 6.914 2.477.323.326.562 1.079.41 1.47-.761 1.984-2.149 3.491-4.06 4.426-.577.284-1.31.249-1.973.358zM29.84 24.167c-2.73.766-4.862-.135-6.528-2.299-.444-.578-.823-1.211-1.192-1.84-.393-.674-.234-1.277.288-1.841 1.544-1.67 5.111-2.813 7.43-2.323.002 2.735.002 5.484.002 8.303z"/></g></g><defs><clipPath id="a"><path fill="#fff" d="M0 0h40v40H0z"/></clipPath><clipPath id="b"><path fill="#fff" transform="translate(10 10)" d="M0 0h19.931v20H0z"/></clipPath></defs></svg>