<svg width="40" height="40" fill="none" xmlns="http://www.w3.org/2000/svg"><path fill-rule="evenodd" clip-rule="evenodd" d="M13.036 24.754c0 .403.227.52.607.52h.486c.475 0 .68-.05.68-.436v-.411h-.904v.285h.483v.102c0 .132-.111.14-.221.14h-.43c-.213 0-.267-.042-.267-.278v-.224c0-.235.054-.276.267-.276h.993v-.32h-1.087c-.38 0-.607.117-.607.519zM17.321 24.189v.324h.719c.114 0 .156-.035.156-.134v-.056c0-.121-.06-.134-.194-.134zm.811 1.055-.273-.41h-.538v.41H16.9v-1.376h1.295c.325 0 .412.201.412.465 0 .204-.061.397-.275.453l.35.458zM20.654 24.745c0 .403.226.528.606.528h.687c.38 0 .607-.125.607-.528v-.377c0-.403-.226-.53-.607-.53h-.687c-.38 0-.606.127-.606.53zm.433-.301c0-.171.042-.258.264-.258h.505c.223 0 .265.087.265.258v.225c0 .2-.042.257-.242.257h-.55c-.2 0-.242-.058-.242-.257zM24.714 24.747c0 .342.177.526.565.526h.616c.388 0 .565-.184.565-.526v-.865h-.417v.816c0 .175-.063.233-.236.233h-.419c-.172 0-.235-.058-.235-.233v-.816h-.439zM28.555 25.244h.422v-.346h.838c.298 0 .388-.256.388-.462v-.076c0-.269-.098-.492-.498-.492h-1.15zm.422-1.055h.619c.128 0 .173.043.173.136v.117a.12.12 0 0 1-.136.135h-.656z" fill="#ae0055" style="stroke-width:1.4"/><path fill="#fff" style="stroke-width:1.4" d="M30.1 14.688H34v1.337h-3.9zM13.076 17.35h1.5v4.752h-1.5z"/><path fill-rule="evenodd" clip-rule="evenodd" d="m9.65 17.35-1.884 1.746h-.287V17.35H6v4.752h1.479v-1.825h.302l1.987 1.825h2.294l-2.915-2.564 2.528-2.188ZM28.637 17.351v3.258l-2.596-3.258h-2.11v4.752h1.464v-3.259l2.596 3.259H30.1v-4.752zM17.484 19.343c0-.591.144-.888.912-.888h1.749c.768 0 .912.297.912.888v.767c0 .689-.144.887-.833.887h-1.906c-.69 0-.834-.198-.834-.887zm-1.497 1.028c0 1.393.781 1.826 2.094 1.826h2.379c1.313 0 2.094-.433 2.094-1.826v-1.29c0-1.392-.78-1.825-2.094-1.825h-2.38c-1.312 0-2.093.433-2.093 1.824z" fill="#fff" style="stroke-width:1.4"/></svg>