<svg width="40" height="40" fill="none" xmlns="http://www.w3.org/2000/svg"><g clip-path="url(#a)" transform="matrix(1.4 0 0 1.4 -8 -7.993)"><g clip-path="url(#b)"><path d="M30 29.96c-.057.002-.115.004-.172.004h-19.65c-.175 0-.175 0-.175-.177 0-.602.003-1.203-.003-1.805-.001-.118.032-.144.148-.144 2.719.003 5.438.002 8.157.003.081 0 .148-.007.213-.074 1.69-1.746 3.384-3.487 5.074-5.233.172-.178.318-.384.606-.217.62.08 1.123-.278 1.246-.883.107-.525-.24-1.073-.78-1.221a1.024 1.024 0 0 0-1.086.314c-.298.325-.353.71-.206 1.123.024.068.05.115-.017.185-1.702 1.747-3.4 3.496-5.097 5.248a.303.303 0 0 1-.243.098c-2.617-.003-5.234-.004-7.852.001-.14 0-.164-.04-.163-.169.005-.916.005-1.831 0-2.747 0-.12.028-.154.152-.154 1.935.005 3.87.002 5.806.005a.289.289 0 0 0 .23-.096c1.958-2.022 3.92-4.04 5.879-6.062.07-.073.122-.086.223-.053.416.138.8.062 1.113-.248.317-.314.41-.7.263-1.121a1.027 1.027 0 0 0-.875-.717 1.077 1.077 0 0 0-1.142 1.48c.036.088.012.132-.045.191a6458.598 6458.598 0 0 0-5.708 5.877.263.263 0 0 1-.207.088c-1.847-.002-3.693-.003-5.54.001-.114 0-.15-.023-.149-.143.005-.903.006-1.805 0-2.708 0-.121.037-.144.15-.143 1.275.004 2.55.001 3.826.004a.275.275 0 0 0 .22-.093c1.04-1.074 2.083-2.146 3.123-3.22.063-.066.11-.078.2-.048.416.14.8.071 1.118-.236.315-.305.415-.684.28-1.105-.136-.42-.437-.672-.87-.74-.819-.13-1.47.695-1.162 1.466.036.089.025.137-.038.203-.982 1.008-1.962 2.018-2.941 3.03a.248.248 0 0 1-.196.082 608.194 608.194 0 0 0-3.574.001c-.116 0-.136-.038-.136-.144.003-2.37.003-4.741.003-7.112 0-.806.001-1.61-.002-2.415 0-.1.019-.135.13-.135 3.343.003 6.686-.007 10.03.005a9.858 9.858 0 0 1 9.816 9.375c.001.033-.016.072.023.097V29.96z" fill="#89be56"/></g></g><defs><clipPath id="a"><path fill="#fff" d="M0 0h40v40H0z"/></clipPath><clipPath id="b"><path fill="#fff" transform="translate(10 10)" d="M0 0h20v19.964H0z"/></clipPath></defs></svg>