<svg width="40" height="40" fill="none" xmlns="http://www.w3.org/2000/svg"><g clip-path="url(#a)" transform="matrix(1.4 0 0 1.4 -8 -8.173)"><g clip-path="url(#b)" fill="#fff"><path d="M15.431 20.286v1.364c0 .166 0 .166-.168.166h-.332c-.1 0-.12-.02-.12-.118l-.002-2.568c0-.04-.01-.093.042-.103.045-.01.096.002.144.01.015.002.027.02.04.032l1.486 1.426.041.037v-1.35c0-.108.017-.124.125-.124h.402c.073 0 .098.025.098.097v2.61c0 .087-.092.126-.178.075-.025-.015-.046-.036-.066-.057l-1.449-1.455c-.016-.016-.03-.036-.044-.054l-.019.012zM21.887 21.803c-.064 0-.128-.003-.192 0-.076.005-.124-.03-.154-.097-.04-.09-.083-.178-.123-.269-.013-.03-.027-.044-.063-.043h-.99c-.035 0-.05.013-.064.043-.038.09-.08.176-.118.265-.03.07-.08.103-.159.101-.131-.002-.263 0-.396 0-.096 0-.121-.04-.08-.128l1.035-2.222.178-.383c.02-.042.044-.07.096-.07.053-.001.081.024.102.069l1.213 2.605c.042.09.015.129-.087.129h-.198zM20.858 20.2l-.296.65h.596l-.3-.65zM14.183 21.816c-.066 0-.133-.003-.198 0-.075.006-.121-.029-.15-.094-.042-.091-.085-.182-.125-.274-.013-.032-.032-.04-.065-.04h-.984c-.034 0-.051.01-.064.04-.038.09-.078.177-.118.266-.032.07-.082.106-.163.104-.13-.005-.26-.002-.39-.002-.103 0-.127-.037-.084-.129l.715-1.534.494-1.06c.02-.046.046-.079.102-.079.056 0 .082.032.103.078l1.208 2.595c.043.092.019.13-.083.13l-.198-.001zm-.73-.947-.302-.654-.297.654h.599zM10.618 20.814v.88c0 .103-.02.122-.123.122h-.401c-.07 0-.094-.025-.094-.095v-2.568c0-.07.024-.095.094-.095.326 0 .652-.002.978.002a.842.842 0 0 1 .828.735c.05.382-.081.687-.41.898a.783.783 0 0 1-.407.12c-.153.004-.306.001-.465.001zm.004-1.173v.598h.373c.168 0 .276-.09.306-.256.029-.158-.077-.33-.223-.34-.15-.01-.301-.002-.456-.002zM28.925 20.041l.26-.436c.098-.163.197-.325.292-.488.027-.046.06-.066.113-.064.093.002.187-.003.28.002.032.002.076.017.091.041.013.02 0 .067-.016.093-.243.386-.487.772-.733 1.157-.025.039-.026.066-.001.107.252.402.502.804.752 1.207l.023.04c.033.063.005.113-.067.114-.097.002-.194 0-.29.001-.049 0-.074-.026-.096-.063l-.56-.916-.049-.074-.103.17c-.163.27-.326.539-.488.81-.031.052-.068.078-.131.074-.083-.004-.167 0-.25-.001-.095-.002-.123-.053-.073-.132.257-.412.513-.824.772-1.235.023-.037.023-.061 0-.097-.244-.381-.486-.764-.728-1.147-.007-.011-.015-.022-.021-.034-.033-.06-.009-.113.06-.115.111-.003.224 0 .337 0 .047 0 .07.034.091.07l.49.843.045.073zM18.889 19.635v2.063c0 .102-.016.118-.118.118h-.395c-.091 0-.11-.018-.11-.11v-1.992c0-.079 0-.079-.078-.079h-.454c-.092 0-.108-.017-.108-.11v-.37c0-.075.023-.097.098-.097h1.706c.078 0 .099.021.1.1v.384c-.001.07-.023.093-.095.093H18.888zM22.98 19.426v.91h1.012c.092 0 .114.022.114.112v.157c0 .071-.026.096-.099.1H22.976v1.002c0 .084-.023.107-.105.107h-.222c-.053 0-.077-.028-.08-.078v-2.568c0-.094.018-.114.11-.115h1.509c.09 0 .113.025.114.114v.157c-.002.077-.027.102-.109.102H22.98zM25.258 21.448h1.019c.11 0 .126.016.126.123v.163c-.002.056-.027.08-.084.08h-1.385c-.06 0-.085-.024-.086-.084-.002-.09 0-.178 0-.267v-2.29c0-.103.016-.12.121-.12h.17c.097 0 .12.022.12.12v2.275zM27.317 20.44v1.254c0 .102-.02.12-.122.12h-.204c-.057 0-.085-.027-.088-.084v-2.55c0-.106.02-.126.124-.127h.169c.097 0 .12.023.12.12v1.266z"/></g></g><defs><clipPath id="a"><path fill="#fff" d="M0 0h40v40H0z"/></clipPath><clipPath id="b"><path fill="#fff" transform="translate(10 19)" d="M0 0h20v2.863H0z"/></clipPath></defs></svg>