<svg width="40" height="40" fill="none" xmlns="http://www.w3.org/2000/svg"><g clip-path="url(#a)" transform="matrix(1.4 0 0 1.4 -8 -7.957)"><g clip-path="url(#b)"><path d="M29.553 13c0 .757-.04 1.516.013 2.269.04.556-.136.68-.682.678-4.502-.024-9.005-.015-13.507-.012-.907 0-1.464.365-1.556.99-.129.896.423 1.498 1.403 1.5 3.107.005 6.215-.007 9.322.007.853.003 1.722-.133 2.557.07 1.612.393 2.806 1.923 2.888 3.603.099 2-.869 3.584-2.511 4.258-.622.254-1.291.176-1.9.422H10.437c-.402-.94-.218-1.91-.128-2.87.026-.277.303-.36.554-.399.316-.047.635-.034.953-.034l12.407-.001c.294 0 .588.016.88-.038.505-.094.774-.416.778-.916.005-.478-.279-.766-.732-.883-.335-.086-.68-.061-1.023-.063-3.378-.003-6.755 0-10.133-.001-1.326 0-2.412-.483-3.289-1.497-.492-.575-.567-1.265-.704-1.95v-1.76c.187-1.942 1.604-3.261 3.676-3.373h15.877z" fill="#19488f"/></g></g><defs><clipPath id="a"><path fill="#fff" d="M0 0h40v40H0z"/></clipPath><clipPath id="b"><path fill="#fff" transform="translate(10 13)" d="M0 0h20v13.785H0z"/></clipPath></defs></svg>