<svg width="40" height="40" fill="none" xmlns="http://www.w3.org/2000/svg"><mask id="a" mask-type="alpha" maskUnits="userSpaceOnUse" x="10" y="18" width="20" height="4"><path fill="#fff" d="M10 18.112h20v3.776H10z"/></mask><g mask="url(#a)" transform="matrix(1.4 0 0 1.4 -8 -8)" fill-rule="evenodd" clip-rule="evenodd"><path d="M19.243 21.888c1.923 0 3.695-.013 5.63-.102.703-.027 3.825-.177 4.139-.375H10.764c.19.13 1.813.239 2.004.252 2.085.157 4.396.225 6.475.225z" fill="#7ec31d"/><path d="m25.678 20.913.212-1.308c.034-.191.04-.239.177-.239.136-.007.136.027.116.15l-.232 1.411h.709l.252-1.438c.02-.096.041-.137.184-.13.15 0 .102.13.075.266l-.232 1.302.689-.007.28-1.52c.081-.436-.035-.593-.54-.586l-2.051.02-.368 2.086zM10.859 20.395c-.184.007-.123-.075-.041-.538l.02-.157c.02-.184.048-.334.232-.334.15.007.082.225.068.314-.027.136-.061.327-.095.47-.041.164-.027.245-.184.245zm.088-2.235-.552.19L10 20.56c.027.43.532.368.934.368.525 0 .634-.109.784-.525l.19-1.131c.021-.518-.45-.437-.892-.437l.109-.722zM17.6 20.436h-.17c-.198.007-.211.028-.19-.15.006-.109.027-.136.081-.136l.327-.007zm-1.063.184c-.02.184.191.3.518.307.286.007.88.027 1.139-.02l.245-1.418c.054-.273-.034-.505-.157-.58-.177-.102-.825-.095-1.063-.054-.362.054-.484.273-.532.647l.702.007c.02-.081 0-.204.211-.19.232.02.185.109.157.32-.225 0-.79-.034-.954.04-.15.069-.184.178-.198.3zM12.809 19.639c.02-.198.006-.314.231-.314.266-.007.177.102.157.314zm-.791.852c-.027.19.04.422.3.422h.859a.544.544 0 0 0 .36-.095c.11-.089.185-.239.205-.552l-.647.007c-.007.143-.02.204-.266.184-.082-.007-.13-.02-.123-.096l.02-.245h1.044c.204-.839.293-1.248-.198-1.254h-.804c-.328-.007-.566.265-.6.51zM24.199 19.516l-.109.743c-.014.11-.096.184-.218.177h-.021c-.116-.02-.102-.068-.075-.19.034-.219.075-.437.11-.655.047-.225.027-.252.184-.252.143 0 .156-.02.129.177zm-.954 1.37c.047.02.095.034.15.034l.825-.013c.081 0 .17-.041.286-.089.075-.082.184-.13.198-.218l.259-1.282c.054-.252-.082-.456-.389-.463l-.811-.007c-.143-.007-.464.13-.546.498l-.17 1.104c-.027.177.007.368.198.436zM14.029 20.402c-.055.573.381.552.879.518l.102-.518-.225-.007.164-1.07.245-.007.082-.484h-.238l.06-.463-.756.252zM16.271 19.639h-.947l-.082.477h.954zM28.875 19.625c.02-.198.007-.307.239-.313.259 0 .177.109.15.313zm-.79.859c-.028.19.04.416.3.423h.865c.157 0 .28-.034.361-.103.11-.081.184-.231.198-.545l-.64.007c-.014.143-.028.198-.266.184-.09-.007-.137-.027-.13-.102l.02-.239h1.043c.205-.845.294-1.254-.19-1.254l-.812-.007a.611.611 0 0 0-.593.518zM18.548 20.402c-.054.566.382.545.88.511l.102-.518-.225-.006.157-1.07.252-.007.075-.478-.232-.006.061-.464-.756.252zM20.818 19.646h-.954l-.075.477h.954zM21.663 20.913c.075-.402.17-.94.184-1.008l.02-.157c.021-.184.048-.334.232-.327.15 0 .082.218.069.306-.014.096-.13.73-.218 1.186h.709l.279-1.595c.02-.518-.443-.436-.893-.436l.11-.723-.178.055-.552.184-.45 2.515z" fill="#fff"/></g></svg>