<svg width="40" height="40" fill="none" xmlns="http://www.w3.org/2000/svg"><g clip-path="url(#a)" transform="matrix(1.4 0 0 1.4 -7.992 -7.992)"><mask id="b" mask-type="alpha" maskUnits="userSpaceOnUse" x="10" y="17" width="21" height="6"><path fill="#fff" d="M10 17.357h20v5.287H10z"/></mask><g mask="url(#b)" fill-rule="evenodd" clip-rule="evenodd"><path d="M10 17.36c3.389-.007 6.778.001 10.166-.003 3.265.004 6.53-.005 9.796.004-.004 1.746-.002 3.493-.002 5.239-3.143.007-6.286.003-9.429.002-3.51 0-7.02.006-10.53-.002-.002-1.747.001-3.493 0-5.24zm1.303 1.268c-.005.904-.009 1.808.002 2.712.63.004 1.26.007 1.89-.001a11.733 11.733 0 0 1 0-.336c-.515-.001-1.031.01-1.547-.006.004-.307-.002-.615.003-.922.463-.001.926.007 1.39-.004.01-.115.01-.23 0-.346-.463-.007-.926 0-1.388-.003a24.433 24.433 0 0 1-.002-.756c.504.002 1.008.006 1.512-.002.009-.112.01-.224.003-.336h-1.863zm2.503-.006c-.007.905-.01 1.812.002 2.718 1.355.008 2.71 0 4.065.003.197.001.398-.006.586-.074a1.38 1.38 0 0 0 .933-1.123 1.389 1.389 0 0 0-.65-1.325c-.245-.16-.544-.21-.831-.205-1.368.006-2.737-.005-4.105.006zm6.118.003c-.007.904-.005 1.807-.001 2.71.602.015 1.205.01 1.807.004a4.008 4.008 0 0 0-.002-.337c-.48 0-.96.01-1.44-.004-.01-.31-.014-.62.002-.929.422.005.844.002 1.265 0 .004-.114.004-.228.004-.343-.424-.007-.847-.004-1.27-.001a8.059 8.059 0 0 1 0-.763c.465-.005.93.004 1.395-.004a18.88 18.88 0 0 1-.005-.337c-.585-.005-1.17-.01-1.755.004zm2.5 0c.001.904.002 1.809-.001 2.714 1.196.005 2.394.012 3.591-.004-.01-.11-.007-.221 0-.331-1.074-.002-2.147.01-3.22-.006.003-.792.005-1.584 0-2.376a2.91 2.91 0 0 0-.37.002z" fill="#a61644"/><path d="M14.177 18.96c1.287 0 2.574-.005 3.861.002.509.001.972.428 1.012.935a.98.98 0 0 1-.482.938c-.217.143-.484.172-.737.171-1.218-.004-2.436.002-3.654-.003a178.44 178.44 0 0 1 0-2.043z" fill="#a61644"/><path d="M11.303 18.628h1.863a2.53 2.53 0 0 1-.003.336c-.503.008-1.007.004-1.512.002-.002.252-.003.504.002.756.462.003.925-.004 1.387.003.01.115.01.231 0 .346-.463.011-.926.003-1.39.003-.004.308.002.616-.001.923.515.017 1.031.005 1.547.006a11.74 11.74 0 0 0 0 .336c-.63.008-1.26.005-1.89 0-.012-.903-.008-1.807-.003-2.71ZM13.806 18.622c1.368-.011 2.737 0 4.105-.006.287-.005.586.045.83.205.448.269.712.806.651 1.324a1.38 1.38 0 0 1-.933 1.124c-.188.068-.39.075-.586.074-1.355-.003-2.71.004-4.065-.003-.012-.906-.01-1.813-.002-2.718zm.371.338a178.44 178.44 0 0 0 0 2.043c1.218.005 2.436 0 3.654.003.253 0 .52-.028.737-.171a.98.98 0 0 0 .482-.938 1.046 1.046 0 0 0-1.012-.935c-1.287-.007-2.574-.001-3.86-.002zM19.924 18.625c.585-.015 1.17-.009 1.755-.004 0 .113.003.225.006.337-.466.008-.93 0-1.396.004a8.026 8.026 0 0 0 0 .763c.423-.003.846-.006 1.27 0 0 .116 0 .23-.004.345-.421 0-.843.004-1.265 0-.016.308-.012.619-.002.928.48.013.96.005 1.44.004.006.112.006.225.002.337-.602.006-1.205.011-1.807-.003-.004-.904-.006-1.807 0-2.711zM22.423 18.624c.123-.009.247-.009.37-.002.006.791.004 1.584.001 2.376 1.073.015 2.146.004 3.22.006-.007.11-.01.22 0 .33-1.197.017-2.395.01-3.591.004.003-.904.002-1.809 0-2.714z" fill="#f25a31"/></g></g><defs><clipPath id="a"><path fill="#fff" d="M0 0h40v40H0z"/></clipPath></defs></svg>