<svg width="40" height="40" fill="none" xmlns="http://www.w3.org/2000/svg"><path fill-rule="evenodd" clip-rule="evenodd" d="M28.08 20.581c0 .958.6 1.862 1.773 1.862 1.147 0 1.761-.904 1.761-1.862v-.192h-.674v.193c0 .712-.338 1.25-1.087 1.25-.749 0-1.087-.552-1.087-1.25v-2.93h-.686z" fill="#fff" style="stroke-width:1.4"/><path fill="#fff" style="stroke-width:1.4" d="M26.459 17.653h.686v4.695h-.686z"/><path fill-rule="evenodd" clip-rule="evenodd" d="M17.86 20.044a2.37 2.37 0 0 0 2.385 2.392 2.369 2.369 0 0 0 2.385-2.392 2.367 2.367 0 0 0-2.385-2.384h-.11v.598h.11c.977 0 1.748.78 1.748 1.786 0 1.013-.77 1.794-1.748 1.794-.977 0-1.749-.781-1.749-1.794zM31.003 18.776c0 .577.27.906.7 1.137.333.177.683.218 1.01.34.476.177.62.42.62.765 0 .472-.323.773-.858.773h-.068v.558h.04c.95 0 1.553-.593 1.553-1.334 0-.487-.237-.978-.861-1.257-.333-.15-.734-.226-1.025-.349-.32-.136-.436-.32-.436-.627 0-.367.305-.646.77-.646.611 0 .896.3.91.735h.617c.021-.681-.472-1.314-1.527-1.314-.868 0-1.445.538-1.445 1.218M22.784 18.271h1.371c.444 0 .873.347.873.862 0 .497-.395.87-.894.87h-.723v.618l.545-.005.911 1.731h.756l-.985-1.81a1.49 1.49 0 0 0 1.028-1.403c0-.85-.61-1.481-1.49-1.481h-1.392z" fill="#fff" style="stroke-width:1.4"/><path fill-rule="evenodd" clip-rule="evenodd" d="M15.74 18.271h.833v4.077h.678v-4.077h1.956v-.618H15.74zM8.88 22.348h.665l1.482-3.887 1.532 3.887h.714l-1.892-4.695h-.707zM6.15 18.774c0 .544.223.911.68 1.142.333.17.693.218 1.019.34.346.13.478.238.526.429h.7c-.097-.402-.367-.727-.783-.918-.332-.15-.755-.231-1.046-.354-.319-.135-.416-.326-.416-.632 0-.367.304-.645.77-.645.61 0 .893.299.907.734h.617c.02-.68-.471-1.312-1.525-1.312-.866 0-1.448.537-1.448 1.217M6 20.888c-.021.76.49 1.461 1.647 1.461h.041v-.57h-.041c-.617 0-1.003-.394-1.003-.89v-.251h-.644zM12.535 18.271h1.397c.443 0 .873.347.873.862 0 .497-.395.87-.894.87h-.749v.618l.571-.005.911 1.731h.756l-.985-1.81a1.49 1.49 0 0 0 1.029-1.403c0-.85-.61-1.481-1.49-1.481h-1.419z" fill="#fff" style="stroke-width:1.4"/></svg>