<svg width="40" height="40" fill="none" xmlns="http://www.w3.org/2000/svg"><g clip-path="url(#a)" transform="matrix(1.4 0 0 1.4 -8 -7.992)"><g clip-path="url(#b)"><path d="M17.064 23.887a4.891 4.891 0 0 0-1.476 2.644c-.084.413-.088.842-.176 1.253-.249 1.162-1.164 1.973-2.358 2.124-.054.007-.106.035-.16.053h-.462c-.674-.022-1.234-.29-1.704-.768A2.418 2.418 0 0 1 10 27.531v-.694c.065-.992.59-1.679 1.437-2.147.415-.23.874-.295 1.336-.336 1.523-.136 2.734-.815 3.605-2.075.46-.665.69-1.416.748-2.22.067-.922.372-1.726 1.123-2.318.494-.39 1.067-.57 1.685-.617.8-.061 1.556-.267 2.244-.687 1.31-.8 2.002-1.993 2.18-3.497.078-.666.17-1.318.595-1.873.494-.647 1.126-1.03 1.95-1.067h.695c.383.125.783.208 1.123.445.225.158.452.313.61.546.047.166-.054.274-.156.378-1.215 1.238-2.4 2.504-3.602 3.753-.862.896-1.758 1.759-2.577 2.696-.462.53-.972 1.017-1.462 1.52-.684.707-1.339 1.441-2.05 2.122-.522.5-.993 1.05-1.5 1.564-.232.233-.475.45-.737.647a.69.69 0 0 0-.184.216z" fill="#f0d1ab"/><path d="M10 20.472v-.694c.035-.863.444-1.515 1.141-1.997.497-.343 1.06-.493 1.658-.541 1.674-.137 2.966-.903 3.826-2.357.374-.633.56-1.33.617-2.06.085-1.083.51-1.961 1.467-2.547.338-.207.71-.215 1.074-.276h.695c.116.067.246.032.367.04 1.048.075 2.086 1.2 2.168 2.446.116 1.756-.992 3.029-2.744 3.184-.916.082-1.79.3-2.551.841-1.185.842-1.834 2.002-1.99 3.44-.073.667-.196 1.31-.594 1.88-.945 1.354-3.02 1.584-4.243.473-.546-.498-.874-1.084-.891-1.832Z" fill="#f2d3ad"/><path d="M19.552 29.961c-.503-.126-.991-.277-1.411-.606-.844-.662-1.256-1.821-.993-2.835.29-1.118 1.147-1.9 2.267-2.063.409-.06.821-.101 1.228-.174 1.849-.328 3.493-2.084 3.718-3.943.057-.475.062-.958.227-1.42.44-1.227 1.657-2.003 2.94-1.858 1.232.14 2.275 1.174 2.438 2.422.196 1.492-.892 2.91-2.388 3.073-.935.102-1.848.253-2.658.77-1.317.838-2.058 2.042-2.243 3.585-.087.72-.167 1.432-.679 2.01-.462.521-1.01.883-1.708.992-.035.005-.068.031-.102.047h-.636z" fill="#dfc19a"/><path d="M12.605 10h.695c.728.024 1.33.32 1.835.837.867.887 1.074 2.246.6 3.299-.526 1.163-1.448 1.798-2.747 1.817-1.311.02-2.23-.604-2.81-1.761-.143-.284-.111-.598-.178-.894v-.694c.054-.416.074-.836.325-1.205.552-.812 1.245-1.38 2.28-1.399z" fill="#f2d3ad"/><path d="M28.64 24.591c1.42.797 1.783 2.855.737 4.201-.473.61-1.087.993-1.855 1.119-.034.006-.064.033-.097.05h-.752c-.525-.14-1.042-.297-1.466-.66-.212-.18-.417-.366-.553-.614.133-.205.341-.334.506-.507.99-1.03 1.96-2.08 2.974-3.088.17-.167.268-.405.506-.5z" fill="#ccac85"/><path d="M17.063 23.887c-.026-.179.123-.259.222-.347 1.036-.923 1.942-1.975 2.92-2.955a83.582 83.582 0 0 0 2.632-2.75c.854-.935 1.77-1.81 2.62-2.748.218-.239.445-.476.678-.704.673-.66 1.297-1.367 1.952-2.044.332-.344.644-.71 1.007-1.026a.852.852 0 0 0 .239-.322c.699.836.848 1.787.451 2.777-.395.986-1.166 1.578-2.24 1.665-1.311.107-2.478.512-3.432 1.446-.86.842-1.273 1.885-1.368 3.064-.13 1.613-1.057 2.624-2.671 2.768-1.132.102-2.124.483-3.01 1.176z" fill="#e4c59e"/><path d="M28.64 24.591c-.1.221-.266.395-.432.565-.719.743-1.458 1.468-2.157 2.23-.338.368-.7.71-1.036 1.079-.098.108-.207.202-.36.223-.647-.938-.723-1.939-.231-2.948.488-1.002 1.32-1.554 2.445-1.627.643-.043 1.242.09 1.772.478z" fill="#d5b68f"/></g></g><defs><clipPath id="a"><path fill="#fff" d="M0 0h40v40H0z"/></clipPath><clipPath id="b"><path fill="#fff" transform="translate(10 10)" d="M0 0h20v19.961H0z"/></clipPath></defs></svg>