<svg width="40" height="40" fill="none" xmlns="http://www.w3.org/2000/svg"><g clip-path="url(#a)" transform="matrix(1.4 0 0 1.4 -7.99 -7.99)"><mask id="b" mask-type="alpha" maskUnits="userSpaceOnUse" x="10" y="10" width="20" height="20"><path fill="#fff" d="M10.878 10h18.244v20H10.878z"/></mask><g mask="url(#b)"><path fill-rule="evenodd" clip-rule="evenodd" d="M10.882 10c1.486.036 2.973.01 4.458.014.113.02.297-.054.352.088 1.435 2.754 2.854 5.515 4.291 8.267 1.444-2.788 2.878-5.584 4.343-8.361 1.582.013 3.165.02 4.747-.004-.004 4.88-.008 9.763.002 14.645-1.128.003-2.255.002-3.382 0 .016-3.463 0-6.926.008-10.39-1.052 2.04-2.137 4.064-3.185 6.106.694.237 1.35.67 1.723 1.314.23.38.326.819.381 1.253-1.035-.002-2.07-.003-3.105 0 .008-.387-.284-.687-.62-.832-.559-.243-1.21-.25-1.788-.065-.303.096-.605.372-.536.72.1.364.483.528.806.648 1.346.433 2.794.51 4.097 1.084.578.253 1.132.648 1.416 1.228.421.917.216 2.078-.467 2.816-.651.696-1.586 1.035-2.5 1.224-1.5.295-3.092.274-4.548-.232-.778-.275-1.532-.736-1.97-1.455-.259-.422-.383-.914-.407-1.406 1.104.004 2.209-.008 3.313.007.02.459.237.936.683 1.12.667.283 1.452.31 2.139.077.384-.123.706-.491.65-.913-.016-.37-.395-.546-.695-.656-1.23-.42-2.532-.59-3.76-1.022-.596-.221-1.21-.524-1.574-1.07-.44-.668-.391-1.557-.076-2.267.341-.745 1.049-1.245 1.794-1.537-1.072-2.048-2.157-4.09-3.212-6.147.02 3.465.003 6.931.01 10.397l-3.392-.001c.01-4.884.003-9.767.004-14.65z" fill="#008e70"/></g></g><defs><clipPath id="a"><path fill="#fff" d="M0 0h40v40H0z"/></clipPath></defs></svg>