<svg width="40" height="40" fill="none" xmlns="http://www.w3.org/2000/svg"><g clip-path="url(#a)" transform="matrix(1.4 0 0 1.4 -8 -8)"><mask id="b" mask-type="alpha" maskUnits="userSpaceOnUse" x="10" y="15" width="20" height="10"><path fill="#fff" d="M10 15.668h20v8.663H10z"/></mask><g mask="url(#b)" fill-rule="evenodd" clip-rule="evenodd" fill="#fff"><path d="M11.836 19.79h.538v-.983h.993v.982h.539v-2.447h-.539v.969h-.993v-.969h-.538v2.447zm2.29 0h.549l.223-.55h1.035l.224.55h.563l-1.049-2.465h-.496zm.965-1.025.325-.794.325.794zm2.164 1.042h.468l.553-1.601.552 1.6h.468l.836-2.464h-.563L19.062 19l-.549-1.664h-.461L17.503 19l-.507-1.657h-.577l.836 2.465zm3.118-.018h1.864v-.479h-1.329v-.514h1.154v-.479h-1.154v-.496h1.311v-.479h-1.846zm3.23.035c.528 0 .9-.272.9-.758v-.007c0-.427-.28-.605-.777-.735-.423-.108-.528-.16-.528-.321v-.007c0-.119.108-.213.315-.213.206 0 .42.09.636.24l.28-.405a1.417 1.417 0 0 0-.91-.31c-.5 0-.856.293-.856.737v.007c0 .486.318.622.811.748.41.105.493.175.493.311v.007c0 .143-.133.23-.353.23-.28 0-.51-.115-.73-.296l-.319.38c.294.263.668.392 1.039.392m1.35-.035h.538v-.748l.283-.294.758 1.042h.647l-1.042-1.409.997-1.038h-.65l-.993 1.07v-1.07h-.539v2.447zm3.497.042c.755 0 1.304-.57 1.304-1.265v-.007c0-.696-.542-1.259-1.297-1.259-.755 0-1.304.57-1.304 1.266v.007c0 .695.542 1.258 1.297 1.258zm.007-.496c-.434 0-.741-.35-.741-.77v-.006c0-.42.3-.763.734-.763.433 0 .741.35.741.77v.007c0 .42-.3.762-.734.762zM26.64 22.677c.238 0 .436-.1.568-.218v-.57h-.584v.145h.43v.355a.66.66 0 0 1-.408.143c-.343 0-.56-.253-.56-.594v-.004c0-.319.225-.587.538-.587.2 0 .321.068.43.164l.103-.123a.74.74 0 0 0-.527-.19c-.424 0-.709.348-.709.74v.004c0 .409.275.735.719.735m-1.095-.024-.644-1.44h-.15l-.644 1.44h.164l.168-.378h.769l.166.378zm-.4-.525h-.644l.323-.727.321.727zm-13.15-.905h-.16v1.43h.16v-.644h.816v.644h.16v-1.43h-.16v.635h-.816v-.635zm1.556.715v.004c0 .394.288.735.719.735.43 0 .723-.345.723-.74v-.003c0-.395-.29-.736-.72-.736s-.722.346-.722.74m.165-.004c0-.325.23-.587.554-.587.323 0 .557.266.557.59v.005c0 .325-.23.586-.553.586-.324 0-.558-.265-.558-.59v-.004zm2.016-.711h-.16v1.43h.956v-.15h-.796zm1.824 0h-.491v1.43h.49c.445 0 .752-.313.752-.715v-.004c0-.403-.307-.711-.751-.711m-.332.15h.332c.357 0 .585.248.585.565v.004c0 .317-.228.562-.585.562h-.332v-1.132zm1.836-.15h-.16v1.43h.16zm.806 0h-.15v1.43h.156V21.48l.913 1.173h.127v-1.43h-.155v1.146l-.89-1.146zm1.626.715v.004c0 .409.275.735.719.735.238 0 .436-.1.567-.218v-.57h-.583v.145h.43v.355a.66.66 0 0 1-.408.143c-.343 0-.56-.253-.56-.594v-.004c0-.319.225-.587.538-.587.2 0 .32.068.43.164l.103-.123a.74.74 0 0 0-.527-.19c-.424 0-.71.348-.71.74M10.405 15.914h-.16v8.172h.16z"/></g></g><defs><clipPath id="a"><path fill="#fff" d="M0 0h40v40H0z"/></clipPath></defs></svg>