<svg width="40" height="40" fill="none" xmlns="http://www.w3.org/2000/svg"><path d="M34 9.828a.561.561 0 0 0-.569-.569h-4.05a.561.561 0 0 0-.569.569v7.924h-8.634v5.187h8.634v7.924c0 .32.249.569.569.569h4.05c.32 0 .569-.249.569-.569Z" fill="#fff" style="stroke-width:1.4"/><path d="M20.178 17.751H14.99v-6.396a2.609 2.609 0 0 1 2.594-2.594 2.609 2.609 0 0 1 2.594 2.594z" fill="#009d3b" style="stroke-width:1.4"/><path d="M20.178 22.94H14.99v7.923c0 .32.249.568.568.568h4.051c.32 0 .569-.248.569-.568z" fill="#009ee3" style="stroke-width:1.4"/><path d="M20.178 17.751H14.99v5.188h5.188z" fill="#fff" style="stroke-width:1.4"/><path d="M14.99 17.751v5.153H8.594A2.609 2.609 0 0 1 6 20.31a2.609 2.609 0 0 1 2.594-2.594h6.396z" fill="#fec600" style="stroke-width:1.4"/></svg>