<svg width="40" height="40" fill="none" xmlns="http://www.w3.org/2000/svg"><g clip-path="url(#a)" transform="matrix(1.4 0 0 1.4 -7.968 -7.97)"><mask id="b" mask-type="alpha" maskUnits="userSpaceOnUse" x="11" y="10" width="18" height="20"><path fill="#fff" d="M11.464 10h17.073v20H11.464z"/></mask><g mask="url(#b)"><path fill-rule="evenodd" clip-rule="evenodd" d="m28.374 19.921-14.66.695c.012-.463.013-.926.001-1.39zm-2.425 1.555-12.32.681c.038-.445.065-.898.08-1.358zm-2.078 1.5-10.414.672c.065-.435.117-.881.158-1.335zm-2.887 1.58-7.811.657c.093-.429.174-.86.243-1.294zm-2.774 1.552-5.437.645c.122-.403.233-.82.334-1.25zm-2.304 1.509-3.674.662c.167-.408.319-.823.453-1.243zm-2.628 1.436-1.814.799c.244-.423.463-.86.656-1.308zm12.671-10.686-12.239.676c-.015-.46-.041-.912-.078-1.358Zm-2.078-1.5-10.253.662c-.041-.454-.094-.899-.157-1.335Zm-2.887-1.58-7.564.636a22.687 22.687 0 0 0-.24-1.293zm-2.774-1.553-5.097.604c-.097-.42-.207-.836-.331-1.248zm-2.304-1.51-3.213.58a17.11 17.11 0 0 0-.449-1.24zm-2.628-1.435-1.148.505A12.66 12.66 0 0 0 11.485 10Z" fill="#fff"/></g></g><defs><clipPath id="a"><path fill="#fff" d="M0 0h40v40H0z"/></clipPath></defs></svg>