<svg width="40" height="40" fill="none" xmlns="http://www.w3.org/2000/svg"><g clip-path="url(#a)" transform="matrix(1.4 0 0 1.4 -8 -8.155)"><g clip-path="url(#b)"><path d="M28.788 14c0 .15 0 .298.005.448 0 .048-.02.06-.064.06-.344-.001-.689-.002-1.033 0-.055 0-.064-.023-.063-.07.003-.146.003-.292.003-.438h1.152Z" fill="#2896d2"/><path d="M10.969 19.14c.318-.429.748-.54 1.226-.524.486.017.871.233 1.155.626.038.052.053.044.087-.002.306-.405.72-.598 1.223-.623.398-.02.777.04 1.124.248.43.257.664.643.749 1.13.037.211.052.425.053.64.002.854 0 1.709.003 2.563 0 .08-.02.104-.102.103a23.624 23.624 0 0 0-.858 0c-.079.001-.096-.022-.096-.097.003-.774.003-1.547.001-2.32 0-.221-.002-.442-.053-.659-.103-.429-.364-.646-.78-.647a.854.854 0 0 0-.822.651c-.045.178-.06.358-.06.541 0 .802-.002 1.605.004 2.408 0 .105-.032.126-.13.123a18.784 18.784 0 0 0-.828 0c-.084.002-.1-.026-.1-.104.003-.812.002-1.624.002-2.436 0-.223-.022-.441-.1-.651-.193-.52-.856-.712-1.278-.367-.19.155-.258.376-.3.606-.038.211-.04.426-.038.64.003.741 0 1.482.002 2.223 0 .065-.012.09-.084.089a34.548 34.548 0 0 0-.887 0c-.066 0-.082-.02-.082-.083.002-1.459.002-2.918 0-4.377 0-.064.019-.082.083-.081.27.003.54.003.81 0 .058 0 .08.015.077.076-.005.093-.001.187-.001.303zM20.97 22.557c-.239.437-.59.72-1.073.809-.535.099-1.05.04-1.512-.275-.392-.268-.592-.651-.663-1.112a3.648 3.648 0 0 1-.04-.553c0-.852 0-1.703-.002-2.555 0-.076.019-.096.095-.095.29.005.58.004.869 0 .073-.001.091.018.09.091-.002.826 0 1.651-.001 2.477 0 .19.019.375.075.557.182.6.823.65 1.204.41.31-.195.407-.5.422-.842.027-.588.008-1.176.012-1.764.002-.283.002-.566-.001-.848 0-.065.019-.081.082-.08.296.002.592.003.887-.001.074-.001.083.026.083.09-.002.757-.003 1.514-.001 2.271 0 .257.004.513.091.76.174.492.824.708 1.253.415.228-.155.303-.396.347-.65.023-.136.022-.272.022-.409l-.001-2.379c0-.072.012-.1.093-.098.29.005.58.004.869 0 .068 0 .093.01.093.088-.004.884-.002 1.768-.003 2.652 0 .274-.035.546-.126.805-.22.622-.684.951-1.318 1.057-.36.06-.719.043-1.063-.097-.32-.131-.534-.328-.783-.724zM25.432 21.802c-.001-.035-.005-.07-.005-.106 0-1.53 0-3.06-.003-4.591 0-.098.029-.117.12-.115.276.006.552.005.828 0 .076 0 .098.018.098.097-.004.61-.002 1.221-.002 1.832v.104c.037.016.053-.011.072-.025a2.132 2.132 0 0 1 2.741.226 2.407 2.407 0 0 1-.231 3.632c-.363.275-.778.42-1.232.424-.77.008-1.541.002-2.312.002-.041 0-.082.01-.081-.059.005-.305.004-.61.006-.916l1.05-.002c.436 0 .872.004 1.307 0 .183-.001.36-.043.526-.125.603-.299.897-1.005.691-1.658-.171-.541-.649-.928-1.164-.943a1.32 1.32 0 0 0-1.36 1.276c-.009.315-.004.63-.006.945l-1.043.002z" fill="#fff"/><path d="m10.706 25.331-.164.686c-.024.098-.052.195-.07.293-.012.07-.058.055-.102.057-.045.002-.076-.001-.087-.061-.08-.42-.167-.84-.247-1.26-.005-.027-.056-.085.02-.087.055-.001.136-.043.153.064.023.15.053.3.08.45l.097.544h.013c.074-.323.148-.646.22-.97.013-.053.02-.093.095-.095.08-.001.088.044.1.099l.199.902c.006.028.015.055.025.092.062-.346.12-.68.181-1.013.012-.064.12-.107.17-.07.024.017.013.042.009.062-.084.427-.17.853-.253 1.279-.01.054-.038.066-.088.064-.05-.002-.09.005-.106-.066-.067-.307-.14-.613-.212-.919-.004-.017.003-.04-.033-.05zM24.839 15.502c-.17 0-.338-.002-.507 0-.056.002-.073-.016-.072-.071.004-.12.003-.24 0-.36 0-.051.017-.07.067-.07h1.034c.052 0 .068.02.067.07-.002.12-.003.24 0 .36.003.057-.017.073-.072.072-.172-.003-.345-.001-.517-.001Z" fill="#2896d2"/><path d="M27.046 16.497c-.169 0-.338-.002-.507 0-.055.002-.074-.015-.072-.07.004-.12.003-.241 0-.361-.001-.05.017-.069.067-.069.345.002.69.002 1.034 0 .05 0 .068.018.066.069-.002.12-.003.24 0 .36.002.056-.016.073-.071.072-.172-.003-.345-.001-.517-.001z" fill="#fad448"/><path d="M26.155 25.414c.213-.208.532-.126.577.203.022.164.026.33-.01.493-.026.126-.09.228-.217.264-.128.036-.252.02-.344-.105-.024.042 0 .107-.08.101-.07-.005-.102-.012-.1-.095.004-.435.003-.87 0-1.304 0-.069.011-.096.089-.097.08 0 .088.03.086.096-.004.143-.001.285-.001.444zm0 .43v.195c.001.103.07.181.168.195.108.015.193-.03.221-.13a.97.97 0 0 0 0-.52c-.028-.104-.112-.146-.22-.128-.104.018-.167.09-.169.193v.195z" fill="#fff"/><path d="m26.482 22.305-1.051.002a2.849 2.849 0 0 1 .001-.505l1.043-.002.007.505z" fill="#2896d2"/><path d="M22.979 25.398c0-.157.004-.3-.002-.441-.004-.079.035-.08.094-.08.062-.003.083.013.082.079-.003.435 0 .87-.003 1.306 0 .037.039.108-.052.105-.059-.001-.138.025-.103-.1-.234.226-.526.111-.584-.182a1.218 1.218 0 0 1 .001-.485c.06-.29.309-.385.567-.202zm0 .448v-.205a.182.182 0 0 0-.15-.187c-.093-.02-.194.023-.224.112a.856.856 0 0 0-.002.555c.031.093.13.132.234.111.088-.017.141-.088.142-.191v-.195z" fill="#fff"/><path d="M16.24 25.425c.243-.22.517-.135.58.163.036.17.032.342 0 .512-.045.242-.28.386-.566.203 0 .137-.005.264.002.391.004.079-.036.079-.094.08-.064.003-.082-.018-.082-.081.003-.425.001-.85.003-1.275 0-.042-.026-.1.06-.103.072-.002.112.015.096.11zm.428.419a.685.685 0 0 0-.033-.259.197.197 0 0 0-.232-.13c-.072.015-.16.078-.15.195.009.136.002.273 0 .409 0 .048.01.088.045.123a.205.205 0 0 0 .335-.07.672.672 0 0 0 .035-.268zM14.164 25.434c.12-.134.245-.166.387-.11.143.055.187.18.206.317.019.132.015.264.002.397-.03.316-.304.448-.576.262 0 .132-.007.253.002.372.008.094-.032.107-.111.103-.054-.002-.063-.024-.063-.07v-1.316c0-.045.006-.072.062-.073.07-.002.118.01.09.118zm.435.418a.7.7 0 0 0-.038-.276.201.201 0 0 0-.229-.123.195.195 0 0 0-.155.194v.388c0 .116.056.185.164.203.106.019.188-.03.226-.137a.697.697 0 0 0 .032-.249z" fill="#2896d2"/><path d="M29.788 25.331c-.096.126-.186.249-.28.367-.037.045-.038.078-.006.127.112.173.218.35.329.529-.18.033-.18.033-.264-.106-.058-.098-.118-.194-.174-.293-.027-.049-.047-.063-.087-.011-.027.035-.046.067-.044.113.003.071-.006.144.002.214.01.088-.028.102-.104.098-.057-.002-.07-.02-.07-.073.001-.449.002-.897-.002-1.345 0-.075.036-.074.09-.074s.088 0 .086.075c-.005.26-.002.519.019.789l.15-.204c.023-.031.051-.06.068-.095.057-.118.15-.15.287-.11zM19.516 25.407c.061-.038.107-.079.166-.096.165-.046.3.029.344.195.012.044.019.09.02.135.001.217-.003.434.003.652.002.073-.03.077-.086.075-.051-.002-.092.005-.09-.073.004-.224.003-.448-.003-.672-.004-.14-.116-.212-.233-.152-.071.036-.123.093-.122.184.002.211-.003.422.003.633.002.077-.033.081-.093.08-.057 0-.086-.005-.085-.076.004-.448.004-.896 0-1.343-.001-.08.04-.07.09-.072.053 0 .091 0 .088.075-.007.147-.002.296-.002.455zM23.915 25.896c-.078 0-.156.002-.234-.001-.05-.002-.059.02-.055.064.01.103.024.206.13.255.109.05.217.034.308-.045.042-.036.061-.032.097.008.048.052.03.083-.015.117a.468.468 0 0 1-.462.061c-.155-.053-.211-.185-.224-.335a1.177 1.177 0 0 1 .021-.436c.065-.218.237-.318.458-.274.163.033.227.15.257.295.058.28.047.29-.232.29h-.049zm-.081-.148h.156c.018 0 .038.001.048-.023.02-.05-.037-.21-.089-.248a.204.204 0 0 0-.243.022c-.06.063-.093.147-.069.223.02.06.104.014.158.026.012.002.026 0 .039 0zM21.09 26.367c-.073-.024-.18.068-.199-.093-.071.054-.13.11-.215.113-.17.005-.287-.078-.315-.227a.338.338 0 0 1 .227-.4.422.422 0 0 1 .192-.023c.096.014.114-.029.108-.113-.01-.148-.122-.22-.254-.156a.138.138 0 0 0-.08.093c-.006.029-.016.048-.05.045-.04-.003-.097.02-.12-.012-.027-.037.007-.086.03-.125.086-.144.262-.204.445-.155.13.035.197.146.202.319.007.241-.024.485.029.734zm-.203-.35c0-.17 0-.17-.155-.149-.022.003-.046.004-.067.01-.108.032-.167.159-.126.27.029.079.137.106.235.063.094-.041.133-.11.113-.194z" fill="#fff"/><path d="M15.573 26.263c-.094.117-.205.146-.332.111-.106-.029-.175-.097-.192-.21-.02-.135-.002-.259.117-.349a.457.457 0 0 1 .324-.077c.07.005.091-.02.086-.088-.005-.088-.01-.172-.118-.197-.093-.02-.169.015-.219.113-.039.075-.109.046-.154.033-.057-.016-.014-.07 0-.103.074-.16.244-.228.449-.183.129.028.208.14.213.31.004.166 0 .332.001.497 0 .043.01.086.003.127-.006.04.069.1-.016.116-.066.013-.157.035-.162-.1zm.002-.252c0-.167 0-.167-.15-.145-.026.004-.053.006-.077.013-.108.031-.165.157-.123.267.031.082.132.109.233.065.097-.041.137-.112.117-.2z" fill="#2896d2"/><path d="M27.752 26.356c-.165.029-.178.024-.204-.083-.063.054-.121.11-.209.114-.173.008-.288-.075-.318-.234a.337.337 0 0 1 .225-.393.598.598 0 0 1 .231-.023c.056.003.077-.017.072-.072-.007-.083.007-.175-.102-.208-.102-.03-.168.003-.24.121-.037.062-.101.03-.148.023-.054-.008-.017-.058-.007-.085.06-.166.228-.243.444-.205.14.024.218.132.222.309.003.13.002.26 0 .39 0 .116.001.233.034.346zm-.202-.34c0-.17 0-.17-.155-.149-.026.004-.052.006-.076.013-.103.034-.158.154-.12.262.029.083.128.114.229.072.096-.04.142-.107.122-.198zM28.21 25.433c.049-.04.068-.058.088-.073.18-.133.407-.047.45.17.011.06.015.122.016.184.002.182 0 .363 0 .545 0 .106-.035.131-.14.109-.047-.01-.031-.043-.031-.068-.002-.178-.001-.357-.001-.535l-.001-.107c-.006-.14-.063-.208-.169-.205-.103.003-.193.102-.193.216-.001.205-.004.409.001.613.002.069-.018.089-.086.087-.064 0-.09-.012-.09-.084.004-.293.002-.585.002-.877 0-.043-.014-.096.062-.09.057.005.133-.02.091.115z" fill="#fff"/><path d="M18.105 25.896c-.088 0-.16.003-.23-.001-.058-.003-.082.01-.078.075.007.102.03.197.13.244a.265.265 0 0 0 .293-.035c.05-.041.076-.044.12.01.048.06 0 .082-.03.108-.236.2-.606.081-.67-.218a1.07 1.07 0 0 1 .007-.483c.059-.23.249-.339.476-.283.084.02.147.067.189.142.007.015.016.029.021.044.044.124.089.266.032.376-.034.066-.18.008-.26.02zm-.1-.144h.155c.023 0 .042-.003.05-.033.02-.092-.056-.239-.14-.265-.109-.032-.21.024-.25.14-.049.136-.034.158.107.158h.077z" fill="#2896d2"/><path d="M21.558 25.428c.093-.086.172-.133.273-.127.151.01.245.092.26.251.025.256.009.513.01.77 0 .078-.067.036-.104.044-.05.011-.068-.011-.067-.063.003-.182.002-.364.001-.546 0-.042 0-.085-.005-.126-.013-.125-.065-.18-.163-.178a.211.211 0 0 0-.195.205c0 .208-.003.416.002.624.001.066-.014.088-.085.088-.07 0-.094-.016-.093-.092.005-.288.002-.578.003-.867 0-.04-.02-.098.058-.093.057.004.13-.02.105.11z" fill="#fff"/><path d="M12.062 25.896c-.065 0-.13.006-.194-.002-.085-.01-.11.024-.096.103.015.093.04.181.135.22a.266.266 0 0 0 .292-.042c.05-.044.073-.036.112.011.046.054.013.08-.023.11a.413.413 0 0 1-.676-.23.974.974 0 0 1 .026-.518.354.354 0 0 1 .386-.248c.181.017.28.116.315.313.05.283.05.283-.228.283h-.049zm-.09-.144h.155c.027 0 .049-.001.055-.039.017-.103-.054-.238-.143-.261-.119-.03-.215.032-.252.166-.035.124-.028.133.097.134h.087z" fill="#2896d2"/><path d="M25.343 26.387c-.178.002-.32-.095-.355-.245-.006-.03-.03-.084.024-.083.047 0 .129-.05.143.043.018.116.156.16.264.126.105-.032.133-.142.057-.222-.042-.043-.096-.065-.15-.09-.054-.028-.112-.05-.166-.08-.097-.05-.155-.13-.152-.241.004-.12.06-.21.17-.263.193-.092.438.003.489.192.008.03.045.087-.018.09-.046.003-.114.05-.146-.04-.035-.103-.115-.143-.212-.121a.135.135 0 0 0-.11.11c-.012.056.01.101.057.134.056.04.124.055.185.085.113.056.237.103.262.25.036.21-.1.351-.343.354z" fill="#fff"/><path d="M13.408 25.844c0-.101-.003-.202.001-.302.003-.064-.018-.091-.082-.083-.052.007-.085-.004-.085-.07 0-.067.033-.078.085-.071.065.008.09-.02.081-.083a.12.12 0 0 1 0-.039c.012-.055-.042-.138.084-.14.123-.002.083.076.089.136a.232.232 0 0 1 0 .048c-.008.06.018.084.077.077.053-.006.083.005.083.072 0 .067-.031.077-.084.07-.06-.007-.078.02-.077.078.003.192.001.384.001.575 0 .064.013.122.094.12.042-.002.069 0 .065.053-.003.046.002.09-.063.1-.15.023-.252-.055-.266-.21l-.001-.03v-.301h-.002z" fill="#2896d2"/><path d="M24.497 25.623c0-.225.004-.449-.002-.673-.002-.08.04-.07.09-.072.053-.001.088-.002.088.073-.004.449-.005.897 0 1.346 0 .077-.038.072-.09.072s-.09.003-.088-.074c.005-.224.002-.448.002-.672z" fill="#fff"/><path d="M18.835 25.388c.043-.03.072-.056.107-.072.041-.02.093-.034.13-.002.04.035.014.09.015.137.001.037-.028.023-.05.023-.14-.003-.206.063-.207.206 0 .195-.002.39 0 .584.002.066 0 .108-.09.106-.082-.001-.085-.038-.084-.1.002-.286 0-.572.002-.857 0-.035-.026-.093.045-.095.055-.001.123-.023.132.07zM12.803 25.407c.044-.045.075-.08.12-.094.044-.014.097-.032.128.006.027.034.011.088.008.133-.003.037-.032.02-.053.02-.134 0-.202.067-.203.203 0 .198-.002.396.001.595.001.063-.003.101-.086.1-.074-.002-.092-.023-.09-.095.003-.289 0-.578.002-.867 0-.037-.023-.093.05-.09.055.002.128-.026.123.09zM17.14 25.847c0-.153.004-.306-.002-.458-.003-.077.04-.072.092-.073.05 0 .086-.001.085.07-.003.304-.003.609 0 .914.002.072-.038.067-.085.067-.051 0-.095.005-.092-.073.006-.149.002-.298.002-.447zM17.231 25.138c-.062 0-.093-.034-.095-.096-.001-.059.022-.101.087-.104.07-.003.103.037.104.1 0 .057-.028.099-.096.1z" fill="#2896d2"/></g></g><defs><clipPath id="a"><path fill="#fff" d="M0 0h40v40H0z"/></clipPath><clipPath id="b"><path fill="#fff" transform="translate(10 14)" d="M0 0h20v12.776H0z"/></clipPath></defs></svg>