<svg width="40" height="40" fill="none" xmlns="http://www.w3.org/2000/svg"><g clip-path="url(#a)" transform="matrix(1.4 0 0 1.4 -7.976 -7.976)"><mask id="b" mask-type="alpha" maskUnits="userSpaceOnUse" x="10" y="10" width="21" height="20"><path fill="#fff" d="M10 10h20v20H10z"/></mask><g mask="url(#b)" fill-rule="evenodd" clip-rule="evenodd"><path d="M29.88 10h-7.135c1.13.137 1.707 1.16 1.707 2.184v4.72c0 1.476.493 2.75 2.027 3.04-1.534.29-2.027 1.564-2.027 3.04v4.72c0 1.005-.556 2.007-1.644 2.174h7.072z" fill="#007c5a"/><path d="M20.197 27.704v-4.72c0-1.476.492-2.75 2.026-3.04-1.534-.29-2.026-1.564-2.026-3.04v-4.72c0-1.024-.578-2.047-1.707-2.184H10v19.878h8.552c1.088-.167 1.645-1.17 1.645-2.174z" fill="#45ab96"/><path d="M24.452 16.905v-4.71c0-1.021-.577-2.041-1.707-2.178a2.143 2.143 0 0 0-.261-.017h-4.256c.09 0 .177.006.262.017 1.13.137 1.707 1.157 1.707 2.179v4.71c0 1.472.492 2.744 2.026 3.033-1.534.288-2.026 1.56-2.026 3.033v4.71c0 1.003-.557 2.002-1.645 2.17-.104.015-.21.026-.324.026h4.256c.114 0 .22-.011.324-.027 1.088-.167 1.644-1.166 1.644-2.169v-4.71c0-1.473.493-2.745 2.027-3.033-1.534-.29-2.027-1.56-2.027-3.034z" fill="#fff"/></g></g><defs><clipPath id="a"><path fill="#fff" d="M0 0h40v40H0z"/></clipPath></defs></svg>