<svg width="40" height="40" fill="none" xmlns="http://www.w3.org/2000/svg"><g clip-path="url(#a)" transform="matrix(1.4 0 0 1.4 -8 -8.053)" fill="#fff"><path d="M14.813 20.263v.941h-.221c-.002-.03-.005-.06-.005-.089 0-.652.002-1.304-.002-1.957 0-.083.023-.106.105-.104.403.007.808 0 1.21.016.12.004.25.048.352.11.2.121.233.33.207.543a.499.499 0 0 1-.318.41c-.024.011-.05.02-.09.034.308.059.354.284.375.529.013.168.03.336.048.514-.048 0-.113.008-.175-.003-.026-.005-.06-.046-.065-.075-.015-.1-.017-.201-.026-.302-.01-.094-.015-.19-.034-.283-.032-.16-.145-.241-.3-.264a2.24 2.24 0 0 0-.294-.019c-.254-.003-.507 0-.767 0zm.003-.217c.01.004.016.008.021.008.347-.002.693.003 1.04-.008.205-.007.33-.15.349-.36.017-.2-.072-.349-.244-.397a.718.718 0 0 0-.185-.026c-.299-.002-.598-.001-.897 0l-.084.003v.78zM13.131 19.003c.407.007.775.136.999.512.23.388.236.805.023 1.2-.203.376-.552.533-.972.55-.295.012-.572-.047-.81-.224-.341-.254-.448-.609-.423-1.016.038-.604.502-1.021 1.183-1.022zm-.942 1.121c-.012.555.338.936.93.936.582 0 .932-.36.935-.924.003-.563-.367-.927-.933-.928-.564 0-.931.36-.932.916zM27.948 19.67h-.217c-.005-.015-.012-.028-.014-.042a.43.43 0 0 0-.322-.368 1.058 1.058 0 0 0-.72.017c-.161.065-.24.171-.238.32.003.143.08.254.247.3.224.062.454.1.68.152.119.028.24.055.35.103.355.154.408.66.101.906a.948.948 0 0 1-.528.197c-.268.023-.532.018-.779-.11-.258-.133-.357-.359-.378-.64h.216c.006.023.014.05.02.079.047.253.191.402.443.449.238.045.475.051.706-.036.167-.063.253-.184.254-.35.001-.159-.074-.276-.251-.329-.191-.056-.39-.081-.585-.129-.158-.038-.322-.072-.468-.14-.32-.15-.374-.582-.116-.825a.796.796 0 0 1 .433-.198c.27-.045.537-.038.79.075.241.107.364.297.376.569zM16.605 20.498c.065 0 .125-.004.183.002.018.002.045.03.047.048.04.327.256.476.574.505.202.018.4.016.59-.057a.356.356 0 0 0 .247-.348.306.306 0 0 0-.234-.322c-.196-.06-.4-.089-.601-.134-.123-.028-.246-.052-.364-.092-.252-.085-.368-.23-.376-.454a.538.538 0 0 1 .341-.546c.198-.088.408-.107.623-.094.184.011.361.048.517.151.181.12.267.291.27.511h-.215c-.002-.006-.006-.016-.008-.027-.04-.24-.195-.364-.426-.408a1.075 1.075 0 0 0-.633.048c-.184.078-.267.238-.213.408.039.12.134.184.246.213.19.05.384.086.576.13.13.03.262.058.389.1.193.062.326.19.348.4.023.223-.04.418-.232.557a.957.957 0 0 1-.494.168c-.264.022-.525.016-.77-.108-.262-.134-.362-.363-.385-.65zM28.489 20.192v.811h1.51v.201h-1.738v-2.142h1.713v.198H28.49v.73h1.427v.202H28.49zM23.504 19.061h1.712v.198H23.73v.727h1.428v.206h-1.43V21h1.508v.204h-1.732V19.06zM20.825 19.773l-.028.009c-.175.01-.176.01-.237-.147-.086-.221-.264-.331-.48-.39a1.16 1.16 0 0 0-.629.007c-.303.087-.484.289-.554.594-.046.205-.043.409.01.61.104.393.465.636.901.606.098-.007.198-.017.291-.044.271-.077.433-.265.498-.534.018-.079.05-.104.125-.094.035.004.071 0 .133 0-.03.105-.046.205-.088.293-.176.372-.49.548-.89.58a1.323 1.323 0 0 1-.598-.083.957.957 0 0 1-.564-.553 1.268 1.268 0 0 1-.004-.957c.174-.439.594-.689 1.093-.666.224.01.437.05.632.167a.79.79 0 0 1 .389.602zM23.117 21.208h-.216v-1.03h-1.566v1.026h-.218v-2.142h.217v.9c.037.002.063.004.09.004.46 0 .92-.001 1.381.002.075 0 .096-.021.095-.095-.004-.268-.002-.536-.002-.81h.22v2.145zM10 19.066c.014-.005.02-.008.025-.008.413.001.826-.013 1.237.01.416.021.59.338.541.708-.042.32-.26.505-.613.521-.28.013-.562.009-.843.012h-.127v.896H10v-2.139zm.22 1.036c.213 0 .416.002.62 0 .133-.002.268-.006.4-.02a.328.328 0 0 0 .261-.153.49.49 0 0 0 .011-.487c-.072-.145-.215-.178-.364-.18-.283-.002-.567 0-.85 0-.026 0-.052.004-.078.005v.835z"/></g><defs><clipPath id="a"><path fill="#fff" transform="translate(10 19)" d="M0 0h20v2.267H0z"/></clipPath></defs></svg>