<svg width="40" height="40" fill="none" xmlns="http://www.w3.org/2000/svg"><g clip-path="url(#a)" transform="matrix(1.4 0 0 1.4 -8 -8)"><mask id="b" mask-type="alpha" maskUnits="userSpaceOnUse" x="10" y="10" width="20" height="20"><path fill="#fff" d="M10 10h20v20H10z"/></mask><g mask="url(#b)"><path fill-rule="evenodd" clip-rule="evenodd" d="M10 10v20h20V10Zm9.811 15.941.882 1.022c-.28.462-.742.462-.742.462s-.602.042-.7-.56c-.042-.364.266-.686.56-.924zm-.252-1.385c0-.21.112-.462.392-.49.252-.042.42.14.462.35.07.42-.462.741-.462.741s-.364-.28-.392-.601zm7.684 2.855h-2.295l-1.022-4.549-.994 4.549h-.812l-.56-.602s.28-.532.392-1.092h-.671c-.07.28-.21.56-.21.56l-.63-.742s.812-.49.63-1.273c-.112-.49-.56-.952-1.232-.84-.56.112-.994.672-.84 1.343.112.392.42.63.42.63s-1.064.602-.924 1.624c.042.112.07.252.14.35h-1.511l-1.022-4.549-.994 4.549h-2.323l-1.693-6.732h2.085l.952 4.618 1.021-4.618h1.806l1.064 4.618.951-4.618h2.086l.951 4.66 1.022-4.618h1.805l1.064 4.618.952-4.618h2.057z" fill="#f84914"/></g></g><defs><clipPath id="a"><path fill="#fff" d="M0 0h40v40H0z"/></clipPath></defs></svg>