<svg width="40" height="40" fill="none" xmlns="http://www.w3.org/2000/svg"><mask id="a" mask-type="alpha" maskUnits="userSpaceOnUse" x="15" y="12" width="15" height="15"><path fill-rule="evenodd" clip-rule="evenodd" d="m15.3 13.367 3.312 4.425a2.42 2.42 0 0 1 2.852.43c.274.265.712.841.712 1.72h-1.954l4.584 6.145 4.58-6.145h-1.7A7.94 7.94 0 0 0 19.744 12a7.925 7.925 0 0 0-4.444 1.366Z" fill="#fff"/></mask><g mask="url(#a)" transform="matrix(1.4 0 0 1.4 -7.902 -7.977)"><path fill-rule="evenodd" clip-rule="evenodd" d="M-6.896 48.282h58.479v-58.478H-6.896Z" fill="#e10019"/></g><mask id="b" mask-type="alpha" maskUnits="userSpaceOnUse" x="10" y="13" width="15" height="15"><path fill-rule="evenodd" clip-rule="evenodd" d="M10.123 19.942h1.69c0 4.386 3.553 7.942 7.93 7.942 1.643 0 3.166-.5 4.437-1.347L20.867 22.1c-.34.167-.714.274-1.123.274-.867 0-1.445-.45-1.72-.712a2.424 2.424 0 0 1-.701-1.72h1.961l-4.58-6.134-4.582 6.134Z" fill="#fff"/></mask><g mask="url(#b)" transform="matrix(1.4 0 0 1.4 -7.902 -7.977)"><path fill-rule="evenodd" clip-rule="evenodd" d="M-12.073 50.08h58.45V-8.39h-58.45z" fill="#0e3d75"/></g></svg>