<svg width="40" height="40" fill="none" xmlns="http://www.w3.org/2000/svg"><g clip-path="url(#a)" transform="matrix(1.4 0 0 1.4 -7.981 -7.992)"><mask id="b" mask-type="alpha" maskUnits="userSpaceOnUse" x="10" y="13" width="20" height="14"><path fill="#fff" d="M10 13.35h20v13.3H10z"/></mask><g mask="url(#b)" fill-rule="evenodd" clip-rule="evenodd"><path d="M14.256 16.618c.87-.335 1.908-.66 2.794-.202.568.29.696 1.015.573 1.589-.216 1.142-.967 2.31-2.162 2.585.097 1.052.2 2.103.3 3.155-.448-.003-.898 0-1.347.001-.07-1.072-.106-2.148-.207-3.218-.323 1.09-.744 2.146-1.109 3.222-.416-.008-.833-.009-1.25.001.814-2.373 1.642-4.743 2.408-7.133zm1.11.672c-.359.925-.651 1.877-.984 2.814.58.13 1.159-.22 1.43-.725.29-.536.596-1.137.512-1.763-.103-.44-.622-.343-.958-.326zM18.84 17.449c.555-.653 1.3-1.271 2.205-1.252.393-.037.747.166 1.025.423-.215.37-.452.726-.693 1.078-.375-.275-.911-.188-1.24.117-.7.603-1.086 1.475-1.417 2.317-.23.674-.48 1.39-.325 2.11l.221.254c.354.072.714-.016 1.023-.196-.083.382-.09.775-.17 1.156a2.17 2.17 0 0 1-1.686.328c-.42-.111-.702-.504-.782-.916-.139-.706.008-1.429.19-2.113.342-1.189.862-2.345 1.65-3.306zM23.315 16.306c.435.002.87.002 1.306 0-.336 1.723-.622 3.457-1.015 5.169.938-1.773 2.106-3.413 3.09-5.16a28.17 28.17 0 0 1 1.31 0c-.373.936-.615 1.915-.94 2.869-.513 1.521-1.04 3.037-1.551 4.56-.394 0-.79.003-1.183 0 .355-1.119.804-2.205 1.154-3.326.182-.58.412-1.142.616-1.714-.995 1.718-2.095 3.375-3.147 5.06a41.803 41.803 0 0 0-.603-.008c.254-1.727.622-3.44.897-5.163-.185.707-.54 1.351-.83 2.017-.495 1.036-.976 2.08-1.44 3.13-.362.003-.725 0-1.088.01 1.125-2.488 2.34-4.936 3.424-7.444z" fill="#fdfdfd"/><path d="M14.464 13.355c5.147.006 10.295.016 15.443-.005-1.478 4.421-2.98 8.835-4.462 13.254-5.149.014-10.297.007-15.445.003 1.486-4.417 2.982-8.832 4.464-13.252zm-.208 3.263c-.766 2.39-1.594 4.76-2.407 7.133.416-.01.833-.009 1.25 0 .364-1.077.785-2.134 1.108-3.223.102 1.07.137 2.146.207 3.218.449-.002.899-.004 1.347-.001-.1-1.052-.203-2.104-.3-3.155 1.195-.275 1.946-1.443 2.162-2.585.123-.574-.005-1.3-.573-1.589-.885-.459-1.924-.133-2.794.202zm4.585.83c-.788.962-1.308 2.118-1.65 3.307-.182.684-.33 1.407-.19 2.113.08.412.361.805.782.916a2.17 2.17 0 0 0 1.686-.328c.08-.381.087-.774.17-1.156-.309.18-.67.267-1.023.196-.073-.085-.147-.17-.221-.253-.154-.72.094-1.437.325-2.111.33-.842.718-1.714 1.417-2.317.329-.306.865-.392 1.24-.117.241-.352.478-.708.693-1.078-.278-.257-.632-.46-1.025-.423-.905-.02-1.65.599-2.204 1.252zm4.474-1.142c-1.083 2.508-2.299 4.956-3.424 7.444.363-.009.726-.007 1.089-.009.463-1.052.944-2.095 1.438-3.131.292-.666.646-1.31.83-2.017-.274 1.724-.642 3.436-.896 5.163.201.001.402.003.603.007 1.052-1.684 2.152-3.34 3.148-5.059-.204.572-.435 1.134-.617 1.714-.35 1.12-.799 2.207-1.154 3.326.394.003.789 0 1.183 0 .51-1.523 1.038-3.039 1.551-4.56.325-.954.568-1.933.94-2.87a28.032 28.032 0 0 0-1.31 0c-.984 1.748-2.152 3.388-3.09 5.161.393-1.712.68-3.446 1.015-5.169-.435.002-.87.002-1.306 0z" fill="#012859"/><path d="M15.367 17.29c.336-.017.854-.115.957.326.084.625-.222 1.226-.513 1.762-.27.506-.85.855-1.43.725.334-.936.626-1.888.986-2.813z" fill="#012859"/></g></g><defs><clipPath id="a"><path fill="#fff" d="M0 0h40v40H0z"/></clipPath></defs></svg>