<svg width="40" height="40" fill="none" xmlns="http://www.w3.org/2000/svg"><mask id="a" mask-type="alpha" maskUnits="userSpaceOnUse" x="10" y="10" width="20" height="20"><path fill-rule="evenodd" clip-rule="evenodd" d="M10 11h20v18.125H10V11Z" fill="#fff"/></mask><g mask="url(#a)" transform="matrix(1.4 0 0 1.4 -8 -8.025)"><path fill-rule="evenodd" clip-rule="evenodd" d="M26.664 27.685c-.206-1.007-.807-3.763-1.705-6.492a3.995 3.995 0 0 1-.034-.101 6.226 6.226 0 0 0 1.298-3.267 5.63 5.63 0 0 1 3.152 5.05 5.628 5.628 0 0 1-2.711 4.81zm-6.17-.227a6.23 6.23 0 0 0 2.003-4.48 6.258 6.258 0 0 0 1.949-1.341 58.035 58.035 0 0 1 1.644 6.35 5.583 5.583 0 0 1-2.34.513 5.595 5.595 0 0 1-3.256-1.042zM16.25 28.5a5.594 5.594 0 0 1-2.34-.511 57.75 57.75 0 0 1 1.645-6.351 6.24 6.24 0 0 0 1.948 1.34 6.233 6.233 0 0 0 2.003 4.48A5.595 5.595 0 0 1 16.25 28.5zm-5.625-5.625a5.63 5.63 0 0 1 3.152-5.05 6.226 6.226 0 0 0 1.298 3.267l-.033.1c-.9 2.73-1.5 5.486-1.706 6.493a5.628 5.628 0 0 1-2.711-4.81zM20 11.625a5.633 5.633 0 0 1 5.614 5.284 6.241 6.241 0 0 0-2.573-.243c-.98-1.69-1.996-2.541-3.041-2.541-1.044 0-2.062.852-3.041 2.54a6.235 6.235 0 0 0-2.572.243A5.631 5.631 0 0 1 20 11.626zm3.368 5.64a5.593 5.593 0 0 1 2.247.304 5.581 5.581 0 0 1-.937 2.8c-.428-1.21-.865-2.244-1.31-3.104zM20 22.875a5.598 5.598 0 0 1-1.865-.32A5.61 5.61 0 0 1 20 18.688a5.61 5.61 0 0 1 1.865 3.869 5.593 5.593 0 0 1-1.865.319zm-2.387-6.098C18.35 15.55 19.156 14.75 20 14.75c.845 0 1.65.8 2.387 2.027A6.229 6.229 0 0 0 20 17.879a6.207 6.207 0 0 0-2.387-1.102zm-2.291 3.593a5.59 5.59 0 0 1-.937-2.8 5.598 5.598 0 0 1 2.247-.305c-.445.86-.882 1.895-1.31 3.105zm.457.592c.45-1.314.959-2.575 1.51-3.613a5.585 5.585 0 0 1 2.217.944 6.238 6.238 0 0 0-1.98 4.009 5.667 5.667 0 0 1-1.747-1.34zm4.22 6.1a5.61 5.61 0 0 1-1.862-3.846 6.24 6.24 0 0 0 3.727 0A5.62 5.62 0 0 1 20 27.063zm2.474-4.761a6.242 6.242 0 0 0-1.98-4.01 5.613 5.613 0 0 1 2.217-.943c.552 1.039 1.06 2.3 1.51 3.614a5.637 5.637 0 0 1-1.747 1.339zm3.774-5.154A6.255 6.255 0 0 0 20 11c-3.411 0-6.191 2.749-6.247 6.147A6.258 6.258 0 0 0 10 22.875a6.257 6.257 0 0 0 6.25 6.25A6.22 6.22 0 0 0 20 27.872a6.224 6.224 0 0 0 3.75 1.253 6.257 6.257 0 0 0 6.25-6.25 6.259 6.259 0 0 0-3.753-5.728z" fill="#0095d8"/></g></svg>