<svg width="40" height="40" fill="none" xmlns="http://www.w3.org/2000/svg"><g clip-path="url(#a)" transform="matrix(1.4 0 0 1.4 -8 -8)" fill-rule="evenodd" clip-rule="evenodd" fill="#ff6b00"><path d="m17.088 23.165 10.703-.857v-1.78l-10.703 1.077ZM17.088 30H27.79v-2.22l-10.703.198ZM17.088 26.44l10.703-.418v-2.066l-10.703.638zM12.209 16.528l15.582-3.1v-1.252L12.21 15.583ZM12.209 14.022v.77l15.582-3.715V10zM12.209 18.55l15.582-2.484v-1.384L12.21 17.494ZM12.209 20.88l15.582-1.869V17.43L12.21 19.627Z"/></g><defs><clipPath id="a"><path fill="#fff" d="M0 0h40v40H0z"/></clipPath></defs></svg>