<svg width="40" height="40" fill="none" xmlns="http://www.w3.org/2000/svg"><g clip-path="url(#a)" transform="matrix(1.4 0 0 1.4 -8 -8)"><mask id="b" mask-type="alpha" maskUnits="userSpaceOnUse" x="9" y="15" width="21" height="10"><path fill="#fff" d="M10 15.213h20v9.574H10z"/></mask><g mask="url(#b)"><mask id="c" mask-type="alpha" maskUnits="userSpaceOnUse" x="10" y="14" width="20" height="12"><path fill-rule="evenodd" clip-rule="evenodd" d="M10.094 14.544h19.82v10.925h-19.82z" fill="#fff"/></mask><g mask="url(#c)"><mask id="d" mask-type="alpha" maskUnits="userSpaceOnUse" x="-71" y="7" width="106" height="149"><path fill-rule="evenodd" clip-rule="evenodd" d="M-70.05 7.686H34.698v148.212H-70.05Z" fill="#fff"/></mask><g mask="url(#d)"><mask id="e" mask-type="alpha" maskUnits="userSpaceOnUse" x="-71" y="7" width="106" height="149"><path fill-rule="evenodd" clip-rule="evenodd" d="M-70.045 7.68H34.707v148.228H-70.045Z" fill="#fff"/></mask><g mask="url(#e)" fill-rule="evenodd" clip-rule="evenodd"><path d="M10.1 24.07c.886-1.885 1.877-3.762 3.87-5.333v.565c-1.821 1.456-2.797 3.202-3.696 4.768zM15.71 17.598c1.82-.99 4.26-1.786 7.642-2.285l-.725.972c-3.028.3-5.24.981-6.916 1.876z" fill="#00aeef"/><path d="M13.971 20.356c-1.691 1.235-2.687 2.73-3.31 3.714h-.153c.756-1.359 1.834-2.925 3.463-4.152z" fill="#fff"/><path d="M13.91 22.696v1.377h-.324l.018-.236-.005-.001c-.063.169-.208.253-.435.253-.306 0-.459-.156-.459-.468v-.925h.323v.846c0 .117.016.194.048.231.032.037.099.055.2.055.206 0 .31-.127.31-.38v-.752zM15.39 22.696l-.386 1.377h-.506l-.406-1.377h.343l.178.635.068.257.065.256h.007l.03-.128.029-.127.063-.256.167-.637zM17.188 22.696v.25h-.52v.692c0 .128.048.192.143.192.104 0 .156-.078.156-.232v-.055h.276v.07c0 .063-.002.117-.006.162-.018.21-.171.315-.46.315-.288 0-.432-.134-.432-.404v-.74h-.175v-.25h.175v-.308h.323v.308zM18.319 23.633h.325v.053c0 .269-.198.403-.593.403-.268 0-.444-.046-.527-.14-.083-.093-.124-.29-.124-.592 0-.268.043-.448.13-.54.086-.092.255-.138.507-.138.24 0 .402.045.484.136.082.089.123.265.123.528v.1h-.914l-.003.061c0 .136.02.226.061.271.042.045.123.068.246.068.118 0 .196-.013.231-.039.036-.027.054-.084.054-.172zm.003-.39-.002-.055c0-.11-.018-.181-.056-.214-.037-.032-.117-.049-.241-.049-.12 0-.2.02-.236.06-.036.039-.054.125-.054.257zM19.802 23.547h.322v.048l-.02.209c-.04.19-.233.285-.579.285-.254 0-.423-.046-.507-.14-.083-.094-.125-.282-.125-.566 0-.276.042-.463.125-.559.084-.096.247-.144.489-.144.233 0 .391.035.474.106.083.069.124.2.124.396h-.32c0-.16-.09-.24-.273-.241-.129 0-.21.026-.242.076-.033.051-.05.176-.05.375 0 .192.018.313.054.363.037.049.126.073.267.073.11 0 .182-.016.213-.05.032-.035.048-.111.048-.23zM20.713 22.107v.817l.007.001c.06-.163.199-.245.415-.245.315 0 .473.152.473.457v.936h-.323v-.89c0-.161-.08-.242-.242-.242-.22 0-.33.117-.33.35v.782h-.323v-1.966zM21.954 22.696h.32l-.012.232.007.002c.063-.167.205-.25.424-.25.319 0 .478.152.478.455v.938h-.323v-.881l-.007-.097c-.015-.103-.094-.154-.237-.154-.217 0-.326.105-.326.316v.816h-.323zM24.11 22.68c.26 0 .43.043.512.128.08.085.121.264.121.538 0 .305-.04.505-.118.6-.08.095-.246.143-.5.143-.276 0-.455-.044-.536-.133-.081-.088-.122-.282-.122-.583 0-.289.04-.477.12-.563.08-.086.254-.13.522-.13zm-.003.261c-.135 0-.22.025-.257.075-.037.049-.055.164-.055.346 0 .207.017.337.052.389.035.051.122.077.261.077.134 0 .22-.027.254-.082.036-.055.054-.186.054-.394 0-.176-.019-.288-.055-.338-.037-.049-.122-.073-.254-.073zM25.042 24.073h.323v-1.966h-.323zM26.304 22.68c.261 0 .432.043.513.128.08.085.121.264.121.538 0 .305-.04.505-.118.6-.08.095-.246.143-.5.143-.276 0-.455-.044-.537-.133-.08-.088-.12-.282-.12-.583 0-.289.04-.477.119-.563.08-.086.254-.13.522-.13zm-.002.261c-.135 0-.22.025-.257.075-.037.049-.055.164-.055.346 0 .207.017.337.052.389.035.051.122.077.26.077.135 0 .22-.027.255-.082.036-.055.054-.186.054-.394 0-.176-.019-.288-.055-.338-.037-.049-.122-.073-.254-.073zM28.444 22.696V24.1c0 .225-.045.379-.134.462-.089.084-.253.126-.492.126-.231 0-.386-.032-.464-.095-.078-.064-.117-.189-.117-.376h.313c0 .089.017.146.05.171.032.026.106.04.22.04.2 0 .3-.085.3-.254v-.31l-.007-.002c-.057.147-.189.22-.395.22-.204 0-.344-.05-.42-.15-.074-.101-.11-.29-.11-.565 0-.26.036-.438.11-.537.076-.1.212-.149.409-.149.214 0 .355.082.422.244h.007l-.016-.228zm-.637.245c-.124 0-.204.026-.24.078-.035.05-.052.167-.052.35 0 .194.017.318.052.372.036.053.117.08.244.08s.21-.027.247-.082c.038-.056.057-.178.057-.367 0-.182-.019-.299-.057-.352-.037-.053-.121-.079-.25-.079zM29.901 22.696l-.354 1.464c-.05.207-.112.346-.187.417-.073.072-.191.108-.354.108-.037 0-.075-.001-.114-.005v-.244l.07.003c.138 0 .225-.122.262-.366h-.166l-.441-1.377h.347l.17.583.084.293.04.147.04.145h.007l.03-.145.03-.147.066-.292.13-.584z" fill="#00aeef"/><path d="M15.291 17.568v1.73l.019.002c.158-.345.522-.518 1.092-.518.829 0 1.244.322 1.244.967v1.982h-.85v-1.885c0-.341-.213-.512-.636-.512-.58 0-.869.247-.869.741v1.656h-.85v-4.163zM19.66 18.782c.687 0 1.136.09 1.349.271.213.18.32.558.32 1.138 0 .646-.105 1.07-.313 1.271-.208.202-.646.302-1.314.302-.726 0-1.196-.093-1.412-.28-.213-.187-.32-.599-.32-1.235 0-.612.106-1.01.317-1.193.21-.183.668-.274 1.374-.274zm-.007.552c-.354 0-.579.053-.676.158-.096.104-.144.348-.144.732 0 .44.045.714.137.824.092.11.32.164.687.164.354 0 .577-.058.669-.174.094-.115.14-.394.14-.835 0-.372-.047-.61-.144-.714-.097-.103-.32-.155-.669-.155zM21.657 18.816h.844l-.034.49.019.003c.165-.351.537-.527 1.114-.527.84 0 1.259.321 1.259.964v1.985h-.85v-1.866l-.02-.205c-.039-.217-.247-.326-.623-.326-.572 0-.858.223-.858.668v1.729h-.85zM25.31 21.73h.85v-4.162h-.85zM28.904 20.798h.854v.113c0 .569-.52.853-1.56.853-.705 0-1.167-.098-1.385-.295-.218-.198-.327-.615-.327-1.254 0-.567.114-.948.342-1.143.228-.195.672-.293 1.333-.293.634 0 1.058.096 1.274.287.215.189.323.562.323 1.119v.213h-2.403a2.212 2.212 0 0 0-.007.128c0 .287.053.478.16.574.108.095.324.143.646.143.312 0 .515-.028.609-.082.094-.057.14-.178.141-.363zm.007-.827-.003-.116c0-.231-.05-.382-.149-.45-.096-.07-.308-.105-.635-.105-.317 0-.524.042-.62.125-.094.084-.141.266-.141.546zM21.309 18.05a15.45 15.45 0 0 0-3.715.693c-.161-.156-.402-.25-.723-.283 1.453-.67 3.088-1.054 5.061-1.244z" fill="#fff"/></g></g></g></g></g><defs><clipPath id="a"><path fill="#fff" d="M0 0h40v40H0z"/></clipPath></defs></svg>