<svg width="40" height="40" fill="none" xmlns="http://www.w3.org/2000/svg"><path fill-rule="evenodd" clip-rule="evenodd" d="M20.004 6C27.734 6 34 12.265 34 20.004 34 27.734 27.735 34 20.004 34 12.265 34 6 27.735 6 20.004 6 12.265 12.265 6 20.004 6Zm3.667 15.842L26.27 24.3c.062.062 0 .17-.093.147l-3.559-1.233 1.132 5.188c.016.093-.108.147-.163.07l-2.923-4.126-1.838 5.979c-.03.093-.178.07-.17-.031l.147-5.956-3.055 3.994c-.062.077-.186.008-.155-.086l1.799-4.745-2.629 1.372c-.077.04-.163-.054-.108-.131l1.651-2.303-7.165.907c-.1.015-.147-.124-.046-.163l6.723-2.791-3.49-1.412c-.085-.03-.07-.155.024-.17l3.706-.481-4.18-4.87c-.061-.077.032-.178.117-.131l5.412 3.287-1.248-5.49c-.016-.093.116-.147.163-.062l2.752 4.986 1.83-4.993c.04-.086.179-.062.17.038l-.17 4.808 4.01-6.242c.053-.093.193-.023.154.077l-2.675 6.723 3.474-2.489c.078-.054.178.039.124.117l-2.481 3.752 4.412-.348c.093 0 .132.124.046.162l-4.063 2.202 6.987 1.567c.093.015.1.163-.031.17z" fill="#b01f2f" style="stroke-width:1.4"/></svg>