<svg width="40" height="40" fill="none" xmlns="http://www.w3.org/2000/svg"><g clip-path="url(#a)" transform="matrix(1.4 0 0 1.4 -8 -8.198)"><g clip-path="url(#b)" fill="#d42126"><path d="M29.96 20.888c-.07-.185-.224-.259-.38-.089a3.6 3.6 0 0 1-1.02.765c-.352.18-.721.29-1.12.274-.47-.018-.784-.276-.884-.712-.031-.14.006-.187.148-.161.216.038.431.022.648 0a1.788 1.788 0 0 0 1.55-1.262c.214-.721-.15-1.391-.863-1.552-.489-.11-.945.011-1.365.269-.476.291-.808.712-1.035 1.216-.046.101-.081.105-.156.039-.09-.079-.187-.148-.274-.23a3.487 3.487 0 0 1-.841-1.216c-.049-.116-.112-.209-.25-.224a.83.83 0 0 0-.684.231c-.112.106-.157.242-.101.385.264.68.283 1.38.184 2.089-.045.316-.126.624-.3.897-.107.167-.237.312-.455.33-.303.024-.432-.19-.537-.413-.205-.43-.269-.896-.297-1.366-.022-.371-.215-.619-.58-.687-.264-.05-.426-.015-.573.24a5.881 5.881 0 0 1-.477.674c-.2.255-.403.511-.677.695-.148.1-.215.067-.23-.11a3.04 3.04 0 0 1 .043-.711c.065-.438.175-.865.331-1.28.069-.182 0-.29-.194-.322a1.243 1.243 0 0 0-.341 0c-.42.046-.656.253-.755.655-.079.32-.146.641-.186.968-.056.446-.09.894.022 1.337.184.726.88.976 1.486.535.212-.153.396-.337.561-.539.167-.202.33-.409.491-.61.04.011.03.037.033.056.102.514.277.997.625 1.4.516.597 1.354.705 1.935.246.327-.26.52-.614.665-.998.215-.572.297-1.167.322-1.8.108.095.19.172.28.242.088.07.186.132.277.195.353.247.398.355.397.696 0 .813.575 1.472 1.375 1.607 1.245.21 2.241-.273 3.076-1.157a.553.553 0 0 0 .126-.602zm-2.603-1.846a.548.548 0 0 1 .069-.042c.165-.088.333-.134.501-.013.135.098.192.32.129.518-.129.403-.432.603-.83.674a1.907 1.907 0 0 1-.578-.009c.132-.448.329-.844.71-1.128zM17.99 21.438c-.017-.131-.065-.248-.188-.303-.128-.057-.21.037-.291.121-.286.3-.62.522-1.035.598-.326.06-.646.06-.929-.159-.083-.064-.087-.1.009-.159.254-.155.494-.331.721-.524.394-.333.773-.68.977-1.172.31-.747-.009-1.437-.758-1.627-.429-.11-.826-.008-1.2.202-1.064.598-1.49 1.844-1.262 2.903.015.068.047.125-.055.165-.545.211-1.102.354-1.692.322-.565-.03-.958-.375-1.008-.928-.06-.679.184-1.251.702-1.696.378-.326.818-.351 1.245-.09.067.042.136.076.212.052.199-.062.28-.228.336-.407.047-.147.01-.272-.117-.373-.436-.344-.931-.426-1.457-.31-1.266.279-2.192 1.44-2.2 2.74-.005.885.46 1.531 1.292 1.785a3.3 3.3 0 0 0 1.431.091 6.16 6.16 0 0 0 1.64-.486c.051-.023.096-.059.158-.003.47.424 1.038.563 1.653.533.662-.032 1.225-.285 1.658-.798a.6.6 0 0 0 .158-.477zm-2.428-2.107a.985.985 0 0 1 .245-.211c.165-.101.354-.103.47-.006.146.123.135.283.095.445a.94.94 0 0 1-.16.315c-.285.401-.658.705-1.082.994-.038-.586.067-1.098.432-1.537z"/></g></g><defs><clipPath id="a"><path fill="#fff" d="M0 0h40v40H0z"/></clipPath><clipPath id="b"><path fill="#fff" transform="translate(10 18)" d="M0 0h20v4.99H0z"/></clipPath></defs></svg>