<svg width="40" height="40" fill="none" xmlns="http://www.w3.org/2000/svg"><g clip-path="url(#a)" transform="matrix(1.4 0 0 1.4 -7.99 -7.994)" fill-rule="evenodd" clip-rule="evenodd" fill="#fff"><path d="M10.382 17.924v1.845c.345 0 .682.01 1.017-.003.27-.01.545-.026.809-.08.472-.097.688-.383.691-.86.004-.48-.178-.713-.678-.826-.604-.137-1.22-.044-1.84-.076zm-.003 4.094c.013.006.02.013.028.013.608-.012 1.219.004 1.824-.044.553-.044.792-.346.807-.902.014-.492-.196-.78-.667-.891a2.21 2.21 0 0 0-.46-.061c-.48-.01-.96-.008-1.439-.01-.029 0-.058.004-.093.007zm2.066-2.082c.097.027.173.044.246.069.571.19.783.64.73 1.202-.08.856-.673 1.13-1.253 1.166-.705.044-1.415.023-2.123.03-.012 0-.024-.007-.045-.013v-4.813c.032-.003.065-.01.098-.01.566 0 1.132-.004 1.697.005.317.004.628.057.913.206.347.181.534.471.542.86.003.188-.011.38-.053.563-.074.33-.288.55-.602.674l-.15.06zM21.192 19.16v2.865h.696c.117 0 .234.004.35-.006.526-.046.865-.313 1.01-.803.122-.41.128-.827.01-1.237-.124-.43-.404-.72-.86-.767-.397-.042-.8-.037-1.206-.052zm-.374-.333c.48 0 .95-.003 1.42.002.12.002.241.018.359.045.35.078.63.27.798.586.404.753.413 1.516.001 2.27-.227.416-.603.625-1.068.649-.47.024-.941.016-1.412.025-.073 0-.11-.015-.11-.1.003-1.138.002-2.277.003-3.415 0-.017.005-.034.01-.062zM27.627 20.367c.448 0 .884.02 1.317-.006.37-.021.552-.245.55-.601-.002-.356-.163-.535-.548-.563-.318-.024-.638-.018-.957-.023-.119-.002-.238 0-.362 0zm-.357-1.53c.584 0 1.159-.023 1.73.008.48.027.802.35.847.764.062.568-.232.984-.789 1.115l-.09.02.98 1.658c-.145 0-.264.008-.38-.005-.039-.004-.08-.058-.103-.1-.281-.478-.56-.958-.836-1.44-.043-.076-.089-.11-.18-.107-.27.007-.542.003-.826.003v1.642h-.353zM26.412 20.337v.362h-1.748v1.32h1.987v.36h-2.339v-3.56h2.295v.35h-1.944v1.168zM14.57 21.031h1.373c.002-.015.006-.025.004-.032-.198-.585-.395-1.17-.596-1.755-.01-.028-.053-.069-.074-.065a.129.129 0 0 0-.083.07c-.077.205-.148.412-.22.619l-.405 1.163zm-.909 1.37c.13-.355.253-.688.377-1.021.302-.814.607-1.628.905-2.443.035-.096.078-.137.184-.128.142.013.319-.042.417.025.097.066.118.246.166.38l1.109 3.054c.014.04.025.08.042.134-.122 0-.229.007-.335-.004-.032-.003-.072-.051-.086-.088-.1-.27-.198-.54-.29-.813-.025-.072-.057-.1-.138-.1-.496.004-.993.004-1.49 0-.078 0-.111.026-.137.099-.086.247-.192.489-.268.739-.043.14-.114.184-.25.166-.061-.008-.125 0-.206 0zM19.39 21.033c0-.013.001-.022-.001-.03-.198-.586-.396-1.172-.598-1.758-.01-.03-.066-.073-.082-.066a.167.167 0 0 0-.084.089c-.196.555-.389 1.112-.581 1.668-.01.03-.016.062-.025.097zm.916 1.37c-.127 0-.23.008-.332-.005-.037-.004-.084-.052-.099-.09-.1-.267-.195-.534-.284-.804-.025-.077-.057-.108-.142-.107-.493.004-.986.004-1.479 0-.083 0-.12.027-.148.104-.092.264-.195.524-.287.788-.028.082-.064.122-.156.113-.084-.008-.17-.002-.27-.002.017-.058.027-.099.042-.138.413-1.113.828-2.225 1.238-3.339.033-.089.076-.12.168-.113.103.008.208.01.31 0 .104-.01.15.027.185.125.363 1.012.731 2.022 1.098 3.033l.156.434z"/></g><defs><clipPath id="a"><path fill="#fff" d="M0 0h40v40H0z"/></clipPath></defs></svg>