<svg width="40" height="40" fill="none" xmlns="http://www.w3.org/2000/svg"><mask id="a" mask-type="alpha" maskUnits="userSpaceOnUse" x="10" y="18" width="20" height="4"><path fill="#fff" d="M10 18.422h20v3.157H10z"/></mask><g mask="url(#a)" transform="matrix(1.4 0 0 1.4 -8 -8)" fill-rule="evenodd" clip-rule="evenodd" fill="#00a2b2"><path d="M12.146 18.53v.583a2.655 2.655 0 0 0-.824-.154c-.3 0-.466.091-.466.255 0 .104.073.174.282.268l.561.251c.449.204.673.497.673.88 0 .592-.51.964-1.322.964a4.634 4.634 0 0 1-1-.124v-.598c.307.09.625.14.944.149.337 0 .515-.093.515-.267 0-.105-.07-.182-.23-.253l-.616-.275c-.455-.203-.666-.477-.666-.867 0-.561.493-.916 1.267-.916.296.004.59.042.878.112zM12.813 18.483h.91v3.034h-.91zM16.677 18.483v.556h-1.372v.684h1.2v.502h-1.2v.71h1.39v.582h-2.272v-3.034zM20.972 18.483v3.034h-.88V19.52l-.861 2.02h-.556l-.856-2.02v1.997h-.607v-3.034h1.11l.785 1.845.78-1.845zM23.93 18.483v.556h-1.375v.684h1.199v.502h-1.2v.71h1.391v.582H21.67v-3.034zM27.131 18.483v3.034h-.97l-1.092-1.946v1.946h-.607v-3.034h.995l1.068 1.92v-1.92zM29.769 18.53v.583a2.639 2.639 0 0 0-.82-.154c-.302 0-.469.09-.469.254 0 .112.068.171.284.27l.561.25c.45.205.674.498.674.885 0 .588-.512.96-1.321.96a4.632 4.632 0 0 1-1.001-.125v-.598c.306.09.623.14.941.149.337 0 .518-.093.518-.262 0-.112-.065-.183-.234-.258l-.612-.275c-.46-.204-.667-.474-.667-.867 0-.561.493-.916 1.265-.916.296.004.592.042.88.112z"/></g></svg>