<svg width="40" height="40" fill="none" xmlns="http://www.w3.org/2000/svg"><path fill-rule="evenodd" clip-rule="evenodd" d="M19.057 6.03a13.996 13.996 0 0 0-7.85 3.074 14.039 14.039 0 0 0-4.838 7.689c-.26 1.118-.353 1.963-.353 3.208 0 1.178.077 1.935.298 2.975a14.078 14.078 0 0 0 2.784 5.813 14.092 14.092 0 0 0 3.752 3.251 16.9 16.9 0 0 0 2.01.985 14.03 14.03 0 0 0 11.935-.78 14.056 14.056 0 0 0 6.891-9.27c.222-1.03.298-1.796.298-2.96.003-1.16-.057-1.79-.27-2.845a14.021 14.021 0 0 0-2.992-6.18 14.191 14.191 0 0 0-3.79-3.158 17.997 17.997 0 0 0-1.777-.856 14.226 14.226 0 0 0-6.098-.946zm1.6 1.474c2.244.129 4.34.815 6.193 2.034.777.512 1.28.925 1.985 1.628a11.654 11.654 0 0 1 1.674 2.053 12.484 12.484 0 0 1 1.906 8.357 12.519 12.519 0 0 1-2.8 6.423 16.705 16.705 0 0 1-1.616 1.616 12.564 12.564 0 0 1-4.064 2.261c-2.882.96-6.038.829-8.838-.366-3.243-1.387-5.802-4.137-6.929-7.449-.91-2.671-.91-5.45 0-8.121.862-2.53 2.584-4.777 4.832-6.3a12.007 12.007 0 0 1 3.063-1.507 12.108 12.108 0 0 1 4.594-.629z" fill="#fff" style="stroke-width:1.4"/><path fill-rule="evenodd" clip-rule="evenodd" d="M20.024 16.346c-.138 0-.263.006-.352.018a4.94 4.94 0 0 0-.916.243c-1.009.388-1.87 1.302-2.212 2.34-.126.38-.156.583-.172 1.073-.017.547.024.864.17 1.31.437 1.334 1.613 2.348 2.98 2.567.317.052.924.058 1.203.014a3.829 3.829 0 0 0 3.177-3.055c.074-.366.066-1.107-.013-1.476a3.761 3.761 0 0 0-1.045-1.923 3.733 3.733 0 0 0-1.922-1.041 5.39 5.39 0 0 0-.898-.07zM28 16.35c-.09 0-.162.001-.192.004a3.999 3.999 0 0 0-2.403 1.121c-.925.916-1.313 2.168-1.056 3.426.298 1.471 1.515 2.66 3.035 2.97a4.643 4.643 0 0 0 1.627 0c.654-.134 1.346-.476 1.8-.894l.161-.145-.583-.799-.58-.801-.15.164c-.74.82-2.01.872-2.821.118-.49-.454-.709-1.16-.55-1.786.093-.377.224-.604.509-.891.213-.216.284-.268.505-.375a2.63 2.63 0 0 1 .457-.167 2.037 2.037 0 0 1 1.827.517c.106.107.136.12.166.09.02-.019.282-.374.58-.787l.547-.752-.085-.077a5.189 5.189 0 0 0-.867-.55 3.768 3.768 0 0 0-1.621-.382 12.127 12.127 0 0 0-.306-.004zm-17.575.288c-.855 0-1.063.008-1.055.036.005.019.623 1.233 1.373 2.699l1.364 2.666-.17.328c-.09.18-.52 1.02-.948 1.867l-.78 1.537 1.07-.005 1.069-.009 1.463-2.884c.804-1.586 1.845-3.64 2.31-4.561l.848-1.674h-2.122l-.834 1.64c-.46.903-.84 1.641-.848 1.641-.008 0-.388-.738-.845-1.64l-.831-1.64zm9.585 1.621.21.003c.26.006.356.022.544.085a1.95 1.95 0 0 1 1.198 1.198c.068.205.077.257.077.607s-.006.402-.077.601c-.107.299-.24.512-.47.739-.588.585-1.42.719-2.174.35-.216-.104-.298-.164-.495-.361-.2-.197-.257-.276-.361-.495-.274-.566-.274-1.132-.003-1.682.227-.465.635-.81 1.135-.968a1.11 1.11 0 0 1 .416-.077z" fill="#fff" style="stroke-width:1.4"/></svg>