<svg width="40" height="40" fill="none" xmlns="http://www.w3.org/2000/svg"><mask id="a" mask-type="alpha" maskUnits="userSpaceOnUse" x="10" y="14" width="20" height="11"><path fill-rule="evenodd" clip-rule="evenodd" d="M10 14.845h19.84V25H10V14.845Z" fill="#fff"/></mask><g mask="url(#a)" transform="matrix(1.4 0 0 1.4 -7.968 -7.969)"><path fill-rule="evenodd" clip-rule="evenodd" d="M15.3 14.847c.386-.02.983.223 1.585.465.784.314 1.541.69 2.406.796.772.096 1.484-.047 2.192-.294.786-.275 1.549-.63 2.352-.832 1.9-.477 4.188.52 5.213 2.202 1.636 2.684.657 6.023-2.196 7.35-1.163.54-2.394.62-3.63.186-.576-.202-1.174-.354-1.727-.606-1.24-.566-2.43-.466-3.632.11a8.89 8.89 0 0 1-1.927.65c-2.656.584-5.498-1.442-5.873-4.116-.237-1.687.193-3.148 1.344-4.352.958-1.003 2.193-1.527 3.893-1.56z" fill="#3858a4"/></g></svg>