<svg width="40" height="40" fill="none" xmlns="http://www.w3.org/2000/svg"><mask id="a" mask-type="alpha" maskUnits="userSpaceOnUse" x="10" y="14" width="20" height="12"><path fill="#fff" d="M10 14.214h20v11.572H10z"/></mask><g mask="url(#a)" transform="matrix(1.4 0 0 1.4 -8 -8)" fill-rule="evenodd" clip-rule="evenodd" fill="#c36"><path d="M16.78 19.255c0-.642.481-1.311.53-1.492-.086.04-.192.069-.294.11-.118.048-.195.076-.308.127-.658.293-1.046.468-1.669.881-.454.301-.45.357-.711.565l-.405.435c-1.018 1.358.044 2.77 2.25 2.436 1.201-.181 2.484-.628 3.563-1.102l.91-.396c.32-.137.59-.293.912-.426.587-.243 2.285-1.177 3.05-1.584l.44-.245c.146-.087.266-.147.42-.233.873-.484 3.686-2.124 4.395-2.633.087-.064.127-.088.137-.207-.192-.107-.709.279-.87.375-.253.153-.5.29-.766.447l-3.911 2.123-.395.196-1.243.562c-.276.12-.559.246-.86.352-1.182.422-2.603.948-3.9.861-.682-.046-1.275-.44-1.275-1.152z"/><path d="M10 20.406c0 .822.116 1.41.6 1.981.18.214.382.386.612.54.164.107.559.334.81.34-.345-.3-.59-.434-.878-.864-.61-.91-.62-1.841-.018-2.77.326-.506.417-.544.735-.943.129-.16.27-.274.432-.408.08-.068.124-.132.205-.2l.954-.724c.095-.068.145-.11.26-.177.098-.058.15-.097.248-.155.1-.061.178-.1.276-.16.847-.512 2.044-.888 2.991-1.208.224-.074.423-.13.638-.2.306-.101.409-.182.409-.527 0-1.345-2.117-.43-2.712-.19-.936.377-1.953.972-2.755 1.568l-.7.575c-.087.082-.143.11-.233.201-.347.35-.727.714-1.016 1.13-.425.613-.858 1.424-.858 2.19ZM19.828 15.802c0 .608.072.894.695 1.204.157.078.404.18.533.276.33.239.273.797.08 1.165-.166.317-.264.27-.312.403.276 0 .659-.218.85-.33.262-.156.465-.339.652-.562.11-.13.158-.188.25-.341.095-.16.139-.246.202-.419.25-.672.296-1.623-.15-2.205-.511-.669-1.774-.632-2.326-.116-.218.204-.474.52-.474.925zM13.483 23.92c-.277.415-.738.82-1.157 1.082-.15.095-.411.221-.46.288.267 0 .726-.087.977-.145.96-.222 1.806-.407 2.766-.686.252-.072 3.18-.906 3.318-1.285l-1.237.38c-.398.11-.856.235-1.3.317-.734.136-1.809.267-2.552.13-.131-.025-.226-.07-.355-.08zM16.313 24.792c-.015.186-.236.438-.349.551-.21.21-.421.303-.458.443.287 0 .718-.175.94-.27.147-.064.266-.115.406-.185.354-.177 1.065-.579 1.354-.794.185-.136.455-.262.472-.46l-.525.221c-.59.238-1.148.436-1.84.494z"/></g></svg>