<svg width="40" height="40" fill="none" xmlns="http://www.w3.org/2000/svg"><mask id="a" mask-type="alpha" maskUnits="userSpaceOnUse" x="10" y="11" width="20" height="18"><path fill="#fff" d="M10 11.484h20v17.031H10z"/></mask><g mask="url(#a)" transform="matrix(1.4 0 0 1.4 -8 -8)" fill-rule="evenodd" clip-rule="evenodd" fill="#047aac" fill-opacity=".451"><path d="m27.031 11.485-4.258 7.374-4.258 7.375-4.257-7.375L10 11.484h8.515z"/><path d="m27.03 11.485-2.91 8.002-2.912 8.002-5.475-6.522-5.474-6.522 8.386-1.48z"/><path d="m27.031 11.485-1.476 8.386-1.476 8.387-6.525-5.472-6.525-5.471L19.03 14.4z"/><path d="M27.031 11.485 27.035 20l.005 8.516-7.377-4.254-7.377-4.254 7.373-4.262z"/><path d="m27.031 11.485 1.485 8.385L30 28.255l-8.004-2.907-8.004-2.907 6.52-5.478z"/></g></svg>