<svg width="40" height="40" fill="none" xmlns="http://www.w3.org/2000/svg"><mask id="a" mask-type="alpha" maskUnits="userSpaceOnUse" x="10" y="10" width="20" height="20"><path fill="#fff" d="M10 10.001h20v19.998H10z"/></mask><g mask="url(#a)" transform="matrix(1.4 0 0 1.4 -8 -8)" fill-rule="evenodd" clip-rule="evenodd"><path d="M19.337 10.045c-2.315.27-3.703.752-5.426 2.046-1.414 1.039-2.597 2.656-3.214 4.274-1.285 3.235-.771 6.997 1.363 9.721.386.482.771.948 1.208 1.31 1.029.85 1.697 1.369 3.06 1.903 2.597 1.03 5.734.94 8.202-.384 1.852-.978 2.88-2.016 3.934-3.566 1.106-1.648 1.646-3.913 1.517-5.997-.077-1.467-.488-2.709-1.08-3.89-.488-.993-.9-1.445-1.517-2.205-.334-.39-.925-.88-1.337-1.196-1.8-1.377-4.396-2.272-6.71-2.016zm-4.423 14.423.051-2.708c-.951-.286-1.465-.595-1.954-1.167-1.928-2.355.463-5.394 2.752-5.35 2.314.038 4.68 2.86 2.776 5.32-.642.843-1.08.903-1.902 1.257v2.22c.565-.046 2.417-1.107 5.296-.347 1.8.474 2.932 1.16 5.246.43a6.2 6.2 0 0 0 1.414-.678c.668-.429.617-.467.797-1.264 1.054-4.477-1.26-9.014-5.271-10.88-4.937-2.272-9.616-.053-11.853 2.95a9.81 9.81 0 0 0-1.595 8.2c.232.866.18.836.875 1.205.771.406 2.34.903 3.368.812z" fill="#fff"/><path d="m15.325 21.526-.077 3.296c-.823 0-1.414-.015-2.185-.21-1.158-.302-1.08-.437-1.8-.685.231.692 1.002 1.79 1.414 2.264.437.527.797.888 1.337 1.347 1.465 1.25 3.857 2.175 6.17 2.107 3.01-.083 5.632-1.475 7.329-3.634.308-.406 1.208-1.693 1.337-2.288-.334.143-.463.324-1.234.633a7.069 7.069 0 0 1-1.569.376c-2.828.33-3.728-1.121-6.634-.933-1.748.113-2.134.526-3.136.775v-3.048c.462-.158.642-.135 1.054-.368.9-.497 1.697-1.663 1.542-2.822-.18-1.392-1.594-2.716-3.11-2.739-2.16-.03-4.269 2.897-2.366 4.891 1.003 1.053 1.723.79 1.928 1.038z" fill="#358d25"/><path d="M21.753 14.815c-.771-.15-1.26-.346-1.954.083-1.028.64-.797 2.618 1.234 2.19.617-.136.489-.294.823-.129.9.452 2.057.482 2.983.18.308-.105.488-.3.771-.232.592.158 1.389.135 1.749-.414.154-.256.18-.662 0-.94-.386-.55-1.055-.528-1.826-.467-.591-1.498-1.748-2.032-3.034-1.174-.617.414-.488.594-.746.903zm.232.466c-.54-.173-1.08-.444-1.749-.21-1.131.414-.925 2.212 1.003 1.595.129-.053.257-.12.36-.158.283-.098.257.173 1.131.384 1.132.263 1.749.022 2.572-.37.205-.097.565.114.848.121.874.03 1.183-.534.874-.948-.334-.436-1.182-.293-1.748-.203-.129-.79-.694-1.603-1.543-1.618-.643-.015-1.208.354-1.543.828-.128.203-.102.391-.205.58z" fill="#fff"/></g></svg>