<svg width="40" height="40" fill="none" xmlns="http://www.w3.org/2000/svg"><g clip-path="url(#a)" transform="matrix(1.4 0 0 1.4 -8 -8)" fill-rule="evenodd" clip-rule="evenodd"><path d="M19.2 15.047a9.435 9.435 0 0 0-4.594 1.32.958.958 0 0 1 .201.232 9.145 9.145 0 0 1 8.543-.372v-.33a9.44 9.44 0 0 0-4.15-.85Zm-6.058 2.398a9.454 9.454 0 0 0-3.13 7.51h.296a9.157 9.157 0 0 1 2.993-7.252.936.936 0 0 1-.16-.258zm7.219 1.415c-.07 0-.145.003-.228.007-.498.024-1.19.17-1.38 1.024-.024.106-.034.2-.035.285v.015c.007.704.754.728 1.184.728.069 0 .148 0 .231-.003.498-.024 1.19-.17 1.38-1.025.024-.104.034-.2.035-.284v-.02c-.008-.701-.758-.727-1.187-.727zm-4.128.068-.432 1.923h.766l.24-1.077h.007l.607 1.077h.872l.433-1.923h-.767l-.238 1.066h-.008l-.57-1.066zm5.763 0-.433 1.923h.8l.133-.592H23.062c.147 0 .178.085.155.228-.036.224-.057.307-.042.364h.873a.34.34 0 0 1-.05-.224l.061-.42c.024-.168-.051-.264-.163-.297v-.007a.561.561 0 0 0 .41-.436.55.55 0 0 0 .015-.095v-.046a.38.38 0 0 0-.186-.326c-.099-.051-.234-.072-.463-.072h-.652zm2.72 0-.429 1.923h.724l.308-1.373h.004l.117 1.373h.607l.728-1.373h.008l-.307 1.373h.724l.429-1.923h-1.123l-.58 1.119h-.008l-.08-1.12zm3.877 0-1.29 1.923h.846l.136-.22h.831l.034.22H30l-.429-1.923h-.766Zm-8.338.417c.325 0 .496.156.41.546-.077.34-.268.5-.532.535a.901.901 0 0 1-.121.008c-.326 0-.501-.152-.414-.543.076-.34.272-.503.535-.538a.886.886 0 0 1 .122-.008zm2.427.068h.558c.133 0 .222.037.19.183-.028.12-.106.178-.262.178h-.565Zm6.267.099h.004l.091.653h-.478l.239-.41zm-14.897 1.54c-.611 0-1.363.196-1.551 1.04-.199.889.536 1.02 1.096 1.02.458 0 .733-.067.979-.243l.049.175h.345l.243-1.096h-1.134l-.099.436h.33c-.089.145-.24.243-.5.243-.397 0-.554-.187-.475-.543.087-.39.327-.546.653-.546.104 0 .193.01.261.045a.21.21 0 0 1 .114.198h.9c.048-.496-.323-.729-1.21-.729zm5.766 0c-.069 0-.145 0-.227.004-.499.024-1.19.173-1.381 1.028-.024.105-.034.2-.034.285v.015c.007.703.754.728 1.183.728.07 0 .148 0 .232-.004.498-.024 1.19-.17 1.38-1.024.024-.104.034-.2.035-.284v-.02c-.009-.701-.759-.728-1.188-.728zm-4.074.068-.429 1.924h.8l.13-.592H16.814c.147 0 .175.085.152.228-.036.224-.054.307-.038.364h.872a.34.34 0 0 1-.05-.224l.062-.421c.023-.168-.052-.264-.164-.296v-.007a.566.566 0 0 0 .41-.44c.007-.033.014-.061.015-.092v-.049a.382.382 0 0 0-.186-.326c-.098-.051-.233-.069-.462-.069h-.653zm5.774 0-.266 1.195c-.136.612.208.797 1.028.797.82 0 1.248-.185 1.385-.797l.27-1.195h-.801l-.258 1.165c-.056.248-.222.326-.482.326s-.393-.078-.338-.326l.258-1.165zm2.712 0-.429 1.924h.797l.133-.596h.853c.566 0 .836-.287.918-.656.013-.057.02-.113.023-.163v-.099c-.02-.263-.211-.41-.649-.41h-.618zm-4.518.418c.325 0 .497.155.41.546-.076.34-.268.5-.531.535a.872.872 0 0 1-.122.008c-.325 0-.5-.152-.413-.543.076-.34.271-.503.535-.539a.9.9 0 0 1 .121-.007zm5.216.034h.512c.201 0 .264.06.232.205-.032.14-.118.2-.319.2h-.515zm-8.494.034h.554c.133 0 .226.033.194.178-.027.122-.106.183-.262.183h-.565z" fill="#fff"/><path d="M13.066 17.087a.937.937 0 1 0 1.875 0 .937.937 0 0 0-1.875 0z" fill="url(#b)" style="fill:url(#b)"/></g><defs><radialGradient id="b" cx="0" cy="0" r="1" gradientUnits="userSpaceOnUse" gradientTransform="translate(14.38 16.712) scale(1.42837)"><stop stop-color="#fff"/><stop offset="1" stop-color="#9C9A9B"/></radialGradient><clipPath id="a"><path fill="#fff" d="M0 0h40v40H0z"/></clipPath></defs></svg>