<svg width="40" height="40" fill="none" xmlns="http://www.w3.org/2000/svg"><g clip-path="url(#a)" transform="matrix(1.4 0 0 1.4 -8 -8)"><mask id="b" mask-type="alpha" maskUnits="userSpaceOnUse" x="10" y="10" width="20" height="20"><path fill="#fff" d="M10 10.779h20v18.442H10z"/></mask><g mask="url(#b)" fill-rule="evenodd" clip-rule="evenodd"><path d="M26.516 12.305c-4.498-2.1-11.192-.47-14.309 2.918-2.59 2.816-3.457 8.875.502 11.552-3.903-3.468-2.272-8.749-.035-11.144 2.304-2.465 7.327-5.284 13.842-3.326z" fill="#888"/><path d="M11.298 23.36c1.373 3.045 3.849 5.056 6.284 5.641 2.339.56 5.946.091 8.215-1.87-2.816 1.725-5.412 2.205-7.807 1.562-2.43-.657-5.206-2.385-6.692-5.332zM14.071 12.914c5.965-4.353 12.866-1.74 14.832 5.045-1.234-3.479-3.688-5.906-6.86-6.643-2.272-.532-5.08-.29-7.972 1.598z" fill="#888"/><path d="M14.273 12.445c-1.513-.11-2.36.362-2.58.99-.398 1.128.89 3.61 4.395 6.029-2.727-2.256-3.854-4.284-3.94-5.568-.053-.84.558-1.368 2.125-1.451z" fill="#888"/><path d="M10.646 16.857c-.34-.268-.51-.483-.51-.647-.01-.976 7.561-2.491 16.72 1.859-7.614-3.218-15.802-2.83-16.355-1.743-.07.136-.026.31.145.53zM24.386 24.047c2.191 1.73 4.573 2.258 5.193 2.063.276-.086.126-.33-.67-1.025.224.351.23.534.077.598-.52.217-3.127-.78-4.6-1.636z" fill="#888"/><path d="M16.52 19.995h1.008v1.944c0 .193-.032.376-.091.547-.06.172-.156.32-.282.448a1.142 1.142 0 0 1-.405.271 2.04 2.04 0 0 1-.705.11 4.67 4.67 0 0 1-.52-.035 1.373 1.373 0 0 1-.47-.131 1.212 1.212 0 0 1-.346-.282 1.011 1.011 0 0 1-.214-.375 1.889 1.889 0 0 1-.094-.553v-1.944h1.006v1.99c0 .18.05.319.147.418.1.1.236.15.41.15a.558.558 0 0 0 .408-.147c.1-.1.148-.239.148-.421zm1.663 0h1.33l.507 1.987.51-1.987h1.322v3.264h-.824v-2.486l-.638 2.486h-.746l-.635-2.486v2.486h-.826zm4.084 0h3.066v.807h-1.03v2.457h-1.006v-2.457h-1.03zM27.701 23.272l-.276-1.022h-1.04l-.274 1.022h-.19l.909-3.285h.166l.898 3.285zm2.288-1.424H30v1.43h-.173v-.26c-.108.166-.29.278-.596.31-.217.025-.413-.07-.582-.206a1.331 1.331 0 0 1-.386-.585 2.522 2.522 0 0 1-.134-.86c0-.328.048-.626.15-.894.1-.268.241-.477.426-.627a.959.959 0 0 1 .628-.226c.215 0 .421.06.62.175v.257a1.157 1.157 0 0 0-.644-.217.8.8 0 0 0-.526.188c-.153.128-.27.305-.354.533-.083.231-.123.488-.123.775 0 .454.083.813.255 1.076.171.263.407.445.7.394.692-.115.525-.678.566-1.263h-.792v-.215H30a5.697 5.697 0 0 0-.01.215zm-3.079-1.566h-.008c-.019.099-.037.18-.054.241l-.405 1.515h.926l-.408-1.51z" fill="#2c5fab"/></g></g><defs><clipPath id="a"><path fill="#fff" d="M0 0h40v40H0z"/></clipPath></defs></svg>