<svg width="40" height="40" fill="none" xmlns="http://www.w3.org/2000/svg"><g clip-path="url(#a)" transform="matrix(1.4 0 0 1.4 -8 -8.015)"><path fill-rule="evenodd" clip-rule="evenodd" d="M24.608 26.793v.952h-.823v-1.773h1.925c.794 0 1.436.649 1.436 1.45 0 .614-.378 1.139-.912 1.35L27.26 30l-1.072-.01-.929-1.114-.659.005v1.11h-.822v-1.114l-7.867.001v1.098h-.82v-1.098h-1.546v1.098h-.82v-1.934h2.365v-2.067h.821v2.067l9.798.013a.63.63 0 0 0 .628-.633c0-.35-.279-.616-.626-.616z" fill="#007bc0"/><path fill-rule="evenodd" clip-rule="evenodd" d="M18.498 28.213c.117-.169.31-.336.577-.502l.083-.05a1.624 1.624 0 0 1-.264-.394.975.975 0 0 1-.094-.417c0-.287.096-.51.29-.671.191-.162.44-.243.748-.243.28 0 .51.083.692.248a.809.809 0 0 1 .275.631c0 .232-.055.42-.165.564-.109.144-.27.278-.481.401l.558.69c.065-.093.113-.193.147-.302.036-.108.055-.224.056-.345h.677c-.01.24-.068.48-.171.725-.057.137-.15.288-.278.454l.716.861h-.925l-.273-.334a1.693 1.693 0 0 1-.369.273 1.51 1.51 0 0 1-.703.157c-.4 0-.711-.118-.936-.352-.224-.236-.337-.497-.337-.784 0-.237.06-.44.177-.61zm1.077-1.165c.033.052.102.143.209.275a1.42 1.42 0 0 0 .23-.19.45.45 0 0 0 .134-.312.333.333 0 0 0-.08-.22c-.054-.064-.135-.096-.244-.096a.347.347 0 0 0-.19.056c-.09.055-.133.143-.133.262 0 .072.024.146.074.225zm-.337 2.11a.55.55 0 0 0 .41.162.755.755 0 0 0 .353-.085c.112-.06.203-.124.272-.196l-.722-.892c-.19.126-.317.237-.38.334a.588.588 0 0 0-.09.318c0 .13.052.25.157.358z" fill="#fff"/><path d="m19.075 27.752-.039-.064zm.083-.051.04.064.076-.047-.06-.067zm-.264-.393.067-.032zm.195-1.088.048.057zm1.441.005-.05.055zm.11 1.195-.06-.046v.001zm-.481.401-.038-.065-.075.044.054.068zm.558.69-.058.047.063.077.057-.082zm.147-.302-.07-.024-.001.001zm.056-.345v-.075h-.073l-.001.074zm.677 0 .075.003.003-.078h-.078zm-.171.724-.069-.029zm-.278.455-.06-.046-.036.047.038.047zm.716.86v.075h.16l-.102-.122zm-.925 0-.058.048.023.027h.035zm-.273-.334.058-.047-.05-.062-.059.055zm-.369.273-.034-.066zm-1.639-.195.054-.052zm1.126-2.324-.058.047.044.054.057-.04zm.23-.19-.055-.05zm.053-.531-.057.047zm-.433-.04.04.063zm.367 2.673.034.066zm.272-.196.054.052.046-.047-.042-.052zm-.722-.892.058-.047-.042-.053-.057.038zm-.38.334-.062-.04zm-.612-.184c.11-.158.293-.32.556-.482l-.079-.127c-.272.169-.474.343-.6.524zm.555-.482.083-.05-.078-.128-.083.05zm.1-.164a1.554 1.554 0 0 1-.253-.375l-.135.063a1.7 1.7 0 0 0 .277.411zm-.253-.375a.901.901 0 0 1-.086-.385h-.15c0 .155.034.305.101.449zm-.086-.385c0-.269.089-.47.262-.614l-.096-.115c-.212.177-.316.423-.316.729zm.262-.614c.176-.149.407-.226.7-.226v-.15c-.32 0-.588.086-.796.261zm.7-.226c.264 0 .477.078.643.23l.1-.111a1.065 1.065 0 0 0-.742-.268zm.644.23c.166.149.25.339.25.575h.15c0-.277-.1-.508-.3-.687zm.25.575c0 .22-.052.39-.15.518l.118.091c.123-.16.181-.365.181-.61zm-.15.519a1.522 1.522 0 0 1-.46.382l.075.129c.218-.127.387-.266.504-.421zm-.48.493.558.69.116-.094-.558-.69zm.678.685a1.17 1.17 0 0 0 .157-.322l-.143-.045a1.02 1.02 0 0 1-.137.282zm.156-.321c.038-.116.058-.239.06-.367l-.15-.002c0 .114-.018.221-.052.323zm-.015-.293h.677v-.15h-.677zm.603-.079c-.01.23-.066.462-.166.7l.138.057c.106-.251.166-.501.177-.75zm-.166.7a1.976 1.976 0 0 1-.268.437l.118.092c.13-.17.228-.327.288-.472zm-.267.53.717.861.115-.095-.717-.86zm.774.739h-.925v.15h.925zm-.867.027-.273-.334-.115.094.272.335zm-.382-.341c-.128.12-.245.206-.352.26l.069.134c.122-.063.25-.16.385-.285zm-.352.26c-.19.1-.413.15-.669.15v.15c.276 0 .522-.055.738-.167zm-.669.15c-.384 0-.674-.112-.882-.33l-.108.103c.242.254.575.377.99.377zm-.882-.33c-.213-.223-.316-.466-.316-.731h-.15c0 .308.122.588.358.835zm-.316-.731c0-.225.055-.412.163-.567l-.123-.085c-.127.183-.19.402-.19.652zm1.116-1.776c.035.056.107.15.214.282l.116-.094a3.33 3.33 0 0 1-.203-.267zm.315.297c.108-.076.19-.144.243-.202l-.112-.1a1.33 1.33 0 0 1-.217.18zm.242-.2c.1-.108.154-.23.154-.364h-.15c0 .09-.035.177-.114.261zm.154-.364c0-.1-.034-.19-.098-.267l-.115.095a.258.258 0 0 1 .063.172zm-.098-.267c-.072-.086-.177-.123-.3-.123v.149c.093 0 .15.027.185.07zm-.3-.123a.421.421 0 0 0-.23.067l.08.126a.272.272 0 0 1 .15-.044zm-.23.067a.36.36 0 0 0-.17.325h.15c0-.097.035-.159.099-.198zm-.17.325c0 .09.032.178.087.265l.127-.08a.348.348 0 0 1-.064-.185zm-.24 2.387a.624.624 0 0 0 .463.185v-.15a.475.475 0 0 1-.356-.14zm.463.185a.832.832 0 0 0 .387-.094l-.069-.133a.683.683 0 0 1-.318.078zm.387-.094a1.14 1.14 0 0 0 .292-.21l-.107-.104a.993.993 0 0 1-.254.182zm.296-.309-.722-.892-.116.094.722.892zm-.82-.907c-.193.127-.33.245-.402.355l.125.081c.054-.082.17-.187.359-.312zm-.403.356a.661.661 0 0 0-.102.358h.15c0-.102.026-.194.079-.278zm-.102.358c0 .153.063.29.179.41l.107-.104a.432.432 0 0 1-.137-.306z" fill="#007bc0"/><path fill-rule="evenodd" clip-rule="evenodd" d="M12.742 10h14.534v14.53H12.742V10Z" fill="#007bc0"/><path fill-rule="evenodd" clip-rule="evenodd" d="M16.315 18.5a.91.91 0 0 0-.62 1.553l1.204 1.203s.076.065.142-.003c.038-.04.049-.095.018-.142l-1.209-1.209a.696.696 0 1 1 .986-.985l1.937 1.936c.217.229.37.364.505.658.15.326.165.59.165.906l-.01 2.137h-2.505V23.46a.776.776 0 0 0-.048-.341.783.783 0 0 0-.137-.253l-1.403-1.979a2.012 2.012 0 0 1-.235-.624c-.056-.257-.048-.416-.048-.672v-3.333a.623.623 0 1 1 1.248 0zM23.702 18.5a.91.91 0 0 1 .62 1.553l-1.204 1.203s-.075.065-.141-.003c-.039-.04-.05-.095-.019-.142l1.21-1.209a.696.696 0 1 0-.986-.985l-1.937 1.936c-.218.229-.37.364-.505.658-.15.326-.166.59-.166.906l.01 2.137h2.505V23.46a.784.784 0 0 1 .05-.341.778.778 0 0 1 .135-.253l1.404-1.979c.125-.228.178-.37.234-.624.056-.256.049-.416.048-.672v-3.333a.623.623 0 1 0-1.248 0z" fill="#fff"/><path fill-rule="evenodd" clip-rule="evenodd" d="M17.316 16.688c-.017-1.638.546-2.336 1.386-3.238a7.782 7.782 0 0 1 2.028-1.538c-.185.448-.282.74-.138 1.207.22.704.837.865 1.268 1.403.507.633.778 1.031.834 1.945a2.693 2.693 0 0 1-2.684 2.914c-1.488 0-2.68-1.206-2.694-2.693z" fill="#fcc400"/><path fill-rule="evenodd" clip-rule="evenodd" d="M17.316 16.688c-.017-1.638.546-2.336 1.386-3.238a7.782 7.782 0 0 1 2.028-1.538c-.185.448-.282.74-.138 1.207.22.704.837.865 1.268 1.403.507.633.778 1.031.834 1.945a2.693 2.693 0 0 1-2.684 2.914c-1.488 0-2.68-1.206-2.694-2.693z" fill="#fcc400"/><mask id="b" mask-type="alpha" maskUnits="userSpaceOnUse" x="17" y="14" width="4" height="3"><path fill-rule="evenodd" clip-rule="evenodd" d="M17.825 15.41a1.214 1.214 0 1 0 2.427 0 1.214 1.214 0 0 0-2.427 0z" fill="#fff"/></mask><g mask="url(#b)" fill-rule="evenodd" clip-rule="evenodd"><path d="M20.602 15.394a1.56 1.56 0 1 0-3.121.002 1.56 1.56 0 0 0 3.121-.002zm-.35.016h.001a1.213 1.213 0 1 1-2.427-.002 1.213 1.213 0 0 1 2.427.002" fill="#fcc400"/><path d="M20.256 15.433a1.214 1.214 0 1 0-2.428.001 1.214 1.214 0 0 0 2.428-.001zm-.35-.024a.867.867 0 1 1-1.733 0 .867.867 0 0 1 1.734 0" fill="#fed253"/><path d="M19.91 15.394a.867.867 0 1 0-1.735 0 .867.867 0 0 0 1.734 0zm-.35.016a.52.52 0 1 1-1.041-.002.52.52 0 0 1 1.04.002z" fill="#ffe194"/><path d="M19.563 15.433a.52.52 0 1 0-1.041 0 .52.52 0 0 0 1.04 0zm-.35-.024a.173.173 0 1 1-.346 0 .173.173 0 0 1 .346 0" fill="#fff0cc"/><path d="M19.216 15.394a.173.173 0 1 0-.347 0 .173.173 0 0 0 .347 0z" fill="#fff"/></g><path clip-rule="evenodd" d="M17.825 15.41a1.214 1.214 0 1 1 2.428 0 1.214 1.214 0 0 1-2.428 0z" stroke="#fcc400" stroke-width=".149"/><path fill-rule="evenodd" clip-rule="evenodd" d="M12.742 25.984h.829v1.788h-.829z" fill="#007bc0"/></g><defs><clipPath id="a"><path fill="#fff" d="M0 0h40v40H0z"/></clipPath></defs></svg>