<svg width="40" height="40" fill="none" xmlns="http://www.w3.org/2000/svg"><mask id="a" mask-type="alpha" maskUnits="userSpaceOnUse" x="10" y="17" width="20" height="6"><path fill="#fff" d="M10 17.158h20v5.685H10z"/></mask><g mask="url(#a)" transform="matrix(1.4 0 0 1.4 -8 -8)" fill-rule="evenodd" clip-rule="evenodd" fill="#fff"><path d="M10.112 17.158v1.284h2.364L10 22.835v.007h4.71v-1.264h-2.411l2.438-4.383v-.037zM15.249 17.158v5.684h4.086v-1.264h-2.616v-.986h2.392v-1.257H16.72v-.893h2.616v-1.284zM21.894 17.158l-2.166 5.684h1.479l.39-1.078h2.075l.398 1.078h1.517l-2.167-5.684zm.744 1.768.587 1.61h-1.173zM25.942 17.158v5.684H30v-1.264h-2.56v-4.42z"/></g></svg>