<svg width="40" height="40" fill="none" xmlns="http://www.w3.org/2000/svg"><g clip-path="url(#a)" transform="matrix(1.4 0 0 1.4 -7.99 -8.01)"><mask id="b" mask-type="alpha" maskUnits="userSpaceOnUse" x="10" y="18" width="20" height="4"><path fill="#fff" d="M10 18.639h20v2.722H10z"/></mask><g mask="url(#b)" fill-rule="evenodd" clip-rule="evenodd"><path d="M11.366 19.273a1.291 1.291 0 0 0-.655-.177c-.408 0-.7.232-.7.568 0 .143.06.297.17.408.1.099.249.203.508.347.275.154.336.215.336.341 0 .122-.149.22-.33.22-.172 0-.447-.11-.695-.286v.463c.32.154.48.198.727.198.435 0 .75-.259.75-.617 0-.259-.182-.485-.546-.683l-.154-.088c-.226-.127-.314-.21-.314-.309 0-.115.116-.192.28-.192.183 0 .342.06.629.231v-.424M12.58 18.689l-.81.793v.044h.38v.964c0 .281.005.337.05.463.07.237.34.402.638.402.16 0 .386-.06.546-.143v-.402a.957.957 0 0 1-.49.154c-.21 0-.303-.104-.309-.374v-1.064h.689v-.385h-.695zM14.055 19.14v2.177h.43v-1.14c0-.364.236-.667.512-.667.116 0 .28.082.419.215l.225-.38c-.176-.166-.341-.249-.506-.249-.215 0-.397.144-.629.507l-.016.039h-.011v-.501zM17.757 20.926c-.11.077-.193.115-.243.115-.05 0-.077-.044-.077-.11v-.926c0-.385-.01-.446-.105-.605-.115-.188-.38-.304-.672-.304-.314 0-.55.1-.721.298v.468c.22-.242.451-.358.688-.358.265 0 .386.121.386.386v.115l-.375.133-.176.06c-.364.127-.568.353-.568.628 0 .303.226.54.53.54a.978.978 0 0 0 .583-.22c.033.154.138.22.325.22.133 0 .226-.038.425-.17v-.27m-.744-.684v.645a.56.56 0 0 1-.386.17c-.181 0-.308-.126-.308-.302s.099-.276.402-.397z" fill="#676c6e"/><path d="M22.01 20.683a1.281 1.281 0 0 1-.788.265c-.407 0-.683-.265-.705-.683h1.532v-.056c0-.677-.375-1.113-.953-1.113-.6 0-1.014.458-1.014 1.119 0 .342.1.612.32.837.209.22.424.303.749.303.336 0 .578-.071.854-.259v-.413m-1.477-.677c.06-.342.265-.54.573-.54.309 0 .502.192.524.54zM18.826 18.689l-.81.793v.044h.38v.964c0 .281.005.337.05.463.071.237.341.402.639.402.16 0 .385-.06.545-.143v-.402a.956.956 0 0 1-.49.154c-.21 0-.303-.104-.309-.374v-1.064h.689v-.385h-.689v-.452M24.288 19.245c-.264-.116-.413-.149-.628-.149-.644 0-1.074.458-1.074 1.146 0 .678.44 1.119 1.118 1.119.215 0 .414-.039.634-.127v-.424c-.237.105-.391.143-.573.143-.457 0-.75-.28-.75-.727 0-.424.276-.727.667-.727.1 0 .193.016.292.05.1.032.199.082.314.159v-.463" fill="#e30613"/><path d="M25.023 20.242a1.07 1.07 0 0 1 2.138 0 1.07 1.07 0 0 1-2.138 0zM27.816 20.242a1.07 1.07 0 0 1 2.138 0 1.07 1.07 0 0 1-2.138 0z" fill="#676c6e"/></g></g><defs><clipPath id="a"><path fill="#fff" d="M0 0h40v40H0z"/></clipPath></defs></svg>