<svg width="40" height="40" fill="none" xmlns="http://www.w3.org/2000/svg"><path fill-rule="evenodd" clip-rule="evenodd" d="M20 6C12.268 6 6 12.268 6 20s6.268 14 14 14 14-6.268 14-14S27.731 6 20 6z" fill="#fcea1c" style="stroke-width:1.4"/><path fill-rule="evenodd" clip-rule="evenodd" d="M6.65 20c0-7.374 5.976-13.35 13.35-13.35 7.373 0 13.35 5.977 13.35 13.35 0 7.373-5.977 13.35-13.35 13.35-7.374 0-13.35-5.977-13.35-13.35zm4.386-8.965A12.64 12.64 0 0 0 7.322 20c0 3.502 1.42 6.669 3.714 8.964A12.636 12.636 0 0 0 20 32.677c3.502 0 6.669-1.419 8.964-3.713A12.638 12.638 0 0 0 32.677 20c0-3.502-1.418-6.67-3.713-8.965A12.635 12.635 0 0 0 20 7.323a12.638 12.638 0 0 0-8.964 3.712z" fill="#000" style="stroke-width:1.4"/><path fill-rule="evenodd" clip-rule="evenodd" d="M18.077 25.42h-.36c-.752 0-1.362.504-1.362 1.125v3.022c0 .621.61 1.124 1.362 1.124h.36c.753 0 1.362-.503 1.362-1.124v-3.022c0-.621-.61-1.125-1.362-1.125zm.315 3.878c0 .244-.23.44-.514.44-.284 0-.514-.196-.514-.44V26.89c0-.245.23-.441.514-.441.285 0 .514.197.514.44zM23.48 26.884v-.09c0-.834-.68-1.509-1.52-1.509h-.043c-.84 0-1.52.675-1.52 1.508v.392c0 .833.68 1.507 1.52 1.507h.043c.185 0 .36-.033.525-.093l-.002.002c0 .427.171 1.129-.516 1.129-.686 0-.56-.771-.56-.771h-.996s-.225 1.794 1.556 1.794c1.78 0 1.514-1.486 1.514-3.87zm-1.478.812c-.276 0-.498-.208-.498-.464v-.348c0-.256.222-.464.498-.464.275 0 .497.208.497.464v.348c.001.257-.222.464-.497.464zM15.756 9.309h2.094l2.094 7.065 2.037-7.065h2.074L20.691 19.98h-1.496zM29.514 19.869s.879-.542.879-2.28c0-2.543-2.636-2.991-2.636-2.991h-3.664v10.505h3.57s2.748-.337 2.748-3.066c0 0 .038-1.644-.897-2.168zm-1.788 3.384H26.02v-2.45l1.707.02s.854.176.854 1.215c0 1.039-.854 1.215-.854 1.215zm-.006-4.375H26v-2.336l1.72.02s.86.167.86 1.158c0 .99-.86 1.158-.86 1.158zM15.831 19.869s.879-.542.879-2.28c0-2.543-2.636-2.991-2.636-2.991h-3.663v10.505h3.57s2.747-.337 2.747-3.066c0 0 .038-1.644-.897-2.168zm-1.787 3.384h-1.708v-2.45l1.708.02s.853.176.853 1.215c0 1.039-.853 1.215-.853 1.215zm-.007-4.375h-1.72v-2.336l1.72.02s.86.167.86 1.158c0 .99-.86 1.158-.86 1.158z" fill="#000" style="stroke-width:1.4"/></svg>