<svg width="40" height="40" fill="none" xmlns="http://www.w3.org/2000/svg"><path fill-rule="evenodd" clip-rule="evenodd" d="M6 22.619h.337l.186-1.628c.101-.894.548-1.333 1.046-1.333.54 0 .598.515.54 1.046l-.211 1.915h.329l.219-1.932c.076-.717-.026-1.4-.835-1.4-.413 0-.784.287-.962.65h-.008l.295-2.64H6.6zM10.748 20.983l-.025.219c-.06.54-.312 1.121-1.03 1.121-.277 0-.573-.202-.53-.607.067-.556.65-.733 1.214-.733zm.363-.532c.093-.818-.27-1.164-.903-1.164-.337 0-.759.16-1.045.447l.168.296c.262-.253.532-.372.835-.372.414 0 .709.237.65.793l-.034.203h-.388c-.514 0-1.45.092-1.56 1.08-.085.69.354.969.801.969.447 0 .75-.202.978-.607h.017a2.782 2.782 0 0 0-.025.523h.32c0-.371.026-.734.102-1.367zM11.482 22.619h.346l.177-1.628c.101-.894.548-1.333 1.054-1.333.531 0 .59.515.531 1.046l-.21 1.915h.328l.228-1.932c.076-.717-.025-1.4-.835-1.4-.421 0-.784.287-.97.65h-.017c0-.068.026-.33.043-.574h-.33c-.025.169-.05.683-.075.92zM14.333 22.619h.337l.185-1.628c.102-.894.549-1.333 1.046-1.333.54 0 .599.515.54 1.046l-.21 1.915h.328l.228-1.932c.076-.717-.026-1.4-.844-1.4-.421 0-.784.287-.961.65h-.017c0-.068.017-.33.042-.574h-.337c-.017.169-.042.683-.068.92zM17.554 20.99c.084-.733.54-1.332 1.181-1.332.632 0 .97.6.877 1.333-.084.734-.54 1.332-1.172 1.332-.641 0-.962-.598-.886-1.332zm-.337 0c-.11.988.38 1.713 1.18 1.713.793 0 1.443-.725 1.552-1.712.118-.987-.38-1.704-1.172-1.704-.801 0-1.45.717-1.56 1.704zM20.936 22.619h.354l1.392-3.256h-.346l-1.155 2.8-.557-2.8h-.388zM22.969 20.721c.016-.177.329-1.063 1.062-1.063.506 0 .852.481.793 1.063zm1.745 1.02c-.21.363-.59.582-.936.582-.793 0-.885-.868-.851-1.23h2.184l.034-.288c.084-.759-.245-1.518-1.046-1.518-.76 0-1.383.726-1.493 1.696-.118 1.003.329 1.72 1.122 1.72.464 0 .885-.202 1.206-.7zM25.406 22.619h.346l.194-1.771c.076-.641.396-1.147.978-1.147a.52.52 0 0 1 .135.025l.084-.405a.566.566 0 0 0-.202-.034c-.38 0-.683.27-.894.65-.008-.068.017-.33.042-.574h-.337c-.017.169-.05.683-.076.92z" fill="#fff" style="stroke-width:1.4"/><path fill-rule="evenodd" clip-rule="evenodd" d="M28.037 22.619h.844l.152-1.434c.075-.683.219-1.139.851-1.139.135 0 .245.026.355.068l.11-.962a.698.698 0 0 0-.27-.042c-.38 0-.642.22-.87.633h-.016l.076-.54h-.852z" fill="#256da3" style="stroke-width:1.4"/><path fill-rule="evenodd" clip-rule="evenodd" d="M30.939 20.519c.059-.33.295-.65.674-.65.295 0 .481.304.439.65zm1.13.97c-.169.236-.371.404-.658.404-.32 0-.531-.253-.548-.658h1.948l.042-.328c.127-1.097-.295-1.797-1.08-1.797-.843 0-1.602.7-1.72 1.797-.126 1.088.464 1.796 1.307 1.796.447 0 .92-.245 1.24-.683z" fill="#256da3" style="stroke-width:1.4"/><path fill-rule="evenodd" clip-rule="evenodd" d="M32.87 18.655h.042zm.16.396a.561.561 0 0 1-.16-.396h.042c0 .143.06.27.152.362zm.034-.034-.017.017zm.363.203a.535.535 0 0 1-.397-.169l.034-.034c.093.102.22.16.363.16zm0 0v-.042zm0 0v-.042zm.404-.169a.54.54 0 0 1-.404.169v-.042a.49.49 0 0 0 .37-.16zm.169-.396a.569.569 0 0 1-.169.396l-.033-.034a.51.51 0 0 0 .151-.362zm0 0h-.05zm0 0h-.05Zm-.169-.405a.574.574 0 0 1 .169.405h-.05a.53.53 0 0 0-.152-.371zm-.404-.169c.16 0 .303.068.404.169l-.033.034a.515.515 0 0 0-.371-.152zm0 0v.051zm0 0v.051zm-.397.169a.569.569 0 0 1 .397-.169v.051a.51.51 0 0 0-.363.152zm-.16.405c0-.16.059-.304.16-.405l.034.034a.53.53 0 0 0-.152.37zm0 0h.042zM33.292 18.883h.05v-.228h.085l.134.228h.06l-.144-.237c.05 0 .127-.033.127-.126 0-.135-.144-.135-.177-.135h-.135Zm.05-.447h.093c.101 0 .118.05.118.084s-.017.093-.118.093h-.093z" fill="#fff" style="stroke-width:1.4"/></svg>