<svg width="40" height="40" fill="none" xmlns="http://www.w3.org/2000/svg"><g clip-path="url(#a)" transform="matrix(1.4 0 0 1.4 -8 -8)"><mask id="b" mask-type="alpha" maskUnits="userSpaceOnUse" x="10" y="16" width="21" height="8"><path fill="#fff" d="M10 16.296h20v7.407H10z"/></mask><g mask="url(#b)"><path fill-rule="evenodd" clip-rule="evenodd" d="M21.094 21.887H10v-.159h11.094c.194 0 .37-.07.511-.211l1.358-1.358a.957.957 0 0 1 .635-.247H30v.159h-6.402a.747.747 0 0 0-.53.211l-1.357 1.358a.882.882 0 0 1-.617.247z" fill="#c8d400"/><path fill-rule="evenodd" clip-rule="evenodd" d="M21.905 22.787H10v-.141h11.905c.176 0 .353-.071.494-.195l1.375-1.375a.881.881 0 0 1 .618-.247h5.59v.159h-5.59c-.194 0-.37.07-.512.211l-1.376 1.376a.988.988 0 0 1-.6.212z" fill="#009fe3"/><path fill-rule="evenodd" clip-rule="evenodd" d="M15.22 23.704H10v-.159h5.22c.283 0 .565-.106.777-.318l2.063-2.045c.247-.23.565-.353.9-.353h11.058v.159H18.942c-.3 0-.582.106-.794.317l-2.063 2.046a1.31 1.31 0 0 1-.864.353zM17.25 18.748c0 .44-.265.688-.654.688-.388 0-.652-.265-.652-.688v-2.452h-.74v2.47c0 .793.616 1.322 1.392 1.322.777 0 1.394-.529 1.394-1.323v-2.469h-.74zM13.017 18.748l-.758-2.452H11.5l1.252 3.775h.547l1.252-3.775h-.776z" fill="#fff"/><path fill="#fff" d="M10 16.296h.741v3.774H10z"/><path fill-rule="evenodd" clip-rule="evenodd" d="M20.636 16.896c.123-.035.212-.159.194-.282 0-.159-.123-.3-.282-.318h-.459v1.059h.177v-.441h.176l.212.423v.018h.194l-.018-.036Zm-.37-.123v-.318h.229c.088 0 .159.07.159.159 0 .088-.071.158-.16.158zM21.341 18.078a.2.2 0 0 1 .141.053c.036.035.053.07.053.105v.018h.177v-.018c-.018-.176-.177-.3-.353-.3h-.018a.359.359 0 0 0-.264.106c-.106.106-.106.212-.106.406v.018c0 .194 0 .317.106.405.07.07.159.106.264.106h.036a.36.36 0 0 0 .352-.317v-.018h-.176v.018c-.018.035-.035.088-.07.123a.19.19 0 0 1-.124.053.2.2 0 0 1-.141-.053c-.053-.053-.053-.106-.053-.317 0-.212.018-.265.053-.318a.148.148 0 0 1 .123-.07zM20.107 18.995h.67v-.16h-.511v-.299h.44v-.159h-.44v-.282h.511v-.158h-.67zM19.137 18.095h.3v.9h.158v-.9h.283v-.159h-.741zM23.193 16.913h.424v-.158h-.424v-.3h.512v-.159h-.67v1.058h.158zM21.553 16.314l-.018-.018h-.123v.018l-.37 1.005-.018.036h.176v-.018l.088-.194h.388l.071.194v.018h.176l-.017-.036zm-.23.688.142-.423.159.423zM19.137 16.455h.3v.9h.158v-.9h.283v-.159h-.741zM24.428 17.936a.4.4 0 0 0-.282.106c-.106.106-.106.212-.106.406v.018c0 .194 0 .317.106.405.07.07.176.124.282.124a.4.4 0 0 0 .282-.106c.106-.106.106-.212.106-.406v-.035c0-.194 0-.3-.106-.388a.35.35 0 0 0-.282-.123zm.159.847a.2.2 0 0 1-.141.053.2.2 0 0 1-.142-.053c-.053-.053-.053-.123-.053-.317s0-.265.053-.318c.036-.035.089-.07.141-.07a.16.16 0 0 1 .142.07c.053.053.053.106.053.318 0 .211-.018.264-.053.317zM27.673 18.448v-.035h-.388v.123h.23v.053c0 .053-.018.124-.054.159a.224.224 0 0 1-.158.07.2.2 0 0 1-.142-.053c-.052-.052-.052-.105-.052-.317 0-.212.017-.265.052-.317a.2.2 0 0 1 .142-.053.16.16 0 0 1 .123.053c.035.035.053.07.07.123v.018h.177v-.018a.394.394 0 0 0-.37-.317.359.359 0 0 0-.265.105c-.106.106-.106.212-.106.406v.018c0 .194 0 .317.106.405a.4.4 0 0 0 .282.106h.018a.35.35 0 0 0 .282-.123c.07-.089.088-.177.088-.3zM26.28 17.936a.4.4 0 0 0-.283.106c-.105.106-.105.212-.105.406v.018c0 .194 0 .317.106.405.07.07.176.124.282.124a.4.4 0 0 0 .282-.106c.106-.106.106-.212.106-.406v-.035c0-.194 0-.3-.106-.388a.35.35 0 0 0-.282-.123zm.158.847a.2.2 0 0 1-.14.053.2.2 0 0 1-.142-.053c-.053-.053-.053-.106-.053-.317 0-.212.018-.265.053-.318a.2.2 0 0 1 .141-.053.16.16 0 0 1 .141.07c.053.054.053.107.053.318 0 .177 0 .247-.053.3z" fill="#fff"/><path fill="#fff" d="M27.92 17.937h.176v1.058h-.176z"/><path fill-rule="evenodd" clip-rule="evenodd" d="M29.913 18.466a.542.542 0 0 0-.212-.089l-.123-.017c-.035 0-.088-.018-.106-.053a.135.135 0 0 1-.035-.088c0-.036.017-.089.053-.106.035-.035.07-.035.123-.035h.035c.07 0 .141.017.194.07l.018.018.106-.106-.018-.018a.432.432 0 0 0-.282-.106H29.595c-.158 0-.282.124-.317.265v.035c0 .07.018.141.07.194.053.053.124.07.195.088l.123.018a.25.25 0 0 1 .106.035.145.145 0 0 1-.018.212.331.331 0 0 1-.141.035h-.035a.371.371 0 0 1-.23-.088l-.017-.018-.018.018-.088.088-.018.018.018.018a.466.466 0 0 0 .335.123h.035c.23 0 .37-.123.37-.317.036-.053.018-.141-.052-.194zM28.378 18.995h.67v-.16h-.493v-.299h.423v-.159h-.423v-.282h.494v-.158h-.67z" fill="#fff"/><path fill="#fff" d="M23.916 16.296h.176v1.058h-.176z"/><path fill-rule="evenodd" clip-rule="evenodd" d="M22.135 17.355h.159v-.441h.44v-.16h-.44v-.299h.511v-.159h-.67zM25.24 17.936h-.16v1.059h.653v-.16h-.494zM23.617 18.642l-.459-.688h-.159v1.04h.177v-.705l.458.688v.018h.159v-1.058h-.176zM25.116 17.037h-.177v.018c-.017.035-.035.088-.07.106a.191.191 0 0 1-.124.052.2.2 0 0 1-.14-.053c-.054-.052-.054-.105-.054-.317 0-.212.018-.265.053-.318a.2.2 0 0 1 .141-.052h.018c.088 0 .176.07.194.158v.018h.176v-.018a.359.359 0 0 0-.352-.3h-.018a.432.432 0 0 0-.282.106c-.106.106-.106.212-.106.406v.018c0 .194 0 .317.106.405.07.07.176.106.264.106h.018c.176 0 .335-.141.353-.3zM22.54 17.936v.441h-.405v-.44h-.176v1.058h.176v-.459h.406v.459h.176v-1.059h-.088z" fill="#fff"/></g></g><defs><clipPath id="a"><path fill="#fff" d="M0 0h40v40H0z"/></clipPath></defs></svg>