<svg width="40" height="40" fill="none" xmlns="http://www.w3.org/2000/svg"><g clip-path="url(#a)" transform="matrix(1.4 0 0 1.4 -8 -8)" fill-rule="evenodd" clip-rule="evenodd"><path d="M10 9.998h20v20.004h-.208l-.559-.307-2.12-.715-1.43-.434-1.762-.358-1.788-.255-2.12-.103-2.044.103-1.864.255-1.763.358-1.43.434-2.12.715-.56.307H10Z" fill="#2b3f94"/><path d="m24.993 20.038.18-.102.076-.255-.179-.716-.255-.536-.46-.614-.869-1.328-.178-.357h.434l.434.076.358.281.179.358.102.255h.434v-1.328H21.8v.358l.178.715.256.51.434.537.894 1.329.179.357h-.536l-.358-.076-.358-.179-.178-.46-.077-.255H21.8v1.43zM18.94 15.772v.358h.178l.18.076.101.281v2.836l-.102.179-.179.076-.179.103v.357h2.325v-.46l-.281-.076-.179-.179V16.385l.103-.179.357-.077v-.357zM14.776 15.772h3.73V17.1h-.537v-.255l-.255-.46-.46-.256h-.613v1.508l.46-.102.076-.256v-.102h.434v1.43h-.434v-.076l-.076-.281-.282-.179h-.178v1.61h.46l.255-.103.434-.255.281-.715h.434v1.43h-3.729v-.357l.358-.103.102-.255v-2.836l-.102-.28-.358-.077zM10.792 20.038v-.178l.077-.46.28-.69.716-.895.868-1.328.18-.357H12.4l-.46.076-.357.281-.077.358-.102.255h-.536v-1.328h3.55l-.076.613-.281.715-.511.792-.639.716-.357.536-.077.434.434.103.358-.103.358-.255.28-.358.077-.255h.358v1.328zM28.876 20.038l.178-.102.102-.255-.178-.716-.281-.536-.435-.614-.893-1.328-.256-.357h.536l.435.076.357.281.179.358.077.255h.46v-1.328H25.682v.358l.179.715.28.51.435.537.894 1.329.178.357h-.536l-.357-.076-.358-.179-.179-.46-.077-.255h-.46v1.43z" fill="#fff"/></g><defs><clipPath id="a"><path fill="#fff" d="M0 0h40v40H0z"/></clipPath></defs></svg>