<svg width="40" height="40" fill="none" xmlns="http://www.w3.org/2000/svg"><g clip-path="url(#a)" transform="matrix(1.4 0 0 1.4 -8 -8.155)"><g clip-path="url(#b)"><path d="M23.881 23.774c-.113-.247-.126-.504-.114-.772.006-.144.077-.185.183-.21a48.206 48.206 0 0 1 2.65-.56c.3-.055.605-.088.907-.138a.442.442 0 0 1 .209.027c.075.027.129.024.194-.028.108-.085.4-.02.47.095.066.113.067.098.209.11.247.02.502-.014.737.096.077.036.125.111.183.157.074.057.164.153.287.13a.37.37 0 0 1 .205.03v.07c-.106.185-.296.134-.448.136-1.557.02-3.09.201-4.592.624-.265.074-.514.208-.794.232l-.285.001zM12.048 21.466c-.27-.017-.686.048-1.096-.059-.63-.165-.947-.563-.95-1.212 0-.23.007-.46-.001-.69-.026-.778.584-1.265 1.271-1.289.61-.021 1.222-.026 1.831.002.523.025.993.192 1.228.723.067.153.093.315.096.483.001.095-.034.122-.124.12-.326-.003-.653-.001-.979 0-.06 0-.112.005-.125-.083-.036-.24-.22-.312-.427-.319-.373-.01-.747-.01-1.12 0-.264.007-.368.128-.37.391l.001.62c.001.214.097.341.308.359.431.036.865.028 1.296.005.165-.008.279-.106.302-.273.015-.106.06-.129.16-.127.315.007.63.007.943 0 .112-.002.136.033.135.141-.008.64-.42 1.076-1.12 1.178-.075.01-.151.028-.228.03-.296.002-.593 0-1.03 0zM20.354 18.667c.546-.472 1.18-.466 1.816-.436.419.02.781.175 1.072.483a.72.72 0 0 1 .21.526c-.008.685-.006 1.37 0 2.055 0 .131-.022.187-.172.18a11.51 11.51 0 0 0-.889 0c-.128.004-.157-.04-.155-.16.007-.472.003-.944.003-1.417 0-.07-.002-.142-.01-.212-.045-.38-.196-.511-.583-.512-.25 0-.498-.004-.747.001-.349.007-.54.193-.543.54-.006.532-.007 1.064.002 1.595.002.136-.039.169-.17.165-.302-.01-.604-.007-.907-.001-.11.002-.155-.02-.154-.143.005-.974.005-1.949 0-2.923 0-.12.04-.15.154-.148.297.007.594.01.89 0 .149-.007.205.04.184.186-.008.063-.001.13-.001.221zM27.956 19.097c-.273 0-.546.005-.818-.002-.103-.002-.13.03-.128.13.005.36 0 .72.003 1.08.002.215.096.31.313.329.07.006.142.002.213.002.354-.003.439-.083.436-.44 0-.118.024-.17.155-.165.272.009.545.003.818.002.073 0 .125.009.122.104-.014.613-.366 1.236-1.01 1.314a5.87 5.87 0 0 1-1.33.004c-.515-.056-.92-.573-.927-1.12-.005-.36-.006-.721.002-1.08.002-.12-.023-.172-.154-.16-.123.012-.248-.002-.373.004-.089.004-.127-.018-.124-.116a9.37 9.37 0 0 0 0-.602c-.003-.095.035-.129.125-.119a.365.365 0 0 0 .07 0c.146-.012.332.063.427-.032.085-.088.022-.27.024-.411.004-.265.002-.265.277-.265.255 0 .51.009.765-.004.146-.007.183.046.172.18-.011.129.005.26-.005.389-.01.121.04.147.151.146.528-.005 1.056.003 1.583-.006.149-.003.197.04.187.187-.013.17-.01.343 0 .513.004.108-.027.144-.139.141-.278-.008-.557-.003-.835-.003z" fill="#009b90"/><path d="M23.754 19.858c0-.472.007-.944-.003-1.415-.003-.153.047-.189.19-.184.297.01.593.007.89.001.11-.002.14.035.14.142-.003.98-.004 1.959.001 2.938 0 .117-.043.135-.146.134a20.928 20.928 0 0 0-.924 0c-.116.003-.152-.029-.15-.146.005-.49.002-.98.002-1.47z" fill="#019b90"/><path d="M24.344 17.893c-.16 0-.32-.004-.478.001-.085.003-.115-.026-.113-.11.004-.224.004-.448 0-.671-.002-.084.027-.114.113-.113.33.004.661.004.992 0 .085-.001.114.03.112.113-.004.223-.004.447 0 .67.002.085-.028.114-.112.111-.171-.005-.343-.001-.514-.001zM18.885 20.342c-.338.003-.676.002-1.014 0-.06 0-.09.013-.107.083-.053.218-.146.297-.37.305-.35.01-.7.016-1.05.01-.348-.006-.455-.13-.475-.477-.009-.153.043-.185.188-.182.45.01.9.003 1.35.003.451 0 .902-.009 1.352.005.173.005.211-.055.201-.21-.012-.176-.002-.354-.003-.53 0-.636-.315-1.019-.946-1.097-.743-.09-1.494-.068-2.237-.022-.763.047-1.124.493-1.126 1.253-.002.272-.005.544 0 .815.013.738.458 1.176 1.197 1.18.646.002 1.292-.001 1.939 0 .198 0 .39-.033.57-.115.37-.17.607-.443.635-.865.005-.077.02-.158-.104-.156zm-3.013-1.098c.023-.191.136-.338.34-.347.402-.017.804-.016 1.206-.002.196.007.313.142.351.32.028.13-.017.166-.144.163-.272-.008-.544-.002-.816-.003-.272 0-.545-.004-.817.002-.106.003-.13-.034-.12-.133z" fill="#009b90"/></g></g><defs><clipPath id="a"><path fill="#fff" d="M0 0h40v40H0z"/></clipPath><clipPath id="b"><path fill="#fff" transform="translate(10 17)" d="M0 0h20v6.774H0z"/></clipPath></defs></svg>