<svg width="40" height="40" fill="none" xmlns="http://www.w3.org/2000/svg"><g clip-path="url(#a)" transform="matrix(1.4 0 0 1.4 -7.966 -7.96)"><mask id="b" mask-type="alpha" maskUnits="userSpaceOnUse" x="10" y="12" width="21" height="16"><path fill="#fff" d="M10 12.535h20v14.93H10z"/></mask><g mask="url(#b)"><path fill-rule="evenodd" clip-rule="evenodd" d="M10 20.817v6.45h5.409v-8c-1.86.62-3.69 1.156-5.409 1.55zm9.747-3.127c-.845.338-1.69.676-2.536.958v8.62h5.409V16.422c-.93.451-1.887.874-2.873 1.268zm4.676-2.113v11.69h5.408V12.536c-1.606 1.042-3.437 2.057-5.408 3.042z" fill="#fff"/></g></g><defs><clipPath id="a"><path fill="#fff" d="M0 0h40v40H0z"/></clipPath></defs></svg>