<svg width="40" height="40" fill="none" xmlns="http://www.w3.org/2000/svg"><path fill-rule="evenodd" clip-rule="evenodd" d="M34 20c0-7.736-6.274-14-14-14-7.736 0-14 6.274-14 14 0 7.736 6.274 14 14 14s14-6.264 14-14zm-1.255-1.57c-1.66.71-4.495 1.827-5.127 3.793-.198.464-.09 1.136-.09 1.848 0 1.926-.908 3.23-1.58 3.902-.9.9-1.71 1.423-1.947 1.64-.118.119-1.126 1.374-1.916 2.184-.722.75-1.482 1.156-1.63 1.047-.149-.109.286-.622.79-1.215.563-.652.929-1.186.83-1.255-.168-.109-.712.257-1.769.77-1.324.643-3.645 1.394-3.902 1.078-.415-.415 4.09-1.552 4.713-3.745 0 0-.91.366-2.204-1.57-1.363-2.026-2.084-3.844-3.547-3.844-1.828 0-5.602 2.5-6.777 3.31A12.944 12.944 0 0 1 6.929 20c0-7.222 5.849-13.071 13.071-13.071 3.754 0 7.143 1.58 9.524 4.12 1.848 2.074 1.552 3.922.484 4.732-1.234.929-2.924.554-3.131-.158-.11-.385.227-.603.227-.603.108-.059.257-.079.444-.039.237.02.228-.158.119-.257-.227-.198-.672-.316-.968-.316-.484-.01-1.265.118-1.265.118a.936.936 0 0 1-.504-.148.5.5 0 0 1-.188-.276c-.108-.386.139-.534.139-.534.118-.099.296-.148.543-.109.237.02.227-.158.119-.256-.227-.198-.672-.317-.968-.317-.475-.01-1.265.119-1.265.119a.936.936 0 0 1-.504-.148.5.5 0 0 1-.188-.277c-.109-.385.158-.553.158-.553.119-.089.287-.129.514-.089.237.02.227-.158.119-.257-.228-.198-.672-.316-.969-.316-.474-.01-1.264.118-1.264.118-.247-.01-.346-.098-.366-.257-.01-.296.277-.85.188-1.63-.129-1.195-.968-1.58-1.146-1.482-.208.11.04 2.342-1.67 2.342-.316 0-.563-.02-.82-.03-.474 0-.692.03-1.057.109-.524.148-1.057.484-1.206 1.186l-.03.197c-.009.099-.009.208-.108.237-.06.01-.296.07-.691.1-1.769.167-2.757-.653-2.964-.722-.208-.08-.9.929-.81 1.887.138 1.63 1.56 2.559 1.719 2.47.098-.06-.04-.395.177-.79.326-.593.9-.198 1.137-.119.227.099.72.237 1.007.237.277 0 .741-.138.949-.237.405-.188.76-.316 1.008-.04.197.218.177.83.177.83-.938-.346-1.294-.276-2.005-.128-1.176.247-2.134 1.442-3.488.909-1.195-.504-1.136-1.314-1.344-1.334-.217-.02-.602 1.235.346 2.322.563.642 1.472 1.067 2.698.326.01.138.088.514.296.87.217.375.642.77 1.166.77.909 0 2.618-1.907 4.456-1.6 2.232.365 3.971 4.485 4.307 4.91.08.089.257.405.465.336.207-.07.247-.336.247-.336.128-1.186.85-1.947 1.69-2.312.612-.287 1.333-.257 1.689-.267.869 0 2.647-1.58 5.493-2.114.128-.04.306.178.06.306zm-15.383-6.324s0-.01 0 0a.49.49 0 0 0-.168-.385c-.04-.04-.04-.119.07-.1.276.08.464.277.464.515 0 .227-.198.424-.465.494-.109.02-.109-.06-.069-.1.099-.108.158-.177.168-.385v-.04zm-.721.03c.01.207.069.276.168.385.04.04.04.118-.06.099-.01 0-.02-.01-.03-.01h-.009c-.257-.09-.445-.277-.435-.504 0-.217.178-.405.435-.484.138-.04.148.05.109.099-.1.108-.158.177-.168.375v.02c-.01.01-.01.01-.01.02zm-.237 4.436a2.194 2.194 0 0 1-1.146.968c-.979.375-1.799.188-1.957.04l-.01-.01s1.67-1.74 3.162-1.097l-.05.099zm10.532 4.89a.552.552 0 0 0-.554-.553.56.56 0 0 0-.563.553c0 .306.247.554.563.554a.552.552 0 0 0 .554-.554z" fill="#c9252c" style="stroke-width:1.4"/></svg>