<svg width="40" height="40" fill="none" xmlns="http://www.w3.org/2000/svg"><mask id="a" mask-type="alpha" maskUnits="userSpaceOnUse" x="10" y="14" width="20" height="12"><path fill="#fff" d="M10 14.429h20v11.142H10z"/></mask><g mask="url(#a)" transform="matrix(1.4 0 0 1.4 -8 -8)"><path fill-rule="evenodd" clip-rule="evenodd" d="M19.999 14.43C25.519 14.43 30 16.924 30 20s-4.48 5.57-10.001 5.57C14.48 25.57 10 23.076 10 20s4.48-5.57 9.999-5.57zm0 .502c-5.24 0-9.494 2.275-9.494 5.068 0 2.795 4.255 5.065 9.494 5.065s9.494-2.27 9.494-5.065c0-2.793-4.255-5.068-9.494-5.068zm-1.757 5.603h-1.968c.024.484.296.709.703.709.302 0 .51-.17.563-.342h.644c-.165.586-.644.857-1.235.857-.838 0-1.359-.576-1.359-1.399 0-.797.552-1.404 1.359-1.404.907 0 1.345.761 1.293 1.58zm-1.312-1.077c-.41 0-.619.272-.651.62h1.277c-.049-.371-.205-.62-.626-.62zm9.834 1.077h-1.968c.02.484.295.709.7.709.305 0 .512-.17.565-.342h.645c-.165.586-.644.857-1.235.857-.84 0-1.36-.576-1.36-1.399 0-.797.552-1.404 1.36-1.404.907 0 1.344.761 1.293 1.58zm-1.314-1.077c-.408 0-.617.272-.652.62h1.28c-.05-.371-.205-.62-.628-.62zm-13.303 2.23h.73v-1.585h1.578v1.584h.73v-3.68h-.73v1.507h-1.577v-1.507h-.73zm6.498 0h.688v-1.44c0-.54.191-.76.587-.76.34 0 .493.215.493.653v1.546h.686v-1.636c0-.658-.195-1.095-.974-1.095a.947.947 0 0 0-.812.442h-.017v-.37h-.651zm3.04 0h.687v-1.44l1.014 1.44h.854l-1.117-1.493.989-1.167h-.819l-.921 1.147v-2.168h-.686zm5.481 0h.687v-3.68h-.687z" fill="#ec1b23"/></g></svg>