<svg width="40" height="40" fill="none" xmlns="http://www.w3.org/2000/svg"><path fill-rule="evenodd" clip-rule="evenodd" d="M6.63 20.653v-1.936c0-.2 0-.41.084-.616.107-.252.298-.462.536-.57a1.013 1.013 0 0 1 .928.028c.108.057.202.131.281.22l.508-.383a1.667 1.667 0 0 0-1.283-.601c-.266 0-.532.06-.76.182a1.74 1.74 0 0 0-.742.737c-.08.144-.13.303-.154.462a2.498 2.498 0 0 0-.028.326v.122-.005 4.554h.63v-1.904h1.474v-.62zm2.076-1.395.005 3.929h.63v-3.929h-.635m.257-1.199a.423.423 0 0 0-.257.387.411.411 0 0 0 .756.233.431.431 0 0 0 0-.47.415.415 0 0 0-.5-.15zm5.893 5.142h.63l.005-6.154h-.635zm6.07-3.612a1.342 1.342 0 0 0-1.885-.648 1.66 1.66 0 0 0-.368.331 4.284 4.284 0 0 0-.14-.15 1.053 1.053 0 0 0-.29-.204 1.322 1.322 0 0 0-.886-.098 1.285 1.285 0 0 0-.635.354 1.33 1.33 0 0 0-.35.658 1.86 1.86 0 0 0-.037.392v2.981h.62V20.22c0-.107.005-.219.029-.326a.66.66 0 0 1 .27-.397.734.734 0 0 1 .513-.107c.206.028.383.14.495.312a.76.76 0 0 1 .121.439l.005 3.06h.625v-2.985c0-.117.005-.229.047-.341a.65.65 0 0 1 .354-.397.735.735 0 0 1 .537-.018.731.731 0 0 1 .401.364c.061.13.075.275.075.415v2.963h.616v-2.879c0-.121 0-.243-.014-.36a1.917 1.917 0 0 0-.103-.373zm3.938 2.375a1.538 1.538 0 0 1-1.199.574c-.457 0-.91-.219-1.199-.578a1.604 1.604 0 0 1-.355-1.004c.01-.373.126-.723.36-1.012.224-.28.55-.467.895-.541.355-.07.719-.019 1.036.154.41.219.7.625.789 1.087.084.466-.033.947-.327 1.32zm.69-2.08a2.275 2.275 0 0 0-.652-.714 2.097 2.097 0 0 0-1.176-.402c-.388-.01-.77.08-1.106.266a2.188 2.188 0 0 0-.859.877c-.158.29-.247.612-.26.943-.015.326.041.658.162.961.145.36.378.672.682.91.354.28.807.43 1.255.448a2.125 2.125 0 0 0 1.6-.658v.672h.62v-2.02c0-.173-.004-.35-.018-.523a1.784 1.784 0 0 0-.247-.76zm3.813-.551a1.632 1.632 0 0 0-.78-.5 1.744 1.744 0 0 0-.965.005c-.29.089-.546.252-.752.476-.196.215-.35.48-.405.77-.028.13-.042.261-.042.397v2.71h.61v-2.496c0-.08 0-.158.005-.238a1.13 1.13 0 0 1 .625-.966c.304-.14.654-.13.948.028.205.112.368.285.471.495.08.163.107.345.107.523v2.65h.616V20.62c0-.196-.014-.402-.065-.593a1.683 1.683 0 0 0-.373-.695zm4.54.616a1.692 1.692 0 0 0-.462-.728 1.625 1.625 0 0 0-.97-.443 1.675 1.675 0 0 0-.939.172 1.74 1.74 0 0 0-.741.737c-.08.145-.131.304-.154.462a2.498 2.498 0 0 0-.028.327v2.71h.615v-2.495c0-.215 0-.42.084-.621.103-.247.299-.467.546-.579.304-.14.654-.13.948.028.205.112.368.285.47.495.08.163.108.345.108.523v2.65H34V20.62a2.335 2.335 0 0 0-.093-.672zm-23.344.709c.056-.196.117-.383.229-.555.187-.29.452-.514.77-.63.34-.126.714-.126 1.054-.005.294.107.546.299.733.546.154.205.224.392.28.644zm3.336-.915a2.158 2.158 0 0 0-2.048-.96 2.15 2.15 0 0 0-1.106.466c-.326.27-.574.625-.704 1.026a2.34 2.34 0 0 0-.033 1.293c.075.308.229.578.43.821.228.27.508.495.834.63.374.154.78.2 1.18.144.346-.05.677-.205.953-.42.224-.172.401-.391.564-.615l-.536-.327a1.52 1.52 0 0 1-.233.313 1.62 1.62 0 0 1-.831.438c-.29.052-.583.019-.854-.093a1.617 1.617 0 0 1-.788-.728 1.448 1.448 0 0 1-.14-.443h3.667c.023-.182.028-.369.01-.55a2.21 2.21 0 0 0-.365-.995z" fill="#fff" style="stroke-width:1.4"/></svg>