<svg width="40" height="40" fill="none" xmlns="http://www.w3.org/2000/svg"><g clip-path="url(#a)" transform="matrix(1.4 0 0 1.4 -7.996 -7.996)"><mask id="b" mask-type="alpha" maskUnits="userSpaceOnUse" x="10" y="17" width="20" height="6"><path fill="#fff" d="M10 17.178h20v5.644H10z"/></mask><g mask="url(#b)" fill-rule="evenodd" clip-rule="evenodd"><path d="M12.26 17.652c.1-.126.23-.223.39-.254.004.25.006.5.002.748-.138.018-.336.031-.358.206-.028.39-.002.783-.013 1.174a22.795 22.795 0 0 0-.64.001c-.006-.691-.003-1.383-.003-2.074.214 0 .429 0 .643-.002l-.02.201zM10.14 17.629c.208-.235.561-.246.848-.19.208.033.408.195.422.415.05.555.01 1.114.024 1.67-.207.002-.414 0-.621 0l.004-.151c-.18.308-.76.243-.801-.133 0-.222-.065-.479.066-.675.203-.17.477-.215.701-.352.003-.148.024-.306-.052-.441-.207.066-.09.33-.12.492h-.605c.005-.214-.03-.468.134-.635zm.47 1.275c0 .097-.025.339.142.269.08-.186.014-.412.033-.613-.11.081-.197.197-.176.344zM17.021 19.907c.214-.002.429-.002.643 0 .002.182.001.364 0 .546.242-.189.7-.18.8.159.052.608.007 1.222.024 1.832-.216-.002-.432 0-.648-.004-.007-.58.027-1.161-.019-1.739-.067.017-.159.02-.148.115-.02.542 0 1.086-.01 1.628-.214-.003-.428-.002-.641 0a564.33 564.33 0 0 1 0-2.537zM21.977 19.91c.22-.006.442-.004.663-.005-.003.846 0 1.692-.002 2.538-.22 0-.44 0-.66-.002.001-.844.002-1.688 0-2.532zM26.128 19.906l.66-.001.003.345-.662.001v-.345zM12.882 20.413v-.315c.215 0 .43-.002.647-.001l.003.314.162.002v.345a15.072 15.072 0 0 0-.164-.003c.007.445-.013.89.01 1.334l.18.01v.344c-.23-.014-.48.044-.695-.062-.117-.076-.146-.222-.142-.352v-1.272h-.136l-.001-.347.136.003zM14.163 20.388c.313-.11.728-.085.954.186.184.254.128.587.138.88-.27.004-.538.002-.808.003.007.199-.015.399.012.597.055.072.109.072.16-.002.04-.16.03-.328.037-.492.198.003.397.002.595 0 .004.23.033.49-.125.681-.22.288-.651.29-.964.173-.23-.078-.354-.32-.359-.55-.004-.31-.008-.62.002-.928.004-.232.128-.47.358-.548zm.283.709c.04 0 .123.003.163.005a1.872 1.872 0 0 0-.022-.4c-.223-.009-.116.255-.141.395zM15.443 20.816c.021-.261.272-.437.515-.474.256-.039.553-.003.736.198.157.16.145.404.153.612-.202.001-.404.002-.605 0-.004-.139.012-.281-.025-.417l-.13-.024c-.023.366-.005.735-.012 1.102.006.11-.027.268.116.302.138-.138.064-.362.09-.537.189-.003.377-.003.566 0-.01.219.023.468-.127.65-.202.288-.617.3-.923.201-.24-.077-.357-.33-.362-.566-.003-.349-.016-.7.008-1.047zM19.334 20.497c.13-.113.293-.2.472-.163.197.006.338.196.335.385.04.573.012 1.148.019 1.723-.217.001-.432.002-.648-.002-.012-.58.03-1.163-.026-1.74-.098-.004-.146.038-.144.124-.01.539 0 1.079-.004 1.618h-.647c0-.691-.002-1.382 0-2.071l.647-.001c0 .032-.003.095-.005.127zM20.757 20.366c.244-.06.518-.057.743.065.197.11.294.34.29.558-.004.31.013.623-.012.932a.573.573 0 0 1-.41.52c-.261.07-.563.067-.801-.072-.233-.158-.233-.47-.233-.722.01-.292-.027-.588.037-.876a.559.559 0 0 1 .386-.405zm.246.362c-.043.43-.015.866-.015 1.297.018.148.185.063.153-.05-.003-.423.017-.847-.013-1.268l-.125.021zM23.28 20.36c.31-.073.704-.033.905.246.16.262.094.586.11.877-.019.249.028.532-.126.746-.225.297-.656.295-.982.2-.22-.061-.332-.292-.342-.506-.02-.368-.037-.742.018-1.109a.547.547 0 0 1 .416-.453zm.215.365a8.11 8.11 0 0 0 .002 1.34l.13.047a7.998 7.998 0 0 0-.002-1.402l-.13.015zM24.638 20.395c.202-.124.475-.07.642.091.013-.028.04-.083.052-.111.198-.013.396-.002.594-.003-.005.645.012 1.291-.008 1.937-.006.27-.272.447-.518.474-.254.024-.538.042-.765-.096-.142-.08-.158-.255-.185-.4.21.003.419 0 .628 0l.039.136c.218.026.172-.231.202-.375-.111.072-.22.172-.362.162-.21.022-.454-.11-.477-.336-.038-.313-.015-.63-.02-.945.007-.185.006-.417.178-.534zm.498.336c-.062.207-.02.427-.032.64.01.157-.034.331.055.472l.093-.045c.056-.356.032-.725.011-1.084a9.498 9.498 0 0 0-.127.017zM27.439 20.359c.324-.076.749-.026.92.3.108.25.085.532.088.799-.274-.002-.549-.001-.824 0 .004.19-.01.381.018.57-.018.104.188.095.176-.005.022-.153.008-.307.01-.461l.62-.001c-.008.222.024.471-.12.66-.182.278-.568.3-.863.231a.576.576 0 0 1-.466-.527 6.22 6.22 0 0 1 .007-1.097.553.553 0 0 1 .434-.469zm.213.358c-.03.125-.027.255-.03.383l.183-.002c-.024-.125.062-.426-.153-.38zM28.651 20.572c.129-.21.408-.248.634-.242.234-.001.506.076.616.302.043.132.02.274.026.41-.188.003-.377.001-.565 0a5.283 5.283 0 0 0-.018-.335c-.2-.042-.22.225-.117.333.194.166.466.216.641.407.114.129.119.314.11.477-.009.152-.04.324-.17.42-.196.148-.462.159-.696.122-.175-.025-.367-.1-.449-.268-.073-.155-.05-.33-.057-.495.187-.003.375-.004.561-.002.002.13.013.261.03.391.058-.002.116-.005.174-.005a5.067 5.067 0 0 0 0-.317c-.222-.16-.493-.255-.686-.453-.144-.215-.126-.512-.034-.745zM26.13 22.442c-.001-.69-.002-1.381 0-2.072h.659c.004.691 0 1.381.001 2.072h-.66z" fill="#fff"/><path d="M12.869 17.18c.217-.003.434-.002.652 0l-.007.288.167.026v.342l-.156-.001c-.015.44-.005.882-.007 1.324l.208.034-.014.33c-.198-.002-.397.017-.594-.014a.314.314 0 0 1-.248-.33c-.008-.443.004-.886-.006-1.329-.203.035-.132-.22-.125-.341l.128-.046.002-.283zM14.07 17.509c.321-.157.763-.141 1.02.13.188.257.154.596.17.897-.274.002-.548.002-.823-.002a9.33 9.33 0 0 0 .006.632l.156.012c.031-.17.041-.343.037-.516.204-.006.408-.006.613-.004.006.213.011.445-.112.63-.122.2-.366.294-.592.284-.254.002-.552-.074-.679-.315-.148-.317-.068-.674-.087-1.01-.005-.265.023-.604.292-.738zm.371.305c-.004.122-.006.243-.006.365h.157c0-.12-.003-.24-.007-.36a11.02 11.02 0 0 1-.144-.005zM15.556 17.622c.28-.276.774-.28 1.08-.045.2.157.194.439.205.67a4.88 4.88 0 0 1-.62-.005c-.021-.149.091-.442-.143-.44-.035.454-.055.915.011 1.367l.138.004a8.21 8.21 0 0 1 .027-.518c.193.002.386.002.58.002.013.248.006.529-.174.721-.212.216-.546.224-.822.156a.543.543 0 0 1-.405-.46c-.033-.275-.005-.552-.018-.827.004-.212-.024-.463.14-.625z" fill="#0368b3"/></g></g><defs><clipPath id="a"><path fill="#fff" d="M0 0h40v40H0z"/></clipPath></defs></svg>