<svg width="40" height="40" fill="none" xmlns="http://www.w3.org/2000/svg"><g clip-path="url(#a)" transform="matrix(1.4 0 0 1.4 -8.157 -8)"><g clip-path="url(#b)" fill="#ed0a79"><path d="m28.777 10.006.002 6.787c-.37.003-.739.003-1.108.009-.094.001-.08-.06-.078-.115a7.035 7.035 0 0 0-.13-1.455c-.371-1.897-1.784-3.318-3.679-3.694a7.436 7.436 0 0 0-1.482-.134c-.078 0-.117.017-.104.102.003.021 0 .043 0 .065V26.07c0 .353.026.702.132 1.042.253.81.815 1.267 1.632 1.434.194.04.261.053.502.07.229.006.182.006.229.006.26.002.52.003.779 0 .07 0 .115.008.114.098-.004.396-.003.792-.001 1.188 0 .066-.02.1-.09.092-.027-.002-.053 0-.08 0H15.37c-.168 0-.168 0-.168-.173v-1.03c0-.174 0-.174.18-.174h.7c.044 0 0 0 .173-.006.4-.018.7-.07 1.05-.215.714-.298 1.085-.862 1.227-1.6.045-.235.056-.472.056-.71 0-4.846-.001-9.692.002-14.538 0-.12-.03-.15-.15-.15-.903-.001-1.779.13-2.6.527-1.222.592-2.005 1.557-2.401 2.845a5.855 5.855 0 0 0-.243 1.888c.003.11-.028.143-.138.14a19.917 19.917 0 0 0-.924 0c-.105.002-.132-.028-.132-.132.004-1.316.002-2.632.002-3.948 0-.862.003-1.725-.002-2.588-.001-.112.032-.135.14-.135 5.51.003 11.02.002 16.53.002.036 0 .071.003.106.004z"/><path d="M12.003 21.202c0-.625.002-1.25-.003-1.875 0-.1.03-.124.127-.124 1.245.003 2.49.003 3.736 0 .105 0 .132.03.132.133-.003 1.25-.004 2.5 0 3.75 0 .11-.036.127-.134.127a660.107 660.107 0 0 0-3.723 0c-.11 0-.139-.026-.138-.136.006-.625.003-1.25.003-1.875zM28.78 21.203c0 .629-.001 1.258.003 1.887.001.1-.025.124-.124.123a668.93 668.93 0 0 0-3.747 0c-.1 0-.124-.025-.123-.123a693.5 693.5 0 0 0 0-3.762c0-.097.022-.126.123-.125 1.249.003 2.498.003 3.748 0 .1 0 .124.029.123.126-.004.625-.002 1.25-.002 1.874z"/></g></g><defs><clipPath id="a"><path fill="#fff" d="M0 0h40v40H0z"/></clipPath><clipPath id="b"><path fill="#fff" transform="translate(12 10)" d="M0 0h16.783v20H0z"/></clipPath></defs></svg>