<svg width="40" height="40" fill="none" xmlns="http://www.w3.org/2000/svg"><g clip-path="url(#a)" transform="matrix(1.4 0 0 1.4 -8 -8)" fill-rule="evenodd" clip-rule="evenodd"><path d="m11.696 15.61 1.623 1.637V15.43c0-1.768 1.552-1.552 1.552-1.552h10.196c1.818 0 1.544 1.537 1.544 1.537v9.15c0 1.79-1.544 1.573-1.544 1.573H23.25v3.334h1.818c5.412 0 4.921-4.892 4.921-4.892v-9.165c0-5.036-4.92-4.9-4.92-4.9H14.87c-5.03 0-4.864 4.9-4.864 4.9v1.833z" fill="#b5b5b6"/><path d="M13.305 24.514v-6.646l-1.602-1.624L10 17.875v6.653a4.961 4.961 0 0 0 4.957 4.958 4.961 4.961 0 0 0 4.958-4.958 4.961 4.961 0 0 0-4.958-4.957 5.23 5.23 0 0 0-1.169.13l-.007 3.738a1.626 1.626 0 0 1 2.836 1.082c0 .895-.729 1.624-1.624 1.624-.901.014-1.688-.73-1.688-1.631z" fill="#0055a2"/><path d="M22.78 29.471v-3.348h-2.584a5.369 5.369 0 0 1-2.973 3.356z" fill="#0055a2"/></g><defs><clipPath id="a"><path fill="#fff" d="M0 0h40v40H0z"/></clipPath></defs></svg>