<svg width="40" height="40" fill="none" xmlns="http://www.w3.org/2000/svg"><g clip-path="url(#a)" transform="matrix(1.4 0 0 1.4 -7.994 -7.994)"><mask id="b" mask-type="alpha" maskUnits="userSpaceOnUse" x="10" y="17" width="20" height="6"><path fill="#fff" d="M10 17.968h20v4.065H10z"/></mask><g mask="url(#b)" fill-rule="evenodd" clip-rule="evenodd" fill="#fff"><path d="M17.88 18.048c.48-.16 1.022-.072 1.451.186.328.209.535.563.615.938-.217.004-.435.012-.65-.015-.081-.214-.202-.423-.407-.538-.382-.225-.924-.155-1.223.178-.209.257-.206.607-.21.921.006.389-.032.784.058 1.166.133.498.753.728 1.21.55.298-.083.489-.355.585-.633h.636c-.092.546-.52 1.019-1.068 1.13l.067.018c-.26.005-.516.081-.775.037-.448-.053-.897-.273-1.147-.66-.178-.27-.186-.604-.212-.915.004-.503-.038-1.016.092-1.508.14-.438.55-.734.979-.855zM26.754 17.995c.187-.003.375-.009.563 0 .075-.001.142.05.173.118.3.548.571 1.113.887 1.652.32-.57.6-1.163.927-1.729.22-.026.443-.01.665-.004a1.316 1.316 0 0 1-.098.221c-.377.657-.743 1.319-1.12 1.975-.038.07-.078.143-.071.226-.004.49.006.98-.002 1.47l-.022.034c-.206.007-.411 0-.617 0 .002-.487-.001-.972.002-1.458-.002-.088.008-.184-.043-.262l-.95-1.68c-.102-.185-.219-.364-.294-.563zM12.149 18.029c.206-.006.412-.004.62-.002l1.685 2.306c.112.151.205.322.36.436.006-.843.003-1.687 0-2.53.005-.07-.011-.146.023-.21.21-.01.42-.004.63 0-.003 1.31-.002 2.62-.001 3.928-.196.005-.392.001-.588.006-.593-.786-1.161-1.59-1.745-2.383-.106-.13-.167-.312-.336-.373-.01.862-.005 1.726-.003 2.589-.008.054.026.184-.07.164-.192.003-.383 0-.575-.003.001-1.31.002-2.619 0-3.928zM21.194 18.028c.216-.004.433-.003.65 0-.002 1.31-.001 2.62-.001 3.929-.216.003-.432.003-.648 0v-3.929zM10 18.03c.219-.005.437-.007.656 0-.003 1.31.003 2.62-.002 3.929-.218.002-.435 0-.652 0 .003-1.31.007-2.62-.002-3.93zM22.948 18.03c1.029-.006 2.058-.005 3.087-.001.001.165.002.331-.002.497-.4.005-.8 0-1.201.001.002 1.143 0 2.285.001 3.428-.205.004-.41.01-.615.003l-.023-.034c-.009-1.13.006-2.262-.007-3.392-.413-.009-.825 0-1.238-.007-.003-.165-.002-.33-.002-.496z"/></g></g><defs><clipPath id="a"><path fill="#fff" d="M0 0h40v40H0z"/></clipPath></defs></svg>