<svg width="40" height="40" fill="none" xmlns="http://www.w3.org/2000/svg"><path fill-rule="evenodd" clip-rule="evenodd" d="M19.083 20.63c-.274-.548-.575-1.095-.657-1.697-.191-1.095.082-2.217.657-3.148H30.25v4.845h-3.23v12.672h3.23c.466-.055.958-.11 1.369-.328.602-.329 1.095-.876 1.396-1.506.191-.438.219-.903.246-1.396v-9.005H34v9.224c-.055.575-.11 1.177-.383 1.725-.41.766-1.095 1.368-1.861 1.724-.548.246-1.15.246-1.725.246H9.695c-.575-.054-1.15-.11-1.67-.355a3.891 3.891 0 0 1-1.697-1.752c-.246-.52-.273-1.095-.328-1.67V10.037c.055-.602.082-1.204.328-1.752a4.219 4.219 0 0 1 1.834-1.888c.548-.274 1.15-.329 1.752-.383h20.172c.575.054 1.15.082 1.67.355a4.056 4.056 0 0 1 1.806 1.78c.274.52.329 1.122.383 1.697v5.419h-.739v-5.2c-.027-.493-.055-1.013-.274-1.479-.3-.656-.875-1.204-1.532-1.532-.438-.22-.958-.274-1.45-.301H9.913c-.465.054-.93.082-1.369.273a3.743 3.743 0 0 0-1.478 1.369c-.246.41-.3.876-.355 1.341v20.555c.054.438.082.904.273 1.314a3.3 3.3 0 0 0 1.369 1.369c.41.219.876.246 1.314.3h12.508V20.63Z" fill="#fff" style="stroke-width:1.4"/><path fill-rule="evenodd" clip-rule="evenodd" d="M20.535 22.299c.41-.301.766-.657 1.122-1.013v5.639c-1.45.492-2.983.985-4.544.848-2.135-.164-4.215-1.04-5.775-2.49-2.354-2.136-3.421-5.475-2.901-8.568.383-2.463 1.779-4.762 3.832-6.213 2.436-1.779 5.72-2.299 8.567-1.313 2.135.711 4.05 2.19 5.173 4.16.356.63.657 1.341.903 2.025h-5.31c-1.286-1.86-4.023-2.463-5.994-1.396a5.079 5.079 0 0 0-2.08 2.08c-.93 1.78-.602 4.106.766 5.557.657.711 1.506 1.286 2.464 1.45 1.286.165 2.682-.027 3.777-.766z" fill="#fff" style="stroke-width:1.4"/><path fill-rule="evenodd" clip-rule="evenodd" d="M16.756 14.498c-.384.301-.794.603-1.15.958-1.341 1.506-1.369 3.996-.055 5.53.329.382.74.683 1.122.984l-.438.274c-.848-.438-1.67-1.04-2.107-1.943-.958-1.724-.52-4.05.985-5.337.383-.301.821-.52 1.26-.767z" fill="#fff" style="stroke-width:1.4"/><path fill-rule="evenodd" clip-rule="evenodd" d="M17.66 15.018c-.465.52-.93 1.04-1.177 1.697-.328.958-.356 2.026 0 2.984.219.657.684 1.204 1.15 1.724l-.52.301c-.466-.438-.986-.876-1.26-1.478a4.44 4.44 0 0 1 .055-4.105c.301-.575.821-1.04 1.314-1.451z" fill="#fff" style="stroke-width:1.4"/><path fill-rule="evenodd" clip-rule="evenodd" d="M17.988 19.59c.165.437.438.848.657 1.231l-.547.356c-.356-.493-.739-1.013-.93-1.615a4.574 4.574 0 0 1 0-2.71c.191-.602.574-1.122.957-1.614l.52.355c-.355.575-.739 1.15-.82 1.834-.138.712-.11 1.478.163 2.163zM31.51 15.785v4.817h-.712v-4.817zM32.713 15.785v4.872H32v-4.872zM33.973 15.785v4.845l-.739.027v-4.872z" fill="#fff" style="stroke-width:1.4"/></svg>