<svg width="40" height="40" fill="none" xmlns="http://www.w3.org/2000/svg"><mask id="a" mask-type="alpha" maskUnits="userSpaceOnUse" x="10" y="10" width="20" height="20"><path fill="#fff" d="M10 10h20v20H10z"/></mask><g mask="url(#a)" transform="matrix(1.4 0 0 1.4 -7.997 -8)" fill-rule="evenodd" clip-rule="evenodd"><path d="M19.929 10h.124c.722.183 1.44.386 2.16.575l6.54 1.756c.109.029.223.047.319.107a.534.534 0 0 1 .268.43c.006.166-.002.333.003.5-.23.072-.467.12-.698.19-2.303.616-4.604 1.235-6.907 1.851-.39.107-.782.208-1.172.317V28.68c1.283-.338 2.563-.687 3.845-1.028.974-.263 1.949-.522 2.922-.785.268-.065.53-.148.797-.211.275-.082.555-.145.83-.226.127-.035.254-.069.383-.096-.004.259 0 .518-.002.776a.53.53 0 0 1-.242.435c-.1.07-.222.093-.338.123l-7.5 2.013c-.404.105-.805.223-1.212.319h-.104c-.328-.066-.646-.17-.97-.25l-7.95-2.134a.555.555 0 0 1-.388-.527V12.912a.541.541 0 0 1 .255-.463c.098-.067.218-.088.33-.117 2.182-.587 4.364-1.17 6.546-1.758.72-.188 1.438-.392 2.16-.574zm-.064 1.198c-.23.055-.454.126-.684.182-.194.048-.385.108-.579.156-.188.043-.371.106-.56.15-.229.056-.454.127-.683.183-.194.048-.385.109-.58.155-.194.047-.384.108-.578.156-.224.053-.442.124-.665.177-.194.049-.384.11-.579.155-.17.042-.337.094-.506.139l-.054.01c-.104.03-.209.054-.312.086-.221.065-.448.11-.667.183.254.064.507.135.76.203.993.266 1.986.532 2.979.8.247.058.49.138.737.195.36.102.724.194 1.085.294.194.045.385.106.578.155.15.032.295.085.444.113.31-.085.62-.164.93-.251l.05-.01c.175-.047.35-.098.527-.145.141-.032.28-.072.42-.112.468-.124.936-.248 1.403-.378a4.01 4.01 0 0 1 .05-.009c.42-.116.842-.23 1.264-.34.17-.044.337-.096.507-.138.38-.1.759-.203 1.138-.306.09-.024.181-.043.27-.073a4.414 4.414 0 0 0-.343-.096c-.237-.057-.47-.132-.707-.188-.17-.043-.337-.096-.507-.138-.189-.042-.372-.104-.56-.15-.194-.046-.385-.105-.578-.155-.23-.055-.455-.126-.685-.183-.188-.043-.372-.105-.56-.15-.194-.046-.384-.106-.578-.156-.23-.054-.455-.125-.684-.182-.188-.044-.372-.106-.56-.15-.194-.047-.385-.108-.579-.156-.072-.018-.144-.04-.217-.054-.047-.002-.092.018-.137.028zm-8.09 2.474v3.53c.158.04.314.092.473.128.229.057.454.127.683.184.188.044.372.107.56.149.194.048.384.11.579.156.214.052.424.12.639.17.203.05.401.117.606.162.193.05.383.11.577.156.608.163 1.215.328 1.824.488.466.127.933.253 1.4.376.1.025.196.063.3.074v-3.52c-.213-.056-.423-.12-.636-.172-.188-.045-.371-.107-.56-.15-.194-.048-.384-.11-.58-.155-.228-.057-.453-.128-.683-.183-.187-.046-.37-.107-.56-.15-.193-.048-.384-.11-.579-.155-.42-.114-.84-.228-1.262-.339-.188-.046-.371-.107-.56-.15-.74-.202-1.482-.394-2.221-.599zm0 4.72v3.526c.096.03.194.057.293.082.421.11.842.225 1.263.338.188.042.371.105.56.15.194.046.384.106.578.155.23.055.455.126.684.183.189.043.372.106.56.15.194.047.385.107.579.155.229.056.454.127.683.183.189.044.372.107.56.15.194.048.385.108.58.156.228.056.454.126.683.183.188.044.371.106.56.15l.057.017c0-1.178.002-2.356 0-3.534a9.402 9.402 0 0 1-.513-.136c-.457-.12-.913-.243-1.37-.366-.421-.11-.842-.226-1.263-.338-.188-.044-.371-.106-.56-.15-.194-.047-.384-.107-.578-.156-.23-.055-.454-.125-.683-.183-.189-.043-.372-.106-.56-.15-.195-.047-.385-.107-.58-.155-.229-.056-.454-.127-.683-.183-.188-.044-.371-.107-.56-.15l-.29-.076Zm0 4.712v3.533c.268.065.534.142.8.213.188.042.372.103.56.15.194.045.384.105.578.155.23.054.455.125.684.183.189.043.372.105.56.15.194.046.385.106.579.155.229.055.454.125.683.183.189.043.372.106.56.15.194.047.385.107.58.156.229.055.454.126.683.183.188.043.371.106.56.149.194.048.385.108.579.156l.234.06v-3.524a3.482 3.482 0 0 0-.24-.064c-.194-.048-.385-.108-.578-.157-.23-.055-.456-.125-.684-.183-.189-.043-.372-.106-.56-.15-.194-.047-.384-.108-.579-.155-.229-.057-.454-.127-.683-.183-.38-.102-.758-.205-1.138-.306-.194-.047-.385-.107-.579-.156-.229-.055-.454-.126-.683-.182-.188-.046-.372-.107-.56-.15-.194-.048-.384-.11-.579-.156-.229-.056-.454-.128-.683-.183a3.065 3.065 0 0 1-.094-.027Z" fill="#fff"/><path d="M24.95 18.082c1.463-.398 2.93-.784 4.393-1.182-.002.367-.002.734 0 1.1-.006.03.016.085-.028.091-1.455.388-2.91.782-4.365 1.17v-1.179zM27.644 22.07c.568-.147 1.132-.308 1.7-.451-.008.394.003.789-.005 1.183-.144.029-.285.071-.426.11l-3.244.871c-.242.056-.476.138-.719.188v-1.174c.897-.247 1.797-.482 2.694-.727z" fill="#fff"/><path d="M28.645 13.558c.23-.07.468-.118.698-.19.003 1.13 0 2.259.001 3.388.011.681-.002 1.363 0 2.044.001 1.096-.002 2.192.004 3.289-.007 1.415-.001 2.83-.005 4.246a5.75 5.75 0 0 0-.383.095c-.275.081-.555.144-.83.226-.267.063-.53.146-.797.21-.973.264-1.948.523-2.922.786-1.282.34-2.562.69-3.845 1.028V15.726c.39-.11.782-.21 1.172-.317 2.303-.616 4.604-1.235 6.907-1.851zm-3.695 4.525v1.177c1.456-.387 2.91-.781 4.365-1.169.044-.006.022-.062.028-.09a98.5 98.5 0 0 1 0-1.101c-1.463.398-2.93.784-4.393 1.183zm2.694 3.988c-.897.245-1.797.479-2.694.726v1.174c.243-.05.477-.132.718-.188 1.082-.29 2.163-.581 3.245-.87.141-.04.281-.082.425-.11.01-.395-.002-.79.006-1.184-.568.143-1.132.304-1.7.451z" fill="#6cc"/></g></svg>