<svg width="40" height="40" fill="none" xmlns="http://www.w3.org/2000/svg"><g clip-path="url(#a)" transform="matrix(1.4 0 0 1.4 -8 -8)"><mask id="b" mask-type="alpha" maskUnits="userSpaceOnUse" x="10" y="16" width="21" height="8"><path fill="#fff" d="M10 16.35h20v7.301H10z"/></mask><g mask="url(#b)" fill-rule="evenodd" clip-rule="evenodd"><path d="M10.207 23.444h19.587v-5.348H10.207Z" fill="#e6e6e6"/><path d="M11.262 21.262h17.483v-4.706H11.262Z" fill="#ca0237"/><path d="M23.641 17.826c-.257 0-.452.159-.452.43 0 .166.104.312.216.429l-.122.089c-.188.135-.345.27-.345.52 0 .338.274.578.602.578.232 0 .44-.133.589-.307l.213.266h.302l-.351-.435.24-.282-.157-.16-.23.265-.408-.495c.164-.12.357-.268.357-.49 0-.257-.214-.408-.454-.408zm-11.328.02v1.985h.38v-.595h.004l.44.594h.437l-.572-.745.533-.58h-.432l-.406.445h-.003v-1.104zm1.416 0v1.704c0 .174.09.309.328.309.081 0 .179-.014.289-.073l-.048-.284a.477.477 0 0 1-.107.014c-.067 0-.081-.041-.081-.131v-1.54zm3.598 0v1.985h.381v-.595h.003l.44.594h.438l-.572-.745.532-.58h-.431l-.407.445h-.003v-1.104zm-2.457.09a.191.191 0 0 0-.19.193c0 .106.084.193.19.193a.19.19 0 0 0 .188-.193.19.19 0 0 0-.188-.194zm.541 0a.193.193 0 0 0 0 .386.193.193 0 0 0 0-.387zm8.225.082c.13 0 .23.076.23.214 0 .143-.136.224-.235.302l-.031.02-.065-.083c-.057-.072-.117-.145-.117-.244 0-.125.101-.209.218-.209zm-8.51.456c-.2 0-.368.073-.489.196a.72.72 0 0 0-.196.507c0 .21.076.393.213.516a.68.68 0 0 0 .472.166.682.682 0 0 0 .498-.2.697.697 0 0 0 .188-.499.691.691 0 0 0-.176-.487.68.68 0 0 0-.51-.2zm1.569 0a.682.682 0 0 0-.698.698c0 .376.224.687.664.687.188 0 .376-.07.485-.149l-.093-.244a.601.601 0 0 1-.308.09c-.26 0-.37-.196-.37-.401 0-.233.165-.395.375-.395.132 0 .233.036.328.112l.006-.303c-.07-.048-.19-.095-.39-.095zm2.875 0a.748.748 0 0 0-.465.17l-.04-.14h-.322v1.326h.382v-.919a.568.568 0 0 1 .31-.115c.158 0 .186.14.186.266v.769h.378v-.878c0-.362-.224-.48-.429-.48zm1.253 0c-.399 0-.623.325-.623.7 0 .348.196.685.673.685.157 0 .34-.04.504-.152l-.087-.24a.705.705 0 0 1-.356.092c-.176 0-.344-.107-.353-.286h.858v-.115c0-.413-.252-.684-.616-.684zm1.525 0c-.14 0-.244.061-.364.168l-.042-.137h-.32v1.326h.379v-.926c.092-.076.165-.103.244-.103.036 0 .1.008.168.047l.137-.314a.363.363 0 0 0-.202-.061zm3.476 0a.682.682 0 0 0-.698.698c0 .376.224.687.665.687.187 0 .375-.07.484-.149l-.092-.244a.601.601 0 0 1-.309.09c-.26 0-.37-.196-.37-.401 0-.233.166-.395.376-.395.132 0 .233.036.328.112l.006-.303c-.07-.048-.19-.095-.39-.095zm1.232 0c-.199 0-.367.073-.487.196a.719.719 0 0 0-.197.507c0 .21.076.393.213.516a.679.679 0 0 0 .471.166.682.682 0 0 0 .5-.2.697.697 0 0 0 .187-.499.692.692 0 0 0-.176-.487.68.68 0 0 0-.51-.2zm-6.245.277c.163 0 .233.135.241.26h-.48c0-.12.088-.26.24-.26zm-5.691.02c.19 0 .302.16.302.398 0 .227-.092.4-.294.4-.188 0-.3-.162-.3-.4 0-.227.092-.398.292-.398zm11.93 0c.191 0 .304.16.304.398 0 .227-.093.4-.295.4-.188 0-.3-.162-.3-.4 0-.227.093-.398.292-.398zm-3.502.09.435.532c-.123.123-.268.26-.45.26a.381.381 0 0 1-.365-.361c0-.188.221-.32.356-.414z" fill="#fff"/></g></g><defs><clipPath id="a"><path fill="#fff" d="M0 0h40v40H0z"/></clipPath></defs></svg>