<svg width="40" height="40" fill="none" xmlns="http://www.w3.org/2000/svg"><path fill-rule="evenodd" clip-rule="evenodd" d="M32.802 21.494H34v-2.988h-1.198zm-10.05-2.813-.506 1.358h-.049l-.538-1.358c-.05-.132-.11-.175-.282-.175h-1.486v2.988h1.092v-1.81h.055l.699 1.639c.05.123.105.171.25.171h.399c.143 0 .194-.043.249-.171l.698-1.638h.056v1.81h1.124v-2.99h-1.48c-.17 0-.232.044-.281.176zm-6.092 1.754h.83v.022c0 .213-.077.294-.115.324-.033.026-.095.034-.25.034h-.526c-.173 0-.222-.008-.256-.034-.05-.038-.122-.18-.122-.78 0-.603.073-.734.122-.773.034-.026.083-.035.256-.035h.498c.167 0 .216.013.245.035.038.03.11.064.116.303h1.141c-.016-.508-.133-.726-.327-.871-.149-.111-.382-.154-.798-.154h-1.291c-.405 0-.616.056-.765.171-.227.171-.421.5-.421 1.323 0 .824.194 1.153.42 1.323.15.115.361.171.766.171h1.286c.36 0 .615-.051.776-.175.216-.166.388-.418.388-1.14v-.363H16.66Zm14.426-.644c-.033.025-.094.034-.31.034h-.643v-.64h.643c.216 0 .271.008.31.034.056.038.089.107.089.282s-.028.247-.09.29zm1.342-.436c0-.414-.084-.563-.256-.695-.149-.116-.366-.154-.753-.154h-2.478v2.988h1.192V20.47h.582c.244 0 .293.016.349.055.061.043.094.086.105.307.011.257.003.444.003.662h1.224s.004-.452-.008-.743c-.016-.431-.238-.53-.626-.597v-.009c.45-.068.666-.234.666-.79zm-5.199 1.409c-.033.025-.089.034-.255.034h-.494c-.165 0-.221-.009-.254-.034-.04-.03-.105-.106-.105-.764 0-.653.066-.733.105-.764.033-.025.089-.034.254-.034h.494c.166 0 .222.009.255.034.038.03.105.111.105.764s-.067.734-.105.764zm.909-2.087c-.15-.115-.36-.171-.765-.171H26.08c-.404 0-.615.056-.764.171-.228.171-.422.5-.422 1.323 0 .824.194 1.153.422 1.323.149.115.36.171.764.171h1.292c.405 0 .616-.056.765-.171.228-.17.422-.499.422-1.322 0-.824-.194-1.153-.422-1.324zm-15.287.004-.504 1.358h-.05l-.538-1.358c-.05-.132-.11-.175-.282-.175H9.99v2.988h1.092v-1.81h.055l.7 1.639c.049.123.105.171.248.171h.4c.144 0 .193-.043.25-.171l.698-1.638h.055v1.81h1.125v-2.99h-1.48c-.172 0-.232.044-.282.176zm-4.6 2.066c-.066.051-.167.073-.432.073h-.627v-1.64h.627c.271 0 .366.018.432.069.072.06.105.188.105.751s-.039.696-.105.747zm.937-1.989c-.233-.179-.571-.252-1.186-.252H6v2.988h2.002c.615 0 .952-.069 1.186-.248.266-.204.393-.499.393-1.246 0-.746-.127-1.038-.393-1.242z" fill="#fff" style="stroke-width:1.4"/></svg>