<svg width="40" height="40" fill="none" xmlns="http://www.w3.org/2000/svg"><mask id="a" mask-type="alpha" maskUnits="userSpaceOnUse" x="10" y="10" width="20" height="20"><path fill="#fff" d="M10 10.037h20v19.926H10z"/></mask><g mask="url(#a)" transform="matrix(1.4 0 0 1.4 -8 -8)" fill-rule="evenodd" clip-rule="evenodd" fill="#fff"><path d="M10.154 29.81h19.692V10.19H10.154v19.62Zm19.77.153H10V10.037h20v19.926h-.077z"/><path d="M12.953 13.986a2.352 2.352 0 0 1-.448-.159c-.028-.014-.043 0-.057 0-.145.303-.607.404-1.069.433-.072 0-.058.073-.014.087.332.173.75.087.823.173v.058c-.39.376-.766.765-1.112 1.184-.029.043.058.058.101.058.159-.058.318-.13.462-.231.116-.087.274-.303.347-.159.043.246-.044.736.245.967 0-1.17.996-2.8 2.137-1.4.26-.173.477-.39.65-.635-1.4-1.127.23-2.138 1.4-2.138-.216-.274-.721-.202-.967-.245-.144-.072.072-.231.159-.347a5.84 5.84 0 0 0 .202-.433c.015-.043 0-.13-.058-.1-.375.389-.837.678-1.17 1.11h-.057c-.087-.071 0-.49-.173-.822-.015-.029-.044-.029-.073-.015-.014.015-.028.03-.028.044-.015.462-.13.924-.42 1.068-.014 0-.028.015-.014.058.13.303.29.736.073.78-.477.086-.78-.607-.795-1.098-.014-.476.275-.678.145-1.184 0-.014-.015-.014-.03 0-.302.42-.461.664-.692.982a5.7 5.7 0 0 0-1.805-1.3c.318.68.75 1.3 1.3 1.806-.304.245-.52.332-.94.678-.028.015 0 .058.03.058.447.087.664-.173 1.126-.144.462.029 1.17.303 1.097.794-.057.1-.187.115-.375.072zM25.76 15.04c1.127-1.4 2.138.231 2.123 1.4.275-.216.203-.721.246-.967.072-.144.231.072.347.159.144.087.303.159.462.231.043 0 .13 0 .1-.058-.39-.36-.678-.837-1.111-1.184a.044.044 0 0 1 0-.058c.058-.086.49 0 .823-.173.043-.014.043-.087-.015-.101-.462-.014-.924-.13-1.068-.419 0-.014-.015-.029-.058-.014-.303.13-.736.289-.78.072-.086-.476.607-.78 1.098-.794.476-.015.678.274 1.184.144.014 0 .014-.014 0-.029-.419-.303-.664-.462-.982-.693a5.98 5.98 0 0 0 1.314-1.805c-.679.318-1.3.751-1.805 1.3-.245-.303-.332-.52-.679-.939-.014-.028-.057 0-.072.03-.087.432.173.663.145 1.126-.015.476-.304 1.17-.795 1.083-.216-.03-.057-.463.073-.78v-.058c-.304-.144-.405-.606-.42-1.069 0-.028-.014-.057-.042-.057-.03 0-.044.014-.058.029-.173.332-.087.75-.173.823a.044.044 0 0 1-.058 0c-.347-.448-.809-.737-1.184-1.112-.044-.03-.058.058-.058.1.058.16.144.319.23.463.087.115.304.274.16.346-.246.044-.737-.043-.968.232 1.17 0 2.801.996 1.4 2.137.174.26.39.476.636.65l-.014-.015ZM25.112 25.71c1.4 1.127-.231 2.138-1.401 2.124.217.274.722.202.967.23.145.073-.072.232-.158.347a2.696 2.696 0 0 0-.217.462c-.014.043 0 .13.043.101.376-.375.838-.678 1.184-1.112h.058c.087.073 0 .491.173.823.015.03.044.03.073.015.014-.015.029-.029.029-.043.014-.462.13-.925.418-1.069.015 0 .03-.014.015-.058-.13-.303-.29-.736-.072-.78.476-.086.78.607.794 1.084.014.476-.275.678-.145 1.184 0 .014.015.014.03 0 .302-.42.461-.665.692-.982a5.7 5.7 0 0 0 1.805 1.3 5.765 5.765 0 0 0-1.3-1.806c.304-.245.52-.332.94-.678.028-.015 0-.058-.03-.058-.447-.087-.664.159-1.126.144-.476-.014-1.17-.303-1.097-.794.043-.216.462-.058.78.072.028 0 .043 0 .057-.014.145-.303.607-.404 1.069-.419.029 0 .043-.029.043-.058 0-.014-.014-.029-.029-.043-.332-.173-.75-.087-.823-.173v-.058c.448-.347.736-.809 1.112-1.184.029-.043-.058-.058-.101-.043a2.7 2.7 0 0 0-.462.216c-.116.087-.275.303-.347.159-.043-.245.044-.736-.23-.967 0 1.17-.997 2.786-2.124 1.4a2.76 2.76 0 0 0-.62.679zM14.455 24.989c-1.126 1.4-2.137-.231-2.122-1.4-.275.23-.203.721-.232.967-.072.144-.23-.072-.346-.16a4.598 4.598 0 0 0-.462-.23c-.043 0-.13 0-.101.058.375.375.678.837 1.112 1.184.014.014.014.043 0 .058-.073.086-.491 0-.823.173-.044.014-.044.086.014.1.462.015.924.13 1.069.42 0 .014.014.029.057.014.304-.13.737-.289.78-.072.087.476-.606.78-1.083.794-.476.014-.679-.274-1.184-.144-.014 0-.014.014 0 .014.419.303.664.462.982.693a5.936 5.936 0 0 0-1.3 1.805 5.936 5.936 0 0 0 1.805-1.3c.246.304.332.52.679.94.014.028.058 0 .058-.03.086-.433-.174-.664-.145-1.126.03-.462.304-1.17.795-1.083.216.029.057.462-.073.78-.014.029 0 .043.015.058.303.144.404.606.419 1.068 0 .029.028.043.057.043.015 0 .03-.014.044-.029.173-.332.086-.75.173-.823a.044.044 0 0 1 .058 0c.346.434.823.737 1.184 1.112.043.03.057-.058.043-.1a2.757 2.757 0 0 0-.231-.463c-.087-.115-.303-.274-.159-.347.246-.043.737.044.968-.23-1.17 0-2.802-.997-1.401-2.123a3.31 3.31 0 0 0-.65-.621zM23.783 16.238c.145-.678.116-.563.275-.808.1-.087.303-.405.606-.52 0 .303-.072.375-.274.708a1.57 1.57 0 0 1-.607.62zM21.718 14.881c.029-.375.086-.75.173-1.126a.542.542 0 0 1 .231-.275c.116 0 .087.333.072.607a1.807 1.807 0 0 1-.476.794zM23.913 17.726c-.144-.101.217-.477.404-.635.29-.188.592-.362.925-.477.375-.188.433-.246 1.126-.549 0 .26-.318.563-.563.794a3.02 3.02 0 0 1-.924.607c-.708.26-.78.303-.997.245l.03.015zM25.053 18.924c.101-.13.304-.086.462-.159.275-.13.506-.39.81-.447a1.8 1.8 0 0 1 1.068.058c-.304.288-.665.52-1.054.65a2.01 2.01 0 0 1-1.127.115s0-.043-.043-.072c-.043-.03-.13-.101-.116-.145zM25.43 21.278c.26.014.52.072.765.173.274.03.563-.029.837 0 .159.087.289.217.404.361-.26.015-.52-.014-.78-.1-.173-.015-.303 0-.534 0a2.731 2.731 0 0 1-.707-.362c-.015 0-.015-.072.014-.072zM24.346 22.332c.087 0 .144.116.231.144.144.03.303-.028.448 0 .23.044.462.116.678.231.26.203.462.477.578.795.043.1-.217 0-.303-.044-.203-.086-.347-.274-.535-.36a1.958 1.958 0 0 0-.635-.16.872.872 0 0 1-.549-.404c-.058-.072.015-.187.087-.202zM22.555 24.166c.29.217.564.448.824.693.057.058.086.13.1.202.058.217.087.462.073.693-.145 0-.303-.26-.433-.418a5.663 5.663 0 0 1-.491-.982c-.03-.044-.087-.073-.101-.116-.03-.043 0-.086.028-.072zM21.516 24.902c.231.26.405.549.52.867a.793.793 0 0 1-.144.534c-.015.043-.073-.043-.073-.087-.014-.144.03-.303 0-.433-.028-.13-.144-.217-.187-.318a2.543 2.543 0 0 1-.145-.433c0-.058 0-.173.03-.13zM20.303 24.541c.115.188.188.39.188.607a9.635 9.635 0 0 1-.361 1.675c-.015.058-.073.1-.13.115a.109.109 0 0 1-.101-.072 4.256 4.256 0 0 1-.101-1.126c.057-.419.187-.823.36-1.199.03-.029.13-.029.145 0zM17.025 24.715c.187-.174.202-.477.505-.563.058.274-.144.577-.274.851a1.58 1.58 0 0 1-.838.751c-.058.03-.202.073-.187 0 .043-.23.144-.447.288-.635.13-.173.361-.26.506-.404zM15.812 22.202a1.504 1.504 0 0 0-.939.376c-.289.26-.563.52-.837.794-.015.014-.044.072 0 .086a.108.108 0 0 0 .13 0c.317-.173.62-.346.924-.548.26-.174.49-.376.722-.592.014-.015.029-.116 0-.116zM12.953 20.152c.188-.16.419-.275.664-.303.289-.03.563.144.838.158.245 0 .505-.029.736-.086a1.132 1.132 0 0 1-.318.375 1.035 1.035 0 0 1-.476.072c-.202 0-.404-.014-.607-.058-.187-.028-.375-.1-.577-.144-.087-.014-.347.043-.26-.014zM13.185 17.827c.346.014.693.072 1.025.159.563.1 1.112.26 1.66.433.13.058.246.159.304.289.029.043-.044.1-.101.1h-1.271a2.386 2.386 0 0 1-.924-.39 4.452 4.452 0 0 1-.693-.461c-.03-.029-.044-.13 0-.13zM14.628 15.92a.445.445 0 0 1 .303.059c.333.216.636.476.925.75.029.015.043.087 0 .102a.247.247 0 0 1-.203 0 1.756 1.756 0 0 1-.678-.188 1.573 1.573 0 0 1-.39-.578c-.029-.043 0-.1.043-.144zM19.263 13.538a.654.654 0 0 0-.347.433.984.984 0 0 0 0 .578c.13.39.275.78.434 1.155.028.087 0 .318.086.275.087-.044.159-.26.159-.39a9.744 9.744 0 0 0-.144-.939c.014-.13 0-.26-.015-.39a2.934 2.934 0 0 1-.173-.722zM23.003 20.902c.043-.072.1-.115.188-.115.23.043.462.116.678.217.116.028.231.072.347.13.216.13.404.332.635.447.332.173.693.274 1.04.433.274.13.534.275.794.42.144.071.289.158.419.273.014.015-.015.073-.058.073-.188 0-.376-.073-.563-.087-.188-.014-.376 0-.563-.043a7.821 7.821 0 0 1-.997-.275c-.274-.086-.548-.216-.823-.332a13.342 13.342 0 0 1-.794-.36l-.173-.13a1.01 1.01 0 0 1-.246-.188c-.014-.03 0-.087.044-.116a.14.14 0 0 1 .13-.014.672.672 0 0 1 .144.072c.202.087.404.159.606.217.044 0 .174 0 .145-.03-.231-.144-.506-.23-.766-.36a.342.342 0 0 1-.13-.116c-.028-.043-.072-.087-.043-.13l-.014.014zM22.96 18.636a.353.353 0 0 1 .144-.361 6.74 6.74 0 0 1 1.473-.564c.26-.086.563-.13.852-.216.216-.087.418-.144.635-.202a1.527 1.527 0 0 1 1.097.159 4.65 4.65 0 0 0-1.588.505c-.448.217-.837.549-1.27.78a2.66 2.66 0 0 1-.795.303.561.561 0 0 1-.375-.087c-.043-.029.014-.1.058-.115.288-.174.606-.26.895-.448.043-.029-.058-.101-.101-.087-.275.087-.477.304-.751.39-.101.044-.246.03-.275-.058zM23.205 19.285c-.029.058-.015.116.043.145.376.115.765-.058 1.14.202-.49.072-.692 0-1.024.043-.044 0-.101.058-.087.101a.293.293 0 0 0 .173.174c.29.086.578.13.881.144.505.029 1.025 0 1.53-.072.593-.116 1.185-.26 1.762-.448.015 0 .015-.058 0-.072a1.2 1.2 0 0 0-.303-.087c-.505-.029-1.025.044-1.53 0-.506-.043-.925-.173-1.387-.23a4.623 4.623 0 0 0-.895-.015.413.413 0 0 0-.303.115zM23.248 20.21c0-.044.058-.087.116-.102.101-.014.202-.014.303 0 .78.015 1.56.073 2.325.188.462.144.91.347 1.314.607.029 0 0 .057-.043.072-.03.029-.073.029-.116.029-.159 0-.303-.073-.462-.087-.563-.029-1.112-.014-1.675 0a7.852 7.852 0 0 1-.823.043 3.552 3.552 0 0 1-.737-.216c-.086-.03-.202-.058-.26-.13-.057-.087.058-.101.102-.116.043-.014.1 0 .144 0 .231.03.462.072.708.087.014 0 .014-.043 0-.058a.68.68 0 0 0-.246-.058 3.376 3.376 0 0 1-.548-.13.139.139 0 0 1-.102-.13zM22.67 21.711c0-.072.044-.13.102-.159.043-.029.1 0 .144.015.116.057.231.13.332.216.231.188.448.39.664.607.304.332.564.722.838 1.083.216.274.447.52.635.808.015.03 0 .087-.043.101a.109.109 0 0 1-.13 0 10.055 10.055 0 0 1-.838-.52 6.719 6.719 0 0 1-.707-.563c-.274-.26-.534-.534-.794-.808a4.8 4.8 0 0 1-.376-.39c-.029-.029-.029-.087 0-.116a.154.154 0 0 1 .174-.028c.23.13.404.346.635.49.014 0 .072-.043.058-.057a2.377 2.377 0 0 0-.361-.304c-.072-.072-.16-.13-.217-.202a.3.3 0 0 1-.087-.144zM22.064 22.289c0-.058.087-.116.145-.13.086 0 .187.029.26.087.332.346.65.722.938 1.111.289.347.563.708.794 1.098.145.274.246.577.29.88 0 .044-.102.087-.13.044-.232-.202-.39-.477-.607-.693a15.118 15.118 0 0 0-.722-.636c-.26-.202-.491-.418-.722-.635a3.372 3.372 0 0 1-.477-.708.214.214 0 0 1 0-.187c.015-.044.087-.116.13-.087.274.202.462.505.722.722.015.014.101 0 .087 0-.174-.217-.376-.404-.563-.606-.058-.073-.145-.145-.145-.231zM21.501 22.62c-.072.044-.1.116-.1.203.072.303.26.549.346.837 0 .03-.087.03-.101 0-.145-.245-.217-.505-.347-.75a.109.109 0 0 0-.1-.073c-.044 0-.13.044-.116.101.029.217.159.405.216.607.03.101-.029.216 0 .303.188.433.39.852.607 1.27.274.52.548 1.04.866 1.532.015.028.058-.058.058-.087a6.282 6.282 0 0 0 0-.737 2.995 2.995 0 0 0-.116-.606c-.1-.361-.23-.722-.36-1.083-.102-.303-.203-.606-.333-.924a2.182 2.182 0 0 0-.216-.404.706.706 0 0 0-.174-.188c-.014-.03-.072-.03-.13 0zM20.607 23.068a.2.2 0 0 1 .1-.173.155.155 0 0 1 .16.015c.115.115.187.274.23.418.101.332.16.665.188 1.011.043.477.058.968.043 1.444a4.897 4.897 0 0 1-.187 1.04c0 .029-.072 0-.087-.03-.115-.346-.188-.692-.303-1.053-.116-.433-.246-.852-.361-1.285a6.559 6.559 0 0 1-.13-.737 3.746 3.746 0 0 1-.058-.693c.015-.058.058-.087.116-.101.057 0 .115.029.144.087.116.303.159.635.274.938 0 .03.116.043.101 0-.057-.303-.216-.606-.26-.924zM19.61 22.91a.137.137 0 0 0-.144.058c-.087.173-.13.36-.174.563-.029.144 0 .288-.029.418 0 .087-.086.145-.086.231-.058.491-.03.997-.087 1.502-.043.361-.144.708-.188 1.054 0 .044.015.087.058.101a.092.092 0 0 0 .087 0c.173-.202.317-.418.433-.664.101-.26.188-.534.26-.794.072-.231.159-.448.216-.679a8.82 8.82 0 0 0 .203-1.04 1.662 1.662 0 0 0 0-.534.448.448 0 0 0-.087-.187c-.029-.03-.058-.044-.087-.03a.263.263 0 0 0-.144.16c-.029.173-.029.346-.043.52 0 .057 0 .13-.058.158-.058.029-.015-.072-.015-.115.03-.174.03-.332.03-.506-.044-.086-.087-.173-.145-.216zM18.758 22.65c.072-.03.202.014.202.086a4.87 4.87 0 0 1-.245.867v.086c.116-.26.173-.548.303-.794.03-.072.101-.115.173-.13.058 0 .102.058.116.116.014.058-.029.1-.029.144a.968.968 0 0 1-.115.534c-.044.087 0 .203-.015.304-.014.1-.1.13-.144.202-.03.072 0 .115 0 .159-.101.26-.246.49-.361.736-.015.043-.043.072-.058.116a4.212 4.212 0 0 1-1.01 1.3.124.124 0 0 1-.102 0c-.014-.015-.029-.03-.029-.059.116-.462.275-.924.39-1.371.058-.246.101-.491.159-.722.043-.145.101-.275.159-.405.058-.144.115-.332.188-.505.057-.13.13-.26.202-.376.072-.1.115-.245.23-.288zM15.379 25.003c.26-.332.548-.65.866-.953.245-.303.52-.592.823-.837.202-.159.346-.376.52-.563.144-.16.318-.318.49-.448.044-.014.073 0 .102.029.029.043.043.087.014.13-.158.245-.39.462-.563.707 0 .03.072.044.087.015.202-.26.419-.491.678-.679a.124.124 0 0 1 .102 0c.043.015.072.058.086.087a.124.124 0 0 1 0 .101 5.873 5.873 0 0 1-.52.664c-.26.26-.52.506-.794.737a7.69 7.69 0 0 1-.678.52 3.903 3.903 0 0 1-.535.303 1.755 1.755 0 0 1-.476.202c-.058.043-.246.043-.202-.015zM17.43 21.523c.072-.028.144 0 .202.044a.116.116 0 0 1 .043.13c-.188.26-.447.447-.635.693 0 .014.029.072.043.058.217-.16.39-.376.592-.55a.394.394 0 0 1 .173-.086c.044 0 .087.03.102.072a.283.283 0 0 1-.015.188.923.923 0 0 1-.188.217c-.187.187-.39.36-.592.534-.26.245-.534.462-.837.664a3.603 3.603 0 0 1-.924.433c-.26.073-.534.101-.823.101-.03 0-.044-.057-.03-.072.347-.245.737-.404 1.084-.678a7.37 7.37 0 0 0 .65-.693c.202-.217.375-.448.592-.636.187-.144.375-.289.563-.419zM13.574 22.549c.245-.16.49-.304.75-.434a11.06 11.06 0 0 1 1.07-.765 9.698 9.698 0 0 1 1.573-.563.378.378 0 0 1 .304.058c.028.014 0 .086-.015.115a.367.367 0 0 1-.173.16c-.188.057-.376.129-.563.216-.044.029.1.072.144.057.202-.043.361-.187.563-.23.087-.015.217 0 .26.072.043.072-.043.173-.115.216a3.9 3.9 0 0 1-.881.361c-.145.043-.433 0-.636.072-.433.145-.78.347-1.27.535a4.74 4.74 0 0 1-.881.26c-.058 0-.173-.087-.13-.13zM13.329 21.076c.274-.159.548-.303.837-.419.347-.144.722-.245 1.083-.346.361-.102.794-.217 1.199-.304.13-.014.26-.014.39 0 .072-.014.13-.014.202-.014.057 0 .144.029.159.086.014.058-.044.13-.102.16a1.918 1.918 0 0 1-.49.144c-.203.057-.42.072-.607.144-.029 0-.014.087 0 .072.245-.029.476-.115.722-.159.101-.028.202-.028.303-.043a.22.22 0 0 1 .188.043c.029.03 0 .102-.029.116a.756.756 0 0 1-.274.159c-.217.072-.448.1-.665.144-.404.101-.808.217-1.227.303a5.081 5.081 0 0 1-.809.058c-.288 0-.563 0-.851-.014-.03 0-.058-.03-.073-.044 0-.028-.029-.086 0-.1zM13.343 19.17c-.029-.116.217-.13.332-.145.361-.057.722-.1 1.098-.115.317 0 .62.014.938.043.332.03.679.043 1.011.101.144.015.274.072.404.145.058.043.101.1.087.173a.139.139 0 0 1-.13.101c-.217.014-.433 0-.65-.029-.072 0-.13-.058-.187-.058-.073 0-.03.058 0 .058.332.043.65.116.967.202.072.03-.058.16-.115.174a.97.97 0 0 1-.405.043 8.917 8.917 0 0 1-1.068-.101c-.361-.058-.722-.173-1.083-.26-.26-.058-.52-.116-.78-.202-.159-.015-.39.014-.419-.13zM14.282 16.715c-.015-.029.043-.101.086-.087.332.145.65.304.968.491.216.13.418.29.635.42.274.158.549.302.823.461.245.13.491.289.722.462a.131.131 0 0 1 0 .145c-.043.043-.101.057-.159.043-.245-.087-.447-.26-.693-.332-.029 0-.043.072 0 .1.275.145.534.29.78.463.043.043-.043.115-.101.144a.32.32 0 0 1-.231 0 3.285 3.285 0 0 1-.679-.332 7.788 7.788 0 0 1-.78-.577 13.372 13.372 0 0 1-.823-.722 4.03 4.03 0 0 1-.548-.679zM15.148 15.155c.274.16.534.333.78.52.23.188.447.39.663.592.304.304.636.607.939.924.159.16.289.333.404.52.015.058 0 .101-.043.145-.043.029-.101.029-.159 0-.23-.16-.39-.405-.606-.563-.044-.03-.03.1 0 .144.173.217.447.36.606.592a.196.196 0 0 1-.029.231c-.043.043-.13.029-.187 0a1.016 1.016 0 0 1-.275-.231c-.332-.346-.678-.693-.982-1.069-.317-.39-.606-.794-.866-1.227a2.172 2.172 0 0 1-.231-.49c0-.03-.014-.13 0-.116zM16.23 14.174c.16.1.304.216.42.375.332.534.577 1.126.88 1.675.015.029.072.087.087.058.014-.029-.014-.101-.043-.144-.145-.304-.332-.607-.462-.925a10.627 10.627 0 0 1-.304-.88c0-.044-.057-.116 0-.145a.177.177 0 0 1 .188.029c.217.274.404.578.578.88.202.304.39.622.548.94.188.39.332.808.434 1.227 0 .058-.073.086-.116.1-.043.015-.087 0-.101-.043-.159-.187-.26-.433-.433-.606-.03-.029-.072.058-.058.087.144.26.404.447.52.707.029.058-.072.13-.145.145-.072.029-.144.014-.187-.03-.202-.201-.332-.461-.506-.692-.086-.101-.187-.188-.274-.304a7.145 7.145 0 0 1-.433-.707 9.765 9.765 0 0 1-.419-.968 5.204 5.204 0 0 1-.231-.606.296.296 0 0 1 0-.159c0-.014.029-.014.058-.014zM17.805 13.466c0 .419.043.838.144 1.242.13.664.303 1.328.52 1.964.058.216.188.419.36.563.073.043.203-.087.203-.173 0-.203-.144-.361-.202-.55-.043-.187-.217-.461-.13-.649.188.202.159.433.245.635.058.174.13.333.217.491.014.03.087.03.116 0 .043-.028.144-.057.13-.115a5.099 5.099 0 0 0-.203-.809 16.39 16.39 0 0 0-.332-.895c-.115-.289-.216-.549-.346-.809a5.413 5.413 0 0 0-.52-.88c-.058-.058-.202-.087-.202-.015zM19.58 14.535c.088-.506.088-1.184.405-1.488.246.376.231.925.289 1.401.029.289.029.578 0 .852-.029.462-.072.939-.144 1.386-.015.044-.044.087-.102.101a.159.159 0 0 1-.144-.086 16.243 16.243 0 0 1-.274-1.459 3.758 3.758 0 0 1-.03-.707zM20.794 15.502c0-.014.072 0 .072.015 0 .274-.043.563-.072.837 0 .072-.058.144-.043.217.029.115.029.346.144.332.116-.015.159-.246.202-.376.072-.245.116-.505.145-.765.043-.303.072-.607.072-.924.014-.419 0-.838-.015-1.256a2.16 2.16 0 0 0-.115-.679c0-.043-.116-.043-.13 0-.13.303-.231.606-.303.924-.073.26-.13.52-.174.78-.072.346-.13.693-.173 1.04-.014.144-.014.303-.029.433a3.297 3.297 0 0 0-.058.65c0 .057.058.144.116.13a.303.303 0 0 0 .188-.188c.086-.376.086-.78.173-1.17zM23.061 13.322a5.697 5.697 0 0 0-.448.693c-.173.26-.36.505-.52.78a9.902 9.902 0 0 0-.635 1.068c-.115.26-.202.549-.26.823a1.282 1.282 0 0 0 0 .332c0 .03.044.058.058.043a.945.945 0 0 0 .217-.26c.057-.115.043-.26.1-.375.044-.115.087-.36.232-.39.144-.014 0 .246-.044.361-.057.231-.187.433-.216.679 0 .058.043.115.101.13.058 0 .101-.015.13-.058.159-.26.274-.563.404-.838.174-.36.361-.721.52-1.097.13-.303.231-.62.303-.953.101-.289.13-.606.101-.924zM21.848 17.35c0 .015.029.044.043.058.014.015.144.043.173 0 .246-.303.39-.693.607-1.01.014-.03.043.057.029.086-.145.332-.361.635-.506.968-.014.043 0 .1.03.144.028.029.086.043.115.029a2.36 2.36 0 0 0 .303-.361c.23-.274.433-.563.62-.866.217-.405.405-.824.564-1.257.159-.39.289-.78.375-1.198 0-.044-.1-.058-.144-.03-.303.362-.534.795-.823 1.17-.289.376-.607.723-.88 1.127a7.87 7.87 0 0 0-.463.924c0 .058-.029.13-.043.216zM25.703 15.43c.014-.029-.043-.058-.072-.058a1.3 1.3 0 0 0-.462.13c-.347.202-.65.476-.968.708-.375.274-.765.52-1.126.823-.202.187-.39.39-.549.606a.266.266 0 0 0-.072.173.165.165 0 0 0 .101.116c.072.029.145.014.217-.029.216-.188.36-.448.563-.635.029-.03.087-.044.13-.044.029 0 0 .058 0 .087-.188.246-.419.448-.607.679-.043.058-.1.1-.1.173 0 .058.043.101.1.101a.453.453 0 0 0 .304-.101c.245-.188.462-.39.664-.606.159-.188.274-.405.419-.607.216-.274.462-.52.693-.78.13-.144.245-.289.39-.418.144-.13.303-.188.404-.318zM20.39 17.552c.057 0 .1-.028.1-.072 0-.043-.043-.072-.1-.072-.059 0-.102.029-.102.072 0 .044.043.072.101.072zM20.693 17.538a.099.099 0 0 0 .101-.101.099.099 0 0 0-.101-.101.099.099 0 0 0-.101.101c0 .072.043.101.1.101zM20.549 17.711c.043 0 .072-.028.072-.072 0-.043-.029-.072-.072-.072-.044 0-.072.029-.072.072-.015.044.028.072.072.072zM20.36 17.9a.093.093 0 0 0 .087-.087c0-.044-.044-.087-.087-.087a.093.093 0 0 0-.087.087c0 .057.044.086.087.086zM20.346 18.274c.058 0 .101-.028.101-.086 0-.058-.043-.087-.1-.087-.059 0-.102.03-.102.087.015.058.058.087.101.087zM20.187 18.404c.043 0 .087-.028.087-.057 0-.03-.043-.058-.087-.058-.043 0-.086.029-.086.058s.043.057.086.057zM20 17.899c.043.015.086-.014.086-.058.015-.043-.014-.086-.057-.086h-.03c-.043-.015-.086.014-.086.057 0 .044.014.087.058.087H20zM20.173 17.35c.03 0 .044-.014.044-.043 0-.014-.015-.043-.044-.043-.014 0-.043.014-.043.043.014.015.029.043.043.043zM20.49 17.38c.015 0 .03-.015.03-.044 0-.014 0-.043-.03-.043-.028 0-.028.014-.028.043 0 .014.014.029.029.043zM20.014 18.578c.043 0 .087-.03.101-.087 0-.043-.058-.087-.1-.087a.109.109 0 0 0-.102.073c.014.072.058.115.101.1zM19.48 18.072c.043.015.072-.014.087-.057.014-.044-.015-.073-.058-.087h-.029c-.043-.015-.072.014-.087.058-.014.043.015.072.058.086h.029zM19.336 18.26c.043 0 .072-.043.072-.087 0-.043-.043-.072-.087-.072-.043 0-.072.044-.072.072 0 .058.043.102.087.087zM19.495 18.419c.043-.015.058-.043.043-.087-.015-.043-.043-.058-.087-.043-.029 0-.057.029-.057.058.029.043.057.072.1.072zM19.668 18.592c.043 0 .072-.029.086-.072v-.014c0-.044-.043-.073-.086-.073-.044 0-.072.03-.087.073.014.043.043.086.087.086 0-.014 0-.014 0 0zM18.989 18.26c.058 0 .087-.029.087-.058s-.044-.072-.087-.072c-.058 0-.087.029-.087.072 0 .044.03.058.087.058zM19.162 18.419c.043 0 .087-.029.087-.058-.015-.043-.058-.072-.101-.058a.113.113 0 0 0-.058.058c0 .029.029.058.072.058zM19.321 18.578c.029.014.058 0 .072-.043.015-.03 0-.058-.043-.073h-.043c-.044 0-.073.03-.073.058 0 .029.044.058.087.058zM19.509 18.765c.043 0 .072-.014.072-.043 0-.029-.029-.058-.072-.058-.044 0-.072.015-.072.058 0 .03.028.043.072.043zM19.003 18.592c.043 0 .072-.029.072-.072s-.029-.072-.072-.072-.072.029-.072.072.029.072.072.072zM19.162 18.78c.043 0 .087-.029.087-.087-.015-.043-.058-.086-.102-.072-.043 0-.072.043-.072.072 0 .044.044.087.087.087zM19.35 18.939c.058 0 .115-.043.115-.087-.014-.058-.057-.087-.115-.087s-.101.03-.116.087c0 .058.044.087.116.087zM19.003 19.285c.058 0 .101-.029.101-.072s-.043-.072-.1-.072c-.058 0-.102.029-.102.072s.044.072.101.072zM19.335 17.596c.044 0 .087-.043.087-.087a.093.093 0 0 0-.087-.086.093.093 0 0 0-.086.086c-.014.044.029.087.087.087z"/><path d="M18.888 17.812c-.015.015-.015.044 0 .073a.112.112 0 0 0 .058.057c.028.015.057.015.072 0 .057-.043.086-.144.159-.158.072-.015.057.072.028.1-.014.03-.13.073-.158.13-.03.058.014.073.043.102.029.028.058.043.072.028.13-.1.217-.245.332-.346.015-.014.044-.029.072-.014 0 0 .044.014.044.043 0 .029-.044.014-.044.043 0 .015.044.029.058.043.015.015 0 .03 0 .03a.123.123 0 0 0 .101 0c.13-.102.202-.246.332-.347.03-.015.073 0 .087.043.014.043 0 .058 0 .072 0 .015.072.015.087 0a.159.159 0 0 0 0-.115c0-.015-.044 0-.058 0-.015 0-.029 0-.029-.03 0-.028.058-.028.058-.042-.015-.044-.058-.073-.101-.087-.058-.015-.116-.015-.16.029-.1.1-.201.202-.288.303 0 0-.043 0-.043-.029s.043-.043.029-.058a.224.224 0 0 0-.116-.086c-.029 0-.058 0-.086.029-.015.014 0 .072 0 .086a.14.14 0 0 1-.13.015c-.03 0 0-.044 0-.073l-.044-.043c-.043-.014-.072 0-.1.015a.578.578 0 0 0-.203.216z"/><path d="M19.567 17.422a5.38 5.38 0 0 1 .23-.144c.03-.014.073-.014.116 0 .014.015.029.072 0 .087a.3.3 0 0 0-.159.188c0 .028-.029.043-.043.043-.043 0-.087 0-.116-.029-.014-.029-.028-.058-.028-.087-.015-.014-.015-.058 0-.058zM19.61 18.231a.124.124 0 0 1 0-.1.994.994 0 0 1 .188-.16.123.123 0 0 1 .1 0c.015 0 .044.044.03.058-.015.015-.13.058-.13.116 0 .057.13.1.159.158.014.044 0 .087-.044.102a.131.131 0 0 1-.144 0 .498.498 0 0 1-.173-.174zM20.607 17.798c.072-.087.158-.173.245-.245.043-.03.159.057.13.1-.029.044-.144.145-.202.232-.015.028-.087.014-.116 0-.029-.015-.086-.073-.058-.087z"/><path d="M19.913 18.145c.072-.087.159-.174.231-.275.015-.029.087 0 .116.03.028.028.086.1.043.129a1.752 1.752 0 0 0-.231.231c-.015.029-.072 0-.101 0-.03 0-.072-.072-.058-.115zM19.09 19.098a.112.112 0 0 1 .029-.116c.028-.014.072 0 .1.014.03.015.073.087.116.087.043-.014.043-.115.101-.144a.112.112 0 0 1 .116.029c.029.028.043.072.029.1a.639.639 0 0 1-.174.217.124.124 0 0 1-.1 0c-.044-.029-.044-.086-.073-.13-.029-.029-.115-.029-.144-.057zM21.256 18.029c.043 0 .072-.043.057-.087-.014-.043-.043-.072-.086-.057-.044 0-.058.043-.058.072 0 .029.043.072.087.072zM22.844 19.892c.058 0 .101-.03.101-.072 0-.044-.043-.073-.1-.073-.058 0-.102.03-.102.073s.044.072.101.072zM21.097 20.282c.044 0 .087-.03.087-.073-.014-.043-.058-.086-.101-.072-.029 0-.058.029-.072.072 0 .03.043.073.086.073zM20.924 20.44c.043 0 .086-.028.086-.057 0-.03-.029-.058-.087-.058-.028-.014-.072.014-.086.043-.015.03.014.072.043.087.015-.015.029-.015.043-.015zM21.112 20.614c.072 0 .115-.044.115-.087s-.058-.087-.115-.087c-.073 0-.116.044-.116.087s.058.087.116.087zM20.953 20.816c.058-.015.087-.058.087-.116a.13.13 0 0 0-.087-.086c-.058.014-.087.057-.087.115a.13.13 0 0 0 .087.087zM20.794 20.657c.043.014.087-.014.101-.072.014-.043-.015-.087-.072-.101h-.03a.108.108 0 0 0-.071.1c0 .044.029.059.072.073zM20.606 20.816c.043 0 .087-.029.087-.087a.093.093 0 0 0-.087-.086.093.093 0 0 0-.087.086c.015.044.044.087.087.087zM21.125 20.96c.058 0 .102-.029.102-.086 0-.058-.058-.087-.102-.087-.057 0-.1.029-.1.087.014.043.057.086.1.086zM19.927 21.177c.043 0 .087-.029.087-.072 0-.044-.043-.058-.087-.058-.043 0-.1.029-.1.058 0 .043.042.072.1.072zM22.526 19.314a.238.238 0 0 1 .174-.159c.043 0 .072.058.086.101.015.044-.058.073-.029.102.03.028.116 0 .145.043a.07.07 0 0 1 0 .1c-.029.03-.087.059-.13.03-.043-.03-.029-.116-.058-.159-.043-.043-.058 0-.087 0-.014.029-.1-.014-.1-.058z"/><path d="M22.917 20.065c-.03-.029-.073-.029-.116-.058-.043-.029-.058-.13-.101-.1-.159.071-.26.245-.404.331-.015 0-.072-.029-.058-.043.159-.173.36-.303.52-.491.029-.043.014-.087-.015-.116-.029-.028-.086-.028-.115 0-.174.13-.303.304-.462.434-.015.014-.058-.015-.058-.03.087-.115.217-.201.303-.302 0-.015-.043-.044-.014-.058.029-.015.058 0 .086 0 .03 0 .101-.03.116-.072.014-.044-.043-.102-.072-.145a.044.044 0 0 0-.058 0c-.043.015-.087.043-.087.087-.014.043.044.072.03.1-.015.03-.044 0-.059 0-.014 0-.1-.042-.086-.086.014-.043.13-.058.144-.115.029-.058 0-.087-.043-.116-.087-.1-.188-.159-.274-.26 0-.014 0-.072.014-.057.144.086.217.274.375.317.073.03.116-.1.174-.144.057-.043.1-.015.115-.058.015-.058-.014-.116-.058-.159-.014-.029-.086 0-.1 0-.015 0 .028-.1 0-.144a.131.131 0 0 0-.102-.044.24.24 0 0 0-.173.073c-.029.029.029.1 0 .1s-.116-.043-.101-.086c.058-.115.216-.159.303-.26.015-.029.015-.058 0-.072a10.545 10.545 0 0 0-.924-.866.092.092 0 0 0-.087 0 .578.578 0 0 0-.216.202c-.03.029-.03.058 0 .087a.108.108 0 0 0 .13 0c.029 0 .029-.087.057-.087.03 0 .116.014.087.043-.115.144-.26.274-.433.361-.058.029 0-.115-.015-.173-.014-.058-.043-.029-.057-.043-.03-.015-.101 0-.087 0 .087-.13.246-.217.332-.361.015-.03 0-.073-.014-.101-.015-.03-.058-.058-.087-.058-.029 0-.043.058-.072.043-.03-.015.014-.087 0-.101-.015-.014-.13-.043-.173 0-.044.043 0 .101.014.144.014.044.058-.014.072 0a.092.092 0 0 1 0 .087c0 .014-.014.029-.029.043-.028.015-.043.03-.072.044a.678.678 0 0 0-.188.216c-.043.058.102.101.116.173.029.058-.014.058-.043.044-.116-.072-.203-.217-.332-.275-.044 0-.102.044-.087.087.014.043.159.072.144.144-.014.073-.13.087-.173.145-.014.029 0 .058.014.086.058.073.16.102.217.174 0 .014-.029.058-.043.043-.087-.043-.116-.159-.217-.173-.087-.015-.13.043-.13.1 0 .059.116.073.145.13.028.058 0 .102-.03.087-.028-.014-.057-.1-.1-.13a.131.131 0 0 0-.145 0c-.043.015-.058.101-.1.13a.092.092 0 0 1-.088 0c-.043-.029-.043-.1-.072-.115a.092.092 0 0 0-.086 0c-.03.029-.087.072-.073.101.073.13.231.202.333.303 0 0 0 .03-.03.03-.13-.073-.216-.189-.346-.246-.043-.015-.115-.03-.13 0-.014.028.029.115.058.158.029.044.101.03.116.073.014.043-.03.072-.058.1a1.027 1.027 0 0 1-.332.275c-.058.014-.087-.087-.13-.115a.124.124 0 0 0-.101 0c-.058.028-.073.115-.13.115-.058 0-.03-.087-.058-.101-.03-.014-.202.014-.173-.029.086-.159.288-.216.39-.375.014-.03-.015-.087-.058-.101-.058 0-.13.014-.174.057 0 0 .03.044 0 .058-.028.015-.086.029-.1 0-.015-.043-.015-.087 0-.115 0-.03.1-.03.086-.073 0-.086-.116-.1-.116-.173 0-.072.16-.13.116-.188-.072-.144-.217-.216-.303-.346 0-.014.029-.043.043-.029.014.015.058.116.13.116a.232.232 0 0 0 .101-.058c.029-.043 0-.087-.043-.116-.044-.043-.072-.014-.087-.058-.014-.028.015-.086.058-.1.029-.03.058.014.072 0 .015-.015.029-.102 0-.116a.13.13 0 0 0-.144 0c-.304.26-.592.534-.896.823-.043.029-.014.101-.028.144-.015.044-.058.087-.058.116 0 .029.043.115 0 .173-.043.058-.202.217-.231.347 0 .043.058.043.072.1a.16.16 0 0 1 0 .116c0 .044-.058.058-.072.087a.245.245 0 0 0 0 .144c.058.073.159.116.216.188a.092.092 0 0 1 0 .087c0 .029-.057.043-.072.086-.014.03-.029.073 0 .101.448.462.91.881 1.415 1.286.044.028-.014-.087.087-.13.1-.044.087 0 .115.057.058.058.116.116.174.16.029.028.072.028.1.028.059 0 .073-.087.116-.101.044-.029.058-.029.087-.014.029.014.072.115.144.115.058 0 .116-.043.087-.087a.667.667 0 0 0-.245-.245.092.092 0 0 0-.087 0c-.058.014-.087.087-.13.087-.058 0-.072-.03-.058-.058.087-.101.202-.188.303-.303a.164.164 0 0 1 .116-.044c.043 0 .058.058.1.072a.123.123 0 0 0 .102 0c.029-.014.029-.057.014-.086-.028-.043-.1-.043-.115-.087-.015-.043.029-.072.058-.072s.043.058.086.072c.03.015.044.015.073 0a2.72 2.72 0 0 0 .447-.36.07.07 0 0 0-.029-.087c-.029-.015-.072-.058-.1-.044-.116.072-.188.217-.304.304-.014.014-.087-.03-.072-.058.086-.116.202-.217.317-.304a.092.092 0 0 1 .087 0c.043 0 .087.058.13.058.014.015.043.015.058 0 .086-.072.144-.159.23-.23.03-.015.073-.044.102-.03.101.073.202.16.274.26.03.03.044.058.03.101 0 .03-.044.044-.059.058-.028.015-.028 0-.028 0s.043-.072.028-.101c-.014-.029-.043-.058-.086-.058-.058-.014-.116.015-.145.072-.014.044 0 .073.03.102.028.043.086.014.115.043.014.014.014.029 0 .043-.044.058-.116.101-.145.173-.028.073.03.087.058.102.029.028.087 0 .116 0 .029 0 .029.1.057.1.03 0 .188-.1.203-.028.014.072-.087.158-.16.187-.086.03 0-.086-.043-.115a.13.13 0 0 0-.144 0c-.115.087-.173.23-.274.303-.03.015-.101-.014-.087-.058.015-.029.144-.057.173-.13.03-.072-.028-.1-.072-.13-.029-.043-.072 0-.101-.028-.029-.03-.043-.087-.072-.102-.043-.028-.058-.043-.087-.028-.115.086-.173.216-.303.303-.014.014-.087 0-.072-.014.043-.087.159-.116.173-.203.015-.086-.087-.072-.13-.058a.945.945 0 0 0-.26.217.092.092 0 0 0 0 .087c.029.043.101.043.13.086.029.044 0 .058-.029.058s-.1-.115-.173-.13c-.072-.014-.087.03-.101.087-.014.058 0 .087.043.115.101.116.231.217.361.304.044.029.087.043.13.029a.472.472 0 0 0 .217-.16v-.071c0-.015.072-.073.1-.058.03.014 0 .086 0 .1a.184.184 0 0 0 .174 0c.058-.014.072-.115.13-.115.058 0 .058.101.101.13.029.015.072.015.116 0 .1-.072.173-.187.274-.274.029-.015.058-.015.072 0 .015.014 0 .058 0 .087 0 .014.072.057.101.043.26-.202.419-.506.693-.693.058-.03.087.115.145.115.058 0 .086-.043.1-.1 0-.044-.1-.044-.115-.087-.014-.044-.014-.116 0-.116.015 0 .087.087.13.101.058 0 .073-.043.058-.072-.014-.03-.101-.087-.087-.144.015-.058.145-.087.174-.16.029-.072-.03-.086-.058-.1zm-.55-1.126c.044 0 .059.014.059.043 0 .014-.03.043-.058.043-.043 0-.058-.014-.058-.043 0-.029.03-.043.058-.043zm-4.1 1.56c-.029 0-.058-.015-.058-.03 0-.014.03-.029.058-.029.029 0 .058 0 .058.03 0 .028-.029.028-.058.028zm.101-1.185c-.014.029-.058.029-.086.058-.03.029 0 .043 0 .043a.16.16 0 0 1-.116 0c-.029 0-.043-.043-.072-.058a.092.092 0 0 0-.087 0c-.014 0 0 .044 0 .044-.029.029-.072.043-.115.057 0 0-.015 0-.03-.028v-.044c0-.029.044-.058.03-.086 0-.03-.03-.03-.058-.03a.124.124 0 0 0-.101 0c-.015 0-.03.044-.044.059-.014.014-.028-.015-.028-.03.057-.072.115-.158.202-.187.086-.029.1.043.13.072.043.03.058.087.1.116a.695.695 0 0 0 .102.043h.043c.043-.014.058-.058.101-.072.044-.015.044.029.03.043zm.015-.75c0-.03 0-.044.028-.044.03 0 .03.014.03.043 0 .03 0 .043-.03.043-.028 0-.028-.014-.028-.043zm.072 1.79c-.015 0-.03-.015-.03-.03 0-.014.015-.028.03-.028.014 0 .029.014.029.029 0 .014-.015.029-.03.029zm0-1.444c-.03-.015-.044-.043-.03-.072 0-.015.015-.03.03-.03.029 0 .043.015.043.044 0 .029-.014.058-.043.058zm.029-.159c0-.029.029-.043.072-.043s.072.014.072.043c0 .029-.029.043-.072.043s-.072-.014-.072-.043zm.13.65c-.015 0-.03-.015-.03-.043 0-.015.015-.03.044-.03.014 0 .029.015.029.03 0 .028-.015.043-.043.043.014 0 .014 0 0 0zm.115.188c0-.015 0-.044.029-.044s.029.015.029.043c0 .015 0 .044-.029.044-.014-.015-.029-.03-.029-.044zm.13.317s-.014 0-.014-.029 0-.029.014-.029c.015 0 0 .015 0 .03v.028zm.116-.202c0-.014.014-.043.043-.043.014 0 .029.014.029.043 0 .014 0 .043-.03.043-.014 0-.042 0-.042-.029zm.072.693c.014 0 .043 0 .043.029s-.014.029-.043.029c-.015 0-.044 0-.044-.03 0-.028.015-.028.044-.028zm0 .361c-.029 0-.044 0-.044-.029s.015-.029.044-.029c.029 0 .043 0 .043.03 0 .028-.014.028-.043.028zm.058-1.083s-.044-.014-.044-.043c0-.015.044-.029.058-.043.014-.015 0-.03 0-.03.029-.014.043-.028.087-.028.029 0 .057.014.057.043-.014.014-.057 0-.072 0-.029 0-.058.087-.086.101zm.144.578c0 .014-.014.029-.043.029-.03 0-.044 0-.044-.03 0-.028.015-.028.044-.028.014-.015.043-.015.043.029zm0 .332c-.014.029-.072 0-.101.029-.029.029-.029.057-.029.043 0-.043.014-.087.029-.116 0-.014.029 0 .043 0 .015 0 .072.015.058.044zm.982-1.762c.014 0 .029 0 .029.015 0 .014 0 .014-.03.014-.028 0-.028 0-.028-.014 0-.015 0-.015.029-.015zm0 .693c.014 0 .029 0 .029.015 0 .014 0 .029-.015.029h-.014c-.015 0-.029 0-.029-.03 0-.014.014-.028.029-.014zm-.145-.173c.015 0 .015.015.015.015s0 .014-.014.014c-.015 0 0 0 0-.014zm-.23-.202c.014 0 .028.014.028.029a.031.031 0 0 1-.029.029c-.014 0-.028-.015-.028-.03 0-.014.014-.028.028-.028zm.028.404a.031.031 0 0 1-.029.029c-.014 0-.028-.014-.028-.029 0-.014.014-.029.028-.029.015 0 .03.015.03.03zm-.375 0a.734.734 0 0 1 .188-.23c.029 0 .043.042.043.086 0 .029-.058.029-.072.043-.044.058-.087.101-.13.144 0 0-.043-.028-.03-.043zm.072.274v-.057c.029-.03.058-.058.101-.073.015 0 .043.03.043.058 0 .03-.028.044-.043.058-.014.015-.072.043-.1.072-.015.015-.015.044 0 .058.042.043.1.043.13.087a.092.092 0 0 1 0 .086.031.031 0 0 1-.03.03c-.014.014-.029.014-.058 0V20.021c-.014-.015-.043-.03-.057-.044-.03-.014-.058-.014-.101 0-.03.03-.044.072-.058.101-.015.03 0 .03 0 .03-.015 0-.03 0-.044-.015v-.044c0-.028.015-.043.03-.057.028-.043.057-.072.086-.116.015-.014.058-.029.101-.058zm-.23-.144c.042 0 .071.015.071.043 0 .03-.029.044-.072.044s-.072-.015-.072-.044c0-.028.043-.043.072-.043zm-.059.722c0-.029.072 0 .101 0 .03 0 0-.043 0-.058.03-.029.044-.058.073-.086.028-.03.057-.087.115-.102.043-.014.058 0 .058.03 0 .028-.043.028-.058.057-.014.029 0 .043 0 .043s-.087.03-.101.058c-.029.03 0 .072-.043.101-.03.015-.044.015-.073 0-.043.015-.1-.014-.072-.043zm.058.376c0-.015.014-.03.029-.044.014 0 .043.015.043.043 0 .015-.014.03-.029.03-.029.014-.043 0-.043-.03zm.39 0c0 .028-.058.043-.087.072-.029.029 0 .029 0 .043 0 .014-.043 0-.043 0-.014 0-.014.087-.043.115-.03.03-.044-.014-.044 0-.014.015-.043.102-.086.145-.044.029-.03 0-.044-.029 0-.029 0-.029.015-.058a.314.314 0 0 1 .072-.115c.072-.087.145-.16.246-.231.014 0 .043.043.014.057zm.159-.174a.031.031 0 0 1-.03-.029c0-.014.015-.029.03-.029.014 0 .029.015.029.03 0 .014-.015.028-.03.028zm.057-.36a1.543 1.543 0 0 1-.274.26h-.043c-.014 0 0 .042 0 .057a.113.113 0 0 1-.058.058c-.014 0-.029-.015-.029-.03v-.043c0-.014.044 0 .058 0 .015 0 0-.057.015-.086.014-.029.043 0 .057 0 .015 0 0-.058 0-.087.015-.029.03-.058.058-.072h.087c.029 0 0-.058.029-.087.014-.014.043-.029.057-.014.015.014.058.029.044.043zm.015-.333c-.015.015-.072 0-.072-.014.014-.073.058-.13.1-.188a.131.131 0 0 1 .116-.058c.03 0 0 .058 0 .087 0 .014-.057 0-.072.014a.305.305 0 0 1-.072.16zm.144.52c-.014 0-.043-.015-.043-.043 0-.015.015-.044.029-.044.029 0 .043.015.043.044.015.028-.014.043-.029.043zm-.028-.39c-.03 0-.058 0-.058-.043 0-.044.029-.044.058-.044.028 0 .057.015.057.044 0 .029-.029.043-.057.043zm.158.217c-.029 0-.043-.03-.043-.058 0-.029 0-.043.029-.058.029 0 .043 0 .058.029v.029c0 .043-.015.058-.044.058zm.058-.434a.225.225 0 0 1-.115.116h-.058a.675.675 0 0 0 .13-.144c.029-.044.043.028.029.043zm.087-.88c.014 0 .029.014.029.029 0 .014-.015.028-.03.028-.014 0-.028-.014-.028-.028 0-.015.014-.03.029-.03zm-.044.794c0-.029 0-.043.044-.043.043 0 .029.014.029.043 0 .029-.015.043-.03.043-.014 0-.043-.014-.043-.043zm.073.346c-.03 0-.044-.014-.044-.043 0-.029.015-.043.044-.043.029 0 .043.014.043.043 0 .029-.029.043-.043.043zm.115-1.227c-.029 0-.043 0-.043-.029s.014-.029.043-.029c.029 0 .043 0 .043.03 0 .028-.029.028-.043.028zm.217-.606c.014 0 .029.014.029.028 0 .015 0 .044-.03.044-.014 0-.028-.015-.028-.044 0-.014.014-.028.029-.028zm-.087.375c0-.029.029-.043.043-.043.03 0 .044.029.044.043 0 .029-.03.043-.044.043-.029 0-.043-.014-.043-.043zm.087.664a.5.5 0 0 1 .159-.144c.014 0 .057.029.043.058a.442.442 0 0 1-.217.144s.015-.043.015-.058zm0 .361a.541.541 0 0 1 .187-.173c.03 0 .087.043.058.043-.072.058-.144.116-.216.188-.015 0-.044-.043-.03-.058zm.274.16a.79.79 0 0 1-.231.259c-.014 0-.058-.043-.043-.072.086-.087.159-.173.245-.246.015-.014.044.03.029.058zm.058-.102c-.03 0-.043-.014-.043-.043 0-.03.014-.044.043-.044.029 0 .043.015.043.044 0 .029-.014.043-.043.043zm-.03-.39c0-.014 0-.043.03-.043.029 0 .043 0 .043.029v.014c0 .029-.014.043-.043.043-.015 0-.03-.029-.03-.043zm.088-1.025c-.058.058-.13.115-.203.173h-.043c-.014-.014-.014-.043 0-.058a.384.384 0 0 1 .159-.144.123.123 0 0 1 .101 0c-.014-.014-.014.014-.014.029zm-.304 2.787a.616.616 0 0 0-.158.173c-.03.029-.145-.014-.116-.043.029-.03.144-.116.173-.188.044-.058.058 0 .087 0 .029 0 .029.043.014.058zm.477.187c-.015 0-.043 0-.043-.029 0-.014 0-.043.028-.043h.03c.028 0 .043.015.043.043-.03.015-.044.03-.058.03zm.823-2.007c.014 0 .029.015.029.03a.031.031 0 0 1-.03.028.031.031 0 0 1-.028-.029c0-.014.015-.029.029-.029zm-.029-.65c.029 0 .058.015.058.044 0 .014-.03.043-.058.043-.029 0-.058-.014-.058-.043 0-.029.03-.043.058-.043zm-.116.217c-.014.03-.043.058-.072.043-.014 0-.043-.028-.043-.043-.014-.029.014-.058.043-.072.03-.015.058.014.072.043.015.015.015.015 0 .03zm-.028-.332c0 .014-.03.029-.044.029-.014 0-.029-.029-.029-.043 0-.015.015-.03.03-.03.028 0 .043.015.043.044zm-.044-.39c.015 0 .03.015.03.03 0 .013-.015.028-.03.028-.014 0-.029-.014-.029-.029 0-.014.015-.029.03-.029zm-.534.159c.015 0 .043.014.043.043 0 .03-.014.044-.043.044-.029 0-.043-.015-.043-.044 0-.029.029-.043.043-.043zm-.188.217c0-.03.015-.044.044-.044.028 0 .043.015.043.044 0 .029-.015.043-.043.043-.03 0-.044-.014-.044-.043zm.072 1.4s-.028-.014-.028-.043c0-.014.014-.029.028-.029.015 0 .03.015.03.029 0 .014-.015.043-.03.043zm0-.317c-.028 0-.043-.015-.043-.044 0-.029.015-.043.043-.043.03 0 .044.014.044.043-.015.03-.029.044-.044.044zm.044-.13a.4.4 0 0 1 .1-.13c.015-.015.03-.015.044 0 0 .029.03.058.015.086-.03.03-.073.058-.116.058 0 .015-.043 0-.043-.014zm.115 1.357c-.014 0-.043-.014-.043-.043 0-.03.015-.044.043-.044.03 0 .044.03.044.044 0 .014-.03.029-.044.043zm0-.736c-.029 0-.043-.015-.043-.044 0-.029.015-.043.043-.043.03 0 .044.014.044.043 0 .03-.03.044-.044.044zm.231-.491c-.029 0-.057-.044-.086-.015-.03.029-.073.087-.116.13-.014.015-.043.015-.058 0v-.029c.044-.072.073-.159.145-.202.072-.029.115.043.144.087.03.043 0 .029-.029.029zm-.043-.708c-.043 0-.072-.029-.072-.058 0-.043.029-.072.072-.057.043 0 .072.028.072.057 0 .03-.043.058-.072.058zm.058.26c0 .029-.029.043-.058.043s-.058-.014-.058-.043a.08.08 0 0 1 .072-.043l.044.043zm-.231-.448c0 .015-.087 0-.072 0 .086-.13.202-.216.303-.346.014-.015.014-.03 0-.043-.03-.058-.087-.087-.116-.145-.029-.058.03-.043.044-.043.014 0 .072.144.144.159.072.014.058-.073.101-.087.043-.014.058 0 .058 0a3.716 3.716 0 0 1-.462.49zm.303-.029c0-.043.015-.057.043-.057.03 0 .044.029.044.058 0 .043-.015.057-.044.057-.029 0-.043-.014-.043-.058zm.029.333c0-.015.014-.044.043-.044.015 0 .043.015.043.044 0 .028-.014.043-.043.043-.029-.015-.043-.029-.043-.043zm.014.996a.824.824 0 0 1 .188-.202s.043 0 .058.029c.014.014.014.029 0 .043a.707.707 0 0 0-.173.188c-.015.029-.073-.03-.073-.058zm.246.216c0 .015-.015.03-.029.03a.031.031 0 0 1-.029-.03c0-.014.014-.028.029-.028.014 0 .029.014.029.028zm0 .694c-.058.072-.116.13-.188.187-.014 0 0-.043 0-.057 0-.015.087-.087.116-.13.014-.015.014-.03 0-.044-.03-.043-.16-.1-.116-.1.058 0 .13.057.188.1.014 0 .014.044 0 .044zm.029-1.127c-.015 0 0-.043 0-.057 0-.015.029-.058.058-.058.028 0 .1 0 .1.043s-.057.029-.086.043c-.029.015-.043.044-.072.03zm.1.607c-.014 0-.028-.015-.028-.03 0-.014 0-.028.014-.028.015 0 .03.014.03.014.014.044 0 .044-.015.044zm.362 0s-.03 0-.03-.015c0-.014 0 0 .03 0h.029zm.173-.16c-.014 0-.029-.014-.029-.042 0-.03 0-.044.029-.044s.029.015.029.044c0 .028-.014.043-.029.043z"/></g></svg>