<svg width="40" height="40" fill="none" xmlns="http://www.w3.org/2000/svg"><g clip-path="url(#a)" transform="matrix(1.4 0 0 1.4 -8 -8)"><mask id="b" mask-type="alpha" maskUnits="userSpaceOnUse" x="10" y="15" width="20" height="10"><path fill="#fff" d="M10 15.608h20v8.783H10z"/></mask><g mask="url(#b)" fill-rule="evenodd" clip-rule="evenodd"><path d="m21.546 17.962.748.758v-.84c0-.819.718-.719.718-.719h4.711c.841 0 .711.711.711.711v4.226c0 .828-.71.728-.71.728h-.842v1.54h.841c2.5 0 2.274-2.261 2.274-2.261v-4.233c0-2.327-2.274-2.264-2.274-2.264h-4.71c-2.324 0-2.248 2.264-2.248 2.264v.848z" fill="#b5b5b6"/><path d="M22.288 22.075v-3.069l-.738-.751-.788.754v3.072a2.29 2.29 0 0 0 4.58 0 2.29 2.29 0 0 0-2.29-2.287c-.183 0-.365.02-.542.06l-.003 1.725a.752.752 0 0 1 1.313.499c0 .415-.339.751-.751.751a.773.773 0 0 1-.781-.755z" fill="#0055a2"/><path d="M26.666 24.365V22.82h-1.193a2.476 2.476 0 0 1-1.373 1.55zM10.908 22.23l.874-1.28h1.1l-1.2 1.673 1.3 1.735h-1.124l-.95-1.336h.003v1.336H10v-3.407h.91zM14.73 22.284c1.014.09 1.264.223 1.247 1.007-.01.569.003 1.124-1.503 1.097-.874-.016-1.452-.043-1.433-1.167l.875.004c-.007.359.12.409.572.419.428.006.568-.017.575-.306.006-.3-.047-.296-.472-.33l-.2-.016c-.844-.073-1.336-.076-1.32-1.06.017-.981.569-1.038 1.466-1.021.748.017 1.39.04 1.373.984l-.003.14h-.878c.007-.353-.14-.37-.505-.376-.495-.01-.538.09-.542.282-.003.276.127.29.373.31zM16.38 20.95h1.791c.675 0 1.077.127 1.077.872 0 .435-.086.715-.538.788v.036c.505.034.592.336.592.765 0 .834-.393.947-1.114.947h-1.812v-3.407zm.91 1.364h.655c.316 0 .396-.053.396-.33 0-.202-.033-.282-.286-.289h-.765zm0 1.3h.688c.296 0 .42-.067.42-.35 0-.282-.104-.322-.4-.322h-.705v.672z" fill="#0055a2"/></g></g><defs><clipPath id="a"><path fill="#fff" d="M0 0h40v40H0z"/></clipPath></defs></svg>