<svg width="40" height="40" fill="none" xmlns="http://www.w3.org/2000/svg"><g clip-path="url(#a)" transform="matrix(1.4 0 0 1.4 -7.99 -8)"><path fill-rule="evenodd" clip-rule="evenodd" d="M10 10h19.954v19.954H10Z" fill="#ca003a"/><path d="M11.666 27.544c0-4.954 3.232-8.97 7.218-8.97 3.987 0 7.22 4.016 7.22 8.97 0 .864-.1 1.698-.283 2.488H11.947a11.016 11.016 0 0 1-.281-2.488z" fill="#fff"/><path d="M12.184 27.544c0-4.662 3.055-8.456 6.81-8.456 3.754 0 6.81 3.794 6.81 8.456 0 .866-.106 1.701-.302 2.488h1.06c.178-.793.274-1.627.274-2.488 0-5.23-3.518-9.484-7.842-9.484-4.325 0-7.843 4.254-7.843 9.484 0 .861.096 1.695.275 2.488h1.06a10.323 10.323 0 0 1-.302-2.488z" fill="#231f20"/><path d="M22.101 20.183c.094.491.188 1.201.188 1.93 0 1.132-.226 2.275-1.027 2.576-1.529.574-3.57-2.719-4.433-4.424l5.272-.082zm.207-.53-6.304.098.175.371c.288.612 2.887 5.952 5.26 5.06 2.096-.787 1.165-5.138 1.124-5.323l-.046-.209z" fill="#231f20"/><path d="M15.42 16.46c.758-2.566 3.386-4.009 5.87-3.224 2.483.785 3.881 3.501 3.122 6.067-.759 2.566-3.387 4.01-5.87 3.224-2.483-.785-3.881-3.501-3.123-6.067z" fill="#fff"/><path d="M18.024 14.042a4.004 4.004 0 0 1 3.17-.316c2.194.696 3.434 3.112 2.764 5.386a4.251 4.251 0 0 1-2.025 2.547 4.003 4.003 0 0 1-3.17.316c-1.791-.568-2.946-2.282-2.946-4.129 0-.416.059-.84.182-1.258a4.25 4.25 0 0 1 2.025-2.546zm-.466-.908c-1.215.67-2.106 1.79-2.508 3.154-.83 2.816.705 5.808 3.422 6.67a4.959 4.959 0 0 0 3.927-.391c1.215-.67 2.106-1.79 2.508-3.154.83-2.816-.705-5.809-3.422-6.67a4.958 4.958 0 0 0-3.927.39zM21.301 24.979l.87 1.55.383-.248-.87-1.55z" fill="#231f20"/><path d="M17.271 15.811c.303-.958 1.352-1.498 2.344-1.204.991.293 1.55 1.308 1.246 2.266-.303.959-1.352 1.498-2.343 1.204-.992-.293-1.55-1.308-1.247-2.266z" fill="#fff"/><path d="M18.558 18.194a1.743 1.743 0 0 1-.31-3.201 1.743 1.743 0 0 1 1.635 3.074c-.41.218-.88.263-1.325.127zm-.434-3.435c-.473.251-.82.672-.976 1.184a2.009 2.009 0 0 0 1.332 2.505 1.992 1.992 0 0 0 1.528-.147c.473-.252.82-.672.976-1.184a2.009 2.009 0 0 0-1.332-2.505 1.993 1.993 0 0 0-1.528.147z" fill="#231f20"/><path d="M19.154 16.255c.143-.4.636-.625 1.102-.503.466.122.728.546.586.945-.143.4-.636.626-1.102.503-.466-.122-.728-.545-.586-.945z" fill="#231f20"/><path d="M21.122 27.992c0-1.071.813-1.94 1.815-1.94 1.003 0 1.815.869 1.815 1.94 0 1.072-.812 1.94-1.815 1.94-1.002 0-1.815-.868-1.815-1.94z" fill="#fff"/><path d="M21.339 27.867c0-.894.773-1.622 1.723-1.622.95 0 1.723.728 1.723 1.622 0 .894-.773 1.622-1.723 1.622-.95 0-1.723-.728-1.723-1.622zm-.41 0c0 1.107.957 2.008 2.133 2.008 1.176 0 2.133-.9 2.133-2.008 0-1.107-.957-2.008-2.133-2.008-1.176 0-2.133.901-2.133 2.008z" fill="#231f20"/><path d="M22.02 27.773c0-.593.509-1.073 1.136-1.073.627 0 1.136.48 1.136 1.073s-.509 1.074-1.136 1.074c-.627 0-1.136-.48-1.136-1.074z" fill="#fff"/><path d="M22.148 27.961c0-.614.466-1.114 1.04-1.114.572 0 1.038.5 1.038 1.114 0 .614-.466 1.114-1.039 1.114s-1.039-.5-1.039-1.114zm-.257 0c0 .766.582 1.39 1.296 1.39.715 0 1.296-.624 1.296-1.39 0-.766-.581-1.39-1.296-1.39-.715 0-1.296.624-1.296 1.39z" fill="#231f20"/><path d="M21.445 17.172c.303-.959 1.352-1.498 2.344-1.204.99.293 1.55 1.307 1.246 2.266-.303.958-1.352 1.498-2.343 1.205-.992-.294-1.55-1.309-1.247-2.267z" fill="#fff"/><path d="M22.647 19.259a1.743 1.743 0 0 1-.309-3.201 1.743 1.743 0 0 1 2.482 2.046c-.136.444-.437.81-.847 1.028-.41.218-.881.263-1.326.127zm-.434-3.435a2 2 0 0 0-1.064 1.77 2.01 2.01 0 0 0 1.42 1.919 1.992 1.992 0 0 0 1.528-.147c.473-.252.82-.672.977-1.184a2.01 2.01 0 0 0-1.332-2.505 1.992 1.992 0 0 0-1.529.147z" fill="#231f20"/><path d="M23.519 17.179c.102-.359.455-.56.789-.45.334.109.522.489.42.847-.103.359-.456.56-.79.45-.334-.109-.521-.489-.42-.847z" fill="#231f20"/><path d="M20.456 12.441c.358-1.23 1.599-1.923 2.772-1.546 1.172.376 1.832 1.679 1.474 2.91-.358 1.23-1.6 1.922-2.772 1.545-1.173-.376-1.833-1.679-1.474-2.909z" fill="#fff"/><path d="M21.66 11.234a2.064 2.064 0 0 1 1.592-.154 2.109 2.109 0 0 1 .37 3.868 2.064 2.064 0 0 1-1.591.154 2.109 2.109 0 0 1-.371-3.868zm-.181-.343a2.498 2.498 0 0 0 .44 4.582 2.47 2.47 0 0 0 3.09-1.653 2.498 2.498 0 0 0-1.644-3.111 2.443 2.443 0 0 0-1.886.182z" fill="#231f20"/><path d="M21.275 12.672c.21-.785.935-1.226 1.62-.986.686.24 1.072 1.07.863 1.855-.21.785-.935 1.226-1.62.986-.687-.24-1.073-1.07-.863-1.855z" fill="#fff"/><path d="M22.192 14.342c-.641-.211-1.004-.944-.808-1.633a1.28 1.28 0 0 1 .592-.772c.287-.164.616-.198.927-.096.641.21 1.004.943.808 1.633a1.28 1.28 0 0 1-.592.772 1.132 1.132 0 0 1-.927.096zm-.33-2.635a1.535 1.535 0 0 0-.709.926 1.673 1.673 0 0 0-.064.457c0 .671.405 1.294 1.033 1.5.372.122.766.082 1.11-.115.344-.196.596-.525.71-.925.235-.827-.2-1.705-.968-1.958a1.357 1.357 0 0 0-1.111.115z" fill="#231f20"/></g><defs><clipPath id="a"><path fill="#fff" transform="translate(10 10)" d="M0 0h20v20H0z"/></clipPath></defs></svg>