<svg width="40" height="40" fill="none" xmlns="http://www.w3.org/2000/svg"><path fill-rule="evenodd" clip-rule="evenodd" d="M18.107 31.062v-3.81h2.54c.653 0 1.161.544 1.161 1.198 0 .508-.29.907-.726 1.087l1.161 1.525h-1.089l-1.089-1.452h-1.051v1.452zm2.829-2.649c0-.218-.144-.362-.361-.362h-1.561v.725h1.56c.218 0 .362-.146.362-.363zm.654-5.914v.834h-2.54v.654h2.468v.834H19.05v.725h2.54v.835h-3.447v-3.882zm-9.252-2.794c.217.217.362.508.362.834 0 .654-.508 1.162-1.16 1.162H8.855v-3.81h2.612c.616 0 1.126.508 1.126 1.125 0 .253-.11.507-.255.689zm-2.576 1.162h1.632c.217 0 .363-.146.363-.363 0-.218-.146-.364-.363-.364H9.762Zm0-1.525h1.596a.325.325 0 0 0 .326-.326.324.324 0 0 0-.326-.326H9.762Zm5.769-.472-.654 1.38h1.343zm2.357 2.831h-.978l-.29-.654h-2.142l-.29.654h-.98l1.924-3.81h.87zm11.756-3.011h-1.306v.725h1.306a.364.364 0 0 0 .363-.364c0-.18-.18-.361-.363-.361zm-.652 1.56h-.69V21.7h-.907v-3.81h2.322c.654 0 1.162.544 1.162 1.196 0 .545-.364.98-.836 1.126L31.17 21.7h-1.09Zm-2.794-2.36v.835h-2.54v.654h2.467v.834H23.66v.726h2.539v.835H22.75V17.89Zm-5.044 0h1.09L20.32 20.36V21.7h-.907v-1.342L17.49 17.89h1.087l1.307 1.74zm-1.306-3.663-.654 1.378h1.307zm2.359 2.83h-.98l-.291-.654h-2.14l-.29.653h-.98l1.887-3.81h.87zm-.617-6.531c.218.217.364.507.364.834 0 .653-.509 1.16-1.162 1.16h-2.649V8.713h2.612a1.13 1.13 0 0 1 1.126 1.124 1.489 1.489 0 0 1-.291.69zm-2.576 1.16h1.632c.219 0 .364-.145.364-.362 0-.219-.145-.363-.364-.363h-1.632zm0-1.524h1.597c.18 0 .325-.144.325-.326a.324.324 0 0 0-.325-.326h-1.597z" fill="#fff" style="stroke-width:1.4"/><mask id="a" mask-type="alpha" maskUnits="userSpaceOnUse" x="10" y="10" width="20" height="19"><path fill-rule="evenodd" clip-rule="evenodd" d="M10.027 10.002h19.67V28.48h-19.67" fill="#fff"/></mask><g mask="url(#a)" transform="matrix(1.4 0 0 1.4 -7.94 -7.94)"><path fill-rule="evenodd" clip-rule="evenodd" d="M29.67 19.228c-.31-5.131-4.587-9.226-9.822-9.226-5.235 0-9.51 4.095-9.821 9.226 0 .208.025.415.05.622a9.661 9.661 0 0 0 1.841 4.614 9.802 9.802 0 0 0 7.93 4.016c-4.561 0-8.293-3.55-8.604-8.008-.026-.207-.026-.414-.026-.622 0-.207 0-.414.026-.622.311-4.458 4.043-8.008 8.605-8.008a9.803 9.803 0 0 1 7.93 4.017 9.65 9.65 0 0 1 1.84 4.613c.026.208.052.415.052.596 0-.207.026-.414.026-.622 0-.181 0-.388-.026-.596z" fill="#6bb42d"/></g><path fill-rule="evenodd" clip-rule="evenodd" d="M6.097 20.72c.436 7.185 6.421 12.917 13.751 12.917 7.33 0 13.316-5.732 13.75-12.916 0-.29-.034-.581-.07-.871a13.515 13.515 0 0 0-2.578-6.457 13.72 13.72 0 0 0-11.102-5.625c6.386 0 11.61 4.97 12.046 11.211.036.29.036.581.036.871 0 .29 0 .581-.036.87-.436 6.278-5.66 11.212-12.046 11.212-4.57 0-8.6-2.213-11.102-5.623A13.51 13.51 0 0 1 6.17 19.85a7.06 7.06 0 0 1-.073-.834c0 .29-.036.58-.036.87 0 .254 0 .545.036.835z" fill="#00abe8" style="stroke-width:1.4"/></svg>