<svg width="40" height="40" fill="none" xmlns="http://www.w3.org/2000/svg"><g clip-path="url(#a)" transform="matrix(1.4 0 0 1.4 -8 -8.19)"><g clip-path="url(#b)" fill="#fff"><path d="M23.773 20.118c.004-1.595 1.202-2.91 2.822-3.095 1.524-.174 3.021.916 3.352 2.441.126.579.052.656-.53.678-.335.013-.48-.062-.546-.436-.162-.933-1.02-1.602-1.963-1.612-.908-.01-1.744.63-1.984 1.52a2.045 2.045 0 0 0 .745 2.142 2.042 2.042 0 0 0 2.318.088c.373-.235.374-.235.6.154.244.422.481.85.735 1.268.1.162.064.256-.078.362-.626.465-.72.458-1.086-.215-.139-.256-.28-.32-.568-.25-1.946.474-3.82-1.03-3.817-3.045zM10 20.095c.078-1.257.65-2.233 1.823-2.78 1.148-.536 2.247-.372 3.262.382.192.142.247.276.038.443-.024.02-.044.045-.066.067-.417.426-.417.426-.94.144a2.034 2.034 0 0 0-2.605.559c-.608.793-.543 1.884.157 2.63.663.706 1.789.844 2.594.268.295-.211.436-.134.643.087.47.5.483.512-.1.866-1.038.63-2.114.68-3.177.095-1.065-.584-1.575-1.53-1.629-2.761ZM17.517 22.157h2.434c.51 0 .51 0 .51.519v.156c-.001.42-.003.423-.417.423-1.072 0-2.145-.007-3.217.006-.294.004-.4-.083-.398-.39.012-1.822.012-3.645 0-5.467-.002-.305.1-.395.396-.39.788.015.69-.043.691.687.003 1.467.001 2.934.001 4.456zM21.589 20.142c0-.917.007-1.834-.005-2.75-.003-.261.066-.382.35-.376.845.017.738-.084.74.728.003 1.707-.006 3.416.006 5.124.002.303-.091.4-.393.394-.808-.015-.695.036-.698-.714-.003-.802 0-1.604 0-2.406z"/></g></g><defs><clipPath id="a"><path fill="#fff" d="M0 0h40v40H0z"/></clipPath><clipPath id="b"><path fill="#fff" transform="translate(10 17)" d="M0 0h20v6.951H0z"/></clipPath></defs></svg>