<svg width="40" height="40" fill="none" xmlns="http://www.w3.org/2000/svg"><g clip-path="url(#a)" transform="matrix(1.4 0 0 1.4 -8 -8)"><mask id="b" mask-type="alpha" maskUnits="userSpaceOnUse" x="10" y="14" width="20" height="12"><path fill="#fff" d="M10 14.878h20v10.245H10z"/></mask><g mask="url(#b)"><path fill-rule="evenodd" clip-rule="evenodd" d="M10 16.063h6.5v2.641h-3.47l.017.762H16.5v2.623h-3.47v3.03H10ZM17.245 16.063h2.912c.548 0 1.173-.045 1.625.068.64.16 1.234.5 1.59.948.23.287.424.622.56.999.677 1.885-.632 3.479-2.006 3.893-.454.137-1.03.121-1.617.118v3.03h-3.064v-5.653l3.436-.017v-.745h-3.436z" fill="#d31f36"/><mask id="c" mask-type="alpha" maskUnits="userSpaceOnUse" x="24" y="14" width="6" height="6"><path fill="#fff" d="M24.855 14.878h5.142v4.602h-5.142z"/></mask><g mask="url(#c)"><path fill-rule="evenodd" clip-rule="evenodd" d="M29.755 16.216c-.435-.867-1.258-1.358-2.59-1.338l-.694.153c-.642.248-1.205.716-1.456 1.354-.702 1.782 1.108 3.413 2.929 3.038 1.263-.26 2.615-1.607 1.81-3.207zm-.728-.136-1.608 1.287-1.575-1.287zm.022 1.913c0 .082-.035.276-.225.276-.657 0-2.752.001-2.75-.001-.156 0-.259-.103-.259-.247l.002-1.541c.542.429 1.077.864 1.619 1.293.002.002 1.615-1.29 1.613-1.29z" fill="#d31f36"/></g></g></g><defs><clipPath id="a"><path fill="#fff" d="M0 0h40v40H0z"/></clipPath></defs></svg>