<svg width="40" height="40" fill="none" xmlns="http://www.w3.org/2000/svg"><g clip-path="url(#a)" transform="matrix(1.4 0 0 1.4 -8 -8)" fill-rule="evenodd" clip-rule="evenodd"><path d="M21.834 14.032c-1.575-1.555-3.627-1.741-3.627-1.741C14.124 14.03 10 16.519 10 16.519s6.156-2.778 12.498-1.493c0 .021-.353-.684-.663-.994z" fill="#f59d21"/><path d="M29.503 12.187c-1.803-2.715-6.673-1.782-9.803-.83.891.25 5.865.664 4.062 8.208-1.078 4.477-4.29 9.762-4.145 10.032.187.352 13.037-12.664 9.886-17.41z" fill="#00457c"/></g><defs><clipPath id="a"><path fill="#fff" d="M0 0h40v40H0z"/></clipPath></defs></svg>