<svg width="40" height="40" fill="none" xmlns="http://www.w3.org/2000/svg"><g clip-path="url(#a)" transform="matrix(1.4 0 0 1.4 -8 -8)" fill-rule="evenodd" clip-rule="evenodd"><path d="M17.637 19.108c-.88 0-1.469.357-1.469 1.195 0 .838.569 1.195 1.407 1.195.727 0 1.291-.178 1.424-.967h-.755c-.038.278-.283.453-.606.453-.453 0-.714-.245-.714-.681 0-.436.261-.68.714-.68.294 0 .518.095.605.39H19c-.137-.735-.797-.905-1.361-.905zm-6.196 0c-.606 0-1.216.145-1.216.747 0 .423.266.568.73.63l.664.092c.353.05.415.1.415.224 0 .162-.195.24-.527.24-.378 0-.51-.124-.544-.315h-.805c.038.527.465.772 1.308.772.635 0 1.373-.091 1.373-.75 0-.387-.24-.607-.983-.686l-.507-.054c-.315-.033-.369-.103-.369-.207 0-.22.286-.237.477-.237.212 0 .453.067.494.295h.805c-.05-.415-.29-.751-1.315-.751zm3.092 0c-.88 0-1.47.357-1.47 1.195 0 .838.59 1.195 1.47 1.195.668 0 1.174-.22 1.386-.747h-.78c-.104.19-.312.29-.606.29-.498 0-.714-.323-.714-.535v-.008h2.141v-.066c0-.839-.464-1.324-1.427-1.324zm4.711.083v1.506c0 .656.577.801.955.801.427 0 .776-.195.909-.382h.008v.3h.705V19.19h-.73v1.112c0 .41-.224.63-.618.63-.336 0-.498-.149-.498-.456v-1.286zm-4.728.373c.536 0 .69.374.69.494v.008h-1.387v-.008c0-.054.12-.494.697-.494z" fill="#fff"/><path d="M28.51 18.502v.689h-.461v.49h.46v1.124c0 .402.067.66.76.66.162 0 .435-.025.572-.042v-.49c-.116.009-.228.017-.357.017-.19 0-.244-.058-.244-.232v-1.037h.589v-.49h-.59v-.69h-.73zm-1.935.606c-.88 0-1.47.357-1.47 1.195 0 .838.59 1.195 1.47 1.195.668 0 1.174-.22 1.386-.747h-.78c-.104.19-.312.29-.606.29-.498 0-.714-.323-.714-.535v-.008h2.141v-.066c0-.839-.464-1.324-1.427-1.324zm-2.694.025c-.428 0-.776.195-.91.381h-.007v-.323h-.706v2.224h.73V20.34c0-.473.287-.643.627-.643.328 0 .49.15.49.457v1.261h.73v-1.481c0-.656-.577-.801-.954-.801zm2.677.431c.536 0 .69.374.69.494v.008H25.86v-.008c0-.054.12-.494.697-.494z" fill="#e90222"/></g><defs><clipPath id="a"><path fill="#fff" d="M0 0h40v40H0z"/></clipPath></defs></svg>