<svg width="40" height="40" fill="none" xmlns="http://www.w3.org/2000/svg"><g clip-path="url(#a)" transform="matrix(1.4 0 0 1.4 -8 -8)"><path fill-rule="evenodd" clip-rule="evenodd" d="M14.86 20.27c-1.219 1.896-4.86.873-4.86-2.222 0-.925.352-1.763.922-2.37h5.654v5.326h-1.715zm-1.541-3.786a1.542 1.542 0 1 1 0 3.085 1.542 1.542 0 0 1 0-3.085zM21.896 20.27c-1.22 1.896-4.86.873-4.86-2.222 0-.925.351-1.763.92-2.37H23.612v5.326h-1.715Zm-1.542-3.786a1.542 1.542 0 1 1 0 3.085 1.542 1.542 0 0 1 0-3.085zM26.133 20.27c.812 1.263 2.698 1.23 3.867.154v-4.745h-5.583v6.474a1.064 1.064 0 0 1 1.716 0V20.27Zm-1.716 3.148v.903h1.716v-.903a1.064 1.064 0 0 1-1.716 0zm3.258-6.934a1.542 1.542 0 1 0 0 3.085 1.542 1.542 0 0 0 0-3.085z" fill="#fff"/><circle cx="25.274" cy="22.786" fill="#118886" r=".869"/></g><defs><clipPath id="a"><path fill="#fff" d="M0 0h40v40H0z"/></clipPath></defs></svg>