<svg width="40" height="40" fill="none" xmlns="http://www.w3.org/2000/svg"><path fill-rule="evenodd" clip-rule="evenodd" d="M6.689 16.893H33.31c.39 0 .689.315.689.689v4.836c0 .39-.314.689-.689.689H6.69A.697.697 0 0 1 6 22.418v-4.836c0-.374.314-.689.689-.689zm26.622.344H6.69a.339.339 0 0 0-.345.345v4.836c0 .195.15.344.345.344H33.31c.195 0 .345-.15.345-.344v-4.836a.339.339 0 0 0-.345-.345z" fill="#fff" style="stroke-width:1.4"/><path fill-rule="evenodd" clip-rule="evenodd" d="m12.349 18.555-.135.045c-.12.03-.165.075-.21.21l-.883 2.845c-.015.044-.045.074-.09.074h-.584c-.045 0-.075-.03-.09-.074l-.554-1.857-.539 1.857c-.015.044-.045.074-.09.074H8.59c-.045 0-.074-.03-.09-.074l-.958-2.89c-.045-.12-.105-.15-.224-.18l-.15-.03c-.045 0-.06-.03-.06-.06v-.15c0-.044.03-.06.06-.06H8.98c.045 0 .06.03.06.06v.165c0 .045-.03.06-.06.06l-.15.03c-.09.015-.15.06-.15.135 0 .03 0 .045.015.075l.45 1.542.539-1.977c.015-.045.044-.075.09-.075h.613c.045 0 .075.03.09.075l.63 2.052.418-1.483c.015-.06.045-.164.045-.21 0-.074-.045-.104-.15-.119l-.134-.06c-.045 0-.06-.03-.06-.06v-.15c0-.044.03-.06.06-.06h1.063c.045 0 .06.03.06.06v.165c.014.03-.015.045-.06.045zm3.578 3.174h-2.036c-.045 0-.06-.03-.06-.06v-.164c0-.045.03-.06.075-.06l.18-.015c.15-.015.18-.09.134-.21l-.18-.449h-1.197l-.09.21c-.03.09-.06.18-.06.24 0 .149.075.194.225.209l.15.015c.044 0 .06.03.06.06v.164c0 .045-.03.06-.06.06h-1.184c-.044 0-.06-.03-.06-.06v-.164c0-.045.03-.06.06-.06l.105-.015c.135-.03.195-.105.255-.27l1.168-2.815c.015-.044.045-.075.09-.075h.763c.045 0 .075.03.09.075l1.183 2.92c.03.09.09.135.195.15l.21.03c.044 0 .06.03.06.06v.164c-.016.045-.046.06-.076.06zm-2.455-2.53-.494 1.213h.943zm5.615 2.44c-.24.105-.66.18-1.108.18-1.258 0-2.097-.748-2.097-1.841 0-1.064.884-1.797 2.141-1.797.33 0 .734.06 1.019.15.104.03.134.074.134.21v.748c0 .045-.03.06-.06.06h-.269c-.06 0-.105-.015-.12-.075l-.134-.33c-.12-.3-.27-.434-.584-.434-.495 0-.779.554-.779 1.482 0 .929.284 1.498.824 1.498.299 0 .494-.135.569-.375l.15-.419c.014-.06.059-.075.119-.075h.27c.044 0 .06.03.06.06v.719c.014.18-.016.195-.135.24zm5 .09h-1.422c-.075 0-.135-.03-.164-.09l-.854-1.542-.254.195v.913c0 .12.06.165.15.195l.179.06c.045.015.075.03.075.06v.164c0 .045-.03.06-.06.06H19.79c-.045 0-.06-.03-.06-.06v-.164c0-.045.03-.06.06-.06l.225-.045c.15-.03.195-.09.195-.225v-2.35c0-.165-.075-.195-.225-.24l-.195-.045c-.045 0-.06-.03-.06-.06v-.15c0-.044.03-.06.06-.06h1.947c.045 0 .06.03.06.06v.165c0 .045-.03.06-.075.06l-.105.03c-.15.045-.224.075-.224.225v.958l1.063-.854c.134-.104.224-.18.224-.24 0-.059-.045-.089-.105-.104l-.134-.03c-.045 0-.06-.03-.06-.06v-.15c0-.044.03-.06.06-.06h1.362c.045 0 .06.03.06.06v.165c0 .045-.03.06-.06.06l-.21.06a.68.68 0 0 0-.314.18l-.674.599 1.094 1.826c.074.12.164.18.254.195l.15.045c.045.015.06.03.06.06v.164a.114.114 0 0 1-.075.03zm3.61 0h-3.235c-.045 0-.06-.03-.06-.06v-.164c0-.045.03-.06.06-.06l.225-.045c.134-.03.194-.075.194-.225V18.84c0-.15-.06-.195-.194-.225l-.225-.045c-.045 0-.06-.03-.06-.06v-.165c0-.044.03-.06.06-.06h3.1c.045 0 .06.03.06.06v.869c0 .045-.03.06-.06.06h-.21a.123.123 0 0 1-.12-.075l-.194-.374c-.06-.12-.15-.165-.345-.165h-.614v1.078h.315c.09 0 .15-.03.18-.135l.03-.164c.014-.045.03-.075.059-.075h.21c.045 0 .06.03.06.06v.988c0 .045-.03.075-.06.075h-.21c-.03 0-.045-.03-.06-.075l-.03-.165c-.03-.105-.09-.135-.18-.135h-.314v1.198h.719c.224 0 .344-.045.374-.18l.135-.479c.015-.045.045-.06.09-.06h.284c.045 0 .075.03.075.09v.974c0 .06-.015.074-.06.074zm4.626 0h-1.348c-.074 0-.104-.045-.12-.09l-.598-1.377h-.375v.913c0 .15.03.18.135.21l.18.045c.045.015.075.03.075.06v.165c0 .044-.03.06-.06.06H28.28c-.045 0-.06-.03-.06-.06v-.165c0-.045.03-.06.06-.06l.225-.045c.135-.03.195-.075.195-.21V18.84c0-.135-.045-.195-.18-.225l-.24-.06c-.045 0-.06-.03-.06-.06v-.15c0-.044.03-.06.06-.06h2.291c.898 0 1.393.345 1.393.974 0 .404-.27.704-.63.838l.57 1.108c.06.12.12.165.21.195l.224.06c.045.015.075.03.075.06v.164c-.03.03-.045.045-.09.045zm-2.186-3.144h-.255v1.303h.195c.344 0 .584-.225.584-.66-.015-.403-.24-.643-.524-.643z" fill="#fff" style="stroke-width:1.4"/></svg>