<svg width="40" height="40" fill="none" xmlns="http://www.w3.org/2000/svg"><g clip-path="url(#a)" transform="matrix(1.4 0 0 1.4 -7.996 -7.99)"><mask id="b" mask-type="alpha" maskUnits="userSpaceOnUse" x="10" y="13" width="21" height="14"><path fill="#fff" d="M10 13.357h20v13.286H10z"/></mask><g mask="url(#b)" fill-rule="evenodd" clip-rule="evenodd"><path d="m19.133 16.776 2.359-3.03s1.093-.669 1.951-.252c.986.482.964 1.191.964 1.191l.065 2.364 2.494-3.044s.74-.604 1.65-.483c1.174.15 1.363 1.325 1.363 1.325l-.098 8.422s-.18 1.573-1.814 1.621c-1.611.053-1.846-1.75-1.846-1.75l-.032-2.236-2.689 3.401s-.379.695-1.879.229c-.573-.177-.846-.962-.936-1.286.27-.665.419-1.391.419-2.153 0-1.725-.764-3.27-1.97-4.319z" fill="#0b94a2"/><path d="M10 21.095a5.387 5.387 0 1 1 7.765 4.835v-7.826h-4.792v7.808A5.388 5.388 0 0 1 10 21.095z" fill="#9bcecf"/><path d="M12.957 24.163a2.43 2.43 0 1 1 4.86 0 2.43 2.43 0 0 1-4.86 0z" fill="#0b94a2"/></g></g><defs><clipPath id="a"><path fill="#fff" d="M0 0h40v40H0z"/></clipPath></defs></svg>