<svg width="40" height="40" fill="none" xmlns="http://www.w3.org/2000/svg"><g clip-path="url(#a)" transform="matrix(1.4 0 0 1.4 -8 -8)" fill-rule="evenodd" clip-rule="evenodd" fill="#fff"><path d="M27.397 20.418v1.12h.63v-1.102c0-.418.16-.555.445-.555h.22v-.556h-.27c-.657 0-1.025.4-1.025 1.093zM18.561 20.418v1.12h.624v-1.102c0-.418.161-.555.45-.555h.22v-.556h-.27c-.657 0-1.024.4-1.024 1.093zM28.935 19.155c0-.078.01-.372.266-.537.18-.105.363-.105.556-.105H30v.49h-.142c-.097 0-.193.006-.243.102-.037.05-.037.083-.037.174v.074H30v.505h-.422v1.271s-.014.409-.363.409h-.28s-.004-2.314 0-2.383zM11.07 20.968c.087 0 .174.005.261 0 .143-.009.262-.022.35-.142.073-.092.073-.188.073-.23 0-.252-.184-.339-.271-.353-.07-.014-.202-.014-.363-.014h-.44v.652s.004.087.087.087zm-.023-1.28c.234 0 .39.009.486-.037.06-.027.16-.1.16-.275 0-.17-.118-.244-.174-.257-.091-.037-.202-.037-.399-.037h-.44v.606zm-.032-1.175c.165 0 .335-.005.495.009.11.014.441.037.684.29.12.132.18.284.18.467a.65.65 0 0 1-.29.565c-.06.041-.087.05-.147.073.101.042.16.088.198.115.128.083.316.27.316.629a.904.904 0 0 1-.147.496c-.284.408-.803.38-.927.38H10.436c-.422 0-.436-.43-.436-.43v-2.594zM15.118 19.348h.643v2.19h-.643zM22.89 20.45c0 .275.082.422.17.519a.372.372 0 0 0 .303.128.394.394 0 0 0 .247-.073c.134-.092.22-.267.22-.597 0-.05.02-.367-.183-.533a.398.398 0 0 0-.27-.096c-.235.01-.487.17-.487.652zm1.579-1.937v3.025h-.638c0-.01 0-.16.018-.257a.548.548 0 0 1-.142.183c-.17.147-.418.147-.478.147-.068 0-.243 0-.413-.083-.248-.123-.569-.43-.569-1.064 0-.083.01-.285.083-.496.142-.409.463-.689.913-.689.244 0 .404.087.487.147.046.046.064.083.082.101v-.62s-.009-.394.409-.394zM14.2 20.179c0-.014 0-.05-.018-.096-.041-.198-.22-.312-.418-.312a.455.455 0 0 0-.44.307c-.019.041-.023.092-.033.106zm-.9.454c0 .101.028.18.088.267a.46.46 0 0 0 .404.21.43.43 0 0 0 .39-.201h.656c-.243.666-.83.716-1.074.716a1.532 1.532 0 0 1-.422-.073c-.464-.17-.698-.606-.698-1.084 0-.124.014-.486.253-.794.114-.151.38-.4.876-.4.074 0 .257.005.455.088.22.092.5.312.606.84.004.055.037.197.037.358 0 .018 0 .05-.01.073zM17.63 20.179c0-.014 0-.05-.015-.096-.04-.198-.22-.312-.417-.312a.456.456 0 0 0-.445.307.595.595 0 0 0-.028.106zm-.905.454a.61.61 0 0 0 .087.267.472.472 0 0 0 .409.21.437.437 0 0 0 .39-.201h.652c-.234.666-.822.716-1.065.716a1.43 1.43 0 0 1-.423-.073c-.468-.17-.706-.606-.706-1.084 0-.124.013-.486.257-.794.119-.151.385-.4.872-.4.078 0 .261.005.454.088.22.092.51.312.606.84.005.055.037.197.037.358 0 .018 0 .05-.01.073zM21.389 20.005a.296.296 0 0 0-.046-.11c-.046-.083-.156-.157-.344-.157-.06 0-.106.01-.12.01-.138.036-.193.123-.193.188 0 .073.07.11.088.119.032.023.142.041.252.073l.239.042.202.046c.225.06.408.124.51.344.013.041.059.151.059.285 0 .073-.01.248-.133.422-.124.188-.367.344-.854.344-.477 0-.72-.147-.863-.317a.829.829 0 0 1-.174-.468h.61a.29.29 0 0 0 .05.16c.051.074.175.157.39.157.024 0 .074 0 .134-.014.023-.009.197-.05.197-.206 0-.152-.137-.175-.376-.225-.409-.097-.615-.138-.771-.28a.544.544 0 0 1-.17-.413c0-.193.073-.317.11-.381.129-.184.353-.345.817-.345.106 0 .56-.004.826.317a.633.633 0 0 1 .156.409zM25.414 20.45c0 .496.28.647.524.647a.59.59 0 0 0 .238-.05c.147-.078.285-.257.285-.62 0-.037 0-.175-.041-.298a.467.467 0 0 0-.482-.345c-.244.01-.524.147-.524.666zm1.309-.914c.261.22.385.57.385.9 0 .487-.27.955-.748 1.115-.087.028-.22.06-.427.06-.083 0-.266 0-.473-.073-.454-.175-.693-.615-.693-1.088 0-.427.184-.693.294-.826.142-.138.413-.345.895-.345.124.01.468.014.767.257zM15.812 18.72c0 .188-.17.344-.377.344-.197 0-.367-.156-.367-.345 0-.197.17-.344.367-.344.207 0 .376.147.376.344z"/></g><defs><clipPath id="a"><path fill="#fff" d="M0 0h40v40H0z"/></clipPath></defs></svg>