<svg width="40" height="40" fill="none" xmlns="http://www.w3.org/2000/svg"><g clip-path="url(#a)" transform="matrix(1.4 0 0 1.4 -8.002 -8.01)"><g clip-path="url(#b)"><path fill-rule="evenodd" clip-rule="evenodd" d="m16.568 26.75 3.11-7.845c.26-.653.333-.435.52.095l2.248 5.945c.098.26.386 1.1.63 1.636.202.44.317.68.546.1l4.841-12.246c.175-.443.438-.785.745-.919.348-.151.883-.078.791-.385-.033-.052-.153-.095-.317-.098-.891-.017-1.777.012-2.658 0-.163-.003-.598.073-.36.278.208.178 1.056-.003 1.166.618.046.262-.036.662-.179 1.02l-3.811 9.506c-.189.47-.26.408-.4.019l-3.658-10.145c-.183-.853.19-.825.478-.91.383-.11.396-.42-.101-.419l-2.945.003c-.363 0-.33.278-.113.368.262.107.805.015 1.128.583l1.215 3.122c.288.75-.024 1.017-.289 1.673l-2.306 5.786c-.208.523-.308.31-.457-.09l-3.496-9.399a3.87 3.87 0 0 1-.195-.7c-.17-1.065.492-.742.703-1.033.23-.315-.098-.286-.303-.285l-2.489.018c-.204-.003-.535-.068-.59.155-.112.465.65-.033 1.222.963.122.214.29.533.439.924l4.365 11.534c.158.418.31.66.52.128z" fill="#00baac"/></g></g><defs><clipPath id="a"><path fill="#fff" d="M0 0h40v40H0z"/></clipPath><clipPath id="b"><path fill="#fff" transform="translate(10 13)" d="M0 0h20v14.051H0z"/></clipPath></defs></svg>