<svg width="40" height="40" fill="none" xmlns="http://www.w3.org/2000/svg"><path fill-rule="evenodd" clip-rule="evenodd" d="M6.756 8.664c-.476.934-.476 2.156-.476 4.6v13.471c0 2.445 0 3.668.476 4.602a4.364 4.364 0 0 0 1.908 1.907c.934.476 2.156.476 4.6.476h13.471c2.445 0 3.668 0 4.602-.476a4.364 4.364 0 0 0 1.907-1.907c.476-.934.476-2.157.476-4.602v-13.47c0-2.445 0-3.667-.476-4.601a4.364 4.364 0 0 0-1.907-1.908c-.934-.476-2.157-.476-4.602-.476h-13.47c-2.445 0-3.667 0-4.601.476a4.364 4.364 0 0 0-1.908 1.908Zm8.363 6.43c.393.215.842.322 1.346.322.497 0 .94-.107 1.328-.321.388-.215.692-.52.911-.915.22-.396.329-.855.329-1.378 0-.52-.11-.98-.329-1.381-.219-.4-.524-.71-.915-.929a2.628 2.628 0 0 0-1.324-.332c-.504 0-.952.11-1.343.332a2.34 2.34 0 0 0-.918.929c-.219.4-.328.86-.328 1.381 0 .523.11.982.328 1.378.219.395.524.7.915.915zm2.013-.932c-.195.12-.422.18-.681.18-.26 0-.487-.06-.682-.18a1.202 1.202 0 0 1-.449-.53 2.002 2.002 0 0 1-.159-.833c0-.32.052-.598.156-.834.106-.235.255-.414.448-.537.196-.125.424-.187.686-.187.261 0 .488.062.681.187.196.123.347.302.453.537.105.236.158.513.158.834 0 .32-.053.597-.158.83a1.19 1.19 0 0 1-.453.533zm-8.004-3.92v5.093h1.795c.55 0 1.022-.107 1.412-.322.391-.214.687-.512.887-.893.2-.382.3-.823.3-1.325s-.1-.944-.3-1.328a2.125 2.125 0 0 0-.887-.9c-.39-.217-.861-.326-1.412-.326Zm2.505 3.899a1.347 1.347 0 0 1-.721.187h-.558v-3.08h.554c.278 0 .518.065.721.194.205.127.362.308.47.54.11.234.166.505.166.813 0 .306-.054.576-.163.809-.108.23-.265.41-.47.537zm8.901 1.194-1.31-5.094h1.232l.654 2.763c.026.115.05.226.07.332l.064.282h.007l.064-.282.08-.332.707-2.763h.982l.703 2.763c.03.113.058.222.082.328.025.104.048.199.067.286h.007l.056-.286c.024-.106.05-.215.078-.328l.653-2.763h1.23l-1.307 5.094h-1.23l-.699-2.773a12.938 12.938 0 0 1-.124-.54h-.007c-.04.169-.083.347-.13.533l-.7 2.78zm7.972 8.514c-.43 0-.798-.063-1.102-.19-.303-.13-.54-.32-.71-.573-.167-.254-.26-.565-.282-.932h1.296a.84.84 0 0 0 .1.385.684.684 0 0 0 .271.258c.12.061.266.092.438.092a1.1 1.1 0 0 0 .374-.057.519.519 0 0 0 .24-.176.483.483 0 0 0 .086-.286.512.512 0 0 0-.075-.287.497.497 0 0 0-.236-.183 2.218 2.218 0 0 0-.463-.124 5.061 5.061 0 0 1-1.024-.268 1.45 1.45 0 0 1-.622-.463c-.146-.2-.22-.46-.22-.777 0-.353.075-.655.223-.905.151-.252.37-.443.657-.575.29-.134.639-.202 1.046-.202.393 0 .731.063 1.014.188.285.122.507.307.667.554.16.245.255.548.283.908h-1.29a.827.827 0 0 0-.095-.367.568.568 0 0 0-.24-.237.79.79 0 0 0-.37-.081.83.83 0 0 0-.336.063.507.507 0 0 0-.227.188.521.521 0 0 0-.08.293c0 .1.022.184.066.25a.539.539 0 0 0 .234.163c.11.045.264.086.462.124.436.082.79.179 1.063.29.274.11.486.269.636.476.151.205.226.478.226.82 0 .36-.079.663-.236.907a1.421 1.421 0 0 1-.686.544c-.299.12-.661.18-1.088.18zm-15.492-.324c.393.214.842.321 1.346.321.496 0 .94-.107 1.328-.321.388-.215.692-.52.911-.915.219-.396.329-.855.329-1.378 0-.52-.11-.98-.329-1.381-.219-.4-.524-.71-.915-.93a2.628 2.628 0 0 0-1.324-.331c-.504 0-.952.11-1.343.332a2.34 2.34 0 0 0-.918.929c-.22.4-.329.86-.329 1.381 0 .523.11.982.329 1.378.219.395.524.7.915.915zm2.013-.933c-.195.12-.423.18-.682.18-.259 0-.486-.06-.681-.18a1.202 1.202 0 0 1-.449-.53 2.002 2.002 0 0 1-.159-.833c0-.32.052-.599.156-.834.106-.236.255-.415.448-.537.196-.125.424-.187.685-.187.262 0 .49.062.682.187.196.122.346.301.452.537.106.235.16.513.16.834 0 .32-.054.597-.16.83a1.19 1.19 0 0 1-.452.533zm-5.934 1.197c.092.008.204.011.336.011.407 0 .744-.053 1.01-.159.266-.106.466-.275.6-.509.134-.233.202-.54.202-.921v-3.54H9.994v3.547a.63.63 0 0 1-.074.332.373.373 0 0 1-.205.162 1.06 1.06 0 0 1-.34.046c-.171 0-.358-.01-.558-.028v1.028c.095.016.186.027.276.031zm8.42-.024V18.67h1.237l1.625 2.702c.073.125.157.265.25.42h.008v-3.118l1.194-.004v5.094H20.58l-1.61-2.667a46.962 46.962 0 0 1-.252-.42h-.007v3.087zm5.144-5.094v5.094h3.398v-1.042H23.9v-1.081h1.851v-.922h-1.85v-1.007h2.154v-1.042z" fill="#fff" style="stroke-width:1.4"/></svg>