<svg width="40" height="40" fill="none" xmlns="http://www.w3.org/2000/svg"><g clip-path="url(#a)" transform="matrix(1.4 0 0 1.4 -7.984 -7.993)"><mask id="b" mask-type="alpha" maskUnits="userSpaceOnUse" x="10" y="12" width="20" height="16"><path fill="#fff" d="M10 12.742h20v14.516H10z"/></mask><g mask="url(#b)"><path fill="#fff" d="M10.072 12.813h19.777v14.339H10.072z"/><path fill="#0e2050" d="M10.072 12.813h19.777v14.339H10.072z"/><path fill="#fff" d="M10.665 13.407h18.59v13.152h-18.59z"/><path fill="#000" stroke="#fff" stroke-width=".2" d="M10.665 13.407h18.59v13.152h-18.59z"/><path fill="#e30613" d="M11.258 14.001h17.403v11.964H11.258z"/><path fill="#000" stroke="#e30613" d="M11.258 14.001h17.403v11.964H11.258z"/><path fill="#0e2050" d="M11.852 14.594h16.219v10.777H11.852z"/><path fill-rule="evenodd" clip-rule="evenodd" d="M13.197 24.217h1.242V21.48h.013l.742 2.736h.977l.742-2.736h.013v2.736h1.242v-4.268h-1.87l-.61 2.51h-.01l-.61-2.51h-1.87zM18.846 24.217h1.313v-1.29h.777c.968 0 1.674-.485 1.674-1.52v-.015a1.455 1.455 0 0 0-1.57-1.443h-2.194zm1.313-3.175h.587c.322 0 .62.026.62.413 0 .387-.359.455-.698.455h-.51z" fill="#fff"/><path fill-rule="evenodd" clip-rule="evenodd" d="M20.159 21.042h.587c.322 0 .62.026.62.413 0 .388-.359.455-.698.455h-.51z" fill="#0e2050"/><path fill-rule="evenodd" clip-rule="evenodd" d="M27.02 21.54c-.113-1.068-.758-1.685-1.936-1.685-1.316 0-2.164.884-2.164 2.23 0 1.26.784 2.235 2.164 2.235a1.84 1.84 0 0 0 1.936-1.777h-1.29c-.078.4-.252.712-.694.712-.613 0-.813-.596-.813-1.17 0-.575.2-1.172.813-1.172a.683.683 0 0 1 .687.626zM19.175 18.159v.01c0 .268.221.49.49.49h.01v-1.33c-.494 0-.5.536-.5.536h-.645V16.42h-.155l.474-.623.435.623h-.122v.413h.5v-.884h-.155l.468-.626.477.626h-.158v.884h.52v-.413h-.159l.471-.623.475.623h-.162v1.455h-.626s0-.546-.506-.546v1.32h.016c.27 0 .49-.221.49-.49v-.01h.668a1.27 1.27 0 0 1-.355.716c-.322.3-1.138.294-1.138.294s-.794 0-1.126-.294a1.1 1.1 0 0 1-.355-.716z" fill="#fff"/></g></g><defs><clipPath id="a"><path fill="#fff" d="M0 0h40v40H0z"/></clipPath></defs></svg>