<svg width="40" height="40" fill="none" xmlns="http://www.w3.org/2000/svg"><path fill-rule="evenodd" clip-rule="evenodd" d="M27.94 20.522c0 1.045.627 1.881 1.88 1.881 1.046 0 1.672-.836 1.672-1.88h-.626c0 .835-.418 1.253-1.045 1.253-.836 0-1.045-.418-1.045-1.254v-2.925h-.836z" fill="#fff" style="stroke-width:1.4"/><path fill="#fff" style="stroke-width:1.4" d="M26.478 17.597h.682v4.68h-.682z"/><path fill-rule="evenodd" clip-rule="evenodd" d="M17.91 20.104a2.319 2.319 0 0 0 2.299 2.299 2.319 2.319 0 0 0 2.298-2.299c0-1.253-1.044-2.507-2.298-2.507H20v.627h.209c1.045 0 1.672.836 1.672 1.88 0 1.045-.627 1.672-1.672 1.672s-1.672-.627-1.672-1.672zM30.866 18.85c0 .628.418.837.835 1.046.21.208.627.208.836.417.627.21.627.418.627.627 0 .627-.209.836-.836.836v.627c1.045 0 1.672-.627 1.672-1.254s-.418-1.045-1.045-1.253c-.209-.21-.627-.418-.835-.418-.419-.21-.419-.418-.419-.627 0-.418.21-.627.627-.627.627 0 .836.209 1.045.627h.418c.209-.627-.418-1.254-1.463-1.254-.835 0-1.462.627-1.462 1.254zM22.716 18.224h1.463c.418 0 .836.418.836 1.045 0 .418-.418.835-.836.835h-.836v.627h.627l.836 1.672h.836l-1.045-1.88c.418-.21 1.045-.627 1.045-1.254 0-1.045-.627-1.672-1.463-1.672h-1.463z" fill="#fff" style="stroke-width:1.4"/><path fill-rule="evenodd" clip-rule="evenodd" d="M15.612 18.224h.836v4.179h.836v-4.18h1.88v-.626h-3.552zM8.925 22.403h.627l1.463-3.97 1.463 3.97h.835l-1.88-4.806h-.836zM6 20.94c0 .836.418 1.463 1.672 1.463v-.627c-.627 0-1.045-.418-1.045-.836v-.209H6Zm.209-2.09c0 .419.209.837.627 1.046.418.208.627.208 1.045.417.209.21.418.21.418.418h.835c-.209-.418-.418-.835-.835-.835-.418-.21-.836-.418-1.045-.418-.418-.21-.418-.418-.418-.627 0-.418.209-.627.836-.627s.835.209.835.627h.627c0-.627-.418-1.254-1.462-1.254-1.045 0-1.463.627-1.463 1.254zM12.478 18.224h1.462c.418 0 .836.418.836 1.045 0 .418-.418.835-.836.835h-.836v.627h.627l.836 1.672h.836l-1.045-1.88c.627-.21 1.045-.627 1.045-1.254 0-1.045-.627-1.672-1.463-1.672h-1.462z" fill="#fff" style="stroke-width:1.4"/></svg>