<svg width="40" height="40" fill="none" xmlns="http://www.w3.org/2000/svg"><g clip-path="url(#a)" transform="matrix(1.4 0 0 1.4 -7.86 -8)"><g clip-path="url(#b)" fill="#046ac2"><path d="M21.467 15.134c.05.05.106.09.172.113.023.018.06.028.04.07-.423-.25-.343-.193-.52-.283a4.479 4.479 0 0 0-1.68-.465c-.698-.058-1.364.063-2.013.304a3.885 3.885 0 0 0-.697.366c-.054.033-.461.223-.532.219-.014-.097.426-.268.484-.309.218-.156.461-.263.706-.367.082-.04.166-.07.248-.108 1.258-.397 2.474-.315 3.64.32.064.034.114.08.152.14z"/><path d="M17.447 14.808c-.257.128-.524.239-.755.413-.037.027-.086.041-.096.096a4.263 4.263 0 0 0-.865.757c-.041.047-.107.119-.153.163-.006-.073.054-.106.093-.152.04-.046.062-.087-.026-.1.05-.191.212-.298.332-.436.15-.172.339-.301.538-.417.225-.13.41-.327.666-.408.061-.02.118-.055.184-.043.07.012.132.035.081.127zM21.68 15.317l-.041-.07c.258.163.525.317.67.605-.208-.18-.397-.384-.63-.535zM19.632 19.397c-.1-.08-.193-.169-.3-.24-.151-.101-.305-.111-.44.038-.089-.065-.103.022-.12.067a1.283 1.283 0 0 0-.109.46c.001 1.304-.009 2.608.007 3.912.004.351.042.704.027 1.056-.072 1.609-.014 3.218-.033 4.827 0 .035 0 .07-.003.106-.015.169-.05.207-.218.204-.335-.004-.67.003-1.004.001.315.002.63-.004.945.002.127.003.26-.005.365.092-.013.01-.027.029-.04.029-.55-.002-1.1-.006-1.651-.01a.077.077 0 0 1-.023-.052c.004-.05.01-.101.008-.152 0-3.346 0-6.691-.002-10.037 0-.225.019-.444.07-.662.049-.382.227-.704.46-1.006.375-.485.892-.653 1.475-.688-.142.012-.283.03-.423.048-.059.008-.131.033-.16-.055.072-.079.18-.1.27-.104.294-.01.593-.057.883.045-.014.069-.014.069-.103.09.423.12.831.269 1.151.578.231.223.453.458.667.698a254.62 254.62 0 0 0 2.68 2.937c.363.392.718.79 1.087 1.176.133.14.259.287.39.43.202.157.325.384.497.568.176.189.364.367.535.56.376.426.786.821 1.143 1.266.175.219.378.417.574.619.278.286.533.593.806.884.06.064.082.14.083.225 0 .663.001 1.327-.001 1.99 0 .063.011.14-.066.168-.064.023-.112-.028-.15-.07-.304-.325-.642-.618-.902-.984-.143-.201-.328-.37-.508-.537-.376-.349-.684-.757-1.017-1.143-.108-.125-.235-.227-.349-.346-.636-.666-1.227-1.372-1.871-2.031-.266-.272-.513-.565-.764-.852-.29-.33-.591-.65-.892-.97a58.245 58.245 0 0 1-1.29-1.418.56.56 0 0 0-.103-.094c-.251-.231-.43-.527-.676-.763-.397-.382-.718-.837-1.142-1.193a.292.292 0 0 0-.211-.078c.196.044.3.162.407.272.036.035.08.076.04.137z"/><path d="M29.122 23.423c-.093-.188-.261-.315-.397-.466-1.254-1.39-2.513-2.776-3.77-4.162l-2.553-2.816c-.035-.039-.063-.085-.093-.127a2.059 2.059 0 0 0-.682-.58c-.073-.035-.143-.072-.178-.15 0-.064.04-.08.094-.078.41.177.709.488 1 .814.285.32.57.641.86.957a171.63 171.63 0 0 1 1.54 1.694c.419.468.842.931 1.264 1.397.574.635 1.151 1.27 1.727 1.903.354.39.672.814 1.072 1.165.052-.037.028-.094.028-.14.001-1.881 0-3.762.003-5.642a.557.557 0 0 0-.141-.385c-.422-.49-.852-.971-1.294-1.442-.33-.351-.64-.72-.958-1.081-.846-.956-1.707-1.901-2.785-2.604-.588-.384-1.206-.73-1.888-.932-.348-.103-.683-.248-1.044-.307-.422-.07-.847-.117-1.273-.157-.304-.028-.61.036-.913-.029a.18.18 0 0 0-.07.001c-.56.104-1.131.125-1.687.267a9.18 9.18 0 0 0-3.024 1.382c-.456.32-.863.698-1.259 1.094-.542.542-.97 1.166-1.338 1.825a7.934 7.934 0 0 0-.725 1.754c-.181.656-.318 1.317-.35 2.002-.016.37-.023.74-.024 1.109-.002 3.238-.001 6.475 0 9.713 0 .124-.006.247.008.37.008.066.007.13-.048.18-.121.042-.18-.007-.184-.13-.003-.058-.001-.117-.001-.175 0-3.47-.006-6.941.004-10.412.003-.819.102-1.63.315-2.428a9.195 9.195 0 0 1 1.423-3.01 8.377 8.377 0 0 1 1.41-1.542 9.007 9.007 0 0 1 3.195-1.788 8.221 8.221 0 0 1 1.604-.353 10.219 10.219 0 0 1 1.893-.029c.439.037.87.1 1.297.196.353.08.699.191 1.039.32a9 9 0 0 1 2.188 1.216c.513.382.98.818 1.423 1.283.598.63 1.16 1.292 1.746 1.932.531.579 1.042 1.176 1.576 1.752.087.093.14.198.109.335-.013.056-.003.117-.003.175l.001 5.64c0 .14-.012.28.014.421.008.043.019.1-.038.123-.05.019-.09-.004-.113-.055z"/><path d="M21.219 20.994c.189.103.298.29.443.437.225.232.432.48.649.72.337.372.681.738 1.014 1.114.242.273.491.545.743.812.58.613 1.152 1.233 1.717 1.86.21.234.446.444.651.679.234.268.484.524.694.813.146.201.339.355.513.525.393.384.687.857 1.112 1.21.066.055.116.143.184.204.034.03.06.09.112.07.055-.02.03-.082.03-.126.003-.34.002-.682.002-1.022 0-.324-.001-.647.001-.97a.307.307 0 0 0-.081-.22c-.541-.625-1.124-1.211-1.668-1.833-.341-.39-.687-.78-1.06-1.143a4.552 4.552 0 0 1-.634-.726c-.048-.071-.125-.122-.189-.182.022-.028.048-.048.085-.05.245.156.41.396.607.6.244.251.478.513.713.773.306.338.624.663.92 1.01.45.495.898.993 1.353 1.483.096.104.13.209.13.348-.005.792 0 1.585.001 2.378 0 .039.018.09-.038.103-.037.009-.064-.022-.088-.049-.46-.548-.958-1.064-1.441-1.592-1.685-1.842-3.374-3.68-5.06-5.519-.362-.393-.723-.788-1.082-1.183-.035-.038-.083-.068-.09-.126-.054-.119-.168-.185-.247-.28-.033-.04-.096-.083.004-.118zM13.217 12.258c-.345.334-.698.66-1.007 1.03a9.16 9.16 0 0 0-1.737 3.208c-.298.97-.396 1.963-.397 2.97v10.29c0 .094-.035.225.144.165a.147.147 0 0 1 .097-.036 85.689 85.689 0 0 1 3.868-.01c.059.002.117-.003.175-.003.07.002.089-.04.095-.1.01-.088.007-.176.007-.264 0-3.542.003-7.085-.003-10.627 0-.488.14-.936.308-1.383.024-.063.052-.134.139-.142-.068.254-.095.314-.095.314-.17.474-.229.96-.228 1.464.006 3.53.003 7.062.003 10.593 0 .236-.047.273-.274.272a634.834 634.834 0 0 0-3.754-.005c-.115 0-.23.007-.347.006-.182-.003-.21-.085-.21-.24.004-2.403.003-4.806.003-7.209 0-1.17-.015-2.338.01-3.507.009-.483.056-.966.14-1.448.077-.444.193-.877.318-1.306.1-.345.25-.679.403-1.006a9.16 9.16 0 0 1 2.08-2.864c.081-.075.169-.144.254-.216.018.015.02.033.008.054zM18.75 29.922c-.493-.082-.99-.018-1.507-.049a.242.242 0 0 1 .214-.098c.332 0 .666-.014.997.007.143.009.156-.037.156-.15-.003-.535-.001-1.07-.001-1.604 0-.863-.003-1.727.001-2.59.002-.48.058-.959.033-1.44-.076-1.443-.014-2.886-.035-4.33-.003-.185.074-.348.146-.512.023-.053.061-.102.137-.096v.134c-.082.16-.107.33-.106.509.01 1.662.029 3.324.018 4.986-.012 1.692-.004 3.383-.008 5.075 0 .055.02.12-.046.157z"/><path d="M14.906 17.356c-.25.467-.387.968-.388 1.496-.004 3.44-.002 6.882-.002 10.323l.001.634c0 .097-.018.173-.143.112-.056-.07-.051-.153-.051-.236-.001-3.623-.003-7.246.003-10.87 0-.34.088-.67.19-.999.188-.61.51-1.143.886-1.65.057-.075.11-.152.2-.194.045-.014.092-.021.12.028.025.044-.012.074-.037.104-.037.043-.083.079-.107.133-.182.283-.396.546-.545.85l-.127.27zM13.217 12.257l-.008-.054a8.48 8.48 0 0 1 1.75-1.188 9.777 9.777 0 0 1 1.049-.473 9.802 9.802 0 0 1 1.341-.37A8.165 8.165 0 0 1 19.128 10c.652.01 1.304.068 1.948.219.543.127 1.07.292 1.575.518.548.246 1.066.55 1.56.899a10.4 10.4 0 0 1 1.513 1.304c.682.71 1.32 1.46 1.977 2.194.359.402.715.807 1.082 1.202.143.154.284.312.427.467.069.073.09.16.09.258-.002 2.11-.001 4.218-.002 6.327 0 .049.023.122-.045.135-.065.013-.13-.012-.131-.1.068.031.137.073.126-.063-.038-.475-.014-.95-.015-1.426-.004-1.568-.009-3.137.006-4.705.002-.237-.076-.391-.224-.555-.964-1.068-1.915-2.147-2.88-3.214-.98-1.084-2.086-2.012-3.431-2.62a8.272 8.272 0 0 0-2.795-.718c-1.099-.083-2.18-.004-3.242.296a8.974 8.974 0 0 0-2.49 1.13c-.333.219-.64.471-.96.708zM17.054 29.916a.313.313 0 0 0 .004.025c-.111.034-.115-.043-.116-.117v-.563l-.005-8.03c-.001-.627-.03-1.255.01-1.882.02-.326.114-.632.252-.926.013-.013.027-.015.042-.003.027.153-.083.272-.105.412-.008.05-.088.12.025.151-.141.887-.061 1.78-.065 2.67-.012 2.718-.004 5.438-.004 8.157-.058 0-.063-.043-.067-.084-.005-.053-.003-.106-.003-.159V19.432v10.206c0 .094-.001.188.032.278z"/><path d="m17.231 18.42-.016.004-.016-.001c.109-.364.356-.623.651-.842a2.068 2.068 0 0 1 1.583-.386c.491.073.936.289 1.296.643.604.593 1.155 1.234 1.723 1.86.28.308.564.613.845.92.863.944 1.725 1.89 2.589 2.832.448.49.9.975 1.35 1.462l.49.53c.028.03.059.06.05.107-.302-.251-.537-.566-.807-.848-.484-.507-.932-1.048-1.443-1.53-.208-.156-.357-.37-.531-.558-.319-.344-.633-.692-.95-1.038-.498-.544-.995-1.09-1.497-1.632-.422-.456-.836-.92-1.258-1.376-.247-.267-.479-.55-.768-.772-.243-.187-.502-.348-.814-.396-.04-.006-.083-.015-.086-.07a1.756 1.756 0 0 0-1.161.027c-.023.055-.076.069-.125.087-.434.161-.749.462-.994.846-.03.05-.054.104-.111.131z"/><path d="M21.219 20.994c-.068.083.03.102.058.145.058.087.182.125.184.253-.408-.389-.765-.825-1.15-1.235-.233-.247-.453-.506-.679-.76-.106-.219-.305-.33-.516-.432a.317.317 0 0 1 .306.068c.31.252.542.579.823.857.35.347.66.726.974 1.104zM19.623 17.329c.652.116 1.098.54 1.52 1.006.713.788 1.432 1.57 2.149 2.354l2.174 2.38c.028.03.062.055.06.102-.013.033-.04.044-.074.045-.275-.304-.549-.608-.824-.91-.62-.681-1.254-1.346-1.868-2.031-.34-.38-.689-.752-1.038-1.125-.319-.34-.615-.701-.94-1.035a2.07 2.07 0 0 0-.69-.488c-.237-.098-.479-.17-.726-.262.078-.072.173-.022.257-.036zM17.054 29.916c-.107-.026-.065-.113-.065-.174-.002-2.431-.002-4.863-.002-7.294 0-1.034 0-2.068.002-3.101 0-.065-.024-.14.07-.226V29.575c0 .079-.03.165.034.236l-.04.105zM17.23 18.42c.258-.531.663-.893 1.232-1.063.242.012.478-.089.741-.056-.058.109-.142.09-.22.097-.4.03-.787.113-1.099.383-.368.32-.632.712-.723 1.203-.039.016-.022.08-.093.092-.036-.244.116-.439.163-.656z"/><path d="M17.447 14.808c-.02-.15-.135-.105-.198-.072-.452.237-.887.5-1.257.856-.125.12-.232.261-.347.393-.221.174-.344.427-.506.647-.192.26-.346.551-.454.852-.116.324-.239.653-.278 1.003-.02.188-.028.374-.028.561V29.57c0 .118-.003.235-.004.353-.117.027-.234.006-.351.006-.998 0-1.997-.003-2.995.001-.27.001-.54.03-.808-.007.045-.098-.007-.195-.006-.293.003-3.579-.004-7.157.01-10.736.003-.51.03-1.024.182-1.526.051-.169.07-.364.101-.546.04-.226.132-.443.21-.661.148-.416.336-.815.524-1.212.21-.446.505-.84.794-1.236.1-.138.2-.278.313-.41.33-.388.7-.74 1.088-1.065.45-.378.947-.7 1.473-.97.443-.226.905-.406 1.373-.579.482-.177.975-.279 1.473-.36.304-.05.616-.124.919-.112.585.025 1.175-.014 1.758.11.212.046.437.066.657.086.173.016.308.12.47.165.48.13.944.296 1.387.534.498.269.992.536 1.437.888.599.473 1.16.986 1.661 1.563.25.287.514.561.769.845.497.553.988 1.11 1.49 1.66.24.264.478.53.703.807.056.07.08.135.08.222l-.006 5.836c0 .054.036.134-.033.158-.06.02-.07-.065-.105-.1-.493-.49-.93-1.03-1.394-1.544-.218-.242-.433-.493-.656-.725-.331-.345-.637-.714-.976-1.051-.355-.355-.671-.75-1.006-1.126-.237-.266-.475-.533-.715-.797-.417-.46-.834-.92-1.253-1.377-.35-.383-.666-.804-1.095-1.108-.1-.071-.208-.129-.312-.192-.023-.02-.06-.01-.081-.029-.403-.33-.912-.41-1.379-.592-.078-.03-.16-.032-.242-.035-.445-.017-.89.003-1.335-.01-.295-.008-.557.113-.814.241-.034.017-.023.05-.018.078-.073.027-.147.056-.22.085z"/><path d="M17.667 14.722c-.035-.013-.094.013-.1-.046-.003-.045.037-.075.076-.087.264-.082.505-.234.796-.238.094-.002.183.018.277.016.331-.008.664.009.995-.007.25-.012.466.077.694.15.2.066.396.148.595.212.216.07.38.196.536.346-.042.003-.068.022-.069.067-1.204-.713-2.474-.827-3.8-.413z"/></g></g><defs><clipPath id="a"><path fill="#fff" d="M0 0h40v40H0z"/></clipPath><clipPath id="b"><path fill="#fff" transform="translate(10 10)" d="M0 0h19.302v20H0z"/></clipPath></defs></svg>