<svg width="40" height="40" fill="none" xmlns="http://www.w3.org/2000/svg"><g clip-path="url(#a)" transform="matrix(1.4 0 0 1.4 -7.99 -7.987)"><mask id="b" mask-type="alpha" maskUnits="userSpaceOnUse" x="10" y="10" width="20" height="20"><path fill="#fff" d="M10 10.426h20v19.147H10z"/></mask><g mask="url(#b)" fill-rule="evenodd" clip-rule="evenodd" fill="#ffa600"><path d="M22.115 10.426h.097c-.467.978-.917 1.963-1.378 2.944-.235.51-.779.824-1.324.884-.496.048-.994.042-1.492.041H10c.378-.81.753-1.62 1.134-2.428.186-.396.569-.661.977-.79.427-.124.878-.104 1.318-.11h6.82c.432-.01.88-.008 1.285-.179.215-.082.396-.228.581-.362zM20.33 14.951h5.688c1.08.034 2.227.274 3.058 1.008.638.564.912 1.441.874 2.274-.056 1.11-.401 2.223-1.075 3.114-.568.761-1.37 1.326-2.245 1.682-1.002.406-2.092.58-3.172.562h-3.473l-1.652 3.54c-.258.546-.494 1.104-.81 1.62-.294.44-.798.781-1.343.759-1.08-.015-2.161.022-3.24-.02.185-.151.419-.232.59-.403.328-.285.523-.683.705-1.07 2.03-4.355 4.066-8.709 6.094-13.065zm2.462 2.62c-.533 1.13-1.053 2.264-1.58 3.396h2.644c.62.003 1.261-.14 1.77-.508.535-.385.833-1.049.82-1.7a1.073 1.073 0 0 0-.434-.85c-.357-.258-.81-.333-1.242-.336-.66 0-1.319.003-1.978-.001z"/></g></g><defs><clipPath id="a"><path fill="#fff" d="M0 0h40v40H0z"/></clipPath></defs></svg>