<svg width="40" height="40" fill="none" xmlns="http://www.w3.org/2000/svg"><g clip-path="url(#a)" transform="matrix(1.4 0 0 1.4 -8 -8)"><g clip-path="url(#b)" fill="#e4963f"><path d="M20.036 18.277c.03-.08.055-.162.097-.237a1.138 1.138 0 0 1 1.02-.616c.087-.002.174.001.26 0 .037 0 .055.013.051.05v5.21c0 .096 0 .096-.094.096h-1.28c-.089 0-.089 0-.089-.091v-.71c-.032.004-.04.03-.053.047-.332.472-.79.73-1.358.797a2.368 2.368 0 0 1-1.35-.216c-.491-.241-.832-.628-1.054-1.123-.22-.49-.282-1.01-.265-1.542.013-.376.073-.742.21-1.094.212-.543.556-.973 1.083-1.242a2.355 2.355 0 0 1 1.28-.24c.342.027.663.12.952.31.22.143.4.325.54.546.012.02.016.047.05.055zm-1.32 3.25.106-.006c.493-.027.935-.37 1.088-.84.104-.32.118-.645.052-.973a1.262 1.262 0 0 0-.588-.866c-.259-.159-.543-.199-.84-.167-.49.053-.833.309-1.015.768-.127.322-.137.659-.086.997.036.233.116.451.267.638.255.318.597.446 1.017.449zM24.01 18.248c.02-.007.026-.025.036-.04.307-.475.753-.737 1.303-.828.427-.07.848-.04 1.248.135.53.23.862.641 1.04 1.183.086.264.13.535.134.812.016 1.065.002 2.13.008 3.195 0 .057-.013.077-.074.077-.438-.003-.876-.003-1.314 0-.065 0-.076-.023-.076-.081.001-.958.002-1.917 0-2.875 0-.219-.028-.435-.122-.636-.165-.357-.452-.544-.838-.583-.256-.025-.507 0-.736.13-.304.17-.465.44-.537.773a2.3 2.3 0 0 0-.042.484c0 .9 0 1.801.002 2.702 0 .065-.014.087-.084.086a97.579 97.579 0 0 0-1.314 0c-.06 0-.08-.015-.08-.078.002-1.734.002-3.468 0-5.203 0-.06.016-.08.078-.078.168.008.338-.012.505.025.398.086.667.324.822.697.014.034.017.073.041.103zM14.495 19.534c-.227 0-.454-.004-.68.002-.073.002-.098-.021-.113-.09a.967.967 0 0 0-.384-.604 1.105 1.105 0 0 0-.6-.194c-.61-.037-1.035.373-1.152.867-.112.466-.116.931.073 1.38.193.457.641.706 1.135.655.322-.034.589-.16.777-.43.06-.086.099-.184.175-.259a.657.657 0 0 1 .467-.197c.338-.002.676 0 1.014-.001.045 0 .064.007.055.06-.146.827-.561 1.462-1.323 1.848a2.59 2.59 0 0 1-.946.256 3.087 3.087 0 0 1-1.169-.098c-.873-.26-1.439-.831-1.699-1.704a3.225 3.225 0 0 1-.122-1.054c.019-.469.112-.92.34-1.336.32-.584.803-.967 1.439-1.15.69-.198 1.377-.186 2.043.096.702.298 1.146.834 1.36 1.563.032.109.055.22.076.33.01.051-.006.061-.053.061-.237-.002-.475-.001-.713-.001zM30 14.676a1.669 1.669 0 0 1-1.711 1.663 1.66 1.66 0 0 1-1.62-1.68c.013-.964.782-1.699 1.74-1.657a1.66 1.66 0 0 1 1.59 1.674zm-1.67.531a.537.537 0 0 0 .544-.54.547.547 0 0 0-.54-.54.544.544 0 0 0-.538.54c0 .301.236.54.535.54zM25.082 25.395c0 .284.009.569-.002.853-.017.431-.325.731-.758.75-.245.01-.478-.028-.681-.18a.644.644 0 0 1-.243-.394c-.01-.044.003-.06.05-.058.109.002.217 0 .326 0 .023 0 .043 0 .055.026.084.182.243.232.424.227.24-.006.377-.148.397-.404.006-.078.002-.156.001-.234 0-.01-.002-.024-.009-.03-.014-.01-.025.005-.032.015-.237.284-.726.294-1.005.042a.868.868 0 0 1-.28-.594c-.023-.258.022-.5.188-.71.281-.353.833-.35 1.093-.064.01.01.017.032.036.021.016-.008.01-.027.01-.042.007-.16.007-.16.167-.16.067 0 .134.004.2-.001.056-.004.067.02.067.07-.002.288 0 .577 0 .866h-.004zm-1.32-.073c-.001.043.002.1.02.156.06.187.183.307.38.329.175.02.32-.052.411-.205a.552.552 0 0 0 .019-.548.43.43 0 0 0-.626-.17c-.15.098-.208.247-.204.438zM21.725 24.672v-.17c-.001-.031.012-.043.043-.042.113 0 .227.002.34 0 .048-.002.047.025.047.06v.58c0 .33-.001.661.001.992.001.056-.015.073-.07.07a4.897 4.897 0 0 0-.307 0c-.04 0-.057-.011-.054-.053.002-.052 0-.105 0-.156-.027-.006-.035.01-.045.02-.277.319-.88.295-1.143-.129-.218-.35-.19-.867.074-1.166a.744.744 0 0 1 1.07-.032c.01.01.017.026.044.026zm-.893.627a.542.542 0 0 0 .025.185.446.446 0 0 0 .416.327.438.438 0 0 0 .423-.315.631.631 0 0 0 .012-.33.44.44 0 0 0-.64-.3c-.17.094-.23.25-.236.433zM27.17 25.44h-.561c-.043 0-.058.008-.05.056.032.17.14.286.311.326.16.038.305-.02.405-.163.015-.023.03-.033.058-.033.124.002.25.003.374 0 .05 0 .048.019.033.056-.12.3-.346.462-.66.5a.88.88 0 0 1-.554-.101.778.778 0 0 1-.387-.541 1.032 1.032 0 0 1 .04-.597c.134-.346.448-.53.85-.507.532.032.818.455.767.948-.004.047-.023.057-.067.057-.186-.002-.373 0-.56 0zm-.215-.292h.327c.078 0 .08-.002.061-.08-.04-.175-.213-.289-.424-.279a.396.396 0 0 0-.357.317c-.006.044.019.042.047.042h.346zM13.499 24.435c.511 0 .87.36.87.875 0 .52-.364.877-.891.877-.505 0-.855-.358-.854-.874.002-.522.357-.879.875-.878zm.427.865a.607.607 0 0 0-.022-.165.423.423 0 0 0-.352-.32.4.4 0 0 0-.418.2.617.617 0 0 0-.033.527c.08.224.314.327.536.243.184-.07.29-.242.289-.485zM16.63 25.963a.71.71 0 0 1-.959.062.664.664 0 0 1-.207-.4 1.4 1.4 0 0 1-.017-.238v-.86c-.001-.053.014-.07.067-.069.098.004.196.005.293 0 .06-.002.08.014.08.077a59.11 59.11 0 0 0-.001.894c0 .193.096.327.261.373.257.07.481-.097.483-.363.002-.302.002-.605 0-.907-.001-.06.017-.076.075-.074.102.005.204.003.306 0 .041 0 .055.016.055.056v1.593c0 .04-.011.056-.053.055a8.05 8.05 0 0 0-.334 0c-.038 0-.05-.014-.049-.05.002-.045 0-.088 0-.149zM10.737 25.293c0-.136-.002-.271.001-.407.001-.051-.014-.07-.068-.069-.134.002-.134 0-.134-.133 0-.056.002-.111 0-.167-.003-.042.012-.058.056-.059.145-.002.145-.004.145-.147 0-.07.002-.142 0-.213-.002-.039.008-.056.051-.055.111.002.222.002.333 0 .038 0 .05.015.05.051-.002.1.002.2-.002.3-.001.049.012.068.064.066.088-.004.177 0 .266-.002.042 0 .055.015.054.055a5.089 5.089 0 0 0 0 .253c0 .042-.016.054-.055.053-.092-.002-.183 0-.274-.001-.035 0-.054.011-.054.05.004.266-.01.532.008.799.006.084.048.12.133.126.062.004.125.006.187.005.04 0 .056.01.055.053-.003.086-.001.173-.001.26 0 .024.002.05-.036.05-.15-.006-.302.016-.45-.026-.202-.058-.314-.202-.323-.43-.006-.137-.002-.275-.002-.412h-.004zM18.863 24.684a.608.608 0 0 1 .46-.246c.028 0 .04.01.04.039v.373c0 .04-.023.042-.053.042-.062 0-.124-.002-.186.01a.314.314 0 0 0-.27.279c-.012.082-.01.164-.01.246 0 .222-.002.444 0 .667 0 .05-.012.07-.067.068a4.881 4.881 0 0 0-.313 0c-.04 0-.055-.01-.055-.052v-1.6c0-.043.018-.052.056-.051.107.002.213.002.32 0 .043-.001.06.014.058.058-.002.054 0 .108 0 .163l.02.005z"/></g></g><defs><clipPath id="a"><path fill="#fff" d="M0 0h40v40H0z"/></clipPath><clipPath id="b"><path fill="#fff" transform="translate(10 13)" d="M0 0h20v14H0z"/></clipPath></defs></svg>