<svg width="40" height="40" fill="none" xmlns="http://www.w3.org/2000/svg"><g clip-path="url(#a)" transform="matrix(1.4 0 0 1.4 -8 -8)" fill-rule="evenodd" clip-rule="evenodd" fill="#fff"><path d="M10 23.959h20v-7.917H10Zm.322-7.596h19.373v7.274H10.322Z"/><path d="M12.092 18.108v3.98h1.117c.686 0 1.203-.179 1.575-.526.364-.347.542-.846.542-1.507 0-.618-.178-1.092-.525-1.44-.356-.338-.847-.507-1.482-.507zm4.14 0v3.98h2.252v-.56h-1.6v-1.244h1.499v-.542h-1.499v-1.084h1.6v-.55zm2.947 0 .525 1.99.516 1.99h.703l.66-2.363c.026-.093.06-.229.102-.415.042-.186.068-.339.085-.449.008.076.042.212.085.407.042.194.076.338.11.448l.669 2.371h.71l1.034-3.98h-.66l-.568 2.312c-.102.398-.16.728-.195.99a8.942 8.942 0 0 0-.195-.964l-.668-2.337h-.644l-.643 2.32a8.148 8.148 0 0 0-.11.465c-.043.187-.068.364-.094.517a9.721 9.721 0 0 0-.186-.982l-.567-2.32zm5.817 0v3.98h1.43c.45 0 .797-.102 1.042-.306.246-.203.373-.482.373-.838 0-.27-.068-.474-.195-.635-.135-.152-.339-.254-.618-.305v-.034a.77.77 0 0 0 .517-.287.916.916 0 0 0 .177-.576c0-.347-.118-.601-.364-.762-.245-.153-.635-.237-1.185-.237zm-12.252.542h.567c.889 0 1.33.474 1.33 1.43 0 .974-.475 1.457-1.432 1.457h-.466zm12.895 0h.568c.296 0 .508.042.643.127.136.084.203.22.203.406 0 .203-.067.356-.186.44-.127.085-.33.127-.601.127h-.627zm0 1.625h.66c.289 0 .509.051.644.153.144.101.212.254.212.457 0 .229-.068.39-.203.491-.144.11-.347.16-.618.16h-.695z"/></g><defs><clipPath id="a"><path fill="#fff" d="M0 0h40v40H0z"/></clipPath></defs></svg>