<svg width="40" height="40" fill="none" xmlns="http://www.w3.org/2000/svg"><path fill-rule="evenodd" clip-rule="evenodd" d="m14.264 12.768-1.327.904a.077.077 0 0 0-.03.048c-.004.019 0 .04.011.056 1.964 2.816 3.001 6.136 3.001 9.602a16.7 16.7 0 0 1-3 9.584.077.077 0 0 0-.012.055c.003.02.015.037.031.048l1.325.921c.018.013.04.017.061.011a.073.073 0 0 0 .048-.038l5.22-10.548a.077.077 0 0 0 0-.067l-5.22-10.548a.078.078 0 0 0-.047-.04.076.076 0 0 0-.061.012zM25.804 6a.074.074 0 0 0-.052.034l-6.465 9.833a.073.073 0 0 0-.008.066l3.895 11.105a.071.071 0 0 0 .042.045c.02.008.043.006.062-.004l1.427-.753a.07.07 0 0 0 .037-.043.07.07 0 0 0-.005-.056 16.706 16.706 0 0 1-1.809-9.88 16.704 16.704 0 0 1 4.148-9.163.073.073 0 0 0 .02-.055c-.002-.02-.011-.038-.025-.05l-1.207-1.06a.074.074 0 0 0-.06-.018z" fill="#2f51a3" style="stroke-width:1.4"/></svg>