<svg width="40" height="40" fill="none" xmlns="http://www.w3.org/2000/svg"><g clip-path="url(#a)" transform="matrix(1.4 0 0 1.4 -8 -7.937)"><g clip-path="url(#b)" fill="#355da6"><path d="M20.09 18.135c0 .643 0 1.287.002 1.93 0 .048-.012.059-.059.058a13.81 13.81 0 0 0-.494 0c-.044 0-.056-.01-.056-.055.002-.617 0-1.234.003-1.85 0-.05-.01-.065-.062-.065-.6.002-1.199.002-1.798 0-.045 0-.059.009-.059.058.002.613.001 1.226.003 1.84 0 .044-.008.06-.057.059a12.94 12.94 0 0 0-.495 0c-.044 0-.055-.012-.055-.056v-3.206c0-.218.002-.436 0-.654 0-.037.009-.048.047-.048.17.002.34.003.51 0 .04 0 .05.01.05.05-.002.495 0 .99-.003 1.484 0 .049.014.06.062.06h1.797c.052 0 .06-.016.06-.062-.002-.49-.001-.982-.003-1.473 0-.044.008-.06.057-.059.165.004.33.004.495 0 .05-.001.057.015.057.06-.002.643-.001 1.286-.001 1.93zM11.515 16.111c.363-.008.746.102 1.1.313.05.03.116.054.136.098.02.048-.044.096-.069.145-.03.058-.067.112-.099.17-.014.027-.026.029-.051.011a1.725 1.725 0 0 0-.7-.292c-.308-.054-.615-.044-.904.091a.483.483 0 0 0-.304.46.366.366 0 0 0 .129.275c.094.088.206.15.321.205.263.125.539.215.812.314.238.087.47.189.67.35.274.223.39.514.359.863-.036.394-.261.66-.59.849-.32.184-.667.244-1.032.227a2.477 2.477 0 0 1-1.145-.353c-.044-.026-.085-.059-.128-.086-.022-.015-.026-.027-.01-.05.067-.1.133-.201.197-.303.02-.031.032-.032.06-.012.188.137.392.245.615.307.355.1.71.118 1.05-.056.218-.111.353-.284.366-.539a.431.431 0 0 0-.15-.343c-.157-.15-.352-.235-.55-.313-.243-.094-.497-.158-.734-.266-.235-.107-.462-.225-.635-.425a.848.848 0 0 1-.203-.69c.051-.413.298-.668.668-.82.246-.102.505-.131.821-.13zM16.585 16.503l-.209.3c-.014.022-.025.022-.046.008a1.76 1.76 0 0 0-1.007-.32c-.425-.009-.81.114-1.112.428a1.479 1.479 0 0 0-.383.768c-.068.36-.058.717.064 1.064.185.528.549.874 1.102.983.45.089.884.011 1.281-.231.037-.023.053-.022.076.016.05.083.104.165.16.244.025.034.016.047-.017.068-.3.19-.629.295-.98.336a2.342 2.342 0 0 1-1.123-.136c-.627-.24-1.019-.698-1.178-1.345-.173-.702-.027-1.34.447-1.89a1.983 1.983 0 0 1 1.033-.628 2.324 2.324 0 0 1 1.309.022c.171.055.421.189.583.313zM23.897 21.643c-.015.092 0 .18 0 .268v1.691c.001.047-.008.065-.06.063a4.872 4.872 0 0 0-.308-.001c-.035 0-.049-.007-.049-.046.002-.827.001-1.655 0-2.482 0-.033.007-.046.043-.046.18.002.359.002.537 0 .032 0 .044.013.054.038l.39.974.35.878c.036-.088.069-.166.1-.246l.64-1.604c.01-.028.024-.04.057-.04.174.002.348.002.521 0 .04 0 .045.013.045.048a845.08 845.08 0 0 0 0 2.467c0 .042-.012.05-.05.049a11.914 11.914 0 0 0-.383 0c-.036 0-.05-.007-.049-.047.005-.641-.006-1.282.007-1.924l-.004-.025c-.03.04-.038.081-.05.12-.085.272-.198.533-.302.797-.137.348-.278.693-.416 1.04-.011.03-.023.04-.052.038a2.137 2.137 0 0 0-.176 0c-.03.002-.045-.01-.055-.036l-.32-.811c-.12-.31-.24-.62-.373-.926l-.097-.237zM29.027 18.331v1.718c.001.05-.013.061-.061.06a13.291 13.291 0 0 0-.49 0c-.046.001-.057-.011-.057-.058v-3.424c0-.075 0-.075-.076-.075-.27 0-.538-.002-.808 0-.05.001-.062-.014-.06-.061.003-.101.002-.202 0-.303 0-.033.01-.042.043-.042h2.44c.033 0 .042.01.042.042a7.63 7.63 0 0 0 0 .314c.001.04-.01.05-.05.05-.289-.001-.578 0-.867-.002-.047 0-.057.013-.057.059v1.722zM26.24 18.33l.001 1.717c0 .047-.01.064-.06.063-.165-.004-.33-.003-.494 0-.046 0-.055-.014-.055-.057l.001-3.434c0-.076.01-.067-.068-.067-.273 0-.546-.002-.82.001-.048 0-.058-.014-.057-.06a4.84 4.84 0 0 0 0-.297c0-.04.011-.05.05-.05.387.002.773.001 1.16.001l1.244-.001c.042 0 .058.009.056.054-.003.101-.003.202 0 .303.002.04-.011.05-.05.05-.284-.002-.567 0-.85-.002-.047 0-.06.01-.06.057.003.574.002 1.148.002 1.723zM13.156 22.371v-1.228c0-.04.007-.055.05-.054.14.003.28.003.42 0 .04 0 .051.01.05.05-.001.289.001.578-.001.867 0 .044.012.055.055.055.342-.002.685-.002 1.027 0 .039 0 .05-.01.05-.05-.002-.289 0-.578-.002-.867 0-.045.012-.055.055-.055.137.003.273.003.41 0 .035 0 .044.01.044.045v2.473c0 .033-.007.047-.043.046a10.616 10.616 0 0 0-.415 0c-.046.002-.051-.017-.05-.055v-1.122c.001-.048-.01-.062-.06-.061-.338.002-.677.002-1.015 0-.044 0-.057.01-.056.055.002.376 0 .752.002 1.127 0 .045-.012.057-.056.056a8.098 8.098 0 0 0-.41 0c-.05.002-.056-.015-.056-.059.002-.408.001-.815.001-1.223zM23.372 16c.759.244 1.472 1.05 1.416 2.129a2.146 2.146 0 0 1-1.862 2.022 2.144 2.144 0 0 1-2.327-1.442c.353.567.855.91 1.523.98.671.07 1.242-.153 1.692-.651.415-.46.578-1.01.486-1.623-.091-.611-.411-1.08-.928-1.415ZM10.07 22.376l-.001-1.234c0-.041.01-.053.052-.052.278.003.556.001.835.006.187.003.37.03.537.123a.614.614 0 0 1 .336.516.826.826 0 0 1-.15.56.818.818 0 0 1-.377.283c-.16.064-.328.093-.5.1-.044.002-.054-.013-.052-.053a3.02 3.02 0 0 0 0-.223c-.002-.04.008-.053.052-.057.156-.015.3-.06.41-.182a.45.45 0 0 0 .1-.43c-.036-.15-.15-.222-.29-.257-.137-.036-.28-.034-.421-.032-.025 0-.03.01-.03.032.002.012 0 .025 0 .037 0 .697 0 1.393.002 2.09 0 .047-.01.063-.06.062a7.174 7.174 0 0 0-.388 0c-.044 0-.056-.01-.056-.056v-1.233z"/><path d="M23.88 17.238A1.48 1.48 0 0 0 21.594 17a1.471 1.471 0 0 0 .236 2.254c-.551-.15-1.146-.767-1.121-1.589a1.617 1.617 0 0 1 1.468-1.572 1.607 1.607 0 0 1 1.703 1.144zM22.153 23.567c-.186-.328-.37-.656-.554-.984-.046-.08-.042-.076.036-.127a.804.804 0 0 0 .323-.375.717.717 0 0 0 .034-.412.634.634 0 0 0-.34-.47 1.089 1.089 0 0 0-.474-.103c-.28-.006-.56-.003-.84-.006-.046 0-.06.008-.06.057.003.406.002.812.002 1.218l-.001 1.222c0 .043.012.054.053.053.133-.002.266-.003.4 0 .05.002.065-.01.064-.063-.003-.309 0-.617-.003-.925 0-.054.015-.068.065-.063.039.005.078.001.117.001.167 0 .163.002.233.152.142.308.29.614.433.92.01.022.02.026.04.023l.454-.077c.03-.005.032-.015.018-.041zm-.632-1.68c-.02.128-.058.242-.165.325a.469.469 0 0 1-.283.088c-.078.003-.156 0-.234.002-.035 0-.045-.011-.045-.046.002-.133 0-.266 0-.399 0-.129.002-.258 0-.387 0-.038.007-.053.049-.052.12.003.24.004.36.022.231.034.35.247.318.447zM18.903 23.342l-.504-1.345c-.11-.291-.219-.583-.327-.875-.01-.026-.021-.032-.045-.032h-.378c-.023 0-.035.009-.043.03l-.256.633-.39.966-.36.892c-.014.033-.006.043.03.042.113-.002.227-.002.34 0 .035.001.05-.013.06-.043.077-.207.155-.412.23-.62.013-.034.028-.048.067-.048.282.002.564.002.845 0 .038 0 .055.011.068.048.069.21.141.417.212.625.007.02.01.038.04.038h.527l-.116-.311zm-1.474-.687c-.036 0-.031-.015-.022-.039l.252-.685.1-.268.025-.063.351 1.054h-.706zM29.917 23.598a64.564 64.564 0 0 1-.198-.524l-.45-1.206c-.092-.244-.184-.488-.274-.732-.013-.036-.031-.047-.068-.046a6.435 6.435 0 0 1-.34 0c-.04-.001-.06.011-.073.048l-.209.52-.382.948-.409 1.01c-.01.027-.009.038.024.037h.356c.029.001.041-.01.05-.035.078-.21.157-.419.234-.63.012-.034.027-.045.064-.045h.85c.036 0 .052.01.063.045.068.207.14.413.21.62.01.033.025.048.062.046.076-.004.152-.001.229-.001.074 0 .149-.004.223.001.052.003.053-.016.038-.056zm-.908-.944h-.713l.39-1.058.169.506.172.515c.006.019.019.037-.018.037z"/></g></g><defs><clipPath id="a"><path fill="#fff" d="M0 0h40v40H0z"/></clipPath><clipPath id="b"><path fill="#fff" transform="translate(10 16)" d="M0 0h20v7.686H0z"/></clipPath></defs></svg>