<svg width="40" height="40" fill="none" xmlns="http://www.w3.org/2000/svg"><g clip-path="url(#a)" transform="matrix(1.4 0 0 1.4 -8.001 -7.999)" fill-rule="evenodd" clip-rule="evenodd"><path d="M27.168 21.169c.316.31.745.484 1.191.484.931 0 1.686-.741 1.686-1.655 0-.913-.755-1.654-1.686-1.654-.93 0-1.685.74-1.685 1.654V20c0 .439.178.86.494 1.169zM24.389 23.999c.234.247.553.385.886.385.691 0 1.252-.589 1.252-1.315s-.56-1.315-1.252-1.315-1.253.59-1.253 1.315v.003c0 .348.132.681.367.927zM24.399 17.87a1.276 1.276 0 1 0-.373-.9v.001c0 .338.134.661.373.9zM21.608 26.744c.189.183.445.286.712.286.555 0 1.006-.437 1.006-.975 0-.539-.45-.975-1.006-.975s-1.006.436-1.006.975v.001c0 .258.106.506.294.688zM21.593 20.67a.932.932 0 0 0 .667.283c.521 0 .943-.433.943-.967a.955.955 0 0 0-.943-.967.955.955 0 0 0-.943.967v.001c0 .256.1.502.276.683zM21.606 14.624a.98.98 0 0 0 .69.284.971.971 0 0 0 .974-.967.971.971 0 0 0-.975-.968.971.971 0 0 0-.975.968.96.96 0 0 0 .286.683zM18.732 23.53a.77.77 0 0 0 .535.214.746.746 0 0 0 .757-.734.746.746 0 0 0-.757-.734.746.746 0 0 0-.757.734v.001c0 .195.08.381.221.518zM18.728 17.527c.138.14.325.22.52.22a.742.742 0 0 0 .734-.75.742.742 0 0 0-.734-.75.742.742 0 0 0-.735.75c0 .199.078.39.215.53zM15.796 20.419c.111.109.262.17.419.17a.588.588 0 0 0 .592-.584.588.588 0 0 0-.592-.584.588.588 0 0 0-.593.584v.001c0 .155.063.303.174.413zM14.086 22.299v3.066H11.73v-3.066H10.08v7.695h1.651V26.81h2.356v3.183h1.652v-7.695z" fill="#ec6602"/><path d="M15.135 10.268v1.426c-.737-.279-1.391-.42-1.965-.42-.34 0-.61.063-.814.186-.203.123-.307.274-.307.453 0 .238.233.45.695.64l1.337.653c1.076.517 1.613 1.203 1.613 2.066 0 .717-.286 1.289-.855 1.712-.574.428-1.336.64-2.294.64-.44 0-.837-.02-1.188-.06a9.222 9.222 0 0 1-1.202-.227v-1.493c.824.279 1.572.42 2.241.42.803 0 1.203-.234 1.203-.706 0-.235-.162-.424-.492-.573l-1.484-.635c-.552-.248-.959-.55-1.22-.906a2.03 2.03 0 0 1-.397-1.245c0-.66.275-1.192.825-1.597.548-.4 1.28-.602 2.191-.602.3 0 .636.026 1.018.075.377.051.743.115 1.095.193z" fill="#099"/></g><defs><clipPath id="a"><path fill="#fff" transform="translate(10 10)" d="M0 0h20v20H0z"/></clipPath></defs></svg>