<svg width="40" height="40" fill="none" xmlns="http://www.w3.org/2000/svg"><g clip-path="url(#a)" transform="matrix(1.4 0 0 1.4 -8.134 -8)"><g clip-path="url(#b)" fill="#da374e"><path d="M25.266 19.339c-.84-2.017-1.667-4.016-2.428-6.058 2.901.521 5.064 2.705 5.623 5.544.364 1.848.216 3.664-.123 5.485-.024.13 0 .418-.34.293-2.097-.77-4.07-1.743-5.662-3.36-.287-.293-.475-.563-.418-1.062.172-1.51-.24-2.895-1.268-4.038-.286-.318-.284-.62-.202-.955.116-.466.223-.95.44-1.37.216-.42.04-.728-.123-1.055-.147-.292-.44-.299-.672-.05-.647.696-1.12 1.509-1.589 2.328-.126.22-.064.312.155.427 1.42.743 2.33 1.91 2.546 3.491.316 2.323-1.02 4.506-3.404 5.134-2.658.702-5.21-1.002-5.715-3.592-.47-2.408 1.014-4.871 3.623-5.404.262-.053.523-.126.788-.082.62.105.976-.12 1.237-.717.37-.848.932-1.597 1.557-2.283.165-.181.166-.363.147-.573-.063-.65.191-1.1.755-1.345.474-.206 1.113-.075 1.46.3.377.408.468 1.07.152 1.55-.13.2-.105.343-.032.521a73.7 73.7 0 0 0 3.056 6.498c.082.157.128.375.437.373z"/><path d="M21.644 21.518c.954 1.078 2.14 1.86 3.378 2.58.354.206.27.666.29 1a4.614 4.614 0 0 1-4.405 4.898c-2.306.098-4.246-1.484-4.708-3.566-.09-.401-.162-.81-.137-1.227.011-.168.028-.254.253-.25 2.523.044 4.26-1.147 5.329-3.435z"/></g></g><defs><clipPath id="a"><path fill="#fff" d="M0 0h40v40H0z"/></clipPath><clipPath id="b"><path fill="#fff" transform="translate(12 10)" d="M0 0h16.672v20H0z"/></clipPath></defs></svg>