<svg width="40" height="40" fill="none" xmlns="http://www.w3.org/2000/svg"><path fill-rule="evenodd" clip-rule="evenodd" d="M31.074 6H8.893c-1.61.02-2.9 1.318-2.893 2.907v22.186C5.992 32.688 7.294 33.988 8.91 34h22.18c1.616-.012 2.918-1.312 2.91-2.907V8.907a2.874 2.874 0 0 0-.852-2.053A2.95 2.95 0 0 0 31.074 6ZM19.99 31.577C13.558 31.528 8.382 26.347 8.425 20 8.382 13.653 13.558 8.472 19.99 8.423 26.424 8.467 31.604 13.65 31.561 20c.043 6.35-5.137 11.533-11.572 11.577Z" fill="url(#a)" style="fill:url(#a);stroke-width:1.4"/><path fill-rule="evenodd" clip-rule="evenodd" d="M30.724 20 22.7 16.29l.645 2.377h-6.705l.645-2.378-8.026 3.714 8.031 3.71-.645-2.377h6.705l-.645 2.377 8.02-3.71" fill="url(#b)" style="fill:url(#b);stroke-width:1.4"/><defs><linearGradient id="a" x1="30.024" y1="30.057" x2="30.024" y2="9.994" gradientUnits="userSpaceOnUse" gradientTransform="matrix(1.4 0 0 1.4 -8 -8)"><stop stop-color="#096FD2"/><stop offset="1" stop-color="#0E8EE9"/></linearGradient><linearGradient id="b" x1="25.735" y1="22.657" x2="25.735" y2="17.352" gradientUnits="userSpaceOnUse" gradientTransform="matrix(1.4 0 0 1.4 -8 -8)"><stop stop-color="#096FD2"/><stop offset="1" stop-color="#0E8EE9"/></linearGradient></defs></svg>