<svg width="40" height="40" fill="none" xmlns="http://www.w3.org/2000/svg"><g clip-path="url(#a)" transform="matrix(1.4 0 0 1.4 -7.987 -7.997)"><mask id="b" mask-type="alpha" maskUnits="userSpaceOnUse" x="10" y="10" width="20" height="20"><path fill="#fff" d="M10 10.059h20v19.882H10z"/></mask><g mask="url(#b)" fill-rule="evenodd" clip-rule="evenodd"><path d="M12.678 10.06c1.836.016 3.673-.022 5.508.017.165.479.5.874.725 1.326.604 1.115 1.276 2.193 1.894 3.3-.85 1.572-1.787 3.099-2.663 4.656-1.823.052-3.655.009-5.482.017-.846-1.579-1.8-3.097-2.66-4.667.885-1.555 1.783-3.1 2.678-4.648z" fill="#4ea0dc"/><path d="M21.834 15.322c1.803-.008 3.605.01 5.407-.012.917 1.528 1.769 3.094 2.696 4.615a2.854 2.854 0 0 1-.127.305c-.843 1.48-1.723 2.94-2.55 4.43-1.696.016-3.393-.002-5.09.008-.142-.016-.34.039-.403-.136-.873-1.533-1.788-3.042-2.633-4.589.933-1.521 1.784-3.092 2.7-4.621z" fill="#2a3054"/><path d="M10.006 25.287a182.727 182.727 0 0 1 2.719-4.73c1.788.018 3.576.021 5.363-.003a217.36 217.36 0 0 1 2.733 4.731c-.933 1.529-1.785 3.105-2.707 4.64-1.818-.038-3.636.005-5.454-.022a7.335 7.335 0 0 0-.25-.488c-.823-1.364-1.57-2.772-2.404-4.128Z" fill="#1c61a6"/></g></g><defs><clipPath id="a"><path fill="#fff" d="M0 0h40v40H0z"/></clipPath></defs></svg>