<svg width="40" height="40" fill="none" xmlns="http://www.w3.org/2000/svg"><g clip-path="url(#a)" transform="matrix(1.4 0 0 1.4 -8 -8)" clip-rule="evenodd"><path fill-rule="evenodd" d="M20.935 10h1.178c.025 0 .008.02.032.02h.351c.001.014 0 .02.008.03h.232c.025 0-.006.019.02.019h.13c.025 0-.006.02.02.02h.148c.026 0-.004.02.02.02h.154c.025 0 .067.04.091.04h.137c.069 0 .153.044.201.066.218.04.441.088.656.134.005.01.002.019.012.024.867.243 1.63.623 2.38 1.107l.875.935s-1.716-.868-1.744-.868c-.028 0-.324-.166-.446-.172a1.653 1.653 0 0 0-.44-.17c-.156-.077-.368-.115-.548-.159-.048-.053-.14-.041-.246-.068-.167-.044-.33-.06-.5-.1-.033-.037-.087-.023-.107-.03-.054-.014-.101-.035-.132-.035h-.197c-.012 0-.095-.04-.122-.04h-.272c-.026 0 .005-.02-.02-.02h-.796c-.025 0 .005.02-.02.02h-.282c-.01 0-.086 0-.108.04h-.197c-.025 0 .005.02-.02.02h-.133c-.016 0-.073.02-.088.05h-.14c-.008 0-.454.098-.64.165-.18.042-.39.08-.548.158-.289.104-.612.198-.835.337-.696.311-1.442.753-1.917 1.214-.082.037-.142.102-.212.165-.009.007-.053.008-.07.049-.017.007-.073.024-.054.071-.153.073-.245.228-.363.335-.046.04-.137.111-.145.171-.196.165-.372.424-.555.606-.002.017-.001.037-.002.06-.085.045-.137.162-.193.245-.053.075-.149.155-.183.24-.011.026-.014.054-.026.077-.017.029-.064.037-.083.072-.05.092-.092.23-.19.308-.05.136-.13.246-.164.393-.108.105-.126.303-.234.4-.031.099-.06.218-.106.326-.072.031-.024.17-.102.201-.04.208-.17.408-.186.631a.065.065 0 0 0-.043.051c-.025.236-.1.419-.125.632-.002.027-.036.048-.036.073v.21c-.052.033-.05.058-.05.068v.135c0 .025-.02-.007-.02.017v.217c-.015.002-.023.021-.04.029v.292c0 .025-.02-.006-.02.018v1.322c0 .025.02-.007.02.016v.252c0 .025.02.047.04.07v.227c0 .025.02-.007.02.018v.131c0 .006-.006.042.05.07v.179c0 .026.023.047.035.071.015.03-.017.084.024.107v.13c0 .025.035.034.037.053.01.155.04.312.109.425.077.225.09.497.228.684.034.14.1.268.16.398.004.028.385.849.36.849l.708 1.55s-1.752-1.791-1.766-1.78c-.018-.026-.412-.57-.53-.899-.088-.23-.193-.437-.308-.665-.07-.311-.242-.586-.275-.93-.022-.023-.044-.066-.066-.1v-.13c0-.026-.029-.036-.037-.061-.032-.086.003-.193-.062-.264v-.151c0-.025-.019-.056-.04-.077v-.14c-.008-.007-.016-.006-.03-.007v-.204c0-.024-.017-.034-.04-.046v-.203c0-.025-.005-.002-.018-.003v-.304c-.002-.025-.006-.003-.02-.005v-.254c-.002-.024-.007-.002-.021-.003v-.81c0-.025.011-.002.02-.009v-.219c0-.025.01 0 .02-.009v-.289c0-.024.01 0 .02-.009v-.218c-.002-.023.04-.031.04-.057v-.143c.013-.002.02 0 .03-.008v-.14c-.002-.025.039-.051.039-.076v-.18c0-.025.033-.032.036-.05.024-.168.066-.34.106-.505.041-.078.07-.224.09-.319.06-.018.027-.088.039-.127.017-.046.07-.127.06-.189.019-.014.03-.024.044-.032.043-.128.077-.27.125-.394.042-.107.108-.162.13-.277.048-.117.13-.215.168-.329.11-.195.237-.413.33-.615.1-.088.14-.214.209-.309.082-.11.19-.21.227-.34.013 0 .03 0 .046-.009.1-.152.231-.31.333-.464.063-.072.181-.14.23-.248.206-.21.408-.43.627-.615.058-.05.144-.084.207-.136.067-.055.128-.123.192-.192.066-.039.148-.078.185-.14.104-.063.239-.149.341-.237.054-.046.141-.06.197-.105.1-.082.227-.12.301-.213.088-.032.182-.065.266-.114.016-.01.015-.038.035-.044.231-.074.416-.243.672-.293.008-.016.019-.026.032-.045.136-.039.28-.088.399-.149.158-.077.36-.086.507-.169.207-.07.475-.065.668-.158.14-.031.304-.025.436-.082H20c.025 0-.005-.02.02-.02h.169c.025 0-.005-.02.02-.02h.15c.024 0-.006-.02.018-.02h.212c.01-.008.008-.015.01-.029h.316c.025 0-.005-.02.02-.02" fill="#f36f21"/><path fill-rule="evenodd" d="M11.056 15.834c.034 0 1.846-2.214 1.846-2.214l-.802 2.065s-.277.979-.334 1.253c-.019.005-.045.21-.045.21 0 .06-.06.16-.06.218v.137c0 .032-.039.102-.039.132v.175c0 .024-.02-.008-.02.017v.225c-.022.013-.04.024-.04.049v.39c-.015.001-.02 0-.03.008v1.007c.01.01.015.008.03.01v.368c0 .025.018.036.04.048v.239c0 .025.02-.007.02.016v.203c0 .025.018.038.04.06v.238c0 .025.02.039.035.06.012.019-.004.088.024.117v.14c0 .026.017.047.045.06.013.022-.003.047.025.08v.138c0 .025.03.034.036.052.013.034.007.085.02.118.057.142.06.38.15.487.02.191.082.34.158.506.006.019.005.046.03.089.05.128.12.277.145.414.017.02.048.03.064.052.03.145.115.292.165.443.068.044.065.143.11.209.084.1.137.23.223.35 0 .068.067.147.108.188.314.558.727 1.065 1.106 1.479.004.019.004.038.005.056.05.042.043.035.103.07.473.565 1.05.99 1.614 1.433a.212.212 0 0 1 .117.046c.1.09.208.128.301.222.02.003.038.003.06.003.046.074.18.14.265.172.024.018.046.04.055.064.078.036.194.083.284.125.046.044.11.106.207.099.176.102.363.18.531.27.154.031.295.104.419.17.168.043.327.102.493.143.175.075.402.135.589.17.086.07.274.05.377.09.026.01.048.036.072.036h.137c.01 0 .067.022.113.036.042.014.118-.02.13.034h.125c.004 0 .097.032.14.039l.43.01c.009 0 .006.02.03.02h.535c.025 0 .021.02.046.02.025 0 .03.002.042-.019h.52c.024-.002.02-.022.03-.022l.447-.01c.046-.006.118.007.137-.038h.14c.009-.009.007-.015.009-.03h.13a.25.25 0 0 0 .101-.04h.13c.024 0 .055-.03.082-.036.124-.038.29-.03.396-.09.124-.018.264-.064.379-.1.064-.018.174-.022.207-.068.44-.122 3.467-1.213 3.467-1.213.001.014-.24.277-.341.371l-.458.357a.855.855 0 0 0-.23.169c-.475.292-.977.64-1.46.81-.09.075-.25.117-.361.193a2.178 2.178 0 0 0-.439.168c-.064.015-.108.05-.17.06a1.336 1.336 0 0 0-.318.109c-.189.06-.432.089-.606.17-.14.02-.346.045-.474.092h-.14a.959.959 0 0 0-.112.035c-.038.014-.111-.026-.125.034h-.158c-.025 0 .006.02-.02.02h-.128c-.026 0 .005.02-.02.02h-.16c-.024 0 .006.02-.019.02h-.26c-.024 0 .006.02-.019.02h-.308c-.025 0 .004.02-.02.02h-1.383c-.026 0 .005-.02-.02-.02h-.32c-.024 0 .006-.02-.02-.02h-.228c-.025 0 .006-.02-.02-.02h-.169c-.025 0 .005-.02-.02-.02h-.129c-.025 0 .005-.02-.02-.02h-.176c-.026-.037-.142-.069-.219-.069h-.127c-.028 0-.4-.09-.487-.092-.165-.081-.391-.11-.587-.17a34.585 34.585 0 0 1-1.214-.466c-.11-.071-.277-.169-.417-.198-.19-.11-.404-.25-.61-.339a.746.746 0 0 0-.248-.168c-.225-.163-.474-.333-.706-.495-.105-.083-.168-.197-.299-.24-.314-.345-.74-.633-1.017-1.016-.05-.013-.092-.133-.158-.153-.143-.189-.267-.388-.44-.534a.34.34 0 0 0-.17-.228c0-.023 0-.042-.003-.061-.239-.318-.397-.617-.601-.946-.004-.017-.004-.036-.007-.055-.078-.105-.116-.216-.16-.336-.085-.06-.092-.192-.161-.273-.076-.233-.182-.475-.256-.71-.014-.01-.021-.028-.045-.03a8.267 8.267 0 0 0-.188-.65c-.069-.235-.114-.506-.181-.742v-.138c-.01-.008-.015-.006-.03-.008v-.142c-.001-.026-.018-.035-.04-.046v-.243c0-.003 0-.081-.04-.106v-.212c0-.025-.005-.002-.02-.005v-.301c0-.025-.018-.036-.04-.057v-1.404c.023-.01.04-.02.04-.045v-.31c0-.026.011-.002.02-.01v-.228c0-.015.04-.08.04-.097v-.21c0-.025.024-.05.036-.07.02-.042-.02-.12.034-.131v-.139c.022-.012.039-.02.039-.045v-.142c0-.009.103-.375.122-.492.003-.02.018-.043.02-.06.061-.14.104-.339.149-.506.01-.032.027-.06.041-.102.061-.016.01-.061.064-.11a3.66 3.66 0 0 1 .125-.395c.02-.013.03-.024.044-.032.027-.102.102-.19.103-.31" fill="#f36f21"/><path fill-rule="evenodd" d="M21.314 12.797h.43c.026 0 .008.02.034.02h.48c.025 0-.004.02.022.02h.208c.025 0-.006.02.02.02h.177c.002.014 0 .021.008.029h.157c.025 0 .057.036.091.037.22.014.41.04.568.119.563.119 1.057.371 1.54.632.25.167.511.325.747.516.063.068.129.12.195.186.014.014.043.015.064.032.063.052.12.172.212.185.063.122.22.236.325.352.074.076.147.158.21.247.211.3.434.653.628.964-.01.073.063.114.089.168.03.116.112.237.145.365.103.152.145.4.232.578.067.235.123.508.184.763v.137c.008.008.015.007.03.008v.181c0 .026.018.058.039.079v.228c0 .025.02-.007.02.017v.944c0 .026-.02-.006-.02.018v.266c-.022.012-.04.024-.04.049v.2c-.014.003-.02 0-.03.008v.137c0 .043-.045.245-.096.434a5.573 5.573 0 0 1 0 1.703c.107-.246.228-.488.289-.758.08-.115.125-.286.163-.437.022-.095.018-.204.073-.24v-.137c-.001-.027.06-.133.06-.177v-.163c.015 0 .022-.02.04-.03v-.147c-.001-.024.01-.001.02-.009v-.199c0-.006.04-.096.04-.116v-.391c0-.024.011-.001.019-.01v-.713c0-.026-.005-.002-.02-.005v-.273c0-.026-.005-.003-.018-.004v-.157c-.002-.024-.007-.001-.02-.003v-.182c-.002-.025-.022-.004-.02-.028v-.124l-.22-2.397 1.012 1.724c.065.149.257.908.31 1.172 0 0 .022.246.05.277v.177c0 .026.02-.007.02.018v.231c0 .025.019.058.04.08v1.19c0 .025-.04.049-.04.072v.245c0 .025-.02-.008-.02.017v.172a.173.173 0 0 1-.05.073v.225c.001.04-.046.097-.057.152-.005.027-.002.069-.006.107-.044.045-.027.103-.039.147-.023.08-.064.214-.08.297-.065.183-.15.419-.21.627-.1.14-.15.32-.208.486a3.981 3.981 0 0 0-.379.665c-.09.089-.17.228-.229.338-.187.186-.342.459-.553.64-.01.026-.03.056-.033.083-.223.209-.44.434-.685.613-.044.043-.053.045-.072.092-.046.015-.051.037-.097.047-.354.328-.793.537-1.2.788-.08.01-.146.063-.207.11a1.04 1.04 0 0 0-.3.129c-.14.03-.301.102-.438.168-.2.037-.387.099-.567.168-.16.022-.344.048-.494.093h-.135c-.026 0 .005.02-.02.02h-.13c-.024 0 .006.02-.02.02h-.122c-.008.009-.007.016-.008.029h-.248c-.024 0 .005.02-.02.02h-.347c-.025 0 .005.02-.02.02h-.946c-.025 0 .005-.02-.02-.02h-.359c-.024 0 .006-.02-.02-.02h-.236c-.002-.013 0-.02-.008-.029h-.133c-.025 0 .005-.02-.02-.02h-.13c-.024 0 .006-.02-.02-.02h-.123c-.035 0-.415-.087-.507-.093-.179-.069-.372-.113-.568-.168-.253-.127-.552-.22-.817-.339-.212-.136-.42-.234-.627-.337-.014-.028-.027-.052-.051-.063-.247-.104-.404-.274-.617-.394-.004-.051-.43-.396-.43-.396s1.586.412 1.673.453a5.584 5.584 0 1 1 7.962-7.769 1.807 1.807 0 0 0-.15-.464c-.016-.05-.016-.087-.026-.135-.079-.087-.068-.257-.163-.35a3.882 3.882 0 0 0-.288-.556c-.156-.373-.478-.707-.713-1.037a11.86 11.86 0 0 0-.572-.58c-.009-.003-.027-.003-.051-.006v-.03c-.123-.068-.207-.216-.338-.247-.001-.012-.001-.022-.004-.03-.202-.132-.41-.29-.64-.41-.198-.156-.408-.246-.645-.327a1.773 1.773 0 0 0-.428-.168 4.521 4.521 0 0 0-.908-.253c-.327-.05-.517-.033-.849-.035-1.199-.009-3.054.35-3.054.35v-.036c.108-.066.223-.154.348-.193.013-.067.103-.054.154-.103.041-.007.095-.044.13-.061.144-.055.325-.125.477-.198.158-.077.36-.086.508-.168.2-.035.43-.086.646-.133h.178c.008-.008.006-.015.008-.029h.157c.025 0-.005-.02.02-.02h.209c.025 0-.005-.02.02-.02h.477c.026 0-.004-.02.02-.02z" fill="#f36f21"/><path fill-rule="evenodd" d="M24.737 21.602a2.274 2.274 0 1 1 0 4.55 2.274 2.274 0 0 1 0-4.55z" fill="#6c6e70"/><path d="M24.737 21.602a2.274 2.274 0 1 1 0 4.55 2.274 2.274 0 0 1 0-4.55z" stroke="#6c6e70" stroke-width=".082"/></g><defs><clipPath id="a"><path fill="#fff" d="M0 0h40v40H0z"/></clipPath></defs></svg>