<svg width="40" height="40" fill="none" xmlns="http://www.w3.org/2000/svg"><mask id="a" mask-type="alpha" maskUnits="userSpaceOnUse" x="10" y="20" width="20" height="9"><path fill-rule="evenodd" clip-rule="evenodd" d="m10.39 20.912-.059-.102.06.102Zm18.748.207.168-.29-.168.29Zm-18.64-.02-.108-.187.108.186Zm.892 1.548 3.362 5.823c.002.002.007.004.01.004h10.125c.002 0 .006-.003.008-.005l4.243-7.35c-.414.716-.762 1.31-.9 1.496-.218.297-.58.604-.982.81-1.065.546-2.4.585-3.039.585h-8.786c-.637 0-1.976-.039-3.038-.584a2.906 2.906 0 0 1-.985-.81c-.137-.19-.491-.791-.91-1.518l.892 1.549Z" fill="#fff"/></mask><g mask="url(#a)" transform="matrix(1.4 0 0 1.4 -7.944 -8.078)"><path fill-rule="evenodd" clip-rule="evenodd" d="m10.39 20.912-.059-.102zm18.748.207.168-.29zm-18.64-.02-.108-.187.108.186zm.892 1.548 3.362 5.823c.002.002.007.004.01.004h10.124c.003 0 .007-.002.01-.005l4.242-7.35c-.414.716-.762 1.31-.9 1.496-.218.297-.58.604-.982.81-1.065.547-2.4.586-3.039.586h-8.786c-.637 0-1.976-.04-3.038-.585a2.906 2.906 0 0 1-.985-.81c-.137-.19-.491-.791-.91-1.518z" fill="url(#b)" style="fill:url(#b)"/></g><mask id="c" mask-type="alpha" maskUnits="userSpaceOnUse" x="10" y="20" width="20" height="9"><path fill-rule="evenodd" clip-rule="evenodd" d="m10.331 20.81.06.102-.06-.102Zm18.85.234c.042-.07.084-.143.125-.215l-.124.215Zm-18.683.054-.108-.186.108.186Zm.892 1.549 3.362 5.823c.002.002.007.004.01.004h10.125c.002 0 .006-.003.008-.005l4.243-7.35c-.414.716-.762 1.31-.9 1.496-.218.297-.58.604-.982.81-1.065.546-2.4.585-3.039.585h-8.786c-.637 0-1.976-.039-3.038-.584a2.906 2.906 0 0 1-.985-.81c-.137-.19-.491-.791-.91-1.518l.892 1.549Z" fill="#fff"/></mask><g mask="url(#c)" transform="matrix(1.4 0 0 1.4 -7.944 -8.078)"><path fill-rule="evenodd" clip-rule="evenodd" d="m10.331 20.81.06.102-.06-.102zm18.85.234c.042-.07.084-.143.125-.215zm-18.683.054-.108-.186.108.186zm.892 1.549 3.362 5.823c.002.002.007.004.01.004h10.124c.003 0 .007-.003.01-.005l4.242-7.35c-.414.716-.762 1.31-.9 1.496-.218.297-.58.604-.982.81-1.065.546-2.4.585-3.039.585h-8.786c-.637 0-1.976-.039-3.038-.584a2.906 2.906 0 0 1-.985-.81c-.137-.19-.491-.791-.91-1.518z" fill="url(#d)" style="fill:url(#d)"/></g><mask id="e" mask-type="alpha" maskUnits="userSpaceOnUse" x="15" y="11" width="15" height="18"><path fill-rule="evenodd" clip-rule="evenodd" d="M15.513 11.926c.973-.001 1.82 0 2.081.03.367.04.812.197 1.194.443 1.004.649 1.707 1.786 2.028 2.338l2.2 3.802 2.2 3.802c.318.55.956 1.73 1.016 2.923a2.93 2.93 0 0 1-.208 1.256c-.095.214-.438.823-.857 1.549l.893-1.548 3.355-5.826v-.011l-5.072-8.763c-.001-.002-.005-.004-.008-.004l-8.822.009Zm9.488 16.432.166-.29-.166.29Z" fill="#fff"/></mask><g mask="url(#e)" transform="matrix(1.4 0 0 1.4 -7.944 -8.078)"><path fill-rule="evenodd" clip-rule="evenodd" d="M15.513 11.926c.973-.001 1.82 0 2.081.03.367.04.812.197 1.193.443 1.005.649 1.708 1.786 2.029 2.338l2.2 3.802 2.2 3.802c.318.55.956 1.73 1.016 2.923a2.93 2.93 0 0 1-.208 1.256c-.095.214-.438.823-.856 1.549l.892-1.548 3.355-5.826v-.011l-5.072-8.763c-.001-.002-.005-.004-.008-.004zm9.488 16.432.166-.29z" fill="url(#f)" style="fill:url(#f)"/></g><mask id="g" mask-type="alpha" maskUnits="userSpaceOnUse" x="15" y="11" width="15" height="18"><path fill-rule="evenodd" clip-rule="evenodd" d="M15.513 11.926c.973-.001 1.82 0 2.081.03.367.04.812.197 1.194.443 1.004.649 1.707 1.786 2.028 2.338l2.2 3.802 2.2 3.802c.318.55.956 1.73 1.016 2.923a2.93 2.93 0 0 1-.208 1.256c-.095.214-.438.823-.857 1.549l.893-1.548 3.355-5.826.001-.01-2.419-4.178-2.654-4.586c-.001-.002-.005-.004-.008-.004l-8.822.009Zm9.488 16.432.166-.29-.166.29Z" fill="#fff"/></mask><g mask="url(#g)" transform="matrix(1.4 0 0 1.4 -7.944 -8.078)"><path fill-rule="evenodd" clip-rule="evenodd" d="M15.513 11.926c.973-.001 1.82 0 2.081.03.367.04.812.197 1.193.443 1.005.649 1.708 1.786 2.029 2.338l2.2 3.802 2.2 3.802c.318.55.956 1.73 1.016 2.923a2.93 2.93 0 0 1-.208 1.256c-.095.214-.438.823-.856 1.549l.892-1.548 3.355-5.826.001-.01-2.419-4.178-2.654-4.586c-.001-.002-.005-.004-.008-.004zm9.488 16.432.166-.29z" fill="url(#h)" style="fill:url(#h)"/></g><mask id="i" mask-type="alpha" maskUnits="userSpaceOnUse" x="10" y="11" width="15" height="18"><path fill-rule="evenodd" clip-rule="evenodd" d="M23.882 11.925h.333-.333Zm-1.787 0-6.723.003a.01.01 0 0 0-.01.005l-5.058 8.77v.01l4.144 7.172c-.366-.637-.66-1.157-.744-1.352a2.909 2.909 0 0 1-.21-1.255c.058-1.195.692-2.371 1.01-2.925L16.7 18.55l2.194-3.805c.32-.553 1.022-1.692 2.026-2.34.38-.247.826-.408 1.192-.448.233-.025.932-.03 1.77-.031h-1.787Zm-7.377 16.427-.27-.467.27.466Z" fill="#fff"/></mask><g mask="url(#i)" transform="matrix(1.4 0 0 1.4 -7.944 -8.078)"><path fill-rule="evenodd" clip-rule="evenodd" d="M23.882 11.925h.333zm-1.787 0-6.723.003a.01.01 0 0 0-.01.005l-5.058 8.77v.01l4.144 7.172c-.366-.637-.66-1.157-.744-1.352a2.909 2.909 0 0 1-.21-1.255c.058-1.195.692-2.371 1.01-2.925L16.7 18.55l2.194-3.805c.32-.552 1.022-1.692 2.026-2.34.38-.247.826-.408 1.192-.448.233-.025.932-.03 1.77-.031zm-7.377 16.427-.27-.467.27.466z" fill="url(#j)" style="fill:url(#j)"/></g><mask id="k" mask-type="alpha" maskUnits="userSpaceOnUse" x="10" y="11" width="15" height="18"><path fill-rule="evenodd" clip-rule="evenodd" d="M23.882 11.925h.333-.333Zm-1.787 0-6.723.003a.01.01 0 0 0-.01.005l-5.058 8.77v.01l4.144 7.172c-.366-.637-.659-1.156-.744-1.352a2.909 2.909 0 0 1-.21-1.255c.058-1.195.692-2.371 1.01-2.925L16.7 18.55l2.194-3.805c.32-.553 1.022-1.692 2.026-2.34.38-.247.826-.408 1.192-.448.233-.025.932-.03 1.77-.031h-1.787Zm-7.472 16.262-.175-.302.175.302Zm.095.165c-.031-.056-.064-.111-.095-.165l.095.165Z" fill="#fff"/></mask><g mask="url(#k)" transform="matrix(1.4 0 0 1.4 -7.944 -8.078)"><path fill-rule="evenodd" clip-rule="evenodd" d="M23.882 11.925h.333zm-1.787 0-6.723.003a.01.01 0 0 0-.01.005l-5.058 8.77v.01l4.144 7.172c-.366-.637-.659-1.156-.744-1.352a2.909 2.909 0 0 1-.21-1.255c.058-1.195.692-2.371 1.01-2.925L16.7 18.55l2.194-3.805c.32-.552 1.022-1.692 2.026-2.34.38-.247.826-.408 1.192-.448.233-.025.932-.03 1.77-.031zm-7.472 16.262-.175-.302.175.302zm.095.165c-.031-.056-.064-.111-.095-.165Z" fill="url(#l)" style="fill:url(#l)"/></g><defs><linearGradient id="b" x1="10.331" y1="28.475" x2="29.306" y2="28.475" gradientUnits="userSpaceOnUse"><stop stop-color="#FDD42D"/><stop offset="1" stop-color="#1C1C1A"/></linearGradient><linearGradient id="d" x1="10.331" y1="28.475" x2="29.306" y2="28.475" gradientUnits="userSpaceOnUse"><stop stop-color="#FDD42D"/><stop offset="1" stop-color="#F6911D"/></linearGradient><linearGradient id="f" x1="35.261" y1="20.819" x2="23.468" y2="6.247" gradientUnits="userSpaceOnUse"><stop stop-color="#FDD42D"/><stop offset="1" stop-color="#1C1C1A"/></linearGradient><linearGradient id="h" x1="35.261" y1="20.819" x2="23.469" y2="6.247" gradientUnits="userSpaceOnUse"><stop stop-color="#FDD42D"/><stop offset="1" stop-color="#F6911D"/></linearGradient><linearGradient id="j" x1="13.936" y1="4.412" x2="2.185" y2="19.024" gradientUnits="userSpaceOnUse"><stop stop-color="#FDD42D"/><stop offset="1" stop-color="#1C1C1A"/></linearGradient><linearGradient id="l" x1="13.936" y1="4.412" x2="2.185" y2="19.024" gradientUnits="userSpaceOnUse"><stop stop-color="#FDD42D"/><stop offset="1" stop-color="#F6911D"/></linearGradient></defs></svg>