<svg width="40" height="40" fill="none" xmlns="http://www.w3.org/2000/svg"><g clip-path="url(#a)" transform="matrix(1.4 0 0 1.4 -8 -8.053)"><g clip-path="url(#b)" fill="#fff"><path d="M19.996 28.26c-1.974.02-3.934-.14-5.858-.604-1.126-.272-2.23-.616-3.198-1.287-.395-.273-.762-.586-.888-1.074-.183-.703.146-1.21.674-1.624.884-.694 1.925-1.048 2.989-1.334.601-.162 1.217-.29 1.833-.375.357-.05.736-.019 1.094.036 2.416.373 4.819.33 7.23-.071.444-.074.937.082 1.399.174 1.171.233 2.323.547 3.364 1.153a4.7 4.7 0 0 1 1.003.787c.481.498.474 1.239.03 1.771-.538.643-1.267 1-2.028 1.289-2.16.818-4.415 1.096-6.706 1.158-.312.008-.625 0-.938 0zM20.052 21.588c-1.943-.01-3.796-.177-5.592-.74-.72-.225-1.42-.502-1.991-1.02-.65-.591-.656-1.223-.012-1.814.613-.563 1.373-.848 2.152-1.075 1.001-.291 2.019-.6 3.064-.514 1.483.123 2.953.152 4.437.01 1.252-.12 2.453.243 3.635.62.653.207 1.277.485 1.792.955.635.58.634 1.243-.012 1.817-.676.602-1.508.888-2.357 1.128-1.695.481-3.434.625-5.116.633zM19.735 12c1.772.07 3.255.147 4.665.67.386.144.768.333 1.106.567.67.464.665 1.105.008 1.589-.688.506-1.49.74-2.311.897-2.28.434-4.565.448-6.825-.107a6.708 6.708 0 0 1-1.84-.774c-.752-.455-.724-1.133-.007-1.642.803-.572 1.743-.8 2.69-.949.925-.145 1.865-.19 2.514-.251z"/></g></g><defs><clipPath id="a"><path fill="#fff" d="M0 0h40v40H0z"/></clipPath><clipPath id="b"><path fill="#fff" transform="translate(10 12)" d="M0 0h20v16.263H0z"/></clipPath></defs></svg>