<svg width="40" height="40" fill="none" xmlns="http://www.w3.org/2000/svg"><path fill-rule="evenodd" clip-rule="evenodd" d="m22.1 26.835-.492-.777c.041 0 .041-.041.041-.041s-.654-4.092 2.087-6.138c2.577-1.923 8.43-2.168 8.43-2.168l.407.572c-.04 0-5.89.247-8.469 2.17-2.741 2.045-1.964 6.342-1.964 6.342 0 .04-.04.04-.04.04zM13.957 13.783s-.327-.532-.327-.573c0 0 1.187 2.045 4.828 1.064 3.723-1.023 4.787-3.764 4.787-3.764l.368.573s-1.104 2.823-4.787 3.806c-3.601.98-4.87-1.106-4.87-1.106zM32.574 14.929l.327.573s-6.219 1.595-8.347.082c0 0-.817-.9-.817-1.679 0 0 .122.615.368.901 1.882 1.8 8.429.123 8.429.123zm-6.096-4.337.368.573s-1.677 1.759-1.35 2.987c-1.269-1.187.982-3.56.982-3.56zM11.298 15.543l-.45-.696s1.023.532 1.31 1.39c-.37-.449-.86-.694-.86-.694zM6.55 22.13l-.368-.572c.04 0 5.566-1.351 7.079-3.97.408-.694.368-1.228.041-1.636.327.408.53 1.104.53 1.104.043.042.165.45-.203 1.106C12.115 20.78 6.55 22.13 6.55 22.13zM6.838 24.544l-.368-.573c.04 0 4.91-2.332 7.364-1.677.86.204 1.391.777 1.759 1.473a2.583 2.583 0 0 0-1.39-.9c-2.454-.656-7.325 1.677-7.325 1.677zm9.902 3.396-.45-.696c.04 0 .04-.04.04-.04s1.515-3.684-.164-5.36c.287.327.696.899.696.899 1.187 1.76-.081 5.197-.081 5.197z" fill="#afbabf" style="stroke-width:1.4"/><path fill-rule="evenodd" clip-rule="evenodd" d="M21.65 26.017v.041h-.04s-2.62-4.173.94-6.792c3.354-2.415 9.616-1.555 9.616-1.555h-.043s-5.81.246-8.387 2.169c-2.741 2.046-2.087 6.137-2.087 6.137zM32.534 14.929c0-.041.04 0 .04 0h-.04s-6.547 1.677-8.43-.123c-1.596-1.596 2.334-4.214 2.334-4.214h.04s-2.25 2.414-.942 3.56c1.472 1.309 6.998.777 6.998.777zM23.245 10.51s-1.064 2.741-4.787 3.764c-3.641.982-4.828-1.064-4.828-1.064s2.128 1.105 4.788.369c2.741-.777 4.827-3.07 4.827-3.07zM10.847 14.847h.042s3.723.492 2.373 2.741c-1.513 2.619-7.038 3.97-7.038 3.97h-.04.04s4.583-1.964 5.769-3.847c1.064-1.759-1.146-2.864-1.146-2.864zM6.51 23.971h-.04c0-.041.04-.041.04-.041s5.156-3.477 8.348-2.741c3.64.818 1.472 6.014 1.472 6.014s0 .042-.04.042v-.042s.246-4.214-2.456-4.909c-2.455-.655-7.324 1.677-7.324 1.677z" fill="#175399" style="stroke-width:1.4"/></svg>