<svg width="40" height="40" fill="none" xmlns="http://www.w3.org/2000/svg"><g clip-path="url(#a)" transform="matrix(1.4 0 0 1.4 -8 -8.088)"><g clip-path="url(#b)" fill="#01c65f"><path d="M10.011 20.233c.012-.07.012-.068.025-.124.124-.541.578-.936 1.133-.985.096-.009.122.015.122.112-.005.71-.004 1.419-.005 2.128v.163c.057-.016.06-.065.08-.1.607-1.105 1.198-2.22 1.827-3.314.377-.657.978-1.022 1.739-1.107.031-.004.066-.015.096.012.005.042-.026.07-.044.103-.942 1.664-1.88 3.33-2.828 4.991-.373.653-.932 1.07-1.677 1.22-.26.053-.266.045-.285-.223l-.178-2.468c-.005-.06-.015-.107-.015-.18-.002-.176 0-.166.01-.228zM21.846 19.176c.335-.11.66-.147.987-.093.57.094.928.462 1.016 1.032.176 1.143-.547 2.552-1.58 3.047a2.571 2.571 0 0 1-1.677.218c-.638-.135-.945-.611-.79-1.247.317-1.304.643-2.606.977-3.906.173-.676.828-1.2 1.487-1.226.107-.004.12.024.095.12-.172.676-.34 1.353-.515 2.055zm.734 1.412c.015-.623-.232-.827-.743-.719l-.028.005c-.107.014-.16.072-.187.18-.193.794-.388 1.587-.592 2.378-.035.132.008.154.12.166.466.049.775-.179.993-.558.275-.48.397-1.007.437-1.452zM30 20.5c-.078.991-.378 1.88-1.21 2.504-.498.374-1.07.499-1.685.394-.576-.097-.987-.496-1.038-1.088-.1-1.147.259-2.133 1.187-2.856.492-.383 1.074-.492 1.687-.38.64.115 1.027.597 1.058 1.296.002.043 0 .087 0 .13zm-1.27-.061c0-.053.002-.106-.001-.159-.024-.34-.259-.484-.576-.352-.184.077-.297.224-.39.391-.214.388-.318.813-.402 1.243-.044.222-.083.446-.028.673.044.184.149.268.336.275a.563.563 0 0 0 .409-.152c.106-.095.185-.21.245-.337a4.513 4.513 0 0 0 .406-1.582zM16.428 22.25c-.161.553-.538.904-1.067 1.09-.424.148-.859.123-1.278-.033-.506-.188-.804-.569-.84-1.095-.07-1.047.253-1.963 1.063-2.66.54-.466 1.192-.601 1.888-.475.618.112.96.545.983 1.196.012.34-.056.67-.14.998-.02.077-.068.08-.126.087l-1.822.252c-.172.024-.344.049-.517.067-.09.01-.13.04-.13.141-.005.445.204.672.653.687.416.014.818-.05 1.2-.223.038-.018.08-.029.121-.043l.012.011zm-1.888-1.26c.02.008.025.012.029.011l.958-.138c.453-.064.474-.09.463-.55 0-.03 0-.058-.005-.087-.035-.258-.176-.38-.439-.379-.264.003-.47.123-.635.322-.198.239-.3.521-.37.821zM16.866 23.346l.678-2.712c.092-.368.189-.736.272-1.107.029-.125.085-.193.21-.237.497-.179 1.013-.235 1.536-.25a4.7 4.7 0 0 1 .694.023c.02.05-.016.084-.034.119-.12.236-.246.469-.362.707-.045.093-.083.126-.192.08a.906.906 0 0 0-.498-.047c-.112.017-.162.065-.189.175-.161.668-.327 1.336-.497 2.003-.18.701-.861 1.251-1.54 1.251-.02 0-.039-.002-.078-.005zM25.437 19.115h.55c.068-.001.106-.002.082.092-.25.984-.485 1.971-.743 2.953-.17.649-.843 1.175-1.469 1.192-.1.002-.133-.006-.103-.123.338-1.334.669-2.67 1-4.005.02-.084.057-.115.146-.112.179.008.358.003.537.003zM25.034 18.038c.01-.455.487-.874.94-.825.283.03.482.256.478.541-.007.464-.493.886-.95.826-.298-.038-.475-.244-.468-.542z"/><path d="M16.416 22.239c.008-.014.018-.019.03-.003l-.018.014-.012-.011z"/></g></g><defs><clipPath id="a"><path fill="#fff" d="M0 0h40v40H0z"/></clipPath><clipPath id="b"><path fill="#fff" transform="translate(10 17)" d="M0 0h20v6.438H0z"/></clipPath></defs></svg>