<svg width="40" height="40" fill="none" xmlns="http://www.w3.org/2000/svg"><path fill-rule="evenodd" clip-rule="evenodd" d="M30.411 17.864c.923.858 1.82 1.69 2.763 2.568v-2.48h.771v4.164l-2.773-2.496v2.413h-.761v-4.169zM27.117 22.136c-1.241-.004-2.126-.89-2.127-2.131 0-1.246.91-2.15 2.157-2.14 1.227.008 2.12.92 2.113 2.154-.007 1.237-.902 2.121-2.143 2.117zm1.359-2.148c-.008-.757-.646-1.404-1.371-1.39-.732.014-1.346.67-1.335 1.427.01.76.638 1.396 1.371 1.387.73-.008 1.343-.662 1.335-1.424zM22.148 22.033v-3.391h-1.514v-.69h3.81v.69h-1.5v3.391h-.796zM18.869 20.563l.44-.863c.403.793.79 1.545 1.19 2.333h-.876l-.754-1.47zM17.737 17.952h.88c-.705 1.388-1.394 2.729-2.082 4.081h-.88c.702-1.381 1.392-2.723 2.082-4.08zM11.058 17.952c.511 0 2.039-.01 2.29 0 .183.008.362.028.536.087.68.233 1.029 1.021.934 1.704a1.47 1.47 0 0 1-.222.595c-.13.2-.3.344-.478.497l.605 1.198h-.873l-.541-1.045h-1.475v1.045h-.776v-4.08zm2.175 2.336a.857.857 0 0 0 .676-.348.84.84 0 0 0 .1-.737.797.797 0 0 0-.543-.517c-.13-.035-.269-.04-.402-.044-.15-.006-.97 0-1.23 0v1.646M8.342 18.642v3.391H7.57v-3.391H6.042v-.69H9.85v.69H8.342z" fill="#fff" style="stroke-width:1.4"/></svg>