<svg width="40" height="40" fill="none" xmlns="http://www.w3.org/2000/svg"><path fill-rule="evenodd" clip-rule="evenodd" d="M6 15.565v.666c.02.041.051.482.061.584.144.901.44 1.67.912 2.417.133.215.563.758.573.768l-.286.358c-.103.144-.185.256-.277.39C6 22.274 6.061 23.584 6 23.718v.706c.02.051.061.533.072.645.45 2.653 2.468 4.68 5.1 5.111.123.02.614.061.666.082h12.607c-.02-.072-.082-.164-.133-.246l-.41-.737a46.988 46.988 0 0 0-.543-.994c-.205-.348-.368-.665-.553-.993-.174-.318-.358-.666-.553-.994-.225-.02-.563 0-.809 0H12.34c-.583 0-.921-.05-1.352-.307a2.119 2.119 0 0 1-.798-.87c-.461-.922-.185-1.864.389-2.458.748-.779 1.659-.635 2.683-.635h5.787c.266 0 .573.02.84 0l-2.213-3.994c-.143-.031-1.853-.01-2.15-.01h-2.172c-.645 0-1.485.071-2.017-.144a2.13 2.13 0 0 1-1.147-1.024 2.135 2.135 0 0 1 .983-2.888c.584-.277 1.229-.205 1.956-.205.707 0 1.464.02 2.171 0-.03-.102-.47-.86-.553-1.014-.184-.338-.358-.645-.553-1.004-.184-.327-.369-.645-.563-1.003-.092-.164-.174-.328-.266-.492l-.277-.512h-1.28c-.041.02-.543.061-.656.082-.184.03-.41.082-.594.133-.389.103-.727.236-1.054.39a6.252 6.252 0 0 0-1.71 1.208c-.84.84-1.547 2.12-1.721 3.37-.01.091-.062.614-.072.644Z" fill="#ff1b25" style="stroke-width:1.4"/><path fill-rule="evenodd" clip-rule="evenodd" d="M28.92 30.262H34v-.02c-.051-.052-1.116-1.977-1.188-2.11l-2.366-4.25c-.123-.226-1.167-2.07-1.178-2.14.216-.052.513-.206.697-.288 1.495-.717 2.704-2.17 3.185-3.82a6.176 6.176 0 0 0-1.495-6.001 6.222 6.222 0 0 0-2.438-1.557c-1.198-.41-2.325-.328-3.676-.328h-6.985c-.307 0-.707-.02-.993.01 0 .052.983 1.793 1.095 1.998l1.117 2.007c.86.02 1.751 0 2.611 0h3.912c.38 0 .912-.03 1.26.03a2.133 2.133 0 0 1 1.495 1.127 2.127 2.127 0 0 1-1.68 3.093c-.286.03-2.14.01-2.59.01H22.15c.02.092.778 1.424.84 1.537.276.512.573 1.024.85 1.536.266.481.573 1.014.84 1.516.286.522.573 1.034.85 1.536.563 1.014 1.136 2.048 1.69 3.052l1.27 2.294c.07.123.143.256.214.379.062.112.174.286.215.389z" fill="#014090" style="stroke-width:1.4"/></svg>