<svg width="40" height="40" fill="none" xmlns="http://www.w3.org/2000/svg"><g clip-path="url(#a)" transform="matrix(1.4 0 0 1.4 -7.997 -7.992)"><mask id="b" mask-type="alpha" maskUnits="userSpaceOnUse" x="10" y="13" width="20" height="14"><path fill="#fff" d="M10 13.149h20V26.85H10z"/></mask><g mask="url(#b)" fill-rule="evenodd" clip-rule="evenodd" fill="#fff"><path d="M20.084 13.162c.482-.038 1.007-.005 1.415.282.362.253.538.685.621 1.104.12.62.111 1.256.098 1.886-.026.566-.067 1.164-.36 1.664-.224.38-.646.603-1.075.654-.455.056-.942.042-1.36-.165-.361-.177-.603-.533-.714-.912-.184-.609-.18-1.254-.18-1.884.016-.645.028-1.326.337-1.909.234-.446.73-.687 1.218-.72zm.008.847c-.215.09-.317.321-.367.535-.092.41-.088.832-.097 1.25.003.5-.008 1.005.077 1.5.045.235.13.502.362.614.27.118.656.086.825-.184.153-.246.18-.545.207-.827a15.71 15.71 0 0 0 .003-1.819c-.027-.302-.05-.624-.219-.885-.168-.254-.527-.283-.79-.184zM11.437 13.254h1.356l1.439 5.421h-1.145c-.085-.382-.168-.765-.252-1.147-.48-.002-.959 0-1.438 0-.085.38-.17.763-.25 1.146-.383.004-.765 0-1.147.002.477-1.808.958-3.614 1.437-5.422zm.15 3.376 1.056.001c-.174-.818-.35-1.634-.527-2.45-.179.816-.354 1.632-.529 2.45zM14.607 13.254c.628 0 1.255-.003 1.883.002.413.006.867.084 1.167.394.332.357.378.895.285 1.354a1.098 1.098 0 0 1-.79.818c.44.047.831.373.938.804.128.513.068 1.11-.272 1.533-.304.369-.802.501-1.263.512-.65.01-1.299.002-1.948.005zm1.1.805c-.01.473-.002.945-.004 1.419.359-.01.807.052 1.061-.26a.892.892 0 0 0-.009-.931c-.26-.296-.697-.207-1.047-.228zm-.004 2.182v1.627c.328-.011.686.043.985-.123.23-.129.318-.407.32-.656.01-.268-.06-.58-.307-.728-.301-.177-.666-.105-.998-.12ZM22.724 13.254h1.096v3.702c.007.262.004.544.147.774.17.275.577.306.836.15.254-.174.28-.512.29-.792.004-1.278-.003-2.557.003-3.836.366.003.732 0 1.098.002-.001 1.277.003 2.554-.002 3.832-.006.48-.13 1.006-.517 1.326-.44.364-1.05.403-1.594.347-.434-.043-.883-.24-1.109-.631-.197-.332-.247-.727-.248-1.106zM26.514 13.254h3.47l.001.9-1.185.001c-.001 1.507.001 3.014-.001 4.52H27.7c-.003-1.507.005-3.015-.004-4.522-.394.003-.787.001-1.182.001zM23.006 21.153a1.287 1.287 0 1 1-.33 2.286 1.288 1.288 0 0 1-.55-1.216c.052-.489.413-.922.88-1.07zm-.09.475c-.393.241-.53.806-.286 1.2.231.418.817.576 1.225.323.434-.235.577-.838.314-1.252-.136.129-.27.262-.405.392l-.272-.278.4-.393c-.295-.178-.687-.19-.976.008zM15.226 21.23c.613-.103 1.342-.082 1.817.376.456.467.519 1.162.558 1.78.016.803.057 1.632-.197 2.405-.148.48-.557.864-1.054.959-.52.103-1.094.097-1.575-.151-.415-.218-.642-.664-.736-1.106-.138-.633-.127-1.287-.117-1.933.025-.57.062-1.17.35-1.677.197-.35.564-.578.954-.652zm.192.842c-.179.106-.258.313-.305.505-.088.393-.088.798-.096 1.198.001.518-.011 1.04.076 1.553.047.243.142.524.392.626.264.095.623.065.79-.19.166-.26.19-.582.215-.883.034-.606.035-1.215-.004-1.822-.026-.28-.054-.577-.206-.821-.177-.28-.59-.312-.862-.166zM10.022 21.285h1.234c.243.701.48 1.405.722 2.108.256-.702.511-1.404.764-2.107.398-.003.796 0 1.194 0-.457 1.066-.913 2.133-1.371 3.199a.418.418 0 0 0-.037.197c.002.673.001 1.347.001 2.021h-1.1v-2.017c.009-.143-.07-.269-.121-.397-.43-1-.859-2.002-1.286-3.003zM18.11 21.286h1.1v3.725c.005.243.007.501.126.72.202.377.852.366 1.033-.025.107-.215.109-.463.115-.698 0-1.24-.002-2.482 0-3.723h1.095c0 1.285.002 2.57 0 3.854-.007.478-.14 1-.527 1.314-.42.341-.996.388-1.516.344-.433-.034-.889-.203-1.137-.578-.264-.39-.293-.88-.29-1.338v-3.595z"/></g></g><defs><clipPath id="a"><path fill="#fff" d="M0 0h40v40H0z"/></clipPath></defs></svg>