<svg width="40" height="40" fill="none" xmlns="http://www.w3.org/2000/svg"><g clip-path="url(#a)" transform="matrix(1.4 0 0 1.4 -7.999 -8)" fill-rule="evenodd" clip-rule="evenodd"><path d="M27.22 10.014H11.966c-1.085 0-1.966.892-1.966 1.999v17.344c2.17-.63 3.322-1.676 4.271-2.553 4.407-4.305 2.034-10.456 6.848-14.422 1.288-1.061 3.593-1.876 6.101-2.368zM13.248 29.987c1.83-.553 3.593-1.26 5.152-1.921 5.763-2.4 3.12-9.81 7.594-15.239.745-.922 2.305-1.644 4-2.152v17.314c0 1.091-.95 1.998-2.034 1.998z" fill="#fffeff"/><path d="M27.22 10.013H11.966c-1.085 0-1.966.892-1.966 2v17.343c2.17-.63 3.322-1.676 4.271-2.552 4.407-4.305 2.034-10.456 6.848-14.423 1.288-1.061 3.593-1.876 6.101-2.368zM13.248 29.987c1.83-.554 3.593-1.261 5.152-1.922 5.763-2.399 3.12-9.81 7.594-15.238.745-.923 2.305-1.645 4-2.153v17.314c0 1.091-.95 1.999-2.034 1.999z" fill="#d82927"/></g><defs><clipPath id="a"><path fill="#fff" d="M0 0h40v40H0z"/></clipPath></defs></svg>