<svg width="40" height="40" fill="none" xmlns="http://www.w3.org/2000/svg"><g clip-path="url(#a)" transform="matrix(1.4 0 0 1.4 -8 -8.022)"><g clip-path="url(#b)"><path d="M26.533 17.288c-.217-.112-.297-.237-.31-.479-.202-3.777-3.968-6.537-7.654-5.638-2.526.616-4.56 2.753-4.787 5.599-.024.3-.148.43-.395.56-2.457 1.285-3.798 4.032-3.275 6.679a6.244 6.244 0 0 0 9.635 4.03c.199-.132.315-.125.51.005 1.047.703 2.2 1.076 3.47 1.053.511.01 1.017-.036 1.512-.164 2.563-.663 4.398-2.744 4.716-5.35.315-2.574-1.03-5.057-3.422-6.295zM15.507 13.93c1.445-1.846 3.356-2.64 5.648-2.142 2.395.519 3.832 2.095 4.37 4.486l.01.041c.093.559.093.555-.474.444-.557-.11-1.118-.173-1.685-.108-.24.027-.38-.047-.504-.262-.32-.551-.699-1.064-1.173-1.496-1.128-1.03-2.313-1.02-3.425.029-.466.439-.837.955-1.167 1.501-.083.138-.157.254-.354.233-.779-.086-1.542.026-2.335.23.072-1.12.423-2.105 1.09-2.956zm.363 6.822c.39-1.087.803-2.163 1.335-3.19.083-.162.17-.184.332-.147.624.144 1.196.405 1.742.736.207.126.137.213.008.346-1.006 1.035-1.59 2.272-1.76 3.763-.65-.293-1.142-.706-1.603-1.165-.115-.115-.097-.221-.054-.343zm-.532-.416c-.53-.787-.788-1.583-.91-2.431-.033-.23.016-.358.275-.422.606-.148 1.21-.263 1.891-.199-.45.998-.89 1.97-1.256 3.052zm2.31-3.56c.38-.652.785-1.207 1.348-1.627.686-.514 1.395-.5 2.058.03.468.374.828.846 1.158 1.341.13.193.113.264-.136.33-.672.177-1.3.468-1.867.873-.148.105-.248.122-.406.009-.635-.455-1.343-.758-2.155-.955zm.516 5.485a5.77 5.77 0 0 1 1.654-3.395c.126-.129.214-.135.345-.005.96.948 1.52 2.084 1.665 3.428.023.217-.053.288-.255.344a5.928 5.928 0 0 1-1.585.23c-.54.003-1.063-.098-1.584-.238-.214-.057-.266-.166-.24-.364zm2.572-3.739c-.209-.209-.164-.284.057-.417.5-.3 1.028-.52 1.588-.676.216-.06.352-.025.464.207a28.752 28.752 0 0 1 1.285 3.12c.049.14.045.235-.056.34-.454.467-.952.871-1.575 1.159-.072-.352-.12-.687-.208-1.012a5.99 5.99 0 0 0-1.555-2.72zm2.772-.976c-.113-.221-.074-.287.178-.287.568 0 1.12.09 1.665.243.155.045.241.097.223.287-.081.898-.367 1.72-.902 2.542-.367-.99-.715-1.909-1.164-2.785zm-10.479 9.9c-1.543-1.146-2.333-2.678-2.378-4.65.077-2.045.998-3.645 2.771-4.76.277-.174.37-.172.42.21.126.934.48 1.797 1.033 2.564.149.207.173.38.095.619-.634 1.929-1.13 3.896-1.55 5.881-.079.376-.19.284-.39.135zm6.263.13c-1.638 1.009-3.35 1.176-5.15.48-.277-.109-.165-.304-.133-.457a59.28 59.28 0 0 1 1.217-4.84c.104-.346.215-.689.336-1.076.578.501 1.146.94 1.807 1.237.115.052.118.14.126.241.113 1.597.708 2.981 1.834 4.127.126.128.107.198-.037.287zm.83-.654c-.123.12-.183.05-.27-.034-1.013-.985-1.56-2.186-1.707-3.65 1.181.305 2.31.358 3.443.055.192-.05.255.026.233.214-.155 1.344-.736 2.472-1.7 3.415zm5.663 1.166c-1.757.654-3.43.478-5.032-.48-.184-.111-.233-.187-.053-.368 1.112-1.116 1.7-2.472 1.79-4.042.007-.139.042-.231.18-.296a6.477 6.477 0 0 0 1.752-1.228c.297.805.505 1.605.726 2.4.327 1.182.602 2.376.862 3.574.054.25.007.353-.225.44zm.891-.438c-.124-.526-.24-1.008-.35-1.492a48.562 48.562 0 0 0-1.273-4.649c-.092-.273-.083-.485.098-.736.614-.852.94-1.824 1.078-2.938 1.958 1.095 3.047 2.706 3.115 4.88.065 2.087-.881 3.717-2.668 4.935z" fill="#fff"/></g></g><defs><clipPath id="a"><path fill="#fff" d="M0 0h40v40H0z"/></clipPath><clipPath id="b"><path fill="#fff" transform="translate(10 11)" d="M0 0h20v18.11H0z"/></clipPath></defs></svg>