<svg width="40" height="40" fill="none" xmlns="http://www.w3.org/2000/svg"><path fill-rule="evenodd" clip-rule="evenodd" d="M6 31.992V34h14.536l1.866-2.008zM6 20.523v1.933h25.16l1.793-1.933zM30.784 16.546l-2.106-1.95H6v1.95zM6 26.341v1.97h19.772l1.824-1.97zM24.604 10.812l-2.15-1.99H6.002v1.99zM34 31.176v-1.99H15.351l2.148 1.99zM34 11.689H14.231l-1.83 1.97H34zM34 25.405v-1.95H9.177l2.11 1.95zM8.847 17.543l-1.785 1.932h26.937v-1.932zM17.607 8.007h16.392V6H19.464Z" fill="#fff" style="stroke-width:1.4"/></svg>