<svg width="40" height="40" fill="none" xmlns="http://www.w3.org/2000/svg"><g clip-path="url(#a)" transform="matrix(1.4 0 0 1.4 -8 -8.117)"><g clip-path="url(#b)" fill="#fff"><path d="M19.676 19.006a5.848 5.848 0 0 1 .582.047l.242.032.01.002c.01.002.012.005.01.015 0 .02-.002.04-.004.061l-.031.348-.003.01c-.022.002-.042-.005-.062-.01-.1-.02-.2-.035-.301-.047-.06-.007-.12-.01-.18-.016a4.736 4.736 0 0 0-.577-.01 1.36 1.36 0 0 0-.301.043.568.568 0 0 0-.4.348.964.964 0 0 0-.059.226 1.795 1.795 0 0 0-.011.365c.006.108.024.215.063.317.03.08.073.154.135.216a.59.59 0 0 0 .227.14c.064.022.13.036.197.045.09.012.181.016.272.018.114.002.227-.002.34-.007.092-.005.184-.014.275-.026l.033-.006c.006-.009.004-.016.004-.024V20.526c0-.007-.003-.01-.01-.01l-.029-.001h-.864c-.043 0-.038.005-.038-.04v-.366c0-.029 0-.029.028-.029h1.339c.012.001.014.003.015.016V21.428c0 .038.007.036-.036.044a8.925 8.925 0 0 1-.347.06c-.074.012-.149.02-.223.03-.09.01-.18.017-.27.02-.006 0-.014-.001-.02.004h-.322c-.011-.007-.025-.004-.037-.005a1.911 1.911 0 0 1-.368-.053 1.176 1.176 0 0 1-.283-.11.911.911 0 0 1-.396-.432 1.324 1.324 0 0 1-.098-.324 2.198 2.198 0 0 1 .006-.766c.02-.104.051-.205.096-.301a.918.918 0 0 1 .468-.46c.1-.046.206-.076.315-.096.107-.02.214-.03.322-.033.097-.004.194-.004.29 0z"/><path d="m19.676 19.006-.022.001a5.765 5.765 0 0 0-.25 0c-.006 0-.013 0-.019-.002V19h.29v.005zM15.83 20.296v-1.209c0-.044-.005-.04.04-.04h.372c.03 0 .028.001.028.028v1.999c0 .045-.006.04.039.04h1.615c.045 0 .044-.008.038.043l-.016.185-.014.17a.25.25 0 0 1-.003.019c-.002.012-.003.013-.013.013h-2.069c-.015 0-.017-.002-.018-.02v-1.228zM13.694 19.048v2.057c0 .004.004.008.009.008h1.635c.016 0 .034-.004.05.005.003.016-.002.032-.003.048l-.015.172-.014.176-.001.01c-.003.02-.003.02-.025.02h-2.033c-.05 0-.043.007-.043-.042V19.09c0-.046-.006-.041.04-.041H13.694zM21.173 19.054a.022.022 0 0 1 .017-.006H23.28c.03 0 .028 0 .026.028-.012.128-.022.257-.033.386l-.001.01c-.001.006-.005.009-.011.01h-1.609c-.045 0-.039-.007-.039.04v.548c0 .006.003.01.01.01H23.1c.009 0 .012.006.011.013v.02l-.016.275-.004.073-.004.05c-.014.006-.027.004-.04.004H21.625c-.006 0-.01.003-.01.01a.41.41 0 0 0 0 .018v.543c0 .03-.003.028.027.028H23.27c.046 0 .04-.004.036.036l-.025.285-.008.095c0 .011-.003.013-.013.014h-2.066c-.02 0-.021 0-.021-.022v-2.468zM26.864 20.512c-.012.005-.024.003-.035.003h-1.385c-.017 0-.034-.004-.05.003-.004.016-.002.032-.002.048v.52c0 .03-.002.028.027.028H27.051c.04 0 .036-.003.033.033l-.025.284-.008.1c-.001.01-.004.013-.014.013H24.96c-.007 0-.01-.005-.01-.012V19.086c0-.042-.007-.038.039-.038H27.072c.012 0 .014.003.013.016l-.012.146-.016.19-.006.07c0 .007-.004.011-.012.011h-1.606c-.048 0-.041-.007-.041.04v.549c0 .007.004.01.01.01H26.857c.036 0 .034-.003.032.033l-.016.268-.006.116-.002.015zM23.929 20.293v-1.206c0-.043-.007-.04.04-.04h.36c.048 0 .041-.003.041.041v2.441c0 .012-.003.015-.016.015H23.946c-.015 0-.017-.002-.017-.016V20.293zM29.941 21.42l-.451-.727c-.006-.009-.014-.017-.014-.029l.042-.016.044-.018a.645.645 0 0 0 .334-.336.93.93 0 0 0 .07-.298c.009-.095.008-.19-.004-.285a.948.948 0 0 0-.046-.206.636.636 0 0 0-.233-.315.832.832 0 0 0-.257-.12 1.658 1.658 0 0 0-.374-.056 4.113 4.113 0 0 0-.27-.004c-.196.003-.392.01-.587.017l-.16.007-.312.017c-.048.003-.042-.005-.042.044v2.407a1.665 1.665 0 0 0 0 .032c0 .006.004.01.01.01h.396c.039 0 .035.002.035-.036v-.774c0-.013.002-.014.015-.014h.022a13.387 13.387 0 0 0 .812.019c.038 0 .03-.006.05.028l.384.615.126.204h.006c.006-.006.014-.005.022-.006a148.909 148.909 0 0 1 .425-.052H30v-.012l-.059-.095zm-.576-1.191a.57.57 0 0 1-.163.054 1.581 1.581 0 0 1-.265.025 5.833 5.833 0 0 1-.337-.003l-.312-.01-.15-.006c-.013 0-.015-.003-.016-.015v-.786c0-.024 0-.024.025-.025l.385-.016c.147-.006.293-.009.44-.005.083.002.164.01.245.027.041.008.081.02.12.037a.296.296 0 0 1 .18.222.742.742 0 0 1-.011.333.285.285 0 0 1-.14.168zM12.871 21.516l-.335-.653-.916-1.781-.014-.026a.014.014 0 0 0-.013-.008h-.275c-.042 0-.034-.005-.052.03l-1.251 2.435-.015.03.023.001h.444c.018 0 .03-.004.036-.022l.006-.012.236-.462c.02-.039.008-.033.052-.033h1.307c.01 0 .019.002.023.013.002.006.006.012.009.017l.137.265c.035.07.07.139.107.208.014.027.008.026.04.026h.434c.033 0 .031 0 .017-.028zm-.966-.915v.002h-.922c-.002 0-.004 0-.006-.002v-.009l.463-.904c.004.004.007.006.008.01l.457.896v.007z"/></g></g><defs><clipPath id="a"><path fill="#fff" d="M0 0h40v40H0z"/></clipPath><clipPath id="b"><path fill="#fff" transform="translate(10 19)" d="M0 0h20v2.586H0z"/></clipPath></defs></svg>