<svg width="41" height="40" fill="none" xmlns="http://www.w3.org/2000/svg"><g clip-path="url(#a)" transform="matrix(1.4 0 0 1.4 -8.4 -8)"><path d="M30.998 20.013c0 3.289 0 6.577.002 9.866 0 .099-.023.121-.121.121-6.586-.003-13.172-.003-19.757 0-.1 0-.122-.022-.122-.121.003-6.586.003-13.172 0-19.758 0-.099.022-.121.121-.121 6.586.003 13.172.003 19.757 0 .1 0 .122.022.122.121-.003 3.298-.002 6.595-.002 9.892z" fill="#302e8c"/><path d="M23.88 20.202c-.009-.217.016-.43.083-.637.135-.418.484-.698.925-.727a2.1 2.1 0 0 1 .552.021c.376.075.641.285.763.648.154.455.153.919.005 1.374-.12.37-.384.589-.769.656-.254.044-.51.048-.76-.015-.46-.115-.686-.44-.77-.887a2.107 2.107 0 0 1-.03-.433zM21.175 19.2c.222-.17.448-.303.714-.35.197-.035.395-.032.587.026.293.09.47.328.476.686.011.62.003 1.242.006 1.863 0 .065-.022.088-.083.08h-.014c-.131-.003-.302.043-.383-.022-.084-.068-.025-.247-.026-.377-.004-.462 0-.925-.002-1.387 0-.334-.106-.438-.44-.444-.3-.006-.553.114-.797.271-.06.039-.05.087-.05.137 0 .568-.002 1.136.002 1.705 0 .088-.015.127-.113.119-.126-.01-.292.04-.37-.024-.082-.067-.024-.24-.025-.365-.002-.705.001-1.41-.004-2.114 0-.1.025-.137.123-.12.017.004.036.001.053.001.105.002.234-.033.31.016.074.046.004.186.036.3z" fill="#fefefd"/><path d="M16.725 18.835c.183-.012.36.023.536.062.076.017.128.047.114.14-.013.09.039.213-.02.265-.054.047-.165-.022-.25-.037a2.03 2.03 0 0 0-.553-.03c-.244.023-.36.15-.342.36.012.146.108.216.227.263.196.077.398.14.59.226.453.204.607.761.326 1.15-.14.194-.349.259-.568.297-.313.054-.622.02-.928-.055-.07-.017-.104-.043-.096-.123.011-.104-.033-.252.02-.304.06-.058.193.03.294.05.214.04.426.068.64.013.135-.034.246-.097.27-.252.029-.19-.018-.296-.177-.386-.166-.092-.35-.138-.525-.208-.249-.1-.465-.236-.54-.516-.098-.366.073-.687.44-.835.174-.07.356-.094.542-.08z" fill="#fdfefc"/><path d="M19.383 20.212c0 .392-.002.784.002 1.176.001.09-.02.127-.116.118-.13-.014-.303.054-.377-.03-.064-.072-.022-.242-.022-.369-.001-.576-.003-1.153.003-1.73 0-.102-.029-.131-.125-.119-.051.007-.105.001-.158.001-.222 0-.214 0-.227-.227-.006-.123.031-.155.151-.15.246.01.493.007.74 0 .1-.002.134.02.132.129-.007.4-.003.8-.003 1.201z" fill="#fcfdfc"/><path d="M19.123 18.491a.328.328 0 1 1 .01-.657.34.34 0 0 1 .33.327.34.34 0 0 1-.34.33z" fill="#fcfcfa"/><path d="M25.798 20.194c-.005.16-.012.326-.06.489-.098.336-.31.502-.63.512-.35.012-.573-.19-.662-.509a1.898 1.898 0 0 1 .007-1.03c.094-.341.318-.48.713-.46.33.017.53.206.595.558.026.143.03.288.037.44z" fill="#302e8c"/></g><defs><clipPath id="a"><path fill="#fff" transform="translate(.879)" d="M0 0h40v40H0z"/></clipPath></defs></svg>