<svg width="40" height="40" fill="none" xmlns="http://www.w3.org/2000/svg"><mask id="a" style="mask-type:alpha" maskUnits="userSpaceOnUse" x="10" y="11" width="20" height="18"><path fill="#fff" d="M10 11.898h20v16.205H10z"/></mask><g mask="url(#a)" transform="matrix(1.4 0 0 1.4 -8.008 -8.014)" fill-rule="evenodd" clip-rule="evenodd"><path d="M10.277 21.98h1.04l.327-1.555h1.494l.15-.73H11.77l.194-.846h1.571l.144-.73h-2.584ZM17.874 18.118H16.85l-.381 1.749c-.133.62-.238 1.416-.902 1.416-.365 0-.548-.243-.548-.559 0-.088.033-.238.072-.42l.465-2.186H14.51l-.437 1.981a3.366 3.366 0 0 0-.083.73c0 .908.68 1.218 1.55 1.218 1.405 0 1.703-.902 1.958-2.13zM22.037 18.257c-.21-.078-.625-.205-1.366-.205-1.45 0-2.352.913-2.352 2.196 0 1.063.714 1.799 1.959 1.799.348 0 .78-.067 1.029-.15l.11-.83a2.166 2.166 0 0 1-.979.216c-.62 0-1.056-.32-1.056-1.007 0-.73.415-1.46 1.45-1.46.326 0 .636.044.962.232zM22.055 21.98h1.035l.343-1.654h1.222l-.343 1.654h1.035l.802-3.862h-1.035l-.304 1.478h-1.223l.305-1.478h-1.035ZM29.765 18.224c-.26-.122-.709-.172-1.184-.172-.847 0-1.721.299-1.721 1.295 0 1.09 1.5.857 1.5 1.477 0 .398-.504.46-.825.46-.337 0-.747-.09-.952-.222l-.243.785c.337.105.797.2 1.195.2.896 0 1.887-.277 1.887-1.345 0-1.173-1.5-.968-1.5-1.516 0-.31.332-.37.742-.37.381 0 .652.083.852.177zM23.343 12.328l-.364 1.708s-.975-.28-1.647-.247c-4.427.216-6.715 3.417-6.715 3.417s1.71-4.79 7.141-5.063c.61-.031 1.585.185 1.585.185z" fill="#fff"/><path d="m19.094 16.19.37-1.76s.24-.141 1.19-.21c4.698-.338 5.765 3.242 5.765 3.242s-1.195-1.742-4.489-1.852c-1.856-.061-2.836.58-2.836.58z" fill="#ed1c24"/><path d="m16.577 27.742.364-1.708s.975.279 1.647.246c4.427-.215 6.714-3.416 6.714-3.416s-1.71 4.789-7.14 5.063c-.61.03-1.585-.185-1.585-.185z" fill="#fff"/><path d="m20.826 23.88-.37 1.759s-.24.141-1.19.21c-4.698.339-5.765-3.242-5.765-3.242s1.195 1.743 4.489 1.852c1.856.062 2.836-.58 2.836-.58z" fill="#ed1c24"/></g></svg>