<svg width="40" height="40" fill="none" xmlns="http://www.w3.org/2000/svg"><g clip-path="url(#a)" transform="matrix(1.4 0 0 1.4 -7.983 -7.984)"><mask id="b" mask-type="alpha" maskUnits="userSpaceOnUse" x="10" y="18" width="20" height="4"><path fill="#fff" d="M10 18.861h20v2.278H10z"/></mask><g mask="url(#b)" fill-rule="evenodd" clip-rule="evenodd"><path d="M19.956 19.663c.514-.26 1.024-.528 1.53-.802.484.255.976.497 1.453.764.181.095.062.352.105.51-.521-.27-1.035-.554-1.562-.813-.507.274-1.019.54-1.53.807l.004-.466z" fill="#fff"/><path d="M19.923 20.59c.514-.262 1.024-.529 1.53-.803.484.255.977.497 1.454.764.18.095.062.352.105.51-.522-.27-1.036-.554-1.562-.814-.508.275-1.02.54-1.53.808 0-.156.002-.31.003-.466zM26.826 20.59c.514-.262 1.024-.529 1.53-.803.484.255.976.497 1.453.764.181.095.062.352.105.51-.521-.27-1.035-.554-1.562-.814-.507.275-1.019.54-1.53.808l.004-.466z" fill="#2f78bc"/><path d="M26.799 19.67a37.958 37.958 0 0 0 1.52-.81c.53.253 1.038.546 1.565.803l-.002.467c-.517-.272-1.031-.553-1.557-.81-.5.284-1.016.537-1.519.815l-.007-.465zM10.002 19.04c.83.004 1.66.006 2.49 0 .443.564.489 1.394.05 1.974-.842.076-1.695.008-2.542.033l.006-.41c.77.007 1.54 0 2.31.004.159-.388.169-.827-.04-1.198-.757.014-1.514-.001-2.27.011a43.93 43.93 0 0 1-.004-.413zM13.36 19.046c.929-.004 1.858-.004 2.787 0l.001.4c-.923.01-1.847-.005-2.77.007a48.75 48.75 0 0 0-.019-.407zM16.66 19.45c0-.137.002-.273.005-.41.922.004 1.844.003 2.767.003 0 .101 0 .304.002.405-.925.005-1.85-.001-2.775.001zM23.555 19.04c.098.002.296.004.394.007.002.665-.003 1.328.003 1.992l-.399.01.001-2.008zM25.889 19.046c.099-.002.296-.002.395-.003.003.667 0 1.335 0 2.003l-.396-.005c.004-.666 0-1.33 0-1.995zM24.201 19.355c.23.116.453.249.693.346.273-.058.506-.243.76-.357.156.532-.404.659-.753.843a41.044 41.044 0 0 0-.686-.374l-.014-.458z" fill="#fff"/><path d="m10.006 19.837.717-.003.006.415c-.242 0-.485 0-.727.002l.004-.414zM13.375 19.835c.684-.002 1.37.008 2.055-.007l.033.419c-.7.006-1.399.004-2.097.004l.009-.416zM16.65 20.248l.031-.419c.685.01 1.368.01 2.053.001.001.141.004.282.004.422-.695-.002-1.391 0-2.087-.004zM13.372 20.638c.923.005 1.844.001 2.767 0l.012.406c-.93 0-1.86.004-2.789-.002l.01-.404zM16.662 20.638l.701.001.01.402-.716.006.005-.409z" fill="#fff"/></g></g><defs><clipPath id="a"><path fill="#fff" d="M0 0h40v40H0z"/></clipPath></defs></svg>