<svg width="40" height="40" fill="none" xmlns="http://www.w3.org/2000/svg"><mask id="a" mask-type="alpha" maskUnits="userSpaceOnUse" x="10" y="10" width="20" height="20"><path fill="#fff" d="M10 10.333h20v19.333H10z"/></mask><g mask="url(#a)" transform="matrix(1.4 0 0 1.4 -7.969 -7.988)" fill-rule="evenodd" clip-rule="evenodd" fill="#0b4a8e"><path d="M29.818 12.057c-.062-.062-.12-.114-.172-.16-.13-.115-.233-.205-.314-.388-.092-.208-.055-.382-.011-.583.03-.142.063-.29.048-.46l-.01-.133-.082.106c-.172.226-.39.48-.445.51a1.094 1.094 0 0 0-.482-.116c-.701 0-1.269.71-1.574 1.09a3.525 3.525 0 0 1-.174.209c-.336-.42-1.283-.862-2.607-.862-1.224 0-3.19.383-5.603 2.207l-.032.024.024.071h.037a.43.43 0 0 0 .117-.038c1.121-.424 2.186-.639 3.165-.639.925 0 1.736.198 2.413.586-.064.083-.247.286-.439.499-.47.52-.889.993-1.14 1.33H10v14.296h14.296V15.95c.283-.169.594-.357.923-.557.302-.184.59-.36.695-.417 1.272 2.873-.335 5.23-.672 5.676-.014.018-.03.04-.015.068l.014.029.033-.001c.022 0 .032-.011.05-.032.033-.037.133-.148.322-.34 2.362-2.397 2.71-5.204 2.247-7.046.033-.016.099-.041.163-.067.43-.17 1.312-.517 1.284-1.098.049-.004.14-.004.203-.004.239 0 .27-.001.288-.044l.012-.036zm-7.477 3.702c-.002-.058.06-.169.16-.312h1.657v.526c-.56.332-1.06.614-1.155.614-.033 0-2.183 3.479-2.367 3.4-.182-.078 1.346-3.267 1.24-3.267-.065 0-4.105 1.217-4.197 1.2-.969-.184 4.662-2.135 4.662-2.16zm-8.328 12.523c-.33.285-.796.427-1.4.427-.615 0-1.1-.14-1.453-.42-.353-.283-.53-.67-.53-1.162h.944c.03.216.089.378.176.485.161.194.436.292.825.292.234 0 .423-.026.569-.078.276-.098.413-.281.413-.548a.405.405 0 0 0-.205-.363c-.137-.083-.352-.157-.645-.221l-.5-.113c-.493-.111-.833-.232-1.022-.362-.318-.219-.477-.56-.477-1.024 0-.424.153-.776.462-1.056.308-.28.76-.42 1.357-.42.499 0 .923.132 1.274.397.353.264.539.647.556 1.15h-.95c-.018-.285-.142-.487-.373-.607a1.25 1.25 0 0 0-.574-.119c-.255 0-.458.051-.61.154a.49.49 0 0 0-.228.43c0 .17.075.296.225.379.096.056.302.12.616.196l.815.196c.358.085.627.2.81.343.281.223.423.545.423.966 0 .432-.166.792-.498 1.078zm5.055.305h-.989l-1.931-3.36v3.36h-.922v-4.73h1.037l1.884 3.302v-3.302h.921zm4.14-2.047c-.282.23-.686.346-1.21.346h-1.004v1.701h-.982v-4.73h2.06c.475 0 .854.121 1.136.365.283.244.424.622.424 1.133 0 .559-.141.953-.424 1.185z"/><path d="M22.458 24.835c-.129-.105-.31-.157-.542-.157h-.922v1.393h.921c.233 0 .414-.057.543-.17.13-.113.195-.293.195-.54 0-.245-.065-.42-.195-.526z"/></g></svg>