<svg width="40" height="40" fill="none" xmlns="http://www.w3.org/2000/svg"><g clip-path="url(#a)" transform="matrix(1.4 0 0 1.4 -8 -8.033)"><g clip-path="url(#b)"><path d="M19.128 19.633v-.04l-.003-1.467c0-.03.007-.037.036-.036h.608c.025 0 .03.007.03.03-.002.817-.002 1.634 0 2.452 0 .024-.007.03-.032.03h-.614c-.021 0-.032-.007-.044-.022l-1.152-1.476-.026-.032v.04l-.002 1.456c0 .027-.004.035-.033.035h-1.353c-.023 0-.035-.008-.047-.027-.193-.304-.384-.609-.583-.91l-.022-.032v.042c0 .299 0 .597.002.895 0 .024-.006.032-.031.032a59.084 59.084 0 0 0-.595 0c-.022 0-.029-.004-.029-.027V18.11c0-.023.006-.027.028-.027H16.4c.12 0 .225.049.326.106.175.1.287.248.334.443a.964.964 0 0 1 .005.402c-.045.255-.2.416-.433.512-.028.011-.058.017-.09.027l.782.916v-.04c0-.776 0-1.554-.002-2.331 0-.029.007-.036.036-.035h.529c.024 0 .04.006.055.026.385.496.77.992 1.157 1.488l.03.035zm-3.236-.734v.287c0 .01-.008.025.014.024.109-.004.22-.003.323-.047a.268.268 0 0 0 .157-.151.302.302 0 0 0-.213-.402.87.87 0 0 0-.257-.021c-.02 0-.025.006-.024.025v.285zM15.133 19.313a1.42 1.42 0 0 1-.184.715c-.134.231-.327.4-.566.517a1.446 1.446 0 0 1-.702.139 1.428 1.428 0 0 1-.815-.28 1.148 1.148 0 0 1-.336-.385 1.409 1.409 0 0 1-.032-1.311c.073-.14.177-.256.296-.36.18-.157.385-.261.619-.311.163-.035.327-.04.493-.024.255.025.485.115.692.262a1.237 1.237 0 0 1 .535 1.038zm-1.382.647a.62.62 0 1 0 0-1.24.62.62 0 0 0 0 1.24zM21.31 19.255a.928.928 0 0 1 .2.063.489.489 0 0 1 .226.194.646.646 0 0 1 .07.205.889.889 0 0 1 0 .364.537.537 0 0 1-.307.382c-.13.064-.265.112-.41.131a.73.73 0 0 1-.094.005l-1.067.003c-.026 0-.034-.004-.034-.031l-.001-2.45c0-.015-.008-.032.022-.032l1.146.001a.49.49 0 0 1 .365.176c.118.13.156.288.157.458 0 .096-.017.19-.049.282a.453.453 0 0 1-.18.22c-.012.01-.025.017-.043.029zm-.746.574v.244c0 .013-.002.025.018.024.094-.004.188.005.282-.007a.437.437 0 0 0 .224-.085c.087-.067.09-.243.04-.31a.3.3 0 0 0-.205-.117c-.113-.02-.228-.007-.341-.013-.021-.001-.018.012-.018.024v.24zm0-1.003v.218c0 .01-.002.022.016.022.076.001.152.004.227-.014a.221.221 0 0 0 .178-.215c0-.129-.052-.2-.168-.23-.079-.02-.159-.015-.238-.017-.018 0-.015.011-.015.021v.215zM28.35 19.342v1.228c0 .026-.006.033-.032.033-.196-.002-.39-.002-.586 0-.028 0-.032-.008-.032-.033l.001-.959c0-.025-.005-.033-.032-.033-.298.002-.597.002-.896.002-.026 0-.033.007-.033.033l.003.959c0 .024-.005.03-.03.03a50.296 50.296 0 0 0-.59 0c-.025 0-.03-.007-.03-.031v-2.449c0-.025.005-.033.032-.033h.586c.027 0 .032.007.032.033v.898c-.001.025.003.034.03.034h.89c.025 0 .032-.006.032-.031l-.001-.908c0-.023.004-.032.03-.032.198.002.397.002.595 0 .026 0 .031.008.031.032v1.227zM12.256 19.342v1.228c0 .026-.005.033-.032.033a50.296 50.296 0 0 0-.589 0c-.024 0-.03-.006-.03-.03.002-.323 0-.645.002-.968 0-.027-.005-.035-.034-.035-.294.002-.589.002-.883 0-.028 0-.037.006-.037.036.001.32 0 .641.002.962 0 .03-.01.035-.037.035a52.582 52.582 0 0 0-.59 0c-.023 0-.028-.007-.028-.03v-2.461c0-.026.008-.028.03-.028h.59c.023 0 .028.005.028.029l-.001.901c0 .026.005.033.032.033h.9c.026 0 .03-.008.03-.031-.001-.3-.001-.6-.003-.899 0-.029.008-.034.034-.034.195.002.389.002.583 0 .03 0 .033.009.033.035v1.224zM24.33 20.602h-.681c-.022 0-.023-.012-.028-.025-.046-.129-.093-.258-.137-.387-.007-.02-.016-.025-.036-.024h-.855c-.02 0-.03.007-.036.025-.05.129-.103.258-.154.387-.006.017-.014.025-.033.025l-.646-.001-.02-.001.066-.172.893-2.321c.006-.018.013-.025.032-.024h.659c.019 0 .026.005.033.023l.934 2.47.008.025zm-1.45-1.03h.227c.056 0 .056 0 .038-.052l-.123-.361-.142.412zM25.99 19.779v.749c0 .021-.006.03-.026.038a1.408 1.408 0 0 1-.571.099c-.34-.01-.644-.12-.9-.347a1.205 1.205 0 0 1-.396-.699 1.372 1.372 0 0 1 .062-.763c.062-.157.157-.293.272-.415.125-.133.27-.237.437-.312.12-.055.248-.086.378-.108.134-.024.269-.027.403-.012.112.012.22.04.324.081.015.006.017.015.017.029v.784a.675.675 0 0 0-.544-.257.678.678 0 0 0-.547.243c-.213.246-.204.724.044.958.256.242.721.283 1.047-.068z" fill="#fff"/><path d="M29.96 20.093v.48c0 .024-.006.03-.03.03h-.899c-.021 0-.029-.004-.029-.027v-.965c0-.022.006-.029.028-.029h.903c.024 0 .027.009.027.03v.48z" fill="#e5ae45"/><path d="M26.352 21.967c-.003-.107-.008-.214-.008-.321v-.51c0-.017.005-.021.021-.02.034.001.077-.011.098.006.023.017.007.063.007.096l.001.898c0 .025-.006.033-.03.031a.564.564 0 0 0-.083 0c-.018.001-.028-.005-.038-.02-.12-.195-.244-.39-.364-.585a2.316 2.316 0 0 1-.125-.228c-.004-.01-.01-.018-.013-.025v.164l.002.668c0 .019-.003.028-.025.026-.033-.003-.078.014-.097-.007-.016-.018-.005-.062-.005-.094v-.895c-.001-.028.004-.038.033-.036.038.004.083-.01.112.007.03.016.043.06.063.091l.3.474c.048.079.095.16.133.244l.018.036zM24.165 21.635v-.478c0-.023.006-.028.029-.03.123-.015.247-.025.371-.012.141.016.268.061.358.18a.44.44 0 0 1 .084.204.664.664 0 0 1-.026.323.446.446 0 0 1-.273.285 1.04 1.04 0 0 1-.42.047c-.031-.002-.062-.007-.094-.007-.024 0-.03-.008-.03-.031.002-.16.001-.32.001-.48zm.137-.002v.383c0 .015-.003.03.02.03.077.003.154.007.23-.007a.356.356 0 0 0 .286-.222.55.55 0 0 0 .03-.3.325.325 0 0 0-.238-.277.738.738 0 0 0-.306-.016c-.02.002-.023.012-.023.03v.38zM22.188 21.64a.592.592 0 0 1 .097-.342.442.442 0 0 1 .389-.197c.245.001.41.172.447.402a.658.658 0 0 1-.052.406.435.435 0 0 1-.381.253c-.244.018-.436-.134-.486-.38a.668.668 0 0 1-.014-.141zm.8-.011a.516.516 0 0 0-.065-.262.301.301 0 0 0-.507-.035.566.566 0 0 0-.012.583.3.3 0 0 0 .508-.001.53.53 0 0 0 .076-.285zM21.178 21.633v-.484c0-.026.006-.036.033-.034.025.003.05.002.076 0 .023-.001.028.008.027.03v.376c0 .02.003.028.026.028h.447c.022 0 .028-.006.028-.028-.001-.126 0-.251-.002-.377 0-.023.006-.031.03-.029.034.004.08-.014.1.008.017.018.005.064.005.097v.892c0 .026-.002.04-.033.035-.033-.004-.078.014-.096-.007-.017-.018-.005-.062-.005-.095v-.354c0-.02-.004-.027-.026-.026h-.45c-.02 0-.025.006-.025.026l.001.427c0 .024-.006.031-.03.03a.46.46 0 0 0-.075 0c-.024.001-.032-.006-.032-.031.002-.162.001-.323.001-.484zM27.56 21.854v.222c0 .016-.002.027-.02.033a.845.845 0 0 1-.487.024.436.436 0 0 1-.32-.33.583.583 0 0 1 .03-.406.477.477 0 0 1 .327-.267.714.714 0 0 1 .41.012c.02.007.03.014.021.037-.01.026-.01.062-.027.075-.017.013-.046-.014-.071-.019a.54.54 0 0 0-.383.038.33.33 0 0 0-.155.18.497.497 0 0 0 .01.388c.06.132.17.192.31.204a.52.52 0 0 0 .203-.017c.015-.005.02-.011.02-.026v-.27c0-.018-.008-.019-.022-.019h-.165c-.018.001-.024-.005-.022-.022.001-.028-.01-.063.004-.08.015-.018.052-.005.08-.005l.23-.001c.023 0 .028.006.028.028-.002.074 0 .148 0 .221zM29.999 21.853v.222c0 .014 0 .028-.016.033-.172.053-.346.076-.52.016a.433.433 0 0 1-.294-.332.564.564 0 0 1 .077-.47.484.484 0 0 1 .31-.199.726.726 0 0 1 .388.02c.022.007.024.018.016.037a.336.336 0 0 0-.017.057c-.005.023-.014.023-.034.016a.53.53 0 0 0-.373-.006.35.35 0 0 0-.235.283.498.498 0 0 0 .033.31c.06.13.168.191.306.205.065.006.13.003.195-.013.022-.005.034-.014.033-.042a5.074 5.074 0 0 1 0-.25c0-.022-.007-.028-.029-.027-.051.002-.103 0-.155 0-.02.001-.03-.002-.027-.025.004-.026-.011-.062.006-.078.016-.013.05-.004.077-.005h.225c.026 0 .036.004.035.033-.003.072-.001.144-.001.215zM29.013 22.147c-.043 0-.082-.002-.121 0-.02.001-.027-.008-.032-.024-.031-.093-.064-.185-.094-.278-.005-.018-.013-.022-.03-.022h-.32c-.019 0-.025.007-.03.022-.03.093-.063.186-.092.279-.006.019-.014.024-.032.023h-.113l.107-.315.233-.685c.007-.022.016-.035.043-.032a.519.519 0 0 0 .095 0c.025-.002.036.007.044.031.045.139.092.276.14.414l.202.587zm-.591-.428h.29c.019 0 .016-.009.011-.022-.022-.065-.043-.13-.067-.194-.03-.087-.055-.176-.082-.265-.04.163-.1.32-.152.481zM23.373 21.632v-.487c0-.023.004-.032.029-.03.025.003.05.003.076 0 .027-.002.03.009.03.032l-.001.854c0 .027.005.036.034.035h.38c.021 0 .031.004.029.027-.003.027.01.062-.006.079-.015.016-.05.004-.076.004l-.459.001c-.027 0-.036-.004-.036-.034v-.481zM25.391 21.633v.478c.001.031-.008.04-.037.036a.41.41 0 0 0-.073 0c-.021.002-.026-.006-.026-.026v-.974c0-.027.007-.034.033-.032.025.003.05.002.076 0 .022-.001.028.006.027.028v.49z" fill="#fff"/></g></g><defs><clipPath id="a"><path fill="#fff" d="M0 0h40v40H0z"/></clipPath><clipPath id="b"><path fill="#fff" transform="translate(10 18)" d="M0 0h20v4.164H0z"/></clipPath></defs></svg>