<svg width="40" height="40" fill="none" xmlns="http://www.w3.org/2000/svg"><g clip-path="url(#a)" transform="matrix(1.4 0 0 1.4 -7.992 -7.998)"><mask id="b" mask-type="alpha" maskUnits="userSpaceOnUse" x="10" y="18" width="21" height="4"><path fill="#fff" d="M10 18.31h20v3.38H10z"/></mask><g mask="url(#b)" fill-rule="evenodd" clip-rule="evenodd"><path d="M28.283 19.174a.823.823 0 0 1 .806.644c.004.019.021.033.04.033h.792a.042.042 0 0 0 .041-.042c0-.338-.38-1.5-1.679-1.5-1.298 0-1.68 1.162-1.68 1.5 0 .023.02.042.042.042h.791c.02 0 .037-.014.041-.033a.823.823 0 0 1 .806-.644zM28.283 20.814a.823.823 0 0 0 .806-.644.042.042 0 0 1 .04-.032h.792c.023 0 .041.018.041.041 0 .338-.38 1.5-1.679 1.5-1.298 0-1.68-1.162-1.68-1.5 0-.023.02-.041.042-.041h.791c.02 0 .037.013.041.032.083.377.42.647.806.644zM19.693 19.447h.814a.04.04 0 0 1 .04.04v2.09a.04.04 0 0 1-.04.04h-.815a.04.04 0 0 1-.04-.04v-2.09a.04.04 0 0 1 .04-.04zM18.682 18.371h2.835a.04.04 0 0 1 .04.04v.708a.04.04 0 0 1-.04.04h-2.835a.04.04 0 0 1-.04-.04v-.708a.04.04 0 0 1 .04-.04zM16.076 19.64h1.19a.04.04 0 0 1 .04.04v.628a.04.04 0 0 1-.04.04h-1.19a.04.04 0 0 1-.04-.04v-.628a.04.04 0 0 1 .04-.04z" fill="#fff"/><path d="M17.452 20.829h-1.699v-1.67h1.676a.04.04 0 0 0 .04-.04v-.707a.04.04 0 0 0-.04-.04h-2.53a.04.04 0 0 0-.04.04v3.165c0 .022.017.04.04.04h2.553a.04.04 0 0 0 .04-.04v-.708a.04.04 0 0 0-.04-.04zM13.45 18.38a.042.042 0 0 0-.064-.036l-1.66 1.011-1.662-1.01a.042.042 0 0 0-.063.036v3.196c0 .022.017.04.04.04h.814a.04.04 0 0 0 .04-.04V19.82l.79.474a.093.093 0 0 0 .04.015.092.092 0 0 0 .04-.015l1.665-.994c.017-.01.02-.022.02-.05v-.869z" fill="#fff"/><path d="M13.429 19.657a.042.042 0 0 0-.042 0l-.802.478c-.02.01-.03.022-.03.056v1.386c0 .022.019.04.04.04h.815a.04.04 0 0 0 .04-.04v-1.883a.042.042 0 0 0-.021-.037z" fill="#f9ae00"/><path d="M22.685 18.371h.814a.04.04 0 0 1 .04.04v3.166a.04.04 0 0 1-.04.04h-.814a.04.04 0 0 1-.04-.04v-3.166a.04.04 0 0 1 .04-.04zM24.758 20.493s.761-.218.761-1.026c0-1.096-1.051-1.096-1.487-1.096h-.166a.04.04 0 0 0-.04.04v.708c0 .023.018.04.04.04h.262c.124 0 .487.022.487.39s-.378.39-.482.39h-.267a.04.04 0 0 0-.04.04v.62a.095.095 0 0 0 .018.062l.633.938c.008.011.02.018.035.018h.937a.042.042 0 0 0 .034-.065z" fill="#fff"/></g></g><defs><clipPath id="a"><path fill="#fff" d="M0 0h40v40H0z"/></clipPath></defs></svg>