<svg width="40" height="40" fill="none" xmlns="http://www.w3.org/2000/svg"><path fill-rule="evenodd" clip-rule="evenodd" d="M13.14 20.834c0-.246.059-.481.18-.71.122-.23.291-.405.513-.526.22-.12.466-.181.738-.181.42 0 .766.136 1.035.41.269.274.403.62.403 1.039 0 .42-.136.771-.406 1.047a1.378 1.378 0 0 1-1.027.416c-.255 0-.497-.058-.728-.173a1.19 1.19 0 0 1-.529-.508c-.12-.222-.18-.494-.18-.814zm.755.039c0 .276.067.489.196.635.133.147.293.22.485.22a.62.62 0 0 0 .482-.22c.13-.146.194-.361.194-.64 0-.273-.065-.482-.194-.629a.615.615 0 0 0-.482-.222.624.624 0 0 0-.485.222c-.13.147-.196.358-.196.634zm3.191 1.386h-.734v-2.783h.682v.395c.117-.187.222-.31.316-.367.094-.06.2-.087.32-.087.167 0 .33.047.485.138l-.229.642a.646.646 0 0 0-.345-.12.409.409 0 0 0-.264.085c-.072.056-.127.16-.168.308-.042.148-.063.459-.063.932zm1.13-2.783h.675v.38c.241-.292.531-.44.866-.44a.93.93 0 0 1 .463.11c.13.074.24.186.321.334.124-.148.255-.26.396-.333a.972.972 0 0 1 .454-.11c.204 0 .377.042.519.124a.759.759 0 0 1 .316.366c.05.117.076.31.076.575v1.777h-.734V20.67c0-.275-.025-.454-.077-.532-.068-.105-.173-.157-.314-.157-.103 0-.201.031-.292.092a.549.549 0 0 0-.197.278c-.04.12-.06.312-.06.574v1.334h-.735v-1.522c0-.27-.012-.446-.038-.524a.332.332 0 0 0-.122-.176.381.381 0 0 0-.224-.056.506.506 0 0 0-.501.354c-.038.117-.059.307-.059.574v1.35h-.733zm4.265 0h.783l.667 1.975.653-1.975h.761l-.98 2.68-.179.483c-.065.161-.126.285-.185.37a.792.792 0 0 1-.203.208.866.866 0 0 1-.28.124c-.112.03-.238.045-.378.045-.141 0-.28-.015-.419-.045l-.062-.574c.115.022.22.035.312.035.171 0 .299-.05.38-.152.083-.101.146-.229.19-.384zm5.558.826-.723.13a.522.522 0 0 0-.168-.327.505.505 0 0 0-.335-.109.551.551 0 0 0-.44.19c-.108.128-.162.34-.162.638 0 .33.054.564.166.7.11.136.258.204.445.204.14 0 .253-.04.342-.119.09-.08.152-.216.189-.412l.724.124c-.075.332-.22.583-.431.753-.213.17-.5.255-.857.255-.407 0-.73-.128-.973-.384-.24-.259-.363-.615-.363-1.069 0-.46.123-.818.365-1.075.243-.257.571-.384.985-.384.337 0 .606.073.806.22.2.145.342.367.43.665zm.185.532c0-.246.059-.481.18-.71.12-.23.291-.405.513-.526.22-.12.466-.181.738-.181.42 0 .766.136 1.035.41.27.274.403.62.403 1.039 0 .42-.136.771-.406 1.047a1.378 1.378 0 0 1-1.027.416 1.62 1.62 0 0 1-.73-.173 1.187 1.187 0 0 1-.526-.508c-.121-.222-.18-.494-.18-.814zm.756.039c0 .276.064.489.195.635.13.147.293.22.485.22a.62.62 0 0 0 .482-.22c.13-.146.194-.361.194-.64 0-.273-.065-.482-.194-.629a.615.615 0 0 0-.482-.222.622.622 0 0 0-.485.222c-.13.147-.195.358-.195.634zM34 22.259h-.735V20.84c0-.3-.016-.494-.047-.583a.419.419 0 0 0-.155-.204.432.432 0 0 0-.257-.073.594.594 0 0 0-.346.105.531.531 0 0 0-.21.275c-.04.116-.059.328-.059.64v1.258h-.733v-2.783h.681v.409c.245-.313.55-.468.922-.468.162 0 .31.03.447.087.136.06.237.135.305.224a.79.79 0 0 1 .145.309c.028.115.042.28.042.495Z" fill="#233b91" style="stroke-width:1.4"/><path fill-rule="evenodd" clip-rule="evenodd" d="M8.315 18.977a2.285 2.285 0 1 1 0 4.57 2.285 2.285 0 0 1 0-4.57z" fill="#8ba5d6" style="stroke-width:1.4"/><path fill-rule="evenodd" clip-rule="evenodd" d="m10.469 19.413-.004.01.004-.01zm-.075.206-.007.016.007-.016zm-.023.051c-.002.005-.005.01-.007.018l.007-.018zm-.023.049zm-.024.05c-.003.006-.005.011-.009.016l.009-.015zm-.024.048zm-.027.049c-.003.007-.008.012-.012.019.004-.007.009-.012.012-.02zm-.03.047-.01.02.01-.02zm-.027.049-.01.015a2.285 2.285 0 0 0-3.81.046 2.286 2.286 0 0 0 3.809-.045l.01-.016zm-3.82.06-.012-.015.012.016zm-.03-.043c-.003-.007-.008-.012-.012-.02.004.008.01.013.013.02zm-.029-.047c-.004-.007-.009-.012-.012-.02.003.008.008.013.012.02zm-.03-.049-.008-.016.008.016zm-.026-.045zm-.026-.05-.009-.018c.004.007.005.012.009.017zm-.026-.052c-.002-.005-.006-.01-.007-.015.001.005.005.01.007.015zm-.023-.048zm-.023-.053zm-.022-.054-.006-.012Zm-.02-.05z" fill="#233b91" style="stroke-width:1.4"/><path fill-rule="evenodd" clip-rule="evenodd" d="M8.285 16.453a2.285 2.285 0 0 1 1.92 3.524 2.284 2.284 0 0 0-3.809.046 2.285 2.285 0 0 1 1.889-3.57Z" fill="#8ba5d6" style="stroke-width:1.4"/><circle cx="10.588" cy="20" fill="#fedc00" r="2.285" style="stroke-width:1.4"/><path fill-rule="evenodd" clip-rule="evenodd" d="M10.785 19.473h.565c0-.723.281-1.002.856-1.086.17.173.316.372.426.59-.428-.037-.576.075-.56.496h.74c.04.169.06.345.06.527 0 .037-.001.073-.003.11h-.794v1.623c-.21.182-.452.323-.72.42V20.11h-.57z" fill="#233b91" style="stroke-width:1.4"/></svg>