<svg width="40" height="40" fill="none" xmlns="http://www.w3.org/2000/svg"><mask id="a" mask-type="alpha" maskUnits="userSpaceOnUse" x="10" y="14" width="20" height="12"><path fill="#fff" d="M10 14.946h20v10.108H10z"/></mask><g mask="url(#a)" transform="matrix(1.4 0 0 1.4 -8 -8)" fill-rule="evenodd" clip-rule="evenodd" fill="#fff"><path d="M10.019 15.158c-.009.432-.127.252.356.352.635.133.75.258.747 1.48v5.863c.005 1.663-.542 1.496-.883 1.685-.404.222-.055.393.243.392l2.75-.003c.289 0 .62-.171.212-.373-.37-.183-.99.005-1.187-1.008-.15-.767-.071-7.446.002-7.883 3.585-1.19 5.5 4.699.952 4.37-.08-.006-.291-.025-.357-.019l-.28.09c.49.802 2.65.125 3.197-.285 1.682-1.264 1.728-4.157-1.615-4.673-.452-.07-3.891-.095-4.137.012zM18.07 22.042c-.311.277.005 1.08.084 1.545.139.818.157.853.899 1.12 4.537 1.63 7.413-2.898 4.337-4.884-1.254-.81-3.475-.824-4.188-1.86-.32-.466-.304-1.163-.002-1.675.678-1.155 3.69-1.522 4.62.722.134.325.1.523.435.575.159-.426-.073-1.732-.17-2.222-.533-.072-.118.192-.703-.013-.856-.3-1.185-.462-2.385-.385-2.784.18-3.352 2.812-2.243 4.18 1.072 1.322 4.117 1.175 4.942 2.476.656 1.036-.248 2.223-.895 2.572-1.269.684-3.049.462-4.06-.912-.272-.369-.38-1.103-.671-1.24zM27.157 14.995c.011.082-.006.196.05.244.299.259.801.035.804.557l.024 4.19-.024 4.19c-.003.521-.505.297-.805.556-.055.048-.038.162-.049.244H30c-.011-.082.006-.196-.05-.244-.299-.259-.801-.035-.804-.557l-.024-4.19.024-4.189c.003-.522.505-.298.805-.557.055-.048.038-.162.049-.244H27.158z"/></g></svg>