<svg width="40" height="40" fill="none" xmlns="http://www.w3.org/2000/svg"><g clip-path="url(#a)" transform="matrix(1.4 0 0 1.4 -7.989 -8)"><g clip-path="url(#b)"><path fill-rule="evenodd" clip-rule="evenodd" d="M19.972 29.972h-.312c0-3.428-.623-6.232-2.18-7.79-2.182-1.247-3.74-1.87-7.48-1.87v-.624c3.74 0 5.298-.311 7.48-1.87 1.557-1.558 2.18-4.362 2.18-7.79h.624c0 3.428.623 6.232 2.181 7.79 2.182 1.559 3.74 1.87 7.48 1.87v.624c-3.74 0-5.298.623-7.48 1.87-1.558 1.558-2.181 4.362-2.181 7.79z" fill="#feca29"/></g></g><defs><clipPath id="a"><path fill="#fff" d="M0 0h40v40H0z"/></clipPath><clipPath id="b"><path fill="#fff" transform="translate(10 10)" d="M0 0h19.944v20H0z"/></clipPath></defs></svg>