<svg width="40" height="40" fill="none" xmlns="http://www.w3.org/2000/svg"><g clip-path="url(#a)" transform="matrix(1.4 0 0 1.4 -8 -8.159)"><g clip-path="url(#b)"><path d="M27.847 17.916c.553.153.998.389 1.369.746.896.863 1.039 2.347.351 3.423-.497.777-1.244 1.146-2.108 1.338-1.068.238-2.15.21-3.231.144-.219-.013-.436-.048-.655-.058-.127-.006-.173-.056-.156-.177.003-.02 0-.04 0-.061 0-3.277.002-6.554-.004-9.832 0-.183.052-.244.23-.27 1.171-.168 2.344-.246 3.521-.075.66.096 1.259.339 1.747.803 1.05 1 .91 2.715-.287 3.589-.225.167-.474.29-.777.43zm-3.066 2.583v1.48c0 .517 0 .517.521.552.667.044 1.325.016 1.967-.2 1.323-.444 1.488-1.735 1.143-2.578-.257-.626-.79-.923-1.402-1.098-.697-.198-1.414-.128-2.125-.14-.14-.003-.102.1-.102.174-.003.604-.002 1.207-.002 1.81zm0-4.7c0 .507.005 1.015-.003 1.522-.003.139.042.175.175.172.343-.008.686.002 1.029-.004a3.32 3.32 0 0 0 1.012-.152c.851-.287 1.305-.936 1.241-1.784-.056-.76-.577-1.27-1.46-1.43-.613-.113-1.226-.084-1.841-.01-.125.015-.156.065-.155.184.005.5.002 1.001.002 1.502zM14.196 22.086c.404-1.5.903-2.948 1.4-4.397a760.817 760.817 0 0 0 1.51-4.427c.047-.137.103-.179.244-.175.35.011.7.013 1.049 0 .177-.006.22.022.153.207-.404 1.104-.797 2.213-1.192 3.32-.804 2.248-1.607 4.495-2.405 6.745-.05.14-.115.174-.25.171a16.58 16.58 0 0 0-1.09.002c-.172.007-.233-.055-.284-.21-.625-1.94-1.258-3.877-1.89-5.815-.475-1.462-.954-2.924-1.441-4.416h1.405c.1 0 .094.089.112.146.36 1.134.719 2.269 1.072 3.405.49 1.574 1.021 3.135 1.429 4.734l.178.71zM21.317 21.636c0 .57-.004 1.137.002 1.706.002.136-.023.195-.176.19-.342-.012-.685-.01-1.027-.001-.13.003-.16-.041-.16-.165.004-1.164.004-2.33 0-3.494 0-.127.023-.184.167-.18.342.01.685.01 1.027 0 .14-.003.171.046.17.178-.007.588-.003 1.176-.003 1.766zM21.317 15.009c0 .582-.003 1.163.002 1.745.002.132-.031.178-.17.174a21.33 21.33 0 0 0-1.027 0c-.12.002-.167-.024-.166-.157.004-1.178.004-2.355 0-3.533-.001-.117.032-.151.149-.149.356.007.712.007 1.068 0 .122-.002.146.042.146.153-.005.59-.002 1.178-.002 1.767zM20.802 25.813c.568.001.972.416.968.994-.003.575-.413.98-.987.978-.559-.002-.964-.41-.97-.976-.004-.587.403-.998.989-.996zm-.608.99c.004.419.233.665.613.659.361-.006.587-.264.583-.67-.003-.416-.237-.666-.616-.66-.363.006-.584.264-.58.672z" fill="#fafafa"/><path d="M20.643 17.628c.172 0 .343.008.514-.002.13-.007.163.043.16.166-.006.35-.006.7 0 1.049.002.114-.03.156-.15.155a32.871 32.871 0 0 0-1.069-.001c-.109.001-.14-.038-.14-.144.006-.356.007-.712 0-1.07 0-.113.03-.16.15-.154.179.007.357.001.535.001z" fill="#bbbaba"/><path d="M24.404 26.799c0-.267.01-.534-.003-.8-.007-.143.044-.176.174-.168.252.014.506-.016.759.02.496.07.795.461.776 1.015-.018.485-.355.852-.83.881-.252.016-.506.001-.76.01-.11.004-.118-.05-.117-.136.004-.275.001-.548.001-.822zm.37-.01c0 .165.009.33-.003.493-.01.145.039.201.183.18.054-.007.11 0 .164 0 .375-.005.6-.224.612-.596.02-.562-.3-.83-.864-.737-.088.015-.092.06-.092.126v.535zM16.787 26.945l.533.783c-.37.068-.388.06-.569-.216a44.29 44.29 0 0 0-.272-.411.197.197 0 0 0-.217-.084c-.097.022-.054.112-.058.174a2.518 2.518 0 0 0 .001.37c.015.147-.026.198-.186.199-.168 0-.202-.052-.2-.208.01-.514.01-1.028 0-1.542-.002-.149.046-.19.187-.18.198.013.399 0 .596.018.308.029.5.18.55.41.058.265-.045.476-.318.65-.016.01-.03.024-.047.037zm-.592-.53c.078.095-.136.333.172.329.279-.004.43-.112.43-.323.001-.205-.13-.286-.42-.303-.268-.016-.145.176-.182.298zM13.696 27.765c.247-.631.484-1.226.712-1.824.048-.127.139-.11.232-.107.09.003.183-.027.233.105.213.569.436 1.134.661 1.699.037.092.025.11-.074.12-.185.019-.308-.035-.343-.228-.036-.192-.139-.28-.34-.242a.457.457 0 0 1-.163 0c-.268-.048-.432.039-.49.324-.049.237-.255.108-.428.153zm.944-1.549-.148.41c-.16.45-.16.45.312.404h.02c.074.002.1-.03.074-.102l-.258-.712zM12.354 26.777c0-.26.006-.52-.002-.781-.004-.122.025-.174.157-.166.225.014.454 0 .677.022.338.035.544.26.558.58a.607.607 0 0 1-.507.63c-.113.022-.233.03-.347.021-.142-.01-.182.046-.168.176.01.088-.009.18.004.267.029.19-.044.245-.23.233-.124-.008-.145-.051-.143-.16.005-.273.001-.548.001-.821zm.36-.324c.079.108-.144.363.193.348.304-.013.46-.116.467-.34.005-.228-.145-.323-.457-.344-.317-.019-.15.21-.203.336zM28.18 25.813a.85.85 0 0 1 .538.164c.053.037.132.07.064.157-.052.068-.088.165-.205.126-.02-.007-.036-.021-.054-.03-.343-.163-.637-.116-.807.132-.192.28-.15.749.086.967a.59.59 0 0 0 .723.039c.124-.087.192-.056.269.044.102.132-.033.171-.098.212a.95.95 0 0 1-1.03.033c-.352-.196-.458-.535-.442-.908.027-.58.404-.937.955-.936zM22.137 26.794c0-.267.006-.533-.002-.8-.003-.12.02-.17.155-.165.308.01.616.008.924.001.11-.002.143.035.136.14-.005.092.01.174-.132.166-.198-.012-.397 0-.596-.004-.089-.003-.114.03-.12.118-.034.433-.036.433.395.433.054 0 .11.005.164-.001.124-.018.164.028.165.156 0 .137-.059.151-.173.156-.18.005-.423-.088-.525.043-.086.112-.019.342-.026.519-.003.063.041.162-.034.184a.71.71 0 0 1-.303.005c-.05-.009-.028-.084-.028-.129v-.822zM17.978 26.943c0-.199-.009-.397.003-.596.009-.154-.028-.236-.2-.209-.068.011-.138-.003-.206.003-.119.01-.185-.01-.188-.16-.003-.165.088-.15.194-.15.391.002.782.007 1.172-.002.13-.002.163.039.162.164-.003.117-.039.148-.154.15-.433.008-.433.012-.433.44v.946c0 .115.042.236-.17.234-.193-.002-.186-.09-.182-.223.006-.2.002-.398.002-.597zM26.48 26.778c0-.267.009-.534-.003-.8-.008-.17.094-.146.197-.147.098 0 .184-.015.182.14-.01.547-.01 1.094 0 1.641.003.153-.075.148-.175.14-.09-.006-.212.049-.204-.133.011-.28.003-.56.003-.84z" fill="#fafafa"/></g></g><defs><clipPath id="a"><path fill="#fff" d="M0 0h40v40H0z"/></clipPath><clipPath id="b"><path fill="#fff" transform="translate(10 13)" d="M0 0h20v14.793H0z"/></clipPath></defs></svg>