<svg width="40" height="40" fill="none" xmlns="http://www.w3.org/2000/svg"><g clip-path="url(#a)" transform="matrix(1.4 0 0 1.4 -7.988 -8)"><g clip-path="url(#b)"><path d="M29.523 22.9c.724-2.99.536-4.896-.835-7.652-1.216 3.753-5.263 4.8-7.89 3.288-1.347-.776-2.276-1.89-2.666-3.395-.494-1.911-.023-3.616 1.29-5.141-.86.008-1.642.166-2.402.406-1.667.527-3.12 1.41-4.299 2.707-2.392 2.636-3.129 5.705-2.516 9.017.955 3.695 3.159 6.343 6.838 7.412.18.052 3.22.933 5.894.106 3.58-1.106 6.067-4.6 6.586-6.748z" fill="#6dafd9"/><path d="M23.406 10.127c2.017.002 3.645 1.61 3.636 3.618-.01 2.266-1.918 3.683-3.684 3.644-1.996-.044-3.607-1.646-3.6-3.658.008-2.009 1.626-3.607 3.648-3.604z" fill="#fff"/></g></g><defs><clipPath id="a"><path fill="#fff" d="M0 0h40v40H0z"/></clipPath><clipPath id="b"><path fill="#fff" transform="translate(10 10)" d="M0 0h19.939v20H0z"/></clipPath></defs></svg>