<svg width="40" height="40" fill="none" xmlns="http://www.w3.org/2000/svg"><path fill-rule="evenodd" clip-rule="evenodd" d="M33.808 19.192c0-1.455-1.101-1.677-2.203-1.677-1.12 0-2.182.465-2.182 1.667l1.233.05c0-.555.232-.768.95-.768.535 0 .97.142.97.647v.152c-.314.11-.89.212-1.334.302l-.515.102c-.758.151-1.556.596-1.556 1.596 0 .99.768 1.606 1.737 1.606.637 0 1.193-.202 1.667-.586 0 .131.04.344.121.465H34c-.071-.111-.192-.334-.192-.859Zm-1.231 1.727c0 .657-.738.94-1.313.94-.445 0-.798-.253-.798-.637 0-.485.383-.616.848-.707l.677-.141c.222-.04.424-.101.586-.182zm-9.76 1.829h1.576l1.06-5.173h.02l1.061 5.173h1.576l1.475-7.193h-1.363l-.96 5.556h-.02l-1.061-5.556h-1.354l-1.091 5.617h-.04l-.99-5.617h-1.364Zm-1.247-5.112h-1.273l-.96 3.718h-.02l-1.1-3.718h-1.324l1.839 5.243c-.152.323-.294.435-.687.435a2.7 2.7 0 0 1-.485-.04v1.1c.222.04.434.071.737.071.89 0 1.313-.303 1.596-1.243zm-4.756 1.556c0-1.455-1.101-1.677-2.202-1.677-1.122 0-2.182.465-2.182 1.667l1.232.05c0-.555.232-.768.95-.768.535 0 .97.142.97.647v.152c-.314.11-.89.212-1.334.302l-.516.102c-.757.151-1.555.596-1.555 1.596 0 .99.768 1.606 1.737 1.606a2.58 2.58 0 0 0 1.667-.586c0 .131.04.344.122.465h1.303c-.07-.111-.192-.334-.192-.859zm-1.235 1.727c0 .657-.738.94-1.314.94-.444 0-.798-.253-.798-.637 0-.485.384-.616.849-.707l.677-.141a2.22 2.22 0 0 0 .586-.182zm-8.223-1.465h1.748c.818 0 1.323.294 1.323 1.102 0 .747-.495 1-1.313 1H7.356Zm0-2.828h1.606c.788 0 1.142.353 1.142.899 0 .687-.546.92-1.142.92H7.356ZM6 22.748h3.061c1.495 0 2.778-.354 2.778-2.152 0-.859-.555-1.677-1.545-1.778v-.02c.787-.152 1.222-.667 1.222-1.455 0-1.192-.95-1.788-2.132-1.788H6Z" fill="#009149" style="stroke-width:1.4"/></svg>