<svg width="40" height="40" fill="none" xmlns="http://www.w3.org/2000/svg"><g clip-path="url(#a)" transform="matrix(1.4 0 0 1.4 -7.996 -7.998)"><mask id="b" mask-type="alpha" maskUnits="userSpaceOnUse" x="10" y="18" width="20" height="4"><path fill="#fff" d="M10 18.332h20v3.337H10z"/></mask><g mask="url(#b)"><path fill="#b2b4b5" d="M10.317 18.607h1.763v1.704h-1.763z"/><path fill-rule="evenodd" clip-rule="evenodd" d="m14.89 19.936-.839-1.486h.277l.679 1.239.649-1.239h.255l-.805 1.486z" fill="#9c9d9f"/><path fill-rule="evenodd" clip-rule="evenodd" d="m15.636 18.417-.63 1.201-.659-1.201h-.353l.877 1.552h.255l.84-1.552z" fill="#9c9d9f"/><path fill="#9c9d9f" d="M17.084 18.409h.318v1.548h-.318z"/><path fill-rule="evenodd" clip-rule="evenodd" d="M20.086 18.41h-.819c-.15 0-.249.026-.305.082-.056.056-.083.154-.083.3v.129c0 .146.027.244.083.3.056.055.156.083.305.083h.935v.384H19.12v-.247l-.3.067v.066c0 .146.027.245.084.3.057.056.157.083.307.083h.897c.149 0 .248-.027.305-.082.056-.055.083-.154.083-.301v-.167c0-.146-.028-.244-.085-.3-.057-.055-.156-.082-.303-.082h-.938v-.352h1.026v.225l.283-.077v-.055c0-.13-.03-.222-.088-.276-.059-.054-.158-.08-.305-.08zM22.247 18.41c-.15 0-.25.026-.307.082-.057.056-.085.153-.085.3v.782c0 .146.028.245.085.3.057.056.158.083.307.083h.862c.149 0 .248-.027.304-.082.056-.055.083-.154.083-.3v-.201l-.318-.065v.379h-1.005v-1.015h1.005v.343l.318-.058v-.167c0-.146-.027-.245-.083-.3-.056-.055-.155-.082-.304-.082h-.862zM28.266 18.706a1.245 1.245 0 0 1 .012.218v1.002h-.218V18.44h.21l.747.967.697-.967h.235v1.486h-.235v-1.002l.005-.1.007-.118a1.959 1.959 0 0 1-.092.16l-.588.827h-.065l-.612-.804-.007-.01a.63.63 0 0 1-.096-.173z" fill="#9c9d9f"/><path fill-rule="evenodd" clip-rule="evenodd" d="M28.337 18.917v-.02zm1.361-.508-.682.947-.731-.947h-.256v1.548h.28v-1.033s0-.037-.002-.072l.03.046.628.826h.097l.597-.84.028-.044-.004.084v1.033h.298V18.41z" fill="#9c9d9f"/><path fill-rule="evenodd" clip-rule="evenodd" d="M16.915 20.943h.106l.162.434.159-.434h.103l-.211.502h-.108zM17.835 20.726h.104v.093h-.104Zm.004.217h.096v.502h-.096zM18.672 21.078a.071.071 0 0 0-.028-.06.121.121 0 0 0-.077-.022.145.145 0 0 0-.078.018.057.057 0 0 0-.028.051c0 .016.005.029.015.04.01.01.025.018.046.023l.106.028a.272.272 0 0 1 .116.055c.023.021.035.05.035.087 0 .05-.02.09-.058.118a.258.258 0 0 1-.158.044.26.26 0 0 1-.16-.043c-.037-.028-.055-.069-.055-.123h.098c0 .03.01.055.031.072.021.017.05.026.086.026a.152.152 0 0 0 .09-.023.072.072 0 0 0 .031-.063.05.05 0 0 0-.02-.04.159.159 0 0 0-.06-.027l-.105-.028a.227.227 0 0 1-.104-.05.117.117 0 0 1-.03-.087c0-.045.017-.08.053-.107a.25.25 0 0 1 .149-.039c.063 0 .113.014.15.04a.129.129 0 0 1 .053.11h-.098zM19.19 20.726h.104v.093h-.104zm.005.217h.095v.502h-.095zM19.958 21.392a.13.13 0 0 0 .11-.053.242.242 0 0 0 .039-.147.232.232 0 0 0-.04-.144.13.13 0 0 0-.11-.052.13.13 0 0 0-.11.051.232.232 0 0 0-.039.145c0 .063.013.113.04.147a.13.13 0 0 0 .11.053zm0 .068a.24.24 0 0 1-.184-.072.276.276 0 0 1-.068-.197c0-.082.023-.146.067-.193a.243.243 0 0 1 .185-.07c.078 0 .14.024.184.07a.268.268 0 0 1 .067.193c0 .084-.023.15-.067.197a.24.24 0 0 1-.184.071zM20.627 20.943h.088v.069l.016-.02a.207.207 0 0 1 .16-.064c.068 0 .119.018.15.053.033.035.049.09.049.165v.299h-.096v-.298c0-.051-.01-.089-.03-.112-.02-.023-.052-.035-.096-.035-.051 0-.088.013-.111.038-.024.026-.035.067-.035.123v.284h-.096v-.502Z" fill="#022950"/><path fill="#022950" d="M10 18.332h1.723v1.665H10z"/><path fill-rule="evenodd" clip-rule="evenodd" d="M10.107 21.086c.013.005 1.325.545 3.09.53 2.169-.017 3.114-.453 3.154-.471l-.064-.125c-.009.004-.96.44-3.09.458-1.736.014-3.02-.514-3.033-.52zM22.473 21.457a.528.528 0 0 1-.094.007.144.144 0 0 1-.091-.029.089.089 0 0 1-.037-.072v-.36h-.108v-.07h.108v-.092l.094-.04v.133h.128v.068h-.128v.34c0 .018.005.03.014.039.01.008.024.013.044.013a.354.354 0 0 0 .07-.008v.07zM23.22 21.136a.197.197 0 0 0-.029-.105c-.02-.028-.056-.042-.107-.042a.12.12 0 0 0-.102.05.192.192 0 0 0-.033.096zm-.127.328a.232.232 0 0 1-.18-.07.276.276 0 0 1-.065-.194c0-.088.022-.157.065-.207a.225.225 0 0 1 .18-.075c.073 0 .13.022.168.065.039.043.058.106.058.189l-.001.034h-.37c.002.06.013.104.033.135.023.035.06.053.11.053.034 0 .063-.01.085-.03a.12.12 0 0 0 .04-.08h.099a.196.196 0 0 1-.068.134.238.238 0 0 1-.154.046zM24.169 21.274a.202.202 0 0 1-.061.143.222.222 0 0 1-.153.047c-.085 0-.148-.022-.188-.067-.041-.046-.062-.115-.062-.208a.28.28 0 0 1 .066-.199.239.239 0 0 1 .184-.072c.064 0 .114.016.151.048a.172.172 0 0 1 .059.132h-.097a.108.108 0 0 0-.035-.08.128.128 0 0 0-.088-.03c-.048 0-.083.016-.105.049-.023.032-.034.083-.034.152 0 .072.011.124.033.157.022.032.057.048.106.048.04 0 .072-.01.092-.028.02-.02.033-.05.036-.092h.096zM24.581 20.709h.095v.288l.012-.013a.2.2 0 0 1 .158-.066c.068 0 .118.018.15.054.031.036.047.092.047.169v.308h-.095v-.306c0-.053-.01-.09-.03-.115-.02-.023-.052-.035-.096-.035-.051 0-.088.013-.111.039-.023.026-.035.068-.035.125v.292h-.095zM25.477 20.933h.088v.071a.203.203 0 0 1 .176-.086c.068 0 .118.018.15.055.032.036.048.092.048.169v.307h-.095v-.306c0-.053-.01-.09-.03-.115-.02-.023-.053-.035-.097-.035-.05 0-.088.013-.11.039-.024.026-.035.068-.035.125v.292h-.095zM26.6 21.395a.129.129 0 0 0 .11-.054.255.255 0 0 0 .04-.152.246.246 0 0 0-.04-.148.13.13 0 0 0-.11-.053.13.13 0 0 0-.11.053.244.244 0 0 0-.039.148c0 .065.013.116.04.152a.128.128 0 0 0 .109.054zm0 .07a.235.235 0 0 1-.184-.074.29.29 0 0 1-.066-.202.28.28 0 0 1 .066-.199.238.238 0 0 1 .184-.072c.078 0 .14.024.184.072a.281.281 0 0 1 .067.199.29.29 0 0 1-.067.202.236.236 0 0 1-.184.073zM27.24 20.709h.095v.74h-.095zM27.944 21.395a.129.129 0 0 0 .11-.054.255.255 0 0 0 .039-.152.245.245 0 0 0-.04-.148.13.13 0 0 0-.11-.053.129.129 0 0 0-.109.053.243.243 0 0 0-.04.148c0 .065.014.116.04.152a.128.128 0 0 0 .11.054zm0 .07a.236.236 0 0 1-.184-.074.289.289 0 0 1-.067-.202.28.28 0 0 1 .067-.199.239.239 0 0 1 .184-.072c.078 0 .14.024.184.072a.281.281 0 0 1 .066.199.29.29 0 0 1-.066.202.236.236 0 0 1-.184.073zM28.81 20.988a.123.123 0 0 0-.104.05.23.23 0 0 0-.037.14c0 .065.011.114.035.146.023.032.059.048.107.048.045 0 .08-.017.105-.05a.236.236 0 0 0 .037-.142.234.234 0 0 0-.037-.142.123.123 0 0 0-.105-.05zm0 .599c.052 0 .089-.013.11-.038.022-.025.033-.069.033-.13v-.069l-.016.022a.189.189 0 0 1-.153.07.194.194 0 0 1-.159-.07.297.297 0 0 1-.058-.195c0-.075.022-.137.064-.186a.21.21 0 0 1 .165-.073c.063 0 .113.024.149.07l.008.01v-.064h.095v.485c0 .083-.02.143-.058.18-.038.039-.1.058-.183.058-.072 0-.126-.014-.16-.04-.033-.028-.05-.07-.05-.128h.099c0 .034.009.059.027.074.019.016.047.024.086.024zM29.625 21.64h-.096l.079-.189-.22-.517h.104l.167.408.158-.408h.1z" fill="#022950"/><path fill-rule="evenodd" clip-rule="evenodd" d="M24.845 18.779c0-.14.025-.235.077-.286.05-.052.148-.077.293-.077h1.089c.142 0 .239.025.29.076.051.05.077.146.077.287v.81c0 .142-.026.238-.077.288-.051.05-.148.076-.29.076h-1.09c-.144 0-.241-.026-.293-.077-.05-.052-.076-.147-.076-.287zm.306.91h1.21l.002-1.014-1.214-.002z" fill="#9c9d9f"/></g></g><defs><clipPath id="a"><path fill="#fff" d="M0 0h40v40H0z"/></clipPath></defs></svg>