<svg width="40" height="40" fill="none" xmlns="http://www.w3.org/2000/svg"><mask id="a" style="mask-type:alpha" maskUnits="userSpaceOnUse" x="10" y="16" width="20" height="8"><path fill="#fff" d="M10 16.016h20v7.967H10z"/></mask><g mask="url(#a)" transform="matrix(1.4 0 0 1.4 -8 -8)" fill-rule="evenodd" clip-rule="evenodd" fill="#fff"><path d="M25.346 18.35c.331.508.459 1.178.201 1.812-.876 2.159-5.39 3.406-7.608 3.822h2.626c2.198-.534 7.872-2.596 5.314-5.817-.401-.506-1.91-1.462-3.14-1.857 1.032.584 1.936 1.013 2.607 2.04z"/><path d="m23.609 16.016 1.688.983c2.492 1.45 3.083 3.846-.062 5.712-.835.496-1.797.894-2.695 1.273h1.627c.815-.388 2.07-.992 2.47-1.332.14-.119.195-.138.3-.227 1.028-.874 1.678-2.111.99-3.442-.423-.822-1.535-1.657-2.332-2.049-.276-.136-1.44-.72-1.986-.918z"/><path d="M26.135 16.597c1.263.85 2.81 1.643 3.077 3.342.04.251.042.5.01.745-.212 1.587-1.686 2.632-3.015 3.3h1.476c3.712-2.621 2.796-5.632-1.548-7.387zM12.77 20.924l-.013-1.39c.694-.013 1.203-.065 1.204.701 0 .806-.48.675-1.19.69zm0-1.633-.013-1.278c.667 0 1.174-.117 1.146.647-.026.691-.523.63-1.133.63zm-.312 1.886c.78-.003 2.067.228 1.817-1.216-.064-.366-.205-.422-.49-.563.231-.107.347-.198.41-.488.297-1.382-1.05-1.14-1.744-1.154zM22.345 21.053l.01-1.679-.977.001.001.245.66.014-.011 1.217c-.224.08-.412.118-.568.122-.838.025-.796-.924-.767-1.847.016-.48.034-.99.478-1.122.859-.258.926.526.936.61h.275c-.02-.748-.474-1.017-1.25-.883-.652.114-.745.69-.768 1.395-.018.57-.044 1.465.283 1.82.158.172.471.294.802.286.33-.008.673-.042.896-.18zM18.19 19.998l.592-1.87.547 1.867zm-.115.267 1.346-.014.303.921.307.003-1.054-3.415-.374.004-1.087 3.406.307.003zM10 20.212c.003.46.087.741.381.903 1.094.604 2.093-.842 1.132-1.485-.365-.244-1.22-.65-1.154-1.206.042-.353.36-.496.714-.448.37.05.428.305.48.67l.284.003c.118-1.328-1.874-1.225-1.8-.05.043.675.747.83 1.185 1.207 1.107.953-.794 1.858-.934.45-.002-.025-.014-.03-.022-.044zM15.135 18.04l1.095-.008v-.277h-1.414l-.004 3.422h.314l.006-1.624 1.041-.003-.005-.26-1.042-.008z"/></g></svg>