<svg width="40" height="40" fill="none" xmlns="http://www.w3.org/2000/svg"><path fill-rule="evenodd" clip-rule="evenodd" d="M16.35 16.942h7.597v-1.595H16.35zM16.35 24.715h7.597v-1.596H16.35zM16.35 20.828h7.597v-1.595H16.35zM25.867 24.715l.004-1.657h4.455c1.85 0 2.032-.257 2.032-1.23 0-.863-.523-.951-1.178-1.007a9.005 9.005 0 0 0-.279-.018v-1.584c1.577.113 3.099.56 3.099 2.67 0 2.159-1.259 2.826-3.708 2.826zM33.639 15.285l-.004 1.657H29.18c-1.85 0-2.032.257-2.032 1.232 0 .861.525.95 1.178 1.005.084.007.178.013.275.018v1.584c-1.575-.113-3.095-.56-3.095-2.67 0-2.157 1.259-2.826 3.708-2.826zM6 21.781h1.595V18.28H6Z" fill="#9b2226" style="stroke-width:1.4"/><path fill-rule="evenodd" clip-rule="evenodd" d="M14.766 20.037c0 1.824-.112 2.701-.6 3.426-.666.987-1.668 1.252-3.393 1.252H6v-1.596h4.689c1.865 0 2.435-.014 2.435-3.075 0-3.06-.585-3.102-2.45-3.102H6v-1.595h4.759c1.724 0 2.726.277 3.395 1.266.487.723.612 1.602.612 3.424z" fill="#9b2226" style="stroke-width:1.4"/></svg>