<svg width="40" height="40" fill="none" xmlns="http://www.w3.org/2000/svg"><mask id="a" mask-type="alpha" maskUnits="userSpaceOnUse" x="10" y="10" width="20" height="20"><path fill="#fff" d="M10 10.04h20v19.919H10z"/></mask><g mask="url(#a)" transform="matrix(1.4 0 0 1.4 -7.995 -8)"><path fill-rule="evenodd" clip-rule="evenodd" d="M19.692 10.04h.723c1.49.074 2.964.464 4.28 1.168a9.992 9.992 0 0 1 4.814 5.798 9.59 9.59 0 0 1 .404 2.024c.06.537.024 1.081.028 1.62a9.821 9.821 0 0 1-1.31 4.335 10.016 10.016 0 0 1-2.995 3.238 10.079 10.079 0 0 1-5.228 1.737h-.823c-.418-.03-.837-.064-1.25-.137a9.92 9.92 0 0 1-5.481-2.877c-1.697-1.735-2.734-4.111-2.802-6.54-.04-.297-.02-.595.004-.891-.007-.273.046-.542.055-.814l.02-.024c.321-2.692 1.853-5.193 4.048-6.77a10.02 10.02 0 0 1 5.513-1.867m-.59.964c-.106.024-.214.032-.322.041-.16.033-.323.05-.483.084-.066.016-.133.029-.2.042-.054.014-.11.026-.164.038-.16.042-.322.08-.477.136a4.905 4.905 0 0 1-.09.022l-.122.045-.122.037-.063.042c.035.07.069.141.1.213.046.106.094.211.142.316.059.138.123.275.18.414.055.12.11.24.16.364.106.225.202.455.306.68.504 1.138 1.016 2.272 1.521 3.41.054.12.11.241.162.363.053.122.109.243.162.364.059.126.096.27.21.36.1-.084.143-.21.19-.327.061-.131.119-.264.177-.397.549-1.231 1.103-2.46 1.65-3.693l.161-.363.162-.364.161-.365.176-.397c.053-.122.109-.242.16-.365.034-.074.068-.148.106-.22-.063-.024-.123-.052-.186-.075a4.056 4.056 0 0 1-.123-.041 14.705 14.705 0 0 0-.09-.023c-.156-.056-.318-.091-.477-.136a6.157 6.157 0 0 1-.362-.082c-.162-.027-.325-.049-.486-.082-.108-.01-.217-.017-.323-.041-.202-.019-.406-.008-.607-.042-.397-.021-.793.026-1.19.042m-3.573 1.158a9.537 9.537 0 0 0-3.095 2.946c.022.098.068.187.114.275.062.119.118.24.177.36.066.134.133.27.202.403.706 1.434 1.428 2.86 2.13 4.297l.06.113.24.489c.553 1.116 1.11 2.23 1.663 3.346.023.068.082.098.152.097.062-.115.117-.234.169-.354.044-.112.095-.221.142-.332.046-.105.09-.211.137-.316.048-.111.098-.22.143-.332.048-.105.093-.21.139-.316.353-.811.708-1.621 1.066-2.43.037-.089.126-.154.225-.142h1.621c.106-.012.194.065.23.158.352.805.707 1.608 1.056 2.414.046.106.092.211.14.316.045.112.095.221.143.332l.136.317c.104.225.186.46.31.676l.098.003c.449-.861.87-1.737 1.307-2.605.97-1.967 1.949-3.929 2.923-5.893.076-.144.14-.293.217-.435.068-.139.125-.285.218-.41-.082-.1-.15-.21-.223-.315a9.45 9.45 0 0 0-2.892-2.66.416.416 0 0 0-.137-.057 761.15 761.15 0 0 0-1.498 3.323c-.064.149-.135.294-.198.443-.047.106-.094.211-.144.316-.059.139-.122.275-.18.414-.061.132-.12.264-.18.397a666.11 666.11 0 0 1-1.03 2.291c-.038.081-.068.169-.123.24-.064.07-.17.067-.256.071-.5-.002-1.002.001-1.502-.001-.105.002-.224-.034-.26-.144a566.888 566.888 0 0 1-1.286-2.854c-.059-.139-.122-.275-.183-.412l-.177-.398c-.547-1.234-1.113-2.46-1.657-3.695-.046.02-.092.04-.137.064m12.907 4.686c-.18.396-.385.78-.574 1.172-.055.108-.11.215-.161.324-.053.108-.107.216-.159.325l-.062.115a6.415 6.415 0 0 1-.058.125l-.042.084-.06.115c-.031.071-.065.141-.1.211-.659 1.336-1.333 2.666-1.991 4.003l-.04.08c-.029.054-.055.108-.081.163a4.225 4.225 0 0 0-.08.163l-.08.161-.04.082-.058.112c-.065.137-.134.27-.2.406-.494 1.01-1 2.015-1.505 3.02-.07.173-.29.264-.452.158-.167-.117-.207-.332-.292-.505-.06-.131-.12-.264-.178-.397-.6-1.354-1.207-2.704-1.809-4.057-.053-.122-.11-.242-.161-.365-.054-.121-.112-.242-.156-.368-.035-.05-.099-.085-.155-.045-.086.147-.142.309-.212.463-.607 1.364-1.221 2.725-1.824 4.09l-.143.315c-.057.139-.121.274-.18.413-.057.12-.1.248-.173.361a.315.315 0 0 1-.366.12c-.098-.031-.156-.123-.202-.209-.501-1.01-1.01-2.016-1.508-3.027l-.079-.162a13.17 13.17 0 0 0-.16-.323l-.04-.082c-.026-.055-.054-.108-.081-.161a8.104 8.104 0 0 0-.08-.162 7.123 7.123 0 0 0-.061-.13l-.1-.195-.12-.243c-.658-1.339-1.337-2.667-1.992-4.008l-.04-.081c-.046-.097-.094-.192-.141-.288-.049-.092-.093-.186-.142-.278-.018-.043-.038-.086-.057-.128l-.06-.113c-.203-.412-.405-.823-.612-1.233-.078.125-.11.27-.158.407a8.952 8.952 0 0 0 .59 6.852l.017.044c.104.18.201.365.312.542a9.177 9.177 0 0 0 4.195 3.62c.067.027.134.055.202.081l.15.06.174.06.121.045.122.038c.104.033.21.06.314.093.16.044.323.083.485.121a3.9 3.9 0 0 1 .202.04c.068.013.136.026.204.043.325.04.649.1.979.1.334.035.673.04 1.008.003.342-.006.68-.054 1.018-.106.067-.016.136-.028.204-.04.067-.016.134-.027.202-.04.162-.039.325-.077.486-.12.104-.033.208-.062.312-.095l.124-.043.085-.023c.12-.046.24-.089.36-.136l.202-.083a9.09 9.09 0 0 0 2.688-1.768 9.12 9.12 0 0 0 2.4-3.772c.63-1.918.605-4.06-.131-5.944z" fill="#fff"/></g></svg>