<svg width="40" height="40" fill="none" xmlns="http://www.w3.org/2000/svg"><g clip-path="url(#a)" transform="matrix(1.4 0 0 1.4 -7.995 -7.99)"><mask id="b" mask-type="alpha" maskUnits="userSpaceOnUse" x="10" y="15" width="20" height="10"><path fill="#fff" d="M10 15h20v10H10z"/></mask><g mask="url(#b)" fill-rule="evenodd" clip-rule="evenodd"><path d="M27.615 15.06c.796-.172 1.836.001 2.194.832.5 1.307-.182 2.938-1.457 3.514-.61.278-1.329.332-1.962.104a1.394 1.394 0 0 1-.866-.92c-.395-1.471.552-3.233 2.091-3.53zm.012.814c-.68.196-1.11.877-1.2 1.553-.046.382-.073.83.204 1.137.29.302.758.296 1.137.209.634-.18 1.047-.79 1.179-1.41.088-.413.117-.9-.166-1.248-.279-.326-.767-.346-1.154-.241zM16.418 19.573c.859-1.494 1.679-3.008 2.544-4.498.355.005.71.004 1.066.003.272 1.498.534 2.997.808 4.494h-.989c-.051-.29-.1-.58-.144-.872-.612-.005-1.225 0-1.837-.004-.165.292-.326.585-.491.876h-.957zm1.803-1.54a13.49 13.49 0 0 1 1.373 0c-.08-.66-.262-1.304-.294-1.97-.325.675-.716 1.316-1.079 1.97zM22.221 15.08c.676.004 1.353-.045 2.028.007.446.031.963.309.976.81.082.596-.387 1.083-.897 1.3.256.082.492.26.559.531.163.681-.294 1.381-.918 1.638-.822.354-1.738.181-2.604.206.289-1.497.573-2.994.856-4.492zm.78.651c-.074.41-.15.82-.226 1.229.44.009.962.024 1.286-.329.209-.215.273-.662-.029-.825-.325-.135-.688-.069-1.03-.075zm-.34 1.832c-.091.437-.165.878-.263 1.315.449.053.984.096 1.331-.254.233-.23.349-.705.038-.92-.334-.195-.738-.131-1.106-.141z" fill="#f29401"/><path d="M10 20.435h.978c.11 1.145.286 2.285.33 3.435.511-1.171 1.128-2.294 1.7-3.437l1.002.002c.147 1.133.346 2.26.418 3.401.528-1.143 1.09-2.27 1.64-3.4.33-.002.66-.003.99-.002-.742 1.5-1.487 2.995-2.23 4.493-.381.002-.762.002-1.144.002-.142-1.136-.326-2.269-.406-3.41-.5 1.164-1.114 2.273-1.674 3.408-.37.002-.74.002-1.11 0-.158-1.498-.358-2.992-.494-4.492zM17.8 20.434l.907.001a1782.25 1782.25 0 0 0-.856 4.492c-.305.001-.61.002-.915.001.296-1.496.567-2.997.864-4.494zM19.022 24.928c.294-1.496.57-2.996.86-4.493.389-.003.777.006 1.165-.01.5 1.082.977 2.18 1.393 3.298.171-1.101.398-2.19.592-3.287.298-.002.596-.003.894 0a2368.4 2368.4 0 0 1-.856 4.494 67.068 67.068 0 0 0-1.187.002c-.465-1.108-.992-2.192-1.375-3.331-.146 1.118-.4 2.217-.599 3.326-.295.001-.59.002-.887.001zM24.993 20.441c.75.003 1.508-.078 2.253.039.592.088 1.175.482 1.313 1.093a2.893 2.893 0 0 1-.645 2.453c-.515.585-1.293.89-2.062.921-.572.018-1.144-.005-1.715-.02.29-1.495.572-2.99.856-4.486zm.773.75c-.186.989-.374 1.975-.563 2.962.484.029 1 .055 1.44-.182.657-.326.987-1.092.978-1.798.003-.328-.153-.67-.45-.829-.427-.242-.938-.157-1.405-.152z" fill="#707173"/></g></g><defs><clipPath id="a"><path fill="#fff" d="M0 0h40v40H0z"/></clipPath></defs></svg>