<svg width="40" height="40" fill="none" xmlns="http://www.w3.org/2000/svg"><mask id="a" mask-type="alpha" maskUnits="userSpaceOnUse" x="11" y="15" width="20" height="10"><path fill-rule="evenodd" clip-rule="evenodd" d="M11 15v9.833h10.046L30.879 15H11Z" fill="#fff"/></mask><g mask="url(#a)" transform="matrix(1.4 0 0 1.4 -8.376 -7.967)"><path fill-rule="evenodd" clip-rule="evenodd" d="M11 15v9.833h10.046L30.879 15z" fill="url(#b)" style="fill:url(#b)"/></g><path fill-rule="evenodd" clip-rule="evenodd" d="M23.701 19.62h-.603v-2.207h.603c.805 0 1.447.266 1.447 1.09 0 .85-.642 1.118-1.447 1.118zm-6.491 1.576a2.5 2.5 0 0 1-.88-.156l.87-2.738h.018l.851 2.747a2.544 2.544 0 0 1-.86.147zm6.33-5.575H20.8v6.511l-2.392-6.511h-2.373l-2.044 5.446c-.216-1.373-1.637-1.848-2.755-2.204-.74-.236-1.52-.585-1.514-.971.006-.315.42-.61 1.24-.566.551.03 1.038.074 2.004.542l.954-1.66c-.885-.448-2.105-.731-3.104-.733h-.006c-1.166 0-2.139.38-2.741 1a2.319 2.319 0 0 0-.655 1.599c-.016.841.294 1.436.942 1.912.546.4 1.245.66 1.862.854.76.234 1.38.44 1.373.875a.636.636 0 0 1-.179.427c-.19.196-.481.27-.883.279-.777.015-1.353-.107-2.268-.648l-.847 1.68c.915.52 1.998.826 3.1.826l.144-.002c.961-.017 1.737-.292 2.357-.79.035-.027.067-.058.1-.088l-.273.735h2.487l.418-1.27c.436.148.933.232 1.463.232.512 0 .998-.079 1.428-.22l.401 1.258h4.059v-2.63h.885c2.139 0 3.406-1.09 3.406-2.916 0-2.033-1.23-2.967-3.849-2.967z" fill="#fefefe" style="stroke-width:1.4"/><mask id="c" mask-type="alpha" maskUnits="userSpaceOnUse" x="23" y="23" width="2" height="2"><path fill-rule="evenodd" clip-rule="evenodd" d="M23.323 23.56h1.29v1.275h-1.29V23.56Z" fill="#fff"/></mask><g mask="url(#c)" transform="matrix(1.4 0 0 1.4 -8.376 -7.967)"><path fill-rule="evenodd" clip-rule="evenodd" d="M23.835 24.151v-.227h.152c.077 0 .159.016.159.108 0 .113-.084.12-.177.12zm0 .095h.128l.194.318h.125l-.21-.323c.108-.013.19-.07.19-.203 0-.144-.085-.209-.258-.209h-.28v.735h.11zm.135.59a.638.638 0 1 0 0-1.277.638.638 0 1 0 0 1.276zm-.52-.64a.517.517 0 1 1 1.036 0 .515.515 0 0 1-.516.533.516.516 0 0 1-.52-.534z" fill="#2f5fa9"/></g><defs><linearGradient id="b" x1="30.88" y1="24.848" x2="30.88" y2="15.014" gradientUnits="userSpaceOnUse"><stop stop-color="#2F5FAA"/><stop offset="1" stop-color="#35AFE5"/></linearGradient></defs></svg>