<svg width="39" height="40" fill="none" xmlns="http://www.w3.org/2000/svg"><g clip-path="url(#a)" transform="matrix(1.4 0 0 1.4 -8 -8)"><g clip-path="url(#b)"><path d="M29.995 20.025c0 3.257-.002 6.513.005 9.77 0 .171-.034.205-.204.205-6.53-.006-13.061-.006-19.591 0-.171 0-.205-.034-.204-.204.005-6.531.005-13.061-.001-19.591 0-.171.034-.205.204-.205 6.531.005 13.061.005 19.591 0 .171 0 .205.034.205.204-.006 3.274-.005 6.547-.005 9.821z" fill="#da3a32"/><path d="M22.59 18.604c-.046.559-.006 1.119-.023 1.678-.003.092.045.202-.066.27-.087.043-.18.021-.27.021-1.074.002-2.148.001-3.222.002-.115 0-.24-.025-.295.121-.004.208.001.416-.014.623-.013.179.059.225.23.224 1.024-.007 2.047-.004 3.071-.004 1.39 0 2.78 0 4.17.004.093 0 .203-.043.277.06.017.029.023.06.023.094v3.2a.17.17 0 0 1-.024.094c-.067.095-.168.058-.253.058-4.129.002-8.258.002-12.386 0-.087 0-.187.036-.255-.056-.045-.078-.024-.163-.024-.244v-9.447c0-.081-.022-.167.026-.243.077-.074.174-.046.262-.046h12.367c.088 0 .185-.028.261.047.035.043.026.094.027.143v3.102c0 .049.006.1-.023.144l-.058.096c-.083.058-.177.029-.266.029-1.08.002-2.16.001-3.24.001-.1 0-.2-.008-.296.029z" fill="#fff"/><path d="M13.555 15.059c.003 1.214.006 2.43.006 3.644.002 2.03 0 4.06 0 6.09 0 .067-.005.133-.008.2-.076-.076-.049-.173-.049-.261v-9.414c0-.088-.026-.185.051-.26z" fill="#b0332f"/><path d="M22.59 18.604c.023-.099.104-.065.163-.065 1.213 0 2.426.003 3.639.006-.079.091-.186.054-.28.054-1.069.003-2.137 0-3.206.002-.113 0-.25-.044-.298.124a3.205 3.205 0 0 1-.018-.121z" fill="#bb3530"/><path d="M18.713 20.696c-.045-.188.091-.153.193-.153h2.148c.483.001.965.006 1.448.01-.085.076-.19.046-.286.046-1.052.002-2.104.002-3.156 0-.127 0-.25 0-.346.097z" fill="#b4342f"/><path d="m26.449 18.45-.004-3.39c.066.059.05.137.05.21.002.99.003 1.979.002 2.968 0 .073.015.152-.048.212zM26.447 24.991v-3.389c.064.06.049.138.049.211v2.967c0 .073.015.152-.049.211z" fill="#ae322e"/></g></g><defs><clipPath id="a"><path fill="#fff" d="M0 0h39v40H0z"/></clipPath><clipPath id="b"><path fill="#fff" transform="translate(10 10)" d="M0 0h20v20H0z"/></clipPath></defs></svg>