<svg width="40" height="40" fill="none" xmlns="http://www.w3.org/2000/svg"><path fill-rule="evenodd" clip-rule="evenodd" d="M19.482 17.126c0-.639-.517-1.151-1.155-1.151a1.154 1.154 0 1 0 0 2.31 1.15 1.15 0 0 0 1.155-1.16z" fill="#ea7600" style="stroke-width:1.4"/><path fill-rule="evenodd" clip-rule="evenodd" d="M30.506 19.07c-1.635-.728-2.937-1.602-2.937-3.189 0-1.26.96-2.197 2.49-2.197 1.435 0 2.566.737 3.063 1.31v-1.68c-.236-.045-.53-.15-.81-.236a6.294 6.294 0 0 0-1.782-.28c-2.815 0-4.426 1.822-4.426 3.942 0 2.57 2.897 3.575 3.609 3.925 1.37.66 2.762 1.412 2.762 3.234 0 1.672-1.03 2.417-2.656 2.417-1.644 0-3.035-.826-3.678-1.477v1.554c0 .008.004.016.004.02.26.106.688.297 1.225.464a6.72 6.72 0 0 0 2.038.325c2.721 0 4.592-1.655 4.592-4.137.008-2.66-2.078-3.372-3.494-3.994zM9.519 19.823l6.41-6.712h-2.411c0 .045-.139.923-.505 1.375-1.037 1.277-4.727 4.938-5.11 5.32-.003-2.143-.003-4.063-.003-4.063.004-.647.012-1.094.012-1.2 0-.769.504-1.432.504-1.432H6.008s.415.667.415 1.42l.004 11.085c0 .769-.427 1.424-.427 1.424h2.408s-.5-.663-.5-1.416L7.9 19.868c.374.394.89.968 1.472 1.623l3.442 3.694c.158.179.297.341.407.476.366.447.504 1.33.504 1.375h2.449l-2.575-2.767c-1.225-1.228-2.815-2.973-4.08-4.446zM25.067 17.167c0-1.213-.346-2.356-1.22-3.108-.87-.749-1.851-.96-3.507-.96h-3.494l-.671.797h2.652v.004c1.115 0 2.31.11 2.799.33.492.22.862.423 1.118.878.257.46.383 1.119.383 1.973 0 1.225-.281 2.103-.846 2.636-.566.533-1.485.66-2.763.66h-1.96v1.72c0 1.587.004 3.43.004 3.515 0 .769-.42 1.424-.42 1.424h2.377s-.493-.663-.493-1.416c0-.07-.004-2.917-.004-4.373h1.131c1.62 0 2.652-.224 3.755-1.103.797-.626 1.16-1.765 1.16-2.977z" fill="#506d85" style="stroke-width:1.4"/></svg>