<svg width="40" height="40" fill="none" xmlns="http://www.w3.org/2000/svg"><path fill-rule="evenodd" clip-rule="evenodd" d="m27.14 18.952-1.232 1.732 2.847 4.167v-5.899Zm-8.521.355v5.339l2.688-3.995-1.26-1.652a7.994 7.994 0 0 0 2.842-1.39l.812 1.03 1.54-2.328H34v2.641h-1.97v6.45h-6.79l-1.735-2.59-1.806 2.59h-6.384v-1.774c-.458 1.246-1.909 2.021-4.779 2.021-4.26 0-4.47-1.507-4.536-3.23h3.37c.009.514.097.887.312 1.135.243.261.588.396.947.373.686 0 1.424-.191 1.424-.938a.722.722 0 0 0-.14-.425c-.453-.597-4.205-1.036-5.26-2.128-.424-.438-.555-1.092-.555-1.624 0-2.025 1.577-2.949 4.718-2.949 3.337 0 4.13 1.167 4.172 3.085h-3.243c-.024-.514-.178-.92-.402-1.106a1.007 1.007 0 0 0-.742-.257c-.695.014-1.064.313-1.064.78a.664.664 0 0 0 .14.424c.509.583 4.14.999 5.185 2.11.2.205.355.452.453.718V19.47a17.388 17.388 0 0 0 3.304-.163z" fill="#fff" style="stroke-width:1.4"/><path fill-rule="evenodd" clip-rule="evenodd" d="M15.315 16.306c3.364.248 5.259-.709 5.908-1.955h3.43c-1.032 2.987-4.252 4.858-9.343 4.606v-2.65z" fill="#ef7d00" style="stroke-width:1.4"/></svg>