<svg width="40" height="40" fill="none" xmlns="http://www.w3.org/2000/svg"><g clip-path="url(#a)" transform="matrix(1.4 0 0 1.4 -8 -8)" fill-rule="evenodd" clip-rule="evenodd" fill="#fff"><path d="M13.193 15.062h.281l-.005.008c.02.084.044.167.065.25.616 2.343 1.23 4.686 1.847 7.028h1.137v-4.572h-.465l-.001-.187c.582-.003 1.165 0 1.747-.001 0 .057.002.115 0 .173.005.021-.022.014-.033.016h-.432v4.604h.284c.132 0 .264.007.395-.018a.896.896 0 0 0 .51-.28c.128-.138.216-.308.284-.483.074-.194.127-.395.162-.599.051-.004.103-.002.155-.002-.037.524-.07 1.049-.112 1.573-.468-.003-.936 0-1.404-.002h-3.943v-.205c.277-.002.554 0 .831-.002-.2-.723-.394-1.448-.598-2.17-.34.003-.68 0-1.02.001-.276 0-.552.003-.828-.001-.014.036-.023.074-.033.112-.187.685-.37 1.372-.557 2.057.256.007.514-.003.77.005a2.83 2.83 0 0 0 0 .2c-.043.006-.087.003-.13.003h-1.49a5.3 5.3 0 0 1 0-.206h.594l1.989-7.302zm-.261 1.774-.685 2.594c-.045.176-.095.351-.137.528h1.737c-.285-1.102-.575-2.204-.862-3.306-.026.058-.034.123-.053.184zM10.037 16.148h2.195v.236a.759.759 0 0 1-.077.001h-1.882v6.186c-.078 0-.156-.002-.234.001-.005-.174 0-.349-.002-.523v-5.9z"/><path d="M14.382 16.148H30v6.422h-.234c.001-2.06-.002-4.121.001-6.182-.084-.006-.168-.001-.252-.003-.617 0-1.234.003-1.851-.002h-8.962c-.116-.006-.233-.003-.35-.003h-3.97v-.232z"/><path d="M26.744 17.686a.982.982 0 0 1 1.236-.016c.063.044.12.095.178.146.053-.075.104-.151.159-.224.053-.01.108-.002.162-.004v1.345a2.852 2.852 0 0 1-.16 0 2.156 2.156 0 0 0-.2-.75.958.958 0 0 0-.39-.431.72.72 0 0 0-.676-.007.744.744 0 0 0-.345.416.963.963 0 0 0 .015.682c.043.1.11.191.2.254.166.105.349.181.536.24.236.1.482.177.708.3.1.053.193.12.267.206.137.161.232.356.291.558.087.295.103.608.069.913a2.004 2.004 0 0 1-.188.65c-.105.21-.255.401-.45.533a1.126 1.126 0 0 1-1.212.046 2.021 2.021 0 0 1-.338-.239c-.018-.015-.035-.031-.055-.042l-.169.277c-.008.01-.012.027-.027.031h-.147a293.29 293.29 0 0 1 0-1.39h.161c.046.262.128.52.262.75.098.166.226.319.39.422a.859.859 0 0 0 .604.129.812.812 0 0 0 .527-.373c.149-.232.193-.523.14-.792a.857.857 0 0 0-.25-.48 1.02 1.02 0 0 0-.287-.168c-.116-.047-.232-.09-.348-.136-.103-.043-.205-.089-.308-.132-.134-.058-.273-.11-.396-.19a1.045 1.045 0 0 1-.326-.373 1.704 1.704 0 0 1-.186-.769c-.005-.27.036-.544.135-.796a1.4 1.4 0 0 1 .418-.586zM19.571 17.588h1.647c.185 0 .37-.004.553.013.16.013.31.075.449.151a1.1 1.1 0 0 1 .512.662c.072.265.07.552-.018.813-.078.229-.23.434-.434.564a1.145 1.145 0 0 1-.475.175c.052.015.106.015.159.028.25.047.494.159.672.345.167.171.267.4.305.635a1.65 1.65 0 0 1-.072.825 1.141 1.141 0 0 1-.668.681c-.254.083-.525.083-.79.09h-1.84c.001-.063-.003-.127.003-.19.154.003.309.001.463.001v-4.604l-.466-.001v-.188zm1.28 2.302c.138.005.276.002.414.003.146-.003.302-.027.422-.12.115-.088.174-.229.208-.366.047-.203.054-.413.052-.62a2.55 2.55 0 0 0-.046-.563.558.558 0 0 0-.192-.333c-.121-.088-.276-.107-.422-.114h-.434c-.003.704.002 1.409-.002 2.113zm0 .197c.003.765 0 1.53.002 2.294.197-.001.394.004.59-.004.108-.007.225-.016.313-.085a.663.663 0 0 0 .166-.23c.069-.15.101-.313.12-.477.022-.243.023-.49 0-.733a1.439 1.439 0 0 0-.107-.435.605.605 0 0 0-.228-.267c-.1-.058-.218-.06-.33-.065-.175.001-.35-.003-.526.002zM23.614 17.59c.263-.005.526-.001.788-.002h.96c-.002.063.003.126-.003.19a31.124 31.124 0 0 0-.463-.001v4.604c.155 0 .31.002.463-.001.005.063.002.127.002.19-.581.002-1.162-.002-1.743.002-.007-.063-.002-.128-.003-.191h.466v-4.604h-.465c-.003-.063 0-.125-.002-.187zM19.765 23.822c.135-.056.285-.04.427-.022.004.068-.007.135-.012.203a.592.592 0 0 0-.286-.02c-.054.013-.099.063-.097.12-.002.05.043.086.083.109.075.039.158.062.232.105a.283.283 0 0 1 .142.168.353.353 0 0 1-.084.33.456.456 0 0 1-.26.123h-.18c-.048-.001-.096-.012-.144-.023.008-.07.006-.14.013-.211.08.022.161.04.244.042.055-.004.117-.016.154-.06.027-.033.031-.078.022-.118-.018-.053-.073-.079-.12-.1-.096-.04-.203-.069-.274-.149-.067-.074-.077-.182-.058-.276a.318.318 0 0 1 .198-.22zM10 23.8h.224c.004.308 0 .616.002.923h.36c-.002.066.008.135-.004.2-.194.003-.388 0-.582.001zM13.06 23.8c.206 0 .41-.001.616.002.003.062 0 .124.001.187-.13.003-.261 0-.392.001v.262h.37c.004.063.003.126 0 .189h-.37c0 .097-.002.194.001.29.13.001.261-.002.391.003-.002.063.003.126-.002.19h-.57a.238.238 0 0 1-.047-.004c.003-.373-.002-.746.003-1.12zM16.5 23.8h.25c.126.341.244.685.368 1.027.009.032.028.063.028.097-.082-.001-.163.002-.245-.002l-.076-.222c-.137-.004-.275-.001-.412 0-.026.073-.049.148-.077.22a1.588 1.588 0 0 1-.227 0c.13-.373.26-.747.392-1.12zm.12.272c-.03.122-.076.24-.117.358-.01.029-.024.057-.027.088.095-.002.19-.001.286 0-.042-.15-.115-.292-.143-.446zM22.79 23.8h.223c.002.375.002.75 0 1.124h-.222c-.007-.27-.001-.54-.003-.81 0-.105-.002-.21.001-.313zM25.598 23.805h.273c.12.197.232.4.35.6.032.06.07.117.096.182a26.35 26.35 0 0 1-.007-.78c.067-.001.134-.002.201 0 0 .372.003.744-.001 1.115-.091 0-.182.002-.273 0-.102-.184-.209-.364-.312-.547a2.772 2.772 0 0 1-.131-.248c.014.13.004.262.01.393-.005.135 0 .269-.004.403a4.94 4.94 0 0 0-.2 0c-.004-.373 0-.745-.002-1.118zM29.512 23.827c.149-.022.301-.006.445.038-.013.069-.021.138-.036.206a.884.884 0 0 0-.258-.058c-.118-.005-.247.032-.32.13a.404.404 0 0 0-.073.23c0 .1.023.21.099.283.097.091.248.103.372.066l-.001-.374h.218v.489c0 .013.004.036-.013.04-.08.027-.164.056-.25.05h-.19a.44.44 0 0 1-.288-.098c-.153-.118-.203-.327-.178-.511a.546.546 0 0 1 .16-.338.579.579 0 0 1 .313-.153z"/></g><defs><clipPath id="a"><path fill="#fff" d="M0 0h40v40H0z"/></clipPath></defs></svg>