<svg width="40" height="40" fill="none" xmlns="http://www.w3.org/2000/svg"><path fill-rule="evenodd" clip-rule="evenodd" d="M13.533 22.141h1.356l-1.851-4.333h-1.162l-1.794 4.333h1.306l1.047-2.79zm14.183-2.159c0 .631-.438 1.177-1.105 1.177-.653 0-1.105-.546-1.105-1.177s.438-1.176 1.09-1.176c.646 0 1.12.56 1.12 1.176zm1.213.022c0-1.249-.962-2.246-2.318-2.246-1.341 0-2.317 1.012-2.317 2.246 0 1.248.961 2.245 2.317 2.245 1.342 0 2.318-1.019 2.318-2.245zm-7.9.014c0-.631.438-1.177 1.07-1.177.214 0 .415.058.58.144l.474-.961c-.216-.144-.581-.273-1.07-.273-1.305 0-2.266 1.012-2.266 2.245 0 1.306.904 2.232 2.267 2.232 1.234 0 1.865-.761 2.066-1.507l-.976-.402c-.129.416-.452.832-1.033.832-.674.008-1.112-.495-1.112-1.133zm-13.802 0c0-.631.437-1.177 1.069-1.177.215 0 .416.058.58.144l.474-.961c-.215-.144-.58-.273-1.069-.273-1.32 0-2.281 1.012-2.281 2.245 0 1.306.904 2.232 2.267 2.232 1.234 0 1.865-.761 2.066-1.507l-.976-.402c-.129.416-.452.832-1.033.832-.667.008-1.097-.495-1.097-1.133zM18.26 22.14h1.033v-4.29H18.13v2.375l-1.793-2.375h-1.105v4.312h1.162v-2.446zm15.739 0v-4.29h-1.27l-1.033 1.665-1.033-1.665h-1.27v4.312h1.177v-2.468l1.105 1.664h.021l1.105-1.686v2.483z" fill="#db052c" style="stroke-width:1.4"/></svg>