<svg width="40" height="40" fill="none" xmlns="http://www.w3.org/2000/svg"><path d="M24.888 19.968c0-.925-.492-1.426-1.162-1.426-.662 0-1.162.501-1.162 1.426 0 .933.5 1.433 1.162 1.433.67 0 1.162-.5 1.162-1.433zm-4.208 0c0-.903-.492-1.426-1.163-1.426-.661 0-1.162.537-1.162 1.426 0 .888.433 1.433 1.162 1.433.739 0 1.163-.531 1.163-1.433zm-4.218-.484c-.144-.619-.56-.942-1.111-.942-.586 0-.959.365-1.103.942zm17.526 2.257c0 .246-.161.483-.484.483H29.82c-.238 0-.484-.16-.484-.483V19.51c0-.616-.424-.968-.967-.968a.956.956 0 0 0-.967.968v2.205c0 .34-.238.51-.484.51h-.965a1.056 1.056 0 0 1-.802-.408c-.348.34-.831.551-1.425.551-1.176 0-1.891-.821-2.08-1.844v1.573c0 1.349-.882 2.061-2.206 2.061-.575 0-1.077-.135-1.371-.326-.27-.175-.434-.332-.434-.577 0-.235.171-.458.406-.458.211 0 .293.053.487.174.192.12.484.228.912.228.823 0 1.24-.338 1.24-1.102v-.201c-.198.207-.653.472-1.21.472-1.268 0-1.999-.913-2.075-2.179a.459.459 0 0 1-.434.262H14.24c.144.62.56.956 1.11.956.36 0 .598-.075.86-.21.138-.072.29-.14.452-.14.25 0 .408.197.408.46 0 .22-.15.434-.475.597-.392.196-.77.254-1.244.254-1.383 0-2.13-1.128-2.13-2.4 0-.231.026-.458.076-.674-.409.867-1.075 1.992-1.88 2.905a.55.55 0 0 1-.383.173.544.544 0 0 1-.382-.173c-.918-1.04-1.654-2.354-2.036-3.249a3.987 3.987 0 0 1-.257-.77c-.052-.278.102-.544.379-.595.277-.05.522.056.631.41.083.27.45 1.136.636 1.474.281.515.636 1.08 1.029 1.59.392-.51.747-1.075 1.029-1.59.185-.338.552-1.204.635-1.475.11-.353.355-.46.632-.409.277.051.431.317.378.594-.02.103-.049.21-.087.326.354-.556.937-.93 1.73-.93 1.035 0 1.887.687 2.08 1.871.176-1.07.906-1.87 2.086-1.87.442 0 .946.18 1.169.403a.47.47 0 0 1 .477-.405c.267 0 .484.216.484.483v1.358c.188-1.018.903-1.84 2.079-1.84.447 0 .936.179 1.167.41a.47.47 0 0 1 .478-.411c.267 0 .484.216.484.483v3.022c0 .093.042.127.128.127h.452v-3.149c0-.267.216-.483.483-.483.226 0 .415.145.468.36.207-.207.655-.359.983-.359 1.052 0 1.934.806 1.934 1.935v1.854l2.148-2.677h-1.596c-.323 0-.484-.246-.484-.484 0-.246.161-.483.484-.483h2.555c.356 0 .534.246.534.475 0 .11-.06.237-.178.382l-2.16 2.68h1.898c.323 0 .484.246.484.484zm-20.872.542a.464.464 0 0 1 .357.77 22.167 22.167 0 0 1-2.11 2.193.51.51 0 0 1-.33.144.51.51 0 0 1-.329-.144c-2.998-2.737-4.702-5.634-4.702-7.798 0-1.853 1.06-3.013 2.676-3.013.996 0 1.815.534 2.356 1.474.54-.94 1.36-1.474 2.356-1.474 1.202 0 2.214.623 2.411 1.922.006.036.012.072.012.11 0 .266-.177.482-.444.482-.293 0-.444-.16-.495-.397-.142-.665-.588-1.15-1.467-1.15-.913 0-1.615.676-1.925 1.904a.466.466 0 0 1-.448.365.466.466 0 0 1-.448-.365c-.31-1.228-1.012-1.904-1.925-1.904-1.06 0-1.692.74-1.692 2.046 0 1.714 1.665 4.671 4.065 6.827.655-.588 1.174-1.178 1.724-1.826a.47.47 0 0 1 .358-.166z" fill="#fff" style="stroke-width:1.4"/></svg>