<svg width="40" height="40" fill="none" xmlns="http://www.w3.org/2000/svg"><path fill-rule="evenodd" clip-rule="evenodd" d="m15.552 24.184 3.263-.4-.401-3.263a.824.824 0 0 1 .715-.917l8.155-1.003c.45-.054.86.265.916.715l.188 1.637 2.45-.288V15.68l-3.854.475a.824.824 0 0 1-.902-.714l-.378-2.978h-8.36l-1.879 6.183a.824.824 0 0 1-1.026.545l-3.31-1v6.6a.824.824 0 0 0 .828.822H14.9l-.06-.516a.824.824 0 0 1 .712-.914z" fill="#4cab9d" style="stroke-width:1.4"/><path fill-rule="evenodd" clip-rule="evenodd" d="M30.85 13.285v2.396l1.025-.127a.825.825 0 0 0 .715-.917l-.6-4.9a.824.824 0 0 0-.916-.715l-4.9.602a.822.822 0 0 0-.715.917l.236 1.92h4.324a.824.824 0 0 1 .83.824zM14.898 25.614l.337 2.75c.057.45.467.77.917.715l3.263-.4-.378-3.065z" fill="#a6d5ce" style="stroke-width:1.4"/><path fill-rule="evenodd" clip-rule="evenodd" d="m24.209 27.263-.202-1.649h-2.485l.236 1.949a.824.824 0 0 1-.714.917l-1.63.199.402 3.266c.057.45.466.769.916.714l8.155-1a.825.825 0 0 0 .718-.905l-.4-3.277-4.08.501a.824.824 0 0 1-.916-.715z" fill="#a6d5ce" style="stroke-width:1.4"/><path fill-rule="evenodd" clip-rule="evenodd" d="m33.993 26.061-.602-4.9a.824.824 0 0 0-.917-.715l-1.625.199v4.148a.825.825 0 0 1-.822.821h-1.064l.228 1.862 4.096-.498a.825.825 0 0 0 .706-.917z" fill="#a6d5ce" style="stroke-width:1.4"/><path fill-rule="evenodd" clip-rule="evenodd" d="m21.756 27.563-.24-1.949h-2.478l.377 3.065 1.629-.2a.824.824 0 0 0 .712-.916zM24.003 25.614l.202 1.65c.057.449.466.768.917.714l4.078-.501-.239-1.863z" fill="#66b7ab" style="stroke-width:1.4"/><path fill-rule="evenodd" clip-rule="evenodd" d="m20.448 23.582-1.63.202.226 1.833h2.482l-.162-1.317a.824.824 0 0 0-.916-.718zM24.325 21.449a.824.824 0 0 0-.715.917l.398 3.248h4.958l-.577-4.66z" fill="#008773" style="stroke-width:1.4"/><path fill-rule="evenodd" clip-rule="evenodd" d="M11.957 12.464h5.401l.51-1.666a.824.824 0 0 0-.544-1.027l-7.858-2.4a.824.824 0 0 0-1.026.544l-2.404 7.85a.824.824 0 0 0 .544 1.025l4.55 1.39v-4.9a.825.825 0 0 1 .827-.816z" fill="#f08700" style="stroke-width:1.4"/><path fill-rule="evenodd" clip-rule="evenodd" d="m26.981 16.156 3.868-.475v-2.396a.824.824 0 0 0-.821-.821h-4.324l.375 2.978c.057.443.457.76.902.714zM18.813 23.784l-3.263.4a.824.824 0 0 0-.712.914l.063.516h4.137zM24.324 21.449l4.064-.496-.198-1.631a.824.824 0 0 0-.917-.715l-8.14.997a.824.824 0 0 0-.718.917l.4 3.26 1.629-.202c.45-.054.86.265.917.715l.161 1.317h2.485l-.4-3.245a.824.824 0 0 1 .717-.917zM28.966 25.614h1.066a.824.824 0 0 0 .822-.821v-4.146l-2.465.306zM15.465 18.647l1.894-6.192h-5.402a.824.824 0 0 0-.822.822v4.9l3.31 1.012a.825.825 0 0 0 1.02-.542z" fill="#269988" style="stroke-width:1.4"/></svg>