<svg width="40" height="40" fill="none" xmlns="http://www.w3.org/2000/svg"><mask id="a" mask-type="alpha" maskUnits="userSpaceOnUse" x="10" y="17" width="20" height="6"><path fill="#fff" d="M10 17.136h20v5.728H10z"/></mask><g mask="url(#a)" transform="matrix(1.4 0 0 1.4 -8 -8)" fill-rule="evenodd" clip-rule="evenodd"><path d="M16.037 19.221a.909.909 0 0 0-.911.911v1.821c0 .505.406.91.91.91h2.631c.505 0 .91-.405.91-.91v-1.821a.909.909 0 0 0-.91-.91zm.202.822h2.226c.112 0 .202.09.202.203v1.59c0 .112-.09.203-.202.203h-2.226a.202.202 0 0 1-.202-.203v-1.59c0-.112.09-.202.202-.202zM20.286 19.221v3.643h1.012v-1.391h2.428v1.39h1.012v-3.642h-1.012v1.392h-2.428V19.22zM25.446 19.221v3.643h3.481a1.072 1.072 0 0 0 .665-1.913 1.072 1.072 0 0 0-.847-1.73h-2.439zm.86.76H28.611a.368.368 0 0 1 0 .736H26.306zm0 1.384H28.78a.368.368 0 0 1 0 .737v.003h-2.473v-.74Z" fill="#fff"/><path d="M13.922 20.962c-4.932-2.369 1.016-4.026 8.666-2.688-5.736.008-11.84-.233-8.666 2.688z" fill="#639db5"/><path d="M13.082 20.987c-6.7-1.951-1.467-4.937 6.065-3.45-5.915-.458-10.346 1.05-6.065 3.45Z" fill="#639db5"/></g></svg>