<svg width="40" height="40" fill="none" xmlns="http://www.w3.org/2000/svg"><mask id="a" mask-type="alpha" maskUnits="userSpaceOnUse" x="10" y="17" width="20" height="6"><path fill="#fff" d="M10 17.067h20v5.865H10z"/></mask><g mask="url(#a)" transform="matrix(1.4 0 0 1.4 -7.992 -7.997)" fill-rule="evenodd" clip-rule="evenodd"><path d="M10.008 17.07c1.942 0 3.883-.002 5.824.001.011 1.945.01 3.889 0 5.833-.353.003-.706.002-1.059 0l-.172-.539c-.518 0-1.037-.006-1.555.005l-.01.533-.24.005-.015-.538c-.515-.011-1.031-.007-1.548-.004l-.171.537c-.352.004-.703.003-1.054 0-.01-1.944-.012-3.889 0-5.832zm.238.237c-.021.522-.007 1.044-.01 1.566.006 1.266-.014 2.533.01 3.798h.643c.42-1.424.814-2.855 1.225-4.28l-.244-.093c.22-.255.525-.424.868-.41l.168-.225.154.229c.166.015.34.008.494.076.153.088.28.211.408.331-.079.03-.158.061-.238.09.4 1.429.804 2.858 1.222 4.281.216 0 .432 0 .65.002.016-.464.008-.93.009-1.394-.006-1.324.013-2.649-.01-3.973-1.783.002-3.566 0-5.35.002zm2.346 1.066.182.206-.012-.21c-.042.002-.127.003-.17.004zm.445.004-.001.212.217-.213-.216.001zm-.712.123-.077.27c.106-.003.214-.005.32-.009-.08-.088-.161-.175-.243-.26zm.907.26.355.01-.078-.265-.277.254zm-.825.262a8.7 8.7 0 0 0 .376.39c0-.134-.003-.266-.006-.4l-.37.01zm.624-.009.01.404c.14-.124.27-.255.394-.393-.135-.004-.27-.008-.404-.01zm-.892.143c-.045.154-.087.308-.13.461.2.002.398.002.598 0a6.334 6.334 0 0 0-.468-.46zm1.089.46c.199.004.398.005.598.004-.044-.156-.086-.313-.131-.47-.165.145-.322.3-.467.466zm-1.056.26c.188.215.39.417.608.6.006-.201.008-.403.008-.605-.206 0-.41.001-.616.006zm.86 0c.004.214.003.427 0 .64a8.4 8.4 0 0 0 .641-.643c-.214-.002-.427 0-.641.003zm-1.132.116c-.068.23-.133.461-.195.694.297.007.594.007.892 0-.23-.234-.461-.466-.697-.694zm1.336.695c.298.007.596.006.893 0a41.705 41.705 0 0 0-.195-.695 15 15 0 0 0-.698.695zm-1.398.254c.3.328.605.652.94.944.017-.314.014-.629.003-.944h-.943zm1.195.003c.005.327.002.654.001.98.327-.324.646-.655.969-.982a59.178 59.178 0 0 0-.97.002zm-1.436.147c-.112.335-.208.675-.291 1.02.424.004.848.014 1.272-.01-.298-.364-.643-.685-.981-1.01zm1.635 1.013c.432.018.865.013 1.297.005-.09-.345-.182-.69-.292-1.03-.34.337-.676.677-1.005 1.025zM17.072 17.07c.572.004 1.145-.014 1.717.012.028.794-.001 1.588.016 2.382l.403.072c.01-.814-.009-1.63.01-2.444.078.002.156.005.234.01.02.787.002 1.575.007 2.363-.03.27.243.405.4.576-.008-.819.001-1.639-.007-2.459.001-.15-.004-.302.028-.45.06-.051.148-.039.221-.056.012.989 0 1.977.006 2.966.152-.177.429-.309.409-.577.01-.746-.015-1.492.004-2.238-.026-.15.136-.142.237-.147.02.816.003 1.632.01 2.448l.389-.06c.022-.795-.023-1.593.024-2.388.575-.02 1.15-.01 1.725-.009 0 1.945.002 3.888-.001 5.833-.594.004-1.188 0-1.782.002l.023-.32c-.258.043-.48.18-.71.291-.293.051-.602.05-.895.004-.234-.11-.456-.254-.718-.294.008.107.017.214.027.32-.592-.006-1.185 0-1.777-.003-.004-1.944-.003-3.888 0-5.833zm.235.237v5.361c.413.003.827.003 1.24 0l.048-.262.204-.057a1.917 1.917 0 0 1-.235-.933l.234-.037a1.823 1.823 0 0 1-.236-.913l.233-.036c-.134-.265-.231-.552-.23-.852-.008-.757.004-1.514-.002-2.271-.418-.003-.837-.002-1.256 0zm4.095-.001c-.017.778.002 1.556-.007 2.334 0 .276-.102.536-.218.781l.225.049c.003.32-.079.634-.232.916l.234.024a2.09 2.09 0 0 1-.233.948l.202.01.042.3c.418.004.836.003 1.254 0 .001-1.787.002-3.574 0-5.361-.423-.003-.845-.002-1.267-.001zm-2.618 2.385c.035.262.105.538.303.728.194.22.48.319.762.358-.03-.257-.1-.524-.292-.71-.193-.23-.488-.324-.773-.376zm1.688.31c-.228.193-.319.489-.37.772.276-.032.561-.117.754-.329.205-.19.285-.468.333-.735-.26.025-.528.1-.717.292zm-1.691.657c.042.268.117.548.324.738.194.208.472.299.747.332-.032-.275-.125-.553-.332-.747-.189-.208-.47-.284-.74-.323zm1.345 1.088c.28-.065.575-.154.767-.384.182-.19.25-.453.292-.705-.565.025-1.077.509-1.06 1.089zm-.318-.755.178.263.175-.266-.353.003zm-1.04.62c.057.263.127.54.33.732.19.216.472.303.746.35-.017-.27-.104-.542-.303-.735-.194-.225-.49-.306-.773-.348zm1.661.343c-.205.189-.282.467-.325.733.284-.033.574-.128.768-.349.199-.19.27-.462.31-.724-.277.037-.56.126-.753.34zm-.615-.03.17.31c.051-.09.104-.178.156-.266-.109-.016-.217-.03-.326-.044zM24.141 17.071c1.938-.004 3.875 0 5.813-.001.008 1.945.007 3.89 0 5.835-1.938 0-3.876.002-5.813 0a21.849 21.849 0 0 1 0-.734c.961 0 1.923.006 2.885-.002a2.203 2.203 0 0 0 1.635-.721 2.173 2.173 0 0 0-1.016-3.545c-.372-.111-.764-.084-1.147-.086-.787 0-1.574.003-2.36-.001-.002-.248-.002-.496.003-.745zm.244.235c-.019.088-.036.176-.053.264.918.033 1.838 0 2.756.015.626.01 1.243.273 1.677.723.495.496.746 1.218.68 1.915a2.414 2.414 0 0 1-.736 1.507 2.405 2.405 0 0 1-1.624.671c-.91.025-1.82-.01-2.73.016a34.17 34.17 0 0 1-.012.248c1.795.01 3.59.002 5.385.004.025-.757.005-1.514.011-2.27-.006-1.032.013-2.063-.008-3.094-1.783.002-3.565 0-5.346.001z" fill="#028d5b"/><path d="M26.707 17.98c.277-.062.564-.026.845-.028l-.084.193c.276.06.562.104.816.233.212.142.372.347.55.528l-.134.113c.129.224.285.437.361.686.042.259.016.524.02.785l-.175-.012c-.067.252-.112.515-.233.748-.154.223-.37.394-.568.577l-.025-.203c-.226.161-.458.325-.723.415-.281.055-.57.022-.855.022l.174-.236a1.64 1.64 0 0 1-.778-.162c-.137-.06-.267-.175-.426-.146a8.048 8.048 0 0 1-1.332.104 253.95 253.95 0 0 1 .001-3.207c.45-.011.895.04 1.338.104.21.047.339-.165.486-.274l.078.146c.211-.145.422-.296.664-.385zm-.493.703c.26.12.544.181.832.172.007-.234.022-.466.061-.697-.347.035-.774.154-.894.525zm1.041-.1c.188.211.39.41.598.602.167-.148.335-.296.516-.427a1.21 1.21 0 0 0-.758-.34c-.132.013-.24.106-.356.165zm-2.89.04c-.001.08-.002.162 0 .243.857.033 1.735.168 2.491.598-.13.155-.312.304-.312.523-.005.225.176.38.315.53-.759.449-1.65.554-2.512.618l.023.231c.82-.029 1.658-.154 2.403-.518.294-.153.602-.349.74-.665.11-.251-.036-.525-.222-.695-.324-.298-.741-.471-1.157-.601a6.67 6.67 0 0 0-1.77-.265zm2.78.444c.275.249.62.519.623.927 0 .413-.358.684-.638.932.142-.002.285-.005.427-.01.082-.248.302-.402.45-.605a6.375 6.375 0 0 0-.07-.762c-.19-.2-.42-.36-.614-.556l-.179.074zm-2.78.023a48.72 48.72 0 0 0 0 1.805c.721-.013 1.45-.127 2.114-.42-.064-.156-.146-.314-.15-.487.007-.17.085-.324.148-.478-.664-.29-1.39-.409-2.112-.42zm3.826.052c-.012.284-.01.569-.004.853.225.006.451.015.676.036-.022-.277-.11-.556-.298-.767-.107-.079-.25-.085-.374-.122zm-.338 1.659c.156.164.314.327.465.494.162-.184.27-.41.308-.652.046-.166-.081-.306-.147-.445-.226.183-.428.39-.626.603zm-1.953.61c.195.06.389.14.594.15.137-.019.25-.111.37-.175-.083-.07-.16-.149-.255-.202-.247.033-.478.139-.709.227zm1.15-.26c-.008.226-.025.451-.053.675a1.3 1.3 0 0 0 .789-.312c.074-.105.073-.244.107-.365a16.82 16.82 0 0 0-.843.003z" fill="#028d5b"/><path d="M26.934 19.768c.185-.106.437.1.357.301-.055.18-.316.24-.437.09-.105-.116-.07-.332.08-.391z" fill="#028d5b"/><path d="M10.245 17.307c1.784-.002 3.567 0 5.35-.002.022 1.324.004 2.648.01 3.973-.001.464.007.93-.01 1.394l-.65-.002a362.608 362.608 0 0 1-1.22-4.28l.237-.091c-.128-.12-.256-.243-.408-.33-.155-.069-.328-.062-.494-.077a22.803 22.803 0 0 0-.154-.229l-.168.224c-.344-.013-.65.156-.868.411l.244.092c-.411 1.426-.806 2.857-1.226 4.28l-.643.001c-.023-1.265-.004-2.532-.01-3.798.003-.522-.01-1.044.01-1.566zM17.307 17.307c.419-.002.837-.003 1.256 0 .005.757-.006 1.514.002 2.271-.001.3.095.587.23.852l-.233.036c-.004.32.079.633.236.913l-.234.037c-.01.328.085.644.235.933l-.204.057-.048.262c-.413.003-.827.003-1.24 0v-5.36zM21.402 17.306c.422 0 .844-.002 1.267 0v5.362c-.418.003-.836.004-1.254 0l-.043-.3-.201-.01c.147-.295.235-.617.233-.948a15.613 15.613 0 0 0-.235-.024c.154-.282.236-.595.233-.916-.075-.017-.15-.033-.226-.048.117-.246.219-.506.22-.782.007-.778-.011-1.556.006-2.334zM24.385 17.306h5.346c.021 1.03.002 2.061.009 3.092-.007.757.014 1.515-.011 2.271-1.796-.002-3.59.006-5.386-.004l.013-.248c.91-.026 1.82.009 2.73-.016a2.406 2.406 0 0 0 1.623-.67c.417-.393.68-.94.736-1.508a2.42 2.42 0 0 0-.68-1.915 2.406 2.406 0 0 0-1.676-.723c-.919-.015-1.838.018-2.757-.015l.053-.264z" fill="#c3ddd0"/><path d="m27.144 19.067.179-.074c.195.196.424.356.613.556.037.252.064.508.07.762-.147.203-.367.357-.449.605-.142.005-.285.008-.427.01.28-.248.638-.52.638-.932-.004-.408-.348-.678-.624-.927zM19.808 20.991l.353-.003-.175.266-.178-.263zM19.814 21.924c.108.014.217.028.326.044l-.157.266-.169-.31z" fill="#c3ddd0"/></g></svg>