<svg width="40" height="40" fill="none" xmlns="http://www.w3.org/2000/svg"><path fill-rule="evenodd" clip-rule="evenodd" d="M33.118 14.885c-.58-.172-1.52-.323-2.375-.323-5.124 0-6.428 3.578-6.428 5.612 0 2.403 1.327 4.78 4.322 5.264l-.008-2.203c-1.006-.422-1.995-1.13-1.995-3.176 0-1.388.79-3.55 4.215-3.55.39 0 1.391.038 2.27.267z" fill="#0063ae" style="stroke-width:1.4"/><path fill-rule="evenodd" clip-rule="evenodd" d="m34 23.54-.003-3.53h-3.783l-1.653 1.68 3.543.002v3.738z" fill="#003671" style="stroke-width:1.4"/><path fill-rule="evenodd" clip-rule="evenodd" d="M22.35 14.765h-6.984v10.52h7.149l.006-1.826h-4.929v-2.705h4.564v-1.739h-4.564v-2.43h4.757zM8.476 14.763 6 14.765v10.52h7.259l-.011-1.988H8.476Z" fill="#0063ae" style="stroke-width:1.4"/></svg>