<svg width="40" height="40" fill="none" xmlns="http://www.w3.org/2000/svg"><path fill-rule="evenodd" clip-rule="evenodd" d="M6 31.314h28V8.686H6Z" fill="#fff" style="stroke-width:1.4"/><path fill-rule="evenodd" clip-rule="evenodd" d="M6 31.314h28V8.686H6Z" fill="#006ea9" style="stroke-width:1.4"/><path fill-rule="evenodd" clip-rule="evenodd" d="M22.335 25.979h-.318v-1.416h.268c.466 0 .75.225.75.705 0 .454-.231.71-.7.71zm.09-2.011h-1.178v4.27h.775v-1.664h.441c.815 0 1.371-.461 1.371-1.306 0-.877-.576-1.3-1.409-1.3zM24.135 24.602h.845v3.637h.78v-3.637h.877v-.634h-2.502M27.274 28.239h.787v-4.271h-.787zM28.898 28.239h.787v-2.024l1.261 2.024h.948l-1.537-2.266 1.414-2.005h-.902l-1.184 1.85v-1.85h-.787M10.52 28.239h2.279v-.615h-1.504v-1.287h1.35v-.608h-1.35v-1.146h1.439v-.615H10.52M8.088 28.207c.16.051.346.102.507.102.885 0 1.088-.614 1.088-1.37v-2.971h-.788v2.984c0 .346-.03.698-.448.698a.914.914 0 0 1-.318-.083M32.36 16.016l-.02-.252a31.757 31.757 0 0 0-12.329-2.478c-4.367 0-8.558.892-12.354 2.478l-.017.252A41.68 41.68 0 0 1 20.01 14.14c4.305 0 8.449.658 12.35 1.877zM13.558 28.239h.68v-3.361l1.303 3.36h1.026v-4.27h-.685v3.368l-1.3-3.368h-1.024M18.9 27.72c-.704 0-.844-.857-.844-1.613 0-.659.11-1.613.845-1.613.774 0 .852.94.852 1.613 0 .653-.09 1.614-.852 1.614zm0-3.815c-1.208 0-1.651 1.152-1.651 2.202 0 1.07.378 2.203 1.652 2.203 1.223 0 1.664-1.134 1.664-2.203 0-1.063-.37-2.202-1.664-2.202z" fill="#fff" style="stroke-width:1.4"/></svg>