<svg width="40" height="40" fill="none" xmlns="http://www.w3.org/2000/svg"><path fill-rule="evenodd" clip-rule="evenodd" d="M6.523 18.83h.936l-.075.354h.01c.246-.241.638-.418 1.124-.418.604 0 .983.29.853.904l-.345 1.622h-.963l.283-1.331c.066-.314-.078-.468-.4-.468-.341 0-.64.186-.726.59l-.257 1.209H6zM12.998 20.56c-.205.41-.763.832-1.812.832-1.11 0-1.637-.423-1.443-1.336.186-.873.959-1.327 1.981-1.327 1.054 0 1.611.46 1.393 1.486l-.016.073h-2.417c-.017.318.16.55.656.55a.846.846 0 0 0 .64-.278zm-.78-.772c.003-.273-.153-.504-.607-.504-.454 0-.708.231-.82.504zM14.338 20.015l-.789-1.186h1.195l.353.714.656-.714h1.195l-1.288 1.186.86 1.277h-1.24l-.394-.759-.715.759h-1.24zM17.346 18.83h.963l-.27 1.271c-.089.418.057.564.38.564.34 0 .64-.186.725-.59l.265-1.246h.963l-.523 2.463h-.936l.067-.318h-.009c-.246.24-.638.418-1.125.418-.59 0-.99-.255-.833-.995zM21.508 20.524c-.006.09.015.163.092.209.075.05.201.077.41.077.214 0 .45-.04.487-.218.028-.132-.06-.168-.29-.195l-.837-.105c-.549-.068-.792-.268-.703-.686.142-.668.759-.877 1.68-.877.655 0 1.457.118 1.363.818h-1.082c.014-.104-.04-.173-.128-.209a.828.828 0 0 0-.334-.055c-.277 0-.454.064-.49.232-.016.077.033.146.273.173l.812.09c.648.073.931.278.829.76-.124.581-.736.854-1.758.854-.682 0-1.578-.123-1.442-.868h1.118M25.447 17.763h.495l-.94 4.43h-.497Z" fill="#fff" style="stroke-width:1.4"/><path fill-rule="evenodd" clip-rule="evenodd" d="M26.898 19.601c.247-.73.964-.836 1.719-.836.894 0 1.536.146 1.389.836l-.264 1.245c-.045.21-.042.305.005.446h-.963a.664.664 0 0 1-.002-.227c-.333.263-.742.327-1.228.327-.786 0-1.15-.255-1.04-.768.118-.559.533-.759 1.233-.804l.972-.064c.254-.018.307-.073.334-.2.036-.172-.13-.263-.553-.263-.354 0-.548.1-.638.308h-.964m2.057.541c-.077.023-.2.046-.382.068l-.666.078c-.2.022-.299.1-.33.25-.041.19.108.3.368.3.554 0 .907-.21.979-.546zM33.064 18.83H34l-.476 2.239c-.175.823-.707 1.168-1.888 1.168-.973 0-1.556-.164-1.51-.845h1.062c-.002.222.243.29.525.29.54 0 .758-.19.854-.64l.036-.173c-.26.218-.68.314-1.052.314-1.045 0-1.345-.536-1.202-1.209.138-.65.725-1.208 1.715-1.208.427 0 .782.109.924.377h.01zm-1.116 1.744c.545 0 .774-.264.84-.577.074-.345-.095-.595-.59-.595-.487 0-.766.263-.834.586-.07.327.098.586.584.586z" fill="#b52735" style="stroke-width:1.4"/></svg>