<svg width="40" height="40" fill="none" xmlns="http://www.w3.org/2000/svg"><g clip-path="url(#a)" transform="matrix(1.4 0 0 1.4 -8 -7.95)" fill-rule="evenodd" clip-rule="evenodd"><path d="M10.96 19.007c0 .168.135.169.28-.02.046-.06.088-.098.145-.155.236-.235.36-.372.626-.571 1.064-.8 2.413-1.056 3.662-.563.178.07.322.15.47.249.08.053.133.092.21.149l.37.328c.465.526.755 1.057.755 1.838 0 .515-.202 1.005-.451 1.363-.393.563-1.22 1.138-1.804 1.49-.98.59-2.076.993-3.218 1.157l-1.704.134c-.21.006-.301-.029-.301.12 0 .065.12.085.188.11.079.03.149.044.24.06.167.03.364.043.568.048h.804c.213 0 .412-.038.608-.07a12.749 12.749 0 0 0 3.604-1.171 4.6 4.6 0 0 0 .824-.534c.784-.62 1.482-1.54 1.482-2.608 0-.684-.049-1.09-.326-1.686-.2-.429-.58-.901-.953-1.183-.758-.572-1.338-.756-2.4-.756-.993 0-2.115.439-2.825 1.07l-.19.17c-.25.22-.664.616-.664 1.03z" fill="#e31724"/><path d="M25.998 15.23c0-.294-.67-.223-.845-.066l-.24.24c-.249.207-.523.44-.821.6-1.538.827-3.712 1.14-5.3 1.943-.15.076-.123.086-.214.067.007-.298.5-.846.726-1.036a5.437 5.437 0 0 1 2.33-1.192c.222-.056.504-.089.722-.158.16-.051.542-.168.542-.359 0-.05-.04-.138-.08-.16-.41-.239-2.258.585-2.656.825-.43.26-.893.534-1.259.883-.222.212-.965.812-.965 1.177 0 .446.12.23.324.858.082.254.575.264.816.264.482 0 1.099-.2 1.483-.318.233-.072.443-.142.689-.212.248-.071.483-.127.728-.191 1.456-.386 2.815-.805 4.225-1.198l1.398-.423c.645-.206 1.766-.481 2.243-.938a.53.53 0 0 0 .154-.315v-.154c-.026-.194-.151-.358-.36-.358-.365 0-.294.037-.556.364-.211.263-1.199.632-1.546.775-1.834.752-2.774 1.05-4.61 1.593-.846.249-1.55.471-2.424.678-.217.051-.743.165-.964.176-.105.005-.654.021-.686-.046-.026-.055.14-.16.19-.19.29-.186.72-.347 1.06-.483l.848-.311c.105-.041.186-.068.296-.105 1.327-.443 2.705-.85 3.953-1.47.232-.115.8-.452.8-.76z" fill="#fff"/></g><defs><clipPath id="a"><path fill="#fff" transform="translate(10 15)" d="M0 0h20v9.778H0z"/></clipPath></defs></svg>