<svg width="40" height="40" fill="none" xmlns="http://www.w3.org/2000/svg"><g clip-path="url(#a)" transform="matrix(1.4 0 0 1.4 -8 -8)" fill-rule="evenodd" clip-rule="evenodd" fill="#fff"><path d="M13.356 17.92h.73v3.118c.004.106.02.23.112.3.084.061.195.05.293.044v.642c-.186.027-.376.02-.56-.017a.694.694 0 0 1-.253-.109.725.725 0 0 1-.257-.349 1.393 1.393 0 0 1-.065-.487zM10.84 19.134c.274-.125.587-.157.885-.117.308.041.6.203.787.452.182.24.267.542.28.84.008.125-.009.249-.015.373H10.75c.017.23.13.456.317.595a.98.98 0 0 0 .737.164c.245-.043.475-.157.671-.308l.286.526c-.3.249-.683.4-1.072.421h-.22a1.575 1.575 0 0 1-.98-.388A1.536 1.536 0 0 1 10 20.639v-.2c.011-.204.054-.41.14-.597.135-.311.388-.57.7-.708zm.197.575a.755.755 0 0 0-.264.467h1.28a.686.686 0 0 0-.117-.383.535.535 0 0 0-.372-.217.715.715 0 0 0-.527.133zM19.47 19.305c.184-.175.429-.295.686-.303.21-.007.434.03.607.16.15.108.245.275.297.45.093-.167.223-.313.383-.419.204-.138.453-.207.7-.19a.94.94 0 0 1 .559.193c.139.11.228.27.274.439.05.178.06.363.057.547v1.83H22.3v-1.578c0-.147.006-.296-.022-.441a.403.403 0 0 0-.124-.238c-.091-.08-.222-.09-.338-.076a.658.658 0 0 0-.448.27 1.086 1.086 0 0 0-.18.396c-.032.128-.032.26-.032.392v1.274h-.735v-1.59c0-.149.007-.299-.022-.446a.389.389 0 0 0-.131-.23c-.09-.072-.214-.08-.324-.066a.673.673 0 0 0-.462.28 1.086 1.086 0 0 0-.177.398c-.03.115-.03.235-.034.354v1.3h-.732v-2.937c.234-.002.469 0 .704-.001-.003.18.007.362-.01.542.068-.111.14-.22.236-.31zM24.802 19.023c.259-.04.53-.03.778.06.225.083.424.236.56.435.157.232.231.513.244.791.008.125-.009.249-.015.373h-2.027a.82.82 0 0 0 .336.61c.23.16.53.196.799.133.214-.055.416-.156.59-.292l.286.526c-.301.25-.684.4-1.075.421h-.212a1.571 1.571 0 0 1-.986-.39 1.526 1.526 0 0 1-.484-1.004c-.077-.002-.154 0-.23-.001v-.509h.258c.047-.227.14-.446.283-.63.216-.282.546-.469.895-.523zm-.196.705a.764.764 0 0 0-.241.448h1.28a.682.682 0 0 0-.123-.392.538.538 0 0 0-.374-.209.705.705 0 0 0-.542.153zM27.964 19.05c.47-.112.992-.034 1.392.244.378.255.622.693.644 1.148v.195c-.02.424-.23.833-.564 1.094-.267.213-.604.33-.944.35h-.204a1.727 1.727 0 0 1-.624-.152 1.513 1.513 0 0 1-.757-.743 1.578 1.578 0 0 1-.117-.9c.034-.23.128-.45.263-.638.216-.304.55-.512.911-.599zm.27.59a.857.857 0 0 0-.617.461 1.007 1.007 0 0 0-.09.598.882.882 0 0 0 .326.574.877.877 0 0 0 .845.125.845.845 0 0 0 .435-.373c.112-.192.143-.424.112-.642a.89.89 0 0 0-.389-.618.857.857 0 0 0-.621-.125ZM14.99 19.073h.736v1.776c.006.145.018.304.112.422.079.1.21.14.334.137a.728.728 0 0 0 .441-.13c.202-.138.32-.37.365-.606.035-.16.021-.326.024-.49v-1.11h.735v2.94h-.707c.002-.184-.007-.369.011-.552-.174.356-.55.597-.944.62h-.179a1.142 1.142 0 0 1-.477-.124.8.8 0 0 1-.358-.423c-.083-.209-.093-.437-.093-.659v-1.801z"/></g><defs><clipPath id="a"><path fill="#fff" d="M0 0h40v40H0z"/></clipPath></defs></svg>