<svg width="40" height="40" fill="none" xmlns="http://www.w3.org/2000/svg"><g clip-path="url(#a)" transform="matrix(1.4 0 0 1.4 -8.179 -8)"><g clip-path="url(#b)"><path d="M23.316 15.428a4.518 4.518 0 0 1 2.98 1.11 4.486 4.486 0 0 1 1.502 2.537c.096.447.116.901.074 1.358a4.551 4.551 0 0 1-.828 2.226c-.237.34-.52.638-.843.897-.052.042-.052.07-.02.124.104.17.2.345.301.517.024.04.02.06-.022.083-.34.194-.677.39-1.014.587-.038.022-.056.017-.077-.02-.102-.178-.208-.353-.308-.53-.028-.05-.053-.057-.104-.037a4.349 4.349 0 0 1-1.002.26c-.403.056-.808.06-1.214.009a4.429 4.429 0 0 1-1.726-.588 4.547 4.547 0 0 1-2.007-2.416 4.427 4.427 0 0 1-.258-1.79 4.483 4.483 0 0 1 1.104-2.732 4.558 4.558 0 0 1 2.312-1.447c.323-.088.79-.148 1.15-.148zm2.07 6.87c.73-.702 1.081-1.54 1.008-2.545a2.895 2.895 0 0 0-.614-1.607c-.69-.878-1.598-1.29-2.718-1.215-.42.028-.818.144-1.188.347a3.059 3.059 0 0 0-1.565 2.032 2.96 2.96 0 0 0 .028 1.511c.162.588.467 1.096.93 1.494.854.734 1.832.946 2.919.653.086-.023.086-.024.042-.1-.393-.681-.785-1.362-1.18-2.042-.034-.057-.026-.078.03-.11.33-.187.66-.377.987-.57.051-.03.07-.021.099.028.28.49.562.977.844 1.465l.379.66z" fill="#e5853b"/><path d="M21.001 13.777c-.339 0-.678 0-1.017.002-.051 0-.077-.017-.102-.06a341.57 341.57 0 0 0-1.015-1.761c-.029-.049-.03-.083-.002-.133.34-.586.679-1.173 1.016-1.76.026-.046.053-.065.108-.065.678.002 1.356.002 2.034 0 .053 0 .083.015.11.062.34.592.68 1.183 1.023 1.774.024.042.02.072-.002.113-.343.59-.684 1.182-1.023 1.774-.024.041-.05.056-.097.056-.344-.003-.688-.002-1.033-.002zM21.008 29.999c-.34 0-.678-.001-1.018.001-.05 0-.078-.014-.103-.058-.34-.593-.682-1.184-1.024-1.775-.024-.041-.024-.072 0-.113.344-.593.686-1.187 1.028-1.781.02-.036.042-.05.085-.05h2.066c.046 0 .069.016.09.054.34.592.682 1.184 1.025 1.775.025.044.023.077-.001.12-.341.588-.682 1.177-1.02 1.768-.027.047-.058.06-.11.06-.34-.002-.68-.001-1.018-.001z" fill="#7d7d7d"/><path d="M17.465 12.008c.342 0 .684.002 1.026 0 .05-.001.078.015.104.059.341.594.684 1.188 1.029 1.78.023.04.02.067-.002.105-.344.592-.687 1.186-1.03 1.78-.022.04-.047.052-.091.052h-2.059c-.044 0-.069-.014-.09-.053a456.37 456.37 0 0 0-1.029-1.78c-.022-.04-.022-.067 0-.105.343-.591.684-1.183 1.024-1.775.026-.046.055-.065.11-.064.335.003.672.001 1.008.001z" fill="#2d689a"/><path d="M17.468 24.123h1.025c.05-.001.079.014.104.058.338.588.677 1.174 1.018 1.76.029.048.03.084 0 .133-.342.588-.682 1.176-1.021 1.766-.026.044-.054.06-.104.06-.678-.002-1.356-.003-2.034 0-.055 0-.083-.02-.11-.065-.339-.592-.68-1.184-1.023-1.775-.023-.04-.022-.066 0-.104.343-.591.684-1.183 1.024-1.775.025-.044.053-.06.104-.059.339.002.678.001 1.017.001zM15.161 23.894h-1.017c-.05.001-.079-.012-.105-.057-.338-.59-.678-1.18-1.02-1.768-.025-.044-.026-.077 0-.12a417.8 417.8 0 0 0 1.02-1.769c.026-.046.056-.063.109-.063.676.002 1.352.002 2.028 0 .057 0 .086.018.114.067.337.588.676 1.176 1.016 1.762.028.048.025.08-.001.126-.342.589-.681 1.178-1.02 1.769-.024.042-.052.054-.098.054-.342-.002-.684-.001-1.026-.001zM15.164 19.788c-.337 0-.674-.001-1.01.001-.056 0-.088-.014-.117-.064-.337-.588-.675-1.175-1.016-1.762-.026-.046-.028-.08 0-.127.34-.586.679-1.173 1.016-1.761.027-.047.056-.063.109-.063.678.002 1.357.002 2.035 0 .054 0 .083.017.11.063.334.583.67 1.166 1.008 1.748.033.056.032.097-.001.154a268.21 268.21 0 0 0-1.008 1.747c-.03.05-.06.066-.116.065-.337-.002-.674 0-1.01 0zM25.627 30c-.339 0-.678-.002-1.017 0-.05 0-.079-.014-.104-.058-.34-.593-.681-1.184-1.023-1.775-.024-.04-.027-.07-.002-.111.341-.589.681-1.178 1.02-1.768.028-.05.06-.066.116-.066a414.9 414.9 0 0 0 2.026 0c.052 0 .083.014.11.062.34.593.681 1.184 1.023 1.775.023.038.023.066 0 .104a570.74 570.74 0 0 0-1.026 1.781c-.023.041-.05.057-.098.057-.342-.003-.683-.002-1.025-.002zM25.625 13.778c-.339 0-.678-.002-1.017.001-.054 0-.083-.018-.109-.064-.338-.59-.678-1.18-1.02-1.767-.025-.045-.021-.076.004-.12l1.02-1.767c.024-.044.05-.06.102-.06.68.001 1.361.001 2.042 0 .051 0 .077.017.102.06.337.588.676 1.175 1.016 1.76.028.049.031.084.002.134-.34.586-.679 1.173-1.016 1.761-.027.047-.055.063-.109.063-.338-.003-.678-.001-1.017-.001z" fill="#7d7d7d"/><path d="m23.31 27.688-.841-1.459h1.684l-.843 1.459zM24.171 13.775h-1.69c.284-.49.561-.973.844-1.463l.846 1.463zM17.535 17.568l-.843-1.458h1.683l-.84 1.458zM17.527 22.327l.84 1.455c-.03.003-.047.005-.065.005l-1.544.001c-.06 0-.074-.009-.04-.066.263-.453.524-.908.786-1.362.005-.01.012-.017.023-.033z" fill="#e4843b"/></g></g><defs><clipPath id="a"><path fill="#fff" d="M0 0h40v40H0z"/></clipPath><clipPath id="b"><path fill="#fff" transform="translate(13 10)" d="M0 0h14.893v20H0z"/></clipPath></defs></svg>