<svg width="40" height="40" fill="none" xmlns="http://www.w3.org/2000/svg"><path d="M21.698 18.302a2.37 2.37 0 0 1 .713 1.694 2.423 2.423 0 0 1-2.418 2.418c-.11 0-.23-.007-.34-.018v4.685a6.923 6.923 0 0 0 5.321-2.005 7.081 7.081 0 0 0 2.117-5.08c0-3.86-3.18-7.04-7.098-7.09-1.839-.023-3.592.683-4.935 1.989a7.186 7.186 0 0 0-2.152 5.1v12.06c1.427.837 2.999 1.433 4.68 1.73v-13.79a2.421 2.421 0 0 1 2.419-2.399c.64 0 1.245.25 1.693.706z" fill="#a3825b" style="stroke-width:1.4"/><path d="M20.005 6C12.277 5.957 6 12.28 6 19.996c0 4.23 1.874 8.013 4.837 10.577V19.995a9.2 9.2 0 0 1 2.697-6.479 9.084 9.084 0 0 1 6.47-2.675 9.1 9.1 0 0 1 6.458 2.673 9.199 9.199 0 0 1 2.696 6.48c.024 2.402-.967 4.775-2.72 6.512-1.754 1.746-4.052 2.688-6.446 2.653-.11-.002-.23-.006-.34-.012v4.847c.11.003.23.005.352.006 7.824.028 13.992-6.355 13.992-14.004 0-7.72-6.253-13.952-13.992-13.996z" fill="#a3825b" style="stroke-width:1.4"/></svg>