<svg width="41" height="40" fill="none" xmlns="http://www.w3.org/2000/svg"><g clip-path="url(#a)" transform="matrix(1.4 0 0 1.4 -8.499 -8)"><g clip-path="url(#b)" fill="#97999b"><path d="m30.493 10 .001 2.812c0 .064-.03.105-.067.15-1.374 1.633-2.749 3.265-4.122 4.899-1.319 1.57-2.635 3.144-3.955 4.715-1.22 1.452-2.442 2.902-3.663 4.353-.182.217-.362.436-.54.65-.065-.02-.043-.063-.043-.093-.001-.874 0-1.749-.002-2.623 0-.083.025-.146.078-.21.51-.604 1.016-1.21 1.524-1.816l2.183-2.6 2.534-3.014 2.361-2.814c.721-.86 1.444-1.717 2.165-2.575l1.364-1.627c.05-.059.1-.115.182-.207zM24.372 12.402c0 .868 0 0 .006 2.521.005.263-.079.45-.247.647-.843.985-1.67 1.984-2.505 2.977-.73.87-1.463 1.74-2.195 2.61l-2.29 2.73c-.732.87-1.462 1.741-2.193 2.612l-2.662 3.17-.284.33v-.19c0-.849 0-1.697-.002-2.545 0-.099.025-.175.09-.251.637-.754 1.27-1.51 1.905-2.266l2.174-2.587 2.32-2.767 2.184-2.599 2.024-2.409 1.555-1.851c.03-.035.062-.068.12-.132z"/></g></g><defs><clipPath id="a"><path fill="#fff" transform="translate(.878)" d="M0 0h40v40H0z"/></clipPath><clipPath id="b"><path fill="#fff" transform="translate(12 10)" d="M0 0h18.494v20H0z"/></clipPath></defs></svg>