<svg width="40" height="40" fill="none" xmlns="http://www.w3.org/2000/svg"><g clip-path="url(#a)" transform="matrix(1.4 0 0 1.4 -8 -8)" fill-rule="evenodd" clip-rule="evenodd"><path d="M10 19.476v1.045l.04.413a9.81 9.81 0 0 0 .623 2.65c.04.107.09.227.133.333.186.476.686 1.372 1.002 1.798.067.09.133.183.193.273h9.725v.536h-9.282c.066.1.346.376.46.513l.515.473c.114.09.207.193.357.303.186.14.37.293.566.422l.812.506c.57.337 1.425.683 2.084.87.36.103.7.186 1.072.246.386.063.726.113 1.109.126l.07.017h1.042l.263-.03c.08 0 .207-.013.276-.02.716-.1 1.026-.143 1.722-.343.08-.02.16-.04.233-.066.15-.057.293-.094.44-.15.146-.057.276-.113.422-.17.08-.033.13-.06.21-.093.383-.16.636-.32.975-.506l.367-.227c.233-.156.832-.576 1.015-.756l.153-.133c.044-.033.047-.04.08-.073l.237-.22c.026-.026.046-.05.076-.073.033-.03.047-.037.08-.07l.696-.776.386-.506a10.5 10.5 0 0 0 1.066-1.9c.053-.144.113-.277.166-.424.107-.266.206-.612.286-.895.107-.387.297-1.375.303-1.772l.027-.276v-1.045l-.01-.017v-.013l-.113-1.042a4.792 4.792 0 0 1-.057-.327c-.043-.26-.163-.686-.236-.945a10.485 10.485 0 0 0-.543-1.409c-.083-.18-.176-.346-.263-.516l-.216-.376c-.027-.05-.05-.1-.087-.107h-9.699v-.549h9.34c-.054-.103-.233-.32-.313-.426l-.616-.69c-.037-.036-.047-.06-.084-.096l-.769-.699c-.07-.056-.14-.106-.21-.163a10.224 10.224 0 0 0-2.187-1.298 9.853 9.853 0 0 0-2.754-.736l-.632-.057c-.03-.003-.013 0-.03-.01H19.48l-.07.013c-.023.004-.043 0-.067 0-.053.007-.07.014-.14.014a11.416 11.416 0 0 0-1.295.19c-.16.033-.326.07-.476.113-.28.08-.632.18-.895.283-.696.273-1.352.579-1.975.998-.353.237-.609.417-.939.693l-.392.336-.15.15c-.054.057-.1.087-.15.14-.057.057-.087.1-.147.157l-.22.232c-.03.037-.036.04-.07.08-.026.037-.043.047-.07.084l-.132.153c-.287.32-.566.766-.806 1.119l-.217.372a9.702 9.702 0 0 0-.879 2.091c-.203.723-.236.98-.34 1.718-.002.044-.032.516-.049.54zm.796 3.862h.949v-1.415c.24 0 .303.043.393.196.14.237.426.92.582 1.219h1.072l-.193-.426c-.113-.25-.256-.623-.423-.843-.216-.29-.21-.163-.346-.283.136-.013.34-.14.436-.236.316-.326.356-.866.147-1.282-.024-.04-.037-.063-.067-.1-.027-.033-.05-.066-.08-.096-.25-.237-.632-.237-1.109-.237-.452 0-.905-.003-1.361 0zm1.168-3.876h.893v-1.88l.42.695c.05.083.09.16.139.243.097.16.186.31.283.473l.283.47.892.003.004-3.503h-.893l-.003 1.921a.605.605 0 0 1-.067-.11l-.356-.606c-.176-.293-.556-.965-.716-1.208h-.879zm3.09-1.797c.127 0 .71.093.812.096.064-.13.054-.27.357-.3.113-.013.213.004.276.05.073.054.08.14.08.263-.55.26-1.145.193-1.452.553-.186.22-.216.696.07.982.21.213.463.23.763.21.086-.007.21-.043.28-.067.096-.033.232-.123.302-.19.037-.036.054-.06.094-.086.006.097.046.233.096.286h.796c-.257-.48 0-1.431-.167-2.017a.706.706 0 0 0-.313-.43c-.256-.163-.912-.18-1.281-.106-.28.053-.52.193-.633.463-.027.06-.077.223-.08.293zm3.326-.357v-.386h-.799v2.54h.852c.01-.512-.013-.952.014-1.468.01-.153.116-.35.316-.35.093 0 .18.037.22.104.037.06.07.18.07.273v1.441l.849.004.003-1.815c0-.14-.083-.383-.176-.51-.29-.392-.933-.362-1.269.07-.02.027-.057.077-.08.097zm2.65-.426c-.729.06-1.148.8-1.062 1.475.027.22.047.33.133.5.087.173.204.319.357.436.033.026.063.043.1.066.353.21.909.217 1.268.037.163-.083.207-.13.326-.25.184-.183.333-.553.333-.822 0-.277.007-.49-.113-.75-.166-.356-.433-.595-.826-.672-.17-.033-.25-.033-.406-.033-.046 0-.046.013-.11.013zm-1.015 5.04c-.003.244-.007.41.05.594.057.173.123.31.226.432a1 1 0 0 0 .35.3c.413.243 1.115.19 1.498-.16.087-.08.22-.263.27-.38a1.66 1.66 0 0 0 .07-1.105 1.411 1.411 0 0 0-.22-.43 1.08 1.08 0 0 0-.593-.382c-.32-.08-.679-.077-.978.073-.114.057-.26.153-.333.246-.047.06-.077.097-.124.164-.043.06-.07.116-.103.186-.05.103-.11.323-.113.463zm-.686-.768-.003-.356h-.81v2.54h.866c.004-.47-.046-1.129.067-1.538.09-.32.3-.347.55-.22l.262-.703c-.28-.193-.646-.213-.849.13-.03.05-.053.107-.083.147zm-2.487 0-.003-.356h-.796V24.3h.866v-1.182c.043.027.06.057.1.093.036.03.083.057.123.08.25.15.596.13.822-.006.45-.273.48-.733.516-1.172a3.776 3.776 0 0 0-.01-.257c-.01-.073-.023-.176-.043-.246-.07-.286-.18-.536-.406-.72-.237-.192-.66-.2-.903-.02-.113.084-.183.18-.266.284zm-2.28 2.237c.579.003.865-.016 1.198-.393.053-.063.18-.243.2-.333l-.626-.06c-.05-.006-.153-.023-.21-.023-.186.343-.746.346-.796-.26h1.688l-.013-.29c-.017-.555-.223-1.065-.822-1.238-.433-.126-1.1-.06-1.405.333-.144.186-.237.34-.29.626a1.62 1.62 0 0 0 .19 1.135c.103.173.296.357.496.426.093.034.276.077.39.077zm15.232-3.735c0-.18-.094-.557-.144-.71-.203-.619-.383-.889-.775-1.378-.057-.073-.15-.153-.217-.223-.423-.423-1.082-.78-1.665-.92-.712-.172-1.521-.142-2.207.134-.173.073-.32.133-.48.223-.23.127-.605.403-.802.596-.11.113-.313.346-.396.47-.077.11-.143.19-.213.32a3.694 3.694 0 0 0-.363 2.87c.156.545.346.865.65 1.274a3.717 3.717 0 0 0 3.61 1.362 3.608 3.608 0 0 0 1.477-.64 3.769 3.769 0 0 0 1.428-2.087c.023-.086.043-.183.06-.283.053-.276.05-.552.05-.842 0-.08-.013-.097-.013-.166z" fill="#fff"/><path d="M26.867 21.567a.869.869 0 0 0-.333.146.832.832 0 0 0 .71 1.478c.072-.02.115-.046.172-.073.067-.033.097-.06.153-.096.027-.04.05-.054.083-.094.433-.49.13-1.248-.472-1.358-.22-.04-.19-.003-.313-.003zM21.264 17.555c-.197 0-.267.06-.343.18-.09.133-.083.246-.107.429-.006.043.007.183.014.24a.78.78 0 0 0 .06.213c.2.413.745.316.745-.36.004-.183-.01-.346-.066-.47-.05-.103-.153-.23-.303-.232zM21.277 22.732c.11 0 .216-.067.286-.153.157-.193.143-.746.033-.95a.37.37 0 0 0-.196-.186c-.57-.196-.673.823-.386 1.169.026.033.07.06.113.08.03.017.033.02.07.027.01.003.08.013.08.013zM16.908 21.866l.013.456c.127.496.69.443.69-.14v-.26c-.007-.505-.51-.612-.66-.219-.01.027-.043.14-.043.163z" fill="#fff"/><path d="M26.867 21.567c.123 0 .093-.037.313.003.603.11.906.869.473 1.358-.033.04-.057.054-.083.094.19-.017.446-.223.54-.407a.834.834 0 0 0-1.096-1.152.482.482 0 0 0-.147.104z" fill="#bab3d4"/><path d="M11.745 21.25c.18 0 .543.02.7-.07.182-.106.249-.572-.15-.616-.17-.02-.36-.016-.55-.013zM16.07 18.97c.156 0 .256-.017.376-.134.16-.153.133-.346.133-.552-.073.006-.566.19-.606.216-.216.133-.153.47.097.47zM14.328 21.84h.81c.003-.243-.12-.51-.357-.506-.137 0-.256 0-.356.176a.78.78 0 0 0-.097.33z" fill="#fff"/></g><defs><clipPath id="a"><path fill="#fff" d="M0 0h40v40H0z"/></clipPath></defs></svg>