<svg width="40" height="40" fill="none" xmlns="http://www.w3.org/2000/svg"><g clip-path="url(#a)" transform="matrix(1.4 0 0 1.4 -8 -7.944)"><g clip-path="url(#b)" fill="#fff"><path d="M22.328 20.34h-1.676v-.328h2.065c.014.177-.011.35-.064.516-.186.595-.582.982-1.187 1.127-.618.149-1.194.044-1.688-.376-.328-.279-.507-.648-.573-1.068-.068-.442-.026-.874.194-1.272.283-.513.715-.824 1.297-.912.503-.076.97.018 1.384.324.244.18.464.498.542.79-.118 0-.232.003-.346-.003-.02-.001-.044-.035-.056-.06-.261-.549-.805-.78-1.365-.739-.758.056-1.337.68-1.322 1.526.007.4.114.761.39 1.06.248.269.561.407.92.438.364.03.71-.034 1.01-.264.247-.19.4-.44.475-.76zM10.352 18.384v2.913c.01.005.014.01.02.01.48-.005.963-.001 1.444-.019.162-.006.323-.065.489-.101l.218.244c-.19.108-.395.173-.608.18-.517.02-1.034.022-1.551.03-.119.002-.238 0-.364 0V18.08c.022-.003.048-.008.073-.008.559.003 1.119-.015 1.677.014.62.032 1.14.274 1.452.85.15.277.207.58.209.893a1.931 1.931 0 0 1-.254 1.006c-.003.004-.009.008-.026.023-.066-.079-.136-.154-.194-.238-.017-.023-.007-.073.004-.105a1.81 1.81 0 0 0-.008-1.323 1.138 1.138 0 0 0-.995-.747c-.522-.05-1.05-.043-1.586-.061z"/><path d="M12.407 18.863c.073.084.145.161.209.244.012.015 0 .054-.01.079-.175.432-.19.87-.013 1.301.204.5.583.788 1.119.863.43.061.83-.022 1.173-.298.38-.306.54-.72.538-1.2 0-.46-.15-.864-.506-1.171-.313-.27-.684-.367-1.092-.341-.217.014-.42.07-.615.174l-.209-.24c.511-.388 1.558-.406 2.211.218.707.675.761 1.872.114 2.613-.623.714-1.789.82-2.534.228-.773-.612-.848-1.767-.385-2.47zM27.877 21.642c-.13 0-.245.004-.36-.004-.026-.002-.06-.042-.07-.071-.127-.326-.252-.653-.372-.981-.022-.06-.049-.08-.113-.08-.437.004-.874.004-1.31 0-.063 0-.087.02-.108.077-.12.328-.244.655-.364.983-.02.056-.046.08-.108.077-.1-.005-.2-.001-.315-.001l.085-.23c.421-1.085.843-2.17 1.261-3.257.025-.063.054-.09.121-.084.088.007.197-.022.26.02.06.038.073.149.104.229l1.243 3.198.046.124zm-.961-1.47-.606-1.648-.606 1.648h1.212zM18.485 18.072c.095 0 .178.004.26-.001.074-.006.097.018.096.094-.003.699.002 1.398-.004 2.097a2.29 2.29 0 0 1-.059.512c-.124.516-.548.873-1.081.93a1.67 1.67 0 0 1-.814-.094c-.414-.167-.649-.487-.732-.919a2.223 2.223 0 0 1-.038-.407c-.004-.708-.002-1.416-.002-2.124 0-.026.003-.052.005-.083h.35v.11c0 .735-.006 1.47.006 2.205.006.345.13.646.44.838.389.239 1.163.214 1.441-.346.1-.202.13-.418.131-.64.002-.683 0-1.368 0-2.052l.001-.12zM27.849 20.566h.348c.018.08.032.162.053.24.136.49.554.651.98.522.398-.12.532-.637.264-.985a1.05 1.05 0 0 0-.374-.28c-.235-.12-.482-.223-.7-.369a.935.935 0 0 1-.2-1.37c.2-.233.459-.325.76-.322.53.005.853.368.928.879l.015.104h-.328c-.021-.078-.037-.16-.065-.236-.135-.364-.405-.482-.756-.404a.494.494 0 0 0-.396.413c-.046.242.015.46.216.613.108.083.232.143.35.21.236.136.488.25.706.41.496.362.479 1.274-.14 1.599-.189.1-.394.15-.61.119-.125-.018-.255-.03-.372-.075-.398-.149-.58-.469-.653-.866-.012-.064-.017-.129-.026-.203zM23.414 21.308h1.219c-.046.11-.086.208-.13.304-.007.015-.038.028-.057.028h-1.347c-.008 0-.017-.005-.03-.01v-3.552h.345v3.23z"/></g></g><defs><clipPath id="a"><path fill="#fff" d="M0 0h40v40H0z"/></clipPath><clipPath id="b"><path fill="#fff" transform="translate(10 18)" d="M0 0h20v3.719H0z"/></clipPath></defs></svg>