<svg width="41" height="40" fill="none" xmlns="http://www.w3.org/2000/svg"><g clip-path="url(#a)" transform="matrix(1.4 0 0 1.4 -8.4 -8.058)"><g clip-path="url(#b)"><path d="M21.011 19c.001.001.002.004.004.004.078.02.077.025.086.111.026.236-.005.47-.002.706v.064c.054-.028.09-.066.128-.098.164-.138.357-.17.562-.155a.652.652 0 0 1 .443.202c.1.105.148.234.16.375.024.327.003.656.01.984.002.059-.02.077-.081.077h-.106c-.066 0-.087-.014-.096-.08a.56.56 0 0 1-.004-.128c.02-.222.01-.444.007-.666-.002-.152-.034-.3-.157-.407-.157-.137-.336-.132-.517-.063-.23.088-.338.267-.36.507-.018.191.015.38.014.571 0 .052 0 .104-.002.156-.003.072-.022.095-.092.11a.309.309 0 0 1-.071.01c-.107-.003-.129-.028-.128-.134v-2.035c-.001-.051.008-.09.057-.111h.145ZM31 19.879c-.028.04-.071.04-.113.042-.322.01-.505.189-.534.51-.02.217.001.433.003.65 0 .027.002.055 0 .083-.004.086-.018.102-.103.113a.397.397 0 0 1-.137-.014c-.053-.012-.059-.058-.062-.1a1.337 1.337 0 0 1 0-.172c.022-.315.006-.63.009-.945 0-.081-.015-.162-.01-.244.004-.043-.001-.094.05-.114.067-.027.137-.037.204 0 .024.012.026.042.026.069v.14c.054-.03.095-.07.137-.106a.582.582 0 0 1 .342-.155l.067-.001c.074 0 .107.045.121.11v.134z" fill="#2dbdb6"/><path d="M23.597 21.283c0 .003 0 .006-.002.009h-.212a.02.02 0 0 0-.002-.01c.043-.046.1-.022.15-.026.024-.001.052-.002.066.027z" fill="#09837c"/><path d="M19.697 21.292a.08.08 0 0 0-.002-.01c.046-.04.16-.039.205 0l-.002.01h-.2z" fill="#06847d"/><path d="M18.073 21.283c0 .003 0 .006-.002.009h-.178a.05.05 0 0 0-.001-.01c.045-.038.136-.038.18 0z" fill="#066a65"/><path d="m25.588 19.858.097-.083c.142-.127.313-.157.496-.145.166.01.297.081.399.211.023.029.048.066.083.07.042.005.04-.049.061-.074a.501.501 0 0 1 .219-.157.801.801 0 0 1 .517-.015c.23.068.334.24.377.462.041.209.025.42.023.632-.001.094-.003.189.008.283a.334.334 0 0 1 0 .094c-.008.045 0 .104-.055.124a.28.28 0 0 1-.221-.007c-.014-.006-.02-.02-.023-.036a.354.354 0 0 1-.009-.083l.016-.4c.009-.198.013-.396-.05-.588-.073-.223-.23-.285-.443-.249-.234.04-.327.203-.359.434-.02.15-.01.3-.005.45.004.134.004.27.003.405 0 .06-.021.08-.08.083-.045.002-.09 0-.134.002-.04.001-.062-.022-.072-.057a.303.303 0 0 1-.013-.098c.01-.18.02-.36.028-.539a1.383 1.383 0 0 0-.027-.375c-.043-.187-.158-.3-.315-.312-.223-.016-.378.07-.454.253a.915.915 0 0 0-.065.324c-.007.2.002.4.018.6 0 .019.003.037.002.056-.003.05.01.113-.047.138a.253.253 0 0 1-.22-.01c-.016-.007-.02-.024-.023-.04a.742.742 0 0 1-.01-.2c.017-.321.002-.642 0-.962 0-.098-.002-.196.009-.295.004-.037.017-.059.052-.068.023-.007.046-.016.069-.018.12-.01.149.017.149.137v.053zM19.9 21.283h-.205c-.23-.017-.44-.079-.6-.257a.456.456 0 0 1-.115-.187c-.011-.043.003-.073.038-.094a.444.444 0 0 1 .151-.052.088.088 0 0 1 .085.03c.015.017.031.033.04.053.067.149.195.209.344.241.146.032.29.03.43-.024a.264.264 0 0 0 .135-.103c.056-.088.027-.186-.07-.24-.094-.051-.2-.058-.305-.07-.17-.018-.344-.017-.509-.077-.143-.052-.258-.135-.288-.293-.033-.18.032-.327.17-.444a.586.586 0 0 1 .29-.114 1.21 1.21 0 0 1 .593.016.672.672 0 0 1 .362.25l.013.019c.073.114.057.163-.069.21-.11.04-.152.036-.204-.053-.12-.204-.312-.23-.52-.22a.582.582 0 0 0-.23.05.242.242 0 0 0-.098.08c-.054.08-.04.164.038.219a.542.542 0 0 0 .257.079c.167.019.337.019.502.055.05.012.1.028.146.05.156.07.238.193.239.362 0 .176-.067.322-.226.41a.924.924 0 0 1-.394.104zM15.326 19.908a.574.574 0 0 1 .526-.274c.1.003.125.025.127.125.005.165-.018.163-.16.173-.297.022-.464.182-.488.48-.015.18.014.359.013.538 0 .085-.001.17-.021.254-.01.041-.034.06-.072.065a.438.438 0 0 1-.132.003c-.06-.01-.077-.026-.077-.086v-.5c0-.287.002-.574-.01-.861-.006-.141.102-.205.235-.145.025.011.038.031.045.059.013.051.003.105.015.169zM16.467 19.898c.078-.057.141-.118.213-.17.127-.092.27-.101.419-.092.057.003.077.046.044.094-.066.096-.139.175-.27.2-.202.037-.317.182-.37.377-.03.111-.037.225-.032.34l.018.339c.004.069-.007.137-.01.205-.003.032-.017.056-.048.069a.306.306 0 0 1-.196.006c-.039-.01-.038-.046-.038-.078l.003-.456v-.672c-.001-.093-.009-.185-.01-.277-.001-.082.024-.106.106-.108.05 0 .11-.013.147.01.037.023.008.089.016.135.004.024.005.047.008.078zM24.918 20.482c.004.194-.008.396.011.598a.338.338 0 0 1 0 .066c-.013.107-.06.144-.168.13-.133-.017-.148-.028-.142-.164.02-.454.007-.908.01-1.361 0-.045.015-.071.062-.074.012 0 .025-.006.038-.007.15-.013.206.038.198.193-.01.204-.006.407-.01.62z" fill="#2dbdb6"/><path d="M24.606 19.306v-.033c-.007-.128.01-.14.145-.148.036-.002.073.004.11.01.044.006.069.033.07.078 0 .065.002.13-.001.194-.001.042-.024.065-.068.073a.54.54 0 0 1-.16.002c-.083-.011-.1-.03-.098-.115 0-.02.003-.04.004-.06h-.002z" fill="#2dbcb6"/><path d="M13.078 19.64c-.013-.035-.052-.028-.084-.029h-.022l-.885-.003a2.278 2.278 0 0 0-.569.048.473.473 0 0 0-.282.753c.01.01.015.025.023.037.016.023.014.033-.015.048a.271.271 0 0 0-.158.248c-.002.095.04.166.119.224a.661.661 0 0 0-.205.204v.055c.02.035.051.049.093.046a.737.737 0 0 1 .111 0c.052.004.077-.018.087-.07a.2.2 0 0 1 .17-.153c.078-.005.156-.008.234-.007.15.003.3.007.45.005a1.32 1.32 0 0 1 .327.022c.082.02.14.059.15.147.006.038.028.052.063.059.067.013.133-.002.2-.004.018-.001.017-.013.02-.027a.365.365 0 0 0-.18-.36.814.814 0 0 0-.327-.08c-.246-.02-.493-.004-.74.006a.65.65 0 0 1-.203-.018c-.065-.018-.097-.062-.09-.116.008-.048.059-.084.12-.086.08-.002.155.016.231.032.252.05.498.029.735-.066.216-.086.307-.255.277-.486-.008-.067-.034-.13-.046-.202.046 0 .089.002.131 0 .105-.007.169-.076.228-.152.018-.023.048-.046.037-.076zm-.71.66c-.105.097-.235.126-.371.135h-.078c-.149 0-.291-.021-.413-.116-.136-.107-.142-.235-.014-.35a.635.635 0 0 1 .462-.152.782.782 0 0 1 .319.06c.018.008.037.016.054.027.171.102.188.26.042.396zM14.742 20.293a.695.695 0 0 0-.406-.581c-.236-.113-.478-.108-.726-.049a.684.684 0 0 0-.476.405.997.997 0 0 0-.086.458c.01.347.22.626.554.72.07.02.143.03.215.046h.223c.008-.004.016-.01.025-.01a.916.916 0 0 0 .35-.113.691.691 0 0 0 .281-.285c.018-.034.038-.074.006-.109-.072-.076-.142-.104-.232-.028a.821.821 0 0 0-.097.099.477.477 0 0 1-.25.155.738.738 0 0 1-.353.011c-.191-.04-.336-.141-.4-.335-.035-.104-.009-.147.1-.14.34.018.68.005 1.02.01.023 0 .048.001.071.006.04.007.077.002.116-.004.038-.006.057-.026.067-.063.017-.065.005-.129-.002-.193zm-.343.01a.257.257 0 0 1-.088.008c-.133-.017-.266-.006-.383-.01-.16.002-.305 0-.45.01-.13.01-.154-.03-.102-.15a.425.425 0 0 1 .22-.23.722.722 0 0 1 .646.012c.115.059.17.165.205.282.013.04-.004.068-.048.077zM28.428 20.546c.129-.015.256.001.384.002.245 0 .49-.012.735.009.05.004.1.004.15-.006.054-.012.078-.043.079-.097a1.374 1.374 0 0 0-.011-.2c-.025-.194-.103-.36-.267-.473-.231-.157-.491-.186-.76-.141a.738.738 0 0 0-.45.231.937.937 0 0 0-.133.99c.142.284.393.397.695.421h.158a1.19 1.19 0 0 0 .267-.045.725.725 0 0 0 .447-.35c.038-.066.031-.101-.029-.14-.118-.076-.18-.065-.263.047l-.016.022a.431.431 0 0 1-.278.187.813.813 0 0 1-.242.021c-.225-.015-.467-.138-.513-.415-.01-.053.006-.058.048-.063zm-.035-.347a.425.425 0 0 1 .246-.278.663.663 0 0 1 .627.03.403.403 0 0 1 .202.298c.008.048-.006.054-.048.054-.145-.003-.29-.001-.466-.001-.139.005-.31-.007-.48.006-.09.007-.108-.021-.081-.11zM24.318 20.238c-.03-.2-.115-.368-.292-.476-.264-.16-.547-.18-.84-.098a.67.67 0 0 0-.464.387c-.048.112-.065.23-.077.35-.05.49.243.834.737.881h.215c.04 0 .081-.004.121-.012a.794.794 0 0 0 .541-.345c.075-.113.06-.158-.066-.207l-.01-.004c-.085-.03-.114-.02-.162.055a.411.411 0 0 1-.103.122.666.666 0 0 1-.707.068.448.448 0 0 1-.27-.337c-.014-.072-.012-.076.06-.076h1.02c.068 0 .136.002.205.004.078.001.103-.023.104-.102a1.235 1.235 0 0 0-.012-.21zm-.333.065c-.167-.003-.334-.001-.5-.001-.168 0-.335-.002-.502 0-.042.001-.05-.014-.046-.05a.393.393 0 0 1 .229-.314c.201-.1.41-.105.616-.011a.402.402 0 0 1 .243.328c.005.035 0 .048-.04.048zM18.794 20.235a.645.645 0 0 0-.435-.546 1.069 1.069 0 0 0-.754-.003.677.677 0 0 0-.387.34.973.973 0 0 0-.088.555.773.773 0 0 0 .094.327c.151.251.388.35.668.374h.18a.926.926 0 0 0 .176-.024.746.746 0 0 0 .515-.37c.04-.069.031-.105-.038-.146a.36.36 0 0 0-.054-.027c-.085-.032-.12-.021-.164.058a.45.45 0 0 1-.227.195.715.715 0 0 1-.516.02c-.179-.06-.302-.175-.336-.368-.013-.068-.009-.073.058-.073h1.252c.054-.002.078-.033.08-.086.003-.077-.012-.152-.024-.226zm-.322.068c-.167-.002-.334-.001-.501-.001h-.49c-.06 0-.066-.006-.054-.066a.406.406 0 0 1 .238-.302c.228-.104.454-.105.67.034a.394.394 0 0 1 .178.288c.006.037-.004.047-.041.047z" fill="#2dbdb6"/></g></g><defs><clipPath id="a"><path fill="#fff" transform="translate(.879)" d="M0 0h40v40H0z"/></clipPath><clipPath id="b"><path fill="#fff" transform="translate(11 19)" d="M0 0h20v2.292H0z"/></clipPath></defs></svg>