<svg width="40" height="40" fill="none" xmlns="http://www.w3.org/2000/svg"><g clip-path="url(#a)" transform="matrix(1.4 0 0 1.4 -7.995 -7.996)"><mask id="b" mask-type="alpha" maskUnits="userSpaceOnUse" x="10" y="10" width="20" height="20"><path fill="#fff" d="M10 10.892h20v18.217H10z"/></mask><g mask="url(#b)"><path fill-rule="evenodd" clip-rule="evenodd" d="M29.024 10.9h.952c0 4.095.002 8.19 0 12.285-2.024 1.973-4.058 3.936-6.087 5.903-2.445-2.172-4.887-4.348-7.334-6.519-.003 2.17 0 4.341-.001 6.512h-.951v-7.36a4199.73 4199.73 0 0 1-4.662-4.133c-.002 3.83 0 7.661-.001 11.492-.313.002-.626 0-.94.001V16.316c2.027-1.807 4.049-3.619 6.076-5.424 2.448 2.14 4.888 4.29 7.334 6.431V10.9h.952v16.474c1.56-1.532 3.11-3.074 4.662-4.612zm-17.833 5.631c4.068 3.623 8.144 7.237 12.218 10.854.002-2.933 0-5.867 0-8.8-2.441-2.142-4.88-4.286-7.323-6.425-1.633 1.456-3.263 2.915-4.895 4.371z" fill="#fff"/></g></g><defs><clipPath id="a"><path fill="#fff" d="M0 0h40v40H0z"/></clipPath></defs></svg>