<svg width="40" height="40" fill="none" xmlns="http://www.w3.org/2000/svg"><g clip-path="url(#a)" transform="matrix(1.4 0 0 1.4 -8 -8)"><path fill-rule="evenodd" clip-rule="evenodd" d="M24.196 22.393a.603.603 0 0 0 .2-.246h5.49c.067.006.12.063.113.133a.122.122 0 0 1-.113.113zm-10.102-.26c.03.1.09.187.176.247h-4.15a.115.115 0 0 1-.12-.11v-.02a.12.12 0 0 1 .11-.13h3.98v.013zm4.14-2.223a.57.57 0 0 0 .563-.563.55.55 0 0 0-.537-.564h-.23v1.14h.2v-.013zm-.447-1.233c0-.083.07-.13.163-.13h.27a.786.786 0 0 1 .8.773v.027a.795.795 0 0 1-.787.8h-.32a.137.137 0 0 1-.14-.13v-1.34h.014zm-2.2 2.386h.893c.1.007.2.03.293.07V18.23a.636.636 0 0 1 .647-.623H18.24c.56.003 1.083.277 1.41.73v-.06a.65.65 0 0 1 .637-.66h.01c.35-.007.64.27.646.62v.78l.69-1.14c.364-.577 1.53-.023 1 .787l-.73 1.256 1.057 1.223v-2.88c0-.356.29-.646.647-.646h1.516c.357.003.643.29.647.646a.644.644 0 0 1-.644.647h-.896v.493h.576a.611.611 0 0 1 0 1.224h-.576v1.14a.6.6 0 0 1-.58.623h-.057a.672.672 0 0 1-.47-.2c-.236.293-.73.237-.986-.047-.107-.13-1.187-1.376-1.187-1.376v.94a.65.65 0 0 1-.623.68h-.024a.647.647 0 0 1-.646-.647v-1.377c-.327.454-.854.72-1.41.717h-.187v.66c0 .35-.283.637-.633.637h-.013a.66.66 0 0 1-.47-.187.651.651 0 0 1-.47.187h-1.647a.555.555 0 0 1-.553-.507v-3.593a.696.696 0 0 1 .67-.66.635.635 0 0 1 .656.617v2.826h-.013zm-.247-2.81a.391.391 0 0 0-.383-.4h-.027a.417.417 0 0 0-.4.424v3.54a.33.33 0 0 0 .317.316h1.623c.16 0 .307-.09.377-.236a.127.127 0 0 1 .106-.084.11.11 0 0 1 .107.084.378.378 0 0 0 .353.236.406.406 0 0 0 .4-.4v-.906h.437c.737 0 1.363-.54 1.47-1.27 0-.05.04-.094.09-.094h.003a.1.1 0 0 1 .094.094v2.153a.404.404 0 0 0 .373.433h.027c.23-.01.41-.203.4-.436v-1.4c0-.044.033-.08.08-.084h.003a.097.097 0 0 1 .07.037s1.41 1.633 1.446 1.67c.26.283.54.27.694 0a.144.144 0 0 1 .13-.083.112.112 0 0 1 .117.083c.063.13.196.213.34.21a.391.391 0 0 0 .4-.383V20.373h.8a.376.376 0 0 0 .363-.376.385.385 0 0 0-.364-.377h-.8v-.977h1.107a.395.395 0 0 0 .4-.393v-.007a.395.395 0 0 0-.393-.4h-1.504a.406.406 0 0 0-.4.41v3.164a.13.13 0 0 1-.13.13c-.046 0-.07-.024-.116-.06l-1.283-1.447c-.107-.107-.084-.14-.024-.247l.8-1.353a.396.396 0 0 0-.117-.507.373.373 0 0 0-.52.087c-.006.01-.013.02-.02.034l-.93 1.576a.07.07 0 0 1-.07.037.084.084 0 0 1-.083-.08v-1.31a.402.402 0 0 0-.376-.423.402.402 0 0 0-.424.376v.87c0 .05-.04.093-.09.093h-.003a.09.09 0 0 1-.093-.07 1.494 1.494 0 0 0-1.47-1.27h-.813a.413.413 0 0 0-.4.387v3.21a.112.112 0 0 1-.117.093.103.103 0 0 1-.093-.06.418.418 0 0 0-.33-.176H15.41a.078.078 0 0 1-.06-.07V18.25h-.01z" fill="#fff"/></g><defs><clipPath id="a"><path fill="#fff" d="M0 0h40v40H0z"/></clipPath></defs></svg>