<svg width="40" height="40" fill="none" xmlns="http://www.w3.org/2000/svg"><path d="M34 6H6v28h28z" fill="#002f87" style="stroke-width:1.4"/><path fill-rule="evenodd" clip-rule="evenodd" d="M23.298 19.298c.021.319.042.617.042.723.043.851-.127 1.915-.319 2.085L20.745 19c1.532-1.277 2.042-2.192 2.042-3.404 0-1.66-1.298-2.894-3.127-2.894-1.98 0-3.362 1.191-3.362 2.83 0 .957.234 1.49 1.447 3-1.851 1.064-2.809 2.553-2.724 4 .17 2.425 2.022 3.766 4.681 3.787 1.362 0 2.213-.277 3.17-1.043l.596.788h2.617l-1.68-2.234c.808-1.022 1.063-2.064 1.063-3.745 0-.106-.021-.51-.021-.787zm-3.809-1.873c-.766-.978-.914-1.276-.914-1.83 0-.574.446-.978 1.085-.978.66 0 1.063.383 1.063.957 0 .596-.34 1.192-1.234 1.851zm2.064 6.128c-.468.404-1.021.702-1.85.702-1.341 0-2.256-.702-2.277-1.787-.022-.702.446-1.468 1.617-2.234z" fill="#fff" style="stroke-width:1.4"/><path d="M13.404 26.064V12.85H8.638v2.128h2.128v11.085zM30.298 26.064V12.85h-4.745v2.128h2.107v11.085z" fill="#fff" style="stroke-width:1.4"/></svg>