<svg width="40" height="40" fill="none" xmlns="http://www.w3.org/2000/svg"><g clip-path="url(#a)" transform="matrix(1.4 0 0 1.4 -7.987 -7.99)"><mask id="b" mask-type="alpha" maskUnits="userSpaceOnUse" x="10" y="10" width="20" height="20"><path fill="#fff" d="M10 10h20v20H10z"/></mask><g mask="url(#b)"><path fill-rule="evenodd" clip-rule="evenodd" d="M18.075 10.18a9.997 9.997 0 0 1 6.298.845 10.026 10.026 0 0 1 4.483 4.431 9.994 9.994 0 0 1 .956 6.087 9.947 9.947 0 0 1-2.726 5.414 9.95 9.95 0 0 1-5.298 2.826 9.983 9.983 0 0 1-6.169-.83 10.015 10.015 0 0 1-4.84-5.107 10.018 10.018 0 0 1-.362-6.733c1.01-3.492 4.079-6.278 7.658-6.934zm-2.863 3.155c1.366.303 2.736.583 4.103.883.215-.41.645-.634 1.107-.54.602-.512 1.195-1.037 1.787-1.562-2.363-.667-5.003-.218-6.997 1.22zm5.507.526c.134.24.213.505.251.776 2.106.576 4.212 1.155 6.318 1.722a8.294 8.294 0 0 0-4.713-4.126c-.619.544-1.239 1.085-1.856 1.628zm-7.174 1.074 1.277 4.795c.36.054.663.252.863.555 1.08-.176 2.158-.358 3.237-.538.065-.176.131-.35.2-.525-1.468-1.835-2.928-3.674-4.392-5.512a10.1 10.1 0 0 0-1.185 1.225zM15.1 13.65c1.422 1.786 2.84 3.576 4.269 5.357.47-.145.95.04 1.199.464 1.081-.177 2.163-.36 3.245-.54l.12-.407c-1.182-1.078-2.351-2.169-3.54-3.239-.525.1-.998-.229-1.117-.74-1.39-.305-2.784-.597-4.176-.895zm5.533 1.386c1.15 1.096 2.335 2.155 3.504 3.228.403-.185.855-.131 1.184.17.785-.384 1.564-.78 2.345-1.169a60.738 60.738 0 0 0-.203-.516c-2.118-.58-4.239-1.155-6.357-1.737-.157-.064-.318-.026-.473.024zm-8.202 8.09c.606-.659 1.18-1.345 1.776-2.013a.992.992 0 0 1 .3-1.3c-.403-1.515-.803-3.03-1.212-4.543-1.602 2.252-1.925 5.31-.864 7.855zm13.041-4.398a1.27 1.27 0 0 1-.348.937 781.903 781.903 0 0 0 1.869 4.47c1.157-1.954 1.439-4.386.78-6.557-.769.381-1.536.764-2.3 1.15zm-4.892 1.074-.05.29c2.049 1.37 4.09 2.75 6.138 4.12-.615-1.472-1.227-2.943-1.848-4.411a1.134 1.134 0 0 1-.974-.542c-1.09.176-2.178.36-3.266.543zm-4.873.81-.084.354c1.47 1.144 2.928 2.304 4.399 3.451.241-.083.493-.226.756-.143.303.056.461.337.625.564 1.692-.114 3.382-.24 5.074-.36-2.034-1.369-4.069-2.735-6.104-4.101-.232.095-.464.251-.727.201-.311-.025-.502-.293-.688-.507-1.083.183-2.166.361-3.25.541zm-1.255.716c-.625.708-1.244 1.423-1.868 2.133 1.063 2.253 3.19 3.959 5.625 4.492.579-.77 1.154-1.543 1.735-2.31a1.35 1.35 0 0 1-.127-.967c-1.454-1.15-2.916-2.293-4.373-3.441-.31.166-.656.191-.992.093zm6.972 3.843a.958.958 0 0 1-1.225.666c-.54.732-1.094 1.454-1.633 2.188 1.112.17 2.257.152 3.35-.124 1.85-.442 3.506-1.576 4.635-3.098-1.71.119-3.417.238-5.127.368z" fill="#0f8ec7"/></g></g><defs><clipPath id="a"><path fill="#fff" d="M0 0h40v40H0z"/></clipPath></defs></svg>