<svg width="40" height="40" fill="none" xmlns="http://www.w3.org/2000/svg"><path fill-rule="evenodd" clip-rule="evenodd" d="M6.062 19.442v-2.953h.579l1.19 1.972V16.49h.548v2.953h-.59l-1.172-1.93v1.93zm2.848 0v-2.953h2.163v.5H9.496v.652h1.46v.5h-1.46v.8h1.632v.5zm2.773 0v-2.953h.882l.536 2.015.52-2.015h.886v2.953h-.543v-2.324l-.586 2.324h-.566l-.579-2.324v2.324zm3.366 0v-2.953h2.164v.5h-1.578v.652h1.461v.5h-1.46v.8h1.632v.5zm3.336 0v-2.453h-.863v-.5h2.312v.5h-.863v2.453zm1.578-.961.574-.051c.035.2.11.34.215.433.105.098.246.141.426.141.19 0 .331-.043.425-.129.098-.086.153-.18.153-.289a.269.269 0 0 0-.067-.18.391.391 0 0 0-.21-.128c-.067-.02-.227-.063-.473-.125-.317-.086-.532-.184-.66-.301a.774.774 0 0 1-.266-.606c0-.152.043-.3.129-.425a.868.868 0 0 1 .363-.313c.16-.074.352-.105.574-.105.363 0 .64.086.832.246.192.16.278.383.285.66l-.593.031c-.024-.148-.075-.265-.16-.328-.086-.066-.204-.097-.375-.097-.168 0-.309.03-.403.105a.21.21 0 0 0-.097.183c0 .075.03.126.086.18.074.063.253.13.542.203.29.074.5.137.641.215.137.074.246.18.32.309a.925.925 0 0 1 .117.476.85.85 0 0 1-.14.48.785.785 0 0 1-.395.333c-.168.074-.382.105-.64.105-.371 0-.649-.086-.852-.266-.19-.172-.308-.425-.351-.757zm4.702-.13.575.184c-.086.328-.235.567-.438.723-.203.16-.457.234-.777.234-.383 0-.703-.136-.961-.402-.242-.266-.371-.64-.371-1.11 0-.5.129-.886.371-1.163.258-.274.578-.414.992-.414.352 0 .652.105.875.32.129.129.234.309.297.555l-.586.136a.598.598 0 0 0-.211-.363.66.66 0 0 0-.395-.136.639.639 0 0 0-.523.234c-.14.16-.203.418-.203.77 0 .37.063.648.203.808.13.16.309.246.523.246.16 0 .286-.055.403-.149.086-.086.172-.246.226-.472zm1.031 1.09V16.49h.586v1.16h1.152v-1.16h.586v2.953h-.586v-1.29h-1.152v1.29zm2.91 0V16.49h2.164v.5h-1.578v.652h1.46v.5h-1.46v.8h1.633v.5zm2.773 0V16.49h.586V17.8l1.195-1.312h.79l-1.098 1.152 1.148 1.8h-.754l-.8-1.386-.48.492v.895z" fill="#fff" style="stroke-width:1.4"/><path fill-rule="evenodd" clip-rule="evenodd" d="M7.46 22.254v-.34h1.235v1.238a2.193 2.193 0 0 1-.586.34 2.07 2.07 0 0 1-.617.105 1.7 1.7 0 0 1-.777-.18 1.308 1.308 0 0 1-.535-.535 1.82 1.82 0 0 1-.18-.796c0-.29.062-.555.18-.801.117-.246.289-.437.511-.555.227-.117.48-.18.77-.18.21 0 .406.032.574.106.172.063.3.172.406.29.086.105.148.241.203.401l-.351.11a.71.71 0 0 0-.14-.277.599.599 0 0 0-.278-.203 1.198 1.198 0 0 0-.863.012.817.817 0 0 0-.309.21.606.606 0 0 0-.191.266 1.591 1.591 0 0 0-.106.597c0 .266.043.48.137.66a.824.824 0 0 0 .394.395 1.257 1.257 0 0 0 1.035.031 1.24 1.24 0 0 0 .364-.21v-.684zm1.844 1.292v-2.952h1.29c.257 0 .46.02.585.074.14.05.246.148.32.277a.793.793 0 0 1 .117.445.74.74 0 0 1-.203.536c-.136.148-.359.222-.617.277l1.055 1.34-.48.003-1.032-1.312h-.66v1.312zm.383-1.644h.832c.183 0 .308-.02.418-.05a.472.472 0 0 0 .297-.45.439.439 0 0 0-.149-.34c-.097-.085-.258-.14-.469-.14H9.7c-.012 0-.012.98-.012.98zm2.324.203c0-.492.129-.875.383-1.152.257-.277.597-.414 1.003-.414.266 0 .512.062.727.191.21.13.383.309.488.543.106.235.172.5.172.79 0 .3-.066.566-.184.8a1.199 1.199 0 0 1-.5.531c-.21.117-.457.184-.703.184-.277 0-.523-.067-.734-.203a1.298 1.298 0 0 1-.492-.555 1.552 1.552 0 0 1-.16-.715zm.394.012c0 .351.098.64.29.84a.943.943 0 0 0 .714.312c.285 0 .531-.11.715-.312.191-.2.273-.5.273-.871 0-.246-.039-.45-.117-.63a.844.844 0 0 0-.351-.417.993.993 0 0 0-.52-.148.943.943 0 0 0-.703.289c-.203.18-.3.488-.3.937zm4.68-1.523h.386v1.703c0 .3-.035.535-.098.703a.798.798 0 0 1-.363.425c-.172.11-.394.16-.68.16-.277 0-.491-.039-.671-.136a.783.783 0 0 1-.375-.418c-.074-.18-.106-.426-.106-.734v-1.703h.383v1.703c0 .257.02.449.074.566a.585.585 0 0 0 .246.277.864.864 0 0 0 .414.094c.29 0 .48-.063.61-.191.117-.13.18-.383.18-.746zm.929 2.952v-2.952h1.097c.192 0 .34.007.446.031.14.02.27.074.363.137.098.066.172.16.234.289a.808.808 0 0 1 .086.406.905.905 0 0 1-.234.636c-.16.172-.438.258-.852.258h-.746v1.195zM18.397 22h.757c.243 0 .426-.043.532-.14a.498.498 0 0 0 .16-.395.56.56 0 0 0-.094-.32c-.066-.083-.14-.149-.246-.169-.066-.023-.184-.023-.363-.023h-.746V22z" fill="#878787" style="stroke-width:1.4"/><path fill-rule="evenodd" clip-rule="evenodd" d="M21.127 20.601c.094 0 .18.024.265.075.086.043.16.117.203.203a.547.547 0 0 1 0 .554.534.534 0 0 1-.203.203.51.51 0 0 1-.277.075.52.52 0 0 1-.277-.075.534.534 0 0 1-.203-.203.625.625 0 0 1-.075-.277c0-.094.02-.191.075-.277a.534.534 0 0 1 .203-.203.675.675 0 0 1 .289-.075zm0 .086a.483.483 0 0 0-.227.063.444.444 0 0 0-.168.172.435.435 0 0 0 0 .46c.04.075.094.126.168.169a.446.446 0 0 0 .227.066.423.423 0 0 0 .222-.067.443.443 0 0 0 .172-.167.509.509 0 0 0 .063-.227.526.526 0 0 0-.063-.234.454.454 0 0 0-.172-.172.48.48 0 0 0-.222-.063zm-.238.77v-.598h.203c.074 0 .117.012.152.02.031.012.05.031.074.055.02.019.031.054.031.085a.162.162 0 0 1-.043.118.177.177 0 0 1-.128.05.22.22 0 0 1 .054.035.61.61 0 0 1 .086.118l.074.117h-.117l-.054-.098a.744.744 0 0 0-.094-.137c-.024-.011-.043-.023-.078-.023h-.051v.258zm.097-.344h.117a.261.261 0 0 0 .118-.02c.023-.023.03-.042.03-.066 0-.02 0-.031-.007-.039a.205.205 0 0 0-.043-.035c-.023-.008-.055-.008-.098-.008h-.105v.168z" fill="#868686" style="stroke-width:1.4"/></svg>