<svg width="40" height="40" fill="none" xmlns="http://www.w3.org/2000/svg"><path d="M34 15.042c0-1.064-.895-1.953-2-1.953h-2.078c-.085 0-.17.04-.255.085l-4.21 3.951c-1.398 1.36-3.353 2.078-5.477 2.078-2.215 0-4.209-.804-5.653-2.247 0 0-3.059-2.893-3.104-2.933a3.401 3.401 0 0 0-2.334-.934h-2.51a.38.38 0 0 0-.379.38v11.044c0 1.104.89 1.953 1.954 1.953H9.27c.215 0 .385-.17.385-.385v-3.906c0-1.058.85-1.908 1.824-1.908 1.914 0 3.228 1.614 4.463 2.718 1.484 1.313 2.634 2.587 4.04 2.587 1.444 0 2.588-1.274 4.078-2.587 1.229-1.104 2.549-2.718 4.418-2.718 1.02 0 1.87.85 1.87 1.869v2.377c0 1.104.889 1.953 1.954 1.953h1.314c.215 0 .385-.17.385-.385z" fill="#fcfbff" style="stroke-width:1.4"/></svg>