<svg width="40" height="40" fill="none" xmlns="http://www.w3.org/2000/svg"><mask id="a" mask-type="alpha" maskUnits="userSpaceOnUse" x="10" y="16" width="20" height="8"><path fill="#fff" d="M10 17h20v6.787H10z"/></mask><g mask="url(#a)" transform="matrix(1.4 0 0 1.4 -7.998 -8.157)"><path fill-rule="evenodd" clip-rule="evenodd" d="M10 22.238v-4.224h.827v4.224zm3.578 0H11.81v-4.224h1.699c.827 0 1.308.466 1.308 1.188a.98.98 0 0 1-.519.872c.256.12.579.383.579.947-.008.797-.549 1.217-1.3 1.217zm-.136-3.487h-.804v.97h.804c.354 0 .549-.196.549-.489s-.195-.48-.549-.48zm.053 1.714h-.857v1.037h.857c.376 0 .549-.24.549-.519.007-.285-.173-.518-.55-.518zm3.713 1.811c-.864 0-1.556-.586-1.556-1.48v-2.782h.827v2.751c0 .489.285.774.729.774.443 0 .736-.293.736-.774v-2.75h.82v2.78c-.008.895-.692 1.481-1.556 1.481zm5.81-.79v-3.02h.3v.916h.647v.226h-.647v1.894c0 .3.136.473.436.473h.21v.271h-.262c-.444-.008-.684-.323-.684-.76zm2.908.512c.339 0 .549-.098.79-.346l.225.18c-.293.294-.556.437-1.03.437-.789 0-1.217-.512-1.217-1.466 0-.925.428-1.466 1.142-1.466s1.143.519 1.143 1.39v.136h-1.985c0 .737.323 1.135.932 1.135zm.654-1.91a.782.782 0 0 0-.744-.48.79.79 0 0 0-.744.48c-.068.181-.083.264-.098.542h1.684c-.015-.278-.023-.368-.098-.541zm2.473 2.18c-.782 0-1.255-.556-1.255-1.465 0-.91.473-1.466 1.255-1.466.39 0 .639.098.94.436l-.211.188c-.24-.27-.436-.36-.737-.36-.323 0-.586.127-.759.383-.142.21-.195.436-.195.819 0 .383.053.609.195.82.173.255.436.382.76.382.3 0 .495-.097.736-.36l.21.188c-.3.338-.548.436-.939.436zM21.041 17h-.3v6.787h.3z" fill="#fff"/></g></svg>