<svg width="40" height="40" fill="none" xmlns="http://www.w3.org/2000/svg"><path fill-rule="evenodd" clip-rule="evenodd" d="M25.024 20.425c.168-.03.271-.048.361-.078a.641.641 0 0 0 .21-.103.601.601 0 0 0 .156-.193.77.77 0 0 0 .073-.352c0-.452-.22-.76-1.117-.76h-2.278v2.109h.58v-.602h1.216c.177 0 .241.035.507.232.164.12.327.245.494.37h.65c-.284-.224-.568-.43-.852-.623zm-.872-.275H23.01v-.877h1.59c.623 0 .645.25.645.443.004.253-.103.434-1.092.434zM11.227 19.686c0 .305 0 .498.034.644.03.142.09.224.194.28.099.055.24.081.404.098.159.017.365.026.55.026.184 0 .39-.009.55-.026.167-.017.305-.047.403-.099a.383.383 0 0 0 .194-.279c.034-.146.034-.34.034-.644v-.748h.58v.748c0 1.108 0 1.396-1.761 1.396-1.762 0-1.762-.288-1.762-1.396v-.748h.58v.748zM18.249 19.286h-1.474v1.762h-.58v-1.762H14.72v-.348h3.523c.005.116.005.232.005.348zM20.181 18.938h-.464l-1.723 2.11h.58c.155-.194.314-.383.469-.576h1.813c.154.193.313.382.468.576h.58l-1.723-2.11zm-.893 1.238c.223-.271.442-.542.666-.812.223.27.442.54.666.812h-1.332zM26.605 18.938v2.11h3.248V20.7h-2.668v-.576h2.084v-.266h-2.084v-.576h2.668v-.348c-1.083.004-2.165.004-3.248.004zM32.367 19.827c-.326-.02-.55-.038-.73-.055a1.397 1.397 0 0 1-.361-.07c-.073-.025-.112-.06-.13-.094a.181.181 0 0 1-.016-.103c0-.034.004-.077.034-.111a.272.272 0 0 1 .155-.09c.081-.022.193-.04.348-.048.163-.009.352-.009.606-.009.232 0 .408 0 .562.01.155.008.267.02.353.046a.393.393 0 0 1 .172.09.222.222 0 0 1 .055.104h.52a.468.468 0 0 0-.073-.24.592.592 0 0 0-.27-.22c-.13-.06-.297-.095-.52-.116-.228-.017-.481-.017-.808-.017-.326 0-.58 0-.808.021-.219.017-.386.056-.515.112a.572.572 0 0 0-.267.215.557.557 0 0 0-.017.52c.043.077.12.133.258.18.142.047.34.086.602.116.266.03.562.047.872.069.537.034.795.077.932.133.069.03.103.06.125.099a.211.211 0 0 1 .025.116c0 .039-.004.082-.034.116a.329.329 0 0 1-.168.094c-.09.026-.21.04-.378.048-.172.008-.365.008-.618.008-.232 0-.409 0-.563-.008a1.938 1.938 0 0 1-.353-.043.352.352 0 0 1-.171-.086.211.211 0 0 1-.056-.1h-.533c0 .07.022.156.073.237a.615.615 0 0 0 .27.215c.13.056.297.095.52.112.228.021.482.021.808.021.348 0 .619 0 .855-.021.232-.017.404-.056.537-.112a.605.605 0 0 0 .275-.215.43.43 0 0 0 .073-.24c0-.078 0-.164-.038-.25a.446.446 0 0 0-.232-.219 1.746 1.746 0 0 0-.529-.137c-.245-.039-.511-.056-.842-.078zM9.951 18.938v2.11h-.58v-1.504l-1.396 1.435c-.464-.481-.932-.958-1.396-1.435v1.504h-.58v-2.11h.58l1.396 1.435c.468-.477.932-.958 1.4-1.435h.576z" fill="#fff" style="stroke-width:1.4"/></svg>