<svg width="40" height="40" fill="none" xmlns="http://www.w3.org/2000/svg"><g clip-path="url(#a)" transform="matrix(1.4 0 0 1.4 -8 -7.812)"><g clip-path="url(#b)"><path d="M10.436 15.056v-2.017h8.855c0 .601.012 1.208-.011 1.812-.004.11-.136.23-.235.317-.958.85-1.922 1.694-2.883 2.539-.09.079-.174.164-.278.263 2.004.377 2.683.832 3.52 2.37.13-.175.251-.332.369-.492 1.61-2.185 3.221-4.366 4.82-6.558.16-.218.321-.297.586-.292.875.017 1.75.007 2.673.007v7.854h2.15v2.1h-2.128v2.797h-2.321v-2.762c-.164-.01-.295-.023-.428-.023-1.74-.002-3.48.003-5.223-.005-.253-.002-.386.06-.49.318-.717 1.794-2.161 2.573-3.992 2.742-1.325.124-2.586-.09-3.684-.907-1.013-.75-1.597-1.754-1.736-3.08l2.282-.457c.059.693.284 1.25.716 1.712.668.711 1.518.84 2.42.696.862-.137 1.484-.624 1.764-1.465a2.069 2.069 0 0 0-1.861-2.74c-.424-.022-.854.082-1.281.102-.121.005-.299-.044-.358-.131-.327-.483-.623-.986-.955-1.523 1.16-1.04 2.314-2.074 3.548-3.177h-5.839zm15.1.468-.074-.04c-1.3 1.772-2.602 3.544-3.94 5.364h4.014v-5.324z" fill="#fff"/></g></g><defs><clipPath id="a"><path fill="#fff" d="M0 0h40v40H0z"/></clipPath><clipPath id="b"><path fill="#fff" transform="translate(10 13)" d="M0 0h20v13.059H0z"/></clipPath></defs></svg>