<svg width="40" height="40" fill="none" xmlns="http://www.w3.org/2000/svg"><g clip-path="url(#a)" transform="matrix(1.4 0 0 1.4 -8 -7.852)"><g clip-path="url(#b)" fill="#fff"><path d="M22.594 21.254c-.19.001-.38-.003-.57.005-.1.005-.13-.028-.129-.126.003-.445 0-.89 0-1.335 0-.536.004-1.07-.001-1.606-.001-.127.024-.19.17-.176.198.018.432-.066.587.03.146.092.21.314.313.478.164.265.33.528.492.794.06.097.101.095.16 0 .242-.395.489-.786.728-1.182.051-.084.103-.13.21-.12.14.011.284.003.426.003.195 0 .195 0 .196.201v1.08c0 .606-.003 1.212.002 1.818.001.114-.035.146-.145.141-.194-.01-.39-.005-.584-.007-.048-.046-.03-.107-.03-.161-.002-.468 0-.937 0-1.405l-.001-.099c-.001-.028.001-.06-.03-.073-.04-.015-.064.017-.08.043a5.78 5.78 0 0 0-.172.278c-.15.257-.318.502-.468.76-.108.183-.15.184-.26.007-.211-.342-.422-.684-.635-1.024-.021-.036-.031-.094-.08-.085-.064.012-.04.076-.04.12v1.446c0 .071.008.145-.059.195zM20.01 18.02c.105 0 .21.01.314-.003.132-.016.176.05.214.162.186.554.381 1.107.57 1.66.15.433.292.868.442 1.3.035.101.006.122-.09.12-.203-.005-.408-.002-.612-.001-.061 0-.094-.01-.116-.084-.16-.514-.328-1.026-.494-1.538l-.173-.54c-.011-.035-.015-.08-.065-.08-.05.002-.051.049-.062.084-.224.696-.45 1.393-.67 2.09-.017.053-.04.067-.088.067-.223 0-.446-.002-.67 0-.095.002-.08-.045-.059-.107l.38-1.112c.211-.617.427-1.231.632-1.85.041-.123.091-.19.235-.171.102.014.208.003.313.003zM14.266 21.252c-.21.001-.418 0-.626.008-.09.003-.114-.027-.112-.114.005-.212-.013-.426.005-.637.029-.334-.06-.622-.234-.908-.286-.472-.54-.963-.807-1.446-.062-.113-.05-.134.08-.135.21 0 .418.002.627 0 .062-.001.098.015.128.078.16.336.327.67.493 1.003.019.036.05.089.079.091.05.004.068-.057.088-.097.163-.33.326-.658.485-.99.031-.067.071-.087.141-.086.237.004.474.003.712.003.04.044.02.088-.003.13-.274.487-.54.98-.814 1.47-.062.11-.116.226-.188.33-.034.05-.031.108-.031.165 0 .335.001.67-.001 1.005 0 .043.025.094-.022.13zM26.522 19.642c0 .496-.002.993.003 1.49 0 .097-.026.132-.127.128a7.755 7.755 0 0 0-.526 0c-.082.001-.116-.02-.116-.11.002-1.003.003-2.005 0-3.007 0-.104.04-.128.134-.124.166.006.332.008.498 0 .106-.006.138.028.137.134-.005.496-.003.992-.003 1.489z"/><path d="M22.594 21.254c.049-.224.021-.452.024-.679.005-.33 0-.662.002-.993 0-.048-.024-.117.042-.137.073-.022.095.052.123.096.217.349.428.7.645 1.05.097.155.115.154.213-.004.209-.337.414-.675.622-1.013a.496.496 0 0 1 .077-.101c.05-.047.089-.025.102.034.009.041.005.085.005.127l.001 1.619c-.101-.009-.05-.089-.051-.131-.005-.469-.003-.937-.003-1.405v-.193c-.133.1-.177.232-.249.342-.16.25-.311.506-.47.758-.111.178-.171.18-.281.004-.23-.367-.456-.737-.692-1.118-.044.064-.03.122-.03.174-.002.483 0 .966-.003 1.448 0 .05.038.139-.077.122zM10.712 21.255c.05-.263.016-.528.022-.792.007-.247.01-.254.258-.256.231-.001.463.013.686-.079.307-.125.526-.333.628-.647.217-.662-.207-1.262-.8-1.386-.043-.01-.098-.01-.11-.071.378.04.673.228.86.547.327.556.147 1.205-.407 1.532a1.227 1.227 0 0 1-.581.162 3.129 3.129 0 0 1-.327.001c-.11-.007-.153.029-.15.144.008.245.003.491.002.736-.001.054.017.125-.08.109zM18.148 21.253c-.061-.212-.205-.38-.306-.57a8.108 8.108 0 0 0-.286-.487c-.058-.093-.041-.16.049-.213.507-.304.604-.964.308-1.43a1.041 1.041 0 0 0-.629-.454c-.059-.015-.124-.016-.161-.076.393.036.687.242.87.575.286.52.15 1.065-.339 1.409-.13.092-.058.164-.012.242.176.306.357.61.536.913.026.045.056.087-.03.091zM14.266 21.252c-.001-.383-.003-.765-.001-1.147.001-.196.14-.335.224-.494.263-.494.54-.98.814-1.468a.172.172 0 0 0 .023-.12c.1-.004.052.056.035.092a6.002 6.002 0 0 1-.174.338c-.275.494-.551.987-.828 1.48a.422.422 0 0 0-.053.218c.002.322.002.644 0 .965-.002.046.028.106-.04.136zM29.999 19.358c-.125-.061-.086-.198-.126-.295-.217-.53-.592-.855-1.154-.969-.05-.01-.119 0-.142-.07a1.51 1.51 0 0 1 1.054.54c.199.226.33.49.368.794zM28.662 21.253c.08-.117.22-.083.33-.13.418-.179.707-.468.878-.89.042-.103.014-.24.13-.313-.034.304-.172.562-.36.797-.224.282-.535.426-.866.534-.033.01-.074.002-.112.002z"/><path d="M29.999 19.358c-.036-.053-.041-.116-.059-.174a1.561 1.561 0 0 0-.667-.898c-.215-.138-.454-.203-.696-.262-.451-.001-.902.001-1.353-.006-.11-.002-.11.057-.109.132v2.995c0 .083.02.116.11.115.48-.006.959-.005 1.438-.007.02-.014.042-.02.066-.025.392-.095.725-.284.967-.614.154-.209.222-.454.305-.694a58.696 58.696 0 0 1-.002-.562zm-1.141 1.068a.71.71 0 0 1-.351.103c-.176 0-.352-.002-.527.003-.087.002-.117-.032-.116-.117.002-.26 0-.52 0-.78 0-.251.003-.502-.001-.753-.002-.095.028-.139.13-.132.222.016.446-.026.666.032.302.08.502.272.578.568.105.41.019.856-.38 1.076zM12.015 18.32c-.18-.159-.401-.223-.62-.296-.432-.001-.863-.002-1.294-.005-.067 0-.101.008-.1.09.002 1.02.002 2.04-.001 3.06 0 .084.035.09.101.09.204-.004.407-.004.611-.004.065-.039.058-.102.058-.164v-.652c0-.2.005-.203.21-.204h.214a1.19 1.19 0 0 0 .812-.275 1.078 1.078 0 0 0 .01-1.64zm-.753 1.219c-.061.003-.123 0-.185 0-.339-.003-.3.053-.304-.298 0-.128.002-.256 0-.384 0-.08.025-.126.114-.124.133.004.266-.004.398.005.208.015.359.191.357.405a.386.386 0 0 1-.38.396zM18.075 21.027c-.164-.253-.303-.521-.465-.776-.101-.16-.093-.17.065-.282.502-.355.554-1.062.201-1.506-.195-.245-.459-.367-.753-.44-.436-.001-.873 0-1.31-.005-.097-.002-.132.026-.132.126.003 1.003.003 2.007 0 3.01 0 .081.028.107.107.105.18-.004.36-.005.541 0 .092.003.123-.027.121-.12-.005-.265-.002-.53 0-.795 0-.05-.014-.108.048-.137.113-.055.299.01.364.122.164.287.331.572.495.859.028.05.06.073.122.072.223-.005.446-.005.669-.006.037-.096-.03-.16-.073-.227zm-.748-1.765c-.042.164-.179.262-.37.265-.124.002-.247-.004-.37.002-.095.005-.126-.036-.121-.125.004-.09 0-.179 0-.268 0-.387 0-.388.383-.385.098 0 .198-.019.291.035.164.094.237.277.187.476z"/></g></g><defs><clipPath id="a"><path fill="#fff" d="M0 0h40v40H0z"/></clipPath><clipPath id="b"><path fill="#fff" transform="translate(10 18)" d="M0 0h20v3.26H0z"/></clipPath></defs></svg>