<svg width="40" height="40" fill="none" xmlns="http://www.w3.org/2000/svg"><g clip-path="url(#a)" transform="matrix(1.4 0 0 1.4 -8 -7.993)"><mask id="b" mask-type="alpha" maskUnits="userSpaceOnUse" x="10" y="17" width="20" height="6"><path fill="#fff" d="M10 17.276h20v5.448H10z"/></mask><g mask="url(#b)" fill-rule="evenodd" clip-rule="evenodd"><path d="M10 17.282c.361.005.726-.028 1.085.023.076.233.043.484.047.725-.004 1.552.001 3.104-.002 4.657H10v-5.405zM15.853 17.317c.575.01 1.152-.031 1.725.031.517.055.962.393 1.254.81.552.82.328 2.076-.52 2.61-.385.28-.868.335-1.328.349l-.001 1.57h-1.132c.006-1.79-.003-3.58.002-5.37zm1.131 1.115c-.001.522-.002 1.042 0 1.564.258-.031.545-.035.752-.214.363-.286.35-.922-.026-1.19-.21-.155-.48-.136-.726-.16zM19.851 17.317h1.126c.002.691 0 1.383.001 2.075h1.44l.001-2.076h1.07c.003 1.79 0 3.58 0 5.37H22.42c-.003-.723 0-1.447-.002-2.172l-1.44.001v2.171H19.85c.002-1.79.003-3.58 0-5.369zM13.886 18.732l.45-.001c-.004 1.318.002 2.636.001 3.954-.381.003-.762.002-1.143.001-.002-.885.003-1.77-.005-2.657.003-.148-.005-.308.088-.433.193-.295.412-.572.61-.864zM28.05 19.243h.178v1.385l-.178-.001zM29.18 19.245l.18-.002-.006.47c.183-.047.44-.157.577.038.112.277.048.588.058.88-.044-.002-.133-.003-.177-.004 0-.264.023-.53-.03-.79-.132-.121-.289-.007-.427.031.004.254.005.508.004.762l-.18-.004a302.9 302.9 0 0 1 0-1.381zM24.53 19.316h.185v.563h.694c.003-.188 0-.376.003-.563h.183v1.31l-.184.002c-.002-.202 0-.403 0-.605h-.694c-.002.201 0 .403-.002.605h-.183c-.003-.438-.002-.875-.001-1.312zM28.59 19.416h.174c0 .058.003.173.004.23l.19.01.003.122-.196.009c.001.228.002.456.007.683l.25.075c-.105.097-.29.15-.39.016-.078-.25-.037-.516-.042-.773l-.19-.012v-.118l.188-.013.002-.23zM26.113 20.599c-.432-.2-.281-1.002.222-.966.308-.018.398.31.435.552-.257.003-.514.003-.77.014.074.096.119.23.232.288.185.017.366-.044.549-.064-.171.175-.43.3-.668.176zm-.109-.558c.201.006.403.006.604 0-.088-.09-.127-.27-.278-.268-.166-.017-.234.167-.326.268ZM27.25 19.643c.168-.033.407.002.465.19.05.259.028.524.042.786-.21 0-.427.026-.636-.005-.217-.048-.262-.374-.077-.49.175-.097.386-.087.577-.129-.078-.073-.117-.225-.245-.22-.165.037-.32.108-.477.168.096-.117.182-.283.35-.3zm-.142.623c-.05.177.15.282.298.215.158-.037.145-.225.199-.343-.165.032-.368 0-.497.128zM24.571 21.58c.144-.257.503-.317.752-.188.158.083.192.276.258.424-.239-.09-.386-.45-.679-.32-.276.123-.254.492-.214.741a.35.35 0 0 0 .47.277c.135-.115.27-.23.42-.324-.058.133-.088.292-.205.388-.262.185-.702.115-.829-.202-.092-.252-.098-.553.027-.796zM25.73 21.98c.12-.32.61-.453.808-.144.059.274.034.557.054.836l-.224-.051c-.17.024-.374.105-.518-.03-.142-.113-.117-.361.041-.447.173-.085.372-.077.557-.109-.073-.081-.113-.234-.247-.229-.16.05-.317.106-.47.174zm.228.3c-.092.15.089.296.236.243.185-.012.194-.218.24-.354-.157.029-.346 0-.476.11zM26.866 21.668l.21.057c.093-.026.188-.05.283-.073l.01.13c-.103.042-.21.077-.305.14-.04.243-.02.491-.021.736h-.177v-.99zM27.616 21.797c.157-.172.464-.183.625-.01.087.124.101.282.147.424-.259.008-.518.008-.778.018.08.097.126.235.245.292.178.002.357-.041.533-.073-.14.14-.322.278-.534.22-.4-.049-.49-.61-.238-.87zm.003.274c.201.008.402.006.604 0-.09-.1-.138-.284-.302-.268-.15.006-.211.173-.302.268z" fill="#a9a9a9"/><path d="M12.155 18.883c.374-.535.747-1.071 1.124-1.604.613.005 1.224.001 1.837.002-.258.378-.522.752-.78 1.13h-.607c-.52.732-1.038 1.466-1.56 2.198-.229-.343-.494-.664-.703-1.019-.038-.572-.005-1.148-.015-1.722.236.337.469.677.704 1.015z" fill="#e9550c"/></g></g><defs><clipPath id="a"><path fill="#fff" d="M0 0h40v40H0z"/></clipPath></defs></svg>