<svg width="40" height="40" fill="none" xmlns="http://www.w3.org/2000/svg"><mask id="a" mask-type="alpha" maskUnits="userSpaceOnUse" x="10" y="10" width="19" height="20"><path fill-rule="evenodd" clip-rule="evenodd" d="M10 10.953h18.76v18.76H10v-18.76Z" fill="#fff"/></mask><g mask="url(#a)" transform="matrix(1.4 0 0 1.4 -7.752 -8.133)"><path fill-rule="evenodd" clip-rule="evenodd" d="M11.197 20.333a8.183 8.183 0 1 1 16.367-.001 8.183 8.183 0 0 1-16.367 0c0 4.52 0 0 0 0zm-1.197 0a9.381 9.381 0 1 1 18.76 0 9.381 9.381 0 0 1-18.76 0c0 5.18 0 0 0 0z" fill="#fff"/></g><path fill-rule="evenodd" clip-rule="evenodd" d="M29.702 17.27c.472.236.142.472 0 .71-2.032.046-3.922-.19-5.67.188l.473.378c1.605 0 3.308-.613 4.772.095-1.655.756-4.11-.143-5.576.803 1.417.33 3.167-.188 4.677 0 .096.237-.188.425-.377.425-1.701.379-3.45-.283-4.963.568h4.396c.236.425-.52.661-.898.708-.944-.472-2.079-.095-3.071.095-.993.378-2.08.614-3.025 1.134 1.56 1.464 3.922 2.363 6.237 2.268l.19.236-.19.236c.143.048.096.19.096.331-1.465.473-2.977-.33-4.443-.661-4.961-1.275-8.932-4.395-13.704-6.143v-.567c.662-.237 1.702.33 2.27-.332l5.008 1.796.094.33c-.85.237-1.748-.376-2.504-.33 1.275.994 3.307 1.466 4.867.899 1.89-.141 2.173-2.647 3.78-3.025 2.364-.378 5.104-.283 7.561-.142-2.457-.141 0 0 0 0z" fill="#fff" style="stroke-width:1.4"/></svg>