<svg width="40" height="40" fill="none" xmlns="http://www.w3.org/2000/svg"><g clip-path="url(#a)" transform="matrix(1.4 0 0 1.4 -8 -8)"><path fill-rule="evenodd" clip-rule="evenodd" d="M20.464 15.438c-.076.047-2.561 2.552-2.618 2.609L10 25.9v.01c.088.052.327.316.417.406l1.225 1.226c.108.106 1.58 1.56 1.63 1.642h.012c.242-.257.504-.504.757-.76l9.855-9.86c.257-.259.501-.503.76-.76.129-.13.656-.672.753-.746v12.126H30V10.817H11.647l.004 4.582h8.838c-.003.07.006.017-.025.039z" fill="#fe0000"/><path fill-rule="evenodd" clip-rule="evenodd" d="M20.933 29.184h.375c.01-.004.407-.048.621-.105a2.988 2.988 0 0 0 1.532-1.017 2.922 2.922 0 0 0 .635-1.897 2.953 2.953 0 0 0-2.913-2.885 2.952 2.952 0 0 0-2.983 2.836c-.032.897.341 1.668.784 2.118.127.129.226.23.382.35.732.57 1.443.55 1.567.6z" fill="#fe0000"/><path fill-rule="evenodd" clip-rule="evenodd" d="M20.464 15.438c.03-.022.022.031.025-.04h-8.838l-.004-4.581h-.016v3.45c0 .235-.03.964.009 1.142l8.694.006c.157-.002.113.003.13.023z" fill="#910000"/><circle cx="21.172" cy="26.204" fill="#fe0000" r="2.924"/></g><defs><clipPath id="a"><path fill="#fff" d="M0 0h40v40H0z"/></clipPath></defs></svg>