<svg width="40" height="40" fill="none" xmlns="http://www.w3.org/2000/svg"><g clip-path="url(#a)" transform="matrix(1.4 0 0 1.4 -8 -8.143)"><g clip-path="url(#b)" fill="#e47d3a"><path d="M20.363 23.694v.015H10.076c-.025 0-.058.019-.077-.016a.125.125 0 0 1 .03-.018c.04-.014.083-.01.126-.01h10.053c.052 0 .109-.013.154.03zM28.936 23.69l.002.02H27.73l.003-.022c.035-.027.075-.022.114-.022h.976c.039 0 .08-.005.113.023zM10 17.004l.018.001c.027.03.026.067.026.104v.758c0 .036.002.074-.025.104H10v-.967z"/><path d="m10.02 23.69-.02.002v-.967l.019.001c.027.03.025.067.025.104v.757c0 .036.002.074-.024.104zM24.782 22.026c-.02.026-.04.054-.063.078-.498.51-.997 1.02-1.494 1.532a.176.176 0 0 1-.14.06c-.47-.002-.94-.001-1.414-.001.004-.04.035-.054.055-.075.68-.698 1.36-1.395 2.043-2.09.05-.053.053-.078 0-.132-.688-.701-1.373-1.405-2.06-2.108l-.04-.043c.022-.028.049-.015.071-.015.448-.001.896 0 1.344-.002.06 0 .099.018.14.06.502.518 1.007 1.034 1.511 1.551.018.018.033.039.068.052v-.086c0-.498.002-.996-.001-1.494 0-.067.018-.084.084-.084.349.004.698.003 1.046 0 .06 0 .077.017.077.077-.002 1.44-.002 2.879 0 4.319 0 .055-.016.071-.072.07a63.877 63.877 0 0 0-1.063.001c-.064 0-.072-.022-.072-.078.002-.511.001-1.023.001-1.535v-.042l-.021-.015z"/><path d="M19.39 19.813v1.213c0 .127-.002.254 0 .381.001.044-.012.06-.057.06-.366-.002-.732-.002-1.098 0-.043 0-.055-.017-.05-.055v-.043c0-1.423 0-2.846-.003-4.269 0-.083.022-.1.102-.1.335.005.67.005 1.004 0 .08 0 .104.015.104.1-.005.49-.003.979-.002 1.468 0 .03-.008.061.019.113.023-.033.037-.06.058-.082.498-.511.997-1.022 1.494-1.534a.194.194 0 0 1 .155-.064c.436.002.873.001 1.31.001h.108l-.073.078c-.68.697-1.36 1.395-2.042 2.091-.047.049-.052.071-.002.123.687.699 1.371 1.401 2.055 2.103.017.017.041.03.047.059-.022.02-.049.01-.073.01-.448 0-.896-.001-1.344.001a.167.167 0 0 1-.132-.058l-1.5-1.54c-.021-.021-.037-.049-.055-.073l-.025.017zM10.02 23.69l-.001-.964.093-.002H21.313l-.95.97-.11-.002H10.13l-.11-.001zM28.936 23.69c-.4.003-.802.007-1.203-.003 0-1.128 0-2.256.002-3.384 0-.065-.018-.08-.08-.08-.295.004-.59 0-.885.004-.064 0-.08-.018-.079-.08.004-.28.003-.56 0-.84 0-.057.012-.077.074-.077h3.163c.058 0 .071.018.07.072a46.12 46.12 0 0 0 .001.848c0 .06-.016.077-.076.077-.3-.003-.6 0-.9-.004-.074 0-.088.021-.088.09.002 1.125.001 2.25.001 3.376zM10.019 17.97v-.965c.189 0 .379-.003.569-.003.878 0 1.757.001 2.636-.002.08 0 .096.024.095.099-.004.268-.004.537 0 .806 0 .056-.017.07-.072.07-.297-.003-.595.002-.892-.004-.084-.002-.103.022-.103.102.003.973.002 1.945.002 2.918 0 .136-.002.272 0 .407.002.05-.012.07-.066.069a65.997 65.997 0 0 0-1.071 0c-.068.001-.064-.033-.064-.078v-1.434c0-.633 0-1.266.002-1.9 0-.068-.018-.084-.084-.083-.318.002-.635 0-.952-.001zM22.884 17.968l.916-.94c.028-.03.06-.026.093-.026h.672c1.778 0 3.556 0 5.333-.002.084 0 .103.02.102.102-.006.269-.004.537-.001.806 0 .053-.015.067-.067.066l-7.009-.001c-.008 0-.016-.002-.039-.005zM17.864 21.39c-.574-1.44-1.15-2.882-1.723-4.324-.02-.05-.047-.066-.1-.065-.4.002-.8.003-1.199 0-.066-.001-.09.022-.114.08-.513 1.287-1.028 2.573-1.542 3.86l-.208.524c.396 0 .781 0 1.166.002.051 0 .06-.032.073-.066.094-.244.19-.489.282-.735.02-.05.044-.066.098-.066.536.002 1.072.002 1.608 0 .053 0 .077.015.097.067.09.246.188.49.282.735.013.034.021.065.072.065.409-.002.817-.001 1.235-.001-.011-.034-.018-.055-.027-.076zm-1.95-1.692H14.89c-.012-.03.006-.052.015-.074.151-.392.303-.783.456-1.175.009-.022.008-.059.036-.061.038-.004.035.039.044.062l.454 1.167c.01.025.027.05.02.081z"/></g></g><defs><clipPath id="a"><path fill="#fff" d="M0 0h40v40H0z"/></clipPath><clipPath id="b"><path fill="#fff" transform="translate(10 17)" d="M0 0h20v6.714H0z"/></clipPath></defs></svg>