<svg width="40" height="40" fill="none" xmlns="http://www.w3.org/2000/svg"><g clip-path="url(#a)" transform="matrix(1.4 0 0 1.4 -8 -8)" fill-rule="evenodd" clip-rule="evenodd"><path d="M25.895 19.174c-.597 0-1.037.435-1.037 1.034 0 .607.44 1.058 1.037 1.058.572 0 1.012-.45 1.012-1.058 0-.599-.44-1.034-1.012-1.034zm-9.78 0c-.597 0-1.037.435-1.037 1.034 0 .607.44 1.058 1.036 1.058.572 0 1.012-.45 1.012-1.058 0-.599-.44-1.034-1.012-1.034zm4.707 1.022c0-.624-.354-1.022-.917-1.022-.53 0-.983.41-.983 1.038 0 .657.411 1.055.987 1.055.535 0 .806-.288.86-.62h-.522c-.046.123-.182.18-.338.18-.226 0-.42-.16-.444-.467h1.345s.012-.086.012-.164zm3.078-.981h.518v.3a.497.497 0 0 1 .498-.324.49.49 0 0 1 .168.024 1.61 1.61 0 0 0-.333.533h-.02c-.178 0-.289.16-.289.407v.475c0 .357-.103.587-.543.6v-2.015zm-8.906 1.358c-.086.414-.424.694-.91.694-.645 0-.999-.411-.999-1.059 0-.6.449-1.034 1.02-1.034.506 0 .815.32.88.628l-.46.172c-.045-.168-.156-.332-.411-.332-.272 0-.474.21-.474.566 0 .381.198.59.494.59a.4.4 0 0 0 .375-.225zm1.12.226c-.275 0-.518-.197-.518-.591 0-.37.243-.583.518-.583.251 0 .498.214.498.583 0 .394-.247.59-.498.59zm1.865.468c-.185 0-.275-.111-.34-.296l-.606-1.756h.568l.448 1.444.424-1.444h.523l-.58 1.756c-.062.185-.153.295-.338.295zm1.494-1.28c.037-.238.198-.402.428-.402.263 0 .383.163.407.401zm3.11.644c0 .299-.255.635-.798.635-.445 0-.786-.197-.827-.62h.481c.041.14.16.222.346.222.181 0 .263-.094.263-.192 0-.103-.061-.173-.218-.206l-.283-.061c-.38-.082-.552-.238-.552-.595 0-.349.334-.64.765-.64.433 0 .729.193.798.55l-.464.119c-.013-.131-.103-.27-.334-.27-.144 0-.25.081-.25.192 0 .102.077.16.193.189l.296.07c.42.098.584.278.584.606zm.625-1.9h.083v.484h.436l-.148.468h-.288v.78c0 .245.106.356.378.324v.45c-.094.013-.16.021-.255.021-.387 0-.658-.2-.658-.706v-1.296c0-.32.148-.525.452-.525zm2.687 2.068c-.276 0-.518-.197-.518-.591 0-.37.242-.583.518-.583.25 0 .498.214.498.583 0 .394-.247.59-.498.59z" fill="#fff"/><path d="M19.995 10c1.572 0 3.059.363 4.382 1.01l-1.061 2.302a7.233 7.233 0 0 0-3.483-.897c-3.09 0-5.78 1.977-6.958 4.7l-.004.01-2.161-.833.007-.017A9.997 9.997 0 0 1 19.995 10Z" fill="url(#b)" style="fill:url(#b)"/><path d="M12.873 17.126a7.656 7.656 0 0 0-.629 3.028c0 4.165 3.838 7.848 7.997 7.932 1.308.026 2.561-.317 3.68-.92l.69 1.723a9.948 9.948 0 0 1-4.609 1.125C14.478 30.014 10 25.532 10 20.002c0-1.311.252-2.563.71-3.71z" fill="url(#c)" style="fill:url(#c)"/><path d="m23.92 27.157.036-.019c2.076-1.132 3.683-3.161 4.297-5.392l1.598.028a10.014 10.014 0 0 1-5.217 7.094l-.022.011z" fill="url(#d)" style="fill:url(#d)"/><path d="m24.39 11.01.044.023A10 10 0 0 1 29.96 21.04h-1.545l-.064.327-1.06.004c.064-.396.097-.803.097-1.217 0-2.893-1.637-5.503-4.036-6.826l-.027-.014z" fill="url(#e)" style="fill:url(#e)"/></g><defs><linearGradient id="b" x1="23.846" y1="12.161" x2="11.79" y2="16.707" gradientUnits="userSpaceOnUse"><stop stop-color="#E10A81"/><stop offset="1" stop-color="#EB5E4A"/></linearGradient><linearGradient id="c" x1="11.791" y1="16.709" x2="24.277" y2="28.015" gradientUnits="userSpaceOnUse"><stop stop-color="#EB5E4A"/><stop offset=".341" stop-color="#F8EA05"/><stop offset="1" stop-color="#009FDB"/></linearGradient><linearGradient id="d" x1="24.435" y1="28.439" x2="29.046" y2="21.756" gradientUnits="userSpaceOnUse"><stop stop-color="#009FDB"/><stop offset="1" stop-color="#FDFEFE"/></linearGradient><linearGradient id="e" x1="29.188" y1="21.04" x2="23.869" y2="12.155" gradientUnits="userSpaceOnUse"><stop stop-color="#745DA5"/><stop offset="1" stop-color="#E10A81"/></linearGradient><clipPath id="a"><path fill="#fff" transform="translate(10 10)" d="M0 0h20v20H0z"/></clipPath></defs></svg>