<svg width="40" height="40" fill="none" xmlns="http://www.w3.org/2000/svg"><mask id="a" mask-type="alpha" maskUnits="userSpaceOnUse" x="10" y="10" width="20" height="20"><path fill="#fff" d="M10 10.113h20v19.773H10z"/></mask><g mask="url(#a)" transform="matrix(1.4 0 0 1.4 -8 -8)"><path fill-rule="evenodd" clip-rule="evenodd" d="M10 10.113h20v19.773h-8.151c-.072-.04-.219-.147-.326-.225a47.467 47.467 0 0 1-.767-.569c-.327-.254-.485-.667-.533-1.1-.065-.583.065-1.197.246-1.516.158-.278 1.351-.354 2.254-.412.387-.025.722-.047.908-.081.309-.057.567-.176.758-.333a.984.984 0 0 0 .367-.6c.047-.301-.107-.437-.27-.579-.068-.06-.138-.121-.19-.197-.173-.25-.012-.374.152-.5.092-.07.185-.142.239-.237.164-.29-.042-.442-.23-.58-.063-.046-.123-.09-.16-.136-.012-.015-.023-.013-.02-.016.011-.01.04-.02.075-.031.116-.04.285-.099.351-.314.06-.194-.04-.315-.157-.454-.112-.133-.241-.287-.22-.552.016-.188.264-.216.541-.247.315-.035.663-.074.821-.347.247-.425-.604-1.322-1.295-2.05-.186-.196-.36-.38-.5-.539-.395-.454-.298-.655-.17-.92.073-.15.156-.32.177-.56.054-.585-.055-1.323-.392-2.03a4.1 4.1 0 0 0-1.326-1.587c-.735-.523-1.715-.796-2.765-.85a8.627 8.627 0 0 0-3.382.526 4.74 4.74 0 0 0-.392.167l-.031-.019-.024-.014-.01-.005-.022-.013-.011-.006-.02-.011-.015-.008-.02-.012-.015-.007-.018-.01-.017-.009-.02-.01-.01-.006-.025-.012-.033-.017h-.001l-.034-.017h-.002l-.032-.016h-.001l-.023-.011-.013-.006-.02-.009-.02-.01-.016-.006-.017-.008-.024-.01-.01-.005-.025-.01-.003-.001-.029-.012-.006-.003-.033-.014h-.002l-.036-.014-.024-.01-.014-.005-.019-.007-.019-.007-.019-.007-.024-.01-.01-.003-.026-.01-.018-.005-.02-.007-.018-.006-.03-.01-.007-.003-.033-.01-.007-.003h-.003l-.037-.012-.002-.001-.035-.01-.002-.001-.023-.007-.018-.006-.02-.005-.019-.006-.022-.006-.02-.006-.018-.005-.02-.005-.025-.007h-.003l-.03-.009h-.004l-.023-.006-.016-.005h-.003l-.039-.01h-.001l-.038-.01h-.002l-.02-.004-.023-.006h-.005l-.028-.007-.005-.001-.023-.005-.023-.005-.018-.004-.024-.005-.017-.003-.03-.006-.012-.003-.03-.005-.011-.003h-.004l-.04-.008h-.001l-.04-.007h-.005l-.01-.002-.034-.006h-.004l-.039-.007-.009-.001-.036-.006-.008-.001-.033-.005-.014-.002-.028-.004-.012-.002h-.01l-.036-.006h-.005l-.04-.005h-.001l-.04-.005-.006-.001-.036-.004-.01-.001-.013-.001-.027-.003-.016-.002-.029-.003-.02-.002-.02-.002-.023-.002-.029-.002-.013-.001-.038-.003h-.005l-.006-.001-.041-.003-.05-.003-.05-.003-.05-.003h-.001l-.05-.002-.05-.002h-.001l-.05-.002h-.05l-.002-.001H12.84l-.048-.001H12.584l-.048.001h-.004l-.047.002h-.004l-.047.001h-.005l-.046.002h-.005l-.046.002a6.74 6.74 0 0 0-.1.006H12.223l-.045.003-.048.003h-.004l-.153.013h-.001l-.154.015-.048.006h-.005a8.885 8.885 0 0 0-.1.012h-.002l-.04.006-.015.002-.15.021-.049.007h-.003l-.097.017h-.007l-.044.008-.007.002-.045.008H11.2a9.171 9.171 0 0 0-.25.05h-.006l-.047.01-.003.001-.048.01-.003.002-.05.01a8.438 8.438 0 0 0-.2.05h-.001a9.328 9.328 0 0 0-.248.067h-.002l-.098.029-.048.015h-.002l-.14.045-.051.016-.004.002v-2.645zm5.343 19.774H10v-17.01c.046-.019.11-.039.16-.055.99-.312 2.07-.45 3.076-.38.983.068 1.896.332 2.583.823.603.43 1.022.977 1.29 1.543.328.689.434 1.406.383 1.973-.02.22-.098.38-.167.522-.146.302-.257.532.187 1.042.136.156.312.342.5.54.667.701 1.487 1.566 1.282 1.92-.13.224-.449.26-.737.292-.326.036-.617.07-.64.349-.025.309.12.481.245.631.096.115.179.213.136.35-.05.162-.186.21-.28.242a.363.363 0 0 0-.11.05c-.052.043-.06.093.005.172.046.056.112.105.18.155.15.11.315.232.2.437-.043.075-.127.14-.21.204-.207.158-.41.314-.177.65.06.087.135.153.208.217.14.122.272.238.233.48a.874.874 0 0 1-.327.53 1.555 1.555 0 0 1-.708.31c-.178.033-.51.054-.893.079-.93.06-2.157.139-2.345.469-.19.335-.327.977-.26 1.582.052.46.222.9.576 1.176.128.1.283.215.455.343l.498.364zm6.302 0h-6.099a3.959 3.959 0 0 1-.226-.154 62.46 62.46 0 0 1-.409-.3 24.876 24.876 0 0 1-.453-.34c-.327-.255-.485-.668-.533-1.1-.066-.583.065-1.198.246-1.516.157-.278 1.352-.355 2.255-.413.387-.025.72-.047.906-.081.31-.057.567-.176.758-.333a.984.984 0 0 0 .367-.599c.047-.302-.107-.438-.27-.58a1.1 1.1 0 0 1-.19-.197c-.172-.25-.011-.373.153-.5a.86.86 0 0 0 .239-.237c.164-.29-.042-.442-.23-.58a.904.904 0 0 1-.16-.136c-.012-.014-.023-.013-.02-.016.011-.01.04-.02.074-.031.117-.04.285-.099.351-.314.06-.195-.04-.315-.157-.454-.112-.134-.24-.287-.22-.551.016-.189.264-.217.542-.248.315-.035.662-.074.82-.347.248-.426-.604-1.323-1.296-2.051-.185-.196-.36-.379-.498-.538-.396-.454-.298-.655-.17-.92.073-.15.155-.32.177-.56.053-.585-.055-1.323-.392-2.03a4.098 4.098 0 0 0-1.326-1.587l-.002-.001-.002-.001-.026-.019-.002-.001-.002-.001-.002-.002-.026-.018-.002-.001-.002-.001-.001-.001h-.001l-.002-.002-.002-.001-.002-.002-.012-.008-.002-.001-.002-.002-.004-.002-.002-.002-.002-.001-.004-.003-.002-.001-.002-.001-.002-.002-.002-.001-.003-.001-.002-.002-.01-.006-.002-.002-.002-.001c.104-.048.21-.092.32-.133a8.515 8.515 0 0 1 3.337-.52c1.03.054 1.99.32 2.705.83.604.431 1.022.978 1.29 1.544.329.689.435 1.405.383 1.973-.02.22-.098.38-.167.522-.146.302-.257.532.187 1.041.137.158.314.344.502.543.666.7 1.485 1.564 1.28 1.917-.13.225-.448.26-.737.293-.325.036-.617.07-.64.349-.025.31.12.482.246.631.096.115.178.214.136.35-.05.162-.186.21-.281.242-.045.016-.083.029-.11.05-.051.043-.06.093.005.172a.965.965 0 0 0 .18.155c.15.11.315.232.2.436h-.001c-.042.076-.126.14-.21.205-.205.158-.408.314-.175.65.059.087.134.153.208.217.139.122.271.238.233.48a.875.875 0 0 1-.327.53 1.557 1.557 0 0 1-.708.31c-.178.033-.51.054-.895.079-.929.06-2.156.139-2.343.468-.19.336-.328.978-.26 1.583.05.46.22.9.575 1.176.13.1.285.216.457.343.151.111.32.234.5.363z" fill="#005faa"/></g></svg>