<svg width="40" height="40" fill="none" xmlns="http://www.w3.org/2000/svg"><g clip-path="url(#a)" transform="matrix(1.4 0 0 1.4 -7.996 -7.996)"><mask id="b" mask-type="alpha" maskUnits="userSpaceOnUse" x="10" y="17" width="20" height="6"><path fill="#fff" d="M10 17.969h20v4.062H10z"/></mask><g mask="url(#b)" fill-rule="evenodd" clip-rule="evenodd"><path d="M12.477 18.744c.377-.49.99-.787 1.61-.775.61-.002 1.208.3 1.581.781.55.685.568 1.74.031 2.438-.37.503-.982.833-1.612.82a1.97 1.97 0 0 1-1.266-.428 2.07 2.07 0 0 1-.678-.965 1.99 1.99 0 0 1 .334-1.871zm1.498-.405c-.732.027-1.395.603-1.528 1.321-.098.451.01.94.283 1.31.299.417.803.68 1.317.679a1.651 1.651 0 0 0 1.656-1.92 1.632 1.632 0 0 0-.506-.949 1.644 1.644 0 0 0-1.222-.441z" fill="#0f63a8"/><path d="M12.652 19.39a1.538 1.538 0 0 1 2.708-.233c.233.361.313.822.192 1.235-.139.53-.584.967-1.118 1.092-.32.085-.666.05-.97-.08a1.58 1.58 0 0 1-.819-.827c.144.154.302.305.51.364.392.137.857-.008 1.105-.338a1.01 1.01 0 0 0-.06-1.294 1.004 1.004 0 0 0-1.116-.237c-.173.062-.3.198-.432.319z" fill="#0f63a8"/><path d="M11.894 18.75c.194-.008.388.006.583-.006a1.99 1.99 0 0 0-.334 1.87c-.075.191-.14.385-.213.576a89.085 89.085 0 0 0-1.072 0c-.29-.812-.566-1.63-.858-2.441.325-.001.65.002.975-.002.15.512.301 1.023.445 1.536.18-.503.298-1.03.474-1.532zM15.668 18.75c.465-.004.93 0 1.396-.001.237 0 .488.041.682.186.308.229.294.768-.03.978-.091.066-.204.09-.307.133.163.04.342.114.403.286.098.278.148.57.22.856-.314.002-.629 0-.944.001-.044-.206-.084-.414-.134-.62-.02-.085-.07-.177-.163-.198-.109-.018-.22-.01-.329-.012 0 .276-.001.553.001.83l-.764-.001c.536-.697.52-1.753-.031-2.437zm.786.562c-.001.16.001.32-.003.48.151-.003.307.02.455-.02.196-.05.208-.373.015-.435-.152-.042-.312-.02-.467-.025zM18.05 18.748h.854c.1.534.192 1.07.293 1.604.149-.531.256-1.073.4-1.605.291.005.583-.001.875.004.124.536.24 1.075.383 1.606.095-.537.2-1.072.3-1.609h.81c-.192.814-.384 1.627-.574 2.44-.327.002-.654-.001-.98.003-.144-.538-.262-1.083-.41-1.618-.136.537-.254 1.079-.387 1.617a84.487 84.487 0 0 0-.982 0c-.198-.813-.383-1.63-.581-2.442zM22.144 18.748c.689 0 1.377.002 2.066 0l.001.582c-.392-.002-.783 0-1.175-.002a14.44 14.44 0 0 0 0 .342c.379-.002.757 0 1.136-.001-.002.194.002.389-.003.583-.378-.005-.756-.001-1.134-.002l.001.353c.401-.002.802-.001 1.203 0-.002.195-.001.39 0 .586h-2.095v-2.44zM24.63 18.749h1.528c.215.006.44.044.623.166.328.213.33.766.01.988-.095.074-.214.102-.327.143.11.035.233.06.316.147.126.124.145.309.188.471.047.172.079.349.133.52-.317.012-.635.003-.953.004-.037-.19-.08-.377-.12-.565-.02-.096-.053-.212-.157-.247-.115-.026-.234-.015-.351-.017v.83h-.89c.002-.814.001-1.627 0-2.44zm.878.563c0 .16.002.32-.001.48.158-.006.325.027.477-.03.177-.067.174-.367-.01-.425-.151-.041-.31-.02-.466-.025zM27.365 18.749c.303-.002.606.002.909-.002.004.332-.001.665.002.996.195-.33.387-.664.582-.994.35 0 .7-.002 1.05.001-.275.376-.545.757-.814 1.137.296.432.585.87.884 1.3-.366.004-.733.001-1.1.001-.199-.364-.4-.727-.602-1.09-.002.364-.001.727 0 1.09h-.91c0-.812.001-1.626-.001-2.439z" fill="#fff"/></g></g><defs><clipPath id="a"><path fill="#fff" d="M0 0h40v40H0z"/></clipPath></defs></svg>