<svg width="40" height="40" fill="none" xmlns="http://www.w3.org/2000/svg"><g clip-path="url(#a)" transform="matrix(1.4 0 0 1.4 -8 -8)"><path fill-rule="evenodd" clip-rule="evenodd" d="M12.196 26.333a9.998 9.998 0 0 1-2.155-4.981h5.952c.096.285.222.556.373.81zm17.763-4.981c-.66 4.91-4.867 8.697-9.958 8.697a10.01 10.01 0 0 1-6.191-2.132L18 23.726a4.223 4.223 0 0 0 5.997-2.374zm-16.241-9.196A10.004 10.004 0 0 1 20 9.95c5.21 0 9.495 3.967 9.999 9.046h-5.902a4.223 4.223 0 0 0-6.198-2.659zM10 18.996a10.01 10.01 0 0 1 2.122-5.237l4.186 4.185c-.182.327-.323.68-.413 1.052z" fill="#ed3936"/></g><defs><clipPath id="a"><path fill="#fff" d="M0 0h40v40H0z"/></clipPath></defs></svg>