<svg width="40" height="40" fill="none" xmlns="http://www.w3.org/2000/svg"><g clip-path="url(#a)" transform="matrix(1.4 0 0 1.4 -8 -7.869)"><g clip-path="url(#b)" fill="#fff"><path d="M10 21.983c.59-.33 1.194-.638 1.762-1 .326-.209.598-.269.892.004.101.094.224.153.343.213.127.063.257.117.395.212L10 23.345v-1.362zM21.924 20.616 29.999 16c0 .44-.002.86.001 1.278 0 .085-.064.098-.114.127-.946.544-1.893 1.088-2.84 1.63-.893.513-1.787 1.023-2.68 1.535a.33.33 0 0 1-.171.056c-.727-.002-1.454-.002-2.181-.002-.019 0-.037-.003-.09-.008zM20.514 20.05c-1.032.592-2.046 1.168-3.051 1.758-.222.13-.441.185-.696.18-.644-.012-1.29-.004-1.945-.028l.72-.413c1.22-.698 2.439-1.394 3.656-2.095.113-.066.2-.08.32-.003.318.205.647.393.996.6zM19.587 19.26c.591 0 1.185.027 1.773-.01.415-.027.746.12 1.075.325.146.092.297.174.464.27-.16.096-.31.185-.46.271-.212.123-.427.242-.64.366-.05.03-.091.048-.15.013l-2.07-1.206.008-.03zM15.772 21.207c-.385.219-.745.422-1.104.628-.049.028-.09.037-.142.007l-2.065-1.18c-.003-.002-.002-.01-.006-.026.648 0 1.294.01 1.939-.004.256-.005.48.04.696.182.211.14.44.255.682.393z"/></g></g><defs><clipPath id="a"><path fill="#fff" d="M0 0h40v40H0z"/></clipPath><clipPath id="b"><path fill="#fff" transform="translate(10 16)" d="M0 0h20v7.345H0z"/></clipPath></defs></svg>