<svg width="40" height="40" fill="none" xmlns="http://www.w3.org/2000/svg"><g clip-path="url(#a)" transform="matrix(1.4 0 0 1.4 -8 -8.185)"><g clip-path="url(#b)"><path fill-rule="evenodd" clip-rule="evenodd" d="m19.715 29.915 1.401-.132c.481-.044 1.007 0 1.488-.044.919-.087 2.144 0 3.063-.087.307 0 .394 0 .7-.044.176-.087.394-.131.57-.219.35-.175.656-.35.919-.656.612-.613 1.006-1.313 1.006-2.276l-1.4.131c-.394.088-1.138.088-1.532.088-.263 0-.438.044-.744.044-.525 0-2.013-.044-2.363 0-.92.131-1.488.35-2.145 1.006-.481.438-.963 1.313-.963 2.188zM10 25.581l3.02-.263c.481-.044 1.094 0 1.531-.044.263-.043.526-.043.788-.043.35 0 .525-.044.832-.044 2.1 0 4.332-.044 6.477-.044.569 0 1.094 0 1.575-.044a6.582 6.582 0 0 0 1.4-.306c.963-.306 1.882-.831 2.583-1.488l.744-.875c.131-.175.219-.35.306-.525.35-.7.744-1.576.744-2.582v-2.407c-.044-.482-.087-.963-.219-1.4-.219-.745-.569-1.357-1.006-1.97-.307-.394-.744-.788-1.138-1.138-1.007-.788-2.626-1.4-3.939-1.4h-7.396c-1.27 0-2.845.612-3.851 1.356-1.007.788-1.75 1.75-2.188 3.02-.307.875-.263 1.4-.263 2.363zm3.02-3.239 1.575-.175c.263 0 .57 0 .832-.044h.831c1.138 0 5.646-.043 6.784-.043.306 0 .569 0 .831-.044.263 0 .525-.088.744-.175a3.548 3.548 0 0 0 1.357-.832l.394-.525c.087-.087.13-.175.175-.262.175-.394.394-.92.394-1.488v-1.357a2.48 2.48 0 0 0-.132-.788 2.714 2.714 0 0 0-.525-1.138 4.057 4.057 0 0 0-.613-.612c-.525-.482-1.356-.832-2.057-.832h-7.264c-.7 0-1.488.35-2.013.788a3.366 3.366 0 0 0-1.182 1.707c-.175.525-.131.788-.131 1.356z" fill="#f40"/></g></g><defs><clipPath id="a"><path fill="#fff" d="M0 0h40v40H0z"/></clipPath><clipPath id="b"><path fill="#fff" transform="translate(10 11)" d="M0 0h20v18.923H0z"/></clipPath></defs></svg>