<svg width="40" height="40" fill="none" xmlns="http://www.w3.org/2000/svg"><g clip-path="url(#a)" transform="matrix(1.4 0 0 1.4 -7.993 -7.857)"><mask id="b" mask-type="alpha" maskUnits="userSpaceOnUse" x="10" y="16" width="20" height="8"><path fill="#fff" d="M10 16h20v7.374H10z"/></mask><g mask="url(#b)" fill-rule="evenodd" clip-rule="evenodd"><path d="M19.703 16.002c1.268.015 2.535.011 3.803.002-.004 2.426-.002 4.851 0 7.277a41.454 41.454 0 0 0-1.585 0c-.014-1.908-.003-3.817-.006-5.725-.74.004-1.478-.007-2.217.005.003-.52-.01-1.04.005-1.559zM25.152 16c.528.02 1.055.01 1.582.006 0 2.425-.003 4.85.001 7.276-.529-.011-1.06-.011-1.59 0-.002-2.426-.017-4.856.008-7.282ZM28.376 16.001c.528.017 1.057.01 1.587.005-.001 2.425-.003 4.85 0 7.275a32.249 32.249 0 0 0-1.594.004c-.002-2.428-.015-4.857.007-7.284z" fill="#fff"/><path d="M10 16.006c.536.004 1.074-.005 1.61.007-.018 2.424 0 4.849-.009 7.273-.53-.015-1.06-.012-1.59-.002-.015-2.426.007-4.853-.011-7.278ZM13.231 16.01a93.697 93.697 0 0 1 1.608.001c-.006 2.423.001 4.846-.003 7.269-.53-.003-1.063-.01-1.595.004-.01-2.424.01-4.85-.01-7.275zM16.463 16.008c.535 0 1.071-.006 1.607.005a486.115 486.115 0 0 0-.001 5.69h2.22c-.002.524-.007 1.048.004 1.573-1.272.009-2.545-.012-3.817.009-.017-2.425.01-4.852-.013-7.277z" fill="#b615a1"/></g></g><defs><clipPath id="a"><path fill="#fff" d="M0 0h40v40H0z"/></clipPath></defs></svg>