<svg width="40" height="40" fill="none" xmlns="http://www.w3.org/2000/svg"><g clip-path="url(#a)" transform="matrix(1.4 0 0 1.4 -8 -8)"><mask id="b" mask-type="alpha" maskUnits="userSpaceOnUse" x="10" y="16" width="20" height="8"><path fill="#fff" d="M10 16.369h20v7.262H10z"/></mask><g mask="url(#b)" fill-rule="evenodd" clip-rule="evenodd"><path d="M26.601 21.339c0-.778.36-1.574 1.239-1.574.878 0 1.238.796 1.238 1.574 0 .795-.335 1.597-1.238 1.597s-1.239-.802-1.239-1.597zm-.922 0c0 1.352.746 2.292 2.161 2.292 1.396 0 2.16-.96 2.16-2.292 0-1.334-.777-2.268-2.16-2.268-1.403 0-2.16.916-2.16 2.268zm-.33 1.414c-.208.108-.619.183-.966.183-.941 0-1.498-.675-1.498-1.572 0-.904.57-1.599 1.479-1.599.316 0 .619.044.954.234l.063-.745a2.916 2.916 0 0 0-.998-.183c-1.497 0-2.42.846-2.42 2.356 0 1.49.992 2.204 2.42 2.204.334 0 .682-.063 1.004-.139zm-4.906.802h.885v-4.409h-.885zm-3.589 0h2.615v-.694h-1.73v-1.238h1.572v-.696H17.74v-1.085h1.717v-.696h-2.602v4.41zm-2.62 0h.884v-3.714h1.264v-.695H12.97v.695h1.263zm-1.638-4.326a3.306 3.306 0 0 0-1.055-.158c-.777 0-1.541.36-1.541 1.345 0 1.46 1.933 1.111 1.933 1.952 0 .398-.449.568-.783.568-.348 0-.695-.107-.998-.271l-.082.796c.436.107.65.17 1.13.17.891 0 1.656-.366 1.656-1.332 0-1.479-1.934-1.156-1.934-1.92 0-.481.392-.614.695-.614.31 0 .62.07.897.19l.082-.726z" fill="#6a6864"/><path d="M20.097 16.78c.807-.206 1.646.11 2.345-.41-.562.58-.454 1.393-.867 2.073-.29.48-.929.352-1.407.289-.207-.028.136.478.06.723-.042.14-.318.284-.434.152-.28-.321-.069-.81.088-1.167.04-.09-.246-.094-.36-.317-.258-.503-.003-1.194.575-1.342" fill="#4da94a"/></g></g><defs><clipPath id="a"><path fill="#fff" d="M0 0h40v40H0z"/></clipPath></defs></svg>