<svg width="40" height="40" fill="none" xmlns="http://www.w3.org/2000/svg"><g clip-path="url(#a)" transform="matrix(1.4 0 0 1.4 -7.986 -7.985)"><path fill-rule="evenodd" clip-rule="evenodd" d="M25.593 19.964a5.628 5.628 0 1 1-11.255 0 5.628 5.628 0 0 1 11.255 0z" fill="#fff"/><mask id="b" maskUnits="userSpaceOnUse" x="10" y="9" width="20" height="21"><path fill-rule="evenodd" clip-rule="evenodd" d="M10 9.998h19.931V29.93h-19.93Z" fill="#fff"/></mask><g mask="url(#b)"><path fill-rule="evenodd" clip-rule="evenodd" d="M29.284 19.964a9.317 9.317 0 0 1-9.318 9.318 9.317 9.317 0 0 1-9.318-9.318 9.318 9.318 0 0 1 9.318-9.318 9.317 9.317 0 0 1 9.317 9.318zm-9.318-9.966C14.463 9.998 10 14.46 10 19.964c0 5.503 4.463 9.966 9.966 9.966 5.504 0 9.965-4.463 9.965-9.966 0-5.504-4.461-9.966-9.965-9.966z" fill="#fff"/></g><path fill-rule="evenodd" clip-rule="evenodd" d="M19.966 25.545a5.588 5.588 0 0 1-5.582-5.581h-.324a5.906 5.906 0 0 0 5.906 5.905m0-11.81v.322a5.589 5.589 0 0 1 5.582 5.583h.324a5.906 5.906 0 0 0-5.906-5.906z" fill="#fff"/><path fill-rule="evenodd" clip-rule="evenodd" d="M24.738 15.758c.135.144.33.377.44.518l2.015-1.27c-.1-.13-.26-.33-.38-.47l-1.277.838-.088.074.065-.094.564-1.117-.399-.396-1.126.56-.094.064.075-.086.845-1.267a11.846 11.846 0 0 0-.474-.381l-1.28 2.001c.163.123.377.305.513.43l1.205-.622.077-.056-.057.077zM20.162 13.223l.551-1.225.035-.11-.01.114.06 1.638c.191.018.391.044.589.077l-.09-2.425c-.276-.03-.55-.052-.823-.064l-.543 1.338-.02.099-.02-.1-.54-1.337c-.275.012-.549.034-.824.064l-.09 2.425c.197-.033.397-.058.59-.077l.058-1.638-.01-.113.035.109.551 1.225zM14.136 15.394s.654-.687.867-.907a.831.831 0 0 1 .198-.169c.076-.036.16-.044.232.005a.203.203 0 0 1 .088.214c-.022.098-.103.192-.169.263l-.867.923zm-.674-.635c.346-.42.715-.802.881-.954a.457.457 0 0 1 .18-.114c.113-.03.23.05.256.164.026.116-.047.226-.128.316-.184.205-.856.904-.856.904zm2.244.397c.32-.333.5-.719.182-1.086-.174-.199-.465-.243-.706-.144l-.025.01.008-.022a.576.576 0 0 0-.2-.606.598.598 0 0 0-.446-.123c-.299.03-.529.233-1.155.927-.19.21-.464.54-.629.753l1.72 1.621c.57-.627.802-.86 1.251-1.33z" fill="#fff"/><path fill-rule="evenodd" clip-rule="evenodd" d="M19.966 14.058v5.906H14.06a5.903 5.903 0 0 1 5.906-5.906zM25.872 19.964a5.903 5.903 0 0 1-5.906 5.905v-5.905z" fill="#0066b1"/></g><defs><clipPath id="a"><path fill="#fff" d="M0 0h40v40H0z"/></clipPath></defs></svg>