<svg width="40" height="40" fill="none" xmlns="http://www.w3.org/2000/svg"><mask id="a" mask-type="alpha" maskUnits="userSpaceOnUse" x="10" y="9" width="20" height="21"><path fill-rule="evenodd" clip-rule="evenodd" d="M10 10h19.185v19.554H10V10Z" fill="#fff"/></mask><g mask="url(#a)" transform="matrix(1.4 0 0 1.4 -7.837 -7.91)"><path fill-rule="evenodd" clip-rule="evenodd" d="M29.185 19.769c0-5.595-4.096-9.77-9.584-9.77-5.488 0-9.6 4.175-9.6 9.77 0 5.61 4.112 9.785 9.6 9.785 5.488 0 9.584-4.174 9.584-9.785zm-1.845 0c0 4.597-3.28 7.94-7.747 7.94-4.489 0-7.748-3.343-7.748-7.94 0-4.581 3.26-7.924 7.748-7.924 4.467 0 7.747 3.343 7.747 7.924zm-10.146 5.157v-8.772h-1.528c-.754 0-1.055.308-1.055 1.084v7.688zm4.981 0h2.582v-7.688c0-.776-.282-1.084-1.06-1.084h-1.522zm-1.292 0V14.77c0-.81-.26-1.08-1.046-1.08h-2.285v1.107h.375c.086 0 .17.054.238.127.101.126.136.253.136.525v9.477z" fill="#fff"/></g></svg>