<svg width="40" height="40" fill="none" xmlns="http://www.w3.org/2000/svg"><g clip-path="url(#a)" transform="matrix(1.4 0 0 1.4 -7.99 -8)"><g clip-path="url(#b)" fill="#fd6901"><path d="M21.92 20.03c-.013.564-.281 1.012-.666 1.398a5279.036 5279.036 0 0 1-5.234 5.243c-1.046 1.046-2.098 2.088-3.136 3.141-.18.184-.28.215-.477.01a98.943 98.943 0 0 0-2.249-2.253c-.199-.194-.178-.3.008-.486 2.271-2.26 4.53-4.533 6.803-6.792.21-.209.21-.315 0-.523-2.251-2.236-4.493-4.483-6.737-6.727-.31-.31-.31-.31.007-.627.744-.743 1.49-1.483 2.227-2.233.156-.159.25-.2.433-.016 2.7 2.712 5.409 5.415 8.114 8.121.34.34.655.701.811 1.172.063.186.106.373.096.572zM27.304 30c-.105-.025-.162-.116-.232-.186-1.91-1.911-3.823-3.822-5.73-5.74-.181-.182-.483-.469-.483-.58 0-.109.315-.378.493-.559.647-.65 1.301-1.295 1.943-1.95.149-.153.243-.151.393 0 2.045 2.053 4.093 4.101 6.146 6.146.149.148.16.237.005.39-.786.772-1.56 1.555-2.34 2.333-.057.056-.102.13-.195.146zM27.27 10c.11.013.155.073.205.122.794.793 1.583 1.59 2.383 2.377.142.139.115.219-.009.342a3257.286 3257.286 0 0 0-6.165 6.164c-.131.132-.216.133-.348-.001a231.9 231.9 0 0 0-2.358-2.358c-.15-.148-.15-.234.003-.386 2.032-2.021 4.056-4.05 6.083-6.076.07-.07.148-.132.206-.184Z"/></g></g><defs><clipPath id="a"><path fill="#fff" d="M0 0h40v40H0z"/></clipPath><clipPath id="b"><path fill="#fff" transform="translate(10 10)" d="M0 0h19.954v20H0z"/></clipPath></defs></svg>