<svg width="40" height="40" fill="none" xmlns="http://www.w3.org/2000/svg"><g clip-path="url(#a)" transform="matrix(1.4 0 0 1.4 -7.825 -7.945)" fill-rule="evenodd" clip-rule="evenodd"><path d="m26.374 9.882-12.592 5.607c-1.032.458-1.285 1.145-1.285 1.63V29.67c0 .13.13.235.268.176l6.533-2.907c.39-.191.907-.636.907-1.523v-6.968l5.457-2.433c.566-.267.966-1.01.966-1.991V10.06c0-.158-.11-.236-.254-.178z" fill="#007ec1"/><path d="m12.765 29.846 6.533-2.907c.39-.191.907-.636.907-1.523v-6.968l-6.424 2.897c-1.067.473-1.273 1.18-1.284 1.7v6.625c0 .13.13.235.268.176z" fill="#00406e"/><path d="M12.497 23.045c.01-.521.217-1.228 1.284-1.7l6.424-2.898v1.14l-6.424 2.389c-.956.358-1.273 1.054-1.284 1.575z" fill="#001836"/></g><defs><clipPath id="a"><path fill="#fff" d="M0 0h40v40H0z"/></clipPath></defs></svg>