<svg width="40" height="40" fill="none" xmlns="http://www.w3.org/2000/svg"><g clip-path="url(#a)" transform="matrix(1.4 0 0 1.4 -7.93 -7.964)"><mask id="b" mask-type="alpha" maskUnits="userSpaceOnUse" x="10" y="10" width="20" height="20"><path fill="#fff" d="M10 10h20v20H10z"/></mask><g mask="url(#b)"><path fill-rule="evenodd" clip-rule="evenodd" d="M19.911 10C14.444 10 10 14.444 10 19.911c0 3.156 1.511 5.956 3.822 7.778v-6.667c-.355-.222-.622-.622-.622-1.066a1.29 1.29 0 0 1 2.578 0c0 .444-.222.844-.622 1.066v7.645c.71.355 1.466.71 2.222.889v-8.534c-.356-.222-.622-.622-.622-1.066a1.29 1.29 0 0 1 2.577 0c0 .444-.222.844-.622 1.066v8.756a9.3 9.3 0 0 0 1.111.044c.356 0 .756-.044 1.111-.044v-8.756c-.355-.222-.622-.622-.622-1.066a1.29 1.29 0 0 1 2.578 0c0 .444-.222.844-.622 1.066v8.534c.8-.178 1.555-.534 2.222-.89v-7.644c-.356-.222-.622-.622-.622-1.066a1.29 1.29 0 0 1 2.577 0c0 .444-.222.844-.622 1.066v6.711c2.311-1.822 3.822-4.622 3.822-7.777.223-5.512-4.222-9.956-9.733-9.956Z" fill="#ff8300"/></g></g><defs><clipPath id="a"><path fill="#fff" d="M0 0h40v40H0z"/></clipPath></defs></svg>