<svg width="40" height="40" fill="none" xmlns="http://www.w3.org/2000/svg"><g clip-path="url(#a)" transform="matrix(1.4 0 0 1.4 -8 -8)"><mask id="b" mask-type="alpha" maskUnits="userSpaceOnUse" x="10" y="10" width="20" height="20"><path fill="#fff" d="M10 10h20v20H10z"/></mask><g mask="url(#b)" fill-rule="evenodd" clip-rule="evenodd"><path d="M21.894 23.621c1.16 0 2.1.747 2.1 1.701 0 .94-.94 1.701-2.1 1.701-1.16 0-2.113-.76-2.113-1.7 0-.955.953-1.702 2.113-1.702zm-1.598 5.98h2.127c2.899-.349 5.103-2.075 5.103-4.15 0-2.345-2.758-4.24-6.173-4.24-3.402 0-6.147 1.895-6.147 4.24 0 2.075 2.19 3.801 5.09 4.15zM20.85 14.046l2.823-1.752c-1.109-1.147-2.152-1.727-3.557-1.895h-1.817c-2.281.336-4.124 2.14-4.162 4.498-.052 2.642 2.577 4.69 4.883 4.716 1.47.013 2.54-.631 3.441-1.752l-1.327-1.882c-.49.426-.915.567-1.56.516-.953-.065-1.932-.593-1.907-1.547.026-.876.825-1.417 1.701-1.482.619-.051 1.057.13 1.482.58z" fill="#3878c4"/><path d="M25.618 10.4 10.425 29.6h4.06L29.6 10.515V10.4z" fill="#3878c4"/><path d="M10.4 10H30v20H10V10Zm18.788.812H10.812v18.376h18.376z" fill="#787f82"/></g></g><defs><clipPath id="a"><path fill="#fff" d="M0 0h40v40H0z"/></clipPath></defs></svg>