<svg width="40" height="40" fill="none" xmlns="http://www.w3.org/2000/svg"><mask id="a" mask-type="alpha" maskUnits="userSpaceOnUse" x="10" y="16" width="20" height="10"><path fill="#fff" d="M10 16h20v9.617H10z"/></mask><g mask="url(#a)" transform="matrix(1.4 0 0 1.4 -8 -8.323)" fill-rule="evenodd" clip-rule="evenodd"><path d="M14.76 19.632h-.669v-.286h-.007c-.117.247-.35.314-.711.314-.413 0-.993-.018-.993-.783v-1.022h.67v1.022c0 .174.139.26.432.26h.153c.287 0 .456-.132.456-.387v-.895h.668zM15.093 17.855h.671v.286h.007c.117-.248.351-.315.711-.315.413 0 .993.017.993.785v1.02h-.67v-1.02c0-.174-.139-.262-.432-.262h-.153c-.286 0-.456.134-.456.387v.896h-.67zM18.485 19.632h-.668v-1.777h.668zM18.986 18.335h-.334v-.48h.334v-.418h.67v.418h1.039v.48h-1.038v.682c0 .134.095.163.255.163.217 0 .277-.05.277-.213v-.12h.585v.218c0 .337-.222.595-.757.595h-.265c-.41 0-.766-.13-.766-.621v-.704zM20.91 18.645c0-.67.334-.819.823-.819h.465c.711 0 1.005.15 1.005.766v.301h-1.625v.108c0 .188.133.24.413.24h.205c.363 0 .38-.097.38-.202h.627v.076c0 .447-.399.544-.883.544h-.501c-.442 0-.91-.083-.91-.842v-.172Zm1.644-.15c0-.213-.098-.251-.487-.251-.437 0-.49.038-.49.25zM23.377 18.583c0-.453.105-.757.95-.757h.2c.275 0 .557.077.6.356h.004v-1.074h.671v2.524h-.628v-.328h-.007c-.074.22-.24.356-.644.356h-.196c-.845 0-.95-.304-.95-.757v-.32zm.647.265c0 .198.031.31.353.31h.394c.265 0 .403-.06.403-.327v-.174c0-.27-.138-.33-.403-.33h-.394c-.322 0-.353.113-.353.31zM13.449 21.005h.67v.286h.008c.117-.248.35-.314.709-.314.415 0 .992.017.992.784v1.02h-.668v-1.02c0-.174-.138-.261-.432-.261h-.153c-.286 0-.455.132-.455.386v.896h-.671ZM16.294 21.486h-.337v-.481h.337v-.418h.668v.418H18v.48h-1.038v.684c0 .132.098.16.258.16.215 0 .274-.049.274-.213v-.118h.587v.216c0 .338-.224.596-.756.596h-.265c-.41 0-.766-.13-.766-.62v-.704zM18.218 21.796c0-.673.334-.819.82-.819h.468c.709 0 1.003.15 1.003.767v.3h-1.623v.107c0 .188.131.24.41.24h.206c.362 0 .379-.097.379-.201h.628v.076c0 .446-.397.544-.881.544h-.501c-.444 0-.91-.084-.91-.843zm1.644-.15c0-.213-.098-.25-.49-.25-.434 0-.486.037-.486.25zM20.728 21.005h.628v.338h.007c.076-.282.348-.366.652-.366.486 0 .677.21.677.7 0 .046-.002.095-.004.157h-.58c0-.226-.053-.334-.32-.334-.23 0-.392.087-.392.3v.982h-.668v-1.777zM22.895 21.005h.668v.286h.007c.12-.248.354-.314.712-.314.415 0 .993.017.993.784v1.02h-.669v-1.02c0-.174-.138-.261-.432-.261h-.152c-.287 0-.459.132-.459.386v.896h-.668zM25.494 21.796c0-.673.334-.819.823-.819h.466c.711 0 1.005.15 1.005.767v.3h-1.623v.107c0 .188.131.24.41.24h.205c.363 0 .38-.097.38-.201h.628v.076c0 .446-.397.544-.883.544h-.502c-.441 0-.909-.084-.909-.843zm1.644-.15c0-.213-.097-.25-.486-.25-.437 0-.487.037-.487.25zM28.212 21.486h-.334v-.481h.334v-.418h.669v.418h1.038v.48H28.88v.684c0 .132.097.16.257.16.218 0 .277-.049.277-.213v-.118H30v.216c0 .338-.222.596-.757.596h-.264c-.411 0-.767-.13-.767-.62z" fill="#fff"/><path d="M22.709 22.565c-.869.506-1.838.984-2.88 1.407-3.42 1.384-6.864 1.83-8.573 1.11-.497-.21-.826-.509-.974-.887-.403-1.022.535-2.456 2.31-3.842v-.234c-.327.25-.627.503-.904.76-1.377 1.28-1.938 2.482-1.585 3.383.17.428.53.761 1.076.992 1.78.751 5.203.316 8.721-1.109 1-.404 1.945-.865 2.809-1.362z" fill="#b1b2b4"/><path d="M13.108 22.783h-.67v-1.777h.67z" fill="#fff"/><path d="M13.103 20.679h-.659v-.659h.659Z" fill="#e2002f"/><path d="M27.081 17.373c-.167-.432-.53-.77-1.076-1.005-1.597-.682-4.51-.398-7.63.707v.205c3.067-1.093 6.017-1.394 7.554-.738.498.213.825.516.973.9.365.938-.37 2.219-1.833 3.495a.38.38 0 0 1 .096.067c.014.014.033.03.052.05.093-.083.191-.17.28-.252 1.377-1.298 1.937-2.515 1.584-3.43z" fill="#b1b2b4"/><path d="M18.482 17.528h-.658v-.659h.658z" fill="#e2002f"/></g></svg>