<svg width="40" height="40" fill="none" xmlns="http://www.w3.org/2000/svg"><path fill-rule="evenodd" clip-rule="evenodd" d="M16.762 12.3c0 1.4-2.8 1.837-4.55 4.55-1.4 2.275-1.662 3.85-1.662 7.438.787-.525 1.575-2.275 3.062-.175 2.625 3.587 4.288 5.25 10.675 5.25-.35-.875-2.362-1.4-.174-3.063.437-.35.962-.7 1.487-1.05.175-.175.525-.438.7-.613.262-.262.438-.437.7-.787 1.837-2.188 2.362-4.287 2.362-8.313-1.574 1.05-1.312 2.538-4.024-1.05-2.363-3.237-5.25-3.937-9.626-3.937.438.613 1.05.787 1.05 1.75zm1.575 3.587c0 .788-1.487.963-2.362 2.45-.7 1.138-.788 2.013-.788 3.85.438-.262.788-1.137 1.575-.087 1.4 1.838 2.275 2.713 5.6 2.625-.175-.437-1.225-.7-.087-1.575.263-.175.525-.35.787-.612.088-.088.263-.175.35-.263.176-.175.263-.262.35-.437.963-1.138 1.226-2.275 1.226-4.375-.875.612-.7 1.4-2.188-.525-1.225-1.663-2.712-2.013-4.987-1.925.175.262.525.437.525.875z" fill="#a01c19" style="stroke-width:1.4"/><path fill-rule="evenodd" clip-rule="evenodd" d="M20 6c7.7 0 14 6.3 14 14s-6.3 14-14 14S6 27.7 6 20 12.3 6 20 6Zm0 3.15c5.95 0 10.762 4.9 10.762 10.85 0 5.95-4.812 10.762-10.762 10.762S9.15 25.95 9.15 20 14.05 9.15 20 9.15Z" fill="#a01c19" style="stroke-width:1.4"/></svg>