<svg width="40" height="40" fill="none" xmlns="http://www.w3.org/2000/svg"><g clip-path="url(#a)" transform="matrix(1.4 0 0 1.4 -8 -7.975)"><mask id="b" mask-type="alpha" maskUnits="userSpaceOnUse" x="10" y="18" width="20" height="4"><path fill="#fff" d="M10 18.028h20v3.944H10z"/></mask><g mask="url(#b)" fill-rule="evenodd" clip-rule="evenodd" fill="#fff"><path d="M27.662 18.775c-.465 0-.76.253-.901.817l-.085.338c-.14.563.014.83.479.83h.972c.155 0 .225.071.183.198l-.042.197c-.029.127-.141.197-.282.197h-1.648l-.113.479h2.24c.52 0 .83-.225.943-.676l.17-.662c.112-.45-.085-.676-.606-.676h-.93c-.14 0-.183-.056-.155-.183l.057-.212c.028-.126.112-.183.24-.183h1.703l.113-.464ZM18.254 18.775c-.465 0-.761.253-.902.817l-.084.338c-.141.563.014.83.479.83h.986c.154 0 .225.071.183.198l-.043.197c-.028.127-.14.197-.281.197h-1.648l-.113.479h2.24c.52 0 .83-.225.943-.676l.17-.662c.112-.45-.085-.676-.607-.676h-.929c-.14 0-.183-.056-.155-.183l.056-.211c.028-.127.113-.183.24-.183h1.704l.113-.48zM21.113 18.676l-.578 2.296c-.155.591.07.859.521.859h1.17l.112-.479h-.479c-.197 0-.267-.056-.197-.31l.45-1.788h.649l.112-.48h-.62l.184-.746zM11.775 21.831l2.338-3.69h-.634l-1.789 2.944h-.014l-.366-2.944H10l.521 3.69zM14.845 19.479c.042-.155.099-.225.254-.225h.465c.154 0 .225.07.183.197l-.198.802h-.901Zm-.211-.704c-.521 0-.831.253-.958.817l-.366 1.436c-.14.564.042.817.563.817h2.451l.113-.479H14.62c-.155 0-.225-.07-.183-.197l.098-.422h2.057l.281-1.155c.141-.564-.042-.817-.563-.817zM23.845 21.155l.17-.662c.027-.127.14-.197.28-.197h.663l-.268 1.056h-.662c-.14.014-.211-.07-.183-.197zm-.465-2.38-.112.479h1.718c.155 0 .225.07.183.197l-.099.366H23.79c-.521 0-.831.225-.944.676l-.169.662c-.113.45.085.676.606.676h2.436l.564-2.24c.14-.563-.043-.816-.564-.816z"/></g></g><defs><clipPath id="a"><path fill="#fff" d="M0 0h40v40H0z"/></clipPath></defs></svg>