<svg width="40" height="40" fill="none" xmlns="http://www.w3.org/2000/svg"><g clip-path="url(#a)" transform="matrix(1.4 0 0 1.4 -7.983 -8)"><path d="M21.47 12.584c4.24.67 7.446 4.131 7.446 8.592 0 4.924-3.888 8.824-8.958 8.824S11 26.1 11 21.176c0-4.473 3.205-7.922 7.447-8.592V10h3.022zm3.924 8.604c0-2.718-1.572-4.777-3.925-5.387v5.156h-3.022V15.8c-2.352.61-3.925 2.67-3.925 5.387 0 3.132 2.34 5.497 5.436 5.497s5.436-2.364 5.436-5.497z" fill="#3fa7df"/></g><defs><clipPath id="a"><path fill="#fff" d="M0 0h40v40H0z"/></clipPath></defs></svg>