<svg width="40" height="40" fill="none" xmlns="http://www.w3.org/2000/svg"><g clip-path="url(#a)" transform="matrix(1.4 0 0 1.4 -8.196 -8)"><path d="M27.684 10.013c1.386-.006 2.281 1.121 2.288 2.281l.007 15.412A2.296 2.296 0 0 1 27.678 30h-14.39C11.948 30 11 28.9 11 27.699V12.294c0-1.286 1.088-2.3 2.294-2.294Z" fill="#4dc7e4"/><path d="m21.869 17.241 5.331-2.513c.02-.013.033.02.047.027l-3.687 4.608 5.384 2.606c.027.014.053.04.02.067l-5.915.007 1.353 5.875-.04.033-3.866-4.728h-.046l-3.827 4.735c-.02.013-.033.013-.053 0l1.333-5.896-5.902-.013c-.02-.013-.02-.033-.02-.046l5.365-2.586.04-.04-3.7-4.602c-.014-.027.013-.04.026-.06l5.338 2.513 1.4-5.723h.04z" fill="#fff"/></g><defs><clipPath id="a"><path fill="#fff" d="M0 0h40v40H0z"/></clipPath></defs></svg>