<svg width="40" height="40" fill="none" xmlns="http://www.w3.org/2000/svg"><g clip-path="url(#a)" transform="matrix(1.4 0 0 1.4 -7.925 -8)"><g clip-path="url(#b)"><path d="M26.023 24.03c-.118.313-.16.618-.23.916-.07.298-.205.54-.447.746-.872.745-1.47 1.693-1.94 2.726-.134.292-.251.59-.368.89-.045.116-.097.212-.232.24-.1.022-.107.106-.11.19-.007.193-.037.237-.231.242-.406.012-.813.015-1.22.012-.181-.002-.27-.15-.212-.33.043-.131.142-.222.23-.32.484-.532.962-1.068 1.38-1.654.536-.75.99-1.542 1.223-2.443.142-.546.19-1.096.075-1.655-.073-.353-.18-.48-.643-.41-.297.046-.545.211-.773.4-.11.091-.196.103-.338.04-.608-.264-1.244-.39-1.907-.28-.63.104-1.09.683-1.104 1.362-.009.438.138.845.27 1.253.24.751.563 1.471.818 2.217.116.34.214.684.29 1.035.043.197.031.23-.143.327-.084.047-.094.121-.097.204-.009.19-.045.238-.235.241-.416.008-.832.007-1.248.002-.15-.002-.198-.066-.2-.216 0-.091.026-.177.047-.264.317-1.364.168-2.666-.542-3.883-.295-.507-.725-.892-1.205-1.223-.08-.055-.125-.033-.178.027-.199.222-.326.487-.438.756a14.623 14.623 0 0 0-1.059 4.025c-.018.159-.07.286-.249.314-.102.017-.123.089-.128.176-.01.212-.015.289-.329.296-.336.008-.672.006-1.008.004-.206-.001-.28-.095-.241-.299.022-.112.078-.212.133-.31.444-.797.871-1.6 1.187-2.458.348-.945.55-1.914.494-2.926-.024-.435-.137-.827-.428-1.173-.412-.49-.7-1.063-.988-1.633-.132-.26-.262-.523-.399-.782-.249-.47-.658-.693-1.174-.712-.295-.01-.534-.086-.706-.339-.079-.117-.185-.215-.274-.325-.195-.245-.193-.431.001-.675.145-.18.29-.36.43-.546a.696.696 0 0 0 .158-.474c-.007-.094.035-.174.081-.252a3.92 3.92 0 0 1 .433-.577c.108-.124.11-.245.037-.377a1.52 1.52 0 0 0-.135-.199c-.532-.667-.736-1.434-.7-2.276 0-.023 0-.048.007-.07.018-.051.016-.122.089-.13.061-.007.09.047.113.093.039.08.073.164.106.247.328.83.827 1.525 1.679 1.862 1.22.481 2.395.42 3.46-.433.062-.05.124-.103.193-.144.052-.032.113-.093.178-.037.055.048.021.115 0 .172a1.395 1.395 0 0 1-.076.167c-.285.527-.737.877-1.244 1.168-.164.093-.333.178-.499.268-.051.028-.128.045-.123.12.004.068.073.094.127.12.319.156.648.287.983.4 1.237.414 2.49.769 3.784.953.861.123 1.724.13 2.59.083.983-.053 1.96-.179 2.939-.261.363-.03.728-.026 1.086.06.845.204 1.345.743 1.526 1.585.176.822.214 1.658.227 2.495.035 2.184.034 4.369.014 6.553-.004.512-.026.532-.538.532-.256 0-.51-.003-.766-.001-.225.001-.266.045-.266.265 0 .185-.039.24-.226.254-.382.031-.765.014-1.148.007-.13-.002-.195-.092-.19-.232.004-.124.067-.225.123-.328.386-.713.702-1.453.88-2.247.182-.82.22-1.638-.07-2.445a2.642 2.642 0 0 0-.386-.707zm-6.114-3.942c.005-.276.008-.588-.058-.895-.057-.271-.175-.37-.45-.37-.152-.001-.18.026-.166.186.029.368-.025.726-.149 1.07-.141.395-.363.719-.8.83-.522.134-.8-.145-.68-.622.115-.459.145-.93.13-1.405-.007-.248-.119-.386-.332-.47a8.056 8.056 0 0 0-.927-.305c-.226-.06-.39.008-.528.195a7.878 7.878 0 0 0-1.054 1.983c-.348.955-.11 1.832.65 2.498.258.226.552.396.843.573.695.423 1.364.884 2.01 1.378.077.058.154.16.257.117.113-.047.086-.175.095-.277.011-.127.016-.255.04-.38.142-.728.62-1.168 1.269-1.45.51-.222 1.054-.292 1.603-.314.704-.027 1.409-.009 2.11.058.44.041.869.126 1.282.284.36.137.688.333 1.018.527.291.17.526.096.683-.2.047-.089.085-.18.11-.277.206-.814.321-1.64.278-2.481-.019-.373-.075-.743-.259-1.079-.177-.323-.444-.494-.82-.474-.142.008-.167.045-.102.166.136.254.21.526.238.81.03.314-.028.604-.284.821-.278.235-.614.138-.716-.206l-.042-.15c-.108-.353-.228-.7-.448-1.004-.16-.22-.368-.37-.646-.388-.294-.02-.376.077-.28.33.118.315.17.647.207.98a.824.824 0 0 1-.395.835 1.98 1.98 0 0 1-.376.196c-.537.202-1.097.279-1.667.282-.384.002-.765-.035-1.13-.163-.337-.118-.509-.364-.514-.719-.002-.151 0-.303 0-.49zm-4.248-2.178c.011-.108-.065-.174-.16-.227l-1.347-.76c-.3-.169-.591-.355-.923-.461-.164-.053-.33-.068-.475.038-.275.2-.492.454-.659.75a.44.44 0 0 0-.051.19 1.005 1.005 0 0 1-.237.623c-.117.135-.217.286-.323.43-.074.1-.095.21-.025.317.19.292.417.506.808.502.47-.004.854.208 1.164.56.198.224.344.485.512.73.06.086.094.233.213.22.113-.013.139-.156.18-.255.34-.822.73-1.618 1.212-2.367a.555.555 0 0 0 .11-.29zm4.619 2.22c0 .075.004.15-.001.226-.029.43.169.568.492.645.85.2 1.678.108 2.48-.229.184-.077.283-.228.32-.422.072-.368-.029-.711-.155-1.05-.11-.294-.266-.395-.584-.389-.113.002-.226.018-.34.021a19.78 19.78 0 0 1-1.955-.036c-.258-.019-.336.055-.315.315.025.306.065.61.058.918zm7.686 2.915c.016-.709.016-1.418-.056-2.123-.025-.249-.05-.5-.148-.733-.03-.07-.058-.182-.148-.164-.092.02-.069.131-.069.209 0 .572-.029 1.142-.116 1.708-.047.304-.105.606-.048.914.066.353.128.706.197 1.058.044.222.084.445.156.66.022.064.061.109.135.098.07-.01.086-.067.092-.125.005-.047.005-.095.005-.142v-1.36zm-9.139-3.924c.001-.416-.02-.442-.375-.509-.055-.01-.112-.011-.168-.016-.116-.009-.162.049-.161.16.002.17.034.338.021.508a6.463 6.463 0 0 1-.14.978c-.022.09-.044.18.045.244.092.067.19.047.282 0 .137-.068.218-.19.284-.323.174-.347.194-.723.212-1.042zm7.07.79a1.891 1.891 0 0 0-.209-.83c-.155-.283-.392-.384-.702-.298-.159.044-.182.101-.077.225.286.335.457.724.553 1.15.018.079.033.162.137.173.11.01.194-.034.247-.13.05-.09.053-.19.052-.29z" fill="#225390"/><path d="M14.887 15.39a2.697 2.697 0 0 1-2.697-2.694 2.696 2.696 0 0 1 5.391-.003 2.7 2.7 0 0 1-2.694 2.697zm-1.706-3.012c0 1 .808 1.82 1.807 1.815.99-.005 1.821-.773 1.816-1.823a1.8 1.8 0 0 0-1.803-1.805 1.802 1.802 0 0 0-1.82 1.813z" fill="#225390"/><path d="M19.91 20.089c0 .187-.003.338 0 .49.005.354.176.6.513.718.365.128.746.165 1.13.163.57-.003 1.13-.08 1.667-.282.133-.05.257-.118.376-.196a.823.823 0 0 0 .395-.835c-.037-.333-.088-.665-.207-.98-.095-.253-.014-.35.28-.33.279.017.486.168.646.388.22.303.34.651.448 1.004l.042.15c.102.344.439.44.716.206.256-.217.315-.507.284-.821a2.132 2.132 0 0 0-.238-.81c-.065-.121-.04-.158.102-.166.376-.02.643.151.82.474.184.336.24.706.26 1.079.042.841-.073 1.667-.28 2.481a1.218 1.218 0 0 1-.108.276c-.158.297-.393.371-.684.2-.33-.193-.658-.389-1.017-.526a4.86 4.86 0 0 0-1.282-.284 15.838 15.838 0 0 0-2.11-.058c-.55.022-1.093.091-1.604.314-.65.282-1.127.722-1.268 1.45-.024.124-.03.253-.04.38-.01.102.017.23-.096.277-.102.043-.18-.06-.256-.117a23.044 23.044 0 0 0-2.01-1.378c-.292-.177-.586-.347-.844-.573-.76-.666-.998-1.543-.65-2.498a7.896 7.896 0 0 1 1.055-1.983c.137-.187.301-.255.527-.195.316.083.625.184.928.304.212.085.324.223.332.471.014.476-.015.946-.13 1.405-.12.477.157.756.68.622.436-.111.658-.435.8-.83.123-.345.177-.702.148-1.07-.013-.16.014-.188.166-.187.275.001.393.1.45.37.066.309.063.62.058.897zM15.66 17.91a.556.556 0 0 1-.11.29c-.482.749-.872 1.545-1.212 2.367-.04.098-.066.242-.18.255-.119.013-.153-.134-.213-.22-.167-.246-.313-.506-.512-.731-.31-.351-.694-.563-1.163-.559-.392.003-.618-.21-.808-.502-.07-.108-.05-.217.024-.317.107-.145.206-.295.324-.43.158-.181.22-.392.236-.623a.446.446 0 0 1 .052-.19 2.32 2.32 0 0 1 .658-.75c.146-.107.311-.091.476-.039.331.107.623.293.923.462l1.346.76c.095.053.171.12.16.227zm-2.915-.192c.221-.005.549-.338.555-.517.002-.053-.023-.073-.07-.088-.169-.056-.54.053-.65.192-.065.081-.061.165-.018.251.048.094.113.163.183.162z" fill="#08aad9"/><path d="M20.28 20.13c.007-.308-.033-.613-.058-.919-.02-.26.057-.333.316-.315a19.87 19.87 0 0 0 1.955.036c.113-.003.226-.018.34-.02.317-.006.473.095.583.39.127.337.228.68.156 1.049-.038.193-.137.345-.32.422-.803.336-1.631.43-2.481.228-.323-.076-.52-.214-.492-.645.005-.075 0-.15 0-.227zM18.827 19.121c-.019.318-.039.695-.211 1.042-.066.133-.147.255-.284.324-.093.046-.191.066-.282 0-.09-.066-.067-.155-.046-.245.074-.322.115-.649.14-.978.013-.17-.018-.338-.02-.508-.002-.112.044-.17.16-.16.056.005.113.006.169.016.355.067.375.093.374.51zM25.898 19.91a.57.57 0 0 1-.051.29.235.235 0 0 1-.247.13c-.105-.01-.12-.094-.137-.173a2.637 2.637 0 0 0-.554-1.15c-.105-.123-.082-.18.077-.224.31-.086.548.014.702.298.14.258.195.539.21.83zM13.18 12.378c.001-1.015.803-1.808 1.82-1.813a1.8 1.8 0 0 1 1.804 1.805c.005 1.05-.827 1.818-1.816 1.823a1.808 1.808 0 0 1-1.807-1.815z" fill="#08aad9"/><path d="M12.745 17.718c-.07.001-.135-.068-.183-.161-.043-.087-.047-.17.017-.251.11-.14.482-.25.651-.193.046.016.071.035.07.088-.006.18-.334.512-.555.517z" fill="#225390"/></g></g><defs><clipPath id="a"><path fill="#fff" d="M0 0h40v40H0z"/></clipPath><clipPath id="b"><path fill="#fff" transform="translate(11 10)" d="M0 0h17.623v20H0z"/></clipPath></defs></svg>