<svg width="40" height="40" fill="none" xmlns="http://www.w3.org/2000/svg"><path fill-rule="evenodd" clip-rule="evenodd" d="M28.445 19.963c-1.876 0-3.228.45-4.354.45-1.125 0-2.627-.375-3.528-.375H6.075C6.075 27.694 12.305 34 20.038 34c7.657 0 13.887-6.305 13.887-14.037ZM25.443 7.126A13.689 13.689 0 0 0 20.038 6c-2.028 0-3.754.375-5.48 1.126Zm-1.877 11.56c-2.252 0-5.255.45-6.23.45H6.15c0-.374 0-.75.075-1.125h10.81c1.202.074 3.228.45 6.53.45h1.127c3.603 0 5.03-.375 5.705-.375l3.452-.075c0 .376.075.676.075 1.127l-4.053-.075c-1.051 0-2.928-.375-5.18-.375h-1.125zm1.65-1.951c2.778 0 4.73.375 5.855.375h2.552c-.074-.45-.15-.675-.225-1.05h-1.951c-.601.074-3.228.45-6.23.375l-2.253.074c-2.327 0-5.48-.3-6.905-.45H6.675c-.135.34-.235.691-.3 1.05h9.383c.525 0 4.429-.375 7.206-.375h2.252zm4.58-6.756c.375.375.601.675.9 1.05l-.675-.074c-1.2 0-2.552-.226-5.33-.226l-1.126-.075c-3.303 0-6.005.45-6.83.45H9.227c.375-.375.6-.675.976-1.05h8.107c1.126.15 2.702.375 5.255.375h1.126c2.253 0 3.528-.225 4.204-.3zm-5.18 2.703c2.853 0 5.48.15 6.682.3l.826.075c-.225-.45-.376-.601-.601-.976l-.75.075c-.601 0-3.304.3-6.081.3H23.49c-4.504 0-6.006-.375-6.982-.375H8.553c-.268.32-.495.674-.676 1.05h7.582c.976-.15 5.254-.525 8.032-.45h1.126zm.6 2.026c2.853 0 5.78.3 6.38.375h1.502c-.15-.375-.3-.675-.45-1.05l-1.051.075c-1.201.074-2.853.375-6.38.375h-2.252c-3.303 0-5.705-.3-6.906-.45H7.426c-.225.374-.3.675-.45 1.05h8.407c1.276-.15 4.129-.375 7.581-.375h2.252zm1.652-5.63h1.877c-.525-.45-.9-.675-1.501-1.051H12.83c-.6.375-1.05.675-1.576 1.126h9.083c1.2 0 2.477-.525 3.603-.525 1.125 0 2.253.375 2.928.45z" fill="#2f5693" style="stroke-width:1.4"/></svg>