<svg width="40" height="40" fill="none" xmlns="http://www.w3.org/2000/svg"><g clip-path="url(#a)" transform="matrix(1.4 0 0 1.4 -7.99 -8.001)" fill-rule="evenodd" clip-rule="evenodd"><path d="M12.943 20.005c0 3.892 3.148 7.046 7.03 7.046a7.02 7.02 0 0 0 5.88-3.183l2.524 1.521a9.96 9.96 0 0 1-8.404 4.612C14.465 30 10 25.526 10 20.005Z" fill="url(#b)" style="fill:url(#b)"/><path d="M19.973 10.005c4.91 0 8.992 3.558 9.82 8.243h-3.01c-.778-3.043-3.532-5.292-6.81-5.292-3.879 0-7.024 3.15-7.03 7.039v.01H10v-.004c.002-5.521 4.467-9.996 9.973-9.996z" fill="url(#c)" style="fill:url(#c)"/><path d="M19.464 18.248h10.329a9.978 9.978 0 0 1 .08 2.97h-10.41Z" fill="#c6c6c6"/></g><defs><linearGradient id="b" x1="19.019" y1="28.137" x2="25.48" y2="23.188" gradientUnits="userSpaceOnUse"><stop stop-color="#2D99EB"/><stop offset=".6" stop-color="#83D1EE"/><stop offset="1" stop-color="#FEFEFE"/></linearGradient><linearGradient id="c" x1="29.787" y1="18.2" x2="13.141" y2="18.2" gradientUnits="userSpaceOnUse"><stop stop-color="#0555FA"/><stop offset="1" stop-color="#2D99EB"/></linearGradient><clipPath id="a"><path fill="#fff" transform="translate(10 10)" d="M0 0h19.947v20H0z"/></clipPath></defs></svg>