<svg width="40" height="40" fill="none" xmlns="http://www.w3.org/2000/svg"><g clip-path="url(#a)" transform="matrix(1.4 0 0 1.4 -8 -7.954)"><g clip-path="url(#b)"><path d="m13.296 16.808.634-.056c-.008.05-.048.076-.08.108l-1.813 1.813-1.399 1.398c-.04.04-.08.081-.117.126-.07.033-.147.031-.22.05-.082.02-.165.035-.243.071-.015.007-.03.012-.046.004-.014-.031.005-.067-.012-.098v-.096c.028-.033.005-.074.017-.11.022.006.044.008.062-.013.013-.015.029-.029.044-.043 1.022-1.023 2.045-2.046 3.069-3.067.032-.032.053-.077.104-.087z" fill="#f1b643"/><path d="M21.076 13h.717c.004.009.002.016-.006.022-.052.017-.056.058-.056.105v.674c0 .035.002.07-.003.103-.006.037-.034.053-.063.068-.043.022-.087.042-.126.07-.142.081-.265.187-.389.292-.023.02-.048.061-.082.01-.016-.034-.014-.072-.014-.108v-1.13c0-.037-.005-.075.022-.106Z" fill="#f0b143"/><path d="M21.075 13v1.257c0 .037.004.073.014.108.004.01.001.018-.006.024-.147.137-.273.293-.404.445-.017.019-.04.059-.061 0-.006-.025-.006-.05-.006-.075v-1.6c.001-.043-.014-.097.05-.115.112-.012.224-.028.337-.03.01 0 .018-.004.021-.014h.055Z" fill="#f1b343"/><path d="M21.71 13.924c0-.275.002-.55-.002-.823 0-.068.015-.1.086-.088.02-.015.047.004.067-.013h.028c.076.026.156.014.233.028.029.004.06-.004.087.012-.03.032-.037.07-.037.113v.466a.45.45 0 0 1-.017.142c-.01.03-.033.043-.06.05-.11.028-.216.068-.32.112-.021.009-.044.018-.065 0z" fill="#efae42"/><path d="M10 20.225c.028.028.008.064.014.096.011.015.012.03-.004.042l-.005.002-.005-.002v-.138z" fill="#f0b660"/><path d="M21.861 13c-.018.026-.045.007-.067.013a.058.058 0 0 1-.002-.013h.07z" fill="#f5c985"/><path d="M15.696 26.085c-.139-.059-.263-.143-.387-.226a5.081 5.081 0 0 1-1.617-1.708l-.01-.024c.018-.03.048-.033.078-.035.03-.003.06-.002.09-.002h4.902c.048 0 .097-.007.143.015.033.023.023.053.01.08-.052.097-.104.194-.163.288-.013.02-.028.036-.055.034H14.89c.137.112.273.214.409.315.05.037.105.041.163.041h2.875c.037 0 .073-.003.11.006.05.019.026.05.01.077-.059.093-.127.18-.199.263-.058.052-.1.12-.165.166-.023.016-.043.034-.072.037-.115.007-.23.003-.345.004-.452 0-.904-.007-1.355.003-.164.004-.291-.065-.42-.142l-.147-.09c-.03-.018-.047-.01-.05.026v.812c0 .02.004.041-.008.06z" fill="#da3937"/><path d="M21.782 26.03c-.223.108-.45.207-.688.275l-.03.015c-.04.013-.053-.014-.06-.045-.008-.03-.006-.06-.006-.09v-3.43c0-.038-.005-.078.015-.114a.058.058 0 0 1 .035-.02c.214-.006.427-.002.641-.002.023 0 .046 0 .066.015.028.042.018.089.018.134v3.09c0 .058.002.115.009.172z" fill="#a8302d"/><path d="M26.757 16.64c.078.2.12.41.165.619.018.082.037.164.04.249-.037-.014-.059.009-.082.032l-.438.438-1.378 1.377c-.048.048-.093.1-.139.15-.022.009-.045.008-.068.009-.25-.004-.498-.02-.747-.015a.358.358 0 0 1-.114-.013c-.029-.01-.073.01-.083-.032-.009-.035.027-.055.05-.077l2.181-2.181c.177-.177.354-.355.532-.53.02-.02.038-.067.08-.026z" fill="#e16f38"/><path d="M26.757 16.64c-.03-.018-.042.008-.056.023-.916.914-1.83 1.829-2.745 2.744-.014.013-.04.025-.03.048.007.02.032.01.05.011.013.002.027 0 .037.012-.019.024-.047.02-.073.022-.13.003-.261.003-.392 0-.145-.008-.29-.013-.435-.018-.04-.012-.036-.036-.017-.063.018-.024.04-.044.062-.065l2.747-2.746c.036-.035.064-.078.107-.106a.11.11 0 0 1 .024-.005c.203-.006.406-.002.61-.002.025 0 .05.002.07.021.02.04.033.08.04.124z" fill="#e27539"/><path d="M28.897 19.7c.205.01.407.038.608.082-.022.123-.076.235-.118.351l-.526 1.444c-.134.37-.269.738-.402 1.108-.007.021-.015.043-.035.057a.1.1 0 0 1-.047.01c-.2-.01-.4-.007-.598-.033-.034-.018-.016-.043-.008-.065.131-.348.256-.699.383-1.048.171-.467.34-.936.512-1.403l.163-.447c.01-.03.017-.072.068-.056z" fill="#b2b0ae"/><path d="M28.897 19.7c-.028.002-.037.02-.045.044l-.39 1.07-.527 1.443c-.055.15-.1.304-.17.448-.038.035-.084.025-.125.02-.156-.02-.313-.001-.468-.025-.115-.008-.231.008-.346-.009a.032.032 0 0 1-.017-.016c.014-.035.045-.026.07-.027.06-.003.12-.003.18 0 .05.001.08-.02.096-.068.111-.314.227-.626.34-.939.19-.52.377-1.04.569-1.559l.134-.368c.03-.081.029-.081.12-.069.188.003.374.033.561.046.006 0 .012.006.018.01z" fill="#b7b6b4"/><path d="M23.706 24.843c-.142.13-.3.237-.457.348-.087.062-.173.127-.268.177-.033.014-.04-.01-.047-.033-.007-.029-.005-.06-.005-.089v-2.494c0-.038-.006-.078.016-.114.046-.036.1-.02.152-.022a.915.915 0 0 1 .115 0c.175-.002.349-.002.523 0 .097 0 .193-.002.29 0a6.12 6.12 0 0 1 .288 0c.056.004.113-.012.167.017.006.008.006.015-.001.023-.095.032-.192.01-.289.015-.13.004-.261 0-.392.002-.089 0-.094.004-.094.093 0 .671-.002 1.343.002 2.015 0 .02-.004.041 0 .062z" fill="#9f2e2b"/><path d="M20.43 26.513a3.2 3.2 0 0 1-.484.112c-.034-.036-.023-.082-.023-.124l-.001-2.502c0-.42.003-.841-.002-1.261.002-.06.048-.079.091-.101.196-.01.392-.028.59-.02.022 0 .045.002.063.02-.005.032-.031.03-.053.034-.03.004-.06.003-.09.003-.111 0-.113.001-.113.11v3.594c0 .047.005.091.022.135z" fill="#b43330"/><path d="M21.782 26.03c-.018-.003-.03-.011-.03-.03V22.64c.011-.017.03-.02.048-.02.137-.002.275-.004.412 0 .014 0 .027.005.038.014.028.039.02.084.02.127v2.864c0 .053 0 .105.019.156a4.107 4.107 0 0 1-.508.25z" fill="#a6302c"/><path d="M24.937 19.491c-.004-.032.018-.05.037-.069.64-.64 1.28-1.278 1.918-1.918.027-.026.05-.05.07.004.049.287.076.577.07.869-.054.002-.093.027-.13.064-.32.323-.642.643-.963.964l-.029.03c-.01.012-.026.023-.02.04.007.02.027.014.042.017.06.01.06.01.033.044-.089.02-.175-.019-.263-.01-.048.005-.095 0-.143.002h-.127c-.15-.002-.298-.022-.448-.015-.018-.002-.035-.006-.047-.022z" fill="#e16c38"/><path d="M26.948 19.548c.025.023.056.014.084.014.08.001.158-.001.236.015.021.027.008.053-.001.078-.227.62-.453 1.241-.678 1.862-.13.358-.263.715-.392 1.073-.01.027-.013.06-.045.074-.148.016-.297.005-.445.006a.077.077 0 0 1-.034-.01c-.031-.036-.006-.07.006-.103.1-.278.2-.556.302-.834l.524-1.441c.072-.199.147-.396.219-.594.018-.049.02-.096.023-.145a.306.306 0 0 1 .201.005z" fill="#c2c0be"/><path d="M22.288 25.78c-.028-.001-.04-.018-.04-.045V22.64c.012-.017.03-.02.049-.02.135-.003.27-.003.405 0 .017 0 .032.003.045.014.023.03.02.065.02.1v2.718a.37.37 0 0 1-.005.055c-.153.1-.309.194-.474.274z" fill="#a42f2c"/><path d="M28.318 19.645c-.061-.01-.084.02-.104.076-.169.47-.343.938-.514 1.406-.138.379-.274.758-.41 1.137l-.12.336c-.017.046-.042.07-.096.066-.087-.005-.175 0-.262 0-.041.028-.085.02-.129.01-.039-.032-.014-.069-.003-.1a362.005 362.005 0 0 1 .599-1.649c.153-.42.307-.84.457-1.26a.127.127 0 0 1 .042-.062l.522.03c.006 0 .012.007.018.01z" fill="#bbb9b8"/><path d="M20.43 26.513c-.027-.003-.043-.016-.044-.044v-.048c0-1.228 0-2.456-.002-3.684 0-.07.017-.092.088-.088.062.004.127.015.19-.009.03-.029.062-.023.096-.008a.056.056 0 0 1 .014.022c.012.043.008.087.008.13v3.454c0 .058 0 .115.036.164a2.282 2.282 0 0 1-.387.11z" fill="#b0322f"/><path d="M28.427 22.734c.09-.252.178-.505.269-.757.102-.284.207-.568.31-.851l.482-1.316c.003-.01.011-.019.017-.028.148.018.292.05.43.108.015.007.028.014.033.032a.306.306 0 0 0-.088.144l-.585 1.61c-.119.325-.236.65-.356.975-.019.05-.022.118-.097.128-.115.01-.229-.016-.343-.012-.028 0-.056-.006-.072-.033z" fill="#aeacaa"/><path d="M19.725 26.664a2.269 2.269 0 0 1-.399.055c-.033 0-.032-.027-.036-.049-.004-.024-.002-.05-.002-.075v-3.093c0-.004 0-.01-.002-.013-.005-.03.006-.055.02-.078.03-.036.046-.08.07-.118a.378.378 0 0 1 .06-.083c.016-.019.029-.04.046-.058.03-.04.064-.079.1-.115.031-.02.047-.074.1-.046.032.043.022.093.022.14v3.384c0 .051 0 .101.021.149z" fill="#bc3531"/><path d="M26.165 22.652c.032-.148.096-.286.146-.428.095-.27.197-.537.295-.806.159-.434.32-.868.474-1.303.064-.179.14-.354.188-.537.147-.01.292.02.44.014.01 0 .02.008.03.012a.19.19 0 0 0-.064.095l-.416 1.144c-.215.59-.428 1.182-.646 1.771-.01.026-.018.053-.047.065-.115.011-.23.004-.344.004-.023 0-.045-.006-.056-.031z" fill="#bebcbb"/><path d="M15.696 26.085a.148.148 0 0 1-.014-.073V25.2c0-.02-.01-.047.01-.057.021-.01.045.003.064.016.119.089.254.15.38.226.026.016.054.01.081.01h1.824c.004.046-.036.06-.062.085a1.235 1.235 0 0 1-1.05.226 1.338 1.338 0 0 1-.279-.071c-.085-.03-.091-.027-.092.067v.679c0 .025.005.05-.007.074-.299-.09-.581-.22-.855-.37z" fill="#da3937"/><path d="m24.192 22.653.293-.004a.062.062 0 0 1 .044-.016c.117-.002.234-.002.351 0 .016 0 .032.003.045.014.026.034.02.074.02.112.001.284-.001.567.001.85 0 .012 0 .023.004.035-.07.11-.168.198-.254.294-.141.157-.297.3-.451.445-.013.012-.028.021-.043.032-.047-.026-.031-.072-.031-.11-.002-.415-.001-.83-.001-1.245v-.316c0-.032-.003-.065.022-.09z" fill="#9a2d29"/><path d="M19.296 23.465c.018.029.014.062.014.094v3.077c0 .028-.012.06.016.084a1.9 1.9 0 0 1-.327.028c-.036.013-.045-.01-.052-.037-.006-.027-.004-.055-.004-.082v-2.455l.003-.096c0-.033.01-.063.027-.09.046-.065.08-.137.119-.206a.583.583 0 0 0 .044-.072c.022-.03.038-.063.054-.095a.408.408 0 0 0 .042-.07l.04-.071c.007-.008.013-.014.024-.01z" fill="#c03532"/><path d="M24.192 22.653v1.689c0 .024-.007.05.01.073-.15.15-.305.294-.482.413-.006.004-.01.01-.014.015-.027-.016-.024-.042-.024-.067v-2.064c0-.043.009-.062.056-.062.152.004.303.003.454.003z" fill="#9d2e2a"/><path d="M19.725 26.664c-.026 0-.045-.008-.043-.04v-3.55c0-.032.014-.07-.027-.092l-.003-.01c.006-.03.03-.045.05-.066.028-.027.055-.056.084-.083a.462.462 0 0 0 .082-.07c.02-.015.032-.041.062-.034.02.031.014.067.014.1v3.71l.001.096a.966.966 0 0 1-.22.039z" fill="#b93430"/><path d="M20.816 26.402c-.039.002-.054-.021-.057-.054-.002-.023 0-.046 0-.07l-.002-3.638a.32.32 0 0 1 .263 0v3.588c0 .036-.016.083.044.092-.08.034-.162.065-.248.082z" fill="#ac322e"/><path d="M18.993 23.988c-.019.02-.022.045-.028.07-.017.024-.009.067-.055.068-.025-.015-.052-.014-.08-.014h-5.054c-.032 0-.063.007-.094.015a.803.803 0 0 1-.097-.18c.014-.03.043-.032.07-.034.028-.003.055-.002.083-.002h5.1c.036 0 .073-.003.11.005.038.008.064.027.045.072z" fill="#d63836"/><path d="M24.756 13.952c.182.115.347.253.51.392.112.096.223.195.317.31-.008.368-.001.736-.004 1.105 0 .04.007.083-.023.117-.065.023-.067-.044-.1-.068-.098-.15-.212-.287-.325-.426a2.997 2.997 0 0 0-.301-.35c-.037-.033-.064-.075-.097-.112a.08.08 0 0 1-.024-.068l.001-.802c0-.036-.014-.086.046-.098z" fill="#eca040"/><path d="M18.992 23.988c.003-.037-.013-.056-.052-.055H13.68c-.032 0-.064-.004-.094.014a.756.756 0 0 1-.083-.164c.002-.032.029-.03.05-.035.025-.004.05-.003.075-.003h5.349c.025 0 .05-.001.075.003.022.003.048.002.052.034-.023.076-.07.139-.11.206z" fill="#d13835"/><path d="m18.91 24.126.055-.069.001 2.607c0 .03-.021.073.033.083-.105.019-.21.016-.316.014-.087.01-.097.004-.098-.083-.002-.23 0-.46 0-.689v-1.247c-.005-.102.064-.17.118-.243.078-.12.15-.242.207-.373z" fill="#c43633"/><path d="M26.948 19.548c-.068.015-.136-.007-.204.004-.034.026-.075.021-.112.016-.107-.015-.215-.01-.322-.013a.35.35 0 0 1-.075-.005c-.06-.017-.12-.008-.18-.009-.026 0-.052 0-.07-.022-.024-.02-.053-.01-.08-.011-.05-.002-.054-.025-.03-.061.008-.012.019-.02.029-.03.338-.338.676-.675 1.013-1.014.034-.035.068-.055.114-.026.01.298-.01.595-.048.891l-.035.28z" fill="#e06737"/><path d="M16.938 25.684c.121.036.245.033.37.029.142-.004.275-.038.402-.098.026.031.021.069.021.105v.802c0 .066-.003.132.02.195a3.973 3.973 0 0 1-.569-.09c-.082-.017-.165-.03-.244-.06-.024-.027-.022-.06-.022-.092v-.7c0-.032-.002-.064.022-.09z" fill="#d13835"/><path d="M13.209 23.036c-.013-.045-.033-.089-.035-.136.03-.037.043-.082.058-.124l.563-1.548c.17-.468.345-.934.51-1.404.01-.026.018-.053.047-.066.069-.01.136-.035.207-.012.033.032.01.066-.002.096l-.29.796-.566 1.554c-.082.227-.164.454-.248.68-.02.054-.03.097.025.134a.55.55 0 0 1-.27.03z" fill="#bebcbb"/><path d="m19.586 23.051-.097.11c-.039.027-.083.023-.126.023h-5.976c-.045 0-.092.009-.133-.022a.36.36 0 0 1-.038-.111c.062-.023.126-.02.19-.02.977-.005 1.953-.002 2.93-.002h3.117c.045 0 .093-.011.133.022z" fill="#ab312f"/><path d="M19.393 23.299c-.028.034-.034.08-.07.11-.038.027-.082.023-.126.023h-5.725c-.044 0-.092.01-.132-.023a.474.474 0 0 1-.044-.124c.021-.012.045-.009.068-.009l5.89.001c.046 0 .097-.013.139.022z" fill="#bb3432"/><path d="M13.104 22.61a2.796 2.796 0 0 1-.082-.442c.288-.787.583-1.57.855-2.362.027-.018.059-.012.087-.023.064-.002.129-.017.194-.008.026.024.004.048-.003.07-.06.172-.123.344-.186.516l-.313.86c-.159.437-.316.875-.479 1.311-.012.033-.012.087-.074.078z" fill="#b7b6b4"/><path d="M18.592 24.72c.024.022.014.051.014.077 0 .63.001 1.259-.001 1.888 0 .062.018.084.077.076-.145.018-.29.01-.434-.002-.025-.026-.022-.06-.022-.091V25.3c0-.035.002-.069.022-.1.072-.106.168-.196.22-.316.035-.06.049-.136.124-.166z" fill="#c73633"/><path d="M25.531 15.881c.038-.02.026-.055.027-.085v-1.072c0-.024-.015-.058.025-.07.15.141.274.305.399.467.02.027.047.05.056.085-.006.156-.002.312-.003.467v.737c0 .036.005.074-.022.105l-.014.001c-.042.027-.079.02-.104-.023-.06-.104-.13-.202-.187-.308-.043-.082-.1-.153-.148-.23-.014-.023-.039-.042-.029-.074z" fill="#eb9d40"/><path d="M22.762 25.507c-.03-.022-.017-.055-.017-.083V22.64a.213.213 0 0 1 .206 0l.001 2.649c0 .027-.02.067.03.08-.07.051-.142.1-.22.138z" fill="#a22f2c"/><path d="M24.756 13.952c-.035.018-.025.05-.025.079l-.001.773c0 .024.01.051-.014.071-.056-.006-.085-.052-.125-.083-.022-.018-.041-.04-.062-.06a3.388 3.388 0 0 0-.376-.318c-.041-.038-.11-.054-.11-.127.008-.207.001-.414.004-.62 0-.036-.007-.074.022-.105.243.106.469.242.687.39z" fill="#eda441"/><path d="M13.104 22.61c.06-.026.06-.09.078-.137.169-.455.334-.91.499-1.367.1-.278.195-.559.298-.837.055-.15.114-.297.163-.45.004-.012.015-.022.023-.033.058-.03.117-.052.18-.014l-.262.721c-.154.421-.309.841-.462 1.262l-.297.819c-.034.095-.067.19-.105.283-.007.017-.003.058-.045.042a1.593 1.593 0 0 1-.07-.29z" fill="#bab9b7"/><path d="M28.854 22.762c.03-.003.034-.027.042-.048l.36-.987.53-1.45c.035-.095.07-.19.101-.285.014-.041.038-.066.081-.07.036.033.034.077.03.12-.015.116-.002.234-.025.35-.066.088-.087.196-.124.296-.24.652-.473 1.306-.715 1.957-.018.05-.017.102-.036.151-.042.021-.084.001-.126 0-.039-.013-.092.022-.118-.034z" fill="#acaaa8"/><path d="m26.013 16.515.001-1.24c0-.024-.016-.057.024-.069.193.24.334.513.469.789.082.168.157.34.209.52h-.703z" fill="#ea9b3f"/><path d="M13.876 19.813c.02.038 0 .07-.013.104-.1.28-.203.559-.304.838l-.489 1.34c-.01.027-.018.057-.048.073a4.217 4.217 0 0 1-.055-.674c.024.024.024.024.033.057.083-.218.159-.433.237-.647.126-.344.25-.69.377-1.033.005-.015.01-.03.02-.043.02-.022.048-.021.074-.022.043.002.084-.014.126-.012.017.001.032.005.042.02z" fill="#b2b0af"/><path d="M22.593 13.098c.158.022.313.055.467.096.122.032.244.06.36.11.02.021.021.049.021.077v.472c0 .027-.001.055-.019.078-.02.023-.045.02-.069.01-.126-.053-.259-.084-.389-.125a1.654 1.654 0 0 0-.377-.052c-.057 0-.057-.002-.074-.038.048-.02.06-.056.059-.104a22.3 22.3 0 0 1 0-.433c0-.031-.005-.065.02-.09z" fill="#eeaa42"/><path d="M19.586 23.05h-6.37l-.008-.014c.06-.021.122-.021.183-.027.029-.002.059.004.085-.012.046-.037.103-.012.153-.03.1-.01.202-.014.302-.027a.171.171 0 0 1 .065.001c.122.016.243.006.365.006.532-.003 1.065-.001 1.598-.001h3.548c.05 0 .107-.014.147.036h.001a.227.227 0 0 1-.07.069z" fill="#a42f2e"/><path d="M19.393 23.3h-6.01c-.03 0-.06.002-.087-.015a.137.137 0 0 1-.025-.069c.03-.028.07-.021.105-.022h5.933c.047 0 .097-.012.139.022l-.055.083z" fill="#b53331"/><path d="M19.282 23.478c-.003.03-.023.049-.041.07-.016.026-.043.033-.071.034-.028.002-.056.002-.083.002h-5.544c-.048 0-.097.008-.141-.021l-.035-.084c.037-.026.08-.022.12-.022h5.619c.06 0 .12-.009.176.021z" fill="#c33633"/><path d="M19.2 23.616c-.01.037-.021.074-.055.097-.027.01-.055.008-.082.008h-5.467c-.045 0-.093.01-.133-.022a.14.14 0 0 1-.03-.068c.003-.032.03-.031.051-.035.023-.004.046-.002.069-.002h5.528c.04 0 .083-.01.119.022z" fill="#ca3734"/><path d="M23.406 13.938c.017-.027.014-.057.014-.087v-.548c.193.048.372.132.553.21.033.015.064.033.096.05v.66c0 .03.002.06-.015.087-.028.019-.047-.004-.066-.016-.065-.04-.122-.088-.188-.124-.117-.069-.23-.142-.358-.19-.016-.011-.04-.015-.036-.043z" fill="#eda741"/><path d="M24.95 23.643c-.035-.017-.026-.05-.026-.078v-.912c.018-.023.045-.02.07-.02.196-.002.393-.006.59-.004.029 0 .06 0 .084.02l.03.004c.006.008.007.016.005.026-.013.027-.033.05-.048.075l-.03.043c-.01.016-.022.032-.032.05l-.028.041c-.011.016-.026.03-.036.046-.009.014-.02.027-.028.042-.009.014-.02.027-.03.04-.01.013-.018.028-.03.04a.268.268 0 0 0-.028.04c-.012.016-.027.03-.037.048-.014.021-.033.04-.046.063-.019.023-.036.047-.053.071a.363.363 0 0 1-.078.075l-.249.29z" fill="#982c29"/><path d="M19.282 23.478c-.038.022-.075-.001-.113-.001h-5.707c-.032 0-.063.014-.095.001a.15.15 0 0 1-.027-.069h5.984l-.028.056-.014.013z" fill="#c03533"/><path d="M13.463 23.699h5.596c.029 0 .06-.011.085.014-.004.028-.013.054-.04.069-.021-.023-.048-.014-.072-.014h-5.459c-.024 0-.051-.009-.07.015a.22.22 0 0 1-.04-.084z" fill="#cd3735"/><path d="M18.248 25.202v1.557c-.065 0-.13.003-.193-.014-.088-.014-.09-.016-.09-.1-.003-.379.002-.757-.003-1.135 0-.016.001-.032.01-.046a.215.215 0 0 0 .069-.07c.08-.051.132-.134.207-.192z" fill="#ca3734"/><path d="M13.64 19.836c-.061.175-.122.35-.185.524-.102.284-.206.568-.31.851-.048.128-.089.26-.15.39-.032-.037 0-.08-.028-.107v-.521c0-.016-.001-.033.011-.046.094-.229.172-.463.257-.695.046-.125.102-.246.127-.377.002-.007.009-.01.015-.014.088-.007.175-.045.264-.005z" fill="#afadab"/><path d="M16.938 25.684v.882a2.008 2.008 0 0 1-.387-.111c-.015-.022-.014-.048-.014-.073v-.702c0-.016 0-.033.002-.048.006-.043.026-.056.07-.037.104.047.214.078.329.09z" fill="#d33836"/><path d="M29.917 20.97a7.19 7.19 0 0 1-.166.94 4.421 4.421 0 0 1-.353.958c-.004.007-.013.012-.02.017a.313.313 0 0 0-.008-.004.118.118 0 0 0-.064-.034c-.035-.012-.078-.008-.1-.047 0-.066.032-.123.054-.182l.529-1.455.075-.207c.01-.027.018-.056.05-.075.014.033.012.061.003.09z" fill="#a9a7a6"/><path d="M29.917 20.97v-.068l-.013-.003-.691 1.904c-.041.028-.078.023-.11-.014-.035-.057 0-.108.019-.157.142-.397.288-.792.432-1.188.122-.333.243-.667.366-1 .008-.022.008-.063.053-.052a4.086 4.086 0 0 1-.056.579z" fill="#aba9a8"/><path d="M19.448 23.216H13.27a.092.092 0 0 1-.017-.055h6.235a13.18 13.18 0 0 0-.041.055z" fill="#b13330"/><path d="M17.972 25.464a.375.375 0 0 1 .014.115c0 .354.001.709-.001 1.063 0 .057.007.096.07.104a1.53 1.53 0 0 1-.304-.028c-.039-.015-.042-.046-.042-.082.002-.34.001-.68.001-1.02.098-.032.178-.096.262-.152z" fill="#ce3734"/><path d="M19.2 23.616h-5.681c-.029 0-.06-.011-.085.015-.018-.02-.024-.044-.032-.068l.103-.002h5.635c.034 0 .07.006.101-.014-.005.029-.014.055-.041.07z" fill="#c73634"/><path d="M10.203 20.474a.365.365 0 0 1-.135-.054c0-.054.046-.05.079-.055l.583-.103 1.518-.268c.072-.013.144-.025.217-.036.004 0 .038.016.015-.016.019-.032.051-.026.08-.027.043 0 .085-.013.129-.014.12-.001.24-.027.361-.03.02 0 .041-.005.061.003.025.027.01.053-.002.08-.02.024-.047.026-.074.03-.753.131-1.505.266-2.257.398l-.495.088c-.026.005-.053.017-.08.004z" fill="#da6f38"/><path d="M12.482 19.948c.01.023.011.024-.013.028l-.39.069-.672.117-.988.173-.31.055c-.02.003-.034.012-.041.03-.031-.007-.047-.029-.058-.057l.004-.042c.142-.079.302-.094.458-.125.018-.003.035-.009.052-.013.033-.026.073-.025.11-.031.156-.024.312-.05.468-.072.167-.021.333-.046.5-.068.147-.016.294-.035.442-.048.118-.01.236-.019.354-.034.029-.003.06-.005.084.018z" fill="#d76837"/><path d="m25.52 22.928.033-.045c.026-.017.056-.018.086-.018h3.659c.027 0 .055-.002.078.019l.002.001-.069.055a.365.365 0 0 1-.135.021h-3.55c-.037 0-.08.01-.104-.033z" fill="#a1a2a0"/><path d="M25.32 23.201c.009-.028.032-.045.05-.067.027-.021.059-.02.091-.02h2.75c.043 0 .088-.004.12.034-.08.031-.165.026-.247.036-.133.016-.268.021-.402.031-.124-.005-.247.008-.37.009-.63.003-1.259 0-1.888 0-.036 0-.074.008-.104-.023z" fill="#c0c1bf"/><path d="M10.547 20.543a.566.566 0 0 1-.166-.026c.015-.046.057-.051.094-.058.49-.084.98-.173 1.47-.258l1.016-.179c.043-.007.086-.02.127.004.02.03.008.055-.01.08-.124.045-.256.055-.384.077l-1.95.345c-.066.01-.13.022-.197.015z" fill="#dd7a3a"/><path d="m26.579 22.663.297-.825.299-.818.499-1.373c.012-.034.03-.047.064-.043h.013c.009.06-.025.111-.044.163-.192.523-.38 1.047-.572 1.57-.122.33-.242.662-.361.994l-.122.336a.05.05 0 0 1-.02.01c-.02.005-.04.004-.053-.014z" fill="#bbb9b8"/><path d="M10.547 20.544c.355-.065.711-.13 1.067-.192.435-.077.87-.15 1.305-.225.051-.01.101-.028.155-.026.02.042.008.075-.029.102-.361.052-.719.124-1.079.186-.337.057-.674.118-1.01.178-.034.006-.07-.003-.101.015-.104 0-.207-.016-.308-.039z" fill="#e0803b"/><path d="M13.087 20.032c-.131 0-.257.034-.385.056l-.861.15c-.274.05-.546.102-.82.15-.177.03-.355.057-.533.087a.206.206 0 0 0-.107.042.597.597 0 0 1-.178-.042c.492-.114.993-.18 1.488-.275.386-.075.774-.139 1.162-.206.083-.015.167-.02.248-.045.021.032.01.058-.014.083z" fill="#dc7539"/><path d="M22.593 13.098c0 .184-.003.367.001.551.002.067-.019.093-.084.082a.053.053 0 0 1-.02.013c-.05.009-.102.005-.154.006a.036.036 0 0 1-.017-.018c-.018-.065-.009-.132-.01-.198v-.37c0-.039-.001-.08.035-.106.084.005.167.017.249.04z" fill="#efac42"/><path d="M10.855 20.582c.022-.05.073-.03.107-.037.336-.064.673-.121 1.01-.18l1.016-.179c.022-.004.04 0 .06.01.02.02.018.043.008.067-.082.039-.172.044-.259.06-.14.025-.279.051-.419.074-.248.04-.495.093-.744.13a6.807 6.807 0 0 0-.318.056c-.103.02-.209.026-.314.015-.05-.003-.1.003-.147-.016z" fill="#e3853c"/><path d="M13.046 20.266c.001-.023.01-.046.001-.07a.225.225 0 0 0 .026-.096l.014-.069.014-.083.016-.067a.305.305 0 0 1 .248-.025c.03.048-.006.089-.02.129-.1.282-.205.563-.309.845-.013.036-.02.076-.058.097l.014-.248c-.024-.04.001-.08-.004-.12-.001-.03.008-.058.012-.087l.004-.053c.003-.021.009-.042.011-.063.004-.032.008-.065.03-.09z" fill="#aaa8a6"/><path d="M25.52 22.928c.025.017.053.013.08.013h3.71c-.03.03-.07.034-.11.042a.688.688 0 0 1-.155.02h-3.442c-.04 0-.085.012-.111-.034l.028-.041z" fill="#a9aba8"/><path d="M25.491 22.969c.03.02.063.013.094.013h3.616a.345.345 0 0 1-.125.042c-.07.013-.141.019-.212.019h-3.297c-.037 0-.08.012-.105-.033l.03-.041z" fill="#aeafac"/><path d="m13.046 20.266-.014.096c-.223.046-.447.081-.671.12-.265.048-.53.098-.795.137a.588.588 0 0 1-.205.007 2.27 2.27 0 0 1-.359-.028 3.33 3.33 0 0 0 .362-.045c.094-.016.19-.03.285-.048.09-.016.185-.015.275-.05.04-.017.091-.01.138-.021.111-.028.225-.049.338-.064.137-.02.272-.054.411-.067.078-.007.154-.04.235-.037z" fill="#e68d3d"/><path d="m25.32 23.2 2.283.003c.026 0 .055-.01.079.012-.08.027-.163.016-.244.025-.22.022-.44.03-.66.045h-.076c-.098-.008-.196-.002-.293.002-.188.007-.376.005-.563.006h-.481c-.034 0-.07.005-.098-.022a.189.189 0 0 1 .053-.07z" fill="#c8c9c7"/><path d="M25.404 23.09a.063.063 0 0 1 .03-.04c.021-.015.047-.013.072-.013h3.347c.029 0 .06-.009.086.014a.813.813 0 0 1-.208.041c-.12.014-.242.023-.363.022-.953-.004-1.907 0-2.86-.002-.036 0-.075.01-.104-.021z" fill="#b5b7b5"/><path d="m25.404 23.091 2.507.002h.82a2.523 2.523 0 0 1-.4.056c-.064-.017-.13-.015-.197-.015h-2.765a.088.088 0 0 1 .035-.043z" fill="#babbb9"/><path d="M11.36 20.626c.2-.007.391-.06.586-.092.278-.046.555-.096.833-.144.063-.01.125-.021.187-.036.025-.005.045-.004.066.008l-.013.056c-.014.03-.042.033-.069.038-.346.06-.692.125-1.039.18a1.255 1.255 0 0 1-.342.004c-.07-.004-.14.006-.208-.014z" fill="#e8933e"/><path d="M28.939 23.052a32877.897 32877.897 0 0 1-3.506-.001l.03-.041c.028.019.061.013.093.013h3.52a.346.346 0 0 1-.137.029z" fill="#b1b3b0"/><path d="M26.648 22.663c.032-.146.095-.28.144-.42.1-.288.207-.573.312-.859.153-.419.308-.837.46-1.257.064-.174.125-.349.187-.523l.028.001c-.192.527-.385 1.053-.576 1.58-.14.382-.278.765-.415 1.148-.04.11-.09.216-.113.33-.01.009-.018.009-.027 0z" fill="#bebcbb"/><path d="m25.267 23.27 1.357.002c.026 0 .055-.01.079.012-.315.023-.629.034-.943.047-.187.007-.375-.005-.56.022.005-.041.045-.054.067-.082z" fill="#d0d1cf"/><path d="M11.568 20.64c.3.014.588-.073.88-.117.176-.026.35-.06.526-.092.015-.002.03-.009.045-.013l-.001.055a.085.085 0 0 1-.066.044c-.278.045-.554.108-.834.139a1.012 1.012 0 0 1-.247-.002c-.1-.005-.202.006-.303-.015z" fill="#e9973e"/><path d="M22.137 13.772c.029-.221.009-.444.013-.665.001-.044.008-.073.06-.067l.038.004c.032.018.021.048.02.074v.507c0 .039.003.077.022.113-.01.058-.064.033-.095.05-.021 0-.042.001-.057-.016z" fill="#efac42"/><path d="M22.29 13.744c-.048-.004-.042-.04-.042-.072v-.628c.034-.007.064.008.096.013a.314.314 0 0 0-.014.102v.585c-.013.012-.027.012-.04 0z" fill="#efae42"/><path d="M11.872 20.653c.264.01.517-.064.774-.104.101-.016.201-.033.302-.048.026-.004.047-.017.07-.028l-.013.082c-.02.022-.048.026-.075.031-.151.028-.303.051-.454.083a.372.372 0 0 1-.15-.002c-.152-.003-.303.008-.454-.014z" fill="#eb9d40"/><path d="M12.326 20.668c.157.004.303-.061.458-.078.074-.007.147-.023.22-.034.01.042-.008.082-.012.123l-.592-.003c-.025 0-.05-.006-.074-.008z" fill="#eca241"/><path d="m11.104 20.099-.505.08c-.025.003-.05.002-.075.004.002-.037.034-.053.056-.075l3.25-3.251c.035-.034.067-.07.1-.104.18-.021.358-.038.538-.043.011.03-.009.047-.025.067-.016.019-.035.036-.053.054l-3.196 3.195c-.027.027-.052.058-.09.073z" fill="#f0b143"/><path d="M19.558 13.25c.2-.057.403-.098.607-.136.041.043.035.097.036.15v1.04c0 .374-.001.749.001 1.123.012.04-.008.07-.03.1-.097.136-.184.28-.284.412-.078.105-.169.198-.278.272-.023.015-.053.038-.068-.012-.008-.034-.006-.068-.006-.103v-2.72c0-.042-.01-.088.022-.125z" fill="#f2b744"/><path d="m13.296 16.809-3.177 3.18a2.807 2.807 0 0 1-.05.047c-.028.028-.04.006-.053-.017.011-.19.02-.38.05-.567.028-.04.068-.067.102-.1l2.378-2.378c.031-.03.055-.068.088-.097l.661-.068z" fill="#f2ba44"/><path d="m11.104 20.098.055-.06 3.243-3.242c.026-.026.053-.05.067-.086l.109-.016c.109-.046.225-.036.339-.041.033.01.026.032.017.055-.014.035-.04.06-.066.087l-3.182 3.181a.182.182 0 0 1-.086.054l-.496.068z" fill="#efad42"/><path d="M18.248 13.717c.148-.073.301-.132.456-.19.034.01.043.038.047.069.003.027.002.055.002.082v2.672c0 .041.006.083-.015.122-.052.036-.113.033-.172.036-.073.004-.147.002-.22.001-.035-.006-.074.007-.104-.022-.02-.032-.016-.067-.016-.1v-2.564c0-.037-.005-.075.022-.106z" fill="#f3bd45"/><path d="M12.634 16.877c-.005.037-.029.061-.054.086l-2.42 2.42a.34.34 0 0 1-.095.069c.013-.219.048-.433.09-.648.012-.033.037-.056.062-.08L11.94 17a.473.473 0 0 1 .046-.041l.648-.083z" fill="#f4c045"/><path d="M19.558 13.251v2.975c.005.027-.018.035-.035.045a1.243 1.243 0 0 1-.338.15c-.027.008-.056.016-.07-.02-.008-.032-.007-.065-.007-.097v-2.809c0-.04-.005-.083.023-.119.14-.046.281-.095.427-.125z" fill="#f2b944"/><path d="M19.13 13.376v3.042c-.035.045-.09.042-.137.054a1.051 1.051 0 0 1-.143.021c-.04-.001-.084.012-.12-.019V13.63c0-.036.005-.074-.026-.102.139-.059.28-.11.427-.151z" fill="#f3bb44"/><path d="M17.669 14.007c.127-.08.262-.146.4-.206.012.024.008.05.008.074v2.52c-.002.1-.012.11-.11.113a.276.276 0 0 0-.075.01c-.072.003-.145.022-.214-.015-.025-.04-.017-.085-.017-.128-.001-.74-.001-1.48 0-2.219 0-.05-.016-.1.008-.15z" fill="#f4c048"/><path d="M16.469 14.78c.159-.126.321-.246.494-.352.028.024.024.058.024.09v1.924c0 .09-.002.09-.128.116-.102.005-.203.02-.305.02-.032 0-.065.003-.091-.02-.018-.027-.016-.058-.016-.088V14.88c0-.035 0-.07.022-.099z" fill="#f6c64f"/><path d="M20.193 15.454c-.019-.029-.014-.062-.014-.093v-1.885c0-.12.01-.242-.014-.362.165-.029.33-.054.496-.07-.035.02-.027.055-.027.086v1.731c.005.042-.03.063-.049.092-.032.046-.067.09-.101.135l-.073.095c-.014.018-.027.038-.04.058-.01.015-.021.028-.032.042a.888.888 0 0 0-.04.06c-.034.038-.045.1-.106.111z" fill="#f1b543"/><path d="M16.855 16.542c.001-.001.003-.004.005-.004.105-.029.105-.029.105-.148l-.002-1.962a4.13 4.13 0 0 1 .402-.254c.04.029.035.073.035.113.002.234.001.469.001.703v1.405c0 .039.005.078-.013.115-.062.056-.139.036-.21.04-.065.002-.13-.008-.194.006a.158.158 0 0 1-.036.005c-.032 0-.066.008-.093-.019z" fill="#f5c44c"/><path d="M17.379 16.516v-2.233a.322.322 0 0 0-.014-.108c.1-.06.198-.12.303-.168a.371.371 0 0 1 .014.115v2.38a.381.381 0 0 1-.303.014z" fill="#f5c24a"/><path d="m16.47 14.78-.001 1.777c-.027.026-.062.03-.095.031-.093.002-.186.011-.279.017-.026-.003-.054 0-.075-.022-.017-.03-.015-.062-.015-.094-.002-.428.003-.857-.002-1.285 0-.019 0-.037.01-.054.145-.132.294-.259.456-.37z" fill="#f6c853"/><path d="M16.013 15.15a.37.37 0 0 1 .015.108v1.327c-.023.023-.055.023-.084.025-.145.014-.29.023-.436.027-.014 0-.027-.002-.038-.012-.017-.024-.016-.052-.016-.08v-.82a.16.16 0 0 1 .01-.061c.174-.18.354-.355.55-.514z" fill="#f7cb57"/><path d="M17.89 16.501c.03-.025.066-.013.098-.012.051.003.07-.012.068-.065-.004-.104-.001-.207-.001-.31v-2.22c0-.031-.006-.064.013-.093a1.04 1.04 0 0 1 .18-.084v2.77c-.119.031-.237.061-.359.014z" fill="#f4bf46"/><path d="M15.463 15.664c.016.025.013.053.013.08v.881c-.039.035-.088.021-.132.027-.118.015-.237.02-.356.031-.018.002-.036 0-.05-.015l-.36.026c.166-.24.355-.46.549-.677.108-.122.218-.241.336-.353z" fill="#f8cd58"/><path d="M11.986 16.96c0 .023-.018.036-.032.05l-1.778 1.777-.022.017.056-.302a.29.29 0 0 0 .092-.07l1.385-1.386a.673.673 0 0 1 .05-.046c.082-.023.165-.033.25-.04z" fill="#f5c549"/><path d="M11.738 17c-.001.029-.024.043-.042.06l-1.414 1.413c-.019.019-.034.055-.072.029l.054-.235c.41-.391.805-.797 1.204-1.198.011-.011.026-.019.034-.033.078-.017.155-.035.236-.036z" fill="#f6c64c"/><path d="M11.502 17.036a.174.174 0 0 1-.053.078l-1.099 1.1c-.025.024-.049.048-.086.053.028-.107.052-.215.09-.32a.435.435 0 0 0 .09-.072l.701-.7c.03-.029.052-.064.082-.092.091-.02.182-.04.275-.047z" fill="#f6c850"/><path d="M11.228 17.084c-.005.036-.03.06-.054.085l-.739.739c-.023.022-.043.05-.081.04.06-.213.14-.42.24-.617a.242.242 0 0 1 .135-.111 2.61 2.61 0 0 1 .499-.136z" fill="#f7cb57"/><path d="m20.4 15.178.069-.096a.337.337 0 0 0 .133-.094c.276-.278.553-.555.831-.831a.504.504 0 0 0 .097-.124c.048-.056.127-.061.18-.11l.427-.15.055-.001c.02.027-.003.042-.016.06-.018.02-.039.039-.058.058l-5.64 5.638c-.033.032-.065.065-.09.104-.014.014-.033.017-.052.018-.08-.003-.159.012-.239.016-.068-.008-.135.014-.203.013-.037-.002-.075 0-.112-.001a.219.219 0 0 1-.048-.006c-.034-.009-.037-.03-.02-.057.016-.023.037-.04.056-.06l3.04-3.039c.014-.014.03-.027.044-.042.094-.013.186-.028.276-.056.153-.04.298-.099.428-.193.168-.102.29-.25.398-.41.08-.12.158-.24.236-.36.041-.036.066-.083.097-.125.03-.006.04-.027.041-.055.01-.014.02-.028.028-.042.03-.006.04-.027.042-.055z" fill="#e9973e"/><path d="M21.53 14.034c.006.035-.01.06-.034.084-.31.309-.62.618-.929.929-.03.03-.06.039-.098.035l.165-.22c.148-.17.284-.35.455-.497.131-.114.262-.228.41-.32.01-.005.02-.007.031-.011z" fill="#e9973e"/><path d="M18.592 24.719c-.057.043-.065.123-.123.166h-3.012a.3.3 0 0 1-.195-.062 24.22 24.22 0 0 1-.431-.335l.065-.003h3.729c.026 0 .056-.01.078.014-.021.08-.092.137-.11.22z" fill="#da3939"/><path d="M21.02 22.64h-.263l.002-.005c-.012-.026.001-.05.01-.073.32-.882.644-1.764.964-2.647.046-.127.09-.255.14-.381.01-.025.014-.055.043-.067.166-.01.33-.01.496 0 .048.028.024.07.013.104-.043.125-.088.25-.136.374-.084.223-.163.448-.246.672l-.247.678c-.083.226-.165.452-.246.679l-.224.613c-.007.02-.016.039-.04.043-.08.003-.16-.006-.238.005l-.028.004z" fill="#e4e3e2"/><path d="M21.048 22.635c.082-.026.166-.004.248-.011a.146.146 0 0 1 .085-.022c.16 0 .319-.002.478.001.179-.002.357-.001.536 0 .108.005.216-.001.324.003.057.003.087-.02.106-.073.081-.227.164-.454.246-.68l.585-1.605.249-.687c.01-.027.015-.058.04-.079l.068-.004.083.005c.064.01.129.003.193.004.069.002.076.01.052.077l-.086.233-.799 2.195-.212.583c-.007.021-.013.044-.03.06l-.263.005h-1.2l-.703-.005z" fill="#d6d5d4"/><path d="M23.213 22.635c.023-.125.078-.239.12-.357.099-.282.204-.563.307-.844l.478-1.309c.07-.193.14-.387.212-.58.014-.039.007-.052-.037-.052-.066-.001-.132.013-.197-.01.258-.007.515 0 .772.013.023.025.01.052.001.077-.178.494-.36.987-.54 1.48-.172.48-.347.957-.52 1.436-.02.051-.03.107-.072.147l-.524-.001z" fill="#d3d2d1"/><path d="M23.737 22.636c.1-.275.198-.55.297-.826l.309-.843c.155-.423.31-.846.463-1.27.024-.065.06-.128.062-.2l.07-.005.041.004c.039.01.078.004.116.005.08.001.083.003.058.076-.049.141-.101.28-.152.42-.178.486-.353.971-.53 1.456l-.404 1.113a.173.173 0 0 1-.04.071h-.29z" fill="#d0cfce"/><path d="m25.723 16.171.19.322c.022.037.057.017.086.024-.002.036-.034.053-.055.075l-2.8 2.8c-.022.021-.053.038-.055.075-.017.018-.04.02-.064.02-.185-.004-.371.003-.556-.004-.038-.008-.042-.03-.028-.061.013-.028.035-.048.056-.07l3.142-3.139c.022-.022.04-.061.084-.042z" fill="#e37839"/><path d="M22.44 19.466h.65l.454.013c.022.035 0 .067-.011.098-.119.327-.239.655-.357.983l-.512 1.403-.223.614a.128.128 0 0 1-.028.047h-.551c-.026-.035-.005-.067.006-.098.1-.28.202-.557.303-.836.17-.468.34-.937.513-1.405.085-.232.168-.466.255-.699.032-.084.03-.087-.06-.087h-.366c-.03 0-.06.003-.086-.017h-.524c-.025.017-.05.019-.072-.004 0-.01.003-.017.012-.021.032-.016.067-.012.101-.012h.399c.034 0 .069-.004.098.02z" fill="#dcdbda"/><path d="M22.413 22.624c.033-.148.097-.286.147-.428.1-.283.205-.564.308-.845.154-.421.309-.842.462-1.264.073-.202.143-.405.214-.608.134-.007.267-.002.4.004-.037.16-.106.311-.16.466-.098.281-.204.56-.306.839l-.48 1.316c-.057.157-.115.314-.17.471-.013.037-.032.05-.07.05-.115-.003-.23-.001-.345-.001z" fill="#d9d8d7"/><path d="m25.616 22.789.028-.041c.03-.022.064-.023.099-.023.702 0 1.405-.003 2.107.004.156.001.312 0 .467.012.022.001.046.005.068-.006l.042-.001c.142.019.284.029.427.028.039.027.083.007.124.014-.004.031-.03.03-.052.033-.025.004-.05.002-.075.002h-3.11c-.042 0-.087.01-.125-.022z" fill="#919391"/><path d="M28.385 22.735c-.023.023-.052.012-.079.012h-2.662c.014-.025.027-.052.05-.07.156-.01.312-.005.468-.003.03 0 .06.005.089.005.282-.005.563.007.845.007.025 0 .05.005.075-.006l.593.025.621.03z" fill="#8c8d8b"/><path d="M27.17 22.68c-.018.02-.042.012-.064.012h-1.341c-.024 0-.052.01-.07-.016l.002-.023.468-.001c.137.025.276.008.414.011l.055.003c.06.017.121-.005.18.012l.357.002z" fill="#878885"/><path d="M26.814 22.678c-.06-.005-.121.015-.18-.012a.363.363 0 0 0 .014-.003h.027l.137.002.002.013z" fill="#8c8d8b"/><path d="m25.668 22.649-.744.004-.439-.004-.006-.01c.066-.044.14-.014.209-.022.14.004.28 0 .42.003.049 0 .073-.02.09-.066.298-.836.605-1.67.907-2.504l.154-.42c.012-.032.02-.066.044-.092.147-.01.294.01.441.014.03.02.033.046.021.078l-.443 1.205c-.117.32-.233.64-.348.961-.103.284-.204.569-.306.853z" fill="#c5c4c2"/><path d="m24.703 22.635-.223.005a.763.763 0 0 1-.163-.002c-.024-.028-.012-.057-.002-.085l.45-1.236.47-1.295.17-.466a.11.11 0 0 1 .029-.046h.125c.07.01.141.003.212.005.06.001.069.01.048.07l-.099.271-.69 1.896c-.1.276-.202.552-.3.829-.007.02-.011.04-.027.054z" fill="#cbcac9"/><path d="M25.434 19.51c-.033.145-.096.281-.145.421-.1.288-.208.573-.312.859l-.474 1.296-.175.485a.169.169 0 0 0-.011.067 2.478 2.478 0 0 1-.29-.001c.028-.118.078-.23.118-.343.1-.283.206-.564.308-.845.16-.437.32-.873.478-1.31.071-.196.14-.392.213-.587.013-.036.005-.043-.03-.045-.045-.002-.092.012-.135-.01a3.73 3.73 0 0 1 .455.013z" fill="#cecdcc"/><path d="m21.83 19.478.072.005c-.03.132-.086.255-.131.382-.1.282-.205.563-.308.844l-.464 1.269-.24.657-.098.005c-.22-.003-.441.005-.662.012-.127.037-.257.022-.385.011-.02-.01-.022-.022-.002-.034.021-.011.045-.01.068-.01h.2c.097 0 .098 0 .132-.094l.3-.822c.232-.637.462-1.274.695-1.91l.07-.195c.026-.074.018-.085-.059-.085h-.579c-.02-.002-.041-.003-.056-.02.003-.023.02-.026.038-.03.203-.009.407-.004.61-.003.07-.001.141-.003.212 0 .165.002.33 0 .495.001.031 0 .065-.007.092.017z" fill="#e8e7e6"/><path d="m19.6 22.649.4.003c-.016.03-.057.034-.07.067l-.054.042a.177.177 0 0 1-.1.023l-2.418-.001c-.04 0-.086.009-.106-.043.025-.036.064-.025.098-.027.034-.002.068 0 .102 0a.197.197 0 0 0 .084-.008c.068-.01.137-.004.206-.005a.19.19 0 0 0 .082-.008.118.118 0 0 1 .024-.004c.217-.014.433-.016.649-.03.143.01.285-.017.429-.014.164-.001.329.009.493-.011.06-.008.123-.019.18.016z" fill="#902a2a"/><path d="M24.703 22.635c.008-.102.058-.192.09-.286.119-.334.243-.666.365-.999l.477-1.307c.057-.157.113-.314.171-.47.014-.04.006-.052-.037-.053-.07-.002-.141.015-.21-.01.142-.012.284.013.427.009l.07.005c.06.014.122-.005.182.01.022 0 .043.002.065.003.004.031-.011.057-.022.085l-.4 1.102-.525 1.437c-.05.14-.101.28-.148.42-.014.043-.034.058-.078.057-.143-.003-.285-.002-.427-.003z" fill="#c8c7c5"/><path d="M19.793 22.83a.322.322 0 0 1-.083.083.187.187 0 0 1-.106.022h-4.663c-.041 0-.09.01-.116-.039.008-.034.038-.028.06-.03.027-.001.054 0 .08-.009.115-.01.23-.01.345-.027.069-.015.14.006.208-.014.072-.016.147.006.22-.014.068-.013.139.003.207-.013a.186.186 0 0 1 .078.001c.115.016.23.007.344.007 1.107-.006 2.214-.001 3.32-.002.037 0 .085-.018.106.036z" fill="#9b2d2c"/><path d="M14.827 22.888c.021.036.057.025.087.025h4.796l-.056.069a.367.367 0 0 0-.115-.014h-5.467c-.029 0-.06.01-.086-.011.036-.034.085-.018.126-.033.1-.008.201-.013.302-.025.073-.01.147-.005.22-.018.045-.003.09-.001.136-.008.021-.003.042-.004.057.015z" fill="#a02e2d"/><path d="M19.793 22.83c-.025-.025-.057-.013-.085-.013l-3.608-.001c-.029 0-.06.01-.087-.01a.039.039 0 0 1 .019-.016c.05-.014.102.003.152-.016.067-.014.137.007.204-.014.073-.015.148.006.22-.014.092-.016.186.007.277-.014.104-.013.21.002.314-.015.02-.003.041 0 .056.019.02.036.056.025.087.025h2.534a.176.176 0 0 1-.083.07z" fill="#952b2b"/><path d="M21.241 19.478h-.207c-.016-.02-.001-.035.01-.049.013-.018.03-.033.047-.05 1.318-1.317 2.636-2.635 3.955-3.951.026-.026.044-.076.098-.057.094.12.19.24.282.362.015.02.035.038.036.065-.009.036-.04.055-.064.08a3183.483 3183.483 0 0 1-3.488 3.484c-.037.038-.056.096-.115.11-.185.004-.37-.005-.554.006z" fill="#e47d3a"/><path d="m20.413 19.481-.031.01c-.016.021-.04.023-.062.023-.172 0-.343.007-.514-.003-.037-.01-.042-.031-.022-.061.014-.021.033-.038.051-.056l4.62-4.618c.023-.023.04-.06.083-.053l.178.152.125.151c.007.018-.004.03-.014.043-.013.016-.029.03-.043.044-1.444 1.444-2.888 2.886-4.33 4.33-.014.013-.029.024-.04.038z" fill="#e5843b"/><path d="M20.413 19.481c.002-.037.033-.054.055-.076l4.313-4.312c.021-.021.04-.044.06-.067.12.1.206.227.303.346-.03 0-.044.023-.061.04l-4.007 4.006c-.017.017-.04.03-.042.06l-.62.003z" fill="#e4813b"/><path d="M21.82 19.464c-.004-.032.018-.05.038-.07l3.562-3.56c.013-.013.028-.024.043-.036.034.019.045.056.068.084l.192.29c-.03 0-.044.023-.061.04l-3.169 3.167c-.024.025-.048.05-.052.087l-.602.002c-.008.006-.014.005-.019-.004z" fill="#e37b3a"/><path d="M26.238 19.534c-.061-.004-.123.014-.183-.01.061-.001.123-.009.183.01z" fill="#c5c4c2"/><path d="M17.89 16.501c.12.01.238-.012.358-.013h.096c-.01.045-.047.031-.071.029-.07-.007-.116.021-.163.069L15.094 19.6a.358.358 0 0 0-.093.133c-.07.025-.146.009-.217.027-.073-.01-.146.027-.219-.003-.074-.011-.146.015-.22.014-.061-.009-.12.017-.18.014-.068.003-.136.017-.205.011-.036.013-.041-.006-.03-.034.008-.022.027-.036.044-.052l3.127-3.127a.28.28 0 0 1 .071-.054c.07.001.139-.002.207-.015.102.002.203.002.304-.013l.206-.001z" fill="#eb9e40"/><path d="M14.565 19.758c.073-.01.146-.022.22-.014.022.033 0 .063-.01.091-.12.342-.246.682-.37 1.023l-.526 1.448c-.078.216-.16.43-.234.648a.111.111 0 0 1-.017.03c-.049.021-.101.008-.152.013-.079-.005-.084-.01-.057-.086l.505-1.379c.118-.322.234-.645.35-.967l.291-.807z" fill="#c2c0be"/><path d="M17.172 16.53c-.018.02-.036.042-.055.061l-3.133 3.132c-.014.015-.03.028-.042.045-.017.022 0 .027.018.03-.025.02-.056.01-.084.015-.014 0-.028-.002-.042-.004-.017-.023.001-.038.014-.053.017-.022.038-.04.057-.06l3.053-3.052c.01-.01.019-.02.03-.029.041-.03.04-.054-.01-.072.063-.028.13-.007.194-.013z" fill="#eda441"/><path d="M24.538 14.723c-.02.017-.039.032-.057.05l-4.65 4.649c-.02.02-.05.036-.052.07-.022.026-.053.02-.082.02-.056.004-.113-.006-.168.01-.134.01-.267.01-.401.002-.038-.01-.038-.035-.024-.064.014-.027.036-.047.058-.068.755-.745 1.492-1.51 2.244-2.259.892-.888 1.781-1.78 2.672-2.669.025-.024.042-.062.087-.058.134.095.261.196.373.317z" fill="#e6873c"/><path d="M24.165 14.406c-.019.017-.039.033-.056.05-1.206 1.205-2.415 2.405-3.614 3.616-.446.45-.895.896-1.34 1.348-.024.025-.048.05-.052.086-.046.041-.107.007-.157.03-.15.01-.302.01-.452.002-.045-.014-.042-.043-.02-.075.017-.026.043-.047.065-.07l5.14-5.137.076-.079c.014-.014.026-.035.051-.019.09.039.156.117.248.152.028.044.078.06.11.096z" fill="#e68a3c"/><path d="M25.616 22.789H28.9c.026 0 .055.01.078-.014.042.003.082.021.125.013a.27.27 0 0 0 .11.014.395.395 0 0 0 .11.028c-.004.032-.03.03-.052.034-.02.002-.041 0-.062 0h-3.516c-.038 0-.079.011-.11-.022.003-.022.02-.036.033-.053z" fill="#969895"/><path d="m16.096 16.585.373-.028c.129.009.257-.02.386-.014h.097c.018.027-.003.043-.017.06-.016.02-.035.036-.053.054l-3.12 3.12a.506.506 0 0 1-.052.046c-.022.006-.048-.003-.069.013l-.275.02-.249.026-.427.038c-.002-.007 0-.017.006-.017.083-.012.128-.077.18-.13 1.04-1.037 2.078-2.075 3.116-3.113.03-.031.059-.065.104-.075z" fill="#eda441"/><path d="M13.71 19.823c.003-.035.032-.05.052-.07l3.134-3.134c.022-.022.053-.039.055-.076h.069c.013.001.031-.004.034.014.002.008-.007.02-.014.028-.012.014-.026.026-.039.04-1.037 1.036-2.074 2.072-3.11 3.11-.022.021-.053.038-.057.074-.041.006-.081.023-.124.013z" fill="#eb9e40"/><path d="M16.386 19.62c.002-.041.036-.058.06-.082l5.691-5.69c.022-.023.053-.039.056-.076.027-.025.07 0 .096-.028h.055c.05-.018.103.005.152-.013a.3.3 0 0 0 .014 0c.027.025.061.012.092.012.128 0 .253.025.377.057.018.026-.003.042-.017.059-.018.021-.039.04-.058.06l-5.46 5.457c-.068.068-.14.133-.197.21a.075.075 0 0 1-.022.007c-.133.007-.265.016-.398.028-.074.009-.15-.004-.224.012-.073.002-.147.022-.217-.014z" fill="#e9933e"/><path d="M17.255 19.574c-.005-.042.029-.06.052-.084l4.144-4.142 1.477-1.478c.02-.02.05-.035.05-.07l.428.137.042.028c.007.022-.008.035-.02.048l-.057.059-5.368 5.366c-.021.021-.045.04-.061.067.01.029.058.003.061.041a.032.032 0 0 1-.016.015c-.047.013-.095.007-.142.008-.1-.011-.199.015-.298.015-.057-.005-.114 0-.17 0a.655.655 0 0 0-.102 0 .027.027 0 0 1-.02-.01z" fill="#e8903d"/><path d="M14.11 22.938c-.039.022-.083.012-.124.019l-.053-.001c-.087.01-.095.003-.066-.082.097-.28.2-.557.302-.834.18-.487.355-.974.532-1.462.097-.267.199-.533.29-.802.024-.073.082-.06.131-.076.056-.003.111-.031.168-.007.021.019.005.038-.001.056-.33.897-.657 1.794-.982 2.692l-.158.434c-.009.024-.017.048-.039.063z" fill="#cac8c7"/><path d="M15.117 19.717c-.088 0-.106.061-.13.13-.174.483-.351.963-.527 1.444l-.395 1.09c-.06.168-.119.336-.183.503-.023.06-.009.078.051.072-.1.018-.202.026-.305.028.004-.104.057-.193.09-.287.1-.287.206-.572.31-.857.16-.434.319-.867.476-1.301.096-.264.188-.53.282-.795.072-.028.151 0 .223-.027.037-.03.072-.03.108 0z" fill="#c6c4c2"/><path d="M18.003 19.537c-.03-.008-.078.014-.089-.014-.013-.034.035-.053.057-.076l5.417-5.416c.02-.02.04-.044.06-.066.127.049.245.117.358.193-.041.014-.06.054-.088.082l-5.194 5.191c-.025.025-.061.045-.055.09-.025.025-.057.028-.088.03-.11.01-.218.005-.327.004a.068.068 0 0 1-.05-.018z" fill="#e78e3d"/><path d="m25.583 22.842.385.002h3.27c.028 0 .06.011.085-.013.022.013.056.015.053.053l-.868.001H25.65l-.096-.002a.075.075 0 0 1 .03-.04z" fill="#9c9e9c"/><path d="M16.096 16.585c-.027.025-.055.048-.08.074l-3.144 3.142c-.052.052-.097.116-.182.119-.068.02-.141.003-.208.028-.193.012-.385.03-.576.052-.102.012-.204.02-.306.03.026-.023.052-.045.077-.069l3.173-3.171a.377.377 0 0 0 .088-.122l.538-.043c.09-.028.185-.01.279-.022a2.901 2.901 0 0 1 .341-.018z" fill="#eea941"/><path d="M22.496 13.73c-.048.03-.101.007-.151.014.048-.029.1-.006.151-.013z" fill="#eeaa42"/><path d="M15.117 19.717h-.108c-.029-.024-.003-.042.008-.059.013-.018.031-.033.048-.05 1.006-1.006 2.014-2.012 3.02-3.02.058-.06.114-.102.201-.087.02.004.042.007.058-.012.13-.002.258.004.387-.014h.124c-.003.037-.034.053-.056.075l-3.02 3.02c-.012.012-.024.022-.034.035-.011.013-.036.022-.027.043.009.02.033.008.05.013-.007.03-.032.03-.054.03-.07 0-.14.013-.21.016-.045.001-.09 0-.136.009-.025.004-.05.006-.072-.013-.06-.01-.12.013-.18.014z" fill="#ea9a3f"/><path d="M20.4 15.179c.022.045.016.07-.041.055l.04-.055zM20.33 15.275c.023.045.017.07-.04.055l.04-.055z" fill="#e9973e"/><path d="M15.503 19.69c.087-.023.178-.005.265-.03l.12.002c.002.018-.013.023-.026.026-.04.007-.055.036-.067.07-.126.354-.257.707-.386 1.06l-.58 1.597c-.048.13-.096.259-.142.389-.012.034-.02.07-.053.094-.071.02-.145.014-.217.017-.088.01-.1-.004-.07-.087.316-.862.63-1.725.944-2.587l.177-.486c.009-.023.015-.048.035-.066z" fill="#d3d2d0"/><path d="M15.313 22.847a2.026 2.026 0 0 1-.349.025c-.068.008-.079-.007-.052-.082l.217-.594c.176-.483.35-.966.528-1.448.126-.342.248-.686.375-1.028.012-.033.022-.066.064-.072.082-.009.165-.022.249-.014.017.023.002.044-.005.064-.181.504-.365 1.006-.548 1.508-.17.464-.339.927-.506 1.392a7.77 7.77 0 0 1-.058.154c-.02.053-.01.08.05.077.014 0 .027.005.035.018z" fill="#dcdbd9"/><path d="M15.313 22.847c-.132-.009-.135-.01-.088-.137l.563-1.54.411-1.137.145-.4.042-.014.22-.003c.026.031.006.062-.004.09l-.349.96-.566 1.553c-.066.18-.13.36-.196.538-.014.037-.015.062.027.075-.067.02-.137.007-.205.015z" fill="#e1e0df"/><path d="M16.096 19.648c-.052.037-.055.1-.074.151-.134.358-.263.718-.394 1.077l-.588 1.613c-.04.108-.076.216-.117.323-.018.046-.008.065.042.06-.044.023-.092.007-.138.016-.064.002-.128.018-.193.01l.63-1.728.398-1.097c.04-.112.084-.223.119-.337.018-.058.064-.062.108-.075.069-.004.137-.023.207-.013z" fill="#d7d6d5"/><path d="M22.427 19.481c.17 0 .34.001.51-.002.055-.001.054.02.039.06-.1.271-.197.542-.296.813l-.295.805-.475 1.302c-.02.054-.044.106-.048.164h-.566c.092-.26.188-.518.283-.776l.275-.758.276-.757c.087-.243.177-.484.266-.725.015-.04.02-.084.03-.126z" fill="#e0e0df"/><path d="m21.82 19.464.019.004-.009.01h-.589c.022-.02.048-.011.072-.011l.507-.003z" fill="#e4813b"/><path d="M19.527 19.506c.083-.018.168-.003.252-.014h.603l.058.004c.014.03 0 .059-.01.086-.276.753-.547 1.507-.823 2.26-.091.25-.183.5-.271.751-.018.05-.044.067-.096.066-.105-.001-.21-.007-.316.004-.142.007-.285.022-.427.013 0-.004 0-.012.003-.012.08-.012.09-.08.112-.14.243-.67.49-1.34.733-2.012.11-.304.222-.608.331-.913.025-.07.023-.071-.052-.074-.033 0-.07.01-.097-.02z" fill="#f3f3f3"/><path d="M18.924 22.663c.097-.025.195-.008.293-.01.053-.002.081-.009.103-.07.158-.448.322-.894.485-1.34l.612-1.675c.009-.024.015-.048.023-.072.206 0 .413 0 .62-.003.059 0 .066.025.049.072l-.136.381-.305.831a998.954 998.954 0 0 0-.658 1.812c-.012.036-.03.05-.069.05-.092-.004-.183-.002-.275-.001-.023 0-.047-.007-.066.01-.225.01-.45.022-.676.015z" fill="#eeeded"/><path d="M18.003 19.537c.156-.003.311.004.466-.016l.477-.001c.075-.008.09.01.062.085l-.228.628c-.176.48-.35.962-.525 1.443-.117.322-.237.642-.352.964-.013.035-.028.062-.069.064l-.014.005c-.024.009-.05-.002-.075.01l-.215.003c-.023.01-.05-.001-.074.01l-.201.004-.369.013c-.058.001-.064-.006-.045-.06l.107-.298c.295-.808.59-1.616.882-2.425l.111-.304c.015-.04.026-.083.058-.116l.005-.01z" fill="#fff"/><path d="M17.834 22.704a.095.095 0 0 0 .045-.053c.203-.559.409-1.116.613-1.675.138-.378.273-.757.41-1.135.03-.084.06-.169.093-.251.022-.053.006-.073-.049-.07.051-.018.105-.004.157-.014h.424l.151.002c.036 0 .05.008.035.049l-.62 1.696-.457 1.26c-.015.04-.032.08-.043.122-.015.059-.072.01-.097.041-.22.018-.44.023-.662.028z" fill="#f7f8f8"/><path d="M17.456 22.732a.134.134 0 0 1 .074-.01c-.022.02-.049.01-.074.01zM17.745 22.718a.132.132 0 0 1 .075-.01c-.023.02-.05.01-.075.01z" fill="#952b2b"/><path d="M16.827 19.604c.138-.017.275-.026.414-.025.004.008.002.014-.005.019-.006.003-.013.008-.019.007-.102-.017-.13.049-.159.128-.19.534-.385 1.065-.578 1.598-.17.467-.341.934-.51 1.403-.009.023-.019.047-.022.072-.069.02-.139.007-.208.012-.018.01-.036.004-.054.005-.038.003-.044-.018-.033-.047.016-.048.03-.096.049-.143.085-.223.163-.448.246-.671l.25-.684.231-.64c.104-.286.206-.573.314-.858.023-.06.022-.134.084-.176z" fill="#e8e7e6"/><path d="m16.827 19.604-.163.442c-.064.172-.128.344-.19.517-.048.128-.092.258-.14.385-.047.126-.087.254-.137.378-.05.122-.086.249-.13.373-.046.126-.097.25-.143.376-.039.106-.078.213-.115.32-.04.117-.086.23-.128.346-.027.072-.006.085.059.077-.073.021-.148.008-.222.014-.07.008-.065-.026-.047-.076l.417-1.14c.192-.526.387-1.052.575-1.579.05-.14.115-.274.143-.421.073-.02.148-.008.221-.012z" fill="#e4e3e2"/><path d="M15.948 22.805c-.024-.016-.013-.034-.006-.054l.485-1.334c.216-.593.433-1.185.648-1.778.013-.037.031-.052.07-.05.032.003.064.001.096.001.026.035.004.067-.007.098-.1.28-.203.56-.305.84l-.511 1.403c-.1.276-.203.551-.3.828a.08.08 0 0 1-.017.03c-.023.014-.05 0-.074.011a.776.776 0 0 0-.014.005h-.065z" fill="#ecebeb"/><path d="M15.503 19.69c-.033.145-.096.28-.145.42-.1.288-.207.573-.312.858l-.46 1.257c-.076.209-.15.418-.229.625-.028.074.02.062.06.065a1.909 1.909 0 0 1-.307.024l.324-.906c.1-.28.205-.558.307-.838l.467-1.277c.027-.073.043-.15.088-.215.07-.002.137-.024.207-.014z" fill="#cecccb"/><path d="M17.999 19.547c-.062.174-.122.35-.185.523-.102.282-.206.562-.31.844l-.479 1.314-.168.464c-.01.029-.023.06.03.057-.092.021-.184.008-.275.014-.075.008-.086-.004-.06-.078.08-.237.168-.47.254-.706l.525-1.441c.112-.308.225-.616.335-.925.016-.044.04-.062.086-.058.031.003.064.006.095-.004l.152-.004z" fill="#f7f8f7"/><path d="M17.848 19.552c-.006.003-.013.01-.018.009-.106-.021-.141.035-.172.128-.096.281-.203.559-.305.838l-.479 1.315c-.103.284-.204.569-.308.852-.018.05-.012.075.046.07-.072.02-.147.008-.22.013-.123.015-.13.008-.09-.105.17-.462.338-.924.506-1.386l.525-1.444c.023-.063.051-.124.067-.188.016-.064.05-.096.118-.084a.04.04 0 0 0 .026-.004c.101-.007.202-.024.304-.014z" fill="#f3f3f2"/><path d="M17.544 19.565c-.1-.004-.117.07-.144.144-.173.482-.35.963-.526 1.444l-.352.974c-.067.183-.136.365-.202.548-.035.097-.033.098.072.102-.07.022-.143.008-.214.012a.107.107 0 0 1-.082 0c.035-.16.104-.308.157-.461.099-.283.206-.563.31-.845.192-.527.385-1.053.575-1.58.037-.103.085-.203.103-.313v-.011l.014-.005h.014c.032-.012.068.004.1-.01h.175z" fill="#efeeee"/><path d="M16.096 22.789h.083c-.05.022-.1.012-.151.012.02-.02.046-.009.069-.012z" fill="#e8e7e6"/><path d="M17.369 19.564a.203.203 0 0 1-.1.01c.031-.022.066-.008.1-.01z" fill="#e9933e"/></g></g><defs><clipPath id="a"><path fill="#fff" d="M0 0h40v40H0z"/></clipPath><clipPath id="b"><path fill="#fff" transform="translate(10 13)" d="M0 0h20v13.772H0z"/></clipPath></defs></svg>