<svg width="40" height="40" fill="none" xmlns="http://www.w3.org/2000/svg"><mask id="a" mask-type="alpha" maskUnits="userSpaceOnUse" x="10" y="10" width="20" height="20"><path fill="#fff" d="M10 10.882h20v18.235H10z"/></mask><g mask="url(#a)" transform="matrix(1.4 0 0 1.4 -7.987 -7.999)" fill-rule="evenodd" clip-rule="evenodd"><path d="M17.479 10.882c-.443 5.62-7.381 5.238-7.478 10.59-.015.784.313 1.871 1.2 2.754.29.295.632.541 1.012.735-.234 1.195-.325 2.564-.162 4.151l.845-.045c-.309-1.463-.339-2.746-.188-3.884 3.54 1.322 9.074-1.728 4.77-14.3z" fill="url(#b)" style="fill:url(#b)"/><path d="M13.012 22.374c-.572-.904-1.17-2.661-1.137-3.882v-.002c.246 1.05.804 2.45 1.35 3.4.437-.906.949-1.715 1.467-2.504-.58-.87-.728-2.302-.717-2.583 0-.005.004-.005.009-.008.153.499.44 1.351.969 2.197.494-.742.975-1.471 1.376-2.254-.257-.535-.431-1.37-.412-1.64.11.367.411.85.655 1.147.528-1.057.8-1.93.916-2.487a9.566 9.566 0 0 0-.01-2.876c-.442 5.62-7.38 5.238-7.477 10.59-.015.784.313 1.871 1.2 2.754.29.295.632.542 1.012.735.187-.969.47-1.827.799-2.587z" fill="url(#c)" style="fill:url(#c)"/><path d="M22.89 10.882c-.439 5.62-7.382 5.238-7.479 10.59-.012.784.318 1.871 1.201 2.754 3.015 3.015 11.272 1.254 6.279-13.344z" fill="url(#d)" style="fill:url(#d)"/><path d="M15.412 21.472c-.013.784.317 1.871 1.2 2.754.106.105.215.202.334.297 1.524-1.24 2.534-3.789 1.918-8.134-1.748 1.24-3.405 2.486-3.453 5.083z" fill="url(#e)" style="fill:url(#e)"/><path d="M28.363 10.882c-.44 5.62-7.381 5.238-7.473 10.59-.016.784.312 1.871 1.198 2.754 3.011 3.015 11.27 1.254 6.275-13.344z" fill="url(#f)" style="fill:url(#f)"/><path d="M20.89 21.472c-.016.784.312 1.871 1.198 2.754.093.096.194.189.3.272 1.505-1.245 2.496-3.778 1.894-8.068-1.727 1.229-3.351 2.471-3.392 5.042z" fill="url(#g)" style="fill:url(#g)"/></g><defs><radialGradient id="c" cx="0" cy="0" r="1" gradientUnits="userSpaceOnUse" gradientTransform="matrix(21.294 0 0 39.4879 18.168 15.388)"><stop stop-color="#C9D647"/><stop offset=".19" stop-color="#C9D647"/><stop offset=".23" stop-color="#BED044"/><stop offset=".47" stop-color="#88B039"/><stop offset=".66" stop-color="#699D34"/><stop offset=".77" stop-color="#5D9732"/><stop offset="1" stop-color="#5D9732"/></radialGradient><radialGradient id="d" cx="0" cy="0" r="1" gradientUnits="userSpaceOnUse" gradientTransform="matrix(21.2943 0 0 34.325 23.572 15.386)"><stop stop-color="#DBE6F5"/><stop offset=".13" stop-color="#D8E3F4"/><stop offset=".25" stop-color="#CDDCF1"/><stop offset=".37" stop-color="#BBD0EC"/><stop offset=".48" stop-color="#A1C1E6"/><stop offset=".59" stop-color="#81AEDD"/><stop offset=".7" stop-color="#589BD4"/><stop offset=".8" stop-color="#0088CA"/><stop offset=".89" stop-color="#0079C1"/><stop offset="1" stop-color="#0079C1"/></radialGradient><radialGradient id="e" cx="0" cy="0" r="1" gradientUnits="userSpaceOnUse" gradientTransform="matrix(21.2953 0 0 47.6335 23.58 15.393)"><stop stop-color="#fff"/><stop offset=".01" stop-color="#F8FAFD"/><stop offset=".06" stop-color="#DDE6F1"/><stop offset=".11" stop-color="#C8D7E9"/><stop offset=".18" stop-color="#BACEE4"/><stop offset=".25" stop-color="#B2C9E1"/><stop offset=".38" stop-color="#AFC7E0"/><stop offset=".46" stop-color="#8CB3D9"/><stop offset=".62" stop-color="#3990CB"/><stop offset=".74" stop-color="#007EC4"/><stop offset=".8" stop-color="#0079C1"/><stop offset="1" stop-color="#0079C1"/></radialGradient><radialGradient id="f" cx="0" cy="0" r="1" gradientUnits="userSpaceOnUse" gradientTransform="matrix(21.2941 0 0 34.3439 29.048 15.386)"><stop stop-color="#FFF200"/><stop offset=".14" stop-color="#FFF200"/><stop offset=".21" stop-color="#FFDE00"/><stop offset=".3" stop-color="#FFD300"/><stop offset=".39" stop-color="#FFCC04"/><stop offset=".5" stop-color="#FFC907"/><stop offset=".57" stop-color="#FEBE10"/><stop offset=".83" stop-color="#F99B1C"/><stop offset=".95" stop-color="#F78F1E"/><stop offset="1" stop-color="#F78F1E"/></radialGradient><radialGradient id="g" cx="0" cy="0" r="1" gradientUnits="userSpaceOnUse" gradientTransform="matrix(21.2937 0 0 48.0979 29.048 15.386)"><stop stop-color="#FDE92B"/><stop offset=".05" stop-color="#FBD928"/><stop offset=".12" stop-color="#F7CA25"/><stop offset=".2" stop-color="#F6C123"/><stop offset=".29" stop-color="#F5BB21"/><stop offset=".45" stop-color="#F5B922"/><stop offset=".55" stop-color="#F4A620"/><stop offset=".65" stop-color="#F6991F"/><stop offset=".75" stop-color="#F7911F"/><stop offset=".85" stop-color="#F78F1E"/><stop offset="1" stop-color="#F78F1E"/></radialGradient><linearGradient id="b" x1="16.269" y1="26.869" x2="26.503" y2="30.738" gradientUnits="userSpaceOnUse"><stop stop-color="#C6CF21"/><stop offset=".03" stop-color="#C6CF21"/><stop offset=".21" stop-color="#B2C427"/><stop offset=".57" stop-color="#80A830"/><stop offset=".8" stop-color="#5D9732"/><stop offset="1" stop-color="#5D9732"/></linearGradient></defs></svg>