<svg width="40" height="40" fill="none" xmlns="http://www.w3.org/2000/svg"><g clip-path="url(#a)" transform="matrix(1.4 0 0 1.4 -8 -8)" fill-rule="evenodd" clip-rule="evenodd"><path d="M10 10h19.999v20H10Z" fill="#005680" stroke="#fff" stroke-width=".517"/><path d="M15.559 12.506c-.47 0-.87.376-.87.846s.4.845.87.845c.242 0 .45-.104.604-.265a31.694 31.694 0 0 0 3.938 1.57c.001.468.377.846.846.846a.872.872 0 0 0 .725-.387c.45.12.867.227 1.256.314a.815.815 0 0 0-.217.435c-1.022.13-2.118.194-3.238.194a.849.849 0 0 0-1.619-.024 29.807 29.807 0 0 1-4.156-.508.847.847 0 0 0-1.691.073c0 .47.376.845.845.845a.863.863 0 0 0 .75-.435 28.12 28.12 0 0 0 4.228.508.847.847 0 0 0 .822.628.844.844 0 0 0 .821-.58 30.738 30.738 0 0 0 3.31-.193.843.843 0 0 0 .774.483.843.843 0 0 0 .845-.846.844.844 0 0 0-.048-.29c.21.037.39.048.556.073.07.398.426.7.845.7a.842.842 0 0 0 .846-.845.843.843 0 0 0-.846-.846.868.868 0 0 0-.797.508 23.832 23.832 0 0 1-3.165-.653.844.844 0 0 0-.846-.845.828.828 0 0 0-.7.362c-1.368-.451-2.706-.968-3.867-1.522.007-.043.025-.1.025-.145a.842.842 0 0 0-.846-.846zm5.34 5.195a.87.87 0 0 0-.822.604c-1.488.007-2.752.012-3.528.024a.842.842 0 0 0-1.643.266c0 .469.376.846.846.846.388 0 .72-.248.822-.604.773-.013 2.02-.043 3.503-.049a.861.861 0 0 0 1.643 0c.565.002 1.132.017 1.716.025-.1.121-.15.27-.17.434l-2.875.629a.877.877 0 0 0-.749-.435.849.849 0 0 0-.845.773l-3.456.773a.864.864 0 0 0-.749-.435.842.842 0 0 0-.845.846c0 .47.375.846.845.846.446 0 .81-.338.846-.774l3.48-.749a.82.82 0 0 0 .724.435.86.86 0 0 0 .846-.797l2.851-.628a.84.84 0 0 0 .75.459c.468 0 .87-.376.87-.846v-.048a.776.776 0 0 0 .482.145c.47 0 .87-.377.87-.846 0-.47-.4-.846-.87-.846a.837.837 0 0 0-.797.58c-.984-.02-1.972-.02-2.924-.024a.87.87 0 0 0-.821-.604Zm4.542 2.296a.847.847 0 0 0-.821.7c-.965.129-1.994.344-3.02.628a.862.862 0 0 0-.701-.386.846.846 0 0 0-.846.846c-1.31.44-2.585.974-3.697 1.522a.843.843 0 0 0-.604-.266c-.47 0-.846.4-.846.87s.376.846.846.846.846-.376.846-.846c0-.052.008-.121 0-.17a27.199 27.199 0 0 1 3.6-1.473.852.852 0 0 0 .7.386.854.854 0 0 0 .846-.845c.27-.074.526-.136.774-.194.43-.102.833-.174 1.184-.241a.832.832 0 0 0-.145.483c0 .026-.002.048 0 .073-.915.393-1.869.876-2.803 1.425a.857.857 0 0 0-.556-.217c-.47 0-.846.4-.846.87 0 .074.007.148.024.217a32.959 32.959 0 0 0-3.117 2.295.878.878 0 0 0-.459-.12.842.842 0 0 0-.845.845c0 .47.376.846.845.846a.844.844 0 0 0 .774-1.184 30.568 30.568 0 0 1 3.068-2.271c.15.13.342.217.556.217a.843.843 0 0 0 .846-.845c0-.07-.009-.153-.024-.218.26-.152.508-.28.749-.41.812-.441 1.504-.778 1.98-.991a.842.842 0 0 0 1.474-.725c.07.018.143.024.218.024.47 0 .87-.376.87-.846s-.4-.845-.87-.845z" fill="#fff"/></g><defs><clipPath id="a"><path fill="#fff" d="M0 0h40v40H0z"/></clipPath></defs></svg>