<svg width="40" height="40" fill="none" xmlns="http://www.w3.org/2000/svg"><path fill-rule="evenodd" clip-rule="evenodd" d="M11.078 20.252c.092.03.198.076.32.137.213.123.396.29.55.504.183.305.274.67.274 1.097 0 1.465-.885 2.196-2.654 2.196h-3.43c-.092 0-.138-.046-.138-.137v-7.046c0-.092.046-.137.137-.137h3.615c.64 0 1.159.176 1.555.526.396.35.595.816.595 1.395 0 .336-.076.633-.228.893-.153.26-.352.45-.596.572zm-1.555 2.882c.518 0 .9-.084 1.143-.252.244-.167.366-.457.366-.869s-.122-.7-.366-.87c-.244-.167-.625-.25-1.143-.25h-2.15c-.123 0-.184.045-.184.137v1.968c0 .092.061.137.184.137h2.15Zm-2.15-5.216c-.092 0-.138.046-.138.138v1.646c0 .092.046.138.138.138h2.104c.793 0 1.19-.32 1.19-.961 0-.64-.397-.96-1.19-.96zm11.118 2.334c.091.03.183.076.274.137.243.123.427.29.549.504.213.305.32.67.32 1.097 0 1.465-.885 2.196-2.654 2.196h-3.43c-.092 0-.138-.045-.138-.137v-7.046c0-.092.046-.137.137-.137h3.615c.61 0 1.12.176 1.533.526.412.35.618.816.618 1.395 0 .336-.077.633-.229.893-.154.26-.352.45-.595.572zm-3.752-2.334c-.092 0-.138.046-.138.138v1.646c0 .092.046.138.138.138h2.15c.792 0 1.19-.32 1.19-.961 0-.64-.398-.96-1.19-.96zm2.196 5.216c.518 0 .899-.084 1.143-.252.244-.167.366-.457.366-.869s-.122-.7-.366-.87c-.244-.167-.626-.25-1.143-.25h-2.196c-.092 0-.138.045-.138.137v1.968c0 .092.046.137.138.137h2.196zm9.242-6.177c.03-.06.06-.091.091-.091h1.19c.03 0 .06.015.091.045.03.031.03.062 0 .092l-3.797 7.137a.155.155 0 0 1-.115.046.153.153 0 0 1-.114-.046l-3.797-7.137c-.031-.03-.039-.06-.023-.092.015-.03.053-.045.114-.045h1.144c.06 0 .107.03.137.091l2.425 4.576c0 .03.03.045.092.045.06 0 .106-.014.137-.045zm1.372 6.086c-.03.061-.077.091-.137.091h-1.19c-.03 0-.053-.015-.068-.045a.195.195 0 0 1-.023-.092l3.798-7.138c.03-.03.076-.045.137-.045.061 0 .107.016.138.045L34 22.997c0 .03-.008.062-.023.092-.016.03-.039.045-.069.045H32.72c-.062 0-.108-.03-.137-.091l-2.38-4.576c-.03-.06-.077-.091-.137-.091-.062 0-.108.03-.138.091z" fill="#fff" style="stroke-width:1.4"/></svg>