<svg width="40" height="40" fill="none" xmlns="http://www.w3.org/2000/svg"><g clip-path="url(#a)" transform="matrix(1.4 0 0 1.4 -8 -8.024)"><g clip-path="url(#b)" fill="#fff"><path d="M11.097 22.12v-4.117c.242 0 .475-.002.71.003.025 0 .056.036.075.063l1.94 2.68c.017.025.037.049.073.096v-2.837h.728c.002.029.006.057.006.084v3.95c0 .026-.003.052-.006.078h-.744c-.012-.023-.02-.047-.035-.067l-1.941-2.69c-.016-.02-.035-.039-.065-.073v1.133l.004 1.697h-.745zM14.995 22.12v-4.113c.039-.002.07-.005.102-.005h1.439a2.02 2.02 0 0 1 2.003 1.799c.088.875-.24 1.562-.985 2.039-.23.147-.487.23-.76.26-.026.003-.05.013-.075.02h-1.724zm.74-.76c.28 0 .55.008.819-.003.14-.006.286-.029.42-.073.52-.174.855-.684.845-1.263a1.268 1.268 0 0 0-1.262-1.262c-.238-.005-.476-.001-.715-.001h-.107v2.602zM23.418 22.12l-.002-3.326v-.785h2.777v.748h-2.04v.924h2.04v.757h-2.04v.92H26.2v.762h-2.782zM26.435 22.12c.03-.054.058-.108.09-.16.397-.618.793-1.238 1.192-1.855.036-.057.04-.095.001-.154-.399-.613-.794-1.229-1.19-1.844-.019-.029-.036-.059-.064-.105h.274c.18 0 .359.005.538-.002.077-.003.116.026.154.088.24.387.483.772.725 1.157l.06.091.071-.11c.24-.38.48-.76.714-1.142.04-.065.083-.085.156-.083.264.004.527.001.809.001-.027.044-.045.076-.066.107-.393.61-.785 1.22-1.18 1.827-.043.066-.046.111-.002.18.43.666.856 1.335 1.283 2.004h-.92l-.867-1.407-.852 1.379c-.005.007-.004.018-.005.028h-.921zM21.126 22.12v-3.355h-1.233v-.758h3.205v.515c0 .236 0 .236-.232.236H21.86V21.994c0 .042-.005.084-.008.126h-.725zM10 18.002h.738v3.991c0 .042.004.085.006.127H10v-4.118zM18.834 22.12v-4.112h.725c.003.028.007.055.008.083v3.942c0 .029-.005.058-.008.087h-.725z"/></g></g><defs><clipPath id="a"><path fill="#fff" d="M0 0h40v40H0z"/></clipPath><clipPath id="b"><path fill="#fff" transform="translate(10 18)" d="M0 0h20v4.12H0z"/></clipPath></defs></svg>