<svg width="40" height="40" fill="none" xmlns="http://www.w3.org/2000/svg"><g clip-path="url(#a)" transform="matrix(1.4 0 0 1.4 -8 -8)" fill-rule="evenodd" clip-rule="evenodd" fill="#fff"><path d="m16.569 24.18-1.188-4.338-.02-.047h1.195c.248 0 .388.15.388.15s2.872 3.09 3.644 3.7c.622.491 1.003.526 1.296.526h.482l-3.587-8.383h-2.235L12.98 24.18zM10 24.178h2.332v-8.39H10ZM21.83 20.024V20c0-2.433 1.908-4.342 4.496-4.342 1.467 0 2.505.454 3.388 1.217l-1.36 1.634c-.597-.501-1.192-.787-2.015-.787-1.205 0-2.136 1.014-2.136 2.29v.024c0 1.348.942 2.314 2.267 2.314.56 0 .989-.119 1.336-.346V20.99H26.16v-1.693H30v3.757a5.643 5.643 0 0 1-3.625 1.288c-2.601 0-4.545-1.79-4.545-4.318"/></g><defs><clipPath id="a"><path fill="#fff" d="M0 0h40v40H0z"/></clipPath></defs></svg>