<svg width="40" height="40" fill="none" xmlns="http://www.w3.org/2000/svg"><path fill-rule="evenodd" clip-rule="evenodd" d="M26.136 18.945c-.064-.959-.32-1.918-.83-2.749L20.957 8.59a6.524 6.524 0 0 1-.703-1.853l-.192.32a6.064 6.064 0 0 0 0 6.072l3.516 6.073a6.063 6.063 0 0 1 0 6.073l-.191.32a6.528 6.528 0 0 0-.704-1.854l-3.196-5.562-2.046-3.58a6.523 6.523 0 0 1-.703-1.853l-.191.32c-1.087 1.853-1.087 4.154 0 6.072l3.515 6.073a6.064 6.064 0 0 1 0 6.073l-.191.32a6.523 6.523 0 0 0-.703-1.854l-4.411-7.608c-.576-1.022-.831-2.173-.831-3.324C9.26 20.032 6 22.653 6 25.657c0 4.22 6.265 7.607 14 7.607 7.734 0 13.999-3.388 13.999-7.607.064-2.876-3.132-5.497-7.863-6.712z" fill="#ea1d25" style="stroke-width:1.4"/></svg>