<svg width="41" height="40" fill="none" xmlns="http://www.w3.org/2000/svg"><g clip-path="url(#a)" transform="matrix(1.4 0 0 1.4 -8.494 -8)"><g clip-path="url(#b)"><path d="M23.537 10.032c.73.058.946.066 1.666.203 2.717.518 4.26 2.38 4.263 5.138.004 4.326.002 8.651.002 12.978v1.076c-1.147-.204-2.242-.288-3.257-.618-.684-.222-1.2-.185-1.828.093-2.403 1.066-4.892 1.454-7.473.722-2.23-.634-3.623-2.13-3.85-4.5-.015-.16-.043-.345-.053-.51a5.882 5.882 0 0 1 .016-.805c.048-.468.078-.568.192-1.024.557-2.253 2.152-3.421 4.26-4.035 1.92-.56 3.892-.439 5.854-.442 2.122-.003 2.122 0 1.91-2.135-.003-.024-.002-.047-.005-.072-.173-1.32-.809-2.156-2.139-2.352a14.877 14.877 0 0 0-3.643-.075c-1.337.137-2.65.515-4.011.796l-.857-2.941c.158-.087.293-.192.447-.242 1.556-.511 3.557-.936 5.399-1.164.642-.08 1.364-.111 1.718-.119a14.66 14.66 0 0 1 1.389.028zm1.75 11.056c-.771 0-1.443-.038-2.108.007-1.405.096-2.83.12-4.205.392-1.378.274-2.038 1.435-1.91 2.883.113 1.299.953 2.106 2.337 2.314 1.942.29 3.725-.343 5.517-.917.15-.048.35-.258.352-.397.028-1.406.018-2.813.018-4.282z" fill="#fff"/></g></g><defs><clipPath id="a"><path fill="#fff" transform="translate(.878)" d="M0 0h40v40H0z"/></clipPath><clipPath id="b"><path fill="#fff" transform="translate(13 10)" d="M0 0h16.468v20H0z"/></clipPath></defs></svg>