<svg width="40" height="40" fill="none" xmlns="http://www.w3.org/2000/svg"><g clip-path="url(#a)" transform="matrix(1.4 0 0 1.4 -8 -8.094)"><g clip-path="url(#b)" fill="#4379f0"><path d="M10 20.168V18.017c0-.005-.002-.012.004-.015.007-.005.012.001.017.005.038.03.073.062.109.093l.12.103.2.17.267.229.292.25c.1.087.2.175.303.26.028.023.055.049.083.073l.112.097c.067.057.133.115.2.17.067.056.13.115.198.168.05.039.094.083.143.123.08.067.157.136.237.203l.152.132c.09.078.181.154.272.231l.187.164.152.13.161.138c.065.056.131.11.196.167l.26.224.187.16.082.07.16.137c.028.023.054.049.082.07.012.01.019.026.017.045-.004.03 0 .061 0 .092l-.002.652.001.095c0 .006.003.013-.004.018-.007.005-.012-.002-.017-.005-.034-.021-.06-.051-.091-.077-.067-.056-.132-.115-.2-.17-.038-.03-.073-.064-.11-.096l-.268-.231c-.055-.048-.108-.098-.166-.143-.07-.055-.135-.114-.202-.172a6.79 6.79 0 0 1-.18-.155c-.049-.044-.1-.085-.149-.128l-.162-.138-.155-.134-.115-.1c-.064-.054-.129-.109-.192-.165-.032-.028-.063-.057-.096-.084-.04-.03-.075-.066-.114-.097-.041-.033-.08-.068-.12-.102l-.163-.14-.155-.134-.194-.165-.152-.133-.275-.233-.197-.17c-.01-.01-.018-.023-.033-.016-.013.007-.007.022-.007.033V22.3c0 .05-.004.054-.054.054h-.534c-.021 0-.043-.003-.064-.004-.014 0-.022-.007-.023-.022v-2.16zM27.177 20.792h1.193c.022 0 .028-.01.017-.03l-.193-.342-.141-.255-.112-.197-.14-.25c-.045-.077-.088-.156-.133-.234a17.848 17.848 0 0 1-.125-.222c-.047-.086-.096-.17-.144-.256l-.174-.31a.206.206 0 0 0-.014-.022c-.028-.036-.022-.069 0-.106.05-.08.097-.164.144-.246l.14-.252.032-.057c.008-.013.016-.018.026 0l.105.183.112.192.106.19.199.351.157.282.228.4.208.369c.05.09.102.178.152.267.053.096.109.19.16.287.069.127.143.25.215.374l.125.221.136.243.116.203.155.277c.052.093.105.184.158.276l.108.19c.014.024.008.035-.02.035h-.146c-.16.002-.319 0-.478.002-.046 0-.074-.014-.095-.054-.045-.084-.092-.166-.139-.249l-.113-.194a26.644 26.644 0 0 1-.125-.221l-.109-.195c-.01-.02-.024-.03-.05-.03H26.36c-.018 0-.03.007-.04.024-.043.074-.088.146-.129.222-.1.186-.21.365-.31.551-.021.04-.046.076-.067.115-.012.022-.03.03-.052.03-.166 0-.332.002-.498-.002-.05 0-.1.003-.151.002-.01 0-.022.001-.028-.008-.008-.012.002-.021.007-.03l.139-.246.189-.33.138-.246c.053-.094.105-.189.159-.283l.13-.23.09-.162c.014-.023.034-.03.059-.03h1.18v.003zM22.484 18.123h.435c.01 0 .02 0 .03.002.009.001.021-.003.025.009.004.014-.012.01-.018.016l-.104.09-.163.142c-.054.046-.109.09-.163.137-.064.055-.128.109-.19.165-.067.06-.136.115-.204.174-.052.044-.102.091-.157.133-.05.038-.094.08-.14.121l-.16.138-.156.135c-.067.057-.136.112-.202.171a8.017 8.017 0 0 1-.156.136c-.051.045-.104.089-.156.133l-.255.22-.207.175c-.016.013-.012.024 0 .035l.086.074.23.198.165.14c.038.032.076.066.114.1l.27.228c.066.056.13.115.196.172l.187.158.152.13.156.135c.056.048.11.098.168.145.072.059.141.12.212.181l.191.164.171.145c.04.032.078.068.118.1.006.006.014.012.011.021-.003.008-.013.003-.02.005-.01.003-.02.002-.03.002-.28 0-.56-.001-.84.002a.19.19 0 0 1-.138-.056c-.078-.07-.158-.136-.237-.204-.062-.053-.122-.107-.185-.159-.03-.025-.063-.05-.092-.078-.05-.046-.106-.086-.154-.134-.025-.025-.053-.046-.08-.069l-.164-.142-.15-.127-.272-.235c-.049-.042-.099-.082-.147-.125-.09-.079-.181-.154-.27-.234-.064-.058-.134-.111-.2-.168-.07-.06-.138-.123-.21-.182-.057-.047-.11-.1-.169-.144-.016-.012-.031-.028-.047-.042-.016-.014-.013-.025 0-.036.05-.042.1-.081.146-.125.05-.048.106-.089.157-.135.051-.047.105-.09.158-.136l.267-.229c.052-.044.105-.088.157-.134.064-.055.129-.11.191-.167.06-.055.125-.106.188-.159l.107-.092.245-.21.263-.23.196-.164c.063-.054.123-.11.187-.164l.164-.14c.011-.01.027-.011.042-.011h.451zM23.835 20.236v-2.081c0-.02.005-.031.027-.031h.61c.014 0 .02.006.023.019.002.008.001.018.001.027v4.133c0 .046-.005.051-.05.051-.158 0-.316.001-.474-.001h-.102c-.03 0-.036-.006-.035-.038v-2.078zM18.997 19.799c-.005-.029-.009-.06-.018-.086-.021-.057-.033-.116-.053-.172a2.55 2.55 0 0 0-.095-.23c-.027-.057-.058-.111-.088-.166a2.257 2.257 0 0 0-.704-.725c-.056-.037-.117-.068-.176-.1a1.66 1.66 0 0 0-.18-.084 3.578 3.578 0 0 0-.186-.068 1.595 1.595 0 0 0-.172-.05c-.066-.013-.133-.03-.201-.036-.076-.007-.151-.026-.228-.025-.146.002-.291-.01-.436.01l-.176.025c-.06.008-.117.023-.175.038-.063.016-.125.032-.185.056-.066.025-.133.047-.198.077-.048.023-.097.044-.144.069a2.467 2.467 0 0 0-.434.302 2.184 2.184 0 0 0-.393.477 1.966 1.966 0 0 0-.213.5 2.134 2.134 0 0 0-.07.35c-.012.095-.024.19-.016.271 0 .082.001.148.007.215.007.07.017.138.025.207.008.068.027.135.045.202.014.055.029.11.049.161.033.087.068.173.11.257a1.845 1.845 0 0 0 .345.483c.07.07.143.134.22.195.048.038.1.072.15.105a2.241 2.241 0 0 0 .34.176c.052.022.105.046.16.062l.181.05c.058.015.117.026.176.038.123.025.25.03.374.041.103.009.206 0 .308-.007.024-.001.047 0 .07-.005.067-.015.137-.011.204-.026.02-.004.04-.013.062-.015.068-.006.133-.027.198-.045.058-.016.116-.03.171-.053.064-.027.13-.049.191-.08.067-.033.134-.066.198-.104a2.058 2.058 0 0 0 .664-.635 1.75 1.75 0 0 0 .111-.196c.036-.073.069-.147.094-.224l.052-.164a2.18 2.18 0 0 0 .05-.22c.018-.094.02-.19.028-.285.016-.19-.01-.379-.042-.566zm-.628.666c-.014.1-.034.2-.068.297-.022.06-.042.121-.07.18a1.382 1.382 0 0 1-.125.21c-.04.054-.077.108-.123.156a1.464 1.464 0 0 1-.497.36c-.047.02-.093.041-.14.057-.059.02-.117.04-.179.05l-.046.011c-.099.023-.2.033-.302.034-.026 0-.051.01-.078.007-.103-.01-.207-.01-.309-.028a1.736 1.736 0 0 1-.464-.15 1.386 1.386 0 0 1-.181-.105 1.41 1.41 0 0 1-.202-.162 1.233 1.233 0 0 1-.193-.228c-.025-.04-.054-.08-.078-.121a1.32 1.32 0 0 1-.094-.204 2.529 2.529 0 0 1-.05-.157c-.028-.1-.043-.2-.052-.303a1.37 1.37 0 0 1 .008-.327c.01-.063.017-.126.032-.189a1.454 1.454 0 0 1 .488-.808 1.468 1.468 0 0 1 .475-.28c.074-.027.15-.05.227-.069.059-.014.12-.017.18-.03.068-.014.137-.01.199-.014.075.001.144-.005.21.008.086.015.174.023.259.048l.132.039a1.673 1.673 0 0 1 .518.294 1.445 1.445 0 0 1 .335.409c.027.05.055.1.077.153.065.154.102.315.118.482.012.127.01.254-.007.38z"/></g></g><defs><clipPath id="a"><path fill="#fff" d="M0 0h40v40H0z"/></clipPath><clipPath id="b"><path fill="#fff" transform="translate(10 18)" d="M0 0h20v4.472H0z"/></clipPath></defs></svg>