<svg width="40" height="40" fill="none" xmlns="http://www.w3.org/2000/svg"><g clip-path="url(#a)" transform="matrix(1.4 0 0 1.4 -8 -7.839)"><g clip-path="url(#b)"><path d="M13.174 16.021c.191.02.398.064.584.11a4.093 4.093 0 0 1 1.63.798c.084.068.083.11.016.186a8.516 8.516 0 0 0-.391.474c-.06.078-.102.075-.178.02a3.269 3.269 0 0 0-2.187-.616 1.478 1.478 0 0 0-.576.156c-.526.27-.574.893-.094 1.238.207.148.444.232.683.311l.404.129-1.97.345c-.028.004-.057.004-.083.015-.237.1-.379-.021-.509-.202-.446-.622-.44-1.762.366-2.384.422-.326.906-.487 1.428-.557.028-.004.112-.016.188-.023.319-.03.42-.027.689 0zM28.678 16.774c.103.645.205 1.291.31 1.936.009.056-.012.101-.03.148-.535 1.376-1.071 2.751-1.605 4.128-.03.077-.064.107-.15.106a54.282 54.282 0 0 0-1.176 0c-.071 0-.107-.02-.133-.089-.871-2.271-1.744-4.542-2.617-6.813l-.016-.052c.047-.028.094-.015.139-.015.317-.002.635 0 .952 0 .324 0 .324 0 .432.296l1.866 5.115c.041.113.074.23.114.354l1.891-5.12.023.006zM22.91 23.09c-.498 0-.988-.002-1.477 0-.071 0-.083-.045-.102-.092l-.797-1.856a2.01 2.01 0 0 0-.322-.552.803.803 0 0 0-.491-.27c-.087-.013-.105-.051-.103-.128.003-.251.005-.503-.001-.754-.002-.095.032-.119.12-.12.227-.002.446-.048.647-.154.42-.22.616-.655.54-1.186-.064-.45-.386-.777-.862-.871a2.261 2.261 0 0 0-.347-.038c-.072-.003-.098-.025-.097-.098.003-.251 0-.502 0-.754 0-.047-.005-.095.067-.095.615-.009 1.223.029 1.779.332.699.383.964 1.003.909 1.762-.054.722-.463 1.206-1.125 1.484-.03.013-.062.02-.092.033-.037.017-.085.024-.091.075-.007.05.029.075.066.097.316.19.526.476.68.798.368.77.721 1.549 1.08 2.325.008.016.011.034.02.061zM11.128 19.505l.697-.123 1.873-.326c.032-.005.061-.017.096-.006.52.176 1.02.382 1.42.779.672.67.829 2.286-.522 2.999-.578.304-1.2.398-1.843.357a5.202 5.202 0 0 1-2.439-.776c-.122-.076-.232-.172-.35-.255-.07-.05-.08-.094-.021-.168.145-.182.284-.37.417-.56.047-.067.076-.064.14-.021.575.396 1.207.66 1.898.772.381.061.763.072 1.137-.045.582-.18.822-.767.507-1.232a1.153 1.153 0 0 0-.384-.341c-.364-.214-.768-.33-1.165-.463-.46-.154-.922-.299-1.352-.526-.028-.015-.055-.033-.11-.065ZM16.948 20.779c0-.722.001-1.443-.002-2.164-.001-.093.013-.136.12-.152.391-.06.78-.134 1.17-.207.083-.015.105.01.104.092-.004.288.001.577-.003.866-.002.085.023.112.11.11.243-.005.486.002.728-.004.094-.002.12.03.118.12a15.28 15.28 0 0 0 0 .726c.003.097-.034.117-.122.115-.229-.005-.458.005-.686-.004-.114-.004-.15.025-.15.144.006.838 0 1.676.007 2.513.001.134-.041.16-.164.158-.36-.008-.72-.008-1.078 0-.118.002-.157-.02-.156-.149.007-.721.003-1.442.003-2.164zM18.121 16.122c.345 0 .69.005 1.035-.003.115-.003.14.035.137.141-.007.233-.006.465 0 .698.001.086-.027.113-.112.11-.243-.004-.485.003-.728-.003-.092-.002-.12.027-.117.118.006.204 0 .41.003.614.002.078-.018.111-.104.125-.4.065-.797.139-1.195.212-.074.014-.095-.008-.094-.083.003-.609.003-1.218-.001-1.826 0-.093.033-.105.113-.105.354.004.709.002 1.063.002z" fill="#fff"/><path d="m29.22 18.125-.224-1.42c-.025-.155-.047-.312-.076-.467-.015-.078-.011-.119.09-.117.302.006.606.003.91.002.06 0 .1.002.069.083-.251.635-.5 1.271-.748 1.906-.002.004-.008.006-.02.013z" fill="#ffe600"/></g></g><defs><clipPath id="a"><path fill="#fff" d="M0 0h40v40H0z"/></clipPath><clipPath id="b"><path fill="#fff" transform="translate(10 16)" d="M0 0h20v7.194H0z"/></clipPath></defs></svg>