<svg width="40" height="40" fill="none" xmlns="http://www.w3.org/2000/svg"><g clip-path="url(#a)" transform="matrix(1.4 0 0 1.4 -8 -7.915)"><g clip-path="url(#b)" fill="#fff"><path d="M21.994 29.573c-.21-.131-.468-.15-.673-.302-.47-.349-.688-.819-.689-1.392-.003-3.58-.008-7.16.003-10.74.003-.977.69-1.64 1.619-1.627.887.012 1.53.718 1.53 1.683.001 3.523-.012 7.045.01 10.568.006.855-.477 1.63-1.345 1.763-.016.002-.029.031-.042.048h-.413zM18.203 10c.209.134.457.197.647.368.384.345.549.775.549 1.284-.002 3.58.005 7.16-.006 10.74-.002.929-.564 1.535-1.437 1.628-.75.08-1.444-.415-1.649-1.165-.046-.171-.037-.341-.037-.512-.002-3.489.015-6.977-.012-10.466-.007-.925.299-1.557 1.255-1.877h.69zM15.017 18.022c0 .609.005 1.217-.002 1.825-.008.751-.552 1.306-1.265 1.302-.698-.004-1.242-.548-1.25-1.283-.01-1.24-.011-2.48.001-3.72.007-.74.545-1.258 1.265-1.256.715.003 1.24.532 1.249 1.272.007.62.002 1.24.002 1.86zM27.531 21.534c0 .608.006 1.217-.002 1.825-.01.764-.548 1.314-1.26 1.304-.714-.01-1.24-.57-1.242-1.328a944.755 944.755 0 0 1 0-3.65c.002-.744.518-1.279 1.232-1.285.747-.007 1.258.5 1.27 1.275.009.62.002 1.24.002 1.86zM10.001 19.77c0-.16-.002-.32.001-.48.01-.465.296-.761.739-.767.44-.006.746.291.76.748.009.331.01.664-.002.995-.016.46-.33.767-.756.76-.423-.006-.732-.328-.74-.775-.004-.16-.002-.32-.002-.48zM29.992 19.024 30 20.49c-.153.394-.478.598-.84.528-.374-.071-.614-.375-.618-.788a41.926 41.926 0 0 1 0-.925c.005-.4.214-.684.554-.761.417-.095.701.057.896.48z"/></g></g><defs><clipPath id="a"><path fill="#fff" d="M0 0h40v40H0z"/></clipPath><clipPath id="b"><path fill="#fff" transform="translate(10 10)" d="M0 0h20v19.573H0z"/></clipPath></defs></svg>