<svg width="40" height="40" fill="none" xmlns="http://www.w3.org/2000/svg"><path fill-rule="evenodd" clip-rule="evenodd" d="M22.56 21.575v3.191h-.828v-3.63zm11.147 3.18h-2.31l-.017-.015-2.033-2.01a.292.292 0 0 0-.498.208v1.828h-.604V20.24a.294.294 0 0 0-.092-.213l-1.688-1.594a.292.292 0 0 0-.201-.08h-.844a.293.293 0 0 0-.293.292v6.121h-.6V14.94a.291.291 0 0 0-.18-.27.297.297 0 0 0-.32.064l-2.797 2.838a.29.29 0 0 0-.084.205v2.192l-1.145-.855a.3.3 0 0 0-.358.007l-2.604 2.087a.291.291 0 0 0-.11.228v3.33h-.59v-1.835c0-.645-.443-1.33-1.265-1.33-.822 0-1.266.689-1.266 1.336v1.83l-.597-.001V23.52c0-.505-.347-1.04-.991-1.04s-.991.536-.991 1.041v1.244h-.595v-.054l-.002-.702c0-.428-.405-.804-.866-.804-.461 0-.866.374-.866.8v.76H6.293a.293.293 0 0 0 0 .585h2.9a.29.29 0 0 0 .293-.292v-1c-.001-.108.117-.268.28-.268a.29.29 0 0 1 .281.278l.003.992c.001.16.132.291.293.291h1.178a.293.293 0 0 0 .293-.293v-1.537c0-.158.085-.457.406-.457s.406.298.406.456v1.537c0 .162.131.293.292.293H14.1a.295.295 0 0 0 .293-.292v-2.122c0-.26.142-.751.68-.751.5 0 .682.445.682.745v2.128c0 .161.13.292.292.292h1.175a.293.293 0 0 0 .293-.292v-3.482l.02-.017 2.297-1.841 1.314.98v4.36c0 .161.131.292.292.292h1.173a.293.293 0 0 0 .293-.292v-3.63a.295.295 0 0 0-.118-.234l-1.055-.789v-2.509l.016-.016 2.196-2.228v9.406c0 .161.131.292.292.292h1.185a.293.293 0 0 0 .292-.292v-6.121h.435l.017.015 1.496 1.413v4.693c0 .161.131.292.293.292h1.188a.293.293 0 0 0 .293-.292v-1.421l1.636 1.618a.292.292 0 0 0 .206.084h2.431a.293.293 0 0 0 0-.584" fill="url(#a)" style="fill:url(#a);stroke-width:1.4"/><defs><linearGradient id="a" x1="9.976" y1="23.838" x2="30.055" y2="23.838" gradientUnits="userSpaceOnUse" gradientTransform="matrix(1.4 0 0 1.4 -8 -8)"><stop stop-color="#54B6AE"/><stop offset=".1" stop-color="#54B6AE"/><stop offset=".3" stop-color="#3B98DA"/><stop offset=".42" stop-color="#254A9A"/><stop offset=".55" stop-color="#ED1443"/><stop offset=".84" stop-color="#F25C19"/><stop offset="1" stop-color="#F25C19"/></linearGradient></defs></svg>