<svg width="40" height="40" fill="none" xmlns="http://www.w3.org/2000/svg"><path fill-rule="evenodd" clip-rule="evenodd" d="M6.08 15.642h4.89c1.784-.003 2.905-.91 3.317-1.344.415-.433 1.375-1.517 1.375-2.777V7.455c0-.753.61-1.363 1.362-1.363h5.302c.752 0 1.362.61 1.362 1.366v5.301c0 .753-.61 1.363-1.362 1.363H18.26c-1.26 0-2.344.96-2.778 1.375-.433.411-1.34 1.532-1.344 3.316v4.89H6.081v-8.06" fill="#eb172b" style="stroke-width:1.4"/><mask id="a" mask-type="alpha" maskUnits="userSpaceOnUse" x="16" y="16" width="14" height="14"><path fill-rule="evenodd" clip-rule="evenodd" d="M16.405 16.41h13.55V30h-13.55V16.41Z" fill="#fff"/></mask><g mask="url(#a)" transform="matrix(1.4 0 0 1.4 -7.983 -7.908)"><path fill-rule="evenodd" clip-rule="evenodd" d="M29.869 19.883c0-.925-.374-1.752-.97-2.354a3.29 3.29 0 0 0-2.355-.969c-1.891 0-3.4 1.542-3.4 3.38 0 .336.146.973.146 1.245a2.622 2.622 0 0 1-2.62 2.622h-2.808a.972.972 0 0 0-.973.973v3.787c0 .537.436.973.973.973h3.787a.973.973 0 0 0 .973-.973V25.76a2.621 2.621 0 0 1 2.621-2.621c.273 0 .91.146 1.244.146a3.4 3.4 0 0 0 3.382-3.402z" fill="#eb172b"/></g></svg>