<svg width="40" height="40" fill="none" xmlns="http://www.w3.org/2000/svg"><g clip-path="url(#a)" transform="matrix(1.4 0 0 1.4 -8 -8)" fill="#fff"><path fill-rule="evenodd" clip-rule="evenodd" d="M25.771 20.415c0 .684.428 1.33 1.267 1.33.819 0 1.258-.646 1.258-1.33v-.137h-.482v.138c0 .509-.241.893-.776.893s-.776-.395-.776-.893v-2.093h-.49z"/><path d="M24.613 18.323h.49v3.354h-.49z"/><path fill-rule="evenodd" clip-rule="evenodd" d="M18.47 20.032c0 .956.755 1.708 1.705 1.708.95 0 1.704-.752 1.704-1.708a1.69 1.69 0 0 0-1.704-1.704h-.079v.428h.08c.697 0 1.247.558 1.247 1.276 0 .723-.55 1.281-1.248 1.281s-1.25-.558-1.25-1.281zM27.86 19.125c0 .413.192.648.5.813.237.126.487.156.72.243.34.126.444.3.444.546 0 .337-.232.552-.613.552h-.049v.399h.03c.678 0 1.108-.424 1.108-.953 0-.348-.17-.699-.615-.898-.238-.107-.524-.161-.732-.249-.228-.097-.312-.23-.312-.448 0-.262.218-.462.55-.462.437 0 .64.214.65.525h.441c.015-.486-.337-.938-1.09-.938-.62 0-1.033.384-1.033.87M21.989 18.765h.979c.317 0 .624.248.624.616a.62.62 0 0 1-.639.621h-.517v.442l.39-.004.65 1.237h.54l-.703-1.294c.367-.111.734-.492.734-1.002 0-.606-.435-1.058-1.064-1.058h-.995z"/><path fill-rule="evenodd" clip-rule="evenodd" d="M16.957 18.765h.595v2.912h.485v-2.912h1.396v-.442h-2.476ZM12.057 21.677h.475l1.059-2.776 1.094 2.776h.51l-1.352-3.354h-.505zM10.108 19.125c0 .388.158.65.485.815.237.122.495.156.728.243.247.092.341.17.376.306h.5a.964.964 0 0 0-.56-.656c-.237-.106-.54-.165-.747-.252-.228-.097-.297-.233-.297-.451 0-.263.217-.462.55-.462.435 0 .638.214.648.525h.44c.015-.486-.336-.937-1.089-.937-.619 0-1.034.383-1.034.869M10 20.635c-.014.543.35 1.043 1.177 1.043h.03v-.408h-.03c-.44 0-.716-.281-.716-.635v-.18H10zM14.668 18.765h.998c.316 0 .623.248.623.616a.62.62 0 0 1-.638.621h-.535v.442l.408-.004.65 1.237h.54l-.703-1.294c.368-.111.735-.492.735-1.002 0-.606-.436-1.058-1.065-1.058h-1.013Z"/></g><defs><clipPath id="a"><path fill="#fff" d="M0 0h40v40H0z"/></clipPath></defs></svg>