<svg width="40" height="40" fill="none" xmlns="http://www.w3.org/2000/svg"><g clip-path="url(#a)" transform="matrix(1.4 0 0 1.4 -8 -7.962)"><g clip-path="url(#b)"><path d="M29.064 11c.391 0 .6.032.79.196.166.277.132.393.134.623.008.825-.016 1.651.012 2.475.017.51-.163.68-.685.679-4.67-.019-9.339-.016-14.008 0-.214.002-.667-.045-.66.248.018.623.218.718.647.767 1.284.143 2.571.265 3.858.386 5.93.55 3.955.35 5.93.55 1.72.174 2.72 2.199 2.298 3.745-.358 1.315-1.18 2.258-2.82 2.36-2.673.167-4.998.339-7.51.631-1.002.117-.497.062-1.49.241-.693.227-.914.508-.918 1.221-.004.844-.02 1.688.005 2.531.023.858-.108 1.202-1.172 1.154-.86-.04-1.725-.005-2.587-.008-.698-.004-.888-.176-.887-.852.001-1.594.002-3.187.034-4.78.027-1.366.817-2.1 2.176-2.177 3.293-.186 6.585-.402 9.878-.607.093-.005.186-.022.279-.031.215-.02.363-.118.348-.353-.016-.22-.192-.247-.368-.26-.842-.053-1.684-.115-2.526-.163-2.62-.146-5.242-.276-7.86-.435-1.126-.069-1.866-.777-1.909-1.905a97.075 97.075 0 0 1-.036-4.892c.01-.79.584-1.306 1.363-1.344" fill="#0934cf"/></g></g><defs><clipPath id="a"><path fill="#fff" d="M0 0h40v40H0z"/></clipPath><clipPath id="b"><path fill="#fff" transform="translate(10 11)" d="M0 0h20v17.811H0z"/></clipPath></defs></svg>