<svg width="40" height="40" fill="none" xmlns="http://www.w3.org/2000/svg"><g clip-path="url(#a)" transform="matrix(1.4 0 0 1.4 -7.995 -7.99)"><mask id="b" mask-type="alpha" maskUnits="userSpaceOnUse" x="10" y="10" width="20" height="20"><path fill="#fff" d="M10.058 10h19.885v20H10.058z"/></mask><g mask="url(#b)" fill-rule="evenodd" clip-rule="evenodd"><path d="M10.058 19.974a9.956 9.956 0 0 0 3.826 7.855 9.954 9.954 0 0 0 3.826-7.855 9.956 9.956 0 0 0-3.826-7.854 9.957 9.957 0 0 0-3.826 7.854z" fill="#0073bb"/><path d="M16.358 29.25c1.137.45 2.377.699 3.674.699 5.052 0 9.226-3.756 9.884-8.628a9.959 9.959 0 0 0-3.674-.699c-5.053 0-9.227 3.757-9.884 8.628" fill="#000"/><path d="M16.358 10.7c.657 4.871 4.831 8.627 9.884 8.627a9.956 9.956 0 0 0 3.674-.699C29.258 13.756 25.084 10 20.032 10a9.943 9.943 0 0 0-3.674.7z" fill="#72bf44"/></g></g><defs><clipPath id="a"><path fill="#fff" d="M0 0h40v40H0z"/></clipPath></defs></svg>