<svg width="40" height="40" fill="none" xmlns="http://www.w3.org/2000/svg"><g clip-path="url(#a)" transform="matrix(1.4 0 0 1.4 -8 -8.034)"><path fill-rule="evenodd" clip-rule="evenodd" d="M14.383 19.085a.237.237 0 0 0-.174.072.237.237 0 0 0-.072.174c0 .068.024.126.072.174a.237.237 0 0 0 .174.072.237.237 0 0 0 .174-.072.237.237 0 0 0 .072-.174.237.237 0 0 0-.072-.174.237.237 0 0 0-.174-.072zm.471 2.054h.424V19h-.424Zm1.73-.688a.356.356 0 0 0-.09-.252.325.325 0 0 0-.25-.096.324.324 0 0 0-.25.096.356.356 0 0 0-.089.252c0 .104.03.188.09.252.059.064.142.096.25.096a.324.324 0 0 0 .25-.096.356.356 0 0 0 .089-.252zm.365-.297a.72.72 0 0 1 .06.297.682.682 0 0 1-.465.67.868.868 0 0 1-.3.051.867.867 0 0 1-.298-.05.682.682 0 0 1-.465-.67c0-.11.02-.21.06-.298a.683.683 0 0 1 .405-.373.865.865 0 0 1 .298-.051c.106 0 .205.017.299.05a.683.683 0 0 1 .406.373zm1.103-.424a.407.407 0 0 0-.235.064.522.522 0 0 0-.16.19h-.006v-.22h-.425v1.375h.425v-.575c0-.068.003-.13.01-.186a.36.36 0 0 1 .05-.146.256.256 0 0 1 .11-.095.578.578 0 0 1 .373-.006v-.387a.363.363 0 0 0-.068-.011.95.95 0 0 0-.074-.003zm-3.881 1.409h.424v-1.375h-.424zm-3.73-.815h.869v-.407h-.869v-.374h.92v-.407H10v2.003h1.412v-.408h-.97zm2.082.065a.65.65 0 0 0-.173-.066l-.172-.04a.69.69 0 0 1-.133-.043c-.035-.016-.053-.04-.053-.074 0-.042.017-.071.051-.088a.23.23 0 0 1 .105-.026.3.3 0 0 1 .246.116l.26-.257a.51.51 0 0 0-.234-.142 1 1 0 0 0-.275-.04.85.85 0 0 0-.212.028.563.563 0 0 0-.185.083.42.42 0 0 0-.18.354c0 .086.018.156.052.208.035.052.08.092.133.12.054.028.112.05.173.064l.173.04a.576.576 0 0 1 .132.044c.035.018.053.045.053.081 0 .038-.02.064-.06.078a.392.392 0 0 1-.133.021.354.354 0 0 1-.168-.038.425.425 0 0 1-.131-.112l-.258.286c.068.07.151.118.249.146a1.083 1.083 0 0 0 .515.02.637.637 0 0 0 .204-.074.385.385 0 0 0 .207-.358.367.367 0 0 0-.053-.208.387.387 0 0 0-.133-.123zm1.257 0a.65.65 0 0 0-.172-.066l-.173-.04a.69.69 0 0 1-.133-.043c-.035-.016-.052-.04-.052-.074 0-.042.017-.071.05-.088a.231.231 0 0 1 .105-.026.3.3 0 0 1 .247.116l.26-.257a.51.51 0 0 0-.235-.142.999.999 0 0 0-.274-.04.85.85 0 0 0-.213.028.563.563 0 0 0-.185.083.42.42 0 0 0-.18.354c0 .086.018.156.053.208a.36.36 0 0 0 .133.12.71.71 0 0 0 .172.064l.173.04a.576.576 0 0 1 .133.044c.035.018.052.045.052.081 0 .038-.02.064-.06.078a.392.392 0 0 1-.132.021.354.354 0 0 1-.168-.038.425.425 0 0 1-.132-.112l-.257.286c.067.07.15.118.249.146a1.082 1.082 0 0 0 .514.02.638.638 0 0 0 .204-.074.385.385 0 0 0 .207-.358.367.367 0 0 0-.053-.208.387.387 0 0 0-.133-.123zm10.168.062a.356.356 0 0 0-.09-.252.325.325 0 0 0-.25-.096.324.324 0 0 0-.25.096.356.356 0 0 0-.09.252c0 .104.03.188.09.252s.143.096.25.096a.324.324 0 0 0 .25-.096.356.356 0 0 0 .09-.252zm.365-.297a.72.72 0 0 1 .059.297.684.684 0 0 1-.465.67.868.868 0 0 1-.299.052.868.868 0 0 1-.298-.051.684.684 0 0 1-.465-.67.685.685 0 0 1 .465-.67.865.865 0 0 1 .298-.052c.106 0 .205.017.299.05a.685.685 0 0 1 .406.373zm1.814-.798h-.424v.408H25.119v-.408h-.425v.408h-.271v.371h.271v.622c0 .075.013.14.038.192.026.053.061.096.107.129a.45.45 0 0 0 .158.072c.06.015.126.023.198.023.049 0 .099-.003.15-.009a.636.636 0 0 0 .147-.034v-.353a.15.15 0 0 1-.083.032.738.738 0 0 1-.09.007.269.269 0 0 1-.108-.018.128.128 0 0 1-.061-.053.207.207 0 0 1-.026-.08.858.858 0 0 1-.005-.103v-.427h.584v.622c0 .075.013.14.038.192.025.053.06.096.106.129a.45.45 0 0 0 .158.072c.06.015.127.023.199.023.049 0 .099-.003.15-.009.05-.006.1-.017.147-.034v-.354a.15.15 0 0 1-.084.033.735.735 0 0 1-.09.007.27.27 0 0 1-.108-.018.129.129 0 0 1-.06-.053.207.207 0 0 1-.026-.08.858.858 0 0 1-.006-.104v-.426h.373v-.371h-.373zm1.978.747a.258.258 0 0 1 .21.105l.28-.294a.542.542 0 0 0-.234-.143.88.88 0 0 0-.555.01.685.685 0 0 0-.465.67c0 .11.02.209.06.297a.684.684 0 0 0 .405.374.867.867 0 0 0 .555.01.54.54 0 0 0 .233-.143l-.28-.295a.372.372 0 0 1-.088.074.229.229 0 0 1-.121.031.324.324 0 0 1-.25-.096.356.356 0 0 1-.09-.252c0-.104.03-.188.09-.252a.324.324 0 0 1 .25-.096zm-1.173-1.018a.237.237 0 0 0-.174.072.237.237 0 0 0-.072.174c0 .068.024.126.072.174a.237.237 0 0 0 .174.072.237.237 0 0 0 .174-.072.237.237 0 0 0 .072-.174.237.237 0 0 0-.072-.174.237.237 0 0 0-.174-.072zm-.212 2.054h.424v-1.375h-.424Zm-3.868-1.375h-.472l-.235.373-.243-.373H21.4l.458.64-.543.735h.495l.323-.459.3.459h.5l-.529-.736zm6.758.772h-.105c-.032 0-.072.002-.12.004a.614.614 0 0 0-.139.024.308.308 0 0 0-.113.06.137.137 0 0 0-.047.11c0 .051.022.089.065.113a.272.272 0 0 0 .136.037.427.427 0 0 0 .12-.017.357.357 0 0 0 .104-.048.232.232 0 0 0 .072-.08.228.228 0 0 0 .027-.113zm.39-.096v.699h-.39v-.173h-.006a.399.399 0 0 1-.188.158.646.646 0 0 1-.433.022.466.466 0 0 1-.157-.081.388.388 0 0 1-.147-.317c0-.079.015-.146.044-.2.029-.055.069-.1.119-.136a.59.59 0 0 1 .17-.084c.065-.02.131-.034.2-.044.069-.01.138-.015.207-.017l.19-.003a.22.22 0 0 0-.08-.18.291.291 0 0 0-.19-.066.416.416 0 0 0-.192.044.522.522 0 0 0-.154.12l-.226-.232a.777.777 0 0 1 .277-.165.99.99 0 0 1 .328-.055c.125 0 .227.015.307.046.08.032.144.077.192.138a.53.53 0 0 1 .1.222c.02.088.029.189.029.304zm-11.176-1.304h-.442v2.003h1.26v-.408h-.818zm1.906.628h.424v1.375h-.407v-.187h-.006a.469.469 0 0 1-.058.08.379.379 0 0 1-.086.07.499.499 0 0 1-.257.07.593.593 0 0 1-.262-.049.374.374 0 0 1-.155-.137.538.538 0 0 1-.074-.207 1.68 1.68 0 0 1-.018-.257v-.758h.424v.673c0 .04.001.08.004.123a.386.386 0 0 0 .026.118.203.203 0 0 0 .065.087c.029.023.07.034.126.034.054 0 .099-.01.133-.03a.202.202 0 0 0 .077-.079.323.323 0 0 0 .036-.111.957.957 0 0 0 .008-.13z" fill="#fff"/></g><defs><clipPath id="a"><path fill="#fff" transform="translate(10 19)" d="M0 0h20v2.2H0z"/></clipPath></defs></svg>