<svg width="40" height="40" fill="none" xmlns="http://www.w3.org/2000/svg"><path fill-rule="evenodd" clip-rule="evenodd" d="M30.74 25.154c-2.02 4.584-6.177 6.984-10.616 6.928-8.516-.422-10.993-10.256-5.302-13.806l.25.25c-.097.127-.427.395-.96 1.436-.62 1.266-.808 2.527-.735 3.316.443 6.874 10.06 8.272 13.373 1.476 4.217-9.321-6.96-18.788-16.883-11.553l-.23-.229c2.61-4.095 7.711-5.928 12.582-4.703 7.449 1.862 11.447 9.631 8.52 16.885Zm-7.962-.148a3.818 3.818 0 1 1-3.415-5.984 3.137 3.137 0 0 1 2.928 1.697c.59 1.164.374 2.6-.544 3.57l1.03.717zM9.456 22.484c-.184 1.517-.069 1.99-.07 2.17l-.336.123c-.128-.25-.451-1.128-.594-2.309-.364-4.508 2.708-8.571 7.384-9.328 4.29-.63 8.39 2.034 9.35 5.762l-.337.123c-.1-.11-.28-.413-.928-1.07-5.173-5.196-13.302-2.813-14.469 4.53Zm24.532-2.5C33.682 5.084 13.89-.47 6.272 13.494c.337.243.803.573 1.14.816a14.21 14.21 0 0 0-1.186 3.72A14.083 14.083 0 0 0 6 20.545c0 7.732 6.268 14 14 14s14-6.268 14-14c0-.188-.005-.375-.012-.561" fill="#fff" style="stroke-width:1.4"/></svg>