<svg width="40" height="40" fill="none" xmlns="http://www.w3.org/2000/svg"><g clip-path="url(#a)" transform="matrix(1.4 0 0 1.4 -8 -7.897)"><g clip-path="url(#b)" fill="#0282c6"><path d="M16.312 18.72c-.854.695-1.417 1.557-1.583 2.667-.21 1.414.253 2.557 1.331 3.475 1.142.971 2.527 1.354 3.951 1.618 2.36.439 4.713.304 7.056-.16.21-.041.424-.088.637-.091.513-.01.887.257 1.044.711.159.463.03.885-.367 1.21a2.176 2.176 0 0 1-.715.382c-1.786.582-3.602.964-5.495.954-1.667-.008-3.329.022-4.96-.416-1.488-.399-2.913-.93-4.137-1.891-1.866-1.466-2.704-3.375-2.428-5.752.119-1.026.413-1.988 1.01-2.843.71.047 1.422.008 2.135.054.627.04 1.269-.033 1.904-.046.216-.005.424.022.617.127z"/><path d="M16.312 18.72a1.195 1.195 0 0 0-.618-.129c-.635.013-1.277.086-1.904.046-.713-.046-1.424-.007-2.135-.054.518-.885 1.25-1.561 2.096-2.119 1.647-1.084 3.491-1.569 5.43-1.746 1.397-.128 2.787-.083 4.16.207 1.322.279 2.564.767 3.632 1.612.662.524 1.22 1.148 1.59 1.92-.133.084-.283.067-.429.067-.94 0-1.88-.002-2.82.003-.127 0-.278-.055-.37.097-.96-.784-2.102-1.066-3.303-1.155-1.626-.121-3.205.049-4.668.843-.227.123-.44.27-.66.408z"/><path d="M24.945 18.623c.092-.152.242-.096.37-.097.94-.004 1.88-.002 2.82-.003.147 0 .296.017.429-.067.323.565.509 1.162.564 1.82.041.49.07.96-.081 1.43-.291.906-.81 1.3-1.776 1.3-1.79.002-3.58-.007-5.37-.018a116.91 116.91 0 0 1-2.548-.04c-.645-.018-1.154-.382-1.272-.88-.182-.766.293-1.426 1.151-1.499.958-.081 1.922-.097 2.883-.136.766-.032 1.533-.043 2.297-.088a1.67 1.67 0 0 0 .607-.178c.425-.206.543-.668.286-1.097-.097-.162-.238-.298-.36-.447zM10 14.414c.926-.948 1.97-1.73 3.106-2.388 1.452-.843 3-1.443 4.645-1.779 1.005-.205 2.022-.308 3.042-.207 1.461.145 2.897.446 4.26 1.005 1.476.604 2.87 1.362 4.08 2.419.27.237.507.512.763.767.055.055.15.103.079.186-.059.07-.141.013-.213-.022a16.802 16.802 0 0 0-1.42-.632c-3.255-1.241-6.628-1.59-10.083-1.382-2.769.165-5.402.848-7.922 1.99-.103.046-.2.107-.337.043Z"/></g></g><defs><clipPath id="a"><path fill="#fff" d="M0 0h40v40H0z"/></clipPath><clipPath id="b"><path fill="#fff" transform="translate(10 10)" d="M0 0h20v19.487H0z"/></clipPath></defs></svg>