<svg width="40" height="40" fill="none" xmlns="http://www.w3.org/2000/svg"><g clip-path="url(#a)" transform="matrix(1.4 0 0 1.4 -8 -8)" fill-rule="evenodd" clip-rule="evenodd" fill="#fff"><path d="M29.755 14.658c-.024.009-2.703.982-5.346 2.604-1.247.76-2.291 1.548-3.12 2.34a4.817 4.817 0 0 1-.831-.173c.518-.258.893-.55 1.12-.728.682-.537 1.075-1.264 1.075-1.906.001-.59-.177-1.045-.555-1.407-.746-.721-1.976-.678-2.097-.675-.12-.003-1.348-.046-2.097.675-.376.362-.552.817-.552 1.407 0 .642.393 1.37 1.074 1.906.229.179.6.47 1.119.727a4.626 4.626 0 0 1-.832.174c-.826-.792-1.873-1.58-3.117-2.34a33.397 33.397 0 0 0-5.348-2.604l-.248-.09.036.259c.002.037.125.937.822 1.983.643.964 1.912 2.236 4.322 2.831 1.373.34 2.509.395 3.426.304a9.453 9.453 0 0 1 1.223 1.462 5.056 5.056 0 0 0-.684 2.545c.001.04.028.892.357 1.245.168.185.298.236.5.236.203 0 .33-.05.498-.236.33-.354.36-1.206.36-1.245a5.1 5.1 0 0 0-.686-2.545c.22-.33.474-.661.772-.99.142-.158.293-.314.45-.472.918.091 2.054.036 3.427-.304 2.409-.595 3.68-1.867 4.322-2.83.697-1.045.819-1.947.823-1.984l.032-.26-.245.091ZM15.258 19.33c-2.311-.57-3.522-1.783-4.135-2.695a5.402 5.402 0 0 1-.716-1.573c.742.287 2.894 1.169 5.023 2.474 1.127.687 2.083 1.393 2.855 2.103-.93.055-1.96-.044-3.027-.31zm3.347-.861c-.602-.478-.95-1.134-.95-1.674 0-.493.143-.897.452-1.195.667-.643 1.878-.582 1.889-.582l.007-.109.005.109c.012 0 1.221-.061 1.885.582.31.298.453.702.453 1.195 0 .54-.346 1.196-.948 1.673-.39.304-.868.59-1.397.8a5.833 5.833 0 0 1-1.396-.8m2.094 5.536c0 .014-.01 1.357-.698 1.357s-.697-1.343-.697-1.357c.006-.763.24-1.54.697-2.316.457.776.691 1.553.698 2.316zm.012-3.804c-.278.31-.513.614-.708.92a7.887 7.887 0 0 0-.996-1.227 4.88 4.88 0 0 0 .994-.264c.297.114.63.207.996.264-.098.104-.198.206-.286.307m8.168-3.565c-.61.912-1.82 2.124-4.134 2.695-1.067.265-2.098.364-3.029.309.775-.71 1.731-1.416 2.857-2.103 2.128-1.304 4.283-2.187 5.023-2.474-.084.326-.285.92-.717 1.573"/><path d="M18.749 16.603c0 .22.114.038.396.038.296 0 .4.182.4-.038a.4.4 0 0 0-.4-.398.397.397 0 0 0-.396.398zM20.822 16.641c.293 0 .398.182.398-.038a.398.398 0 0 0-.797 0c.002.22.116.038.4.038z"/><path d="M20.837 15.493c-.639-.022-.855.296-.855.296v.241l.003-.001v.08c.006-.008.275-.316.763-.316.584 0 .845.39.845.874 0 .649-.573 1.483-1.61 1.846-1.034-.364-1.61-1.197-1.61-1.846-.001-.486.262-.874.848-.874.487 0 .756.31.763.317l-.002-.08v-.241s-.21-.318-.851-.296c-.694.022-1.049.617-1.049 1.16 0 .78.753 1.773 1.902 2.092 1.146-.32 1.9-1.311 1.9-2.092 0-.543-.354-1.138-1.047-1.16"/><path d="M19.769 17.127c0 .18.128.503.215.503.085 0 .214-.322.214-.503 0-.175-.096-.236-.216-.236-.117 0-.213.061-.213.236"/></g><defs><clipPath id="a"><path fill="#fff" d="M0 0h40v40H0z"/></clipPath></defs></svg>