<svg width="40" height="40" fill="none" xmlns="http://www.w3.org/2000/svg"><g clip-path="url(#a)" transform="matrix(1.4 0 0 1.4 -8 -7.922)"><g clip-path="url(#b)"><path d="M12.83 19.783c0-2-.017-4 .01-6 .01-.642-.243-.891-.863-.852-.376.024-.755.012-1.132.012-.55 0-.812-.304-.837-.826-.017-.355 0-.71 0-1.066 0-.931.108-1.051 1.015-1.051 2.11 0 4.22.003 6.331.01.812.003.917.118.928.927.005.4.001.8.024 1.199.033.575-.252.813-.796.807h-.067c-1.589.036-1.59.036-1.589 1.614 0 .777.015 1.556-.002 2.333-.01.458.196.648.636.65 2.354.006 4.71.01 7.064.029.623.005.882-.275.87-.892-.019-1-.023-2 .005-2.999.015-.522-.223-.729-.707-.737-.044-.001-.089.004-.133-.004-.503-.09-1.373-.074-1.44-.297-.207-.69-.147-1.475-.096-2.217.01-.154.423-.398.652-.4 2.177-.027 4.354-.008 6.532-.011.497 0 .742.239.75.724.008.49-.01.977.004 1.467.014.518-.268.718-.741.725-.333.004-.667-.008-1-.003-.728.01-.887.18-.883.923.023 3.553.046 7.107.067 10.66.003.49.004.978-.012 1.467-.016.51.213.735.723.708.377-.02.754-.008 1.133-.012.468-.004.699.244.71.695.011.51-.014 1.022.011 1.531.023.463-.225.682-.629.684-2.267.022-4.532.035-6.798-.004-.202-.004-.53-.38-.567-.622-.083-.519-.008-1.063-.012-1.596-.004-.472.227-.696.688-.696.356 0 .71.01 1.067.01.436 0 .658-.225.66-.658.004-1.667.002-3.333.006-5 .002-.422-.224-.606-.621-.605-2.444.003-4.888.003-7.332.016-.382.001-.615.19-.613.62.01 1.623.008 3.244.008 4.866 0 .535.27.744.793.742 1.871-.011 1.627.004 1.638 1.689.008 1.25.01 1.256-1.247 1.258-1.977.006-3.954.012-5.932.002-.978-.006-1.06-.104-1.078-1.067-.033-1.85-.033-1.85 1.782-1.868.952-.01 1.022-.088 1.02-1.024-.006-1.95-.002-3.906 0-5.86z" fill="#fff"/></g></g><defs><clipPath id="a"><path fill="#fff" d="M0 0h40v40H0z"/></clipPath><clipPath id="b"><path fill="#fff" transform="translate(10 10)" d="M0 0h20v19.612H0z"/></clipPath></defs></svg>