<svg width="40" height="40" fill="none" xmlns="http://www.w3.org/2000/svg"><g clip-path="url(#a)" transform="matrix(1.4 0 0 1.4 -8 -8)"><mask id="b" mask-type="alpha" maskUnits="userSpaceOnUse" x="10" y="18" width="20" height="4"><path fill="#fff" d="M10 18.071h20v3.857H10z"/></mask><g mask="url(#b)"><path fill-rule="evenodd" clip-rule="evenodd" d="M28.036 18.18c.937 0 1.855.3 1.855 1.002 0 .819-1.014 1.095-1.593 1.168l1.366 1.396h-.86c-.263 0-.465-.133-.657-.369-.408-.5-.95-1.168-1.094-1.353.46-.073 1.805-.118 1.805-.73 0-.346-.518-.418-.9-.418-1.068 0-1.212.741-1.358 1.173l-.522 1.697H25.05l.53-1.716c.32-1.126.917-1.85 2.456-1.85zm-8.882.564c-.27.313-.375.502-.683.502-.316 0-.567-.282-1.357-.282-.8 0-1.296.476-1.296 1.068 0 .812.91.993 1.298.993 1.208 0 2.359-1.453 3.253-2.076.604-.435 1.231-.769 2.24-.769 1.46 0 2.34.85 2.34 1.852 0 .974-.929 1.787-2.333 1.787-1.144 0-1.837-.328-2.556-1.04l.596-.548c.307.339 1.01.794 1.897.794.67 0 1.352-.393 1.352-.993 0-.612-.503-1.068-1.295-1.068-2.01 0-2.97 2.844-5.49 2.844-.935 0-2.214-.369-2.35-1.616 0-.014-.003-.272 0-.303.073-.991 1.165-1.708 2.382-1.708.736 0 1.5.299 2.002.563zm-6.085-.537c.593.064 1.38.312 1.458.337-.13.233-.236.556-.507.556-.201 0-.76-.222-1.382-.222-.256 0-.752.041-.752.326-.001.489 2.547.337 2.445 1.435-.061.659-.893 1.168-2.014 1.168-.94 0-1.864-.33-2.208-.513.098-.16.136-.214.279-.448.043-.071.124-.113.226-.102.142.015.93.345 1.553.362.385.011.96.002 1-.35.062-.544-2.356-.409-2.356-1.48 0-.552.696-1.238 2.258-1.069z" fill="#007190"/></g></g><defs><clipPath id="a"><path fill="#fff" d="M0 0h40v40H0z"/></clipPath></defs></svg>