<svg width="40" height="40" fill="none" xmlns="http://www.w3.org/2000/svg"><g clip-path="url(#a)" transform="matrix(1.4 0 0 1.4 -8 -8)" fill-rule="evenodd" clip-rule="evenodd" fill="#fff"><path d="M20.88 21.565h2.582v-.314h-2.14v-1.01h1.606v-.318h-1.605v-.93h2.139v-.314H20.88zM22.22 18.213l-.347.393 1.095-.393zM27.794 21.251V18.68h-.402v2.886H30v-.314zM25.135 18.679l-1.468 2.886h.495l.377-.745h1.76l.379.745h.49L25.7 18.68zm-.411 1.777.691-1.378.7 1.378zM19.48 20.36c.661-.177.727-.67.722-.846-.038-.515-.386-.835-1.012-.835h-1.818v2.886h.416v-1.21h1.183l.872 1.21h.522s-.626-.813-.886-1.206zm-.346-.346h-1.346v-.992h1.393c.32 0 .502.15.567.339a.539.539 0 0 1-.056.42c-.115.192-.337.233-.558.233zM14.878 18.19c-1.17 0-1.967.825-1.967 1.826 0 1.05.881 1.793 1.967 1.793 1.089 0 1.97-.732 1.97-1.793 0-1-.809-1.825-1.97-1.825zm-.013 3.262c-.809 0-1.477-.652-1.477-1.436 0-.782.637-1.464 1.508-1.464.852 0 1.478.682 1.478 1.464 0 .784-.698 1.436-1.51 1.436zM11.865 19.702h.3l.543-1.023h-.436zM10.404 21.251V18.68H10v2.886h2.609v-.314z"/></g><defs><clipPath id="a"><path fill="#fff" d="M0 0h40v40H0z"/></clipPath></defs></svg>