<svg width="40" height="40" fill="none" xmlns="http://www.w3.org/2000/svg"><g clip-path="url(#a)" transform="matrix(1.4 0 0 1.4 -7.601 -7.933)"><g clip-path="url(#b)" fill-rule="evenodd" clip-rule="evenodd"><path d="M13.551 20.458c.147.12.267.268.341.452l.065.13c.018.054.027.091.055.137l.876 2.508c.046.13.147.397.166.507.018.13.018.074.037.093l.055.055c0 .01.01.01.01.01l.064.054.009.01c.037.064.102.064.166.092.046.027.074.018.12.037.055.018-.028.009.055.018.037 0 .13.01.148 0 .064 0 .212-.01.295-.018.027-.056.027-.037.101-.056l.323-.156v-.01l.11-.12.019-.018.037-.046a.286.286 0 0 0 .018-.074c.028-.11.028-.027.056-.12l.018-.027v-.028c.018-.129.046-.249.01-.387-.02-.065-.02-.148-.047-.212-.055-.157-.083-.388-.12-.553-.092-.388-.156-.747-.24-1.153-.018-.083-.202-.959-.211-1.125z" fill="url(#c)" style="fill:url(#c)"/><path d="m17.58 20.587 3.153.323z" fill="#bd998e"/><path d="M18.106 20.643c.083.488.23.986.405 1.438.148.369.341.7.609.986.037.037.074.083.11.12.35.341.434.37.775.6.489.313 1.042.507 1.604.663a6.703 6.703 0 0 0 1.632.212c.489.01 1.245-.036 1.697-.138.12-.028.258-.055.378-.074.073-.018.12-.037.184-.046.065-.018.12-.027.184-.046.24-.064.452-.138.683-.23.203-.074.442-.203.608-.258l.037-.01c.046-.009.055-.009.074-.046l.083-.092v-.018l.064-.074c.046-.055.065-.157.102-.212l.037-.102c.009-.553.009-.322-.046-.47l-.047-.129c-.027-.083.037.037-.018-.028-.037-.046-.028.01-.028-.083h-.037c-.018-.009-.009-.009-.018-.018l-.074-.065c-.037-.027-.046-.055-.083-.073-.055-.037-.101-.01-.12-.092-.156-.01-.184-.047-.35-.019h-.138c-.074 0-.046 0-.092.037-.01 0-.019 0-.019.01l-.147.045c-.083.01-.074.037-.148.046-.046.01-.083 0-.12.019-.11.046-.184.018-.258.083-.083.064-.35.101-.47.129-.83.157-1.577.194-2.434-.055a6.377 6.377 0 0 1-.7-.259c-.655-.322-1.153-.71-1.375-1.484z" fill="url(#d)" style="fill:url(#d)"/><path d="M15.21 17.637c-.1-.018-.212-.037-.313-.064-.101-.019-.221-.037-.313-.056l-.323-.064c-.636-.102-1.282-.24-1.918-.35l-.313-.056c-.304-.046-1.024-.175-1.328-.184a1.78 1.78 0 0 0-.959.193l-.166.12c-.166.13-.286.277-.387.461a.84.84 0 0 0-.065.13 1.903 1.903 0 0 0-.11.45c-.074.628.276 1.236.857 1.44.397.137.904.137 1.328.184.24.018.46.036.682.064.323.046.655.092.95.184.258.083.516.194.719.37h2.535v-.028c.268.009.729.073 1.024.11l.756.083c.074 0 .166.019.24.019l2.544.267h-.009a8.7 8.7 0 0 0 .83.083c.277.018.544.055.82.065.286.009.572.018.84.046.792.055 1.825.037 2.59-.037a5.69 5.69 0 0 0 1.116-.221c.221-.074.442-.139.645-.25.037-.018.046-.018.074-.036l.212-.12c.323-.203.397-.295.646-.535 0 0 .009 0 .009-.01l.064-.082c.222-.258.35-.526.434-.885a2.74 2.74 0 0 0 .073-.84h-2.443c.01.01.01.02.019.02.258.396-.277.543-.609.59-.443.055-.784.1-1.245.11-1.088.028-1.917-.028-2.968-.148l-.406-.055z" fill="url(#e)" style="fill:url(#e)"/><path d="M28.994 18.089c-.027-.378-.11-.756-.258-1.06a2.322 2.322 0 0 0-.24-.425c-.073-.11-.165-.212-.248-.313l-.222-.212c-.23-.194-.608-.443-.894-.553l-.323-.139c-.101-.037-.212-.083-.322-.11-1.328-.424-3.366-.341-4.684.11-.332.11-.645.222-.95.388-.046.027-.101.055-.147.083l-.415.248c-.369.268-.47.378-.784.655l-.11.11c0 .01-.019.02-.019.02l-.258.294-.01.01-.313.414a.248.248 0 0 0-.046.056l-.313.525 2.507.369.01-.028c.055-.083.258-.285.285-.313a5.14 5.14 0 0 1 1.015-.553c.986-.397 2.102-.406 3.125-.148.332.083.36.074.682.212.148.065.388.221.49.36z" fill="#2f54fa"/><path d="m17.58 20.587 3.153.323z" fill="#bd998e"/></g></g><defs><linearGradient id="c" x1="15.862" y1="24.554" x2="14.825" y2="20.52" gradientUnits="userSpaceOnUse"><stop stop-color="#FF7B08"/><stop offset=".49" stop-color="#FC2E04"/><stop offset="1" stop-color="#FB0102"/></linearGradient><linearGradient id="d" x1="19" y1="20" x2="27.09" y2="23.819" gradientUnits="userSpaceOnUse"><stop stop-color="#2F54FA"/><stop offset=".445" stop-color="#9FD444"/><stop offset="1" stop-color="#FCD800"/></linearGradient><linearGradient id="e" x1="9.058" y1="17.991" x2="26.456" y2="18.215" gradientUnits="userSpaceOnUse"><stop stop-color="#FB0102"/><stop offset=".471" stop-color="#FB0102"/><stop offset=".82" stop-color="#873090"/><stop offset="1" stop-color="#2F54FA"/></linearGradient><clipPath id="a"><path fill="#fff" d="M0 0h40v40H0z"/></clipPath><clipPath id="b"><path fill="#fff" transform="translate(9 15)" d="M0 0h20v9.662H0z"/></clipPath></defs></svg>