<svg width="41" height="40" fill="none" xmlns="http://www.w3.org/2000/svg"><g clip-path="url(#a)" transform="matrix(1.4 0 0 1.4 -8.4 -7.855)"><g clip-path="url(#b)"><path d="m21.252 13 .183.013c.38.041.745.135 1.09.3.3.143.573.323.782.587a.915.915 0 0 1 .165.308.507.507 0 0 1-.13.532 4.185 4.185 0 0 0-.406.463c-.205.282-.362.586-.42.934-.116.698.122 1.262.67 1.697.287.23.618.353.991.342.684-.021 1.176-.342 1.474-.956.133-.274.194-.567.206-.87.03-.71-.15-1.37-.468-1.999a6.276 6.276 0 0 0-.438-.731c-.027-.04-.052-.08-.049-.13.005-.084.066-.119.137-.075.027.016.05.039.073.06l2.834 2.746 2.563 2.48c.05.05.101.096.152.144.45.43.453 1.145.006 1.58-.23.224-.465.447-.696.67l-3.367 3.26L25.11 25.8c-.023.022-.046.045-.072.06-.071.044-.133.007-.137-.076-.002-.051.023-.09.05-.13.128-.185.247-.375.355-.572.222-.408.394-.834.482-1.291.093-.484.113-.967-.028-1.446-.106-.36-.29-.672-.59-.906a1.611 1.611 0 0 0-2.04.043 1.736 1.736 0 0 0-.618 1.037c-.074.397 0 .772.17 1.133.144.304.347.564.581.803l.067.067c.169.17.209.37.126.593a1.117 1.117 0 0 1-.277.403c-.203.2-.441.348-.7.465a3.32 3.32 0 0 1-1.304.292c-.624.014-1.145-.217-1.574-.665a3.646 3.646 0 0 1-.669-1.029 7.605 7.605 0 0 1-.512-1.663 13.578 13.578 0 0 1-.214-1.567 20.756 20.756 0 0 1 .006-3.486c.079-.851.21-1.693.474-2.51.158-.489.362-.957.663-1.377.2-.278.436-.517.73-.695.22-.133.455-.217.708-.258.033-.006.072-.014.118-.019.049-.006.334-.007.346-.006z" fill="#036ccb"/><path d="M11 19.632c-.003-.339.144-.607.384-.835.346-.329.689-.661 1.032-.993l2.173-2.105 1.43-1.386.866-.838c.02-.02.041-.04.064-.055.034-.023.072-.028.107-.005.037.023.04.06.038.1-.003.042-.03.07-.053.099-.218.271-.425.55-.62.839a9.18 9.18 0 0 0-1.252 2.664 9.109 9.109 0 0 0-.3 1.685c-.046.53-.05 1.062-.011 1.592a8.701 8.701 0 0 0 1.204 3.863c.276.466.585.909.922 1.332l.082.104a.134.134 0 0 1 .028.098c-.007.07-.066.104-.13.073-.035-.016-.06-.045-.088-.072l-3.78-3.662-1.609-1.557c-.072-.07-.15-.135-.217-.212-.18-.21-.274-.45-.27-.729z" fill="#ed1e25"/></g></g><defs><clipPath id="a"><path fill="#fff" transform="translate(.879)" d="M0 0h40v40H0z"/></clipPath><clipPath id="b"><path fill="#fff" transform="translate(11 13)" d="M0 0h20v13.275H0z"/></clipPath></defs></svg>