<svg width="40" height="40" fill="none" xmlns="http://www.w3.org/2000/svg"><path fill-rule="evenodd" clip-rule="evenodd" d="M27.996 7.496a.7.7 0 0 0-.339-.088h-5.2l-.126.012a.7.7 0 0 0-.56.826l.532 2.662-3.775 2.517-.1.08a.7.7 0 0 0-.185.695l1.26 4.408-2 1.334-.093.074-.08.088-2.027 2.704-3.984 1.328-.102.043a.7.7 0 0 0-.246.214L7.98 28.58l-.068.116a.7.7 0 0 0 .189.828l3.437 2.864.106.073a.7.7 0 0 0 .494.073l5.765-1.281.126-.041a.7.7 0 0 0 .217-.148l3.356-3.356 4.58-1.308.117-.045a.7.7 0 0 0 .334-.353l1.892-4.413.039-.122a.7.7 0 0 0 .01-.253l-.672-4.706 1.4-3.5 1.693-2.257.065-.105a.7.7 0 0 0-.188-.862l-2.778-2.222zm-2.977 2.712h1.902l.612.49-.637.853a.692.692 0 0 0-.09.16l-1.711 4.279a.7.7 0 0 0-.043.359l.667 4.677-1.266 2.955-4.143 1.185a.7.7 0 0 0-.302.177l-3.31 3.309-4.16.924-1.147-.956 1.46-2.044 3.96-1.319a.7.7 0 0 0 .338-.244l2.205-2.941 2.977-1.984a.7.7 0 0 0 .285-.775l-1.26-4.41 3.67-2.445a.7.7 0 0 0 .298-.72z" fill="#fff" style="stroke-width:1.4"/></svg>