<svg width="40" height="40" fill="none" xmlns="http://www.w3.org/2000/svg"><g clip-path="url(#a)" transform="matrix(1.4 0 0 1.4 -8 -8)"><path fill-rule="evenodd" clip-rule="evenodd" d="M29.288 29.698h-4.586l-3.371-7.03c-1.838 1-2.892 3.318-4.76 4.85-.952.779-2.066 1.473-3.449 1.946-.628.21-1.694.485-2.095.527-.168.018-.288.012-.312-.054-.017-.048.03-.084.204-.167.204-.096 1.048-.45 1.575-.815.658-.46 1.035-.958 1.065-1.34-.18-.641-1.472-2.054-.15-4.659.474-.934.887-1.604 1.18-2.28.336-.78.575-1.869.659-2.683.006-.048.012-.048.042-.018.64.652 3.131 3.215 2.772 5.766.826-.318 2.263-1.288 2.928-1.803.7-.544 1.155-1.113 1.897-1.125.665-.012.719.305 1.252.377a.829.829 0 0 0 .425-.06c.042-.018.03-.066-.03-.078-.719-.167-.892-.754-1.826-.754-.838 0-1.503.766-1.982 1.084l-2.353-4.91c-1-2.048-.7-3.538 1.461-6.472Z" fill="#d8b464"/></g><defs><clipPath id="a"><path fill="#fff" d="M0 0h40v40H0z"/></clipPath></defs></svg>