<svg width="40" height="40" fill="none" xmlns="http://www.w3.org/2000/svg"><mask id="a" mask-type="alpha" maskUnits="userSpaceOnUse" x="10" y="17" width="20" height="6"><path fill="#fff" d="M10 17.692h20v4.615H10z"/></mask><g mask="url(#a)" transform="matrix(1.4 0 0 1.4 -8 -8)" fill-rule="evenodd" clip-rule="evenodd"><path d="M29.614 18.475v3.038h-.769V19.66l-.72.983h-.111l-.72-.983v1.854h-.768v-3.038h.674l.867 1.157.881-1.157zm-17.37 1.922a1.645 1.645 0 0 0-.759.095l.49-1.287.953 2.309h.727L12.4 18.472h-.854l-1.164 3.042h.726c.132-.452.71-.793 1.246-.84zm4.023.522v.59H14.14v-3.036h.75v2.446zm5.617-2.442v.588h-1.003v2.444h-.77v-2.444H19.11v-.588zm-3.198.628c-.864-.31-1.421-.097-1.421.149 0 .556 1.653.24 1.65 1.327-.002.814-.683 1.034-1.38 1.034a3.29 3.29 0 0 1-.935-.135l.072-.654c.209.1.517.169.863.169.301 0 .66-.06.68-.298.048-.62-1.647-.233-1.647-1.366 0-.754.717-.989 1.346-.989.296 0 .686.101.821.163z" fill="#fff"/><path d="M25.804 20.862a1.58 1.58 0 0 0-.067-1.62l.193-.204c.329.551.332 1.244-.021 1.82zm-2.751-.673c.004-.538.445-.98 1-.994a1.014 1.014 0 0 1 1.053.974 1.014 1.014 0 0 1-1 1.028 1.036 1.036 0 0 1-.733-.273l-.148.15a1.567 1.567 0 0 1-.06-2.255 1.668 1.668 0 0 1 1.888-.344l.008.01.08-.088a2.064 2.064 0 0 0-2.498.353 1.971 1.971 0 0 0 .078 2.839l.15-.152c.325.3.706.447 1.15.436.891-.024 1.596-.746 1.573-1.616a1.55 1.55 0 0 0-.502-1.102l.105-.107c-.52-.481-1.378-.471-1.88.044-.297.305-.437.716-.37 1.101z" fill="#e70000"/></g></svg>