<svg width="40" height="40" fill="none" xmlns="http://www.w3.org/2000/svg"><g clip-path="url(#a)" transform="matrix(1.4 0 0 1.4 -7.933 -8)"><g clip-path="url(#b)"><path d="M19.627 10.012c2.74-.04 5.123.568 7.398 1.654.955.456 1.289 1.039.72 2.097-1.419 2.652-1.145 3.242-4.202 1.675-1.726-.84-3.629-1.217-5.579-.683-.846.23-1.554.636-1.65 1.616-.091.942.536 1.457 1.288 1.729 1.841.664 3.716 1.226 5.57 1.86 2.995 1.029 5.17 2.78 5.478 6.205.078.852-.112 1.654-.255 2.459-.107.59-.518 1.005-1.205.992-.468-.006-.936.003-1.4.003-2.188 0-2.22 0-2.191-2.134.022-1.67-.94-2.6-2.325-3.133-1.778-.683-3.613-1.213-5.41-1.856-3.366-1.198-4.758-3.11-4.555-6.184.196-2.942 2.315-5.239 5.444-5.975 1.02-.24 2.035-.378 2.874-.325z" fill="#fff"/><path d="M13.636 30c-1.6-.016-2.62-1.024-2.636-2.596-.016-1.67 1.064-2.727 2.72-2.674 1.592.053 2.603 1.108 2.578 2.693C16.27 29 15.228 30.015 13.636 30z" fill="#724ea0"/></g></g><defs><clipPath id="a"><path fill="#fff" d="M0 0h40v40H0z"/></clipPath><clipPath id="b"><path fill="#fff" transform="translate(11 10)" d="M0 0h17.666v20H0z"/></clipPath></defs></svg>