<svg width="40" height="40" fill="none" xmlns="http://www.w3.org/2000/svg"><g clip-path="url(#a)" transform="matrix(1.4 0 0 1.4 -7.938 -7.96)"><mask id="b" mask-type="alpha" maskUnits="userSpaceOnUse" x="10" y="10" width="20" height="20"><path fill="#fff" d="M10 10.308h20v19.385H10z"/></mask><g mask="url(#b)"><path fill-rule="evenodd" clip-rule="evenodd" d="M23.963 16.588c-.265 0-.376.044-.484.165-.043.047-.06.094-.075.19l-1.346 5.101c-.315 1.79-2.513 3.577-5.378 3.577h-3.983l.691-2.622h2.558a.81.81 0 0 0 .637-.288c.063-.074.144-.19.155-.309l1.062-4.458c.314-1.79 2.205-3.767 5.069-3.767h4.08l-.523 2.411h-2.464zm.919 3.11.455-1.651h4.144c.511-2.394.109-4.611-1.344-6.064-2.94-2.94-9.09-1.94-13.671 2.443-.716.68-1.32 1.417-1.87 2.169h2.494l-.58 1.654h-2.981a13.526 13.526 0 0 0-.756 1.564h3.534l-.566 1.654h-3.473c-.594 2.527-.215 4.884 1.279 6.38 2.903 2.903 9.034 1.883 13.614-2.5.801-.762 1.463-1.585 2.061-2.43h-3.205l.489-1.65h3.747c.274-.526.527-1.045.725-1.57h-4.096" fill="#009e4d"/></g></g><defs><clipPath id="a"><path fill="#fff" d="M0 0h40v40H0z"/></clipPath></defs></svg>