<svg width="40" height="40" fill="none" xmlns="http://www.w3.org/2000/svg"><path fill-rule="evenodd" clip-rule="evenodd" d="M29.763 11.68c-2.208 1.241-2.899 1.38-5.107 2.76 1.38-1.38 1.794-2.07 2.622-3.313-2.07 0-5.244.414-7.48.828 1.932-1.104 5.824-2.208 7.757-2.484-.415-.552-4.279-2.622-5.245-3.036 3.036.138 6.79 1.38 8.584 2.484.69-.276 1.38-.276 2.76-.414-.275.552-.275.966-1.655 1.794.414.966-.415 6.238-1.243 7.618 0-2.236-.138-4.996-.993-6.238zM14.002 30.642c-1.243-.414-2.209-.966-3.037-1.932.276-.828.552-1.38 1.104-2.209-.966.139-1.794.277-2.622.415-.69-1.242-1.104-2.485-1.38-4.14-.276 1.793-.276 3.035 0 4.416-.69.276-1.38.414-1.932.69.828.552 1.656.966 2.622 1.518.552 1.104 1.104 1.932 2.07 2.898-.276-.828-.276-1.38-.138-2.208.966.248 1.932.552 3.313.552zM17.176 13.06c-.276.551-.828 1.517-.828 1.931 3.036.414 5.686 2.07 5.686 2.07-2.76-.552-4.14-.552-5.245-.414-.966.138-1.242.277-1.242.277-.828 1.656-1.242 4.416-1.242 4.416-.552-1.242-1.242-3.589-1.242-3.589-1.38.69-4.554 3.727-4.554 3.727 1.794-3.589 3.588-5.107 3.588-5.107-.552-.69-2.208-.966-3.45-1.104.552-.138 2.208-.552 3.45-.552h1.932c.939-.828 2.595-1.518 3.147-1.656zM20.654 28.406c-.552.828-1.104 1.38-1.656 2.07-1.104.276-1.933.414-3.037.414.552.276 1.242.552 1.933.69-.69.553-1.243.967-1.933 1.38 1.104-.137 2.485-.69 3.589-1.38h1.518c-.138-.276-.276-.552-.276-.966.966-.828 1.794-1.518 2.484-2.346-.828.552-1.656 1.104-2.622 1.518v-1.38z" fill="#009a64" style="stroke-width:1.4"/></svg>