<svg width="40" height="40" fill="none" xmlns="http://www.w3.org/2000/svg"><g clip-path="url(#a)" transform="matrix(1.4 0 0 1.4 -8 -8)"><g clip-path="url(#b)"><path d="M10 10h19.955c.037 0 .045.008.045.045v19.91c0 .037-.008.045-.045.045h-19.91c-.037 0-.045-.008-.045-.045V10.001z" fill="#f9dfca"/><path d="M10.012 20c0-3.309 0-6.617-.002-9.926 0-.049.01-.064.062-.064 6.62.002 13.238.002 19.857 0 .05 0 .063.013.063.064l-.001 19.851c0 .075.01.066-.064.066H10.075c-.063 0-.063 0-.063-.065V20z" fill="#e37739"/><path d="M24.02 27.922c-.04.05-.071.103-.112.15a.722.722 0 0 1-.516.239 1.152 1.152 0 0 1-.645-.127c-.277-.149-.44-.389-.528-.683a2.024 2.024 0 0 1-.07-.743 1.7 1.7 0 0 1 .184-.685c.158-.293.387-.5.719-.573.239-.053.475-.027.702.065.132.054.24.141.314.283l.047-.238c.014-.078.013-.078.09-.078h.489c.032 0 .04.008.04.04-.001.92 0 1.84-.005 2.76 0 .199-.045.39-.151.563a.911.911 0 0 1-.537.395 2.06 2.06 0 0 1-1.177.024.947.947 0 0 1-.514-.333.744.744 0 0 1-.123-.252c-.007-.027 0-.035.024-.038l.655-.1c.013-.002.03-.015.035.009.039.159.16.216.303.241.13.024.263.026.393.001.212-.04.33-.178.368-.384.032-.177.017-.356.014-.536zM13.843 26.894c.002.272-.036.516-.142.745a1.194 1.194 0 0 1-.769.67 1.51 1.51 0 0 1-1.093-.064 1.172 1.172 0 0 1-.647-.73 1.824 1.824 0 0 1 .03-1.278c.16-.4.463-.644.881-.745.338-.081.67-.06.986.083.382.173.605.479.704.88.037.15.054.304.05.439zM17.849 28.055a1.666 1.666 0 0 1-.424.2c-.243.071-.49.104-.74.044a.733.733 0 0 1-.567-.64c-.032-.25.014-.478.186-.672.118-.133.267-.222.428-.291.274-.12.563-.182.857-.225.078-.012.155-.022.232-.031.024-.003.039-.011.037-.04-.003-.04 0-.081-.001-.122-.006-.149-.076-.247-.22-.286a.847.847 0 0 0-.875.263c-.016.019-.027.02-.048.008a30.116 30.116 0 0 0-.431-.246c-.031-.018-.028-.03-.009-.054.158-.202.356-.347.6-.423a1.791 1.791 0 0 1 1.19.023c.25.094.423.268.485.537a.905.905 0 0 1 .017.204l.001 1.94c0 .04-.01.053-.05.052a27.962 27.962 0 0 0-.558 0c-.03 0-.043-.009-.05-.037l-.06-.204zM26.818 27.01l-.88-.001c-.035 0-.047.006-.046.045.006.13.022.259.07.381.092.236.273.346.517.365a.7.7 0 0 0 .668-.322c.02-.029.034-.034.065-.016.151.086.304.17.457.252.033.018.037.032.016.065-.16.247-.381.41-.66.494-.322.096-.648.11-.972.02-.418-.118-.676-.402-.802-.811a2.006 2.006 0 0 1-.074-.714c.013-.224.054-.442.152-.645.18-.376.484-.587.893-.65.257-.039.51-.024.755.064.36.129.582.391.693.75.069.221.092.448.077.68-.002.036-.015.044-.05.043h-.879zM19.808 25.842c.098-.066.189-.128.283-.184.24-.143.497-.215.777-.193.24.018.456.09.605.294.09.124.13.267.15.417.012.093.01.185.01.278v1.793c0 .042-.007.055-.052.054a24.69 24.69 0 0 0-.62 0c-.047 0-.063-.007-.062-.06.002-.604 0-1.208 0-1.812a.655.655 0 0 0-.047-.257.268.268 0 0 0-.236-.17c-.216-.023-.402.054-.576.17-.06.04-.137.076-.168.137-.026.053-.008.128-.008.192v1.75c0 .04-.01.05-.05.05a37.251 37.251 0 0 0-.626 0c-.035 0-.05-.006-.05-.047.002-.871.002-1.742.001-2.614 0-.038.011-.047.048-.051.174-.022.348-.048.52-.075.037-.006.042.013.046.038l.055.29zM15.044 25.837a1.15 1.15 0 0 1 .577-.357.805.805 0 0 1 .242-.025c.028 0 .042.01.042.043-.002.202-.002.404 0 .606 0 .036-.013.043-.045.042a1.449 1.449 0 0 0-.481.062.473.473 0 0 0-.259.18.155.155 0 0 0-.027.092l.001 1.754c0 .045-.012.056-.056.055-.214-.002-.43-.002-.645 0-.04 0-.047-.012-.047-.05v-2.672c0-.037.008-.05.048-.05H15c.037 0 .046.01.045.047-.003.088-.001.177-.001.273zM28.714 25.155l.209-.542c.014-.038.03-.076.042-.114.008-.022.018-.034.045-.033a2.3 2.3 0 0 0 .166 0c.025 0 .034.006.034.033v.85c0 .026-.007.036-.036.036-.095.002-.095.003-.095-.093v-.67c-.023.007-.022.026-.027.039-.092.228-.183.457-.27.687-.015.037-.037.036-.067.037-.03.001-.05-.005-.062-.038-.09-.232-.182-.464-.274-.696-.004-.01-.005-.022-.022-.032V25.34c.001.033-.006.045-.041.044-.114 0-.114 0-.114-.114l-.001-.757c0-.04.011-.053.049-.048.017.003.035 0 .053 0 .133 0 .133 0 .18.121l.208.53c.005.012.005.029.023.038zM27.743 24.99v.356c.001.03-.006.039-.037.04-.116 0-.116.002-.116-.114l.001-.64c0-.039-.01-.05-.05-.048-.067.003-.136 0-.204.001-.027.001-.036-.006-.036-.034-.001-.084-.002-.084.083-.084l.596-.001c.035 0 .052.006.046.044a.133.133 0 0 0 0 .04c.003.026-.006.036-.035.035h-.21c-.03-.002-.039.01-.038.038v.367z" fill="#fff"/><path d="M24.024 26.788a1.78 1.78 0 0 1-.075.54c-.131.379-.496.428-.738.336a.452.452 0 0 1-.275-.31 1.74 1.74 0 0 1-.02-.966.557.557 0 0 1 .223-.328.535.535 0 0 1 .746.17c.114.18.14.379.14.558zM13.12 26.856c-.002.215-.02.372-.08.522a.563.563 0 0 1-.551.374c-.209.002-.388-.057-.514-.233a.795.795 0 0 1-.131-.343 1.433 1.433 0 0 1 .044-.703c.11-.32.367-.444.68-.407.281.034.441.22.51.492.03.115.043.233.042.298zM17.83 27.209v.288c0 .02 0 .037-.019.052-.15.125-.312.228-.507.266a.562.562 0 0 1-.204.011.33.33 0 0 1-.277-.314c-.015-.212.086-.363.31-.462.172-.077.355-.118.541-.149l.116-.019c.028-.005.04 0 .04.034-.002.097 0 .195 0 .293zM26.472 26.54h-.522c-.02 0-.04.004-.036-.029.019-.155.06-.302.175-.418a.518.518 0 0 1 .385-.145c.162 0 .31.041.42.168.101.114.134.253.138.401.001.033-.022.022-.037.022h-.523z" fill="#e37739"/></g></g><defs><clipPath id="a"><path fill="#fff" d="M0 0h40v40H0z"/></clipPath><clipPath id="b"><path fill="#fff" transform="translate(10 10)" d="M0 0h20v20H0z"/></clipPath></defs></svg>