<svg width="40" height="40" fill="none" xmlns="http://www.w3.org/2000/svg"><path fill-rule="evenodd" clip-rule="evenodd" d="m15.67 13.52.833 1.067c1.088 1.41 2.027 3.202 2.689 4.889l.384 1.024c.064.171.107.214.043.385-.342.96-.598 1.963-.833 2.988l-.042-.17c-.022-.065-.043-.108-.043-.193-.49-2.007-1.387-4.44-2.455-6.148-.555-.917-.79-1.302-1.451-2.155l-.833-.982c-.405.128-1.686.982-1.793 1.003l.491.555c.449.49.96 1.195 1.345 1.771 1.793 2.669 2.882 6.105 3.223 9.286h2.092c.064-.278.107-.833.15-1.174.042-.363.106-.747.192-1.11l.341-1.622c.043-.128.128-.406.128-.491.192.32.577 2.604.662 3.244.043.278.107.897.15 1.153h2.049c.042-.96.298-2.092.533-3.01.577-2.156 1.494-4.29 2.754-6.062.15-.192.299-.384.448-.598.15-.213.299-.363.448-.576.086-.085.15-.17.235-.278.043-.042.064-.085.128-.128.043-.064.064-.085.107-.149.17-.192.363-.363.512-.534-.106-.106-.704-.512-.832-.555-.555.662-.982 1.089-1.537 1.836-.235.342-.448.662-.683 1.003-.235.342-.427.705-.64 1.068-.577 1.003-1.153 2.39-1.537 3.543l-.406 1.323c-.064-.128-.278-1.238-.342-1.494a29.732 29.732 0 0 0-.405-1.473c-.128-.47-.299-.917-.448-1.366-.064-.17.106-.427.213-.661.62-1.238.94-1.75 1.686-2.925.256-.384.534-.704.79-1.046l.833-1.024c-.107-.086-.79-.278-.982-.32-.363.256-1.75 2.305-2.028 2.753-.299.47-.704 1.174-.96 1.708l-.107.17c-.086-.32-.683-1.472-.854-1.793a21.748 21.748 0 0 0-.982-1.686c-.128-.213-.982-1.494-1.11-1.537-.235-.064-1.772.427-2.156.491zm17.311 13.32h.982c-.021-.406-.043-2.028-.192-2.263-.299.726-.662 1.473-.79 2.263zm-26.96 0h2.007c.043-.278-.47-1.75-.576-2.028-.17-.427-.64-1.43-.896-1.772-.129.171-.385 1.623-.406 1.772-.043.384-.192 1.708-.128 2.028zm23.268 0h.96c.427-1.665.726-2.903 1.686-4.419.342-.555.47-.725.833-1.216-.086-.32-.32-.662-.448-.96-.086.042-.214.234-.278.32a13.01 13.01 0 0 0-1.622 2.603c-.47 1.046-.96 2.413-1.131 3.672zm-3.65 0h.96c.32-1.857.683-3.266 1.516-5.016.384-.79.725-1.324 1.195-2.05.448-.661.79-1.024 1.28-1.6.065-.064.15-.129.193-.193-.064-.128-.214-.256-.3-.384-.085-.085-.255-.32-.362-.363l-.832.94c-1.367 1.622-2.412 3.692-3.032 5.763-.149.448-.256.918-.362 1.387-.064.278-.278 1.324-.257 1.516zm-13.833 0c.022-.342-.384-1.879-.512-2.263-.405-1.366-.982-2.668-1.75-3.842-.512-.768-.598-.79-1.067-1.387-.064-.065-.107-.128-.171-.171-.128.15-.491.811-.62 1.024-.106.15-.191.363-.277.534-.17.342-.17.235.043.534.96 1.26 1.686 2.903 2.092 4.525.213.79.235.96.256 1.046.534 0 1.473.043 2.006 0zm-2.433-9.093.769.875c.704.854 1.408 2.006 1.9 3.074.34.747.64 1.536.875 2.39.192.64.362 1.366.47 2.028.042.192.063.555.127.726h2.007c.064-.427-.47-2.647-.62-3.18-.64-2.2-1.75-4.611-3.223-6.319a9.369 9.369 0 0 1-.426-.534l-.47-.47c-.235.129-1.217 1.154-1.409 1.41z" fill="#47beaa" style="stroke-width:1.4"/></svg>