<svg width="40" height="40" fill="none" xmlns="http://www.w3.org/2000/svg"><path fill-rule="evenodd" clip-rule="evenodd" d="M32.6 25.975h-.306c-2.778 3.784-7.24 6.256-12.294 6.256a15.191 15.191 0 0 1-12.294-6.256H7.4c2.231 4.703 7.044 7.962 12.6 7.962s10.347-3.259 12.6-7.962z" fill="url(#a)" style="fill:url(#a);stroke-width:1.4"/><path fill-rule="evenodd" clip-rule="evenodd" d="M29.975 27.462c.678-.743 1.29-1.793 1.422-2.537.656-3.434-2.537-5.184-6.3-6.497-2.953-1.028-5.36-1.728-7.437-2.362-3.282-1.007-3.829-1.969-3.807-3.019.022-1.203 1.313-2.735 2.778-3.653 0 0-2.734-.022-5.534 2.056-1.64 1.247-2.319 2.494-2.56 3.675-1.18 5.753 10.173 8.028 14.526 9.45 2.384.787 2.69 1.816 2.69 2.647-.043 1.925-2.756 3.653-2.778 3.653 2.21-.066 5.206-1.378 7-3.413" fill="url(#b)" style="fill:url(#b);stroke-width:1.4"/><path opacity=".7" fill-rule="evenodd" clip-rule="evenodd" d="M31.397 24.925c.656-3.434-2.538-5.184-6.3-6.497-2.953-1.028-5.36-1.728-7.438-2.362-3.28-1.007-3.828-1.97-3.806-3.02.022-1.202 1.313-2.734 2.778-3.652-2.1 1.29-2.822 2.56-3.019 3.5-.262 1.268.657 2.362 3.785 3.325 2.056.656 4.484 1.334 7.437 2.362 2.472.875 4.594 1.772 5.732 3.281 1.05 1.422.831 3.063.831 3.063z" fill="url(#c)" style="fill:url(#c);stroke-width:1.4"/><path opacity=".8" fill-rule="evenodd" clip-rule="evenodd" d="M21.728 17.597c-1.553-.481-2.012.437-.175 1.028.897.284 2.078.7 3.04 1.006 3.238 1.05 6.17 2.428 5.623 5.731-.132.679-.219.985-.744 1.707.066-.11 1.553-.744 1.794-2.407.437-3.193-2.888-4.812-6.453-6.037a63.704 63.704 0 0 0-3.085-1.028z" fill="url(#d)" style="fill:url(#d);stroke-width:1.4"/><path fill-rule="evenodd" clip-rule="evenodd" d="M23.303 24.181c-1.29-.372-2.865-.831-4.747-1.4-1.443-.437-3.28-1.072-5.009-1.837-4.572-2.013-5.162-4.485-5.031-5.644-.919 5.622 10.237 7.875 14.569 9.275 2.384.787 2.69 1.816 2.69 2.647-.044 1.86-2.581 3.544-2.756 3.631.35-.197 2.997-1.75 3.303-3.39.24-1.554-.547-2.582-3.019-3.282z" fill="url(#e)" style="fill:url(#e);stroke-width:1.4"/><path fill-rule="evenodd" clip-rule="evenodd" d="M32.6 14.01h-.306C29.516 10.202 25.054 7.752 20 7.752c-5.053 0-9.537 2.45-12.294 6.256H7.4A13.913 13.913 0 0 1 20 6.047c5.556 0 10.347 3.237 12.6 7.962z" fill="url(#f)" style="fill:url(#f);stroke-width:1.4"/><defs><linearGradient id="b" x1="10.503" y1="23.499" x2="23.608" y2="32.043" gradientUnits="userSpaceOnUse" gradientTransform="matrix(1.4 0 0 1.4 -8 -7.997)"><stop stop-color="#7FB8E7"/><stop offset=".125" stop-color="#70ACDD"/><stop offset=".721" stop-color="#2C76B3"/><stop offset="1" stop-color="#1261A3"/></linearGradient><linearGradient id="c" x1="29.073" y1="16.527" x2="21.765" y2="10.981" gradientUnits="userSpaceOnUse" gradientTransform="matrix(1.4 0 0 1.4 -8 -7.997)"><stop stop-color="#9DCEEA"/><stop offset="1" stop-color="#2257A1"/></linearGradient><linearGradient id="d" x1="24.439" y1="18.664" x2="23.692" y2="20.279" gradientUnits="userSpaceOnUse" gradientTransform="matrix(1.4 0 0 1.4 -8 -7.997)"><stop offset=".081" stop-color="#fff"/><stop offset="1" stop-color="#fff" stop-opacity=".01"/></linearGradient><linearGradient id="e" x1="11.753" y1="27.739" x2="24.536" y2="27.739" gradientUnits="userSpaceOnUse" gradientTransform="matrix(1.4 0 0 1.4 -8 -7.997)"><stop stop-color="#9DCEEA"/><stop offset="1" stop-color="#2257A1"/></linearGradient><linearGradient id="f" x1="-12.026" y1="10.254" x2="-11.78" y2="30.058" gradientUnits="userSpaceOnUse" gradientTransform="matrix(1.4 0 0 1.4 -8 -7.997)"><stop stop-color="#9DCEEA"/><stop offset=".055" stop-color="#87B9DD"/><stop offset=".149" stop-color="#689BCB"/><stop offset=".253" stop-color="#4E82BB"/><stop offset=".367" stop-color="#3A6FB0"/><stop offset=".498" stop-color="#2C61A7"/><stop offset=".659" stop-color="#2459A2"/><stop offset=".939" stop-color="#2257A1"/></linearGradient><radialGradient id="a" cx="0" cy="0" r="1" gradientUnits="userSpaceOnUse" gradientTransform="matrix(14.08638 0 0 4.4509 19.993 29.954)"><stop stop-color="#9DCEEA"/><stop offset=".01" stop-color="#9BCCE9"/><stop offset=".34" stop-color="#679ACA"/><stop offset=".626" stop-color="#4176B4"/><stop offset=".856" stop-color="#2A5FA6"/><stop offset="1" stop-color="#2257A1"/></radialGradient></defs></svg>