<svg width="40" height="40" fill="none" xmlns="http://www.w3.org/2000/svg"><path fill-rule="evenodd" clip-rule="evenodd" d="M6.02 22.535c.362-.037.598-.101.703-.193.108-.09.16-.319.16-.686V17.27c0-.347-.052-.573-.158-.68-.105-.108-.34-.174-.707-.198v-.185h2.78v.185c-.362.02-.603.079-.726.178-.123.099-.185.312-.185.639v4.73c0 .11.018.195.055.257.037.063.119.1.244.118.075.009.152.016.233.02.081.004.235.004.459.004.877 0 1.467-.072 1.775-.217.307-.145.606-.514.896-1.107h.25l-.48 1.709H6.02ZM13.355 16.206v.172c-.246.002-.413.02-.503.048-.156.053-.235.158-.235.316 0 .082.029.196.083.34.058.148.16.39.315.732l1.537 3.427 1.397-3.712c.062-.163.108-.301.14-.416a1.04 1.04 0 0 0 .05-.276c0-.191-.082-.321-.247-.39-.096-.039-.257-.06-.479-.067v-.172h2.013v.172c-.21.028-.36.083-.46.167-.149.125-.298.375-.445.751l-2.175 5.54h-.15l-2.43-5.413c-.206-.457-.37-.742-.493-.854-.124-.112-.306-.176-.543-.193v-.172zM17.8 22.535c.405-.042.665-.134.781-.277.114-.142.174-.472.174-.99v-3.994c0-.356-.058-.587-.17-.694-.112-.108-.366-.172-.764-.19v-.184h1.944l2.26 4.903 2.206-4.903h1.957v.185c-.364.026-.6.092-.707.2-.105.107-.158.336-.158.683v4.374c0 .358.053.588.158.687.106.101.34.167.707.2v.185H23.43v-.185c.398-.033.648-.103.745-.213.099-.11.147-.374.147-.79v-4.416L21.8 22.72h-.134l-2.478-5.374v3.922c0 .538.08.887.235 1.052.101.105.33.178.686.215v.185H17.8v-.185ZM27.26 22.535c.385-.042.624-.112.721-.21.097-.102.145-.361.145-.785v-4.27c0-.35-.055-.578-.16-.684-.106-.105-.343-.171-.703-.195v-.185h2.733v.185c-.36.026-.596.09-.703.195-.108.106-.163.332-.163.683v1.923h2.985v-1.923c0-.349-.052-.577-.158-.683-.105-.105-.34-.171-.705-.195v-.185h2.733v.185c-.363.026-.598.09-.705.195-.108.106-.16.332-.16.683v4.387c0 .354.052.583.16.681.107.1.342.165.705.198v.185h-2.733v-.185c.387-.037.628-.108.723-.209.094-.1.143-.362.143-.786v-1.916h-2.986v2.032c0 .354.055.583.163.684.107.1.342.167.703.195v.185h-2.733v-.185ZM6 23.794v-.404h28v.404z" fill="#fdfefe" style="stroke-width:1.4"/></svg>