<svg width="40" height="40" fill="none" xmlns="http://www.w3.org/2000/svg"><g clip-path="url(#a)" transform="matrix(1.4 0 0 1.4 -7.998 -7.987)"><mask id="b" mask-type="alpha" maskUnits="userSpaceOnUse" x="10" y="10" width="20" height="20"><path fill="#fff" d="M10 10.223h20v19.553H10z"/></mask><g mask="url(#b)" fill-rule="evenodd" clip-rule="evenodd"><path d="M15.909 22.006c0-1.181.952-2.133 2.13-2.133a2.13 2.13 0 0 1 2.135 2.133 2.13 2.13 0 0 1-2.134 2.132 2.129 2.129 0 0 1-2.131-2.132z" fill="#959ecc"/><path d="M14.659 27.58c0-2.33-.195-2.527-2.525-2.527A2.13 2.13 0 0 1 10 22.92a2.13 2.13 0 0 1 2.134-2.134 2.13 2.13 0 0 1 2.133 2.134c0 2.329.197 2.526 2.525 2.526a2.13 2.13 0 0 1 2.134 2.133c0 1.18-.952 2.132-2.134 2.132a2.129 2.129 0 0 1-2.133-2.132z" fill="#084897"/><path d="M24.601 22.8c0-2.33-.195-2.527-2.526-2.527a2.127 2.127 0 0 1-2.13-2.134c0-1.18.949-2.132 2.13-2.132a2.13 2.13 0 0 1 2.134 2.132c0 2.331.197 2.528 2.526 2.528a2.13 2.13 0 0 1 2.133 2.133c0 1.18-.951 2.132-2.133 2.132A2.129 2.129 0 0 1 24.6 22.8z" fill="#576eaf"/><path d="M25.726 17.016c0-2.33-.197-2.527-2.525-2.527a2.128 2.128 0 0 1-2.134-2.132c0-1.182.952-2.134 2.134-2.134 1.18 0 2.132.952 2.132 2.134 0 2.328.196 2.525 2.527 2.525 1.181 0 2.131.952 2.131 2.134s-.95 2.132-2.131 2.132a2.128 2.128 0 0 1-2.134-2.132zM20.231 27.137c0-1.181.952-2.131 2.134-2.131 1.18 0 2.132.95 2.132 2.131a2.129 2.129 0 0 1-2.132 2.134 2.13 2.13 0 0 1-2.134-2.134z" fill="#f5822b"/><path d="M10.913 17.234c0-1.182.952-2.134 2.132-2.134a2.13 2.13 0 0 1 2.133 2.134 2.13 2.13 0 0 1-2.133 2.134 2.129 2.129 0 0 1-2.132-2.134z" fill="#f8a464"/><path d="M14.955 12.884a2.13 2.13 0 0 1 2.13-2.134 2.13 2.13 0 0 1 2.134 2.134 2.13 2.13 0 0 1-2.133 2.133 2.129 2.129 0 0 1-2.131-2.133z" fill="#084897"/></g></g><defs><clipPath id="a"><path fill="#fff" d="M0 0h40v40H0z"/></clipPath></defs></svg>