<svg width="40" height="40" fill="none" xmlns="http://www.w3.org/2000/svg"><g clip-path="url(#a)" transform="matrix(1.4 0 0 1.4 -7.982 -7.997)"><mask id="b" mask-type="alpha" maskUnits="userSpaceOnUse" x="10" y="10" width="20" height="20"><path fill="#fff" d="M10 10.787h20v18.427H10z"/></mask><g mask="url(#b)" fill-rule="evenodd" clip-rule="evenodd"><path d="M25.475 25.938c2.49 0 4.412-2.027 4.437-4.433-.174-1.05-.543-2.993-3.265-2.993-2.983 0-3.97 4.165-6.398 6.853-.195 1.526-1.641 2.892-3.445 3.122.441.462 1.426.713 2.6.713 2.15 0 4.75-.647 6.113-1.993-1.819.025-2.987-1.144-3.101-2.76.886 1.074 1.887 1.49 3.059 1.49z" fill="#12abdb"/><path d="M29.909 21.328c-.056-2.795-1.385-5.152-3.436-7.034-1.558-1.421-3.408-2.503-5.347-3.316-.153-.066-.313-.13-.47-.191C18.268 13.648 10 15.782 10 21.78c0 2.342 1.481 4.536 3.654 5.417 1.262.476 2.52.5 3.783.075 1.123-.368 2.044-1.063 2.812-1.908 2.427-2.688 3.415-6.85 6.395-6.85 2.725 0 3.094 1.94 3.268 2.99 0-.007 0-.076-.007-.177" fill="#0070ad"/></g></g><defs><clipPath id="a"><path fill="#fff" d="M0 0h40v40H0z"/></clipPath></defs></svg>