<svg width="40" height="40" fill="none" xmlns="http://www.w3.org/2000/svg"><mask id="a" mask-type="alpha" maskUnits="userSpaceOnUse" x="10" y="14" width="20" height="12"><path fill="#fff" d="M10 14.854h20v10.291H10z"/></mask><g mask="url(#a)" transform="matrix(1.4 0 0 1.4 -7.982 -7.978)" fill-rule="evenodd" clip-rule="evenodd"><path d="m24.53 14.854-4.176 9.033c-.574 1.149-.888 1.149-1.305 1.149h-3.394l4.177-9.033c.522-1.149.835-1.149 1.305-1.149z" fill="#3b6ca6"/><path d="M29.909 25.036h-3.394c-.418 0-.731 0-1.306-1.149l-2.454-5.221 1.776-3.812c.365 0 .678.105 1.2 1.149z" fill="url(#b)" style="fill:url(#b)"/><path d="m22.756 18.666-1.775-3.812h3.498z" fill="url(#c)" style="fill:url(#c)"/><path d="M19.231 25.036h-3.394c-.417 0-.73 0-1.305-1.149l-3.362-7.61a3.351 3.351 0 0 0-.948-1.242l-.222-.18h3.853c.366 0 .68.104 1.201 1.148z" fill="url(#d)" style="fill:url(#d)"/><path d="M19.231 25.036h-3.498l1.775-3.76z" fill="url(#e)" style="fill:url(#e)"/></g><defs><linearGradient id="b" x1="29.011" y1="25.041" x2="29.011" y2="14.885" gradientUnits="userSpaceOnUse"><stop stop-color="#64B5D9"/><stop offset="1" stop-color="#5E80B3"/></linearGradient><linearGradient id="c" x1="27.407" y1="25.026" x2="27.407" y2="14.871" gradientUnits="userSpaceOnUse"><stop stop-color="#319ACA"/><stop offset="1" stop-color="#3B6CA7"/></linearGradient><linearGradient id="d" x1="19.37" y1="25.041" x2="19.37" y2="14.885" gradientUnits="userSpaceOnUse"><stop stop-color="#64B5D9"/><stop offset="1" stop-color="#5E80B3"/></linearGradient><linearGradient id="e" x1="12.727" y1="14.882" x2="12.727" y2="25.151" gradientUnits="userSpaceOnUse"><stop stop-color="#319ACA"/><stop offset="1" stop-color="#3B6CA7"/></linearGradient></defs></svg>