<svg width="40" height="40" fill="none" xmlns="http://www.w3.org/2000/svg"><path fill-rule="evenodd" clip-rule="evenodd" d="M6 6.895v26.22h28V6.894Zm20.412 24.487c-.087-.61-.165-.89-.28-1.239l-.891-2.816h-3.92l-.706.929.638 1.906c.126.397.262.707.484 1.22h-2.226l-.368-1.22-.89 1.22h-1.79l-.378-1.21-.948 1.21H13.346a1.25 1.25 0 0 0 .116-.107c.455-.406.736-.764.987-1.093l1.142-1.5-.445-1.355h-3.91l-3.058 4.055H6.28c.716-.63.9-.823 1.17-1.18l5.798-7.657c.078-.106.145-.212.213-.329.107-.174.203-.377.262-.629H15.6c0 .416.058.649.155.968l1.316 4.133.678-.89-1.084-3.282c-.078-.242-.174-.56-.368-.929h2.284c.058.358.116.658.223.978l.416 1.297.977-1.307c.223-.3.523-.639.659-.968h2.003c-.397.31-.648.64-.89.949l-2.207 2.932.387 1.22 3.165-4.143c.077-.125.164-.232.251-.348.117-.174.213-.358.281-.61h1.859c.029.33.077.61.164.92l2.4 7.646c.116.406.194.658.494 1.229z" fill="#103793" style="stroke-width:1.4"/><path fill-rule="evenodd" clip-rule="evenodd" d="M12.127 26.117h2.67l-.812-2.478zM17.566 28.198l.426 1.355.687-.9-.474-1.326zM22.28 26.117h2.583l-.813-2.478z" fill="#103793" style="stroke-width:1.4"/><path fill-rule="evenodd" clip-rule="evenodd" d="M21.321 21.084h1.645L33.681 6.886h-1.646z" fill="#fc1721" style="stroke-width:1.4"/></svg>