<svg width="40" height="40" fill="none" xmlns="http://www.w3.org/2000/svg"><g clip-path="url(#a)" transform="matrix(1.4 0 0 1.4 -7.979 -7.986)"><mask id="b" mask-type="alpha" maskUnits="userSpaceOnUse" x="10" y="16" width="20" height="8"><path fill="#fff" d="M10 16.183h20v7.634H10z"/></mask><g mask="url(#b)"><path fill-rule="evenodd" clip-rule="evenodd" d="M12.421 16.251h-.702L10 20.374h.972l.336-.802h1.524l.336.802h.972zm-.844 2.538.493-1.286.493 1.286zM24.958 17.538c-.343-.301-.886-.287-1.144-.198-.045.015-.268.086-.448.263l-.038-.247h-.84v3.018h.922v-2.081a1.45 1.45 0 0 1 .25-.177c.096-.054.325-.123.522-.013.162.091.235.304.235.56v1.711h.922v-1.772c0-.65-.239-.94-.381-1.064zM15.113 17.356h-.847v3.018h.922v-2.088a.99.99 0 0 1 .244-.17c.103-.049.358-.139.542.016.143.12.149.402.149.482v1.76h.916v-1.807c0-.11-.013-.22-.03-.328.084-.057.178-.098.27-.139.21-.093.45-.047.528.008.169.118.186.385.186.506v1.76h.915V18.58c0-.33-.046-.745-.342-1.013-.299-.27-.758-.278-.855-.28-.567.008-.995.312-.995.312-.205-.209-.706-.403-1.118-.258-.045.016-.267.086-.448.263zM22.083 17.356h-.921v2.09a1.589 1.589 0 0 1-.241.151.715.715 0 0 1-.516.03c-.208-.08-.239-.417-.239-.564v-1.707h-.922v1.784c0 .335.06.699.29.957.234.261.601.359.942.335a1.181 1.181 0 0 0 .724-.316l.039.258h.844zM27.514 16.252v1.093a1.788 1.788 0 0 0-.457-.06c-.591 0-.915.28-1.05.414a1.603 1.603 0 0 0-.446 1.115c-.005.992.537 1.385.806 1.508.178.082.385.128.58.116.174-.011.433-.083.615-.247l.028.183h.84v-4.123zm0 3.212a.518.518 0 0 1-.225.158c-.32.13-.726-.016-.812-.56a1.072 1.072 0 0 1 .045-.572.66.66 0 0 1 .644-.439c.108 0 .224.02.348.063zM29.893 16.674c0 .258-.181.493-.535.493-.355 0-.536-.235-.536-.493 0-.259.2-.491.536-.491.335 0 .535.232.535.49z" fill="#fff"/><path fill="#fff" d="M28.899 17.356h.916v3.018h-.916zM10.036 21.151h19.78v.777h-19.78z"/><path fill-rule="evenodd" clip-rule="evenodd" d="m14.18 23.724.397-1.02h.255l.399 1.02h-.294l-.066-.176h-.342l-.067.176zm.409-.383h.22l-.11-.31zM17.171 23.724v-1.019h.726v.234h-.452v.168h.368v.215h-.368v.167h.484v.235zM18.295 23.724v-.785h-.286v-.234h.844v.234h-.283v.785zM19.294 23.724v-1.019h.282l.253.607.24-.607h.283v1.02h-.264v-.499l-.204.504h-.111l-.214-.507v.501zM20.477 23.724l.396-1.02h.256l.399 1.02h-.294l-.066-.176h-.342l-.067.176zm.409-.383h.22l-.11-.31zM21.653 23.724v-1.019h.276l.332.54v-.54h.269v1.02h-.25l-.36-.577v.576zM22.655 23.724l.396-1.02h.256l.398 1.02h-.293l-.066-.176h-.342l-.067.176zm.408-.383h.22l-.11-.31zM24.814 23.724v-1.019h.726v.234h-.452v.168h.368v.215h-.368v.167h.485v.235zM25.744 23.724v-1.019h.28l.254.607.24-.607h.283v1.02h-.264v-.499l-.203.504h-.112l-.214-.507v.501zM27.03 23.724v-1.019h.725v.234h-.452v.168h.368v.215h-.368v.167h.484v.235zM27.959 23.724v-1.019h.276l.332.54v-.54h.269v1.02h-.25l-.36-.577v.576zM29.258 23.724v-.785h-.286v-.234h.843v.234h-.282v.785zM15.49 23.42a.31.31 0 0 0 .091.076c.042.024.09.034.137.033.039-.001.095-.009.115-.046.022-.04.003-.087-.033-.11-.037-.022-.08-.036-.121-.05-.094-.03-.195-.056-.271-.12a.276.276 0 0 1-.086-.264c.025-.145.157-.226.293-.247.143-.022.313.002.42.105a.4.4 0 0 1 .056.064l-.184.142a.236.236 0 0 0-.153-.107.205.205 0 0 0-.134.013c-.036.02-.052.068-.024.103.027.033.075.048.114.061.093.032.195.054.277.112.08.057.12.143.12.24.005.319-.414.383-.644.27a.44.44 0 0 1-.16-.13zM16.383 23.42a.31.31 0 0 0 .09.076c.042.024.09.034.138.032.038 0 .094-.008.115-.046.022-.04.002-.086-.033-.109-.037-.023-.08-.036-.121-.05-.094-.03-.195-.056-.271-.121a.277.277 0 0 1-.086-.264c.025-.144.157-.226.293-.246.143-.022.312.001.42.105.023.02.041.042.056.064l-.184.142a.236.236 0 0 0-.153-.107.202.202 0 0 0-.134.012c-.037.02-.052.069-.025.103.027.033.075.048.114.062.094.032.195.054.278.112.08.057.119.142.12.24.005.318-.415.383-.644.27a.44.44 0 0 1-.161-.13zM24.216 23.369v-.202h.401v.517c-.136.052-.276.059-.33.062-.18.01-.34-.03-.449-.174a.558.558 0 0 1-.102-.31.671.671 0 0 1 .06-.336.432.432 0 0 1 .34-.237c.147-.019.315.011.412.132.024.03.044.062.06.098l-.228.116a.267.267 0 0 0-.065-.09c-.062-.053-.161-.038-.217.015-.057.054-.076.133-.081.21-.017.26.111.323.153.34a.4.4 0 0 0 .192.007v-.148z" fill="#00aeef"/></g></g><defs><clipPath id="a"><path fill="#fff" d="M0 0h40v40H0z"/></clipPath></defs></svg>