<svg width="40" height="40" fill="none" xmlns="http://www.w3.org/2000/svg"><g clip-path="url(#a)" transform="matrix(1.4 0 0 1.4 -8 -8)"><mask id="b" mask-type="alpha" maskUnits="userSpaceOnUse" x="12" y="10" width="16" height="20"><path fill="#fff" d="M12.354 10h15.294v20H12.354z"/></mask><g mask="url(#b)"><path fill-rule="evenodd" clip-rule="evenodd" d="M12.354 19.508c0 4.068.718 7.386 4.75 9.521 1.634.865 3.428.971 5.211.971l-.783-4.641c-4.636-.575-4.657-2.976-4.488-7.659.153-4.238 6.077-3.973 5.887.2l-2.74 1.323.96 4.49 6.431-2.472c.216-4.062.076-7.67-3.342-9.935-2.362-1.565-5.268-1.734-7.776-.45-3.693 1.89-4.11 5.062-4.11 8.652z" fill="#007bb9"/></g></g><defs><clipPath id="a"><path fill="#fff" d="M0 0h40v40H0z"/></clipPath></defs></svg>