<svg width="40" height="40" fill="none" xmlns="http://www.w3.org/2000/svg"><g clip-path="url(#a)" transform="matrix(1.4 0 0 1.4 -7.997 -8)"><mask id="b" mask-type="alpha" maskUnits="userSpaceOnUse" x="10" y="17" width="21" height="6"><path fill="#fff" d="M10 17.187h20v5.627H10z"/></mask><g mask="url(#b)" clip-rule="evenodd"><path fill-rule="evenodd" d="M18.336 17.352c-.583-.202-1.144-.146-1.587.16-.506.346-.795.975-.795 1.724 0 .009-.035 1.37-.074 2.352-.018.436-.215.651-.39.67-.181.018-.414-.17-.523-.627l-.414-1.703a44.498 44.498 0 0 1-.327-1.394c-.174-.842-.71-1.205-1.162-1.189-.44.015-1.006.402-1.147 1.442l-.15 1.13c-.058.451-.104.806-.192 1.408-.05.338-.19.586-.416.735-.236.155-.56.195-.92.117-.03-.008-.1.013-.118.08l-.07.266c-.02.067.032.104.06.112.497.114.96.052 1.309-.178.34-.223.556-.59.625-1.063.09-.606.135-.963.193-1.416l.15-1.127c.1-.746.436-1.022.692-1.032.254-.01.562.239.68.81.072.346.159.702.331 1.411l.415 1.7c.187.789.672 1.026 1.03.99.386-.038.79-.4.82-1.123.038-.987.074-2.352.074-2.366 0-.596.213-1.081.588-1.338.307-.211.708-.251 1.134-.112.03.01.098.021.118-.03.019-.05.079-.2.105-.276.024-.07-.013-.125-.039-.133z" fill="#ef5939"/><path d="M18.336 17.352c-.583-.202-1.144-.146-1.587.16-.506.346-.795.975-.795 1.724 0 .009-.035 1.37-.074 2.352-.018.436-.215.651-.39.67-.181.018-.414-.17-.523-.627l-.414-1.703a44.498 44.498 0 0 1-.327-1.394c-.174-.842-.71-1.205-1.162-1.189-.44.015-1.006.402-1.147 1.442l-.15 1.13c-.058.451-.104.806-.192 1.408-.05.338-.19.586-.416.735-.236.155-.56.195-.92.117-.03-.008-.1.013-.118.08l-.07.266c-.02.067.032.104.06.112.497.114.96.052 1.309-.178.34-.223.556-.59.625-1.063.09-.606.135-.963.193-1.416l.15-1.127c.1-.746.436-1.022.692-1.032.254-.01.562.239.68.81.072.346.159.702.331 1.411l.415 1.7c.187.789.672 1.026 1.03.99.386-.038.79-.4.82-1.123.038-.987.074-2.352.074-2.366 0-.596.213-1.081.588-1.338.307-.211.708-.251 1.134-.112.03.01.098.021.118-.03.019-.05.079-.2.105-.276.024-.07-.013-.125-.039-.133z" stroke="#ef5939" stroke-width=".35"/><path fill-rule="evenodd" d="M19.023 21.242a.478.478 0 0 0-.48-.48.482.482 0 0 0-.48.48v.16h.96zm.163 1.441h-.801a.573.573 0 0 1-.461-.187.583.583 0 0 1-.178-.451v-.643l.004-.16a.815.815 0 0 1 .793-.801c.441 0 .802.361.802.801v.323c0 .043-.009.076-.039.105a.15.15 0 0 1-.12.053h-1.123v.322c0 .096.024.159.092.225a.293.293 0 0 0 .23.092h.8c.088 0 .16.075.16.162a.16.16 0 0 1-.16.16zM21.742 22.683c-.058 0-.106-.015-.135-.067l-.429-.735-.426.735c-.03.052-.077.067-.135.067-.158 0-.191-.154-.139-.246l.514-.872-.51-.874c-.052-.096-.018-.25.135-.25.063 0 .11.028.14.077l.421.724.419-.725c.033-.052.077-.076.145-.076.162 0 .18.154.129.25l-.509.874.514.872c.057.092.023.246-.134.246zM24.243 21.724h-.802c-.14 0-.158.18-.158.32 0 .135.019.318.158.318h.802zm.284.906a.156.156 0 0 1-.125.053h-.96c-.312 0-.482-.327-.482-.638 0-.318.17-.643.481-.643h.802v-.318a.295.295 0 0 0-.096-.23.284.284 0 0 0-.226-.09h-.638a.164.164 0 0 1-.163-.16c0-.087.077-.163.163-.163h.638c.187 0 .322.048.457.182a.585.585 0 0 1 .182.461v1.44a.17.17 0 0 1-.033.106zM27.2 22.683a.166.166 0 0 1-.164-.159v-1.44a.284.284 0 0 0-.09-.226.298.298 0 0 0-.226-.095h-.48v1.761c0 .087-.077.16-.165.16a.16.16 0 0 1-.157-.16v-1.92c0-.048.015-.077.043-.11a.153.153 0 0 1 .114-.053h.645c.192 0 .316.048.456.182.14.14.183.269.183.461v1.44c0 .087-.073.16-.159.16zM29.34 22.683c-.217-.005-.302-.025-.543-.1-.062-.02-.095-.073-.095-.14 0-.102.115-.177.201-.158.115.024.215.08.442.077.154 0 .316-.086.316-.24 0-.048 0-.058-.057-.121l-.74-.629a.47.47 0 0 1-.162-.37c0-.446.393-.561.643-.561.176 0 .326.053.451.096.082.024.104.077.104.145 0 .105-.075.186-.205.153-.13-.038-.235-.072-.35-.072-.158 0-.322.091-.322.24 0 .043.019.071.043.11l.768.653a.466.466 0 0 1 .149.355c.02.336-.316.567-.643.562z" fill="#fff"/></g></g><defs><clipPath id="a"><path fill="#fff" d="M0 0h40v40H0z"/></clipPath></defs></svg>