<svg width="40" height="40" fill="none" xmlns="http://www.w3.org/2000/svg"><g clip-path="url(#a)" transform="matrix(1.4 0 0 1.4 -8 -8.16)"><g clip-path="url(#b)"><path d="M30 21.076h-.006c-.03.149-.137.206-.272.229-.092.015-.184.009-.276.01h-.315c-.03-.001-.04.005-.04.037.002.128 0 .255.002.383 0 .026-.005.036-.034.036-.098-.001-.098 0-.098-.098v-.931c0-.023-.003-.04.03-.04.22.003.44.002.66.004.065 0 .128.014.187.04.076.034.128.09.15.171.003.008-.003.022.012.025v.134Zm-.595-.257-.28-.001c-.027 0-.034.008-.033.035v.312c0 .026.004.036.033.036.146-.002.292 0 .438-.002a.574.574 0 0 0 .202-.028c.05-.019.088-.05.102-.105.032-.123-.027-.212-.158-.235-.106-.019-.213-.01-.304-.012z" fill="#fff"/><path d="M28.487 19.468v.053l.001.71c0 .032-.008.043-.041.042a5.882 5.882 0 0 0-.249 0c-.024 0-.03-.008-.03-.032v-1.195c0-.021.005-.03.028-.03.12.002.24.002.359 0 .022 0 .033.013.045.026.146.159.292.317.437.477.023.026.034.023.055 0 .145-.16.29-.316.436-.474a.074.074 0 0 1 .06-.028c.112.002.224.002.335 0 .028 0 .04.005.04.037-.002.394-.002.788 0 1.183 0 .027-.007.036-.036.036a8.955 8.955 0 0 0-.319 0c-.032 0-.036-.012-.036-.04v-.769c-.027.025-.052.047-.075.071-.15.156-.298.312-.446.47-.02.022-.03.015-.047-.003l-.49-.51c-.005-.006-.012-.011-.027-.024zM25.461 19.587l.81.677c-.008.013-.02.007-.029.007l-.536.001a.08.08 0 0 1-.057-.022l-.56-.473-.028-.02c-.011.016-.006.03-.007.045l.001.43c0 .033-.01.04-.042.04-.105-.002-.21-.001-.316 0-.025 0-.033-.007-.033-.033v-1.187c0-.028.009-.035.036-.035.106.002.213.002.32 0 .027 0 .035.009.035.036V19.502c.018.002.026-.01.036-.018.198-.146.396-.291.593-.438a.134.134 0 0 1 .086-.029c.152.002.305 0 .46.008l-.769.562z" fill="#15a1dc"/><path d="m16.997 19.785.447.48c-.008.013-.02.007-.029.007h-.374a.065.065 0 0 1-.055-.023c-.117-.13-.236-.258-.353-.387a.064.064 0 0 0-.054-.024 6.039 6.039 0 0 1-.244 0c-.03-.001-.035.008-.035.035.002.122 0 .245.002.367 0 .024-.005.034-.032.033a6.67 6.67 0 0 0-.272 0c-.026 0-.03-.008-.03-.031V19.05c0-.028.009-.034.035-.034l.884.001c.148.001.287.033.397.142a.324.324 0 0 1 .016.449.575.575 0 0 1-.264.164l-.039.012zm-.419-.54-.249-.001c-.023 0-.029.007-.028.029v.315c0 .02.004.028.026.028.127-.002.254 0 .382-.003a.383.383 0 0 0 .227-.064.154.154 0 0 0-.009-.261.25.25 0 0 0-.087-.035c-.092-.018-.186-.003-.262-.009zM13.738 19.785l.453.487h-.411a.061.061 0 0 1-.051-.022l-.357-.39a.06.06 0 0 0-.05-.022 6.856 6.856 0 0 1-.248 0c-.027-.001-.033.008-.033.033l.001.366c0 .027-.004.036-.033.036a6.144 6.144 0 0 0-.268 0c-.028 0-.032-.01-.032-.034v-1.186c0-.026.004-.037.033-.036h.896c.113.001.221.025.318.087.2.127.224.378.05.54a.6.6 0 0 1-.23.13l-.038.011zm-.418-.541h-.249c-.02 0-.03.002-.03.026.002.107.001.213 0 .32 0 .018.005.025.025.025.13-.001.26 0 .39-.002a.377.377 0 0 0 .22-.063.155.155 0 0 0-.01-.264.256.256 0 0 0-.087-.034c-.091-.017-.183-.003-.259-.008zM19.74 19.483v.426c0 .11-.002.219 0 .328 0 .026-.005.037-.034.036a4.171 4.171 0 0 0-.221 0c-.025 0-.03-.008-.03-.031V19.05c0-.03.01-.034.036-.033.058.001.116.002.173 0a.106.106 0 0 1 .078.028c.29.244.583.487.874.73l.02.016c.012-.013.007-.028.007-.04v-.695c-.001-.03.006-.04.038-.04.072.003.145.002.217 0 .022 0 .029.007.029.03v1.198c0 .023-.007.031-.029.028h-.008c-.073-.001-.154.016-.219-.008-.063-.023-.112-.088-.167-.135l-.74-.627-.025-.02zM22.953 19.644v-.592c0-.027.005-.036.034-.035h1.148c.028 0 .034.009.033.035a1.487 1.487 0 0 0 0 .154c.003.034-.01.038-.04.038-.267-.001-.533 0-.8-.002-.036 0-.044.01-.043.044.003.067.002.134 0 .2 0 .03.01.035.036.035.263 0 .526 0 .789-.002.037 0 .045.012.043.046a1.096 1.096 0 0 0 0 .138c.002.032-.005.041-.04.041-.261-.001-.523 0-.784-.002-.034 0-.046.006-.044.043.003.075.002.15 0 .225-.001.031.009.039.04.038l.796-.001c.034 0 .05.006.046.044a1.034 1.034 0 0 0 0 .142c.002.031-.007.04-.039.04-.309-.002-.618-.002-.927-.002h-.216c-.027.002-.032-.007-.032-.032v-.595zM19.308 20.272h-.373c-.02 0-.023-.014-.03-.026-.046-.076-.092-.153-.136-.23-.013-.023-.028-.03-.053-.029h-.675c-.026 0-.042.006-.055.031-.041.078-.086.153-.13.23-.006.012-.01.025-.03.025h-.29c-.005-.013.003-.02.007-.028.227-.402.457-.802.697-1.196.015-.025.03-.033.06-.032.07.002.141 0 .212 0 .02 0 .03.005.041.021.26.401.512.807.751 1.22.002.002.002.005.004.014zm-.946-.923-.104.181-.118.208c-.008.013-.019.026.01.026h.46l-.248-.415zM11.775 20.272h-.373c-.02 0-.024-.014-.03-.025-.047-.078-.094-.156-.139-.234-.011-.02-.024-.026-.047-.026H10.5c-.023 0-.035.008-.046.027-.042.078-.087.155-.13.233-.008.014-.015.026-.035.025H10c-.004-.015.006-.023.012-.032.225-.4.454-.798.693-1.19.015-.025.03-.034.058-.033.071.002.143 0 .214 0 .018 0 .03.004.042.02.256.4.509.803.746 1.214l.01.02zm-.7-.51-.247-.413-.236.414h.483zM22.669 19.385a1.27 1.27 0 0 0-.403-.12.863.863 0 0 0-.532.075c-.133.07-.207.177-.194.331.01.121.082.202.18.262.12.074.252.1.392.098.19-.004.371-.046.542-.13.03-.015.03-.003.03.022a3.79 3.79 0 0 0 .001.205c.001.028-.01.04-.033.049a1.576 1.576 0 0 1-.446.106c-.22.021-.433.002-.635-.091a.865.865 0 0 1-.27-.188.51.51 0 0 1 .05-.775c.15-.121.324-.181.51-.211a1.71 1.71 0 0 1 .774.07c.028.01.035.022.035.05-.002.08-.001.16-.001.247zM14.478 19.643v-.588c-.001-.032.01-.038.039-.038h1.152c.029 0 .042.005.04.038a1.032 1.032 0 0 0 0 .142c.002.037-.007.049-.047.048-.27-.002-.539 0-.808-.002-.034 0-.045.006-.044.043.003.1.002.2 0 .3-.001.034.01.04.041.04.266-.002.532-.001.797-.002.028 0 .04.004.037.035-.003.05-.002.1 0 .15.002.03-.006.04-.038.04-.264-.002-.528 0-.792-.002-.037 0-.046.01-.045.045.002.115 0 .23.001.344 0 .027-.003.038-.035.037a5.059 5.059 0 0 0-.264 0c-.029 0-.035-.007-.035-.035v-.595z" fill="#fff"/><path d="M27.206 20.272h-.615c-.03 0-.04-.006-.04-.038v-1.18c0-.03.008-.037.037-.037.104.002.208.002.312 0 .034 0 .045.008.045.044-.002.296 0 .592-.002.887 0 .039.01.048.048.048.277-.002.554 0 .832-.002.031 0 .04.008.04.04a2.161 2.161 0 0 0 0 .196c.002.038-.013.042-.045.042h-.612z" fill="#15a1dc"/><path d="M24.617 21.625a.455.455 0 0 1-.192.132.733.733 0 0 1-.577-.039c-.188-.097-.26-.266-.268-.47a.515.515 0 0 1 .351-.532.786.786 0 0 1 .366-.032.565.565 0 0 1 .306.133c.041.037.075.08.101.13.01.017.01.027-.01.035-.028.013-.054.039-.08.039-.028 0-.032-.042-.048-.065a.416.416 0 0 0-.245-.154.613.613 0 0 0-.312.007.393.393 0 0 0-.29.362.577.577 0 0 0 .01.207.364.364 0 0 0 .234.259c.18.065.358.066.524-.045a.296.296 0 0 0 .122-.19c.006-.029-.002-.036-.03-.036-.122.002-.243 0-.364.002-.028 0-.035-.008-.035-.035.001-.083 0-.083.081-.083h.434c.032-.001.037.009.037.037-.002.152-.001.305 0 .457 0 .024-.003.035-.032.035-.084-.001-.084 0-.084-.084v-.07zM25.685 21.296l.174.235.177.238h-.153c-.016 0-.02-.016-.027-.026l-.306-.42a.054.054 0 0 0-.051-.027 14.17 14.17 0 0 1-.351 0c-.029 0-.035.008-.034.035l.001.402c0 .03-.008.038-.037.037-.095 0-.095 0-.095-.096l-.001-.927c0-.033.004-.045.042-.044l.639.003c.058 0 .114.011.17.031.122.045.183.13.186.259a.269.269 0 0 1-.173.262.58.58 0 0 1-.16.038zm-.256-.477h-.281c-.024-.001-.035.003-.034.031.002.1.001.2 0 .3 0 .026.008.032.033.032l.422-.001c.054 0 .107 0 .16-.01.093-.016.147-.06.16-.13.022-.115-.032-.189-.154-.21-.107-.018-.215-.01-.306-.012zM26.827 21.795a.73.73 0 0 1-.379-.09.504.504 0 0 1-.263-.492c.015-.346.274-.508.539-.532a.772.772 0 0 1 .407.064c.23.108.318.33.3.55-.023.288-.242.45-.498.491a.683.683 0 0 1-.106.01zm-.005-.116a.633.633 0 0 0 .152-.02c.193-.05.303-.184.325-.396a.417.417 0 0 0-.233-.42.597.597 0 0 0-.342-.05c-.224.026-.398.178-.406.411-.005.16.043.299.182.392.094.063.2.084.322.083zM11.944 19.648c0-.196.001-.392-.001-.588 0-.037.011-.044.046-.043.084.002.168.002.252 0 .026 0 .036.005.035.034v1.19c0 .028-.01.032-.033.032a7.267 7.267 0 0 0-.268 0c-.028 0-.032-.01-.032-.033v-.592zM27.614 21.066v-.331c-.001-.023.003-.032.029-.032.1-.001.1-.002.1.098v.513c0 .049.004.097.018.144a.29.29 0 0 0 .21.201.664.664 0 0 0 .368.004c.156-.043.239-.153.24-.315a39.67 39.67 0 0 0 0-.607c0-.032.01-.039.04-.038.092.001.092 0 .092.095v.52a.477.477 0 0 1-.086.301.45.45 0 0 1-.304.163.89.89 0 0 1-.428-.028.39.39 0 0 1-.275-.36c-.004-.11-.001-.219-.001-.328h-.003z" fill="#fff"/></g></g><defs><clipPath id="a"><path fill="#fff" d="M0 0h40v40H0z"/></clipPath><clipPath id="b"><path fill="#fff" transform="translate(10 19)" d="M0 0h20v2.798H0z"/></clipPath></defs></svg>