<svg width="40" height="40" fill="none" xmlns="http://www.w3.org/2000/svg"><g clip-path="url(#a)" transform="matrix(1.4 0 0 1.4 -8 -8)" fill-rule="evenodd" clip-rule="evenodd"><path d="M18.503 14.46c.162.472.297.958.378 1.443-2.655.054-4.879 1.415-6.563 3.396-.462.608-1.011 1.32-.62 2.13.562 1.115 2.803.896 4.245.7 1.489-.276 2.6-.593 3.84-1.105.351-.135 1.038-.404 1.038-.404l.648-.31 1.293-.66.35-.176 2.261-1.21L30 15.722v2.244l-3.707 2.224-2.399 1.32s-3.45 1.658-5.283 2.197c-.278.084-.387.118-.7.189-1.766.35-3.841.62-5.485-.162-.876-.404-1.631-1.248-2.019-2.102-.161-.35-.244-.715-.311-1.092 0-.135-.026-.328-.026-.445 0-1.947 1.48-3.423 2.881-4.515.297-.229.797-.552.994-.658.219-.118.59-.268.927-.43.657-.286 1.457-.564 2.244-.623.569-.025 1.172.027 1.388.593z" fill="#27697d"/><path d="m30 14.865-3.558 1.94c-.281.14-.58.103-.781-.066-.31-.35-.459-.85-.58-1.254 0 0 .443-.112.795-.284.62-.324 4.124-2.115 4.124-2.115v1.78z" fill="#cc2229"/><path d="m21.88 16.401-1.395 2.938c-.157.33-.323.85-.741 1.092-.85.593-2.938.903-2.938.903l-.145.02s2.65-4.995 3.931-7.327h2.831l4.547 10.076h-2.754c-.489 0-.455-.405-.97-1.704-.109-.297-2.365-5.998-2.365-5.998zM10 26.914V25.31h18.558v1.604z" fill="#378e52"/></g><defs><clipPath id="a"><path fill="#fff" d="M0 0h40v40H0z"/></clipPath></defs></svg>