<svg width="40" height="40" fill="none" xmlns="http://www.w3.org/2000/svg"><mask id="a" mask-type="alpha" maskUnits="userSpaceOnUse" x="10" y="11" width="20" height="18"><path fill="#fff" d="M10 11.333h20v17.333H10z"/></mask><g mask="url(#a)" transform="matrix(1.4 0 0 1.4 -7.96 -7.936)"><path fill-rule="evenodd" clip-rule="evenodd" d="M29.804 15.089c-.337-2.09-.608-3.747-.608-3.747l-5.476 2.222h-.027l.103.41s1.39-.539 1.857-.023a.786.786 0 0 1 .196.347c.129.413.32 1.266.667 3.15a1.04 1.04 0 0 1-.174.796l-.022.023-2.462 2.489c-.098-.632-.067-.445 0 0-.551-3.592-1.511-9.423-1.511-9.423l-5.503 2.245.098.404s1.396-.538 1.862 0a.756.756 0 0 1 .196.342c.124.414.32 1.267.667 3.152.06.304-.024.619-.227.853l-2.431 2.458c-.551-3.591-1.507-9.396-1.507-9.396L10 13.636l.102.408s1.391-.537 1.858 0c.218.245.369.138 2.182 11.005v.03c.027.205.147 1.552-1.27 2.756l.444.512s4.39-2.876 3.95-5.96l-.04-.25 2.8-2.808c.254 1.44.574 3.289.97 5.662v.036c.03.222.133 1.555-1.272 2.75l.423.507s4.386-2.857 3.942-5.969c0-.07 0-.15-.031-.226l2.822-2.813 2.182-2.178c.488-.555.752-1.271.742-2.01z" fill="#e1251b"/></g></svg>