<svg width="40" height="40" fill="none" xmlns="http://www.w3.org/2000/svg"><g clip-path="url(#a)" transform="matrix(1.4 0 0 1.4 -8 -8.154)"><g clip-path="url(#b)"><path d="M15.924 29.77c-.056-.047-.128-.065-.193-.094a8.835 8.835 0 0 1-1.917-1.164c-.09-.072-.175-.148-.262-.222-.008-.008-.014-.019-.023-.03a4.84 4.84 0 0 1 .404-.427 9.432 9.432 0 0 1 2.036-1.474c.455-.244.926-.45 1.417-.612a8.473 8.473 0 0 1 1.842-.387 8.236 8.236 0 0 1 3.29.349c1.011.317 1.931.806 2.775 1.444.257.194.502.403.738.622.164.153.317.314.47.484-.071.082-.158.147-.24.214a8.711 8.711 0 0 1-1.77 1.114c-.104.049-.209.094-.313.14-.024.012-.052.017-.066.044h-.036c-.003-.035-.024-.061-.041-.09a5.088 5.088 0 0 0-1.98-1.815 4.402 4.402 0 0 0-1.774-.467 4.758 4.758 0 0 0-1.203.084 4.538 4.538 0 0 0-1.752.777 5.152 5.152 0 0 0-.725.638 4.791 4.791 0 0 0-.622.807c-.012.02-.03.039-.019.066h-.036zM29.985 21.451c-.025.782-.21 1.534-.422 2.29-.059-.033-.108-.07-.163-.099a5.637 5.637 0 0 0-1.213-.428 7.487 7.487 0 0 0-.967-.17c-.415-.046-.83-.036-1.245-.03a10.415 10.415 0 0 0-1.97.26c-.183.044-.363.09-.54.148-.02.007-.04.015-.066.007.047-.097.095-.192.138-.29.121-.273.197-.56.25-.855.013-.073.028-.147.034-.222.004-.047.026-.068.065-.087a11.733 11.733 0 0 1 1.726-.739 6.727 6.727 0 0 1 1.53-.332c.449-.04.897-.058 1.346-.043a7 7 0 0 1 1.394.174c.04.01.082.016.118.04v.145c-.022.01-.017.029-.017.046 0 .062 0 .124.002.186z" fill="#f3f8ff"/><path d="m29.985 21.451-.002-.186c0-.016-.005-.036.017-.045v.236l-.015-.005zM10.028 21.218 10 21.22v-.163l.018.01.01.151zM18.235 18.253c-.028-.178-.052-.344-.081-.51a15.73 15.73 0 0 0-.355-1.566 13.188 13.188 0 0 0-.52-1.511c-.101-.242-.21-.481-.318-.72a47.934 47.934 0 0 0-.837-1.725c-.07-.137-.143-.273-.213-.41-.032-.06-.032-.065.032-.093a9.448 9.448 0 0 1 1.589-.54c.286-.07.576-.124.867-.172.082-.013.088-.01.119.07.173.45.314.91.449 1.373a26.225 26.225 0 0 1 .557 2.326c.063.33.115.663.153.998.026.227.053.454.073.681.023.267.042.534.056.801.008.163.012.325.014.487.001.071-.001.07-.067.074-.404.024-.79.119-1.165.269-.117.047-.23.105-.353.168zM21.784 18.245a3.926 3.926 0 0 0-1.277-.41c-.083-.011-.167-.014-.251-.018-.038-.002-.057-.013-.055-.052.005-.075-.003-.15.01-.226.01-.068.002-.139.005-.208.013-.228.02-.457.041-.684.037-.398.08-.795.136-1.19.095-.669.24-1.326.397-1.981.138-.577.299-1.147.479-1.713.074-.232.157-.461.24-.691.026-.073.037-.078.114-.066.575.09 1.14.222 1.69.41.257.088.51.186.758.294.074.032.076.04.038.114-.202.399-.408.794-.604 1.196-.289.593-.575 1.188-.821 1.8-.196.487-.356.986-.493 1.492-.11.404-.203.811-.281 1.222-.039.204-.067.41-.1.614-.004.032-.009.064-.026.097zM11.935 14.875c.092-.11.175-.214.262-.313.304-.347.616-.687.947-1.008.208-.202.423-.394.647-.578.043-.035.07-.03.108 0 .212.165.42.333.623.509.24.206.472.42.7.642.35.34.68.699.979 1.085.276.356.512.738.728 1.132.282.513.523 1.046.738 1.59.056.143.107.288.16.432.026.074.025.079-.042.127-.212.15-.408.319-.591.503-.16.16-.307.332-.443.512-.01.015-.02.032-.042.04-.047-.05-.066-.117-.095-.178a7.63 7.63 0 0 0-.343-.636 10.296 10.296 0 0 0-1.013-1.407 8.027 8.027 0 0 0-.754-.792 8.534 8.534 0 0 0-.832-.652c-.447-.31-.912-.588-1.395-.837-.109-.057-.222-.106-.342-.17ZM23.315 19.551l-.224-.27a4.572 4.572 0 0 0-.808-.76c-.108-.08-.107-.079-.062-.206a13.66 13.66 0 0 1 .825-1.878 8.413 8.413 0 0 1 1.025-1.53c.27-.316.556-.618.86-.904.359-.34.733-.661 1.128-.96.051-.038.05-.055.122-.001.262.198.515.407.758.628a9.155 9.155 0 0 1 1.112 1.211c.009.012.015.026.024.04-.029.033-.07.034-.105.048-.246.101-.481.223-.713.352-.33.183-.648.384-.957.602-.276.194-.544.399-.792.63-.52.484-.973 1.027-1.38 1.608-.244.347-.458.71-.656 1.083-.04.074-.07.153-.107.23-.013.025-.021.055-.05.077zM16.14 21.512a9.066 9.066 0 0 0-.489-.391 9.54 9.54 0 0 0-2.909-1.463 9.18 9.18 0 0 0-1.29-.306 8.23 8.23 0 0 0-.85-.093 4.336 4.336 0 0 0-.533-.003c-.031.002-.037-.015-.034-.038.007-.045.014-.09.024-.133.116-.524.249-1.043.425-1.55.098-.281.207-.559.332-.83.038-.082.04-.082.13-.063.724.153 1.425.377 2.103.675.47.207.922.448 1.347.737.279.19.545.397.802.616.241.206.47.424.685.657.199.215.381.443.539.69.025.039.024.068.007.108a3.833 3.833 0 0 0-.245.82c-.027.151-.049.304-.045.458v.11zM23.897 21.502c-.009-.087-.01-.165-.015-.242a3.549 3.549 0 0 0-.135-.717 3.257 3.257 0 0 0-.145-.408.127.127 0 0 1 .013-.134c.165-.25.35-.483.556-.7.054-.056.105-.116.16-.171.435-.433.907-.82 1.42-1.156a8.491 8.491 0 0 1 1.31-.693c.296-.128.597-.242.903-.342.37-.12.745-.218 1.125-.298.079-.016.087-.012.123.067.16.35.297.711.414 1.079.14.436.252.879.346 1.327.004.02.009.041.01.062 0 .024.01.048-.004.072-1.116-.022-2.185.209-3.227.59a9.413 9.413 0 0 0-2.854 1.664z" fill="#58a9d6"/><path d="M18.628 25.124a5.81 5.81 0 0 1-.332-.005c-.144-.006-.289.004-.433.011a8.88 8.88 0 0 0-.878.089c-.59.09-1.167.234-1.72.462-.537.221-1.064.465-1.563.764-.354.212-.693.447-1.02.7-.054.042-.103.093-.17.116-.05-.042-.088-.097-.13-.148a13.424 13.424 0 0 1-.91-1.224 7.835 7.835 0 0 1-.468-.824c-.022-.046-.013-.068.026-.093.22-.143.452-.265.692-.373a9.382 9.382 0 0 1 1.872-.591 8.184 8.184 0 0 1 1.646-.187c.094 0 .187-.01.28-.009.323.008.645.01.966.035.132.011.264.021.396.028a.164.164 0 0 1 .128.07c.289.352.626.649 1.018.883.191.114.392.21.6.296zM21.379 25.129l.26-.114a3.67 3.67 0 0 0 .98-.651c.144-.13.275-.271.397-.42a.17.17 0 0 1 .129-.069c.248-.02.497-.04.747-.046.195-.004.391-.019.587-.016.539.007 1.077.029 1.609.126.453.083.9.189 1.34.328.391.125.773.271 1.139.457.145.073.287.152.422.244.06.04.06.041.028.106a8 8 0 0 1-.686 1.146c-.241.343-.5.671-.768.993-.039.046-.038.07-.112.013-.274-.212-.552-.419-.844-.605a9.108 9.108 0 0 0-1.171-.64c-.28-.127-.556-.26-.844-.367a7.653 7.653 0 0 0-1.428-.376 8.015 8.015 0 0 0-1.156-.11c-.078-.002-.157-.013-.235-.01-.125.004-.25.015-.394.01zM10.028 21.218l-.01-.152c.21-.051.422-.096.636-.126a8.775 8.775 0 0 1 1.504-.08c.731.02 1.451.107 2.15.34.528.178 1.044.384 1.544.631.086.043.17.092.259.127.073.029.094.078.102.15.018.149.047.296.082.442.074.306.18.599.338.878-.032.009-.055-.002-.08-.01a8.928 8.928 0 0 0-1.372-.3 11.654 11.654 0 0 0-.914-.093 9.768 9.768 0 0 0-1.156-.007c-.56.03-1.108.135-1.645.298a5.018 5.018 0 0 0-.84.327c-.053.027-.103.06-.16.101-.22-.756-.388-1.513-.43-2.293l.001-.006-.003-.004a55.358 55.358 0 0 1-.006-.223z" fill="#f3f8ff"/><path d="m10.033 21.441.004.005-.002.005-.006-.004z" fill="#58a9d6"/></g></g><defs><clipPath id="a"><path fill="#fff" d="M0 0h40v40H0z"/></clipPath><clipPath id="b"><path fill="#fff" transform="translate(10 11)" d="M0 0h20v18.77H0z"/></clipPath></defs></svg>