<svg width="40" height="40" fill="none" xmlns="http://www.w3.org/2000/svg"><path fill-rule="evenodd" clip-rule="evenodd" d="m28.385 13.732 1.234-.58-.798 1.669.945 2.032-1.308-.725-1.596 2.104.29-2.613-1.526-.798 1.526-.653-.218-2.251zm-4.674 20.02A13.953 13.953 0 0 0 34 20.248c0-7.731-6.268-14-14-14s-14 6.269-14 14c0 3.732 1.46 7.122 3.84 9.633 0 0 .974-1.265 1.266-1.7.29-.435.725-.49.652-1.089-.086-.724-.652-1.453-.652-1.453l-.145.582s-4.078-4.286-3.63-7.188c.29-1.887 1.45-2.106 1.45-2.106s-.29-1.742 2.397-3.05c2.687-1.306 4.72-1.088 4.72-1.088l-1.163.871s1.398-.25 2.106-.072l.58.145-.752.364s1.534.068 2.568.87c.808.627.871 1.017.871 1.017h-.581s.509.872.654 1.742c.145.871.082 1.108.082 1.108s0 .409.734.953c.539.398 1.062.49 1.226.707.246.33-.517.862-.517.862s.055.391.408.826c.162.2-.408.545-.598.627l.462.381s.163.163-.11.354c-.271.19-.162.599-.054 1.035.11.435.327 1.116-1.142 1.279-1.47.163-1.553.435-1.688.627-.137.19-.981 2.586-.545 2.968.598.523 1.65.368 3.676 1.741 1.524 1.035 1.596 2.56 1.596 2.56z" fill="url(#a)" style="fill:url(#a);stroke-width:1.4"/><path fill-rule="evenodd" clip-rule="evenodd" d="M19.037 18.26s-.49.735-.68.871c-.19.137-.245.327-.11.354.138.028 1.09 0 1.09 0l-.054-.163s.081-.217 0-.436c-.082-.217-.3-.3-.3-.3zM18.773 17.69c-.696.244-.934.747-.987 1.445.412-.723.795-1.35 1.154-1.075.019-.284-.028-.397-.167-.37z" fill="#3f6ebc" style="stroke-width:1.4"/><defs><radialGradient id="a" cx="0" cy="0" r="1" gradientUnits="userSpaceOnUse" gradientTransform="matrix(-14.05578 16.52483 -16.14913 -13.73622 14.4 13.949)"><stop stop-color="#93C8F0"/><stop offset=".251" stop-color="#79C1F1"/><stop offset=".678" stop-color="#2E5CA3"/><stop offset="1" stop-color="#28539C"/></radialGradient></defs></svg>