<svg width="40" height="40" fill="none" xmlns="http://www.w3.org/2000/svg"><path fill-rule="evenodd" clip-rule="evenodd" d="M18.02 33.908c-5.95-.943-10.555-5.305-11.776-11.153-.24-1.147-.319-3.27-.166-4.441.822-6.31 5.518-11.134 11.85-12.173 1.228-.202 3.683-.146 4.856.111 5.016 1.098 8.936 4.595 10.52 9.383.48 1.45.696 2.808.696 4.37 0 6.582-4.508 12.201-10.996 13.707-1.026.239-3.984.355-4.984.196zm1.454-6.37c-.733-.855-1.857-2.642-2.2-3.5-.313-.78-.346-.966-.348-1.97-.002-1.004.028-1.175.304-1.773.543-1.177 1.533-1.835 2.768-1.843 1.808-.01 3.137 1.543 3.129 3.655-.005 1.384-.729 3.002-2.165 4.846l-.83 1.066.802-.073a9.902 9.902 0 0 0 6.167-2.934c.888-.904 1.34-1.547 1.882-2.68.715-1.494.93-2.473.935-4.23.002-1.183-.044-1.667-.23-2.41-1.205-4.806-5.842-8.043-10.727-7.488-4.121.469-7.556 3.472-8.562 7.488-.335 1.335-.331 3.52.009 4.79 1.022 3.819 4.063 6.658 7.874 7.35.416.075.941.141 1.167.146l.41.01z" fill="#ed1c24" style="stroke-width:1.4"/></svg>