<svg width="40" height="40" fill="none" xmlns="http://www.w3.org/2000/svg"><g clip-path="url(#a)" transform="matrix(1.4 0 0 1.4 -8 -7.985)" fill="#fff"><path d="M26.832 20.849c-.006-.038-.006-.07.181-.129.187-.058.64-.212.917-.364.275-.154.321-.176.386-.133.065.043.046.147.046.221v.748c.101-.166.433-.717.696-.88.207-.128.28-.138.408-.14.154-.004.517.091.533.475.013.3-.208.42-.35.402-.112-.016-.193-.12-.26-.224-.067-.106-.174-.17-.282-.133-.107.037-.708.427-.742.981-.024.409 0 1.681 0 1.681 0 .193.074.268.16.319.086.052.401.055.49.068.09.012.086.033.086.06 0 .028 0 .041-.08.041H26.91c-.068 0-.095-.013-.095-.053 0-.055.088-.045.156-.055.067-.009.425.02.527-.16.075-.117.066-.306.066-.306l-.01-2.235c0-.18-.054-.207-.103-.236-.05-.028-.133-.044-.308.016-.165.054-.279.105-.31.036zM19.442 20.85c-.029-.056.024-.091.18-.132.176-.047.559-.163.863-.335.303-.172.355-.19.42-.169.064.022.058.135.058.227v2.892c0 .162.021.23.095.297.073.068.257.108.496.108.108 0 .142.012.142.058s-.034.046-.077.046h-2.097c-.065 0-.08-.028-.08-.055 0-.034.028-.056.126-.056.082 0 .462.029.548-.168a.727.727 0 0 0 .05-.279V20.99c0-.174-.136-.251-.292-.214-.182.042-.395.145-.432.073zM20.511 18.85a.516.516 0 1 0 0-1.033.516.516 0 0 0 0 1.032zM23.031 22.129c.104.938.663 1.668 1.355 1.545.694-.122 1.041-.785.958-1.845-.086-1.08-.62-1.618-1.337-1.553-.743.068-1.08.914-.976 1.853zm.687-2.018c.894-.167 2.165.03 2.454 1.429.288 1.398-.674 2.143-1.51 2.324-.816.177-2.202.051-2.452-1.453a1.958 1.958 0 0 1 1.508-2.3zM13.139 23.616h.518c1.928 0 2.445-.18 3.124-1.08.678-.902.759-2.196.759-2.633 0-.437-.116-1.535-.795-2.463-.679-.929-1.812-1.17-2.803-1.17h-.807c-.192 0-.201.085-.201.219v6.957c0 .152.053.17.205.17zM10 23.779c0-.07.091-.082.176-.085.981-.028 1.165-.062 1.277-.178.061-.065.15-.117.15-.572v-6.257c0-.562-.682-.473-1.164-.522-.169-.017-.183-.04-.183-.09 0-.048.032-.072.12-.075h3.955c4.347 0 4.569 3.178 4.569 4.025 0 1.822-1.204 3.825-3.721 3.825h-5.052c-.062 0-.127-.009-.127-.071Z"/></g><defs><clipPath id="a"><path fill="#fff" d="M0 0h40v40H0z"/></clipPath></defs></svg>