<svg width="40" height="40" fill="none" xmlns="http://www.w3.org/2000/svg"><g clip-path="url(#a)" transform="matrix(1.4 0 0 1.4 -7.99 -7.997)"><mask id="b" mask-type="alpha" maskUnits="userSpaceOnUse" x="10" y="16" width="20" height="8"><path fill="#fff" d="M10 16.242h20v7.516H10z"/></mask><g mask="url(#b)"><path fill-rule="evenodd" clip-rule="evenodd" d="M10 20.815s.713.433 1.694 1.675c.981 1.243 1.816 1.255 2.312 1.255.497 0 .994-.12 2.319-1.185 1.325-1.063 6.618-6.407 13.624-5.687 0 0-1.401-.63-3.656-.63-1.752 0-4.02.369-6.541 1.706-5.765 3.057-6.198 3.79-9.752 2.866z" fill="url(#c)" style="fill:url(#c)"/></g></g><defs><linearGradient id="c" x1="9.997" y1="23.746" x2="29.951" y2="23.746" gradientUnits="userSpaceOnUse"><stop stop-color="#FBF315"/><stop offset=".06" stop-color="#FAEF16"/><stop offset=".13" stop-color="#F5E219"/><stop offset=".2" stop-color="#EECC1D"/><stop offset=".27" stop-color="#E3AD24"/><stop offset=".34" stop-color="#D6872C"/><stop offset=".38" stop-color="#D07430"/><stop offset=".64" stop-color="#515793"/><stop offset=".98" stop-color="#1A003B"/><stop offset="1" stop-color="#1A003B"/></linearGradient><clipPath id="a"><path fill="#fff" d="M0 0h40v40H0z"/></clipPath></defs></svg>