<svg width="40" height="40" fill="none" xmlns="http://www.w3.org/2000/svg"><g clip-path="url(#a)" transform="matrix(1.4 0 0 1.4 -7.99 -8.024)"><mask id="b" mask-type="alpha" maskUnits="userSpaceOnUse" x="10" y="17" width="20" height="6"><path fill="#fff" d="M10 17.849h20v4.302H10z"/></mask><g mask="url(#b)" fill="#fff"><path d="M13.727 19.625h.73v2.451h-.73zM13.727 18.613h.729v.668h-.729zM29.185 19.625h.73v2.451h-.73zM29.187 18.613h.729v.668h-.729z"/><path fill-rule="evenodd" clip-rule="evenodd" d="M23.468 20.163c.46 0 .786.201.775.622v1.29h.73V20.75a1.016 1.016 0 0 0-.278-.746c-.262-.29-.674-.454-1.227-.454-.552 0-.965.163-1.226.454a1.016 1.016 0 0 0-.279.746v1.326h.73v-1.29c-.01-.422.316-.623.775-.623zM12.604 19.625l-.858 1.806-.889-1.807h-.82l1.262 2.452h.89l1.228-2.451zM17.355 19.625l-.858 1.806-.889-1.807h-.82l1.262 2.452h.89l1.228-2.451zM19.872 20.117c.432 0 .674.16.76.338l-1.722.329a.62.62 0 0 1 .16-.357c.182-.194.448-.31.802-.31zm-.4 1.319a.8.8 0 0 1-.353-.15l2.366-.467a1.471 1.471 0 0 0-.053-.323c-.044-.164-.329-.977-1.641-.944-.496.012-.906.176-1.176.427-.25.235-.401.54-.401.895 0 .348.17.67.485.898.296.215.684.304 1.215.304h1.366v-.603h-1.312c-.2 0-.369-.014-.497-.037zM27.89 20.745c-.006.38-.183.764-.886.764-.3 0-.54-.072-.704-.257a.525.525 0 0 1-.14-.338.62.62 0 0 1 .212-.497c.172-.151.436-.236.724-.234h.794v.562zm0-2.776v1.606l-.794-.003c-.257 0-.9.044-1.323.446-.23.218-.346.508-.346.86 0 .302.11.576.318.794.3.312.729.477 1.243.477.537 0 .973-.138 1.26-.419.255-.248.372-.595.372-.996v-2.765z"/></g></g><defs><clipPath id="a"><path fill="#fff" d="M0 0h40v40H0z"/></clipPath></defs></svg>