<svg width="40" height="40" fill="none" xmlns="http://www.w3.org/2000/svg"><g clip-path="url(#a)" transform="matrix(1.4 0 0 1.4 -8 -7.87)"><g clip-path="url(#b)"><path d="M18.573 28.318c-.023.04-.062.029-.097.029-1.856 0-3.713 0-5.57.002-.05 0-.073-.02-.095-.057-.239-.419-.476-.838-.717-1.255-.302-.524-.61-1.045-.912-1.57-.232-.4-.457-.805-.69-1.205-.164-.281-.332-.56-.486-.848.005-.045.043-.043.073-.048.039-.006.078-.003.117-.003h5.346c.05 0 .098-.002.146.006.047.008.07.042.093.079.062.099.118.201.178.302.118.22.248.432.373.648.098.186.212.363.314.547.109.19.219.378.326.568.074.133.153.263.231.395.068.131.145.257.221.384.055.107.12.208.178.313.075.133.155.263.229.397.102.182.211.359.313.541.076.138.159.271.237.408.044.094.106.177.154.269.017.03.039.06.037.098z" fill="#643e98"/><path d="m15.722 23.395-1.9-.002-3.696.001c-.04 0-.085-.017-.12.02-.028-.087.045-.14.078-.2.184-.33.376-.654.565-.98.152-.263.306-.523.456-.787.212-.375.427-.749.644-1.12.25-.429.492-.861.746-1.286.105-.176.206-.354.305-.533.03-.054.063-.074.127-.074.888.002 1.775.002 2.662.001l.117-.002c.032-.03.072-.028.11-.028.275 0 .55-.004.825.002a15.9 15.9 0 0 1 .626 0c.193-.005.387-.002.58 0a5.31 5.31 0 0 1 .274 0c.054-.004.107.002.16 0 .069 0 .137-.001.206.002.028.002.054.006.074.029.018.046-.01.081-.03.117-.299.516-.595 1.033-.894 1.549-.333.578-.67 1.154-1 1.734-.242.411-.476.826-.716 1.238-.063.108-.113.225-.199.32z" fill="#8e4f9f"/><path d="m22.867 11.019.809 1.394 1.515 2.622c.169.292.337.584.507.875.02.036.018.063-.001.096-.254.436-.507.872-.759 1.309-.214.372-.426.746-.64 1.12.006.064-.038.108-.066.157-.432.745-.86 1.492-1.293 2.236-.023.04-.037.13-.12.06-.112-.157-.186-.334-.285-.497a19.112 19.112 0 0 1-.36-.622c-.224-.381-.44-.765-.665-1.145a1.2 1.2 0 0 1-.136-.242c-.083-.143-.163-.288-.254-.427-.17-.307-.345-.612-.523-.915-.015-.025-.027-.052-.047-.074-.187-.31-.353-.634-.54-.945a.126.126 0 0 1-.02-.065c.065-.16.162-.304.247-.452l1.36-2.355c.387-.673.775-1.345 1.166-2.016.025-.043.034-.11.105-.114z" fill="#643e98"/><path d="M22.867 11.019c-.127.165-.215.353-.32.532-.26.445-.517.892-.775 1.339l-.84 1.459-.761 1.313-.17.295c-.034.033-.077.03-.119.03-.193 0-.387.002-.58-.002-.182.003-.363.002-.545 0-.104.003-.208 0-.312-.002-.043.001-.086-.002-.13.003-.218 0-.437.003-.656-.002-.22.005-.442.004-.662 0-.221.004-.442.005-.663 0-.161.004-.323.004-.485 0-.085.005-.17-.002-.255 0-.06.003-.12 0-.18 0-.059.003-.119 0-.178 0-.085.003-.17.002-.255 0-.198.003-.395.005-.593 0-.037-.002-.075.001-.1-.036.164-.289.326-.579.493-.866.772-1.334 1.545-2.667 2.316-4.001.033-.058.07-.08.138-.08 1.847.002 3.693.002 5.54.002.03 0 .065-.014.092.016z" fill="#8e4f9f"/><path d="m27.151 18.439 1.065 1.84 1.052 1.817c.24.415.477.83.718 1.243.023.04.016.067-.005.103l-.695 1.2-.903 1.568-.994 1.717c-.077.133-.149.27-.223.404-.007.01-.015.011-.025.005-.075-.058-.104-.148-.149-.226-.683-1.181-1.364-2.363-2.046-3.545-.21-.363-.422-.725-.627-1.09-.017-.031-.04-.06-.038-.099.067-.174.175-.326.267-.486.55-.959 1.105-1.916 1.657-2.873.293-.508.586-1.014.877-1.522a.146.146 0 0 1 .03-.038c.012-.008.026-.013.039-.019z" fill="#643e98"/><path d="M24.297 23.375c.115.235.255.458.385.685.234.408.47.815.705 1.222l.764 1.323.704 1.222.293.505c-.026.019-.057.01-.085.01h-5.566c-.023 0-.046.003-.068-.002l-.506-.87-.9-1.559c-.005-.007-.013-.014-.02-.02-.079-.09-.115-.21-.191-.302a5.516 5.516 0 0 0-.293-.506c-.085-.15-.162-.306-.254-.452-.072-.123-.138-.25-.216-.37-.059-.114-.126-.224-.193-.335a4.665 4.665 0 0 0-.244-.416c-.022-.04-.05-.08-.01-.124.055-.03.115-.019.172-.019h5.076c.114 0 .227-.006.341-.005.036 0 .072-.006.106.013z" fill="#8e4f9f"/><path d="M16.332 15.96h.663a.621.621 0 0 0 .235.208c.062.038.12.08.17.13.1.103.217.187.325.28.203.176.41.349.617.52.191.159.378.323.571.48.191.154.383.31.561.48.094.09.196.173.303.249.16.111.299.25.452.369.11.085.21.182.313.273.19.17.426.289.567.511.03.049.091.046.133.077.077.055.148.117.22.178.186.16.377.317.559.484.097.09.214.164.318.252.047.04.095.074.135.124.04.05.11.062.156.118.056.069.139.117.202.183.05.052.057-.007.07-.03.131-.225.26-.451.39-.677l.97-1.688c.01-.017.024-.03.036-.046l.213.001c-.003.05-.045.038-.073.043-.046.009-.088.03-.096.073-.019.102-.09.173-.144.251-.13.184-.207.397-.335.58a1.759 1.759 0 0 0-.198.397c-.022.06-.069.111-.107.16-.094.122-.158.26-.243.388-.1.151-.177.315-.268.472-.103.176-.202.356-.308.53-.17.281-.33.568-.495.852-.191.328-.361.67-.572.986a.718.718 0 0 0-.08.156c-.009.027-.012.06-.053.06h-.457c-.068-.044-.034-.12-.01-.148.106-.13.129-.307.253-.423a.158.158 0 0 0 .042-.076.629.629 0 0 1 .113-.214.387.387 0 0 0 .08-.154.129.129 0 0 1 .027-.063c.127-.133.167-.322.28-.46.122-.15.167-.337.28-.488.076-.101.13-.214.189-.325.039-.075.03-.091-.054-.092a10.079 10.079 0 0 0-.43.001c-.158-.004-.316.02-.473-.014a.028.028 0 0 1-.015-.03c.02-.026.05-.026.079-.03.059-.001.118 0 .177.001.155.004.31.003.466.001.008-.044-.024-.057-.045-.073-.424-.332-.824-.695-1.245-1.03-.325-.26-.638-.532-.955-.8-.439-.37-.883-.736-1.32-1.109-.34-.291-.687-.574-1.026-.866-.32-.276-.655-.532-.969-.814-.05-.046-.112-.077-.164-.122-.029-.026-.064-.05-.03-.097z" fill="#f7d2e4"/><path d="M25.584 18.437h.586c-.027.068-.088.042-.133.04-.082-.004-.132.027-.17.099-.191.35-.398.692-.595 1.038-.282.497-.567.993-.855 1.486-.122.21-.25.418-.365.632-.167.312-.366.605-.533.918-.121.228-.25.454-.388.673-.017.027-.029.06-.07.06h-.418c-.07-.02-.046-.07-.025-.106.108-.182.205-.37.314-.55.077-.128.165-.25.22-.39.03-.075.082-.141.126-.207.096-.142.144-.31.26-.44.068-.078.106-.18.151-.272.123-.247.273-.479.413-.715.124-.208.256-.415.366-.629.107-.205.238-.393.345-.595.13-.244.276-.477.415-.716.037-.064.079-.127.107-.196.037-.088.091-.14.193-.123.018.004.04.006.056-.007z" fill="#f0b7d4"/><path d="M23.086 23.372c.043-.126.128-.23.19-.347.109-.207.237-.404.347-.611.092-.171.207-.327.3-.497.13-.235.255-.473.392-.703.156-.26.308-.524.462-.786.267-.454.516-.919.793-1.367.106-.171.2-.35.294-.528.034-.065.076-.084.146-.08.053.002.11.02.16-.016h.528c-.017.059-.069.044-.104.04-.143-.018-.223.045-.296.167-.123.205-.24.416-.358.623-.175.303-.35.608-.522.913-.231.41-.473.814-.706 1.223-.165.29-.33.581-.501.869-.187.316-.358.64-.555.95-.035.055-.025.14-.11.161-.153-.006-.307.015-.46-.01z" fill="#eeaecf"/><path d="M23.574 23.373c.026-.156.135-.27.205-.403.094-.177.197-.348.297-.521.178-.305.358-.607.533-.912.174-.302.343-.607.516-.909.132-.229.277-.451.402-.684.123-.23.27-.447.381-.686.059-.126.156-.242.227-.368.054-.098.107-.197.163-.295.052-.092.116-.16.239-.143.05.007.11.02.16-.015l.454.001-.023.017c-.06.038-.126.024-.19.023-.062 0-.099.012-.12.08-.028.087-.086.16-.132.24-.156.265-.303.537-.464.799-.191.313-.361.637-.554.95-.189.307-.353.628-.536.938-.108.184-.21.373-.324.554-.122.192-.22.397-.338.592-.137.228-.259.464-.405.687-.03.046-.057.071-.115.067-.125-.01-.251.013-.376-.012z" fill="#eba7ca"/><path d="M21.563 23.372c-.008-.067.027-.122.06-.172.231-.351.421-.727.632-1.09.133-.229.256-.463.395-.688.104-.168.215-.333.304-.508.085-.168.185-.327.275-.492.088-.16.179-.322.293-.47.074-.097.164-.2.178-.33.012-.121.109-.188.162-.28.08-.138.135-.291.231-.42.062-.083.102-.18.176-.255.01-.009.022-.02.022-.031.007-.14.1-.186.22-.2h.39c.005.02-.008.03-.025.035-.119.027-.163.121-.21.22-.074.152-.17.291-.259.435-.125.205-.236.418-.356.626-.105.184-.216.363-.319.548-.107.191-.233.372-.319.577-.053.127-.134.245-.207.363-.172.28-.33.567-.494.85-.082.142-.142.3-.262.418a.2.2 0 0 0-.04.067c-.113.271-.292.506-.435.76-.014.026-.032.05-.067.049-.115-.007-.231.015-.345-.012z" fill="#f4c9de"/><path d="M25.584 18.437c-.002.002-.005.007-.007.006-.162-.016-.202.106-.264.217-.135.243-.286.477-.421.719-.1.177-.226.342-.313.522-.107.224-.24.432-.358.65-.119.22-.26.429-.386.646-.079.136-.15.278-.223.418-.005.008-.005.02-.012.026-.11.111-.156.261-.236.39-.073.121-.146.242-.209.369-.09.18-.212.34-.306.518-.068.128-.145.252-.22.378-.014.024-.01.05-.012.076-.1.026-.203.005-.304.012-.038.001-.041-.024-.037-.053a.299.299 0 0 1 .043-.108c.25-.42.492-.847.733-1.273.227-.402.46-.8.69-1.199.236-.407.467-.818.707-1.223.125-.211.252-.423.365-.643.07-.137.166-.262.244-.397a.085.085 0 0 1 .054-.038c.026-.011.057.004.082-.014h.39z" fill="#f2bfd9"/><path d="m14.289 15.948.09.011c.232.208.485.391.719.595.234.204.473.404.71.604.28.236.564.47.842.709.19.163.392.31.575.481.022.022.068.036.044.084h-.625c-.39-.343-.795-.668-1.194-1-.125-.106-.232-.24-.397-.292-.023-.008-.038-.027-.046-.049-.018-.047-.057-.058-.101-.06-.162-.25-.303-.51-.45-.769-.058-.103-.136-.196-.167-.314z" fill="#eeaecf"/><path d="M19.829 25.575c.068.1.136.2.175.315-.084.055-.107.152-.154.231-.155.254-.29.52-.452.769-.017-.001-.035-.002-.045.013-.081.116-.216.184-.282.316-.031.063-.1.1-.147.154-.147.173-.276.36-.436.522-.033.034-.056.093-.123.067l-.24-.408c.129-.192.283-.364.433-.538.136-.157.263-.322.4-.477.167-.19.316-.393.486-.58.055-.06.115-.115.152-.189.05-.1.15-.135.233-.196z" fill="#eba7ca"/><path d="M25.194 18.437c-.02.027-.05.015-.077.018-.146.004-.207.112-.278.215-.102.15-.169.321-.265.47-.07.108-.129.223-.2.331-.066.102-.151.195-.179.32a.12.12 0 0 1-.041.064c-.02.017-.042.034-.05.058-.075.212-.25.372-.301.594a.09.09 0 0 1-.025.042.87.87 0 0 0-.22.39.143.143 0 0 1-.034.058c-.115.133-.192.29-.286.436a.253.253 0 0 0-.044.128c0 .02-.004.043-.019.054-.09.066-.115.178-.185.257-.027.03-.054.065-.057.1-.009.092-.073.145-.119.214-.093.14-.184.284-.257.436-.05.103-.12.191-.175.29-.044.078-.087.159-.124.238a.72.72 0 0 1-.187.234c-.045-.006-.093.014-.136-.012.098-.195.217-.378.334-.563a.676.676 0 0 0 .056-.111c.05-.124.136-.224.202-.336.182-.31.345-.63.533-.936.106-.173.196-.356.317-.52.03-.04.032-.089.054-.133.106-.219.24-.42.366-.628.147-.245.286-.495.426-.744.09-.161.184-.324.28-.481.087-.14.148-.295.252-.426.042-.054.106-.02.147-.058h.292z" fill="#f4c4dc"/><path d="M14.906 17.03c.039-.032.096-.034.105.01.015.075.065.085.12.104.03.01.059.03.082.05.25.23.519.437.777.655l.593.5c.027.022.058.042.06.083l-.937.001-.699-1.216c-.035-.061-.068-.124-.101-.187z" fill="#eba7ca"/><path d="M18.364 27.962c.098-.027.14-.12.202-.186.117-.126.208-.276.33-.398.11-.108.175-.256.31-.343.049-.03.078-.092.113-.14.026-.035.049-.057.078-.005l-.772 1.36c-.014.024-.035.045-.052.068a3 3 0 0 1-.21-.356z" fill="#eba3c8"/><path d="M16.314 24.409a11.52 11.52 0 0 1-.371-.644c.039-.03.078-.06.063-.12a.036.036 0 0 1 .013-.034c.14-.107.226-.264.349-.386.08-.08.132-.182.21-.265.156-.167.288-.355.442-.524.081-.089.16-.183.235-.28.058-.075.112-.162.193-.219.065-.046.098-.12.138-.179.101-.15.239-.264.345-.408.076-.103.164-.197.245-.296.06-.072.102-.17.196-.215.03-.014.046-.045.058-.076a.294.294 0 0 1 .132-.163c.009-.004.02-.009.023-.017.08-.186.266-.287.37-.456.043-.07.117-.118.166-.188.033-.046.078-.084.106-.137a.126.126 0 0 1 .092-.066c.054.013.066.063.092.101.073.143.167.274.232.42a.097.097 0 0 0 .04.087c.011.015.019.031.016.05-.095.136-.214.252-.327.372-.167.177-.295.386-.458.566-.126.14-.24.288-.379.416-.093.087-.14.21-.228.303-.195.209-.372.433-.555.652-.2.238-.391.485-.596.72-.164.188-.317.386-.483.573-.11.126-.23.246-.32.39-.01.014-.019.027-.039.023z" fill="#fbe4ef"/><path d="M16.314 24.409c.097-.173.245-.303.366-.455.105-.131.209-.262.318-.389.247-.286.489-.577.727-.87.147-.182.302-.357.451-.536.106-.127.195-.266.305-.385.12-.13.248-.26.363-.395.106-.123.226-.238.3-.39.037-.074.113-.124.168-.19.12-.143.251-.275.378-.412.033-.008.049.015.06.037.08.149.178.288.25.441a.214.214 0 0 1 .012.056c-.073.151-.142.305-.26.429-.034-.014-.038-.041-.033-.086a.235.235 0 0 1-.08.098c-.04.033-.085.057-.059.132.017.049-.03.1-.092.102-.055.002-.083.03-.102.075a.2.2 0 0 1-.09.1c-.015.007-.033.017-.037.031-.034.14-.185.183-.25.301-.063.117-.172.204-.245.314-.047.07-.103.123-.158.183-.127.139-.256.279-.37.428-.052.068-.077.142-.168.186-.052.025-.113.095-.086.188.011.039-.028.072-.065.088-.036.015-.048-.014-.057-.042-.029.054-.065.102-.057.17.004.04-.024.076-.073.073a.101.101 0 0 0-.093.041c-.156.2-.32.39-.5.568-.048.046-.052.104-.05.162.003.07-.022.091-.088.056.011.045.03.1-.04.097-.048-.002-.064.018-.077.053a.124.124 0 0 1-.057.064.159.159 0 0 0-.078.117c-.011.06-.039.116-.119.107l-.314-.547z" fill="#f8dae9"/><path d="M19.319 19.743c-.09.062-.124.17-.206.243-.089.079-.17.171-.235.271-.076.119-.225.178-.26.327-.013.057-.078.04-.11.083-.04.055-.04.144-.1.17-.1.041-.104.164-.205.212-.043.02-.08.11-.125.166-.14.171-.306.322-.43.504-.042.063-.133.097-.132.193 0 .018-.04.041-.066.051-.036.013-.055.03-.055.07 0 .012-.003.031-.011.035-.09.044-.116.147-.187.204-.04.033-.066.07-.097.107-.098.119-.204.23-.303.347-.068.08-.127.166-.195.244-.134.153-.238.331-.393.465a.214.214 0 0 0-.054.08c-.017.037-.027.074-.08.083-.03.006-.066.026-.043.083.033.082-.043.072-.089.084l-.22-.37c.067-.166.17-.313.258-.467.211-.368.427-.734.64-1.1.062.04.123.04.157-.028.058-.114.16-.188.238-.281.115-.135.221-.279.353-.399a.186.186 0 0 0 .056-.09c.016-.062.035-.118.11-.13.016-.003.027-.019.035-.033.111-.189.285-.324.416-.494.084-.11.205-.195.237-.34.004-.015.01-.036.026-.04.085-.02.106-.103.157-.156a6.12 6.12 0 0 0 .55-.65c.008-.011.022-.015.035-.017.03.002.046.022.059.045.086.153.18.302.263.457.011.022.028.045.006.07z" fill="#fceef5"/><path d="M16.628 24.955c.053-.034.118-.06.097-.145-.006-.028.023-.044.04-.063.04-.042.104-.061.116-.131.003-.016.028-.06.066-.022.012.013.033.012.04-.006.007-.013.001-.03.002-.046 0-.024-.074.012-.033-.04.02-.025.047-.012.07.005.01.007.022.01.047.02-.033-.136.015-.223.113-.306.1-.084.171-.2.259-.299.066-.074.146-.134.19-.228.01-.02.044-.06.09-.03.05.033.065-.031.06-.042-.048-.106.063-.145.08-.232.024.035-.006.072.03.087.021.009.029-.01.038-.023.017-.024.057-.044.024-.08-.035-.04-.01-.064.017-.09.016-.016.033-.032.046-.05.066-.09.065-.09.18-.088-.066-.054-.032-.092.006-.134.08-.091.172-.17.244-.274.04-.057.09-.124.148-.176.022-.02.038-.046.075-.032.008.004.032-.01.031-.01-.037-.107.063-.144.11-.198.102-.116.173-.256.288-.363.048-.044.092-.085.126-.15.04-.079.142-.124.178-.219.008-.02.036-.019.06-.018.082.002.096-.026.065-.101-.012-.03.012-.057.031-.077.05-.051.13-.075.14-.163 0-.006.02-.01.031-.014.005.012.014.024.013.034-.003.031-.023.062.002.093.016.04-.009.069-.026.099l-1.102 1.916c-.01.019-.035.027-.031.053l.048.095c.01.02.005.034-.01.051-.22.237-.422.49-.633.736-.132.153-.267.307-.395.463-.138.166-.282.329-.41.504-.056.079-.134.14-.18.229-.009.018-.023.04-.052.032l-.329-.567z" fill="#f7d2e4"/><path d="M19.829 25.574c-.007.04.003.079-.07.076-.084-.003-.114.09-.152.147-.09.135-.211.244-.307.374-.06.082-.122.171-.191.24-.148.147-.259.322-.4.472-.17.181-.327.374-.481.569-.03.038-.06.076-.102.102l-.314-.547a.196.196 0 0 0 .12-.072c.166-.188.321-.387.488-.576.16-.18.323-.361.46-.559.169-.243.395-.435.568-.673.02-.03.044-.066.092-.057a5.3 5.3 0 0 1 .289.504z" fill="#eeaecf"/><path d="M19.54 25.07a3.981 3.981 0 0 0-.302.349c-.072.097-.187.16-.248.268-.092.163-.228.29-.344.432-.116.14-.219.292-.351.418-.142.135-.245.304-.373.45-.036.04-.066.055-.111.02l-.226-.392c.171-.173.316-.369.48-.549.138-.153.265-.318.395-.48.206-.258.425-.505.64-.755.06-.07.081-.174.18-.21.103.141.17.3.26.449z" fill="#f0b7d4"/><path d="M16.956 25.522c.537-.691 1.11-1.352 1.68-2.015.09.131.167.27.24.411-.024.055-.066.097-.104.141-.344.406-.674.823-1.023 1.224-.128.147-.256.293-.37.452-.05.072-.139.11-.192.183a3.468 3.468 0 0 1-.23-.396z" fill="#f4c8de"/><path d="M17.188 25.918c.12-.143.238-.287.359-.43.22-.26.444-.52.664-.783.07-.084.126-.181.202-.26.164-.167.289-.368.463-.526.072.105.134.217.19.332l.004.009c.047.112-.018.193-.091.253-.18.149-.29.355-.45.52-.16.168-.302.351-.452.528-.162.193-.322.389-.48.584a.514.514 0 0 1-.19.157 3.415 3.415 0 0 1-.22-.384z" fill="#f4c4dc"/><path d="M17.407 26.302c.055-.08.139-.131.202-.206.185-.22.364-.444.55-.663.158-.184.322-.361.473-.55.108-.136.202-.282.34-.39.04-.032.033-.1.098-.113.017-.004.005-.03-.007-.04-.045-.032-.015-.06.003-.089.082.118.151.243.214.37-.125.186-.27.356-.417.524-.189.215-.372.435-.55.658-.16.2-.333.387-.495.584-.069.084-.127.18-.232.228l-.18-.313z" fill="#f1bdd8"/><path d="M17.269 18.432c-.089-.117-.212-.196-.322-.288-.211-.175-.423-.35-.63-.53-.142-.126-.294-.24-.44-.362-.201-.17-.396-.347-.602-.512-.173-.139-.341-.284-.512-.425-.123-.102-.266-.182-.365-.312-.01-.012-.013-.03-.019-.044h.605c.177.172.371.324.557.486.261.228.547.427.802.66.26.24.537.46.804.69.164.141.33.281.503.413.078.06.16.127.204.224h-.585z" fill="#f0b7d4"/><path d="M18.987 19.176a1.958 1.958 0 0 1-.324.408c-.084.088-.13.209-.248.269-.031.016-.016.095-.058.116-.17.084-.193.287-.327.398-.136.113-.225.272-.359.387a.19.19 0 0 0-.067.101c-.007.027-.018.062-.04.062-.1 0-.1.08-.123.142a.243.243 0 0 1-.061.087c-.146.139-.265.302-.4.452-.07.078-.152.147-.196.246-.02.047-.089.003-.101.059l-.061-.076c.079-.14.156-.282.237-.422l.761-1.31c.06-.048.127-.09.14-.175.005-.03.031-.048.053-.068.105-.09.218-.17.28-.303.044-.091.14-.152.17-.257.008-.03.044-.046.072-.064a.543.543 0 0 0 .211-.234c.045-.1.143-.138.224-.194.027-.001.043.016.054.036.057.104.133.199.171.313a.036.036 0 0 1-.008.027z" fill="#fef6fa"/><path d="M21.642 20.895h-.196c-.076-.018-.102-.104-.179-.126-.14-.039-.192-.185-.303-.262-.107-.073-.189-.182-.32-.223-.016-.005-.03-.017-.032-.033-.008-.067-.065-.095-.106-.133a6.875 6.875 0 0 0-.517-.408c-.132-.097-.233-.22-.35-.329a.27.27 0 0 0-.08-.054c-.13-.053-.202-.181-.315-.248-.153-.091-.23-.263-.396-.335-.079-.034-.111-.134-.199-.163-.048-.028-.069-.076-.087-.125-.013-.03-.043-.016-.064-.024-.07-.056-.142-.123-.215-.162-.16-.086-.224-.282-.408-.331a.045.045 0 0 1-.023-.018c-.09-.13-.233-.2-.345-.305-.069-.064-.14-.141-.238-.175a.103.103 0 0 1-.058-.05.457.457 0 0 0-.16-.168c-.115-.078-.201-.194-.334-.246-.013-.005-.026-.01-.033-.021-.074-.117-.194-.185-.292-.276-.154-.144-.325-.267-.48-.41a.166.166 0 0 0-.078-.037c-.02-.005-.047-.008-.051-.025-.024-.115-.157-.144-.193-.249h.253c.057.089.145.147.222.215.133.118.269.234.411.342.37.28.698.61 1.066.891.117.09.22.202.351.275.066.036.105.104.16.154.169.148.341.289.519.425.147.114.281.248.421.373.144.128.287.254.451.356.073.045.124.113.187.17.184.164.367.33.566.476.13.095.25.202.375.302.159.127.305.271.46.403.176.15.35.3.532.44.036.029.085.054.078.114z" fill="#f3c4dc"/><path d="M17.854 18.432c-.185-.198-.404-.359-.611-.531-.151-.126-.304-.251-.454-.378-.149-.125-.304-.245-.444-.383a2.496 2.496 0 0 0-.305-.25c-.159-.114-.301-.251-.451-.378-.06-.05-.116-.103-.18-.147-.146-.102-.26-.241-.405-.344-.02-.015-.02-.039-.02-.062h.254c.162.165.352.294.538.428.005.004.013.006.016.01.102.127.23.226.359.32.093.068.175.15.257.227.15.142.33.24.477.39.13.134.265.277.436.369.049.027.09.065.13.102.196.187.41.353.62.524.032.026.07.05.056.103h-.273z" fill="#f2bed8"/><path d="M15.59 15.959c.064.072.174.1.196.21.003.013.01.03.018.033.202.066.325.241.489.36.072.053.16.106.204.168.055.078.177.085.19.195 0 .01.015.021.025.025.173.061.278.218.43.309.034.02.055.064.075.1.022.04.044.07.094.072.015 0 .037.007.043.017.07.118.228.14.285.27.003.007.015.014.024.016.07.008.111.05.147.11.053.091.174.1.24.179.01.011.031.015.038.027.086.143.232.217.36.311.025.02.034.047.05.071h-.215a6.473 6.473 0 0 1-.424-.341c-.23-.202-.474-.386-.703-.588-.194-.172-.397-.334-.593-.505-.217-.19-.444-.369-.669-.55-.146-.12-.28-.251-.43-.366-.037-.027-.079-.064-.05-.123h.177z" fill="#f3c4dc"/><path d="M15.414 15.959c.008.055.043.092.084.126.264.218.527.438.79.657.228.19.457.379.684.57.304.256.608.512.91.77.134.117.292.205.401.35h-.156a.88.88 0 0 0-.32-.269c-.034-.017-.062-.035-.07-.073a.089.089 0 0 0-.04-.053c-.21-.144-.402-.313-.594-.477-.098-.084-.214-.154-.295-.268a.561.561 0 0 0-.253-.197.17.17 0 0 1-.094-.076.138.138 0 0 0-.09-.07.091.091 0 0 1-.073-.07c-.01-.04-.03-.063-.071-.07-.006 0-.014-.003-.017-.007-.094-.124-.26-.161-.344-.3-.049-.083-.144-.122-.22-.179-.125-.094-.25-.189-.372-.287-.02-.016-.024-.051-.036-.077h.176z" fill="#f2bed8"/><path d="M18.562 18.456c.05.024.055.084.092.117.061.066.13.129.118.232a.172.172 0 0 1-.092.081.176.176 0 0 0-.103.098.574.574 0 0 1-.243.273c-.036.02-.075.047-.073.105.003.06-.064.076-.09.12-.096.159-.205.307-.368.405-.03.018-.02.052-.028.078a.187.187 0 0 1-.155.13l.586-1.025.356-.614z" fill="#fefdfd"/><path d="M22.832 20.875c-.007.034-.032.06-.044.014-.018-.067-.062-.095-.114-.121a.2.2 0 0 1-.083-.08c-.02-.033-.039-.076-.097-.05-.021.009-.05-.012-.045-.037.007-.04-.016-.051-.042-.066-.143-.084-.23-.238-.396-.298-.045-.016-.083-.09-.13-.134-.177-.167-.372-.312-.556-.47-.052-.045-.098-.103-.178-.107-.037-.001-.05-.04-.068-.065a1.27 1.27 0 0 0-.454-.384c-.023-.011-.03-.03-.04-.051a.142.142 0 0 0-.046-.06c-.196-.122-.334-.313-.522-.44-.113-.076-.186-.208-.334-.236-.044-.008-.03-.083-.072-.097-.107-.036-.164-.13-.239-.2-.138-.131-.29-.247-.435-.367-.112-.092-.209-.211-.35-.267-.047-.019-.038-.078-.085-.109-.225-.146-.416-.336-.623-.507-.206-.17-.41-.343-.613-.518a1.024 1.024 0 0 0-.205-.149c-.05-.025-.072-.062-.066-.117h.664c.09.068.181.135.26.218.096.1.216.175.323.264.205.168.411.336.611.512.119.105.245.2.368.3.119.097.238.193.347.3.166.16.358.29.53.445.164.149.339.288.51.43.211.176.419.355.63.53.178.148.372.277.533.44.132.132.297.223.419.364.204.337.402.677.588 1.024.017.03.036.06.055.09z" fill="#f8dae9"/><path d="M22.19 19.762a1.959 1.959 0 0 1-.353-.267 6.5 6.5 0 0 0-.472-.399c-.15-.115-.306-.231-.44-.36-.148-.141-.316-.258-.46-.404a3.034 3.034 0 0 0-.301-.264c-.32-.244-.616-.514-.926-.769-.117-.096-.22-.213-.362-.284-.047-.024-.09-.08-.133-.123-.168-.16-.36-.293-.533-.444-.116-.101-.254-.175-.351-.3-.056-.071-.155-.103-.2-.189h.664c.028.016.061.02.089.037.008.004.016.009.023.015.172.186.363.35.56.508.16.128.311.265.47.393.154.124.302.256.455.381.172.142.336.295.511.433.283.223.545.47.83.69.086.067.153.16.263.194.23.38.451.764.666 1.152z" fill="#fbe4ee"/><path d="M18.753 15.96h.547c.248.18.466.399.71.584.15.113.27.263.443.344.04.019.046.094.114.068.176.274.332.56.492.844l.078.141c.01.023-.005.03-.023.027a.203.203 0 0 1-.126-.066 1.458 1.458 0 0 0-.263-.215 1.732 1.732 0 0 1-.138-.108c-.405-.345-.805-.695-1.216-1.032-.198-.161-.408-.31-.576-.505-.02-.024-.05-.044-.042-.083Z" fill="#fdf1f6"/><path d="M18.753 15.96c.138.167.312.293.475.434.168.146.345.28.515.424.225.188.428.403.673.567.102.069.173.175.274.247.123.087.247.173.35.287.021.023.058.043.097.022.095.14.176.286.253.435-.032.048-.08.032-.098.003-.05-.086-.144-.101-.215-.152-.071-.05-.151-.105-.199-.167-.068-.088-.159-.138-.239-.202a4.249 4.249 0 0 1-.242-.209c-.142-.132-.301-.243-.446-.372-.152-.137-.303-.276-.465-.399-.129-.098-.251-.203-.375-.306-.198-.166-.401-.327-.589-.505-.031-.03-.072-.025-.101-.052h-.02c-.014-.039.045-.024.04-.055h.312z" fill="#fbebf3"/><path d="M20.567 16.956c-.018.03-.05.082-.07.024-.035-.093-.128-.097-.186-.152-.194-.185-.411-.342-.615-.515-.113-.097-.21-.22-.353-.281-.032-.014-.024-.051-.043-.073l.701-.001.566.998z" fill="#fefbfd"/><path d="M18.42 16.014a.196.196 0 0 1 .127.048c.148.113.277.249.43.357.094.066.18.149.267.228.115.106.246.192.358.3.155.151.337.27.49.424.066.066.168.098.227.168.078.095.178.164.27.24.082.07.15.171.272.188l.018.005c-.058.122.097.082.117.155.02.077.123.08.177.138.03.033.107.027.129.1.006.022.055.03.088.011l.135.234c-.1.032-.141-.057-.2-.102-.122-.094-.235-.202-.353-.303-.216-.183-.425-.375-.65-.547-.212-.163-.411-.342-.616-.513-.233-.196-.469-.39-.7-.587l-.4-.337a.695.695 0 0 1-.186-.207z" fill="#fbeaf3"/><path d="M21.642 20.895c-.077-.115-.205-.173-.304-.264-.193-.178-.403-.337-.598-.514a5.174 5.174 0 0 0-.346-.29 9.57 9.57 0 0 1-.62-.505c-.097-.088-.2-.17-.289-.27-.052-.06-.13-.095-.195-.142-.187-.139-.357-.298-.53-.454-.134-.12-.282-.227-.42-.344-.144-.122-.283-.25-.421-.378a3.055 3.055 0 0 0-.331-.255c-.108-.076-.206-.166-.307-.251-.208-.177-.413-.357-.623-.532-.214-.18-.434-.352-.648-.533-.046-.038-.078-.092-.138-.117-.036-.015-.027-.055-.028-.087h.488c-.011.07.053.088.09.113.19.127.346.293.523.434.401.32.792.653 1.185.983.257.215.51.435.767.65.205.173.419.336.619.515.228.203.465.396.696.596.185.16.366.325.567.466.09.063.169.14.253.212.257.216.513.434.771.65.09.074.184.142.273.217.026.021.072.046.061.08-.013.04-.063.019-.096.02-.133.002-.266 0-.4 0z" fill="#f4c9df"/><path d="M18.44 15.96c.063.072-.059.012-.039.054-.028-.015-.062-.022-.077-.055h.117z" fill="#fbeaf3"/><path d="M18.59 23.413c-.018-.018-.01-.03.007-.04.107-.055.22-.019.33-.028.13 0 .259-.003.388.001.08 0 .16-.003.24 0 .116-.002.234-.003.351 0 .195-.003.39-.004.584 0 .152-.005.304-.002.457-.002.038 0 .078-.002.11.028h1.033a.183.183 0 0 1 .196 0h.8l.488.001c.123 0 .247.002.37.001.031 0 .06.006.082-.034.084-.148.178-.29.263-.439.15-.262.289-.532.447-.789.126-.206.237-.42.37-.623.146-.224.257-.47.39-.704.12-.213.25-.42.374-.632.086-.148.165-.3.252-.447.219-.372.46-.732.65-1.118.075-.151.16-.13.269-.133h.088l-.74 1.293-2.092 3.627c-.043.023-.09.015-.134.015-1.815.001-3.63.001-5.444.003-.043 0-.091-.018-.13.02z" fill="#eba1c7"/><path d="M20.49 23.372h-.586c-.026-.04-.013-.083.01-.11.06-.073.087-.165.146-.239.096-.12.146-.266.227-.396.08-.13.17-.254.242-.388.094-.173.193-.344.272-.524.043-.095.123-.164.169-.259.06-.125.14-.24.22-.356.024-.035.048-.07.055-.113.008-.047.034-.076.082-.084a.05.05 0 0 1 .041.012h.508c.01.097-.039.174-.092.245-.095.126-.15.273-.235.403-.08.123-.13.261-.22.377-.05.064-.087.138-.12.211-.07.158-.184.29-.26.444-.113.227-.265.43-.377.658-.022.044-.042.088-.083.118z" fill="#fbe4ee"/><path d="M20.49 23.371c.052-.121.11-.238.184-.348.085-.129.157-.265.23-.402.066-.127.168-.238.225-.369.086-.196.205-.375.312-.557.107-.182.183-.384.324-.546.058-.066.075-.156.111-.234.146 0 .292-.002.439 0 .09.001.1.024.057.104-.037.069-.063.147-.097.212-.033.06-.092.12-.134.184-.053.083-.08.18-.13.26-.078.128-.165.25-.24.382-.023.043-.054.08-.052.133a.064.064 0 0 1-.014.043c-.152.155-.24.346-.318.543-.005.012-.007.03-.016.034-.16.097-.143.31-.278.422-.041.035.026.106-.036.14h-.567z" fill="#f8dae9"/><path d="M18.772 18.805c-.024-.085-.086-.15-.118-.232l.004-.02c.029.047.102.031.121.094.013.041.052.07.089.085a.425.425 0 0 1 .193.157c.08.112.225.153.303.267.088.128.255.146.352.274.05.066.105.152.183.192.14.073.236.203.374.276a.49.49 0 0 1 .16.143c.034.045.093.043.13.094.024.034.07.053.068.108 0 .008.016.023.026.023.077.004.112.074.164.103.076.042.121.111.192.149a.148.148 0 0 1 .07.064c.052.115.167.143.26.202.02.011.09.014.04.071l.064.04h-.078a.539.539 0 0 1-.247.022c-.116-.097-.248-.175-.354-.286-.074-.077-.162-.14-.246-.206-.31-.247-.608-.506-.906-.766-.19-.166-.391-.32-.585-.483a.069.069 0 0 0-.044-.018c-.075-.116-.13-.244-.215-.353z" fill="#f3c4dc"/><path d="M21.095 20.895h.273v.02h-.04c-.125.045-.256.027-.386.03-.08-.003-.16.002-.239-.002-.13.003-.259.004-.389 0-.104-.008-.212.03-.312-.028-.016-.008-.02-.023-.02-.04.108-.025.218-.006.327-.01.112-.002.225-.002.338.002.11-.005.219-.001.328-.002.043 0 .083.006.12.03z" fill="#f4c9df"/><path d="M22.286 23.372h-.196c-.027-.05.042-.052.04-.063-.01-.081.122-.076.099-.18-.008-.031.05-.138.087-.173.064-.06.069-.143.126-.198.081-.079.105-.193.17-.284.085-.121.13-.272.245-.37.05-.044.014-.095.044-.132.089-.113.12-.265.246-.352a.06.06 0 0 0 .023-.041c.003-.145.116-.235.167-.352.063-.144.223-.235.218-.411.09-.071.093-.201.187-.269.016-.01.039-.024.04-.039a.733.733 0 0 1 .202-.391c.05-.056.03-.134.081-.192.133-.148.182-.35.313-.504a.704.704 0 0 0 .09-.172c.014-.034.013-.088.075-.082.006.001.018-.012.019-.02.014-.129.1-.226.155-.336.047-.094.144-.167.174-.263.045-.141.15-.067.225-.093-.062.063-.088.15-.136.22-.188.276-.329.579-.504.861-.207.333-.387.682-.586 1.02-.34.578-.682 1.155-1.012 1.738-.146.259-.303.512-.436.78-.049.1-.133.183-.156.298z" fill="#f3c4dc"/><path d="M21.095 20.895h-.449c-.192-.187-.418-.339-.608-.525-.195-.192-.432-.329-.624-.52-.005-.005-.012-.006-.018-.008l-.077-.099a4.5 4.5 0 0 0-.332-.567v-.018c.011-.024.02-.035.048-.01.1.086.207.163.3.255.055.054.12.096.178.143.22.177.425.373.645.552.2.163.408.32.602.49.091.08.18.161.281.228.025.016.036.052.054.079z" fill="#f1bcd7"/><path d="M19.396 19.842c.09-.03.117.065.159.1.108.093.232.162.335.26.16.153.328.299.504.433.064.049.122.105.18.161.03.028.07.05.072.1h-.551c-.04 0-.078.001-.113-.02-.096-.164-.178-.336-.292-.49l-.02-.037a.21.21 0 0 1-.04-.078c-.073-.146-.172-.277-.234-.43Z" fill="#efb6d3"/><path d="M19.63 20.27c.026.02.037.047.04.079-.034-.016-.072-.03-.04-.078z" fill="#f8dae9"/><path d="m20.002 20.915.312.001a.451.451 0 0 1-.09.234c-.065.1-.145.187-.182.306a.33.33 0 0 1-.117.176c-.018.014-.034.034-.036.057-.008.11-.074.183-.152.251-.068.06-.064.152-.099.228-.017.038-.028.078-.057.11-.097.111-.152.25-.232.37-.09.134-.115.308-.26.413-.068.05-.099.142-.117.23-.006.032-.006.066-.043.08l-.332.001c.071-.174.179-.33.271-.492.234-.412.472-.821.708-1.231l.172-.305.254-.43z" fill="#fffefe"/><path d="M18.929 23.371c.036-.058.014-.129.052-.193a.846.846 0 0 1 .17-.216c.04-.035.076-.08.07-.143a.083.083 0 0 1 .021-.062c.136-.16.191-.373.342-.528.047-.048.072-.141.075-.223.003-.066.065-.081.1-.119.05-.055.108-.1.094-.189-.003-.017.015-.044.03-.057a.52.52 0 0 0 .171-.302c.008-.04.046-.061.071-.091.083-.1.123-.223.189-.332h.39c.03.037.006.066-.013.096-.207.308-.36.647-.553.962-.121.196-.239.394-.355.593-.12.204-.224.417-.355.615-.04.06-.04.146-.11.19h-.39z" fill="#fef6f9"/><path d="M20.939 20.915h.39c-.03.021-.054.04-.063.086-.02.1-.102.17-.15.258-.06.11-.115.23-.19.323-.087.108-.125.235-.195.347-.095.152-.163.32-.267.466-.135.189-.24.395-.352.598-.07.126-.172.234-.208.379h-.351c-.028-.047.006-.082.024-.117.101-.192.23-.369.324-.564.114-.234.26-.448.388-.674.128-.225.25-.455.39-.673.072-.112.128-.232.192-.349.017-.031.033-.063.068-.08z" fill="#fbecf3"/><path d="M20.939 20.915c-.151.32-.354.61-.516.922-.147.282-.334.54-.472.827-.106.22-.246.424-.37.636-.013.022-.019.047-.028.072h-.234c.084-.235.239-.43.353-.65.089-.17.202-.33.286-.503.057-.117.137-.217.201-.33.145-.254.278-.516.428-.768.04-.068.11-.119.118-.205h.234z" fill="#fef2f7"/></g></g><defs><clipPath id="a"><path fill="#fff" d="M0 0h40v40H0z"/></clipPath><clipPath id="b"><path fill="#fff" transform="translate(10 11)" d="M0 0h20v17.349H0z"/></clipPath></defs></svg>