<svg width="40" height="40" fill="none" xmlns="http://www.w3.org/2000/svg"><g clip-path="url(#a)" transform="matrix(1.4 0 0 1.4 -8 -7.841)"><path fill-rule="evenodd" clip-rule="evenodd" d="M16.628 11.78c-.315 0-1.635.803-1.95 1.004-.288.172-.603.43-.862.631-.23.172-.373.345-.574.545l-.717.746c-.172.173-.344.46-.488.632-.115.143-.23.287-.315.459-1.349 2.18-1.865 4.447-1.693 7.173.114 1.521.487 2.784 1.061 4.161.058.172.172.373.23.517.086-.03.23-.173.316-.23a.597.597 0 0 0 .172-.115l.344-.23c.344-.258.803-.545 1.148-.831l.66-.46-.316-.803a9.047 9.047 0 0 1-.545-2.783c-.115-2.066.402-4.075 1.607-5.625l.803-.889.144-.144c.057-.057.086-.057.143-.114.373-.373 1.234-.89 1.693-1.12.287-.114.545-.2.832-.315l.43-.115c.23-.057.431-.115.66-.143.259-.029.488-.058.747-.086.545-.058 1.004 0 1.578.028l.545.115c.46.144.603.115 1.205.344.172.087.373.173.545.259.574.287.919.545 1.378.975.23.201.574.603.746.832a6.78 6.78 0 0 1 1.004 2.153c.23.86.344 1.98.201 2.869l-.057.46a5.107 5.107 0 0 1-.833 2.036l-.401.546c-.115.114-.258.287-.43.43-.402.316-.66.517-1.177.775-1.722.803-3.989.574-5.452-.632-.057-.028-.057-.028-.086-.057-.057-.029-.086-.057-.115-.086-.258-.287-.2-.2-.488-.574-.86-1.09-1.176-2.898-.63-4.476.257-.717.688-1.291 1.147-1.664.574-.43 1.176-.718 2.123-.69.46 0 1.148.144 1.492.489.029.057.086.086.144.143.172.172.287.488.315.804.058.401-.028.63-.172.918-.2.287-.344.43-.688.602-.402.201-.919.23-1.406.115-.115-.029-.115 0-.201.058-.287.172-.66.487-.947.66a1.215 1.215 0 0 0-.201.143l.258.316.058.057.373.46c.23.2.574.602.774.774l.919.86a.893.893 0 0 1 .258.202c.115.086.89.688 1.004.746.115-.086.23-.144.316-.23l.344-.23c.115-.086.23-.143.344-.229.058-.057.115-.086.173-.115.057-.057.114-.086.143-.143l-.545-.43a4.196 4.196 0 0 1-.545-.46.396.396 0 0 0-.115-.086l-.918-.832.057-.029.057-.028c.43-.03.861-.201 1.206-.43.086-.058.315-.23.344-.288.115-.057.43-.43.545-.631.144-.23.258-.488.345-.804.086-.373.114-.717.086-1.09 0-.2-.115-.832-.201-.947-.086-.315-.316-.66-.517-.89l-.401-.43c-.345-.2-.345-.258-.747-.459a3.79 3.79 0 0 0-.86-.287 4.307 4.307 0 0 0-1.062-.115c-.258-.028-.832 0-1.062.058-.459.057-1.119.315-1.492.488-.459.23-.832.516-1.176.803l-.115.115c-.631.545-1.148 1.435-1.435 2.21-.89 2.381-.258 5.164 1.234 6.8l.46.488c.056.057.085.057.143.114.2.201.746.574 1.004.718.86.488 1.836.803 2.984.918 1.693.144 3.386-.2 4.792-1.033.23-.143.373-.23.574-.402.115-.057.46-.344.545-.43.172-.086.775-.775.918-.976.345-.459.46-.66.746-1.176.058-.144.173-.316.201-.46.086-.085.316-.86.373-1.06.373-1.235.373-2.64.201-3.903a9.276 9.276 0 0 0-1.664-4.161l-.488-.574c-.057-.057-.086-.115-.172-.2a17.65 17.65 0 0 0-.746-.69c-.115-.114-.258-.2-.402-.315a3.73 3.73 0 0 0-.43-.287c-1.005-.603-1.923-1.004-3.128-1.263-.631-.114-2.009-.287-2.64-.2h-.344a12.8 12.8 0 0 0-1.464.2c-.23.03-1.119.259-1.262.345-.086 0-.488.143-.517.2z" fill="url(#b)" style="fill:url(#b)"/></g><defs><linearGradient id="b" x1="11.358" y1="27.001" x2="27.745" y2="13.987" gradientUnits="userSpaceOnUse"><stop stop-color="#FF0083"/><stop offset=".722" stop-color="#FF2763"/><stop offset="1" stop-color="#FF4E42"/></linearGradient><clipPath id="a"><path fill="#fff" transform="translate(10 11)" d="M0 0h20v17.198H0z"/></clipPath></defs></svg>