<svg width="40" height="40" fill="none" xmlns="http://www.w3.org/2000/svg"><mask id="a" mask-type="alpha" maskUnits="userSpaceOnUse" x="11" y="10" width="18" height="20"><path fill="#fff" d="M11.748 10h16.503v20H11.748z"/></mask><g mask="url(#a)" transform="matrix(1.4 0 0 1.4 -8 -8.003)"><path fill-rule="evenodd" clip-rule="evenodd" d="M20.087 24.082c-.177.11-.355.224-.527.34-2.036-1.131-6.4-3.308-6.782-3.491-.38-.183-1.111-.495-1.02-1.164.124-.945 1.762-3.011 2.458-3.86 3.782-4.606 5.455-6.03 6.575-5.88 1.193.156 1.857 1.387 1.935 7.162a43.068 43.068 0 0 0-2.185-.61 39.357 39.357 0 0 0-.291-2.543c-.067-.495-.163-.681-.36-.707-.199-.027-.778.497-1.275 1.006-.227.233-.873.873-1.574 1.592-.582-.038-.984.084-1.202.372a1.07 1.07 0 0 0-.107.949c-.384.38-.713.71-.92.919-.785.783-1.615 1.431-1.658 1.746-.035.259.363.53.928.873 1.396.806 4.8 2.647 6.005 3.296zm5.287-5.767c-1.33-.462-4.615-1.684-8.083-2.141-1.19-.157-1.67.268-1.164 1.402.507 1.135 1.746 3.003 3.052 4.411 1.307 1.408 2.741 1.787 3.2-.384a14.867 14.867 0 0 0 .28-1.804 76.922 76.922 0 0 0-1.891-.823c.038.5.096 1.359.125 2.019v.247c.038 1.071-.326 1.068-.937.632-.71-.51-2.883-3.381-3.133-4.655 0-.085.026-.088.07-.073l.055.02c.491.195 2.127.84 3.782 1.54.663.29 1.327.567 1.926.837.6.27 1.114.515 1.507.725.716.384.995.646.696.951-1.496 1.519-6.713 3.675-8.514 6.343l-.008.046c-.02.03-.038.061-.058.093a.318.318 0 0 1-.015.032 2.328 2.328 0 0 0-.262.792c-.076.582.227 1.114 1.065 1.341.232.068.47.112.71.134h.148c1.606.079 5.781-.835 7.053-1.4 1.272-.564.922-1.163.541-1.454-.29-.23-1.745-1.045-2.455-1.435l-.527.338c.674.396 1.323.831 1.946 1.303.108.085.05.184-.113.195h-.128c-1.146.079-3.317.23-4.335.291l-.41.02c.216-.194.444-.375.683-.54 2.18-1.531 5.82-3.687 6.881-4.612.789-.684 2.95-2.773-1.687-4.39z" fill="#fcaf17"/></g></svg>