<svg width="40" height="40" fill="none" xmlns="http://www.w3.org/2000/svg"><g clip-path="url(#a)" transform="matrix(1.4 0 0 1.4 -7.953 -8.078)"><path fill-rule="evenodd" clip-rule="evenodd" d="m11.05 15.933 3.817 13.213h.501l-3.873-13.343z" fill="#000"/><path clip-rule="evenodd" d="m11.495 15.803-.444.13 3.816 13.213h.501z" stroke="#000" stroke-width=".472"/><path fill-rule="evenodd" clip-rule="evenodd" d="M17.244 21.263c.195 2.3 2.195 4.025 4.443 3.816 2.241-.148 3.88-2.164 3.628-4.443-.191-2.337-2.191-4.064-4.441-3.878-2.24.172-3.88 2.187-3.63 4.505zm-5.318-5.318c.13-.238 3.401-1.033 3.379-1 2.484-.458 1.846.576 1.877.562-.457.956 1.398.53 1.375.5 4.727-.923 9.284.101 9.26.124-.966 6.08 2.07 10.053 2.065 10.073-3.791-.454-4.836-.078-4.818-.062-3.304 1.081-5.813-.074-5.819-.063-1.649-1.462-4.517-.354-4.505-.375.177-5.606-2.938-9.575-2.814-9.759z" fill="#ed1721"/><path fill-rule="evenodd" clip-rule="evenodd" d="M18.37 21.138c-.181-2.16.938-4.033 2.503-4.129 1.618-.157 3.079 1.51 3.315 3.691.184 2.184-.936 4.057-2.502 4.191-1.617.118-3.077-1.548-3.316-3.753z" fill="#093b82"/><mask id="b" mask-type="alpha" maskUnits="userSpaceOnUse" x="9" y="11" width="3" height="4"><path fill-rule="evenodd" clip-rule="evenodd" d="M9.882 11.009h2.06v3.728h-2.06z" fill="#fff"/></mask><g mask="url(#b)"><path fill-rule="evenodd" clip-rule="evenodd" d="m10.112 11.69.876 2.503.562-.126zm1.83 2.569-2.058.478-.002-3.729z" fill="#000"/></g><path fill-rule="evenodd" clip-rule="evenodd" d="M10.8 15.193c-.003.286.205.54.438.563.282-.024.49-.278.5-.563-.01-.338-.218-.59-.5-.562-.233-.028-.442.224-.437.562zm-.576-.066a.944.944 0 0 1 .887-.885.952.952 0 0 1 .885.885.946.946 0 0 1-.885.884.94.94 0 0 1-.887-.884z" fill="#000"/><path fill-rule="evenodd" clip-rule="evenodd" d="M10.612 15.382c-.02-.333.166-.583.375-.562.25-.021.436.229.437.562 0 .286-.188.536-.437.563-.209-.027-.395-.278-.375-.563z" fill="#000"/><path fill-rule="evenodd" clip-rule="evenodd" d="M10.675 14.756c.03-.172.18-.332.375-.313.17-.02.319.14.312.313.006.224-.142.385-.312.375-.195.01-.344-.15-.375-.375z" fill="#000"/></g><defs><clipPath id="a"><path fill="#fff" d="M0 0h40v40H0z"/></clipPath></defs></svg>