<svg width="40" height="40" fill="none" xmlns="http://www.w3.org/2000/svg"><path fill-rule="evenodd" clip-rule="evenodd" d="M24.193 11.953a4.2 4.2 0 0 0-8.393.247v.735c-4.784 1.84-7 6.852-7 11.865h22.4l-.003-.337c-.098-4.9-2.32-9.73-6.997-11.528V12.2Zm-2.793.32V12.2a1.4 1.4 0 0 0-2.79-.163l-.01.163v.073c.45-.048.917-.073 1.4-.073.483 0 .95.025 1.4.073zm-9.442 9.323C12.918 17.586 15.765 15 20 15l.341.006c4.17.14 6.93 2.844 7.78 6.948l.009.046H11.869ZM7.4 26.9a.7.7 0 0 1 .7-.7h23.8a.7.7 0 0 1 .7.7v1.4a.7.7 0 0 1-.7.7H8.1a.7.7 0 0 1-.7-.7Z" fill="#fff" style="stroke-width:1.4"/></svg>