<svg width="40" height="40" fill="none" xmlns="http://www.w3.org/2000/svg"><path d="M31.333 20.933H18.427c-.587 0-.854.267-.854.747 0 1.173.64 2.293 1.92 3.36 1.28 1.067 2.667 1.6 4.16 1.6.854 0 1.867-.16 2.934-.48 1.066-.32 1.973-.747 2.666-1.227.64-.426 1.12-.64 1.494-.64.48 0 .96.267 1.386.854.48.586.694 1.173.694 1.813 0 1.333-.8 2.56-2.454 3.787C27.493 32.933 24.133 34 20.347 34c-3.84 0-7.04-1.12-9.654-3.36A13.196 13.196 0 0 1 7.6 26.693C6.533 24.613 6 22.48 6 20.187c0-3.04.907-5.814 2.773-8.267 1.6-2.133 3.627-3.68 6.134-4.747C16.773 6.373 18.8 6 20.933 6c3.467 0 6.4.96 8.854 2.933 1.226.96 2.186 2.134 2.933 3.52.853 1.547 1.28 3.04 1.28 4.48 0 1.174-.267 2.134-.747 2.934-.533.693-1.173 1.066-1.92 1.066zm-12.16-5.12h2.774c1.173 0 1.76-.533 1.76-1.6 0-.96-.267-1.813-.854-2.4-.586-.64-1.28-.906-2.24-.906-1.013 0-1.813.426-2.4 1.226-.533.747-.8 1.494-.8 2.294 0 .533.107.906.374 1.173.266.107.693.213 1.386.213z" fill="#f60" style="stroke-width:1.4"/></svg>