<svg width="40" height="40" fill="none" xmlns="http://www.w3.org/2000/svg"><g clip-path="url(#a)" transform="matrix(1.4 0 0 1.4 -8.002 -7.819)"><path d="M10.013 21.095h19.984V18H10.013Z" fill="#ee3447"/><path d="M11.685 19.69h.18c.041 0 .094 0 .133.02a.131.131 0 0 1 .071.117c0 .041-.022.08-.055.104-.036.03-.086.028-.131.028h-.198zm1.903-.45.12.433h-.243zm-1.903-.12h.177c.087 0 .179.016.179.126a.135.135 0 0 1-.043.098c-.033.03-.085.028-.129.028h-.184zm13.701-.32v1.492h.344v-1.066l.284 1.066h.292l.271-1.066.004 1.066h.426v-1.491h-.602l-.204.79-.217-.79zm-1.68 0v1.492h1.12v-.357h-.672v-.241h.542v-.332h-.542v-.218h.671v-.343zm-1.555 0v.36h.312v1.132h.435V19.16h.306v-.358zm-3.421 0 .502.861v.631h.443v-.63l.467-.861h-.4l-.25.49-.26-.49zm-3.907 0v1.492h1.119v-.357h-.671v-.241h.542v-.332h-.542v-.218h.67v-.343zm-1.433 0-.463 1.492h.371L13.39 20h.397l.085.293h.467l-.467-1.491zm-2.125 0v1.492h.683c.134 0 .295-.002.41-.085.106-.076.152-.219.152-.348a.334.334 0 0 0-.289-.339.333.333 0 0 0 .252-.328.392.392 0 0 0-.158-.316c-.094-.067-.209-.075-.321-.075zm16.893-.021a.755.755 0 0 0-.428.113.465.465 0 0 0-.191.374c0 .354.332.43.612.485.068.012.183.03.183.122 0 .082-.117.09-.176.09-.132 0-.233-.047-.271-.18l-.424.077.008.03.009.028.01.028.012.026.013.026.013.024.015.023.015.023.016.02.017.02.018.02.019.018.02.017.02.016.022.015.022.015.023.013.022.012.024.012.025.01.024.01.027.008.025.008.027.007.027.006.027.005.027.005.028.003.03.003.029.001.028.002h.03c.308 0 .664-.143.664-.502a.417.417 0 0 0-.22-.381c-.132-.068-.282-.091-.423-.12-.057-.012-.165-.028-.165-.106s.087-.096.148-.096c.115 0 .197.039.241.15l.377-.115c-.09-.259-.34-.365-.599-.365zm-7.059 0a.753.753 0 0 0-.428.113.465.465 0 0 0-.19.374c0 .354.332.43.612.485.067.012.182.03.182.122 0 .082-.117.09-.176.09-.132 0-.232-.047-.27-.18l-.425.077.009.03.009.028.01.028.012.026.012.026.013.024.015.023.015.023.017.02.016.02.019.02.019.018.02.017.02.016.021.015.022.015.022.013.024.012.023.012.025.01.025.01.025.008.027.008.026.007.027.006.028.005.027.005.028.003.03.003.027.001.03.002h.03c.307 0 .663-.143.663-.502a.417.417 0 0 0-.221-.381c-.13-.068-.28-.091-.422-.12-.056-.012-.165-.028-.165-.106s.087-.096.148-.096c.115 0 .197.039.24.15l.379-.115c-.091-.259-.341-.365-.6-.365zm-3.322 0a.754.754 0 0 0-.429.113.464.464 0 0 0-.19.374c0 .354.332.43.612.485.068.012.183.03.183.122 0 .082-.117.09-.176.09-.133 0-.233-.047-.272-.18l-.424.077.008.03.01.028.01.028.012.026.012.026.013.024.015.023.015.023.017.02.017.02.018.02.019.018.02.017.02.016.021.015.022.015.022.013.024.012.024.012.024.01.025.01.026.008.026.008.026.007.027.006.028.005.027.005.028.003.03.003.027.001.03.002h.028c.31 0 .666-.143.666-.502a.416.416 0 0 0-.222-.381c-.13-.068-.28-.091-.422-.12-.056-.012-.164-.028-.164-.106s.086-.096.147-.096c.115 0 .198.039.241.15l.378-.115c-.091-.259-.34-.365-.599-.365z" fill="#fefefe"/></g><defs><clipPath id="a"><path fill="#fff" transform="translate(10 18)" d="M0 0h20v3.093H0z"/></clipPath></defs></svg>