<svg width="40" height="40" fill="none" xmlns="http://www.w3.org/2000/svg"><g clip-path="url(#a)" transform="matrix(1.4 0 0 1.4 -8 -7.978)"><mask id="b" mask-type="alpha" maskUnits="userSpaceOnUse" x="10" y="17" width="21" height="6"><path fill="#fff" d="M10 17.726h20v4.549H10z"/></mask><g mask="url(#b)"><path fill-rule="evenodd" clip-rule="evenodd" d="M26.061 18.495a1.962 1.962 0 0 0-.607 1.453c0 1.145.923 2.048 2.064 2.048a2.041 2.041 0 0 0 2.064-2.048 2 2 0 0 0-.603-1.449 1.98 1.98 0 0 0-1.461-.607 1.99 1.99 0 0 0-1.457.603zm-2.388 1.584h1.391v-.623h-1.391v-.87h1.514v-.628H23.02v3.976h2.171v-.628h-1.518zm-8.91-2.121h-.652v3.976h.653zm-3.504 3.976c.73 0 1.293-.164 1.67-.505.431-.385.649-.878.649-1.48 0-.629-.222-1.134-.665-1.511-.373-.32-.927-.48-1.646-.48h-.849v3.976zm6.439-.87.365.87h.723l-1.695-3.989h-.329l-1.74 3.99h.719l.381-.887a.642.642 0 0 0 .017-.057c.016.008.04.016.07.028a2.104 2.104 0 0 0 1.35.029.57.57 0 0 0 .119-.05c.004.017.016.054.02.066zm4.206-1.892.497-.426c-.427-.57-.997-.854-1.67-.854a2.05 2.05 0 1 0-.029 4.104c.283 0 .554-.062.817-.18.254-.116.475-.276.656-.485.172-.193.283-.415.349-.657.053-.2.086-.447.07-.742l-.008-.12h-1.79v.628h1.1c-.029.247-.156.46-.378.636a1.268 1.268 0 0 1-.824.292c-.357 0-.677-.148-.973-.44a1.34 1.34 0 0 1-.402-.972c0-.398.14-.743.427-1.03a1.32 1.32 0 0 1 .976-.406c.485 0 .866.222 1.182.652zm6.611-.238c.28.271.415.612.415 1.01 0 .394-.14.73-.415 1.01a1.36 1.36 0 0 1-.997.414 1.416 1.416 0 0 1-1.407-1.424c0-.394.139-.735.414-1.014.27-.275.607-.41.993-.41s.718.14.997.414zm-17.235-.348c.558 0 .952.115 1.198.332.296.259.443.6.443 1.026 0 .406-.143.743-.426 1.006-.247.233-.649.356-1.215.356h-.18v-2.72zm5.092 1.85c.013-.024.033-.065.041-.086l.501-1.215.493 1.227c.008.021.024.054.037.083l-.062.012a1.772 1.772 0 0 1-.92 0c-.028-.008-.069-.02-.09-.02z" fill="#fff"/></g></g><defs><clipPath id="a"><path fill="#fff" d="M0 0h40v40H0z"/></clipPath></defs></svg>