<svg width="40" height="40" fill="none" xmlns="http://www.w3.org/2000/svg"><mask id="a" mask-type="alpha" maskUnits="userSpaceOnUse" x="10" y="9" width="20" height="22"><path fill="#fff" d="M10 9.944h20v20.111H10z"/></mask><g mask="url(#a)" transform="matrix(1.4 0 0 1.4 -8 -8)" fill-rule="evenodd" clip-rule="evenodd"><path d="M16.135 13.308s.149-2.144.446-2.809c0 0 1.33 1.11 2.07 1.812 0 0 .777-1.738 1.367-2.366 0 0 1.295 1.737 1.33 2.44 0 0 1.517-1.627 2.147-1.885 0 0 .367 1.959.443 2.735 0 0 1.367-.665 2.589-1.034 0 0-.186 1.959-.592 2.809 0 0 1.81-.148 2.81-.036 0 0-.594 1.552-1.48 2.365 0 0 2.07.369 2.734.96 0 0-1.48 1.222-2.254 1.738 0 0 1.146.592 2.217 1.701 0 0-.996.628-2.585.887 0 0 1.144 1.7 1.368 2.44 0 0-1.664.147-2.81-.148 0 0 .517 1.663.554 2.81 0 0-1.996-.63-2.627-1.074 0 0-.073 1.998-.367 2.81 0 0-1.405-1.146-2.146-1.811 0 0-.776 1.885-1.294 2.404 0 0-.886-1.147-1.405-2.404 0 0-1.735 1.663-2.106 1.812 0 0-.48-2.034-.408-2.773 0 0-1.624.813-2.66 1.036 0 0 .147-1.443.516-2.737 0 0-2.107.26-2.771 0 0 0 .776-1.479 1.441-2.366 0 0-1.885-.48-2.625-.924 0 0 1.07-.924 2.145-1.7 0 0-1.59-1.256-2.182-1.774 0-.001 1.333-.628 2.662-.925 0 0-1.183-1.589-1.441-2.328 0 0 1.516-.148 2.81 0 0 0-.556-2.035-.556-2.699 0 0 1.847.444 2.66 1.035z" fill="#00a85a"/><path d="M16.135 13.308s-.11 1.516.112 2.274c0 0-.737-.351-2.217-.61 0 0 .481 1.516.943 2.126 0 0-1.092-.093-2.31.203 0 0 1.033 1.367 1.588 1.664 0 0-1.551.555-2.07 1.035 0 0 1.072.813 2.107 1.035 0 0-1.551.924-1.626 1.59 0 0 1.109.407 2.33.259 0 0-1 1.515-1 2.107 0 0 1.627-.186 2.292-.573 0 0-.295 1.349-.149 2.273 0 0 1.481-.703 1.906-1.257 0 0 .276 1.664.609 2.218 0 0 .962-.887 1.388-1.867 0 0 .794 1.535 1.31 1.867 0 0 .668-1.442.685-2.218 0 0 1.35 1.22 1.828 1.22 0 0 .076-1.7-.11-2.219 0 0 1.48.592 2.183.48 0 0-.37-1.515-.87-2.013 0 0 1.646.018 2.313-.278 0 0-1.185-1.517-1.648-1.646 0 0 1.869-.61 2.015-.943 0 0-1.368-1.108-1.976-1.09 0 0 1.163-1.053 1.497-1.608 0 0-1.22-.333-2.18-.295 0 0 .7-1.293.85-2.034 0 0-1.296.185-2.146.5 0 0 .186-1.683.148-2.275 0 0-1.479.592-1.941 1.276 0 0-.314-1.978-.648-2.127 0 0-1.07 1.148-1.33 1.775 0 0-.813-1.33-1.368-1.847 0 0-.665 1.662-.61 2.255 0 0-1.016-1.147-1.905-1.257z" fill="#a8cf46"/><path d="M18.042 14.566s-.149 1.348.036 2.125c0 0-.645-.832-1.831-1.11 0 0 .445 1.554.833 1.961 0 0-.945-.5-2.107-.444 0 0 .739 1.183 1.348 1.57 0 0-1.257-.036-2.07.297 0 0 1.203.98 1.775 1.035 0 0-1.573.648-1.738 1.035 0 0 1.665.444 2.255.24 0 0-1.294.74-1.551 1.609 0 0 1.607.019 2.179-.48 0 0-.85 1.016-.887 2.014 0 0 .962-.24 1.775-1.034 0 0-.204 1.59-.018 2.052 0 0 1.2-1.054 1.293-1.663 0 0 .258 1.589.704 2.013 0 0 .644-1.128.664-1.977 0 0 .757 1.368 1.33 1.627 0 0 .168-1.461-.036-2.126 0 0 .722.72 1.756 1.128 0 0-.258-1.35-.685-1.923 0 0 .87.407 1.997.389 0 0-.258-.777-1.35-1.59 0 0 1.129.055 2.014-.333 0 0-.923-.814-1.773-1.035 0 0 1.33-.388 1.812-.998 0 0-.831-.351-2.016-.315 0 0 1.054-.849 1.333-1.59 0 0-.908 0-2.035.388 0 0 .684-.979.74-1.922 0 0-1.018.333-1.773 1.017 0 0 .165-1.424-.02-2.015 0 0-1.054.96-1.275 1.497 0 0-.223-1.312-.703-1.848 0 0-.572.998-.684 1.866 0 0-.87-1.238-1.293-1.459z" fill="#fff212"/><path d="M20.038 17.892s.24-1.33.645-1.737c0 0 .243.905.056 1.866 0 0 .575-.96 1.24-1.386 0 0-.165.98-.648 1.719 0 0 .926-.647 1.646-.832 0 0-.517.98-1.184 1.405 0 0 1.331-.351 1.83-.26 0 0-.645.76-1.589.945 0 0 1.497.073 1.924.406 0 0-.89.295-1.85.314 0 0 1.404.573 1.608.98 0 0-.904.037-1.867-.278 0 0 1.11.999 1.22 1.479 0 0-1.051-.295-1.701-.962 0 0 .61 1.294.61 1.849 0 0-.887-.795-1.219-1.424 0 0 .184 1.424-.037 1.904 0 0-.555-.98-.703-1.756 0 0-.425 1.404-.72 1.719 0 0-.111-1.33.019-1.886 0 0-.833 1.166-1.257 1.424 0 0 .203-1.164.645-1.811 0 0-1.127.794-1.7.924 0 0 .148-.518 1.22-1.496 0 0-1.386.443-1.886.314 0 0 .315-.407 1.59-.96 0 0-1.719-.167-1.904-.352 0 0 .943-.37 1.942-.352 0 0-1.535-.683-1.646-.98 0 0 1.314-.053 1.904.334 0 0-1.257-1.294-1.275-1.572 0 0 1.332.537 1.719.961 0 0-.61-1.293-.61-1.774 0 0 .85.61 1.22 1.405 0 0-.11-1.442.074-1.923 0 0 .684 1.221.684 1.793z" fill="#fefefe"/></g></svg>