<svg width="40" height="40" fill="none" xmlns="http://www.w3.org/2000/svg"><path fill-rule="evenodd" clip-rule="evenodd" d="M30.722 14.875c.437.875 1.75 2.188 2.188 2.188.437 0 .437-1.313.437-2.188 0-.875 0-1.313-.437-1.313-.438.876-1.75 1.313-2.188 1.313zm.437-.438c.876 0 1.75-.874 1.75-1.75 0-.437 0-.874-.437-.874v.437c0 .438-.875 1.313-1.75 1.313-.438 0-.438 0-.438.437 0 0 .438.438.875.438zm-.437-1.312s-.438 0-.438-.438c0 0 0-.437-.438-.437h.876c.437 0 .875-.438 1.313-.438v.438c0 .438-.876.875-1.313.875zM7.528 21c.437 0 .437-2.188.875-2.188s.438.438.438.438c0 .438-.438 1.313-.438 1.75.438 0 .875-2.188 1.313-2.188v.438c0 .438-.438 1.75-.438 2.188.438 0 .876-.875.876-1.75l.437-.438v.438c0 .437-.437 1.75-.875 2.625s-.875 1.75-.875 2.187c0 .438 0 .875.437 1.313-.437-.438-.875-.438-.875-.875-1.313 2.187 1.75 2.187.875 3.937-.437-.438-1.75-.875-1.75-2.625s1.313-3.063 1.313-3.5v-.438c-.438-.437-.438-.437-.876-.437 0 0-.437.438 0 .875 0 .438-.437 1.313-.437 1.313-.438 0-.875-.875-.875-2.188 0-.875.437-2.188.875-2.188v.875zm15.754-10.063c.438 0 .438.438.438.876l.437-.438c.438 0 .876.438 1.75.438 1.314 0 2.189-.876 2.189-2.188 0-1.75-.875-2.625-2.188-2.625-.875 0-1.313.438-1.75.438L23.72 7v.875c-.438 0-1.313-.875-1.313-.438l.438.875c0 .438-.438.438-.438.438 0 .438.438.438.438.875l-.438.438c0 .437.438 0 .438.437 0 0-.438.875-.438 1.313.438 0 .875-.876.875-.876zM10.153 26.25s0-.438.438-.438c0 0 .438 0 .438.438 0 0 0 .438-.438.438 0 0-.438 0-.438-.438zm-.875.438c0 .437 0 .437.438.437h.437c0 .438.438.438.876.438.437 0 .437-.438.437-.875.438 0 .875-.438.438-.875 0-.438 0-.438-.438-.438h-.437c0-.438-.438-.438-.876-.438 0 0-.437.438-.437.875-.438 0-.876.438-.438.875zM32.035 7.875h.437v-.438c-.437 0-.437 0-.437.438zm-5.69 9.625s0 .438.438.438.438-.438.438-.438c0-.437 0-.437-.438-.437s-.438 0-.438.437zm0 1.313.438.437c.438 0 .438-.438.438-.438 0-.437 0-.437-.438-.437 0 0-.438 0-.438.438zm-1.312.875c0 .437 0 .437.437.437.438 0 .876 0 .876-.438 0-.437-.438-.875-.876-.875-.437 0-.437.438-.437.875zm.437-1.313h.438c0-.438 0-.438-.438-.438zm-1.75.438c0 .437.437.437.437.437.438 0 .438 0 .438-.438 0 0 0-.437-.438-.437zm1.313-2.188c0 .438.437.438.437.438.438 0 .876 0 .876-.438s-.438-.875-.876-.875c0 0-.437.438-.437.875zm.875-1.313s0 .438.438.438v-.875c-.438 0-.438.438-.438.438zm-2.188.876c0 .437.437.437.437.437.438 0 .438 0 .438-.438 0 0 0-.437-.438-.437zm0 1.312c0 .438.437.875.875.875 0 0 .438-.437.438-.875l-.438-.437c-.438 0-.875.437-.875.437zm-1.313.875c0 .438.438.438.875.438 0 0 .438 0 .438-.438s-.438-.875-.438-.875c-.437 0-.875.438-.875.875zm.438-1.313h.875c0-.437 0-.437-.438-.437-.437 0-.437 0-.437.438zM21.53 31.938c0 .438 0 .438.438.438 0 0 .438 0 .438-.438l-.438-.437c-.438 0-.438.437-.438.437zm-10.94-17.062v.438c.438 0 .438 0 .438-.438 0 0 0-.438-.438-.438zM9.716 14c0 .438.438.438.438.438.437 0 .437 0 .437-.438 0 0 0-.438-.437-.438zm.438 10.063c.437 0 .875 0 .875-.875v-.875c0-.438 0-.875.437-1.313v.438c0 .875.438 1.312.438 2.187 0 .438 0 .438-.438.438h-.437c0 .437.437.875.875.875 0 0 .438-.438.438-.875 0-.875-.876-1.75-.876-3.063 0-.437.438-.437.438-.875 0 2.188 1.75 3.5 1.75 4.375 0 .438 0 .438-.437.438 0 0-.438 0-.438-.438v.438c0 .437 0 .875.438.875.875 0 1.313-.438 1.313-.875 0-1.313-2.188-3.063-2.188-4.813v-.875c-1.313.875-1.75 1.75-1.75 3.063 0 .875 0 1.312-.438 1.312l-.438-.437v.437c0 .438.438.438.438.438zM28.096 14c.438 0 .875-.438.875-.438h-.875c-.438-.437-.875-.437-1.313-.437 0 .438.438.875 1.313.875zm-2.188-1.313s.875 0 1.313-.437h.437c.438 0 .438.437.438.437.438 0 .875-.437.875-.437.438 0 .876.875.876 1.75 0 .437-.876.437-1.75.437-1.314 0-2.189-.875-2.189-1.75zM10.591 28c-.437 0-.875.875-.875 1.75s.875 2.188 2.626 2.188c1.75 0 2.188-.875 2.188-1.75 0-1.313-1.313-2.625-2.188-2.625-.876 0-1.313.437-1.313 1.312s.437 1.75 1.75 1.75c.438 0 .876-.438.876-.875 0-.438-.438-.875-1.313-.875 0 .438 0 .438.437.438h.438v.437h-.438c-.875 0-1.313 0-1.313-.875 0-.438.438-.438.876-.438.875 0 1.313.875 1.313 1.313 0 .875-.438 1.313-.876 1.313-1.75 0-2.625-1.313-2.188-3.063zM9.278 17.063s-.437 0-.437.875c0 0 0 .437.437.437h.438c0-.437-.438-.875-.438-.875zm-2.188 0c0 .437 0 .875.438.875.437 0 .437 0 .875-.438h-.438c-.437 0-.875 0-.875-.437zm-.437.875c0 .875 0 1.312.437 1.312.438 0 .875-.438 1.313-.875h-.875c-.438 0-.438 0-.875-.438zm15.754 16.187h.875c0 .438-.875.438-1.75.438-.438 0-.876 0-.876-.438-.437.438-1.312.875-2.188.875-1.75 0-2.625-1.313-3.063-1.313-.438-.437-1.313 0-2.626-1.312.438.438.438.438.875.438.876 0 1.313-.438 1.313-1.313v-.438c.438 0 .876.875.876 1.75h.875c.437 0 .875 0 .875-.874 1.313 0 2.188-.875 2.188-1.75.438.437.875.437 1.313.875h1.751v-.438c.437 0 .437.438.437.875 0 0 .438 0 .438.438h-.438c-.437 0-.437 1.75-1.313 1.75-.437 0-.875-.876-1.313-1.313 0 0 0-.438-.437-.438l-.438.438c-.437.438-1.313.875-2.626.875h-.875c0 .438.438.438 1.313.438 1.75 0 2.188-.876 2.626-.876.437.876 1.313 1.313 2.188 1.313zM16.28 13.562c.875 0 1.313.438 1.313.876 0 .437-.438.874-.438.874v-.437c0-.438 0-.438-.437-.438v1.313h.437c0 .438-.437.875-.875.875-.875 0-1.313-.875-1.313-1.75-.437.438-1.313.875-2.188.875-.875 0-1.313-.438-1.313-.875 0-.438.438-.875.438-.875.438 0 0 .875.438.875.437 0 .437 0 .437-.438.438 0 .438-.437.438-.437 0-.438 0-.438-.438-.438h-.437c.437-.874.875-.874 1.312-.874.876 0 1.313.437 1.313 1.312v.438c.438-.438.876-.876 1.313-.876Zm-2.626-6.124c0-.438 0-.438-.437-.438-.875 0-.875.875-1.313.875-.438 0-.438-.875-.875-.875-.438 0-.875 0-.875.438 0 0 .437 0 .437.437l-.875.438h1.313c0 .437-.875.874-.875 1.312h.437s.438-.438.875-.438c.438 0 0 .876.438.876 0 0 0-.876.438-.876.437 0 .875.438.875.438V8.312c.437 0 .875.438.875.438v-.438l-.875-.437c0-.438.437-.438.437-.438zm14.88 20.125s-1.313 1.75-2.188 1.75c0 0-.438-.438-.438-.875 0 0 .438 0 .438-.438 1.75 0 1.312-1.313 3.063-1.313.875 0 1.75.438 1.75 1.75 0 1.313-2.188 3.063-2.188 3.063-.437 0-.437-.438-.437-.875.875-.438 1.75-1.313 1.75-1.75 0 0 0-.438-.437-.438 0 0-.876 1.75-1.75 1.75-.439 0-.876-.437-.876-.437 0-.438 1.313-1.313 1.313-1.75zm1.313-.438h-.438c0 .438 0 .875.438.875.437 0 .875 0 .875-.438 0-.437-.438-.437-.875-.437zM16.28 8.312s.438.438.875.438c.438 0 .438 0 .438-.438 0-.437-.438-.437-.438-.437-.437 0-.875.438-.875.438zm.875 2.188c0-.875-1.312-1.75-1.312-2.188v-.437s1.312-.438 1.312-.875h-.437c-.875 0-2.188.438-2.188.875 0 .438 1.313.875 1.313 1.313 0 .437 0 .437-.438.437s-.875-.438-1.313-.438h-.438c0 .876.876 1.75.876 1.75v.438c-.438 0-1.313-1.313-1.75-1.313v1.313c-.438 0-.438-.875-.876-.875 0 0 0 1.313-.438 1.313-.437 0 0-1.313-.437-1.313 0 0-.438.875-.875.875v-1.313c-.438 0-.876.438-1.313.438 0-.438.875-1.313.875-1.75 0 0-1.313 0-1.313-.438 0 0 .875-.437.875-.874C9.278 7 7.965 7 7.528 7c-.438 0-.875 0-.875.438 0 0 1.312 0 1.312.437 0 0-1.312.875-1.312 1.313H8.84c0 .437-1.75 2.187-1.75 2.624.437 0 1.75-.874 2.187-.874.438 0 .438 0 .438.437 0 0-.438.438-.438.875l.438.438c.438 0 .875-.876.875-.876.438 0 .438 2.188.875 2.188.438 0 .438-2.188.876-2.188l.437.438c.438 0 .438-.875.875-.875 0 0 1.313 1.313 1.75 1.313v-.438c0-.438-.437-1.75-.437-2.188.438 0 1.313.438 2.188.438zm14.442 11.813c0-.438.438-.875.438-1.75 0 0-1.313-.438-1.313-.875 0-.875.875-1.313 1.313-1.313v1.313c0 .437 0 .875.437.875 0 0 .438-.875.438-1.313 0-1.313-.875-1.313-1.313-1.313 0 0-.875.438-1.75.438-2.189 0-3.064-2.188-3.064-3.5.438 0 .438.438 1.313.438h.875c1.313 0 2.188.874 2.626 1.75.438.437 1.75.875 1.75 2.187 0 1.313-1.312 1.75-1.75 3.063.438 0 .875-.875 1.313-.875.437 0 .437 0 .437.437 0 .438-.437 1.313-.875 1.313 0-.438 0-.438-.437-.438-.438 0-.438.438-.876.875-.437-1.313-.437-2.188-1.313-2.625-.875-.438-2.188-.438-2.188-1.313 0-.437.438-.875.438-.875v-.437c.875.438.438.875.875 1.75.438.438 1.75.875 2.188 2.625v-.438c0-1.312-1.75-3.062-2.188-3.5 1.313 0 1.313.438 2.188 1.75 0 .438.438 1.313.438 1.75zM9.278 14v-.875c0-.438 0-1.313-.875-1.313-.438 0-.875.438-.875.876 0 .874.875 1.312 1.75 1.312zm-.875 2.188c-.438 0-.875 0-.875-.438s.437-.438.437-.438c0 .438.438.876.876.876zm1.313-.875c0 .437 0 .437-.438.437-.437 0-.437-.438-.437-.875h.437v.438zm-.438-.876h-.437s-.438 0-.876.438c-.875.438-.875 1.313-.875 1.75.438 0 .875.438.875.438.438 0 .876-.438.876-.438.875-.438 1.313-1.313 1.313-1.313 0-.437-.438-.437-.438-.437v-.438zm.876 1.75s-.438.438-.438.875c0 .875.438 1.313.875 1.313.438 0 .875-.438.875-.875 0-.875-.437-1.313-1.312-1.313zM7.965 14s0 .438-.437.438c-.438 0-.875-.438-.875-.876 0-.437 0-.874.437-.874 0 .874.438 1.312.875 1.312zm18.38 6.125c0-.438.438-.438.438-.438.438 0 .438 0 .438.438 0 0 0 .438-.438.438zm.438 11.813c0 .437 0 .875-.438.875 0 .437-.437.437-.875.437v-.875c.876 0 1.313-.438 1.313-.438zm0-.875v-.876s-.438-.437-.875-.437c-.876 0-1.313.438-1.313.438v.437c0 .438.437.438 1.313.438h.875zm.438 0s-.876.437-1.75.437h-.876s-.438 0-.438.438c0 0-.437.437-.437 1.312 0 .438.437.875.875.875 1.75 0 3.5-1.313 3.5-2.188 0-.875-.437-.875-.874-.875zm.437-8.75c0 .437 0 .437.438.437 0 0 .438 0 .438-.437V21l.437.438h.438v.437s.438 0 .438.438h-.876l-.437.437c0 .438 0 .438.437.438.876 0 1.313-.438 1.313-.438v.875l.438.438h-.875v.437s-.438-.875-1.313-.875c0 .438.437.875.437 1.313h.438c0 .437-.438 0-.438.437v.875l-.437-.875c-.438 0-.438.438-.438.438h-.438c0-.438.438-.875.438-1.313v-.875c-.438 0-.875.438-.875.875v.875c-.438 0-.438-.437-.438-.437l-.437.437h-.438c0-.437.438-.875.438-.875h-.438c0-.437 0-.437.438-.437.437 0 1.312-.438 1.312-.875 0-.438-.875-.875-.875-1.313h-.437v-.437h.437V21c.438 0 .438.438.438.438.437 0 .437-.438.437-.438h.438c0 .438-.438.875-.438 1.313zm-4.814-3.063c0 .875 1.313.438 1.313 1.75v.875c.438 0 .438 0 .438-.437V21c0-.437 0-.437.437-.437 0 0 .438.437 1.313.437-.437.438-1.75.438-1.75 1.313 0 .437.437.437.437.437.438 0 .438 0 .438-.437v-.438c.438 0 1.313.875 1.313 1.313 0 0-.875.437-1.313.437v-.437s0-.438-.438-.438c-.437 0-.437 0-.437.438 0 0 .437.437.437.875 0 0 0 .437-.437.437-.438 0-.875-.437-.875-.875l.437-.437v-.438c-.437 0-.437 1.313-2.188 1.313.438-.438.438-.438.438-.875v-.875l.437-.438c.438 0 .438.875.876.875l.437-.437c0-.875-1.75-.875-1.75-1.75 0-.438 0-.875.437-1.313zm1.75 6.563c0 .437.438.437.438.437s.438 0 .438-.438l-.438-.437v.438zm-.437-1.313c1.313.438 1.75 1.313 1.75 1.75 0 .875-.437 1.313-.874 1.313-.438 0-.876-.438-.876-.875 0-.438.438-.875.438-1.75zm-1.312 1.75v.875c0 .438.437.438.437.438.438 0 .438 0 .438-.438s-.438-.875-.875-.875zm3.5-.438v.876c0 .437 0 .875.438.875s.875-.438.875-.875c0-.438-.437-.875-1.313-.875zm-3.063-.437h.438c0 .438 0 .438-.438.438h-.438c-.437 0-.437 0-.875.437h.438c0 .875-1.75.438-1.75 1.75 0 .875.875 1.75 2.187 1.75.876 0 1.313-.438 1.313-.438 0-.437-.437 0-.437-.437v-.438s-.438.438-1.313.438c-.438 0-.875-.438-.875-.875 0-.438 0-.438.437-.438 0 0 .438.438 1.75.438.876 0 1.751 0 1.751-.438 0 1.313-.875 2.625-2.626 2.625-1.75 0-3.063-1.312-3.063-2.625 0-1.75 1.313-3.062 3.063-3.062.438 0 .876 0 .876.438 0 0-.438 0-.438.437zm-7.44-10.938h-.437l-.438.438.438.438s.438-.438.438-.876zm-1.75.438c.438 0 .438 0 .875-.438V14l-.437-.438c-.438 0-.438.876-.438 1.313zm1.75.875c.438 0 .438-.875.438-1.313V14s-.437.875-.437 1.75zm-2.625-.438c.437 0 .875-1.75.875-2.187-.437 0-.875 1.75-.875 2.188zm1.313.876c-.438 0-.438.437-.438 1.75-.438-.875-.875-1.75-1.75-1.75-.438 0-.438.437-.438.875v.437c0-.438.438-.438.438-.438.437 0 .875.438 1.312.875h-1.75s-.438.438-.438 1.313v.438c.438-.875 1.313-1.313 1.75-1.313h.438c-.437.438-.437.875-.437 1.313V21c0 .438.437.875.437.875v.438l.438.437c0 .438.438.438.438.438l.437-.438h-.437v-.875h-.438V21s-.438 0-.438-.438l.438-.875h-.438c0-.437.438-.875.438-1.312.875.438.875.875.875 1.313v.875c.438-.438.876-.875.876-1.313 0-.438 0-.875-1.313-.875.437-.438.875-.438 1.313-.438.437 0 .875.438.875.875.437-.437.437-.437.437-.875 0-.437-.437-.875-.875-.875-.875 0-1.313.438-1.75.875 0-.437.437-.875.875-.875 0-.437-.438-.875-.875-.875zM7.965 9.625c0 .438-.875.875-1.312.875 0-.438 0-.438.437-.875h.438zm24.07 14c.437 0 .875.438.875 1.313s-.438 1.75-1.313 2.625c0-1.75-1.75-.875-1.75-2.188 0-.438.437-.438.875-.438h.875c-.438 0-.438-.437-.438-.437 0-.438.438-.875.876-.875zm-7.878-10.5c0-.438-.437-.438-.437-.438-.438 0-.875.438-.875.875v-.437c0-.438.437-.875.875-.875h1.313c.437 0 .437.437.437.437 0 .438-.437.875-.875 1.313 0 0 0-.438-.438-.438zM22.845 14h.875s.437 0 .437.438h-.437c0 .437.437.437.437.437.438 0 1.313-.438 1.313-1.313V14c0 1.313-.875 1.75-1.313 1.75-.437 0-.875-.438-.875-.438-.437 0-.437.438-.437.438s-.438-.438-.438-.875c0-.438 0-.875.438-.875zm-7.44-3.063s1.313 2.188 1.75 2.188c0 0 .438-.438.438-.875l-.438-.438s-1.312-.874-1.75-.874zm14.879-.874c0-.876-1.75-.876-1.75-1.313 0 0 1.312-.438 1.75-.438-.875-.874-2.188-.874-2.188-.874S28.97 7 29.846 7c.438 0 1.313.438 1.313.875 0 0-.437.438-.437.875l.437.438c.438 0 .438-.438.438-.876v-.437c0-.438.437-.875.875-.875h.875c-.437.438-.437.438-.437.875 0 .438.437.438.437 1.75 0 1.313-1.75 2.188-3.5 2.188-.438 0-1.314-.438-1.751-.438 0 0 .875 0 .875-.875l-.438-.438h.438s.438.438.875.438c0 0 .438 0 .438-.438zm1.75-1.313c0 .875-.437 1.75-1.75 1.75 0 .438.438.438.438.438 1.313 0 1.75-.876 1.75-1.313 0-.438 0-.438-.437-.875zm-.875 8.313s-.437 0-.437-.875h-.438v.437c-.438 0-.875-.875-.875-.875v.438s0 .437-.438.437l-.437-.875h-.438c0 .438.438.438.438.438 0 .437-.876.437-.876.437h1.313c0 .438-.437.438-.437.875h.437s.438-.438.875-.438h.438l-.438.438s.438-.438.876-.438l.437.438zm-7.44-7.875s-.437 0-.437-.438h.438c.437 0 .437-.438.437-.438s0 .438.438.438h.437l-.437.438s.875 0 .875.437h-.875l.437.438h-.437c-.438 0-.438.437-.438.437v-.438l-.437-.437h-.438zm2.189 2.187c-.876 0-1.313-.438-1.313-.438V10.5c.437 0 .875.438.875.438h.438c0-.438-.438-.438-.438-.876h1.313s-.875-.437-.875-.874c0 0 .875 0 .875-.438H25.47c0-.438.438-.438.438-.875-.438 0-.876.438-.876.438s-.437 0-.437-.438c0 0 .437-.438 1.313-.438.875 0 1.313.875 1.313 2.188 0 1.313-.876 1.75-1.313 1.75zm-7.002 17.938h-.875c-.876 0-.438 1.312-1.75 1.312h-.876c0 .438.438.875 1.75.875.876 0 1.75-.438 1.75-1.313v-.437h.876v-.875s0-.438-.437-.438v.438c0-.438 0-.438-.438-.438v.438zm-3.063.437s-.438-.438-.438-.875c.438 0 .875.438.875.438s0 .437-.437.437zm-2.626-2.625c.875.438 1.313.875 1.313 1.313 0 .437 0 .875.437.875 0 .437.438.875.876.875.437 0 .875-.438.875-.438 0-.438-.438-1.313-1.313-1.313h-.438c-.437-.437-.437-.875-.437-1.312-.438-.875-.875-.875-1.313-.875-.438 0-.875.438-.875.438 0 .437 0 .437.875.437zm5.251-1.313c0-.437-1.313-.437-1.313-.875 0-.437.438-.437.438-.875 0 .438.438.875.875.875.875.438.875.875.875 1.313 0 .875-.437 2.188-2.188 2.188-1.312 0-2.188-1.313-2.188-2.188v-.438h.438c.438.438.875.875 1.75.875.876 0 1.313-.437 1.313-.875zm0 .875c-.438 0-.438 0-.438.438V28c.438 0 .876-.875.876-1.313v-.437Zm-3.5-5.25c0-.437 1.75-.874 1.75-1.75v-.437c.437 0 .875.875.875.875 0 .875-.875 1.313-.875 1.75 0 .438.875.438.875 1.313 0 .437-.875.875-.875 1.75 0 .437.437.875.875.875h-.438c-.875 0-2.188-.875-2.188-1.75 0-.438.438-.875.438-1.313.438.438.875.438.875.438h.438c0-.438-1.75-.875-1.75-1.75z" fill="#fff" style="stroke-width:1.4"/></svg>