<svg width="40" height="40" fill="none" xmlns="http://www.w3.org/2000/svg"><g clip-path="url(#a)" transform="matrix(1.4 0 0 1.4 -7.996 -7.999)"><mask id="b" mask-type="alpha" maskUnits="userSpaceOnUse" x="10" y="10" width="20" height="20"><path fill="#fff" d="M10.739 10h18.522v20H10.739z"/></mask><g mask="url(#b)" fill-rule="evenodd" clip-rule="evenodd"><path d="M16.49 14.437c1.09-.554 2.294-.907 3.522-.895 1.355-.03 2.764.179 3.934.901a5.34 5.34 0 0 1 1.375 1.212c.595.766.835 1.765.794 2.723a4.105 4.105 0 0 1-.935 2.423 5.035 5.035 0 0 1-2.086 1.502c-.921.355-1.914.476-2.896.493-.024.328-.033.658-.07.986a.796.796 0 0 1-.403.587 1.937 1.937 0 0 1-.878.241c-.246.009-.507-.121-.605-.355-.093-.223-.07-.47-.088-.706-.06-1.882-.11-3.765-.138-5.648a.68.68 0 0 1 .337-.655c.457-.261 1.017-.277 1.526-.196a.56.56 0 0 1 .464.468c.073.388.026.784.018 1.174-.027.937-.063 1.873-.1 2.808a4.96 4.96 0 0 0 1.847-.447c.684-.296 1.34-.736 1.73-1.386.336-.557.46-1.226.41-1.87-.094-.835-.644-1.56-1.337-2.008-.732-.473-1.615-.669-2.48-.67-.958.001-1.933.08-2.839.413-.801.287-1.498.796-2.14 1.345-.17.146-.325.309-.506.44a.706.706 0 0 1-.667.04c-.19-.088-.263-.315-.247-.51.031-.355.246-.66.478-.917.561-.613 1.226-1.138 1.98-1.493zM18.931 25.323c.5-.123 1.038.258 1.136.755a.8.8 0 0 1-.262.802c-.353.29-.893.282-1.269.039-.3-.199-.38-.615-.273-.941a.988.988 0 0 1 .668-.655z" fill="#fff"/><path d="M19.618 10.03c1.971-.159 3.979.317 5.69 1.304 1.4.796 2.552 2.034 3.206 3.51.71 1.578.864 3.363.618 5.064-.177 1.233-.555 2.433-1.067 3.568-.344.752-.734 1.486-1.214 2.16-1.079 1.529-2.562 2.777-4.274 3.541-1.508.677-3.203.968-4.847.738-1.641-.229-3.232-.974-4.372-2.191-1.353-1.426-2.113-3.323-2.439-5.24-.337-2.075-.224-4.258.532-6.233.706-1.74 1.859-3.315 3.376-4.433a9.276 9.276 0 0 1 4.791-1.788zm-3.127 4.407c-.755.355-1.42.88-1.981 1.493-.232.257-.447.562-.478.918-.016.194.058.421.247.508a.706.706 0 0 0 .667-.039c.181-.131.336-.294.506-.44.642-.55 1.339-1.058 2.14-1.345.906-.333 1.881-.412 2.84-.413.864.001 1.747.197 2.48.67.692.448 1.242 1.173 1.335 2.008.05.644-.073 1.313-.408 1.87-.39.65-1.047 1.09-1.73 1.386a4.96 4.96 0 0 1-1.847.447c.036-.935.072-1.872.1-2.808.007-.39.054-.787-.02-1.174a.56.56 0 0 0-.463-.468c-.509-.08-1.069-.065-1.526.196a.68.68 0 0 0-.338.655c.029 1.883.08 3.766.139 5.648.019.235-.005.483.088.706.098.234.36.364.605.355.305-.013.612-.088.878-.24a.796.796 0 0 0 .403-.588c.037-.328.046-.658.07-.986.981-.017 1.975-.138 2.896-.493A5.035 5.035 0 0 0 25.18 20.8c.558-.681.9-1.54.935-2.423.04-.958-.199-1.957-.794-2.723a5.34 5.34 0 0 0-1.375-1.212c-1.17-.722-2.58-.932-3.934-.901-1.228-.012-2.433.34-3.521.895zm2.44 10.886a.989.989 0 0 0-.668.655c-.107.326-.027.742.273.94.376.244.916.251 1.27-.038a.8.8 0 0 0 .261-.802c-.098-.497-.635-.878-1.136-.755Z" fill="#007fa3"/></g></g><defs><clipPath id="a"><path fill="#fff" d="M0 0h40v40H0z"/></clipPath></defs></svg>