<svg width="40" height="40" fill="none" xmlns="http://www.w3.org/2000/svg"><path fill-rule="evenodd" clip-rule="evenodd" d="M15.1 6.2a.7.7 0 0 0-.7.7V9h7V6.9a.7.7 0 0 0-.7-.7zm-5.6 4.2a.7.7 0 0 0-.7.7v1.4a.7.7 0 0 0 .7.7h.7v7h-.7a.7.7 0 0 0-.7.7v1.4a.7.7 0 0 0 .7.7h.7v7h-.7a.7.7 0 0 0-.7.7v1.4a.7.7 0 0 0 .7.7h21a.7.7 0 0 0 .7-.7v-1.4a.7.7 0 0 0-.7-.7h-.7v-7h.7a.7.7 0 0 0 .7-.7v-1.4a.7.7 0 0 0-.7-.7h-.7v-7h.7a.7.7 0 0 0 .7-.7v-1.4a.7.7 0 0 0-.7-.7zM27 13.2H13v7h14Zm0 9.8H13v7h14z" fill="#fff" style="stroke-width:1.4"/></svg>