<svg width="40" height="40" fill="none" xmlns="http://www.w3.org/2000/svg"><g clip-path="url(#a)" transform="matrix(1.4 0 0 1.4 -8 -8.002)"><g clip-path="url(#b)"><path d="m26.177 20.932-.72-.69c-.025-.023-.048-.048-.073-.07-.029-.024-.06-.044-.1-.024-.036.018-.05.051-.05.09l-.002.03.003 2.744h-.02c-.042-.054-.027-.117-.029-.178a2.479 2.479 0 0 1 0-.163 5.188 5.188 0 0 1 0-.274 2.062 2.062 0 0 1 0-.145 4.092 4.092 0 0 1 0-.232c0-.136.002-.272 0-.409-.002-.096-.01-.096-.097-.069-.191.061-.387.099-.588.056-.121-.025-.244-.035-.365-.058-.053-.01-.105-.02-.142-.066-.02-.31-.006-.612.195-.873.086-.111.183-.21.307-.28.111-.015.222-.037.333-.046.132-.01.238-.076.344-.141.066-.04.075-.113.088-.18.006-.029-.01-.06.017-.085.069.012.11-.032.153-.074l.687-.657c.086.005.108.082.142.137.096.154.234.26.383.354a.24.24 0 0 0 .174.028c.115-.02.23-.033.348-.026.035.002.074-.005.1.029l-.344.337c-.187.095-.277.26-.337.45a.86.86 0 0 1-.407.485z" fill="#f47821"/><path d="m28.318 23.012-.46-.458c-.025-.072.03-.089.077-.1.409-.09.812-.205 1.226-.266l.83.799c.006.005.006.017.009.025h-1.682z" fill="#f04c23"/><path d="M14.849 22.274a.463.463 0 0 1-.058.221c-.034.014-.069.03-.106.02-.17-.053-.344-.03-.516-.032-.266-.002-.518-.08-.777-.122a11.51 11.51 0 0 1-1.397-.327c-.304-.09-.614-.147-.923-.208-.224-.044-.457-.035-.685-.062-.119-.014-.238-.02-.357-.03a.148.148 0 0 1-.03-.02v-.14c.024-.044.064-.038.105-.035.314.024.625.07.942.071.107 0 .217.027.314.084.117.092.255.082.391.08l.15.003c.07.035.148.04.222.054.541.11 1.067.286 1.608.395.2.04.41.04.616.026.143-.01.286-.006.429-.005.027 0 .053.004.072.027z" fill="#f26a22"/><path d="M10.1 17.978c.01-.05.03-.096.06-.138.021-.02.042-.008.064.001.269.116.495.297.72.478.034.028.06.063.073.105.062.19.17.36.222.554v.22c-.027.146-.1.274-.163.405a.641.641 0 0 1-.31.31c-.182.09-.352.202-.541.278-.071.028-.139.085-.225.046v-.2a.306.306 0 0 1 .132-.07c.142-.038.254-.13.375-.204.088-.054.126-.145.182-.222.085-.116.14-.25.196-.38.04-.094.019-.192-.028-.28-.059-.11-.09-.228-.135-.343a.516.516 0 0 0-.19-.261c-.124-.083-.242-.177-.378-.242-.023-.012-.063-.012-.055-.057z" fill="#f7921e"/><path d="M22.192 22.828a2.21 2.21 0 0 1-.54.184H20.13a.326.326 0 0 0-.188-.053c-.03 0-.06 0-.09-.009-.033-.01-.066-.029-.061-.067.004-.037.044-.032.073-.036.07-.008.137.022.208.02-.01-.02-.037-.031-.02-.058a.292.292 0 0 1 .182-.041c.196.014.391-.022.588.011.158.027.318-.013.477-.026.26-.02.519-.009.779-.008.048.001.122-.007.114.083z" fill="#f15723"/><path d="M10.04 18.18a.248.248 0 0 1 .033-.123c.037-.016.065.006.093.023.085.05.169.106.253.159a.54.54 0 0 1 .228.28c.053.144.108.287.167.428a.251.251 0 0 1-.01.22c-.08.165-.164.327-.263.481a.685.685 0 0 1-.23.203c-.07.044-.151.07-.226.105-.026.013-.057.024-.085 0v-.119c.007-.007.013-.017.021-.02.255-.099.345-.337.466-.548.08-.14.12-.272.038-.437a2.343 2.343 0 0 1-.166-.394c-.019-.063-.082-.092-.134-.129-.06-.044-.142-.059-.185-.13Z" fill="#f8991d"/><path d="M11.239 21.115v.3c-.036.033-.08.03-.123.026-.254-.024-.51-.013-.765-.036-.118-.01-.24 0-.351-.05v-.24a.107.107 0 0 1 .073-.028c.185 0 .37-.014.556-.008.156.006.312.001.468.005.049.001.1-.007.142.031z" fill="#f37321"/><path d="M10 20.236c.19-.034.352-.133.52-.22.082-.042.162-.09.245-.13a.579.579 0 0 0 .286-.287c.052-.114.123-.22.149-.346a.073.073 0 0 1 .039-.055v.639c-.122.154-.3.227-.466.316-.146.078-.302.137-.455.202a.6.6 0 0 1-.318.061v-.18z" fill="#f78e1f"/><path d="M10.04 18.18c.073.04.147.078.218.12.07.04.119.098.147.179.052.149.114.295.177.44a.24.24 0 0 1-.01.23c-.071.139-.15.273-.221.411a.543.543 0 0 1-.351.277v-.18c.103-.13.179-.28.277-.413.12-.167.106-.334.033-.508-.02-.046-.044-.09-.057-.139A.404.404 0 0 0 10 18.3v-.02c.04-.023.003-.076.04-.1z" fill="#f99c1d"/><path d="m20.05 22.833.126.038c-.132.058-.252-.026-.371.01.024.07.083.05.131.05.076.003.154-.005.194.081h-.88c-.064-.049-.14-.042-.211-.044-.475-.01-.948-.045-1.422-.065-.091-.004-.187.025-.273-.03.01-.05.052-.048.086-.049.136-.004.27-.029.407-.022.266.015.53-.024.796-.018.024 0 .046-.007.068-.012a.368.368 0 0 1 .133-.003c.048.017.098.015.148.016.25.006.5-.012.75.009.07.006.144-.016.217 0 .035.01.074.009.101.039z" fill="#ec5724"/><path d="M10 21.355c.344.008.687.048 1.032.043.067-.001.137.018.207.016.005.109.05.2.122.28-.298-.084-.61-.046-.913-.095-.132-.021-.268-.022-.402-.041-.014-.002-.03.01-.046.016v-.22z" fill="#f36f22"/><path d="M10 19.957a.955.955 0 0 0 .659-.553c.032-.073.067-.145.106-.214.05-.086.06-.17.016-.263a2.758 2.758 0 0 1-.15-.388c-.049-.158-.17-.25-.3-.332-.083-.054-.172-.1-.258-.15.006-.027.003-.057.026-.078.128.056.242.135.358.211.134.088.251.187.293.357.04.162.14.305.175.47a.238.238 0 0 1-.019.164c-.074.135-.138.275-.217.41-.104.176-.267.261-.43.352a.776.776 0 0 1-.259.094v-.08z" fill="#f8951e"/><path d="M11.239 20.097v.38c-.028.038-.07.048-.113.058-.307.075-.62.116-.933.165-.064.01-.134.02-.193-.024v-.14c.074-.046.161-.034.241-.052.143-.031.28-.092.427-.1.02 0 .043-.005.057-.018.116-.11.284-.13.405-.232.03-.025.064-.051.109-.037z" fill="#f58420"/><path d="M11.239 20.097c-.144.125-.34.16-.484.288-.054.048-.134.026-.202.043-.182.046-.36.118-.553.108v-.12c.275-.047.52-.172.769-.288.143-.067.284-.143.403-.252.02-.018.037-.04.067-.04v.261z" fill="#f68920"/><path d="M11.239 21.115H10v-.16c.033-.029.073-.027.113-.03.318-.028.637-.03.954-.074.058-.008.12-.019.172.025v.24z" fill="#f47721"/><path d="M10 18.3c.118-.006.192.069.227.162.058.156.142.304.165.474a.308.308 0 0 1-.025.191c-.082.163-.191.308-.283.465-.02.035-.052.049-.084.066v-.26c.065-.096.135-.188.193-.29.028-.05.04-.094.014-.149-.068-.147-.124-.3-.207-.44v-.22z" fill="#f99e1c"/><path d="M10 20.676c.287.013.561-.078.843-.111.135-.016.264-.057.396-.089v.22c-.086.077-.199.084-.3.084-.245 0-.484.046-.726.062-.072.004-.147.021-.213-.027v-.14z" fill="#f58020"/><path d="M17.347 22.872c.293-.003.585.023.878.024.235 0 .47.042.704.048.081.002.163-.004.245.007.041.006.072.014.075.061h-1.982v-.14c.027-.02.054-.023.08 0z" fill="#e95624"/><path d="M10 20.816c.212 0 .42-.024.63-.054.172-.025.35.006.522-.046.028-.009.058-.014.087-.02v.18c-.323.03-.647.038-.97.076-.088.01-.179.003-.269.004v-.14Z" fill="#f47c21"/><path d="m25.213 22.832.002.18h-1.221v-.14c.04-.035.087-.024.134-.018.102.011.204-.003.307-.008.235-.01.469-.058.705-.041a.113.113 0 0 1 .073.027z" fill="#f15e23"/><path d="M13.283 23.012h-1.061c-.132-.06-.275-.074-.413-.108-.032-.008-.067-.005-.093-.031-.012-.055.026-.06.063-.06.032 0 .064.007.096-.003.093-.02.184.003.275.015.121.016.243.019.365.023.16.024.323.015.484.034.065.008.132.007.195.028.049.016.094.038.09.102z" fill="#e94b24"/><path d="M13.283 23.012c-.057-.102-.159-.09-.252-.1l-.509-.04c-.003-.039.028-.047.055-.06.128-.022.26.011.387-.02.109-.02.213.016.315.04.239.06.481.063.724.071.053.002.107-.004.157.02.027.012.072.024.024.066-.014.007-.036 0-.04.023h-.86z" fill="#e95224"/><path d="M11.722 22.872c.144-.004.276.052.414.08.033.006.07.022.086.06h-.94c-.093-.055-.205-.047-.3-.094-.02-.01-.043-.012-.06-.03.027-.06.083-.041.129-.042.196-.003.391.015.587.004.03-.001.06.001.084.022z" fill="#e84625"/><path d="M10 18.519c.043.002.05.04.063.068l.18.397c.011.024.024.05.006.074-.078.117-.123.258-.249.34v-.879z" fill="#faa21c"/><path d="M22.06 19.535c.219.084.405.215.549.402-.032.042-.08.045-.126.05-.377.04-.754.084-1.13.138-.33.048-.658.1-.988.146-.232.033-.465.01-.698.015-.124.003-.247-.002-.37.002-.052.001-.102.01-.12.07-.022.074-.083.087-.147.098-.28.046-.56.086-.844.09a.07.07 0 0 0-.038.01c-.494-.059-1.037-.35-1.169-.93-.102-.45.002-.893.37-1.16.016-.012.035-.02.052-.029.039-.019.071-.003.102.019.194.14.399.261.613.368.015.007.022.024.034.035l.005.19c.002.232.133.364.365.366l1.01.004a.32.32 0 0 0 .184.035.97.97 0 0 1 .304.04c.197.056.398.006.596.033.435.06.87-.022 1.306 0 .047.002.094-.009.14.008z" fill="#f47621"/><path d="m15.145 19.419.83-.005c.044 0 .057.015.057.058-.003.502.009 1.004-.01 1.506-.013.31-.204.524-.482.659a1.414 1.414 0 0 1-.56.131c-.094.004-.124.041-.118.126-.098.052-.21.045-.311.043a4.633 4.633 0 0 1-.605-.056c-.027-.004-.057-.009-.067-.037-.012-.037.017-.053.045-.067l.639-.003c.2-.001.282-.085.283-.286 0-.26-.005-.519.002-.778.003-.097-.013-.152-.123-.136-.023-.056.027-.066.058-.084.04-.022.085-.035.134-.086-.142-.002-.264-.012-.385.008a.376.376 0 0 1-.167-.014c-.055-.016-.05-.046-.018-.08.02-.023.049-.035.074-.052.184-.12.373-.232.516-.405.097-.117.182-.239.187-.399 0-.017.01-.031.021-.043z" fill="#f47421"/><path d="M25.278 19.87c.03.159-.013.236-.158.326-.194.12-.405.138-.624.125.156-.126.347-.18.53-.248.044-.016.122-.014.12-.061 0-.053-.078-.044-.122-.059-.323-.107-.626-.246-.836-.531a.975.975 0 0 1-.195-.575c-.004-.316 0-.631.001-.947.063-.03.125-.008.183.011.32.107.636.227.96.322.036.01.08.019.088.069v1.395c0 .033-.006.066.006.098l.047.075z" fill="#f47621"/><path d="M17.267 22.333c-.001-.169-.002-.338-.005-.507 0-.039.013-.056.052-.052H20.45l.04.003c.016.047-.01.092-.007.138.001.038.012.07.033.103.05.077.036.112-.057.12-.087.009-.173.02-.259.025-.352.024-.703.064-1.055.09-.242.018-.485.03-.727.051-.335.029-.672.03-1.007.055-.05.004-.1.01-.144-.026z" fill="#f36f22"/><path d="M18.307 17.34a.688.688 0 0 1 .44-.3c.026-.015.05-.01.075.006.283.184.575.354.848.555.113.084.263.106.396.157.248.095.502.175.757.25.154.044.303.1.455.148.037.012.093.013.073.08H19.91c-.134-.02-.25-.088-.372-.139-.197-.08-.386-.18-.583-.26a.19.19 0 0 1-.061-.035c-.172-.164-.37-.293-.561-.432a.075.075 0 0 1-.025-.03z" fill="#f58220"/><path d="M22.47 18.02c.012.22.012.22-.209.22-.076 0-.153-.002-.23-.004-.413-.083-.785-.287-1.182-.413-.413-.13-.803-.294-1.151-.554-.106-.079-.235-.124-.359-.173-.041-.017-.093-.029-.09-.091h1.001c.177.077.344.164.495.29.142.118.307.203.49.256.132.039.251.116.384.16.233.08.463.165.696.242.054.017.11.03.155.067z" fill="#f68920"/><path d="M22.97 21.075c.003.316.035.635-.08.94-.032.083-.06.168-.116.24-.144.02-.29.028-.434.046-.218.027-.437.024-.657.028-.355.007-.71.038-1.066.05-.283.008-.564.045-.847.045-.277 0-.552.018-.828.036-.053.004-.107.01-.15-.033-.014-.068.043-.058.075-.059.23-.004.459-.024.687-.043.182-.015.363-.018.544-.049.15-.026.305-.028.458-.029.227 0 .45-.044.675-.053.23-.009.457-.056.687-.044a.26.26 0 0 0 .108-.017c.087-.034.092-.07.048-.15-.133-.241-.131-.417.09-.582.135-.1.29-.16.442-.228a2.39 2.39 0 0 1 .241-.095c.04-.013.082-.035.123-.003z" fill="#f26622"/><path d="M18.148 20.555c.095-.063.207-.048.308-.054.212-.013.42-.059.629-.085.033-.004.063-.015.061-.051-.004-.113.076-.108.149-.108h.859c.276-.002.543-.074.815-.105.269-.031.537-.07.804-.117.277-.049.56-.034.836-.098a.487.487 0 0 1 .123.16c-.03.057-.087.06-.138.063-.396.028-.783.118-1.17.193-.277.053-.559.092-.828.18-.08.027-.166.015-.245.042l-1.705.004c-.12 0-.239-.005-.358-.007-.034-.015-.071.003-.105-.014l-.035-.003z" fill="#f47421"/><path d="M22.47 18.02c-.173-.032-.332-.108-.5-.158-.164-.049-.317-.13-.486-.165-.037-.007-.071-.034-.105-.054-.146-.083-.317-.107-.461-.2-.061-.038-.127-.074-.18-.121a1.688 1.688 0 0 0-.461-.279c-.017-.007-.025-.021-.027-.039h1.122c.099.043.187.104.263.178.131.13.3.175.465.236.124.046.253.078.37.142v.46z" fill="#f78e1f"/><path d="M13.923 21.777c-.04.047-.052.073.033.08.177.012.353.04.53.055.125.01.25-.033.376-.018 0 .127.018.255-.013.38-.21-.002-.418.014-.627.014-.294.001-.585-.035-.871-.119a18.606 18.606 0 0 0-1.006-.26c-.115-.028-.232-.052-.348-.077-.035-.007-.083-.003-.095-.055h2.021z" fill="#f36f22"/><path d="M15.145 19.419c.017.253-.136.42-.3.576-.152.143-.334.246-.526.366.097.03.172.03.255.019.108-.014.22-.004.33-.003.018 0 .043-.006.05.019.006.021-.013.037-.029.047-.036.022-.07.047-.113.062-.034.012-.08.019-.087.07-.207-.003-.417.035-.62-.038a.7.7 0 0 1-.323-.217c-.027-.06.022-.084.058-.11.115-.087.217-.187.306-.3.103-.134.187-.276.163-.456-.001-.014.007-.025.016-.036h.82z" fill="#f47621"/><path d="M22.97 21.075c-.125.012-.234.075-.345.122-.18.077-.368.14-.51.284a.356.356 0 0 0-.007.499c.064.07.054.133-.036.17-.057.022-.113.042-.182.026-.102-.024-.205.01-.306.02-.26.024-.521.04-.78.07-.184.022-.372.011-.557.027-.273.024-.545.054-.818.075-.178.014-.358.017-.537.025-.035.002-.074-.013-.104.02a.086.086 0 0 1-.062.027c-.251.014-.5.049-.751.065-.192.012-.384.012-.576.033-.046.005-.093.009-.132-.025v-.1c.04-.034.09-.027.136-.029.086 0 .172.01.257-.009a.223.223 0 0 1 .033-.006c.085-.009.17.009.255-.016a.606.606 0 0 1 .12-.008c.08-.001.16.01.239-.011a.284.284 0 0 1 .07-.008c.193.005.384-.016.575-.034.172-.006.343-.034.515-.029.273.014.542-.034.812-.05.146-.01.29-.025.436-.036.21-.047.43-.014.642-.067.048-.013.098.005.146.02.039.01.078.002.1-.03.029-.042-.023-.053-.043-.073-.087-.088-.104-.17-.049-.252.112-.05.205-.118.244-.24.017-.052 0-.105.01-.157a1.96 1.96 0 0 1 .397-.224c.24-.106.489-.186.74-.258.023-.006.046-.012.069 0v.179z" fill="#f26922"/><path d="M19.25 17.005c.019.033.05.049.086.062.27.095.507.25.736.414.135.095.28.15.432.197.225.07.446.151.665.24.267.107.532.223.816.283a.069.069 0 0 1 .046.035h-.68c-.002-.033-.029-.043-.054-.051-.17-.055-.34-.111-.51-.162-.311-.093-.614-.21-.922-.31-.229-.074-.392-.239-.589-.354-.117-.068-.22-.16-.353-.202a.191.191 0 0 1-.102-.077c-.019-.028-.04-.042-.074-.039.164-.061.334-.035.503-.036z" fill="#f68520"/><path d="M14.825 17.007c.028.02.015.049.015.073v1.074c0 .049.006.09-.068.087-.216-.005-.432-.004-.648-.005-.015-.007-.03-.014-.047-.016a1.005 1.005 0 0 1-.493-.2 1.19 1.19 0 0 0-.486-.197.47.47 0 0 1-.104-.033c-.214-.093-.443-.143-.665-.206-.164-.047-.34-.06-.507-.106-.256-.07-.524-.087-.779-.164-.075-.022-.16-.002-.239-.007-.047-.003-.104.005-.122-.06a.159.159 0 0 1 .08-.044c.098-.025.196.011.294.008.215-.006.425.045.64.052.129.056.268.079.405.099.37.055.73.154 1.084.266.416.131.841.199 1.269.263.076.012.15.027.226.041.107.02.11.018.117-.094-.003-.034 0-.068 0-.103a4.066 4.066 0 0 1 0-.229c-.001-.04-.003-.081 0-.121-.001-.04-.002-.08 0-.12a3.686 3.686 0 0 1 .001-.182c.002-.028.005-.055.027-.076z" fill="#f36f22"/><path d="M18.307 17.34c.147.064.28.16.39.268.19.185.429.272.657.382.183.088.37.165.555.246h-1.46c-.068-.035-.139-.06-.203-.105-.058-.04-.099-.084-.115-.151-.014-.233.015-.454.176-.64z" fill="#f58020"/><path d="M29.161 22.188c-.063.067-.152.055-.23.07a9.304 9.304 0 0 0-.838.196.546.546 0 0 1-.127.02c-.05.003-.1.016-.109.08l-.36-.346c-.021-.054.023-.07.054-.09.131-.082.256-.161.418-.194.23-.047.463-.094.688-.167a.084.084 0 0 1 .059-.002c.154.139.302.283.445.433z" fill="#f05123"/><path d="M17.407 22.413h-.14v-.08c.347-.03.696-.02 1.043-.055.147-.015.298-.017.446-.027.307-.02.613-.056.92-.073.176-.01.347-.047.524-.05.11 0 .228.001.344-.039-.114-.102-.124-.173-.054-.312l1.021-.003a.23.23 0 0 0 .086.252c.027.02.093.028.064.068-.03.042-.093.101-.15.071-.107-.056-.203-.015-.306-.002-.157.018-.316.02-.475.03-.1.025-.203.015-.305.024-.2.019-.402.033-.602.05-.118.011-.237 0-.354.026-.174-.01-.346.034-.52.02-.155.009-.31.022-.464.03-.04.002-.08-.01-.117.01h-.06c-.079.027-.162-.008-.24.02h-.12c-.086.028-.176-.01-.26.02h-.02c-.086.028-.176-.01-.26.02z" fill="#f36c22"/><path d="M10.682 17.247c.03.024.063.038.102.034.229-.025.441.07.663.093.296.033.572.16.873.17.074.003.146.061.222.077.252.053.485.165.736.222.127.029.24.094.347.169.12.084.245.156.396.172.036.004.081.01.103.052h-.941c-.116-.054-.21-.141-.315-.21a1.36 1.36 0 0 0-.246-.132 9.459 9.459 0 0 0-.88-.299 3.7 3.7 0 0 0-.834-.148.991.991 0 0 1-.245-.045c-.04-.012-.086-.023-.083-.082a.282.282 0 0 1 .102-.073z" fill="#f47421"/><path d="M23.994 21.475c.202.066.415.09.622.11a.824.824 0 0 0 .498-.089c.074-.043.1-.026.1.06.002.153 0 .306 0 .458-.063.049-.141.027-.211.042-.263.056-.53.081-.797.118-.07.01-.145.027-.211-.02v-.68z" fill="#f37321"/><path d="M17.267 22.513c.286-.025.573-.037.86-.053.22-.013.439-.069.662-.047.045.028.097.023.146.019.325-.028.65-.027.975-.042.431-.02.861-.056 1.294-.062.178-.002.356-.045.535-.034.28.018.554-.012.828-.06.07-.012.138.009.207.02l-.12.182c-.16-.028-.32.004-.478.016-.345.025-.691.057-1.036.048-.553-.014-1.104.025-1.656.031-.561.007-1.123.051-1.685.077-.136.006-.272.016-.409.015-.043 0-.087.001-.122-.03v-.08z" fill="#f26422"/><path d="M28.716 21.755c-.112.053-.23.082-.352.102-.117.019-.232.055-.347.088-.054.015-.107.031-.165.03-.105-.003-.152.1-.237.137-.042.02-.108.029-.117.096a4.817 4.817 0 0 1-.362-.351c-.002-.06.046-.087.084-.113a1.89 1.89 0 0 1 .816-.317c.101-.013.2-.052.304-.033l.376.361z" fill="#f15723"/><path d="M14.822 17.5v.24c-.05.041-.108.033-.163.026l-.893-.114c-.206-.027-.388-.14-.589-.187-.36-.085-.718-.183-1.094-.155-.052 0-.105.002-.156-.01-.112-.02-.222-.045-.336-.042a.737.737 0 0 1-.188-.018c-.12-.028-.242-.023-.363-.022-.052 0-.097-.017-.145-.027-.021-.004-.028-.026-.014-.047a.249.249 0 0 1 .1-.041c.383-.016.763.036 1.145.044.359.008.71.102 1.068.113.217.046.434.088.654.112.3.033.601.062.901.1.027.003.053.008.073.028z" fill="#f26522"/><path d="M26.177 20.932c.101-.117.237-.198.316-.338.071-.124.085-.271.17-.388.066-.093.123-.199.257-.208.086.117.21.199.3.312.012.04-.021.055-.046.065-.314.124-.38.388-.39.684a.96.96 0 0 1-.05.291c-.01.028-.025.055-.057.064l-.5-.482z" fill="#f47421"/><path d="M20.35 20.575c.198-.066.397-.127.602-.155.123-.016.239-.052.359-.074.276-.049.553-.091.826-.152.197-.045.403-.027.595-.097a.619.619 0 0 1 .121.24c-.036.061-.103.06-.159.062-.197.006-.386.06-.578.099-.175.035-.354.058-.524.117a.698.698 0 0 0-.244-.036c-.333 0-.665-.003-.997-.004z" fill="#f37321"/><path d="M21.592 20.615c.066-.097.178-.071.27-.094.198-.05.402-.08.6-.125.13-.03.267-.003.391-.06a.797.797 0 0 1 .1.36.15.15 0 0 1-.085.045c-.273.06-.546.116-.809.212a.693.693 0 0 1-.067.02c-.192.047-.191.047-.193.248 0 .052.01.107-.023.154-.014.052.014.11-.021.16l.006-.634c0-.128-.07-.216-.17-.286z" fill="#f36f22"/><path d="M17.267 22.593c.273.015.545-.015.818-.024.278-.009.558-.019.835-.04.462-.036.924-.027 1.385-.04.148-.005.297-.013.446-.03.157-.019.317.027.477.014.314-.025.63-.022.943-.055.131-.014.264-.028.397-.025.034.001.078-.012.086.043a.186.186 0 0 1-.082.092c-.492.04-.984.062-1.477.059-.11 0-.222.025-.334.028-.088.003-.174-.008-.258-.019-.231-.029-.46.007-.689.016-.196.008-.392.018-.588.028-.236.01-.471.018-.709.01-.321-.01-.644.027-.967.046-.095.006-.192.031-.283-.023v-.08z" fill="#f26122"/><path d="M17.267 22.673c.332-.014.665-.02.996-.044.146-.01.29-.005.435-.001.225.006.45-.02.676-.032.023-.001.046-.003.07-.003.259 0 .517-.015.775-.04.147-.013.291.023.437.025.116.002.232.026.347-.018.026-.01.059-.007.089-.007.166 0 .333.003.5 0 .305-.008.61-.024.913-.056.031-.003.051.007.067.031l-.079.067c-.083.032-.17.026-.256.026-.144 0-.285.005-.423.051a.322.322 0 0 1-.15.007c-.228-.034-.459-.005-.688-.021-.4-.028-.798.006-1.197.04-.328.026-.657.044-.986.048-.306.003-.612.03-.918.035-.024 0-.046.01-.069.014-.164.017-.33 0-.494.015-.016.001-.031-.007-.045-.017v-.12z" fill="#f15e23"/><path d="M27.266 19.66a2.32 2.32 0 0 0-.483.03c-.119.017-.213-.06-.298-.135-.119-.103-.237-.207-.307-.353a.13.13 0 0 0-.06-.063c.076-.09.165-.166.253-.243.04-.01.05.024.068.046.045.057.09.115.137.171.15.177.34.262.571.258.09 0 .18-.002.27.001.037.002.083-.01.1.042-.08.087-.157.175-.251.247z" fill="#f47c21"/><path d="M27.093 18.198c.082-.092.17-.178.265-.258.036-.026.062.002.09.018.02.012.04.025.054.044.196.26.491.351.778.456.05.018.117.022.118.1a1.066 1.066 0 0 1-.22.216c-.245-.1-.51-.146-.754-.25-.113-.05-.234-.085-.261-.23-.008-.042-.053-.06-.07-.096z" fill="#f78e1f"/><path d="M10.58 17.32c.081.093.199.086.303.097.2.023.399.051.598.09.392.077.76.227 1.134.356.217.076.401.214.568.373h-.52a1.36 1.36 0 0 1-.314-.225.659.659 0 0 0-.385-.19c-.236-.09-.48-.153-.721-.231a.406.406 0 0 0-.127-.022c-.203.001-.392-.07-.584-.119-.024-.006-.055-.011-.052-.049a.278.278 0 0 1 .1-.08z" fill="#f47721"/><path d="M14.324 19.419c.052.199-.044.353-.154.501-.096.127-.208.24-.343.327a.089.089 0 0 0-.045.074.655.655 0 0 1-.2-.424c.037-.093.114-.16.165-.243.046-.076.055-.168.117-.235h.46z" fill="#f47921"/><path d="M27.517 19.413c-.09-.035-.185-.021-.275-.013-.395.036-.65-.165-.844-.477-.007-.01-.018-.019-.027-.028.056-.064.116-.124.183-.178.058-.028.085.022.118.05.129.109.245.236.416.282.135.036.27.075.41.082a.453.453 0 0 1 .156.033c.029.012.067.024.044.07-.06.061-.104.138-.181.18z" fill="#f57f20"/><path d="M26.889 21.617c-.027-.017-.057-.032-.072-.063.07-.178.104-.369.196-.539.078-.144.207-.223.353-.277.075-.027.141-.095.233-.063.108.093.21.192.306.297-.023.053-.076.064-.122.078-.305.098-.556.28-.78.502-.031.031-.056.08-.114.065z" fill="#f26522"/><path d="M28.294 17.04c.016-.023.041-.02.064-.02H30l-.601.576c-.2-.208-.484-.298-.692-.493-.043-.04-.098-.033-.151-.037-.088-.007-.18.026-.262-.026z" fill="#fba91b"/><path d="M10.118 22.08c-.036-.034-.037-.08-.048-.123.05-.038.104-.015.154-.009.254.035.51.052.765.075.237.021.464.089.694.141.182.042.366.07.547.11.326.07.664.067.983.161a2.264 2.264 0 0 0 .633.084c.162.044.326.068.495.048.099-.008.197-.007.296-.002.035.001.083-.007.09.05-.019.05-.058.085-.094.121-.137.022-.273-.001-.408-.016a2.065 2.065 0 0 0-.28-.015 2.943 2.943 0 0 0-.485-.101c-.25-.03-.499-.074-.748-.11a2.487 2.487 0 0 0-.426-.034c-.112-.026-.231-.01-.337-.064a.536.536 0 0 0-.247-.097c-.184-.025-.356-.11-.541-.126-.307-.028-.61-.089-.916-.11a.266.266 0 0 0-.127.016z" fill="#f16222"/><path d="M27.698 19.235c-.037-.08-.117-.07-.18-.075a2.071 2.071 0 0 1-.493-.106c-.152-.049-.249-.171-.367-.265-.033-.026-.054-.07-.104-.071l.202-.2c.026-.009.046.005.064.02.253.208.548.322.867.382.059.01.118.024.174.044.027.01.07.011.06.061-.07.075-.136.154-.223.21z" fill="#f58220"/><path d="M28.294 17.04c.056 0 .114.009.169 0 .188-.031.314.068.442.183.065.058.14.108.226.139.12.042.206.125.267.234-.07.069-.142.138-.214.206-.053.01-.08-.029-.1-.064-.112-.182-.295-.254-.48-.334-.156-.067-.326-.111-.461-.222a.831.831 0 0 1 .151-.142z" fill="#faa51b"/><path d="M14.726 22.616c-.08-.05-.168-.013-.252-.022-.05-.005-.1-.001-.15-.001a2.886 2.886 0 0 1-.48-.06h-.02c-.156-.072-.325-.095-.493-.12-.49-.132-.984-.245-1.477-.363a6.008 6.008 0 0 0-.852-.157c-.304-.028-.607-.084-.914-.07-.017.001-.033-.003-.05-.006-.022-.03-.014-.068-.023-.101.223 0 .444.016.663.053.125.021.253-.01.378.022.122.032.246.056.37.073.343.05.664.182.998.26.416.1.835.183 1.253.269.278.057.558.07.84.06.095-.003.179.057.275.042-.028.037-.028.09-.066.12z" fill="#f26722"/><path d="M17.808 22.772c.014-.018.033-.019.054-.02.215-.006.43-.01.646-.02.142-.007.284-.018.426-.033.045-.005.083.018.127.014.31-.023.621-.027.929-.077l.02-.003c.275-.007.552-.033.826-.015.28.019.562-.012.84.035.113.019.213-.037.32-.05.162-.018.324.006.484-.021.004-.001.01.008.014.013l-.062.072c-.258-.028-.51.047-.766.046-.079 0-.16.011-.24.009a1.032 1.032 0 0 0-.374.046.579.579 0 0 1-.257.01 3.832 3.832 0 0 0-.649-.001 6.662 6.662 0 0 1-.647.007c-.224-.009-.446.016-.67.008h-.12c-.02.015-.044.01-.067.01-.237-.013-.475.003-.712 0-.043 0-.088.005-.122-.03z" fill="#f15c23"/><path d="M14.821 17.12v.14a.608.608 0 0 1-.32.047c-.142-.012-.284.007-.425-.002a6.617 6.617 0 0 0-.427-.016c-.04 0-.08-.003-.119.01a.158.158 0 0 1-.071-.002c-.183-.035-.368-.043-.553-.058a2.063 2.063 0 0 1-.478-.078.861.861 0 0 0-.296-.03c-.327.014-.652-.023-.978-.03-.028-.001-.064.008-.072-.035a.568.568 0 0 1 .18-.04c.088.02.177.004.266.006.19.004.38.007.57 0 .24-.01.477.03.714.055.102.01.205.024.308.024.37 0 .74.007 1.11-.002.156-.004.312-.019.468-.015.043 0 .088-.008.123.027z" fill="#f15723"/><path d="M21.776 21.375c-.002-.09.006-.18-.006-.268-.013-.093.038-.132.11-.142.198-.029.377-.122.572-.16.168-.033.335-.072.502-.11-.01.069.032.132.017.2-.229.09-.471.137-.696.24-.139.064-.283.116-.406.21a.135.135 0 0 1-.093.03z" fill="#f36c22"/><path d="M25.214 22.393v.28c-.034.031-.077.038-.12.044-.185.024-.37.049-.556.045-.15-.003-.297.03-.447.023-.033-.001-.067.01-.097-.013v-.28c.036-.03.08-.027.123-.03.316-.013.631-.033.944-.084.052-.008.105-.025.153.015z" fill="#f26522"/><path d="M18.131 17.98a.63.63 0 0 0 .3.224c.008.003.012.021.017.032-.245.014-.292.065-.293.317 0 .102-.003.204-.005.306a3.122 3.122 0 0 1-.643-.372.24.24 0 0 0-.106-.05c.178-.127.383-.175.595-.195.132-.011.132-.007.132-.143 0-.04.002-.08.003-.119z" fill="#f47b21"/><path d="M27.093 18.198c.052.006.097.04.098.084.005.135.111.168.203.2.096.035.191.071.286.109.135.053.285.055.415.123.03.016.074.014.083.06a.688.688 0 0 1-.141.14c-.137.011-.263-.04-.39-.075a2.473 2.473 0 0 1-.653-.272c-.128-.079-.127-.085-.06-.216.048-.056.1-.108.159-.153z" fill="#f68920"/><path d="M22.059 19.535a.896.896 0 0 1-.297.022c-.273-.012-.544.02-.816.02-.156.002-.31-.012-.464-.038-.05-.008-.099.013-.147.016a1.248 1.248 0 0 1-.447-.066c-.04-.013-.077-.005-.116-.004-.086.002-.177.012-.242-.066.573-.001 1.146-.004 1.72-.004.166 0 .333-.011.498.02.107.021.214.045.31.1z" fill="#f47b21"/><path d="M10.278 17.636a.15.15 0 0 1 .058-.078c.101-.02.199.006.295.025.195.04.386.094.582.131a.606.606 0 0 1 .315.161c.08.08.178.137.268.206.053.04.12.074.125.155l-.414.006c-.05.01-.08-.027-.113-.051-.147-.108-.298-.211-.444-.321-.14-.107-.31-.129-.477-.161-.049-.01-.098-.016-.147-.027-.023-.004-.057-.005-.048-.046Z" fill="#f58420"/><path d="M11.239 18.978a.087.087 0 0 1-.047-.062c-.042-.168-.15-.31-.194-.477-.026-.1-.124-.133-.192-.195a2.421 2.421 0 0 0-.646-.404.36.36 0 0 1 .079-.143c.296.078.544.242.776.434.096.08.197.156.284.248-.08.157-.052.326-.057.491l-.003.108z" fill="#f78e1f"/><path d="M28.34 21.394a.83.83 0 0 1-.29.056c-.135.003-.248.059-.37.101a2.024 2.024 0 0 0-.3.125.946.946 0 0 0-.244.18 1.026 1.026 0 0 1-.165-.16c.072-.096.18-.144.278-.206.221-.14.464-.234.713-.31.049-.015.102-.04.154-.004.082.065.156.139.225.218z" fill="#f15c23"/><path d="M22.47 17.56a1.6 1.6 0 0 1-.319-.1c-.076-.032-.16-.055-.24-.08-.15-.047-.263-.148-.377-.248-.052-.045-.124-.065-.162-.127h.6c.064.02.12.052.17.098.096.087.216.136.327.198v.26z" fill="#f7911f"/><path d="M11.922 18.236c-.095-.129-.241-.196-.36-.296-.078-.065-.152-.13-.255-.166-.153-.053-.314-.064-.467-.113-.164-.053-.336-.068-.504-.103a.187.187 0 0 1 .064-.078c.309.025.612.09.91.163.204.05.418.092.596.214.134.092.238.222.37.318.019.014.033.034.026.06l-.38.001z" fill="#f57f20"/><path d="M28.919 18.06a.932.932 0 0 1-.161.156c-.056-.036-.117-.062-.177-.091-.136-.068-.272-.133-.386-.243a1.573 1.573 0 0 0-.461-.303.77.77 0 0 1 .142-.14c.025-.018.052-.011.076-.002.169.06.336.115.476.24.133.118.273.232.437.31.029.014.063.029.054.072z" fill="#f99c1d"/><path d="M23.994 22.153c.339-.007.67-.07 1.004-.124.072-.012.143-.014.216-.015v.24a.12.12 0 0 1-.073.028c-.268.031-.532.093-.805.082-.066-.003-.132.02-.199.018-.049 0-.1.007-.143-.03v-.199z" fill="#f36e22"/><path d="M23.994 17.72v-.2c.058-.03.12-.01.176 0 .33.058.655.143.984.207.026.005.052.013.068.037.006.088.002.176.002.264-.018.039-.05.025-.077.016-.06-.021-.124-.027-.181-.051-.272-.113-.563-.15-.846-.218-.045-.011-.091-.019-.126-.055Z" fill="#f58021"/><path d="M23.994 17.72c.414.08.823.176 1.22.32.019.08.019.16 0 .24a8.878 8.878 0 0 1-.782-.254 2.304 2.304 0 0 0-.437-.126v-.18z" fill="#f47c21"/><path d="M18.829 22.793c.005-.005.01-.013.015-.013.234.01.468-.05.704-.014.082.013.17-.015.254-.012.22.01.438-.019.658-.022.15-.003.298.02.446.03.07.004.132-.018.193-.038a.81.81 0 0 1 .236-.032c.212-.004.427.004.637-.026.12-.017.24-.032.362-.033.037 0 .075-.005.097.034a.916.916 0 0 1-.24.161c-.015-.054-.06-.055-.103-.055-.352.002-.705-.013-1.055.037-.172.024-.346-.04-.517-.015-.155.023-.316-.035-.466.037-.375-.03-.75-.017-1.126-.02a.183.183 0 0 1-.095-.02z" fill="#f15923"/><path d="M28.142 17.182c.127.063.263.103.39.17.11.058.234.086.343.15.095.057.17.125.224.219a.2.2 0 0 0 .085.082c-.065.029-.083.107-.144.139a.76.76 0 0 1-.33-.23.564.564 0 0 0-.166-.14 2.26 2.26 0 0 0-.524-.185c-.022-.005-.046-.006-.063-.026a1.25 1.25 0 0 1 .185-.179z" fill="#faa31c"/><path d="M26.677 21.414a.805.805 0 0 0 .08-.343 3.49 3.49 0 0 1 .03-.274.541.541 0 0 1 .335-.424c.035-.016.077-.025.098-.063.085.069.164.144.236.226-.051.058-.127.071-.192.103-.21.102-.343.256-.365.496-.008.1-.037.195-.061.292-.01.036-.02.072-.06.085a.389.389 0 0 1-.101-.098z" fill="#f36f22"/><path d="M11.299 18.38c-.106-.028-.168-.117-.244-.182-.234-.203-.484-.374-.784-.466-.013-.003-.022-.023-.033-.035a.099.099 0 0 1 .04-.06c.082.048.178.047.267.057.236.026.421.148.603.283.119.09.24.177.36.265a.608.608 0 0 0-.21.137z" fill="#f6891f"/><path d="M28.116 21.176a2.51 2.51 0 0 0-.837.326c-.105.061-.206.13-.309.194a.276.276 0 0 1-.082-.078c.133-.094.234-.221.365-.317a2.13 2.13 0 0 1 .542-.283c.037-.013.073-.03.11-.046.076.062.148.128.211.204z" fill="#f26122"/><path d="M28.398 18.557a.124.124 0 0 0-.066-.058l-.504-.186a.486.486 0 0 1-.154-.106c-.103-.092-.177-.218-.316-.267a.547.547 0 0 1 .123-.119c.036-.03.07-.013.1.008.083.058.173.101.257.156.033.022.071.043.088.079.038.083.11.121.186.158.11.055.225.1.34.145.033.013.072.019.093.054-.044.05-.087.103-.147.136z" fill="#f7911f"/><path d="m23.994 17.201.001-.16c.106-.021.213-.004.32-.01.26.131.538.201.82.261.036.008.073.015.089.055 0 .045.006.09-.004.134-.054.043-.115.03-.171.015-.327-.084-.661-.141-.983-.246-.03-.01-.057-.02-.072-.049z" fill="#f78d1f"/><path d="M28.544 18.421a2.475 2.475 0 0 1-.486-.198c-.06-.03-.125-.06-.152-.145-.018-.058-.096-.09-.157-.115-.094-.04-.158-.133-.268-.142a.906.906 0 0 1 .15-.143c.033-.014.061 0 .084.02.1.08.21.147.31.231.146.123.307.234.497.289.055.016.123.019.135.096l-.113.107z" fill="#f7941e"/><path d="M28.657 18.314a.227.227 0 0 0-.136-.074c-.2-.042-.359-.167-.509-.288a5.689 5.689 0 0 0-.38-.275.398.398 0 0 1 .101-.098c.206.023.345.17.485.292.13.112.275.18.422.253.045.022.109.024.118.093a.382.382 0 0 1-.1.097z" fill="#f8991e"/><path d="M27.958 17.36a.995.995 0 0 1 .341.083c.081.036.17.048.246.1.072.047.144.087.193.166.043.069.122.108.193.15.04.024.074.053.11.083a.533.533 0 0 1-.122.118c-.135-.1-.292-.169-.413-.285a1.387 1.387 0 0 0-.63-.335.251.251 0 0 1 .082-.08z" fill="#f99f1c"/><path d="M14.825 17.007c0 .025-.002.05-.003.074-.032.028-.07.02-.106.02-.533.013-1.066.014-1.599.008-.222-.002-.446-.005-.663-.063-.046-.012-.094-.004-.14-.005-.244 0-.487.001-.73-.001-.036 0-.084.02-.102-.035.19-.001.38-.004.569-.004h2.665c.037 0 .073.004.11.006z" fill="#f04e23"/><path d="M12.302 18.236c-.15-.13-.295-.266-.451-.388-.102-.08-.242-.074-.36-.125-.232-.1-.492-.097-.732-.176-.085-.028-.183-.02-.276-.026-.035-.002-.067-.004-.083-.041a.191.191 0 0 1 .08-.08c.21.067.419.14.643.14.051 0 .096.015.144.03.239.075.481.139.715.23.11.03.157.135.236.201.055.046.104.1.161.144.03.022.056.048.043.091h-.12z" fill="#f47c21"/><path d="M14.184 22.99c-.002-.073-.062-.054-.098-.056a9.482 9.482 0 0 0-.408-.016c-.196-.002-.379-.058-.567-.09-.05-.007-.098-.017-.148-.015a.03.03 0 0 1 .001-.034c.07-.078.165-.044.25-.055.287.063.581.018.87.058.024.003.045-.008.068-.013.102-.014.204-.007.306-.006.032 0 .066.003.09.031-.035.094-.131.11-.205.15-.047.026-.105.03-.159.045z" fill="#eb5724"/><path d="M25.213 17.76c-.17-.017-.336-.062-.503-.1a9.847 9.847 0 0 0-.716-.14v-.16c.04-.03.085-.016.125-.004.325.098.663.14.994.21.041.008.088.01.11.057-.001.046.014.093-.01.137z" fill="#f58420"/><path d="M23.994 22.353c.362-.012.724-.025 1.08-.095.046-.009.093-.003.14-.004v.14c-.097-.004-.189.03-.283.037-.312.026-.622.073-.936.062v-.14z" fill="#f26a22"/><path d="M26.934 18.352c-.015.146-.01.158.143.236.292.151.603.247.925.31.012.003.023.012.035.017a.5.5 0 0 1-.115.11c-.072-.062-.165-.066-.25-.082a1.877 1.877 0 0 1-.916-.424c.055-.061.112-.118.178-.167z" fill="#f68620"/><path d="M26.778 21.512a.938.938 0 0 0 .092-.36c.021-.332.239-.483.51-.594.024-.01.05-.014.076-.021.054.04.102.086.143.138a1.635 1.635 0 0 0-.382.163c-.162.094-.235.254-.277.428a.855.855 0 0 1-.123.288l-.04-.042z" fill="#f36b22"/><path d="M11.482 17.005c.028.026.063.016.095.016.203 0 .407.007.61-.002.188-.009.367.04.551.057.033.003.067.005.1.005.503 0 1.006.006 1.509-.003.158-.003.316.013.474.003v.04c-.52.01-1.039.029-1.558.02a4.406 4.406 0 0 1-.8-.076c-.03-.006-.06-.004-.09-.004l-1.01-.001c-.036 0-.085.024-.102-.035a.713.713 0 0 1 .221-.02z" fill="#f05323"/><path d="M23.994 22.773c.124-.045.257-.029.383-.033.28-.01.559-.033.837-.067v.16c-.196-.004-.39.02-.584.033-.21.014-.424.056-.635.006v-.1z" fill="#f26322"/><path d="M25.213 17.62a4.33 4.33 0 0 0-.503-.1c-.174-.025-.343-.07-.512-.116-.067-.017-.136-.03-.204-.044v-.16c.358.115.728.183 1.09.277.041.01.086.003.13.003a.186.186 0 0 1 0 .14z" fill="#f68920"/><path d="M11.082 17.066c.016.015.036.015.056.015.346-.001.69.032 1.037.022a.724.724 0 0 1 .255.024c.111.04.223.057.337.078.13.024.26-.002.386.023.103.022.214-.003.31.053a.407.407 0 0 1-.26 0 3.83 3.83 0 0 1-.701-.065 3.894 3.894 0 0 0-.721-.052c-.257.001-.508-.061-.765-.044-.011 0-.023-.011-.035-.017.029-.027.066-.03.1-.037z" fill="#f15e23"/><path d="M25.213 17.62v-.28c-.022-.073-.074-.11-.145-.133a4.208 4.208 0 0 1-.306-.116c-.083-.034-.17-.019-.255-.022-.059-.003-.12.008-.173-.028h-.34c.015-.042.051-.023.077-.023.357-.001.713 0 1.07-.002.066 0 .092.014.092.087-.003.897-.002 1.795-.002 2.692-.028-.031-.016-.07-.016-.105l-.002-1.41v-.66z" fill="#f7941e"/><path d="m14.548 22.794-.404-.001c-.383-.038-.77-.054-1.141-.17-.057-.018-.118-.023-.175-.04-.027-.009-.073-.003-.062-.056.078-.042.155-.005.232.007.284.044.569.08.852.128a.26.26 0 0 1 .094.03c.103-.05.21-.014.31.004.126.022.256-.007.379.04-.029.02-.037.068-.085.058z" fill="#f15f23"/><path d="M13.864 19.419a.925.925 0 0 1-.281.478c-.037-.146-.011-.294-.018-.442-.002-.047.033-.04.062-.04.079 0 .158.002.237.004z" fill="#f47c21"/><path d="M22.47 17.301c-.143-.011-.245-.104-.349-.186-.048-.038-.111-.057-.149-.11.147-.001.293 0 .44-.004.047-.002.065.013.062.061-.004.08-.003.16-.004.24z" fill="#f7941e"/><path d="M12.422 18.236c-.044-.1-.155-.134-.22-.219-.06-.081-.145-.145-.22-.217a.507.507 0 0 1 .29.117c.135.1.26.212.39.319h-.24z" fill="#f47b21"/><path d="M17.808 22.773c.3-.005.6.003.9.02-.016.021-.04.02-.063.02-.263-.01-.524.036-.787.019-.157-.01-.31.03-.467.022-.014-.001-.03.012-.044.019h-.08v-.08c.18-.038.36-.013.54-.02z" fill="#ed5a23"/><path d="M10.881 17.144c.021.066.09.052.125.05.182-.013.36.042.536.035.104-.004.2.059.303.016.027-.01.057.011.077.036-.073.05-.147.02-.22 0l-.916-.063c-.008 0-.016-.01-.024-.015a.275.275 0 0 1 .119-.059z" fill="#f26822"/><path d="M18.183 20.558c.035.002.073-.014.104.014a.187.187 0 0 1-.104-.014z" fill="#f47621"/><path d="M13.343 22.393c.036.007.072.022.106.018.145-.016.262.045.375.122-.044.037-.095.017-.143.015-.013 0-.025-.011-.038-.011-.368-.01-.716-.14-1.082-.178a5.711 5.711 0 0 1-.933-.177 3.494 3.494 0 0 0-.948-.153c-.203 0-.406-.047-.61-.072l-.012-.059c.019-.077.084-.053.129-.05.166.01.332.03.498.047.023.003.046.01.07.008.221-.01.435.041.653.068.273.034.537.096.8.163.333.085.671.142 1 .24.045.013.093-.004.135.019z" fill="#f26422"/><path d="M12.963 22.792v.02c-.132.046-.267.008-.4.02a.365.365 0 0 1-.206.014c-.147-.023-.296-.038-.442-.07-.244-.053-.494-.053-.742-.073-.225-.018-.449-.044-.673-.07a.908.908 0 0 1-.222-.255c-.002-.072.052-.067.097-.063.08.006.158.02.237.033.135.02.27.041.407.036a.303.303 0 0 1 .165.028c.127.073.268.086.407.115.283.06.565.118.85.167.156.028.307.082.47.074.019-.001.038.008.052.024z" fill="#f05223"/><path d="M12.963 22.792a2.91 2.91 0 0 1-.47-.052c-.373-.063-.738-.177-1.119-.208-.08-.006-.126-.092-.21-.1-.028-.002-.055-.02-.086-.02-.24.013-.475-.035-.71-.075-.042-.007-.073 0-.09.042a.472.472 0 0 1-.098-.165c.012-.064.064-.049.102-.044.287.035.577.056.862.102.219.036.43.112.644.176.106.031.212.06.324.058.081-.001.152.043.23.06.252.053.508.071.76.118.043.007.1-.001.101.068-.082.002-.167-.012-.24.04z" fill="#f15823"/><path d="M13.203 22.753c-.012-.027-.034-.037-.063-.04-.269-.034-.54-.055-.802-.123-.237-.06-.483-.074-.715-.155a2.786 2.786 0 0 0-.573-.148c-.217-.026-.433-.054-.65-.071-.072-.006-.147-.058-.22-.002-.02-.023-.044-.045-.039-.08.142-.023.285-.014.426-.002.178.016.358.035.532.075.206.048.421.056.614.161.076.042.175.035.264.046.125.017.249.04.374.054.01.001.021.004.032.007.05.019.103.009.154.015l.03.006c.046.016.093.009.139.012.021.002.042.007.057.025.191.046.378.113.574.14l.783.103c.009.001.016.01.024.016-.056.053-.113-.004-.17-.001-.119.005-.24-.005-.358.003-.14.009-.274-.038-.413-.041z" fill="#f15c23"/><path d="M13.343 22.393c-.104.008-.204-.022-.303-.045-.47-.108-.937-.244-1.412-.32-.272-.042-.543-.117-.827-.1-.176.01-.354-.032-.532-.048-.07-.006-.144-.029-.211.018-.022-.023-.02-.052-.02-.081.105-.048.215-.024.322-.018.195.011.387.042.582.058.273.023.541.083.81.142.37.082.736.184 1.107.265.165.035.319.102.484.129z" fill="#f26622"/><path d="M10.5 22.633c.114-.056.23-.003.34.009.19.02.382.032.573.048.228.02.452.047.677.089.154.028.312.07.473.053l-.04.04c-.223.02-.44-.046-.661-.04-.117-.032-.236 0-.353-.002-.286-.002-.567-.043-.85-.075-.056-.036-.116-.067-.159-.122z" fill="#ef4e23"/><path d="M12.382 22.493c-.18-.023-.359-.056-.54-.067-.149-.009-.264-.104-.407-.128-.25-.04-.5-.087-.75-.127-.181-.03-.365.009-.544-.037-.006-.003-.007-.007-.005-.012-.002-.06.043-.057.081-.058.1-.002.198.017.297.03.187.023.374.045.562.061.093.008.183.032.272.057.203.058.415.084.614.161.1.051.215.032.32.06.023.037.095-.006.1.06z" fill="#f15f23"/><path d="M10.66 22.755c.09-.061.184-.012.268.004.175.033.35.021.525.037.136.013.277-.019.409.036-.02.028-.044.016-.068.008-.033-.011-.065-.016-.072.032-.188.053-.379-.029-.57.015-.07.017-.152-.037-.23.001a.942.942 0 0 1-.262-.133z" fill="#ec4924"/><path d="M11.962 22.373c-.203-.017-.397-.08-.59-.13-.244-.065-.491-.076-.737-.109-.137-.018-.276-.027-.414-.044-.037-.005-.065-.003-.084.032-.017-.01-.018-.026-.02-.043.008-.054.05-.043.085-.045.134-.01.264.025.395.041.203.024.406.053.61.078.161.02.31.093.471.115.105.013.2.04.284.105z" fill="#f15f23"/><path d="M19.47 22.293c.102-.049.215-.026.32-.033.314-.02.626-.074.94-.066-.084.047-.18.019-.27.033-.19.03-.382.032-.574.047-.139.01-.277.027-.416.02zM18.368 22.353c.129-.032.26-.028.391-.039.063-.005.127 0 .19 0-.128.036-.261.018-.391.037-.062.01-.126.002-.19.002zM17.407 22.413c.084-.044.174-.009.26-.02-.083.044-.173.009-.26.02zM17.688 22.393c.084-.044.174-.009.26-.02-.084.044-.174.009-.26.02zM18.068 22.373c.077-.041.16-.01.24-.02-.077.042-.16.01-.24.02zM11.702 17.28h.38c.428.047.846.151 1.255.276.435.133.878.186 1.325.237.055.007.113.008.16.047.006.146.006.144-.133.121-.333-.055-.668-.097-.999-.165-.242-.05-.477-.13-.714-.202-.39-.118-.793-.186-1.19-.271-.034-.008-.068-.004-.084-.042z" fill="#f26a22"/><path d="M14.822 17.84c-.252-.03-.505-.058-.757-.09-.51-.064-.99-.26-1.493-.358-.164-.031-.33-.057-.49-.111.283-.012.558.04.836.093.266.05.507.166.764.233.114.03.234.048.352.05.19.005.371.06.56.073.076.006.152.005.228.01v.1z" fill="#f26822"/><path d="M13.203 17.28h.32c.39.012.78.03 1.17.054.047.003.093.01.128.046v.12c-.282-.029-.565-.06-.847-.085a2.935 2.935 0 0 1-.509-.078c-.087-.023-.187.015-.262-.056z" fill="#f26122"/><path d="M14.822 17.38a11.926 11.926 0 0 0-1.136-.062c-.054 0-.108-.024-.163-.037.15-.041.301-.022.45-.011.103.007.204.028.302-.014.06-.026.104.027.161.028.13.003.256-.032.386-.023v.12z" fill="#f15d23"/><path d="M12.382 22.493c-.025-.034-.086-.008-.1-.06.257-.005.507.042.759.087.181.033.368.04.549.076.119.024.248.022.354.097-.351-.05-.704-.092-1.052-.158-.042-.007-.086-.002-.13-.002h-.06c-.043-.027-.096.006-.14-.02h-.02c-.05-.028-.109.007-.16-.02z" fill="#f15f23"/><path d="M13.844 22.533c.162 0 .321.03.48.06-.164.012-.327.013-.48-.06z" fill="#f26422"/><path d="M24.334 17.041c.273-.031.523.04.77.15.075.033.132.056.11.15-.222-.053-.445-.1-.659-.179-.078-.03-.172-.037-.22-.12z" fill="#f7911f"/><path d="M12.382 22.493c.054.009.111-.02.16.02-.053-.009-.11.02-.16-.02zM12.563 22.513c.046.008.097-.019.14.02-.047-.008-.098.018-.14-.02z" fill="#f15f23"/></g></g><defs><clipPath id="a"><path fill="#fff" d="M0 0h40v40H0z"/></clipPath><clipPath id="b"><path fill="#fff" transform="translate(10 17)" d="M0 0h20v6.012H0z"/></clipPath></defs></svg>