<svg width="40" height="40" fill="none" xmlns="http://www.w3.org/2000/svg"><path fill-rule="evenodd" clip-rule="evenodd" d="M25.842 21.3a1.774 1.774 0 0 1-2.216 1.184 1.78 1.78 0 0 1-1.185-2.216 1.762 1.762 0 0 1 2.216-1.172 1.736 1.736 0 0 1 1.185 2.203z" fill="#4b3c32" style="stroke-width:1.4"/><path fill-rule="evenodd" clip-rule="evenodd" d="M25.855 18.28a3.02 3.02 0 0 1 1.312 2.446.345.345 0 0 0 .229.293l3.936 1.21s.165.025.242.025a.952.952 0 0 0 .904-.675v-.012a.973.973 0 0 0-.599-1.172l-3.12-.968 4.037-2.153a1.034 1.034 0 0 0 .42-1.388 1.056 1.056 0 0 0-.916-.548.95.95 0 0 0-.484.128l-3.974 2.114.93-3.031v-.013a.96.96 0 0 0-.65-1.16 1.157 1.157 0 0 0-.293-.037.958.958 0 0 0-.892.637l-1.21 3.96a.315.315 0 0 0 .128.345zm-11.922-1.362 7.4 2.254a.345.345 0 0 0 .331-.102 3.014 3.014 0 0 1 2.382-1.299.34.34 0 0 0 .293-.23l2.242-7.361a1.463 1.463 0 0 0-.994-1.758l-.038-.012a1.48 1.48 0 0 0-1.77.917l-1.465 4.801-3.312-6.202a1.617 1.617 0 0 0-1.4-.841 1.578 1.578 0 0 0-1.375 2.33l3.26 6.102-4.675-1.427s-.242-.05-.37-.05c-.623 0-1.21.407-1.4 1.044a1.473 1.473 0 0 0 .891 1.834zm20.01 8.966a1.287 1.287 0 0 0-.803-1.592l-6.177-1.885c-.128-.038-.255.013-.344.115a3.049 3.049 0 0 1-2.458 1.299.33.33 0 0 0-.293.23l-1.898 6.19c-.166.662.204 1.35.879 1.553h.013c.114.039.229.051.344.051.535 0 1.044-.331 1.222-.853l1.325-4.267 2.917 5.464a1.356 1.356 0 0 0 1.21.726c.229 0 .458-.05.675-.165.675-.37.93-1.21.573-1.885l-2.866-5.375 4.127 1.26c.102.026.204.039.305.039a1.269 1.269 0 0 0 1.249-.905zm-11.54-2.649a3.023 3.023 0 0 1-1.26-2.407.32.32 0 0 0-.205-.268l-8.19-2.509s-.254-.038-.382-.038a1.566 1.566 0 0 0-1.528 1.121 1.583 1.583 0 0 0 .98 1.949l5.197 1.592L6.902 28.05a1.72 1.72 0 0 0-.7 2.318c.23.42.599.7 1.019.828.153.05.306.063.471.076.28 0 .56-.064.828-.204.025-.012 10.011-5.31 10.011-5.31l-1.554 5.056a1.592 1.592 0 0 0 1.07 1.91h.013a1.599 1.599 0 0 0 1.949-.993l2.496-8.165a.318.318 0 0 0-.102-.33z" fill="#f07300" style="stroke-width:1.4"/></svg>