<svg width="40" height="40" fill="none" xmlns="http://www.w3.org/2000/svg"><g clip-path="url(#a)" transform="matrix(1.4 0 0 1.4 -8 -8)" fill-rule="evenodd" clip-rule="evenodd"><path d="M27.419 17.954c0-.056-.076-.094-.113-.141-.16.038-.262-.075-.394.038-.047-.272-.534-.057-.61-.32.432-.111.873.132 1.117.423zm-.61.112-.038-.215.075.075-.038.14zm.788.038c-.037.216-.178.3-.328.356l.15-.29c-.01.037.01.056.028.075.093 0 .103-.122.15-.141zm-.573.038c-.01.065-.112.112-.075.206.075-.047.225.075.216.178.01.038-.019.057-.038.075-.018-.075-.084-.131-.178-.103l-.037.028c-.01.178.028-.084-.038-.103-.384.047-.103.46-.497.469.019-.113.103-.141.178-.188-.103-.262-.244.047-.394 0l.142-.14-.029-.038c.037-.01.3.047.32-.14.102.187.234-.038.318-.103-.009-.076.01-.189.112-.142zm-1.144.712c-.046-.065-.037-.14.038-.178-.019.047-.048.103-.038.178zm-2.86.995c-.189 0-.367-.02-.498.15l-.037-.038c.028-.178.375-.093.534-.216zm-1.07.966a.175.175 0 0 1-.178.075c.037-.066.103-.085.178-.075zm-1.97.29c-.076-.009-.188.028-.253-.037.065-.085.188.01.253-.075v.113z" fill="#ffb700"/><path d="M19.304 17.241c-.224.807-.967.57-1.568.936.02.066-.209.09-.368.118l-.184.082c-.657.085-1.05.515-1.632.796.01.244-.328.113-.47.254-.074.215-.458.121-.355.393-.273.188-.647.357-.75.676.309.272.74.216 1.106.319 1.172.103 2.176-.028 3.255-.038.319-.056.628-.169.966-.178v.038c.254.075.413-.207.676-.104.187-.206.535-.028.713-.253.346-.122.835-.037 1.106-.216v.075c-.122-.046-.075.095-.14.141.065.066.168.028.253.038.375-.413.704.112 1.069-.357.14-.197.375-.309.61-.356l.075.103c.113-.347.497-.207.713-.394-.15.028-.169.272-.394.178.14.272-.234.282-.319.432-.075.018-.281.009-.253-.14-.103.093-.084.402-.291.28-.234.075-.572.141-.816.291-.29.038-.675.207-1.003.14-.263.142-.535.104-.826.217-.375.093-.92.075-1.248.281-.112-.01-.065.15-.178.15.103.01.084.328.253.178-.075.019-.13.113-.178 0-.15.038-.319.244-.469.066-.234.131-.544.047-.816.075v-.075c.198.16.123-.131.282-.178v-.103c-.46.159-.957.103-1.426.319.141.281-.263.065-.356.177-.019-.056.037-.075.066-.102-.6-.188-.901.206-1.567.065l-.075.141c-.301-.169-.685.188-.967-.028-.337-.057-.76-.15-.89-.47-.123.048-.142-.065-.18-.14.066-.319-.506-.441-.253-.788-.187-.216.048-.431.076-.638.047-.037.047-.094.065-.15l.075.075c.142-.112.16-.281.216-.431l.431-.46c-.009.028.01.047.03.066.065 0 .102-.066.149-.103-.056-.17.065-.216.178-.291.085-.019.207.046.244-.066-.094-.225.301.01.29-.253.31.028.385-.357.714-.282.413-.44 1.05-.478 1.538-.825.835-.281 2.308-.92 2.823.319zm-.89 3.865H18.3l.113.065zm-.291.281h.103c.066-.037.066-.094.112-.14a.242.242 0 0 0-.215.14z" fill="#ffb700"/><path d="M16.267 21.565c-.02.047-.076.038-.104.038v-.075c.028 0 .084-.01.103.037zm9.358-2.726c-.056.057-.15.17-.216.075h-.037c.056-.027.14-.103.253-.075z" fill="#ffb700"/><path d="M18.414 29.285c.112.244.075.46.028.713a.866.866 0 0 1-.497-.103l-.038.037c-.188-.121-.366-.262-.394-.506-.085-.328.338-.262.394-.535.178.066.365.254.507.394zm6.424-19.042c.273.3.34.685.507 1.032-.488.61-1.229.891-1.867 1.285-.215.047-.29.207-.497.291-.319-.131-.815-.272-.815-.713-.179-.31-.394-.59-.394-.966.525-.591 1.397-.469 1.96-1.041.3 0 .497-.244.788-.066.085.094.178.197.318.178zm-2.035 3.715c.525-.075 1.154-.31 1.576.14.16.095.122.263.178.395-.047.093-.084.328-.29.356-.226-.028-.451.169-.677.253.123.057.357.17.394.357.16.216 0 .516 0 .713-.15.478-.844.431-.788 1.032-.75.28-1.21 1.022-2.035 1.116-.479.412-1.06.722-1.436 1.247-.168-1.416.863-2.786 2.074-3.433-.076-.329-.572-.488-.572-.854-.207-.234-.376-.58-.357-.89.488-.376.985-.882 1.651-.685.048.103.208.122.282.253zm-2.71 9.615c.131.722-.216 1.331-.61 1.885l-.179.038.038-.038-.038-.028c-.309.403-.694.732-.788 1.247-.056.02-.102.028-.14.076-.094-.31-.292-.685-.113-.966-.065-.892.338-1.52.75-2.252.262-.169.534-.628.825-.394z" fill="#fff"/><path d="M24.638 19.664c-.075-.01-.188.028-.253-.038.065-.085.187.01.253-.075v.113zm.536-.515c-.188 0-.366-.019-.497.15l-.038-.037c.029-.179.376-.094.535-.216zm.67-.021c-.075-.01-.188.028-.253-.038.065-.085.187.01.253-.075v.113zm-.47.188-.036-.215.075.075z" fill="#ffb700"/></g><defs><clipPath id="a"><path fill="#fff" d="M0 0h40v40H0z"/></clipPath></defs></svg>