<svg width="40" height="40" fill="none" xmlns="http://www.w3.org/2000/svg"><path fill-rule="evenodd" clip-rule="evenodd" d="M20 33.22c-1.002 0-1.516-.654-1.516-.654-.823-.035-7.256-.017-7.256-.017l-.626-5.286S6.64 24.47 6.32 24.148C4.417 15.521 11.29 7.297 19.999 7.297c8.71 0 15.584 8.224 13.683 16.851-.323.322-4.284 3.115-4.284 3.115l-.627 5.286s-6.432-.018-7.255.017c0 0-.514.653-1.516.653z" fill="#ed1c24" style="stroke-width:1.4"/><path fill-rule="evenodd" clip-rule="evenodd" d="m20.009 25.18-.608-15.257c-.733-.15-2.603.03-3.605.778l2.917 14.54-3.979-13.942c-.954-.012-2.878 1.601-3.022 2.08l5.805 12.37-6.522-11.309c-.644.24-2.05 2.828-1.825 3.128l7.27 8.9-7.48-7.6s-.972 1.481-.338 3.99l4.225 3.05.529 4.168h5.18s.846.804 1.448.804c.6 0 1.448-.803 1.448-.803h5.18l.529-4.169 4.224-3.05c.635-2.509-.338-3.99-.338-3.99l-7.479 7.6 7.27-8.9c.224-.3-1.182-2.888-1.825-3.127L22.49 25.749l5.804-12.37c-.143-.478-2.068-2.091-3.022-2.08l-3.979 13.942 2.917-14.54c-1.002-.748-2.872-.928-3.605-.778z" fill="#ffd500" style="stroke-width:1.4"/></svg>