<svg width="40" height="40" fill="none" xmlns="http://www.w3.org/2000/svg"><g clip-path="url(#a)" transform="matrix(1.4 0 0 1.4 -8 -8)" fill-rule="evenodd" clip-rule="evenodd"><path d="M29.229 20.455c.378.278.771.48.771.923 0 .128-.164.255-.531.255-.278 0-.582-.076-.721-.28-.114-.152.05-.354-.05-.506-.077-.126-.253-.063-.368-.126-.138-.076-.15-.14-.24-.329-.1-.228-.443-.607-.847-1.012-.341-.341-.708-.518-.872-.506-.116.013-.153.013-.267.013-.291 0-.545.279-.962.455-.29.126-.455.203-.645.228l-.063.076.38-.013c.353 0 .821-.05 1.175-.05.369 0 .546.328.685.67.279.696.696 1.696 1.19 2.53.239.393.442.645.442 1.128 0 .152-.013.355-.216.355-.278 0-.986-.291-.986-.609 0-.241.19-.342.19-.582 0-.152-.228-.127-.279-.266-.176-.746-.392-1.481-.81-1.924-.216-.227-.24-.329-.456-.329a.94.94 0 0 0-.329.064c-.58.215-1.353.861-2.314 1.152-.366.114-.43-.101-.809-.025h.025c-.305.063-.545.24-.962.354-.582.165-1.582.24-2.378.14-.569-.077-1.304-.19-1.62-.178-.24.695-.759 1.607-1.518 1.962-.404.177-.53.43-.404.885.152.568.657.986.923 1.467.24.416.632 1.075 1.05 1.29.417.215.671.53.671.795 0 .127-.052.203-.178.203h-.835a.231.231 0 0 1-.215-.127c-.114-.214-.038-.416-.19-.606-.114-.139-.202-.101-.341-.214-.253-.24-.063-.38-.253-.684-.531-.834-.759-1.036-1.202-1.632-.252-.315-.556-.468-.556-.885 0-.504.506-.593.493-1.101a2.632 2.632 0 0 1-1.291.508c-.076.012-.279.164-.367.266-.202.202-.278.404-.304.707-.062.684-.201 1.38-.114 2.06.114.445.191.596.557.836.228.152.493.367.519.683 0 .088-.026.19-.152.19h-.898a.228.228 0 0 1-.19-.115c-.1-.176-.038-.302-.075-.505-.089-.417-.557-.392-.557-.821 0-.128.076-.292.089-.558.025-.58.202-1.518.025-2.654-.076-.66.607-.685.961-1.267.215-.33.152-.19.278-.43.127-.253.102-.43.089-.581 0-.19-.19-.597-.063-1.42.05-.366.227-.733.467-1.048 0-.013 0-.063-.076-.063-.354.025-.354-.063-.594-.063a.523.523 0 0 0-.443.29.295.295 0 0 1-.164-.253c0-.126.025-.24.152-.367.05-.05 0-.076-.063-.076-.279 0-.544.342-.607.582-.165-.025-.178-.24-.253-.24-.076 0-.127.114-.127.228 0 .81 1.316.986 1.316 2.048 0 1.228-1.48.975-1.48 1.418 0 .089.063.164.177.215-.05.114-.177.164-.316.164a.552.552 0 0 1-.57-.569c0-.67.898-.683.898-1.19 0-.24-.151-.316-.29-.43-.86-.607-1.341-1.214-1.341-2.213 0-1.075.746-1.899 1.72-1.899 1.417 0 1.455 1.633 2.746 1.772a2.889 2.889 0 0 1 1.606-.518c.835 0 1.2.215 2.088.215.354 0 .95-.1 1.657-.581.265-.178.379-.215.62-.431.556-.482 1.074-1.418 1.074-2.087v.037c0-.215-.05-.341-.151-.341-.304 0-.57.279-.873.57-.19.2.1.29-.329.53-.152.076-.329-.064-.493-.064-.342 0-.493-.404-.493-.757 0-.179.139-.229.214-.393.178-.342.165-.468.33-.81.1-.228.278-.38.266-.544 0-.062-.05-.1-.05-.163 0-.344.454-.571.454-.912 0-.19-.215-.279-.266-.43-.05-.153-.012-.19-.012-.19a.07.07 0 0 1 .063-.039c.177 0 .253.19.416.291.014-.227-.062-.278-.062-.442 0-.088-.013-.228.076-.228.114 0 .1.152.202.228.127.1.24.089.38.177.177.114.278.304.34.316.178.025.229-.19.14-.316.202-.013.405.152.672.152.417 0 .557.113.632.177.266.228.316.404.607.404.152 0 .228-.126.266-.176.202.15.215.53 0 .847.089.267.468.292.645.418.177.127.151.19.278.266.101.064.19.051.266 0 .088.354-.216.67-.582.72.013.456.494.735.708.848-.126.278-.354.367-.556.418.063.278.367.683.214 1.049-.139-.063-.34 0-.34.203 0 .227.29.343-.013.507-.14.076-.165.278.088.468.329-.089.645-.076 1.011-.076.229 0 .532-.064.734-.064.38 0 .609.152.887.456.696.759 1.328 1.555 2.049 2.1z" fill="#fff"/><path d="M10.456 18.432c.152 0 .43-.835.999-.835.164 0 .202.063.202.126 0 .114-.19.216-.19.368 0 .025.013.063.064.063.139 0 .24-.304.809-.304.152 0 .278.013.417.05.063.013.19.077.14-.1-.14-.392-.57-.76-1.177-.76-.607 0-1.239.545-1.315 1.202-.013.114-.013.19.051.19zM20.955 13.22c-.165-.065-.19-.153-.14-.355.038-.215.05-.304-.05-.33-.089-.025-.203.026-.317.153-.1.138-.265.303-.316.442-.05.179.164.153.013.444-.266.48-.33.582-.455.923-.114.355-.203.405-.266.519-.076.101.102.114.303.05.216-.076.228.177.152.354-.063.127-.012.178.165.038.164-.126-.089-.227-.026-.632.063-.367.14-.569.367-.935.19-.317.355-.545.683-.431.126.064.063-.164-.113-.24zM27.989 23.962c.063 0 .076-.089.076-.166 0-.176-.101-.443-.24-.557-.038.266-.165.444-.165.557 0 .09.241.166.329.166zM29.556 21.417c.102 0 .254-.039.254-.115 0-.151-.228-.417-.43-.48.139.265 0 .595.176.595zM22.613 17.964c1.43.658 1.34 1.859 1.467 1.555.051-.126.24-.72-.266-1.29-.391-.455-.543-.341-.391-.72.62-1.507 1.012-3.784-.847-4.581-.216-.09-.394-.09-.394-.05 0 .037.204.1.444.265 1.24.823.86 3.061-.278 4.149-.381.368-.204.457.265.672zM17.728 28.45c.102 0 .05-.151.013-.214-.088-.152-.253-.253-.392-.317.038.153.05.532.203.532zM13.415 28.45c.1 0 .025-.152-.013-.215-.089-.15-.266-.24-.405-.303.038.152.064.518.215.518zM18.64 19.886c.785-.089.911-.265 1.05-.86.063-.278.265-.569.443-.759.114-.126.227-.227.341-.417.038-.076.064-.14 0-.113-.088.063-.354.24-.468.328-.556.392-1.404.582-1.745.582-.722 0-1.342-.215-2-.215-1.972 0-2.708 1.543-2.606 2.44.012.14.037.153.089.153.139 0 .254-.532.747-1 .72-.683 1.505-1.074 2.618-1.074.81 0 1.14.265 1.14.366 0 .202-.344.215-.318.417 0 .063.19.215.71.152z" fill="#656263"/></g><defs><clipPath id="a"><path fill="#fff" d="M0 0h40v40H0z"/></clipPath></defs></svg>