<svg width="40" height="40" fill="none" xmlns="http://www.w3.org/2000/svg"><g clip-path="url(#a)" transform="matrix(1.4 0 0 1.4 -7.998 -8)"><mask id="b" mask-type="alpha" maskUnits="userSpaceOnUse" x="10" y="17" width="20" height="6"><path fill="#fff" d="M10 17.362h20v5.275H10z"/></mask><g mask="url(#b)" fill-rule="evenodd" clip-rule="evenodd"><path d="M19.271 17.362h.797c.38.048.764.097 1.129.219 0 .258-.007.516.005.774-.317-.284-.742-.412-1.156-.476-.336-.04-.699-.074-1.016.072-.14.06-.257.212-.213.37.052.172.24.239.396.283.584.146 1.227.121 1.755.446.527.32.545 1.18.057 1.543-.36.269-.828.317-1.262.328-.586.004-1.182-.028-1.745-.205l.001-.722c.38.223.802.384 1.244.418.352.026.729.053 1.055-.108.136-.062.255-.21.206-.366-.04-.195-.236-.294-.41-.345-.524-.148-1.088-.128-1.594-.342-.216-.088-.413-.25-.495-.475-.131-.36-.044-.808.257-1.06.275-.233.64-.31.99-.354zM23.904 17.362h.658c.223.027.448.038.667.086.001.285 0 .57.002.856-.559-.56-1.561-.59-2.138-.044-.494.463-.477 1.35.044 1.785.612.506 1.608.432 2.146-.152-.008.283.005.567-.005.85a4.99 4.99 0 0 1-1.429.173c-.665-.013-1.38-.195-1.843-.7-.54-.578-.495-1.566.055-2.122.472-.5 1.178-.685 1.844-.732zM27.528 17.362h.481c.499.045 1.01.207 1.37.571.605.588.627 1.653.062 2.276-.443.5-1.133.704-1.784.708-.616.017-1.274-.15-1.712-.605-.564-.58-.582-1.584-.057-2.195.4-.483 1.03-.706 1.64-.755zm-.17.536c-.203.058-.39.173-.526.335-.432.511-.42 1.35.038 1.842.39.422 1.12.452 1.545.067.56-.502.565-1.486.02-2-.282-.267-.708-.346-1.078-.244zM10.086 17.46c1.351 0 2.703-.002 4.055 0-.004.27-.006.54.001.81-.46-.276-1.017-.3-1.54-.323.003.813-.006 1.628.005 2.441-.008.155.065.297.159.415-.43-.012-.86-.01-1.289 0a.726.726 0 0 0 .161-.456c.006-.794.001-1.588.002-2.383-.525.02-1.092.023-1.555.309v-.814zM14.502 17.456c.982.011 1.963 0 2.945.005-.001.269-.006.537.003.805-.554-.325-1.228-.3-1.849-.3 0 .296.004.593-.002.89.407.011.82.007 1.218-.091l.001.683c-.398-.096-.812-.108-1.22-.092.008.312.003.624.003.936.688-.01 1.434.064 2.053-.298-.004.268-.003.535-.002.803-1.047.003-2.095-.009-3.141.006a.754.754 0 0 0 .15-.46c.003-.796.001-1.592 0-2.388a.77.77 0 0 0-.159-.5z" fill="#f02e25"/><path d="M10.7 22.055a1.24 1.24 0 0 1 .805-.295c.808.002 1.617-.003 2.425.002-.27.144-.509.339-.735.544a1.316 1.316 0 0 1-.606.332h-2.544l-.045-.01c.264-.15.474-.372.7-.572zM15.103 21.83c.257-.103.539-.062.809-.07.674.006 1.348-.013 2.022.01-.306.151-.553.388-.81.607a1.14 1.14 0 0 1-.537.26H14c.407-.217.66-.653 1.104-.807zM19.131 21.826c.201-.08.42-.066.632-.066h2.2c-.307.155-.561.388-.819.61a1.17 1.17 0 0 1-.527.268h-2.589c.398-.233.657-.66 1.103-.812zM23.167 21.817c.143-.054.299-.059.45-.057.787.002 1.573-.002 2.36.002-.3.15-.55.377-.802.595-.159.14-.35.242-.56.28h-2.589c.418-.222.679-.673 1.14-.82zM26.68 22.12c.226-.213.525-.359.84-.36h2.47c-.286.145-.527.357-.764.569a1.27 1.27 0 0 1-.583.309H26.1l-.045-.01a3.65 3.65 0 0 0 .624-.508z" fill="#0054a4"/></g></g><defs><clipPath id="a"><path fill="#fff" d="M0 0h40v40H0z"/></clipPath></defs></svg>