<svg width="40" height="40" fill="none" xmlns="http://www.w3.org/2000/svg"><mask id="a" mask-type="alpha" maskUnits="userSpaceOnUse" x="10" y="10" width="20" height="20"><path fill-rule="evenodd" clip-rule="evenodd" d="M10 10h20v19.647H10V10Z" fill="#fff"/></mask><g mask="url(#a)" transform="matrix(1.4 0 0 1.4 -8 -7.93)"><path fill-rule="evenodd" clip-rule="evenodd" d="M27.87 14.89c1.883 3.136 1.953 7.106-.012 10.231-2.07 3.291-5.876 4.734-9.637 3.88-7.267-1.652-9.924-10.957-4.697-16.227 2.986-3.009 7.778-3.09 11.284-.962.118.072.609-.48.717-.414-6.641-4.034-15.928 1.174-15.511 9.092.219 4.158 3.168 7.794 7.198 8.854 3.07.807 6.172-.06 8.716-1.847 4.193-2.948 5.27-8.674 2.66-13.023-.004-.009-.718.414-.717.415z" fill="#1197d5"/></g><path fill-rule="evenodd" clip-rule="evenodd" d="M28.428 9.43a1.38 1.38 0 1 1 1.952 1.952 1.38 1.38 0 0 1-1.952-1.951zM17.958 17.7a2.936 2.936 0 1 1 4.153 4.152 2.936 2.936 0 0 1-4.153-4.152z" fill="#1197d5" style="stroke-width:1.4"/><path fill-rule="evenodd" clip-rule="evenodd" d="M20.035 22.944a3.145 3.145 0 0 1-2.242-.929 3.175 3.175 0 0 1 0-4.48 3.174 3.174 0 0 1 4.482 0 3.175 3.175 0 0 1 0 4.48c-.6.598-1.395.929-2.24.929zm-1.913-5.08a2.706 2.706 0 0 0 1.913 4.616c.722 0 1.401-.281 1.91-.792a2.709 2.709 0 0 0 0-3.824 2.709 2.709 0 0 0-3.823 0z" fill="#1197d5" style="stroke-width:1.4"/></svg>