<svg width="40" height="40" fill="none" xmlns="http://www.w3.org/2000/svg"><mask id="a" mask-type="alpha" maskUnits="userSpaceOnUse" x="10" y="16" width="20" height="8"><path fill="#fff" d="M10 16.59h20v6.82H10z"/></mask><g mask="url(#a)" transform="matrix(1.4 0 0 1.4 -8 -8)" fill-rule="evenodd" clip-rule="evenodd" fill="#fff"><path d="M10 20.536h.773v-.285h1.912c.366 0 .556.244.447.515-.149.366-.8.23-1.464.23-.502 0-1.14 0-1.668.014v.814l3.403.027c.366 0 .42.19.42.352 0 .217-.054.38-.474.38h-2.522v-.285H10v1.112h3.403c1.058 0 1.261-.84 1.261-1.26a1.127 1.127 0 0 0-.759-1.031c.19-.95-.176-1.614-1.044-1.682H10ZM22.447 17.634c1.465-.04 5.316.027 5.316 2.102 0 .366-.163.678-.312.908-.176.298-.42.461-.57.719.855-.353 3.214-2.468 1.071-3.58-1.26-.664-3.362-.583-4.813-.325l-.597.135c-.013.014-.04.014-.054.027-.013 0-.027.014-.04.014z"/><path d="M25.268 16.915c1.003 0 2.115-.054 2.956.299.38.162.718.406.895.718.257.475.135.84.068 1.37.623-.61 1.464-2.17 0-2.577-.95-.257-2.455-.095-3.472.082zM20.536 20.183v-.773h4.962v.773zm2.142.542h.773v2.658h-.773ZM16.739 22.407v-.054l-.746 1.03h-.949l3.065-4.217 3.064 4.217h-.95l-2.114-2.902-.841 1.153h1.085l.569.773z"/></g></svg>