<svg width="40" height="40" fill="none" xmlns="http://www.w3.org/2000/svg"><path fill-rule="evenodd" clip-rule="evenodd" d="M6 33.474V34h3.474c.503-.549 1.646-1.646 2.217-2.217l15.543-15.566c.275.137.412.503.686.594l4.914-4.914c.275-.274.915-1.028 1.166-1.143V6h-1.691c-.115.206-.389.411-.572.594L15.166 23.143c-.366.388-.8.777-1.143 1.166l.571.571c-.114.206-6.788 6.834-7.497 7.52-.228.229-.891.96-1.097 1.074ZM6 21.589 16.011 11.6l.663.663L22.914 6H6ZM6 25.543v3.954c.251-.206.571-.548.823-.8.548-.571 5.6-5.668 5.783-5.76l.731.709c.32-.275 4.137-4.115 4.434-4.412l10.995-11.04A99.467 99.467 0 0 0 30.96 6h-6.72c-.137.206-.64.663-.846.869L20.79 9.45c-.206.229-3.36 3.315-3.452 3.475l.617.64C17.91 13.68 6.777 24.789 6 25.543ZM13.451 34h3.955l8.023-8.023.685.64L34 18.73V12.08c-.777.708-1.874 1.874-2.72 2.697-.297.297-2.651 2.606-2.72 2.743l.663.663zM26.777 27.326c.092.045.549.503.617.617-.617.663-5.874 5.805-6.011 6.057H34V20.057c-.183.137-6.034 6.011-6.811 6.789-.16.182-.366.32-.412.48z" fill="#001689" style="stroke-width:1.4"/><path fill-rule="evenodd" clip-rule="evenodd" d="M9.474 34h3.977l15.772-15.817-.663-.663c.069-.137 2.423-2.446 2.72-2.743.846-.823 1.943-1.988 2.72-2.697v-1.326c-.251.115-.891.869-1.166 1.143l-4.914 4.914c-.274-.09-.411-.457-.686-.594L11.691 31.783c-.571.571-1.714 1.669-2.217 2.217z" fill="#f23a2f" style="stroke-width:1.4"/><path fill-rule="evenodd" clip-rule="evenodd" d="M6 29.497v3.977c.206-.114.869-.845 1.097-1.074.709-.686 7.383-7.314 7.497-7.52l-.571-.571c.343-.389.777-.778 1.143-1.166L31.737 6.594c.183-.183.457-.388.572-.594H30.96a99.467 99.467 0 0 1-2.194 2.194L17.77 19.234c-.297.297-4.114 4.137-4.434 4.412l-.731-.709c-.183.092-5.235 5.189-5.783 5.76-.252.252-.572.594-.823.8Z" fill="#00acec" style="stroke-width:1.4"/><path fill-rule="evenodd" clip-rule="evenodd" d="M6 21.589v3.954c.777-.754 11.909-11.863 11.954-11.977l-.617-.64c.092-.16 3.246-3.246 3.452-3.475l2.605-2.582c.206-.206.709-.663.846-.869h-1.326l-6.24 6.263-.663-.663z" fill="#38d230" style="stroke-width:1.4"/><path fill-rule="evenodd" clip-rule="evenodd" d="M17.406 34h3.977c.137-.252 5.394-5.395 6.011-6.057-.068-.115-.525-.572-.617-.617-.023-.092-.548-.503-.663-.71l-.685-.639Z" fill="#fbe100" style="stroke-width:1.4"/><path fill-rule="evenodd" clip-rule="evenodd" d="M26.114 26.617c.115.206.64.617.663.709.046-.16.252-.297.412-.48.777-.777 6.628-6.652 6.811-6.789v-1.325z" fill="#fbe100" style="stroke-width:1.4"/></svg>