<svg width="40" height="40" fill="none" xmlns="http://www.w3.org/2000/svg"><g clip-path="url(#a)" transform="matrix(1.4 0 0 1.4 -7.845 -8)"><g clip-path="url(#b)"><path d="M19.64 22.41c-2.606 0-5.212-.018-7.818.015-.624.006-.849-.152-.815-.805l-.002-3.14c-.052-.761.254-.87.918-.867 4.503.026 9.005.015 13.508.015.708 0 1.416.019 2.124-.008.526-.019.681.199.666.708l.002 3.227c.03.662-.172.88-.853.87-2.575-.036-5.154-.014-7.73-.014z" fill="#1eb24d"/><path d="M19.602 14.662c-2.604 0-5.21-.017-7.814.013-.565.007-.793-.093-.762-.72l.007-3.395c-.014-.458.139-.562.575-.56 5.322.015 10.646.017 15.968 0 .507-.002.621.184.61.643l.008 3.396c.023.572-.211.635-.693.631-2.633-.019-5.266-.008-7.9-.008zM19.638 25.337c2.577 0 5.153.027 7.728-.02.693-.011.823.202.823.852l-.002 3.057c.024.566-.106.777-.73.774-5.266-.026-10.534-.02-15.8-.002-.47.002-.631-.098-.631-.597v-3.48c-.015-.504.165-.596.626-.593 2.664.019 5.326.009 7.986.009z" fill="#fff"/></g></g><defs><clipPath id="a"><path fill="#fff" d="M0 0h40v40H0z"/></clipPath><clipPath id="b"><path fill="#fff" transform="translate(11 10)" d="M0 0h17.226v20H0z"/></clipPath></defs></svg>