<svg width="40" height="40" fill="none" xmlns="http://www.w3.org/2000/svg"><g clip-path="url(#a)" transform="matrix(1.4 0 0 1.4 -7.977 -7.965)"><mask id="b" mask-type="alpha" maskUnits="userSpaceOnUse" x="10" y="12" width="21" height="16"><path fill="#fff" d="M10 12.909h20v14.182H10z"/></mask><g mask="url(#b)"><path fill-rule="evenodd" clip-rule="evenodd" d="M16.19 19.669c3.27 0 7.215-.745 7.215-3.793 0-2.16-2.28-2.967-4.362-2.967-3.181 0-9.043 1.712-9.043 7.79 0 3.05 2.401 4.81 6.208 4.81 4.026 0 6.951-2.534 7.847-5.934-2.364 3.944-5.37 5.171-7.822 5.171-3.044 0-4.206-2.187-4.206-4.06 0-5.363 4.304-7.166 7.02-7.166 1.833 0 2.906 1.137 2.906 2.385 0 3.444-5.13 3.345-7.472 3.345-.24 0-.978.006-1.123 0l-.494.495c1.072.147 2.556.433 4.166 1.22 3.347 1.635 6.497 5.95 10.666 5.95 1.513 0 1.906-.446 2.191-.836-2.042 1.259-5.463-.924-7.307-2.612-1.52-1.388-2.86-2.964-6.39-3.798z" fill="#ff7900"/></g></g><defs><clipPath id="a"><path fill="#fff" d="M0 0h40v40H0z"/></clipPath></defs></svg>