<svg width="40" height="40" fill="none" xmlns="http://www.w3.org/2000/svg"><g clip-path="url(#a)" transform="matrix(1.4 0 0 1.4 -7.91 -7.99)"><g clip-path="url(#b)" fill="#fff"><path d="M16.61 15.27c-.72 2.89-1.45 5.77-2.24 8.63l-1.32 4.73c-.11.37-.25.73-.46 1.06-.08.13-.18.29-.36.25-.16-.04-.15-.22-.18-.36-.14-.64.01-1.26.09-1.88.22-1.71.47-3.42.71-5.13.34-2.42.67-4.84 1.14-7.24.07-.11.19-.15.31-.16.6-.06 1.21-.12 1.82-.08.18.02.36.03.49.18z"/><path d="M16.61 15.27c-.88-.14-1.75-.07-2.62.06-.57.03-1.12.19-1.68.25.58-.32 1.22-.46 1.83-.71a.42.42 0 0 1 .22-.14c.79-.23 1.59-.39 2.4-.47.08-.01.15 0 .22.06.76 0 1.52-.02 2.27.17 2.85.75 3.66 3.7 2.68 5.86-.61 1.34-1.59 2.39-2.67 3.35-.94.83-1.96 1.55-3.03 2.2-.03.02-.07.04-.12.04.41-.45.85-.88 1.23-1.35 1.06-1.31 1.94-2.72 2.28-4.4a6 6 0 0 0-.02-2.6c-.34-1.45-1.51-2.23-2.99-2.32z"/><path d="M16.97 14.32c-.96.1-1.9.32-2.84.55.27-1 .66-1.95 1.28-2.78 1.06-1.42 2.54-2.01 4.26-2.08 1.87-.07 3.67.31 5.46.81.82.23 1.64.48 2.42.84-.74-.12-1.48-.26-2.22-.35-1.79-.23-3.59-.36-5.38.07-1.28.3-2.16 1.06-2.7 2.25-.09.22-.18.45-.28.69z"/><path d="M21.5 13.46c-.59 0-1.05-.43-1.05-1 0-.59.47-1.05 1.06-1.05.55.01.99.46 1 1.03 0 .57-.44 1.02-1.01 1.02z"/></g></g><defs><clipPath id="a"><path fill="#fff" d="M0 0h40v40H0z"/></clipPath><clipPath id="b"><path fill="#fff" transform="translate(12 10)" d="M0 0h15.56v19.95H0z"/></clipPath></defs></svg>