<svg width="40" height="40" fill="none" xmlns="http://www.w3.org/2000/svg"><mask id="a" mask-type="alpha" maskUnits="userSpaceOnUse" x="10" y="10" width="20" height="20"><path fill="#fff" d="M10.667 10h18.667v20H10.667z"/></mask><g mask="url(#a)" transform="matrix(1.4 0 0 1.4 -8 -8)"><path fill-rule="evenodd" clip-rule="evenodd" d="M19.314 10c-.528 0-.634.092-.805.29-.08-.013-.146-.013-.225-.013-.396 0-.924.066-1.373.357-.436.29-.634.792-.41 1.161 0 0 .16-.224.661-.224.08 0 .158.013.238.013.7.08 1.227.449 1.161 1.426-.053.977-.422 2.06-1.914 2.073 0 0-.198 0-.396-.014-.7-.079-.924-.514-.924-.514s.607-.172.607-.925c0-.528-.449-1.003-1.109-1.188a2.333 2.333 0 0 0-.686-.092c-.766 0-1.637.317-2.218 1.082-1.32 1.743-1.426 4.278-1.096 6.64.317 2.364 1.822 4.555 1.862 4.621.04.04.066.053.092.053.013 0 .04 0 .053-.013.647-.634 1.267-1.492 1.531-2.073.278.238.132.713-.026 1.228-.145.515-.502 1.214-.634 1.439-.119.224-.29.475-.066.607.027.013.053.026.093.026.29 0 .963-.515 1.729-1.531.858-1.135 1.294-2.152 1.294-2.152.053.013.158.119.145.41-.013.29-.317 1.372-.898 2.389-.594 1.016-1.135 1.65-1.254 1.782-.066.092 0 .145.04.172.04.04 1.095 1.016 2.614 1.835C19.195 29.828 20 30 20 30s.792-.172 2.6-1.122c1.52-.832 2.575-1.822 2.615-1.848.04-.027.092-.08.026-.172-.105-.132-.647-.766-1.24-1.782-.582-1.003-.898-2.1-.898-2.39-.014-.29.079-.396.145-.409 0 0 .435 1.017 1.293 2.152.766 1.017 1.44 1.531 1.73 1.531.04 0 .066-.013.092-.026.225-.132.053-.396-.079-.607-.119-.225-.475-.911-.634-1.44-.145-.527-.303-1.002-.013-1.227.264.58.871 1.439 1.532 2.06.013.026.04.026.052.026.027 0 .053-.013.08-.053.052-.066 1.557-2.257 1.874-4.62.33-2.363.225-4.898-1.096-6.64a2.799 2.799 0 0 0-2.23-1.096c-.238 0-.463.04-.674.092-.66.198-1.109.687-1.109 1.201 0 .753.608.925.608.925s-.198.422-.924.514c-.133.014-.265.014-.383.014-.555 0-1.004-.172-1.426-.766-.41-.568-.396-1.743-.423-2.139-.013-.396-.092-1.294-.514-1.65-.423-.383-.925-.502-1.558-.528h-.132z" fill="url(#b)" style="fill:url(#b)"/></g><defs><linearGradient id="b" x1="7.686" y1="20.985" x2="21.687" y2="32.237" gradientUnits="userSpaceOnUse"><stop stop-color="#00AFE9"/><stop offset=".761" stop-color="#0685BC"/><stop offset="1" stop-color="#0D5B8F"/></linearGradient></defs></svg>