<svg width="40" height="40" fill="none" xmlns="http://www.w3.org/2000/svg"><path fill-rule="evenodd" clip-rule="evenodd" d="M25.402 7.493c-2.474.544-4.342 2.743-4.342 5.383 0 .055.016.118.016.181 3.916.828 5.887 3.468 5.887 6.943 0 3.909-3.192 7.069-7.1 7.069-3.91 0-7.559-3.255-7.559-8.086 0-5.902 5.06-11.434 12.263-11.608.134-.008.339 0 .552.008a14.442 14.442 0 0 0-5.115-.93C12.265 6.453 6 12.521 6 20c0 7.479 6.265 13.547 14.004 13.547C27.734 33.547 34 27.479 34 20c0-5.635-3.546-10.458-8.598-12.507Z" fill="#ed323d" style="stroke-width:1.4"/></svg>