<svg width="40" height="40" fill="none" xmlns="http://www.w3.org/2000/svg"><mask id="a" mask-type="alpha" maskUnits="userSpaceOnUse" x="10" y="17" width="20" height="6"><path fill="#fff" d="M10 17.943h20v4.114H10z"/></mask><g mask="url(#a)" transform="matrix(1.4 0 0 1.4 -7.998 -8)" fill-rule="evenodd" clip-rule="evenodd" fill="#ee333e"><path d="M16.493 19.032c-.782 0-1.357.57-1.357 1.348 0 .777.575 1.348 1.357 1.348s1.357-.57 1.357-1.348c0-.778-.575-1.348-1.357-1.348zm.181 2.38c-.396.071-.702-.302-.814-.924-.11-.614.055-1.08.444-1.15.396-.07.704.311.814.925.111.622-.047 1.079-.444 1.15zM28.463 19.032c-.782 0-1.358.57-1.358 1.348 0 .777.575 1.348 1.358 1.348.782 0 1.357-.57 1.357-1.348 0-.778-.575-1.348-1.357-1.348zm.181 2.38c-.396.071-.702-.302-.814-.924-.11-.614.055-1.08.443-1.15.397-.07.705.311.814.925.112.622-.046 1.079-.443 1.15zM24.332 19.709c.03.083.044.187.044.314v1.652h.989v-.182c-.142 0-.32-.07-.32-.392v-1.238c0-.677-.554-.834-.85-.834-.476 0-.733.282-.82.458 0 0-.009-.335-.009-.397h-.952v.179c.138 0 .32.069.32.389v1.444c0 .32-.182.391-.32.391v.182h1.31v-.182c-.142 0-.32-.07-.32-.393v-.935c0-.184.027-.332.087-.445a.514.514 0 0 1 .44-.285c.186 0 .331.083.4.274zM26.808 21.675v-.182c-.141 0-.32-.07-.32-.392v-1.737h.373v-.271h-.373v-.589h-.348c0 .392-.368.676-.664.676v.181l.343.002v1.75c0 .401.153.562.592.562h.397zM19.908 18.346v2.726c0 .323.179.392.32.392v.21h-1.343v-.21c.137 0 .32-.069.32-.393v-2.725h-.328c-.39 0-.533.1-.533.395h-.23v-.762h2.856v.762h-.22c0-.3-.139-.395-.528-.395h-.314zM11.19 18.345v2.727c0 .323.18.393.32.393v.21h-1.342v-.21c.138 0 .32-.07.32-.394v-2.489c0-.323-.179-.393-.32-.393v-.21h1.67c1.02 0 1.26.539 1.26.96 0 .48-.343.8-.821.887.507.033.804 1.327 1.174 1.802.05.064.178.18.318.18h.016v.213h-.396c-.292 0-.587-.128-.718-.305-.434-.59-.602-1.806-1.131-1.845h-.048v-.221h.046c.658-.01.777-.361.777-.655 0-.34-.122-.65-.722-.65h-.402zM21.889 18.53c0 .17-.162.309-.362.309-.2 0-.362-.138-.362-.309 0-.17.162-.308.362-.308.2 0 .362.138.362.308zM22.214 21.675v-.182c-.14 0-.32-.07-.32-.392V19.09h-.989v.179c.138 0 .32.069.32.389V21.1c0 .324-.182.393-.32.393v.182zM13.864 21.675v-2.017c0-.32-.182-.39-.32-.39v-.178h.99v2.01c0 .324.178.393.32.393v.182zM14.54 18.53c0 .17-.162.309-.362.309-.2 0-.362-.138-.362-.309 0-.17.162-.308.362-.308.2 0 .362.138.362.308z"/></g></svg>