<svg width="40" height="40" fill="none" xmlns="http://www.w3.org/2000/svg"><g clip-path="url(#a)" transform="matrix(1.4 0 0 1.4 -8 -8)" clip-rule="evenodd"><path fill-rule="evenodd" d="M29.113 20.175c-.773-1.17-.736-2.674-1.331-3.918-1.136-1.628-2.833-2.971-4.495-3.81-1.096-.698-2.261-1.316-3.509-1.606-.212-.055-.97-.152-1.442-.188-1.267.007-2.185 1.085-2.79 2.092-.814 1.574-1.18 3.335-2.034 4.899-.014.082-.055.146-.093.221-.744 1.464-1.437 2.95-2.402 4.325-.468.864-1.004 1.747-1.017 2.753.092 1.054.273 2.177 1.276 2.812.919.453 1.852.92 2.864 1.09.582-.017 1.087.251 1.628.39 1.297.244 2.78.042 4.067-.187 1.481-.206 3.219.078 4.656-.461 1.178-.584 2.426-.985 3.495-1.83.632-.699 1.561-1.303 1.902-2.182.361-1.538-.22-3.054-.775-4.4" fill="#fff"/><path fill-rule="evenodd" d="M21.683 21.968c-.404.263-.875.365-1.277.63-.452.255-1.08.547-1.202.46-.121-.084-.047-.205-.017-.314.254-.601.225-1.313.591-1.863.173-.346.365-1.011.537-1.02.22-.011.913.716 1.22 1.257.112.249.432.564.148.85zm-.371-3.162c-.453-.447-1.227-1.307-1.495-1.143-.214.127-.478 1.029-.65 1.57-.332.804-.558 1.582-.774 2.44-.038.28-.168.656-.195.8-.028.147-.149.5-.183.649-.028.132-.227.789-.095.975.095.137.375.111.543.061.616-.145 1-.31 1.611-.47.097-.053.225-.07.315-.112.428-.144.809-.405 1.219-.592.584-.336 1.6-.432 1.628-1.311-.199-1.154-1.24-1.913-1.924-2.866" fill="#da1935"/><path d="M21.312 18.806c-.453-.447-1.227-1.307-1.495-1.143-.213.127-.478 1.029-.65 1.57-.332.804-.558 1.582-.774 2.44-.038.28-.168.656-.195.8-.027.147-.149.5-.183.649-.028.132-.227.789-.095.975.095.137.375.111.543.061.616-.145 1-.31 1.611-.47.097-.053.225-.07.315-.112.428-.144.809-.405 1.219-.592.584-.336 1.6-.432 1.628-1.311-.2-1.154-1.24-1.913-1.924-2.866z" stroke="#fff" stroke-width=".265"/><path fill-rule="evenodd" d="M23.935 23.262c-1.878 1.393-3.848 2.557-6.152 2.922-.347.012-.709-.097-.923-.424-.698-1.251.033-2.683.164-3.978.119-.62.421-1.157.646-1.737l1.571-3.548c.246-.447.58-1.134.87-1.293.288-.157.771.388 1.07.663l.426.537c.568.795 1.701 2.44 1.701 2.44.464.88 1.017 1.733 1.275 2.698a1.73 1.73 0 0 1-.648 1.72m1.646-3.217c-.234-1.195-1.112-2.141-1.828-3.122-1.01-1.41-2.552-2.224-3.936-3.068-.282-.147-.7-.376-.89-.333-.192.04-.246.233-.314.333a45.48 45.48 0 0 1-1.276 2.587c-.489 1.29-.812 2.671-1.22 3.974-.609 1.377-1.25 2.875-1.127 4.42.069.622.092 1.303.628 1.699.647.379 1.464.471 2.238.445 1.922-.173 3.946-.2 5.526-1.258.095-.054 1.165-.98 1.776-1.462.372-.348.878-.717.96-1.22.07-.965-.3-2.018-.537-2.995zm2.311 3.18c-.984 1.767-2.905 2.3-4.455 3.216-1.617.818-3.462 1.079-5.156 1.702-.61.265-1.346.116-2.036.127-.737-.03-1.399-.376-1.994-.81-.906-1.101-.926-2.842-.555-4.198.25-.773.301-1.622.663-2.347 1.103-2.35 1.863-4.756 3.245-6.981.336-.629.422-1.62 1.23-1.87.292-.045.36-.13.907-.04.749.29 1.69.83 2.126 1.164.437.337 3.586 3.578 4.955 5.565.339.527.656 1.101.942 1.663.087.25.168.541.222.944.053.4.365 1.346-.094 1.865m1.22-3.05c-.771-1.17-.735-2.674-1.33-3.918-1.136-1.628-2.833-2.971-4.494-3.809-1.097-.7-2.262-1.317-3.51-1.606-.21-.056-.97-.152-1.442-.188-1.267.008-2.185 1.084-2.79 2.091-.814 1.575-1.18 3.335-2.035 4.9-.013.081-.054.146-.092.22-.744 1.464-1.437 2.951-2.401 4.325-.469.864-1.006 1.748-1.018 2.754.092 1.053.273 2.177 1.276 2.81.92.455 1.851.922 2.864 1.092.582-.018 1.087.251 1.628.388 1.297.246 2.78.044 4.067-.186 1.48-.206 3.219.078 4.657-.461 1.177-.584 2.425-.985 3.494-1.83.632-.699 1.56-1.303 1.902-2.181.361-1.54-.22-3.055-.775-4.4" fill="#14377d"/></g><defs><clipPath id="a"><path fill="#fff" d="M0 0h40v40H0z"/></clipPath></defs></svg>