<svg width="40" height="40" fill="none" xmlns="http://www.w3.org/2000/svg"><path fill-rule="evenodd" clip-rule="evenodd" d="M20.78 31.475h5.096c-.78-.413-1.056-1.514-1.101-2.571-.505-4.773-3.167-8.49-3.81-9.455 3.023-1.815 4.36-4.594 4.36-7.16C25.325 8.019 21.56 6 18.303 6H9.719c.322.459.551.642.551 1.698v21.756c0 1.056-.458 1.56-.78 2.02h3.901c-.322-.459-.78-.964-.78-2.02V21.47c2.629-.043 4.826-.478 6.588-1.177 2.683 2.876 3.005 7.052 3.05 8.2.046 1.147-.55 2.157-1.468 2.983zm-8.17-11.98V7.516h5.05c3.488 0 4.636 2.204 4.59 4.544-.23 6.472-6.655 7.437-9.64 7.437z" fill="#fff" style="stroke-width:1.4"/><path fill-rule="evenodd" clip-rule="evenodd" d="M17.199 23.993a23.003 23.003 0 0 0 3.398-.292c-.139-.465-.643-1.475-.897-1.892-.938.158-1.812.21-2.501.21v-.504c-.322.115-1.744.321-2.34.39V31.98c0 1.056-.46 1.561-.781 2.02h3.901c-.321-.459-.78-.964-.78-2.02zM21.332 9.968h-4.13v8.216c-.528.184-1.584.528-2.341.597v-8.629c0-1.055-.23-1.239-.551-1.698h5.714c.46.275 1.079.941 1.308 1.514zM25.94 11.432c.698.84.966 1.963.944 3.12-.125 3.505-2.068 5.396-4.297 6.39.326.495.736 1.428.99 1.937.063-.024.263-.094.325-.119 2.683 2.876 2.936 7.076 2.982 8.224.045 1.148-.551 2.158-1.469 2.984h5.095c-.78-.413-1.056-1.514-1.101-2.57-.505-4.774-3.167-8.492-3.81-9.456 3.024-1.815 4.36-4.593 4.36-7.16 0-3.368-2.412-5.36-5.002-6.04.205.348.774 1.476.983 2.69z" fill="#fff" style="stroke-width:1.4"/></svg>