<svg width="40" height="40" fill="none" xmlns="http://www.w3.org/2000/svg"><path fill-rule="evenodd" clip-rule="evenodd" d="m9.78 9.523.128.01 8.007 1.332 7.542.685a.708.708 0 0 1 .17.037l.08.034 2.682 1.341L31.59 10.4a.7.7 0 0 1 .522-.148l.137.03 1.26.42a.7.7 0 0 1 .467.538l.012.127v2.882l-.01.112-.026.11-1.364 4.091v1.907a.697.697 0 0 1-.045.246l-.055.114-2 3.333 1.878 5.01a.7.7 0 0 1-.23.803l-.112.07-.54.27a.7.7 0 0 1-.48.053l-.118-.04-5.998-2.666h-2.8l-2.8 1.15v-3.196l1.906-.71a.702.702 0 0 1 .244-.044h3.895a.7.7 0 0 1 .285.06l2.598 1.154-.706-1.88a.7.7 0 0 1 .055-.605l2.122-3.538a.7.7 0 0 0 .1-.36v-1.472c0-.075.013-.15.036-.22l1.181-3.548-1.916 1.535a.7.7 0 0 1-.75.08l-3.531-1.766-7.276-.663-6.825-1.136-.769 1.026-.986 4.22H6.068l1.285-5.362a.704.704 0 0 1 .066-.157l.047-.071 1.767-2.356a.7.7 0 0 1 .547-.28Z" fill="#fff" style="stroke-width:1.4"/><path d="M12.328 31.234c2.957 0 4.486-1.53 4.486-3.596s-1.244-3.141-3.596-3.46l-.604-.084c-1.31-.185-1.781-.605-1.781-1.26 0-.723.52-1.244 1.529-1.244.94 0 1.78.303 2.654.874.084.05.168.034.235-.05l1.025-1.53c.084-.117.067-.184-.034-.251-.957-.74-2.368-1.193-3.88-1.193-2.47 0-4.05 1.394-4.05 3.494 0 2.016 1.294 3.108 3.613 3.428l.605.084c1.36.184 1.764.604 1.764 1.276 0 .807-.672 1.361-1.865 1.361-1.21 0-2.235-.571-2.99-1.176-.085-.067-.185-.067-.253.017L7.91 29.386c-.084.1-.05.218.016.285.89.857 2.621 1.563 4.402 1.563z" fill="#fff" style="stroke-width:1.4"/></svg>