<svg width="40" height="40" fill="none" xmlns="http://www.w3.org/2000/svg"><path fill-rule="evenodd" clip-rule="evenodd" d="M6.756 8.664c-.476.934-.476 2.156-.476 4.6v13.471c0 2.445 0 3.668.476 4.602a4.364 4.364 0 0 0 1.908 1.907c.934.476 2.156.476 4.6.476h13.471c2.445 0 3.668 0 4.602-.476a4.364 4.364 0 0 0 1.907-1.907c.476-.934.476-2.157.476-4.602v-13.47c0-2.445 0-3.667-.476-4.601a4.364 4.364 0 0 0-1.907-1.908c-.934-.476-2.157-.476-4.602-.476h-13.47c-2.445 0-3.667 0-4.601.476a4.364 4.364 0 0 0-1.908 1.908Zm13.467 6.766c-.483 0-.895-.071-1.235-.214a1.768 1.768 0 0 1-.796-.641c-.188-.285-.293-.634-.317-1.045h1.453a.942.942 0 0 0 .11.431.767.767 0 0 0 .306.29c.134.068.298.102.49.102.164 0 .304-.021.42-.063a.582.582 0 0 0 .27-.198.542.542 0 0 0 .094-.32.573.573 0 0 0-.083-.321.555.555 0 0 0-.265-.206 2.492 2.492 0 0 0-.519-.139 5.674 5.674 0 0 1-1.148-.3 1.628 1.628 0 0 1-.696-.52c-.164-.224-.246-.514-.246-.87 0-.396.083-.734.25-1.014.169-.282.414-.497.736-.645.325-.15.715-.226 1.172-.226.44 0 .82.07 1.136.21.32.137.569.345.748.622.18.274.285.613.317 1.017h-1.445a.927.927 0 0 0-.107-.411.637.637 0 0 0-.27-.266.887.887 0 0 0-.415-.09.926.926 0 0 0-.376.07.569.569 0 0 0-.253.21.585.585 0 0 0-.091.329.49.49 0 0 0 .075.28c.053.072.14.133.261.183.124.05.297.096.519.138.488.093.885.201 1.191.325.306.124.544.302.713.535.169.23.253.535.253.918 0 .404-.088.743-.265 1.017a1.593 1.593 0 0 1-.768.61c-.335.135-.742.202-1.22.202zM9.178 9.626v5.709h1.393v-2.17h2.055v-1.064h-2.055v-1.307h2.32V9.626Zm5.53 1.176v4.533h1.398v-4.533h1.548V9.626H13.16v1.176zm8.436-1.176v5.709h3.808v-1.168h-2.414v-1.211h2.074v-1.034h-2.074v-1.128h2.414V9.626Z" fill="#fff" style="stroke-width:1.4"/></svg>