<svg width="40" height="40" fill="none" xmlns="http://www.w3.org/2000/svg"><g clip-path="url(#a)" transform="matrix(1.4 0 0 1.4 -8 -8.02)"><g clip-path="url(#b)"><path d="M23.769 24.1c-.41-.024-.84-.044-1.27-.077a8.956 8.956 0 0 1-.756-.094 42.596 42.596 0 0 1-1.39-.247c-.337-.067-.67-.152-1.004-.235-.29-.072-.58-.148-.868-.228-.247-.069-.491-.146-.736-.22l-.594-.175c-.052-.015-.107-.026-.156-.049-.124-.06-.224-.015-.333.048a16.56 16.56 0 0 1-.683.365c-.15.077-.302.15-.457.217-.188.08-.376.16-.569.225a12.84 12.84 0 0 1-.918.283 5.348 5.348 0 0 1-1.597.17 9.546 9.546 0 0 1-.923-.085 2.673 2.673 0 0 1-1.084-.39c-.203-.133-.372-.307-.417-.562a.846.846 0 0 1-.005-.275c.041-.26.182-.464.384-.63.216-.176.46-.298.72-.394.324-.12.657-.2.998-.256a8.571 8.571 0 0 1 1.82-.098c.392.02.783.06 1.172.102.295.032.589.082.882.126a.136.136 0 0 0 .134-.045l1.04-1.12c.228-.246.455-.492.684-.736.198-.21.394-.422.6-.624.262-.255.524-.51.803-.745.264-.222.546-.423.826-.626a6.36 6.36 0 0 1 .528-.349c.25-.145.502-.289.763-.412.319-.15.644-.292.975-.415.295-.11.6-.194.903-.282a6.903 6.903 0 0 1 1.332-.234c.41-.036.822-.046 1.233-.014.332.025.665.046.995.09.502.069.996.178 1.47.362.199.078.398.157.588.253.271.139.523.313.73.537.183.196.325.421.373.693.013.077.037.154.038.23.001.204-.06.395-.158.571a1.474 1.474 0 0 1-.62.58 2.833 2.833 0 0 1-1.11.307l-.036.003c-.145.013-.202-.052-.169-.198.005-.019.02-.041.035-.049.294-.131.461-.363.533-.67a1.421 1.421 0 0 0-.083-.941 1.712 1.712 0 0 0-.385-.524 2.655 2.655 0 0 0-.962-.566c-.531-.19-1.08-.247-1.64-.24a4.778 4.778 0 0 0-1.2.16 3.7 3.7 0 0 0-.926.376 6.91 6.91 0 0 0-.677.442 13.054 13.054 0 0 0-1.266 1.16c-.207.215-.408.437-.609.658-.267.293-.53.588-.797.88-.189.207-.374.418-.575.612a32.36 32.36 0 0 1-.934.857c-.127.114-.27.21-.404.314-.016.013-.022.038-.033.057.017.01.034.025.053.03.346.07.692.141 1.04.21.344.068.69.134 1.035.2.25.048.499.098.75.141.198.035.398.06.597.09.24.036.478.078.719.108.266.034.533.061.8.084.262.022.523.035.784.052.414.028.827.022 1.241-.002a7.76 7.76 0 0 0 1.278-.172 3.997 3.997 0 0 0 1.155-.437c.162-.096.31-.217.462-.33.038-.029.062-.028.086.011.001.002.002.005.004.006.103.091.06.18 0 .273a3.17 3.17 0 0 1-.772.837c-.24.182-.493.339-.764.465-.203.095-.417.17-.628.246a3.036 3.036 0 0 1-.443.134c-.273.053-.547.1-.823.13-.255.03-.512.034-.79.051zm-10.916-2.22c-.184.016-.37.02-.553.05-.29.047-.558.151-.78.352-.38.344-.307.943.204 1.181.305.142.63.18.96.175.457-.007.882-.149 1.287-.354.341-.174.656-.39.956-.628.115-.091.23-.183.343-.277.019-.015.032-.037.048-.056-.02-.016-.04-.04-.064-.047-.091-.025-.184-.045-.277-.066-.277-.063-.553-.137-.833-.187a8.23 8.23 0 0 0-1.29-.143z" fill="#fff"/></g></g><defs><clipPath id="a"><path fill="#fff" d="M0 0h40v40H0z"/></clipPath><clipPath id="b"><path fill="#fff" transform="translate(10 16)" d="M0 0h20v8.1H0z"/></clipPath></defs></svg>