<svg width="40" height="40" fill="none" xmlns="http://www.w3.org/2000/svg"><path fill-rule="evenodd" clip-rule="evenodd" d="M27.853 7.4a.7.7 0 0 1 .68.53L30.5 15.8h1.4a.7.7 0 0 1 .7.7v11.2a.7.7 0 0 1-.7.7h-2.1v3.5a.7.7 0 0 1-.7.7h-2.8a.7.7 0 0 1-.7-.7v-3.5H14.4v3.5a.7.7 0 0 1-.7.7h-2.8a.7.7 0 0 1-.7-.7v-3.5H8.1a.7.7 0 0 1-.7-.7V16.5a.7.7 0 0 1 .7-.7h1.4l1.967-7.87a.7.7 0 0 1 .68-.53Zm-15.468 8.4h15.228l-1.4-5.6H13.785ZM10.2 18.6v7h19.6v-7zm5.6 3.5a2.1 2.1 0 1 1-4.2 0 2.1 2.1 0 0 1 4.2 0zm10.5 2.1a2.1 2.1 0 1 0 0-4.2 2.1 2.1 0 0 0 0 4.2z" fill="#fff" style="stroke-width:1.4"/></svg>