<svg width="40" height="40" fill="none" xmlns="http://www.w3.org/2000/svg"><path fill-rule="evenodd" clip-rule="evenodd" d="M6.28 13.265c0-2.445 0-3.667.476-4.601a4.364 4.364 0 0 1 1.908-1.908c.934-.476 2.156-.476 4.6-.476h13.471c2.445 0 3.668 0 4.602.476a4.364 4.364 0 0 1 1.907 1.908c.476.934.476 2.156.476 4.6v13.471c0 2.445 0 3.668-.476 4.602a4.364 4.364 0 0 1-1.907 1.907c-.934.476-2.157.476-4.602.476h-13.47c-2.445 0-3.667 0-4.601-.476a4.364 4.364 0 0 1-1.908-1.907c-.476-.934-.476-2.157-.476-4.602Zm15.263 1.533c-.443 0-.82-.065-1.133-.196a1.62 1.62 0 0 1-.729-.588c-.172-.26-.269-.58-.29-.958h1.331c.005.15.04.282.102.396.065.111.159.2.28.265a.982.982 0 0 0 .45.094c.15 0 .278-.02.384-.058a.532.532 0 0 0 .247-.181.497.497 0 0 0 .087-.294.526.526 0 0 0-.076-.294.509.509 0 0 0-.243-.189 2.29 2.29 0 0 0-.476-.127 5.199 5.199 0 0 1-1.052-.276 1.491 1.491 0 0 1-.639-.475c-.15-.206-.225-.472-.225-.798 0-.363.076-.673.229-.93.155-.258.38-.455.675-.59.297-.139.655-.208 1.074-.208.404 0 .751.065 1.041.193a1.5 1.5 0 0 1 .686.57c.165.251.262.562.29.932h-1.324a.85.85 0 0 0-.098-.377.585.585 0 0 0-.247-.243.813.813 0 0 0-.38-.084.851.851 0 0 0-.345.065.522.522 0 0 0-.233.193.537.537 0 0 0-.083.3c0 .105.023.19.069.259a.55.55 0 0 0 .24.166c.113.046.271.089.475.127a5.9 5.9 0 0 1 1.092.298c.28.114.498.277.653.49.155.21.232.491.232.842 0 .37-.08.68-.243.932a1.46 1.46 0 0 1-.704.56c-.307.123-.68.184-1.117.184zM9.14 9.478v5.233h1.23V11.54h.007c.087.147.173.291.258.431l1.654 2.74h1.281V9.48l-1.226.003v3.204h-.008c-.096-.16-.182-.303-.257-.431l-1.67-2.777Zm6.716 0-1.807 5.233h1.383l.308-1.02h1.825l.309 1.02h1.382L17.45 9.48Zm1.434 3.256h-1.27l.41-1.343c.067-.228.138-.476.21-.744h.03c.07.268.138.516.206.744zm5.697 10.443.551.523.574-.635-.468-.443c.092-.114.174-.236.246-.367.225-.406.338-.878.338-1.415 0-.534-.113-1.007-.338-1.419a2.38 2.38 0 0 0-.94-.954 2.701 2.701 0 0 0-1.36-.341 2.75 2.75 0 0 0-1.38.341 2.403 2.403 0 0 0-.943.954c-.225.412-.337.885-.337 1.42 0 .536.112 1.008.337 1.414.225.407.539.72.94.94.404.22.865.33 1.383.33a2.777 2.777 0 0 0 1.397-.348zm-.896-.849a1.356 1.356 0 0 1-.516.094c-.266 0-.5-.061-.7-.185a1.233 1.233 0 0 1-.461-.544 2.055 2.055 0 0 1-.163-.856c0-.33.053-.615.16-.857.108-.242.262-.426.46-.551.201-.129.436-.193.704-.193.269 0 .502.064.7.193.201.125.356.31.465.551.109.242.163.528.163.857 0 .329-.054.613-.163.852a.523.523 0 0 1-.025.051l-.744-.707-.58.631zM9.14 23.442V18.21h1.843c.566 0 1.05.112 1.451.334.402.22.706.529.911.926.206.394.309.849.309 1.364 0 .515-.103.969-.309 1.36a2.19 2.19 0 0 1-.91.919c-.402.22-.886.33-1.452.33zm1.832-1.034c.285 0 .532-.064.74-.192.21-.131.372-.315.483-.552.111-.24.167-.517.167-.831 0-.317-.057-.595-.17-.835a1.26 1.26 0 0 0-.483-.555 1.345 1.345 0 0 0-.74-.2h-.57v3.165zm2.722 1.034L15.5 18.21h1.593l1.807 5.233h-1.383l-.308-1.02h-1.825l-.309 1.02zm1.97-1.978h1.27l-.414-1.342a22.721 22.721 0 0 1-.206-.744h-.03c-.072.268-.142.516-.21.744z" fill="#fff" style="stroke-width:1.4"/></svg>