<svg width="40" height="40" fill="none" xmlns="http://www.w3.org/2000/svg"><g clip-path="url(#a)" transform="matrix(1.4 0 0 1.4 -8 -8)"><path fill-rule="evenodd" clip-rule="evenodd" d="M10.54 11.903c-.34.667-.34 1.54-.34 3.286v9.622c0 1.746 0 2.62.34 3.287a3.117 3.117 0 0 0 1.363 1.362c.667.34 1.54.34 3.286.34h9.622c1.746 0 2.62 0 3.287-.34a3.117 3.117 0 0 0 1.362-1.362c.34-.667.34-1.54.34-3.287V15.19c0-1.746 0-2.62-.34-3.286a3.117 3.117 0 0 0-1.362-1.363c-.667-.34-1.54-.34-3.287-.34H15.19c-1.746 0-2.62 0-3.286.34a3.117 3.117 0 0 0-1.363 1.363zm5.704 4.094c.21.088.463.131.76.131.294 0 .544-.041.75-.124a.98.98 0 0 0 .473-.375c.109-.169.163-.378.163-.626 0-.236-.052-.424-.156-.565a.982.982 0 0 0-.438-.33 3.959 3.959 0 0 0-.734-.199 1.77 1.77 0 0 1-.319-.085.37.37 0 0 1-.16-.112.301.301 0 0 1-.047-.173.36.36 0 0 1 .056-.202.35.35 0 0 1 .156-.13.572.572 0 0 1 .232-.043c.099 0 .184.018.255.056a.391.391 0 0 1 .166.163c.039.07.06.154.066.253h.889a1.313 1.313 0 0 0-.195-.626 1.008 1.008 0 0 0-.46-.382 1.721 1.721 0 0 0-.7-.13c-.28 0-.52.047-.72.14a.996.996 0 0 0-.454.396 1.2 1.2 0 0 0-.153.624c0 .22.05.398.15.536.103.136.246.243.43.32.185.074.42.136.706.184.137.025.243.053.32.086.076.032.13.074.162.126a.353.353 0 0 1 .052.198c0 .076-.02.142-.059.197a.358.358 0 0 1-.165.122.76.76 0 0 1-.259.039.66.66 0 0 1-.302-.064.471.471 0 0 1-.187-.177.58.58 0 0 1-.069-.266h-.894c.015.253.08.468.195.643.117.174.28.305.49.395zm-3.057-3.44-1.214 3.513h.929l.207-.685h1.225l.207.685h.928l-1.213-3.513Zm.962 2.185h-.853l.275-.901c.046-.153.093-.32.142-.5h.02c.046.18.093.347.138.5zm4.653 1.328v-3.513h.867v3.513zm2.4-3.513-1.214 3.513h.928l.207-.685h1.226l.207.685h.928l-1.213-3.513zm.961 2.185h-.852l.275-.901c.046-.153.093-.32.142-.5h.019c.047.18.093.347.139.5zm-2.15 6.946a1.79 1.79 0 0 1-.926-.234 1.583 1.583 0 0 1-.612-.645 2.005 2.005 0 0 1-.214-.936c0-.349.07-.66.212-.935.141-.276.343-.492.604-.648.261-.156.567-.234.916-.234.29 0 .55.057.777.17.23.112.415.27.558.475.143.205.234.444.273.717h-.86a.898.898 0 0 0-.139-.332.635.635 0 0 0-.248-.214.77.77 0 0 0-.349-.076.75.75 0 0 0-.458.144.927.927 0 0 0-.297.39 1.401 1.401 0 0 0-.102.543c0 .216.034.405.102.568.068.16.167.286.295.375.13.088.284.132.463.132.131 0 .249-.026.353-.078a.67.67 0 0 0 .258-.222.807.807 0 0 0 .13-.341h.862c-.025.27-.106.509-.244.718-.138.208-.323.37-.555.488a1.752 1.752 0 0 1-.8.175zm-7.789-3.571v3.513h.86v-1.257h.575a1.6 1.6 0 0 0 .697-.14.996.996 0 0 0 .438-.396c.101-.17.151-.37.151-.597 0-.23-.05-.427-.15-.595a.971.971 0 0 0-.44-.39 1.59 1.59 0 0 0-.696-.138zm1.63 1.537a.672.672 0 0 1-.275.051h-.495v-.918h.495c.107 0 .2.016.277.048.078.031.139.08.18.149a.47.47 0 0 1 .064.256.477.477 0 0 1-.066.258.404.404 0 0 1-.18.156zm2.1-1.537-1.213 3.513h.928l.207-.685h1.225l.207.685h.929l-1.214-3.513zm.962 2.185h-.852l.275-.901c.045-.153.093-.32.141-.5h.02c.047.18.093.347.139.5zm5.944-2.185h-.867v3.513h.867zm-4.943 9.331a1.79 1.79 0 0 1-.925-.234 1.582 1.582 0 0 1-.612-.645 2.005 2.005 0 0 1-.214-.936c0-.349.07-.66.212-.935.141-.276.342-.492.604-.648.261-.156.567-.234.916-.234.29 0 .55.057.777.17.23.113.415.271.558.476.143.204.234.443.273.716h-.86a.898.898 0 0 0-.139-.331.636.636 0 0 0-.249-.215.768.768 0 0 0-.348-.075.75.75 0 0 0-.458.143.927.927 0 0 0-.297.39 1.402 1.402 0 0 0-.102.543c0 .216.034.406.102.568.068.16.166.286.295.375.13.088.284.132.463.132.131 0 .249-.026.353-.078a.668.668 0 0 0 .258-.222.809.809 0 0 0 .13-.341h.862c-.025.27-.106.51-.244.719a1.42 1.42 0 0 1-.555.487 1.753 1.753 0 0 1-.8.175zm-5.693-3.571v3.513h.858v-1.335h1.264v-.656h-1.264v-.803h1.427v-.719Zm2.665 0v3.513h.868v-3.513Z" fill="#fff"/></g><defs><clipPath id="a"><path fill="#fff" transform="translate(10.2 10.2)" d="M0 0h19.6v19.6H0z"/></clipPath></defs></svg>