<svg width="40" height="40" fill="none" xmlns="http://www.w3.org/2000/svg"><path d="M8.8 13.5v-.98L20 7.54l11.2 4.978v.98L20 18.478Z" stroke="#fff" stroke-width="2"/><path fill-rule="evenodd" clip-rule="evenodd" d="m10.2 13.943-2.8-.934v14.946a.7.7 0 0 0 .416.64l11.9 5.288a.7.7 0 0 0 .568 0l11.9-5.289a.7.7 0 0 0 .416-.64V13.01l-2.8.934V26.589L20 30.945l-9.8-4.356v-7.872zm9.206 8.866.594.264.594-.264z" fill="#fff" style="stroke-width:1.4"/><path d="M20 31.21v-11.9M26.3 29.81v-14.7L14.4 9.865" stroke="#fff" stroke-width="2"/></svg>