<svg width="40" height="40" fill="none" xmlns="http://www.w3.org/2000/svg"><path fill-rule="evenodd" clip-rule="evenodd" d="M24.495 6.195a.7.7 0 0 0-.472-.183h-2.017l-.13.012a.7.7 0 0 0-.496.375l-1.207 2.413-2.595 2.595-.071.084a.7.7 0 0 0-.134.41v2.987l.009.108a.7.7 0 0 0 .122.298l3.37 4.718-1.984 1.983-.07.082a.7.7 0 0 0-.099.192l-1.256 3.768-.03.134a.7.7 0 0 0 .068.4l1.27 2.54-1.16 2.903-.035.114a.7.7 0 0 0 .371.772l1.911.955.122.048a.7.7 0 0 0 .504-.048l5.287-2.643 5.07-1.268.112-.038a.7.7 0 0 0 .418-.64v-7.673l-.01-.118a.702.702 0 0 0-.078-.222l-3.412-6.141.638-4.464.006-.132a.7.7 0 0 0-.31-.549l-1.734-1.155-1.89-2.52zm-1.97 4.173.646-1.292 1.278 1.704a.7.7 0 0 0 .171.162l.93.62-.549 3.853a.7.7 0 0 0 .081.439l3.49 6.283v5.488l-3.702.926a.697.697 0 0 0-.143.053l-3.421 1.71.417-1.038a.7.7 0 0 0-.024-.573l-1.303-2.607.824-2.474 2.89-2.888a.7.7 0 0 0 .076-.902l-4.014-5.619v-1.442l2.222-2.22a.7.7 0 0 0 .131-.183zM14.814 15.432a.7.7 0 0 0-.73-.11l-4.059 1.739-.104.055a.7.7 0 0 0-.31.473l-.638 3.823-1.139 2.277-.045.116a.7.7 0 0 0 .252.757l1.986 1.49.112.069a.7.7 0 0 0 .621-.003l4.938-2.468.1-.061a.7.7 0 0 0 .26-.373l1.216-4.257.024-.132a.7.7 0 0 0-.15-.497l-2.242-2.802zm-2.632 3.75 1.536-.657.565.707-.663 2.325-2.12 1.059.166-.329z" fill="#fff" style="stroke-width:1.4"/></svg>