<svg width="40" height="40" fill="none" xmlns="http://www.w3.org/2000/svg"><path fill-rule="evenodd" clip-rule="evenodd" d="M7.489 11.174a3.487 3.487 0 0 1 3.487-3.487h12.941a3.487 3.487 0 0 1 3.488 3.487v2.016h1.62a3.487 3.487 0 0 1 3.486 3.487v15.372h-.031a1.12 1.12 0 0 1-1.113.988H8.645a1.12 1.12 0 0 1-1.112-.988h-.044ZM30.11 30.636v-13.96c0-.6-.486-1.085-1.086-1.085h-1.62v15.045zm-5.106-19.462v19.462H9.89V11.174c0-.6.486-1.086 1.086-1.086h12.941c.6 0 1.087.486 1.087 1.086zm-13.12 2.431c0-.505.41-.915.914-.915h9.297c.505 0 .915.41.915.915v.572c0 .505-.41.914-.915.914h-9.296a.915.915 0 0 1-.915-.914zm0 4.385c0-.505.41-.915.914-.915h9.297c.505 0 .915.41.915.915v.571c0 .506-.41.915-.915.915h-9.296a.915.915 0 0 1-.915-.915zm.914 3.47a.915.915 0 0 0-.914.914v.572c0 .505.41.915.914.915h9.297c.505 0 .915-.41.915-.915v-.572a.915.915 0 0 0-.915-.914zm-.914 5.299c0-.505.41-.915.914-.915h9.297c.505 0 .915.41.915.915v.571c0 .506-.41.915-.915.915h-9.296a.915.915 0 0 1-.915-.915z" fill="#fff" style="stroke-width:1.4"/></svg>