<svg width="40" height="40" fill="none" xmlns="http://www.w3.org/2000/svg"><path fill-rule="evenodd" clip-rule="evenodd" d="m9.786 9.55.13.009 8.005 1.332 7.543.686a.708.708 0 0 1 .17.037l.08.034 2.681 1.34 3.203-2.561a.7.7 0 0 1 .521-.149l.138.031 1.26.42a.7.7 0 0 1 .467.538l.011.126v2.882l-.009.112-.027.11-1.364 4.092v1.906a.697.697 0 0 1-.045.246l-.054.114-2 3.334 1.878 5.01a.7.7 0 0 1-.23.802l-.112.07-.541.27a.7.7 0 0 1-.48.054l-.117-.04-5.999-2.666h-2.8l-2.8 1.149v-3.196l1.907-.71a.702.702 0 0 1 .244-.043h3.895a.7.7 0 0 1 .284.06l2.598 1.153-.705-1.879a.7.7 0 0 1 .055-.606l2.121-3.538a.7.7 0 0 0 .1-.36l.001-1.472c0-.074.012-.149.036-.22l1.18-3.547-1.916 1.534a.7.7 0 0 1-.75.08l-3.53-1.766-7.277-.663-6.825-1.136-.768 1.027-1.006 3.52H6.028l1.332-4.663a.701.701 0 0 1 .066-.157l.047-.07L9.24 9.828a.7.7 0 0 1 .546-.28Z" fill="#fff" style="stroke-width:1.4"/><path d="M8.487 19.82v11.087c0 .1.068.168.168.168h4.25c2 0 3.394-.857 3.949-2.57.201-.639.302-1.277.302-3.142s-.1-2.503-.302-3.141c-.555-1.714-1.949-2.57-3.948-2.57h-4.25c-.101 0-.169.066-.169.167zm2.47 8.954v-6.821c0-.067.034-.101.1-.101h1.294c1.143 0 1.832.336 2.117 1.26.118.336.185.773.185 2.251 0 1.479-.067 1.915-.185 2.251-.285.924-.974 1.26-2.117 1.26h-1.293c-.067 0-.101-.033-.101-.1z" fill="#fff" style="stroke-width:1.4"/></svg>