<svg width="40" height="40" fill="none" xmlns="http://www.w3.org/2000/svg"><path fill-rule="evenodd" clip-rule="evenodd" d="M11.06 10.704a1.544 1.544 0 0 1 1.027-.69l7.637-1.388.234-.023a.84.84 0 0 1 .084 0l.234.023 7.637 1.388c.423.077.796.327 1.027.69l4.819 7.569a1.543 1.543 0 0 1-.243 1.95L21.061 31.982a1.545 1.545 0 0 1-2.121 0L6.484 20.224a1.543 1.543 0 0 1-.242-1.951zm15.807 1.973-3.856-.701 2.805 6.41 4.34-.542zm1.899 8.17-2.926.365-1.789 4.085zm-6-2.425L20 12.1l-2.768 6.322zm-5.534 2.807h5.535L20 27.55zm-3.048-2.844 2.806-6.41-3.859.702-3.288 5.167zm-2.951 2.461 2.927.366 1.789 4.086z" fill="#fff" style="stroke-width:1.4"/></svg>