<svg width="40" height="40" fill="none" xmlns="http://www.w3.org/2000/svg"><path fill-rule="evenodd" clip-rule="evenodd" d="M30.128 21.163c-.577 5.083-4.891 9.031-10.128 9.031-5.63 0-10.194-4.564-10.194-10.194 0-5.223 3.93-9.53 8.993-10.123v8.942a2.344 2.344 0 0 0 2.344 2.344zm-.009-2.4H21.2V9.876a10.198 10.198 0 0 1 8.92 8.885zM32.577 20c0 6.946-5.631 12.577-12.577 12.577S7.423 26.947 7.423 20c0-6.945 5.631-12.576 12.577-12.576S32.577 13.054 32.577 20z" fill="#fff" style="stroke-width:1.4"/></svg>