<svg width="40" height="40" fill="none" xmlns="http://www.w3.org/2000/svg"><path fill-rule="evenodd" clip-rule="evenodd" d="M20.156 14.169h-.312c0-3.354-13.531-3.667-13.531-6.777H6v3.25c0 3.874 13.583 3.51 13.844 7.228h.312C20.417 14.15 34 14.516 34 10.64v-3.25h-.313c0 3.094-13.53 3.476-13.53 6.778zm13.531.577c0 3.093-13.53 3.475-13.53 6.776h-.313c0-3.353-13.531-3.666-13.531-6.776H6v3.249c0 3.875 13.583 3.51 13.844 7.229h.312C20.417 21.505 34 21.87 34 17.994v-3.248zm0 7.384c0 3.093-13.53 3.476-13.53 6.777h-.313c0-3.354-13.531-3.666-13.531-6.777H6v3.25c0 3.875 13.583 3.51 13.844 7.228h.312C20.417 28.89 34 29.255 34 25.38v-3.25Z" fill="#fff" style="stroke-width:1.4"/></svg>