<svg width="40" height="40" fill="none" xmlns="http://www.w3.org/2000/svg"><mask id="a" mask-type="alpha" maskUnits="userSpaceOnUse" x="10" y="18" width="20" height="4"><path fill="#fff" d="M10 18.358h20v3.284H10z"/></mask><g mask="url(#a)" transform="matrix(1.4 0 0 1.4 -8 -8)" fill-rule="evenodd" clip-rule="evenodd" fill="#004b87"><path d="M12.607 19.041h.01a.13.13 0 0 1 .004.035c0 .051.007.103.01.151.01.244.024.488.035.728.017.279.03.557.048.835.014.25.024.498.041.752 0 .014 0 .028.003.042.196.01.392.007.588-.007v-.048a313.32 313.32 0 0 1-.048-.804l-.052-.804-.03-.532-.056-.89c0-.035-.006-.076-.01-.11h-.955a7.55 7.55 0 0 0-.058.268l-.062.268c-.017.089-.038.182-.059.268-.017.089-.04.178-.058.268-.02.089-.038.178-.058.264l-.059.268c-.02.09-.04.179-.058.268-.02.09-.035.182-.055.271-.014.09-.034.18-.059.265-.051-.203-.085-.402-.133-.601l-.134-.605a68.823 68.823 0 0 1-.138-.604l-.137-.598c-.076-.01-.904-.007-.938.003L10 21.584c.189.01.378.01.563 0 0-.018.007-.035.007-.055l.041-.784.021-.405.041-.852.02-.412c.004-.014.004-.024.008-.034h.01l.196.848c.065.282.134.567.2.852l.195.849h.715c.195-.852.391-1.701.59-2.55zm11.993.23v2.32c.189.006.381.006.57 0v-1.244c.004-.01.004-.024 0-.031a.659.659 0 0 1 .048-.316.45.45 0 0 1 .292-.271.617.617 0 0 1 .21-.024.427.427 0 0 1 .419.316.957.957 0 0 1 .038.295v1.278h.57V20.216c0-.11-.017-.22-.048-.326a.867.867 0 0 0-1.02-.653.673.673 0 0 0-.505.361l-.021.028h-.01v-.354c-.182-.004-.361 0-.547-.004v.004zm5.393 1.711-.038.018c-.199.116-.432.164-.663.13a.587.587 0 0 1-.49-.367.845.845 0 0 1-.018-.615.57.57 0 0 1 .409-.399.88.88 0 0 1 .378-.02c.134.02.264.065.38.13.011.007.025.01.042.017v-.415c0-.1 0-.1-.093-.138a1.395 1.395 0 0 0-.81-.075 1.122 1.122 0 0 0-.794.597 1.196 1.196 0 0 0-.117.828c.069.44.392.8.825.914.199.058.409.069.611.031.12-.02.237-.055.347-.107A.06.06 0 0 0 30 21.45v-.426c-.003-.01-.003-.024-.007-.045Zm-9.526.602c.193.01.382.01.574-.007v-1.134c0-.082.007-.161.02-.237a.466.466 0 0 1 .35-.395.713.713 0 0 1 .351-.007l.052.01v-.532a.32.32 0 0 0-.148-.034.544.544 0 0 0-.474.161.846.846 0 0 0-.151.227c-.007.014-.014.024-.017.034h-.01v-.402h-.547zm6.665-2.312v1.666c0 .065.006.127.013.192a.543.543 0 0 0 .44.47c.13.028.261.032.392.011.037-.003.072-.01.11-.017v-.447h-.059a1.307 1.307 0 0 1-.117.007.192.192 0 0 1-.202-.178V19.272zm.295-.237c.189 0 .34-.152.344-.337a.34.34 0 0 0-.68-.003v.003c0 .185.15.337.336.337z"/><path d="M12.607 19.041c-.195.849-.395 1.697-.587 2.546h-.715c-.065-.282-.13-.567-.199-.849-.065-.281-.13-.566-.2-.851-.064-.282-.126-.564-.191-.846H10.7c-.004.01-.007.021-.007.031l-.02.413-.042.852-.02.405-.042.783c0 .02-.003.038-.007.055a5.14 5.14 0 0 1-.563 0l.189-3.191c.038-.01.862-.014.941-.004l.134.602.134.6.134.605c.045.2.08.402.134.601.024-.082.045-.171.059-.26l.051-.269.062-.268.058-.267c.017-.09.038-.18.059-.265.017-.086.037-.179.058-.268.02-.09.038-.179.059-.268.02-.09.04-.179.058-.268l.062-.271h.955c0 .038.007.075.01.113l.055.886c.007.18.017.358.03.536.015.268.035.536.049.804.014.175.02.35.034.526.004.093.01.185.018.275v.051a4.797 4.797 0 0 1-.588.004c-.003-.014-.003-.028-.007-.042-.01-.25-.024-.501-.038-.752-.017-.278-.034-.553-.048-.831-.013-.244-.024-.488-.034-.729 0-.051-.007-.103-.01-.15 0-.014-.004-.025-.007-.035zm5.191-.656h.574v.876c.034.01.57.014.642 0a.881.881 0 0 0 0-.134v-.401c.038-.01.481-.014.57-.007a.856.856 0 0 1 0 .134v.415h.615v.46h-.611v1.086a.629.629 0 0 0 .02.141.25.25 0 0 0 .186.185c.082.021.165.028.247.014.052-.003.103-.014.155-.024.014.158.017.313.007.47l-.114.021a1.366 1.366 0 0 1-.501-.006.641.641 0 0 1-.543-.536 1.345 1.345 0 0 1-.02-.289v-1.055h-.646c0 .018-.004.031-.004.045v1.127c0 .041.004.079.014.12a.154.154 0 0 0 .155.12h.15v.447a.925.925 0 0 0-.096.017.917.917 0 0 1-.374-.014.49.49 0 0 1-.344-.302l-.02-.052-.007-.003c-.01.01-.02.02-.028.034a.845.845 0 0 1-.59.354 1.028 1.028 0 0 1-1.062-.532 1.327 1.327 0 0 1-.151-.526c-.017-.192 0-.391.058-.58.07-.24.22-.45.426-.591.155-.09.323-.138.498-.151a.809.809 0 0 1 .745.25l.028.028.014.003c.004-.127 0-.254 0-.381v-.374zm-1.182 2.068c0 .083.01.169.031.251.031.138.107.258.22.344.165.12.381.147.57.072a.55.55 0 0 0 .34-.357.985.985 0 0 0 .01-.63.566.566 0 0 0-.59-.428.535.535 0 0 0-.502.326.927.927 0 0 0-.079.422zm-.934.488v.464a1.636 1.636 0 0 1-.993.23 1.686 1.686 0 0 1-.47-.096 1.033 1.033 0 0 1-.688-.831 1.42 1.42 0 0 1 .097-.835c.165-.364.47-.567.862-.632.203-.038.412-.024.608.048.32.11.567.374.653.7.051.172.068.348.048.526-.004.062-.01.12-.017.186h-1.687a.554.554 0 0 0 .09.213c.078.1.188.172.312.206.113.03.233.045.354.045.237 0 .47-.049.683-.148.048-.02.096-.048.148-.076zm-1.598-.68c.01 0 .021.004.031.004h1.096c.014 0 .028-.004.042-.004A.854.854 0 0 0 15.19 20a.479.479 0 0 0-.279-.258c-.103-.034-.21-.044-.32-.034a.537.537 0 0 0-.319.137.628.628 0 0 0-.185.392v.024zm8.994-1.027a1.18 1.18 0 0 1 .598.14c.254.131.446.361.536.633.106.295.1.615-.018.903-.116.31-.37.55-.687.653a1.277 1.277 0 0 1-.962-.028c-.35-.14-.604-.45-.673-.817a1.234 1.234 0 0 1 .059-.763c.137-.347.436-.604.8-.683.113-.028.23-.041.347-.038zm-.02.474-.056.003a.574.574 0 0 0-.518.389.933.933 0 0 0-.014.611.583.583 0 0 0 .306.368.677.677 0 0 0 .378.058.563.563 0 0 0 .49-.381.963.963 0 0 0 .015-.622.554.554 0 0 0-.176-.282.618.618 0 0 0-.426-.144Zm1.542-.436h.546v.35h.01c.007-.01.01-.02.017-.027a.689.689 0 0 1 .509-.364.892.892 0 0 1 .742.192.895.895 0 0 1 .275.464c.03.103.048.213.048.322v1.344a.057.057 0 0 1 0 .034h-.57v-1.271a.885.885 0 0 0-.038-.299.421.421 0 0 0-.42-.313.607.607 0 0 0-.205.025.436.436 0 0 0-.292.271.62.62 0 0 0-.049.316V21.587a5.33 5.33 0 0 1-.573 0zm5.393 1.707v.47a.056.056 0 0 1-.041.062c-.11.052-.227.09-.344.107a1.33 1.33 0 0 1-.615-.031 1.125 1.125 0 0 1-.824-.914 1.231 1.231 0 0 1 .124-.831c.161-.31.457-.53.8-.59.271-.056.553-.032.81.075.094.037.094.037.094.137v.412c-.018-.007-.028-.01-.042-.017a1.149 1.149 0 0 0-.377-.13.892.892 0 0 0-.382.02.582.582 0 0 0-.409.399c-.068.199-.061.419.018.615a.597.597 0 0 0 .494.37c.227.032.46-.017.66-.133zm-9.526.605v-2.316h.546v.399h.01a.108.108 0 0 0 .018-.035.78.78 0 0 1 .154-.226.543.543 0 0 1 .471-.162c.052 0 .103.014.148.035v.532l-.052-.01a.806.806 0 0 0-.35.007.462.462 0 0 0-.347.395 1.357 1.357 0 0 0-.024.237v1.137a3.99 3.99 0 0 1-.574.007zm6.665-2.312h.573v1.697c0 .103.086.189.193.189h.017c.038 0 .079-.004.117-.007h.058v.443c-.038.007-.072.014-.11.017-.13.02-.264.017-.395-.01a.536.536 0 0 1-.436-.47 1.182 1.182 0 0 1-.014-.193V19.34zm.295-.237a.339.339 0 1 1 .003 0z"/></g></svg>