<svg width="40" height="40" fill="none" xmlns="http://www.w3.org/2000/svg"><path fill-rule="evenodd" clip-rule="evenodd" d="M10.2 9.5a.7.7 0 0 1 .7-.7h1.4a.7.7 0 0 1 .7.7v2.1h14V9.5a.7.7 0 0 1 .7-.7h1.4a.7.7 0 0 1 .7.7v2.1h3.5a.7.7 0 0 1 .7.7v8.4a.7.7 0 0 1-.7.7h-3.5v9.1a.7.7 0 0 1-.7.7h-1.4a.7.7 0 0 1-.7-.7v-9.1H13v9.1a.7.7 0 0 1-.7.7h-1.4a.7.7 0 0 1-.7-.7v-9.1H6.7a.7.7 0 0 1-.7-.7v-8.4a.7.7 0 0 1 .7-.7h3.5zm4.873 9.1-3.36-4.2h4.814l3.36 4.2zm8.4 0h4.814l-3.36-4.2h-4.814Zm7.727-4.2v3.359L28.513 14.4Zm-22.4.841 2.687 3.359H8.8Z" fill="#fff" style="stroke-width:1.4"/></svg>