<svg width="40" height="40" fill="none" xmlns="http://www.w3.org/2000/svg"><path fill-rule="evenodd" clip-rule="evenodd" d="M6.756 8.664c-.476.934-.476 2.156-.476 4.6v13.471c0 2.445 0 3.668.476 4.602a4.364 4.364 0 0 0 1.908 1.907c.934.476 2.156.476 4.6.476h13.471c2.445 0 3.668 0 4.602-.476a4.364 4.364 0 0 0 1.907-1.907c.476-.934.476-2.157.476-4.602v-13.47c0-2.445 0-3.667-.476-4.601a4.364 4.364 0 0 0-1.907-1.908c-.934-.476-2.157-.476-4.602-.476h-13.47c-2.445 0-3.667 0-4.601.476a4.364 4.364 0 0 0-1.908 1.908Zm2.422 6.67V9.627h1.718l1.088 2.807c.098.267.207.569.329.907h.008c.119-.338.227-.64.324-.907l1.085-2.807h1.71v5.709h-1.314v-3.559h-.008c-.053.145-.113.307-.182.487-.066.18-.136.363-.21.55l-.986 2.522h-.867l-.985-2.522c-.072-.187-.14-.37-.206-.55a88.63 88.63 0 0 0-.182-.491h-.008v3.563zm0 3.023v5.709h2.01c.618 0 1.146-.12 1.584-.36.438-.24.77-.575.994-1.002.224-.428.336-.922.336-1.485 0-.562-.112-1.058-.336-1.488a2.38 2.38 0 0 0-.994-1.01c-.438-.242-.966-.364-1.583-.364zm2.806 4.37c-.227.14-.496.21-.807.21h-.626v-3.451h.622c.311 0 .58.072.807.217.23.143.405.345.527.606.124.261.186.565.186.91 0 .344-.06.646-.182.907-.122.259-.297.46-.527.602zm4.133-4.37-1.971 5.709h1.508l.336-1.113h1.992l.336 1.113h1.508l-1.971-5.709Zm1.564 3.551h-1.386l.448-1.464c.073-.249.15-.519.23-.812h.03c.077.293.153.563.226.812zm2.288 2.158 1.837-2.866-1.853-2.843h1.655l1.049 1.77c.031.055.068.116.11.182h.009a27.1 27.1 0 0 1 .102-.182l1.042-1.77h1.58L23.717 21.2l1.904 2.866H23.97l-1.112-1.83a3.12 3.12 0 0 0-.1-.165h-.007c-.037.058-.07.113-.1.166l-1.108 1.829z" fill="#fff" style="stroke-width:1.4"/></svg>