<svg width="40" height="40" fill="none" xmlns="http://www.w3.org/2000/svg"><path fill-rule="evenodd" clip-rule="evenodd" d="M20.209 9.208A2.8 2.8 0 0 1 22.799 12h-5.6l.009-.209A2.8 2.8 0 0 1 20 9.2Zm-5.81 5.592v3.5a.7.7 0 0 0 .7.7h1.4a.7.7 0 0 0 .7-.7v-3.5h5.6v3.5a.7.7 0 0 0 .7.7h1.4a.7.7 0 0 0 .7-.7v-3.5h2.994l.998 14H10.404l1.001-14zm0-2.8a5.6 5.6 0 0 1 11.2 0h4.95a.7.7 0 0 1 .698.65l1.3 18.2a.7.7 0 0 1-.649.748l-.05.002H8.152a.7.7 0 0 1-.7-.7l1.302-18.25a.7.7 0 0 1 .698-.65Z" fill="#fff" style="stroke-width:1.4"/></svg>