<svg width="40" height="40" fill="none" xmlns="http://www.w3.org/2000/svg"><path fill-rule="evenodd" clip-rule="evenodd" d="m30.085 10.701.25.25c2.622 2.735 3.412 7.276-.049 11.612-2.064 2.585-5.05 5.17-8.96 7.755l-.7.456a1.4 1.4 0 0 1-1.466.03c-4.674-2.745-7.904-5.475-9.69-8.19-2.817-4.284-2.703-8.842 0-11.664 2.622-2.736 6.823-2.82 9.54-.249l.25.25.643.67.643-.67c2.621-2.737 6.822-2.82 9.539-.25zm-2.121 1.86c-1.539-1.284-3.72-1.231-5.206.14l-.19.186-2.665 2.782-2.617-2.733-.2-.2c-1.61-1.522-4.047-1.464-5.593.151-1.767 1.845-1.79 4.986.317 8.188 1.381 2.1 3.935 4.34 7.67 6.652l.356.218.586-.392c3.155-2.144 5.6-4.259 7.338-6.325l.338-.412c2.233-2.797 2.18-5.686.448-7.677l-.185-.203-.224-.223z" fill="#fff" style="stroke-width:1.4"/></svg>