<svg width="40" height="40" fill="none" xmlns="http://www.w3.org/2000/svg"><circle cx="20" cy="20" r="12.6" stroke="#fff" stroke-width="2"/><path fill-rule="evenodd" clip-rule="evenodd" d="m27 17.593 4.54-1.135-.68-2.716-6.13 1.532a.7.7 0 0 0-.53.68v3.636a.7.7 0 0 0 .205.495l2.749 2.748 1.3 4.552 2.692-.77-1.5-5.248L27 18.72ZM22.8 7.4v3.15a.7.7 0 0 1-.28.56l-2.888 2.166-1.475 2.212a.7.7 0 0 1-.582.312h-2.051l-.72.48.047.09 1.622 1.623 4.056.676a.7.7 0 0 1 .468.302l1.886 2.83a.7.7 0 0 1-.087.883L19.75 25.73l-1.215 2.43-.663 3.316-2.746-.55.719-3.592a.707.707 0 0 1 .06-.175l1.493-2.986a.698.698 0 0 1 .13-.182l2.07-2.068-.427-.64-3.823-.638a.7.7 0 0 1-.38-.195l-2.34-2.34a.698.698 0 0 1-.13-.181l-1.028-2.055a.7.7 0 0 1 .238-.895l2.79-1.86a.7.7 0 0 1 .389-.118h1.563l1.05-1.576a.698.698 0 0 1 .163-.172L20 9.5V7.4Z" fill="#fff" style="stroke-width:1.4"/><path fill-rule="evenodd" clip-rule="evenodd" d="m8.026 17.348 4.302 2.15a.698.698 0 0 1 .182.132l1.786 1.786a.7.7 0 0 1 .169.716l-.765 2.295V29.8h-2.8v-5.714c0-.075.012-.15.036-.22l.462-1.388-.627-.627-3.997-1.999z" fill="#fff" style="stroke-width:1.4"/></svg>