<svg width="40" height="40" fill="none" xmlns="http://www.w3.org/2000/svg"><g clip-path="url(#a)" transform="matrix(1.4 0 0 1.4 -8 -8)" fill-rule="evenodd" clip-rule="evenodd" fill="#f1c931"><path d="M23.442 10.983c1.318.372 2.606.745 3.923.945h.945c.573 0 .945-.2 1.49-.372h.2c0 .2 0 .2-.2.372-.745.573-1.49.945-2.234 1.117-.2 0-.573.2-.744.2-.945.373-2.062.373-2.979.373-1.86-.2-3.55-.745-5.412-.745-1.69-.2-3.35.573-4.295 1.861-.2.745-.573 1.49-.573 2.234s1.117.945 1.49 1.489l.572 1.117c.2.744.573 1.489 1.117 2.233.372.373.744.945 1.317 1.117.745.573 1.317 1.117 1.69 1.861.372.745.744 1.318.945 2.062.2.372.372.745.372 1.317v.2c.2.373.2.745.372.946v.2c0 .2.2.573 0 .573-.372-.372-.573-.745-.744-1.117-.201-.744-.745-1.489-1.318-2.233-.372-.373-.744-.945-1.117-1.318-1.489-1.69-3.722-2.806-5.412-4.295 0 0 0-.2-.2-.372-.2-.372-.372-.573-.573-.945-.372-.745-.945-1.49-1.317-2.434 0-.372-.2-.745-.2-1.117v-.2c0-.373-.945-.573-.373-1.318.373-.372 1.49-.744 1.862-1.489v-.372s0-.2-.2-.2c-.201 0-.745.372-.745-.2v-.574c.2-.372.2-.744.2-1.116 0-.2.2-.2.372-.2s.573-.201.745-.201c.573 0 1.317 0 1.69.372.2.372 0 .745 0 1.117s-.373.572-.201.744h.372c.745-.572 1.49-1.317 2.234-2.062.572-.572 1.489-.744 2.233-.572 1.69.057 3.007.63 4.697 1.002z"/><path d="M19.147 13.961c.2.372 0 .573-.2.945-.945 1.317-1.317 2.978-1.862 4.496h-.2c-.2 0-.2-.2-.2-.372 0-1.69.572-3.179 1.317-4.668.2-.2.372-.573.744-.372.2-.2.2-.029.401-.029zm2.606.372c.2.573-.2.945-.372 1.49-.945 1.86-2.062 3.722-2.606 5.784 0 0 0 .2-.2.2h-.201c-.2-.744 0-1.69.2-2.434.573-1.69 1.117-3.35 2.062-5.04.2 0 .2-.2.2-.2.344.029.716.029.917.2zm2.606.2c.2.201.2.574 0 .745-1.117 2.434-2.807 4.496-3.551 7.102l-.573 1.69c0 .2-.2.2-.2 0-.2-.201 0-.573 0-.745.2-2.062.744-4.095 1.69-5.784.372-.945.944-1.69 1.317-2.606.2-.2.372-.573.744-.573.2-.029.401-.029.573.172zm3.006.173c.201.372 0 .572 0 .945-.744 1.861-2.061 3.55-2.978 5.412-.945 1.489-1.489 3.178-2.061 4.667-.2.573-.373.945-.573 1.49h-.2c-.2-.201-.2-.373-.2-.573.2-2.062.944-3.723 1.689-5.613.944-2.062 2.061-3.923 2.978-5.985.2-.2.372-.572.744-.744.2.028.401.028.601.4z"/></g><defs><clipPath id="a"><path fill="#fff" d="M0 0h40v40H0z"/></clipPath></defs></svg>