<svg width="40" height="40" fill="none" xmlns="http://www.w3.org/2000/svg"><g clip-path="url(#a)" transform="matrix(1.4 0 0 1.4 -8 -8)"><path fill-rule="evenodd" clip-rule="evenodd" d="M10.54 11.903c-.34.667-.34 1.54-.34 3.286v9.622c0 1.746 0 2.62.34 3.287a3.117 3.117 0 0 0 1.363 1.362c.667.34 1.54.34 3.286.34h9.622c1.746 0 2.62 0 3.287-.34a3.117 3.117 0 0 0 1.362-1.362c.34-.667.34-1.54.34-3.287V15.19c0-1.746 0-2.62-.34-3.286a3.117 3.117 0 0 0-1.362-1.363c-.667-.34-1.54-.34-3.287-.34H15.19c-1.746 0-2.62 0-3.286.34a3.117 3.117 0 0 0-1.363 1.363zm11.857 4.803c-.402 0-.754-.09-1.058-.268a1.832 1.832 0 0 1-.703-.74 2.297 2.297 0 0 1-.246-1.072c0-.4.081-.757.243-1.071.162-.317.393-.564.692-.743.3-.179.65-.268 1.05-.268.333 0 .63.065.893.195.262.129.475.31.636.545a1.9 1.9 0 0 1 .316.82h-.985a1.031 1.031 0 0 0-.16-.38.756.756 0 0 0-.284-.245.887.887 0 0 0-.402-.086.86.86 0 0 0-.525.164c-.147.11-.26.259-.338.447a1.605 1.605 0 0 0-.117.623c0 .247.038.464.115.65a.961.961 0 0 0 .34.43c.149.1.326.15.53.15a.89.89 0 0 0 .402-.089.766.766 0 0 0 .296-.254.903.903 0 0 0 .15-.39h.99a1.79 1.79 0 0 1-.283.823c-.158.238-.37.424-.636.558a2.009 2.009 0 0 1-.916.201zm-4.748-.15c.24.1.53.15.871.15.337 0 .623-.047.86-.142a1.12 1.12 0 0 0 .541-.43c.125-.194.187-.433.187-.718 0-.27-.06-.485-.178-.647a1.126 1.126 0 0 0-.503-.377 4.531 4.531 0 0 0-.84-.229 2.032 2.032 0 0 1-.366-.098.425.425 0 0 1-.184-.128.345.345 0 0 1-.053-.198.41.41 0 0 1 .064-.232.401.401 0 0 1 .179-.148.655.655 0 0 1 .265-.05c.114 0 .211.021.293.064a.45.45 0 0 1 .19.187c.045.08.07.177.075.29h1.02a1.506 1.506 0 0 0-.224-.717 1.154 1.154 0 0 0-.528-.438 1.972 1.972 0 0 0-.8-.148c-.323 0-.598.053-.827.159a1.14 1.14 0 0 0-.52.455 1.374 1.374 0 0 0-.175.715c0 .25.058.456.173.614.117.156.281.278.491.365.212.086.482.157.81.213.156.027.278.06.365.097a.39.39 0 0 1 .187.145c.04.06.059.135.059.226a.382.382 0 0 1-.067.227.41.41 0 0 1-.19.14.867.867 0 0 1-.296.044.755.755 0 0 1-.346-.073.541.541 0 0 1-.215-.204.664.664 0 0 1-.078-.304h-1.024c.017.29.09.536.223.737.134.2.321.35.561.452zm-4.421-3.942h-1.212v4.025h.927v-2.512h.006c.09.247.182.492.273.734l.695 1.778h.611l.695-1.778c.094-.242.186-.486.277-.731h.005v2.509h.927v-4.025h-1.206l-.765 1.979-.228.64h-.006a111.4 111.4 0 0 0-.232-.64Zm12.432 0h-.993v4.025h.993z" fill="#fff"/></g><defs><clipPath id="a"><path fill="#fff" transform="translate(10.2 10.2)" d="M0 0h19.6v19.6H0z"/></clipPath></defs></svg>