<svg width="40" height="40" fill="none" xmlns="http://www.w3.org/2000/svg"><g clip-path="url(#a)" transform="matrix(1.4 0 0 1.4 -8 -8)"><path fill-rule="evenodd" clip-rule="evenodd" d="M10.54 11.903c-.34.667-.34 1.54-.34 3.286v9.622c0 1.746 0 2.62.34 3.287a3.117 3.117 0 0 0 1.363 1.362c.667.34 1.54.34 3.286.34h9.622c1.746 0 2.62 0 3.287-.34a3.117 3.117 0 0 0 1.362-1.362c.34-.667.34-1.54.34-3.287V15.19c0-1.746 0-2.62-.34-3.286a3.117 3.117 0 0 0-1.362-1.363c-.667-.34-1.54-.34-3.287-.34H15.19c-1.746 0-2.62 0-3.286.34a3.117 3.117 0 0 0-1.363 1.363zm1.684 4.167v-3.513h.868v2.784h1.374v.729zm2.346 0 1.213-3.513h1.07l1.213 3.513h-.928l-.207-.685h-1.225l-.208.685zm1.323-1.328h.853l-.278-.901c-.045-.153-.092-.32-.139-.5h-.02c-.048.18-.095.347-.14.5zm2.882-1.461v2.789h.86v-2.79h.952v-.723h-2.765v.724zm2.17 2.789v-3.513h.868v3.513zm1.438-3.513v3.513h.826v-2.13h.005c.058.1.116.196.172.29l1.111 1.84h.86v-3.513l-.823.002v2.152h-.005a20.915 20.915 0 0 1-.173-.29l-1.12-1.864zm-10.41 9.073 1.214-3.513h1.069l1.213 3.513h-.928l-.207-.685h-1.225l-.207.685zm1.323-1.328h.853l-.278-.901c-.045-.153-.092-.32-.139-.5h-.02c-.048.18-.095.347-.14.5zm2.495 1.328v-3.513h1.057l.67 1.727.202.558h.005c.073-.208.14-.394.2-.558l.667-1.727h1.053v3.513h-.81v-2.19h-.004l-.112.3c-.04.11-.084.222-.13.338l-.606 1.552h-.533l-.607-1.552a33.087 33.087 0 0 1-.127-.339l-.112-.302H16.6v2.193zm4.424-3.513v3.513h2.343v-.719h-1.486v-.746h1.277v-.635h-1.277v-.695h1.486v-.718zm-2.731 9.097c.265.156.573.234.926.234.3 0 .566-.058.799-.175.232-.117.417-.28.555-.487.138-.21.22-.45.244-.719h-.863a.807.807 0 0 1-.129.341.67.67 0 0 1-.258.222.779.779 0 0 1-.353.078.807.807 0 0 1-.463-.132.847.847 0 0 1-.295-.375 1.457 1.457 0 0 1-.102-.568c0-.198.034-.379.102-.543a.929.929 0 0 1 .297-.39.75.75 0 0 1 .458-.143.77.77 0 0 1 .349.075c.102.05.185.122.248.215a.9.9 0 0 1 .139.33h.86a1.634 1.634 0 0 0-.273-.715 1.44 1.44 0 0 0-.558-.475 1.714 1.714 0 0 0-.777-.17c-.35 0-.655.077-.916.233a1.572 1.572 0 0 0-.604.648 2.014 2.014 0 0 0-.212.935c0 .348.071.66.214.936.143.274.347.49.612.646zm-5.26.176v-3.513h1.499c.246 0 .46.045.638.137.18.089.317.216.412.382.094.164.14.357.14.58 0 .159-.025.306-.077.44a.959.959 0 0 1-.227.349.967.967 0 0 1-.363.22l.79 1.405h-.965l-.707-1.318h-.272v1.318zm1.345-1.959a.542.542 0 0 0 .341-.107c.093-.073.139-.183.139-.331a.43.43 0 0 0-.07-.258.375.375 0 0 0-.178-.14.651.651 0 0 0-.244-.043h-.465v.88zm1.813 1.959v-3.513h.867v3.513zm5.612 0h-.928l1.213-3.513h1.07l1.213 3.513h-.928l-.207-.685H21.2zm.395-1.328h.853l-.278-.901c-.046-.153-.092-.32-.14-.5h-.019c-.048.18-.095.347-.14.5z" fill="#fff"/></g><defs><clipPath id="a"><path fill="#fff" transform="translate(10.2 10.2)" d="M0 0h19.6v19.6H0z"/></clipPath></defs></svg>