<svg width="40" height="40" fill="none" xmlns="http://www.w3.org/2000/svg"><g clip-path="url(#a)" transform="matrix(1.4 0 0 1.4 -8 -8)"><path fill-rule="evenodd" clip-rule="evenodd" d="M10.54 11.903c-.34.667-.34 1.54-.34 3.286v9.622c0 1.746 0 2.62.34 3.287a3.117 3.117 0 0 0 1.363 1.362c.667.34 1.54.34 3.286.34h9.622c1.746 0 2.62 0 3.287-.34a3.117 3.117 0 0 0 1.362-1.362c.34-.667.34-1.54.34-3.287V15.19c0-1.746 0-2.62-.34-3.286a3.117 3.117 0 0 0-1.362-1.363c-.667-.34-1.54-.34-3.287-.34H15.19c-1.746 0-2.62 0-3.286.34a3.117 3.117 0 0 0-1.363 1.363zm6.209 4.68c.243.102.537.153.882.153.341 0 .632-.048.871-.145.24-.096.422-.24.549-.435.126-.196.19-.438.19-.727 0-.273-.061-.492-.182-.656a1.14 1.14 0 0 0-.509-.381 4.596 4.596 0 0 0-.85-.232 2.06 2.06 0 0 1-.371-.1.43.43 0 0 1-.187-.13.35.35 0 0 1-.054-.2c0-.09.022-.169.065-.235a.406.406 0 0 1 .181-.15.663.663 0 0 1 .269-.05c.115 0 .214.021.297.064a.454.454 0 0 1 .192.19c.045.081.07.179.077.294H19.2a1.525 1.525 0 0 0-.227-.727 1.17 1.17 0 0 0-.534-.444 2 2 0 0 0-.812-.15c-.326 0-.605.054-.837.162-.23.105-.405.259-.525.46-.12.2-.179.442-.179.724 0 .255.059.462.176.622.118.159.284.282.497.37.215.088.489.16.82.216.159.028.282.061.37.099a.398.398 0 0 1 .19.147c.04.06.06.136.06.229a.387.387 0 0 1-.068.229.415.415 0 0 1-.193.141.881.881 0 0 1-.3.045.765.765 0 0 1-.35-.073.548.548 0 0 1-.218-.206.672.672 0 0 1-.079-.309h-1.038c.017.294.093.543.227.747.135.202.325.354.568.458zm-3.783-.042c.252.128.562.192.93.192.37 0 .68-.064.93-.193.251-.128.439-.31.563-.545.126-.236.19-.515.19-.837V12.59h-1.007v2.503c0 .27-.056.47-.167.602-.111.13-.28.195-.509.195-.232 0-.403-.065-.515-.195-.11-.132-.166-.333-.166-.602V12.59h-1.007v2.568c0 .32.063.6.19.837.126.235.315.417.568.545z" fill="#fff"/></g><defs><clipPath id="a"><path fill="#fff" transform="translate(10.2 10.2)" d="M0 0h19.6v19.6H0z"/></clipPath></defs></svg>