<svg width="40" height="40" fill="none" xmlns="http://www.w3.org/2000/svg"><g clip-path="url(#a)" transform="matrix(1.4 0 0 1.4 -8.04 -8)"><mask id="b" mask-type="alpha" maskUnits="userSpaceOnUse" x="10" y="11" width="21" height="18"><path fill="#fff" d="M10.1 11.941h20v16.118h-20z"/></mask><g mask="url(#b)" fill-rule="evenodd" clip-rule="evenodd"><path d="m14.143 14.347.664-.37c.122.025.122.148.195.224.172-.05.098-.295.196-.42.098 0 .098.15.172.221.172 0 .122-.268.197-.392.097-.147.368-.097.319-.343l-.247-1.105c-.03-.132-.099-.192-.147-.173-.882.32-1.568.64-2.402.933-.073.024-.172.061-.269.024l-1.349-1.005c.074.587.148 1.129.197 1.474.008.063-.003.098-.05.098-.268 0-.527.191-.685.465-.231.4-.44.762-.834.934a.58.58 0 0 0 .367.318c.123.051.246.025.37.1 0 .048-.026.073-.051.12-.319.566.083 1.328-.53 1.745.27.122.678 0 .898-.246l.043.023c-.171.392-.24.844-.215 1.28 0 0 .018.102-.024.229 0 0-.046.142-.074.212.788-.129 1.083-1.138 1.142-1.311l.07.019s-.26.73-.035 1.046c.051.072.139.143.225.134.094-.354.29-.797.608-1.042.294.024.59.172.883.294.172-.417-.203-1.033-.203-1.033l.031-.024.05.051s.245.27.368.368c.146.099.587.195.832.049.088-.052.22-.171.245-.27-.785.05-.834-.933-1.2-1.4l.024-.024c.196.098.295.369.49.467 0 0 1.029.211 1.071.221.072.015.1-.1.1-.1.01-.033.109-.423.054-.611-.122-.076-.17.12-.269.12-.27-.073-.441-.097-.735-.22l-.492-.982c-.036-.074 0-.098 0-.098zm-.39-.639a.284.284 0 0 1-.295.294c-.147 0-.27-.122-.27-.294 0-.171.123-.293.27-.293.171 0 .295.122.295.293z" fill="#fff"/><path d="M15.204 22.555c-.307-.05-.647-.12-.963-.277 0 0-.072-.044-.072.025v.46c-.003.178.162.396.736.35 0 0 .104.21-.434.431-.201.081-.12.216-.12.216s.071.171.538.303c-.166.324-.549.344-.478.537 0 0 .045.143.334.22-.089.274-.354.37-.43.527-.08.169.169.298.147.311-.414.264-.72.625-.772.818-.146.418-.227.905-.322 1.314-.032.138-.197.256-.307.263-.403.014-.709 0-1.058-.004-.116 0-.066-.086-.066-.086.369-.664 1.213-1.21 1.077-2.03-.369-2.207-1.016-3.48-1.383-5.41-.14-.737-.157-1.49.077-2.109.062.303.429.583.72.574.123-.417.377-1.106.552-1.131.194-.025.872.325.872.325.196-.186.248-.46.264-.678.22.098.447.146.742.073.513-.149.586-.307.757-.504.195.65-.086 1.09-.157 1.318 0 0-.01.031.002.051.005.007.022.027.072.004.184-.087.373-.23.476-.318.13-.114.496-.571.496-.571.209.315.159.776.023 1.083 0 0-.062.117.085.09.37-.066.645-.775.904-.894 0 0 .025-.012.026.001.021.316.01.786.142 1.012 0 0 .03.062.072-.005.136-.215.372-.782.625-.833-.008.362.077.907.239.923.138.014.265-.347.327-.5.076-.183.175-.33.272-.33.023.32.144.8.406.807.123.004.095-.222.123-.388.047-.289.191-.367.191-.367.08.265.185.463.396.606.064.042.145.054.145-.066-.002-.26.053-.481.155-.575.01.039.064.126.106.184.116.153.24.229.418.175.08-.024.155-.121.17-.198-.14-.207-.323-.546-.346-.793-.05-.369.122-.688.417-.833.22-.124.54-.148.735.023a.604.604 0 0 1 .222.444.41.41 0 0 1-.197.366.299.299 0 0 1-.324-.023c-.09-.065-.167-.196-.24-.247-.074.171.048.37.147.492a.45.45 0 0 0 .565.105c.636-.466.514-.94.906-1.897a3.55 3.55 0 0 1 .383-.697 1.742 1.742 0 0 1 3.194.968 1.736 1.736 0 0 1-.592 1.307c-.13.109-.157.214-.093.263.195.147.245.172.392.345.612.736.882 1.595 1.226 2.453.088.209.212.463.367.615.263.259.507.35.857.394.032.004-.185.264-.023.367.12.077.486.047.61-.028.05.369-.524.516-.49.641.032.108.296.205.615.157-.077.283-.386.283-.391.457-.007.176.16.259.406.206 0 0-.09.148-.293.351-.223.224-.093.508-.093.508.092.2.187.429.424.622.163.132.29.203.387.327-.631.339-.489.909-.513 1.202-.017.091-.098.1-.098.1l-1.292.2c-.106.016-.186-.023-.064-.17.313-.372.704-.745.926-1.137a1.594 1.594 0 0 0-.203-.44c-.423-.676-.815-1.302-1.206-1.988-.044-.08-.171-.098-.171-.098-.955-.175-2.057-.467-2.767-.916-.052-.016-.05.049-.05.049 0 .18-.013.606.062.717.232.337.849.175.94.172-.023.234-.154.364-.391.514 0 0-.048.028-.027.07.035.086.244.041.435-.027-.1.366-.43.345-.402.475.018.079.125.152.238.147-.192.252-.465.29-.465.481l.05.87s0 .028-.013.043a.13.13 0 0 1-.062.031l-1.26.296a.095.095 0 0 1-.102-.04c-.032-.042.015-.11.015-.11l.808-1.228c.05-.27-.147-.44-.271-.662a3.35 3.35 0 0 0-.881-.81c-.264-.327-.283-.699-.34-.901-.022-.078-.104-.044-.172.019-.17.173-.335.38-.444.611-.055.115.047.199.2.24.093.024.248.042.414-.022.024.228-.25.397-.412.473 0 0-.054.023-.018.059.097.09.27.09.4.066 0 0-.042.22-.368.416-.263.16.167.147.228.12-.06.162-.297.368-.371.515-.167.331-.048.737-.073 1.106-.024.074-.102.109-.195.122l-1.325.048c-.078 0-.07-.093-.025-.146l.93-1.13c.074-.096.004-.16-.026-.2-.414-.54-.782-1.103-1.05-1.717-.195.024-.516.125-.561.318-.042.166.34.2.511.2 0 0 .029.172-.462.342 0 0-.266.086-.344.207 0 0-.03.037.01.064.104.082.38.088.42.088-.196.269-.765.258-.88.359-.057.052.07.168.405.163-.168.222-.454.188-.707.267 0 0-.114.023-.079.087.091.169.317.124.251.196-.09.102-.342.167-.477.21-.114.034-.17.102-.17.102-.098.1-.066.226-.13.387-.098.246-.233.527-.403.737 0 0-.026.042-.067.008l-.883-.712c-.076-.06-.035-.153-.035-.153.083-.175.266-.212.44-.315.234-.143.479-.297.69-.536.046-.052.052-.106.052-.106.102-.641.308-1.231.453-1.853.037-.192-.176-.148-.176-.148-.292.046-.768.178-1.558.106-.072-.006-.091.025-.151.162-.077.175-.176.297-.072.435.182.239.687.054.68.076-.171.428-.639.346-.83.596 0 0-.07.078-.012.143.054.064.255.092.576.011 0 0-.133.302-.423.392-.24.074-.391.103-.43.212-.021.085.055.154.431.117 0 0-.089.283-.431.382-.21.059-.252.196-.312.305-.145.267-.173.633-.35.88 0 0-.028.04-.087-.012l-.756-.668c-.029-.026-.042-.05-.042-.05-.073-.102.143-.21.225-.275.197-.158.522-.299.562-.613.059-.469-.128-.751-.254-1.152-.089-.287-.093-.652-.073-.938.005-.055-.036-.061-.036-.061zm7.56-4.469c-.014.016-.021.04.01.042.266 0 .562-.172.807-.343.313-.202.588-.548.801-.869a.984.984 0 0 0 1.652-.722c0-.545-.44-.99-.983-.99a.957.957 0 0 0-.098.001c-.44.025-.736.272-1.03.81-.243.468-.562 1.45-1.126 2.04 0 0-.013.011-.032.031z" fill="#f6e6b1"/><path d="M22.871 14.175c0-.1-.124-.246-.221-.295-.588-.343-1.177.098-1.765.098-.221 0-.442.05-.612-.072 0-.099.097-.124.097-.223-.146 0-.32-.048-.489-.073 0 0-.37-.026-.59-.098-.81-.343-1.568-.516-2.5-.074-.293.123-.586.245-.906.245-.147 0 .22.295.171.443-.49.074-.93.221-1.347.614v.024c.293.369.735.418 1.176.418.146 0 .417.344 1.103.442 1.004.196 1.593-.369 2.303-.074-.048-.124-.048-.196-.048-.295.834.222 1.495.196 2.134-.122.587-.149.857-.983 1.494-.958z" fill="#c53f60"/><path d="M30.1 25.174c-.098-.123-.224-.194-.387-.326-.237-.193-.332-.421-.423-.622 0 0-.131-.284.092-.508.204-.203.293-.351.293-.351-.246.053-.412-.03-.406-.206.006-.174.314-.174.391-.457-.319.048-.583-.05-.614-.157-.035-.125.538-.272.489-.641-.123.075-.49.105-.61.028-.162-.103.055-.363.023-.368-.35-.042-.594-.134-.856-.393-.156-.152-.28-.406-.368-.615-.344-.858-.614-1.717-1.226-2.454-.146-.172-.197-.197-.392-.344-.064-.05-.038-.155.093-.263a1.736 1.736 0 0 0 .593-1.307 1.744 1.744 0 0 0-3.242-.896 3.55 3.55 0 0 0-.336.625c-.392.957-.27 1.43-.906 1.897a.45.45 0 0 1-.565-.105c-.099-.122-.22-.32-.147-.492.073.05.15.181.24.247a.299.299 0 0 0 .324.023.41.41 0 0 0 .197-.366.604.604 0 0 0-.222-.444c-.195-.171-.516-.147-.735-.023-.295.145-.466.464-.417.833.023.247.205.586.346.793-.015.077-.09.174-.17.198-.178.054-.301-.023-.417-.175a.802.802 0 0 1-.107-.185c-.102.095-.157.316-.155.576 0 .12-.081.108-.145.066-.21-.143-.316-.34-.396-.606 0 0-.144.078-.19.367-.028.166 0 .392-.124.388-.262-.007-.383-.488-.406-.807-.097 0-.196.147-.272.33-.062.153-.189.514-.327.5-.162-.016-.247-.561-.24-.923-.251.05-.488.618-.624.833-.042.067-.072.005-.072.005-.132-.226-.12-.696-.142-1.012-.001-.013-.026-.002-.026-.002-.26.12-.534.83-.904.894-.147.028-.085-.09-.085-.09.136-.306.186-.767-.023-1.083 0 0-.366.458-.496.572-.103.089-.292.23-.476.318-.05.022-.067.003-.072-.004-.012-.02-.002-.051-.002-.051.07-.228.352-.668.157-1.318-.17.196-.244.355-.757.504a1.07 1.07 0 0 1-.742-.073c-.016.219-.068.491-.264.678 0 0-.678-.35-.872-.325-.175.025-.429.714-.551 1.131-.292.009-.659-.271-.721-.574-.234.62-.217 1.372-.077 2.11.367 1.93 1.014 3.202 1.383 5.409.136.82-.708 1.366-1.077 2.03 0 0-.05.086.066.086.35.004.655.018 1.058.004.11-.007.275-.125.307-.263.095-.409.176-.896.322-1.314.052-.193.358-.554.772-.818.022-.013-.227-.142-.147-.311.076-.157.341-.253.43-.528-.289-.076-.334-.219-.334-.219-.071-.194.312-.213.478-.537-.466-.132-.538-.303-.538-.303s-.081-.135.12-.216c.538-.221.434-.432.434-.432-.574.047-.739-.171-.736-.349v-.46c0-.069.072-.025.072-.025.316.158.656.227.963.277 0 0 .041.006.036.06-.02.287-.016.652.073.94.126.4.313.682.254 1.151-.04.314-.365.455-.562.613-.082.066-.298.173-.225.276 0 0 .013.023.042.05l.756.667c.06.052.087.012.087.012.177-.247.205-.613.35-.88.06-.109.101-.246.312-.305.342-.1.431-.382.431-.382-.376.037-.452-.032-.431-.117.039-.109.19-.138.43-.212.29-.09.423-.392.423-.392-.32.08-.522.053-.576-.01-.058-.066.011-.144.011-.144.192-.25.66-.168.83-.596.008-.022-.497.163-.679-.076-.104-.138-.005-.26.072-.435.06-.137.079-.168.15-.162.791.072 1.267-.06 1.559-.106 0 0 .213-.044.176.148-.145.622-.351 1.212-.453 1.853 0 0-.006.054-.052.106-.211.239-.456.393-.69.536-.174.103-.357.14-.44.315 0 0-.04.093.035.153l.883.712c.041.034.067-.008.067-.008.17-.21.305-.491.403-.737.064-.16.032-.286.13-.387 0 0 .056-.068.17-.103.135-.042.387-.107.477-.209.066-.072-.16-.027-.25-.196-.036-.064.078-.087.078-.087.254-.08.539-.045.707-.267-.336.005-.462-.111-.405-.163.116-.101.684-.09.88-.36-.04 0-.316-.005-.42-.087-.04-.027-.01-.064-.01-.064.078-.12.344-.207.344-.207.49-.17.462-.343.462-.343-.17 0-.553-.033-.511-.2.045-.192.366-.293.562-.317.267.614.635 1.177 1.05 1.716.03.04.099.105.026.201l-.93 1.13c-.046.053-.054.146.025.146l1.325-.048c.092-.013.17-.048.195-.122.024-.37-.095-.775.072-1.106.074-.147.31-.353.371-.515-.06.027-.491.04-.228-.12.326-.195.367-.416.367-.416-.129.024-.302.024-.399-.066-.036-.036.018-.06.018-.06.162-.075.436-.244.413-.472a.694.694 0 0 1-.415.023c-.152-.042-.255-.126-.2-.241.11-.23.273-.438.444-.611.068-.063.15-.097.172-.02.057.203.076.575.34.903.318.195.612.464.881.81.124.22.32.392.271.661l-.808 1.229s-.047.067-.014.11c.03.042.073.046.102.039l1.26-.296s.04-.007.061-.03c.013-.016.013-.043.013-.043l-.05-.87c0-.192.274-.23.465-.482-.113.005-.22-.068-.238-.147-.028-.13.301-.109.402-.475-.19.068-.4.113-.435.028-.02-.043.027-.071.027-.071.237-.15.368-.28.39-.514-.09.003-.707.165-.94-.172-.074-.111-.062-.538-.061-.717 0 0-.002-.065.05-.05.71.45 1.812.742 2.767.916 0 0 .127.02.171.099.392.686.783 1.312 1.206 1.987.099.158.168.304.203.44-.222.393-.613.766-.926 1.139-.122.146-.041.185.064.17l1.292-.202s.08-.008.098-.1c.024-.292-.118-.862.513-1.201zm-5.05-7.995a.978.978 0 0 1-.668-.263c-.213.32-.488.667-.801.87-.245.17-.54.342-.808.342-.03-.001-.023-.026-.008-.042l.032-.032c.564-.589.883-1.57 1.127-2.038.293-.54.589-.786 1.03-.81a.987.987 0 1 1 .097 1.974z" fill="#fff"/></g></g><defs><clipPath id="a"><path fill="#fff" d="M0 0h40v40H0z"/></clipPath></defs></svg>