<svg width="40" height="40" fill="none" xmlns="http://www.w3.org/2000/svg"><g clip-path="url(#a)" transform="matrix(1.4 0 0 1.4 -8 -7.935)"><g clip-path="url(#b)"><path d="M29.666 24.89c-.517-.295-1.083-.296-1.647-.238-.757.077-1.513.16-2.273.185-1.002.033-2.003.008-2.997-.13-.96-.133-1.899-.349-2.768-.795-.514-.264-.989-.6-1.511-.85-.506-.242-.939-.558-1.24-1.05-.675-1.097-.73-2.195-.055-3.309.384-.632.953-1.09 1.493-1.575a.778.778 0 0 1 .602-.211c.05.004.116.027.147-.05-.013-.015-.023-.036-.04-.045a.31.31 0 0 0-.078-.028c-.324-.084-.613.002-.883.18-.124.082-.245.169-.376.237-.175.09-.304.02-.337-.175a.633.633 0 0 1 .005-.21 3.582 3.582 0 0 1 .64-1.479c.073-.1.138-.121.265-.093.664.148 1.282.427 1.913.67.738.283 1.485.387 2.244.077.193-.079.39-.154.543-.313-.02-.013-.028-.021-.033-.02-.033.01-.067.017-.097.033-.656.354-1.33.331-2.004.075-.474-.18-.94-.382-1.404-.587-.3-.133-.627-.186-.952-.318.41-.332.94-.451 1.257-.871-.17.07-.33.159-.495.235-.39.18-.81.294-1.168.541-.052.036-.107.03-.163.022a4.376 4.376 0 0 0-2.668.438c-.967.486-1.746 1.166-2.156 2.201-.077.196-.136.4-.219.595-.097.228-.274.284-.5.178a.626.626 0 0 1-.363-.466c-.04-.2-.058-.403-.08-.605-.027-.23-.09-.442-.273-.6-.06-.05-.13-.122-.202-.061-.071.06.01.13.043.183.168.268.201.553.12.853-.076.275-.182.306-.422.153-.412-.263-.849-.444-1.355-.366-.078.013-.177.02-.179.112-.002.101.1.096.178.102.433.04.82.189 1.151.477.32.278.645.549.966.824.654.559 1.176 1.206 1.45 2.042.158.48.353.953.658 1.367.186.253.329.53.41.83.17.625.126 1.216-.324 1.728-.17.193-.382.332-.582.489-.122.095-.268.18-.28.406.24-.129.447-.257.668-.354.303-.132.575-.301.794-.549.089-.1.16-.214.25-.314.115-.13.242-.124.365-.005a.62.62 0 0 1 .193.455c.001.046-.016.115.045.126.077.013.077-.065.088-.116.066-.303.002-.585-.131-.86-.218-.447-.043-.733.453-.696.624.046 1.216.241 1.775.517.824.407 1.669.746 2.565.961 1.072.258 2.155.423 3.256.454 1.303.037 2.58-.204 3.862-.39.672-.097 1.334-.12 1.952.233.068.04.14.068.237.025-.08-.148-.213-.206-.333-.274zm-13.643-6.33c-.36.251-.764.312-1.189.26-.507-.062-.648-.58-.606-.984.048-.464.265-.858.571-1.2.647-.724 1.437-1.217 2.392-1.418.246-.052.502-.05.817-.08-.563.83-.844 1.724-1.265 2.55-.175.342-.4.647-.72.871z" fill="#56a8dd"/><path d="M16.37 22.11c-.002.305-.216.473-.492.417-.397-.081-.613-.384-.815-.686-.25-.371-.296-.793-.213-1.229a.625.625 0 0 1 .547-.51c.237-.022.448.124.539.416.153.494.287.994.426 1.493.012.039.006.083.007.1z" fill="#86cdf2"/></g></g><defs><clipPath id="a"><path fill="#fff" d="M0 0h40v40H0z"/></clipPath><clipPath id="b"><path fill="#fff" transform="translate(10 14)" d="M0 0h20v11.677H0z"/></clipPath></defs></svg>