<svg width="40" height="40" fill="none" xmlns="http://www.w3.org/2000/svg"><mask id="a" mask-type="alpha" maskUnits="userSpaceOnUse" x="10" y="16" width="20" height="8"><path fill="#fff" d="M10 16.41h20v7.179H10z"/></mask><g mask="url(#a)" transform="matrix(1.4 0 0 1.4 -8 -8)" fill-rule="evenodd" clip-rule="evenodd"><path d="M14.66 20.383h.856a2.804 2.804 0 0 0-.795-1.512l-.58.596c.255.25.436.568.519.916z" fill="url(#b)" style="fill:url(#b)"/><path d="M12.8 18.922c.523 0 1.024.209 1.391.58l.597-.595a2.799 2.799 0 0 0-1.973-.826h-.03v.84z" fill="url(#c)" style="fill:url(#c)"/><path d="M12.8 18.922v-.841a2.759 2.759 0 0 0-1.988.84l.597.582c.368-.371.869-.58 1.391-.581z" fill="url(#d)" style="fill:url(#d)"/><path d="M10.845 20.867a1.928 1.928 0 0 1 .581-1.391l-.596-.597a2.746 2.746 0 0 0-.826 1.988v.03h.841z" fill="url(#e)" style="fill:url(#e)"/><path d="M10.845 20.791h-.841a2.82 2.82 0 0 0 .84 2.003l.582-.596a1.963 1.963 0 0 1-.581-1.407z" fill="url(#f)" style="fill:url(#f)"/><path d="M12.8 22.748c-.523 0-1.024-.209-1.391-.58l-.596.596a2.8 2.8 0 0 0 1.972.825h.03v-.84z" fill="url(#g)" style="fill:url(#g)"/><path d="M14.345 21.984a1.92 1.92 0 0 1-1.56.765v.841a2.766 2.766 0 0 0 2.218-1.1z" fill="url(#h)" style="fill:url(#h)"/><path d="M26.715 20.383h.856a2.804 2.804 0 0 0-.795-1.512l-.58.596c.25.254.43.57.52.916z" fill="url(#i)" style="fill:url(#i)"/><path d="M24.835 18.922c.523 0 1.024.209 1.391.58l.597-.595a2.8 2.8 0 0 0-1.972-.826h-.031v.84z" fill="url(#j)" style="fill:url(#j)"/><path d="M24.85 18.922v-.841a2.759 2.759 0 0 0-1.988.84l.597.582c.368-.371.868-.58 1.391-.581z" fill="url(#k)" style="fill:url(#k)"/><path d="M22.905 20.867a1.928 1.928 0 0 1 .581-1.391l-.596-.597a2.798 2.798 0 0 0-.826 1.973v.03h.841z" fill="url(#l)" style="fill:url(#l)"/><path d="M22.905 20.791h-.841a2.82 2.82 0 0 0 .841 2.003l.581-.596a2.027 2.027 0 0 1-.581-1.407z" fill="url(#m)" style="fill:url(#m)"/><path d="M24.85 22.748c-.523 0-1.024-.209-1.391-.58l-.581.596a2.8 2.8 0 0 0 1.972.825h.03v-.84z" fill="url(#n)" style="fill:url(#n)"/><path d="M26.365 21.984a1.92 1.92 0 0 1-1.56.765v.841a2.766 2.766 0 0 0 2.218-1.1z" fill="url(#o)" style="fill:url(#o)"/><path d="M28.395 19.243h.841v2.523h-.841z" fill="url(#p)" style="fill:url(#p)"/><path d="M29.235 21.709c0 .596.275.856.764 1.192l-.474.688c-.718-.474-1.116-.994-1.116-1.88z" fill="url(#q)" style="fill:url(#q)"/><path d="M19.02 18.087c-.694-.001-1.36.274-1.85.764v1.697c.107-.673.703-1.636 1.85-1.636h.061v-.84a.115.115 0 0 1-.061.015z" fill="url(#r)" style="fill:url(#r)"/><path d="M21.31 20.67h-.84v-.276a1.479 1.479 0 0 0-1.453-1.483v-.84a2.304 2.304 0 0 1 2.293 2.307z" fill="url(#s)" style="fill:url(#s)"/><path d="M16.34 18.303h.84v2.92h-.84zM28.395 16.41h.841v2.92h-.841zM20.475 20.577h.841v2.92h-.84zM12.63 20.357h2.92v.84h-2.92zM24.65 20.357h2.92v.84h-2.92z" fill="#bcbcb6"/></g><defs><linearGradient id="b" x1="13.96" y1="19.497" x2="14.672" y2="20.62" gradientUnits="userSpaceOnUse"><stop stop-color="#E41F13"/><stop offset="1" stop-color="#E30613"/></linearGradient><linearGradient id="c" x1="12.327" y1="18.991" x2="13.64" y2="20.113" gradientUnits="userSpaceOnUse"><stop stop-color="#E42313"/><stop offset="1" stop-color="#E41F13"/></linearGradient><linearGradient id="d" x1="12.229" y1="17.792" x2="10.937" y2="18.956" gradientUnits="userSpaceOnUse"><stop stop-color="#E42313"/><stop offset="1" stop-color="#E52D12"/></linearGradient><linearGradient id="e" x1="10.446" y1="18.669" x2="9.349" y2="19.956" gradientUnits="userSpaceOnUse"><stop stop-color="#E52D12"/><stop offset="1" stop-color="#E74018"/></linearGradient><linearGradient id="f" x1="9.706" y1="21.343" x2="10.85" y2="22.714" gradientUnits="userSpaceOnUse"><stop stop-color="#E74018"/><stop offset="1" stop-color="#E84617"/></linearGradient><linearGradient id="g" x1="10.621" y1="23.177" x2="11.977" y2="24.238" gradientUnits="userSpaceOnUse"><stop stop-color="#E84617"/><stop offset="1" stop-color="#EA561F"/></linearGradient><linearGradient id="h" x1="13.955" y1="24.205" x2="14.907" y2="22.377" gradientUnits="userSpaceOnUse"><stop offset=".27" stop-color="#EA561F"/><stop offset="1" stop-color="#E9531E" stop-opacity=".01"/></linearGradient><linearGradient id="i" x1="27.513" y1="19.859" x2="26.914" y2="19.01" gradientUnits="userSpaceOnUse"><stop stop-color="#006FB9"/><stop offset="1" stop-color="#0078C0"/></linearGradient><linearGradient id="j" x1="26.8" y1="18.551" x2="25.692" y2="17.642" gradientUnits="userSpaceOnUse"><stop stop-color="#0078C0"/><stop offset="1" stop-color="#0085CA"/></linearGradient><linearGradient id="k" x1="23.679" y1="19.565" x2="24.796" y2="18.636" gradientUnits="userSpaceOnUse"><stop stop-color="#0091D0"/><stop offset="1" stop-color="#0085CA"/></linearGradient><linearGradient id="l" x1="22.946" y1="21.072" x2="23.856" y2="19.974" gradientUnits="userSpaceOnUse"><stop stop-color="#009DD7"/><stop offset="1" stop-color="#0091D0"/></linearGradient><linearGradient id="m" x1="21.961" y1="21.411" x2="22.897" y2="22.508" gradientUnits="userSpaceOnUse"><stop stop-color="#009DD7"/><stop offset="1" stop-color="#00A9DD"/></linearGradient><linearGradient id="n" x1="22.74" y1="23.116" x2="23.935" y2="24.085" gradientUnits="userSpaceOnUse"><stop offset=".006" stop-color="#00A9DD"/><stop offset=".942" stop-color="#70C5E9"/></linearGradient><linearGradient id="o" x1="26.055" y1="24.448" x2="27.061" y2="22.334" gradientUnits="userSpaceOnUse"><stop offset=".319" stop-color="#70C5E9"/><stop offset="1" stop-color="#70C5E9" stop-opacity=".01"/></linearGradient><linearGradient id="p" x1="28.398" y1="19.266" x2="28.398" y2="21.771" gradientUnits="userSpaceOnUse"><stop stop-color="#009767"/><stop offset="1" stop-color="#73BA64"/></linearGradient><linearGradient id="q" x1="28.866" y1="22.905" x2="29.708" y2="23.402" gradientUnits="userSpaceOnUse"><stop stop-color="#73BA64"/><stop offset="1" stop-color="#73BA64" stop-opacity=".01"/></linearGradient><linearGradient id="r" x1="17.156" y1="20.556" x2="19.075" y2="20.556" gradientUnits="userSpaceOnUse"><stop offset=".005" stop-color="#E60064"/><stop offset=".996" stop-color="#E54C88"/></linearGradient><linearGradient id="s" x1="19.515" y1="19.092" x2="19.515" y2="20.57" gradientUnits="userSpaceOnUse"><stop offset=".021" stop-color="#E54C88"/><stop offset="1" stop-color="#E54C88" stop-opacity=".01"/></linearGradient></defs></svg>