<svg width="40" height="40" fill="none" xmlns="http://www.w3.org/2000/svg"><path fill-rule="evenodd" clip-rule="evenodd" d="m31.04 13.906-.01-.008c-.17-.101-.427-.16-.6-.083-1.107-.105-2.162-.094-3.28-.082h-.078c-.56.008-1.139.014-1.718.005l-4.685-.097a55.862 55.862 0 0 0-3.483.024c-.874.008-1.723.03-2.588.056-.9.024-3.051.031-4.337.034-.683.003-1.043.003-1.088.005-.153.01-.335.221-.34.392-.003.095.054.203.217.22.122.014.898.017 2.31.012l1.441-.007c.385-.003.563.005.647-.005h.008c1.06-.105 2.126-.1 3.155-.092h.08c.667.002 1.357.007 2.05-.02.144.032.296.003.442-.028l.022-.004c.065-.013.133-.026.199-.03.158.043.339.04.53.037.182-.004.37-.007.54.034l.001.005.03-.002v-.004c.15-.052.287-.025.43.004a1.127 1.127 0 0 0 .223.032c1.34-.036 2.822.012 4.669.154l.874.093h.011c.777-.075 1.58-.016 2.357.039.002.002.019.002.019.002.584.044 1.135.084 1.684.071l.001.007.034-.011-.001-.007.29-.232h.002l.013-.013-.002-.003a.407.407 0 0 0-.07-.498z" fill="#deb630" style="stroke-width:1.4"/><path fill-rule="evenodd" clip-rule="evenodd" d="m23.286 23.862.024-.014v-.058l-.02-1.825v-.005l-.003-.005c-.032-.275-.037-.578-.045-.9a8.836 8.836 0 0 0-.064-1.065c-.01-.473-.103-.98-.194-1.472l-.06-.332-.007-.032-.022-.022c-.073-.075-.098-.166-.126-.272a.878.878 0 0 0-.106-.27c-.121-.224-.315-.439-.486-.63l-.01-.01c-.041-.058-.092-.09-.135-.117a.679.679 0 0 1-.077-.056l-.04-.032-.023.005-.03-.024a1.33 1.33 0 0 0-.467-.226l-.002-.001c-.05-.069-.141-.08-.203-.08v-.046l-.088-.012-.404-.061-.06-.01-.038.05c-.014.018-.017.023-.102-.01-.04-.012-.083-.028-.13-.033l-.047-.004-.024.023a.45.45 0 0 0-.046-.029l-.17-.05-.011.079a.381.381 0 0 0-.194.041h-.269l-.247.003.027.096-.004.005c-.11-.03-.192.036-.239.075l-.023.02a.35.35 0 0 0-.173.078c-.027.02-.036.027-.059.029l-.042.002-.028.035c-.037.043-.153.096-.218.125l-.135.06.029.03a.23.23 0 0 0-.064.041h-.132v.105c-.007-.001-.011-.001-.015-.003l-.075-.032a.42.42 0 0 0-.053.065 3.61 3.61 0 0 1-.295.339c-.13.139-.264.28-.366.435l-.032.045.02.047c-.025.014-.086.054-.098.13-.05.054-.061.127-.07.175a.213.213 0 0 1-.01.046c-.054.064-.065.13-.074.18-.008.038-.01.06-.027.08l-.065.082.03.023c-.02.05-.02.1-.02.132a.35.35 0 0 1-.003.043l-.043.025.012.065c.017.129 0 .248-.017.373-.016.122-.032.245-.019.384-.05.076-.038.164-.029.222.003.018.007.046.006.057l-.066.052.046.078c.036.059.008.153-.018.243-.026.086-.056.19-.025.283a.104.104 0 0 0-.022.024.108.108 0 0 0-.02.075c0 .072-.007.093-.01.099l-.047.1-.007.037.087.061a.496.496 0 0 0 .004.162c.012.065.012.094-.007.12l-.054.1.054.063v.018c-.003.044-.007.124.049.183a.26.26 0 0 0 .006.031l-.099.026.063.138c0 .01-.003.023-.005.034-.012.04-.029.121.012.192a.332.332 0 0 0 .002.21l.01.049c-.094.1-.048.23-.022.299-.044.066-.034.144-.025.193l-.126.044.13.131a.149.149 0 0 0 .013.101.114.114 0 0 0 .055.044l-.04.014.005.013.045.117-.001.013a.28.28 0 0 0 .038.19.115.115 0 0 0-.02.057l-.05.05.05.07c.037.055.023.128-.005.24-.025.097-.057.225.001.333l-.071.068.088.067c0 .005-.004.01-.005.013-.023.041-.065.122-.013.206l-.004-.01c.018.041.01.109 0 .178-.011.103-.027.227.03.351l-.019.124.005-.016a.15.15 0 0 0 .011.118l-.04.019.029.087c.028.09.029.198.029.315.002.22.002.469.2.66l.044.04.056-.018c.15-.042.155-.19.16-.268 0-.019 0-.035.004-.048l.001-.02-.006-.02c-.06-.202-.034-.468-.012-.7.007-.063.012-.121.016-.178l.001-.027-.011-.027c-.04-.081-.031-.16-.02-.253a.633.633 0 0 0-.01-.275c.034-.429.015-.933-.004-1.38-.006-.187-.015-.366-.018-.532v-.01c-.026-.21-.018-.435-.012-.656.005-.197.01-.397-.007-.584a2.52 2.52 0 0 0 .04-.614 5.966 5.966 0 0 1 0-.29v-.025l-.007-.015c.047-.053.058-.11.034-.166a.917.917 0 0 0 .027-.22.899.899 0 0 1 .014-.153l.006-.024-.007-.024c-.012-.046 0-.098.011-.153.016-.068.034-.145.006-.224.078-.16.097-.357.11-.547l.008-.066a.129.129 0 0 0-.042-.114v-.007c0-.085.045-.153.1-.238.06-.094.127-.202.145-.346l.002-.024-.002-.005.024-.023c.036-.029.092-.077.092-.153a.155.155 0 0 0-.008-.04.856.856 0 0 0 .154-.2c.058-.1.099-.169.213-.2l.054-.017.014-.056c.017-.062.072-.097.159-.153a.698.698 0 0 0 .192-.156c.073.006.117-.012.143-.041a.562.562 0 0 0 .213-.119c.092-.076.125-.092.187-.061l.063.027.041-.04.01-.001c.029-.01.08-.022.11-.07a.953.953 0 0 0 .074-.02c.051-.019.064-.02.082-.012a.12.12 0 0 0 .094.014l.004.008.075-.01.099-.012c.293-.039.545-.07.773.05l.081.044.05-.073.03.036c.058.064.161.177.31.152.033.03.07.051.102.07l.042.026v.005l.02.027c.047.06.145.091.223.094.172.18.346.428.346.535v.1h.077v.006c.03.133.067.3.172.41-.03.067-.005.149.007.183l.01.038-.027.076.068.067.015.01c-.005.068.027.132.05.178l.017.04-.016.035c-.09.175.032.272.09.318.01.01.015.013.02.017-.044.035-.041.072-.052.133l.008.077.032.05.003.003.003.01a.312.312 0 0 0 .025.059l-.035.034-.025.09.051.072.04.021a.22.22 0 0 0 .026.102l.006.015-.009.045c-.034.166-.077.382.028.555l-.01.01c-.047.064-.035.137-.027.19.002.017.007.046.006.055l-.026.105c-.002.005.034.014.063.02l-.012.03-.02.121h.04c-.008.042-.009.081-.01.115 0 .062-.004.102-.024.131l-.01.014-.003.018c-.032.108.01.21.042.296l.017.044a.12.12 0 0 0-.033.088c0 .01.005.016.007.023l-.022.023.02.058c.01.036.031.055.056.07l-.016.004c-.004 0-.004.079-.004.079v.027l-.065.02.033.066c-.016.03-.033.074-.016.124l-.044.078c.003-.001.009.046.047.065-.04.138.06.24.12.3.027.024.041.044.053.059h-.05l.038.131v.004A.18.18 0 0 0 22.7 23l-.085.04.028.112-.009.03a.137.137 0 0 0 .013.123l.013.011a.214.214 0 0 0-.072.14l-.01.097.079.012a.49.49 0 0 0-.017.06c-.011.034-.02.064-.036.088v.003l-.006.011.136.077c-.02.034-.03.072-.039.097-.005.015-.01.034-.014.042h-.011l-.113.001.006.131c.006.02.01.043.012.07.003.025.005.052.012.082v.132c0 .017 0 .044.006.073l-.015.008.01.074a.406.406 0 0 1 0 .108l-.003.069-.092.047.113.125-.002.006a.288.288 0 0 0-.03.117h-.08l.137.168c.012.012.022.05.03.077.001.002.001.007.003.01-.058.055-.066.137-.07.18-.002.019-.005.047-.01.054 0 0 .002 0 .002-.002l.035.048a.18.18 0 0 0-.053.06.203.203 0 0 0-.011.096h-.132l.108.11-.101.034.085.07v.27c0 .05.023.092.062.112h.007a.197.197 0 0 0 .162.025v.114l.132-.04a.465.465 0 0 1 .243-.017l.108.02.014-.107c.052-.406.042-.799.032-1.179-.011-.37-.02-.722.028-1.066.033-.068.002-.13-.018-.162z" fill="#008652" style="stroke-width:1.4"/><path fill-rule="evenodd" clip-rule="evenodd" d="m15.51 23.862.024-.014v-.058l-.02-1.825v-.01c-.035-.275-.04-.578-.048-.9a8.716 8.716 0 0 0-.065-1.065c-.008-.473-.102-.98-.193-1.472l-.061-.332-.005-.032-.024-.022c-.072-.075-.097-.166-.126-.272a.891.891 0 0 0-.104-.27c-.121-.224-.315-.439-.487-.63l-.008-.01a.463.463 0 0 0-.138-.117.627.627 0 0 1-.076-.056l-.038-.032-.022.005-.032-.024c-.154-.123-.3-.172-.466-.226l-.004-.001c-.048-.069-.139-.08-.202-.08v-.046l-.086-.012-.407-.061-.06-.01-.038.05c-.012.018-.017.023-.102-.01-.04-.012-.083-.028-.129-.033l-.049-.004-.022.023a.436.436 0 0 0-.047-.029l-.168-.05-.013.079a.383.383 0 0 0-.193.041h-.27l-.247.003.028.096-.005.005c-.108-.03-.192.036-.237.075l-.024.02a.355.355 0 0 0-.175.078c-.026.02-.035.027-.058.029l-.043.002-.027.035c-.037.043-.154.096-.216.125l-.138.06.03.03a.246.246 0 0 0-.065.041h-.132v.105c-.005-.001-.011-.001-.015-.003l-.072-.032a.372.372 0 0 0-.055.065c-.08.111-.184.223-.295.339-.13.139-.262.28-.365.435l-.033.045.02.047c-.024.014-.086.054-.096.13a.315.315 0 0 0-.07.175.234.234 0 0 1-.01.046.354.354 0 0 0-.075.18c-.005.038-.01.06-.026.08l-.065.082.03.023c-.02.05-.021.1-.021.132 0 .014 0 .03-.002.043l-.043.025.01.065c.018.129.001.248-.016.373a1.58 1.58 0 0 0-.018.384c-.051.076-.039.164-.03.222.003.018.007.046.005.057l-.066.052.047.078c.035.059.007.153-.02.243-.025.086-.055.19-.023.283a.12.12 0 0 0-.024.024.12.12 0 0 0-.018.075.282.282 0 0 1-.01.099l-.048.1-.008.037.087.061a.512.512 0 0 0 .005.162c.012.065.013.094-.006.12l-.055.1.053.063v.018c-.002.044-.005.125.049.183.002.011.003.02.007.031l-.1.026.065.138c0 .01-.004.023-.005.034-.01.04-.03.121.011.192-.03.08-.011.157.001.21.003.014.01.036.01.049-.093.1-.046.23-.021.299-.045.066-.034.144-.025.193l-.126.044.129.131a.143.143 0 0 0 .015.101.113.113 0 0 0 .054.044l-.04.014.006.013.046.117-.003.013a.276.276 0 0 0 .04.19.117.117 0 0 0-.023.057l-.049.05.05.07c.038.055.023.128-.005.24-.025.097-.056.225.001.333l-.07.068.089.067-.006.013c-.024.041-.065.122-.012.206l-.006-.01c.02.041.01.109.002.178-.012.103-.027.227.027.351l-.017.124.005-.016a.148.148 0 0 0 .012.118l-.04.019.027.087c.027.09.028.198.03.315 0 .22 0 .469.2.66l.042.04.057-.018c.148-.042.155-.19.16-.268 0-.019.002-.035.003-.048l.003-.02-.006-.02c-.06-.203-.035-.468-.011-.7.004-.063.01-.121.015-.178v-.027l-.011-.027c-.04-.081-.031-.16-.019-.253a.625.625 0 0 0-.01-.275c.035-.429.014-.933-.003-1.38a24.091 24.091 0 0 1-.017-.532v-.004l-.001-.006a4.417 4.417 0 0 1-.012-.656c.005-.196.012-.397-.008-.584.047-.213.044-.408.041-.614a6.26 6.26 0 0 1 0-.29v-.025l-.005-.015c.045-.053.056-.11.032-.166a.859.859 0 0 0 .026-.22c.003-.055.005-.107.017-.152l.004-.025-.006-.024c-.014-.046-.001-.098.011-.153.015-.068.033-.145.005-.224.08-.16.097-.357.113-.547l.006-.066a.13.13 0 0 0-.041-.114v-.007c0-.085.043-.153.098-.238a.813.813 0 0 0 .145-.346l.003-.024-.001-.005a.144.144 0 0 1 .022-.023c.038-.029.093-.077.091-.153a.185.185 0 0 0-.005-.04c.07-.064.113-.136.152-.2.058-.1.098-.169.213-.2l.054-.017.014-.056c.018-.062.073-.097.16-.153a.693.693 0 0 0 .191-.156c.073.006.118-.012.144-.041.09-.022.156-.075.212-.119.094-.076.125-.092.188-.061l.063.027.04-.04a.04.04 0 0 0 .008-.001c.03-.01.08-.022.111-.07a.773.773 0 0 0 .074-.02c.052-.019.065-.02.083-.012.02.012.052.024.095.014l.003.008.075-.01.098-.012c.293-.039.545-.07.773.05l.083.044.049-.073c.01.011.021.023.03.036.059.064.161.177.31.152a.51.51 0 0 0 .1.07c.014.007.03.019.045.026v.005l.018.027c.047.06.146.091.223.094.173.18.346.428.346.535v.1h.076v.006c.03.133.068.3.172.41-.03.067-.004.149.007.183.003.012.008.026.01.038l-.024.076.066.067.016.01a.356.356 0 0 0 .05.178l.018.04-.016.035c-.093.175.03.272.09.318.007.01.013.013.022.017-.046.035-.045.072-.055.133l.009.078.03.05c.003.002.001.002.003.002.001.002.001.007.003.01.006.014.012.035.025.059l-.035.034-.024.09.05.072.04.021c-.002.04.016.078.027.102.001.005.003.012.006.015l-.01.045c-.034.166-.075.382.027.555a.048.048 0 0 1-.008.01c-.047.064-.036.137-.027.19.001.017.008.046.004.055l-.026.105c-.001.005.035.014.062.02-.002.01-.007.02-.008.03l-.024.121h.04c-.005.042-.006.081-.008.115 0 .062-.002.102-.024.131l-.009.014-.004.018c-.03.108.01.21.043.296l.017.044a.122.122 0 0 0-.032.088c0 .01.003.016.006.023l-.024.024.021.057c.012.036.03.056.056.07l-.016.004c-.004 0-.004.079-.004.079v.028l-.063.02.03.065c-.014.03-.032.075-.014.124l-.044.078c.001-.001.009.046.047.065-.042.138.059.24.12.3.024.024.04.044.052.059h-.05l.037.131.002.004c-.009.006-.018.018-.027.028l-.083.04.027.112-.008.03a.131.131 0 0 0 .012.123l.012.012a.221.221 0 0 0-.072.14l-.009.096.078.012a.472.472 0 0 0-.018.06c-.01.034-.018.064-.035.088l.001.003a.038.038 0 0 0-.007.012l.136.076a.472.472 0 0 0-.038.097.22.22 0 0 1-.014.042h-.01l-.115.001.006.131a.29.29 0 0 1 .013.071.411.411 0 0 0 .012.08v.133c0 .017 0 .044.006.073l-.016.008.012.074a.5.5 0 0 1 0 .108c-.002.021-.005.047-.003.069l-.093.047.114.125c-.002.001-.003.005-.003.005a.292.292 0 0 0-.028.118h-.083l.138.168a.23.23 0 0 1 .03.077.019.019 0 0 1 .003.01c-.056.055-.065.137-.07.18-.003.019-.004.047-.01.055l.003-.003.035.048a.157.157 0 0 0-.053.06.17.17 0 0 0-.012.096h-.132l.11.11-.103.034.085.07v.27c0 .05.024.092.065.112l.004.001a.202.202 0 0 0 .164.024v.114l.13-.04a.471.471 0 0 1 .245-.017l.108.02.014-.107c.051-.406.04-.799.03-1.179-.01-.37-.019-.722.03-1.066a.169.169 0 0 0-.02-.162z" fill="#006ca5" style="stroke-width:1.4"/><path fill-rule="evenodd" clip-rule="evenodd" d="m30.927 24 .025-.015-.002-.057-.02-1.825v-.01c-.034-.275-.04-.578-.046-.9-.01-.362-.017-.735-.065-1.064-.01-.474-.103-.98-.194-1.47l-.061-.335-.006-.03-.022-.025c-.073-.073-.098-.164-.126-.271a.908.908 0 0 0-.104-.27c-.122-.223-.317-.439-.488-.63l-.01-.01a.44.44 0 0 0-.135-.117c-.025-.017-.05-.033-.075-.055l-.04-.034-.024.006-.031-.026c-.155-.123-.298-.17-.465-.226l-.005-.001c-.048-.069-.139-.08-.201-.082v-.044l-.088-.013-.405-.06-.06-.01-.036.05c-.014.019-.019.023-.106-.007-.038-.013-.08-.03-.128-.035l-.047-.004-.023.023a.218.218 0 0 0-.047-.028l-.169-.051-.012.077a.421.421 0 0 0-.194.043h-.268l-.248.001.03.096c-.004.002-.004.003-.007.006-.108-.03-.194.037-.238.076l-.023.019a.367.367 0 0 0-.175.08c-.026.018-.034.026-.059.027l-.041.003-.029.035c-.035.046-.152.094-.217.125l-.136.06.031.028a.286.286 0 0 0-.066.043h-.131v.106a.054.054 0 0 1-.015-.003l-.075-.031c-.005-.004-.053.063-.053.063-.08.111-.184.223-.296.34-.129.137-.262.28-.364.434l-.034.047.021.045c-.024.015-.086.054-.098.129-.05.054-.061.129-.069.176-.002.016-.006.037-.01.044a.374.374 0 0 0-.075.182c-.006.038-.01.06-.027.08l-.064.083.03.021c-.02.05-.02.102-.02.132a.495.495 0 0 1-.004.043l-.042.025.01.066c.018.13.002.247-.015.374a1.655 1.655 0 0 0-.02.382c-.05.076-.036.166-.029.222.003.02.007.046.006.057l-.066.052.047.077c.036.06.007.154-.02.244-.024.086-.055.194-.024.283a.12.12 0 0 0-.04.102c0 .069-.009.09-.011.096l-.047.099-.009.04.087.06a.473.473 0 0 0 .005.161c.01.066.013.095-.006.12l-.055.101.053.063v.016c-.002.044-.007.125.049.183l.006.033-.098.026.064.138-.007.035c-.011.04-.028.12.012.19a.327.327 0 0 0 .003.212l.01.047c-.094.099-.049.229-.022.297-.045.068-.034.148-.026.195l-.126.043.13.133a.137.137 0 0 0 .014.1.143.143 0 0 0 .054.046l-.039.011c.001.007.003.01.006.013h-.001l.045.12-.001.011a.272.272 0 0 0 .039.19.102.102 0 0 0-.02.058l-.051.05.049.07c.038.057.023.127-.006.241-.024.099-.055.224.003.334l-.07.07.09.063-.008.013c-.024.043-.065.122-.014.207l-.004-.01c.019.04.01.106.001.178-.011.103-.026.227.029.35l-.017.123.003-.013a.16.16 0 0 0 .012.118l-.039.019.027.083c.03.09.03.202.03.318.002.22.002.469.2.658l.043.043.057-.018c.15-.044.155-.19.161-.271 0-.015.001-.032.003-.046v-.021l-.003-.021c-.06-.202-.036-.466-.014-.7l.017-.176v-.03l-.011-.023c-.04-.082-.03-.163-.018-.255a.624.624 0 0 0-.011-.275c.035-.427.014-.931-.003-1.38a25.695 25.695 0 0 1-.017-.529l-.002-.007v-.006c-.025-.21-.017-.436-.012-.654.007-.198.012-.4-.005-.585.045-.212.044-.41.039-.615-.002-.092-.005-.19 0-.29v-.026l-.006-.013c.046-.054.057-.111.032-.169.022-.078.025-.153.028-.22a.782.782 0 0 1 .013-.15l.007-.025-.008-.024a.324.324 0 0 1 .013-.15c.014-.07.032-.148.004-.227.08-.16.097-.356.113-.547l.006-.064a.134.134 0 0 0-.04-.116v-.007c0-.084.041-.152.097-.238.06-.094.128-.2.146-.347l.003-.023-.002-.005a.175.175 0 0 1 .023-.021c.036-.032.093-.08.091-.154a.118.118 0 0 0-.007-.04.832.832 0 0 0 .153-.202c.058-.096.098-.166.213-.198l.056-.017.014-.054c.016-.063.07-.099.158-.153.065-.042.137-.087.191-.157.073.007.119-.015.144-.042a.544.544 0 0 0 .212-.118c.094-.075.125-.092.188-.062l.064.029.04-.04c.004-.002.007-.002.01-.002.027-.007.08-.024.108-.07a.738.738 0 0 0 .075-.021c.051-.018.063-.02.083-.01.019.01.053.023.094.013l.003.006.076-.01.098-.011c.293-.039.545-.07.773.051l.081.046.05-.075c.01.012.02.025.031.034.058.065.161.179.31.153.032.029.069.052.1.072a.42.42 0 0 1 .043.024v.004l.02.028c.048.06.146.09.223.094.172.18.346.427.346.535v.1h.076l.002.008c.028.134.066.299.17.406-.03.07-.004.152.008.186.004.01.007.026.01.038l-.025.075.068.068.013.008a.378.378 0 0 0 .051.18c.005.013.012.027.015.04l-.013.036c-.091.173.03.27.09.317l.021.018c-.046.036-.044.07-.053.133l.007.076.031.05.003.001.003.01c.006.016.012.036.025.06l-.035.034-.024.09.052.074.038.02c-.002.04.016.077.026.102.003.004.005.01.006.014l-.009.046c-.034.166-.077.382.028.556l-.006.005c-.05.067-.038.14-.029.193.001.017.007.047.004.056l-.025.103c0 .006.032.014.063.02a.212.212 0 0 0-.012.032l-.022.12h.042c-.009.041-.009.08-.01.114-.001.062-.003.102-.025.134l-.009.014-.004.015c-.03.11.01.212.042.296a.356.356 0 0 1 .018.046.114.114 0 0 0-.033.085c0 .01.004.018.007.027l-.022.02.02.061c.01.032.03.054.057.066l-.018.004c-.004 0-.004.08-.004.08v.03l-.063.016.033.067c-.017.032-.034.074-.017.125l-.043.078s.007.046.047.065c-.042.139.06.24.118.299.025.027.043.044.055.06h-.052l.038.13.002.003-.027.03-.083.04.026.112-.009.029c-.017.059-.003.1.013.123.004.005.01.007.012.011a.225.225 0 0 0-.07.14l-.01.096.078.013-.018.058c-.01.039-.017.069-.035.093h.002c-.002.004-.006.009-.007.013l.136.075a.445.445 0 0 0-.038.1c-.006.011-.012.03-.017.04h-.123l.006.134c.006.02.01.04.012.07.003.024.006.051.012.08v.131a.44.44 0 0 0 .007.073l-.014.01.01.074c.006.036.003.072 0 .109-.003.02-.003.043-.003.068l-.094.045.114.125a.016.016 0 0 0-.002.008c-.012.03-.029.07-.029.116h-.082l.138.167c.011.013.022.052.03.077l.002.012c-.056.055-.064.134-.069.179-.003.018-.005.045-.009.054v-.003l.035.047a.202.202 0 0 0-.052.062.169.169 0 0 0-.01.094h-.134l.11.11-.103.034.085.07v.273c0 .05.025.089.063.11l.009.003a.205.205 0 0 0 .161.023v.111l.13-.038a.47.47 0 0 1 .244-.019l.108.022.014-.109c.052-.403.041-.798.031-1.177-.01-.371-.019-.721.028-1.065.033-.067.002-.129-.018-.163z" fill="#e98a42" style="stroke-width:1.4"/><path fill-rule="evenodd" clip-rule="evenodd" d="M34 6H6v28h28Zm-1.482 26.523H7.476V7.48h25.042z" fill="#e98a42" style="stroke-width:1.4"/></svg>