<svg width="40" height="40" fill="none" xmlns="http://www.w3.org/2000/svg"><g clip-path="url(#a)" transform="matrix(1.4 0 0 1.4 -7.997 -7.992)"><mask id="b" mask-type="alpha" maskUnits="userSpaceOnUse" x="10" y="11" width="20" height="18"><path fill="#fff" d="M10 11.879h20v16.242H10z"/></mask><g mask="url(#b)"><mask id="c" mask-type="alpha" maskUnits="userSpaceOnUse" x="10" y="11" width="20" height="18"><path fill-rule="evenodd" clip-rule="evenodd" d="M10 28.08h19.984V11.88H10.001Z" fill="#fff"/></mask><g mask="url(#c)" fill-rule="evenodd" clip-rule="evenodd" fill="#c51f1b"><path d="m13.796 26.24.002-1.375c.862 0 1.179-.043 1.329 1.014h.09v-1.176h-2.346v.162h.406v3.026h-.448v.16h2.419v-1.237h-.121c-.12.935-.358 1.078-1.023 1.078h-.308v-1.47h.179c.298.007.468.18.529.694h.109v-1.52c-.002.003-.109 0-.109 0 0 .008-.02.654-.542.644zM12.837 26.3h-1.324v.15h.454v1.09c-.077.275-.484.39-.605.39-.846 0-.785-1.236-.785-1.568 0-.303-.03-1.57.785-1.57.574 0 .877.573.998 1.087h.092c0-.212.003-1.22 0-1.217.003-.008-.393.285-.394.28.009-.002-.181-.271-.696-.271-.998 0-1.364.996-1.361 1.691.004.636.297 1.72 1.36 1.72.335 0 .57-.17.697-.364.001-.004.422.331.423.333v-1.6h.356zM24.405 26.843l.483-1.447.515 1.447zm-1.875-.578h-.543v-1.402h.695c.407.062.424.533.424.683 0 .363-.152.719-.576.719zm5.78.55c-.121.934-.358 1.074-1.023 1.074h-.04v-3.025h.423v-.163h-1.391v.163h.423v3.025h-.336l-1.235-3.278h-.182c.004-.002-1.027 2.975-1.03 2.983.003-.008-.077.256-.246.288-.156.008-.145-.074-.145-.102v-.574c0-.15-.011-.492-.168-.65-.175-.175-.475-.188-.468-.195 0 0 .76-.157.76-.879 0-.506-.352-.758-.94-.78h-1.67v.163h.427v3.025h-.427v.16h1.37v-.16h-.427v-1.455h.57c.987.082-.17 1.617 1.125 1.616h.816v-.162c-.046 0-.344.009-.363-.2-.012-.15.197-.691.197-.691h1.111c0-.003.346.892.35.892h-.388v.16h3.028v-1.236zM19.395 24.863c.862 0 1.18-.04 1.33 1.016h.091v-1.177h-3.421v.161h.089c.12 0 .407.01.424.262v1.93l-1.601-2.353h-.872v.161h.145c.172 0 .413.008.424.262v2.473c0 .241-.362.332-.513.332h-.001v.12h1.18v-.12c-.152 0-.516-.09-.516-.332l.005-2.177c.633.905 1.83 2.631 1.84 2.63h.06v-2.926c.017-.253.303-.262.424-.262h.393v3.028h-.448v.16h2.419v-1.237h-.122c-.12.935-.357 1.077-1.022 1.077h-.308v-1.47h.178c.299.007.468.182.53.695h.11l-.001-1.52c-.003.003-.109 0-.109 0 0 .008-.021.654-.542.644h-.166ZM29.952 24.864v-.163h-1.366v.163h.429l.002 3.024h-.43v.163h1.365v-.163h-.429v-3.024zM25.086 21.92c.04-.104.12-.17.228-.19l1.106-.247-.1-.985-.004-.022c-.027-.129-.109-.522-.622-.564-1.975-.16-2.432-.452-2.912-.762a.006.006 0 0 1-.002-.004l-.003.001-.031-.02a2.057 2.057 0 0 0-1.072-.333c-.56 0-1.267.222-1.325.24-.17.05-.33.1-.485.15-.618.2-1.152.372-2.05.345l-.163-.005-.042.158c-.033.122-.284 1.114-.042 1.751-.217.172-.217.369-.215.396.008.218-.043.271-.06.29-.104.106-.448.12-.737.12h-.11l-.062.086c-.178.246-.564.304-.81.24-.11-.33-.112-.583-.008-.733.124-.178.386-.197.493-.197h.062a.478.478 0 0 0 .476-.479V19.38c.08-.122.144-.265.2-.425a.9.9 0 0 0 .765-.879c0-.17-.05-.334-.14-.473.4-.193.743-.587.743-1.103 0-.517-.26-.753-.507-.909a8.21 8.21 0 0 0 .262-.897l.347-1.242c.155-.487.56-.801 1.033-.801h6.106c-.259.363-.626.535-1.134.535h-3.695l-.194.414h3.312c-.26.413-.64.609-1.182.609h-2.401l-.192.413h2.142c-.26.398-.636.586-1.168.586h-1.309l-.192.414h1.372c.012.017.047.08.047.247a.49.49 0 0 1-.498.482.783.783 0 0 1-.316-.08l-.183-.076-.318.285.18.076c.275.12.428.182.636.182a.89.89 0 0 0 .642-.272c.236.015.615.047.982.077.439.036.854.07 1.068.082l.304.015c.182.009.349.017.515.03.833 1.353 1.26 1.53 2.874 1.723.117.209.222.429.322.651v2.65c.01.121.01.162-.007.184-.056.074-.305.178-.392.213l-1.36.513c-.18-.244-.246-.5-.174-.683zm-.294.717h-2.69l1.153-1.217c.233-.24.307-.53.209-.814a9.23 9.23 0 0 0-.367-.8c.458.213 1.152.404 2.563.518.17.014.215.072.249.226l.062.61-.738.164a.706.706 0 0 0-.533.447c-.1.26-.067.566.092.866zm-4.851 0c-.075-.293-.044-.527.089-.68a.534.534 0 0 1 .462-.17l.787.146.02.003h.109l.555-.598.005-.006c.095-.11.384-.446.089-.873l-.742-1.223c.123-.018.246-.029.36-.029h.005c.004 0 .376-.005.776.227.053.115.128.268.212.437.156.317.35.71.404.87.017.05.07.2-.116.393l-1.424 1.503zm-.223-.951c-.15.171-.296.47-.201.95h-2.533c.273-.026.47-.09.606-.232.167-.172.18-.408.176-.576.005-.015.033-.072.157-.128l.218-.1-.131-.201c-.216-.333-.122-1.06-.038-1.454h.019c.859 0 1.414-.178 2-.367.153-.05.31-.1.477-.148l.005-.002c.003-.001.175-.055.408-.11l.826 1.36.007.012c.082.117.092.195-.058.37l-.413.446-.679-.126h-.006a.95.95 0 0 0-.84.306zm-4.493-.09c-.176.254-.197.603-.065 1.04h-.428v-3.34c.153-.023.319-.067.472-.137a3.347 3.347 0 0 1-.056.414 4 4 0 0 0-.02.113l-.04.241h.245c.366 0 .639-.057.849-.166v1.395a.063.063 0 0 1-.062.065h-.062c-.363 0-.667.137-.833.375zm-.907.678-1.95-.507-1.95.507v-3.487l1.95-.506 1.95.506zm-3.65.363 1.7-.443 1.7.443zm.68-5.135a.495.495 0 0 1 .501-.192l.176.031.056-.17a.24.24 0 0 1 .063-.105c.05-.047.123-.07.217-.067.25.008.562.182.816.454a2.17 2.17 0 0 1 .291.403l.041.065c.01.016.135.204.126.216l.257-.36c.002-.004-.002-.015-.009-.03a1.697 1.697 0 0 0-.092-.156l-.019-.03c0-.002-.002-.002-.002-.003a2.214 2.214 0 0 1-.116-.19l.54-.863c.134.028.248.032.303.032h.014c.76 0 1.547-.439 1.547-1.174v-.017c-.009-.2-.047-.391-.077-.545a1.75 1.75 0 0 1-.038-.244c0-.08.113-.17.275-.17h.246l-.11-.637c.345-.255.557-.67.547-1.067.373.287.636.783.685 1.31.014.154-.017.368-.066.594l-.027.094h.005a8.19 8.19 0 0 1-.288.928l-.063.165.154.088c.278.157.45.272.45.637 0 .42-.379.741-.743.81l-.5.093.422.281c.136.09.217.238.217.393a.49.49 0 0 1-.5.478h-.158l-.046.146c-.154.504-.322.75-.863.803.025-.153.043-.3.043-.509 0-.05-.004-.186-.007-.23l-.024-.47-.33.336c-.113.113-.311.204-.53.247v-.41l-2.364-.613-.84.217c-.189-.187-.227-.497-.18-.57zm2.553-1.519c.006-.028.03-.05.054-.05l.356.012c.434-.016.876-.195.926-.647 0-.306-.217-.603-.524-.603-.164 0-.348.113-.556.25-.135.09-.241.16-.322.16-.055 0-.1-.036-.1-.066 0-.005.002-.01.004-.015l.227-.305-.196-.132c-.042-.027-.107-.079-.115-.118-.003-.018.023-.05.031-.06.082-.095.175-.211.27-.354.058-.08.091-.126.189-.126.096 0 .174.078.174.172 0 .063.07.112.155.112.085 0 .123-.06.176-.112 0 0 .202-.186.095-.274-.123-.1-.614.104-.477-.346l.035-.065c.052-.07.287-.243.772-.243.092 0 .19.006.288.019l.073.009 1.03-.636c.01.023.012.038.012.038l.001.006c.054.312-.143.683-.457.864l-.125.071.08.465c-.264.081-.449.293-.449.548 0 .088.021.192.047.324.029.146.061.311.07.48 0 .483-.668.803-1.232.785l-.015-.001c-.023 0-.383-.029-.47-.099-.018-.012-.031-.041-.027-.063zm.854-3.226a1.338 1.338 0 0 1 .651-.418c.2-.058.429-.062.666-.016l-.73.45c-.092-.009-.18-.014-.267-.014-.124 0-.238.01-.342.027l.022-.03zm11.133-.106h2.756c-.259.363-.626.535-1.135.535h-2.034c.163-.142.3-.32.413-.535zm-.138 1.558h-2.034c.18-.158.33-.362.45-.609h2.767c-.261.413-.642.609-1.183.609zm-1.618 1h-2.034c.174-.154.32-.35.437-.587H25.3c-.26.398-.636.586-1.167.586zm.467 1.551c.644.107 1.172.396 1.568.862.085.1.167.206.247.32-1.083-.142-1.461-.3-2.067-1.22.08.01.164.024.252.038zm4.325 4.46c.04.065.073.125.106.183.04.071.08.141.127.213-.314-.019-.552-.193-.771-.521.202-.071.448-.021.538.126zm-2.577 1.417.422-.16.007-.002c.6-.249.685-.404.657-.803v-1.613c.456 1.16.888 1.974 1.773 1.974.12 0 .25-.015.387-.046l.346-.078-.238-.262a2.195 2.195 0 0 1-.31-.447c-.035-.062-.07-.126-.115-.196-.207-.336-.7-.45-1.098-.271-.181-.36-.364-.828-.583-1.407l-.047-.11-.115-.26v-.015h-.006a8.226 8.226 0 0 0-.454-.899 5.201 5.201 0 0 0-.49-.688c-.462-.542-1.073-.879-1.816-1.002a10.63 10.63 0 0 0-1.339-.125 46.33 46.33 0 0 1-.301-.015c-.209-.012-.64-.047-1.057-.081-.28-.023-.569-.047-.796-.064a.83.83 0 0 0 .025-.198c0-.092-.009-.174-.025-.247h2.958c.762 0 1.314-.338 1.642-1 .758-.007 1.306-.351 1.63-1.022h.105c.79 0 1.354-.36 1.677-1.07l.134-.293H19.299c-.659 0-1.22.43-1.428 1.094l-.007.023c-.17-.474-.482-.878-.883-1.116-.555-.33-1.187-.441-1.69-.297a1.754 1.754 0 0 0-.467.213 1.707 1.707 0 0 0-.396.349 3.278 3.278 0 0 0-.343.549.665.665 0 0 0-.133.143l-.12.225-.007.013c-.143.324-.317.549-.454.707a.477.477 0 0 0-.123.405c.02.107.077.194.138.26l-.003.006a.455.455 0 0 0-.06.228c0 .264.23.464.512.464.206 0 .374-.096.552-.213.072-.049.263-.175.326-.182.08 0 .151.072.151.15 0 .217-.279.334-.479.348l-.407.044c-.293.028-.432.183-.432.322 0 .14.067.218.114.265l.03.03.103.092-.432.695c-.307-.285-.667-.458-.986-.468a.699.699 0 0 0-.517.18.654.654 0 0 0-.1.122h-.007a.903.903 0 0 0-.75.388c-.146.224-.093.612.092.908l-1.09.283v5.208h19.981v-1.038z"/><path d="m13.886 19.322-1.303-.338v.427l1.303.339zM10.85 19.75l1.303-.339v-.427l-1.303.338zM10.85 20.608l1.303-.338v-.428l-1.303.338ZM13.886 20.18l-1.303-.338v.427l1.303.339zM13.886 21.039l-1.303-.339v.428l1.303.338zM10.85 21.466l1.303-.338V20.7l-1.303.339z"/></g></g></g><defs><clipPath id="a"><path fill="#fff" d="M0 0h40v40H0z"/></clipPath></defs></svg>