<svg width="40" height="40" fill="none" xmlns="http://www.w3.org/2000/svg"><mask id="a" mask-type="alpha" maskUnits="userSpaceOnUse" x="10" y="10" width="20" height="20"><path fill="#fff" d="M10 10.017h20v19.966H10z"/></mask><g mask="url(#a)" transform="matrix(1.4 0 0 1.4 -7.994 -7.994)" fill-rule="evenodd" clip-rule="evenodd"><path d="m10 19.97.032-.505.031-.504.062-.503.095-.504.094-.473.158-.472.126-.473.19-.44.188-.442.252-.44.22-.41.284-.41.252-.377.63-.756.315-.347.693-.63.378-.314.409-.284.41-.252.409-.22.881-.441.442-.158.944-.315.473-.094.504-.095.504-.063.503-.031h1.008l.505.031.504.063.503.095.472.094.473.158.472.157.44.158.474.22.409.22.41.221.409.252.41.284.377.315.347.314.346.315.315.347.347.378.283.378.284.378.504.819.409.881.346.914.126.472.095.473.094.504.063.503.032.504.032.504-.032.535-.032.505-.063.503-.094.473-.095.473-.126.471-.346.945-.41.85-.503.82-.284.41-.283.377-.347.347-.315.346-.346.346-.347.315-.377.283-.41.284-.41.252-.41.252-.408.22-.473.19-.44.188-.473.126-.473.158-.472.094-.503.095-.504.063-.505.03-.504.032-.504-.031-.503-.03-.504-.064-.504-.095-.473-.094-.472-.158-.472-.126-.442-.188-.44-.19-.441-.22-.82-.504-.408-.284-.378-.283-.347-.315-.346-.346-.315-.346-.315-.347-.315-.378-.252-.41-.283-.409-.22-.41-.253-.44-.189-.41-.19-.472-.125-.473-.157-.472-.095-.472-.094-.473-.063-.503-.031-.505z" fill="#cc2229"/><path d="M19.292 14.348c.211.162 1.273.784 1.591.983l.109.077.053-.079c.111-.186.155-.335-.162-.534-.318-.199-1.38-.821-1.591-.983l-.348-.28c.133.363.22.718.348.816z" fill="#454247"/><path d="M19.489 16.81s1.167-1.508 1.277-1.693c.112-.186.156-.335-.16-.533-.316-.197-1.373-.816-1.583-.976-.21-.16-.174-.755.445-.879.618-.123 5.987-.568 8.077-.346 2.09.223 1.806.817 1.818 1.298.012.483-.84 1.176-1.979 2.202 0 0-1.88 1.745-3.253 2.944-1.372 1.2-5.763 4.898-6.617 5.566-.854.668-4.162 3.13-4.377 3.291-.215.161-.816.645-1.142.308-.328-.337 0-.713.166-.943.165-.229 6.833-9.644 7.328-10.238z" fill="#fff"/></g></svg>