<svg width="40" height="40" fill="none" xmlns="http://www.w3.org/2000/svg"><path fill-rule="evenodd" clip-rule="evenodd" d="M12.33 7.903c0-.505.41-.914.915-.914h3.786c.505 0 .915.41.915.914v.666c0 .505-.41.914-.915.914h-3.786a.915.915 0 0 1-.915-.914zm-2.82 2.369a.915.915 0 0 0-.915.915v.665c0 .505.41.915.915.915h.79v7.46h-.79a.915.915 0 0 0-.915.914v.666c0 .505.41.914.915.914h.79v7.46h-.79a.915.915 0 0 0-.915.915v.665c0 .505.41.915.915.915h20.98c.505 0 .915-.41.915-.915v-.665a.915.915 0 0 0-.915-.915h-.791v-7.46h.79c.506 0 .916-.41.916-.914v-.666a.915.915 0 0 0-.915-.915h-.791v-7.46h.79c.506 0 .916-.409.916-.914v-.665a.915.915 0 0 0-.915-.915zm17.694 19.91v-7.46H12.795v7.46zm0-9.956v-7.46H12.795v7.46z" fill="#fff" style="stroke-width:1.4"/></svg>