<svg width="40" height="40" fill="none" xmlns="http://www.w3.org/2000/svg"><g clip-path="url(#a)" transform="matrix(1.4 0 0 1.4 -8 -7.902)"><g clip-path="url(#b)"><path d="M26.879 18.003c.993 0 1.986.002 2.98-.003.113 0 .142.03.141.143a451.506 451.506 0 0 0 0 3.23c0 .104-.022.138-.135.138-2-.004-4-.003-6 0-.105 0-.126-.03-.126-.13.004-1.081.004-2.162-.001-3.243 0-.123.04-.138.147-.137.998.003 1.996.002 2.994.002z" fill="#61519c"/><path d="M19.987 21.508c-.993 0-1.986-.002-2.98.002-.101 0-.138-.018-.138-.13.005-1.082.005-2.164.001-3.245 0-.098.018-.13.125-.13 2 .004 4 .003 6 .001.093 0 .126.02.126.118a434.88 434.88 0 0 0 0 3.271c0 .105-.04.115-.127.115-1.002-.003-2.004-.002-3.007-.002z" fill="#c23631"/><path d="M13.121 21.508c-.994 0-1.987-.002-2.98.003-.117 0-.141-.032-.14-.143.003-1.073.003-2.145-.001-3.218 0-.11.02-.146.14-.145 1.986.004 3.974.004 5.96 0 .125 0 .15.035.149.152a420.796 420.796 0 0 0 0 3.217c0 .105-.024.137-.134.137-.998-.005-1.996-.003-2.994-.003z" fill="#e06837"/><path d="M26.877 20.706c-.352 0-.704-.003-1.056.002-.096.002-.134-.014-.133-.124a87.78 87.78 0 0 0 0-1.655c0-.09.027-.113.115-.113.323 0 .323-.003.323.316 0 .36.004.72-.002 1.08-.002.098.028.122.123.121.558-.004 1.115.001 1.674-.005.108 0 .14.028.136.136-.007.242-.001.242-.246.242h-.934z" fill="#fefeff"/><path d="M19.992 18.816c.399 0 .797.002 1.195-.002.09 0 .13.013.127.116-.004.252.001.252-.251.252-.243 0-.485.004-.728-.002-.095-.003-.125.024-.124.121.005.424-.002.85.005 1.273.001.11-.033.138-.14.136-.297-.005-.297 0-.297-.3 0-.369-.003-.739.002-1.108.002-.097-.029-.123-.124-.122-.293.006-.586 0-.879.004-.078.001-.1-.02-.1-.099-.003-.27-.007-.27.257-.27h1.057zM14.453 20.707c-.185 0-.367-.001-.548.001-.054.002-.081-.032-.115-.062-.211-.181-.424-.36-.632-.544a.204.204 0 0 0-.148-.053c-.223.003-.448.005-.672 0-.086-.003-.121.016-.116.11.008.141-.003.283.004.424.004.09-.016.127-.118.127-.32-.002-.32.003-.32-.317v-1.464c0-.07-.003-.117.096-.116.567.006 1.134-.003 1.701.011.26.006.498.096.611.36.148.345-.03.7-.395.808-.03.009-.074.001-.084.036-.014.045.036.058.061.079l.597.5c.03.025.066.045.078.1z" fill="#fff"/><path d="M12.902 19.177c.206 0 .412-.008.617.002.218.011.324.17.25.35a.203.203 0 0 1-.134.124c-.106.033-.214.04-.324.04a73.891 73.891 0 0 0-.988 0c-.076.001-.106-.019-.101-.099.006-.104.006-.21 0-.314-.005-.08.016-.112.104-.109.192.007.384.002.576.002v.004z" fill="#e06937"/></g></g><defs><clipPath id="a"><path fill="#fff" d="M0 0h40v40H0z"/></clipPath><clipPath id="b"><path fill="#fff" transform="translate(10 18)" d="M0 0h20v3.511H0z"/></clipPath></defs></svg>