<svg width="40" height="40" fill="none" xmlns="http://www.w3.org/2000/svg"><path fill-rule="evenodd" clip-rule="evenodd" d="M6.756 8.664c-.476.934-.476 2.156-.476 4.6v13.471c0 2.445 0 3.668.476 4.602a4.364 4.364 0 0 0 1.908 1.907c.934.476 2.156.476 4.6.476h13.471c2.445 0 3.668 0 4.602-.476a4.364 4.364 0 0 0 1.907-1.907c.476-.934.476-2.157.476-4.602v-13.47c0-2.445 0-3.667-.476-4.601a4.364 4.364 0 0 0-1.907-1.908c-.934-.476-2.157-.476-4.602-.476h-13.47c-2.445 0-3.667 0-4.601.476a4.364 4.364 0 0 0-1.908 1.908Zm2.422 6.67V9.627h2.01c.618 0 1.146.122 1.584.365.438.24.77.576.994 1.01.224.43.336.925.336 1.488 0 .562-.112 1.057-.336 1.484a2.393 2.393 0 0 1-.994 1.002c-.438.24-.966.36-1.583.36zm1.999-1.127c.311 0 .58-.07.807-.21.23-.143.405-.343.527-.602a2.13 2.13 0 0 0 .182-.907 2.1 2.1 0 0 0-.186-.91 1.375 1.375 0 0 0-.527-.606 1.466 1.466 0 0 0-.807-.217h-.622v3.452zm2.969 1.128 1.971-5.709h1.738l1.971 5.709h-1.508l-.336-1.113H15.99l-.336 1.113zm2.15-2.158h1.385l-.452-1.464c-.073-.248-.149-.519-.225-.812h-.032c-.079.293-.156.564-.23.812zm5.51-.708-1.837 2.866h1.575l1.109-1.83c.029-.052.062-.107.099-.165h.008c.037.058.07.113.099.166l1.112 1.829h1.65l-1.903-2.866 1.781-2.843h-1.58l-1.04 1.77c-.032.055-.067.116-.103.182h-.008a4.185 4.185 0 0 1-.111-.182l-1.05-1.77h-1.654z" fill="#fff" style="stroke-width:1.4"/></svg>