<svg width="40" height="40" fill="none" xmlns="http://www.w3.org/2000/svg"><g clip-path="url(#a)" transform="matrix(1.4 0 0 1.4 -7.996 -7.998)"><mask id="b" mask-type="alpha" maskUnits="userSpaceOnUse" x="10" y="16" width="20" height="8"><path fill="#fff" d="M10 16.275h20v7.45H10z"/></mask><g mask="url(#b)" fill="#fff"><path d="M28.206 16.375h1.772v7.233h-1.772z"/><path fill-rule="evenodd" clip-rule="evenodd" d="M19.296 23.607v-4.733h1.772v1.063h2.394c.504 0 .92-.415.92-.92a.924.924 0 0 0-.92-.92h-4.166v-1.721h4.112l.054.004a2.65 2.65 0 0 1 2.638 2.637 2.65 2.65 0 0 1-2.638 2.638h-.054v.004h-2.34v1.948zM17.272 21.1a3.728 3.728 0 0 1-3.552 2.615c-2.04 0-3.72-1.68-3.72-3.72 0-2.041 1.68-3.72 3.72-3.72a3.728 3.728 0 0 1 3.548 2.6h-1.92a1.978 1.978 0 0 0-1.625-.85 1.986 1.986 0 0 0-1.976 1.976c0 1.084.892 1.976 1.976 1.976.659 0 1.276-.33 1.642-.877z"/></g></g><defs><clipPath id="a"><path fill="#fff" d="M0 0h40v40H0z"/></clipPath></defs></svg>