<svg width="40" height="40" fill="none" xmlns="http://www.w3.org/2000/svg"><path fill-rule="evenodd" clip-rule="evenodd" d="M19.779 7.468a.7.7 0 0 1 .442 0l11.9 3.967a.7.7 0 0 1 .479.664v4.396a.7.7 0 0 1-.7.7H8.1a.7.7 0 0 1-.7-.7v-4.396a.7.7 0 0 1 .479-.664zM20 10.346l-9.8 3.266v.783h19.6v-.783zm9.8 8.249H27v9.8h2.8zm-21.7 11.2a.7.7 0 0 0-.7.7v1.4a.7.7 0 0 0 .7.7h23.8a.7.7 0 0 0 .7-.7v-1.4a.7.7 0 0 0-.7-.7zm2.1-11.2H13v9.8h-2.8zm8.4 0h-2.8v9.8h2.8zm2.8 0h2.8v9.8h-2.8z" fill="#fff" style="stroke-width:1.4"/></svg>