<svg width="40" height="40" fill="none" xmlns="http://www.w3.org/2000/svg"><path fill-rule="evenodd" clip-rule="evenodd" d="M6.756 8.664c-.476.934-.476 2.156-.476 4.6v13.471c0 2.445 0 3.668.476 4.602a4.364 4.364 0 0 0 1.908 1.907c.934.476 2.156.476 4.6.476h13.471c2.445 0 3.668 0 4.602-.476a4.364 4.364 0 0 0 1.907-1.907c.476-.934.476-2.157.476-4.602v-13.47c0-2.445 0-3.667-.476-4.601a4.364 4.364 0 0 0-1.907-1.908c-.934-.476-2.157-.476-4.602-.476h-13.47c-2.445 0-3.667 0-4.601.476a4.364 4.364 0 0 0-1.908 1.908Zm16.355 5.602c.38.207.813.31 1.3.31.479 0 .906-.103 1.281-.31.376-.207.669-.502.88-.884.212-.382.318-.825.318-1.33 0-.502-.106-.947-.318-1.333a2.235 2.235 0 0 0-.883-.897 2.537 2.537 0 0 0-1.279-.32c-.486 0-.918.106-1.296.32-.377.211-.673.51-.887.897-.211.386-.317.83-.317 1.333 0 .505.106.948.317 1.33.212.382.506.677.884.884zm1.944-.9a1.232 1.232 0 0 1-.659.173c-.25 0-.47-.058-.658-.174a1.162 1.162 0 0 1-.433-.511 1.935 1.935 0 0 1-.153-.805c0-.31.05-.578.15-.805.102-.227.246-.4.433-.518.189-.12.41-.181.661-.181.253 0 .472.06.659.18.188.119.334.292.436.519.103.227.154.496.154.805 0 .31-.051.576-.154.801a1.151 1.151 0 0 1-.436.515zM9.114 9.58v4.918h3.28v-1.006h-2.08v-1.044h1.788v-.89h-1.788v-.972h2.08V9.58Zm4.734 4.764c.304.155.678.232 1.122.232.445 0 .82-.077 1.122-.232.302-.154.528-.374.679-.658.152-.284.228-.62.228-1.01V9.58h-1.214v3.018c0 .325-.067.567-.201.726-.135.157-.339.236-.614.236-.28 0-.487-.079-.62-.236-.135-.159-.202-.4-.202-.726V9.58h-1.214v3.097c0 .386.076.722.228 1.01.153.283.381.503.686.657zm3.874.154V9.58h2.098c.345 0 .643.063.893.19.253.126.445.304.576.536.132.23.198.5.198.812 0 .223-.036.428-.109.617-.07.187-.176.35-.317.488-.141.136-.31.239-.508.307l1.105 1.968h-1.35l-.99-1.845h-.382v1.845zm1.883-2.742c.188 0 .348-.05.477-.15.13-.103.195-.257.195-.464 0-.15-.033-.27-.1-.362a.524.524 0 0 0-.248-.194.91.91 0 0 0-.341-.062h-.652v1.232zm-8.738 10.607c-.416 0-.77-.061-1.064-.184a1.522 1.522 0 0 1-.686-.553c-.161-.245-.252-.545-.273-.9h1.252a.81.81 0 0 0 .096.372.66.66 0 0 0 .262.249c.116.059.257.088.423.088.141 0 .262-.018.362-.054a.502.502 0 0 0 .232-.17.466.466 0 0 0 .081-.277.494.494 0 0 0-.071-.276.48.48 0 0 0-.229-.178 2.144 2.144 0 0 0-.446-.119 4.89 4.89 0 0 1-.99-.26 1.402 1.402 0 0 1-.6-.446c-.14-.193-.211-.443-.211-.75 0-.341.071-.632.215-.873.145-.244.357-.429.634-.556.28-.13.616-.195 1.01-.195.38 0 .706.06.978.181.275.118.49.297.645.536.155.236.246.528.273.876h-1.245a.8.8 0 0 0-.092-.355.547.547 0 0 0-.232-.228.762.762 0 0 0-.358-.079c-.123 0-.231.02-.324.062a.49.49 0 0 0-.218.18.504.504 0 0 0-.079.284c0 .097.022.178.065.242.045.061.12.114.225.157.107.043.256.083.447.12.42.079.763.172 1.026.279.264.107.469.26.614.46.146.198.218.462.218.791 0 .348-.076.64-.228.877-.152.234-.373.41-.662.525-.288.116-.639.174-1.05.174zm3.42-.082v-3.905h-1.333v-1.013h3.871v1.013h-1.333v3.905zm3.865-.232c.38.207.813.31 1.3.31.479 0 .906-.103 1.282-.31.375-.207.668-.501.88-.883.21-.382.317-.825.317-1.33 0-.503-.106-.947-.318-1.334a2.235 2.235 0 0 0-.883-.897 2.537 2.537 0 0 0-1.279-.32c-.486 0-.918.107-1.296.32-.377.212-.673.51-.887.897-.211.387-.317.831-.317 1.334 0 .505.106.948.317 1.33.212.382.506.676.884.883zm1.944-.9a1.232 1.232 0 0 1-.658.174c-.25 0-.47-.058-.659-.174a1.161 1.161 0 0 1-.433-.512 1.935 1.935 0 0 1-.153-.805c0-.309.05-.577.15-.804.102-.228.246-.4.433-.519.189-.12.41-.18.662-.18.252 0 .471.06.658.18.188.118.334.291.436.519.103.227.154.495.154.804 0 .31-.051.577-.154.802a1.15 1.15 0 0 1-.436.515Zm1.828 1.132 1.582-2.469-1.596-2.449h1.426l.904 1.525c.027.047.059.1.095.157h.007c.032-.057.061-.11.089-.157l.897-1.525h1.36l-1.534 2.449 1.64 2.47h-1.422l-.959-1.576a2.51 2.51 0 0 0-.085-.144h-.007c-.032.05-.06.098-.085.144l-.955 1.575zm6.562-2.469-1.583 2.47h1.357l.955-1.576c.025-.046.054-.094.086-.144h.007c.031.05.06.098.085.144l.958 1.575h1.422l-1.64-2.469 1.535-2.449h-1.361l-.897 1.525-.089.157h-.007a3.547 3.547 0 0 1-.095-.157l-.904-1.525H26.89zm-13.23 10.612c-.641 0-1.124-.21-1.45-.627-.322-.419-.484-1.052-.484-1.9 0-.85.163-1.487.488-1.91.325-.425.804-.638 1.436-.638.632 0 1.108.213 1.429.638.32.423.48 1.06.48 1.91 0 .85-.157 1.485-.473 1.903-.314.416-.79.624-1.426.624zm0-.968a.57.57 0 0 0 .416-.154c.105-.105.182-.27.232-.495.05-.227.075-.53.075-.91s-.026-.685-.078-.914c-.053-.23-.132-.398-.239-.505a.562.562 0 0 0-.416-.16.579.579 0 0 0-.423.16c-.11.105-.191.273-.245.505a4.276 4.276 0 0 0-.079.91c0 .38.026.684.079.911.052.227.133.393.242.498a.62.62 0 0 0 .436.154zm-4.372.968a2.23 2.23 0 0 1-.962-.198 1.606 1.606 0 0 1-.655-.539 1.38 1.38 0 0 1-.242-.757h1.16c.018.105.059.197.123.276.066.08.149.143.249.188.1.043.21.065.334.065.145 0 .27-.03.375-.092a.597.597 0 0 0 .242-.256.881.881 0 0 0 .082-.392.797.797 0 0 0-.089-.386.597.597 0 0 0-.249-.249.753.753 0 0 0-.365-.085.82.82 0 0 0-.504.167.885.885 0 0 0-.157.174H9.148l.266-2.912h3.11v.972h-2.118l-.098 1.074h.006c.112-.11.247-.193.406-.252.162-.06.34-.09.536-.09.282 0 .536.063.764.189.227.125.406.305.535.542.132.234.198.51.198.829 0 .336-.076.635-.229.897-.15.26-.366.466-.648.613a2.11 2.11 0 0 1-.992.222z" fill="#fff" style="stroke-width:1.4"/></svg>