<svg width="40" height="40" fill="none" xmlns="http://www.w3.org/2000/svg"><path fill-rule="evenodd" clip-rule="evenodd" d="M6.28 13.265c0-2.445 0-3.667.476-4.601a4.364 4.364 0 0 1 1.908-1.908c.934-.476 2.156-.476 4.6-.476h13.471c2.445 0 3.668 0 4.602.476a4.364 4.364 0 0 1 1.907 1.908c.476.934.476 2.156.476 4.6v13.471c0 2.445 0 3.668-.476 4.602a4.364 4.364 0 0 1-1.907 1.907c-.934.476-2.157.476-4.602.476h-13.47c-2.445 0-3.667 0-4.601-.476a4.364 4.364 0 0 1-1.908-1.907c-.476-.934-.476-2.157-.476-4.602Zm4.724 1.533c-.442 0-.82-.065-1.132-.196a1.62 1.62 0 0 1-.729-.588c-.172-.26-.269-.58-.29-.958h1.331c.005.15.04.282.102.396.065.111.159.2.28.265a.982.982 0 0 0 .45.094c.15 0 .278-.02.384-.058a.532.532 0 0 0 .247-.181.496.496 0 0 0 .087-.294.526.526 0 0 0-.076-.294.51.51 0 0 0-.243-.189 2.292 2.292 0 0 0-.476-.127 5.2 5.2 0 0 1-1.052-.276 1.492 1.492 0 0 1-.639-.475c-.15-.206-.225-.472-.225-.798 0-.363.076-.673.229-.93.155-.258.38-.455.675-.59.297-.139.655-.208 1.074-.208.404 0 .751.065 1.041.193a1.5 1.5 0 0 1 .686.57c.165.251.261.562.29.932h-1.324a.851.851 0 0 0-.098-.377.584.584 0 0 0-.247-.243.814.814 0 0 0-.38-.084.85.85 0 0 0-.345.065.52.52 0 0 0-.233.193.535.535 0 0 0-.083.3c0 .105.023.19.069.259a.551.551 0 0 0 .24.166c.113.046.271.089.475.127.447.085.811.184 1.092.298.28.114.498.277.653.49.155.21.232.491.232.842 0 .37-.08.68-.243.932a1.46 1.46 0 0 1-.704.56c-.307.123-.68.184-1.117.184zm2.679-.087V9.48h2.137c.406 0 .752.069 1.038.206.288.136.505.33.653.581.15.25.225.544.225.885 0 .339-.075.635-.225.89a1.482 1.482 0 0 1-.653.59c-.288.139-.634.208-1.038.208h-.856v1.872zm2.017-2.867a1 1 0 0 0 .41-.076.6.6 0 0 0 .269-.232.709.709 0 0 0 .098-.385.701.701 0 0 0-.095-.38.541.541 0 0 0-.268-.222 1.073 1.073 0 0 0-.414-.073h-.736v1.368zm-.025 11.682c-.682 0-1.197-.223-1.542-.668-.344-.445-.516-1.119-.516-2.021 0-.905.173-1.583.52-2.033.345-.452.854-.678 1.527-.678.672 0 1.18.226 1.52.678.341.45.512 1.128.512 2.033 0 .904-.168 1.58-.504 2.025-.334.442-.84.664-1.517.664zm0-1.031a.606.606 0 0 0 .442-.163c.112-.112.194-.287.247-.526.053-.242.08-.565.08-.97a4.55 4.55 0 0 0-.083-.972c-.056-.244-.14-.423-.254-.537a.599.599 0 0 0-.443-.17.616.616 0 0 0-.45.17c-.116.111-.203.29-.261.537-.056.247-.084.57-.084.969 0 .404.028.727.084.969.055.242.141.418.257.53a.66.66 0 0 0 .465.163zm-4.652 1.03a2.37 2.37 0 0 1-1.024-.21 1.709 1.709 0 0 1-.696-.573 1.468 1.468 0 0 1-.258-.806h1.234a.64.64 0 0 0 .13.294c.07.085.159.151.265.2a.889.889 0 0 0 .356.069.776.776 0 0 0 .4-.098.637.637 0 0 0 .257-.273.938.938 0 0 0 .087-.417.848.848 0 0 0-.095-.41.636.636 0 0 0-.264-.265.8.8 0 0 0-.389-.09.875.875 0 0 0-.537.177.939.939 0 0 0-.167.185H9.176l.283-3.099h3.31v1.035h-2.254l-.106 1.143h.008c.118-.116.262-.206.432-.269.171-.063.361-.094.57-.094.3 0 .57.066.812.2.242.132.432.325.57.576.14.25.21.543.21.882 0 .358-.08.676-.243.955-.16.278-.39.495-.69.653-.3.157-.651.236-1.055.236zm7.74-.667c.346.445.86.668 1.542.668.677 0 1.183-.222 1.517-.664.336-.446.504-1.12.504-2.025 0-.905-.17-1.583-.511-2.033-.342-.452-.848-.678-1.52-.678-.673 0-1.183.226-1.529.678-.346.45-.518 1.128-.518 2.033 0 .902.171 1.576.515 2.02zm1.985-.526a.605.605 0 0 1-.443.163.66.66 0 0 1-.465-.163c-.116-.112-.201-.288-.257-.53a4.497 4.497 0 0 1-.084-.97c0-.398.028-.721.084-.968.058-.247.145-.426.261-.537a.616.616 0 0 1 .45-.17.6.6 0 0 1 .443.17c.114.114.198.293.254.537.055.244.083.569.083.973s-.026.727-.08.968c-.053.24-.135.415-.246.527z" fill="#fff" style="stroke-width:1.4"/></svg>