<svg width="40" height="40" fill="none" xmlns="http://www.w3.org/2000/svg"><g clip-path="url(#a)" transform="matrix(1.4 0 0 1.4 -8 -8.118)"><g clip-path="url(#b)"><path d="M17.805 21.604c.3 0 .6-.01.9.003.27.01.21-.043.222.232.003.07-.027.084-.09.084-.589-.002-1.177-.002-1.765-.001a.975.975 0 0 0-.39.068.215.215 0 0 0-.14.215c-.001.228.005.455-.003.682-.007.205.082.288.29.34.112.027.225.026.34.026l1.67.001c.086 0 .107.016.105.106-.004.22.029.212-.198.214-.566.005-1.133.015-1.7-.005-.189-.007-.38-.014-.56-.092a.488.488 0 0 1-.32-.478 33.429 33.429 0 0 1 0-.82c.004-.264.161-.446.423-.515.2-.052.403-.05.605-.06.102-.006.204 0 .305 0h.306zM15.61 23.577c-.22.06-.343-.107-.487-.217-.222-.17-.441-.345-.66-.52-.035-.027-.059-.027-.095.001-.29.23-.582.455-.873.684a.172.172 0 0 1-.097.042c-.121.005-.242.007-.363.01-.017 0-.035-.001-.04-.023-.005-.028-.003-.054.02-.074.05-.044.099-.092.152-.133.306-.24.613-.479.92-.715.05-.038.042-.057-.002-.09-.322-.25-.644-.502-.965-.754a.641.641 0 0 1-.105-.099c-.033-.042-.014-.083.04-.085a6.04 6.04 0 0 1 .348 0c.04.002.077.023.11.05.28.222.562.442.84.668.053.043.085.038.133-.002.257-.212.518-.419.774-.632.073-.06.147-.096.243-.086.07.006.14 0 .211.002.033 0 .073-.01.089.03.016.042-.014.07-.042.093-.091.075-.185.148-.277.221l-.748.596c-.036.028-.039.047-.001.077.297.234.595.47.89.705.061.048.118.102.176.153.024.02.038.045.025.076-.013.03-.041.021-.064.022h-.152zM25.605 22.315c0-.392 0-.784-.002-1.175 0-.062.02-.08.08-.076.067.005.135.007.202.001.076-.006.093.036.094.096 0 .126.005.252-.001.377-.004.07.018.09.088.088.225-.004.45 0 .675-.003.062 0 .09.02.085.084-.004.045-.004.091-.005.137 0 .094-.001.095-.099.095-.225 0-.45.002-.675-.001-.053 0-.07.014-.069.069.003.452-.001.904.004 1.356.002.145-.065.225-.217.215-.174-.011-.164.038-.164-.168v-1.095h.004zM22.03 22.154a.433.433 0 0 0-.207-.384.982.982 0 0 0-.433-.15c-.36-.033-.721-.017-1.082-.013-.222.002-.444.028-.646.136-.195.103-.32.248-.314.485.006.254.001.508.001.762 0 .031.001.062.01.093.076.234.247.361.473.426.181.052.369.058.554.06.419.006.838.002 1.257.003.151 0 .154 0 .208-.144.006-.014.009-.028.013-.042.03-.106.011-.132-.099-.132-.426 0-.852-.002-1.278 0-.124 0-.247-.007-.368-.029-.17-.03-.368-.144-.378-.359-.003-.088-.013-.088.079-.088h2.07c.048 0 .097-.002.116-.054a.43.43 0 0 0 .023-.135c.003-.145.003-.29 0-.435zm-.44.299c-.3-.002-.6-.001-.901-.001-.298 0-.596-.002-.894 0-.055 0-.081-.012-.074-.072a.52.52 0 0 0 0-.109c-.019-.22.1-.264.248-.303.088-.024.181-.04.272-.041.351-.007.702-.027 1.052.021.09.012.18.034.26.08.07.037.108.093.106.175 0 .06-.004.121.001.18s-.019.07-.07.07zM12.688 22.155a.43.43 0 0 0-.178-.362.927.927 0 0 0-.484-.174c-.35-.03-.7-.015-1.052-.012-.185.001-.37.02-.547.09-.273.106-.44.269-.426.596.01.21.002.42.003.63 0 .051-.003.102.012.152.07.231.235.365.459.43.206.059.42.064.633.065.394.002.789 0 1.183.001.168 0 .172-.002.224-.162l.006-.021c.034-.108.015-.135-.1-.135-.281 0-.562.003-.843 0-.26-.005-.522.016-.782-.025-.22-.034-.405-.183-.397-.378.003-.055.013-.075.073-.075.346.003.693.002 1.039.002h1.016c.127 0 .16-.036.16-.166.001-.151.002-.304 0-.456zm-.441.297c-.302-.002-.605 0-.908 0-.297 0-.595-.002-.893 0-.058.001-.077-.016-.071-.073.008-.079-.014-.16.012-.237.036-.107.13-.145.226-.172.1-.028.205-.043.308-.045.326-.003.653-.023.979.017.108.014.215.03.312.084.066.036.106.09.104.17 0 .062-.003.125.001.188.004.055-.016.069-.07.068zM25.15 22.146a.425.425 0 0 0-.167-.346.877.877 0 0 0-.467-.178 9.004 9.004 0 0 0-1.306 0c-.153.011-.3.054-.436.125-.2.105-.313.262-.308.498.006.25.002.499.003.748 0 .077.026.146.065.211.115.197.298.289.514.326.191.033.385.041.578.041h1.134c.16 0 .163 0 .215-.153l.008-.028c.035-.116.018-.137-.104-.137-.472 0-.944 0-1.417-.003a.862.862 0 0 1-.36-.069c-.14-.064-.237-.16-.239-.329 0-.06.017-.077.078-.077.344.003.688.002 1.031.001l1.039.001c.071 0 .113-.023.13-.095a.468.468 0 0 0 .01-.1c0-.145.003-.29-.001-.436zm-.443.307c-.3-.004-.6-.002-.9-.002-.3 0-.6-.001-.9.002-.054 0-.074-.015-.068-.07.004-.04 0-.082 0-.123 0-.164.069-.253.231-.29a1.63 1.63 0 0 1 .351-.048c.247-.003.494-.004.74.001a1.5 1.5 0 0 1 .443.071c.126.042.174.104.174.239 0 .048-.004.097 0 .145.005.055-.01.075-.07.075z" fill="#fff"/><path d="M26.682 18.135v-1.038c0-.094.002-.097.098-.097h2.027c.021 0 .043.003.065.004.058.001.077.031.077.088v2.076c0 .085-.018.103-.119.105-.164.003-.329.002-.494 0-.104-.001-.207.006-.312-.008-.076-.012-.045-.07-.053-.106-.008-.038.002-.08.056-.082l.145-.004c.16 0 .32-.002.48.002.072.002.098-.026.098-.098-.002-.474-.002-.948-.002-1.422 0-.087-.003-.175.002-.261.003-.073-.023-.096-.096-.096-.523.003-1.046.002-1.57.002-.036 0-.072 0-.108-.003-.077-.007-.1.013-.102.091-.002.08 0 .16 0 .24l-.001 1.422c0 .127 0 .126.13.125.169-.001.338.003.508-.001.078-.002.077.042.076.097 0 .058-.002.106-.082.105-.235-.003-.47-.001-.705-.003-.112-.001-.118-.014-.118-.121.002-.34.001-.678.001-1.016h-.001z" fill="#96b753"/><path d="M28.542 18.003c.099 0 .137.058.103.152-.013.037-.042.035-.07.035h-.502c-.208-.001-.21-.002-.208.208l.004.783c.002.273-.002.546-.004.819a.44.44 0 0 0 .01.093c.007.034.028.05.067.05l1.712.004h.058c.093-.006.111-.027.111-.121v-1.712c0-.1-.021-.123-.122-.124-.189 0-.378 0-.566.002-.056 0-.087-.011-.084-.076.003-.097.012-.114.088-.115h.625c.153.002.235.088.235.238v.929c0 .32-.004.639.002.958.001.109-.062.17-.172.196-.104.026-.212.012-.318.012-.52.002-1.04.001-1.561 0-.167 0-.267-.076-.265-.258.005-.596 0-1.193.003-1.79 0-.087-.003-.182.088-.238" fill="#c7d154"/></g></g><defs><clipPath id="a"><path fill="#fff" d="M0 0h40v40H0z"/></clipPath><clipPath id="b"><path fill="#fff" transform="translate(10 17)" d="M0 0h20v6.589H0z"/></clipPath></defs></svg>