<svg width="40" height="40" fill="none" xmlns="http://www.w3.org/2000/svg"><g clip-path="url(#a)" transform="matrix(1.4 0 0 1.4 -8 -8.082)"><path d="M18.404 19.049v3.674h.725v-3.097h.854c.256 0 .511.028.72.189a.646.646 0 0 1 .251.54.645.645 0 0 1-.251.54c-.239.184-.563.19-.85.19h-.128v.576c.346 0 .678.006 1.011-.1.05-.016.111-.037.16-.057.25-.105.443-.256.577-.454.134-.198.2-.43.2-.695 0-.27-.066-.502-.2-.698a1.27 1.27 0 0 0-.578-.45 1.915 1.915 0 0 0-.65-.152 4.197 4.197 0 0 0-.234-.006Zm-3.954.867c-.178.287-.267.61-.267.97 0 .361.088.685.264.971.176.287.42.512.73.674.31.163.658.244 1.043.244.312 0 .598-.052.858-.157.26-.105.478-.257.656-.456l-.458-.42a1.35 1.35 0 0 1-1.018.435c-.261 0-.496-.055-.703-.165a1.214 1.214 0 0 1-.484-.46 1.28 1.28 0 0 1-.175-.665c0-.248.059-.47.175-.666.115-.196.283-.355.484-.46.207-.11.442-.165.703-.165.403 0 .742.144 1.018.43l.458-.414c-.18-.2-.403-.357-.654-.456a2.25 2.25 0 0 0-.855-.158c-.385 0-.732.082-1.043.244a1.86 1.86 0 0 0-.732.674zm-4.183 0c-.178.287-.267.61-.267.97 0 .361.089.685.267.971.178.287.423.512.735.674a2.24 2.24 0 0 0 1.051.244c.273 0 .545-.04.806-.12.261-.08.49-.196.686-.347v-1.463h-1.272v.579h.602v.564a1.58 1.58 0 0 1-.784.19 1.48 1.48 0 0 1-.71-.169 1.247 1.247 0 0 1-.668-1.122c0-.252.06-.476.177-.672.118-.195.287-.353.49-.456.21-.108.448-.163.717-.163.41 0 .76.14 1.05.42l.447-.42a1.713 1.713 0 0 0-.659-.446 2.395 2.395 0 0 0-.871-.152 2.27 2.27 0 0 0-1.06.244 1.85 1.85 0 0 0-.737.674z" fill="#fff"/><path d="M24.878 17v1.362h-2.317v5.047h5.121v-1.35H30V17Zm4.435 4.395h-2.317v1.35h-3.749v-3.72h2.318v-1.361h3.748z" fill="#fab900"/></g><defs><clipPath id="a"><path fill="#fff" d="M0 0h40v40H0z"/></clipPath></defs></svg>