<svg width="40" height="40" fill="none" xmlns="http://www.w3.org/2000/svg"><g clip-path="url(#a)" transform="matrix(1.4 0 0 1.4 -8 -8.237)"><path fill-rule="evenodd" clip-rule="evenodd" d="M11.316 12.223a.5.5 0 0 1 .416-.223h4.809l6.184.515 6.954 2.675a.5.5 0 0 1 .32.467v2.126a.5.5 0 0 1-.242.429l-2.529 1.517-1.172 1.954.435 1.355a.5.5 0 0 1-.122.507l-3.809 3.809a.5.5 0 0 1-.354.146h-2.93l-2.69 1.615a.5.5 0 0 1-.687-.172L14.433 26.5H13a.5.5 0 0 1-.5-.5v-4.61l.795-3.577-2.283-.38a.5.5 0 0 1-.402-.372l-.633-2.533a.5.5 0 0 1 .069-.399ZM12.534 14l-.457.687.233.934 2.874.48a.5.5 0 0 1 .406.601L14.5 21.61v2.89h.782a.5.5 0 0 1 .43.243l1.13 1.885 1.762-1.057a.5.5 0 0 1 .257-.071h2.724l2.829-2.829-.394-1.133a.5.5 0 0 1 .043-.421l1.643-2.739a.5.5 0 0 1 .172-.171l2.121-1.273v-.247l-5.725-2.202L16.458 14Z" fill="#fff"/></g><defs><clipPath id="a"><path fill="#fff" transform="translate(10 10)" d="M0 0h20v20H0z"/></clipPath></defs></svg>