<svg width="41" height="40" fill="none" xmlns="http://www.w3.org/2000/svg"><g clip-path="url(#a)" transform="matrix(1.4 0 0 1.4 -8.4 -8.006)"><g clip-path="url(#b)"><path d="M15.087 19.78h2.569l-2.33 9.248H11V11h20v18.025h-3.834c-.068-.257-.14-.525-.21-.794-1.166-4.49-2.332-8.98-3.496-13.47-.027-.103-.069-.137-.178-.137-2.283.003-4.566.002-6.85.003-.067 0-.138-.026-.165.09-.388 1.68-.782 3.36-1.18 5.063z" fill="#fff"/></g></g><defs><clipPath id="a"><path fill="#fff" transform="translate(.879)" d="M0 0h40v40H0z"/></clipPath><clipPath id="b"><path fill="#fff" transform="translate(11 11)" d="M0 0h20v18.028H0z"/></clipPath></defs></svg>