<svg width="40" height="40" fill="none" xmlns="http://www.w3.org/2000/svg"><path fill-rule="evenodd" clip-rule="evenodd" d="M34 19.989C34 12.235 27.719 5.93 19.989 5.93 12.258 5.931 6 12.235 6 19.989c0 7.776 6.281 14.08 13.989 14.08 7.753 0 14.011-6.281 14.011-14.08zm-1.91-1.887c0 5.913-4.785 10.721-10.675 10.721-5.89 0-10.675-4.808-10.675-10.721 0-5.936 4.785-10.745 10.675-10.745 5.89 0 10.675 4.809 10.675 10.745z" fill="#76777a" style="stroke-width:1.4"/><path fill-rule="evenodd" clip-rule="evenodd" d="M27.488 19.988c0 4.165-3.359 7.524-7.5 7.524-4.118 0-7.477-3.36-7.477-7.524 0-4.14 3.359-7.5 7.477-7.5 4.141 0 7.5 3.36 7.5 7.5z" fill="#005098" style="stroke-width:1.4"/></svg>