<svg width="40" height="40" fill="none" xmlns="http://www.w3.org/2000/svg"><path fill-rule="evenodd" clip-rule="evenodd" d="M23.074 7.51a.7.7 0 0 0-.589.198l-3.194 3.194-4.811 1.375-.087.03-.081.042-2.755 1.654-.102.074a.7.7 0 0 0-.098.946l1.634 2.179-.7 3.5H9.384l-.126.011a.7.7 0 0 0-.564.574L7.463 28.67l-.01.132a.7.7 0 0 0 .294.553l4.201 3.001.11.064a.7.7 0 0 0 .61-.008l5.014-2.507.097-.058a.7.7 0 0 0 .216-.255l1.996-3.991h2.8l2.1 1.4v2.326l.01.12a.7.7 0 0 0 .43.53l2.632 1.053.113.034a.7.7 0 0 0 .641-.19l3.67-3.668.07-.084a.7.7 0 0 0 .134-.411v-4.11l-.011-.126a.7.7 0 0 0-.462-.536l-3.044-1.043.017-.895 3.237-2.59.091-.087a.7.7 0 0 0 .172-.46V14.31l-.012-.128a.7.7 0 0 0-.589-.565l-4.299-.614-.63-3.784-.033-.124a.7.7 0 0 0-.437-.425l-3.39-1.13zm.472 3.095.96.32.676 4.053a.7.7 0 0 0 .592.578l3.726.532-2.927 2.342a.7.7 0 0 0-.262.533l-.067 3.41a.7.7 0 0 0 .473.676l3.073 1.054v1.74l-2.074 2.073-.026-.011v-2.027a.7.7 0 0 0-.31-.583l-3.565-2.375a.7.7 0 0 0-.388-.118h-4.734a.7.7 0 0 0-.626.387l-2.263 4.526-3.258 1.628-2.106-1.505.723-4.336h2.85a.7.7 0 0 0 .686-.563l1.222-6.108a.7.7 0 0 0-.127-.558l-.802-1.067.523-.314 5.068-1.447a.7.7 0 0 0 .303-.179z" fill="#fff" style="stroke-width:1.4"/></svg>