<svg width="40" height="40" fill="none" xmlns="http://www.w3.org/2000/svg"><path fill-rule="evenodd" clip-rule="evenodd" d="M17.487 14.613c.382-.129.786-.19 1.19-.197a9.483 9.483 0 0 1 2.278.275c1.255.277 2.468.722 3.651 1.22a40.693 40.693 0 0 1 7.04 3.928c.6.426 1.198.855 1.756 1.335.245.234.492.493.58.83a.997.997 0 0 1-.315.934c-.252.249-.639.315-.975.24-.333-.046-.623-.226-.918-.375a25.704 25.704 0 0 0-3.835-1.546c-.584-.19-1.18-.343-1.775-.494-1.46-.332-2.951-.552-4.45-.598a11.547 11.547 0 0 0-1.941.053c.86 1.355 1.833 2.635 2.85 3.875.21.245.28.609.151.908-.202.434-.734.691-1.197.54-.218-.066-.366-.25-.519-.405-.405-.48-.8-.967-1.171-1.473-.504-.643-.966-1.316-1.432-1.987-.248-.384-.523-.752-.736-1.156-2.366.443-4.621 1.364-6.73 2.51-.709.4-1.412.809-2.082 1.27-.48.31-.92.672-1.384 1.004-.212.167-.5.198-.76.166-.342-.097-.658-.356-.732-.715a.862.862 0 0 1 .05-.585 1.53 1.53 0 0 1 .385-.438 23.558 23.558 0 0 1 4.05-2.677c2.867-1.488 6.006-2.53 9.243-2.732.736-.001 1.475-.03 2.209.033a23.9 23.9 0 0 1 4.428.73c1.197.324 2.362.756 3.513 1.215-1.574-.915-3.186-1.773-4.866-2.479a23.484 23.484 0 0 0-3.542-1.215c-.812-.193-1.644-.334-2.48-.3-.145.006-.287.04-.427.075-.146.035-.253.146-.373.226-.167.212-.144.506-.072.749.068.196.158.386.263.565.032.048.034.106.043.162-.63.047-1.253.173-1.87.31-.22-.448-.43-.917-.47-1.422-.022-.386-.032-.786.106-1.153.19-.579.697-1.017 1.266-1.206z" fill="#f15e28" style="stroke-width:1.4"/></svg>