<svg width="40" height="40" fill="none" xmlns="http://www.w3.org/2000/svg"><path fill-rule="evenodd" clip-rule="evenodd" d="M20 6.2c.814 0 1.515.575 1.675 1.373l1.84 9.198 7.045 6.192a1.708 1.708 0 0 1-1.674 2.9l-8.887-3.006-8.885 3.007a1.708 1.708 0 0 1-1.674-2.9l7.045-6.194 1.84-9.197c.16-.798.86-1.373 1.675-1.373Zm.955 12.05-.956-4.774-.954 4.772-3.655 3.212 4.609-1.559 4.61 1.559Zm-3.009 13.806.454-7.258 1.599-.54 1.6.54.455 7.258a.7.7 0 0 1-.7.744h-2.709a.7.7 0 0 1-.699-.744z" fill="#fff" style="stroke-width:1.4"/></svg>