<svg width="40" height="40" fill="none" xmlns="http://www.w3.org/2000/svg"><g clip-path="url(#a)" transform="matrix(1.4 0 0 1.4 -8 -8)"><mask id="b" mask-type="alpha" maskUnits="userSpaceOnUse" x="10" y="10" width="20" height="20"><path fill="#fff" d="M10.226 10h19.549v20H10.226z"/></mask><g mask="url(#b)" fill-rule="evenodd" clip-rule="evenodd"><path d="M17.533 11.275c.343.079.677.186 1.01.275-.313.46-.45.47-.755 1.226-.54 1.354-.294 2.943.196 4.267.304.814.687 1.53 1.128 2.158 2.266 3.158 7.308 5.453 9.976 1.903 1.236-1.639.588-4.356-.294-6.023h-.206c.853 1.618 1.147 4.178-.128 5.62-1.667 1.874-5.15 1.04-6.945-.647-.5-.47-.951-.961-1.343-1.491-.863-1.157-1.423-2.491-1.423-4.08 0-.756.275-2.149.795-2.502.245-.176.382-.039.942.147.147.05.392.148.53.157-.04-.068-.06-.088-.099-.166l-.392-.716c-.069-.138-.255-.412-.285-.54-.382 0-2.246.255-2.707.412z" fill="url(#c)" style="fill:url(#c)"/><path d="M23.84 12.109c-.333.01-1.079.216-1.334.402-1.589 1.167-1.089 3.266.079 4.689 1.147 1.392 3.972 2.57 5.09.686.716-1.187-.049-2.51-.186-2.982h-.47c.117.393.392 1.52.146 2.197-.52 1.413-2.785.334-3.511-.647-.726-.98-1.167-2.354-.432-3.02.236-.217.608-.344 1.148-.344l.54 1.187.029-1.54c0-.099-.108-.138-.177-.187-.147-.127-1.285-1.187-1.402-1.216z" fill="url(#d)" style="fill:url(#d)"/><path d="M15.189 13.06c.265-.853.765-1.52 1.48-2.06.668-.5 1.688-.97 2.561-.97V10c-1.942 0-3.727 1.03-4.738 2.688-1.451 2.373-.402 5.57.844 7.827 2.06 3.688 6.444 6.69 10.79 5.68-.157.235-.373.686-.54.921.461-.265 2.001-2.03 2.197-2.56-.098-.147-.97-1.236-1.069-1.304l-.147 1.216c-4.09 1.02-8.063-1.53-10.054-4.973-1-1.746-1.962-4.414-1.324-6.435z" fill="url(#e)" style="fill:url(#e)"/><path d="M26.91 27.155c.098-.068.412-.323.461-.392l-.068-.059-.403.304c-4.227 2.845-10.142-.794-12.702-4.443-1.403-2.001-2.246-4.414-2.04-6.837.127-1.55.726-2.334 1.608-3.521.089-.088.167-.147.236-.245-.56.147-1.942 1.814-2.256 2.393-1.383 2.619-.402 6.13 1.687 9.053 2.6 3.63 6.915 6.347 10.584 5.317 1.128-.314 1.971-.873 2.893-1.57z" fill="url(#f)" style="fill:url(#f)"/><path d="m21.75 29.745-.019-.128c-.157.01-.48.07-.628.089-2.991.382-6.709-2.09-8.504-4.444-.54-.706-1.187-1.667-1.57-2.491-.038-.088-.058-.167-.029-.226.04-.098.344-.46.442-.657-.49-.324-.952-.667-1.216-1.246 0 .432.01.834.068 1.256.04.304.294 1.412.5 1.717v-.334c0 .01.01.01.01.02 1.893 3.02 4.07 5.64 7.425 6.454.834.206 2.57.441 3.522-.01z" fill="#4b9cd6"/><path d="M14.002 11.962h.03l-.03-.04Z" fill="#2157a4"/></g></g><defs><linearGradient id="c" x1="13.58" y1="17.314" x2="23.873" y2="26.934" gradientUnits="userSpaceOnUse"><stop stop-color="#312783"/><stop offset=".729" stop-color="#948EBF"/><stop offset="1" stop-color="#233B91"/></linearGradient><linearGradient id="d" x1="20.018" y1="16.287" x2="26.234" y2="19.734" gradientUnits="userSpaceOnUse"><stop stop-color="#0F6FB7"/><stop offset=".612" stop-color="#85B6DB"/><stop offset="1" stop-color="#1670B7"/></linearGradient><linearGradient id="e" x1="10.074" y1="20.561" x2="24.05" y2="28.959" gradientUnits="userSpaceOnUse"><stop stop-color="#8DBEE3"/><stop offset=".302" stop-color="#8EBFE3"/><stop offset=".741" stop-color="#C4DBF2"/><stop offset="1" stop-color="#8BA5D6"/></linearGradient><linearGradient id="f" x1="6.876" y1="21.036" x2="20.3" y2="32.783" gradientUnits="userSpaceOnUse"><stop stop-color="#0063A6"/><stop offset=".502" stop-color="#0164A7"/><stop offset=".729" stop-color="#2297D5"/><stop offset="1" stop-color="#1365A5"/></linearGradient><clipPath id="a"><path fill="#fff" d="M0 0h40v40H0z"/></clipPath></defs></svg>