<svg width="40" height="40" fill="none" xmlns="http://www.w3.org/2000/svg"><path fill-rule="evenodd" clip-rule="evenodd" d="M6.756 8.664c-.476.934-.476 2.156-.476 4.6v13.471c0 2.445 0 3.668.476 4.602a4.364 4.364 0 0 0 1.908 1.907c.934.476 2.156.476 4.6.476h13.471c2.445 0 3.668 0 4.602-.476a4.364 4.364 0 0 0 1.907-1.907c.476-.934.476-2.157.476-4.602v-13.47c0-2.445 0-3.667-.476-4.601a4.364 4.364 0 0 0-1.907-1.908c-.934-.476-2.157-.476-4.602-.476h-13.47c-2.445 0-3.667 0-4.601.476a4.364 4.364 0 0 0-1.908 1.908Zm3.502 6.386c.43.253.932.38 1.505.38.488 0 .92-.095 1.298-.285.377-.19.678-.454.903-.792.224-.34.356-.73.395-1.168h-1.4a1.312 1.312 0 0 1-.21.555 1.088 1.088 0 0 1-.42.36c-.17.084-.36.127-.574.127-.29 0-.541-.072-.752-.214a1.376 1.376 0 0 1-.48-.61 2.367 2.367 0 0 1-.166-.922c0-.322.056-.616.167-.883.113-.267.274-.478.482-.633a1.22 1.22 0 0 1 .745-.234c.213 0 .402.041.566.123.166.082.3.198.404.348.105.15.18.33.225.538h1.398a2.656 2.656 0 0 0-.444-1.163 2.342 2.342 0 0 0-.906-.772 2.787 2.787 0 0 0-1.263-.277c-.567 0-1.064.126-1.489.38a2.555 2.555 0 0 0-.981 1.053c-.23.446-.345.952-.345 1.52 0 .565.116 1.071.349 1.52.232.446.563.796.993 1.049zm7.906-5.423h-1.738l-1.971 5.708h1.508l.336-1.112h1.991l.337 1.112h1.508zm-.174 3.55h-1.386l.447-1.464c.074-.248.15-.519.23-.812h.032c.076.293.151.564.225.812zm5.031 2.253c-.573 0-1.074-.127-1.504-.38a2.57 2.57 0 0 1-.994-1.05 3.258 3.258 0 0 1-.348-1.52c0-.567.114-1.073.344-1.52.23-.448.557-.799.982-1.052.425-.254.92-.38 1.488-.38.473 0 .894.092 1.263.277.372.182.674.44.907.772.232.332.38.72.443 1.163h-1.397a1.46 1.46 0 0 0-.226-.538 1.033 1.033 0 0 0-.404-.348 1.25 1.25 0 0 0-.566-.123 1.22 1.22 0 0 0-.744.234c-.209.155-.37.366-.483.633a2.28 2.28 0 0 0-.166.883c0 .35.055.658.166.922.11.261.27.465.479.61.211.142.462.214.752.214.214 0 .405-.043.574-.127.171-.085.311-.205.42-.36.108-.159.178-.343.21-.555h1.4c-.039.438-.17.828-.395 1.168a2.306 2.306 0 0 1-.903.792c-.377.19-.81.285-1.298.285zm-6.714 8.727c-.744 0-1.305-.243-1.682-.728-.375-.486-.562-1.221-.562-2.205 0-.987.188-1.726.566-2.217.377-.494.933-.74 1.666-.74.734 0 1.287.246 1.659.74.372.49.558 1.23.558 2.217 0 .987-.183 1.723-.55 2.208-.364.483-.916.725-1.655.725zm0-1.124c.2 0 .362-.06.483-.178.122-.122.211-.313.27-.574.057-.264.086-.617.086-1.057 0-.441-.03-.795-.09-1.061-.061-.267-.154-.462-.278-.586a.653.653 0 0 0-.483-.186c-.2 0-.364.062-.49.186-.127.121-.222.316-.286.586-.06.269-.09.621-.09 1.057 0 .44.03.793.09 1.057.061.263.155.456.281.578a.72.72 0 0 0 .507.178zm-4.821 1.033v-1.1H8.952v-.887l2.652-3.722h1.216v3.591h.684v1.017h-.684v1.1zm-1.251-2.118h1.25v-1.75Z" fill="#fff" style="stroke-width:1.4"/></svg>