<svg width="40" height="40" fill="none" xmlns="http://www.w3.org/2000/svg"><g clip-path="url(#a)" transform="matrix(1.4 0 0 1.4 -7.988 -7.995)"><mask id="b" mask-type="alpha" maskUnits="userSpaceOnUse" x="10" y="15" width="21" height="10"><path fill="#fff" d="M10 15.639h20v8.722H10z"/></mask><g mask="url(#b)" fill-rule="evenodd" clip-rule="evenodd"><path d="M15.665 20.883v3.44h9.307c.73 0 1.396-.105 2-.316a4.825 4.825 0 0 0 1.578-.947 4.427 4.427 0 0 0 1.03-1.473c.239-.59.359-1.25.359-1.978v-3.97H26.2v3.94c0 .378-.049.694-.147.946-.112.238-.371.358-.778.358z" fill="#6ec72d"/><path d="M24.274 19.086v-3.44h-9.307c-.73 0-1.396.104-2 .315-.603.224-1.129.54-1.578.947a4.42 4.42 0 0 0-1.031 1.474C10.12 18.97 10 19.63 10 20.36v3.978h3.738v-3.947c0-.38.049-.695.147-.947.112-.238.372-.358.778-.358z" fill="#164e94"/></g></g><defs><clipPath id="a"><path fill="#fff" d="M0 0h40v40H0z"/></clipPath></defs></svg>