<svg width="40" height="40" fill="none" xmlns="http://www.w3.org/2000/svg"><g clip-path="url(#a)" transform="matrix(1.4 0 0 1.4 -8 -8.017)"><circle cx="20" cy="20.043" r="10" fill="#1ed760"/><path fill-rule="evenodd" clip-rule="evenodd" d="M14.32 19.3c3.631-1.102 8.146-.568 11.233 1.329.224.138.352.37.368.613a.778.778 0 0 0-.368-.68c-3.087-1.896-7.602-2.43-11.233-1.327a.78.78 0 0 0-.55.82.778.778 0 0 1 .55-.755m.347 3.152c3.809-.871 7.077-.496 9.712 1.114a.62.62 0 0 1 .296.487.62.62 0 0 0-.296-.553c-2.635-1.61-5.903-1.985-9.712-1.114a.621.621 0 0 0-.482.646.62.62 0 0 1 .482-.58m-.912-6.533c3.532-1.072 9.404-.865 13.115 1.338a.933.933 0 0 1 .454.737.931.931 0 0 0-.454-.803c-3.71-2.203-9.583-2.41-13.115-1.338a.935.935 0 0 0-.66.983.933.933 0 0 1 .66-.917z" fill="#000" opacity=".2"/><path fill-rule="evenodd" clip-rule="evenodd" d="M25.553 20.629c-3.087-1.897-7.601-2.431-11.233-1.329a.78.78 0 0 0 .453 1.492c3.179-.965 7.277-.487 9.964 1.165a.78.78 0 0 0 .816-1.328m1.317-3.373c-3.71-2.202-9.583-2.41-13.115-1.337a.936.936 0 0 0 .543 1.79c3.077-.934 8.394-.758 11.617 1.156a.935.935 0 1 0 .955-1.609m-2.49 6.31c-2.636-1.61-5.904-1.985-9.713-1.114a.623.623 0 1 0 .277 1.215c3.481-.796 6.437-.471 8.785.964a.623.623 0 1 0 .65-1.065" fill="#fff"/></g><defs><clipPath id="a"><path fill="#fff" d="M0 0h40v40H0z"/></clipPath></defs></svg>