<svg width="40" height="40" fill="none" xmlns="http://www.w3.org/2000/svg"><path fill-rule="evenodd" clip-rule="evenodd" d="M6 17.53v4.94h2.415c.57 0 .947-.06 1.191-.193.408-.214.645-.645.645-1.17 0-.563-.26-.941-.786-1.141.482-.207.749-.629.749-1.154 0-.408-.17-.771-.46-.993-.266-.208-.614-.288-1.2-.288Zm7.099 0c-.697 0-1.133.119-1.474.393-.563.444-.852 1.17-.852 2.11 0 .777.186 1.37.556 1.814.37.437.904.622 1.822.622h1.51v-.74h-1.406c-.978 0-1.437-.43-1.467-1.363h2.874v-.74h-2.874c.037-.482.075-.652.223-.874.237-.356.555-.48 1.244-.48h1.407v-.741Zm4.609 0c-.785 0-1.162.075-1.525.304-.54.34-.726.807-.726 1.844v2.791h.903v-2.11h2.919v-.74H16.36v-.274c0-.756.409-1.074 1.371-1.074h1.548v-.74zm4.416 0c-.696 0-1.134.119-1.475.393-.562.444-.85 1.17-.85 2.11 0 .777.184 1.37.554 1.814.37.437.904.622 1.822.622h1.51v-.74H22.28c-.977 0-1.437-.43-1.467-1.363h2.874v-.74h-2.874c.037-.482.075-.652.223-.874.237-.356.555-.48 1.244-.48h1.407v-.741Zm4.069 0c-.563 0-.882.045-1.134.163-.481.215-.778.718-.778 1.31 0 .438.179.822.482 1.059.26.193.644.282 1.244.282h.637c.333 0 .519.022.652.067.244.096.384.333.384.636 0 .252-.095.438-.28.556-.141.09-.348.126-.733.126H24.48v.74h2.237c.711 0 1.007-.045 1.266-.185.43-.223.682-.688.682-1.25 0-.467-.163-.89-.43-1.134-.281-.252-.666-.341-1.451-.341h-.525c-.719 0-.993-.178-.993-.63 0-.259.118-.473.303-.562.156-.066.355-.096.733-.096h2.111v-.74Zm4.69 0-2.043 4.94h1.014l.504-1.223h2.132l.489 1.222H34l-1.998-4.938zm-23.979.741h1.517c.348 0 .474.03.615.141a.685.685 0 0 1 .207.503c0 .223-.089.422-.244.548-.134.103-.273.133-.585.133h-1.51Zm24.527.118.815 2.118h-1.651ZM6.904 20.336h1.517c.592 0 .844.2.844.666 0 .49-.288.727-.888.727H6.904Z" fill="#fe4819" style="stroke-width:1.4"/></svg>