<svg width="40" height="40" fill="none" xmlns="http://www.w3.org/2000/svg"><g clip-path="url(#a)" transform="matrix(1.4 0 0 1.4 -8 -8)"><path fill-rule="evenodd" clip-rule="evenodd" d="M10.54 11.903c-.34.667-.34 1.54-.34 3.286v9.622c0 1.746 0 2.62.34 3.287a3.117 3.117 0 0 0 1.363 1.362c.667.34 1.54.34 3.286.34h9.622c1.746 0 2.62 0 3.287-.34a3.117 3.117 0 0 0 1.362-1.362c.34-.667.34-1.54.34-3.287V15.19c0-1.746 0-2.62-.34-3.286a3.117 3.117 0 0 0-1.362-1.363c-.667-.34-1.54-.34-3.287-.34H15.19c-1.746 0-2.62 0-3.286.34a3.117 3.117 0 0 0-1.363 1.363zm3.411 4.747c-.34 0-.63-.05-.87-.15a1.246 1.246 0 0 1-.562-.453 1.472 1.472 0 0 1-.223-.737h1.024a.67.67 0 0 0 .078.304c.05.086.122.154.215.204a.76.76 0 0 0 .346.072.868.868 0 0 0 .296-.044.41.41 0 0 0 .19-.14.382.382 0 0 0 .067-.226.404.404 0 0 0-.059-.226.392.392 0 0 0-.187-.145 1.756 1.756 0 0 0-.365-.098 4.003 4.003 0 0 1-.81-.212 1.146 1.146 0 0 1-.491-.366c-.115-.158-.173-.362-.173-.614 0-.279.059-.517.176-.714.119-.2.292-.351.519-.455.229-.106.504-.16.826-.16.31 0 .578.05.801.149.226.096.401.242.528.438.126.193.2.432.223.717h-1.019a.655.655 0 0 0-.075-.29.449.449 0 0 0-.19-.187.625.625 0 0 0-.293-.064c-.1 0-.189.016-.265.05a.4.4 0 0 0-.179.148.412.412 0 0 0-.064.232c0 .08.018.146.053.198.037.05.099.093.184.128.088.035.21.068.366.098.344.065.624.141.84.229.216.087.384.213.503.377.119.161.178.377.178.647 0 .285-.062.524-.187.718a1.124 1.124 0 0 1-.541.43 2.309 2.309 0 0 1-.86.142zm2.8-3.263h-1.092v-.83h3.168v.83h-1.091v3.196h-.985zm3.162 3.006c.311.17.666.254 1.064.254.392 0 .742-.085 1.05-.254.306-.17.546-.41.72-.723.173-.313.26-.675.26-1.089 0-.41-.087-.775-.26-1.091a1.83 1.83 0 0 0-.723-.734 2.076 2.076 0 0 0-1.047-.262 2.11 2.11 0 0 0-1.06.262c-.31.173-.552.418-.727.734-.173.316-.26.68-.26 1.091 0 .414.087.776.26 1.089.173.313.414.554.723.723zm1.591-.737a1.008 1.008 0 0 1-.538.142c-.205 0-.385-.047-.54-.142a.95.95 0 0 1-.354-.419 1.581 1.581 0 0 1-.125-.658c0-.253.04-.473.123-.66a.944.944 0 0 1 .354-.423.983.983 0 0 1 .542-.148.938.938 0 0 1 .896.572c.083.186.125.406.125.659s-.042.471-.125.656a.94.94 0 0 1-.358.421zm-7.966 5.196-1.306-2.004h1.166l.74 1.247.078.129h.006l.072-.129.734-1.247h1.114l-1.256 2.004 1.343 2.02h-1.164l-.785-1.289a1.803 1.803 0 0 0-.07-.117h-.005l-.07.117-.781 1.29h-1.111zm2.769-2.004 1.306 2.004-1.295 2.02h1.111l.782-1.289.07-.117h.005c.024.037.047.076.07.117l.784 1.29h1.164l-1.343-2.021 1.257-2.004h-1.114l-.734 1.247-.073.129h-.005l-.079-.129-.74-1.247z" fill="#fff"/></g><defs><clipPath id="a"><path fill="#fff" transform="translate(10.2 10.2)" d="M0 0h19.6v19.6H0z"/></clipPath></defs></svg>