<svg width="40" height="40" fill="none" xmlns="http://www.w3.org/2000/svg"><rect x="7.4" y="29.8" width="25.2" height="2.8" rx=".7" fill="#fff" style="stroke-width:1.4"/><rect x="15.8" y="13" width="2.8" height="2.8" rx=".7" fill="#fff" style="stroke-width:1.4"/><rect x="15.8" y="18.6" width="2.8" height="2.8" rx=".7" fill="#fff" style="stroke-width:1.4"/><rect x="15.8" y="24.2" width="2.8" height="2.8" rx=".7" fill="#fff" style="stroke-width:1.4"/><path fill-rule="evenodd" clip-rule="evenodd" d="M13 10.2v18.2h-2.8V8.1a.7.7 0 0 1 .7-.7h12.6a.7.7 0 0 1 .7.7V13h4.9a.7.7 0 0 1 .7.7v14.7H27V15.8h-2.8v12.6h-2.8V10.2Zm11.2 19.6h-14v2.1a.7.7 0 0 0 .7.7h18.2a.7.7 0 0 0 .7-.7v-2.1H27Z" fill="#fff" style="stroke-width:1.4"/></svg>