<svg width="40" height="40" fill="none" xmlns="http://www.w3.org/2000/svg"><path fill-rule="evenodd" clip-rule="evenodd" d="M14.296 24.753c0 .691 0 1.21-.345 1.901-.173.519-.519.865-.865 1.21-.518.346-.864.692-1.382.864-.519.173-1.037.173-1.556.173-.518 0-1.037 0-1.383-.173a3.764 3.764 0 0 1-1.382-.864c-.519-.345-.692-.691-1.037-1.21-.173-.691-.346-1.21-.346-1.9v-5.532h4.494v2.074H8.42v3.457c0 .519.173 1.037.518 1.21.346.346.864.518 1.21.518.519 0 .864-.172 1.21-.518.346-.173.519-.691.519-1.21V15.42c0-.692-.173-1.037-.519-1.383-.346-.346-.691-.346-1.21-.346-.346 0-.864 0-1.21.346-.345.346-.518.691-.518 1.383v.864H6v-.864c0-.692.173-1.383.346-1.901.345-.519.518-1.038 1.037-1.383.345-.346.864-.519 1.382-.692.346-.172.865-.345 1.383-.345.519 0 1.037.173 1.556.345.518.173.864.346 1.382.692.346.345.692.864.865 1.383.345.518.345 1.21.345 1.9zM16.716 28.728v-17.63h7.432v2.42h-5.012v5.359h4.494v2.247h-4.494v7.604zM25.704 15.42c0-.692 0-1.383.345-1.901a3.76 3.76 0 0 1 .865-1.383c.518-.346.864-.519 1.382-.692.519-.172 1.037-.345 1.556-.345.518 0 1.037.173 1.555.345.346.173.865.346 1.21.692.519.345.864.864 1.037 1.383.173.518.346 1.21.346 1.9v.865h-2.42v-.864c0-.692-.173-1.037-.518-1.383-.346-.346-.692-.346-1.21-.346-.519 0-.864 0-1.21.346s-.519.691-.519 1.383v9.333c0 .519.173 1.037.519 1.21.346.346.691.518 1.21.518.518 0 .864-.172 1.21-.518.345-.173.518-.691.518-1.21v-3.457h-2.074v-2.074H34v5.531c0 .691-.173 1.21-.346 1.901-.173.519-.518.865-1.037 1.21a5.255 5.255 0 0 1-1.21.864c-.518.173-1.037.173-1.555.173-.519 0-1.037 0-1.556-.173-.518-.172-.864-.518-1.382-.864-.346-.345-.692-.691-.865-1.21-.345-.691-.345-1.21-.345-1.9z" fill="#fff" style="stroke-width:1.4"/></svg>