<svg width="40" height="40" fill="none" xmlns="http://www.w3.org/2000/svg"><path fill-rule="evenodd" clip-rule="evenodd" d="M6.756 8.664c-.476.934-.476 2.156-.476 4.6v13.471c0 2.445 0 3.668.476 4.602a4.364 4.364 0 0 0 1.908 1.907c.934.476 2.156.476 4.6.476h13.471c2.445 0 3.668 0 4.602-.476a4.364 4.364 0 0 0 1.907-1.907c.476-.934.476-2.157.476-4.602v-13.47c0-2.445 0-3.667-.476-4.601a4.364 4.364 0 0 0-1.907-1.908c-.934-.476-2.157-.476-4.602-.476h-13.47c-2.445 0-3.667 0-4.601.476a4.364 4.364 0 0 0-1.908 1.908Zm2.35 2.006v4.83h1.136v-2.928h.007c.08.137.16.27.238.399l1.527 2.529h1.183v-4.83l-1.132.003v2.958h-.007c-.09-.148-.169-.28-.238-.399l-1.54-2.562zm4.878 0v4.83h1.192v-4.83zm1.976 4.83v-4.83h1.193v1.829h.006c.058-.067.12-.139.188-.215l.208-.234 1.256-1.38h1.433l-1.926 2.063 1.816 2.767h-1.397l-1.25-2.007-.334.339V15.5zm4.723-4.83v4.83h1.193v-1.668l.335-.339L23.46 15.5h1.397l-1.816-2.767 1.926-2.063h-1.433l-1.257 1.38-.207.234-.188.215h-.006v-1.83zm4.723 4.83v-4.83h3.222v.988h-2.043v.955h1.755v.874h-1.755v1.025h2.043v.988zm3.825-4.83v4.83h1.193v-4.83z" fill="#fff" style="stroke-width:1.4"/></svg>