<svg width="40" height="40" fill="none" xmlns="http://www.w3.org/2000/svg"><g clip-path="url(#a)" transform="matrix(1.4 0 0 1.4 -7.994 -8.179)"><path d="M26.897 23.938a.48.48 0 0 1 .48-.479h2.107a.48.48 0 1 1 0 .958h-2.108a.48.48 0 0 1-.479-.479z" fill="#612ace"/><path d="M26.897 23.938a.48.48 0 0 1 .48-.479h2.107a.48.48 0 1 1 0 .958h-2.108a.48.48 0 0 1-.479-.479z" fill="url(#b)" fill-opacity=".9" style="fill:url(#b)"/><path d="M26.897 23.938a.48.48 0 0 1 .48-.479h2.107a.48.48 0 1 1 0 .958h-2.108a.48.48 0 0 1-.479-.479z" fill="url(#c)" fill-opacity=".56" style="fill:url(#c)"/><path d="M10.07 20.074a.064.064 0 0 1-.063-.064V15.32c0-.03.02-.055.047-.062l.833-.222c.04-.01.08.02.08.062v1.974c.235-.283.547-.424.935-.424.359 0 .664.122.916.367.247.244.371.548.371.913v2.083a.064.064 0 0 1-.064.064H12.3a.064.064 0 0 1-.064-.064v-1.826a.609.609 0 0 0-.186-.457.596.596 0 0 0-.448-.186c-.18 0-.33.062-.454.186a.62.62 0 0 0-.18.457v1.826a.064.064 0 0 1-.064.064zM14.038 19.657a1.707 1.707 0 0 1-.506-1.254c0-.497.169-.913.506-1.248.337-.338.762-.508 1.274-.508.508 0 .93.17 1.268.508.342.335.512.75.512 1.248 0 .493-.17.91-.512 1.254-.341.334-.764.501-1.268.501-.512 0-.937-.167-1.274-.501zm1.274-.45a.724.724 0 0 0 .55-.232.793.793 0 0 0 .231-.572.771.771 0 0 0-.23-.566.714.714 0 0 0-.55-.238.744.744 0 0 0-.558.232.805.805 0 0 0-.224.572c0 .223.075.414.224.572.15.154.335.232.557.232zM18.392 20.01a.064.064 0 0 1-.064.065h-.833a.064.064 0 0 1-.064-.064v-3.216c0-.035.029-.064.064-.064h.833c.035 0 .064.029.064.064v.238c.222-.257.51-.386.864-.386.435 0 .773.172 1.012.515.217-.343.55-.515.999-.515.358 0 .663.12.915.36.248.236.372.53.372.881v2.123a.064.064 0 0 1-.064.064h-.833a.064.064 0 0 1-.064-.064v-1.865a.612.612 0 0 0-.16-.431.518.518 0 0 0-.397-.174.538.538 0 0 0-.403.174.612.612 0 0 0-.16.43v1.866a.064.064 0 0 1-.064.064h-.833a.064.064 0 0 1-.064-.064v-1.865a.612.612 0 0 0-.16-.431.518.518 0 0 0-.397-.174.538.538 0 0 0-.403.174.612.612 0 0 0-.16.43zM26.385 18.75h-2.478a.821.821 0 0 0 .3.424c.146.108.316.161.513.161.258 0 .47-.088.632-.265a.067.067 0 0 1 .067-.02l.803.217c.04.01.06.056.038.091-.15.244-.348.413-.605.562a1.863 1.863 0 0 1-.942.238c-.52 0-.954-.167-1.3-.501a1.672 1.672 0 0 1-.518-1.254c0-.497.168-.913.506-1.248.337-.338.757-.508 1.261-.508.5 0 .918.17 1.255.508.337.335.506.75.506 1.248 0 .12-.013.236-.038.347zm-2.472-.714h1.53a.838.838 0 0 0-.3-.411.794.794 0 0 0-.48-.154.747.747 0 0 0-.462.154.816.816 0 0 0-.288.411zM12.242 20.444c0-.035.029-.064.064-.064h.83c.036 0 .065.029.065.064v.582h.69c.035 0 .063.029.063.064v.704a.064.064 0 0 1-.064.064h-.69v1.248c0 .102.035.188.103.256a.367.367 0 0 0 .262.096h.325c.036 0 .064.028.064.064v.768a.064.064 0 0 1-.064.064h-.485c-.328 0-.605-.1-.83-.301a.995.995 0 0 1-.333-.762zM14.668 23.937a1.697 1.697 0 0 1-.505-1.248c0-.495.168-.908.505-1.241.336-.337.76-.506 1.27-.506.508 0 .93.169 1.266.506.34.333.51.746.51 1.241 0 .49-.17.907-.51 1.248-.341.333-.763.5-1.265.5-.511 0-.935-.167-1.271-.5zm1.27-.448a.723.723 0 0 0 .55-.23.788.788 0 0 0 .23-.57.767.767 0 0 0-.23-.563.713.713 0 0 0-.55-.237.743.743 0 0 0-.555.23.8.8 0 0 0-.224.57.8.8 0 0 0 .224.57c.149.153.334.23.556.23zM19.096 22.691c0-.5.15-.914.448-1.24.3-.332.675-.497 1.128-.497.341 0 .649.102.922.305v-.158c0-.036.029-.064.064-.064h.827c.035 0 .063.028.063.064v3.175c0 .453-.162.829-.486 1.126-.32.305-.72.458-1.198.458-.384 0-.728-.098-1.031-.293-.285-.184-.48-.41-.585-.674a.061.061 0 0 1 .042-.081l.824-.223c.03-.007.06.006.076.032.054.089.14.18.245.234.124.068.26.102.41.102.209 0 .386-.064.531-.191a.608.608 0 0 0 .218-.478v-.171a1.45 1.45 0 0 1-.922.311c-.453 0-.829-.165-1.128-.496-.298-.335-.448-.749-.448-1.24zm1.742-.795a.706.706 0 0 0-.531.229.812.812 0 0 0-.212.573c0 .22.07.407.212.56.145.152.322.229.531.229.205 0 .38-.077.525-.23a.768.768 0 0 0 .218-.56c0-.229-.072-.42-.218-.572a.698.698 0 0 0-.525-.23zM23.4 23.932a1.68 1.68 0 0 1-.506-1.24c0-.493.169-.904.506-1.235.337-.335.762-.503 1.274-.503.508 0 .931.168 1.269.503.341.33.512.742.512 1.234 0 .488-.17.902-.512 1.241-.342.33-.765.496-1.269.496-.512 0-.937-.165-1.274-.496zm1.274-.445a.727.727 0 0 0 .551-.23.78.78 0 0 0 .23-.566.76.76 0 0 0-.23-.56.718.718 0 0 0-.55-.235.749.749 0 0 0-.558.229.792.792 0 0 0-.224.566c0 .22.075.41.224.567.15.152.335.229.557.229z" fill="#fff"/></g><defs><radialGradient id="b" cx="0" cy="0" r="1" gradientUnits="userSpaceOnUse" gradientTransform="matrix(-.02804 -1.16864 2.39464 -.05746 28.905 24.63)"><stop stop-color="#FFD458"/><stop offset=".986" stop-color="#FFD458" stop-opacity="0"/></radialGradient><radialGradient id="c" cx="0" cy="0" r="1" gradientUnits="userSpaceOnUse" gradientTransform="matrix(-.04455 -.78712 1.91472 -.10838 29.372 24.66)"><stop stop-color="#FFB4AE"/><stop offset="1" stop-color="#FFB4AE" stop-opacity="0"/></radialGradient><clipPath id="a"><path fill="#fff" transform="translate(10 15)" d="M0 0h20v10.881H0z"/></clipPath></defs></svg>