<svg width="40" height="40" fill="none" xmlns="http://www.w3.org/2000/svg"><g clip-path="url(#a)" transform="matrix(1.4 0 0 1.4 -8 -7.97)"><g clip-path="url(#b)" fill="#fff"><path d="M16.22 23.438c.652-.054.648-.052.918.464.702 1.336 1.407 2.67 2.112 4.005.009.017.023.032.054.07.06-.1.12-.187.17-.28.577-1.099 1.152-2.2 1.73-3.299.144-.276.295-.55.43-.83.055-.113.12-.159.245-.148.125.01.25.002.39.002v6.257h-.631v-5.787l-.047-.014c-.076.131-.157.26-.227.394-.592 1.128-1.182 2.257-1.773 3.386-.15.289-.299.578-.456.863-.032.057-.094.118-.153.13-.035.007-.105-.067-.132-.118-.701-1.321-1.398-2.646-2.096-3.969-.13-.247-.264-.492-.396-.737v5.858l-.138.008v-6.255zM29.555 24.177c-.505-.56-1.128-.816-1.85-.834-.993-.026-1.717.444-2.114 1.32-.571 1.258-.588 2.559.007 3.822.52 1.105 1.824 1.576 2.967 1.118.055-.022.112-.041.167-.066.5-.213.59-.348.59-.886v-1.928h.66c.006.037.017.074.017.111.001.674.004 1.346-.004 2.02a.3.3 0 0 1-.105.213c-1.239.874-2.563 1.037-3.932.371-.796-.386-1.218-1.104-1.412-1.953-.164-.715-.157-1.43.1-2.123.427-1.15 1.26-1.825 2.471-2.025.795-.131 1.548.022 2.27.352.255.118.265.162.168.488zM12.172 29.799c.05-.018.1-.046.153-.054.798-.124 1.253-.686 1.138-1.426a1.361 1.361 0 0 0-.55-.898c-.41-.303-.845-.574-1.281-.839-.45-.274-.911-.525-1.24-.955-.552-.724-.378-1.936.763-2.235.866-.228 1.7-.099 2.484.337.035.02.068.08.068.12.001.099-.017.198-.026.281-.223-.183-.43-.397-.678-.544-.548-.327-1.148-.331-1.737-.144-.553.176-.691.646-.571 1.237.08.39.33.672.653.873.489.308 1.012.563 1.492.884.322.214.649.462.88.765.607.795.353 1.825-.523 2.308-.32.176-.66.28-1.029.285zM19.874 19.694h-.224v-.362c0-2.912.001-5.824-.004-8.735 0-.228-.039-.454.228-.587v9.684zM20.47 19.695h-.225V10c.142.109.237.211.237.404-.008 2.925-.01 5.85-.012 8.775v.516zM19.3 19.698h-.22v-.232c0-2.853.002-5.707-.004-8.56 0-.198.046-.35.224-.476v9.268zM21.032 19.694h-.22v-9.283c.126.126.23.211.23.39-.004 2.918-.003 5.836-.003 8.753 0 .04-.003.08-.007.14zM21.375 13.313c.156.13.241.256.24.462-.008 1.893-.004 3.786-.004 5.679v.238l-.235.012v-6.39zM18.746 19.694h-.234v-.24c0-1.891.003-3.783-.005-5.674-.001-.205.08-.333.24-.465v6.38zM22.212 19.649h3.045v.04H21.97v-4.727c.156.13.232.253.23.46-.013 1.339-.007 2.678-.006 4.018 0 .059.01.117.018.209zM18.155 14.987v4.702h-3.294v-.031h3.045c.01-.1.022-.168.022-.238 0-1.366-.007-2.732.002-4.098.001-.12.104-.239.159-.36l.066.025zM12.168 29.796c-.413-.042-.83-.061-1.237-.133-.25-.044-.483-.176-.73-.257-.182-.06-.236-.169-.182-.347.017-.056.016-.117.023-.173.185.166.355.35.555.495.414.3.901.369 1.399.392.059.003.116.017.176.027l-.004-.004z"/></g></g><defs><clipPath id="a"><path fill="#fff" d="M0 0h40v40H0z"/></clipPath><clipPath id="b"><path fill="#fff" transform="translate(10 10)" d="M0 0h20v19.847H0z"/></clipPath></defs></svg>