<svg width="40" height="40" fill="none" xmlns="http://www.w3.org/2000/svg"><path fill-rule="evenodd" clip-rule="evenodd" d="M6.963 20.457H6v4.871h.963v-3.496c.453-.51.793-.704 1.214-.704.582 0 .955.47.955 1.182v3.018h.963v-3.002c0-1.335-.737-1.967-1.66-1.967-.541 0-1.084.268-1.448.737l-.024.024v-.024zM26.936 20.457v4.871h.963v-3.536c.404-.47.728-.615 1.214-.615.477 0 .874.34.874 1.125v3.026h.963v-3.536c.347-.356.768-.631 1.084-.615.55 0 1.003.405 1.003 1.141v3.018H34v-3.059c0-1.149-.63-1.91-1.61-1.91-.696 0-1.198.405-1.627.883-.323-.575-.833-.882-1.448-.882-.453 0-.923.234-1.416.736v-.64zM25.713 24.64c-.493.486-1.116.785-1.942.785-1.521 0-2.363-1.246-2.363-2.59 0-1.472.93-2.476 2.274-2.476 1.287 0 2.112.883 2.112 2.68h-3.431c.049 1.019.704 1.513 1.635 1.513.582 0 1.14-.268 1.7-.64v.728zm-.866-2.241c-.032-.737-.453-1.206-1.14-1.206-.737 0-1.182.437-1.312 1.206zM18.584 25.425h.323l1.943-4.49-.826-.478-1.278 2.994-1.312-2.994h-1.043zM13.614 20.36c-1.497 0-2.468 1.133-2.468 2.533s.98 2.532 2.468 2.532c1.481 0 2.468-1.132 2.468-2.532 0-1.4-.97-2.534-2.468-2.534zm0 4.192c-.987 0-1.53-.745-1.53-1.668 0-.914.56-1.667 1.53-1.667.98 0 1.53.745 1.53 1.667.008.923-.542 1.668-1.53 1.668z" fill="#fff" style="stroke-width:1.4"/><path fill-rule="evenodd" clip-rule="evenodd" d="M6.962 18.085c1.311-.704 5.779-3.82 9.703-3.65 2.396.098 3.869 1.49 7.017 2.161 2.719.583 7.615.697 9.16 1.506 0 0 .324.404.462.76-2.533-.995-7.227-.97-10.18-1.634-2.914-.656-4.33-1.821-6.45-1.943-2.938-.17-5.997 1.4-9.703 3.408z" fill="#7da1c4" style="stroke-width:1.4"/></svg>