<svg width="40" height="40" fill="none" xmlns="http://www.w3.org/2000/svg"><g clip-path="url(#a)" transform="matrix(1.4 0 0 1.4 -7.966 -8)"><g clip-path="url(#b)"><path d="M27.824 18.84c0 2.282.006 4.566-.002 6.848-.009 2.63-1.685 4.298-4.33 4.308-2.417.009-4.833.001-7.25.004-2.897.004-4.137-2.024-4.205-4.17-.067-2.114-.027-4.233-.005-6.348a4.01 4.01 0 0 1 .85-2.46c.132-.172.21-.407.25-.625.236-1.258.402-2.532.693-3.777.244-1.045.558-1.108 1.279-.301.754.843 1.479 1.716 2.152 2.624.325.438.663.611 1.197.58.73-.045 1.468-.045 2.199-.002.513.03.85-.149 1.206-.517 1.39-1.435 2.818-2.832 4.242-4.235.224-.22.487-.404.748-.582.465-.317.687-.246.796.32.107.552.17 1.121.175 1.684.02 2.216.008 4.432.008 6.648h-.003zM16.48 24.33c1.483 2.123 5.155 2.078 6.9 1.185l-.178-.453c-2.328.753-4.48.815-6.358-1.011l-.364.279z" fill="#d53732"/></g></g><defs><clipPath id="a"><path fill="#fff" d="M0 0h40v40H0z"/></clipPath><clipPath id="b"><path fill="#fff" transform="translate(12 10)" d="M0 0h15.831v20H0z"/></clipPath></defs></svg>