<svg width="40" height="40" fill="none" xmlns="http://www.w3.org/2000/svg"><g clip-path="url(#a)" transform="matrix(1.4 0 0 1.4 -7.992 -7.992)"><mask id="b" mask-type="alpha" maskUnits="userSpaceOnUse" x="10" y="10" width="20" height="20"><path fill="#fff" d="M10 10h20v20H10z"/></mask><g mask="url(#b)"><path fill-rule="evenodd" clip-rule="evenodd" d="M18.9 10.056c1.79-.188 3.632.1 5.263.864a9.977 9.977 0 0 1 3.78 3.046 9.922 9.922 0 0 1 2.015 5.924 9.87 9.87 0 0 1-.998 4.445 10.02 10.02 0 0 1-7.732 5.547 9.964 9.964 0 0 1-5.619-.93 9.996 9.996 0 0 1-3.912-3.403 9.89 9.89 0 0 1-1.696-5.497 9.906 9.906 0 0 1 1.512-5.361 10.038 10.038 0 0 1 4.591-3.914 9.864 9.864 0 0 1 2.796-.721zm.268 1.238a8.593 8.593 0 0 0-2.854.777 8.82 8.82 0 0 0-3.939 3.647 8.552 8.552 0 0 0-1.112 4.389c.006 1.933.72 3.848 1.942 5.342a8.774 8.774 0 0 0 4.717 2.986 8.686 8.686 0 0 0 4.218-.021 8.73 8.73 0 0 0 6.486-7.284 8.674 8.674 0 0 0-.776-4.905 8.801 8.801 0 0 0-3.79-3.957 8.668 8.668 0 0 0-4.892-.974z" fill="#fff"/></g></g><defs><clipPath id="a"><path fill="#fff" d="M0 0h40v40H0z"/></clipPath></defs></svg>