<svg width="40" height="40" fill="none" xmlns="http://www.w3.org/2000/svg"><g clip-path="url(#a)" transform="matrix(1.4 0 0 1.4 -8 -8)" fill-rule="evenodd" clip-rule="evenodd"><path d="M25.918 17.77c-.075-.188-.15-.376-.227-.564-.04-.088-.127-.17-.098-.278l-.899-.655c-.114-.054-.274-.159-.33-.189l-.432-.2c-.247-.134-.479-.273-.733-.4-.19-.094-.444-.103-.678-.14-.504-.083-1.072-.244-1.635-.167v.025h-.227c-.375 0-.702.022-1.013.098-.18.043-.296.15-.48.187-.155.03-.358.005-.51.04-.971.218-2.08.745-2.639 1.355-.208.225-.392.48-.616.697l-.304.25c-.185.102-.48.198-.584.35-.023 0-.036-.007-.042-.02l-.262.457c.102 0 .2-.08.266-.129l.114.052v.077c-.122 0-.256.152-.342.205v.022l.074.44h.002c0 .048.249-.05.303-.076.15.123.043.44.009.633l.05.064c.236.023.39.178.509.301l.556.091c.195-.034.662-.055.56-.263-.036-.072-.109-.125-.204-.16 0 .044-.078.071-.114.104-.021 0-.423-.252-.455-.283-.046 0-.04.006-.029-.024.087-.225.148-.44.3-.641.13-.132.26-.265.391-.396.106-.116.206-.255.352-.357l.565-.214c.622-.273 1.1-.556 1.84-.688l1.022-.133.49-.036.8.171c.546.142 1.09.302 1.666.42l.797.512h.038c0-.034-.013-.025.038-.025v.025c.076 0 .164.155.203.2.242.283.24.618.257.98.026.155.05.31.077.463 0 .261-.055.531-.107.791a1.39 1.39 0 0 1-.029.052l-.21.436c-.093.144-.238.277-.36.413-.096.105-.173.258-.327.335v.02c-.068 0-.286-.141-.346-.174a55.192 55.192 0 0 1-.349-.156c-.2-.105-.386-.214-.59-.313-.153-.074-.358-.082-.547-.111-.406-.065-.864-.191-1.318-.131v.02h-.183c-.302 0-.566.018-.817.077-.145.034-.239.117-.386.146-.126.024-.29.004-.411.03-.783.172-1.677.585-2.128 1.062-.167.177-.316.378-.497.547l-.244.195c-.15.08-.388.155-.472.275-.082 0-.011-.116.001-.14.045-.098.15-.182.226-.269.1-.114.171-.226.3-.332.121-.1.287-.187.36-.304h-.03c0 .028-.027.028-.057.038-.127.043-.135-.066-.239-.095a.576.576 0 0 0-.255-.004c-.044 0-.033-.001-.049.023-.09.138-.261.211-.379.339l-.092.16h-.06c0-.034-.057-.041-.093-.06h-.03c0-.177.368-.553.58-.663v-.02a.382.382 0 0 0-.186.059c-.201.116-.523.387-.602.545-.124.245-.278.51-.36.765-.048.151-.039.314-.05.48-.029.39-.098.81.212 1.116.147.146.618.37.865.408.14.022.31.01.451.037 1.424.265 2.867.01 4.02-.448l.382-.116.282-.133.378-.147c.117-.033.245-.046.347-.101.32-.174.532-.383.816-.569.238-.157.527-.274.694-.468h.03c0-.027-.01-.02.03-.02v.02c.063 0 .133.122.165.157.195.222.193.484.207.768l.062.362c0 .267-.076.546-.122.803l-.258.44-.333.705-.88.808c-.077.05-.155.098-.233.147-.587.482-1.097.915-1.9 1.249-.396.163-.786.341-1.168.535-.094.047-.227.095-.28.169-.068.094.014.192.093.27 0 .037.167.015.21.009.206-.024.464-.214.647-.289.294-.12.606-.218.892-.358l.481-.208c.166-.102.299-.24.448-.35.114-.072.225-.146.338-.218l.573-.47c.168-.125.331-.239.461-.375l.219-.267.487-.495c.13-.152.184-.339.351-.477 0-.031.018-.021.061-.021 0 .116-.06.218-.06.342h.03v.02h.061c0-.092.193-.256.235-.363.109-.283.16-.586.3-.86l.585-1.13c.139-.43.15-.89.031-1.325a84.87 84.87 0 0 0-.183-.44c-.032-.07-.102-.135-.08-.218.022-.083.1-.16.171-.234h.062a.993.993 0 0 1 .188-.221c0-.04.023-.026.076-.026 0 .085-.024.164-.046.247h.202c.069-.088.146-.178.173-.25.125-.333.19-.688.336-1.016.015.02.036.037.06.047 0-.033.075-.056.094-.088l.078-.255.002-.013h-.083l.61-1.216a3.026 3.026 0 0 0 .04-1.691zm-11.102.724v.031c-.032 0-.07-.004-.076-.031 0-.102.231-.263.303-.34h.039l.037.093c-.143 0-.239.167-.303.247zm-.205 4.96c-.427 0 .096-.305.181-.371.083.127-.068.256-.181.37zm.356-.266c-.249 0-.186-.04-.186.126-.362 0-.1-.238 0-.371h.186zm.537.257h.037l.037.093c-.14 0-.234.167-.296.246v.031c-.031 0-.069-.003-.075-.03 0-.103.227-.263.297-.34zm-.755.606.033-.212c.092 0 .179-.082.237-.133l.1.053v.08c-.108 0-.225.156-.302.212v.026h-.034v-.026zm.061.278h.061c0 .038.2-.039.245-.06.134.108.012.403 0 .543.22 0 .355.137.459.241-.573 0-.765-.396-.765-.724zm3.67.905c-.14 0-.51.076-.612.12-.13 0-.389.045-.489.081-.19 0-.336-.02-.52-.02v-.02c.507 0 .916-.102 1.352-.19.287-.058.562-.096.82-.193h.03c0 .03-.51.186-.581.222zm1.695-.997c-.13.079-.198.186-.354.249l-.355.095-.287.126c-.47.142-.95.258-1.433.347 0 .026.01.02-.03.02 0-.029-.237.012-.306 0h-.031c0 .043-.22.075-.276.1-.16 0-.263.04-.4.051-.262.023-.492-.033-.7-.09v.02h-.031c0-.025.001-.023.035-.03.148-.028.55-.04.466-.208-.03-.056-.088-.098-.165-.125 0 .034-.063.055-.091.081-.017 0-.342-.197-.368-.222-.036 0-.032.005-.023-.018.07-.177.12-.345.241-.503l.317-.31c.084-.09.165-.2.283-.28l.455-.167c.502-.214.888-.436 1.484-.539l.823-.103.396-.03.645.135c.44.111.877.236 1.343.328 0 .159-1.381.914-1.638 1.073z" fill="#72a8c1"/><path d="M18.487 11.495c.109-.316.222-.758.43-.997.2-.23.542-.337.824-.412.459-.12.68-.112 1.182.009.147.036.308.052.448.121.876.435 1.817 1.493 1.507 2.558-.255.874-1.104 1.42-1.965 1.367-.258-.015-.503-.155-.753-.224-.265-.073-.567-.093-.795-.252-.33-.227-.577-.574-.782-.922-.14-.233-.076-.951-.096-1.248z" fill="#e0922f"/></g><defs><clipPath id="a"><path fill="#fff" d="M0 0h40v40H0z"/></clipPath></defs></svg>