<svg width="40" height="40" fill="none" xmlns="http://www.w3.org/2000/svg"><path d="M32.965 16.336a.183.183 0 0 0 .173-.211.183.183 0 0 0-.211-.173.183.183 0 0 0-.173.211c.02.115.115.192.211.173zM20.93 10.203a.556.556 0 1 0 1.113-.001.556.556 0 0 0-1.113 0zm3.489 1.188a.556.556 0 1 0 .555-.556c-.306 0-.536.25-.555.556.019 0 .019 0 0 0zM11.232 25.822a.556.556 0 1 0 .556-.555c-.288 0-.537.249-.556.555.02 0 .02 0 0 0zm2.74 2.281a.556.556 0 1 0 .556-.556c-.306.02-.555.25-.555.556zm3.47 1.073a.556.556 0 1 0 1.112 0 .556.556 0 0 0-1.113 0zm3.564-.038c0 .306.268.536.556.536.307 0 .537-.268.537-.555a.54.54 0 0 0-.556-.537c-.288-.02-.537.23-.537.556zm3.412-1.093a.556.556 0 0 0 1.111 0c0-.306-.249-.536-.556-.555-.287 0-.536.249-.555.555.019 0 .019 0 0 0zm2.74-2.204a.556.556 0 1 0 1.112 0 .556.556 0 0 0-1.112 0zm-.038-12.265a.556.556 0 1 0 1.112 0 .556.556 0 0 0-1.112 0zm-3.872-1.457a.72.72 0 0 0-.709-.709.72.72 0 0 0-.709.71c0 .383.326.708.71.708.402 0 .708-.325.708-.709zm2.377 1.457a.72.72 0 0 0-.71-.71.72.72 0 0 0-.708.71c0 .383.325.709.709.709a.72.72 0 0 0 .709-.71zm1.84 2.07a.72.72 0 0 0-.71-.71.72.72 0 0 0-.708.71c0 .383.325.709.709.709.383 0 .709-.307.709-.71zm-5.06-7.915c.02-.096-.057-.192-.172-.211a.225.225 0 0 0-.211.172c0 .096.077.192.172.211.115.02.192-.057.211-.172 0 .019 0 .019 0 0zm4.715 1.724c.019-.095-.058-.191-.173-.21a.206.206 0 0 0-.191.191c0 .096.076.173.153.192.115 0 .21-.077.21-.173zm3.699 2.664c.019-.095-.058-.191-.173-.21-.096-.02-.192.057-.21.172-.02.096.038.192.153.23.096.02.191-.058.23-.153v-.039zm-6.401-2.472c.019-.192-.135-.364-.345-.383-.192-.02-.365.134-.384.345a.36.36 0 0 0 .326.383c.21.02.383-.134.403-.345 0 .02 0 .02 0 0zM28 11.45a.36.36 0 0 0-.326-.384h-.019a.366.366 0 0 0-.421.288.366.366 0 0 0 .287.421H27.58c.23.02.402-.134.421-.325zm2.453 2.549c-.191-.02-.364.134-.383.345-.019.191.134.364.345.383a.361.361 0 0 0 .383-.326.369.369 0 0 0-.344-.402zM19.723 8.67a.364.364 0 1 0 0 .727.364.364 0 0 0 0-.727c.02 0 .02 0 0 0zm-1.744.996a.556.556 0 1 0 .001 1.113.556.556 0 0 0 0-1.113zm-3.488 1.17a.556.556 0 1 0 .556.555c-.02-.307-.25-.556-.556-.556zm-5.136 8.336a.556.556 0 1 0 .556.556c0-.288-.25-.537-.556-.556zm.69-3.239a.556.556 0 1 0 .556.556.54.54 0 0 0-.537-.556zm1.782-2.913a.556.556 0 1 0 .556.556c-.02-.307-.25-.556-.556-.556zm7.896 15.447c.383 0 .71-.307.71-.709a.708.708 0 0 0-.71-.71.708.708 0 0 0-.709.71c.02.383.326.69.71.71zm0-16.06c.383 0 .71-.307.71-.71a.707.707 0 0 0-.71-.708.707.707 0 0 0-.709.709c.02.383.326.69.71.709zm-2.798.402c.383 0 .71-.306.71-.709a.707.707 0 0 0-.71-.709.708.708 0 0 0-.709.71c0 .382.326.708.71.708zm-2.376 1.457c.383 0 .709-.307.709-.71a.707.707 0 0 0-.71-.708.707.707 0 0 0-.709.709c0 .383.326.709.71.709zm-1.86 2.089c.384.019.729-.288.729-.671.019-.383-.288-.728-.671-.728-.383-.02-.728.287-.728.67v.02c0 .383.307.709.709.709zm-.747 2.606c.384 0 .71-.306.71-.709a.708.708 0 0 0-.71-.709.707.707 0 0 0-.709.71c0 .382.326.708.71.708zM17.27 7.903a.209.209 0 0 0 .173-.21.209.209 0 0 0-.211-.173c-.096 0-.173.096-.173.191.02.135.096.211.211.192zm-4.715 1.725c.096 0 .173-.096.173-.192s-.096-.172-.211-.172c-.096 0-.172.096-.172.191.019.096.095.173.21.173zm20.411 14.776a.192.192 0 0 0 0-.383h-.038c-.096 0-.173.096-.173.191.02.115.096.192.211.192zm-2.261 3.143a.209.209 0 0 0 .172-.21.209.209 0 0 0-.21-.173.208.208 0 0 0-.173.21c.019.096.096.173.21.173zm-3.757 2.645c.096 0 .173-.096.173-.192a.192.192 0 0 0-.383 0v.039c0 .095.095.172.21.153zm-4.714 1.686a.183.183 0 0 0 .172-.21c-.019-.115-.096-.192-.21-.173a.183.183 0 0 0-.173.21c.02.116.115.193.21.173zm-4.964 0c.096 0 .173-.095.173-.21 0-.096-.096-.173-.211-.173a.183.183 0 0 0-.173.21c.02.116.096.193.211.173zm-4.715-1.705c.096 0 .173-.096.173-.192s-.096-.172-.211-.172c-.096 0-.172.096-.172.191.019.096.095.173.21.173zm-3.718-2.664a.183.183 0 0 0 .173-.211.183.183 0 0 0-.211-.172.183.183 0 0 0-.172.21c.019.115.095.192.21.173zm-2.338-3.105a.192.192 0 0 0 0-.383H6.46a.199.199 0 0 0-.153.23c.019.076.096.153.191.153zm2.358-12.131a.183.183 0 0 0 .172-.211.183.183 0 0 0-.21-.173.183.183 0 0 0-.173.211c0 .096.096.173.21.173zm6.592-2.32c.192-.019.326-.21.307-.402a.34.34 0 0 0-.364-.306c-.192.019-.326.21-.307.402.02.173.173.307.364.307zm-3.622 1.802c.192 0 .326-.172.326-.364s-.172-.326-.364-.326-.326.173-.326.364c0 .173.153.307.326.326zm-3.162 2.626c0 .191.153.345.345.345h.057c.192 0 .365-.173.345-.364 0-.192-.172-.364-.364-.345H9.01a.337.337 0 0 0-.345.364zm23.209 6.823a.36.36 0 0 0-.326.383.36.36 0 0 0 .383.326.36.36 0 0 0 .326-.384.348.348 0 0 0-.383-.325zm-1.4 3.468c-.191.02-.325.211-.306.403a.339.339 0 0 0 .364.307c.192-.02.326-.211.307-.403a.356.356 0 0 0-.364-.307zm-2.76 2.971c-.19 0-.363.172-.344.364 0 .192.172.364.364.345h.038a.378.378 0 0 0 .345-.383.344.344 0 0 0-.345-.345h-.057zm-3.679 1.801a.378.378 0 0 0-.345.384c0 .191.173.345.364.345.192 0 .345-.173.345-.364v-.039c0-.191-.172-.345-.364-.345zm-4.35.575c-.192 0-.345.173-.345.365 0 .191.172.345.364.345h.038c.192-.02.326-.211.307-.403a.356.356 0 0 0-.364-.307zm-4.14-.46a.36.36 0 0 0-.326.384.36.36 0 0 0 .384.326.36.36 0 0 0 .325-.384c-.019-.191-.172-.345-.383-.326zm-3.756-1.897c-.192 0-.345.173-.345.364 0 .192.172.345.364.345h.038c.192-.019.326-.21.307-.402a.34.34 0 0 0-.364-.307zm-2.798-2.97c-.192.019-.326.21-.307.402a.34.34 0 0 0 .364.307c.192-.02.326-.211.307-.403a.356.356 0 0 0-.364-.306ZM7.457 17.83c-.192.019-.326.21-.307.402a.339.339 0 0 0 .364.307c.192-.02.326-.211.307-.403-.039-.172-.173-.306-.364-.306Zm10.195 9.467a.708.708 0 0 0-.709-.71.707.707 0 0 0-.709.71c0 .383.307.71.71.71.402 0 .708-.327.708-.71zm4.868-.71a.708.708 0 0 0-.709.71c0 .383.307.71.71.71.382 0 .708-.307.708-.71-.019-.383-.326-.71-.709-.71zm2.415-1.398a.734.734 0 0 0-.728.69c0 .383.306.709.69.728.383.02.709-.307.728-.69V25.9c0-.383-.326-.71-.69-.71h-.038zm2.51-1.418a.72.72 0 0 0-.708-.71.72.72 0 0 0-.71.71c0 .383.326.709.71.709.402 0 .709-.326.709-.71zm-12.878 1.38a.707.707 0 0 0-.71.709c0 .383.307.709.71.709.383 0 .709-.307.709-.71a.707.707 0 0 0-.71-.708zm-1.86-2.09a.708.708 0 0 0-.708.71c0 .383.306.709.709.709.383 0 .709-.307.709-.71v-.019a.716.716 0 0 0-.71-.69zm7.13-7.071 3.699 6.765h1.648l-3.699-6.746zm-5.577 6.765h1.648l3.7-6.746h-1.65zM28.308 18.31a.72.72 0 0 0-.71-.71.72.72 0 0 0-.708.71c0 .382.326.708.709.708.402 0 .709-.326.709-.709zM12.593 21.184a.72.72 0 0 0-.71-.709.72.72 0 0 0-.708.71c0 .383.325.708.709.708.402 0 .709-.325.709-.709zM28.308 21.184a.72.72 0 0 0-.71-.709.72.72 0 0 0-.708.71c0 .383.326.708.709.708.402 0 .709-.325.709-.709zM10.408 22.776a.584.584 0 0 0-.575-.575.584.584 0 0 0-.575.575c0 .31.264.575.575.575a.574.574 0 0 0 .575-.575zM29.956 23.35a.584.584 0 0 0-.575-.575.584.584 0 0 0-.575.575c0 .31.264.575.575.575a.574.574 0 0 0 .575-.575zM30.34 19.9a.584.584 0 0 0-.575-.575.584.584 0 0 0-.575.575c0 .311.264.575.575.575a.574.574 0 0 0 .575-.575zM29.573 16.067a.584.584 0 0 0-.575-.575.584.584 0 0 0-.575.575c0 .31.264.575.575.575a.574.574 0 0 0 .575-.575zM33.808 19.133a.192.192 0 0 0 0-.383h-.038c-.096 0-.172.096-.172.192.019.114.095.191.21.191zM6.21 21.241a.192.192 0 0 0 0-.383h-.038c-.095 0-.172.096-.172.192.02.115.096.191.21.191zM6.594 15.492a.192.192 0 0 0 0-.383h-.038c-.096 0-.173.096-.173.192.02.115.096.191.211.191zM30.667 17.22a.36.36 0 0 0-.326.382c.02.192.192.345.383.326a.36.36 0 0 0 .326-.383.348.348 0 0 0-.383-.326z" fill="#fff" style="stroke-width:1.4"/></svg>