<svg width="40" height="40" fill="none" xmlns="http://www.w3.org/2000/svg"><g clip-path="url(#a)" transform="matrix(1.4 0 0 1.4 -8 -8.161)"><g clip-path="url(#b)"><path d="m13.197 26.563-.273-.28a5.971 5.971 0 0 1-.742-1.075 8.666 8.666 0 0 1-.82-2.2 8.575 8.575 0 0 1-.22-2.14c.04-1.234.287-2.421.82-3.544a8.878 8.878 0 0 1 1.441-2.176c.199-.219.406-.428.616-.637.077-.076.157-.166.289-.135.07.098 0 .173-.051.239-.359.46-.634.969-.883 1.492a8.641 8.641 0 0 0-.74 2.505 8.752 8.752 0 0 0-.056 1.716c.044.835.227 1.647.518 2.433a8.725 8.725 0 0 0 3.763 4.491c.707.417 1.468.701 2.254.935.714.212 1.394.12 2.086-.09a8.814 8.814 0 0 0 2.873-1.467 8.75 8.75 0 0 0 1.614-1.635 8.489 8.489 0 0 0 1.688-4.116c.246-1.94-.122-3.76-1.094-5.459-.144-.252-.314-.486-.467-.731-.045-.072-.12-.139-.075-.24.093-.053.158.004.219.06a9.363 9.363 0 0 1 1.721 2.15 8.535 8.535 0 0 1 1.036 2.904c.115.704.15 1.414.096 2.132a8.894 8.894 0 0 1-.968 3.435c-.202.394-.43.774-.736 1.1a.208.208 0 0 0-.058.088l-.344.348a5.76 5.76 0 0 1-1.056.77 8.865 8.865 0 0 1-2.956 1.052c-.651.105-1.305.116-1.961.105a2.666 2.666 0 0 1-.422-.043c-.263-.048-.52-.007-.776.015-1.614.135-3.154-.128-4.614-.839-.367-.178-.72-.382-1.063-.602-.246-.158-.437-.377-.66-.56z" fill="#78cbc3"/><path d="M27.048 26.318c-.043-.056.008-.084.035-.12a8.607 8.607 0 0 0 1.558-3.718 8.808 8.808 0 0 0-.88-5.503c-.479-.92-1.117-1.719-1.873-2.427-.043-.04-.083-.085-.145-.097-.073.008-.12-.034-.161-.086-.23-.372-.56-.654-.872-.947a8.738 8.738 0 0 0-1.483-1.115 8.725 8.725 0 0 0-2.829-1.083c-.095-.018-.237.017-.268-.139.479-.097.964-.092 1.447-.07 2.4.102 4.429 1.032 6.075 2.777 1.258 1.332 2.034 2.917 2.264 4.731.388 3.067-.572 5.666-2.838 7.777-.009.009-.02.014-.03.02zM14.305 14.385c-.757.613-1.358 1.36-1.857 2.19a8.522 8.522 0 0 0-1.117 3.076 8.055 8.055 0 0 0-.113 1.674c.063 1.256.34 2.462.903 3.593.205.413.44.81.709 1.185.04.055.1.101.094.18-1.303-1.16-2.207-2.58-2.622-4.27-.768-3.127-.074-5.914 2.12-8.285 1.337-1.444 3.01-2.297 4.954-2.616.788-.129 1.576-.129 2.368-.06.046.004.092.02.138.03 0 .101-.082.101-.147.116-.248.056-.497.104-.742.17a8.585 8.585 0 0 0-3.293 1.708c-.346.287-.666.6-.984.918a1.142 1.142 0 0 0-.176.242c-.064.073-.119.16-.235.149zM13.197 26.564c.164.06.28.191.417.29a8.782 8.782 0 0 0 3.774 1.563c.628.1 1.257.106 1.888.098.175-.002.352-.029.525-.058.239-.04.472.014.705.032.496.039.988.037 1.484-.001a8.35 8.35 0 0 0 1.785-.332 8.691 8.691 0 0 0 2.762-1.408c.05-.038.092-.094.167-.082-1.224 1.457-2.757 2.44-4.607 2.875-2.758.65-5.28.104-7.534-1.622a7.326 7.326 0 0 1-1.366-1.355z" fill="#ceebea"/><path d="M14.462 14.178c.3-.422.672-.775 1.063-1.108a8.743 8.743 0 0 1 1.89-1.235 8.494 8.494 0 0 1 2.385-.75c.021-.004.041-.02.062-.03h.248c.38.1.769.162 1.146.276a8.812 8.812 0 0 1 4.292 2.868c.03.037.06.072.07.12-.081.042-.134-.011-.189-.055a8.51 8.51 0 0 0-1.624-1.04 8.998 8.998 0 0 0-2.72-.822 8.602 8.602 0 0 0-4.688.704 8.878 8.878 0 0 0-1.701 1.014c-.068.05-.133.13-.234.058z" fill="#78cbc3"/><path d="M27.38 18.295c-.248-1.393-.815-2.646-1.653-3.781l-.105-.106a8.773 8.773 0 0 0-2.125-1.327 8.53 8.53 0 0 0-2.939-.723 8.69 8.69 0 0 0-1.976.093 8.86 8.86 0 0 0-3.714 1.534c-.133.095-.246.22-.403.282l-.176.178c-.019.036-.032.077-.056.108a8.276 8.276 0 0 0-.876 1.434c-.818 1.658-1.062 3.402-.775 5.22.34 2.162 1.385 3.936 3.047 5.345a8.39 8.39 0 0 0 3.168 1.685c.375.107.75.225 1.142.23.557.007 1.083-.17 1.603-.344a8.507 8.507 0 0 0 2.959-1.704 8.785 8.785 0 0 0 2.003-2.525 8.498 8.498 0 0 0 .966-3.272 9 9 0 0 0-.09-2.327zm-7.396 7.494c-2.961.005-5.42-2.47-5.37-5.48.046-2.905 2.47-5.327 5.395-5.29 2.906-.038 5.41 2.396 5.388 5.42-.022 2.956-2.427 5.346-5.413 5.35z" fill="#3abca7"/></g></g><defs><clipPath id="a"><path fill="#fff" d="M0 0h40v40H0z"/></clipPath><clipPath id="b"><path fill="#fff" transform="translate(10 11)" d="M0 0h20v18.805H0z"/></clipPath></defs></svg>