<svg width="40" height="40" fill="none" xmlns="http://www.w3.org/2000/svg"><path fill-rule="evenodd" clip-rule="evenodd" d="M32.399 11.772s.057-.057.057 0v6.605c0 1.379-.516 2.584-1.32 3.619a6.58 6.58 0 0 1-1.435 1.379l-.115.114c-1.664-1.206-3.386-2.47-5.051-3.676.172-.114.287-.23.459-.344 1.55-1.15 3.157-2.24 4.707-3.39 1.148-.86 1.951-1.894 2.411-3.273.114-.287.172-.575.23-.861 0-.058 0-.116.057-.173M7.544 10.91c.46.345.918.69 1.32.977a494.948 494.948 0 0 0 6.774 4.94c2.583 1.895 5.223 3.79 7.806 5.743a748.546 748.546 0 0 1 5.567 4.078l2.412-1.723v7.351L29.011 34 7.544 18.205Zm13.087-4.824c.861-.115 1.78-.115 2.64 0 .92.115 1.78.344 2.584.746.517.23 1.033.575 1.435.92.804.689 1.378 1.493 1.55 2.527.229 1.091 0 2.01-.632 2.93-.401.574-.861 1.033-1.434 1.377l-.058.058-.058-.058c-1.722-1.091-3.558-1.436-5.567-1.263-1.09.115-2.124.344-3.042.862-.173.115-.402.229-.575.344-.057 0-.114.057-.114.057l-4.937-3.676c.172-.114.345-.286.574-.402 1.378-.976 2.755-2.01 4.075-2.986a7.672 7.672 0 0 1 3.56-1.436" fill="#0332af" style="stroke-width:1.4"/></svg>