<svg width="40" height="40" fill="none" xmlns="http://www.w3.org/2000/svg"><g clip-path="url(#a)" transform="matrix(1.4 0 0 1.4 -8 -7.98)"><g clip-path="url(#b)" fill="#da3a32"><path d="M30 18.074a2.072 2.072 0 0 1-2.078 2.067 2.07 2.07 0 0 1-2.068-2.076A2.078 2.078 0 0 1 27.927 16 2.076 2.076 0 0 1 30 18.074zM23.727 20.433c0-.698.565-1.263 1.263-1.263a1.263 1.263 0 1 1-1.263 1.263zM28.673 21.576a1.092 1.092 0 0 1-2.181.044 1.09 1.09 0 1 1 2.181-.044zM23.007 17.98a1.057 1.057 0 0 1 1.07-1.055c.606.01 1.065.486 1.053 1.097-.01.576-.5 1.035-1.09 1.023a1.06 1.06 0 0 1-1.033-1.065ZM22.21 21.081a.927.927 0 1 1-.027 1.855.923.923 0 0 1-.908-.955.922.922 0 0 1 .935-.9zM18.866 21.547a.914.914 0 0 1 .928-.913.914.914 0 0 1 .905.926.918.918 0 0 1-.929.904.911.911 0 0 1-.904-.917zM23.287 19.77c0 .474-.38.855-.852.853a.853.853 0 0 1 .003-1.704.854.854 0 0 1 .849.85zM17.63 22.023a.73.73 0 1 1 0-1.461.73.73 0 0 1 0 1.46zM24.01 23.24a.729.729 0 0 1-.73-.735.72.72 0 0 1 .73-.723c.407 0 .73.326.728.734a.723.723 0 0 1-.729.725zM20.674 18.038a.687.687 0 1 1 .006 1.374.687.687 0 0 1-.006-1.374zM16.043 20.06c.358.002.645.292.643.651a.65.65 0 0 1-.647.641.653.653 0 0 1-.645-.653.649.649 0 0 1 .649-.638zM19.947 23.269a.623.623 0 0 1 .627-.624.63.63 0 0 1 .623.63.634.634 0 0 1-.625.622.626.626 0 0 1-.625-.628zM15.272 21.826a.6.6 0 1 1-.598-.605c.334 0 .599.268.598.605zM15.123 20.258a.584.584 0 0 1-.586.575.586.586 0 0 1-.574-.58c0-.316.266-.581.582-.58.318.002.58.267.578.585zM11.73 20.01c.32.001.58.264.578.583a.583.583 0 0 1-.586.575.585.585 0 0 1-.574-.579c0-.318.263-.58.583-.578zM18.129 23.4a.58.58 0 0 1-.576-.584.58.58 0 0 1 .579-.572.577.577 0 1 1-.003 1.155zM19.686 19.846a.576.576 0 0 1-.58.578.577.577 0 1 1 .58-.578zM13.695 21.413a.534.534 0 0 1-.53.53.536.536 0 0 1-.532-.538.532.532 0 0 1 1.062.008zM16.851 22.238a.519.519 0 0 1-.529.516.521.521 0 1 1 .015-1.045c.29.003.516.236.514.53zM16.807 19.768a.454.454 0 1 1 .91-.008.454.454 0 0 1-.91.008zM11.732 21.458a.45.45 0 0 1 .457.453.452.452 0 1 1-.906-.003c0-.25.199-.449.45-.45zM21.402 20.393a.407.407 0 0 1-.412.406.416.416 0 0 1-.413-.409c.001-.225.195-.415.42-.412a.408.408 0 0 1 .405.415zM13.256 19.684c.229 0 .405.18.405.41 0 .229-.18.407-.41.407a.41.41 0 0 1-.414-.406c.001-.23.187-.412.419-.411zM10.822 21.636a.406.406 0 0 1-.41.408.408.408 0 1 1 .003-.817c.228 0 .407.18.407.409z"/></g></g><defs><clipPath id="a"><path fill="#fff" d="M0 0h40v40H0z"/></clipPath><clipPath id="b"><path fill="#fff" transform="translate(10 16)" d="M0 0h20v7.897H0z"/></clipPath></defs></svg>