<svg width="40" height="40" fill="none" xmlns="http://www.w3.org/2000/svg"><path fill-rule="evenodd" clip-rule="evenodd" d="M10.795 16.283a8.076 8.076 0 0 1-.468-1.112 4.644 4.644 0 0 1-.213-.72 6.266 6.266 0 0 1-.12-.555c-.235-1.432-.074-2.37.605-3.016a1.17 1.17 0 0 1 .23-.176c.04-.028.097-.062.167-.11.458-.32.63-.379.828-.53.345-.265.457-.421.553-1.119.073-.526-.2-1.104-.58-1.671-.393-.587-.838-.983-.838-.983L11.293 6s.6.538 1.07 1.254c.764 1.162.49 2.116 1.318 2.469.499.212.844.39 1.008.477 1.65.7 2.364 3.322 2.618 6.165.208 2.332-.584 4.12-1.237 5.246-1.71 2.95-5.573 6.765-6.235 8.923-.563 1.833-.217 3.095-.838 3.36-1.367.584-1.823-1.37-1.594-3.179.085-1.116.698-2.691 1.206-3.79.57-1.236 1.145-2.223 1.806-3.65.979-2.112 1.171-3.586 1.027-4.78l-.01-.093c-.11-.794-.366-1.465-.637-2.12zm-.469-1.112.655.654-.382-.4zm.27.254.365.333-.654-.654z" fill="#c8091a" style="stroke-width:1.4"/><path fill-rule="evenodd" clip-rule="evenodd" d="M18.524 16.283a7.843 7.843 0 0 1-.467-1.112 4.628 4.628 0 0 1-.213-.72 5.982 5.982 0 0 1-.118-.555c-.237-1.432-.076-2.37.603-3.016.08-.076.156-.135.23-.176.04-.028.097-.062.166-.11.46-.32.631-.379.828-.53.345-.265.459-.421.555-1.119.072-.526-.2-1.104-.58-1.671-.394-.587-.839-.983-.839-.983L19.023 6s.6.538 1.07 1.254c.763 1.162.49 2.116 1.318 2.469.499.212.844.39 1.008.477 1.65.7 2.364 3.322 2.618 6.165.207 2.332-.584 4.12-1.236 5.246-1.71 2.95-5.574 6.765-6.237 8.923-.562 1.833-.216 3.095-.837 3.36-1.367.584-1.823-1.37-1.593-3.179.084-1.116.697-2.691 1.205-3.79.57-1.236 1.144-2.223 1.806-3.65.98-2.112 1.172-3.586 1.026-4.78l-.01-.093c-.108-.794-.364-1.465-.637-2.12zm-.468-1.112.655.654-.367-.4zm.271.254.364.333-.655-.654z" fill="#c8091a" style="stroke-width:1.4"/><path fill-rule="evenodd" clip-rule="evenodd" d="M26.107 16.283a3.46 3.46 0 0 1-.16-.33 7.944 7.944 0 0 1-.308-.782 4.6 4.6 0 0 1-.212-.72 5.72 5.72 0 0 1-.119-.555c-.237-1.432-.076-2.37.603-3.016.08-.076.156-.135.23-.176.041-.028.098-.062.167-.11.459-.32.63-.379.83-.53.343-.265.456-.421.552-1.119.072-.526-.2-1.104-.58-1.671-.393-.587-.838-.983-.838-.983L26.605 6s.6.538 1.07 1.254c.764 1.162.49 2.116 1.319 2.469.499.212.844.39 1.008.477 1.65.7 2.364 3.322 2.617 6.165.208 2.332-.584 4.12-1.235 5.246-1.711 2.95-5.575 6.765-6.237 8.923-.563 1.833-.217 3.095-.838 3.36-1.367.584-1.822-1.37-1.593-3.179.084-1.116.698-2.691 1.205-3.79.57-1.236 1.145-2.223 1.807-3.65.979-2.112 1.171-3.586 1.026-4.78l-.01-.093c-.11-.794-.365-1.465-.637-2.12zm-.468-1.112.654.654-.366-.4zm.28.254.355.333-.655-.654z" fill="#c8091a" style="stroke-width:1.4"/></svg>