<svg width="40" height="40" fill="none" xmlns="http://www.w3.org/2000/svg"><g clip-path="url(#a)" transform="matrix(1.4 0 0 1.4 -7.91 -7.992)"><g clip-path="url(#b)"><path d="m23.736 16.567-1.3 6.482-3.28-4.952a.631.631 0 0 0-.477-.26h-2.553v-1.27z" fill="url(#c)" style="fill:url(#c)"/><path d="M27.366 20.812c-.493.609-1.263 1.2-2.179 1.637l-.55 2.686a.402.402 0 0 1-.376.305h-2.694a.633.633 0 0 1-.48-.262l-3.293-4.956-.24 1.177-.76 3.745a.401.401 0 0 1-.375.304h-.316c0 2.27 3.028 4.847 8.064 3.445 3.232-1.658 5.445-5.015 5.445-8.89 0-1.876-.52-3.632-1.422-5.131.743 2.067.436 4.388-.824 5.94z" fill="#ef8201"/><path d="M15.244 16.567c-2.689 0-5.244 1.208-5.244 4.907 0 3.76 3.851 8.457 9.578 8.457a9.96 9.96 0 0 0 4.552-1.095c-5.013 1.393-8.027-1.167-8.027-3.421H14.45a.245.245 0 0 1-.248-.304l1.349-6.61h.001l.074-.368A.4.4 0 0 1 16 17.83h.15v-1.263z" fill="url(#d)" style="fill:url(#d)"/><path d="M16.487 11.847c-.46.595-.525 1.412-.32 2.341h7.786c.172 0 .39.119.482.261l1.646 2.54a.883.883 0 0 1 .107.563l-.997 4.828c.916-.435 1.686-1.021 2.18-1.625 1.26-1.541 1.567-3.846.824-5.898a10.03 10.03 0 0 0-6.87-4.677 8.91 8.91 0 0 0-.609-.022c-1.74 0-3.338.539-4.23 1.689z" fill="url(#e)" style="fill:url(#e)"/><path d="M16.166 14.23h-4.199c-.444 0-.392-.184-.032-.615a9.928 9.928 0 0 1 9.363-3.435c-1.958-.138-3.825.389-4.813 1.685-.458.601-.522 1.427-.319 2.366z" fill="url(#f)" style="fill:url(#f)"/><path d="M14.56 18.447h.99l-1.348 6.642a.245.245 0 0 0 .249.305H13.11a.248.248 0 0 1-.252-.31l1.321-6.326a.408.408 0 0 1 .382-.31z" fill="url(#g)" style="fill:url(#g)"/><path d="M21.51 25.48h-1.033a.719.719 0 0 1-.54-.302l-2.389-3.803.236-1.196 3.252 5.035c.09.147.305.266.474.266z" fill="url(#h)" style="fill:url(#h)"/></g></g><defs><linearGradient id="c" x1="22.776" y1="18.895" x2="18.169" y2="20.373" gradientUnits="userSpaceOnUse"><stop stop-color="#F6AF00"/><stop offset=".329" stop-color="#F6AF00"/><stop offset=".839" stop-color="#F08A00"/><stop offset="1" stop-color="#F08A00"/></linearGradient><linearGradient id="d" x1="14.781" y1="25.062" x2="18.504" y2="22.079" gradientUnits="userSpaceOnUse"><stop stop-color="#EB6200"/><stop offset=".212" stop-color="#EB6200"/><stop offset=".529" stop-color="#EC6F00"/><stop offset=".812" stop-color="#F08A00"/><stop offset="1" stop-color="#F08A00"/></linearGradient><linearGradient id="e" x1="21.35" y1="17.463" x2="23.958" y2="14.204" gradientUnits="userSpaceOnUse"><stop stop-color="#F6AE00"/><stop offset=".51" stop-color="#F6AE00"/><stop offset=".851" stop-color="#FCCF00"/><stop offset="1" stop-color="#FCCF00"/></linearGradient><linearGradient id="f" x1="16.474" y1="14.231" x2="16.474" y2="10.029" gradientUnits="userSpaceOnUse"><stop stop-color="#EF8000"/><stop offset=".251" stop-color="#F29400"/><stop offset=".769" stop-color="#F29400"/><stop offset=".988" stop-color="#F4A000"/><stop offset="1" stop-color="#F4A000"/></linearGradient><linearGradient id="g" x1="14.201" y1="25.394" x2="14.201" y2="18.447" gradientUnits="userSpaceOnUse"><stop stop-color="#EB6200"/><stop offset=".369" stop-color="#EB541C"/><stop offset="1" stop-color="#E95318"/></linearGradient><linearGradient id="h" x1="19.529" y1="25.48" x2="19.529" y2="20.178" gradientUnits="userSpaceOnUse"><stop stop-color="#F08600"/><stop offset="1" stop-color="#E94E1D"/></linearGradient><clipPath id="a"><path fill="#fff" d="M0 0h40v40H0z"/></clipPath><clipPath id="b"><path fill="#fff" transform="translate(10 10)" d="M0 0h19.549v20H0z"/></clipPath></defs></svg>