<svg width="40" height="40" fill="none" xmlns="http://www.w3.org/2000/svg"><g clip-path="url(#a)" transform="matrix(1.4 0 0 1.4 -8 -8)"><mask id="b" mask-type="alpha" maskUnits="userSpaceOnUse" x="10" y="18" width="20" height="4"><path fill="#fff" d="M10 18.166h20v3.667H10z"/></mask><g mask="url(#b)"><mask id="c" mask-type="alpha" maskUnits="userSpaceOnUse" x="-2" y="7" width="43" height="30"><path fill-rule="evenodd" clip-rule="evenodd" d="M-1.27 7.028h42.115v29.779H-1.27Z" fill="#fff"/></mask><g mask="url(#c)"><path fill-rule="evenodd" clip-rule="evenodd" d="M16.785 18.24H15.71v1.399h-1.118v-1.4h-1.075v3.52h1.075v-1.384h1.118v1.385h1.075zm3.738 2.813V18.24h-1.075v3.52h1.943l.162-.708h-1.03zm-1.87-2.813H17.58v3.52h1.075zm4.357 0h-1.074v3.52h1.074zm5.297.898c0-.192.192-.28.5-.28.34 0 .707.074.957.177l-.088-.766a4.205 4.205 0 0 0-.986-.103c-.868 0-1.457.343-1.457 1.06 0 1.238 1.679.988 1.679 1.562 0 .22-.163.338-.56.338-.353 0-.898-.118-1.222-.28l.118.81c.324.119.765.177 1.119.177.897 0 1.633-.294 1.633-1.178 0-1.178-1.693-.957-1.693-1.517m-3.03 1.782c1 0 1.633-.515 1.633-1.414 0-.986-.677-1.34-1.781-1.34-.427 0-.942.03-1.31.074v3.52h1.075v-.84h.382zm.573-1.399c0 .456-.22.766-.78.766h-.176v-1.455c.062-.003.12-.003.176-.003.53 0 .78.25.78.692zm-14.393 1.4c1 0 1.633-.516 1.633-1.415 0-.986-.676-1.34-1.78-1.34-.427 0-.942.03-1.31.074v3.52h1.074v-.84zm.574-1.4c0 .456-.22.766-.78.766h-.177v-1.455c.063-.003.122-.003.177-.003.53 0 .78.25.78.692z" fill="#0b5ed7"/></g></g></g><defs><clipPath id="a"><path fill="#fff" d="M0 0h40v40H0z"/></clipPath></defs></svg>