<svg width="40" height="40" fill="none" xmlns="http://www.w3.org/2000/svg"><g clip-path="url(#a)" transform="matrix(1.4 0 0 1.4 -8 -8)"><path fill-rule="evenodd" clip-rule="evenodd" d="m19.595 13.453.413.346.413-.36-.009-2.035h-.826zm.404-2.386c.293 0 .533-.24.533-.534A.537.537 0 0 0 19.99 10a.535.535 0 0 0-.533.533.545.545 0 0 0 .542.534zm-3.866 2.786h1.08s-.174-.174-.84-.88c-.382-.405-.413-.72.067-.72h.106l.542-.818s-.466-.008-.662-.008c-1.284 0-1.515 1.261-.87 1.87.488.449.577.556.577.556zm7.434-1.631c.48 0 .444.315.067.72l-.827.88h1.08s.098-.098.578-.565c.644-.609.404-1.87-.871-1.87-.21 0-.662.022-.662.022l.537.813zm2.937 10.033c.209.978.142 1.96-.196 2.92-.426 1.177-1.08 1.968-1.892 2.275a3.096 3.096 0 0 1-.947.186c-.27 0-.63-.098-.862-.209a11.321 11.321 0 0 1-.404-.186c-.729-.405-1.764-1.218-1.75-1.764 0-.187.426-.49.781-.502a.908.908 0 0 0 .902-.916v-.044l-.186-.796-.01-.022c-.128-.435-.466-1.915.685-2.581l1-.48-.36-.751-1.022.488-.031.01c-1.142.653-1.547 1.968-1.089 3.536l.151.676a.07.07 0 0 1-.067.044 1.824 1.824 0 0 0-1.195.489c-.338-.307-.826-.48-1.208-.467-.032 0-.054-.022-.067-.044l.151-.675c.444-1.569.031-2.884-1.12-3.529l-1.044-.488-.347.75 1 .467c1.156.653.84 2.133.707 2.582l-.187.817v.045c0 .502.413.902.915.902.347 0 .783.293.783.489.008.542-1.014 1.36-1.742 1.773-.067.03-.143.075-.21.106-.24.142-.6.293-1.021.293-.107 0-.502.01-.991-.173-.818-.315-1.493-1.088-1.915-2.266a5.24 5.24 0 0 1-.098-3.408c.098-.347.338-.862.324-.871.534-1.142 1.413-2.208 2.547-3.115.022-.009 1.697-1.315 3.092-2.244l-1.88-1.262h-1.306c-1.12.107-2.102.533-2.884 1.284-.795.73-1.275 2.089-1.177 3.395a4.58 4.58 0 0 0 .39 1.547c.13-.263.308-.6.534-.991a3.276 3.276 0 0 1-.098-.622c-.075-1.045.294-2.164.902-2.72.654-.622 1.458-.969 2.382-1.066l2.342-.01c-1.338.916-2.777 2.036-2.8 2.05-.937.75-1.71 1.59-2.275 2.501-.36.6-.706 1.373-.697 1.382-.565 1.48-.587 3.017-.067 4.452.653 1.786 1.666 2.484 2.404 2.755.36.129.75.196 1.142.196.6 0 1.12-.196 1.11-.196.174-.067.503-.187.663-.284.151-.09 1.177-.676 1.75-1.449.578.751 1.57 1.315 1.751 1.427 0 0 .445.262.805.368.404.107.84.107.977.107a3.35 3.35 0 0 0 1.142-.209c.742-.284 1.75-.99 2.382-2.777.458-1.275.48-2.613.089-3.928a3.713 3.713 0 0 1-.658.733zm-8.283-8.194 2.644 1.893c.031.023.21.13.21.13 1.208.826 2.38 1.719 2.394 1.728 1 .773 1.795 1.688 2.35 2.666.227-.325.36-.684.427-.916a10.073 10.073 0 0 0-2.266-2.417 69.398 69.398 0 0 0-2.2-1.6c-.48-.293-1.892-1.252-1.892-1.252-.676-.436-1.644-1.33-1.644-1.33-.36-.346-.405-.728.03-.728h.85v-.822h-.84c-1.36.009-1.569 1.133-.827 1.929.285.315.764.72.764.72zm3.769 14.5c-.503.413-1.276.586-1.947.6-.662-.01-1.413-.174-1.915-.556a6.448 6.448 0 0 1-.902.284c.307.37.729.653 1.275.849a5.09 5.09 0 0 0 1.471.262h.187c.36-.009.915-.075 1.47-.27.543-.196.97-.49 1.276-.872a6.53 6.53 0 0 1-.915-.298zm4.46-13.02a4.781 4.781 0 0 0-2.816-1.253l-.098-.009h-.151l-1.915.01c.195-.152.39-.307.586-.467 0 0 .031-.01.12-.098.089-.076.24-.262.24-.262.045-.045.089-.098.142-.151.751-.796.534-1.916-.826-1.916h-.844v.827h.848c.458 0 .316.39 0 .795-.426.369-.88.72-1.373 1.058.578.413 1.164.782 1.59 1.044l1.547-.009c.925.089 1.729.436 2.395 1.044.609.556.991 1.667.925 2.71a4.085 4.085 0 0 1-.227 1.08c-.151.405-.427.947-.902 1.33l-.009.008c-.12.107-.24.209-.382.307-2.186 1.533-2.35 3.492-2.44 4.54-.009.09-.009.174-.022.25 0 .044-.009.097-.009.142a3.933 3.933 0 0 1-.053.458c.209.106.502.208.818.173.03-.218.053-.405.066-.565 0-.044.01-.097.01-.128.008-.09.008-.174.021-.271.09-1.036.227-2.613 2.066-3.92l.045-.044c1.013-.729 1.404-1.613 1.404-1.622.009-.022.022-.03.031-.044.249-.511.391-1.08.436-1.666.062-1.271-.427-2.631-1.222-3.35zm-9.144 11.504c-.031-.173-.044-.346-.067-.48 0-.053-.008-.097-.008-.142-.01-.075-.023-.164-.023-.249-.097-1.044-.284-3.003-2.484-4.519a3.353 3.353 0 0 1-.404-.315 5.014 5.014 0 0 0-.262.862c.067.044.12.098.187.142 1.884 1.298 2.026 2.875 2.124 3.906.008.098.022.187.022.27 0 .045.009.09.009.13.009.15.03.346.075.555.333.036.613-.049.831-.16z" fill="#00c81e"/></g><defs><clipPath id="a"><path fill="#fff" d="M0 0h40v40H0z"/></clipPath></defs></svg>