<svg width="40" height="40" fill="none" xmlns="http://www.w3.org/2000/svg"><g clip-path="url(#a)" transform="matrix(1.4 0 0 1.4 -8 -8.12)"><g clip-path="url(#b)" fill="#fff"><path d="M30 15c-.019.515-.317.933-.495 1.39-.08.204-.304.12-.465.12-2.912.003-5.824.002-8.736.002-1.315 0-2.63-.02-3.944.01-1.747.037-2.862 1.622-2.316 3.252.126.376.346.693.641.963.725.666 1.443 1.342 2.167 2.008.193.177.37.359.28.642-.103.316-.389.267-.633.268-2.035.003-4.07-.008-6.105.01-.44.003-.459-.133-.31-.487a855.577 855.577 0 0 0 2.72-6.495c.374-.907 1.107-1.37 1.98-1.683H30Z"/><path d="M17.695 25.6c.342-.329.764-.563 1.035-.982.651-1.01.601-2.186-.238-3.045-.709-.726-1.48-1.392-2.22-2.085-.193-.18-.442-.353-.331-.663.113-.32.41-.343.701-.343 2.16 0 4.319.008 6.478-.006.432-.003.47.134.318.496-.863 2.046-1.712 4.1-2.57 6.149-.07.166-.173.32-.26.478l-2.913.001zM22.861 25.6c-.104-.157-.015-.296.043-.437.865-2.077 1.733-4.152 2.592-6.23.113-.274.265-.434.584-.43a82.49 82.49 0 0 0 2.157.001c.284-.002.363.097.249.366-.73 1.73-1.443 3.468-2.183 5.193-.38.886-1.16 1.28-2.033 1.537h-1.409z"/></g></g><defs><clipPath id="a"><path fill="#fff" d="M0 0h40v40H0z"/></clipPath><clipPath id="b"><path fill="#fff" transform="translate(10 15)" d="M0 0h20v10.6H0z"/></clipPath></defs></svg>