<svg width="40" height="40" fill="none" xmlns="http://www.w3.org/2000/svg"><g clip-path="url(#a)" transform="matrix(1.4 0 0 1.4 -8 -8)"><mask id="b" mask-type="alpha" maskUnits="userSpaceOnUse" x="10" y="15" width="20" height="10"><path fill="#fff" d="M10 15.644h20v8.712H10z"/></mask><g mask="url(#b)" fill-rule="evenodd" clip-rule="evenodd" fill="#fff"><path d="M13.888 23.206c.277-.64.236-1.31.239-1.974.002-.487 0-.973 0-1.452.018-.014.026-.024.033-.024.448 0 .899-.026 1.343.012.777.068 1.32.578 1.439 1.355.11.715-.076 1.341-.684 1.792a1.365 1.365 0 0 1-.762.286c-.528.017-1.057.005-1.608.005zm1.099-.582c.425.069.741-.05.911-.395.226-.458.252-.94.055-1.415-.158-.387-.545-.563-.966-.447zM10.755 24.352v-.467c.167-.013.336-.012.498-.044.254-.051.516-.096.751-.196.524-.223.767-.67.855-1.21.036-.243.055-.488.058-.735.009-.448.002-.896.002-1.338h-1.384v-.604h2.254c.008.015.013.03.016.046-.004.792.026 1.586-.021 2.375-.07 1.164-.634 1.797-1.768 2.052-.3.067-.608.087-.916.12-.109.011-.22.001-.345.001zM17.036 23.212c.208-.691.147-1.39.155-2.082.006-.453 0-.906 0-1.371h1.96v.617l-1.066-.055v.873l.916-.05v.631l-.929-.047v.918l1.174-.048v.616zM10.541 15.99c.753.146 1.232.865 1.043 1.567-.076.286-.21.557-.33.83-.137.314-.31.613-.425.934-.147.406-.105.807.14 1.2-.127-.055-.262-.097-.38-.168-.444-.267-.667-.817-.566-1.327.087-.443.29-.837.49-1.233.11-.21.208-.425.292-.646.154-.422.122-.817-.264-1.157zM24.495 15.77c.041-.09.112-.126.208-.126H26.5c.21 0 .413.033.584.169.213.169.315.398.34.663.017.157 0 .316-.049.466-.112.328-.357.494-.683.557-.106.02-.214.027-.334.04v.303c0 .054-.002.108 0 .162.002.062-.032.09-.087.099a.351.351 0 0 1-.063.003h-1.55c-.07 0-.13-.014-.163-.084zm1.97.481c-.043.003-.105-.013-.106.063a20.96 20.96 0 0 0 0 .582.072.072 0 0 0 .045.052c.12.032.31-.053.371-.163a.35.35 0 0 0-.31-.533zm-1.08.362-.066-.079-.534-.655c-.027-.033-.058-.066-.1-.031-.041.034-.017.072.01.104l.61.729c.052.06.1.061.153 0 .068-.078.135-.157.196-.24.015-.02.031-.066.009-.084-.023-.018-.064.007-.081.025-.067.073-.129.149-.197.231zm-.007.522c.076.096.138.182.206.26.02.02.047.028.074.022.04-.018.024-.053.003-.082l-.176-.237c-.058-.08-.105-.086-.17-.013a93.39 93.39 0 0 0-.619.702c-.01.019-.017.066.004.083.022.018.062 0 .08-.013a200.937 200.937 0 0 1 .598-.722zm-.318-.274c-.034.045-.063.085-.094.122-.087.105-.177.208-.26.315-.017.02-.037.067-.014.087.023.02.065-.011.081-.03.122-.144.24-.294.36-.441a.08.08 0 0 0-.002-.118c-.051-.058-.097-.12-.147-.18-.074-.088-.147-.177-.225-.26-.015-.017-.055-.038-.076-.021-.022.016-.01.062 0 .087.018.03.04.057.066.08zm.33.742c.068.092.127.18.192.26.014.017.054.039.075.023.022-.015.013-.06 0-.078-.057-.09-.123-.177-.187-.263-.052-.07-.11-.073-.17-.008-.05.055-.096.116-.144.174a.657.657 0 0 0-.084.112c-.01.02-.014.064.008.08.022.017.052.003.076-.015a.25.25 0 0 0 .038-.042l.196-.243zm-.01-1.471c-.075-.09-.138-.17-.208-.247-.015-.017-.055-.042-.076-.025-.02.018 0 .06.014.079.062.083.13.16.195.24.052.064.109.066.164 0 .066-.076.13-.155.193-.233.021-.027.05-.063.007-.087-.015-.01-.06.012-.078.031-.07.075-.136.154-.211.242zM22.627 18.038c.078.011.154.028.23.05.478.118.805.526.844 1.04.073.957-.644 1.668-1.402 1.834a1.58 1.58 0 0 1-.267.027c-.06.002-.087.026-.087.087 0 .554 0 1.108.003 1.662 0 .15.037.173.192.168.058-.002.131-.022.13.068 0 .08-.057.105-.135.104-.348-.003-.695 0-1.043-.002-.02 0-.047.006-.06-.004-.028-.02-.067-.05-.067-.075a.099.099 0 0 1 .067-.071 1.74 1.74 0 0 1 .226 0c.058 0 .09-.025.087-.087-.002-.034 0-.069 0-.103l-.006-4.204v-.123c-.162-.007-.316-.009-.469-.022a.394.394 0 0 1-.17-.058c-.065-.041-.079-.111-.05-.183.03-.073.087-.084.154-.075.434.064.866.015 1.298-.016.024-.001.374-.033.525-.017zm-.69 2.608c0 .138.04.178.168.134.155-.053.318-.108.446-.203.465-.346.64-.83.586-1.395a.813.813 0 0 0-.43-.654 1.099 1.099 0 0 0-.633-.149c-.132.01-.153.023-.154.152-.003.355.017 1.765.017 2.116zM27.214 20.4a2.557 2.557 0 0 1-.287.017.177.177 0 0 1-.119-.063c-.045-.058-.01-.133.066-.145.108-.018.218-.03.351-.048-.012-.174-.02-.348-.036-.52a2.078 2.078 0 0 0-.045-.231.352.352 0 0 0-.154-.235c-.029-.019-.062-.071-.054-.095a.153.153 0 0 1 .092-.082c.238-.066.555.084.617.321.058.22.066.454.094.682a.916.916 0 0 1 0 .112c.132-.013.25-.027.37-.037.075-.007.151-.012.227-.014.058 0 .127-.012.137.071.01.083-.007.163-.097.182a1.766 1.766 0 0 1-.306.026c-.116.004-.232 0-.348 0-.017.275-.039.532-.046.79-.014.45-.022.9-.024 1.35.004.106.021.212.05.314.04.162.24.268.363.08.019-.029.073-.069.11-.051.038.017.045.09.036.126-.049.197-.33.424-.53.44-.19.015-.335-.072-.426-.264a1.66 1.66 0 0 1-.138-.735c.003-.395.03-.79.048-1.186.014-.267.033-.534.049-.806zM24.895 21.64l.024-.3c.005-.073-.011-.134-.077-.179-.022-.015-.053-.045-.046-.073.007-.029.044-.038.067-.039.089-.004.11-.058.124-.133.045-.256.114-.504.257-.724.16-.247.377-.41.684-.416a.545.545 0 0 1 .545.367c.092.239.123.497.09.751-.027.225-.111.293-.34.305-.23.011-.462.03-.691.037-.105.003-.138.046-.137.145.002.269.04.53.181.764.167.276.464.314.699.093.055-.057.106-.117.153-.18.02-.025.029-.059.052-.077.03-.023.065-.068.1-.054.04.017.03.083.04.126.004.014-.008.033-.016.048-.131.231-.298.43-.533.562-.322.179-.66.114-.903-.165-.18-.209-.269-.491-.273-.859zm1.177-.945c0-.079-.005-.158-.015-.236a1.28 1.28 0 0 0-.077-.297c-.061-.137-.19-.148-.29-.036a.274.274 0 0 0-.063.093 2.924 2.924 0 0 0-.195.68c-.016.103.03.136.123.135.103 0 .206.002.309 0 .193-.005.194-.006.201-.194.003-.048.005-.145.007-.145z"/><path d="M23.096 21.887c0-.052-.003-.104 0-.155.008-.087-.004-.161-.095-.206-.027-.014-.066-.057-.056-.091.01-.034.063-.046.094-.045.084.004.104-.036.111-.11.03-.308.129-.592.332-.83.145-.17.316-.307.544-.35.216-.042.395.029.502.219.18.318.224.661.156 1.018-.023.123-.082.165-.21.174l-.741.044c-.145.01-.174.027-.152.166.036.222.07.451.15.66.145.373.47.423.745.132.071-.075.128-.162.196-.24.017-.02.049-.05.075-.04.027.01.035.058.03.08-.085.379-.53.833-.965.755-.264-.048-.442-.212-.564-.441-.123-.229-.157-.482-.152-.74zm.53-.532c.217-.013.343-.015.501-.038.036-.005.087-.078.087-.119a7.535 7.535 0 0 0-.04-.666c-.006-.05-.063-.128-.104-.133-.056-.008-.127.032-.178.07-.04.028-.063.081-.085.126-.082.152-.14.316-.172.486-.02.077-.068.277-.009.274zM29.777 19.932a.737.737 0 0 1 .114-.096.103.103 0 0 1 .093 0c.017.014.018.06.015.09-.012.114-.03.228-.042.342-.005.05.008.104 0 .154-.01.087-.062.145-.153.155-.091.01-.145-.036-.176-.114a1.128 1.128 0 0 1-.04-.15c-.032-.138-.116-.228-.258-.245-.152-.018-.288.024-.383.153-.057.08-.035.164-.002.247.086.207.211.396.37.554.128.13.258.259.378.395a.95.95 0 0 1 .258.55c.053.595-.616 1.11-1.173.904a.667.667 0 0 1-.446-.631c.001-.051.015-.1.04-.145.058-.096.176-.102.238-.01.034.06.06.124.074.19.055.191.155.34.36.385a.331.331 0 0 0 .408-.292.582.582 0 0 0-.114-.419 8.143 8.143 0 0 0-.398-.5c-.149-.177-.302-.348-.388-.567a.792.792 0 0 1 .189-.874.758.758 0 0 1 .875-.156c.06.025.115.058.16.08zM28.63 19.3c.113 0 .174.07.15.18a.677.677 0 0 1-.307.422c-.06.04-.106.016-.114-.046a1.803 1.803 0 0 1-.02-.359c.008-.11.152-.197.29-.196z"/></g></g><defs><clipPath id="a"><path fill="#fff" d="M0 0h40v40H0z"/></clipPath></defs></svg>