<svg width="40" height="40" fill="none" xmlns="http://www.w3.org/2000/svg"><mask id="a" mask-type="alpha" maskUnits="userSpaceOnUse" x="10" y="10" width="20" height="20"><path fill-rule="evenodd" clip-rule="evenodd" d="M10 10h19.638v19.698H10V10Z" fill="#fff"/></mask><g mask="url(#a)" transform="matrix(1.4 0 0 1.4 -7.928 -7.94)"><path fill-rule="evenodd" clip-rule="evenodd" d="M29.547 19.57a29.586 29.586 0 0 0-2.14-3.117l-.02-.025-.006-.007c-.04-.049-.141-.176-.178-.225-.356-.486-.772-4.38-.821-4.669-.058-.337-.155-.689-.645-.742-.398-.04-.986-.107-1.637-.14a.539.539 0 0 0-.536.295.74.74 0 0 0-.08.333c-.01.5.002.744.002.805l-.002.02a.155.155 0 0 1-.051.086c-.056.046-.138.041-.196-.003-.31-.235-1.918-1.455-2.807-2.007a1.403 1.403 0 0 0-.128-.066c-.325-.146-.704-.15-1.012.026a1.378 1.378 0 0 0-.064.04c-.293.184-5.306 3.031-9.101 9.363 0 0-.236.331-.06.64.172.356 1.829.457 2.094.488.3.031.298.276.298.276.03 2.6.076 3.861.5 8.27 0 0 .068.46.523.481.184.01.866-.03 2.685-.07a.126.126 0 0 0 .138-.145c-.174-1.799-.23-3.355-.234-3.446-.004-.064-.063-.16-.123-.185a2.094 2.094 0 0 1-1.076-1.828 74.661 74.661 0 0 1 .167-6.297s.02-.379.354-.348c.334.03.312.403.312.403-.12 1.534-.166 4.3-.166 4.3s0 .525.504.524c.504 0 .504-.525.504-.525-.016-2.164.166-4.339.166-4.339s0-.368.356-.368c.193 0 .267.133.295.24a.541.541 0 0 1 .014.175c-.148 1.873-.164 4.29-.164 4.29s0 .525.504.525c.503 0 .5-.569.5-.569-.007-1.793.17-4.292.17-4.292.015-.194.113-.363.35-.365.296.01.319.293.313.365-.157 1.948-.162 4.933-.154 6.211a2.15 2.15 0 0 1-1.024 1.896.193.193 0 0 0-.084.184c.04 1.184.14 2.497.226 3.438a.13.13 0 0 0 .116.121c.503 0 1.468-.006 2.074-.006.973 0 1.36.006 2.075.016.08 0 .119-.059.125-.14.184-1.705.248-2.939.258-3.047.01-.122-.14-.145-.14-.145-.222-.03-.744-.092-1.188-.164-.444-.073-.46-.579-.46-.579-.375-5.316 2.43-8.629 2.43-8.629s.279-.368.665-.224c.342.128.433 1.112.437 1.171.376 4.401-.048 9.534-.293 11.63-.01.085.03.153.108.17.097.016 1.78.072 1.934.055a.606.606 0 0 0 .537-.508c.596-4.118.505-8.249.505-8.249a.303.303 0 0 1 .276-.276l1.615-.173c.21-.03.392-.115.485-.297a.661.661 0 0 0-.025-.623z" fill="#ed7203"/></g></svg>