<svg width="40" height="40" fill="none" xmlns="http://www.w3.org/2000/svg"><path fill-rule="evenodd" clip-rule="evenodd" d="M16.7 10.103V6.387a14.003 14.003 0 0 0-6.597 3.716z" fill="#469dd7" style="stroke-width:1.4"/><path fill-rule="evenodd" clip-rule="evenodd" d="M23.298 10.103V6.387c2.54.614 4.81 1.929 6.597 3.716z" fill="#0081c8" style="stroke-width:1.4"/><path fill-rule="evenodd" clip-rule="evenodd" d="M20.011 6a14.21 14.21 0 0 0-3.311.387v3.716h6.597V6.39A14.003 14.003 0 0 0 20.011 6Z" fill="#a0c2e4" style="stroke-width:1.4"/><path fill-rule="evenodd" clip-rule="evenodd" d="M23.298 29.897v3.715c2.54-.615 4.81-1.929 6.597-3.715zM16.7 29.897v3.715a14.013 14.013 0 0 1-6.597-3.715Z" fill="#0081c8" style="stroke-width:1.4"/><path fill-rule="evenodd" clip-rule="evenodd" d="M19.987 34c1.137 0 2.253-.132 3.31-.388v-3.715H16.7v3.712c1.059.255 2.15.391 3.287.391Z" fill="#469dd7" style="stroke-width:1.4"/><path fill-rule="evenodd" clip-rule="evenodd" d="M29.896 16.7h3.716a14.002 14.002 0 0 0-3.716-6.597ZM29.896 23.299h3.716a13.999 13.999 0 0 1-3.716 6.598z" fill="#0081c8" style="stroke-width:1.4"/><path fill-rule="evenodd" clip-rule="evenodd" d="M34 20.012c0-1.136-.132-2.254-.388-3.312h-3.716V23.3h3.712c.256-1.058.392-2.152.392-3.287z" fill="#469dd7" style="stroke-width:1.4"/><path fill-rule="evenodd" clip-rule="evenodd" d="M10.104 23.299H6.388a13.987 13.987 0 0 0 3.716 6.598z" fill="#0081c8" style="stroke-width:1.4"/><path fill-rule="evenodd" clip-rule="evenodd" d="M10.104 16.7H6.388a13.99 13.99 0 0 1 3.716-6.597z" fill="#469dd7" style="stroke-width:1.4"/><path fill-rule="evenodd" clip-rule="evenodd" d="M6 19.987c0 1.138.132 2.254.388 3.312h3.715V16.7H6.391A13.897 13.897 0 0 0 6 19.987z" fill="#a0c2e4" style="stroke-width:1.4"/><path fill-rule="evenodd" clip-rule="evenodd" d="M10.103 16.7h6.596v-6.598h-6.596z" fill="#93cc84" style="stroke-width:1.4"/><path fill-rule="evenodd" clip-rule="evenodd" d="M10.103 23.299h6.596V16.7h-6.596z" fill="#c6e3bd" style="stroke-width:1.4"/><path fill-rule="evenodd" clip-rule="evenodd" d="M10.103 29.897h6.596v-6.598h-6.596z" fill="#6ebf5d" style="stroke-width:1.4"/><path fill-rule="evenodd" clip-rule="evenodd" d="M16.7 16.7h6.597v-6.598H16.7Z" fill="#c6e3bd" style="stroke-width:1.4"/><path fill-rule="evenodd" clip-rule="evenodd" d="M16.7 23.299h6.597V16.7H16.7Z" fill="#e4105b" style="stroke-width:1.4"/><path fill-rule="evenodd" clip-rule="evenodd" d="M16.7 29.897h6.597v-6.598H16.7Z" fill="#93cc84" style="stroke-width:1.4"/><path fill-rule="evenodd" clip-rule="evenodd" d="M23.298 16.7h6.597v-6.598h-6.597Z" fill="#6ebf5d" style="stroke-width:1.4"/><path fill-rule="evenodd" clip-rule="evenodd" d="M23.298 23.299h6.597V16.7h-6.597z" fill="#93cc84" style="stroke-width:1.4"/><path fill-rule="evenodd" clip-rule="evenodd" d="M23.298 29.897h6.597v-6.598h-6.597Z" fill="#6ebf5d" style="stroke-width:1.4"/></svg>