<svg width="40" height="40" fill="none" xmlns="http://www.w3.org/2000/svg"><g clip-path="url(#a)" transform="matrix(1.4 0 0 1.4 -8 -7.959)"><g clip-path="url(#b)" fill="#fff"><path d="M10 21.67c.076-.089.114-.2.166-.301.536-1.053 1.07-2.106 1.602-3.16.037-.072.076-.102.159-.098.175.007.351.004.527 0 .057 0 .092.014.12.067.603 1.15 1.208 2.298 1.813 3.446.01.02.03.038.012.074h-1.012c-.066 0-.07-.052-.09-.09l-1.046-2.109-.07-.14-.462.979c.147 0 .274.004.402-.002.07-.004.103.023.131.084.094.2.192.4.294.596.043.082.043.11-.064.109-.344-.006-.688 0-1.031-.004-.073 0-.112.02-.14.089-.06.143-.132.28-.196.423-.02.043-.042.067-.095.066-.34-.004-.68-.004-1.02-.005v-.024ZM17.082 19.716h.7c.105 0 .21-.005.304-.065.143-.093.207-.278.162-.466-.04-.169-.156-.281-.334-.295-.366-.027-.734-.006-1.101-.012-.047 0-.06.019-.06.063.003.078.001.156.001.234 0 .806-.001 1.612.002 2.418 0 .09-.02.12-.115.116-.222-.007-.445-.004-.668 0-.063 0-.087-.017-.087-.085.002-1.142.002-2.283 0-3.424 0-.047.002-.082.067-.08.699.012 1.4-.037 2.096.025.868.077 1.347.955.952 1.722-.123.239-.32.403-.57.494-.113.041-.103.08-.05.167.217.359.426.723.641 1.084.041.069.046.098-.05.096a24.247 24.247 0 0 0-.704 0c-.053 0-.085-.015-.112-.063-.354-.63-.711-1.26-1.067-1.89-.003-.005-.003-.014-.007-.038zM28.49 21.773c-.616-.004-1.167-.175-1.701-.416-.05-.022-.048-.045-.03-.09.075-.191.148-.384.217-.578.022-.064.052-.055.102-.035.343.142.691.266 1.063.304.227.024.453.027.674-.037.118-.033.221-.089.24-.225.016-.117-.06-.22-.205-.28-.293-.125-.607-.168-.914-.24a2.598 2.598 0 0 1-.562-.195c-.594-.295-.736-1.008-.301-1.511.276-.319.645-.443 1.05-.465.566-.032 1.107.09 1.632.296.084.033.094.066.06.145-.077.178-.146.36-.212.542-.026.071-.053.074-.117.042-.385-.192-.79-.31-1.227-.28a.88.88 0 0 0-.371.09c-.187.103-.197.31-.012.417.22.127.47.163.712.216.32.07.637.151.919.329.348.219.522.533.488.942-.033.418-.269.7-.649.869-.28.123-.578.15-.856.16zM26.463 19.338c-.015.34.024.757-.025 1.173-.082.695-.557 1.172-1.255 1.253-.406.047-.81.05-1.203-.085-.493-.17-.766-.526-.872-1.023a2.469 2.469 0 0 1-.05-.522c.002-.642.003-1.285 0-1.927-.001-.083.013-.115.106-.112.23.007.46.006.691 0 .086-.002.101.029.101.107-.003.626-.002 1.253-.001 1.88 0 .165.017.326.083.48.11.258.316.39.583.425.15.02.303.013.45-.042.317-.117.491-.386.495-.797.005-.642.004-1.285-.001-1.927-.001-.106.028-.13.129-.126.226.008.453.006.68 0 .074-.001.09.022.09.093-.003.358-.001.716-.001 1.15zM15.51 19.917c0 .557-.003 1.113.002 1.67 0 .094-.028.115-.117.113-.23-.006-.46-.005-.69 0-.072.001-.093-.017-.093-.09.002-1.137.002-2.273 0-3.41 0-.074.023-.09.093-.089.234.004.468.005.703 0 .08-.002.104.019.103.102-.003.568-.002 1.136-.002 1.704zM22.316 19.856a.862.862 0 0 0 .229-.285c.3-.655-.17-1.436-.893-1.452-.703-.015-1.406-.004-2.11-.008-.065 0-.076.025-.075.082v3.424c0 .056.01.082.076.082.734-.004 1.469.006 2.203-.01.365-.006.659-.185.866-.484.275-.395.26-.997-.296-1.349zm-1.982-.9c-.001-.063.013-.089.084-.088.378.003.756 0 1.134.002.2.002.34.137.336.312-.003.169-.144.292-.34.293-.184.002-.367.001-.55.001-.195 0-.39-.002-.585.001-.061.002-.08-.017-.079-.078a9.083 9.083 0 0 0 0-.443zm1.23 1.984c-.215.005-.43.001-.644.001-.164 0-.328-.003-.491.002-.07.002-.098-.014-.095-.09a9.989 9.989 0 0 0 0-.535c-.002-.067.021-.086.086-.085.2.004.398.002.597.002.18 0 .359-.002.538 0 .243.002.414.146.418.347.004.2-.167.353-.41.358z"/></g></g><defs><clipPath id="a"><path fill="#fff" d="M0 0h40v40H0z"/></clipPath><clipPath id="b"><path fill="#fff" transform="translate(10 18)" d="M0 0h20v3.793H0z"/></clipPath></defs></svg>