<svg width="40" height="40" fill="none" xmlns="http://www.w3.org/2000/svg"><g clip-path="url(#a)" transform="matrix(1.4 0 0 1.4 -8 -8)" fill-rule="evenodd" clip-rule="evenodd"><path d="m30 14.307-3.333 1.898L30 18.102z" fill="#00a651"/><path d="M26.666 16.205 30 18.102 26.667 20z" fill="#00854a"/><path d="M30 18.102 26.667 20 30 21.898z" fill="#00984c"/><path d="M26.666 20 30 21.898l-3.333 1.898z" fill="#007742"/><path d="m30 21.898-3.333 1.898L30 25.694z" fill="#008343"/><path d="M26.666 23.796 30 25.694l-3.333 1.897z" fill="#006939"/><path d="m26.667 16.205-3.334 1.897L26.667 20z" fill="#00a651"/><path d="M23.334 18.102 26.666 20l-3.333 1.898z" fill="#00854a"/><path d="m26.667 20-3.334 1.898 3.334 1.898z" fill="#00984c"/><path d="m23.334 21.898 3.333 1.898-3.333 1.898z" fill="#007742"/><path d="m26.667 23.796-3.334 1.898 3.334 1.897z" fill="#008343"/><path d="m23.334 25.694 3.333 1.897-3.333 1.898z" fill="#006939"/><path d="m23.334 10.511 3.333 1.898-3.333 1.898z" fill="#00a05a"/><path d="m26.667 12.41-3.334 1.897 3.334 1.898z" fill="#00ac5b"/><path d="m23.334 14.307 3.333 1.898-3.333 1.897z" fill="#009353"/><path d="M23.333 18.102 20 20l3.333 1.898Z" fill="#00a651"/><path d="M23.333 21.898 20 23.796l3.333 1.898z" fill="#00984c"/><path d="m20 23.796 3.333 1.898L20 27.59Z" fill="#007742"/><path d="M23.333 25.694 20 27.59l3.333 1.898Z" fill="#008343"/><path d="m20 27.591 3.333 1.898L20 31.387Z" fill="#006939"/><path d="m20 12.41 3.333 1.897L20 16.205Z" fill="#00a05a"/><path d="M23.333 14.307 20 16.205l3.333 1.897z" fill="#00ac5b"/><path d="m20 8.614 3.333 1.897L20 12.41Z" fill="#00af62"/><path d="M23.333 10.511 20 12.41l3.333 1.898z" fill="#00b26b"/><path d="m10 14.307 3.333 1.898L10 18.102Z" fill="#00af62"/><path d="M13.333 16.205 10 18.102 13.333 20z" fill="#00b26b"/><path d="M10 18.102 13.333 20 10 21.898Z" fill="#00a05a"/><path d="M13.333 20 10 21.898l3.333 1.898z" fill="#00ac5b"/><path d="m10 21.898 3.333 1.898L10 25.694Z" fill="#009353"/><path d="M13.333 23.796 10 25.694l3.333 1.897z" fill="#00a651"/><path d="m13.334 23.796 3.333 1.898-3.333 1.897z" fill="#00854a"/><path d="m16.667 25.694-3.334 1.897 3.334 1.898z" fill="#00984c"/><path d="m16.667 10.511-3.334 1.898 3.334 1.898z" fill="#45b97c"/><path d="m13.334 12.41 3.333 1.897-3.333 1.898z" fill="#00af62"/><path d="m20 23.796-3.333 1.898L20 27.59z" fill="#00984c"/><path d="M16.666 25.694 20 27.59l-3.333 1.898z" fill="#007742"/><path d="m20 27.591-3.333 1.898L20 31.387z" fill="#008343"/><path d="m20 12.41-3.333 1.897L20 16.205z" fill="#00b26b"/><path d="m20 8.614-3.333 1.897L20 12.41z" fill="#45b97c"/><path d="M16.666 10.511 20 12.41l-3.333 1.898z" fill="#00af62"/><path d="M26.666 12.41 30 14.306l-3.333 1.898z" fill="#009353"/><path d="M13.333 12.42 10 14.318l3.333 1.898z" fill="#00b26b"/></g><defs><clipPath id="a"><path fill="#fff" d="M0 0h40v40H0z"/></clipPath></defs></svg>