<svg width="40" height="40" fill="none" xmlns="http://www.w3.org/2000/svg"><mask id="a" mask-type="alpha" maskUnits="userSpaceOnUse" x="10" y="17" width="20" height="6"><path fill-rule="evenodd" clip-rule="evenodd" d="M15.54 18.724c-.034 0-.05.017-.05.047v.317c0 .033.016.046.05.046h.526v1.623h-.65c-.034 0-.05.017-.05.05v.314c0 .033.016.046.05.046h1.786c.033 0 .05-.016.05-.046v-.314c0-.033-.02-.05-.05-.05h-.726v-1.983c0-.033-.017-.046-.05-.046h-.887v-.004Zm7.978 0c-.034 0-.05.017-.05.047v.317c0 .033.02.046.05.046h.526v1.623h-.65c-.033 0-.05.017-.05.05v.314c0 .033.017.046.05.046h1.787c.033 0 .05-.016.05-.046v-.314c0-.033-.017-.05-.05-.05h-.727v-1.983c-.003-.033-.02-.046-.05-.046h-.886v-.004Zm6.125-.01c-.05 0-.063.02-.076.05l-.697 1.833-.716-1.823c-.017-.043-.037-.063-.08-.063h-.3c-.034 0-.057.023-.057.06 0 .013.003.023.007.033l.93 2.367-.08.21c-.03.066-.087.246-.157.34a.358.358 0 0 1-.153.136.29.29 0 0 1-.12.03c-.017 0-.034-.003-.05-.003a1.157 1.157 0 0 1-.184-.053c-.036-.014-.06-.03-.096-.03-.027 0-.057.016-.057.063v.27c0 .037.01.066.06.093.11.05.203.077.36.077a.69.69 0 0 0 .327-.107.836.836 0 0 0 .266-.263c.037-.053.067-.11.093-.167.06-.123.944-2.463 1.13-2.96.007-.016.007-.03.007-.04 0-.033-.023-.053-.057-.053h-.3Zm-8.508.297v-.217c0-.03-.017-.046-.047-.046h-.313c-.034 0-.05.016-.05.046v2.353c0 .034.016.047.05.047h.313c.034 0 .047-.017.047-.047v-1.446c0-.277.2-.583.603-.583.4 0 .603.31.603.583v1.446c0 .034.017.047.05.047h.317c.03 0 .047-.017.047-.047v-1.453a1.013 1.013 0 0 0-.27-.693c-.17-.187-.467-.297-.734-.297a.717.717 0 0 0-.616.307Zm-9.582.38c0 .423.22.633.76.727l.017.003c.37.067.636.113.636.38 0 .226-.263.33-.506.33-.304 0-.487-.144-.524-.407-.003-.033-.016-.063-.066-.063h-.307c-.043 0-.067.026-.067.066 0 .47.39.797.95.797.56 0 .95-.317.95-.77 0-.497-.437-.61-.846-.68-.514-.083-.584-.233-.584-.38 0-.23.24-.31.447-.31.28 0 .45.107.5.32.01.034.017.064.066.064h.267c.043 0 .067-.027.067-.067 0-.423-.364-.707-.907-.707-.583-.006-.853.357-.853.697Zm7.089-.71c-.557.113-.977.633-.977 1.26 0 .706.537 1.28 1.204 1.28.303 0 .583-.12.793-.32v.3c0 .47-.247.73-.694.73-.336 0-.543-.137-.613-.41-.01-.034-.016-.064-.066-.064h-.274c-.046 0-.07.024-.07.07.047.477.46.797 1.027.797.663 0 1.106-.444 1.106-1.1v-2.45c0-.033-.016-.046-.05-.046h-.313a.046.046 0 0 0-.047.046v.204a1.174 1.174 0 0 0-.56-.297.037.037 0 0 0-.043.037v.37c0 .016.01.03.027.036.343.097.593.43.593.827 0 .473-.357.856-.8.856-.44 0-.8-.383-.8-.856 0-.39.244-.717.574-.82.016-.003.026-.02.026-.033v-.377a.037.037 0 0 0-.036-.037c0-.003-.004-.003-.007-.003Zm-2.68-.697c0 .187.15.337.337.337.187 0 .337-.15.337-.337a.336.336 0 0 0-.337-.336.336.336 0 0 0-.337.337Zm7.982 0c0 .187.15.337.337.337.187 0 .337-.15.337-.337a.336.336 0 0 0-.337-.336.336.336 0 0 0-.337.337Zm2.023.43v.31h-.503c-.047 0-.07.024-.07.07v.257c0 .047.023.07.07.07h.503v1.983c0 .047.024.07.07.07h.274c.046 0 .07-.023.07-.07v-1.983h.78c.046 0 .07-.023.07-.07v-.257c0-.046-.024-.07-.07-.07h-.78v-.31c0-.256.13-.406.346-.406.167 0 .284.04.45.15.02.013.034.013.047.013.033 0 .053-.026.053-.07v-.253c0-.047-.007-.07-.05-.1a.96.96 0 0 0-.53-.137c-.503 0-.73.417-.73.803Zm-13.787-.846h-.007a2.44 2.44 0 1 0 .533 0h-.016a.075.075 0 0 0-.05.017.063.063 0 0 0-.017.043v.313c0 .017.013.034.027.034 1.02.106 1.813.97 1.813 2.016 0 1.12-.91 2.03-2.03 2.03-1.12 0-2.03-.91-2.03-2.03 0-1.047.793-1.91 1.813-2.017.017 0 .027-.016.027-.033v-.313a.057.057 0 0 0-.017-.043c-.013-.014-.033-.017-.05-.017.01-.003.007 0 .004 0Z" fill="#fff"/></mask><g mask="url(#a)" transform="matrix(1.4 0 0 1.4 -8 -8)"><path fill-rule="evenodd" clip-rule="evenodd" d="M16.582 31.829 32.286 20.83 23.421 8.169 7.714 19.168Z" fill="url(#b)" style="fill:url(#b)"/></g><defs><linearGradient id="b" x1="13.866" y1="41.422" x2="36.519" y2="24.312" gradientUnits="userSpaceOnUse"><stop stop-color="#5CBE7C"/><stop offset=".501" stop-color="#5CBE7C"/><stop offset=".679" stop-color="#52BF94"/><stop offset="1" stop-color="#3DC1C9"/></linearGradient></defs></svg>