<svg width="40" height="40" fill="none" xmlns="http://www.w3.org/2000/svg"><path fill-rule="evenodd" clip-rule="evenodd" d="M33.5 20.001a6.246 6.246 0 0 0-.294-.751c-.59-1.234-1.409-2.576-2.656-3.354a5.313 5.313 0 0 1-1.758-1.824c-.214-.188-.429-.456-.697-.496.067.12.16.241.174.402l-.013.013c-.295.014-.537-.147-.738-.335l.228-.201a.98.98 0 0 0-.282-.08c-.845-.108-1.556.294-2.307.482l-.014.04c.456.215.564.725.832 1.074.067-.08.175-.027.268-.027.135 0 .269.107.403.067 0-.107-.067-.201-.08-.309.08-.04.174 0 .268 0 .241.148.63-.026.791.309-.282.013-.55.08-.805.134.014.107.121.201.108.309a2.413 2.413 0 0 0-.711-.188l-.014.04c.322.376.751.59 1.207.724.631.148 1.194-.16 1.825-.053 1.516.697 2.817 2.294 3.38 3.796.027.08.054.148.081.228.47 1.369.563 3.072.08 4.508-.254.603-.523 1.167-.965 1.65-.175.2-.363.389-.564.55-.63.496-1.422.71-2.227.496-.053-.04-.16-.054-.134-.134l.08-.362a8.813 8.813 0 0 0 .148-2.147v-.093a7.954 7.954 0 0 0-.644-2.898c-.241-.523-.536-1.1-.912-1.61-.443-.604-.993-1.14-1.69-1.395-.443-.12-.966-.134-1.301.214a.927.927 0 0 0-.296.792 2.73 2.73 0 0 1-1.22.39c-.108.013-.228.053-.336.053-.107 0-.214 0-.322-.014-.536-.067-1.073-.362-1.489-.697-.013-.215-.027-.43-.027-.658a.803.803 0 0 1-.456-.63l.027-.027c.134.054.255.12.376.188-.054-.336-.12-.658-.282-.94-.147-.066-.308-.12-.456-.2a.742.742 0 0 1-.295-.483c.147.134.416.094.523.241-.201-.59-.201-1.26-.523-1.797-.175-.403-.604-.59-.899-.886-.12-.134-.161-.335-.376-.349-.16-.04-.174-.241-.2-.362.093.014.187.094.28.107-.254-.657-.469-1.381-1.126-1.797l-.12.08a7.864 7.864 0 0 1-.792.054c.12-.161.322-.242.483-.309-.188-.147-.35-.174-.577-.214-.134.134-.376.201-.55.241l-.027-.013c0-.161-.04-.349.188-.39-.215-.107-.577-.053-.805 0-.067.175-.242.323-.242.51-.12.135-.214.323-.348.416-.014-.322.134-.63.187-.898-.187.067-.388.174-.576.268a7.758 7.758 0 0 0-.94-.483c-.026-.013-.093-.027-.08.027.282.201.174.577.201.858l-.174-.147c-.08-.215-.322-.376-.376-.604-.281.054-.47.12-.737.242l-.04.026c.2 0 .375.148.469.309-.295.013-.564-.107-.859-.134-.027-.027-.053-.067-.107-.054-.148.054-.268.161-.402.255-.296.295-.59.617-.738.993.107.013.228.013.295.067-.161.107-.295.268-.456.362-.054.215-.04.47-.054.711-.12.188-.295.349-.376.563-.254.846-.335 1.798-.295 2.764-.08.08-.188.134-.268.188v.872h.027c.04-.188.255-.282.389-.403h.04a4.186 4.186 0 0 0-.054.59l-.241.202c-.255.214-.04.536-.067.805.027.08.04.188.08.2.04-.106.135-.187.188-.28.108-.014.201-.108.295-.122-.053.215-.12.43-.214.631a.433.433 0 0 0-.121.107.255.255 0 0 0-.094.148c.188 1.006.496 1.999.832 2.951-.228.39-.362.859-.55 1.261-.027.054-.054.12-.08.175-.202.496-.256 1.046-.497 1.515-.094-.067-.201-.107-.309-.16-.47-.148-.992-.054-1.328.295-.295-.054-.603 0-.831.16a.984.984 0 0 0-.376.443.849.849 0 0 0-.067.403.934.934 0 0 0-.349.55c-.094.456.067.925.322 1.288h7.499a2.163 2.163 0 0 1-.282-.483c-.16-.242-.053-.577-.067-.859.148-.308.309-.617.483-.926.027-.053.067-.12.107-.174l.336-.134c.188 0 .335-.134.51-.08.241.227.241-.229.456-.255.523-.068 1.046-.014 1.341.429 0 .053.094.053.08.107-.066.027-.133-.013-.2-.013-.323-.08-.698-.282-1.02-.108-.013.08-.027.161-.04.228a.762.762 0 0 0-.04.242c.2.054.375.201.536.376.107-.215.335-.309.523-.376.175.04.376.04.51.147.268.255.148.671.12.98.242.147.51.214.752.349-.12.107-.268.147-.402.2l-.416-.08c-.04-.04-.121-.04-.148-.094a1.86 1.86 0 0 0-.376.524h5.81a3.395 3.395 0 0 0-.27-.483c-.12-.255-.08-.604-.093-.872l.55-.819c.295-.013.63-.12.952-.067.014 0 .027-.013.04-.027.135-.094.175-.308.376-.281.362-.094.63.067.9.228-.014.027-.014.04-.028.053-.107.188-.322-.013-.47.04-.066.068.028.148.041.229.054.067-.054.067-.094.08a.296.296 0 0 1-.255-.08c-.013-.027 0-.054-.04-.054-.08.12-.188.242-.215.39.094.093.228.174.269.294.107.148-.067.255-.108.376-.013.027-.053.027-.053 0-.094-.054-.175-.175-.269-.148-.08.376.027.752-.026 1.14.174.027.362-.013.536 0l.08-.804c.081-.51.376-.953.738-1.342.39-.268.644.255.926.443.054 0 .04.054.054.08 0 .094-.094.121-.148.148-.174.067-.308-.134-.416-.242-.107.108-.16.269-.281.35l.04.013c.147.147.282.295.308.483a.536.536 0 0 1-.254.415 3.145 3.145 0 0 1-.282-.617c0 .014-.014.014-.014.027-.241.067-.295.322-.335.537.013.214-.148.295-.107.51h3.031c.336-.054.685-.054.953-.296a4.449 4.449 0 0 0 3.18-.724c.469-.389.885-.818 1.233-1.301.296-.43.537-.819.685-1.288.12-.295.2-.604.281-.912.322-1.476.148-3.113-.335-4.508zm-5.674-5.46c.228.027.39.215.537.39.201.026.335.16.456.308l-.027-.067.027.027-.067-.215c-.054-.228-.188-.402-.335-.59-.202.013-.403.04-.577.12h.04c-.014.014-.027.014-.054.027zm-1.65-.402c.108.054.215.107.336.12.094-.053.214-.08.322-.053.16.107.348-.027.523-.013l-.027-.027h.04a1.632 1.632 0 0 0-.536-.336c-.228.054-.43.215-.658.282l.04.014zm1.234 11.617.309.416c.04-.08.08-.16.094-.255.04-.174.027-.375-.013-.536-.027-.054-.081-.134-.161-.094-.108.12-.121.295-.215.442zm-.523.671c.135.255.43.456.457.765.067-.08.107-.175.16-.269v-.026c0-.094-.093-.094-.134-.161-.013-.04-.013-.081-.013-.121.013-.054.04-.108.04-.148 0-.013.014-.027.014-.027a.817.817 0 0 0-.336-.402l-.174.349v.013zm-1.556-1.865c.174-.04.268-.228.456-.241.268 0 .51.12.684.349.094.067.08.241.202.241v-.027h.013c-.04-.214.027-.402.027-.617-.188-.295-.63-.067-.792-.416l-.308.027c-.121.027-.161.108-.175.201-.027.094-.013.202-.027.296-.026.053-.067.094-.067.147-.013.014-.013.027-.013.04zm-.067-1.368c.054.107.12.295.228.309.241-.108.604-.175.885-.054.08.013.094.094.08.147v.041c.135.08.31.147.47.241l-.013-.027h.013l-.04-.255c0-.268-.349-.295-.375-.563-.282-.094-.604-.134-.9-.054-.107.081-.24.081-.361.094v.04c-.014.027.013.054.013.081zm-.134 2.093c-.027.054-.014.107.067.134.268 0 .617-.134.832.08.067.054.04.161.027.242l.362.295c.013-.107.053-.215.08-.322.014-.08.027-.16.027-.241a.537.537 0 0 0-.215-.35c-.241 0-.375-.28-.617-.24-.134-.027-.255.08-.389.08-.053.067-.08.134-.134.201-.013.027-.04.08-.04.12zm-.107-2.616c.094.094.241.08.362.094l.375-.148s-.013-.013-.013-.027h.013c0-.053-.08-.08-.093-.134.107-.107.241-.027.375-.08.175-.027.362-.202.537-.067v.04c-.014.013-.014.04-.014.054-.04.12.054.187.148.241.201.04.402.228.604.148v-.027l.013-.014a5.39 5.39 0 0 0-.107-.496c-.175-.027-.309-.174-.47-.228-.067.067-.16.12-.255.107-.322-.08-.71-.282-1.046-.067-.12.134-.322.094-.483.161v.027h-.013c.013.148.026.282.067.416zm-.202-.953s0-.013.014-.026c.04.04 0 .12.067.134.107-.054.215-.134.309-.201.281 0 .456-.282.737-.282.47.094.926.188 1.328.416v-.04h.014c-.027-.269-.268-.524-.51-.645-.134-.04-.241.027-.335.108-.295.174-.134-.269-.336-.269-.268.081-.536.161-.818.148-.174.054-.295.215-.483.201v.027c-.013.134-.027.309.013.43zm0-.872c.108-.026.215-.053.296-.134.295-.255.697-.08 1.033-.08l-.014-.04h.014a1.766 1.766 0 0 0-.228-.323c-.121-.04-.228-.093-.363-.093-.295-.175-.483.107-.71.241-.014.054-.041.107-.054.174-.014.094-.014.188.026.255zm-.295 5.34c.108.053.269-.04.376-.108.107-.027.201.04.282.094.027.067 0 .12.013.188.255.08.497.174.725.322l.08-.08v-.027c.014-.188-.12-.309-.268-.416-.08-.054-.201-.027-.269-.094.014-.027.014-.054.014-.08.013-.054.013-.121.013-.175a.587.587 0 0 1-.335-.107c-.08-.027-.148-.08-.201 0-.215.147-.228.362-.43.456.014 0 .014.013.027.013-.013 0-.027.013-.027.013zm-1.02-3.1c0 .04.028.081.041.121.161.269.322.55.43.832v-.053l.013.026c-.04-.308.174-.697-.108-.939-.04-.107-.16-.067-.241-.067l-.134.054c0 .013 0 .013.013.027zm-.992-2.012c.375.376.657.765 1.06 1.127v-.027h.013c0-.16-.013-.322-.027-.483-.053-.107-.174-.2-.268-.281-.295-.027-.456-.43-.778-.376l.027.027s-.014 0-.027.013zm-.39 3.005c.215.202.135.497.121.752-.04.16.161.08.229.16.134.188.053.484.013.685.107-.175.241-.322.335-.51v-.04c.027-.04.08-.08.08-.148 0-.013.014-.027.014-.04.027-.12-.107-.067-.174-.08-.04-.014-.094-.04-.094-.094.027-.04.04-.068.04-.108.054-.187-.027-.402-.067-.59-.054-.174.027-.402-.054-.563-.12.16-.429.214-.456.415a.224.224 0 0 0 .014.161zm-.213-2.293c.174.107.375.254.47.442.147.43.388.819.563 1.248.067.281.107.55.187.832.04.08.014.228.135.214l.013-.027c.027-.322.094-.63.094-.966-.107-.147-.242-.2-.376-.281v-.027c.027-.067.08-.134.161-.12.027-.041.12-.068.12-.135 0-.013 0-.027-.012-.054-.215-.228-.202-.603-.564-.67-.12-.054-.148-.175-.16-.296-.162-.147-.417-.187-.618-.187l.054.027h-.067zm-.282 1.126.228.43c.094-.014.16-.108.228-.175.013-.013.013-.027.013-.054.054-.16-.107-.268-.147-.415-.04-.108 0-.242-.067-.322-.054-.04-.121-.094-.188-.08v.039zm-.577 1.006c-.027.202.188.229.282.336.013.027.027.04.027.067-.014.04-.068.094-.068.148-.013.013-.013.026-.013.026.161.215.255.457.255.725.054-.215.134-.416.174-.644.014-.054.027-.107.027-.161-.013-.175-.282-.148-.268-.322.013-.027.013-.067.027-.094.04-.188-.04-.376-.094-.55-.014-.027-.054-.08-.094-.067-.067.147-.215.268-.242.443-.013.026-.013.053-.013.093zm-.014-1.931c-.026.174.094.322.228.416.04-.094.108-.188.121-.296.014-.013.014-.026.014-.053a.768.768 0 0 0-.309-.47c-.013.054-.027.094-.027.148v.013h-.013c-.014.08-.027.148-.014.242zm-1.046-1.302c.215.175.577.188.832.094l-.04-.013.04-.014a2.773 2.773 0 0 1-.47-.295l-.362.202.027.013zm-.08 4.347.066.134c.068.402.309.778.229 1.207-.014.027-.014.067-.027.094l-.014.027c.134.094.175.242.255.362h.014c.013-.027.013-.053.026-.08v-.014c.08-.348.014-.71-.04-1.06.04-.335-.295-.536-.496-.71l.027.067zm-.872-3.756c.295.174.657.349 1.046.295.054-.027.12-.027.134-.067l-.013-.014c.013 0 .013-.013.013-.026-.241-.08-.496-.322-.751-.376-.134-.215-.322.054-.496.04v.027h-.014c.014.054.067.094.08.12zm-.228-1.972c.067.094.08.214.147.295.107.067.282.053.416.04.134-.027.215.12.335.04l-.027-.013c.014-.014.027-.014.027-.027-.147-.094-.228-.255-.375-.376-.161-.134-.349-.026-.523.014l.026.027zm-.054-1.234c.16.174.322.47.617.389l-.014-.027.014-.014c-.014-.12-.08-.214-.134-.335-.067-.08-.094-.335-.255-.255-.108-.067-.134-.201-.215-.295v.027c-.04.16-.013.349-.013.51zm-.885-1.342.348-.12.014-.028.027-.174c.013-.013.013-.04.013-.054.067-.268-.12-.47-.215-.684l-.013.027zM10.4 14.863l.336-.2v-.028h.013v-.496c-.147.08-.214.228-.335.349v.027zm-.16 1.315.24.765v-.04l.014.013c0-.148.013-.282.054-.43v-.026l.027-.134v-.014l.013-.013v-.027c.04-.188.08-.376.054-.577l.174-.255h-.013l.026-.027-.389.121c-.08.148-.147.295-.174.456-.013.067-.027.134-.027.188zm7.807 4.011c.201.241.496.134.778.148v-.054l-.416-.362c-.12.04-.255.147-.349.228v.013zm-.228 1.516c.134.228.402.376.617.537.188.08.416.107.604.053l-.027-.013.04-.014a3.479 3.479 0 0 1-.496-.496c-.067-.08-.08-.188-.161-.268-.201.04-.416.04-.577.174l.013.014zm-.537 5.165c.134.12.282.308.483.281.268.135.161.47.309.658l.147-.134-.013-.014.027-.013v.013c.013-.013.013-.027.013-.053.04-.121-.027-.336-.094-.483-.094-.067-.215.013-.308-.054-.014-.134-.094-.201-.188-.295-.067-.054-.161.027-.242.013l-.12.054.013.013zm-.08-2.066.08.04c.174-.08.349-.174.537-.241.281-.08.496.241.737.04.094-.067.161.027.229.08.107.188.348.175.523.228l-.014-.04h.014c-.08-.241-.188-.563-.51-.603-.12-.054-.255-.054-.376-.121-.335-.362-.536.295-.899.134-.12.134-.281.268-.308.456-.013.014-.013.014-.013.027zm-.228 1.757h.053c.228-.147.55-.04.778-.188.121-.067.121.108.215.148.201.134.228.51.523.43.349.174.269.603.282.925l.322-.215v-.027c-.027-.16.067-.362-.04-.51-.08-.174-.295-.2-.403-.335.014-.027.027-.04.027-.067.04-.174-.174-.268-.241-.402v-.014l.456.067c.147.094.2.255.255.416.348.067.429.456.55.711.08-.174.107-.362.174-.523v-.013l.013-.014c0-.147-.187-.147-.281-.214a.77.77 0 0 0-.309-.55c-.389-.094-.738-.309-1.167-.309l-.349.107c-.201.054-.402-.013-.55.121-.228.027-.241.268-.295.416zm.053-5.97c.161.215.403.376.685.322l-.027-.026h.04c-.148-.135-.309-.282-.322-.483.04-.376-.376-.416-.577-.604l.014.04-.027-.013c.067.255.067.536.214.764zm-.349 5.219h.027c.255-.215.564-.282.859-.362.08.027.04.12.107.147.188-.067.403-.053.59-.12.228.013.403.013.59.107.148.201.417.174.604.308l-.013-.04h.013l-.026-.295c-.39-.456-1.007-.496-1.583-.483l-.014-.067c-.134 0-.282.04-.416.094-.174.013-.349.094-.523.148-.08.16-.147.362-.201.523zm0-3.448c.416.309.832.67 1.422.537.054-.027.121-.027.135-.08h-.014c.014-.014.014-.014.014-.027-.175-.108-.363-.202-.537-.296l-.201-.295h-.094a4.321 4.321 0 0 1-.725.134l.04.027zm-.268-.898c.148.2.483.134.671.067l-.013-.014.013-.013c-.08-.148-.376-.242-.416-.403a4.304 4.304 0 0 0-.188-.845c-.067.161-.147.349-.174.537a.81.81 0 0 0 .107.67zm-.523.295-.013-.054.027.013c-.121-.268-.175-.603-.215-.912-.12.148-.255.255-.376.403v.04c-.053.308.39.389.577.51zm-.443 2.602c.135.175.336.255.537.295-.027-.04.027 0 .027-.027v-.013s.013 0 .013-.013l-.255-.564c-.134.014-.268.04-.375.027v.027h-.014c.014.094.027.188.067.268zm-.268-1.999c0 .08.027.161.067.228.336.108.376.51.671.671.201.08.43-.027.604-.107l-.014-.014.027-.013c-.134-.148-.282-.255-.416-.403-.08-.04-.174-.094-.174-.214l-.765-.175.013.027zm-.831-.992.12.563c.175-.147.268-.335.322-.55.027-.134.04-.295.027-.443-.161.188-.268.309-.47.403l.014.027zm-.537 3.005.322.416c.174.053.375.04.523-.054v-.027h.013l-.12-.376c-.215.08-.483.054-.725.014l.027.04zm-.416-.524c.268-.08.523-.174.778-.308.148-.215.376-.416.416-.658.013-.026.013-.04.013-.067-.188.054-.362 0-.55.08-.107.202-.174.43-.389.578-.027.134-.188.241-.255.349h.014c-.014.013-.014.026-.027.026zm.39-2.146v-.04.013c.026-.214-.054-.47-.081-.684-.134-.08-.309-.067-.443-.16v.04-.014c0 .335.268.63.523.845zm-1.396-1.65c.067.322.2.63.402.912v-.027l.054-.63-.443-.282v.027zm.054 3.126c.228.04.47 0 .67-.067.296-.068.47-.403.564-.658l.013-.027h-.375l-.416.39c-.161.093-.309.214-.456.335h.026zm-1.033-2.737c.187.268.51.59.831.67v-.026c-.027-.349-.335-.604-.496-.899l-.013-.107c-.121-.12-.269-.201-.39-.268v.04h-.013c-.013.201.04.389.08.59zm-.094 2.696c.295.027.577.081.818-.08l.242-.765h-.014l.014-.026c-.08-.014-.148-.04-.228-.014-.148.335-.47.684-.819.859h.04c-.013.013-.026.026-.053.026zm-.135-.59.188-.201c.175-.188.336-.39.376-.63 0-.014 0-.041.013-.068-.134-.08-.322-.027-.456.027v.027c-.053.268-.12.55-.12.845zm-.778-1.395c.04.12.094.295.108.43.12-.256.362-.376.563-.59l-.013-.014.027-.027c-.121-.08-.269-.108-.403-.134v-.014c-.094.094-.241.188-.268.309v.013s0 .014-.014.027zm.014 3.112.054.08c.2-.013.402-.107.603-.107.148.08.322.08.47.148.12.161.241.335.402.443.349.053.537.43.657.697v-.04l.014.013V25.354c.04-.188-.014-.39-.08-.55-.081-.08-.202-.134-.296-.215-.013-.027-.013-.04-.013-.053.013-.014.013-.027.027-.054h-.014l.014-.027c-.134-.134-.322-.215-.483-.322-.228-.335-.658-.241-1.006-.335l-.35.429.014.013zm-.403.832c.014.054.04.107.08.148.189-.054.376-.188.591-.108.295.255.59.51.926.644l.134-.013c.067.027.16.027.201.107a.147.147 0 0 1 .013.067c-.013.067-.08.12-.107.188 0 .013-.013.013-.013.027.188.134.12.389.241.563l.295-.416v-.013l.014-.013c-.08-.175 0-.483-.282-.497a.288.288 0 0 1-.148-.255c-.187-.16-.415-.228-.59-.402-.147-.12-.241-.295-.429-.335a1.257 1.257 0 0 0-.43-.148c-.281-.04-.308.295-.496.43v.013zm-.255.98c.108.026.188-.055.282-.014.403.147.805.295 1.1.617l.349.885.174-.55h-.013l.013-.027-.12-.295c-.094-.214-.363-.188-.537-.201a.145.145 0 0 1-.04-.094c.013-.054.04-.094.053-.134.014-.027.014-.04.014-.054.067-.281-.282-.268-.43-.389.014-.188-.214-.12-.335-.134l-.04-.054c-.027-.04-.094-.04-.12-.013-.014-.013-.028-.013-.028-.04l-.093.027a.629.629 0 0 0-.215.362c0 .027-.014.067-.014.107zm1.248.442h-.013s-.014-.014-.014-.027zm-2.388 2.066c.027.04 0 .107.04.12l.014-.026v-.027c.08-.335.348-.55.496-.845.08-.107.08-.255.201-.336.161 0 .282.121.443.121.013.014.013.014.013.027-.013.013-.04.04-.04.067v.027c-.013.054-.013.094-.027.134v.027c-.027.094-.04.174-.067.268v.027c-.027.12-.04.242-.027.362h.027c.228-.228.376-.483.537-.764l.013-.014v-.013l.027-.242c.04-.281-.268-.47-.47-.59l.161-.201-.013-.014.027-.013-.255-.094a1.149 1.149 0 0 0-.778.39 2.73 2.73 0 0 0-.228.656c-.067.309-.08.631-.094.953zm-1.167-1.02v.027h-.013c-.08.39-.094.792.04 1.167.12-.08.242-.147.335-.255v-.026l.014-.014c-.014-.255-.04-.523 0-.778.027-.12.08-.241.147-.349.215.067.35.269.43.47a.709.709 0 0 0 .147-.322.89.89 0 0 0 0-.376c0-.188-.214-.147-.308-.214.013-.054.013-.108.026-.161.027-.094.054-.188.161-.242h-.04c.014-.013.027-.027.04-.027l-.51.04c-.12.188-.268.376-.335.59a2.695 2.695 0 0 0-.134.47zm-.925.014c-.027.335 0 .63.026.952.067.108.188.242.309.242v-.027l.027-.215c.04-.241-.054-.483-.014-.697a.497.497 0 0 1 .067-.148c.121.04.242.094.336.148l.013-.027c.054-.282-.027-.604-.295-.778l-.47.523zm6.734-7.955.255-.255c.026 0 .04.013.053.027l-.013.47c.12.12.268.16.43.16 0-.013 0-.013.013-.027v-.013c.026-.107.107-.188.16-.282.014-.027.014-.053.027-.094 0-.027 0-.053.014-.08 0-.04.027-.08.067-.108l.027.027c.027.134.027.295.094.416.013.067.026.161.026.215a.97.97 0 0 0 .497-.107v-.027h.013c0-.067 0-.134.014-.188v-.014c.013-.053.026-.107.04-.174v-.013l.013-.027c0-.014.014-.027.014-.04.013-.027 0-.054 0-.08 0-.014.013-.028.04-.028.067.134.174.269.228.403.228-.228.322-.523.389-.819v-.04h.013c0-.027 0-.053.014-.094-.08-.094-.188-.094-.268-.16-.725-.229-1.65-.269-2.348.08v.04c-.054.282.013.604.188.832zm-1.53-3.77c-.013 0-.013 0-.013-.013v.013zm12.96 3.662v.04h-.014c0 .04-.014.081-.014.108l-.013.013c-.013.054-.013.108.027.161.107-.107.268-.107.402-.16.376-.027.738.08 1.1.174l-.026-.04.026.013c-.094-.148-.147-.309-.241-.43-.201-.053-.496.081-.537-.2-.107-.108-.295-.027-.416-.027-.12.093-.228.187-.295.322v.013zm-7.392-3.917c-.08.108-.201.134-.309.148.175-.322.269-.778.121-1.14.094-.04.201-.054.282-.108l.228-.214c.308-.202.188-.604.308-.913-.16-.241-.201-.523-.43-.724l.014-.013c-.174-.215-.482-.188-.724-.296-.309-.107-.55.108-.778.255-.094.014-.04.134-.148.134-.053.161-.12.322-.174.497-.416-.054-.872-.014-1.207.228-.175-.134-.39-.161-.604-.215-.148-.027-.322.027-.43-.053-.16-.188-.2-.524-.469-.564-.094-.04-.12-.147-.12-.241-.188-.027-.35-.108-.524-.148-.268-.12-.483.067-.684.201-.094.04-.201.054-.282.108-.147.241-.295.483-.389.737.027.215.121.403.228.59.094.282.403.497.658.604a2.53 2.53 0 0 0 0 1.342v.013h-.014c-.04 0-.094.014-.12 0v-.013.013c.053.403.241.751.55 1.06.12.04.094.174.134.255.027.04.04.12.027.148a3.422 3.422 0 0 0-1.785.442c-.134.08-.08.255-.094.39.376-.242.778-.43 1.221-.51.188-.014.416-.054.59 0l.027.362c-.51.255-1.06.416-1.489.845 0 .134-.013.282.014.389l.389-.309c.375-.281.764-.523 1.194-.684.12.134.228.282.389.362.255-.16.536-.281.831-.362.161-.094.403 0 .51-.188l.067-.389c-.013-.013-.013-.026-.04-.026a.565.565 0 0 1-.308-.537.634.634 0 0 1-.229.054c-.067-.014-.134-.04-.16-.108 0-.08-.04-.201.04-.268.268-.175.63-.175.979-.161.255.04.63.027.724.335-.013.08-.013.188-.094.242-.093.053-.2 0-.281-.04-.067.2-.188.442-.416.51l.027.24c.026.108.04.296.214.256.403.094.752.308 1.1.536.121-.12.215-.255.309-.375.617.2 1.167.67 1.677 1.113l.027-.362a5.882 5.882 0 0 0-1.61-.98c.027-.12.053-.227.053-.348.671.04 1.315.241 1.865.577v-.309c-.59-.322-1.234-.523-1.932-.536-.026-.04-.026-.094-.026-.135.335-.053.576-.402.657-.71.174-.202.43-.416.376-.712 0-.026.013-.053.013-.067.027-.08.054-.16.027-.228zm-2.066-1.717c.241-.04.228.268.456.282.04.053.094.094.067.174-.12.054-.308.027-.456.067-.188-.107-.067-.443-.362-.416-.027-.027-.054-.08-.014-.094.094-.04.215-.026.309-.013zm-1.69.134c.174-.053.375-.174.563-.12a3.282 3.282 0 0 0-.349.496l-.59-.014c.067-.147.228-.281.376-.362zm-1.221.778c.389-.027.764.027 1.167-.013.094.054.201.134.241.228-.013.456-.147.899-.174 1.368a.643.643 0 0 0-.39.403c-.147.053-.294.147-.442.214-.067-.147-.053-.362.067-.483.161-.228.59-.174.55-.536.12-.188.014-.416.014-.604-.04-.134-.08.054-.148.054-.147.027-.282.027-.402-.04-.094-.094-.202-.161-.228-.296-.108-.053-.255-.147-.309-.268zm-.31-2.146.122.013c.335.161.858.255.898.725-.335.134-.657.308-.925.59-.201-.215-.617-.094-.684-.456.067-.349.187-.778.59-.872zm4.388.188.375-.121c.215.094.416.228.617.376.161.281.135.67.067.992-.12.134-.362 0-.456.201h-.027c-.134-.389-.536-.75-.898-.925.053-.215.12-.416.322-.523zm-.912 4.802h.51l-.068.269-.51-.215c-.013-.04.028-.054.068-.054zm-2.697-.08c.188.027.376-.054.537.04-.04.054-.12.08-.201.107l-.282.121c-.107-.013-.04-.188-.054-.268zm2.294-2.536c.107-.147.268-.16.416-.187l1.1.013c.054.04-.04.08-.04.134-.067.067-.161.08-.228.134-.148.014-.134.175-.228.255-.161.148-.39.08-.577.054a.502.502 0 0 1-.161-.175l-.054.04c.067.242.054.51.094.752l.268.174c0 .39.457.282.658.497-.04.134-.134.254-.242.375a1.307 1.307 0 0 0-.536-.322c-.014-.228-.269-.362-.403-.483-.04-.416-.053-.845-.12-1.247zm7.606 12.61c.094.121.121.282.255.39.134-.175.161-.43.094-.645l-.12-.134c.16-.04.321-.04.482-.08-.067.228-.2.43-.174.697 0 .376.067.765.107 1.167h-.47c-.174-.375-.348-.737-.335-1.167.054-.08.094-.16.161-.228zm-7.338-.268h.027l.403.362.067-.013c-.04.43-.054.858-.067 1.315h-.43c-.093-.43-.241-.872-.228-1.315.08-.12.121-.268.228-.349zm-1.314.51c.174-.107.442-.134.47-.39-.068-.04-.122-.106-.202-.12l-.174.04c.013-.094.067-.214.107-.322l.563-.187c-.08.254-.107.576-.134.872.054.429.108.898.336 1.26h-.604c-.067-.402-.483-.697-.362-1.153zm2.213-.107c.08-.108.12-.282.282-.309.107 0 .215.027.295.107.161.188.014.416-.04.604-.067.282-.161.59-.255.859h-.43z" fill="#fb5f01" style="stroke-width:1.4"/></svg>