<svg width="40" height="40" fill="none" xmlns="http://www.w3.org/2000/svg"><path fill-rule="evenodd" clip-rule="evenodd" d="M19.465 6s-.016.17-.056.268c-.037.09-.136.153-.13.214.007.061.072.132.17.183.099.051.138.09.238.116.092.022.21.09.244.013.033-.078-.018-.176-.075-.268-.097-.16-.146-.199-.291-.42-.03-.048-.056-.1-.1-.106zm-.732 17.375c.009-.027.242.118.361.19.253.15.368.24.592.409.15.113.298.233.44.357.218.188.336.348.395.31.084-.102-.14-.4-.338-.562-.193-.157-.392-.287-.546-.39-.198-.13-.215-.16-.512-.36-.318-.212-.592-.479-.592-.479l-.31-.244-.485-.41-.538-.497-.407-.452s-.317-.387-.367-.46a23.01 23.01 0 0 1-.323-.517 6.701 6.701 0 0 0-.343-.489c-.115-.14-.378-.083-.682-.263-.372-.219-.46-.418-.46-.418s-.015-.03-.029-.046c-.013-.016-.042-.035-.042-.035l-.193-.137-.111-.073s-.086-.07-.192-.116a5.155 5.155 0 0 1-.343-.184l-.425-.27-.221-.178a1.675 1.675 0 0 0-.16-.104s-.067-.034-.087-.034a9.359 9.359 0 0 1-.108-.01s-.081-.021-.165.077c-.083.097-.064.045.072.595.053.219.048.985.106 1.217.074.3.283.687.304.733.022.045.036.213.036.213s-.008.135.006.22c.065.395.643.136.77.678.127.535-.074 1.07-.074 1.07s-.126.265-.3.307c-.176.042-.448-.346-.645-.661-.194-.31-.353-.715-.404-.844-.051-.128-.078-.156-.136-.251-.087-.138-.158-.114-.255-.332-.097-.22-.011-.309-.055-.5-.025-.106-.048-.118-.081-.27-.033-.15-.076-.63-.076-.63l-.061-.449s-.022-.204-.05-.332c-.098-.447-.131-.88-.131-.88l-.018-.177-.008-.184s-.005-.089.016-.18c.022-.09.067-.166.067-.166s.09-.151.105-.188c.015-.037.2-.251.2-.251s.096-.079.254-.177c.157-.097.3-.09.3-.09s.041-.004.32.03c.281.036.857.189 1.001.227.144.038.315.098.427.16.32.174.417.1.162-.099-.171-.134-.22-.194-.358-.32-.116-.107-.208-.179-.295-.277a9.135 9.135 0 0 1-.335-.467l-.154-.229s-.084-.092-.097-.1a.81.81 0 0 1-.056-.04c-.018-.013-.102.006-.208-.015-.107-.02-.157.129-.157.129s-.23.43-.464.693c-.378.427-.65.718-.79.944-.196.316-.153.661-.254.82-.059.094-.09.108-.122.19-.099.247.258.383.177.658-.13.436-1.151.867-1.287.795-.14-.074-.025-.663.022-.855.049-.191.191-.472.204-.487a.39.39 0 0 0 .059-.137c.01-.057.014-.183.022-.255.006-.07.035-.183.035-.183s.005-.023.095-.22.422-.654.661-1.091c.156-.286.222-.459.378-.743.146-.263.393-.662.393-.662s.105-.204.154-.28c.05-.078.154-.226.252-.37.098-.145.123-.254.252-.373a.76.76 0 0 1 .318-.197c.208-.068.35-.03.56.028.222.06.372.16.516.28.09.077.174.161.25.253l.07.102.042.026.134.085.306.203.764.519c.039.026.168.132.195.142.026.007.22-.202.598-.464.438-.303.594-.28.737-.358.144-.08.204-.146.316-.258.17-.17.17-.26.364-.498.193-.238.376-.37.376-.37s.026-.027.372-.417c.346-.39.498-.686.498-.686l.19-.38s.276-.59.364-.823c.088-.234.088-.313.088-.313s.013-.06-.055-.18c-.068-.118-.138-.064-.269-.037-.252.053-.405-.012-.66-.056-.233-.04-.354-.108-.588-.148-.236-.04-.374-.078-.611-.055a.843.843 0 0 0-.144.03c-.133.045-.17.055-.27.111a.676.676 0 0 1-.319.076c-.088.001-.142.004-.223-.028a.37.37 0 0 1-.195-.149c-.002-.025-.01-.024.014-.064.023-.041.054-.048.054-.048l.109-.027.165-.044c.014-.003.16-.051.224-.071a.975.975 0 0 0 .136-.058s.04-.062.024-.099c-.018-.04-.105-.043-.105-.043s-.122.043-.136.046l-.207.066-.27.06a2.48 2.48 0 0 1-.29.041l-.05-.013s-.06-.04-.068-.078a1.748 1.748 0 0 1-.02-.105c-.025-.15-.055-.242-.02-.39a.691.691 0 0 1 .055-.154.833.833 0 0 1 .067-.121l.094-.153.177-.26a.64.64 0 0 1 .176-.135.706.706 0 0 1 .318-.097c.139-.014.157-.013.353-.057.197-.044.336-.122.336-.122s.47-.173.756-.314c.3-.146.431-.304.743-.426a2.47 2.47 0 0 1 .342-.109.064.064 0 0 0 .031-.041c.014-.05-.063-.073-.115-.068-.046.004-.153.054-.178 0-.02-.041.098-.065.098-.065s.055-.026.056-.057c.002-.046-.08-.016-.116-.02-.181-.02-.196-.053-.322-.085-.15-.037-.23-.082-.383-.088a1.222 1.222 0 0 0-.35.044c-.084.02-.087-.063-.054-.078.24-.112.244-.122.413-.129a.988.988 0 0 1 .235.023c.014.008.198-.002.246-.05.048-.046-.152-.044-.246-.081-.086-.035-.219-.044-.216-.102.004-.058.069-.026.114-.037.057-.014.091-.013.15-.021.105-.015.115-.023.271-.037.156-.014.38.05.38.05s.234.105.35.16c.114.054.254.081.254.081s.162.025.287-.054c.127-.079.056-.129.01-.2-.043-.068-.097-.163-.017-.346.072-.16.108-.346.13-.363.023-.02.124.122.187.182.23.213.534.32.819.769.022.036.13-.022.462.029.332.051.62.407.695.491.075.085.173.082.173.082l.16.021.58.01s.262-.047.414.01c.106.04.46.276.298.366-.113.063-.219-.075-.32-.082-.12-.008-.174.014-.28.041-.226.057-.708.203-.533.262l.037.01.088.014s.212.048.339.098c.194.077.284.162.465.267.1.059.146.118.256.15.103.03.168 0 .273.018.137.025.215.052.34.112.185.09.255.199.423.319.082.06.152.07.214.151.015.019.028.027.033.05.023.074-.122.03-.199.018-.084-.014-.121-.056-.199-.092-.115-.054-.17-.115-.298-.138-.092-.017-.146-.003-.24.001-.09.004-.14.019-.23.02a1.58 1.58 0 0 1-.398-.044c-.17-.035-.255-.103-.427-.138-.19-.04-.532-.204-.498-.04.016.08.198.146.198.146s.121.067.24.119c.12.05.183.128.183.128l.082.062s.084.115.193.244c.108.13.298.126.298.126s.115 0 .364.05c.247.052.501.204.501.204s.194.131.305.265c.112.131.048.199.034.213-.013.014-.01.007-.023.014-.014.006-.153-.166-.153-.166l-.098-.086s-.099-.067-.225-.109c-.125-.04-.166-.012-.166-.012s-.267.074-.498.067c-.231-.006-.353-.098-.353-.098l-.146-.098s-.22-.206-.227-.109c-.005.066.097.14.097.14s.071.072.118.116c.088.087.124.131.225.222.102.092.166.092.166.092s.055.013.075.016c.02.004.057.015.057.015s.035.012.194.077c.16.065.33.204.33.204s.016.014.04.017c.023.003.071.026.084.03.014.004.055.004.147.017.09.014.057.072.057.072l-.017.023-.075.05s-.098.028-.166.031c-.068.004-.163-.033-.163-.033l-.206-.078s-.207-.054-.251-.062a6.81 6.81 0 0 1-.26-.05 1.1 1.1 0 0 1-.15-.054c-.025-.014-.072-.024-.183-.078-.112-.055-.157-.12-.296-.163-.139-.045-.224-.054-.329.02-.179.124.272.144.498.256.33.163.518.284.597.46.08.177.16.242.16.242s.233.118.339.24c.056.067.066.122.122.19.129.149.376.142.427.27.046.118-.201.065-.33.053-.234-.023-.29-.236-.507-.323-.123-.048-.202-.05-.328-.091-.228-.076-.335-.174-.564-.246-.137-.042-.39-.225-.36-.084.008.034.027.06.038.08.01.021.068.095.068.095s.078.103.112.13c.034.027.182.139.393.254.21.115.393.336.393.336s.063.09.093.153c.03.07.01.091.056.19.049.097.072.116.133.176.154.15.315.12.513.2.052.02.056.03.114.091.058.062-.01.089-.01.089s-.218.055-.36.043c-.183-.015-.264-.07-.444-.159-.179-.088-.274-.247-.292-.258-.016-.01-.06-.058-.094-.082-.034-.023-.12-.042-.2-.064-.078-.021-.125-.025-.204-.047-.107-.03-.22-.078-.27-.095-.052-.017-.169-.038-.253.013-.17.1.263.169.399.312.068.074.096.125.162.2.05.06.07.1.132.147a.753.753 0 0 0 .12.064s.104.048.256.132c.154.085.333.323.333.323l.109.166.065.095.016.044.024.054s.078.102.136.135c.057.034.047.065.047.065s-.007.02-.047.044c-.041.024-.062.004-.12-.013-.058-.017-.094-.071-.145-.112-.05-.041-.107-.143-.2-.2-.082-.05-.19-.068-.231-.082-.04-.013-.142-.077-.183-.095a9.263 9.263 0 0 1-.146-.064s-.205-.116-.316-.146c-.113-.03-.042.038-.042.038s.102.157.199.22c.125.084.3.157.244.224-.038.044-.092.028-.15.021-.093-.01-.207-.123-.207-.123s-.047-.03-.257-.098c-.21-.069-.133.047-.085.108.047.061.112.095.112.095l.142.064.065.021s.057.01.248.054c.189.044.295.135.295.135s.101.096.243.201a.788.788 0 0 0 .363.143c.078.01.075.064.075.064s.01.05.007.068a.04.04 0 0 1-.037.03c-.018 0-.024.007-.045.017-.02.01-.101.024-.101.024s-.214-.007-.38-.047c-.166-.041-.311-.156-.326-.164-.013-.006-.17-.091-.274-.125a.73.73 0 0 0-.288-.014c-.017.007-.075.017-.174.045-.098.027.025.064.025.064l.07.007.17.013s.173.02.322.076c.149.053.245.162.343.26.062.062.132.117.207.163l.077.05.042.031.01.027s-.003.015-.01.03c-.007.019-.03.032-.03.032s-.039-.007-.056-.007-.127-.059-.21-.095c-.086-.039-.13-.073-.22-.095a.69.69 0 0 0-.206-.02c-.024.006-.197.03-.33.04a1.87 1.87 0 0 1-.405-.007c-.225-.027-.521-.203-.559-.153-.078.101.16.132.274.197.157.09.43.174.43.174s.197.044.314.098c.255.118.332.293.537.478a.59.59 0 0 0 .356.17c.13.018.128.003.335-.037.207-.041.334-.238.393-.167.013.015.008.027.004.048a.356.356 0 0 1-.02.058s-.024.034-.061.07c-.037.038-.18.116-.254.147-.075.03-.259.08-.489.074-.23-.007-.553-.183-.553-.183l-.233-.098s-.109-.051-.18-.078c-.194-.072-.316-.066-.516-.12-.125-.032-.204-.067-.316-.09-.112-.023-.05.02-.037.037.054.07.122.094.21.136.118.056.2.045.323.094.134.056.25.134.325.18.075.048.13.1.2.177l.248.21s.058.047.064.067c.007.021.035.072.02.154-.013.081-.08.024-.08.024l-.065-.04-.064-.062-.105-.086s-.089-.08-.24-.159c-.154-.078-.337-.098-.337-.098s-.163-.024-.157.027c.008.051.045.055.173.088a.684.684 0 0 1 .214.098s.133.1.227.207c.096.11.122.214.122.214s.048.088.17.207c.122.119.187.078.18.135-.007.058-.062.068-.062.068l-.043-.003c-.013 0-.045-.017-.079-.03-.033-.014-.162-.102-.162-.102s-.2-.163-.225-.18l-.213-.16s-.111-.07-.193-.112a2.11 2.11 0 0 0-.25-.101c-.062-.02-.173-.027-.173-.027s-.137-.02-.217-.051c-.13-.05-.282-.188-.298-.194a.77.77 0 0 0-.162-.044c-.023.003-.078.23-.09.361-.056.551.09.916.317 1.42.33.735 1.243 1.646 1.243 1.646s.229.132.327.208c.273.214.726.517 1.126.917.343.343.8.953.8.953s.263.368.384.627c.15.32.27.805.27.805s.011.085.02.102c.01.018.032.039.05.04l.159.006c.017 0 .198-.015.317-.044.12-.03.403-.16.59-.258.186-.098.41-.288.41-.288s.043-.035.262-.279c.219-.243.36-.608.413-.745.051-.138.094-.4.127-.851a5.3 5.3 0 0 0-.028-.928s-.082-.664-.132-.89a8.074 8.074 0 0 0-.17-.594s-.084-.329-.11-.536c-.027-.207-.032-.544-.032-.544s0-.207.069-.588c.067-.38.301-.764.301-.764s.065-.128.318-.43c.256-.306.338-.356.592-.539.2-.145.462-.377.547-.323.094.06-.093.178-.154.239-.158.156-.455.434-.695.851-.208.362-.286.6-.339.836-.052.237-.03.494-.023.583.007.088.056.056.056.056s.508-.407.785-.718c.3-.334.565-.93.67-.935.07-.004.103.156.087.228-.067.31-.088.35-.188.553-.117.237-.222.342-.381.558-.17.228-.25.315-.386.616-.195.434-.081.768-.081.768s.023.204.115.201c.153-.005.49-.43.709-.776.161-.256.22-.55.327-.703.095-.137.18.222.14.435-.047.25-.172.477-.446.832-.268.349-.258.68-.258.68s-.03.151-.05.48c-.022.329.072.827.072.827s.085.416.1.733c.016.316.006 1.039-.29 1.599a4.127 4.127 0 0 1-.372.537s-.193.2-.354.316c-.16.117-.542.297-.542.297s-.265.093-.303.1a.133.133 0 0 0-.063.043l.036.072.084.204s.08.26.11.466c.03.204-.005.25-.035.409-.029.15-.095.08-.112.376-.015.261.105.392.083.684-.01.128-.155-.16-.224-.283-.15-.27-.114-.678-.117-.78a1.37 1.37 0 0 0-.05-.345 1.166 1.166 0 0 0-.192-.397c-.078-.1-.16-.158-.19-.149-.026.01-.028.064-.03.091a.544.544 0 0 0 .068.145l.111.2s.043.138.062.407c.016.269-.066.598-.066.598s-.107.374-.22.593c-.127.243-.405.573-.405.573s-.2.183-.348.483c-.15.3-.022.432-.077.47-.057.039-.175-.173-.207-.317-.03-.132-.014-.195.039-.345a2.78 2.78 0 0 1 .172-.35l.18-.306s.215-.414.283-.713c.068-.3-.01-.631-.01-.631s-.01-.11-.083-.105c-.075.004-.13.071-.16.15-.062.164.026.135-.068.409-.075.215-.094.187-.133.314-.046.154-.072.31-.069.407.003.095-.05.055-.05.055s-.09-.17-.09-.382c0-.116.005-.18.019-.295.02-.184.095-.467.095-.467s.081-.278.064-.534c-.018-.254-.108-.302-.108-.302s-.023-.035-.122-.029c-.098.007-.094.184-.094.184s-.03.252-.07.408c-.108.434-.252.662-.51 1.027-.232.33-.548.62-.705.756-.157.138-.642.49-.642.49l-.566.378s-.225.22-.33.48a1.05 1.05 0 0 0-.037.705c.06.24.147.352.192.417.045.066.133.184.161.321.018.086.005.138.01.225.005.075.015.118.013.193-.003.12.02.206-.048.304-.051.076-.188.14-.188.14s-.153.068-.245.124c-.965.583-1.308.96-1.851 1.61-.174.206-.046.193-.232.439-.11.146-.369.146-.463.322-.129.238.295.474-.195.684-.629.272-1.713.078-1.734-.007-.06-.235.212-.502.307-.608.441-.482.836-.494.98-.893.03-.085.019-.159.369-.418.247-.183 1.232-.924 1.662-1.42.147-.168.275-.281.339-.465s-.064-.3-.064-.3l-.177-.289-.339-.605s-.141-.321-.22-.507c-.078-.185-.227-.687-.227-.687s-.11-.447-.127-.74c-.033-.527.04-.833.177-1.342.18-.664.587-.94.75-1.596.046-.19.056-.517-.04-.501-.092.016-.1.275-.169.447-.262.65-.608.936-.797 1.61-.128.456-.18.727-.178 1.2 0 .27-.01.221.06.691.026.174.07.266.12.434.037.12.133.343.133.343s.137.299.183.508c.015.07.032.111.028.183-.008.125.012.152-.048.264-.074.139-.028.222-.267.273-.21.045-.644-.094-.644-.094s-1.779-.54-2.914-.385c-.225.03-.346.112-.573.108-.205-.003-.31-.164-.516-.102-.042.012-.055.042-.092.066-.302.21-.072.56-.864.378-.487-.112-1.076-.409-.974-.597.137-.248.32-.289.705-.446.41-.168 1.028-.121 1.149-.13.149-.01.363-.114.628-.12.458-.007.54.047.54.047l.78.069 1.49.02s.267-.022.375-.042c.106-.02.19-.23.249-.33.057-.1-.002-.248-.002-.248l-.045-.07-.142-.229-.262-.442-.291-.579s-.19-.405-.292-.67c-.1-.264-.16-.412-.227-.686a3.594 3.594 0 0 1-.12-.735c-.012-.324-.033-.578.058-.843z" fill="#fff" style="stroke-width:1.4"/></svg>