<svg width="40" height="40" fill="none" xmlns="http://www.w3.org/2000/svg"><mask id="a" mask-type="alpha" maskUnits="userSpaceOnUse" x="10" y="17" width="20" height="6"><path fill="#fff" d="M10 17.183h20v5.634H10z"/></mask><g mask="url(#a)" transform="matrix(1.4 0 0 1.4 -8 -8)" fill-rule="evenodd" clip-rule="evenodd" fill="#fff"><path d="m23.381 22.688.692-3.354.264 3.354h1.493l-.692-5.323H23.54l-.746 3.194-.745-3.194h-1.597l-.692 5.323h1.49l.267-3.354.692 3.354zM28.012 17.365h-1.437v5.323h3.407V21.57h-1.97zM13.426 17.365h-1.81l-1.597 5.323h1.597l.213-.958h1.384l.213.958h1.597l-1.597-5.323zm-.905 1.171.48 2.183h-.959zM18.856 18.855c-1.323-1.156-3.387-.686-3.407.373-.3-1.965 2.077-2.375 3.407-1.757.024.316.048.656 0 1.384z"/><path d="M17.759 19.482c-.334-.13-.818-.248-.819-.627 0-.155.063-.323.372-.425-1.064.106-1.42 1.401-.242 2.045.205.112.562.231.562.616 0 .45-.495.613-.82.606-.54-.011-.974-.2-1.47-.553v1.278c.587.252 1.541.543 2.498.249.774-.238 1.442-.887 1.442-1.58 0-1.127-.978-1.396-1.523-1.609z"/></g></svg>