<svg width="40" height="40" fill="none" xmlns="http://www.w3.org/2000/svg"><g clip-path="url(#a)" transform="matrix(1.4 0 0 1.4 -8 -8)"><mask id="b" mask-type="alpha" maskUnits="userSpaceOnUse" x="10" y="10" width="20" height="20"><path fill-rule="evenodd" clip-rule="evenodd" d="M12.812 22.524C15.57 27.311 20 29.931 20 29.931s-.041-4.513-2.318-9.026c-2.84.48-4.87 1.619-4.87 1.619zM20 29.931s4.43-2.62 7.188-7.393c-.027-.014-2.058-1.152-4.87-1.619C20.041 25.42 20 29.931 20 29.931Zm3.347-10.809c1.81 2.209 3.813 3.388 3.84 3.416C29.946 17.75 30 12.606 30 12.606s-3.882 2.291-6.653 6.516zM10 12.606c0 .083.069 5.185 2.812 9.932 0 0 2.017-1.194 3.84-3.402-2.77-4.239-6.652-6.53-6.652-6.53s3.937 2.223 8.971 2.51C19.973 12.415 20 10.07 20 10.07c-5.528 0-10 2.537-10 2.537zm11.029 2.497c5.034-.288 8.971-2.51 8.971-2.51s-4.472-2.524-10-2.524c0 0 .027 2.345 1.029 5.034z" fill="#fff"/></mask><g mask="url(#b)"><path fill-rule="evenodd" clip-rule="evenodd" d="m38.313 14.568-12.84 23.745-23.786-12.88L14.527 1.7Z" fill="url(#c)" style="fill:url(#c)"/></g></g><defs><linearGradient id="c" x1="14.822" y1="5.534" x2="3.935" y2="25.662" gradientUnits="userSpaceOnUse"><stop stop-color="#00A6E9"/><stop offset=".232" stop-color="#00A3E6"/><stop offset=".433" stop-color="#0099DB"/><stop offset=".622" stop-color="#008AC9"/><stop offset=".805" stop-color="#0073B0"/><stop offset=".98" stop-color="#005790"/><stop offset="1" stop-color="#00538C"/></linearGradient><clipPath id="a"><path fill="#fff" d="M0 0h40v40H0z"/></clipPath></defs></svg>