<svg width="40" height="40" fill="none" xmlns="http://www.w3.org/2000/svg"><g clip-path="url(#a)" transform="matrix(1.4 0 0 1.4 -8 -7.991)"><g clip-path="url(#b)"><path d="M21.63 29.95c-2.477 0-4.952.01-7.429-.003-2.107-.01-3.653-1.201-4.106-3.139a2.355 2.355 0 0 1-.073-.511c-.005-1.73-.054-3.464.012-5.192.071-1.845 1.639-3.43 3.479-3.586 1.525-.129 3.058-.023 4.587-.055.355-.008.263.233.264.417.004 1.873.002 3.746.003 5.618 0 1.05.373 1.426 1.416 1.429.536.002 1.072-.01 1.609.005.242.006.327-.069.326-.32-.008-2.817.003-5.634-.013-8.452-.005-.757-.467-1.132-1.32-1.133-3.154-.002-6.308-.013-9.462.01-.496.005-.624-.125-.611-.614.036-1.336.024-2.674.004-4.012-.005-.34.105-.413.426-.412 5.015.01 10.03-.004 15.045.011 2.525.008 4.2 1.707 4.203 4.223.005 5.083-.002 10.167.01 15.25 0 .37-.092.476-.469.473-2.634-.015-5.267-.007-7.902-.007z" fill="#00ae4d"/></g></g><defs><clipPath id="a"><path fill="#fff" d="M0 0h40v40H0z"/></clipPath><clipPath id="b"><path fill="#fff" transform="translate(10 10)" d="M0 0h20v19.958H0z"/></clipPath></defs></svg>