<svg width="40" height="40" fill="none" xmlns="http://www.w3.org/2000/svg"><path fill-rule="evenodd" clip-rule="evenodd" d="M12.491 21.247c.274 0 .412-.087.412-.263v-1.802h.462v1.802c0 .416-.29.624-.868.624h-1.199c-.578 0-.868-.208-.868-.63v-1.796h.462v1.796c0 .178.137.27.412.27z" fill="#ec6c1f" style="stroke-width:1.4"/><path fill-rule="evenodd" clip-rule="evenodd" d="M30.107 21.247v.361h-1.823c-.578 0-.866-.183-.866-.554v-1.315c0-.375.288-.557.866-.557h1.823v.36h-1.823c-.273 0-.404.066-.404.203v1.305c0 .131.137.203.404.203h1.823z" fill="#009ab4" style="stroke-width:1.4"/><mask id="a" mask-type="alpha" maskUnits="userSpaceOnUse" x="17" y="17" width="13" height="7"><path fill-rule="evenodd" clip-rule="evenodd" d="M17.903 18H30v5.079H17.903v-5.08Z" fill="#fff"/></mask><g mask="url(#a)" transform="matrix(1.4 0 0 1.4 -8 -8.216)"><path fill-rule="evenodd" clip-rule="evenodd" d="M23.544 18.015 23.356 18l-1.697 2.694-.721-1.12h-.591l1.315 1.924 2.107-3.222c3.535.326 5.713 1.21 5.713 2.178 0 1.302-4.282 2.436-9.802 2.436-.653 0-1.008-.014-1.628-.043h-.03l-.12.182c.683.028 1.379.05 2.1.05 5.52 0 9.998-1.174 9.998-2.625-.003-1.127-2.68-2.087-6.456-2.44z" fill="#009ab4"/></g><mask id="b" mask-type="alpha" maskUnits="userSpaceOnUse" x="10" y="18" width="4" height="5"><path fill-rule="evenodd" clip-rule="evenodd" d="M10 18.355h3.672v4.06H10v-4.06Z" fill="#fff"/></mask><g mask="url(#b)" transform="matrix(1.4 0 0 1.4 -8 -8.216)"><path fill-rule="evenodd" clip-rule="evenodd" d="M13.672 22.416c-2.24-.482-3.672-1.211-3.672-2.03 0-.82 1.432-1.552 3.672-2.03v.47c-1.863.406-2.958.928-2.958 1.56 0 .63 1.095 1.153 2.958 1.559z" fill="#ec6c1f"/></g><path fill-rule="evenodd" clip-rule="evenodd" d="M18.013 21.05v-.528h1.954v-.366h-1.954v-.411c0-.132.133-.198.406-.198h1.868l-.238-.36h-1.624c-.579 0-.863.183-.863.552v1.315c0 .376.289.558.867.558h1.888v-.36H18.43c-.279 0-.416-.07-.416-.202z" fill="#ec6c1f" style="stroke-width:1.4"/><path fill-rule="evenodd" clip-rule="evenodd" d="m24.581 20.664.679-1.04.67 1.04zm1.957.944h.499l-1.777-2.69-1.79 2.69h.492l.395-.61h1.792z" fill="#009ab4" style="stroke-width:1.4"/><path fill-rule="evenodd" clip-rule="evenodd" d="M15.887 20.339c.35 0 .496-.091.496-.34v-.111c0-.26-.111-.346-.579-.346h-1.206v.797zm-1.736-1.157h1.882c.676 0 .782.223.782.66v.157c0 .33-.187.513-.427.533v.006c.326.056.402.222.402.436v.635h-.442v-.493c0-.366-.182-.412-.467-.412h-1.28v.905h-.444v-2.427z" fill="#ec6c1f" style="stroke-width:1.4"/></svg>