<svg width="40" height="40" fill="none" xmlns="http://www.w3.org/2000/svg"><path fill-rule="evenodd" clip-rule="evenodd" d="M20.237 14.679c0 1.208.034 2.417-.01 3.624-.043 1.229.483 2.05 1.555 2.625 2.011 1.078 3.996 2.204 5.992 3.31.338.188.674.378 1.014.561.08.043.175.13.26.036.082-.089-.004-.178-.047-.26-.04-.075-.084-.147-.128-.219-1.182-1.978-2.37-3.952-3.542-5.937-.157-.266-.263-.313-.54-.144-.782.48-1.581.931-2.384 1.376-.431.24-.956.116-1.16-.237-.206-.36-.043-.845.378-1.12.06-.04.124-.075.187-.112.753-.433 1.503-.874 2.263-1.296.193-.107.222-.187.105-.381-1.21-2.004-2.41-4.014-3.614-6.02-.058-.098-.095-.266-.244-.22-.147.045-.082.208-.082.318-.005 1.366-.003 2.73-.003 4.096zm-.502-.087v-3.154c0-.326.001-.653-.002-.979 0-.082.006-.178-.105-.201-.089-.018-.127.055-.169.112-.035.049-.062.103-.093.155-1.184 1.978-2.362 3.96-3.558 5.93-.147.242-.105.325.124.452.812.452 1.618.917 2.415 1.397.43.26.571.767.352 1.123-.207.336-.711.437-1.138.228-.054-.027-.105-.06-.158-.09-.753-.435-1.51-.862-2.255-1.31-.23-.139-.34-.13-.487.118-1.203 2.036-2.423 4.063-3.638 6.093-.037.062-.076.123-.11.187-.034.066-.06.139.004.199.054.05.114.015.168-.01.066-.03.13-.063.193-.098 2.324-1.288 4.64-2.592 6.975-3.859 1.024-.555 1.507-1.367 1.487-2.523-.022-1.256-.005-2.513-.005-3.77zm4.991 10.953h3.704c.11 0 .252.015.293-.092.05-.13-.098-.175-.187-.225-2.47-1.37-4.94-2.742-7.416-4.103-.74-.406-1.503-.43-2.252-.017-2.462 1.36-4.922 2.726-7.38 4.092-.098.054-.274.083-.24.23.038.166.216.113.34.113 2.432.003 4.865-.002 7.298.008.252.001.299-.085.296-.31-.012-.858-.003-1.716-.006-2.574-.001-.183.01-.365.085-.532.139-.306.36-.525.717-.523.34.001.554.21.696.5.081.166.09.347.09.53-.004.87.006 1.74-.01 2.61-.004.24.07.3.305.299 1.222-.012 2.445-.006 3.667-.006zm.103.499c-1.247 0-2.494.01-3.741-.008-.28-.004-.336.077-.334.342.012 1.764.006 3.528.006 5.292 0 .733-.292 1.177-.781 1.185-.497.009-.802-.449-.802-1.205 0-1.752-.007-3.504.007-5.256.002-.285-.072-.359-.358-.357-2.397.012-4.794.007-7.191.007-.493 0-.99-.006-1.271-.51-.275-.49-.025-.902.222-1.314 1.212-2.017 2.413-4.04 3.638-6.05.176-.288.114-.382-.15-.53-1.535-.87-3.059-1.757-4.586-2.64-.555-.32-.769-.8-.542-1.208.227-.407.767-.474 1.317-.158 1.55.89 3.102 1.775 4.642 2.683.267.157.358.109.505-.14 1.148-1.944 2.312-3.877 3.471-5.813l.132-.217c.554-.904 1.38-.911 1.927-.011.408.67.806 1.345 1.21 2.018.812 1.356 1.63 2.71 2.432 4.072.128.217.217.246.437.117 1.532-.897 3.073-1.78 4.61-2.666.105-.06.21-.12.321-.166.41-.17.871-.041 1.059.289.178.313.064.77-.268 1.035-.102.082-.222.145-.336.212-1.527.881-3.052 1.767-4.586 2.637-.222.126-.24.215-.11.428 1.236 2.045 2.46 4.096 3.687 6.146.087.145.174.292.234.448.24.622-.08 1.185-.736 1.298-.178.03-.36.037-.542.038-1.174.003-2.349.002-3.523.002z" fill="#e21416" style="stroke-width:1.4"/><mask id="a" mask-type="alpha" maskUnits="userSpaceOnUse" x="12" y="10" width="8" height="5"><path fill-rule="evenodd" clip-rule="evenodd" d="M12.07 10.115h7.428v4.72H12.07v-4.72Z" fill="#fff"/></mask><g mask="url(#a)" transform="matrix(1.4 0 0 1.4 -7.99 -8.004)"><path fill-rule="evenodd" clip-rule="evenodd" d="M12.07 14.309c.014-.262.167-.441.4-.575 1.958-1.127 3.914-2.257 5.872-3.385.142-.08.274-.18.439-.216.271-.06.542.036.657.242.111.2.067.472-.12.666a1.13 1.13 0 0 1-.248.185c-2 1.156-4.003 2.31-6.005 3.465-.201.116-.407.19-.64.113-.23-.076-.357-.23-.356-.495z" fill="#e21416"/></g><path fill-rule="evenodd" clip-rule="evenodd" d="M30.208 12.75c-.148.007-.336-.068-.517-.172-2.835-1.632-5.672-3.261-8.507-4.895-.5-.287-.688-.79-.46-1.177.224-.38.753-.457 1.257-.173.663.373 1.32.754 1.98 1.133l6.408 3.677c.21.121.417.244.545.464.327.56.005 1.136-.706 1.143zM32.97 20.412v4.674c0 .097.004.193-.002.29-.03.459-.352.827-.74.85-.399.023-.747-.294-.825-.76-.018-.106-.016-.216-.016-.324v-9.529c0-.109-.001-.219.016-.325.076-.464.426-.784.824-.76.39.023.722.389.739.848.015.459.004.918.005 1.377v3.66zM8.558 20.413v4.708c0 .121.006.243-.011.362-.06.417-.397.742-.765.746-.36.003-.684-.283-.768-.693a1.995 1.995 0 0 1-.033-.395 8642.9 8642.9 0 0 1-.006-9.527c0-.132.007-.267.034-.395.088-.415.408-.698.767-.693.368.005.704.325.768.744.017.118.01.24.01.361v4.782z" fill="#e21416" style="stroke-width:1.4"/><mask id="b" mask-type="alpha" maskUnits="userSpaceOnUse" x="20" y="25" width="9" height="5"><path fill-rule="evenodd" clip-rule="evenodd" d="M20.788 25.277h7.268v4.628h-7.268v-4.628Z" fill="#fff"/></mask><g mask="url(#b)" transform="matrix(1.4 0 0 1.4 -7.99 -8.004)"><path fill-rule="evenodd" clip-rule="evenodd" d="M21.34 29.905c-.457-.002-.693-.417-.463-.814.082-.14.208-.225.345-.303 1.935-1.115 3.87-2.232 5.805-3.346.104-.06.215-.117.33-.144.237-.058.451.003.601.2.158.208.106.424-.017.629-.079.13-.205.206-.334.28l-5.829 3.357c-.136.078-.276.142-.438.14z" fill="#e21416"/></g><path fill-rule="evenodd" clip-rule="evenodd" d="M18.154 33.86a1.23 1.23 0 0 1-.667-.177c-2.75-1.586-5.502-3.17-8.252-4.757a1.405 1.405 0 0 1-.341-.263c-.242-.267-.284-.679-.117-.94.172-.27.543-.4.9-.297.137.04.27.102.395.173 2.722 1.564 5.441 3.13 8.162 4.695.191.11.37.231.483.426.324.558-.003 1.134-.563 1.14z" fill="#e21416" style="stroke-width:1.4"/></svg>