<svg width="40" height="40" fill="none" xmlns="http://www.w3.org/2000/svg"><g clip-path="url(#a)" transform="matrix(1.4 0 0 1.4 -8 -8)"><path fill-rule="evenodd" clip-rule="evenodd" d="m15.087 21.137.008-.043h.362V23.3H10v-.374h.927v-5.883H10v-.375h5.274v1.95h-.345l-.008-.128c-.123-.884-.374-1.246-.931-1.371a3.538 3.538 0 0 0-.793-.076h-.984v2.674c.96 0 1.391-.189 1.391-1.142l.002-.05h.358v2.83h-.356l-.004-.047c0-1.017-.357-1.244-1.391-1.244v2.862h1.266c1.506 0 1.472-.696 1.608-1.788zm3.939-.54 1.625 2.361h.624v.375h-2.37v-.375h.59l-1.037-1.537-1.082 1.537h.612v.375h-1.882v-.375h.76l1.356-1.88-1.443-2.137h-.673v-.374h2.395v.374h-.614l.903 1.326.946-1.326H19.1v-.374h1.858v.374h-.723Zm10.232-2.188c.458 0 .742.272.742.71 0 .317-.3.488-.583.488-.24 0-.493-.268-.493-.523 0-.062.017-.125.03-.176a.43.43 0 0 0 .015-.07c0-.011 0-.019-.043-.02-.042.019-.38.18-.608.666-.177.38-.278.835-.278 1.249v2.185h.872v.374h-2.628v-.374h.77v-4.017h-.77v-.375h.402c.392 0 .844-.009 1.256-.116l.064-.016v.98c.231-.478.667-.965 1.252-.965zm-5.622.076c1.19 0 2.122 1.062 2.122 2.418 0 1.362-.932 2.43-2.122 2.43s-2.12-1.067-2.12-2.43c0-1.356.93-2.418 2.12-2.418zm0 4.521c1.048 0 1.048-1.166 1.048-2.103 0-.932 0-2.092-1.048-2.092-1.047 0-1.047 1.16-1.047 2.092 0 .937 0 2.103 1.047 2.103z" fill="#fff"/></g><defs><clipPath id="a"><path fill="#fff" d="M0 0h40v40H0z"/></clipPath></defs></svg>