<svg width="40" height="40" fill="none" xmlns="http://www.w3.org/2000/svg"><mask id="a" mask-type="alpha" maskUnits="userSpaceOnUse" x="10" y="13" width="20" height="14"><path fill="#fff" d="M10 13.403h20v13.194H10z"/></mask><g mask="url(#a)" transform="matrix(1.4 0 0 1.4 -8 -8)" fill-rule="evenodd" clip-rule="evenodd" fill="#cc071e"><path d="M24.054 13.804c.726-.358 1.09-.31 1.095.049.01.47-.06 1.094-.109 1.55-.27 2.454-.72 4.464-.753 6.984 1.187-3.072 2.178-5.207 3.462-7.835.407-.84.667-.683 1.003-.83 1.3-.58 1.35-.222 1.176.483-.629 2.628-2.244 10.891-2.493 12.165-.07.368-.471.21-.574.07-.466-.645-.986-.65-.927-1.078.287-2.124 1.333-7.445 1.61-8.703-1.393 2.85-2.834 6.416-3.577 8.432-.157.433-.439.4-.617.086-.25-.438-.737-.666-.819-1.186-.254-1.658.293-4.817.369-6.811-.759 2.183-2.027 6.415-2.585 8.333-.233.791-.997.661-.79-.113.844-3.208 2.665-8.892 3.456-10.935.184-.477.672-.46 1.073-.661zM19.443 13.408c-.25-.06-.959.325-1.398.401-.14.027-.27.174-.32.277a123.702 123.702 0 0 0-1.869 4.54c-.699.12-1.512.277-2.422.483a386.895 386.895 0 0 1 1.956-4.91c.314-.785-.52-.856-.84-.065a246.975 246.975 0 0 0-2.075 5.202c-.64.152-1.322.336-2.027.537-.515.151-.536.287-.314.596.12.173.374.157.493.276.298.32.482.699 1.019.759-.477 1.278-.96 2.6-1.393 3.874-.27.802.504.964.802.12.482-1.366.986-2.743 1.512-4.119.433-.103 1.485-.33 2.454-.542-.769 2.113-1.278 3.717-1.468 4.497-.038.147.022.233.054.293.26.38.51.396.84.862.092.13.396.195.499-.12a150.807 150.807 0 0 1 2.135-5.987c.281-.065.796-.184 1.105-.656.558-.829.72-.66.85-.91.169-.32.06-.618-.536-.542 0 0-.222.016-.64.065.662-1.696 1.236-3.137 1.653-4.232.141-.374.158-.645-.07-.699z"/><path d="M18.468 24.408c.151.39.634.27.45-.195-.028-.081-.071-.19-.114-.314l.005-.011c.092-.12.173-.239.25-.347.351-.526.01-.83-.348-.52a3.673 3.673 0 0 0-.151.146c-.065-.19-.125-.374-.18-.553a6.92 6.92 0 0 0 .467-.623c.574-.894-.558-1.409-1.046-.829-.26.31-.195.613-.124.873.021.08.06.2.097.336l.005-.006c-.14.146-.308.325-.53.585-.553.64-.407 1.474.189 1.658.358.114.699-.048.986-.308.017.037.033.075.044.108zm-.315-.867a1.56 1.56 0 0 1-.2.146c-.217.136-.39-.005-.098-.406.049-.07.098-.136.147-.2v.005c.048.152.103.303.151.455zm.033-1.582c-.016-.044-.027-.087-.038-.12-.163-.623.553-.455.19-.048-.055.065-.103.119-.152.168z"/></g></svg>