<svg width="39" height="40" fill="none" xmlns="http://www.w3.org/2000/svg"><g clip-path="url(#a)" transform="matrix(1.4 0 0 1.4 -8 -8.101)"><g clip-path="url(#b)" fill="#fff"><path d="M16.398 12.009c.369.023.638.199.822.518 1.708 2.963 3.418 5.926 5.127 8.888.627 1.087 1.253 2.174 1.881 3.26.2.346.204.688.006 1.034l-1.31 2.287a.944.944 0 0 1-.794.5c-.043.017-.089.008-.133.008h-2.622c-.41.023-.693-.177-.89-.52-.376-.648-.749-1.298-1.124-1.947-.566-.979-1.13-1.958-1.694-2.938-.642-1.115-1.286-2.228-1.928-3.342-.506-.881-1.014-1.76-1.522-2.64-.691-1.2-1.381-2.4-2.075-3.597A1.076 1.076 0 0 1 10 13.07v-.221c.028-.345.203-.592.5-.759.15-.083.31-.093.475-.09h5.29c.044 0 .09-.006.133.008zM24.483 12.009c1.012 0 2.025.003 3.037-.002.426-.002.733.174.944.544.46.806.925 1.608 1.388 2.412.2.346.196.691-.005 1.035-.407.695-.814 1.39-1.217 2.086a.974.974 0 0 1-.899.517c-.873.002-1.746.003-2.62 0-.385-.002-.685-.164-.882-.503L21 12.516c-.148-.256.005-.507.311-.507h3.173z"/></g></g><defs><clipPath id="a"><path fill="#fff" d="M0 0h39v40H0z"/></clipPath><clipPath id="b"><path fill="#fff" transform="translate(10 12)" d="M0 0h20v16.506H0z"/></clipPath></defs></svg>