<svg width="40" height="40" fill="none" xmlns="http://www.w3.org/2000/svg"><g clip-path="url(#a)" transform="matrix(1.4 0 0 1.4 -8 -8)" fill-rule="evenodd" clip-rule="evenodd" fill="#fff"><path d="M15.18 17.93a2.01 2.01 0 1 1-1.383-3.775l11.018-4.025a1.988 1.988 0 0 1 2.583 1.198 1.935 1.935 0 0 1-1.196 2.516zM15.182 23.903a2.01 2.01 0 1 1-1.383-3.775l11.018-4.02a1.98 1.98 0 0 1 2.583 1.194 1.93 1.93 0 0 1-1.196 2.514zM15.182 29.875a2.01 2.01 0 1 1-1.383-3.774l11.018-4.02a1.98 1.98 0 0 1 2.583 1.192 1.932 1.932 0 0 1-1.196 2.515z"/></g><defs><clipPath id="a"><path fill="#fff" d="M0 0h40v40H0z"/></clipPath></defs></svg>