<svg width="40" height="40" fill="none" xmlns="http://www.w3.org/2000/svg"><path fill-rule="evenodd" clip-rule="evenodd" d="M13.252 17.102a2.814 2.814 0 1 1-1.936-5.285l15.425-5.634a2.782 2.782 0 0 1 3.617 1.676 2.71 2.71 0 0 1-1.675 3.523zM13.255 25.465a2.814 2.814 0 1 1-1.936-5.285l15.425-5.628a2.773 2.773 0 0 1 3.617 1.67 2.704 2.704 0 0 1-1.675 3.52zM13.255 33.826a2.814 2.814 0 1 1-1.936-5.285l15.424-5.627a2.772 2.772 0 0 1 3.617 1.669 2.704 2.704 0 0 1-1.675 3.52z" fill="#fff" style="stroke-width:1.4"/></svg>