<svg width="40" height="40" fill="none" xmlns="http://www.w3.org/2000/svg"><mask id="a" mask-type="alpha" maskUnits="userSpaceOnUse" x="10" y="18" width="20" height="4"><path fill="#fff" d="M10 18.281h20v3.438H10z"/></mask><g mask="url(#a)" transform="matrix(1.4 0 0 1.4 -8 -8)"><path fill-rule="evenodd" clip-rule="evenodd" d="M21.422 19.134s.448-.124.718.314l1.33 1.844 1.372-1.895s.244-.314.648-.26l-1.797 2.432s-.091.143-.248.15c0 0-.11 0-.215-.157-.11-.157-1.808-2.428-1.808-2.428zm4.422.011v2.3s.033.248.357.23v-2.26s0-.23-.357-.27zm.197-.798c-.12 0-.215.11-.215.248 0 .135.095.244.215.244.117 0 .211-.11.211-.244 0-.139-.094-.248-.211-.248zm-7.696 1.994c-.011 1.024.871.995.871.995h1.214c.788-.193.73-.944.73-.944.029-.817-.73-.922-.73-.922h-1.228s-.853.087-.857.87zm.004-.839s.328-.357.86-.364l1.218.007s1.115.182 1.097 1.254c-.015.886-.67 1.236-1.086 1.265h-1.244s-1.24.044-1.206-1.334V18.28s.324.007.36.197c.004.343 0 1.024 0 1.024zm-3.989.839c-.01 1.024.872.995.872.995h1.214c.787-.193.729-.944.729-.944.025-.817-.73-.922-.73-.922h-1.228s-.853.087-.857.87zm.004-.839s.328-.357.86-.364l1.214.007s1.12.182 1.101 1.254c-.014.886-.67 1.236-1.086 1.265H15.21s-1.24.044-1.21-1.334V18.28s.327.007.364.197c.003.343 0 1.024 0 1.024zm12.33.832c-.059 1.352 1.206 1.33 1.206 1.33h2.042c-.033-.284-.256-.306-.256-.306h-1.768c-.911-.131-.838-.795-.838-.795l2.242-.01c.168-.012.682-.092.678-.737-.007-.653-.678-.667-.678-.667h-1.396c-1.24.054-1.232 1.185-1.232 1.185zm.386-.135s.062-.616.766-.719h1.407s.386-.003.4.34c.015.287-.189.368-.4.375zm-15.815 1.45c.113.012.94-.003.94-.003.77.022 1.062-.554 1.062-.554.058.405.105.437.178.5.077.065.31.047.31.047l-.262-1.386c-.241-1.137-1.087-1.108-1.276-1.13-.19-.022-.941-.007-.941-.007C9.971 19.226 10 20.37 10 20.37c.03 1.25 1.148 1.269 1.265 1.28zm-.904-1.268s-.011-.886.915-.919c.102-.025.74-.01.94 0 .201.011.887.153.89.912.007.758-.54.93-.893.948a9.824 9.824 0 0 1-.944 0c-.132-.011-.86-.07-.908-.941z" fill="#fff"/></g></svg>