<svg width="40" height="40" fill="none" xmlns="http://www.w3.org/2000/svg"><mask id="a" mask-type="alpha" maskUnits="userSpaceOnUse" x="10" y="12" width="20" height="16"><path fill="#fff" d="M10 12.26h20v15.481H10z"/></mask><g mask="url(#a)" transform="matrix(1.4 0 0 1.4 -8 -8)"><path fill-rule="evenodd" clip-rule="evenodd" d="m19.144 12.26-3.714 6.45h-2.885L10 23.126h2.894l-2.65 4.615H28.1l1.51-2.696H14.703l2.563-4.448h-2.891l1.08-1.885h2.894l3.721-6.451h-2.925zm3.024 3.705L20.6 18.711h3.176zm-2.634 4.631-1.476 2.529h8.27l-1.497-2.529h-5.297zm7.51 0 1.483 2.529L30 20.596h-2.956z" fill="#2b9969"/></g></svg>