<svg width="41" height="40" fill="none" xmlns="http://www.w3.org/2000/svg"><g clip-path="url(#a)" transform="matrix(1.4 0 0 1.4 -8.517 -8)"><g clip-path="url(#b)"><path d="M30.573 25.318c-.041-.459-.157-.9-.335-1.325a32.04 32.04 0 0 0-.721-1.602c-.11-.227-.209-.46-.316-.687-.425-.9-.848-1.8-1.277-2.697-.256-.537-.524-1.068-.783-1.604-.375-.775-.763-1.544-1.152-2.312-.427-.844-.866-1.682-1.295-2.525-.266-.522-.554-1.028-.95-1.466a3.297 3.297 0 0 0-1.74-1.031c-.141-.033-.287-.036-.428-.069h-.544c-.012.022-.034.014-.052.015a3.003 3.003 0 0 0-1.042.28c-.722.33-1.243.876-1.649 1.546-.291.481-.527.991-.787 1.489-.321.615-.627 1.237-.942 1.855A186.7 186.7 0 0 0 15 18.322c-.354.727-.703 1.456-1.05 2.186a120.13 120.13 0 0 0-1.046 2.25c-.187.416-.384.826-.551 1.25-.314.796-.44 1.613-.29 2.464a4.204 4.204 0 0 0 1.092 2.18 4.247 4.247 0 0 0 1.99 1.197c.426.12.861.17 1.302.144.6-.037 1.18-.172 1.733-.41.754-.325 1.417-.788 2.029-1.33a12.94 12.94 0 0 0 1.006-.995c.04-.045.065-.056.111-.004.093.105.193.203.29.304.523.54 1.083 1.034 1.71 1.452.568.38 1.172.674 1.838.838.564.139 1.134.193 1.712.113a4.27 4.27 0 0 0 1.648-.599 4.167 4.167 0 0 0 1.488-1.56c.26-.467.416-.968.503-1.495.055-.329.087-.657.058-.99zm-9.226-.141c-.042.055-.063.06-.11 0a13.992 13.992 0 0 1-1.27-1.9c-.296-.545-.546-1.11-.684-1.719a3.576 3.576 0 0 1-.1-.823c.01-.37.056-.73.233-1.064.225-.422.559-.723.998-.903.664-.272 1.327-.25 1.96.087.602.32.92.848 1.005 1.52.07.561-.027 1.102-.205 1.633-.15.45-.352.879-.58 1.295-.361.66-.791 1.276-1.247 1.874zm7.92 1.077a2.925 2.925 0 0 1-.825 1.613 2.896 2.896 0 0 1-1.67.848c-.817.12-1.57-.079-2.285-.468-.633-.344-1.18-.8-1.693-1.297-.209-.203-.41-.412-.607-.627-.036-.039-.04-.063-.004-.108a15.39 15.39 0 0 0 1.452-2.095c.406-.715.74-1.46.922-2.266.094-.416.142-.837.134-1.264a3.17 3.17 0 0 0-.711-1.99c-.557-.69-1.286-1.08-2.16-1.198-.654-.09-1.293-.032-1.902.23-.979.42-1.632 1.133-1.918 2.168-.087.314-.12.635-.12.873-.003.693.148 1.27.336 1.838.196.593.47 1.15.782 1.69.28.486.589.952.922 1.403.16.216.321.43.491.64.033.04.021.061-.008.095-.525.59-1.091 1.136-1.743 1.585-.511.351-1.054.64-1.67.766-.932.192-1.792.038-2.552-.543a2.845 2.845 0 0 1-1.12-1.9 3.194 3.194 0 0 1 .154-1.54c.191-.544.444-1.061.687-1.582.396-.847.791-1.694 1.193-2.538a244.776 244.776 0 0 1 2.474-5.033c.388-.765.788-1.524 1.182-2.286.153-.298.3-.598.484-.88.35-.534.812-.912 1.455-1.025.765-.133 1.414.094 1.943.658.24.257.412.56.574.87.35.673.698 1.348 1.04 2.026a277.23 277.23 0 0 1 2.929 5.985c.32.678.65 1.353.955 2.038.241.54.512 1.067.714 1.623.199.548.262 1.114.164 1.691z" fill="#ef4e5d"/></g></g><defs><clipPath id="a"><path fill="#fff" transform="translate(.879)" d="M0 0h40v40H0z"/></clipPath><clipPath id="b"><path fill="#fff" transform="translate(12 10)" d="M0 0h18.584v20H0z"/></clipPath></defs></svg>