<svg width="40" height="40" fill="none" xmlns="http://www.w3.org/2000/svg"><g clip-path="url(#a)" transform="matrix(1.4 0 0 1.4 -7.975 -8)"><g clip-path="url(#b)" fill="#05cfcf"><path d="M19.962 14.724c-.274.638-.511 1.187-.743 1.738-.751 1.784-1.509 3.566-2.243 5.357-.118.289-.276.358-.56.332-1.404-.13-2.081-1.23-1.523-2.528 1.247-2.902 2.508-5.797 3.76-8.697.253-.587.664-.933 1.324-.926.642.007 1.038.35 1.287.92 2.47 5.65 4.943 11.297 7.413 16.946.402.92.189 1.66-.562 1.992-.844.373-1.729-.006-2.115-.915-1.914-4.513-3.825-9.026-5.738-13.54-.084-.197-.173-.392-.3-.679ZM15.696 24.96l-.526 1.173c-.446.988-.884 1.981-1.341 2.965-.338.726-1.095 1.05-1.86.825-.745-.222-1.16-.955-.882-1.687.288-.756.609-1.507.997-2.215.379-.69 1.003-1.075 1.828-1.064.572.009 1.145.002 1.784.002z"/><path d="M18.066 23.54a1.896 1.896 0 0 1 1.906-1.872 1.898 1.898 0 0 1 1.867 1.873 1.902 1.902 0 0 1-1.887 1.894 1.898 1.898 0 0 1-1.886-1.895z"/></g></g><defs><clipPath id="a"><path fill="#fff" d="M0 0h40v40H0z"/></clipPath><clipPath id="b"><path fill="#fff" transform="translate(11 10)" d="M0 0h17.877v20H0z"/></clipPath></defs></svg>