<svg width="40" height="40" fill="none" xmlns="http://www.w3.org/2000/svg"><path fill-rule="evenodd" clip-rule="evenodd" d="M6.528 16.17c.264-.793.529-1.453.925-2.245-.264.396-.264.792-.264 1.452 0 3.302 7.396 6.736 16.377 4.227 3.566-.925 8.85-2.774 8.85-5.68 0-.132 0-.396-.397-1.188.528.924 1.056 1.981 1.32 3.038.265.528.265.924.265 1.188 0 .66-.925 4.887-9.378 5.68-.792 0-6.207.132-10.83-1.057-3.17-.793-6.34-2.377-6.868-4.49-.132-.265-.132-.529 0-.925zm13.208 13.604c-1.717.264-12.019.66-13.604-7.529.264 1.321.66 2.642 1.189 3.698.66 1.189 2.245 2.774 4.622 3.83 12.02 4.887 19.415-1.056 20.868-3.962.529-1.32.925-2.641 1.189-4.094-.264 1.057-1.32 6.604-14.264 8.057zm-.264 2.905c-2.246 0-6.868-.396-9.906-3.302C12.208 32.283 15.906 34 20 34c5.415 0 10.038-2.906 12.415-7.396-.66 1.32-3.962 6.075-12.943 6.075zm-8.321-6.868c3.038 1.189 7.792 2.114 10.566 1.981 9.906-.264 12.019-5.283 12.283-6.735V20c0-1.057-.132-2.245-.396-3.302.132.528.132.925.132 1.189 0 .396.132 4.755-9.642 7-5.943 1.188-8.452 1.188-12.547 0C7.981 23.698 6.132 21.057 6 18.81v2.114c.264 1.849 2.642 3.83 5.15 4.886zm4.623-9.377c1.452.132 5.283.66 8.32.396 6.208-.528 7.529-2.641 7.529-3.962 0-.396-.265-.925-.397-1.32-.528-.661-1.188-1.322-1.849-1.982.133.264.265.396.265.528 0 1.057-1.453 2.246-4.623 3.302-1.981.66-4.49 1.321-7.793 1.321-5.283 0-7.132-2.113-7.132-3.434 0-.132-.132-1.189 1.189-2.245-1.189.924-2.113 1.98-2.906 3.302-.132.132-.264.264-.264.528 0 1.32 3.302 2.906 7.66 3.566zm-4.095-7c.132 1.453 3.83 2.51 8.321 2.377 4.49-.132 7.925-1.453 7.925-2.773 0-.396-.265-.793-.793-1.057C25.019 6.661 22.642 6 20 6c-2.642 0-5.151.792-7.396 2.113-.529.396-.925.793-.925 1.32Z" fill="#31a5dd" style="stroke-width:1.4"/></svg>