<svg width="40" height="40" fill="none" xmlns="http://www.w3.org/2000/svg"><mask id="a" mask-type="alpha" maskUnits="userSpaceOnUse" x="10" y="16" width="20" height="8"><path fill="#fff" d="M10 16.507h20v6.987H10z"/></mask><g mask="url(#a)" transform="matrix(1.4 0 0 1.4 -8 -7.88)"><path fill-rule="evenodd" clip-rule="evenodd" d="M29.547 22c.255 0 .453.198.453.445a.445.445 0 0 1-.456.448.45.45 0 0 1-.459-.448.45.45 0 0 1 .459-.445zm-.006.09a.346.346 0 0 0-.342.355c0 .198.147.356.348.356.195.003.34-.158.34-.356a.344.344 0 0 0-.343-.356zm-.068.586h-.103v-.443a.874.874 0 0 1 .171-.016c.084 0 .122.014.155.035a.122.122 0 0 1 .043.096c0 .05-.038.089-.092.105v.006c.044.013.068.049.081.108.014.068.022.095.033.109h-.111c-.014-.016-.022-.054-.035-.106-.009-.049-.036-.07-.093-.07h-.049zm.003-.25h.049c.057 0 .103-.019.103-.065 0-.04-.03-.068-.095-.068a.24.24 0 0 0-.057.006zM12.334 21.14h1.7l.626 1.571h1.147l-2.453-5.887h-.874L10 22.711h1.041s1.043-2.574 1.064-2.621a5.71 5.71 0 0 0 .154-.389l.168-.406a19.35 19.35 0 0 0 .234-.59c.032-.083.063-.168.093-.257l.105-.318h.027c.04.124.076.23.106.318l.084.252c.026.079.057.165.092.256l.133.34.168.423.088.207.062.155c.017.047.038.094.061.141l.079.159h-1.774zM18.213 19.49h-1.036l.003 3.221h-1.015V19.49h-.785v-.742h.785v-.432c0-.265.04-.505.12-.72.079-.214.194-.398.344-.551.15-.153.332-.275.547-.366.215-.092.454-.146.72-.163a1.57 1.57 0 0 1 .335 0 3.1 3.1 0 0 1 .326.061l-.159.733a1.482 1.482 0 0 0-.397-.018c-.318.03-.541.127-.67.291a.764.764 0 0 0-.133.305 3.044 3.044 0 0 0-.035.551v.308l1.05.001zM20.101 22.711h-1.015v-6.134h1.015zm4.78-.583a.346.346 0 0 1-.155-.088.48.48 0 0 1-.057-.088.438.438 0 0 1-.036-.12 1.39 1.39 0 0 1-.017-.189 7.605 7.605 0 0 1-.005-.3v-1.165c0-.506-.088-.865-.265-1.077a1.256 1.256 0 0 0-.507-.34 2.016 2.016 0 0 0-.72-.119c-.488 0-1 .142-1.535.424v.759c.265-.135.487-.234.666-.296.18-.061.363-.098.552-.11.247-.018.444.028.591.137.147.109.22.263.22.463v.198c-.37.03-.668.071-.966.133-.297.062-.519.131-.666.208-.212.111-.38.263-.503.454a1.124 1.124 0 0 0-.185.622c0 .371.1.656.3.856.1.106.228.19.384.252s.313.093.472.093c.123 0 .234-.008.33-.023a1.51 1.51 0 0 0 .597-.225c.105-.064.229-.15.37-.255.07.27.28.429.627.476.1.012.194.016.282.013.088-.003.206-.019.353-.048l.133-.627a.831.831 0 0 1-.26-.018zm-1.267-1.36v1.096c-.312.188-.562.282-.75.282-.194 0-.348-.051-.46-.154a.482.482 0 0 1-.15-.41.627.627 0 0 1 .34-.54c.215-.123.531-.208 1.02-.273z" fill="#15a5de"/><mask id="b" mask-type="alpha" maskUnits="userSpaceOnUse" x="19" y="16" width="7" height="7"><path fill-rule="evenodd" clip-rule="evenodd" d="M22.405 21.992a.481.481 0 0 1-.15-.41.627.627 0 0 1 .34-.54c.214-.123.53-.208 1.019-.273v1.095c-.312.188-.562.282-.75.282-.194 0-.348-.051-.46-.154zm-.821-2.926v.76c.265-.136.487-.235.666-.297.18-.061.363-.098.552-.11.247-.018.444.028.591.137.147.109.22.263.22.463v.198c-.37.03-.669.071-.965.133-.298.062-.52.131-.667.207-.212.112-.38.264-.503.455a1.125 1.125 0 0 0-.185.622c0 .37.1.656.3.856.1.106.228.19.384.252s.313.093.472.093c.123 0 .234-.008.33-.022a1.536 1.536 0 0 0 .597-.225c.105-.065.229-.15.37-.257.07.271.28.43.627.477.1.012.194.016.282.013.089-.003.206-.019.353-.048l.133-.627a.823.823 0 0 1-.26-.018.348.348 0 0 1-.155-.088.506.506 0 0 1-.057-.088.438.438 0 0 1-.036-.12 1.45 1.45 0 0 1-.018-.189 8.823 8.823 0 0 1-.004-.3v-1.165c0-.506-.088-.865-.265-1.077a1.26 1.26 0 0 0-.507-.34 2.017 2.017 0 0 0-.72-.118c-.488 0-1 .14-1.535.423zm-2.498 3.645h1.015v-6.134h-1.015z" fill="#fff"/></mask><g mask="url(#b)" fill-rule="evenodd" clip-rule="evenodd"><path d="M20.293 23.482c1.197 0 1.585-.185 1.654-.449.142-.543.293-1.83.293-2.45 0-.904-.17-3.756-1.897-3.756-.68 0-1.418.494-1.64 1.477-.221.987-1.36 1.173-1.241 1.985.142.972.817 1.303 1.673 1.027.576-.186.09.9-.137 1.309-.272.49-.112.857 1.295.857z" fill="#15a5de"/><path d="M18.712 18.306c-.223.99-1.362 1.174-1.242 1.984.145.971.824 1.288 1.673 1.016.573-.184.094.9-.134 1.315-.269.49-.113.855 1.287.855 1.189 0 1.575-.183 1.645-.45.142-.545.291-1.823.291-2.443 0-.904-.17-3.748-1.89-3.748-.676 0-1.41.492-1.63 1.471z" fill="#12a4de"/><path d="M18.72 18.308c-.224.993-1.362 1.175-1.241 1.982.147.971.83 1.274 1.673 1.006.568-.181.096.899-.133 1.322-.264.488-.113.852 1.28.851 1.18 0 1.566-.182 1.635-.451.142-.547.29-1.815.29-2.435 0-.904-.171-3.74-1.881-3.74-.673 0-1.404.49-1.624 1.465z" fill="#13a3dd"/><path d="M18.727 18.31c-.224.996-1.362 1.175-1.24 1.98.15.971.835 1.26 1.673.996.564-.178.1.898-.13 1.328-.26.487-.114.85 1.271.849 1.173-.001 1.557-.18 1.627-.453.142-.549.288-1.808.288-2.427 0-.904-.172-3.732-1.873-3.732-.67 0-1.397.487-1.616 1.459z" fill="#11a2dd"/><path d="M18.735 18.311c-.225 1-1.364 1.177-1.24 1.98.152.97.842 1.246 1.673.985.56-.176.103.898-.128 1.334-.257.486-.115.848 1.264.846 1.164 0 1.547-.178 1.617-.454.142-.55.286-1.8.286-2.419 0-.904-.172-3.724-1.864-3.724-.666 0-1.39.485-1.608 1.452z" fill="#10a1dc"/><path d="M18.743 18.313c-.225 1.002-1.364 1.177-1.24 1.978.155.97.848 1.233 1.674.975.555-.173.105.897-.126 1.34-.253.485-.116.846 1.255.844 1.157-.002 1.539-.177 1.61-.456.14-.552.283-1.793.283-2.411 0-.903-.172-3.716-1.856-3.716-.663 0-1.383.483-1.6 1.446z" fill="#0ea0db"/><path d="M18.751 18.315c-.226 1.005-1.365 1.178-1.239 1.977.157.97.854 1.218 1.673.965.552-.171.109.895-.124 1.346-.249.483-.116.843 1.248.84 1.148-.001 1.529-.175 1.6-.456.14-.555.282-1.786.282-2.404 0-.903-.173-3.708-1.848-3.708-.66 0-1.376.48-1.592 1.44z" fill="#0e9fda"/><path d="M18.759 18.317c-.227 1.008-1.368 1.18-1.239 1.975.157.97.86 1.204 1.674.955.547-.169.11.894-.122 1.353-.246.482-.118.84 1.24.837 1.14-.002 1.519-.174 1.59-.458.14-.556.28-1.778.28-2.396 0-.903-.173-3.7-1.84-3.7-.655 0-1.368.478-1.583 1.434z" fill="#0d9eda"/><path d="M18.767 18.319c-.228 1.011-1.368 1.18-1.238 1.974.16.969.865 1.19 1.673.944.543-.166.114.894-.12 1.359-.242.48-.118.838 1.232.834 1.132-.002 1.51-.172 1.582-.459.139-.558.279-1.77.279-2.388 0-.903-.175-3.691-1.832-3.691-.652 0-1.362.475-1.576 1.427z" fill="#0d9ed9"/><path d="M18.775 18.32c-.228 1.015-1.37 1.181-1.238 1.973.162.969.872 1.176 1.674.934.539-.163.117.893-.118 1.365-.238.48-.119.836 1.224.832 1.124-.003 1.5-.17 1.573-.46.139-.56.277-1.765.277-2.381 0-.903-.175-3.683-1.824-3.683-.648 0-1.355.473-1.568 1.42z" fill="#109cd9"/><path d="M18.783 18.322c-.23 1.018-1.37 1.182-1.238 1.971.164.97.878 1.162 1.674.924.535-.16.12.892-.116 1.372-.235.478-.12.833 1.217.828 1.115-.002 1.49-.168 1.563-.462.139-.562.276-1.756.276-2.372 0-.903-.176-3.675-1.816-3.675-.645 0-1.348.47-1.56 1.414z" fill="#139bd8"/><path d="M18.79 18.324c-.229 1.021-1.37 1.183-1.236 1.97.166.968.883 1.148 1.674.914.53-.159.122.89-.114 1.377-.231.476-.12.831 1.209.826 1.107-.003 1.481-.167 1.554-.463.138-.564.274-1.75.274-2.365 0-.903-.177-3.667-1.808-3.667-.641 0-1.34.469-1.552 1.408z" fill="#139bd7"/><path d="M18.799 18.326c-.23 1.024-1.373 1.184-1.236 1.968.167.968.889 1.134 1.673.904.526-.156.125.89-.112 1.384-.227.474-.12.828 1.201.822 1.1-.003 1.472-.165 1.545-.464.138-.566.272-1.742.272-2.357 0-.903-.177-3.659-1.8-3.659-.637 0-1.333.466-1.544 1.402z" fill="#139ad7"/><path d="M18.807 18.328c-.231 1.027-1.373 1.184-1.236 1.966.17.968.895 1.12 1.674.894.522-.154.128.889-.11 1.39-.224.473-.122.826 1.193.82 1.091-.003 1.463-.164 1.536-.466.138-.568.27-1.734.27-2.349 0-.903-.177-3.65-1.791-3.65-.634 0-1.327.463-1.536 1.394z" fill="#1599d6"/><path d="M18.814 18.33c-.232 1.03-1.374 1.185-1.235 1.965.172.967.901 1.106 1.674.883.518-.151.13.888-.108 1.396-.221.472-.122.824 1.185.817 1.084-.003 1.454-.162 1.527-.467.138-.57.27-1.727.27-2.341 0-.903-.18-3.643-1.784-3.643-.631 0-1.32.462-1.529 1.39z" fill="#1699d5"/><path d="M18.822 18.331c-.232 1.034-1.375 1.187-1.234 1.964.174.967.907 1.094 1.674.874.514-.148.133.886-.106 1.402-.218.47-.123.821 1.177.814 1.075-.004 1.444-.16 1.518-.468.137-.572.267-1.72.267-2.334 0-.902-.179-3.635-1.775-3.635-.628 0-1.313.46-1.52 1.383z" fill="#1497d5"/><path d="M18.83 18.333c-.233 1.037-1.376 1.187-1.234 1.963.177.966.913 1.08 1.674.863.51-.145.136.885-.104 1.408-.214.468-.124.82 1.17.811 1.067-.004 1.435-.159 1.509-.47.136-.572.265-1.712.265-2.325 0-.902-.18-3.627-1.767-3.627-.624 0-1.306.458-1.513 1.377z" fill="#1497d3"/><path d="M18.838 18.335c-.234 1.04-1.376 1.188-1.233 1.961.178.967.92 1.066 1.674.853.505-.143.139.884-.102 1.414-.211.467-.125.817 1.162.809 1.059-.004 1.425-.158 1.5-.471.136-.575.263-1.705.263-2.318 0-.902-.18-3.618-1.759-3.618-.62 0-1.298.454-1.505 1.37z" fill="#1496d2"/><path d="M18.846 18.336c-.235 1.044-1.378 1.19-1.233 1.96.18.967.925 1.053 1.674.843.501-.14.142.883-.1 1.421-.208.465-.125.815 1.154.806 1.051-.005 1.416-.156 1.491-.473.136-.577.262-1.697.262-2.31 0-.902-.181-3.61-1.751-3.61-.617 0-1.292.452-1.497 1.363z" fill="#1394d1"/><path d="M18.854 18.338c-.235 1.047-1.379 1.19-1.233 1.959.183.966.932 1.038 1.674.832.498-.137.145.882-.097 1.427-.206.463-.126.812 1.146.803 1.043-.005 1.407-.154 1.482-.474.136-.578.26-1.69.26-2.302 0-.902-.182-3.602-1.743-3.602-.613 0-1.285.45-1.489 1.357z" fill="#1494d0"/><path d="M18.862 18.34c-.236 1.05-1.38 1.191-1.232 1.957.185.966.937 1.024 1.674.823.493-.135.147.88-.096 1.433-.202.461-.126.81 1.139.8 1.034-.005 1.397-.153 1.472-.475.136-.581.258-1.683.258-2.295 0-.902-.181-3.594-1.734-3.594-.61 0-1.278.448-1.481 1.35z" fill="#1293cf"/><path d="M18.87 18.342c-.237 1.053-1.38 1.192-1.232 1.956.187.965.943 1.01 1.674.812.489-.133.15.879-.093 1.44-.2.459-.128.806 1.13.796 1.027-.005 1.388-.151 1.464-.476.135-.583.256-1.676.256-2.287 0-.902-.182-3.586-1.726-3.586-.606 0-1.27.446-1.473 1.345z" fill="#1392cf"/><path d="M18.878 18.343c-.238 1.056-1.382 1.193-1.232 1.955.19.965.95.997 1.675.802.484-.13.152.878-.092 1.446-.196.457-.128.804 1.123.794 1.018-.006 1.379-.15 1.455-.478a12.82 12.82 0 0 0 .254-2.279c0-.901-.183-3.578-1.718-3.578-.603 0-1.264.443-1.465 1.338z" fill="#1191ce"/><path d="M18.886 18.345c-.239 1.06-1.382 1.194-1.231 1.954.192.964.955.982 1.674.791.48-.127.155.877-.09 1.452-.193.456-.128.802 1.116.791 1.01-.006 1.37-.148 1.445-.479.135-.586.253-1.66.253-2.27 0-.903-.184-3.57-1.71-3.57-.6 0-1.256.44-1.457 1.331z" fill="#0f90cd"/><path d="M18.894 18.347c-.239 1.062-1.383 1.195-1.23 1.952.194.964.961.969 1.674.782.476-.125.158.875-.087 1.458-.191.453-.13.8 1.107.788 1.002-.007 1.36-.147 1.436-.48.135-.588.251-1.654.251-2.264 0-.902-.184-3.561-1.702-3.561-.595 0-1.25.438-1.449 1.325z" fill="#108fcc"/><path d="M18.902 18.349c-.24 1.065-1.384 1.195-1.23 1.95.196.964.967.955 1.675.772.472-.122.16.874-.086 1.464-.188.452-.13.798 1.1.785.994-.006 1.35-.144 1.427-.481.134-.59.25-1.647.25-2.256 0-.901-.186-3.553-1.695-3.553-.592 0-1.242.436-1.441 1.319z" fill="#108ecb"/><path d="M18.91 18.35c-.241 1.07-1.385 1.197-1.23 1.95.199.963.973.94 1.675.761.468-.12.163.873-.083 1.47-.186.45-.132.796 1.091.783.986-.007 1.341-.143 1.418-.483.134-.592.248-1.64.248-2.248 0-.901-.186-3.545-1.686-3.545-.589 0-1.235.433-1.434 1.313z" fill="#0e8dcb"/><path d="M18.918 18.352c-.241 1.072-1.386 1.198-1.23 1.948.202.963.98.927 1.675.751.464-.117.166.872-.08 1.477-.183.448-.133.793 1.083.78.978-.008 1.332-.142 1.409-.485.134-.593.246-1.631.246-2.24 0-.901-.186-3.537-1.678-3.537-.585 0-1.228.431-1.425 1.306z" fill="#118cca"/><path d="M18.926 18.354c-.242 1.075-1.387 1.198-1.229 1.946.203.963.985.913 1.675.741.46-.114.168.87-.08 1.483-.18.446-.132.79 1.077.777.97-.008 1.322-.14 1.4-.486.133-.595.244-1.624.244-2.232 0-.901-.187-3.529-1.67-3.529-.581 0-1.221.43-1.417 1.3z" fill="#118bc8"/><path d="M18.933 18.356c-.242 1.078-1.387 1.2-1.228 1.945.206.962.991.899 1.675.73.455-.111.17.869-.077 1.49-.178.444-.134.787 1.068.773.962-.007 1.313-.138 1.391-.486.133-.598.242-1.617.242-2.225 0-.9-.187-3.52-1.661-3.52-.578 0-1.214.426-1.41 1.293z" fill="#0f8ac8"/><path d="M18.942 18.358c-.244 1.08-1.389 1.2-1.228 1.943.207.963.997.885 1.675.72.45-.109.173.868-.075 1.496-.175.442-.135.783 1.06.77.953-.01 1.304-.136 1.382-.487.133-.6.24-1.61.24-2.217 0-.9-.188-3.513-1.653-3.513-.574 0-1.207.425-1.401 1.288z" fill="#0f89c6"/><path d="M18.95 18.36c-.245 1.084-1.39 1.2-1.228 1.942.21.962 1.004.87 1.675.71.447-.107.176.866-.073 1.501-.172.44-.135.781 1.053.768.945-.01 1.295-.135 1.373-.49.132-.6.238-1.601.238-2.208 0-.9-.188-3.505-1.645-3.505-.57 0-1.2.423-1.394 1.282z" fill="#1088c5"/><path d="M18.957 18.361c-.245 1.088-1.39 1.202-1.227 1.941.212.962 1.01.857 1.675.7.443-.104.178.864-.07 1.508-.17.438-.136.778 1.044.765.937-.01 1.285-.133 1.364-.49.132-.604.237-1.596.237-2.202 0-.9-.19-3.497-1.637-3.497-.568 0-1.193.42-1.386 1.275z" fill="#1187c4"/><path d="M18.965 18.363c-.246 1.09-1.39 1.203-1.226 1.94.214.96 1.015.843 1.675.69.439-.102.18.862-.069 1.513-.167.436-.136.776 1.037.762.93-.01 1.276-.131 1.355-.492.132-.604.235-1.587.235-2.193 0-.9-.19-3.488-1.63-3.488-.563 0-1.185.417-1.377 1.268z" fill="#1286c4"/><path d="M18.973 18.365c-.246 1.094-1.391 1.204-1.226 1.938.217.96 1.022.83 1.676.68.434-.1.182.861-.067 1.52-.165.434-.138.773 1.029.759.92-.011 1.267-.13 1.345-.494.132-.606.234-1.58.234-2.185 0-.9-.19-3.48-1.621-3.48-.56 0-1.18.415-1.37 1.262z" fill="#1385c2"/><path d="M18.98 18.367c-.246 1.097-1.392 1.204-1.225 1.936.22.961 1.028.816 1.676.67.43-.097.185.86-.065 1.526-.162.432-.138.771 1.021.756.913-.011 1.258-.128 1.337-.494.132-.609.232-1.573.232-2.178 0-.9-.192-3.472-1.613-3.472-.557 0-1.172.413-1.362 1.256z" fill="#1284c2"/><path d="M18.989 18.369c-.248 1.1-1.393 1.205-1.225 1.935.221.96 1.033.801 1.675.66.426-.095.188.857-.063 1.532-.159.43-.138.768 1.014.753.905-.012 1.248-.127 1.327-.496.132-.61.23-1.565.23-2.17 0-.9-.191-3.464-1.604-3.464-.553 0-1.165.41-1.354 1.25z" fill="#1384c1"/><path d="M18.997 18.37c-.248 1.103-1.394 1.207-1.225 1.934.224.96 1.04.788 1.676.65.422-.092.19.856-.06 1.538-.158.428-.14.766 1.005.75.896-.012 1.239-.125 1.318-.497.131-.612.229-1.558.229-2.162 0-.9-.193-3.456-1.597-3.456-.55 0-1.158.408-1.346 1.243z" fill="#1383c0"/><path d="M19.005 18.372c-.25 1.106-1.395 1.207-1.224 1.933.226.96 1.045.773 1.675.639.418-.09.192.855-.059 1.544-.154.426-.14.764.998.748.889-.012 1.23-.124 1.31-.499.13-.613.226-1.55.226-2.154 0-.9-.193-3.448-1.588-3.448-.546 0-1.151.406-1.338 1.237z" fill="#1382bf"/><path d="M19.013 18.374c-.25 1.11-1.396 1.208-1.224 1.93.228.96 1.051.76 1.676.63.413-.087.194.854-.057 1.55-.152.424-.141.762.99.746.88-.013 1.22-.122 1.3-.5.131-.616.225-1.544.225-2.147 0-.9-.194-3.44-1.58-3.44-.543 0-1.144.404-1.33 1.23z" fill="#1381bf"/><path d="M19.02 18.376c-.25 1.112-1.396 1.209-1.222 1.93.23.958 1.057.745 1.675.618.41-.084.197.852-.054 1.557-.15.422-.142.759.982.742.872-.013 1.21-.12 1.291-.501.13-.617.223-1.536.223-2.139 0-.9-.194-3.432-1.572-3.432-.54 0-1.137.402-1.323 1.225z" fill="#1480bc"/><path d="M19.028 18.377c-.25 1.116-1.397 1.21-1.222 1.929.233.958 1.063.732 1.675.608.406-.082.199.851-.052 1.563-.148.42-.143.757.974.74.864-.013 1.202-.12 1.282-.503.13-.62.222-1.529.222-2.13 0-.9-.195-3.424-1.564-3.424-.536 0-1.13.399-1.315 1.217z" fill="#127fbd"/><path d="M19.036 18.38c-.252 1.118-1.398 1.21-1.222 1.926.236.958 1.07.718 1.676.598.401-.079.2.85-.05 1.57-.146.417-.144.754.966.736.856-.013 1.192-.117 1.273-.504.13-.621.22-1.521.22-2.123 0-.9-.196-3.415-1.556-3.415-.532 0-1.123.396-1.307 1.211z" fill="#137ebc"/><path d="M19.044 18.381c-.252 1.122-1.398 1.212-1.221 1.926.237.958 1.075.704 1.676.588.397-.077.203.847-.049 1.576-.143.415-.144.75.959.733.848-.014 1.183-.116 1.264-.505.13-.624.218-1.514.218-2.116 0-.9-.196-3.407-1.548-3.407-.529 0-1.116.394-1.299 1.205z" fill="#127dbb"/><path d="M19.052 18.383c-.253 1.125-1.4 1.212-1.221 1.924.24.958 1.081.69 1.676.578.392-.074.205.846-.047 1.582-.14.413-.144.749.951.73.84-.014 1.174-.114 1.255-.506.13-.625.216-1.507.216-2.108 0-.9-.197-3.399-1.54-3.399-.524 0-1.108.392-1.29 1.199z" fill="#107dba"/><path d="M19.06 18.384c-.254 1.129-1.4 1.214-1.22 1.923.242.958 1.086.677 1.675.568.389-.072.207.844-.044 1.588-.139.411-.145.746.943.728.832-.015 1.164-.113 1.246-.508.13-.627.214-1.5.214-2.1 0-.9-.197-3.39-1.531-3.39-.522 0-1.102.389-1.283 1.191z" fill="#0f7cb9"/><path d="M19.068 18.386c-.255 1.132-1.401 1.215-1.22 1.922.245.957 1.093.662 1.676.557.384-.069.209.843-.042 1.595-.137.408-.146.744.935.724.824-.014 1.155-.11 1.237-.509.13-.628.212-1.492.212-2.092 0-.9-.198-3.383-1.523-3.383-.518 0-1.095.388-1.275 1.186z" fill="#0f7cb8"/><path d="M19.076 18.388c-.255 1.135-1.402 1.215-1.22 1.92.248.957 1.1.648 1.677.548.38-.067.21.84-.04 1.6-.135.407-.148.742.927.722.815-.015 1.146-.11 1.228-.51.129-.631.21-1.485.21-2.085 0-.899-.198-3.375-1.515-3.375-.514 0-1.088.385-1.267 1.18z" fill="#0e7ab7"/><path d="M19.084 18.39c-.256 1.138-1.403 1.216-1.22 1.919.25.956 1.106.634 1.677.537.376-.064.213.84-.038 1.606-.133.405-.148.74.92.72.807-.016 1.136-.108 1.218-.512.129-.633.21-1.478.21-2.077 0-.899-.2-3.366-1.508-3.366-.511 0-1.081.382-1.26 1.173z" fill="#0e79b5"/><path d="M19.092 18.392c-.257 1.14-1.403 1.217-1.219 1.917.252.956 1.111.62 1.676.527.372-.061.215.838-.036 1.613-.13.402-.148.737.912.716.8-.016 1.127-.106 1.21-.513.128-.634.207-1.47.207-2.069 0-.899-.2-3.358-1.5-3.358-.507 0-1.073.38-1.25 1.167z" fill="#0c78b5"/><path d="M19.1 18.393c-.258 1.145-1.404 1.218-1.218 1.916.254.956 1.117.607 1.676.517.367-.059.217.836-.034 1.62-.128.4-.15.733.904.712.791-.016 1.118-.104 1.2-.514.129-.636.206-1.463.206-2.06 0-.9-.2-3.351-1.491-3.351-.504 0-1.067.378-1.243 1.16z" fill="#0b78b4"/><path d="M19.108 18.395c-.259 1.148-1.405 1.219-1.218 1.915.256.955 1.123.592 1.676.506.363-.056.219.835-.032 1.626-.126.398-.15.731.896.71.783-.016 1.109-.103 1.192-.516.128-.637.204-1.455.204-2.053 0-.899-.202-3.342-1.483-3.342-.5 0-1.06.376-1.235 1.154z" fill="#0c77b3"/><path d="M19.116 18.397c-.26 1.15-1.406 1.22-1.218 1.913.26.955 1.13.579 1.677.496.359-.053.22.833-.03 1.632-.124.396-.15.73.888.708.775-.017 1.1-.102 1.183-.518.128-.64.202-1.448.202-2.045 0-.899-.202-3.334-1.475-3.334-.497 0-1.053.374-1.227 1.148z" fill="#0c76b2"/><path d="M19.123 18.399c-.26 1.154-1.406 1.22-1.217 1.912.262.954 1.135.564 1.677.486.355-.052.222.83-.028 1.638-.122.393-.151.726.88.704.767-.017 1.09-.1 1.174-.518.128-.642.2-1.441.2-2.038 0-.898-.202-3.326-1.466-3.326-.494 0-1.046.371-1.22 1.142z" fill="#0c75b2"/><path d="M19.131 18.4c-.26 1.157-1.407 1.222-1.216 1.91.264.955 1.14.552 1.677.477.35-.049.223.83-.026 1.644-.12.391-.153.724.872.701.759-.017 1.08-.097 1.165-.52.127-.643.198-1.433.198-2.029 0-.898-.203-3.318-1.458-3.318-.49 0-1.039.369-1.212 1.136z" fill="#0c74b1"/><path d="M19.14 18.402c-.262 1.16-1.408 1.223-1.217 1.91.266.953 1.147.536 1.677.465.346-.046.225.828-.024 1.65-.118.39-.153.722.865.699.75-.017 1.072-.096 1.155-.521.128-.645.197-1.426.197-2.022 0-.898-.204-3.31-1.45-3.31-.487 0-1.032.367-1.204 1.13z" fill="#0e73af"/><path d="M19.147 18.404c-.262 1.163-1.409 1.223-1.216 1.908.27.953 1.153.522 1.677.455.342-.044.227.826-.021 1.657-.116.386-.154.72.857.695.742-.017 1.062-.094 1.146-.522.127-.647.195-1.419.195-2.014 0-.898-.204-3.302-1.442-3.302-.483 0-1.025.365-1.196 1.123z" fill="#0e73af"/><path d="M19.155 18.406c-.263 1.166-1.41 1.224-1.215 1.906.271.953 1.159.509 1.677.446.338-.042.228.824-.02 1.662-.114.385-.154.717.85.693.734-.018 1.052-.093 1.137-.524.127-.648.193-1.41.193-2.006 0-.898-.205-3.294-1.434-3.294-.48 0-1.018.362-1.188 1.117z" fill="#0e72ae"/><path d="M19.163 18.408c-.263 1.17-1.41 1.225-1.215 1.905.274.952 1.165.494 1.678.435.333-.039.23.822-.018 1.669-.112.382-.155.714.841.69.727-.018 1.044-.092 1.128-.525.127-.65.192-1.404.192-1.999 0-.898-.206-3.285-1.426-3.285-.476 0-1.01.36-1.18 1.11z" fill="#1071ad"/><path d="M19.17 18.41c-.263 1.172-1.41 1.225-1.213 1.903.276.953 1.17.48 1.677.425.33-.036.231.82-.016 1.675-.11.38-.156.712.834.687.718-.018 1.034-.09 1.119-.526.127-.652.19-1.397.19-1.99 0-.899-.207-3.278-1.418-3.278-.473 0-1.004.357-1.172 1.104z" fill="#1170ac"/><path d="M19.179 18.411c-.265 1.176-1.411 1.227-1.214 1.902.278.953 1.176.467 1.677.415.325-.034.233.819-.013 1.681-.108.378-.157.71.826.685.71-.019 1.024-.088 1.11-.528.126-.654.188-1.39.188-1.983 0-.898-.207-3.27-1.41-3.27-.469 0-.997.356-1.164 1.098z" fill="#116fab"/><path d="M19.187 18.413c-.265 1.18-1.412 1.228-1.213 1.901.28.952 1.182.453 1.677.404.321-.03.234.817-.012 1.688-.106.375-.157.707.818.681.702-.019 1.016-.086 1.101-.529.127-.656.186-1.382.186-1.975 0-.898-.207-3.261-1.401-3.261-.465 0-.99.353-1.156 1.091z" fill="#116faa"/><path d="M19.195 18.415c-.266 1.182-1.413 1.228-1.213 1.9.283.95 1.188.438 1.677.393.317-.028.236.816-.01 1.694-.103.374-.158.705.811.679.694-.02 1.006-.085 1.092-.53a10.89 10.89 0 0 0 .184-1.968c0-.897-.208-3.253-1.393-3.253-.462 0-.983.35-1.148 1.085z" fill="#116ea9"/><path d="M19.203 18.417c-.267 1.185-1.414 1.229-1.213 1.898.286.95 1.195.424 1.678.384.312-.027.237.813-.008 1.7-.102.37-.159.702.803.675.685-.019.997-.083 1.082-.531.126-.66.183-1.368.183-1.96 0-.897-.209-3.245-1.385-3.245-.459 0-.976.348-1.14 1.079z" fill="#116da8"/><path d="M19.21 18.418c-.267 1.189-1.413 1.23-1.211 1.897.288.95 1.2.41 1.677.374.309-.024.238.812-.005 1.706-.1.369-.16.7.795.673.677-.02.987-.082 1.073-.533.126-.662.181-1.36.181-1.952 0-.897-.21-3.237-1.377-3.237-.455 0-.969.346-1.132 1.072z" fill="#126ca7"/><path d="M19.219 18.42c-.268 1.192-1.415 1.231-1.212 1.895.291.95 1.206.397 1.678.364.304-.021.24.81-.003 1.712-.099.367-.16.698.786.67.67-.02.979-.08 1.065-.534.126-.663.18-1.353.18-1.944 0-.897-.21-3.228-1.37-3.228-.451 0-.961.343-1.124 1.065z" fill="#106ba8"/><path d="M19.227 18.422c-.27 1.195-1.416 1.232-1.211 1.894.293.95 1.212.383 1.677.353.3-.018.24.808-.001 1.719-.097.364-.161.695.779.667.661-.02.969-.078 1.055-.536.126-.665.178-1.345.178-1.936 0-.897-.21-3.22-1.361-3.22-.448 0-.954.34-1.116 1.059z" fill="#1169a6"/><path d="M19.235 18.424c-.27 1.198-1.417 1.233-1.21 1.892.295.95 1.217.369 1.677.344.296-.017.241.806 0 1.724-.094.362-.161.693.772.664.653-.02.96-.076 1.046-.536a10.61 10.61 0 0 0 .176-1.929c0-.897-.211-3.212-1.353-3.212-.444 0-.947.338-1.108 1.053z" fill="#0e6aa5"/><path d="M19.242 18.425c-.27 1.202-1.417 1.234-1.21 1.892.299.949 1.224.355 1.678.333.292-.014.242.804.003 1.73-.093.36-.163.691.763.662.645-.02.95-.075 1.038-.538.125-.669.174-1.33.174-1.92 0-.898-.212-3.205-1.345-3.205-.44 0-.94.336-1.1 1.047z" fill="#0f69a5"/><path d="M19.25 18.427c-.27 1.204-1.417 1.235-1.21 1.89.302.949 1.23.34 1.678.323.288-.011.244.802.006 1.737-.092.358-.164.688.755.658.637-.02.941-.073 1.028-.54.125-.67.172-1.322.172-1.912 0-.897-.212-3.196-1.336-3.196-.437 0-.934.334-1.093 1.04z" fill="#0a68a4"/><path d="M19.258 18.43c-.272 1.206-1.418 1.234-1.209 1.888.304.948 1.236.326 1.678.312.283-.009.244.8.007 1.743-.09.356-.164.686.748.656.629-.021.932-.072 1.019-.54.125-.673.17-1.317.17-1.906 0-.897-.213-3.188-1.328-3.188-.433 0-.926.332-1.085 1.034z" fill="#0b67a3"/><path d="M19.266 18.43c-.273 1.211-1.419 1.237-1.209 1.888.306.948 1.242.312 1.678.303.28-.007.245.798.01 1.749-.088.353-.166.684.74.652.62-.02.922-.07 1.01-.542.124-.674.168-1.308.168-1.897 0-.897-.214-3.18-1.32-3.18-.43 0-.92.33-1.077 1.028z" fill="#0966a1"/><path d="M19.274 18.433c-.273 1.213-1.42 1.237-1.208 1.885.308.948 1.248.299 1.678.293.275-.004.245.796.011 1.755-.086.351-.166.681.732.65.612-.021.913-.069 1.001-.543.125-.677.167-1.302.167-1.89 0-.896-.214-3.172-1.312-3.172-.427 0-.912.327-1.069 1.022z" fill="#0664a0"/><path d="M19.282 18.434c-.274 1.217-1.42 1.238-1.208 1.885.311.947 1.254.296 1.679.282.27-.009.246.795.013 1.762-.084.348-.167.678.724.647.604-.022.904-.067.992-.545.125-.678.165-1.294.165-1.882 0-.896-.215-3.164-1.304-3.164-.423 0-.905.325-1.06 1.015z" fill="#0665a0"/><path d="M19.29 18.436c-.275 1.22-1.42 1.239-1.207 1.883.314.947 1.26.282 1.678.272.266-.006.247.793.015 1.768-.082.346-.167.676.717.644.596-.022.895-.065.983-.546.124-.68.163-1.287.163-1.874 0-.896-.216-3.156-1.296-3.156-.42 0-.898.323-1.053 1.01z" fill="#04649f"/><path d="M19.298 18.438c-.275 1.223-1.421 1.24-1.207 1.881.316.947 1.265.269 1.678.262.262-.004.248.791.017 1.775-.08.344-.167.673.709.64.588-.022.886-.063.974-.547.124-.681.162-1.279.162-1.866 0-.896-.217-3.147-1.288-3.147-.416 0-.891.32-1.045 1.002z" fill="#05639f"/><path d="M19.306 18.44c-.276 1.226-1.422 1.24-1.206 1.88.319.946 1.271.242 1.678.252.258.005.248.788.02 1.78-.08.342-.17.672.7.638.58-.022.877-.062.965-.549.124-.683.16-1.271.16-1.858 0-.896-.217-3.14-1.28-3.14-.412 0-.884.319-1.037.997z" fill="#05629e"/><path d="M19.314 18.442c-.277 1.23-1.423 1.24-1.206 1.878.321.946 1.277.229 1.678.242.253.008.248.787.021 1.786-.077.34-.17.67.693.636.572-.023.868-.06.956-.55a10.01 10.01 0 0 0 .158-1.85c0-.897-.217-3.132-1.271-3.132-.41 0-.878.315-1.03.99z" fill="#07619d"/><path d="M19.322 18.443c-.278 1.233-1.424 1.242-1.206 1.878.324.945 1.283.214 1.679.231.249.01.248.785.023 1.793-.075.337-.17.667.685.632.564-.023.858-.059.947-.551a9.952 9.952 0 0 0 .156-1.843c0-.896-.218-3.123-1.263-3.123-.406 0-.87.313-1.022.983z" fill="#07629c"/><path d="M19.33 18.445c-.279 1.236-1.424 1.243-1.205 1.876.326.945 1.289.2 1.678.221.245.013.25.783.026 1.8-.074.334-.171.664.677.629.556-.023.849-.057.938-.553.123-.689.155-1.25.155-1.835 0-.896-.22-3.115-1.256-3.115-.402 0-.863.311-1.013.977z" fill="#0a609b"/><path d="M19.337 18.447c-.279 1.239-1.424 1.244-1.204 1.874.329.945 1.295.186 1.678.211.241.016.25.781.028 1.805-.072.333-.172.663.67.627.547-.023.839-.055.928-.554.123-.69.153-1.242.153-1.827 0-.896-.22-3.107-1.247-3.107-.399 0-.856.309-1.006.97z" fill="#0b5f9a"/><path d="M19.345 18.449c-.28 1.242-1.424 1.244-1.204 1.873.332.944 1.301.172 1.68.2.236.019.248.78.029 1.812-.07.33-.173.66.661.624.54-.024.83-.054.92-.555a9.772 9.772 0 0 0 .151-1.82c0-.896-.22-3.099-1.24-3.099-.394 0-.848.307-.997.965z" fill="#0d5e99"/><path d="M19.354 18.45c-.28 1.246-1.426 1.246-1.204 1.872.335.944 1.307.158 1.679.19.232.021.249.778.031 1.818-.068.329-.173.658.654.621.531-.024.821-.052.91-.556.124-.695.15-1.228.15-1.812 0-.895-.22-3.09-1.231-3.09-.391 0-.842.303-.99.958z" fill="#0e5e98"/><path d="M19.361 18.452c-.281 1.249-1.426 1.247-1.203 1.87.337.944 1.313.145 1.679.18.228.024.25.776.033 1.825-.067.326-.173.655.646.618.524-.024.812-.05.902-.558a9.63 9.63 0 0 0 .148-1.804c0-.895-.222-3.082-1.223-3.082-.388 0-.835.301-.982.951z" fill="#0f5d97"/><path d="M19.37 18.454c-.283 1.252-1.428 1.247-1.203 1.87.34.942 1.318.129 1.678.17.224.024.25.772.036 1.83-.065.323-.174.652.638.614.515-.024.803-.049.893-.559a9.55 9.55 0 0 0 .146-1.796c0-.895-.222-3.074-1.215-3.074-.384 0-.828.299-.974.945z" fill="#105c97"/><path d="M19.377 18.456c-.282 1.255-1.427 1.248-1.202 1.868.342.942 1.325.115 1.68.16.219.027.248.77.037 1.836-.064.321-.176.65.63.612.507-.024.794-.047.883-.56.125-.7.145-1.207.145-1.789 0-.895-.223-3.066-1.207-3.066-.38 0-.821.297-.966.939z" fill="#115b96"/><path d="M19.385 18.458c-.283 1.258-1.428 1.248-1.202 1.866.345.942 1.33.101 1.68.15.215.03.248.768.04 1.842-.063.32-.177.649.622.61.498-.025.785-.046.874-.562a9.334 9.334 0 0 0 .142-1.78c0-.896-.223-3.059-1.198-3.059-.377 0-.814.295-.958.933z" fill="#105a95"/><path d="M19.393 18.46c-.284 1.26-1.429 1.249-1.201 1.864.347.942 1.336.087 1.679.14.211.032.248.767.042 1.848-.06.318-.177.647.614.607.491-.025.776-.044.866-.563a9.27 9.27 0 0 0 .14-1.773c0-.895-.224-3.05-1.19-3.05-.374 0-.807.292-.95.926z" fill="#105a94"/><path d="M19.401 18.461c-.285 1.264-1.43 1.25-1.2 1.864.35.94 1.342.073 1.679.129.207.035.247.765.044 1.855-.06.315-.178.644.606.604.483-.025.767-.043.856-.565a9.215 9.215 0 0 0 .14-1.765c0-.895-.225-3.042-1.183-3.042-.37 0-.8.29-.942.92z" fill="#105892"/><path d="M19.409 18.463c-.286 1.267-1.43 1.251-1.2 1.862.352.94 1.348.059 1.679.12.203.036.247.762.046 1.86-.058.313-.179.642.599.601.474-.025.757-.04.847-.566a9.149 9.149 0 0 0 .137-1.757c0-.895-.225-3.034-1.174-3.034-.367 0-.793.288-.934.914z" fill="#0f5791"/><path d="M19.417 18.465c-.286 1.27-1.43 1.252-1.2 1.86.356.94 1.354.045 1.68.11.198.039.246.76.047 1.867-.055.31-.179.64.591.597.467-.025.748-.039.839-.567.123-.709.135-1.169.135-1.749 0-.895-.226-3.025-1.166-3.025-.363 0-.786.285-.926.907z" fill="#0e5790"/><path d="M19.425 18.466c-.287 1.274-1.43 1.253-1.2 1.86.359.94 1.361.03 1.68.099.195.042.246.759.05 1.873-.054.308-.18.637.583.595.459-.025.739-.037.83-.568.122-.711.133-1.162.133-1.742 0-.895-.226-3.017-1.158-3.017-.36 0-.779.283-.918.9z" fill="#10578f"/><path d="M19.433 18.468c-.288 1.277-1.432 1.254-1.2 1.858.362.94 1.367.016 1.68.089.19.044.245.757.052 1.88-.052.306-.18.634.576.591.45-.025.729-.035.82-.569a8.979 8.979 0 0 0 .132-1.734c0-.895-.227-3.01-1.15-3.01-.356 0-.772.281-.91.895z" fill="#0e568f"/><path d="M19.44 18.47c-.288 1.28-1.431 1.254-1.198 1.857.364.938 1.372.001 1.68.078.186.047.244.755.054 1.886-.051.304-.181.632.568.589.442-.026.72-.034.81-.571.123-.714.13-1.147.13-1.726 0-.894-.227-3.001-1.141-3.001-.353 0-.765.278-.903.888z" fill="#0d548e"/><path d="M19.449 18.472c-.29 1.283-1.433 1.255-1.198 1.855.366.938 1.378-.013 1.68.068.181.049.242.753.055 1.892-.049.302-.182.63.56.587.435-.026.711-.033.802-.573.122-.716.129-1.14.129-1.718 0-.894-.229-2.993-1.134-2.993-.349 0-.758.276-.894.882z" fill="#0b538d"/><path d="M19.456 18.474c-.29 1.286-1.433 1.256-1.197 1.854.369.937 1.384-.027 1.68.058.177.05.241.75.058 1.898-.048.3-.183.628.552.583.426-.026.701-.03.793-.574.121-.718.126-1.132.126-1.71 0-.894-.229-2.985-1.125-2.985-.346 0-.75.274-.887.876z" fill="#0d548c"/><path d="M19.464 18.475c-.29 1.29-1.433 1.257-1.197 1.853.372.937 1.39-.041 1.68.048.174.053.24.748.06 1.904-.046.298-.183.626.545.58.418-.026.692-.029.783-.574.122-.72.125-1.125.125-1.703 0-.894-.23-2.977-1.117-2.977-.342 0-.744.272-.879.87z" fill="#0c528a"/><path d="M19.472 18.477c-.291 1.293-1.434 1.258-1.197 1.851.375.937 1.397-.055 1.68.038.17.056.24.746.063 1.91-.045.296-.184.626.536.578.41-.025.683-.028.775-.576.121-.722.123-1.118.123-1.695 0-.894-.23-2.969-1.11-2.969-.338 0-.736.27-.87.863z" fill="#0c5289"/><path d="M19.48 18.479c-.292 1.296-1.433 1.258-1.196 1.85.38.935 1.402-.07 1.68.027.165.058.238.745.064 1.917-.043.293-.184.623.53.575.4-.026.673-.026.764-.578.122-.723.122-1.11.122-1.687 0-.894-.23-2.96-1.101-2.96-.335 0-.73.266-.863.856z" fill="#0a5088"/><path d="M19.488 18.48c-.293 1.3-1.434 1.26-1.196 1.85.382.934 1.409-.085 1.68.016.161.06.236.743.067 1.923-.042.291-.186.62.52.572.394-.026.665-.024.757-.579.121-.725.12-1.103.12-1.679 0-.894-.231-2.953-1.093-2.953-.332 0-.723.265-.855.85z" fill="#0a5187"/><path d="M19.496 18.483c-.293 1.302-1.435 1.26-1.195 1.847.384.934 1.415-.1 1.68.007.157.062.234.74.068 1.929-.04.289-.186.618.514.569.385-.026.655-.023.747-.58.12-.728.118-1.096.118-1.672 0-.893-.232-2.944-1.085-2.944-.328 0-.716.262-.847.844z" fill="#0b4f86"/><path d="M19.504 18.484c-.294 1.306-1.436 1.26-1.195 1.846.386.934 1.42-.113 1.68-.003.153.064.232.738.07 1.935-.038.287-.186.616.506.566.377-.026.646-.021.738-.581.12-.73.117-1.089.117-1.664 0-.893-.233-2.936-1.077-2.936-.325 0-.709.26-.84.837z" fill="#0a4f86"/><path d="M19.512 18.486c-.295 1.308-1.437 1.261-1.194 1.844.389.934 1.427-.127 1.68-.013.149.067.23.736.073 1.942-.038.284-.188.613.497.563.37-.027.636-.02.729-.583.12-.731.115-1.081.115-1.656 0-.893-.234-2.928-1.07-2.928-.32 0-.7.257-.83.831z" fill="#0a4e84"/><path d="M19.52 18.488c-.295 1.312-1.437 1.262-1.194 1.843.391.933 1.433-.142 1.68-.024.145.07.229.734.075 1.948-.036.283-.189.61.49.56.36-.027.627-.018.72-.584.12-.733.112-1.074.112-1.648 0-.893-.233-2.92-1.06-2.92-.317 0-.695.255-.823.825z" fill="#094d84"/></g><path fill-rule="evenodd" clip-rule="evenodd" d="M28.168 19.772a1.999 1.999 0 0 0-.442-.23 1.31 1.31 0 0 0-.415-.061 1.015 1.015 0 0 0-.758.33 1.102 1.102 0 0 0-.221.371 1.554 1.554 0 0 0 .004.993c.056.16.133.296.23.41a1.033 1.033 0 0 0 .79.367c.088 0 .169-.004.243-.013a1.341 1.341 0 0 0 .432-.128c.073-.036.157-.08.251-.133l.336.689a2.29 2.29 0 0 1-1.421.468c-.3 0-.573-.052-.817-.155a1.781 1.781 0 0 1-.626-.437 1.946 1.946 0 0 1-.402-.68 2.613 2.613 0 0 1-.141-.882c0-.27.054-.53.163-.78a2.153 2.153 0 0 1 1.086-1.109c.244-.111.502-.167.772-.167.283 0 .527.03.733.092.206.062.411.167.618.314z" fill="#15a5de"/><path fill-rule="evenodd" clip-rule="evenodd" d="M19.288 18.249c-.05.267-.118.625-.339.867-.214.234-.49.423-.787.608-.104.065-.141.132-.141.233 0 .071.032.132.088.132.073 0 .113-.041.218-.041.133 0 .29.105.376.155-.104.074-.3.182-.3.354 0 .131.149.304.542.304.366 0 .85-.42 1.097-.607.124-.406-.1-1.226-.754-2.005z" fill="#fff"/><mask id="c" mask-type="alpha" maskUnits="userSpaceOnUse" x="19" y="17" width="3" height="6"><path fill-rule="evenodd" clip-rule="evenodd" d="M20.275 17.297c-.309 0-.536.121-.696.305a1.373 1.373 0 0 0-.291.647c-.016.086-.02.152-.01.169.157.238.374.644.472.839.094.189.173.337.252.767.017.096.03.122.04.23.01.108.01.159.01.259 0 .872-.206 1.458-.453 2.058-.066.172.018.245.161.245h1.454c.196 0 .257-.092.276-.208.114-.702.157-1.092.196-1.918a8.302 8.302 0 0 0-.1-1.582 12.41 12.41 0 0 0-.063-.314 3.744 3.744 0 0 0-.07-.263 2.606 2.606 0 0 0-.376-.796 1.222 1.222 0 0 0-.327-.312.807.807 0 0 0-.358-.123l-.01-.001a1.123 1.123 0 0 0-.067-.002h-.04z" fill="#fff"/></mask><g mask="url(#c)" fill-rule="evenodd" clip-rule="evenodd"><path d="M19.6 22.567c-.065.172.019.245.162.245.297-.685.484-1.652.54-2.275l-.248-.028c0 .872-.206 1.457-.453 2.058z" fill="#fff"/><path d="M19.763 22.812h.645c.231-.69.254-2.1.254-2.237a10.152 10.152 0 0 1-.36-.038c-.056.623-.243 1.59-.54 2.275z" fill="#fff"/><path d="M20.408 22.812h.085c.21-.643.248-2.09.248-2.216-.046-.007-.075-.021-.078-.021 0 .138-.024 1.547-.255 2.237z" fill="#fff"/><path d="M20.493 22.812h.037c.2-.625.245-2.089.246-2.211l-.035-.005c0 .126-.038 1.573-.248 2.216z" fill="#fff"/><path d="M20.53 22.812h.003c.2-.623.245-2.089.247-2.211h-.004c0 .122-.045 1.586-.246 2.21z" fill="#fff"/><path d="M20.533 22.812h.007c.2-.62.246-2.088.248-2.21l-.008-.001c-.001.122-.046 1.588-.247 2.21z" fill="#fff"/><path d="M20.54 22.812h.432c.098-.41.223-2.092.232-2.179-.017-.002-.254-.012-.416-.031-.002.122-.048 1.59-.247 2.21z" fill="#fff"/><path d="M20.972 22.812c.097-.41.223-2.092.232-2.179l.062.007c0 .235-.095 1.695-.182 2.172z" fill="#fff"/><path d="M21.084 22.812h.132c.038-.272.074-.717.099-1.142a.284.284 0 0 1-.108-.035c-.034.454-.08.938-.123 1.177z" fill="#fff"/><path d="M21.207 21.635a.283.283 0 0 0 .108.035c.025-.425.04-.83.037-1.023l-.086-.007c0 .118-.024.541-.058.995zM21.216 22.812c.098 0 .162-.023.204-.06.048-.312.07-.683.083-1.051-.05-.011-.112-.029-.188-.031-.025.425-.06.87-.099 1.142z" fill="#fff"/><path d="M21.315 21.67c.076.002.138.02.188.031.006-.184.01-.368.013-.543-.052-.04-.11-.083-.171-.087-.007.179-.017.386-.03.599z" fill="#fcfdfe"/><path d="M21.344 21.071c.061.004.12.046.172.087l.01-.494a9.724 9.724 0 0 0-.174-.017c.002.097-.001.246-.008.424z" fill="#f9fcfe"/><path d="M21.42 22.751a.241.241 0 0 0 .072-.148c.057-.35.096-.623.126-.912-.028.025-.065.021-.115.01a9.369 9.369 0 0 1-.083 1.05z" fill="#fff"/><path d="M21.503 21.701c.025.006.047.01.066.009.009-.162.016-.326.022-.497-.023-.015-.048-.035-.075-.055-.003.175-.007.359-.013.543z" fill="#f0f3f9"/><path d="M21.516 21.158c.027.02.052.04.075.055l.02-.539a4.564 4.564 0 0 0-.085-.01l-.01.494z" fill="#e3e8f3"/><path d="M21.569 21.71c.019-.001.035-.006.05-.019.014-.144.027-.292.038-.456a.12.12 0 0 1-.066-.022 26.48 26.48 0 0 1-.022.497z" fill="#e2e8f3"/><path d="M21.591 21.212a.12.12 0 0 0 .066.023c.011-.164.021-.343.031-.55a1.745 1.745 0 0 0-.076-.011l-.02.538z" fill="#d2dbec"/><path d="M20.054 20.509c.162.017.47.056.609.066l-.002-.16c-.143.007-.435.02-.608-.033l.001.127z" fill="#fff"/><path d="M20.053 20.382c.173.053.465.04.608.033a1.605 1.605 0 0 0-.008-.121c-.147.023-.425.045-.609-.044.006.054.008.094.01.132z" fill="#fff"/><path d="M20.044 20.25c-.01-.108-.023-.134-.04-.23a.5.5 0 0 0 .322.116c.019.085.027.091.036.178a.791.791 0 0 1-.318-.064z" fill="#fff"/><path d="M20.362 20.314c.111.003.218-.009.291-.02a1.035 1.035 0 0 0-.014-.096c-.076.015-.181.03-.29.026a.62.62 0 0 1 .013.09z" fill="#f5f8fc"/><path d="M20.348 20.224c.11.004.215-.011.29-.026a1.547 1.547 0 0 0-.024-.102c-.078.018-.18.042-.288.04l.022.088z" fill="#f0f3f9"/><path d="M20.662 20.575c.003 0 .032.014.079.02l.007-.151c-.046-.003-.08-.024-.087-.023l.001.154z" fill="#fff"/><path d="M20.66 20.421c.009 0 .042.02.088.023.002-.049.004-.096.004-.14-.044.004-.08-.003-.098 0 .004.035.006.073.007.117z" fill="#fbfdfe"/><path d="M20.654 20.304c.017-.003.054.004.098 0 0-.046 0-.089-.004-.13a1.618 1.618 0 0 1-.108.029c.006.033.01.066.014.101z" fill="#f0f3f9"/><path d="M20.64 20.203c.026-.006.065-.016.108-.029a.762.762 0 0 0-.017-.116.92.92 0 0 1-.117.038c.01.039.02.073.026.107z" fill="#e2e8f3"/><path d="m20.74 20.596.026.003.01-.151c-.009 0-.02-.004-.028-.004l-.007.152z" fill="#fff"/><path d="M20.748 20.444c.009 0 .02.004.029.004l.008-.149-.033.004c0 .045-.002.092-.004.14z" fill="#fafcfe"/><path d="m20.752 20.303.033-.004a1.861 1.861 0 0 0 0-.138 1.284 1.284 0 0 1-.036.013c.003.041.004.084.004.13z" fill="#eff2f9"/><path d="m20.748 20.174.037-.013a.745.745 0 0 0-.015-.12 1.23 1.23 0 0 1-.039.017.778.778 0 0 1 .017.116z" fill="#e0e7f2"/><path d="M20.767 20.6a.52.52 0 0 0 .013.001l.011-.152-.014-.001-.01.151z" fill="#fff"/><path d="m20.777 20.448.014.001c.004-.051.008-.102.01-.152l-.016.002a4.403 4.403 0 0 1-.008.149z" fill="#fafcfe"/><path d="M20.785 20.3c.005-.002.01-.002.016-.003.002-.05.003-.098.001-.142l-.017.006c.002.044.001.09 0 .138z" fill="#eff2f9"/><path d="M20.785 20.161a.916.916 0 0 0 .018-.006.731.731 0 0 0-.014-.122l-.019.009a.745.745 0 0 1 .015.12z" fill="#dfe4f1"/><path d="m20.78 20.601.06.007.014-.152c-.021 0-.042-.006-.063-.007l-.011.152z" fill="#fff"/><path d="M20.791 20.45c.02 0 .041.006.062.006a5.85 5.85 0 0 0 .013-.167c-.022.004-.043.004-.065.008-.002.05-.006.101-.01.152z" fill="#fafcfe"/><path d="M20.8 20.297c.023-.004.044-.004.066-.008.003-.056.005-.11.004-.16l-.068.026c.002.044 0 .092-.001.142z" fill="#eff2f9"/><path d="m20.802 20.155.068-.026a.694.694 0 0 0-.012-.128l-.069.032a.731.731 0 0 1 .013.122z" fill="#dfe4f1"/><path d="M20.84 20.608c.078.007.165.013.235.017l.015-.163c-.067-.003-.151-.008-.237-.006l-.013.152z" fill="#fff"/><path d="M20.854 20.456c.085-.002.169.002.236.006l.018-.24c-.062.02-.14.042-.242.067a5.905 5.905 0 0 1-.012.167z" fill="#fafcfe"/><path d="M20.866 20.289c.102-.025.18-.046.242-.066.005-.084.009-.168.009-.24a.853.853 0 0 1-.247.146c.001.05 0 .104-.004.16z" fill="#eff2f9"/><path d="M20.87 20.13a.856.856 0 0 0 .247-.147.795.795 0 0 0-.012-.166.685.685 0 0 1-.247.184.695.695 0 0 1 .012.128z" fill="#dfe4f1"/><path d="m21.075 20.625.13.008.017-.17c-.016.006-.066.003-.132 0l-.015.162z" fill="#fff"/><path d="M21.09 20.462a.517.517 0 0 0 .132 0c.008-.086.018-.193.026-.302a.558.558 0 0 1-.14.063 9.793 9.793 0 0 1-.018.24z" fill="#fafcfe"/><path d="M21.107 20.223a.557.557 0 0 0 .14-.063c.009-.109.015-.22.018-.311-.052.04-.092.085-.148.134 0 .072-.004.156-.01.24z" fill="#eff2f9"/><path d="M21.117 19.983c.056-.049.096-.095.148-.134a.835.835 0 0 0-.01-.2c-.06.048-.097.106-.15.168a.782.782 0 0 1 .012.166z" fill="#dee5f2"/><path d="m21.204 20.633.092.01.02-.21a.328.328 0 0 1-.095.03l-.017.17z" fill="#fff"/><path d="M21.221 20.462a.328.328 0 0 0 .095-.03c.01-.097.02-.214.03-.332a.55.55 0 0 1-.098.06 13.11 13.11 0 0 1-.027.302zM21.296 20.642l.128.012c.004-.07.011-.169.02-.281l-.128.06-.02.21z" fill="#f9fcfe"/><path d="M21.316 20.432c.038-.016.082-.038.127-.06.007-.111.016-.238.022-.363-.04.032-.082.065-.12.092-.009.117-.02.235-.03.331z" fill="#f0f3f9"/><path d="M21.248 20.16a.541.541 0 0 0 .098-.06c.01-.117.017-.236.02-.336a.803.803 0 0 1-.101.085 6.281 6.281 0 0 1-.017.311z" fill="#e7edf5"/><path d="M21.265 19.849c.03-.02.065-.05.1-.085a.99.99 0 0 0-.01-.225.556.556 0 0 1-.1.11c.01.035.012.108.01.2z" fill="#d7e0ef"/><path d="M21.346 20.1c.037-.027.078-.059.119-.091.006-.126.01-.25.008-.36-.035.04-.072.08-.108.115-.002.1-.01.219-.02.337z" fill="#dce3f0"/><path d="M21.365 19.764c.036-.035.073-.074.108-.114a1.429 1.429 0 0 0-.021-.266c-.031.055-.064.109-.098.155a.993.993 0 0 1 .011.225z" fill="#cad5e9"/><path d="m21.424 20.654.14.014c.004-.103.01-.224.013-.353-.043.015-.09.036-.134.058l-.02.281z" fill="#e6ebf5"/><path d="M21.443 20.373c.045-.021.09-.042.134-.058.003-.129.005-.265.005-.399l-.117.093c-.006.125-.014.252-.022.364z" fill="#d7e0ef"/><path d="M21.564 20.668c.045.005.088.011.124.017.006-.118.007-.253.005-.395a.34.34 0 0 0-.116.025c-.003.129-.008.25-.014.353z" fill="#c8d4e8"/><path d="M21.577 20.315a.34.34 0 0 1 .116-.025 9.37 9.37 0 0 0-.019-.435.639.639 0 0 0-.092.061c0 .134-.001.27-.005.399z" fill="#b6c5df"/><path d="M21.465 20.009c.04-.033.08-.065.117-.092 0-.134-.004-.265-.012-.384a2.575 2.575 0 0 1-.097.117c.002.109-.002.233-.008.359z" fill="#c3cfe5"/><path d="M21.473 19.65c.035-.04.068-.08.097-.117a2.408 2.408 0 0 0-.036-.308c-.023.05-.052.105-.082.16.014.062.02.156.021.265z" fill="#b1c1dd"/><path d="M21.582 19.916a.639.639 0 0 1 .092-.061 9.035 9.035 0 0 0-.036-.415c-.016.024-.04.056-.068.093.008.119.011.25.012.383z" fill="#a0b4d5"/><path d="M21.57 19.533c.029-.036.052-.07.068-.093a4.444 4.444 0 0 0-.05-.337c-.01.03-.03.073-.053.122.016.084.028.19.035.308z" fill="#8fa7cc"/><path d="M20.003 20.02a.5.5 0 0 0 .323.116 3.914 3.914 0 0 0-.079-.328 1.876 1.876 0 0 1-.364-.262c.042.114.08.259.12.474z" fill="#fff"/><path d="M19.884 19.546c.11.1.24.196.364.262-.028-.096-.058-.186-.092-.293a1.29 1.29 0 0 1-.404-.262c.047.094.09.178.132.293z" fill="#fff"/><path d="M20.326 20.136c.108.002.21-.022.288-.04-.012-.044-.032-.113-.054-.2-.076.015-.19-.022-.312-.088.027.096.053.198.078.328z" fill="#ebeef7"/><path d="M20.247 19.808c.123.066.237.103.313.088a4.604 4.604 0 0 1-.069-.313c-.072.013-.198-.011-.335-.068.034.107.064.197.092.293z" fill="#f2f6fa"/><path d="M20.614 20.096c.041-.01.104-.032.156-.054a3.043 3.043 0 0 1-.06-.195.961.961 0 0 1-.15.049c.022.087.042.156.054.2z" fill="#dee5f2"/><path d="M20.56 19.896a.961.961 0 0 0 .149-.05 4.664 4.664 0 0 1-.075-.304.85.85 0 0 1-.143.041c.022.12.046.225.069.313z" fill="#e7edf5"/><path d="m20.77 20.042.036-.017a3.1 3.1 0 0 1-.059-.195l-.038.017c.024.085.046.152.061.195z" fill="#dbe1ef"/><path d="m20.709 19.847.038-.016a4.967 4.967 0 0 1-.072-.306 1.11 1.11 0 0 1-.04.017c.024.116.05.22.074.305z" fill="#e3e9f4"/><path d="m20.806 20.026.052-.025a2.611 2.611 0 0 1-.06-.194l-.05.024c.022.085.043.152.058.195z" fill="#dbe1ef"/><path d="m20.747 19.83.052-.023a5.234 5.234 0 0 1-.072-.303 5.005 5.005 0 0 0-.052.021c.024.117.05.22.072.306z" fill="#e2e8f3"/><path d="M20.858 20.001c.169-.079.236-.168.298-.247a1.08 1.08 0 0 1-.047-.155c-.078.076-.17.146-.31.208.023.085.044.151.06.194z" fill="#d9e1ef"/><path d="M20.799 19.807c.14-.062.232-.132.31-.208a7.35 7.35 0 0 1-.059-.26c-.093.072-.21.12-.323.165.024.116.049.219.072.303z" fill="#e1e7f2"/><path d="M21.156 19.754a.59.59 0 0 1 .099-.104c-.02-.067-.042-.223-.076-.428-.042.026-.078.079-.129.117.043.202.079.354.106.415z" fill="#d5deee"/><path d="M21.255 19.65c-.01-.034-.02-.09-.032-.162a.415.415 0 0 0 .094-.112c.014.068.027.123.037.163a.55.55 0 0 1-.099.11z" fill="#ced8ea"/><path d="M21.354 19.54a3.18 3.18 0 0 1-.037-.164c.032-.05.065-.11.095-.17l.04.178c-.03.055-.064.109-.098.155z" fill="#c0cde4"/><path d="m21.222 19.488-.043-.266a.446.446 0 0 0 .094-.087c.015.092.03.173.044.241a.414.414 0 0 1-.095.112z" fill="#c9d5e9"/><path d="M21.317 19.376a7.72 7.72 0 0 1-.044-.241c.033-.039.066-.084.098-.129l.04.2c-.03.06-.061.12-.094.17z" fill="#bac8e1"/><path d="M21.452 19.384c-.013-.055-.027-.114-.04-.178.03-.06.058-.12.082-.171l.04.19c-.023.05-.051.105-.082.16z" fill="#a9bad9"/><path d="M21.535 19.225a9.899 9.899 0 0 0-.04-.19c.023-.051.043-.094.057-.118l.037.186c-.012.03-.03.073-.054.122z" fill="#88a3c8"/><path d="M21.412 19.207a5.158 5.158 0 0 1-.04-.2l.088-.13.034.158c-.024.051-.052.112-.082.172z" fill="#a3b6d6"/><path d="m21.494 19.035-.034-.158c.026-.038.049-.07.065-.088l.027.128a1.838 1.838 0 0 0-.058.118z" fill="#86a1c7"/><path d="M19.752 19.253c-.098-.195-.315-.601-.472-.84.136.15.398.336.642.484.079.153.162.397.233.618a1.29 1.29 0 0 1-.403-.262z" fill="#fff"/><path d="M20.156 19.515c.137.057.263.081.336.068a1.834 1.834 0 0 1-.032-.284c-.07.01-.237-.037-.418-.118.04.108.078.224.114.334z" fill="#fff"/><path d="M20.042 19.18c.18.082.348.128.418.119-.002-.07.002-.117.002-.15-.067.005-.295-.104-.54-.252.04.077.08.176.12.284z" fill="#fff"/><path d="M20.491 19.583a.863.863 0 0 0 .154-.045 1.428 1.428 0 0 1-.013-.28.905.905 0 0 1-.172.041c.002.07.01.161.031.284z" fill="#f9fafd"/><path d="M20.46 19.299a.901.901 0 0 0 .172-.042c.004-.069.014-.117.018-.15-.07.022-.148.038-.188.041 0 .034-.004.082-.002.151z" fill="#fff"/><path d="m20.645 19.538.03-.013a1.378 1.378 0 0 1-.01-.28c-.01.005-.022.008-.033.012-.004.07-.003.16.013.28z" fill="#f2f5fb"/><path d="m20.632 19.257.033-.012c.005-.069.016-.116.02-.15l-.035.012c-.005.033-.014.081-.018.15z" fill="#fdfeff"/><path d="m20.675 19.525.084-.034a1.257 1.257 0 0 1-.004-.275 1.385 1.385 0 0 0-.09.03c-.005.069-.005.16.01.28z" fill="#f2f6fb"/><path d="m20.665 19.245.09-.03c.007-.068.02-.115.026-.148-.02.003-.055.014-.095.028-.005.034-.016.081-.021.15z" fill="#fbfdfe"/><path d="M20.76 19.49c.05-.02.102-.042.152-.066a1.053 1.053 0 0 1-.007-.274.504.504 0 0 1-.15.066c-.007.068-.009.157.004.275z" fill="#eff2f9"/><path d="M20.755 19.215a.505.505 0 0 0 .15-.065c.007-.068.02-.116.022-.15a.259.259 0 0 1-.147.067c-.006.033-.018.08-.025.148z" fill="#f9fafd"/><path d="M20.912 19.424a.844.844 0 0 0 .139-.085 1.575 1.575 0 0 1-.025-.282 1.11 1.11 0 0 1-.12.093c-.008.068-.011.157.006.274z" fill="#e3e9f4"/><path d="M20.905 19.15a1.11 1.11 0 0 0 .121-.093c0-.073.005-.126.002-.163-.035.033-.064.072-.101.105-.002.035-.014.083-.022.15z" fill="#f0f3f9"/><path d="M21.05 19.34c.05-.04.087-.092.13-.118a1.173 1.173 0 0 1-.016-.255c-.053.015-.094.053-.138.09 0 .073.004.165.024.282z" fill="#d8dfef"/><path d="M21.026 19.057c.044-.037.085-.075.138-.09.004-.065.01-.111.01-.14a.23.23 0 0 0-.146.067c.003.038-.002.09-.002.163z" fill="#e1e7f2"/><path d="M21.18 19.222a1.166 1.166 0 0 1-.015-.255c.028-.01.059-.03.09-.057 0 .057.002.129.018.224a.444.444 0 0 1-.093.088z" fill="#c6d2e6"/><path d="M21.273 19.134a1.25 1.25 0 0 1-.019-.224c.031-.025.062-.056.092-.088.006.052.012.111.025.184-.032.045-.066.09-.098.128z" fill="#b6c5df"/><path d="M21.165 18.966c.003-.065.01-.11.009-.14.029-.002.055-.02.08-.047.004.034 0 .075 0 .131a.309.309 0 0 1-.09.056z" fill="#cdd9eb"/><path d="M21.255 18.91c0-.056.003-.097 0-.131a.69.69 0 0 0 .072-.097c.009.044.013.089.019.14-.03.032-.06.063-.092.088z" fill="#bdcbe2"/><path d="M21.371 19.006a2.413 2.413 0 0 1-.025-.184c.03-.03.058-.062.084-.089l.03.144-.089.13z" fill="#a0b4d5"/><path d="m21.46 18.878-.03-.145a.428.428 0 0 1 .067-.06c.01.041.02.077.028.116-.016.018-.038.05-.065.088z" fill="#86a1c7"/><path d="M21.346 18.822c-.005-.052-.01-.096-.02-.14.023-.036.045-.072.067-.1l.037.151-.084.09z" fill="#a5b8d7"/><path d="M21.43 18.733a3.302 3.302 0 0 0-.037-.151c.02-.029.042-.05.062-.055l.042.146a.428.428 0 0 0-.067.06z" fill="#88a2c9"/><path d="M19.28 18.413c.271.298 1.048.747 1.182.735 0-.026-.006-.092-.015-.186-.191-.052-.884-.452-1.157-.717-.016.086-.02.152-.01.168z" fill="#fff"/><path d="M19.29 18.244c.273.266.966.666 1.157.718-.04-.392-.145-1.264-.17-1.669a.885.885 0 0 0-.696.304 1.37 1.37 0 0 0-.291.647z" fill="#fff"/><path d="M20.462 19.148c.04-.003.118-.02.188-.042-.016-.253-.17-1.299-.265-1.811-.042-.003-.071-.002-.108-.002.03.502.185 1.72.185 1.855z" fill="#fff"/><path d="m20.65 19.107.023-.008a24.027 24.027 0 0 0-.28-1.804h-.008c.096.513.25 1.558.265 1.812z" fill="#fff"/><path d="M20.673 19.099c.045-.015.085-.03.108-.032a10.51 10.51 0 0 0-.119-.813c-.021 0-.064.03-.097.036.054.354.098.677.108.809z" fill="#fff"/><path d="M20.565 18.29c.034-.006.076-.037.097-.036-.06-.335-.133-.693-.204-.95a.66.66 0 0 0-.064-.009c.052.257.117.642.17.995zM20.78 19.067c.1-.013.152-.069.202-.124a4.61 4.61 0 0 0-.04-.38c-.054.075-.111.152-.203.16.02.142.035.261.042.344z" fill="#fff"/><path d="M20.739 18.724c.092-.01.149-.086.204-.161a5.313 5.313 0 0 0-.075-.41c-.063.048-.13.099-.205.1.03.168.056.33.076.47z" fill="#fff"/><path d="M20.663 18.254c.076-.002.142-.053.205-.102a4.388 4.388 0 0 0-.256-.804.756.756 0 0 0-.153-.045c.07.258.144.615.204.95z" fill="#fff"/><path d="M20.982 18.943c.025-.028.05-.055.08-.076a5.64 5.64 0 0 0-.033-.407c-.031.028-.058.065-.086.103.019.133.032.261.039.38z" fill="#f2f6fa"/><path d="M20.943 18.563c.028-.038.055-.075.086-.103a3.34 3.34 0 0 0-.065-.372.66.66 0 0 0-.096.064c.031.139.056.277.075.41z" fill="#f9fcfe"/><path d="M21.061 18.867a.219.219 0 0 1 .113-.04 4.197 4.197 0 0 0-.036-.415.165.165 0 0 0-.11.048c.016.129.027.263.033.407z" fill="#e6ebf5"/><path d="M21.029 18.46a.165.165 0 0 1 .109-.048 2.324 2.324 0 0 0-.076-.344.166.166 0 0 0-.099.02c.029.12.05.243.066.372z" fill="#f0f5fb"/><path d="M20.868 18.152c.064-.048.126-.094.194-.084a2.69 2.69 0 0 0-.31-.649.957.957 0 0 0-.14-.071c.109.247.194.526.256.804z" fill="#fafcfe"/><path d="M21.174 18.826a3.017 3.017 0 0 0-.111-.758c.028.007.052.01.072.011.066.2.101.416.12.7-.026.027-.052.045-.081.048z" fill="#d5deee"/><path d="M21.255 18.779a2.771 2.771 0 0 0-.12-.7h.055c.065.18.108.373.137.602a.694.694 0 0 1-.072.098z" fill="#c6d2e6"/><path d="M21.063 18.068a2.682 2.682 0 0 0-.31-.649.918.918 0 0 1 .085.06c.137.218.232.401.298.6a.33.33 0 0 1-.073-.011z" fill="#e9eef6"/><path d="m21.135 18.08.055-.001a2.212 2.212 0 0 0-.114-.264l-.062-.029c.049.098.089.193.121.293z" fill="#dbe1ef"/><path d="M21.014 17.786c.022.01.043.019.062.03a2.858 2.858 0 0 0-.153-.263 1.143 1.143 0 0 0-.085-.074c.069.11.127.21.176.307z" fill="#e1e7f2"/><path d="M21.327 18.681a2.773 2.773 0 0 0-.137-.602c.017 0 .033 0 .05.004.064.158.114.325.153.499-.021.028-.043.064-.066.1z" fill="#aebfdc"/><path d="M21.392 18.582c.022-.029.042-.05.063-.055a3.14 3.14 0 0 0-.071-.216.116.116 0 0 0-.058.016c.025.083.047.168.066.255z" fill="#90a7cb"/><path d="M21.326 18.327a.116.116 0 0 1 .058-.016 2.698 2.698 0 0 0-.085-.204.188.188 0 0 0-.058-.024c.032.079.06.16.085.244z" fill="#9db1d2"/><path d="M21.19 18.079c.034 0 .065.002.109.028a2.467 2.467 0 0 0-.101-.192.402.402 0 0 0-.122-.1c.044.087.082.174.115.264z" fill="#c5d1e6"/><path d="M21.076 17.815c.04.02.076.047.122.1a2.353 2.353 0 0 0-.119-.184 1.36 1.36 0 0 0-.156-.178c.058.089.109.175.153.262z" fill="#cfd8ea"/></g><mask id="d" mask-type="alpha" maskUnits="userSpaceOnUse" x="19" y="17" width="3" height="4"><path fill-rule="evenodd" clip-rule="evenodd" d="M19.366 18.558c.142.235.303.538.384.699.093.185.17.33.247.744.114.05.238.079.367.079.57 0 1.032-.543 1.032-1.212 0-.669-.462-1.211-1.032-1.211-.479 0-.88.382-.998.9z" fill="#fff"/></mask><g mask="url(#d)" fill-rule="evenodd" clip-rule="evenodd"><path d="M20.026 20.13c.097.066.212.09.322.094l-.022-.088a.5.5 0 0 1-.323-.116l.023.11z" fill="#fff"/><path d="M20.628 20.151c.03-.006.071-.02.113-.036a.711.711 0 0 0-.01-.057.92.92 0 0 1-.117.038l.014.055z" fill="#b3c3de"/><path d="M20.742 20.114c.013-.004.025-.01.038-.015a.626.626 0 0 0-.01-.057l-.039.016a.766.766 0 0 1 .01.057z" fill="#adbedb"/><path d="m20.78 20.099.018-.008a.556.556 0 0 0-.009-.058l-.019.009a.594.594 0 0 1 .01.057z" fill="#adbdda"/><path d="m20.802 20.155.068-.026a.978.978 0 0 0-.003-.07l-.07.032a.9.9 0 0 1 .005.064z" fill="#b6c4df"/><path d="m20.798 20.09.069-.03a.492.492 0 0 0-.009-.059l-.069.032a.585.585 0 0 1 .009.058z" fill="#adbdda"/><path d="M20.866 20.289c.102-.025.18-.046.242-.066.005-.084.009-.168.009-.24a.854.854 0 0 1-.247.146c.001.05 0 .104-.004.16z" fill="#d1daec"/><path d="M20.87 20.13a.854.854 0 0 0 .247-.147c0-.036 0-.07-.003-.097a.726.726 0 0 1-.247.174.98.98 0 0 1 .003.07z" fill="#b3c4de"/><path d="M20.867 20.06a.727.727 0 0 0 .248-.174.415.415 0 0 0-.01-.069.686.686 0 0 1-.247.184.474.474 0 0 1 .009.059z" fill="#a9bcda"/><path d="M21.107 20.223a.554.554 0 0 0 .14-.063c.009-.109.015-.22.018-.311-.052.04-.092.086-.148.134 0 .072-.004.156-.01.24z" fill="#ced8ea"/><path d="M21.117 19.983c.056-.049.096-.095.148-.134a1.839 1.839 0 0 0 0-.121c-.059.044-.097.1-.15.158l.002.097z" fill="#b1c1dd"/><path d="M21.114 19.886c.054-.058.092-.113.15-.158a.376.376 0 0 0-.01-.078c-.06.047-.096.106-.149.167.004.017.007.04.01.069z" fill="#a6b9d8"/><path d="M21.316 20.432c.038-.016.082-.038.127-.06.007-.111.016-.238.022-.363-.04.032-.082.065-.12.092-.009.117-.02.235-.03.331z" fill="#e5eaf5"/><path d="M21.248 20.16a.541.541 0 0 0 .098-.06c.01-.117.017-.236.02-.336a.804.804 0 0 1-.101.085 6.284 6.284 0 0 1-.017.311z" fill="#cbd5e9"/><path d="M21.265 19.849c.03-.02.065-.05.1-.085.002-.05.002-.095 0-.134a.713.713 0 0 1-.1.098v.12z" fill="#a9bbd9"/><path d="M21.265 19.728a.724.724 0 0 0 .1-.098.491.491 0 0 0-.01-.09.559.559 0 0 1-.1.11.376.376 0 0 1 .01.078z" fill="#a0b4d3"/><path d="M21.346 20.1c.037-.027.078-.059.119-.091.006-.125.01-.25.008-.36-.035.04-.072.08-.108.115-.002.1-.01.219-.02.337z" fill="#c1cee4"/><path d="M21.365 19.764c.036-.035.073-.074.108-.114 0-.055-.002-.105-.006-.15-.032.046-.068.09-.102.13.002.039.002.084 0 .134z" fill="#9fb4d5"/><path d="M21.365 19.63c.034-.04.07-.084.102-.13a.847.847 0 0 0-.015-.116c-.031.055-.064.109-.098.155a.483.483 0 0 1 .01.091z" fill="#95abcf"/><path d="M20.004 20.02a.5.5 0 0 0 .322.116 4.389 4.389 0 0 0-.038-.177 1.304 1.304 0 0 1-.344-.214c.02.077.04.167.06.275z" fill="#fff"/><path d="M19.944 19.745c.104.09.227.166.343.214a3.497 3.497 0 0 0-.04-.15 1.876 1.876 0 0 1-.364-.263c.02.057.041.122.061.199z" fill="#fff"/><path d="M19.883 19.546c.11.1.242.196.364.262a5.689 5.689 0 0 0-.043-.143 1.64 1.64 0 0 1-.384-.273c.022.047.043.096.063.154z" fill="#fff"/><path d="M19.82 19.392c.116.111.255.208.384.274l-.048-.151a1.287 1.287 0 0 1-.404-.262l.068.139z" fill="#fff"/><path d="M20.326 20.136c.108.002.21-.022.288-.04l-.023-.084a.547.547 0 0 1-.303-.053c.013.054.025.112.038.177z" fill="#ccd6e9"/><path d="M20.288 19.96c.116.048.225.07.303.052a5.017 5.017 0 0 1-.03-.116c-.077.015-.19-.022-.313-.088.013.048.027.098.04.151z" fill="#d3dcec"/><path d="M20.247 19.808c.123.066.237.103.313.088a4.867 4.867 0 0 1-.034-.145c-.074.014-.193-.02-.322-.086.015.048.03.095.043.143z" fill="#e2e8f3"/><path d="M20.204 19.666c.13.065.248.099.321.085a4.47 4.47 0 0 1-.033-.168c-.073.013-.2-.011-.336-.068l.048.15z" fill="#f4f8fc"/><path d="M20.614 20.096c.041-.01.104-.032.156-.054a2.342 2.342 0 0 1-.027-.082.99.99 0 0 1-.152.052l.023.084z" fill="#afc0db"/><path d="M20.591 20.012a.988.988 0 0 0 .152-.052 3.889 3.889 0 0 1-.034-.113.963.963 0 0 1-.149.049l.031.116z" fill="#b8c6df"/><path d="M20.56 19.896a.975.975 0 0 0 .15-.05 4.733 4.733 0 0 1-.038-.14.916.916 0 0 1-.147.045l.035.145z" fill="#cfd8ea"/><path d="M20.525 19.751a.92.92 0 0 0 .147-.045 4.802 4.802 0 0 1-.038-.164.843.843 0 0 1-.143.041c.011.06.022.116.034.168z" fill="#e7edf5"/><path d="m20.77 20.042.036-.017a2.54 2.54 0 0 1-.026-.081l-.037.016.027.082z" fill="#a9bbd9"/><path d="m20.743 19.96.037-.016a3.87 3.87 0 0 1-.033-.113 1.059 1.059 0 0 1-.038.016 3.6 3.6 0 0 0 .034.113z" fill="#b2c2dc"/><path d="m20.709 19.847.038-.016a4.372 4.372 0 0 1-.036-.141 1.268 1.268 0 0 1-.04.016l.038.14z" fill="#c9d5e9"/><path d="m20.672 19.706.04-.016a4.905 4.905 0 0 1-.037-.165.955.955 0 0 1-.04.017c.011.058.024.113.037.164z" fill="#e2e8f3"/><path d="m20.806 20.026.052-.025a1.864 1.864 0 0 1-.026-.081l-.052.024.026.082z" fill="#a9bad9"/><path d="m20.78 19.944.051-.024a3.573 3.573 0 0 1-.032-.113l-.052.023.033.114z" fill="#b2c2dc"/><path d="m20.747 19.83.052-.023a5.188 5.188 0 0 1-.036-.14l-.052.023.036.14z" fill="#c9d3e7"/><path d="m20.712 19.69.051-.023a5.654 5.654 0 0 1-.036-.163l-.052.021c.012.058.024.113.037.165z" fill="#e0e7f2"/><path d="M20.858 20.001c.169-.078.236-.168.298-.247a.555.555 0 0 1-.022-.062.804.804 0 0 1-.303.228l.027.081z" fill="#a6b9d8"/><path d="M20.831 19.92a.803.803 0 0 0 .303-.228 2.016 2.016 0 0 1-.025-.093 1.01 1.01 0 0 1-.31.208c.011.043.022.08.032.113z" fill="#afc0db"/><path d="M20.799 19.807a1.01 1.01 0 0 0 .31-.208 5.456 5.456 0 0 1-.028-.118 1.275 1.275 0 0 1-.318.186c.012.051.024.098.036.14z" fill="#c6d2e6"/><path d="M20.763 19.667c.122-.05.23-.114.318-.186l-.03-.142c-.094.072-.211.12-.324.165l.036.163z" fill="#dee5f2"/><path d="M21.156 19.754a.586.586 0 0 1 .099-.104.788.788 0 0 1-.015-.067c-.04.03-.072.07-.106.109a.545.545 0 0 0 .022.062z" fill="#a1b5d6"/><path d="M21.134 19.692c.033-.038.066-.079.106-.109a2.995 2.995 0 0 1-.018-.095c-.04.028-.073.073-.113.111l.025.093z" fill="#a9bad9"/><path d="M21.11 19.6c.04-.039.072-.084.113-.113a10.174 10.174 0 0 1-.02-.121c-.042.026-.075.076-.122.115l.028.118z" fill="#b6c5e0"/><path d="M21.08 19.48c.048-.038.081-.088.123-.114a35.93 35.93 0 0 0-.024-.144c-.042.026-.078.079-.129.117l.03.142z" fill="#c8d4e8"/><path d="M21.255 19.65a.984.984 0 0 0 .197-.266l-.02-.086c-.06.12-.13.238-.192.285.005.028.01.05.015.067z" fill="#9bb0d1"/><path d="M21.24 19.583c.063-.047.132-.165.193-.285l-.021-.091c-.06.12-.129.238-.19.28.007.037.012.07.018.096z" fill="#9fb4d5"/><path d="m21.222 19.488-.043-.266a.446.446 0 0 0 .094-.087c.015.092.03.173.044.241a.416.416 0 0 1-.095.112z" fill="#abbbd9"/><path d="M21.317 19.376a7.708 7.708 0 0 1-.044-.241c.033-.039.066-.084.098-.129l.04.2c-.03.06-.061.12-.094.17z" fill="#a0b4d3"/><path d="M21.412 19.207a5.114 5.114 0 0 1-.04-.2l.088-.13.034.158c-.024.051-.052.112-.082.172z" fill="#8fa7cc"/><path d="M19.752 19.253c-.098-.195-.315-.601-.472-.84.136.15.398.336.642.484.079.153.162.397.233.618a1.287 1.287 0 0 1-.403-.262z" fill="#fff"/><path d="M20.156 19.515c.137.057.263.081.336.068a1.834 1.834 0 0 1-.032-.284c-.07.01-.237-.037-.418-.118.04.108.078.224.114.334z" fill="#fff"/><path d="M20.042 19.18c.18.082.348.128.418.119-.002-.07.002-.117.002-.15-.067.005-.295-.104-.54-.252.04.077.08.176.12.284z" fill="#fff"/><path d="M20.491 19.583a.874.874 0 0 0 .154-.045 1.427 1.427 0 0 1-.013-.28.905.905 0 0 1-.172.041c.002.07.01.161.031.284z" fill="#f9fafd"/><path d="M20.46 19.299a.894.894 0 0 0 .172-.042c.004-.069.014-.117.018-.15-.07.022-.148.038-.188.041 0 .034-.004.082-.002.151z" fill="#fff"/><path d="M20.645 19.538a.852.852 0 0 0 .03-.013 1.378 1.378 0 0 1-.01-.28c-.01.005-.022.008-.033.012-.004.07-.003.16.013.28z" fill="#f2f5fb"/><path d="m20.632 19.257.033-.011c.005-.07.016-.117.02-.151a2.161 2.161 0 0 1-.035.012c-.005.033-.014.081-.018.15z" fill="#fdfeff"/><path d="m20.675 19.525.084-.034a1.257 1.257 0 0 1-.004-.275 1.385 1.385 0 0 0-.09.03c-.005.069-.005.16.01.28z" fill="#f2f6fb"/><path d="m20.665 19.245.09-.03c.007-.068.02-.115.026-.148-.02.003-.055.014-.095.028-.005.034-.016.081-.021.15z" fill="#fdfeff"/><path d="M20.76 19.49c.05-.02.102-.042.152-.066a1.053 1.053 0 0 1-.007-.274.502.502 0 0 1-.15.066c-.007.068-.009.157.004.275z" fill="#eff2f9"/><path d="M20.755 19.215a.502.502 0 0 0 .15-.065c.007-.068.02-.116.022-.15a.26.26 0 0 1-.147.067c-.006.033-.018.08-.025.148z" fill="#f9fcfe"/><path d="M20.912 19.424a.85.85 0 0 0 .139-.085 1.576 1.576 0 0 1-.025-.282 1.123 1.123 0 0 1-.12.093c-.008.068-.011.157.006.274z" fill="#e3e9f4"/><path d="M20.905 19.15c.044-.028.083-.06.121-.093 0-.073.005-.125.002-.163-.035.033-.064.072-.101.105-.002.035-.014.083-.022.15z" fill="#f2f6fa"/><path d="M21.05 19.34c.05-.04.087-.092.13-.118a1.172 1.172 0 0 1-.016-.255c-.053.015-.094.053-.138.09 0 .073.004.166.024.282z" fill="#d8dfef"/><path d="M21.026 19.057c.044-.037.085-.075.138-.09.004-.065.01-.111.01-.14a.229.229 0 0 0-.146.068c.003.037-.002.09-.002.162z" fill="#e6ebf5"/><path d="M21.18 19.222a1.165 1.165 0 0 1-.015-.255.31.31 0 0 0 .09-.057c0 .057.002.129.018.225a.443.443 0 0 1-.093.087z" fill="#c6d2e6"/><path d="M21.273 19.135a1.252 1.252 0 0 1-.019-.225c.031-.025.062-.056.092-.088.006.052.012.111.025.184a1.86 1.86 0 0 1-.098.129z" fill="#b6c5df"/><path d="M21.165 18.966c.003-.065.01-.11.009-.14.029-.002.055-.02.08-.047.004.034 0 .075 0 .131a.31.31 0 0 1-.09.056z" fill="#d3dcec"/><path d="M21.255 18.91c0-.056.003-.097 0-.131a.69.69 0 0 0 .072-.097c.009.044.013.089.019.14-.03.032-.06.063-.092.088z" fill="#c2cee4"/><path d="M21.371 19.006a2.415 2.415 0 0 1-.025-.184c.03-.03.058-.062.084-.089l.03.144-.089.13z" fill="#a0b4d5"/><path d="M21.346 18.823c-.005-.052-.01-.097-.02-.141.023-.036.045-.072.067-.1l.037.151-.084.09z" fill="#a9bad8"/><path d="M21.43 18.733a3.24 3.24 0 0 0-.037-.151c.02-.029.042-.05.062-.055l.042.146a.418.418 0 0 0-.067.06z" fill="#88a3c9"/><path d="M19.28 18.414c.271.297 1.048.746 1.182.734 0-.026-.006-.092-.015-.186-.191-.052-.884-.451-1.157-.717-.016.086-.02.152-.01.169z" fill="#fff"/><path d="M19.29 18.245c.273.265.966.665 1.157.717-.04-.392-.145-1.264-.17-1.669a.885.885 0 0 0-.696.304 1.37 1.37 0 0 0-.291.648z" fill="#fff"/><path d="M20.462 19.148c.04-.003.118-.02.188-.042-.016-.253-.17-1.298-.265-1.811-.042-.003-.071-.002-.108-.002.03.502.185 1.72.185 1.855z" fill="#fff"/><path d="m20.65 19.107.023-.008a24.021 24.021 0 0 0-.28-1.804h-.008c.096.513.25 1.558.265 1.812z" fill="#fff"/><path d="M20.673 19.1c.045-.016.085-.03.108-.033a10.504 10.504 0 0 0-.119-.813c-.021 0-.064.03-.097.036.054.354.098.677.108.81z" fill="#fff"/><path d="M20.565 18.29c.034-.006.076-.037.097-.036-.06-.335-.133-.693-.204-.95a.728.728 0 0 0-.064-.009c.052.257.117.642.17.995zM20.78 19.067c.1-.013.152-.069.202-.124a4.601 4.601 0 0 0-.04-.38c-.054.075-.111.152-.203.16.02.142.035.261.042.344z" fill="#fff"/><path d="M20.739 18.724c.092-.01.149-.086.204-.161a5.313 5.313 0 0 0-.075-.41c-.063.048-.13.099-.205.1.03.168.056.33.076.47z" fill="#fff"/><path d="M20.663 18.254c.076-.002.142-.053.205-.102a4.384 4.384 0 0 0-.256-.804.757.757 0 0 0-.153-.045c.07.258.144.615.204.95z" fill="#fff"/><path d="M20.982 18.943a.503.503 0 0 1 .08-.076 5.64 5.64 0 0 0-.033-.407c-.031.028-.058.065-.086.103a4.6 4.6 0 0 1 .039.38z" fill="#f2f6fa"/><path d="M20.943 18.563c.028-.038.055-.075.086-.103a3.34 3.34 0 0 0-.065-.372.66.66 0 0 0-.096.064c.031.139.056.277.075.41z" fill="#f9fcfe"/><path d="M21.061 18.867a.218.218 0 0 1 .113-.04 4.191 4.191 0 0 0-.036-.415.165.165 0 0 0-.11.048c.016.129.027.263.033.407z" fill="#e6ebf5"/><path d="M21.029 18.46a.165.165 0 0 1 .109-.048 2.32 2.32 0 0 0-.076-.344.165.165 0 0 0-.099.02c.029.12.05.243.066.372z" fill="#f0f5fb"/><path d="M20.868 18.152c.064-.048.126-.094.194-.084a2.69 2.69 0 0 0-.31-.649.946.946 0 0 0-.14-.071c.109.247.194.526.256.804z" fill="#fafcfe"/><path d="M21.174 18.827a3.017 3.017 0 0 0-.111-.76c.028.008.052.011.072.012.066.2.101.416.12.7-.026.027-.052.045-.081.048z" fill="#d5deee"/><path d="M21.255 18.779a2.771 2.771 0 0 0-.12-.7h.055c.065.18.108.373.137.602a.7.7 0 0 1-.072.098z" fill="#c6d2e6"/><path d="M21.063 18.068a2.682 2.682 0 0 0-.31-.649.918.918 0 0 1 .085.06c.137.218.232.401.298.6a.337.337 0 0 1-.073-.011z" fill="#e9eef6"/><path d="m21.135 18.08.055-.001a2.227 2.227 0 0 0-.114-.264l-.062-.029c.049.098.089.194.121.293z" fill="#dbe1ef"/><path d="M21.014 17.786c.022.01.043.019.062.03a2.831 2.831 0 0 0-.153-.263 1.145 1.145 0 0 0-.085-.074c.069.11.127.21.176.307z" fill="#e1e7f2"/><path d="M21.327 18.681a2.773 2.773 0 0 0-.137-.602c.017 0 .033 0 .05.004.064.158.114.325.153.499-.021.028-.043.064-.066.1z" fill="#aebfdc"/><path d="M21.392 18.582c.022-.029.042-.05.063-.055a3.105 3.105 0 0 0-.071-.216.116.116 0 0 0-.058.016c.025.083.047.168.066.255z" fill="#90a7cb"/><path d="M21.326 18.327a.115.115 0 0 1 .058-.016 2.7 2.7 0 0 0-.085-.204.193.193 0 0 0-.058-.024c.032.08.06.16.085.244z" fill="#9db1d2"/><path d="M21.19 18.079c.034 0 .065.002.109.028a2.503 2.503 0 0 0-.101-.192.4.4 0 0 0-.122-.1c.044.087.082.174.115.264z" fill="#c5d1e6"/><path d="M21.076 17.815a.4.4 0 0 1 .122.1 2.351 2.351 0 0 0-.119-.184 1.354 1.354 0 0 0-.156-.178c.058.09.109.175.153.262z" fill="#cfd8ea"/></g><path fill-rule="evenodd" clip-rule="evenodd" d="M19.04 19.176c-.343.33-.649.505-.82.614-.076.049-.106.081-.106.172 0 .021.009.035.024.035.032 0 .085-.045.177-.045.255 0 .516.291.82.291.378 0 .941-.449 1.081-.554l.028.034c-.214.236-1.029.89-1.332.89-.176 0-.275-.047-.275-.108 0-.084.132-.182.2-.236a2.247 2.247 0 0 0-.062-.03c-.054.039-.258.181-.258.312 0 .153.207.205.39.205.166 0 .33-.09.414-.138.222-.128.768-.53.94-.68.164-.142.217-.263.217-.418 0-.204-.366-.26-.396-.755-.02-.327-.046-.427-.092-.427-.083 0-.157.203-.397.203-.183 0-.137-.242-.18-.242-.085 0-.08.595-.374.877z" fill="url(#e)" style="fill:url(#e)"/><path fill-rule="evenodd" clip-rule="evenodd" d="M19.136 20.243c.377 0 .94-.449 1.08-.554l.028.033c-.214.237-1.029.89-1.332.89z" fill="#fff"/><path fill-rule="evenodd" clip-rule="evenodd" d="M20.76 18.483c-.1 0-.134-.071-.134-.157 0-.122.046-.234.13-.234.072 0 .122.098.124.238.002.095-.049.153-.12.153z" fill="#094d84"/></g><defs><linearGradient id="e" x1="19.004" y1="19.405" x2="19.541" y2="19.019" gradientUnits="userSpaceOnUse"><stop stop-color="#FCCD94"/><stop offset="1" stop-color="#F68B1E"/></linearGradient></defs></svg>