<svg width="40" height="40" fill="none" xmlns="http://www.w3.org/2000/svg"><mask id="a" mask-type="alpha" maskUnits="userSpaceOnUse" x="10" y="10" width="20" height="20"><path fill="#fff" d="M10 10.058h20v19.885H10z"/></mask><g mask="url(#a)" transform="matrix(1.4 0 0 1.4 -8 -8)" fill-rule="evenodd" clip-rule="evenodd" fill="#008676"><path d="M10 29.934h10s.828.154 1.472-.86c.46-.766-.122-1.809-.122-1.809l-5.031-9.97c-.368.706-.399 1.412-.399 1.995 0 .583.245 1.41.675 2.27.46.858 2.208 4.14 2.208 4.14s.92 1.779.952 2.117c.091.644-.338 1.042-.706 1.042h-6.502c-1.013 0-1.38-.736-1.412-1.319l-.614 1.32z"/><path d="M24.018 29.934h-2.085s.49-.43.705-1.074c.154-.583-.184-1.441-.184-1.441L16.81 16.254l.982-1.902 6.38 12.423s.766 1.472.552 2.085a2.738 2.738 0 0 1-.706 1.074z"/><path d="M26.84 29.934h-1.257s.583-.921.306-1.719c-.43-1.318-1.134-2.545-1.134-2.545l-6.442-12.392L20 10.058l10 19.876Z"/></g></svg>