<svg width="40" height="40" fill="none" xmlns="http://www.w3.org/2000/svg"><path fill-rule="evenodd" clip-rule="evenodd" d="M9.742 23.819c-1.187-1.134.326-2.464 2.072-3.233v-2.19c.417.247.626.274.652.311l1.33-1.328-.443-1.122c3.91-1.355 5.488-1.877 8.668-2.412l-.574-.52.94-.548c2.138.717 4.133.899 3.792 2.685.091-1.198-1.407-1.669-3.728-2.32l-.43.273.847.705c-3.806.665-6.151 1.394-8.929 2.359l.366.99-1.382 1.37c.235.064 2.658.886 5.2-.888.013-.012.053-.025.053-.051-.091-.13-.248-.247-.457-.444.73.053 1.213.704 1.122 1.383h-.34a.957.957 0 0 0-.104-.613c-1.942 1.433-4.223 1.643-6.166.964v1.696c-.95.325-2.632 1.368-2.62 2.371.065.483.313.653.548.783a1.201 1.201 0 0 1-.417-.221z" fill="#fff" style="stroke-width:1.4"/><mask id="a" mask-type="alpha" maskUnits="userSpaceOnUse" x="11" y="14" width="20" height="10"><path fill-rule="evenodd" clip-rule="evenodd" d="M11 14h19.58v9.703H11V14Z" fill="#fff"/></mask><g mask="url(#a)" transform="matrix(1.4 0 0 1.4 -8.316 -7.54)"><path fill-rule="evenodd" clip-rule="evenodd" d="M13.699 23.703c-2.877-.056-3.324-1.974-1.955-3.976 1.285-2.02 3.333-3.855 6.602-5 .93-.326 2.336-.717 3.668-.726 1.928-.02 3.799.586 3.678 2.42-.065 1.416-2.104 3.418-3.175 4.852-.465.624-.54 1.024.242.996 2.84-.186 5.438-1.173 7.82-2.197-1.6 1.089-10 5.25-10.045 2.41.009-.353.186-.734.456-1.135.27-.4.642-.83 1.024-1.266.568-.652 1.983-2.216 2.458-3.156.8-1.77-.996-1.863-2.542-2.412l-.67.39.4.373c-2.262.382-3.39.755-6.182 1.723l.316.8-.95.95c-.018-.028-.167-.046-.465-.223v1.565c-1.248.548-2.328 1.499-1.48 2.309a.858.858 0 0 0 .298.158h-.01c1.536.866 5.689-.317 5.68-.317-1.5.773-2.933 1.378-5.168 1.462z" fill="#fff"/></g></svg>