<svg width="40" height="40" fill="none" xmlns="http://www.w3.org/2000/svg"><g clip-path="url(#a)" transform="matrix(1.4 0 0 1.4 -7.995 -7.997)"><mask id="b" mask-type="alpha" maskUnits="userSpaceOnUse" x="10" y="14" width="20" height="12"><path fill="#fff" d="M10 14.94h20v10.121H10z"/></mask><g mask="url(#b)" fill-rule="evenodd" clip-rule="evenodd" fill="#fff"><path d="M10 14.942c3.977-.005 7.954 0 11.93-.002h6.758v10.106H10L10 14.942zm.78.777v8.544h17.124V15.72H10.78z"/><path d="M23.103 17.073a3.036 3.036 0 0 1 1.58.188c.476.198.864.553 1.205.932-.203.2-.412.393-.615.592-.239-.317-.539-.599-.904-.763a2.045 2.045 0 0 0-1.228-.13c-.732.131-1.36.702-1.584 1.407a2.42 2.42 0 0 0-.063 1.14c.07.376.254.73.522 1.003.288.297.65.534 1.055.633.361.087.753.068 1.097-.078a1.89 1.89 0 0 0 .725-.554c.174-.217.282-.484.31-.761-.47-.003-.942.001-1.413-.002v-.809h2.35c.003.404-.015.814-.119 1.206-.1.395-.32.752-.598 1.046a2.573 2.573 0 0 1-.907.624c-.42.17-.883.216-1.332.176-.46-.04-.908-.2-1.288-.461-.596-.41-1.06-1.03-1.226-1.74-.119-.51-.11-1.05.028-1.556.189-.682.656-1.27 1.241-1.659a2.78 2.78 0 0 1 1.164-.434zM12.035 22.829c.88-1.892 1.76-3.785 2.642-5.676h.332l2.549 5.676c-.316-.002-.633.004-.949-.003-.192-.46-.394-.914-.59-1.372h-2.423c-.21.457-.421.913-.628 1.372-.311.007-.622.001-.933.003zm2.791-4.096c-.288.638-.583 1.273-.87 1.911h1.538c.058-.001.116.004.174-.005-.278-.625-.547-1.255-.824-1.88l-.018-.026zM18.444 22.828v-5.675h.859v5.676h-.86zM29.466 24.25c.14-.04.3.001.4.107.15.151.144.43-.017.57a.41.41 0 0 1-.49.043.389.389 0 0 1-.182-.35.39.39 0 0 1 .289-.37zm.02.063c-.19.05-.287.284-.205.458a.322.322 0 0 0 .388.185c.19-.054.285-.296.197-.47a.32.32 0 0 0-.38-.173z"/><path d="M29.418 24.401c.095.007.194-.016.285.017.108.053.071.244-.054.248.044.066.087.132.13.2l-.088-.002c-.038-.06-.074-.12-.114-.18-.015-.028-.054-.012-.078-.018v.2c-.028-.001-.055-.002-.081-.001V24.4zm.08.064v.138c.05 0 .1.006.15-.007.054-.016.055-.109-.001-.124-.048-.013-.1-.005-.149-.007z"/></g></g><defs><clipPath id="a"><path fill="#fff" d="M0 0h40v40H0z"/></clipPath></defs></svg>