<svg width="40" height="40" fill="none" xmlns="http://www.w3.org/2000/svg"><path fill-rule="evenodd" clip-rule="evenodd" d="M34 24.13c0 .697-.44 1.02-1.234 1.02h-1.512v-.698h1.512c.14 0 .258-.021.3-.064a.29.29 0 0 0 .097-.215.34.34 0 0 0-.096-.236c-.043-.043-.14-.064-.28-.064-.718-.022-1.63.021-1.63-1.009 0-.461.3-.976 1.126-.976h1.556v.697h-1.448c-.14 0-.225 0-.3.054-.065.064-.119.14-.119.247 0 .118.076.193.172.236.086.021.182.053.3.053h.419c.44 0 .719.086.912.247.14.172.225.376.225.708Zm-3.283-.708c-.182-.16-.472-.247-.912-.247h-.418c-.118 0-.215-.032-.3-.053-.097-.043-.161-.118-.161-.236 0-.108.021-.183.107-.247.075-.054.172-.054.311-.054h1.438v-.697h-1.556c-.837 0-1.126.515-1.126.976 0 1.03.912.987 1.641 1.009.14 0 .225.021.279.064a.39.39 0 0 1 .086.236c0 .097-.043.161-.086.215a.586.586 0 0 1-.311.064h-1.513v.697h1.513c.794 0 1.244-.321 1.244-1.019 0-.332-.096-.536-.236-.708zm-2.982 1.052H25.89v-.655h1.791v-.643H25.89v-.612h1.845v-.676h-2.618v3.261h2.618zm-3.454-2.425c-.258-.14-.558-.16-.955-.16h-1.792v3.26h.783v-1.19h.848c.279 0 .44.032.558.14.139.17.139.45.139.653v.397h.772v-.622c0-.31-.032-.45-.117-.611a.992.992 0 0 0-.398-.28.915.915 0 0 0 .558-.858c0-.375-.139-.59-.397-.729zm-4.431-.16h-2.5l-.998 1.072-.954-1.073h-3.144v3.261h3.1l.998-1.072.955 1.072h1.513v-1.094h.987c.676 0 1.352-.182 1.352-1.094 0-.89-.698-1.073-1.31-1.073zm3.798 1.35c-.118.044-.226.044-.365.044l-.966.032v-.751h.966c.14 0 .279 0 .365.075.096.043.171.14.171.279a.39.39 0 0 1-.171.322zm-3.798.162h-1.03v-.837h1.03c.279 0 .472.118.472.397s-.193.44-.472.44zm-3.004.118 1.212-1.277v2.628zm-1.888.955h-1.942v-.655h1.727v-.643h-1.727v-.612h1.963l.859.955zm16.875-4.946h-1.116l-1.47-2.446v2.446H27.66l-.3-.719h-1.631l-.3.719h-.912c-.376 0-.87-.086-1.148-.365-.258-.279-.397-.654-.397-1.244 0-.483.075-.923.418-1.277.236-.257.654-.375 1.19-.375h.752v.697h-.751c-.28 0-.44.054-.6.193-.14.14-.215.397-.215.74 0 .354.075.612.214.773.118.118.322.16.537.16h.343l1.126-2.563h1.159l1.309 3.079v-3.08h1.212l1.373 2.264v-2.263h.794zm-9.258-3.261h-.794v3.26h.794zm-1.652.14c-.258-.14-.537-.14-.934-.14h-1.791v3.26h.761v-1.18h.848c.279 0 .461.022.58.14.139.161.117.44.117.622v.419h.794v-.644c0-.279-.021-.429-.14-.59a1.222 1.222 0 0 0-.375-.279.912.912 0 0 0 .558-.858c0-.375-.16-.59-.418-.75zm-3.283 2.445h-1.824v-.644h1.792v-.675h-1.792v-.59h1.824v-.676h-2.618v3.26h2.618zm-3.197-2.585h-1.287l-.955 2.22-1.02-2.22H9.917v3.079l-1.33-3.08h-1.16l-1.405 3.262h.837l.311-.719H8.8l.3.719h1.588v-2.564l1.137 2.564h.676l1.148-2.564v2.564h.794zm12.637 1.845-.536-1.287-.536 1.287zm-6.758-.515c-.118.075-.236.075-.397.075h-.966v-.73h.966c.14 0 .3 0 .397.054.086.064.14.161.14.3 0 .14-.054.258-.14.3zm-12.874.515.537-1.287.536 1.287zm26.37-12.08H6V17.78l.955-2.167h2.027l.28.537v-.537h2.381l.536 1.17.515-1.17h7.574c.354 0 .655.075.89.258v-.258h2.071v.258c.354-.183.794-.258 1.309-.258h3.004l.279.537v-.537h2.22l.322.537v-.537h2.167v4.57h-2.188l-.419-.697v.697H27.2l-.312-.74h-.675l-.3.74h-1.417a2.8 2.8 0 0 1-1.266-.279v.28h-3.38v-1.041c0-.15-.02-.172-.117-.172h-.118v1.212H13.09v-.579l-.236.58h-1.373l-.236-.558v.557h-2.64l-.278-.74h-.676l-.3.74H6v13.786h27.818V25.6c-.3.14-.72.204-1.148.204h-2.028v-.28c-.225.183-.643.28-1.04.28h-6.394v-1.052c0-.139-.022-.139-.14-.139h-.118v1.19h-2.092V24.57c-.354.161-.75.161-1.105.161h-.225v1.073h-2.564l-.612-.697-.675.697h-4.13v-4.57h4.205l.6.697.655-.697h2.821c.322 0 .859.043 1.095.279v-.28h2.52c.258 0 .74.044 1.074.28v-.28h3.797v.28c.215-.183.612-.28.955-.28h2.124v.28c.236-.161.558-.28.976-.28h1.449z" fill="#0079a8" style="stroke-width:1.4"/></svg>