<svg width="41" height="40" fill="none" xmlns="http://www.w3.org/2000/svg"><g clip-path="url(#a)" transform="matrix(1.4 0 0 1.4 -8.4 -8.144)"><g clip-path="url(#b)"><path d="M19.102 19.498c.248-.29.528-.43.887-.41.455.025.791.334.837.79.056.554.014 1.11.026 1.664.001.05.002.099-.07.098h-.32c-.1-.002-.067-.082-.067-.131-.003-.38-.001-.758-.003-1.138 0-.112-.007-.224-.016-.335-.018-.23-.112-.418-.342-.491-.245-.079-.485-.065-.684.129-.189.184-.244.418-.246.67-.003.38-.006.759 0 1.138.003.122-.026.166-.157.162-.301-.008-.302 0-.302-.302 0-1.057.002-2.115-.004-3.173 0-.13.03-.173.167-.169.293.01.294.003.294.295v1.203z" fill="#dc2127"/><path d="M29.936 20.31c0-.202-.005-.405.001-.608.003-.096-.022-.142-.124-.127-.026.004-.053 0-.08 0-.231 0-.221 0-.236-.235-.009-.15.038-.19.183-.184.256.01.256 0 .256-.259 0-.123.009-.246-.002-.368-.01-.118.038-.14.145-.14.309.002.31-.003.31.309 0 .117.005.235-.001.352-.004.083.022.115.107.11.134-.005.268.002.401-.002.076-.003.098.024.1.1.012.318.015.318-.298.318-.31 0-.31 0-.31.31v.928c.003.33.117.445.447.43.12-.006.181.017.16.15a.58.58 0 0 0 0 .144c.008.09-.029.128-.12.123-.11-.007-.226.007-.334-.014-.39-.077-.596-.329-.605-.728-.004-.203 0-.406 0-.608zM15.175 19.816c0 .555-.003 1.11.002 1.665.002.121-.024.167-.156.163-.3-.007-.3 0-.3-.302 0-1.052.002-2.103-.004-3.155 0-.14.029-.193.182-.186.276.013.276.003.276.278v1.537z" fill="#dd2127"/><path d="M17.884 19.47c-.388-.424-.963-.508-1.435-.213-.095.06-.164.147-.266.233-.028-.331-.028-.324-.286-.333-.131-.005-.17.03-.17.165.006 1.02.003 2.04.003 3.06 0 .35 0 .345.345.34.095-.002.117-.036.116-.122a41.423 41.423 0 0 1-.003-.848c.001-.14-.032-.282.018-.437.03.018.04.051.062.073.406.409.973.453 1.436.113.62-.455.709-1.455.18-2.032zm-.309 1.534a.753.753 0 0 1-.826.27c-.273-.077-.511-.37-.543-.67-.007-.064-.01-.127-.012-.17 0-.28.054-.52.243-.709.221-.221.49-.274.78-.18.324.106.48.362.523.682.036.272.009.543-.165.777z" fill="#dc2127"/><path d="M25.928 19.264a1.128 1.128 0 0 0-1.462.206c.016-.352.006-.702.007-1.052.001-.329.001-.324-.33-.324-.111 0-.136.04-.135.139.005.272.002.545.002.817l.001 2.437c0 .052-.034.139.05.148.12.013.254.026.362-.014.067-.025.016-.156.029-.239.002-.02-.003-.043.053-.058.027.034.058.086.101.124.258.232.563.326.903.26.52-.101.871-.491.983-1.07.1-.51-.146-1.102-.564-1.374zm.032 1.541c-.14.34-.46.544-.805.497a.796.796 0 0 1-.673-.726c-.005-.064 0-.128 0-.163a.872.872 0 0 1 .141-.574.753.753 0 0 1 .825-.315.807.807 0 0 1 .571.7c.01.195.02.39-.06.581z" fill="#dd2127"/><path d="m14.127 21.457-1.16-3.087c-.136-.367-.135-.362-.508-.368-.11-.002-.156.032-.194.134-.393 1.06-.792 2.12-1.19 3.178-.124.33-.125.323.232.33.11.002.156-.033.189-.137.085-.274.19-.541.277-.815.029-.092.067-.124.165-.123.422.005.844.006 1.266-.001.108-.002.146.04.176.132.09.278.19.552.286.828.02.056.03.114.11.113.133-.003.265-.001.413-.001-.025-.074-.042-.129-.062-.183zm-1.06-1.304c-.332-.004-.663 0-.995 0-.046 0-.108.012-.076-.073l.556-1.506.046.003.394 1.056c.05.134.098.27.15.404.03.077.024.117-.076.116z" fill="#dc2127"/><path d="M23.457 21.487a42.602 42.602 0 0 1-.001-1.09 2.314 2.314 0 0 0-.048-.557c-.097-.412-.361-.669-.773-.733-.457-.072-.887-.004-1.186.411-.134.188-.132.182.081.266.137.055.23.076.341-.075.172-.233.53-.286.803-.163.246.111.356.329.316.633a1.58 1.58 0 0 0-.97-.09c-.329.069-.613.21-.715.56-.086.294-.041.577.176.804.242.251.554.309.885.255.255-.04.457-.186.63-.414.008.129-.02.253.029.318.057.078.19.012.287.028.13.022.147-.042.145-.153zm-.493-.71c-.103.37-.538.614-.906.512-.155-.043-.272-.127-.3-.292-.033-.19.025-.348.193-.453a.687.687 0 0 1 .457-.1c.151-.01.281.01.408.055.186.066.2.09.148.278zM27.495 20.476c.283.008.566.003.85.003v-.001h.624c.38 0 .386-.002.326-.384-.155-.983-1.135-1.2-1.749-.869-.485.261-.727.81-.63 1.422.08.519.36.886.876 1.026.51.139.96.021 1.314-.39.204-.237.193-.272-.094-.392-.085-.035-.142-.053-.207.052a.744.744 0 0 1-.827.342.784.784 0 0 1-.604-.667c-.015-.096.004-.145.12-.142zm-.067-.474a.695.695 0 0 1 .702-.495c.352.003.607.186.687.484.024.087.021.127-.085.126a72.431 72.431 0 0 0-1.234 0c-.1 0-.097-.033-.07-.115z" fill="#dd2127"/></g></g><defs><clipPath id="a"><path fill="#fff" transform="translate(.879)" d="M0 0h40v40H0z"/></clipPath><clipPath id="b"><path fill="#fff" transform="translate(11 18)" d="M0 0h20v4.722H0z"/></clipPath></defs></svg>