<svg width="40" height="40" fill="none" xmlns="http://www.w3.org/2000/svg"><g clip-path="url(#a)" transform="matrix(1.4 0 0 1.4 -8 -8.036)"><path d="M20.483 11c.02.004.04.01.06.011.12.008.241.011.361.024.148.016.296.036.443.062.24.042.476.102.708.18.47.16.898.393 1.275.717.153.132.285.282.404.444.078.105.15.215.222.324.08.122.131.257.168.396.04.154.071.311.118.463.059.195.072.394.084.594.027.444.017.89.018 1.334v3.573c0 .454.113.88.321 1.281.025.048.054.094.086.137l.376.499a.766.766 0 0 1 .116.2c.01.028.019.058.024.088a.294.294 0 0 1-.108.282l-.245.212-1.264 1.096-.117.101a.476.476 0 0 1-.466.11.41.41 0 0 1-.174-.093 7.316 7.316 0 0 1-.658-.661c-.09-.102-.165-.217-.245-.327l-.223-.314c-.012-.017-.025-.032-.042-.053l-.108.112c-.3.312-.621.6-.984.839a3.284 3.284 0 0 1-1.157.487c-.16.033-.322.06-.486.077a8.066 8.066 0 0 1-.831.042c-.139 0-.277-.012-.415-.026a3.3 3.3 0 0 1-.706-.15 2.976 2.976 0 0 1-1.138-.689 2.753 2.753 0 0 1-.71-1.14 3.752 3.752 0 0 1-.157-.722 4.954 4.954 0 0 1-.024-.878c.024-.458.121-.9.309-1.321.154-.346.365-.655.621-.933a3.931 3.931 0 0 1 1.402-.958c.38-.159.772-.278 1.173-.372a10.752 10.752 0 0 1 1.266-.218c.212-.024.425-.042.637-.063.143-.013.286-.028.43-.04.145-.013.292-.023.438-.035.007 0 .014-.003.026-.005.003-.013.008-.028.008-.042-.001-.224.002-.448-.006-.671a3.851 3.851 0 0 0-.089-.734 2.565 2.565 0 0 0-.063-.222.903.903 0 0 0-.215-.344 1.242 1.242 0 0 0-.61-.343 1.603 1.603 0 0 0-.412-.05l-.1.001a1.868 1.868 0 0 0-1.17.41c-.24.189-.395.437-.483.728-.019.061-.033.124-.048.186a.706.706 0 0 1-.066.173.411.411 0 0 1-.109.128.338.338 0 0 1-.267.072c-.206-.028-.413-.05-.62-.077l-.442-.056-.437-.051-.313-.04-.16-.02a.464.464 0 0 1-.162-.046.303.303 0 0 1-.179-.349c.032-.187.077-.372.132-.554.088-.292.205-.57.36-.833a3.25 3.25 0 0 1 1.103-1.121 5.373 5.373 0 0 1 1.66-.678c.206-.047.413-.086.623-.109.11-.011.22-.02.33-.032.02-.002.039-.008.059-.013h.848Zm.836 6.407-.07-.002a9.157 9.157 0 0 0-.74.027 4.718 4.718 0 0 0-.617.08c-.35.072-.678.202-.974.406-.203.14-.372.315-.502.526a1.967 1.967 0 0 0-.277.92 2.59 2.59 0 0 0 .012.508c.027.208.081.408.181.594.103.19.24.352.424.47.16.104.338.154.527.178.162.021.317-.017.474-.037.007-.001.014-.005.022-.008.326-.095.6-.273.825-.527a2.7 2.7 0 0 0 .37-.567c.116-.225.196-.463.25-.71.035-.158.066-.316.082-.478.014-.146.011-.292.013-.439.002-.285 0-.57 0-.856v-.085z" fill="#fff"/><path d="M10 25.169c.01-.01.022-.02.03-.032.014-.019.024-.04.039-.058a.144.144 0 0 1 .136-.053c.05.006.093.028.136.052.168.094.334.19.504.283.654.357 1.327.674 2.018.954a19.043 19.043 0 0 0 4.289 1.172c.208.03.416.061.625.087.168.021.337.035.506.051.154.015.307.03.46.042.085.007.17.012.255.016.148.007.297.012.446.02a18.508 18.508 0 0 0 1.796-.015c.118-.007.236-.011.354-.02.095-.006.19-.015.284-.023.066-.006.133-.012.2-.02.201-.021.403-.04.604-.066a20.006 20.006 0 0 0 4.54-1.156c.172-.067.342-.141.51-.215a.505.505 0 0 1 .224-.049.267.267 0 0 1 .145.046c.063.043.11.101.138.172a.22.22 0 0 1-.026.22.481.481 0 0 1-.128.12c-.168.114-.336.229-.506.34-.384.248-.784.47-1.195.67-.487.239-.988.445-1.5.624-.436.152-.88.282-1.328.394-.323.08-.649.154-.978.211-.205.035-.41.073-.615.102-.19.028-.382.046-.574.068-.275.032-.553.045-.83.065-.011 0-.023.007-.034.01H19.46c-.017-.003-.034-.01-.051-.01-.139-.009-.277-.013-.416-.024-.21-.017-.42-.036-.629-.057a8.786 8.786 0 0 1-.443-.052c-.238-.036-.476-.077-.714-.117a13.994 13.994 0 0 1-2.028-.537 14.952 14.952 0 0 1-4.042-2.152c-.344-.258-.675-.53-.994-.817-.046-.042-.093-.082-.118-.14-.003-.007-.016-.01-.025-.013v-.093Z" fill="#f3981a"/><path d="M30 25.555c-.004.025-.01.05-.012.075a2.7 2.7 0 0 1-.11.628 5.25 5.25 0 0 1-.385 1.006c-.166.325-.375.62-.635.877-.052.05-.106.097-.16.145a.332.332 0 0 1-.12.068c-.057.018-.107.002-.152-.032a.114.114 0 0 1-.044-.094c0-.04.012-.076.027-.112.049-.118.099-.237.147-.356.137-.34.266-.684.37-1.037a4.07 4.07 0 0 0 .124-.532c.015-.1.027-.2.02-.3a.82.82 0 0 0-.019-.129.274.274 0 0 0-.141-.183.852.852 0 0 0-.239-.086 2.515 2.515 0 0 0-.458-.053c-.08-.003-.16-.008-.239-.006-.172.005-.344.015-.515.022-.173.007-.343.033-.514.054-.165.02-.33.043-.496.068a.273.273 0 0 1-.136-.014c-.06-.022-.072-.061-.055-.109a.405.405 0 0 1 .153-.207c.28-.19.58-.339.912-.419.19-.046.38-.087.572-.117.16-.025.32-.046.483-.053l.323-.016c.088-.005.174.008.26.02.077.011.154.019.23.028.158.02.315.045.467.095.063.02.125.047.184.078a.258.258 0 0 1 .143.222c.002.023.01.045.015.068v.4z" fill="#f3981a"/></g><defs><clipPath id="a"><path fill="#fff" transform="translate(10 11)" d="M0 0h20v18.182H0z"/></clipPath></defs></svg>