<svg width="40" height="40" fill="none" xmlns="http://www.w3.org/2000/svg"><mask id="a" mask-type="alpha" maskUnits="userSpaceOnUse" x="10" y="10" width="20" height="20"><path fill="#fff" d="M10 10.096h20v19.808H10z"/></mask><g mask="url(#a)" transform="matrix(1.4 0 0 1.4 -8 -8)" fill-rule="evenodd" clip-rule="evenodd"><path d="M10 10.096c2.115 0 3.654-.384 5.192 1.539l5.193 6.538h-3.847c-.961 0-1.923-.385-2.692-1.73z" fill="url(#b)" style="fill:url(#b)"/><path d="m21.923 19.904 8.077 10h-5.77c-1.922 0-3.076-1.154-3.845-2.5l-2.5-4.23.769-2.116z" fill="url(#c)" style="fill:url(#c)"/><path d="M18.654 24.327c.192-1.538 3.077-2.885 4.615-2.692l-1.538-1.923-2.5.577-1.539 2.5z" fill="url(#d)" style="fill:url(#d)"/><path d="m18.462 24.327-1.924-3.27c-.577-.96 0-2.115 2.116-2.5 1.923-.192 5.577-.576 6.538 1.54-2.884-.193-6.923.576-6.73 4.23z" fill="url(#e)" style="fill:url(#e)"/></g><defs><linearGradient id="b" x1="10.094" y1="10.096" x2="10.094" y2="18.079" gradientUnits="userSpaceOnUse"><stop stop-color="#00D9FF"/><stop offset="1" stop-color="#0E518A"/></linearGradient><linearGradient id="c" x1="17.95" y1="29.961" x2="30.095" y2="29.961" gradientUnits="userSpaceOnUse"><stop stop-color="#F12E1F"/><stop offset=".49" stop-color="#C8261E"/><stop offset="1" stop-color="#9F1E1C"/></linearGradient><linearGradient id="d" x1="20.709" y1="18.822" x2="17.268" y2="22.513" gradientUnits="userSpaceOnUse"><stop stop-color="#F12E1F"/><stop offset="1" stop-color="#9F1E1C"/></linearGradient><linearGradient id="e" x1="16.579" y1="24.393" x2="25.274" y2="23.881" gradientUnits="userSpaceOnUse"><stop stop-color="#E6EAEF"/><stop offset=".62" stop-color="#BECAD0"/><stop offset="1" stop-color="#95AAB1"/></linearGradient></defs></svg>