<svg width="40" height="40" fill="none" xmlns="http://www.w3.org/2000/svg"><path fill-rule="evenodd" clip-rule="evenodd" d="M11.604 11.604H6V6h5.604z" fill="#226086" style="stroke-width:1.4"/><path fill-rule="evenodd" clip-rule="evenodd" d="M11.604 17.207H6v-5.604h5.604z" fill="#0083c7" style="stroke-width:1.4"/><path fill-rule="evenodd" clip-rule="evenodd" d="M11.604 22.793H6v-5.586h5.604z" fill="#00b8dd" style="stroke-width:1.4"/><path fill-rule="evenodd" clip-rule="evenodd" d="M11.604 28.396H6v-5.603h5.604z" fill="#76c04e" style="stroke-width:1.4"/><path fill-rule="evenodd" clip-rule="evenodd" d="M11.604 34H6v-5.604h5.604z" fill="#00ab58" style="stroke-width:1.4"/><path fill-rule="evenodd" clip-rule="evenodd" d="M17.207 34h-5.604v-5.604h5.604z" fill="#76c04e" style="stroke-width:1.4"/><path fill-rule="evenodd" clip-rule="evenodd" d="M22.793 34h-5.586v-5.604h5.586Z" fill="#d7e040" style="stroke-width:1.4"/><path fill-rule="evenodd" clip-rule="evenodd" d="M28.397 34h-5.604v-5.604h5.604z" fill="#d0cd87" style="stroke-width:1.4"/><path fill-rule="evenodd" clip-rule="evenodd" d="M34 34h-5.603v-5.604H34Z" fill="#f7f0ae" style="stroke-width:1.4"/><path fill-rule="evenodd" clip-rule="evenodd" d="M17.207 28.396h-5.604v-5.603h5.604z" fill="#d7e040" style="stroke-width:1.4"/><path fill-rule="evenodd" clip-rule="evenodd" d="M22.793 28.396h-5.586v-5.603h5.586Z" fill="#f7f0ae" style="stroke-width:1.4"/><path fill-rule="evenodd" clip-rule="evenodd" d="M28.397 28.396h-5.604v-5.603h5.604z" fill="#f8cd86" style="stroke-width:1.4"/><path fill-rule="evenodd" clip-rule="evenodd" d="M34 28.396h-5.603v-5.603H34Z" fill="#d0cd87" style="stroke-width:1.4"/><path fill-rule="evenodd" clip-rule="evenodd" d="M17.207 22.793h-5.604v-5.586h5.604z" fill="#04a8b9" style="stroke-width:1.4"/><path fill-rule="evenodd" clip-rule="evenodd" d="M22.793 22.793h-5.586v-5.586h5.586Z" fill="#f8cd86" style="stroke-width:1.4"/><path fill-rule="evenodd" clip-rule="evenodd" d="M28.397 22.793h-5.604v-5.586h5.604z" fill="#f3aa85" style="stroke-width:1.4"/><path fill-rule="evenodd" clip-rule="evenodd" d="M34 22.793h-5.603v-5.586H34Z" fill="#eb3d3e" style="stroke-width:1.4"/><path fill-rule="evenodd" clip-rule="evenodd" d="M17.207 17.207h-5.604v-5.604h5.604z" fill="#48c8f4" style="stroke-width:1.4"/><path fill-rule="evenodd" clip-rule="evenodd" d="M22.793 17.207h-5.586v-5.604h5.586Z" fill="#ef8540" style="stroke-width:1.4"/><path fill-rule="evenodd" clip-rule="evenodd" d="M28.397 17.207h-5.604v-5.604h5.604z" fill="#eb3d3e" style="stroke-width:1.4"/><path fill-rule="evenodd" clip-rule="evenodd" d="M34 17.207h-5.603v-5.604H34Z" fill="#c9403d" style="stroke-width:1.4"/><path fill-rule="evenodd" clip-rule="evenodd" d="M17.207 11.604h-5.604V6h5.604z" fill="#0083c7" style="stroke-width:1.4"/><path fill-rule="evenodd" clip-rule="evenodd" d="M22.793 11.604h-5.586V6h5.586Z" fill="#f2a83c" style="stroke-width:1.4"/><path fill-rule="evenodd" clip-rule="evenodd" d="M28.397 11.604h-5.604V6h5.604z" fill="#c9403d" style="stroke-width:1.4"/><path fill-rule="evenodd" clip-rule="evenodd" d="M34 11.604h-5.603V6H34Z" fill="#a3413a" style="stroke-width:1.4"/></svg>