<svg width="40" height="40" fill="none" xmlns="http://www.w3.org/2000/svg"><path fill-rule="evenodd" clip-rule="evenodd" d="M33.227 12.541H20.515c-5.431 0-10.062 2.46-11.963 7.442l-2.51 6.577c-.162.42.172.899.633.899h12.913c5.397 0 10.108-3.203 11.998-8.15l2.367-5.737c.184-.49-.196-1.03-.726-1.03zm-4.032 5.714c-1.538 4.032-5.374 6.635-9.774 6.635h-8.737a10.56 10.56 0 0 1 7.977-3.6h1.768c1.417 0 3.392-.83 3.91-2.563h-5.81a13.072 13.072 0 0 0-7.627 2.42l.058-.145c1.544-4.049 5.282-5.904 9.694-5.904h9.924z" fill="url(#a)" style="fill:url(#a);stroke-width:1.4"/><defs><linearGradient id="a" x1="10" y1="25.326" x2="30.002" y2="25.326" gradientUnits="userSpaceOnUse" gradientTransform="matrix(1.4 0 0 1.4 -8 -8)"><stop stop-color="#A6CE39"/><stop offset="1" stop-color="#11B04B"/></linearGradient></defs></svg>