<svg width="40" height="40" fill="none" xmlns="http://www.w3.org/2000/svg"><mask id="a" mask-type="alpha" maskUnits="userSpaceOnUse" x="10" y="17" width="20" height="6"><path fill="#fff" d="M10 17.442h20v5.116H10z"/></mask><g mask="url(#a)" transform="matrix(1.4 0 0 1.4 -8 -8)" fill-rule="evenodd" clip-rule="evenodd" fill="#2162a5"><path d="M14.268 22.376v-4.734c.598.04 1.088.318 1.496.753.439.465.712 1.038.949 1.625.399-1.091 1.15-2.268 2.42-2.378v1.646c.178-.514.443-.981.878-1.322.465-.366 1.042-.524 1.626-.524 1.059 0 2.119.726 2.308 1.802h-1.221c-.208-.482-.652-.675-1.163-.675-.807 0-1.426.6-1.426 1.416 0 .845.56 1.465 1.42 1.465.361 0 .707-.111.967-.369.146-.145.233-.325.31-.513H21.43v-1.13h2.602v-1.796h2.44v1.139h-1.275v.656h1.274v1.131h-1.274v.67h1.274v1.138h-2.44v-1.808c-.082.402-.25.743-.507 1.065-.487.614-1.207.925-1.987.925-.59 0-1.171-.153-1.628-.542-.403-.343-.644-.787-.775-1.291v1.651H17.99v-2.564c-.548.728-.733 1.67-.75 2.564h-1.074c-.02-.902-.259-1.805-.758-2.564v2.564zM28.86 17.642H30v4.734h-1.03c-.152-.783-.523-1.78-1.167-2.278v2.278H26.66V17.64c.519.106 1.197.638 1.575 1 .242.235.479.491.624.798zM10 22.376l.034-.115.196-.667c.162-.548.378-1.091.614-1.611.6-1.325 1.597-2.362 3.128-2.362l.106.001v4.754h-1.15v-1.149h-1.464l-.032.102-.069.21-.094.333-.09.365-.037.14zm1.983-2.277h.944v-1.082c-.5.233-.71.605-.944 1.082z"/></g></svg>