<svg width="40" height="40" fill="none" xmlns="http://www.w3.org/2000/svg"><g clip-path="url(#a)" transform="matrix(1.4 0 0 1.4 -8 -8)"><path fill-rule="evenodd" clip-rule="evenodd" d="M29.997 18.123v-.792c-.179.145-.65.486-1.126.486-.603 0-1.206-.552-1.206-.552l-.02.017c-.093.08-.518.429-.985.515h-.001a.927.927 0 0 1-.098.015h-.006a.875.875 0 0 1-.097.005c-.603 0-1.205-.552-1.205-.552h-.002s-.602.552-1.206.552c-.277 0-.552-.118-.77-.244a1.294 1.294 0 0 1-.347-.309 1.273 1.273 0 0 1-.216-.396h-.002l-2.173-6.889-2.448 7.71L10 17.634l6.576 4.712-2.55 7.675 6.51-4.798 6.51 4.798-2.285-6.875c-.21.105-.463.198-.72.198-.6 0-1.205-.506-1.205-.506s-.603.506-1.206.506c-.602 0-1.206-.552-1.206-.552v.046-.9s.604.552 1.206.552c.603 0 1.206-.553 1.206-.553s.604.553 1.206.553c.526 0 1.052-.42 1.178-.528v-.955c-.128.1-.652.482-1.176.482-.604 0-1.205-.506-1.205-.506s-.604.506-1.207.506c-.603 0-1.206-.552-1.206-.552l-.001.046v-.9h.001s.603.553 1.206.553c.602 0 1.207-.553 1.207-.553s.601.553 1.205.553c.603 0 1.206-.553 1.206-.553v.001h.002s.601.552 1.203.552a.881.881 0 0 0 .099-.005l.005-.001a.953.953 0 0 0 .099-.014h.001c.193-.036.378-.117.536-.205l.438-.313v-.968c-.11.084-.522.38-.974.464h-.001c-.033.005-.066.01-.099.012-.002 0-.004 0-.005.002a1.004 1.004 0 0 1-.097.004h-.002c-.602 0-1.205-.506-1.205-.506s-.603.506-1.206.506c-.604 0-1.205-.506-1.205-.506s-.605.506-1.207.506c-.603 0-1.206-.551-1.206-.551l-.001.045v-.9h.001v.026-.026c.007.006.605.553 1.206.553.27 0 .539-.112.756-.235.265-.139.452-.292.452-.292s.169.14.415.273c.222.13.504.254.789.254.27 0 .538-.112.753-.234.267-.139.454-.293.454-.293s.182.15.442.287c.217.124.49.24.762.24a.989.989 0 0 0 .099-.005h.005c.033-.004.066-.008.099-.014h.001c.24-.045.468-.159.646-.27.215-.121.36-.238.36-.238s.172.142.422.277c.22.128.5.25.783.25.26 0 .517-.104.729-.22.174-.088.317-.185.398-.246v-.021L30 18.27v-.147z" fill="#fff"/></g><defs><clipPath id="a"><path fill="#fff" d="M0 0h40v40H0z"/></clipPath></defs></svg>