<svg width="40" height="40" fill="none" xmlns="http://www.w3.org/2000/svg"><path fill-rule="evenodd" clip-rule="evenodd" d="M24.145 10.454c.968-1.15 1.454-2.391 1.454-3.721 0-.176-.008-.354-.028-.532-.674.035-1.392.24-2.15.609-.76.375-1.387.846-1.88 1.411-.987 1.117-1.543 2.484-1.543 3.76 0 .177.012.345.031.504 1.533.125 2.947-.664 4.116-2.03zM29.3 29.496a14.458 14.458 0 0 0 1.43-2.57c.165-.395.321-.805.469-1.234a6.056 6.056 0 0 1-1.842-1.208c-1.21-1.12-1.825-2.533-1.843-4.23-.02-2.178.97-3.876 2.971-5.089-1.118-1.589-2.799-2.47-5.036-2.651-.826-.07-1.834.108-3.028.537-1.263.464-2.008.696-2.228.696-.294 0-.964-.199-2.008-.59-1.048-.391-1.89-.59-2.533-.59a6.514 6.514 0 0 0-3.274.924 6.784 6.784 0 0 0-2.423 2.45c-.77 1.288-1.156 2.825-1.156 4.607 0 1.556.286 3.163.855 4.823.532 1.536 1.212 2.884 2.038 4.046.77 1.088 1.412 1.857 1.926 2.305.805.748 1.611 1.104 2.42 1.07.532-.018 1.228-.2 2.092-.55.862-.348 1.669-.52 2.42-.52.717 0 1.501.172 2.354.52.85.35 1.581.522 2.187.522.844-.02 1.632-.366 2.367-1.042.474-.412 1.09-1.154 1.842-2.226z" fill="#fff" style="stroke-width:1.4"/></svg>