<svg width="40" height="40" fill="none" xmlns="http://www.w3.org/2000/svg"><path fill-rule="evenodd" clip-rule="evenodd" d="M11.359 13.505c-.96-.348-1.424-1.394-1.105-2.353a1.832 1.832 0 0 1 2.354-1.104c-1.976-.727-4.184.29-4.882 2.266-.726 1.976.29 4.184 2.267 4.882l18.742 6.828-16.127 5.87c-1.976.727-4.184-.29-4.882-2.266-.726-1.976.29-4.185 2.267-4.882a5.783 5.783 0 0 0-3.458 7.439 5.783 5.783 0 0 0 7.439 3.458l17.609-6.393a3.394 3.394 0 0 0 2.034-4.359 3.357 3.357 0 0 0-2.034-2.034z" fill="#009889" style="stroke-width:1.4"/><path fill-rule="evenodd" clip-rule="evenodd" d="m28.735 15.946-16.127-5.87c-1.976-.726-4.184.291-4.882 2.296a3.802 3.802 0 0 0 2.267 4.882 5.783 5.783 0 0 1-3.458-7.439 5.783 5.783 0 0 1 7.439-3.458l17.609 6.393a3.394 3.394 0 0 1 2.034 4.359 3.357 3.357 0 0 1-2.034 2.034l-20.224 7.351c-.96.35-1.424 1.395-1.105 2.354.349.96 1.395 1.424 2.354 1.104-1.976.727-4.184-.29-4.882-2.266-.726-1.976.29-4.184 2.267-4.882z" fill="#62bda0" style="stroke-width:1.4"/></svg>