<svg width="40" height="40" fill="none" xmlns="http://www.w3.org/2000/svg"><mask id="a" mask-type="alpha" maskUnits="userSpaceOnUse" x="10" y="10" width="20" height="20"><path fill="#fff" d="M10 10h20v20H10z"/></mask><g mask="url(#a)" transform="matrix(1.4 0 0 1.4 -8 -8)" fill-rule="evenodd" clip-rule="evenodd" fill="#f26925"><path d="M23.24 17.268a.208.208 0 0 0 .05-.007l5.8-1.434a10.041 10.041 0 0 0-3.643-4.215l-2.251 5.551a.133.133 0 0 0-.012.05c0 .031.025.055.055.055zM21.145 15.9c.009.047.036.062.062.062.024 0 .044-.016.072-.045l4.105-4.345A9.954 9.954 0 0 0 20.036 10l1.11 5.9zm3.106 3.576c.034.01 5.65 1.927 5.65 1.927.065-.459.098-.927.098-1.403a9.967 9.967 0 0 0-.878-4.104l-4.891 3.45c-.03.022-.044.04-.044.063 0 .039.031.055.065.067zm-7.437-2.264a.12.12 0 0 0-.012-.049c-.01-.028-2.25-5.55-2.25-5.55a10.042 10.042 0 0 0-3.644 4.214l5.8 1.434a.205.205 0 0 0 .051.007c.03 0 .055-.024.055-.056zM19.963 10a9.953 9.953 0 0 0-5.348 1.572l4.105 4.345c.028.029.048.045.072.045.025 0 .052-.015.062-.062l1.11-5.9zm-4.216 9.476c-.033.01-5.65 1.927-5.65 1.927A10.088 10.088 0 0 1 10 20c0-1.462.314-2.851.878-4.104l4.891 3.45c.03.022.043.04.043.063 0 .039-.03.055-.065.067zM20 30c5.012 0 9.162-3.687 9.887-8.495l-3.727.52c-.057.007-.08.038-.095.078a6.405 6.405 0 0 1-4.91 4.212 2.64 2.64 0 1 0-2.31 0 6.405 6.405 0 0 1-4.91-4.212c-.014-.04-.038-.07-.095-.078l-3.728-.52C10.838 26.313 14.988 30 20 30z"/></g></svg>