<svg width="40" height="40" fill="none" xmlns="http://www.w3.org/2000/svg"><g clip-path="url(#a)" transform="matrix(1.4 0 0 1.4 -8 -8.116)"><g clip-path="url(#b)" fill="#fff"><path d="M21.116 23.58c.005-.018-.006-.032-.012-.047-.163-.412-.325-.824-.49-1.235-.034-.086-.077-.169-.115-.253a.06.06 0 0 0-.035-.033l-.073-.031c-.01-.005-.015-.012-.013-.024.001-.014.012-.013.022-.013h.653c.01 0 .02 0 .02.015.001.013-.006.018-.017.02l-.067.016c-.05.015-.071.058-.053.105l.355.903c.002.005.005.008.009.014.014-.016.018-.035.026-.052l.216-.498a.092.092 0 0 0 .004-.075c-.037-.096-.073-.193-.117-.286a.221.221 0 0 0-.16-.127l-.025-.004c-.008-.002-.008-.01-.009-.016 0-.007.004-.013.01-.014l.03-.001h.684c.013.003.033-.008.035.015.002.025-.02.016-.032.019l-.06.01c-.052.013-.078.053-.064.105.013.048.028.096.046.142.09.24.183.48.275.72.003.008.004.017.012.022.016-.001.015-.017.018-.026l.27-.706c.018-.045.026-.093.035-.14.01-.06-.017-.097-.077-.11l-.068-.017c-.012-.002-.015-.01-.014-.022.002-.01.01-.011.019-.012h.369c.011 0 .028-.008.032.013.004.02-.01.026-.026.03a.184.184 0 0 0-.074.038.166.166 0 0 0-.052.076c-.05.137-.104.273-.155.409l-.404 1.07h-.05l-.007-.023a894.96 894.96 0 0 0-.369-.982c-.002-.006-.001-.017-.011-.018-.013.005-.014.019-.018.029l-.404.957c-.005.012-.014.023-.01.038h-.06zM28.657 23.58c.007-.022-.014-.031-.024-.044l-.605-.74-.101-.124c-.014.014-.009.028-.009.04v.668c.006.085.054.134.139.14h.024c.01.001.015.006.016.016 0 .01-.005.016-.014.017H27.723a.13.13 0 0 1-.02 0c-.006-.002-.01-.006-.01-.014-.001-.01.002-.017.012-.018.023-.003.046-.005.069-.01a.09.09 0 0 0 .078-.073.278.278 0 0 0 .008-.069v-.757a.093.093 0 0 0-.025-.067.2.2 0 0 0-.112-.07c-.01-.002-.02-.007-.017-.02.001-.01.011-.01.02-.01.116 0 .232.002.349 0 .025 0 .034.018.046.033l.45.571.053.065c.014-.014.01-.028.01-.04v-.409c-.001-.025-.005-.05-.006-.074-.003-.057-.033-.092-.086-.11l-.033-.008c-.012-.003-.032.002-.03-.017.003-.017.023-.01.034-.01h.3a.66.66 0 0 1 .02 0c.007 0 .012.004.012.012a.014.014 0 0 1-.01.014l-.054.015c-.048.014-.073.048-.077.098a1.295 1.295 0 0 0-.004.094v.847c0 .018.003.037-.003.055h-.04zM29.436 23.58c-.024-.015-.052-.02-.078-.026a.55.55 0 0 1-.408-.562.579.579 0 0 1 .306-.489c.18-.1.364-.1.552-.03.016.006.03.013.046.018.053.02.084.006.108-.045l.004-.015c.005-.008.014-.007.022-.006.008 0 .011.007.011.014l.001.02a158.93 158.93 0 0 1 0 .329c0 .01-.005.016-.015.016-.008 0-.017.001-.02-.009l-.013-.038a.35.35 0 0 0-.277-.257.311.311 0 0 0-.324.116.451.451 0 0 0-.093.232c-.016.126-.011.252.018.376a.51.51 0 0 0 .067.155.22.22 0 0 0 .136.1c.142.037.274.023.39-.075.034-.03.067-.062.102-.1.012.053.006.093-.035.127a.572.572 0 0 1-.247.134c-.008.002-.025-.004-.024.015h-.23zM13.114 20.77l.003.02c0 .037 0 .037-.035.038-.036 0-.073-.002-.11.002-.094.01-.176.043-.227.13-.012.02-.022.041-.02.066v2.247c0 .054.02.092.059.124a.243.243 0 0 0 .159.062l.14.001c.033 0 .033.001.034.037v.01c0 .036 0 .037-.04.037h-1.366c-.051 0-.064-.019-.052-.07.004-.013.012-.013.022-.014h.11l.055-.002c.115-.003.186-.095.2-.21.005-.034.004-.069.005-.104v-.922c0-.017-.009-.023-.025-.022h-.918c-.037 0-.037 0-.037.04v.946c0 .057.01.113.035.164a.188.188 0 0 0 .134.101c.061.013.123.008.184.01.012 0 .031-.007.036.008a.125.125 0 0 1 0 .068c-.002.007-.01.007-.018.007h-1.401c-.04 0-.04 0-.04-.043 0-.04 0-.04.042-.04.066-.003.133.004.199-.007a.184.184 0 0 0 .156-.183v-2.252a.103.103 0 0 0-.045-.092c-.083-.063-.17-.11-.279-.1a.294.294 0 0 1-.04 0c-.03 0-.038-.01-.033-.04.002-.011.009-.016.02-.016h1.417c.02-.003.025.008.025.026 0 .019-.003.032-.027.031a.772.772 0 0 0-.084.001.29.29 0 0 0-.265.187.287.287 0 0 0-.016.113v.867c0 .034 0 .034.037.036h.917c.02 0 .027-.01.026-.027v-.837c0-.065-.001-.13-.023-.192a.136.136 0 0 0-.064-.079.425.425 0 0 0-.245-.07c-.012.002-.023 0-.035.001-.025.002-.025-.014-.026-.032 0-.02.007-.028.026-.026h1.43zM14.366 18.283c.017.017.038.019.057.025.108.036.217.071.324.113a.578.578 0 0 1 .377.464.626.626 0 0 1-.168.56.947.947 0 0 1-.452.259c-.147.04-.297.06-.449.06H12.63c-.014 0-.036.008-.04-.01a.165.165 0 0 1 0-.063c.002-.011.016-.01.026-.01.047.001.093 0 .14-.006.02-.003.04-.005.058-.012.054-.02.099-.048.12-.109a.742.742 0 0 0 .042-.203c.002-.042.004-.083.004-.125v-1.718a.991.991 0 0 0-.023-.237.231.231 0 0 0-.16-.18.714.714 0 0 0-.18-.035c-.02-.002-.03-.005-.03-.028s.01-.03.03-.028h.015l1.361.001c.15 0 .299.01.446.042a.836.836 0 0 1 .166.052c.212.094.335.26.38.484a.566.566 0 0 1-.014.281.354.354 0 0 1-.102.162c-.038.034-.07.075-.113.105a.966.966 0 0 1-.266.121c-.04.013-.08.023-.124.035zm-.77.629v.308c0 .055-.002.11 0 .164.005.128.069.217.22.213.104-.002.203-.028.302-.053a.084.084 0 0 0 .034-.021.726.726 0 0 0 .221-.314.663.663 0 0 0-.08-.58.427.427 0 0 0-.267-.187 1.608 1.608 0 0 0-.39-.044c-.04 0-.04 0-.04.04v.474zm0-1.23v.508c0 .038 0 .038.038.038.081.001.163 0 .244-.01a.41.41 0 0 0 .25-.11c.04-.04.075-.084.11-.128a.33.33 0 0 0 .07-.147.574.574 0 0 0-.074-.454.224.224 0 0 0-.097-.11.867.867 0 0 0-.218-.096 1.14 1.14 0 0 0-.286-.032c-.037 0-.037 0-.038.038v.503zM18.148 21.944h.404c.01.002.012.01.011.019 0 .007-.004.012-.012.012l-.045.001c-.058.006-.11.025-.141.08-.016.028-.018.06-.021.09-.004.034-.004.067-.004.1v.997c0 .05.001.099.011.148.014.065.05.098.115.102.025.002.05.002.075.002.017 0 .024.007.023.024 0 .016-.003.026-.021.025h-.783c-.015.001-.021-.006-.021-.02s0-.028.019-.029h.065c.085-.004.117-.034.132-.118a.502.502 0 0 0 .01-.09v-.483c0-.035-.001-.036-.035-.036h-.494c-.035 0-.035.001-.035.037v.583c0 .052.045.098.101.104a.622.622 0 0 0 .08.002c.02 0 .03.007.03.029-.001.024-.018.02-.032.02h-.763c-.012 0-.028.007-.032-.014-.005-.022.003-.033.027-.034.024-.001.047 0 .07-.002a.13.13 0 0 0 .125-.119.687.687 0 0 0 .003-.074v-1.111l-.001-.05c-.005-.097-.065-.157-.164-.163H16.8c-.01 0-.014-.007-.015-.016 0-.01.005-.015.015-.016a1 1 0 0 1 .03 0h.733c.016 0 .044-.01.046.014.002.034-.03.016-.046.017-.054.005-.105.016-.14.063a.1.1 0 0 0-.023.064v.528c0 .04.001.041.042.041h.484c.038 0 .039 0 .039-.037v-.439c0-.041-.008-.082-.015-.123-.005-.034-.034-.052-.06-.068a.19.19 0 0 0-.1-.028h-.035c-.01 0-.015-.006-.015-.016s.004-.015.014-.016h.394zM22.418 18.168h.389c.01 0 .02.002.02.015.001.014-.008.017-.019.017-.026 0-.053 0-.079.008-.073.019-.106.056-.118.13a.735.735 0 0 0-.01.123l.001.394c0 .039 0 .04.038.04h.488c.037 0 .038-.001.038-.04l.001-.543c0-.027-.01-.043-.03-.058-.046-.033-.093-.06-.152-.054h-.015c-.01-.002-.014-.007-.013-.017 0-.007.003-.013.011-.014a.257.257 0 0 1 .025 0h.748c.014 0 .038-.012.038.017 0 .023-.023.013-.036.013a.252.252 0 0 0-.092.019.15.15 0 0 0-.093.125.626.626 0 0 0-.004.084v1.081c0 .025 0 .05.003.075.008.085.057.13.142.132h.025c.056.001.058.001.056.027-.004.044-.04.021-.058.022-.133.002-.266 0-.399 0h-.334c-.031 0-.035-.004-.033-.028.001-.014.007-.02.022-.02.028 0 .056 0 .085-.002.063-.004.103-.047.103-.11v-.573c0-.04 0-.04-.037-.04h-.488c-.038 0-.039 0-.039.038v.483c0 .036.007.07.013.104a.125.125 0 0 0 .11.098c.027.002.054.002.08.002.018 0 .023.009.024.025 0 .016-.005.025-.023.024h-.783c-.015 0-.02-.008-.02-.022.001-.014 0-.027.02-.027l.075-.001a.129.129 0 0 0 .126-.111.502.502 0 0 0 .006-.08v-1.11l-.001-.045c-.007-.105-.065-.162-.17-.169h-.04c-.01 0-.015-.005-.015-.016 0-.01.005-.015.015-.015h.399zM25.931 19.012l.08.113.281.398c.036.05.074.099.117.142.026.026.054.047.09.049.025.001.025.015.025.033 0 .021-.015.017-.028.017h-.229c-.061 0-.123-.002-.184.001-.043.003-.069-.01-.094-.046-.151-.217-.305-.43-.458-.646-.012-.017-.022-.036-.05-.035-.083.003-.069-.007-.07.068a54.244 54.244 0 0 0 .004.493c.005.07.044.108.114.114a.706.706 0 0 0 .07.002c.018 0 .022.01.023.025 0 .016-.004.026-.022.025h-.768c-.016 0-.02-.01-.019-.023 0-.013 0-.027.02-.027h.07a.108.108 0 0 0 .053-.013c.04-.022.073-.046.074-.101.001-.043.008-.086.008-.129v-1.01c0-.052-.004-.103-.011-.155a.069.069 0 0 0-.03-.049.23.23 0 0 0-.116-.05c-.017-.002-.033-.006-.05-.007-.012-.001-.018-.006-.017-.019.001-.01.007-.013.017-.013h.02l.822.001c.093.001.186.009.278.027.204.039.426.29.293.58a.418.418 0 0 1-.266.218c-.012.005-.025.008-.038.012l-.009.005zm-.52-.408v.318c0 .035 0 .035.036.035a.79.79 0 0 0 .223-.02c.109-.03.183-.099.211-.21a.527.527 0 0 0-.002-.25.268.268 0 0 0-.204-.209c-.075-.021-.151-.02-.228-.019-.035 0-.036 0-.036.036v.318zM18.165 19.008l.024.038.329.487a.753.753 0 0 0 .153.155.1.1 0 0 0 .059.025c.023.001.033.009.03.033-.003.028-.024.018-.037.018h-.15l-.274.001c-.03.001-.048-.008-.065-.033-.154-.218-.31-.436-.465-.653-.01-.015-.016-.037-.036-.039a.583.583 0 0 0-.09 0c-.012 0-.013.013-.013.023V19.482c0 .05.006.098.021.147.018.056.058.078.11.084a.477.477 0 0 0 .07.002c.022 0 .024.012.024.029.001.019-.01.02-.025.02h-.752c-.015 0-.03.004-.031-.02 0-.021.007-.03.028-.029a.36.36 0 0 0 .094-.007c.045-.01.073-.036.082-.083a.505.505 0 0 0 .005-.09v-1.17c0-.107-.031-.127-.126-.154-.022-.007-.046-.007-.07-.01-.009-.002-.013-.009-.013-.018 0-.011.008-.014.017-.014H17.886c.092.001.183.012.273.023.085.01.156.05.213.11a.484.484 0 0 1 .13.192c.038.132.014.317-.14.42a.559.559 0 0 1-.197.094zm-.536-.406v.319c0 .036 0 .036.035.036.08.002.16 0 .237-.02a.276.276 0 0 0 .211-.197.514.514 0 0 0 .005-.246.315.315 0 0 0-.257-.237c-.062-.008-.123-.007-.184-.008-.045 0-.047-.008-.047.045v.308zM19.412 18.93c.014 0 .022-.012.031-.02l.571-.475a.423.423 0 0 0 .077-.078c.041-.057.029-.102-.037-.13-.024-.011-.051-.012-.077-.018l-.029-.007c-.01-.003-.01-.012-.01-.02.001-.011.009-.013.018-.013H20.529c.01 0 .02 0 .022.013 0 .012-.004.02-.015.023a.718.718 0 0 1-.063.013.158.158 0 0 0-.085.04c-.2.18-.416.34-.626.51l-.014.01c.006.02.019.032.03.045l.558.708c.021.027.045.053.068.079a.33.33 0 0 0 .2.104c.02.003.03.008.028.03 0 .014-.005.021-.02.02h-.783c-.014.001-.022-.004-.02-.02 0-.012-.004-.026.016-.03a.439.439 0 0 0 .064-.011c.042-.012.058-.045.037-.084a1.057 1.057 0 0 0-.114-.175 36.06 36.06 0 0 0-.33-.4c-.009-.011-.015-.037-.035-.027-.018.01-.037.025-.04.048-.002.013-.001.026-.001.04v.493c0 .022-.01.048.012.066.028.024.056.047.095.05.02.001.04.002.06.001.02 0 .026.007.027.026 0 .022-.012.024-.028.024h-.749c-.013 0-.031.006-.032-.019 0-.02.003-.032.027-.03l.064-.001a.13.13 0 0 0 .13-.118.561.561 0 0 0 .005-.075v-1.106c0-.027-.003-.053-.003-.08-.001-.052-.029-.086-.074-.109a.238.238 0 0 0-.1-.027h-.03c-.01 0-.02-.003-.019-.017.001-.014.011-.014.021-.015h.729c.013 0 .037-.011.04.015.002.027-.024.018-.037.02-.046.01-.09.022-.122.061a.058.058 0 0 0-.017.04l.001.618c0 .002.003.005.005.008zM16.116 19.765h-.664c-.014 0-.021-.006-.02-.021 0-.014 0-.028.019-.028h.065c.102 0 .129-.043.142-.135.002-.015 0-.03 0-.045 0-.4 0-.8.002-1.2 0-.03-.007-.052-.028-.071-.043-.04-.09-.07-.15-.065h-.02c-.012-.002-.03.005-.03-.017.002-.02.02-.014.032-.014H16.72c.06 0 .053-.005.053.052v.384c0 .03-.009.036-.034.032-.016-.002-.018-.014-.02-.024a.819.819 0 0 0-.023-.097.365.365 0 0 0-.334-.248c-.094 0-.19 0-.284-.002-.022 0-.032.005-.032.03v.583c0 .025.008.031.032.03a.379.379 0 0 0 .103-.014.192.192 0 0 0 .105-.078.61.61 0 0 0 .092-.245c.003-.021.009-.039.037-.034.012.002.019.006.019.018v.777c0 .016.001.03-.022.03-.02.002-.03-.006-.034-.026a.59.59 0 0 0-.08-.234.226.226 0 0 0-.17-.106c-.082-.012-.082-.013-.082.07v.453c0 .034.004.067.02.097.015.025.032.047.065.048.111.003.223.01.333-.015a.454.454 0 0 0 .35-.32.523.523 0 0 0 .018-.061c.005-.024.022-.023.038-.02.021.003.013.02.011.031l-.068.438-.006.03c-.001.011-.007.017-.02.017h-.673zM27.246 19.765h-.673c-.016 0-.018-.012-.017-.024 0-.013.001-.024.017-.025l.08-.001c.065-.003.105-.037.117-.1a.68.68 0 0 0 .012-.124V18.38c.003-.12-.068-.17-.174-.18h-.035c-.01 0-.016-.003-.017-.014 0-.013.007-.017.019-.017h1.261c.046 0 .045-.004.044.042V18.619c0 .009-.002.017-.013.018-.008 0-.017 0-.02-.01-.005-.009-.007-.019-.01-.028l-.046-.126a.31.31 0 0 0-.288-.203c-.106-.006-.213-.002-.32-.004-.024 0-.03.01-.03.033v.578c0 .027.01.032.035.033.135.002.22-.053.27-.18a.446.446 0 0 0 .033-.164c0-.023.01-.028.03-.027.016 0 .02.007.02.02v.783c.001.018-.01.022-.025.022-.016 0-.025-.006-.024-.023a.477.477 0 0 0-.063-.228c-.058-.096-.151-.116-.253-.12-.022 0-.022.014-.022.03v.209c.001.103-.006.206.007.308.004.03.005.059.028.083.027.03.058.046.1.045.104-.003.209.005.312-.022a.42.42 0 0 0 .283-.217 1.394 1.394 0 0 0 .072-.164c.007-.022.026-.018.041-.015.017.003.01.018.009.029l-.07.447c-.007.042 0 .039-.047.039h-.643zM15.927 21.944h.668c.046 0 .043-.004.043.043v.378c0 .007-.002.014-.01.015-.01.001-.018 0-.022-.007-.005-.009-.008-.019-.012-.028l-.059-.164a.094.094 0 0 0-.033-.048l-.097-.07a.109.109 0 0 0-.056-.018c-.066-.005-.133-.003-.2-.004-.02 0-.03.009-.028.03v1.23c0 .04.004.079.015.118.013.046.045.064.086.072.027.005.056.004.084.003.02 0 .026.009.026.027 0 .018-.008.024-.024.023h-.778c-.017 0-.024-.007-.024-.024 0-.015.004-.026.022-.025.025 0 .05 0 .075-.002a.132.132 0 0 0 .126-.123c.002-.026.002-.053.002-.08V22.066c.002-.016-.005-.024-.022-.024-.078.002-.157-.004-.234.014a.214.214 0 0 0-.114.067.428.428 0 0 0-.102.196l-.01.049c-.002.01-.008.014-.018.014-.01 0-.015-.006-.016-.015v-.384c0-.037 0-.038.038-.038h.674zM20.745 19.499V19.215c.001-.007.003-.013.011-.014.009-.002.018-.001.021.008l.01.033c.019.078.048.152.088.221a.504.504 0 0 0 .347.245.291.291 0 0 0 .296-.088c.087-.096.084-.174.013-.289a.266.266 0 0 0-.103-.093c-.082-.043-.161-.092-.245-.132a1.452 1.452 0 0 1-.255-.155c-.17-.127-.211-.299-.168-.496a.354.354 0 0 1 .15-.217.543.543 0 0 1 .507-.07c.048.016.098.028.144.053.023.013.048.01.073.01.016 0 .027-.006.037-.02.014-.018.028-.037.036-.059.005-.012.014-.017.028-.014.013.003.01.014.011.024l.003.07c.005.134.01.268.013.403 0 .012.009.03-.016.033-.021.002-.036-.001-.04-.025-.002-.015-.007-.03-.01-.044a.537.537 0 0 0-.254-.326.335.335 0 0 0-.36-.01.19.19 0 0 0-.072.243c.03.062.076.107.137.138.115.06.23.121.343.183.073.04.14.088.207.138a.394.394 0 0 1 .159.372c-.021.212-.147.35-.342.426a.603.603 0 0 1-.31.028.707.707 0 0 1-.202-.068.25.25 0 0 0-.12-.021c-.037.001-.064.016-.08.05l-.012.021c-.007.015-.014.028-.033.023-.02-.004-.011-.021-.011-.033V19.5zM25.524 22.774c.016-.008.02-.025.029-.038l.244-.394a2.21 2.21 0 0 0 .117-.225c.024-.052.012-.08-.042-.102-.029-.012-.06-.02-.089-.03l-.028-.01c-.006-.004-.005-.012-.004-.019 0-.007.005-.011.013-.012H26.213c.01 0 .02 0 .022.013.001.012-.003.02-.014.024-.022.008-.043.017-.065.023a.143.143 0 0 0-.085.065c-.025.039-.053.076-.076.116-.13.223-.267.44-.4.66a.134.134 0 0 0-.022.074v.344a.66.66 0 0 0 .011.124c.013.068.048.102.117.106.034.002.07.002.104.002.019 0 .027.006.028.026 0 .022-.013.024-.03.023H24.962c-.015 0-.021-.006-.021-.021 0-.014.001-.027.02-.028h.03c.03 0 .06 0 .09-.002.058-.005.095-.04.106-.1a.654.654 0 0 0 .012-.128l.001-.284a.133.133 0 0 0-.02-.07l-.348-.61c-.013-.022-.025-.046-.036-.07a1.532 1.532 0 0 0-.09-.156c-.034-.054-.08-.091-.147-.098-.012-.001-.023-.003-.02-.02 0-.014.011-.013.021-.013H25.282c.01 0 .015.007.014.016 0 .01-.005.015-.015.016h-.02a.166.166 0 0 0-.1.037c-.023.017-.028.033-.02.059.02.06.048.116.079.171l.28.5c.007.01.01.024.024.031zM19.94 23.544h-.354c-.012 0-.028.005-.034-.012-.007-.02.003-.035.024-.037.033-.002.067 0 .1-.004a.077.077 0 0 0 .063-.11c-.041-.083-.071-.171-.108-.257-.011-.025-.024-.033-.051-.033-.165.002-.33.001-.494 0-.024 0-.039.006-.049.03-.029.07-.065.139-.079.214-.014.078.01.122.085.144.03.01.061.014.093.015.018 0 .028.006.028.026 0 .02-.01.024-.028.024h-.478c-.014 0-.027.001-.028-.019-.001-.02.004-.03.026-.033a.192.192 0 0 0 .145-.101c.046-.077.084-.158.12-.24l.548-1.199c.006-.014.008-.038.026-.038.02 0 .02.023.027.038l.554 1.245c.025.057.046.117.077.172.036.062.08.114.158.125.019.002.017.016.018.029 0 .02-.01.021-.026.021h-.364zm-.373-.552-.226-.53-.24.53h.466zM24.097 23.544h-.354c-.012 0-.027.006-.032-.014-.006-.021.002-.034.026-.035.032-.002.063 0 .095-.004.054-.005.09-.058.066-.108-.04-.086-.073-.177-.11-.265-.01-.02-.02-.027-.042-.026h-.508c-.016 0-.03 0-.037.018-.03.073-.068.144-.084.223a.162.162 0 0 0-.003.06.094.094 0 0 0 .062.077.377.377 0 0 0 .117.024c.027.002.032.01.03.033-.002.009-.004.016-.015.016h-.488c-.028 0-.034-.007-.03-.03.001-.015.01-.019.023-.02a.197.197 0 0 0 .151-.109c.031-.055.06-.11.087-.168l.574-1.258c.002-.006.004-.012.008-.018.006-.01.006-.025.02-.027.018-.002.018.017.023.028.095.211.19.424.283.636l.316.714a.459.459 0 0 0 .1.159c.024.022.049.04.081.042.022.001.035.007.032.032-.002.028-.023.02-.037.02h-.354zm-.837-.554h.465l-.224-.528-.24.528zM14.706 23.544h-.349c-.011 0-.027.005-.033-.013-.006-.021.003-.034.026-.036.03-.001.06 0 .09-.003.05-.005.058-.018.063-.066.006-.054-.016-.1-.037-.147-.024-.055-.053-.107-.08-.16-.008-.02-.019-.028-.041-.028h-.494c-.015 0-.029.001-.037.018-.033.064-.073.125-.094.197-.026.092.009.15.106.18.024.007.049.006.074.008.017.001.022.01.022.026 0 .017-.006.024-.023.024h-.464c-.021 0-.035-.003-.032-.029.001-.014.006-.02.02-.023.063-.012.106-.053.143-.101a.92.92 0 0 0 .106-.191l.551-1.242c.007-.016.009-.043.028-.043.023 0 .023.028.03.045.184.409.366.818.548 1.227.026.06.047.12.078.178a.29.29 0 0 0 .083.098.13.13 0 0 0 .063.028c.02.003.036.005.034.032-.003.03-.026.02-.041.02l-.34.001zm-.848-.553h.481l-.24-.529-.241.529zM24.291 18.168h.394c.01.001.014.007.014.017 0 .01-.006.014-.016.015h-.04c-.057.007-.11.023-.142.078-.017.03-.018.064-.022.096-.004.03-.003.06-.003.09v1.006a.71.71 0 0 0 .01.138c.015.071.05.104.122.107h.065c.019 0 .026.006.027.026 0 .022-.01.024-.028.024h-.762c-.02 0-.037 0-.033-.029.002-.014.007-.02.021-.02.025 0 .05 0 .075-.002.066-.002.103-.036.116-.1a.64.64 0 0 0 .012-.129V18.45c0-.05-.005-.1-.013-.149-.006-.038-.036-.057-.066-.075a.204.204 0 0 0-.105-.026l-.03-.001c-.007-.001-.01-.008-.01-.015 0-.008.003-.014.01-.015h.405zM27.48 23.002v.404c.003.091.036.115.114.114l.03.001c.01 0 .014.007.014.017 0 .01-.007.014-.016.015h-.548c-.01 0-.02-.002-.02-.015 0-.014.008-.017.019-.017l.05-.001c.049-.003.07-.021.083-.07.005-.017.005-.035.005-.054v-.811c.002-.076-.04-.105-.11-.115-.015-.003-.044.012-.043-.015 0-.018.028-.009.043-.009h.523c.007 0 .013.004.012.012 0 .004-.006.009-.01.01-.008.002-.016.001-.024.002-.09.006-.12.039-.121.129v.403z"/></g></g><defs><clipPath id="a"><path fill="#fff" d="M0 0h40v40H0z"/></clipPath><clipPath id="b"><path fill="#fff" transform="translate(10 17)" d="M0 0h20v6.58H0z"/></clipPath></defs></svg>