<svg width="40" height="40" fill="none" xmlns="http://www.w3.org/2000/svg"><g clip-path="url(#a)" transform="matrix(1.4 0 0 1.4 -7.6 -8.186)"><g clip-path="url(#b)" fill="#fff"><path d="M9 21.866v-2.86c.023-.002.047-.005.07-.005.42 0 .84-.003 1.26.001.203.002.4.034.581.131.397.215.503.745.21 1.067-.058.064-.133.111-.204.17.172.07.305.182.384.352.217.472-.049.992-.572 1.11a1.647 1.647 0 0 1-.343.037c-.442.004-.884.002-1.326.002-.019 0-.038-.003-.06-.005Zm.69-.562c.242 0 .478.01.712-.004.138-.008.226-.114.243-.241.028-.203-.094-.353-.306-.362-.198-.009-.396-.004-.593-.005-.018 0-.036.005-.057.007v.605zm0-1.153c.217 0 .428.009.637-.003.16-.01.258-.129.263-.285.006-.153-.079-.273-.244-.287-.216-.017-.434-.004-.656-.004v.579zM19.57 19h.085c.376 0 .753-.001 1.13.001.212.002.42.032.615.125.339.16.52.48.496.855a.894.894 0 0 1-.487.769l-.053.032.625 1.089h-.348c-.118 0-.236-.004-.354.001-.062.003-.092-.02-.12-.073-.153-.278-.311-.554-.465-.832-.025-.044-.052-.062-.103-.06-.115.004-.23.001-.352.001v.958h-.669v-2.865zm.672 1.332c.205 0 .403.006.6-.003a.437.437 0 0 0 .199-.07c.131-.082.174-.21.159-.362-.016-.158-.1-.276-.253-.295-.231-.03-.467-.028-.705-.039v.769zM26.832 21.864v-2.858h.639v1.591c.048-.052.08-.087.11-.122.206-.23.411-.459.618-.686a.108.108 0 0 1 .068-.035c.222-.003.444-.002.68-.002-.022.029-.034.048-.05.065-.202.22-.402.443-.607.661-.044.047-.044.078-.012.132.225.385.447.773.67 1.16l.052.094c-.027.003-.047.007-.067.007-.197 0-.395-.002-.593.001-.055.001-.083-.018-.11-.064-.133-.24-.27-.476-.407-.714l-.04-.068c-.1.107-.197.207-.289.312-.016.019-.019.055-.02.084v.442h-.642zM17.217 19.005h.642v1.588l.335-.375c.124-.14.247-.28.373-.418.02-.022.053-.045.08-.046.225-.003.45-.002.694-.002l-.719.785.768 1.334c-.188 0-.361-.013-.531.004-.162.016-.245-.045-.314-.186-.112-.225-.247-.439-.376-.664-.1.107-.196.207-.289.311-.015.017-.018.05-.018.076-.002.148-.001.296-.001.452h-.644v-2.86zM12.96 20.416l-.354-.4c.067-.045.126-.093.192-.13.363-.207.75-.256 1.153-.157.389.095.605.38.61.784.004.238 0 .477.001.716 0 .156.038.187.195.164.01-.002.022 0 .04 0 0 .137 0 .274-.003.411 0 .017-.025.04-.044.047a.942.942 0 0 1-.47.042.393.393 0 0 1-.313-.25.847.847 0 0 1-.527.26 1.59 1.59 0 0 1-.463-.024c-.239-.053-.38-.218-.424-.461-.046-.269.021-.497.253-.658.196-.136.423-.163.653-.152.148.007.294.03.442.046.057-.18-.063-.375-.265-.419-.218-.047-.412.014-.592.134l-.068.047h-.016zm.633.555c-.06.005-.108.005-.153.015-.162.034-.24.132-.227.28.01.126.11.209.265.22.272.018.445-.145.437-.408-.001-.044-.015-.063-.06-.07-.091-.01-.183-.025-.262-.037z"/><path d="M23.15 19.67c.537.004.987.31 1.12.782.204.72-.224 1.39-.974 1.466-.466.047-.864-.094-1.13-.493-.396-.594-.172-1.587.788-1.735.065-.01.131-.014.197-.02zm-.523 1.115c.004.183.048.344.19.461.223.186.566.15.742-.073.188-.239.147-.661-.087-.832a.52.52 0 0 0-.567-.045c-.203.1-.268.283-.279.489zM17.045 20.262l-.533.274-.036-.054a.49.49 0 0 0-.519-.239.493.493 0 0 0-.401.416.73.73 0 0 0 .036.405.438.438 0 0 0 .36.289c.203.028.382-.022.513-.193.02-.026.037-.054.058-.084l.517.267c-.144.408-.685.656-1.23.57-.564-.09-.899-.485-.913-1.075-.014-.583.31-1.02.84-1.13.581-.122 1.121.103 1.308.554zM26.146 21.076l.519.268c-.154.412-.696.66-1.238.568-.557-.095-.895-.488-.904-1.054-.011-.608.298-1.034.834-1.15.582-.124 1.122.1 1.312.555l-.533.274c-.013-.018-.024-.033-.033-.049a.475.475 0 0 0-.499-.247c-.22.026-.355.161-.412.372a.67.67 0 0 0 .049.503c.162.307.626.333.843.05.021-.027.04-.057.062-.09zM12.28 19.005v2.86h-.646v-2.86h.645z"/></g></g><defs><clipPath id="a"><path fill="#fff" d="M0 0h40v40H0z"/></clipPath><clipPath id="b"><path fill="#fff" transform="translate(9 19)" d="M0 0h20v2.931H0z"/></clipPath></defs></svg>