<svg width="40" height="40" fill="none" xmlns="http://www.w3.org/2000/svg"><path d="M23.74 24.28c-.323.242-.565.404-.565.404-3.716 2.746-8.483 4.039-8.483 4.039s-.323.08-.727.242c2.1 2.1 5.01 3.393 8.24 3.393 3.878 0 7.352-1.858 9.452-4.847-2.1.808-5.008-.727-7.917-3.231z" fill="url(#a)" style="fill:url(#a);stroke-width:1.4"/><path d="M33.92 19.917v-.242c0-.162 0-.324-.082-.485v-.243c0-.161-.08-.404-.08-.565v-.08c-.081-.243-.081-.486-.162-.647 0-.08 0-.08-.08-.162-.081-.161-.081-.323-.162-.484 0-.081-.081-.162-.081-.162-.08-.161-.08-.323-.162-.485 0-.08-.08-.08-.08-.161-.081-.162-.162-.404-.243-.566 0-.08-.08-.161-.08-.161-.081-.162-.162-.243-.162-.404l-.081-.081c-.97 1.939-3.716 3.716-7.109 4.928.162.646.242 1.454 0 2.181-.242.889-1.05 1.697-1.616 2.181 2.828 2.505 5.817 4.04 7.917 3.312.404-.565.808-1.13 1.05-1.777 0-.08.081-.08.081-.161.081-.081.081-.243.162-.324.08-.08.08-.161.161-.323 0-.08.081-.161.081-.161.081-.162.081-.243.162-.323 0-.081 0-.081.08-.162.081-.162.081-.242.162-.404v-.08c.162-.485.242-.97.323-1.455v-.08c0-.243.081-.405.081-.647v-.889c-.08-.403-.08-.646-.08-.888z" fill="url(#b)" style="fill:url(#b);stroke-width:1.4"/><path d="M32.061 14.262c-.08-.08-.161-.242-.242-.323-.162-.162-.243-.404-.404-.566-.08-.08-.08-.161-.162-.242-.08-.162-.242-.242-.323-.404a11.824 11.824 0 0 0-8.725-3.797c-1.13 0-2.18.162-3.23.485.645.727 1.13 1.212 1.13 1.212s3.231 3.716 4.847 7.998c0 0 .242.484.323 1.13 3.312-1.292 6.14-2.989 7.11-4.927-.082-.162-.162-.404-.324-.566z" fill="url(#c)" style="fill:url(#c);stroke-width:1.4"/><path d="M25.356 19.836c-.162-.646-.323-1.13-.323-1.13-1.616-4.282-4.847-7.999-4.847-7.999s-.485-.565-1.131-1.211c-.162.08-.243.08-.404.161h-.081c-.162.081-.242.081-.404.162h-.08c-.405.161-.808.323-1.212.565-.081.081-.162.081-.324.162-.08 0-.08.08-.161.08-.08.081-.162.081-.242.162-.081 0-.162.08-.162.08-.08.082-.162.082-.242.162-.081.081-.162.081-.243.162-.08.08-.161.08-.161.162l-.243.242-.08.08c-.162.082-.243.243-.404.324l-.081.08c-.08.082-.242.162-.323.243-2.343 2.02-3.636 5.009-3.636 8.32 0 1.132.162 2.182.485 3.232.242.727.485 1.454.889 2.1v.082c0 .161.08.242.161.323 0 0 0 .08.081.08.08.081.162.243.242.324.243.323.485.727.728 1.05 0 .08.08.08.08.161l.243.243.161.161c.081.081.162.162.162.243l.161.161.162.162c.404-.081.727-.243.727-.243s4.766-1.373 8.482-4.039c0 0 .243-.161.566-.404.565-.484 1.292-1.292 1.616-2.18.08-.809 0-1.617-.162-2.263z" fill="url(#d)" style="fill:url(#d);stroke-width:1.4"/><path d="M18.166 16.605c-.727-2.02-1.858-3.959-2.827-5.332-1.05-1.616-1.94-2.666-1.94-2.666s-5.33 2.424-6.947 7.755c-1.615 5.332 1.616 10.26 1.616 10.26s1.616-.485 3.635-1.373c1.535-.647 3.232-1.535 4.767-2.666 0 0 1.696-1.131 2.1-2.585.323-1.455-.404-3.393-.404-3.393z" fill="url(#e)" style="fill:url(#e);stroke-width:1.4"/><defs><linearGradient id="a" x1="18.663" y1="29.474" x2="25.49" y2="22.647" gradientUnits="userSpaceOnUse" gradientTransform="matrix(1.4 0 0 1.4 -8 -8.193)"><stop stop-color="#C4CA80"/><stop offset=".505" stop-color="#DBE08C"/></linearGradient><linearGradient id="b" x1="29.533" y1="16.852" x2="24.935" y2="24.817" gradientUnits="userSpaceOnUse" gradientTransform="matrix(1.4 0 0 1.4 -8 -8.193)"><stop stop-color="#9FBC6E"/><stop offset=".403" stop-color="#AFCE79"/></linearGradient><linearGradient id="c" x1="27.208" y1="18.619" x2="19.587" y2="12.224" gradientUnits="userSpaceOnUse" gradientTransform="matrix(1.4 0 0 1.4 -8 -8.193)"><stop stop-color="#9EC382"/><stop offset=".164" stop-color="#83B06B"/><stop offset=".323" stop-color="#70A35A"/><stop offset=".432" stop-color="#699E54"/></linearGradient><radialGradient id="d" cx="0" cy="0" r="1" gradientUnits="userSpaceOnUse" gradientTransform="matrix(8.70682 0 0 8.70682 18.015 19.166)"><stop stop-color="#496F93"/><stop offset=".86" stop-color="#6799CB"/></radialGradient><radialGradient id="e" cx="0" cy="0" r="1" gradientUnits="userSpaceOnUse" gradientTransform="matrix(7.80212 0 0 7.80212 12.27 17.642)"><stop stop-color="#E6F2F8"/><stop offset=".09" stop-color="#D1E3F1"/><stop offset=".279" stop-color="#ABC9E3"/><stop offset=".467" stop-color="#8DB4D9"/><stop offset=".652" stop-color="#78A5D1"/><stop offset=".832" stop-color="#6B9CCD"/><stop offset="1" stop-color="#6799CB"/></radialGradient></defs></svg>