<svg width="40" height="40" fill="none" xmlns="http://www.w3.org/2000/svg"><path fill-rule="evenodd" clip-rule="evenodd" d="M15.967 18.41c.042.046.09.085.137.127l.367.329.633.565.36.324.65.584c.155.138.307.277.461.415.006.005.009.012.017.007.006-.002.003-.01.003-.015v-1.274c0-.027.007-.035.035-.035h.4c.024 0 .032.004.032.03V21.4c0 .021-.005.03-.028.03-.13-.002-.259-.002-.389 0a.077.077 0 0 1-.056-.023l-.609-.546c-.165-.148-.33-.297-.497-.445l-.822-.736-.46-.413-.242-.217c-.007-.005-.012-.016-.021-.012-.009.005-.003.014-.003.023v2.322c0 .045 0 .047-.045.047-.127 0-.256-.002-.384 0-.028 0-.035-.007-.035-.035v-2.987z" fill="#becc32" style="stroke-width:1.4"/><path fill-rule="evenodd" clip-rule="evenodd" d="M29.471 18.41v.426c.002.019-.005.026-.023.024H27.677c-.14 0-.282.004-.422.027-.166.026-.327.07-.473.158a.833.833 0 0 0-.375.5 1.41 1.41 0 0 0-.046.495c.01.16.044.314.121.455a.8.8 0 0 0 .429.364c.162.065.33.091.502.105.125.01.25.009.374.009h1.648c.036 0 .036 0 .036.036 0 .132 0 .26.002.392 0 .023-.007.03-.031.03-.652-.002-1.306 0-1.959-.002a2.597 2.597 0 0 1-.695-.094 1.21 1.21 0 0 1-.555-.308 1.077 1.077 0 0 1-.25-.421 2.088 2.088 0 0 1-.094-.595 2.4 2.4 0 0 1 .025-.448c.04-.258.123-.497.298-.697.11-.126.242-.217.392-.284.188-.086.387-.13.59-.156.036-.005.074-.001.109-.017z" fill="#3c9573" style="stroke-width:1.4"/><mask id="a" mask-type="alpha" maskUnits="userSpaceOnUse" x="27" y="18" width="3" height="3"><path fill-rule="evenodd" clip-rule="evenodd" d="M27.136 18.841h2.562V21h-2.562v-2.158Z" fill="#fff"/></mask><g mask="url(#a)" transform="matrix(1.4 0 0 1.4 -7.94 -7.968)"><path fill-rule="evenodd" clip-rule="evenodd" d="m29.699 18.841-.001.04v2.093c0 .02-.004.025-.025.025a13.728 13.728 0 0 0-.287 0c-.018 0-.022-.006-.022-.023v-.864c0-.034.002-.029-.03-.029h-1.837c-.034 0-.03-.003-.03.03v.861c0 .02-.005.025-.024.025a13.443 13.443 0 0 0-.284 0c-.018 0-.023-.006-.023-.024v-1.197c0-.019.006-.024.024-.024l2.11.001a.83.83 0 0 1 .072.002c.017.001.023-.004.023-.02l-.001-.487v-.409z" fill="#3c9573"/></g><path fill-rule="evenodd" clip-rule="evenodd" d="M22.182 18.41v.43c0 .015-.006.02-.021.02h-1.503c-.037 0-.037 0-.037.035v2.495c0 .04 0 .04-.04.04h-.389c-.025 0-.032-.006-.032-.032V18.9c0-.039 0-.039-.04-.039h-1.482c-.043 0-.043 0-.043-.043v-.374c0-.011 0-.022-.002-.034z" fill="#bfcd32" style="stroke-width:1.4"/><path fill-rule="evenodd" clip-rule="evenodd" d="M10.696 18.41v2.984c0 .035 0 .035-.037.035-.13.002-.26.002-.392 0-.037 0-.037 0-.037-.038V18.46c0-.017-.001-.034-.003-.05zM25.31 18.41c0 .14 0 .282.002.424 0 .026-.014.026-.034.026H22.8c-.038 0-.038-.001-.038-.038v-.413zM23.517 20.145h-1.76c-.038 0-.038 0-.038-.037v-.385c-.001-.026.006-.036.034-.036h3.528c.023 0 .03.008.03.032v.388c0 .038 0 .038-.037.038z" fill="#3c9573" style="stroke-width:1.4"/><mask id="b" mask-type="alpha" maskUnits="userSpaceOnUse" x="21" y="20" width="3" height="1"><path fill-rule="evenodd" clip-rule="evenodd" d="M21.184 20.335h2.566V21h-2.566v-.665Z" fill="#fff"/></mask><g mask="url(#b)" transform="matrix(1.4 0 0 1.4 -7.94 -7.968)"><path fill-rule="evenodd" clip-rule="evenodd" d="M22.467 20.672h1.255c.028 0 .028 0 .028.027v.274c0 .025 0 .025-.026.025L21.466 21h-.256c-.025 0-.026 0-.026-.026v-.275c0-.026 0-.026.026-.026z" fill="#3c9573"/></g><mask id="c" mask-type="alpha" maskUnits="userSpaceOnUse" x="10" y="18" width="3" height="3"><path fill-rule="evenodd" clip-rule="evenodd" d="M10 18.841h2.568V21H10v-2.159Z" fill="#fff"/></mask><g mask="url(#c)" transform="matrix(1.4 0 0 1.4 -7.94 -7.968)"><path fill-rule="evenodd" clip-rule="evenodd" d="M11.927 20.672c.035 0 .069 0 .104-.008.083-.018.148-.062.18-.144a.42.42 0 0 0 .01-.255.222.222 0 0 0-.07-.12.269.269 0 0 0-.18-.062h-.262c-.451 0-.902.002-1.354-.002-.013 0-.023-.002-.023.018v.556c0 .016.007.018.02.018h.808zM10.02 21H12c.008 0 .016.002.023-.004H10.03c-.026 0-.026 0-.026-.027v-1.185c0-.027 0-.027.026-.027h.305c-.007-.006-.015-.003-.023-.003H10zm2.074-2.159c.027.013.058.014.087.021a.566.566 0 0 1 .245.136.49.49 0 0 1 .132.267c.01.057.01.115.009.174l-.001.131a.296.296 0 0 1-.084.191.474.474 0 0 1-.226.143c-.011.003-.023.004-.035.006-.005.001-.012.001-.012.007-.001.008.007.006.012.007a.451.451 0 0 1 .3.205.274.274 0 0 1 .046.16c-.001.081.005.163-.004.245a.465.465 0 0 1-.284.404.683.683 0 0 1-.256.058c-.007.003-.014.001-.021.001H10.03c-.028 0-.028 0-.028-.028v-1.183c0-.034 0-.034.035-.034h.296c.01-.002.02 0 .03 0h1.568a.378.378 0 0 0 .137-.022.23.23 0 0 0 .14-.147.408.408 0 0 0 .005-.242c-.03-.099-.1-.148-.197-.167-.024-.004-.048-.004-.073-.004h-1.9c-.014 0-.031.003-.043-.01l-.001-.3c0-.015.003-.019.018-.019h1.04z" fill="#3c9573"/></g><path fill-rule="evenodd" clip-rule="evenodd" d="M12.757 18.871a1.71 1.71 0 0 0-.458.104.844.844 0 0 0-.433.374 1.127 1.127 0 0 0-.13.502 1.42 1.42 0 0 0 .055.48c.042.13.109.25.207.348a.92.92 0 0 0 .378.211c.188.06.38.079.577.081.138.003.278.005.418-.007.18-.014.355-.044.523-.113a.782.782 0 0 0 .438-.42c.067-.154.09-.315.092-.48a1.324 1.324 0 0 0-.043-.378.856.856 0 0 0-.388-.527 1.283 1.283 0 0 0-.472-.16 3.105 3.105 0 0 0-.45-.027c-.096.004-.205.001-.314.012zm.732-.462c.008.012.022.009.032.01.216.021.424.065.625.15.331.14.547.384.656.724.05.151.076.305.084.463.007.107.009.212.003.317-.01.23-.045.455-.144.666a1.024 1.024 0 0 1-.451.476c-.151.083-.312.13-.48.162-.16.03-.322.044-.485.05a8.73 8.73 0 0 1-.469.002 3.217 3.217 0 0 1-.53-.054 1.482 1.482 0 0 1-.567-.222c-.19-.13-.318-.309-.395-.526a1.86 1.86 0 0 1-.094-.48 2.86 2.86 0 0 1-.003-.38c.014-.225.056-.443.154-.65a1.11 1.11 0 0 1 .604-.556c.148-.062.302-.1.459-.124l.17-.02c.008-.002.015-.002.02-.008z" fill="#3c9573" style="stroke-width:1.4"/></svg>