<svg width="40" height="40" fill="none" xmlns="http://www.w3.org/2000/svg"><g clip-path="url(#a)" transform="matrix(1.4 0 0 1.4 -8 -8)"><circle cx="13.548" cy="17.63" fill="#002e6d" r=".518"/><circle cx="13.548" cy="15.258" fill="#002e6d" r=".518"/><circle cx="13.548" cy="12.891" fill="#000" r=".518"/><circle cx="13.548" cy="10.519" r=".518" fill="#000"/><circle cx="15.392" cy="17.63" fill="#002e6d" r=".518"/><circle cx="15.392" cy="15.258" fill="#002e6d" r=".518"/><circle cx="15.392" cy="12.891" fill="#000" r=".518"/><circle cx="15.392" cy="10.519" fill="#000" r=".518"/><circle cx="17.235" cy="17.63" fill="#002e6d" r=".518"/><circle cx="17.235" cy="15.258" fill="#002e6d" r=".518"/><circle cx="17.235" cy="12.891" fill="#000" r=".518"/><circle cx="17.235" cy="10.519" fill="#000" r=".518"/><circle cx="19.079" cy="17.63" fill="#002e6d" r=".518"/><circle cx="20.922" cy="17.63" fill="#002e6d" r=".518"/><circle cx="20.922" cy="15.258" fill="#002e6d" r=".518"/><circle cx="20.922" cy="12.891" r=".518" fill="#000"/><circle cx="20.922" cy="10.519" fill="#000" r=".518"/><circle cx="22.765" cy="17.63" fill="#002e6d" r=".518"/><circle cx="22.765" cy="15.258" fill="#002e6d" r=".518"/><circle cx="22.765" cy="12.891" fill="#000" r=".518"/><circle cx="22.765" cy="10.519" fill="#000" r=".518"/><circle cx="24.609" cy="17.63" fill="#002e6d" r=".518"/><circle cx="24.609" cy="15.258" r=".518" fill="#002e6d"/><circle cx="24.609" cy="12.891" fill="#000" r=".518"/><circle cx="24.609" cy="10.519" fill="#000" r=".518"/><circle cx="26.452" cy="17.63" fill="#002e6d" r=".518"/><circle cx="26.452" cy="15.258" fill="#002e6d" r=".518"/><circle cx="26.452" cy="12.891" fill="#000" r=".518"/><circle cx="19.079" cy="15.258" r=".518" fill="#002e6d"/><circle cx="19.079" cy="12.891" fill="#000" r=".518"/><circle cx="19.079" cy="10.519" fill="#000" r=".518"/><circle cx="13.548" cy="19.997" fill="#076ab1" r=".518"/><circle cx="13.548" cy="22.37" fill="#076ab1" r=".518"/><circle cx="13.548" cy="24.742" fill="#00aeef" r=".518"/><circle cx="13.548" cy="27.109" fill="#00aeef" r=".518"/><circle cx="13.548" cy="29.482" fill="#00aeef" r=".518"/><circle cx="15.392" cy="19.997" fill="#076ab1" r=".518"/><circle cx="15.392" cy="22.37" fill="#076ab1" r=".518"/><circle cx="15.392" cy="24.742" fill="#00aeef" r=".518"/><circle cx="15.392" cy="27.109" fill="#00aeef" r=".518"/><circle cx="15.392" cy="29.482" fill="#00aeef" r=".518"/><circle cx="17.235" cy="19.997" fill="#076ab1" r=".518"/><circle cx="17.235" cy="22.37" fill="#076ab1" r=".518"/><circle cx="17.235" cy="24.742" fill="#00aeef" r=".518"/><circle cx="17.235" cy="27.109" fill="#00aeef" r=".518"/><circle cx="17.235" cy="29.482" fill="#00aeef" r=".518"/><circle cx="19.079" cy="19.997" fill="#076ab1" r=".518"/><circle cx="19.079" cy="22.37" fill="#076ab1" r=".518"/><circle cx="20.922" cy="22.37" fill="#076ab1" r=".518"/><circle cx="20.922" cy="24.742" fill="#00aeef" r=".518"/><circle cx="20.922" cy="27.109" fill="#00aeef" r=".518"/><circle cx="20.922" cy="29.482" fill="#00aeef" r=".518"/><circle cx="22.765" cy="22.37" fill="#076ab1" r=".518"/><circle cx="22.765" cy="24.742" r=".518" fill="#00aeef"/><circle cx="22.765" cy="27.109" fill="#00aeef" r=".518"/><circle cx="22.765" cy="29.482" fill="#00aeef" r=".518"/><circle cx="24.609" cy="22.37" fill="#076ab1" r=".518"/><circle cx="24.609" cy="24.742" fill="#00aeef" r=".518"/><circle cx="24.609" cy="27.109" fill="#00aeef" r=".518"/><circle cx="24.609" cy="29.482" fill="#00aeef" r=".518"/><circle cx="26.452" cy="22.37" r=".518" fill="#076ab1"/><circle cx="26.452" cy="24.742" fill="#00aeef" r=".518"/><circle cx="20.922" cy="19.997" fill="#076ab1" r=".518"/><circle cx="22.765" cy="19.997" r=".518" fill="#076ab1"/><circle cx="24.609" cy="19.997" fill="#076ab1" r=".518"/><circle cx="26.452" cy="27.109" r=".518" fill="#00aeef"/><circle cx="19.079" cy="24.742" fill="#00aeef" r=".518"/><circle cx="19.079" cy="27.109" fill="#00aeef" r=".518"/><circle cx="19.079" cy="29.482" fill="#00aeef" r=".518"/></g><defs><clipPath id="a"><path fill="#fff" d="M0 0h40v40H0z"/></clipPath></defs></svg>