<svg width="40" height="40" fill="none" xmlns="http://www.w3.org/2000/svg"><mask id="a" mask-type="alpha" maskUnits="userSpaceOnUse" x="10" y="12" width="20" height="17"><path fill-rule="evenodd" clip-rule="evenodd" d="M10 12h19.94v16.42H10V12Z" fill="#fff"/></mask><g mask="url(#a)" transform="matrix(1.4 0 0 1.4 -7.988 -8.084)"><path fill-rule="evenodd" clip-rule="evenodd" d="M20.94 21.972a5.733 5.733 0 0 0-2.027-7.198A41.523 41.523 0 0 1 21.887 12a25.96 25.96 0 0 0-3.486 2.471 5.737 5.737 0 0 0-7.009 8.825c-1.098 2.375-1.292 4.286-.323 4.932 1.036.691 3.29-.562 4.643-2.603 0 0-2.092 1.888-3.241 1.455-.71-.268-.71-1.35-.127-2.9a5.714 5.714 0 0 0 3.394 1.11 5.72 5.72 0 0 0 4.03-1.655l.205.383c2.5-.204 9.968-.4 9.968-.4 0-.36-4.945-.035-9.001-1.646zm-9.342.896a5.305 5.305 0 0 1 6.446-8.093c-2.934 2.542-5.18 5.546-6.446 8.093zm6.309-2.728 1.648 3.093a5.294 5.294 0 0 1-7.045.529c.978-2.327 3.126-5.548 6.097-8.669a5.294 5.294 0 0 1 2.435 4.46c0 .806-.18 1.568-.502 2.252-.97-.423-1.875-.966-2.633-1.665z" fill="#aeadae"/></g></svg>