<svg width="40" height="40" fill="none" xmlns="http://www.w3.org/2000/svg"><mask id="a" mask-type="alpha" maskUnits="userSpaceOnUse" x="10" y="16" width="20" height="8"><path fill="#fff" d="M10 16.549h20v6.901H10z"/></mask><g mask="url(#a)" transform="matrix(1.4 0 0 1.4 -8 -8)" fill-rule="evenodd" clip-rule="evenodd" fill="#fff"><path d="M23.913 23.112h-.43v.132h1.312v-.132h-.353v-2.305l-.044.044-.055.033-.11.033-.122.022h-.562v.133h.364zM15.575 23.112h-.441v.132h1.312v-.132h-.353v-2.305l-.044.044-.055.033-.11.033-.122.022h-.573v.133h.386zM25.446 23.112h-.42v.132h1.335v-.132h-.386v-2.04h.949v2.04h-.353v.132h1.301v-.132h-.43v-2.305l-.033.044-.055.033-.121.033-.133.022h-1.125c.057-.474-.146-1.143.265-1.522l.077-.055.066-.044.078-.022.088-.011.088-.022.11-.011h.089l.077.011.066.033.055.022.055.033.033.022.022.044.011.034-.01.033-.023.033-.066.033-.055.044c-.158.14-.093.326.077.408.155.08.33-.04.386-.188.108-.36-.245-.643-.573-.683-1.151-.143-1.536.836-1.445 1.808h-.474v.133h.474v2.04M11.45 21.568c1.054.129 1.14 1.48.044 1.61-.77.04-1.176-.617-1.235-1.312h-.143v1.423h.143l.022-.078.022-.055.044-.033.078-.01c.2.017.433.129.628.187.4.074.862.043 1.191-.221.517-.405.558-1.44.022-1.842-.641-.513-2.292-.29-1.72-1.577.68-.721 1.662-.043 1.72.85h.144v-1.17h-.133c-.09.52-1.116-.789-1.996.309-.23.328-.2.706-.132 1.08.229.606.724.69 1.301.839M22.126 22.803l.01.144.034.11.055.088.077.066.077.055.11.045.133.01c.294.065.633-.06.75-.363l-.11-.067-.055.089-.089.088-.033.022-.055.033-.055.022h-.121l-.044-.01-.056-.012-.022-.033-.044-.033-.01-.055-.023-.077-.01-.067v-1.786h.617v-.133h-.618v-.706h-.1c-.067.508-.351.725-.86.706v.133h.442v1.731M20.461 23.112h.375v-1.809l-.022-.077-.033-.077-.033-.033-.055-.044-.055-.033-.067-.022c-.342-.034-.61.233-.783.496v1.6h.397v.131H18.84v-.132h.408v-2.04h-.408v-.133h.606l.133-.022.055-.01.055-.012.088-.088v.474c.251-.332.6-.533 1.026-.452l.143.033.144.077.088.089.088.099.055.121.033.133.023.143v1.588h.408v.132H20.46v-.132M14.836 22.483c-.116.538-.717.908-1.17.486l-.055-.11-.055-.133-.022-.154v-.905l.022-.154c.055-.213.197-.482.441-.507a.536.536 0 0 1 .497.088l.022.033.033.044v.077l-.022.033-.055.044-.033.078c-.126.268.261.439.43.242.522-.855-1.768-1.348-1.908.309-.2 1.539 1.745 1.937 2.007.53h-.132"/><path d="M29.747 22.483c-.085.56-.755.89-1.147.475l-.077-.11-.033-.122-.034-.165-.01-.177v-.53l.01-.187.033-.154a.628.628 0 0 1 .43-.53c.259-.017.265-.01.497.1l.033.044.022.044v.066l-.011.044-.055.044-.044.078c-.064.087-.005.239.088.286l.033.011.055.022h.055l.11-.022.045-.033.044-.022c.342-.506-.467-.894-.882-.794-.586.047-.983.524-1.037 1.092-.18 1.436 1.65 2.02 2.03.54zM18.509 22.461c-.032.317-.348.717-.695.684-.695.046-.617-.825-.596-1.268h1.478c.075-.47-.326-.92-.772-1.015-.53-.129-1.055.255-1.213.75-.179.527-.071 1.174.375 1.533.65.421 1.455.11 1.566-.684h-.143zm-.342-.76v.021l-.022.022h-.905c-.142-1.013 1.062-1.041.927-.044M13.59 16.782c1.291-.148 1.248 1.537 0 1.378zm-.551 3.099h-.353v.143c.731-.025 2.37.317 2.547-.838.043-.608-.363-.887-.937-.949v-.022c.532-.036.879-.45.772-.97l-.011-.067-.044-.088-.044-.055-.044-.066-.055-.055-.133-.11-.077-.034-.1-.033-.099-.044-.22-.033-.243-.01h-1.323v.132h.364v3.099zm.551-1.6c1.449-.218 1.454 1.849 0 1.6zM15.465 19.01c.035 1.443 1.986 1.443 2.04 0-.054-1.474-2.024-1.441-2.04 0zm1.51.12c.008.441-.048.869-.584.817-.556-.087-.39-.835-.419-1.224.002-.401.16-.713.596-.662l.066.022.077.01.055.045.055.022.033.055.034.044c.147.293.067.555.088.872M20.703 19.01a1.022 1.022 0 0 0 2.04 0 1.022 1.022 0 0 0-2.04 0zm1.533.12c.002.413-.07.872-.584.817-.575-.059-.397-.827-.43-1.213-.013-.406.14-.721.584-.673l.077.022.066.01.055.045.056.022.033.055.033.044c.153.34.1.513.11.872M24.2 19.88h.298v-1.5l-.034-.088-.022-.055c-.075-.06-.162-.132-.264-.121l-.078.022-.088.022-.077.044-.077.055-.066.055-.067.078-.055.066-.044.088v1.335h.364v.143h-1.235v-.143h.386v-1.765h-.386v-.121h.53l.143-.011.055-.011.055-.022.033-.022.044-.045v.397h.011l.077-.077.078-.088.077-.055c.197-.146.289-.135.507-.177l.166.022.143.033.11.067.077.088.067.1.044.087.022.11v1.49h.276v.143H24.2v-.143M18.476 19.197c.395-.004.571.525.198.717-.456.162-.796-.126-.849-.596h-.11l.022.75h.11l.022-.088.033-.011h.066l.045.01.099.056.143.033c.227.077.59.014.74-.176.355-.41.21-1.064-.376-1.147-1.504-.104.013-1.39.287-.221h.11l-.01-.585h-.1l-.011.034-.011.022-.011.033c-.1.007-.299-.11-.397-.11-.284 0-.442.017-.629.253-.302.513.026 1.003.629 1.026M20.648 19.704c-.075.127-.245.25-.397.188l-.044-.011-.033-.022-.033-.045-.011-.044-.033-.055v-1.599h.551v-.121h-.551v-.684h-.089c-.025.378-.347.72-.739.684v.121h.342v1.522l.011.121.022.1.056.077.154.11.1.022.11.022c.257.038.522-.042.661-.276l-.077-.11"/></g></svg>