<svg width="40" height="40" fill="none" xmlns="http://www.w3.org/2000/svg"><path fill-rule="evenodd" clip-rule="evenodd" d="M20 6c7.738 0 14 6.262 14 14s-6.262 14-14 14S6 27.738 6 20 12.262 6 20 6Zm12.333 17.786c-1.595-.643-3.047-.429-4.524.476 0 0-.547.31-.69.428-.69.43-1.333.834-1.952.834-.596 0-1.19-.167-1.429-1.31-.38-1.785-1.333-6.19-1.738-8.357-.238-1.286-.38-1.976-.5-2.428-.238-.834-.69-1.286-1.31-1.358h-.38c-.62.072-1.048.524-1.286 1.358-.143.452-.286 1.142-.524 2.428-.405 2.167-1.333 6.572-1.738 8.357-.238 1.143-.81 1.31-1.405 1.31-.619 0-1.262-.405-1.952-.834a13.746 13.746 0 0 0-.714-.428c-1.453-.905-2.93-1.12-4.524-.476-.357.143-.69.285-1.024.452.238.69.5 1.381.833 2.024.357-.167.714-.357 1.095-.452.548-.167 1.12-.191 1.667 0 .524.166 1 .5 1.452.785.881.548 1.881 1.19 3.167 1.19 1.881 0 3.214-1.142 3.62-3.095.333-1.523 1.07-4.928 1.523-7.261 0 0 1.19 5.738 1.524 7.261.428 1.953 1.738 3.096 3.643 3.096 1.262 0 2.262-.643 3.143-1.19.476-.286.952-.62 1.476-.786.523-.191 1.095-.167 1.643 0 .38.095.762.285 1.095.452.333-.643.619-1.333.833-2.024a13.31 13.31 0 0 0-1.024-.452z" fill="#cc092f" style="stroke-width:1.4"/></svg>