<svg width="40" height="40" fill="none" xmlns="http://www.w3.org/2000/svg"><g clip-path="url(#a)" transform="matrix(1.4 0 0 1.4 -8 -8)"><path fill-rule="evenodd" clip-rule="evenodd" d="M18.904 29.49a.909.909 0 0 1-1.207.419c-2.837-1.375-4.335-3.798-4.335-7.008v-3.625a.905.905 0 0 1 1.807 0v3.625c0 2.504 1.116 4.314 3.316 5.382.449.217.637.759.42 1.207zm-2.675-8.402a.927.927 0 1 0 1.856 0v-7.397a.928.928 0 1 0-1.855 0zm2.87-.215a.928.928 0 0 0 1.856 0v-9.946a.927.927 0 0 0-1.855 0zm2.87.684a.927.927 0 1 0 1.856 0V12.63a.928.928 0 0 0-1.856 0zm2.87 1.182a.9.9 0 1 0 1.8 0v-6.034a.9.9 0 1 0-1.8 0z" fill="#be2bbb"/></g><defs><clipPath id="a"><path fill="#fff" d="M0 0h40v40H0z"/></clipPath></defs></svg>