<svg width="41" height="40" fill="none" xmlns="http://www.w3.org/2000/svg"><g clip-path="url(#a)" transform="matrix(1.4 0 0 1.4 -8.397 -8)"><g clip-path="url(#b)" fill="#fff"><path d="M11 27.754h17.753V21.13H15.451v-2.247h13.302v-6.637H11.001L11 10h19.958c.009.156.025.313.025.469v19.517H11.47c-.157 0-.313.01-.47.014v-2.246z"/><path d="M11 14.492c.108-.008.216-.024.324-.024 4.944-.002 9.889-.002 14.834-.002h.35v2.195H13.256v6.66h13.257v2.243H11.47c-.157 0-.313.01-.47.015V14.492z"/></g></g><defs><clipPath id="a"><path fill="#fff" transform="translate(.878)" d="M0 0h40v40H0z"/></clipPath><clipPath id="b"><path fill="#fff" transform="translate(11 10)" d="M0 0h19.983v20H0z"/></clipPath></defs></svg>