<svg width="40" height="40" fill="none" xmlns="http://www.w3.org/2000/svg"><mask id="a" mask-type="alpha" maskUnits="userSpaceOnUse" x="10" y="14" width="20" height="12"><path fill="#fff" d="M10 14.667h20v10.665H10z"/></mask><g mask="url(#a)" transform="matrix(1.4 0 0 1.4 -8 -8)" fill-rule="evenodd" clip-rule="evenodd"><path d="M15.046 23.572c.402-.335.471-.751.471-1.123v-1.567H13.33v2.126a.55.55 0 0 1-.55.55.533.533 0 0 1-.53-.55v-6.023c0-.304.226-.55.53-.55a.55.55 0 0 1 .55.55v2.139h2.185v-2.219c0-1.226-.801-2.235-2.753-2.238-2.004 0-2.762 1.014-2.762 2.24v6.288c0 1.215.965 2.135 2.198 2.135h.678l2.17-1.758m8.623.247v-6.91h-1.51v-2.036h5.464v2.036h-1.517v8.409h-.647l-1.79-1.5" fill="#fff"/><path d="m24.646 25.333-5.32-4.458-5.514 4.458z" fill="#f6d33c"/><path d="M20.848 14.885h-3.049l-1.776 7.967 3.307-2.669 3.448 2.89zm-2.108 4.788.59-3.011.585 3.01zm10.544-4.468c.17 0 .315.06.435.181.12.12.18.265.18.435a.6.6 0 0 1-.18.438.59.59 0 0 1-.435.181.59.59 0 0 1-.436-.18.6.6 0 0 1-.179-.439c0-.17.06-.315.18-.435a.592.592 0 0 1 .435-.18zm.717.615a.683.683 0 0 0-.21-.504.693.693 0 0 0-.506-.208.688.688 0 0 0-.503.208.686.686 0 0 0-.21.504c0 .199.07.368.208.507.139.14.307.21.505.21s.367-.07.507-.21c.14-.14.21-.31.21-.507zm-.512-.117c0 .075-.028.126-.085.153a.343.343 0 0 1-.138.021h-.131v-.354h.124c.161 0 .23.038.23.18zm-.493-.276v.783h.139v-.307h.11c.073 0 .124.008.154.025.05.029.074.088.074.178v.062l.003.026.002.009.002.007h.129l-.005-.01a1.581 1.581 0 0 1-.01-.155.202.202 0 0 0-.174-.198c.139-.023.189-.086.189-.193 0-.099-.04-.165-.122-.2a.594.594 0 0 0-.215-.028h-.276z" fill="#fff"/></g></svg>