<svg width="40" height="40" fill="none" xmlns="http://www.w3.org/2000/svg"><g clip-path="url(#a)" transform="matrix(1.4 0 0 1.4 -7.98 -7.996)"><mask id="b" mask-type="alpha" maskUnits="userSpaceOnUse" x="10" y="16" width="21" height="8"><path fill="#fff" d="M10 16.418h20v7.164H10z"/></mask><g mask="url(#b)" fill-rule="evenodd" clip-rule="evenodd"><path d="m23.506 21.584-.002.002c-.848.6-1.851 1.23-2.931 1.892l-.043.025a.032.032 0 0 0 .037.053l.036-.02a160.82 160.82 0 0 0 3.043-1.636 1.344 1.344 0 0 1-.14-.316zm5.562-4.502c-1.335-1.474-9.93-.148-13.585.65l-.086.018a.032.032 0 0 0-.025.037c.003.018.02.03.037.026l.084-.017c3.028-.54 9.325-1.286 10.68.057.414.41.315.938-.165 1.561.258.166.442.428.525.754 1.873-1.242 3.13-2.43 2.535-3.086z" fill="#d03027"/><path d="M24.047 21.197c.017.518.345.943.772.943.829 0 1.182-1.018 1.158-1.697-.018-.52-.355-.943-.782-.943-.712-.002-1.173 1.012-1.148 1.697zm-.438-.028c-.03-.885.663-1.79 1.67-1.79.673 0 1.114.45 1.138 1.136.033.933-.615 1.79-1.668 1.79-.675 0-1.116-.447-1.14-1.136zM14.072 20.936a.978.978 0 0 1-.14.04 5.741 5.741 0 0 1-.315.055.542.542 0 0 0-.22.069.162.162 0 0 0-.07.108c-.007.046.007.081.047.11.04.029.107.043.203.043a.656.656 0 0 0 .208-.033.491.491 0 0 0 .17-.091.275.275 0 0 0 .075-.108 1.24 1.24 0 0 0 .042-.193zm.875-.544c-.003.081-.018.153-.04.277l-.147.831c-.013.074.014.131.083.172l-.005.032h-.848l-.007-.212a1.706 1.706 0 0 1-.407.174c-.135.035-.244.05-.406.05-.274 0-.431-.029-.54-.124-.11-.097-.164-.163-.158-.297a.47.47 0 0 1 .102-.247.64.64 0 0 1 .226-.158c.087-.041.19-.072.34-.095.15-.025.358-.048.637-.072a.914.914 0 0 0 .278-.063c.059-.022.082-.048.09-.095.016-.085-.011-.135-.125-.157-.305-.06-.878.04-1.173.112l.16-.433c.389-.057.754-.093 1.138-.093.614 0 .809.174.802.398zM17.405 21.703l.294-1.66h.812l-.294 1.66zm.339-2.045c.024-.137.24-.247.48-.247s.417.111.393.247c-.026.136-.24.247-.482.247-.24 0-.415-.11-.391-.247zM21.393 20.94a1.672 1.672 0 0 1-.14.039c-.058.013-.163.03-.316.055a.536.536 0 0 0-.219.068.17.17 0 0 0-.07.107c-.01.046.008.083.046.11.041.029.109.042.204.042.07 0 .14-.01.208-.031a.52.52 0 0 0 .172-.091.28.28 0 0 0 .072-.108c.011-.028.026-.092.044-.192zm.875-.546c-.003.082-.018.154-.04.277l-.147.832c-.012.073.015.132.083.172l-.005.03h-.847l-.007-.212a1.632 1.632 0 0 1-.407.174c-.135.036-.243.05-.408.05-.274 0-.43-.026-.539-.123-.11-.098-.163-.162-.158-.297a.444.444 0 0 1 .102-.247.62.62 0 0 1 .227-.158c.087-.041.19-.071.339-.096.15-.024.36-.048.639-.072a.928.928 0 0 0 .277-.062c.06-.022.082-.048.09-.096.015-.084-.01-.133-.124-.157-.307-.06-.878.04-1.173.112l.16-.433c.39-.057.753-.093 1.138-.093.61.001.806.176.8.4zM12.362 21.107a2.952 2.952 0 0 1-.674.072c-.388 0-.696-.192-.68-.546.013-.235.291-.73.999-.73.223 0 .397.038.631.172l.103-.576a1.969 1.969 0 0 0-.803-.136c-.928.01-1.819.432-1.93 1.29-.112.87.952 1.09 1.424 1.087.273-.001.557-.012.821-.04zM18.958 20.033l.059-.338.848-.185-.09.522h.416l-.079.334h-.404l-.245 1.335s-.818-.006-.821 0l.244-1.332h-.307l.063-.337h.316zM23.488 19.409l-.395 2.293-.827.001.416-2.317zM16.33 20.431a.47.47 0 0 0-.287.097.433.433 0 0 0-.16.284c-.027.144-.01.249.046.312.059.064.142.097.252.097.074 0 .15-.014.206-.042a.404.404 0 0 0 .16-.136.552.552 0 0 0 .089-.219c.023-.131.003-.229-.057-.294a.318.318 0 0 0-.248-.099zm-1.477 1.845.396-2.225h.713l-.055.284a.665.665 0 0 1 .297-.21c.138-.057.293-.098.461-.098.186 0 .3.01.44.081a.586.586 0 0 1 .287.316.82.82 0 0 1 .035.452.979.979 0 0 1-.401.649c-.217.16-.414.2-.693.202-.099 0-.182-.01-.25-.027a.581.581 0 0 1-.162-.065.702.702 0 0 1-.133-.121l-.132.762zM29.59 20.636c-.005-.134-.072-.225-.21-.225-.333 0-.687.653-.748.915.546.001.971-.324.958-.69zm.072 1.022.064.044c-.163.33-.494.597-.882.597-.317 0-.579-.212-.592-.61-.026-.711.641-1.372 1.188-1.372.234 0 .451.102.46.354.02.567-.774.74-1.298.752a.636.636 0 0 0-.02.208c.009.235.15.432.444.432.253 0 .507-.204.636-.405z" fill="#fff"/><path d="M26.405 20.618c.056-.008.147-.018.186-.018.06 0 .116.01.119.07.001.035-.062.287-.075.346l-.127.558a22.28 22.28 0 0 1-.156.657h.326l.182-.885c.558-.58.773-.77.904-.77.06 0 .1.031.103.102.004.102-.06.334-.082.402l-.186.644a1.318 1.318 0 0 0-.07.37c.005.14.09.203.218.203.238 0 .41-.247.561-.49l-.044-.08c-.06.097-.202.311-.313.311-.034 0-.068-.023-.07-.081a.952.952 0 0 1 .051-.264l.208-.756c.056-.208.082-.342.08-.414-.005-.14-.087-.207-.214-.207-.214 0-.498.157-1.1.849h-.009l.076-.338c.042-.185.082-.378.12-.511-.208.075-.506.16-.69.195z" fill="#fff"/></g></g><defs><clipPath id="a"><path fill="#fff" d="M0 0h40v40H0z"/></clipPath></defs></svg>