<svg width="40" height="40" fill="none" xmlns="http://www.w3.org/2000/svg"><g clip-path="url(#a)" transform="matrix(1.4 0 0 1.4 -8 -8)" fill-rule="evenodd" clip-rule="evenodd" fill="#00aae0"><path d="M16.533 25.207h-.877v-3.474h.877zM23.603 22.73c-.036-.017-.317-.187-.737-.187-.568 0-.96.395-.96.927 0 .515.375.927.96.927.412 0 .698-.165.737-.184v.932c-.111.034-.409.126-.799.126-.985 0-1.85-.682-1.85-1.801 0-1.038.782-1.798 1.85-1.798.412 0 .716.1.8.125zM14.45 22.73c-.035-.017-.316-.187-.734-.187-.57 0-.963.395-.963.927 0 .515.379.927.963.927.41 0 .696-.165.735-.184v.932c-.109.034-.41.126-.799.126-.985 0-1.851-.682-1.851-1.801 0-1.038.782-1.798 1.851-1.798.412 0 .715.1.799.125zM26.362 22.557c-.52 0-.907.409-.907.913 0 .506.386.916.907.916.52 0 .907-.41.907-.916a.898.898 0 0 0-.907-.913zm1.837.913c0 .994-.768 1.8-1.837 1.8s-1.834-.807-1.834-1.8c0-.994.765-1.798 1.834-1.798s1.837.804 1.837 1.798zM19.86 22.523a2.952 2.952 0 0 0-.685-.106c-.354 0-.543.117-.543.284 0 .212.259.287.4.332l.243.078c.568.178.83.57.83.993 0 .872-.769 1.167-1.44 1.167-.467 0-.904-.087-.946-.095v-.802c.075.02.445.131.827.131.437 0 .637-.128.637-.326 0-.175-.173-.278-.39-.345-.055-.016-.133-.044-.189-.06-.487-.154-.896-.44-.896-1.017 0-.648.487-1.086 1.297-1.086.426 0 .827.104.854.11zM10.871 18A.435.435 0 0 0 10 18v.91a.435.435 0 0 0 .871 0zM13.262 16.8a.437.437 0 0 0-.87 0v2.11c0 .242.194.434.436.434.24 0 .434-.192.434-.434zM15.653 15.164a.435.435 0 0 0-.87 0v4.615a.435.435 0 0 0 .87 0zM18.044 16.8a.437.437 0 0 0-.434-.434.437.437 0 0 0-.434.434v2.11c0 .242.195.434.434.434.24 0 .434-.192.434-.434zM20.433 18a.434.434 0 0 0-.869 0v.91c0 .242.198.434.437.434a.433.433 0 0 0 .432-.434zM22.827 16.8a.437.437 0 0 0-.435-.434.437.437 0 0 0-.434.434v2.11c0 .242.195.434.434.434.24 0 .435-.192.435-.434zM25.218 15.164a.435.435 0 0 0-.868 0v4.615a.435.435 0 0 0 .868 0zM27.612 16.8a.438.438 0 0 0-.874 0v2.11c0 .242.194.434.434.434.245 0 .44-.192.44-.434zM30 18a.437.437 0 0 0-.434-.434.433.433 0 0 0-.434.434v.91a.435.435 0 0 0 .869 0z"/></g><defs><clipPath id="a"><path fill="#fff" d="M0 0h40v40H0z"/></clipPath></defs></svg>