<svg width="40" height="40" fill="none" xmlns="http://www.w3.org/2000/svg"><mask id="a" mask-type="alpha" maskUnits="userSpaceOnUse" x="10" y="13" width="20" height="14"><path fill="#fff" d="M10 13.505h20v12.991H10z"/></mask><g mask="url(#a)" transform="matrix(1.4 0 0 1.4 -8 -8)" fill-rule="evenodd" clip-rule="evenodd"><path d="m16.15 23.898-.037.035c-.57.58-1.229.887-1.908.887-1.418 0-2.447-1.064-2.447-2.532 0-1.465 1.029-2.53 2.447-2.53.68 0 1.339.308 1.908.89l.037.035.912-1.103-.025-.03c-.758-.896-1.669-1.332-2.788-1.332-1.121 0-2.149.379-2.888 1.06-.805.737-1.228 1.778-1.228 3.01 0 1.233.423 2.276 1.228 3.014.74.685 1.767 1.06 2.888 1.06 1.12 0 2.03-.436 2.788-1.333l.025-.027-.912-1.104M17.983 26.212h1.611v-7.866h-1.611ZM25.906 24.502c-.43.262-.83.394-1.19.394-.52 0-.756-.276-.756-.888v-4.174h1.642v-1.48H23.96v-2.448l-1.579.845v1.602h-1.363v1.481h1.363v4.44c0 1.209.717 2.036 1.787 2.058.726.014 1.164-.202 1.429-.361l.017-.01.387-1.518-.095.059M27.24 26.212h1.613v-7.866h-1.614z" fill="#004685"/><path d="M29.792 16.967c-1.472-2.085-3.916-3.329-6.403-3.329-2.486 0-4.931 1.244-6.4 3.329l-.077.107h1.854l.02-.022c1.262-1.303 2.91-1.991 4.603-1.991 1.694 0 3.34.688 4.604 1.99l.02.023h1.853z" fill="#ee1c25"/></g></svg>