<svg width="40" height="40" fill="none" xmlns="http://www.w3.org/2000/svg"><path fill-rule="evenodd" clip-rule="evenodd" d="M12.007 22.927c2.27-.66 3.676-.538 4.713.163.525.356 1.154.873 1.376 1.224-.666-.514-1.58-.768-2.215-.707-.771.013-1.08.643-1.08.643-.844-1.614-3.257-.917-4.102-.673a6.863 6.863 0 0 1-.202.057l-.276.07c-.528.137-1.202.31-1.775.374-.968.086-1.778-.324-2.169-1.094-.505-1.111-.168-2.476.204-3.429.646-1.579 1.788-3.021 3.215-4.062.653-.42 1.36-.8 2.12-.755.22.043.4.169.503.35.246.512-.067 1.06-.28 1.347-.196.254-.652.35-.634-.112.012-.303.247-.528.333-.597a.592.592 0 0 1 .322-.086c.077-.075.137-.6-.499-.428-.829.273-1.457.953-2.134 1.745-1.213 1.522-1.896 2.895-2.148 4.322-.11.875.037 1.482.444 1.86.907.658 1.63.471 3.34.028.285-.073.598-.155.944-.24zm20.57-7.094c-.637.38-1.297.626-2.097.54-.222.263-.437.533-.636.811 1.122.3 2.312-.367 2.976-1 .702-.64 1.062-1.446 1.062-1.446s-.527.632-1.304 1.095zm-2.1 7.332c-.09.064-.216.015-.169-.132.118-.375.585-1.139.585-1.139l1.303-2.425h-.892c-.043.073-.134.241-.134.241a1.264 1.264 0 0 0-.215-.267c-.218-.145-.538-.077-.758.055-.947.58-1.64 1.722-2.19 2.623l-.021.036s-.581 1.009-.903 1.084c-.252.021-.226-.335-.215-.418.097-.6.323-1.17.55-1.686.464-.337.993-.779 1.473-1.263 1.043-1.047 1.922-2.232 2.05-2.497 0 0-.139.03-.303.035-.802 1.175-2.444 2.882-2.941 3.136.22-.557 1.644-3.214 2.857-4.485l.19-.193c.295-.302.6-.613.839-.663.025-.003.057 0 .085.061.011.236-.072.41-.168.608l-.134.289s.19-.038.315-.08c.144-.287.305-.608.246-.99a.278.278 0 0 0-.216-.239c-.361-.072-.756.209-1.072.436l-.013.008c-1.63 1.341-3.006 3.273-4.21 5.912-.087.07-.424.152-.481.112.119-.257.268-.602.343-.977.013-.107.025-.216.025-.323 0-.23-.053-.447-.25-.597-.23-.12-.514-.064-.706.027-.86.374-1.503 1.3-1.967 2.063-.25.484-.498 1.003-.567 1.597-.049.466.05.766.302.916.26.139.586-.006.714-.075.871-.482 1.48-1.448 1.96-2.331l.026-.002c.075-.005.287-.017.453-.062l.009.002-.114.362c-.304.936-.445 1.573-.158 1.95.41.533 1.09-.018 1.643-.746-.118.872.312 1.009.64.942.378-.107.798-.53.993-.747-.063.255-.046.71.297.755.202.04.36-.054.53-.154l.085-.05c.73-.417 1.604-1.809 1.831-2.21h-.297l-.036.055c-.317.504-.716 1.139-1.214 1.446zm-4.82-1.889c-.026.019-.48-.142-.568-.583-.074-.38.175-.677.417-.827a.402.402 0 0 1 .373-.073c.107.075.135.21.135.354 0 .085-.01.173-.02.254v.008l-.003.019a3.668 3.668 0 0 1-.334.848zm3.643 1.627-.086.08-.009.008c-.12.113-.243.23-.392.169-.042-.016-.072-.075-.079-.12-.007-.329.133-.632.27-.929l.001-.003.035-.077.02-.036c.39-.683.843-1.478 1.504-2.033.113-.086.236-.158.366-.102.03.03.065.08.065.131a.226.226 0 0 1-.022.073c-.166.281-.324.575-.48.861l-.06.113c-.34.634-.693 1.29-1.133 1.865zm-5.441-.068a.438.438 0 0 0 .063.237c.387.47 1.313-.882 1.583-1.514-.218-.099-.578-.334-.737-.7-.38.513-.918 1.452-.909 1.977zm-3.797-4.865h-.835l.471-.805h.836zm3.877.274c.293-.075 1.478-1.014 1.61-2.615a.428.428 0 0 0-.011-.168c-.73.393-1.41 1.161-1.809 2.066-.27.671.032.754.21.717zm-.698 1.418a.515.515 0 0 0-.5-.302c-.698.067-1.38.669-1.738 1.533-.188.445-.29.811-.358 1.395.217-.263.659-.693 1.16-.929 0 0 .07-.56.418-1.057.131-.206.395-.538.691-.45.259.091.168.843-.176 1.571a5.028 5.028 0 0 1-1.038 1.44c-.348.31-.863.685-1.314.396-.284-.177-.429-.546-.398-1.022.135-1.352.721-2.502 1.56-3.814.864-1.217 1.817-2.467 3.1-3.134.263-.139.505-.171.715-.085 0 0-1.205.696-1.78 1.983l-.006.014c-.146.325-.34.76-.138 1.145.107.203.296.219.45.208.703-.171 1.158-.862 1.53-1.493.216-.479.407-.955.407-1.485 0-.065-.003-.15-.008-.214.336-.188 1.026.144 1.026.144.317.11.844.475 1.304.792.322.223.61.423.77.495.19-.23.5-.578.674-.752l-.253-.163a30.5 30.5 0 0 0-1.202-.719l-.052-.03c-.957-.549-1.736-.356-2.133-.206-.156.059-.298.11-.298.11-.294-.338-.777-.306-1.132-.215-1.279.386-2.466 1.325-3.739 2.955-.935 1.276-1.516 2.379-1.825 3.468-.239.733-.311 1.812.27 2.451.496.544 1.152.426 1.615.23 1.004-.518 1.907-1.637 2.356-2.924.109-.383.23-.924.042-1.336zm-11.299-.83.171-.411a1.91 1.91 0 0 0 .11-.552.523.523 0 0 0-.103-.337c-.12-.1-.325-.048-.458.048-.138.11-.452.412-.375.798.055.198.235.364.473.441l.075.014.006.001c.042.01.078.02.101-.001zm-.192.362s-.007.024-.011.032l-.384.656-.005.007c-.23.323-.517.725-.875.919-.107.037-.255.061-.33-.038-.16-.2-.077-.479-.01-.704l.023-.08c.192-.546.496-1.028.792-1.475a.036.036 0 0 1 .015-.005v.002l.002.006c.186.375.534.549.794.629.002 0 .004.003.004.008a.133.133 0 0 1-.015.043zm5.58-1.459c-.121.113-.62.78-.79 1.028-.69.974-.913 1.678-.931 1.908-.006.07.016.136.074.177.048.037.12.032.164.018.307-.179.495-.436.682-.735 0 0 .133-.214.133-.212a85.81 85.81 0 0 0 1.254-2.277c-.014-.118-.177-.284-.586.093zm-5.035-.599c-.528-.364-1.59.332-2.44 1.525-.778 1.07-1.114 2.315-.748 2.89.543.678 1.553-.307 1.982-.834l.055-.062c.287-.323.51-.71.724-1.084l.012-.021.21-.364a4.55 4.55 0 0 0 .441-.113l-.008.017c-.077.141-.63 1.161-.57 1.685l.006.065c.017.229.058.752.581.923.776.137 1.396-.495 1.943-1.057l.145-.147-.03.13c-.228.83.079 1.004.27 1.069.549.167 1.199-.617 1.267-.7l.006-.007-.006.086c-.019.24-.035.442.215.607.264.1.53-.052.733-.194.731-.54 1.32-1.386 1.795-2.117h-.304l-.02.03c-.124.18-.774 1.126-1.211 1.349h-.002c-.01.006-.09.045-.138.01-.062-.056-.038-.173.001-.256l1.867-3.4h-.88s-.096.163-.104.173c-.004-.003-.01-.012-.015-.023a.307.307 0 0 0-.015-.024c-.546-.792-1.78.427-2.71 1.84-.359.543-.814 1.155-1.287 1.596 0 0-.7.674-.999.19-.11-.203-.076-.5-.014-.696.348-1.041.948-1.986 1.631-2.556.193-.158.403-.203.507-.137.099.062.115.215.052.319a.478.478 0 0 0-.39.158c-.204.225-.275.441-.21.645.315.47.944-.46.913-1.028a.616.616 0 0 0-.268-.49c-.23-.144-.58-.107-.808.008-.304.12-.784.54-1.065.867-.354.41-.96.865-1.15.814l.029-.072c.12-.301.495-1.24.007-1.614z" fill="#f40009" style="stroke-width:1.4"/></svg>