<svg width="40" height="40" fill="none" xmlns="http://www.w3.org/2000/svg"><g clip-path="url(#a)" transform="matrix(1.4 0 0 1.4 -8 -8)"><path fill="#b2b2b4" d="M11.515 19.204H30v6.722H11.515z"/><path fill-rule="evenodd" clip-rule="evenodd" d="M18.948 15.29c1.404-.415 2.748-.613 3.974-.613 2.353 0 4.152.751 4.547 2.096.237.77-.02 1.601-.632 2.432h.711c.554-.87.732-1.78.495-2.61-.732-2.392-4.804-3.223-9.272-1.878-3.164.949-5.536 2.688-6.426 4.487h.672c.91-1.542 3.124-3.064 5.931-3.914z" fill="#f68944"/><path fill-rule="evenodd" clip-rule="evenodd" d="M12.088 21.419c.495 1.62 2.491 2.51 5.14 2.51 1.266 0 2.69-.217 4.132-.652 2.927-.89 5.18-2.432 6.208-4.073h-.711c-1.048 1.404-3.104 2.729-5.674 3.5-4.093 1.226-7.908.573-8.521-1.483-.198-.633-.06-1.344.356-2.036h-.673c-.375.77-.474 1.522-.257 2.234z" fill="#444e69"/><path fill-rule="evenodd" clip-rule="evenodd" d="M10.685 21.24c-.633-2.055 2.194-4.724 6.287-5.95 1.403-.415 2.748-.613 3.973-.613 2.353 0 4.152.751 4.547 2.096.238.77-.02 1.601-.632 2.432h.712c.553-.87.731-1.78.494-2.61-.732-2.392-4.804-3.223-9.272-1.878-4.468 1.364-7.414 4.29-6.683 6.702.218.692.692 1.265 1.404 1.68v-.712c-.415-.316-.712-.711-.83-1.146z" fill="#aa5155"/><path fill-rule="evenodd" clip-rule="evenodd" d="M19.384 23.277c2.926-.89 5.18-2.432 6.207-4.073h-.711c-1.048 1.404-3.104 2.729-5.674 3.5-3.203.969-6.228.77-7.69-.336v.711c.928.554 2.233.85 3.736.85 1.265 0 2.669-.217 4.132-.652z" fill="#444e69"/></g><defs><clipPath id="a"><path fill="#fff" d="M0 0h40v40H0z"/></clipPath></defs></svg>