<svg width="40" height="40" fill="none" xmlns="http://www.w3.org/2000/svg"><g clip-path="url(#a)" transform="matrix(1.4 0 0 1.4 -7.994 -7.994)"><mask id="b" mask-type="alpha" maskUnits="userSpaceOnUse" x="10" y="10" width="20" height="21"><path fill="#fff" d="M10 10h20v20H10z"/></mask><g mask="url(#b)" fill-rule="evenodd" clip-rule="evenodd"><path d="M19.238 10.03a10.032 10.032 0 0 1 3.386.323 9.988 9.988 0 0 1 5.018 3.227c1.898 2.233 2.706 5.332 2.162 8.21-.476 2.697-2.138 5.15-4.45 6.614-2.234 1.444-5.057 1.914-7.643 1.306a9.975 9.975 0 0 1-4.683-2.562 9.993 9.993 0 0 1-2.582-4.202 10.055 10.055 0 0 1-.283-4.762 9.916 9.916 0 0 1 2.26-4.719c1.697-1.987 4.205-3.258 6.815-3.435zm-4.382 5.167A6.967 6.967 0 0 0 13 19.316a6.99 6.99 0 0 0 .957 4.264 7.06 7.06 0 0 0 3.351 2.896 7.038 7.038 0 0 0 4.13.38 7.01 7.01 0 0 0 3.879-2.301c.95-1.11 1.564-2.525 1.655-3.989-1.179.001-2.357-.002-3.535.003a3.494 3.494 0 0 1-4.448 2.777 3.512 3.512 0 0 1-2.407-2.53 3.485 3.485 0 0 1 .283-2.425 3.514 3.514 0 0 1 2.369-1.83 3.484 3.484 0 0 1 2.74.538 3.487 3.487 0 0 1 1.464 2.301c1.178.008 2.356.002 3.534.004-.14-2.227-1.474-4.315-3.385-5.448a7.004 7.004 0 0 0-4.644-.914 6.977 6.977 0 0 0-4.086 2.155z" fill="#0052ff"/><path d="M14.856 15.197a6.977 6.977 0 0 1 4.086-2.154 7.004 7.004 0 0 1 4.644.913c1.911 1.133 3.245 3.22 3.385 5.448-1.178-.002-2.356.004-3.534-.004a3.488 3.488 0 0 0-1.463-2.3 3.485 3.485 0 0 0-2.741-.538 3.514 3.514 0 0 0-2.37 1.829 3.512 3.512 0 0 0 2.125 4.955 3.494 3.494 0 0 0 4.448-2.777c1.178-.005 2.357-.002 3.535-.003-.091 1.464-.704 2.879-1.655 3.989a7.009 7.009 0 0 1-3.878 2.3 7.037 7.037 0 0 1-4.13-.379 7.06 7.06 0 0 1-3.352-2.896 6.99 6.99 0 0 1-.957-4.264 6.968 6.968 0 0 1 1.857-4.12z" fill="#fff"/></g></g><defs><clipPath id="a"><path fill="#fff" d="M0 0h40v40H0z"/></clipPath></defs></svg>