<svg width="40" height="40" fill="none" xmlns="http://www.w3.org/2000/svg"><mask id="a" mask-type="alpha" maskUnits="userSpaceOnUse" x="10" y="12" width="20" height="16"><path fill="#fff" d="M10 12.883h20v14.235H10z"/></mask><g mask="url(#a)" transform="matrix(1.4 0 0 1.4 -7.99 -8)"><path fill-rule="evenodd" clip-rule="evenodd" d="M10 18.216s.146-5.26 6.159-5.333h4.509l-1.011 4.456-3.72.013c-1.24.01-1.476 1.028-1.476 1.028s-.072 1.072 1.115 1.194l3.574.002-1.028 4.531-2.085.006c-6.23-.127-6.036-5.897-6.036-5.897Zm19.953 0s-.267-5.26-6.279-5.333H21.76l-1.002 4.456 3.138.013c1.24.01 1.476 1.028 1.476 1.028s.073 1.072-1.115 1.194l-4.01.002-1.736 7.537 4.243.004.703-3.005.34.001c6.23-.127 6.157-5.897 6.157-5.897z" fill="#1879bf"/></g></svg>