<svg width="40" height="40" fill="none" xmlns="http://www.w3.org/2000/svg"><path fill-rule="evenodd" clip-rule="evenodd" d="M19.965 13.332c.386-.63 1.026-1.29 1.716-1.568 1.186-.54 2.776-.308 3.744.547.937.848 1.412 2.012 1.188 3.313.23-.043.461-.19.705-.274 1.454-.41 2.992.035 3.924 1.282.7.89.883 2.273.463 3.349-.209.54-.565 1.027-1.027 1.442l.046.047c1.353.066 2.683 1.117 3.093 2.405.445 1.3.053 2.688-.897 3.639-.776.767-1.774 1.033-2.884 1.01H9.893c-1.654.036-2.931-.697-3.62-2.168-.54-1.263-.273-2.878.735-3.84.636-.665 1.432-.938 2.291-1.075-.972-.902-1.44-2.137-1.168-3.461.196-1.073 1.11-2.16 2.16-2.535.926-.368 2.18-.303 3.027.197l.03-.037c-.255-1.46.392-2.778 1.602-3.586 1.08-.73 2.806-.711 3.863.065.476.291.867.791 1.152 1.248z" fill="#fff" style="stroke-width:1.4"/><path fill-rule="evenodd" clip-rule="evenodd" d="M25.672 13.878c.433.873.179 2.018-.273 2.802l-3.495 7.866-.03.036-1.263-7.979c-.102-.766.717-1.093 1.198-1.461-.024-.113-.148-.107-.226-.16l-1.18-.012-.037-.036c.007-.99.54-1.905 1.443-2.386.944-.545 2.273-.397 3.092.303.332.296.612.64.771 1.027z" fill="#645faa" style="stroke-width:1.4"/><path fill-rule="evenodd" clip-rule="evenodd" d="M19.236 13.605c.286.528.451 1.129.35 1.793l-1.425 9.136c.008.012-.005.024-.016.03l-.37-.736-3.571-7.979c-.333-1.027-.025-2.102.723-2.838.754-.765 1.994-.973 2.98-.558.522.226 1.02.64 1.33 1.152z" fill="#c9234a" style="stroke-width:1.4"/><path fill-rule="evenodd" clip-rule="evenodd" d="M30.84 17.45c.48.82.372 2.061-.162 2.822-.331.534-.878.801-1.34 1.151l-7.402 5.082h-.016l.082-.243 3.923-8.858c.588-1.044 1.71-1.573 2.896-1.413.813.148 1.626.677 2.019 1.46z" fill="#0089cf" style="stroke-width:1.4"/><path fill-rule="evenodd" clip-rule="evenodd" d="m14.028 17.404 4.083 9.1h-.066L9.814 20.83c-.838-.706-1.181-1.764-.897-2.833.213-.8.878-1.549 1.669-1.846a2.821 2.821 0 0 1 3.442 1.253z" fill="#f36f21" style="stroke-width:1.4"/><path fill-rule="evenodd" clip-rule="evenodd" d="M32.983 23.875c.41.867.25 2.054-.337 2.791-.582.706-1.36 1.092-2.274 1.068l-8.777.005 7.353-5.117c.718-.463 1.81-.546 2.594-.171.605.237 1.175.83 1.441 1.424z" fill="#0db14b" style="stroke-width:1.4"/><path fill-rule="evenodd" clip-rule="evenodd" d="M7.003 23.875c-.41.867-.249 2.054.339 2.791.582.706 1.358 1.092 2.272 1.068l8.777.005-7.353-5.117c-.718-.463-1.81-.546-2.592-.171-.606.237-1.176.83-1.443 1.424z" fill="#fdb913" style="stroke-width:1.4"/></svg>