<svg width="40" height="40" fill="none" xmlns="http://www.w3.org/2000/svg"><mask id="a" mask-type="alpha" maskUnits="userSpaceOnUse" x="10" y="18" width="20" height="4"><path fill="#fff" d="M10 18.533h20v2.934H10z"/></mask><g mask="url(#a)" transform="matrix(1.4 0 0 1.4 -8 -8)" fill-rule="evenodd" clip-rule="evenodd" fill="#fff"><path d="M12.338 20.604c-.087.287-.215.666-.866.666-.617 0-1.026-.522-1.031-1.257-.005-.779.38-1.286 1.058-1.286.571 0 .741.35.802.721h.14v-.703c-.157-.09-.586-.212-.952-.212-.89 0-1.5.602-1.489 1.497.012.866.549 1.435 1.432 1.435.5 0 .774-.132 1.035-.265.002 0 .064-.75.064-.75h-.147l-.046.154M14.395 21.27c-.636 0-1.03-.489-1.03-1.276 0-.782.394-1.267 1.03-1.267.656 0 1.049.476 1.049 1.276 0 .794-.393 1.267-1.05 1.267zm1.489-1.315c0-.878-.544-1.422-1.419-1.422-.936 0-1.542.582-1.542 1.483 0 .907.532 1.449 1.423 1.449.948 0 1.537-.58 1.537-1.51M20.72 18.714l.609.105.068 1.847-1.698-2.072h-.856v.118l.459.105-.018 2.362-.41.099c-.115-.033-.299-.082-.543-.386l-.715-.884c.252-.07.659-.255.659-.731 0-.312-.17-.683-.977-.683h-1.26v.118l.457.105v2.361l-.458.107v.119h1.251v-.118l-.405-.107v-2.377c.12-.02.24-.033.321-.033.448 0 .666.168.666.512 0 .533-.43.61-.607.633-.06.008-.13.011-.193.011v.119l.156.05.662.858c.221.287.382.452 1.13.452h1.107v-.12l-.551-.107-.068-2.217 2.024 2.503h.054l.034-2.647.371-.105v-.117H20.72v.12M23.555 21.285l-.458-.106v-2.362l.458-.104v-.12h-1.304v.12l.457.104v2.362l-.457.106v.119l1.304-.001v-.118M25.1 21.285l-.552-.107-.068-2.218 2.024 2.503h.053l.035-2.646.37-.106v-.117h-1.268v.12l.608.105.068 1.848-1.696-2.073h-.857v.118l.457.105-.017 2.362-.44.106v.118H25.1v-.118M29.638 20.315 30 20.21v-.117h-1.287v.119l.538.105v.729c-.19.15-.4.237-.727.226-.587-.019-1-.521-1-1.256 0-.811.38-1.287 1.074-1.287.61 0 .78.394.84.717h.13v-.694c-.182-.103-.576-.217-1.03-.217-.89 0-1.46.585-1.455 1.499.004.848.559 1.42 1.416 1.433.588.01.896-.155 1.139-.3-.002.003 0-.852 0-.852"/></g></svg>