<svg width="40" height="40" fill="none" xmlns="http://www.w3.org/2000/svg"><g clip-path="url(#a)" transform="matrix(1.4 0 0 1.4 -8 -8)" fill-rule="evenodd" clip-rule="evenodd"><path d="M29.695 18.395c-.341-.415-.944-.652-1.653-.652-.75 0-1.425.255-1.893.669l.076-.478-.203-.06a3.27 3.27 0 0 0-.921-.131 2.71 2.71 0 0 0-1.482.444l.12-.398h-3.247l-.038.128a2.549 2.549 0 0 0-.964-.174c-.668 0-1.392.26-1.768.759a1.339 1.339 0 0 0-.079-.107c-.342-.415-.944-.652-1.653-.652-.728 0-1.386.24-1.852.633l.181-1.103-.206-.06a4.122 4.122 0 0 0-1.13-.155c-1.423 0-2.718.905-2.949 2.06-.098.49.017.967.322 1.34.261.317.646.544 1.103.66h-1.41v1.803h7.182l.011-.022.001.022h.865l.117-.191-.036.19h1.954l.029-.15c.172.111.395.172.651.172.23 0 .443-.048.626-.132l-.02.11h2.74l.004-.024c.127.029.26.046.388.046.078 0 .158-.007.237-.021h1.045l.077-.165h.07l.021.165h3.222l.16-.844h-.058l.022-.116h.042l.16-.844h-.089a.448.448 0 0 0 .144-.246.386.386 0 0 0-.146-.38 1.84 1.84 0 0 0 .502-.937c.084-.438-.01-.84-.275-1.16zm-1.864 3.619h-.099l.15-.785.1-.014zm-2.306-2.552c-.01.052-.017.104-.023.155a1.12 1.12 0 0 1-.639.214c-.147 0-.275-.048-.341-.129a.178.178 0 0 1-.04-.156c.04-.201.312-.377.584-.377.17 0 .33.06.486.183-.01.036-.02.072-.027.11zm.22 1.655-.106.175-.088-.05a1.092 1.092 0 0 0-.185-.079c.047-.011.09-.024.13-.038l.123-.044.122-.534c.016.023.032.047.05.069.183.222.448.392.767.501h-.813zm1.082.074-.045.222-.062-.246c.035.008.07.017.107.024zm1.028-2c.132 0 .234.036.287.1.049.059.047.134.037.186-.043.218-.266.37-.544.37-.135 0-.242-.036-.294-.098-.035-.043-.046-.104-.03-.18.035-.187.234-.377.544-.377zm-6.115 2.126a.936.936 0 0 0-.123-.107h.136zm-.72.697c-.024.06-.063.1-.107.107.023-.056.058-.102.107-.107zm-.24-2.802-.162.531a.778.778 0 0 0-.244-.516zm-4.654.265c-.042.218-.265.37-.543.37-.135 0-.242-.036-.294-.098-.035-.043-.046-.104-.031-.18.036-.188.235-.377.545-.377.132 0 .234.035.287.099.048.059.046.134.036.186zm1.965 1.734-.09.099-.017-.107c.036.001.07.005.107.008zm2.299-.714-.189.62h-.723c.37-.122.701-.326.912-.62zm.083.713h.098l-.107.107zm-7.786-1.627c-.207 0-.386-.068-.479-.182a.253.253 0 0 1-.055-.222c.054-.27.414-.498.786-.498.252 0 .484.094.712.287-.06.112-.108.23-.143.352-.278.178-.54.263-.821.263zm4.254 1.278.235.106c.13.058.274.108.425.15h-.437l-.047.094-.006-.094h-.756a2.72 2.72 0 0 0 .586-.256zm5.727 1.153.17-.897h-.827l.58-1.91.176.006c-.032.088-.06.177-.078.268-.082.427.018.838.283 1.159.174.211.414.372.694.477h-.729l-.17.897h-.1zm-9.216-.964.125-.044.109-.462c.017.024.033.049.053.072.183.222.447.392.767.501h-1.32c.1-.018.192-.04.266-.067zm14.956.067c.107-.033.21-.071.31-.115a.384.384 0 0 0 .056.099l.017.016z" fill="#fff"/><path d="m16.886 21.359.05.788h.013c.025-.08.054-.165.094-.243l.272-.545h.441l.067.788h.013c.023-.077.048-.158.084-.233l.265-.555h.599l-.81 1.32h-.502l-.045-.718h-.019c-.019.069-.036.135-.067.2l-.258.518h-.49l-.304-1.32z" fill="#005daa"/><path d="M18.743 21.359h.555l-.085.445h.353l.085-.445h.555l-.251 1.32H19.4l.087-.458h-.353l-.087.458h-.555z" fill="#005daa"/><path d="M21.827 22.022c-.08.424-.522.678-1.005.678-.483 0-.828-.254-.748-.678.079-.415.525-.685 1.007-.685.481 0 .825.27.746.685zm-1.174.007c-.029.15.074.254.248.254.175 0 .316-.103.345-.254.026-.14-.065-.257-.248-.257s-.318.117-.345.257zm1.3-.67h.576l-.17.896h.483l-.08.424h-1.06zm2.252.847.025.02c.09.066.204.12.337.12.057 0 .15-.019.162-.078.011-.06-.063-.065-.114-.074l-.113-.017c-.218-.034-.386-.144-.347-.35.06-.314.435-.49.78-.49.18 0 .34.038.48.116l-.22.338a.579.579 0 0 0-.315-.1c-.05 0-.127.016-.137.07-.01.05.06.056.104.065l.125.025c.235.045.391.154.349.378-.06.315-.435.471-.777.471-.2 0-.422-.045-.587-.12l.248-.374z" fill="#005daa"/><path d="m26.189 22.201-.023-.233c-.006-.056-.006-.114-.005-.17h-.022l-.181.403h.231zm-.501.478h-.61l.802-1.32h.637l.314 1.32h-.61l-.02-.164h-.436l-.077.164z" fill="#005daa"/><path d="M27.032 21.359h.576l-.17.896h.483l-.08.424h-1.06zm1.166 0h1.066l-.069.36h-.485l-.024.127h.443l-.065.343h-.443l-.025.13h.503l-.07.36h-1.082z" fill="#005daa"/><path d="m20.383 18.985.727-.027-.61 2.01h1.305l.61-2.01.71.027.29-.954h-2.743l-.289.954zm-2.701.522c-.183.943-1.182 1.508-2.277 1.508-1.095 0-1.876-.565-1.694-1.508.179-.923 1.19-1.523 2.28-1.523 1.09 0 1.87.6 1.69 1.523zm-2.66.016c-.065.335.167.565.562.565s.716-.23.78-.565c.06-.312-.146-.573-.56-.573-.414 0-.722.261-.782.573z" fill="#e31837"/><path d="M17.276 20.746c.373.168.877.27 1.33.27.775 0 1.623-.347 1.759-1.049.096-.499-.257-.74-.79-.841l-.284-.055c-.097-.02-.255-.035-.234-.144.023-.121.196-.156.31-.156.281 0 .515.097.715.222l.497-.752a2.21 2.21 0 0 0-1.088-.257c-.78 0-1.632.39-1.767 1.087-.089.46.292.705.787.78l.254.038c.116.02.285.031.26.164-.026.132-.24.175-.368.175-.3 0-.558-.12-.762-.269l-.058-.043zm8.678-2.641a3.032 3.032 0 0 0-.852-.121c-1.052 0-2.009.686-2.175 1.543-.162.838.512 1.488 1.536 1.488.233 0 .726-.035.951-.117l.25-1.098c-.241.167-.5.272-.8.272-.39 0-.68-.249-.617-.572.062-.32.43-.573.82-.573.295 0 .53.136.71.296l.177-1.118zm2.09-.121c-1.09 0-2.102.6-2.28 1.523-.183.943.598 1.508 1.693 1.508 1.095 0 2.095-.565 2.277-1.508.178-.923-.6-1.523-1.69-1.523zm-.188.966c.415 0 .621.261.56.573-.064.335-.385.565-.78.565s-.627-.23-.562-.565c.06-.312.368-.573.782-.573zm-13.809-1.505a3.892 3.892 0 0 0-1.063-.146c-1.312 0-2.505.83-2.712 1.865-.202 1.013.639 1.8 1.915 1.8.291 0 .906-.043 1.187-.142l.312-1.328c-.302.202-.624.33-.998.33-.487 0-.848-.302-.77-.693.077-.386.536-.692 1.022-.692.369 0 .662.165.885.358l.222-1.352z" fill="#e31837"/><path d="M28.931 20.826c.02-.103.134-.186.258-.186s.208.083.188.186c-.02.103-.134.186-.258.186s-.207-.083-.188-.186zm.388 0c.016-.083-.044-.137-.139-.137-.097 0-.175.054-.19.137-.016.082.041.137.138.137.095 0 .175-.055.191-.137zm-.08.097h-.057l-.036-.083h-.038l-.016.083h-.049l.037-.194h.113c.05 0 .077.013.068.059-.006.033-.032.05-.062.053l.04.082zm-.069-.05c.026 0 .048 0 .052-.06.003-.047-.019-.047-.044-.047h-.055l-.008.106h.055z" fill="#e31837"/><path d="M10.363 22.681h6.106v-.002h-.005l-.077-.335h-6.024zm0-.48h5.99l-.077-.337h-5.913zm0-.482h5.878l-.027-.123-.054-.235h-5.797zm12.76-.36h1.065l-.069.36h-.485l-.024.127h.443l-.065.343h-.444l-.024.13h.502l-.068.36H22.87Z" fill="#005daa"/></g><defs><clipPath id="a"><path fill="#fff" d="M0 0h40v40H0z"/></clipPath></defs></svg>