<svg width="40" height="40" fill="none" xmlns="http://www.w3.org/2000/svg"><mask id="a" mask-type="alpha" maskUnits="userSpaceOnUse" x="10" y="10" width="20" height="20"><path fill="#fff" d="M10.801 10H29.2v20H10.801z"/></mask><g mask="url(#a)" transform="matrix(1.4 0 0 1.4 -8 -8)"><path fill-rule="evenodd" clip-rule="evenodd" d="M19.948 16.089c.132-.127-.657-.298-1.275.127-.453.314-.464.993-.033 1.374a.725.725 0 0 0 .115.089c.127-.061.271-.122.437-.177.287-.094.518-.138.712-.166.088-.099.198-.287.17-.618-.038-.458-.38-.386-.126-.63zm4.168 2.456c-.072-.044-.425-.027-.674.006-.469.055-.977.22-1.087.31-.199.16-.116.435.038.551.42.32.784.536 1.176.48.243-.033.453-.414.596-.761.105-.243.105-.503-.05-.586zm-1.607-2.832c-.027.067-.066.105-.005.31l.005.01.011.023.022.066c.122.237.243.464.459.58.05-.011.11-.017.17-.023.2-.005.32.028.404.072a.903.903 0 0 0 .005-.187c-.016-.304.061-.817-.513-1.088-.215-.105-.525-.066-.618.06.016 0 .033 0 .044.006.149.05.044.105.016.171zm5.907 4.157-.491.094-.95-9.964-16.174 1.905 1.993 16.422 1.893-.276c-.154-.22-.386-.485-.79-.828-.557-.469-.358-1.27-.027-1.772.43-.855 2.677-1.932 2.55-3.295-.044-.497-.121-1.143-.58-1.585-.01.188.017.36.017.36s-.187-.238-.281-.57c-.088-.126-.166-.165-.26-.336-.071.193-.06.42-.06.42s-.15-.365-.177-.674c-.088.138-.11.397-.11.397s-.2-.574-.155-.883c-.088-.265-.353-.806-.281-2.02.49.353 1.578.27 2.003-.365.144-.215.232-.783-.071-1.91-.194-.723-.68-1.805-.873-2.213l-.022.01c.094.332.304 1.022.387 1.353.237 1.021.298 1.37.187 1.838-.099.409-.325.674-.91.972-.58.298-1.358-.43-1.403-.47-.568-.457-1.01-1.203-1.06-1.573-.044-.391.227-.634.37-.96-.198.06-.42.16-.42.16s.266-.276.591-.519c.138-.094.216-.149.354-.27-.204-.006-.376 0-.376 0s.348-.194.707-.326c-.265-.011-.513 0-.513 0s.772-.353 1.374-.607c.42-.177.828-.122 1.06.215.298.436.613.685 1.286.828.409-.182.536-.276 1.055-.425.458-.508.811-.574.811-.574s-.177.165-.226.425c.26-.204.546-.38.546-.38s-.11.137-.21.352l.023.039c.303-.188.657-.331.657-.331s-.105.132-.221.298c.226 0 .69.01.86.033 1.06.022 1.276-1.143 1.685-1.292.507-.187.734-.292 1.595.569.745.74 1.32 2.064 1.038 2.357-.243.243-.718-.1-1.248-.762a2.948 2.948 0 0 1-.585-1.303 1.284 1.284 0 0 0-.403-.712s.182.425.182.8c0 .21.028.978.348 1.403-.033.066-.05.315-.083.359-.375-.464-1.187-.79-1.32-.889.442.37 1.47 1.225 1.867 2.042.37.773.149 1.48.342 1.668.055.05.8.993.944 1.473.248.829.011 1.7-.315 2.236l-.916.15c-.133-.04-.226-.061-.348-.128.066-.121.199-.42.199-.48l-.055-.094c-.282.409-.762.812-1.16 1.043-.519.299-1.12.254-1.512.133-1.11-.348-2.153-1.11-2.402-1.308 0 0-.01.16.04.198.28.315.915.895 1.54 1.298l-1.32.149.624 4.924c-.27.044-.315.06-.619.105-.27-.955-.778-1.585-1.335-1.943-.492-.326-1.165-.392-1.817-.265l-.038.05c.447-.05.982.016 1.529.37.535.347.966 1.236 1.126 1.771.204.685.348 1.419-.204 2.197-.392.552-1.53.85-2.451.193.243.403.574.735 1.027.79.662.094 1.291-.022 1.727-.475.37-.386.569-1.198.514-2.048l.585-.088.21 1.529 9.71-1.187zm-9.296 2.258 1.22-.171c.199.088.337.127.574.188.37.099.795.187 1.43-.133.149-.072.452-.359.58-.524l5.006-.922.508 6.276-8.573 1.568zm7.104 2.087-1.645-1.099-1.363 2.319-1.595-.475-1.403 2.175.072.684 7.618-1.424-.442-4.835z" fill="#75459b"/></g></svg>