<svg width="40" height="40" fill="none" xmlns="http://www.w3.org/2000/svg"><path fill-rule="evenodd" clip-rule="evenodd" d="M33.876 15.143c-.973-3.238-7.41-4.172-14.383-2.066-.337.1-.655.199-.973.318 6.238-1.45 11.661-.497 12.515 2.364.954 3.138-3.953 7.37-10.926 9.475-.159.04-.318.1-.476.14L22.87 14.13h-.02l-.855.06a27.15 27.15 0 0 0-5.025 1.012c-6.953 2.086-11.82 6.417-10.847 9.655.973 3.238 7.41 4.172 14.402 2.066.338-.1.656-.199.974-.318-6.238 1.45-11.661.497-12.515-2.364-.934-3.138 3.953-7.37 10.926-9.476.139-.04.298-.08.437-.119L17.149 25.87l.854-.06a27.16 27.16 0 0 0 5.026-1.012c6.953-2.086 11.82-6.417 10.847-9.655z" fill="#fff" style="stroke-width:1.4"/></svg>