<svg width="40" height="40" fill="none" xmlns="http://www.w3.org/2000/svg"><path fill-rule="evenodd" clip-rule="evenodd" d="M32.034 10.019c-3.582-1.77-7.71-2.752-12.012-2.752-4.325 0-8.43 1.005-12.035 2.774A26.137 26.137 0 0 0 6 20c0 3.516.699 6.88 1.966 9.96A27.375 27.375 0 0 0 20 32.732c4.302 0 8.43-.983 12.012-2.752A25.84 25.84 0 0 0 33.999 20a25.43 25.43 0 0 0-1.965-9.981z" fill="#367c2b" style="stroke-width:1.4"/><path fill-rule="evenodd" clip-rule="evenodd" d="M31.183 10.762c-3.342-1.573-7.186-2.447-11.161-2.447-3.997 0-7.819.896-11.182 2.468A24.889 24.889 0 0 0 7.092 20c0 3.232.612 6.334 1.748 9.195 3.341 1.616 7.185 2.49 11.182 2.49 3.975 0 7.819-.896 11.182-2.468A24.888 24.888 0 0 0 32.952 20a25.557 25.557 0 0 0-1.77-9.238zM16.2 17.117a11.498 11.498 0 0 0-1.136 3.91l-.35.021c-1.2.11-2.467.197-3.669.678l.088.48c1.966 2.446 4.958 3.931 5.001 3.953l.066-.065-.655-1.027c-.153-.11-.568-.218-.568-.218-1.354-.459-2.293-2.206-2.446-2.512 1.114 0 2.075.328 3.035.633.634.197 1.202.394 1.813.503 1.07.174 2.184-.022 3.189-.153a14.757 14.757 0 0 1 2.402-.044c.088.11.918 1.114 1.726 1.529.983.524 3.887 1.376 4.018 1.442.066.065 1.18 1.179 1.857 2.467-3.232 1.486-6.88 2.272-10.549 2.272-3.67 0-7.317-.786-10.57-2.293A24.066 24.066 0 0 1 7.834 20c0-2.992.546-5.919 1.616-8.692 3.254-1.507 6.902-2.294 10.571-2.294 3.67 0 7.317.787 10.549 2.294A24.153 24.153 0 0 1 32.187 20c0 2.752-.458 5.416-1.354 7.972-1.027-1.791-1.442-2.337-1.442-2.337-.021 0-1.463-.765-1.812-1.07-.284-.24-.415-.743-.568-1.333-.218-.808-.502-1.812-1.267-2.62l.874-.35c-.24-1.682-2.228-2.774-2.25-2.774l-.109.044c.764.961.983 1.77.983 2.25 0 .24-.044.415-.066.48-.218-.087-1.703-.546-5.023-.437-.48.022-1.201 0-1.616-.415-.24-.218-.35-.568-.35-.982 0-1.158.48-2.709.568-2.927l.874.11c1.026-.569 1.441-1.071 1.507-1.158l-.044-.044c-.895.11-2.031.35-2.031.35.087-.197.306-.874.306-1.617 0-.808-.262-1.725-1.31-2.25l-.11.044s.612.655.612 1.53c0 .24-.044.501-.175.785-.35-.13-.48-.153-.874-.174-.196-.7-.808-1.289-1.638-1.573l-.109.066s.874.633.94 1.55c-.438.044-.634.088-1.18.24-.219-.37-.743-.655-1.398-.72l-.11.043s.765.263.94.852c-.48.219-.961.546-1.31.83l.043.131c1.988-.764 3.844-1.004 4.325-.436a.445.445 0 0 1 .13.327c0 .175-.065.35-.196.568-.983.218-2.446.633-3.67 1.092l.154.502s1.223.24 1.681.35c0 .022.175.043.088.218z" fill="#fdda01" style="stroke-width:1.4"/></svg>