<svg width="40" height="40" fill="none" xmlns="http://www.w3.org/2000/svg"><g clip-path="url(#a)" transform="matrix(1.4 0 0 1.4 -8 -8)"><path fill-rule="evenodd" clip-rule="evenodd" d="M30 21.76v1.202h-3.777v-5.923h1.374v4.72H30Zm-11.417-5.065-3.347 2.577c-.343-1.288-1.459-2.233-2.832-2.233H10v5.922h2.404c1.373 0 2.575-.944 2.832-2.231l3.347 2.574 3.348-2.574v2.231h3.776V21.76H23.22v-4.72h-1.375v2.231l-3.175 2.576-.687-.6 1.545-1.202 1.632-1.288-.944-.772-3.176 2.488-.687-.601 3.175-2.404-.943-.772h-.002Zm-7.296 1.546h1.03c.214 0 .425.048.618.136.193.089.37.218.52.38.15.16.273.352.36.57.085.217.132.459.132.717 0 .236-.042.466-.12.679-.08.213-.196.409-.34.575a1.623 1.623 0 0 1-.516.398 1.496 1.496 0 0 1-.654.149h-1.03V18.24z" fill="#007db8"/></g><defs><clipPath id="a"><path fill="#fff" d="M0 0h40v40H0z"/></clipPath></defs></svg>