<svg width="40" height="40" fill="none" xmlns="http://www.w3.org/2000/svg"><g clip-path="url(#a)" transform="matrix(1.4 0 0 1.4 -8 -8)"><path fill-rule="evenodd" clip-rule="evenodd" d="m17.259 20.44-.034.034c-.017.017-.453.453-.607.888h-.76c.171-.649 1.008-1.315 1.016-1.323l.043-.035-.043-.034c-.008-.008-.734-.615-1.007-1.298h.768c.18.538.564.854.58.863l.027.025.025-.025c.017-.017.41-.333.598-.863h.768c-.29.683-1.016 1.29-1.024 1.298l-.043.034.043.034c.008.01.845.666 1.033 1.324h-.76c-.145-.427-.598-.87-.615-.888l-.009-.034zm-2.87.973c.573 0 .94-.239 1.068-.341-.085-.043-.384-.188-.427-.214-.06.069-.256.137-.58.137-.402 0-.573-.17-.573-.751V20.2h.043c.657 0 1.153-.12 1.58-.393.008-.034.034-.145.034-.24 0-.443-.3-.956-1.136-.956-.888 0-1.324.462-1.324 1.4 0 .983.393 1.401 1.316 1.401zm-.512-1.596c0-.41.06-.812.538-.812.248 0 .419.12.419.427 0 .094-.052.197-.052.205l-.008.017-.026.017c-.239.129-.367.197-.828.197h-.043zm-1.366.17c0-.948-.478-1.409-1.452-1.409H10v2.835h1.06c.973-.008 1.45-.47 1.45-1.426zm-1.734-.973h.308a.65.65 0 0 1 .213.034c.248.128.367.376.367.948 0 .632-.145.888-.452.982l-.128.008h-.308v-1.973Zm19.18-.248a.27.27 0 0 0-.12-.12.347.347 0 0 0-.153-.042.35.35 0 0 0-.154.042.27.27 0 0 0-.12.12.355.355 0 0 0-.042.162.321.321 0 0 0 .316.316.321.321 0 0 0 .316-.316.274.274 0 0 0-.042-.162zm-.042.29a.246.246 0 0 1-.094.094.241.241 0 0 1-.128.034.222.222 0 0 1-.128-.034.361.361 0 0 1-.102-.094.272.272 0 0 1 0-.265.216.216 0 0 1 .102-.093.24.24 0 0 1 .128-.034.24.24 0 0 1 .128.034c.043.025.077.06.102.094a.252.252 0 0 1 .035.136c-.009.043-.017.086-.043.128zm-.171-.093c-.009-.009-.017-.018-.025-.018a.078.078 0 0 0 .068-.034.097.097 0 0 0 .025-.068c0-.017-.008-.034-.017-.051-.008-.017-.025-.026-.042-.034-.017-.009-.043-.009-.086-.009h-.12v.342h.052v-.137h.034c.017 0 .034 0 .043.008.017.009.034.035.06.077l.034.052h.068l-.043-.06a.286.286 0 0 1-.051-.068Zm-.077-.052H29.6v-.102h.06c.025 0 .042 0 .05.008.01 0 .018.009.026.017.009.009.009.017.009.026a.066.066 0 0 1-.017.034c0 .008-.026.017-.06.017zm-1.221 2.443V19.38c0-.282-.034-.367-.24-.367-.358 0-.503.247-.512.256l-.008.009v2.075h-.76V19.38c0-.282-.034-.367-.24-.367-.358 0-.503.248-.512.256l-.008.009v2.075h-.752v-2.135c0-.18-.179-.35-.375-.453.153-.042.58-.17.606-.179.085.034.29.128.35.213l.026.035.034-.026s.341-.213.785-.213c.325 0 .555.06.692.188l.026.017.025-.009c.282-.128.538-.196.769-.196.615 0 .837.247.837.478v2.28h-.743zm-8.548-1.341c0 .717.196.982.615.982.315 0 .478-.06.538-.128.05.025.35.18.435.222a1.55 1.55 0 0 1-.99.333c-.931 0-1.418-.487-1.418-1.4 0-.923.487-1.4 1.417-1.4.538 0 .88.238.991.332l-.435.222c-.06-.068-.214-.128-.53-.128-.427-.017-.623.24-.623.965zm3.305-1.41c-.846 0-1.358.522-1.358 1.401 0 .88.504 1.4 1.358 1.4.845 0 1.34-.52 1.34-1.4.009-.87-.495-1.4-1.34-1.4zm0 2.358c-.368 0-.53-.23-.53-.948 0-.717.162-.948.53-.948.358 0 .512.222.512.948.008.726-.145.948-.512.948z" fill="#63a844"/></g><defs><clipPath id="a"><path fill="#fff" d="M0 0h40v40H0z"/></clipPath></defs></svg>