<svg width="40" height="40" fill="none" xmlns="http://www.w3.org/2000/svg"><path fill-rule="evenodd" clip-rule="evenodd" d="M14.98 23.59c-1.432.476-2.783.256-3.52.045-.02.325-.052.462-.1.515-.057.07-.526.36-.785-.053-.113-.198-.17-.555-.202-.88-1.659-.819-2.428-2.024-2.452-2.068-.04-.044-.416-.47-.04-.999.352-.475 1.517-.955 2.56-1.144.04-.968.138-1.716.263-2.046.139-.366.312-.093.471.16l.039.06c.138.198.223 1.048.23 1.725.68-.035 1.093.018 1.85.176.995.185 1.658.74 1.605 1.364-.048.616-.566.871-.768.889-.203.017-.526-.145-.526-.145-.227-.115-.02-.22.243-.344.29-.154.226-.308.226-.308-.105-.352-1.396-.585-2.678-.585 0 .77.028 2.046.049 2.79.898.184 1.57.145 1.57.145s3.276-.102 3.369-2.376c.101-2.28-3.277-4.461-5.765-5.148-2.483-.708-3.891-.207-4.013-.14-.133.07-.012.096-.012.096s.134.022.377.11c.242.088.048.22.048.22-.425.159-.898.066-.991-.145-.083-.185.03-.356.186-.588l.057-.085c.17-.286.364-.277.364-.277 3.074-1.166 6.828.924 6.828.924 3.512 1.927 4.11 4.192 4.046 5.073-.057.866-.364 2.331-2.529 3.044zm2.905-5.649c.323.154.704.22 1.262.014v.013c.866-.321 1.715-1.254 1.715-2.002.016-.748-.752-.748-.752-.748h-.025c-.137-.457-.93-.396-.93-.396-1.618.145-2.152 1.368-2.225 1.694-.056.277-.032.69.283.999-.086.25-.025.37.01.439l.006.014c.02.088.162.37.324.352.105-.018.19-.101.332-.379zm8.624 4.343c-.12.321-.457.66-.861.453-.413-.211-1.064-1.654-1.064-1.654s-.243-.537-.291-.52c0 0-.053-.105-.081.485-.01.15-.015.339-.02.538-.014.571-.03 1.233-.195 1.367-.202.176-.445.1-.582-.106-.114-.207-.162-.704-.097-1.57.072-.867.255-1.791.485-2.077.243-.29.437-.08.51 0 0 0 .311.308.837 1.219l.09.167s.476.866.525.862c0 0 .04.044.073.009.048-.013.032-.295.032-.295s-.089-.937-.534-2.521c0 0-.064-.202-.02-.396.04-.176.214-.088.214-.088s.672.352 1 1.54c.323 1.188.105 2.266-.017 2.587zm3.69-2.605c-.474.12-1.724.185-1.724.185l-.153.537s.619-.057 1.072-.009c0 0 .145-.013.161.176.009.194-.012.396-.012.396s-.012.119-.161.15c-.174.03-1.348.088-1.348.088l-.19.695s-.068.158.09.114c.145-.044 1.375-.299 1.537-.264.17.044.364.3.307.528-.065.277-1.295 1.131-2.039 1.074 0 0-.392.026-.72-.55-.316-.55.11-1.584.11-1.584s-.19-.484-.05-.66c0 0 .082-.075.324-.097l.304-.677s-.344.022-.546-.251c-.186-.264-.203-.379-.057-.449.154-.088 1.578-.365 2.557-.33 0 0 .344-.044.647.603 0 0 .137.264-.105.325zm-7.012-.382.03-.062v-.004c.048-.12.008-.198.008-.198-.296-.352-1.873-.282-1.873-.282-.575.053-1.898.308-2.084.968-.178.625-.016.854-.016.854.146.275 1.006.301 1.437.314.071.002.13.004.173.007.32.013 1.145.123 1.428.299.287.189.097.422.097.422-.473.577-2.063.669-2.467.414-.162-.119-.203-.233-.04-.427.165-.207.699.097.638.075-.064-.04.26.189.696.202.453.009.765-.167.789-.343.016-.163-.388-.321-.388-.321-1.348-.41-1.873-.057-1.873-.057-.733.501-.19 1.161-.19 1.161 1.185 1.373 3.021.475 3.236.282.206-.207.299-.41.307-.981.008-.56-.214-.806-.214-.806-.389-.519-1.449-.528-1.764-.528a10.662 10.662 0 0 1-1.06-.14c-.145-.031-.057-.154-.057-.154.134-.207 2.844-.414 2.844-.414.235-.04.292-.168.343-.281zm-4.445 3.805c-.19.154-.594.088-.712-.088-.113-.154-.153-.76-.133-1.716l.008-.275c.024-.914.051-1.916.235-2.092.202-.189.323-.022.404.106l.02.031c.077.125.168.27.182.55.025.308.094 1.892.094 1.892s.088 1.443-.094 1.592zm1.125-7.277c-.51.088-1.295.827-1.67 1.439.578.114 1.59.07 2.042-.924 0 0 .215-.625-.372-.515zm-2.33 1.056c-.077-.114-.069-.286.093-.572.222-.378.55-.554.939-.598-.506.378-.842.862-1.032 1.17zm13.875 6.19c-.372.995-.687 2.002-.87 3.511 0 0-.04.295-.262.199-.223-.089-.587-.484-.668-1.043-.08-.73.219-1.963.83-3.38-.179-.307-.304-.765-.203-1.407 0 0 .162-1.188 1.254-2.262 0 0 .13-.118.202-.079.09.044.053.423-.02.616-.065.185-.55 1.1-.55 1.1s-.303.625-.218 1.113c.574-.959 1.88-2.904 2.69-2.288.513.396.513 1.672.13 2.411-.304.586-1.162 1.796-2.307 1.514zm.437-1.06a8.557 8.557 0 0 1 1.254-1.927c.34-.422.389-.035.389-.035.076.74-.417 1.298-.631 1.505-.134.136-.567.404-1.012.457zM8.12 20.902s-.242-.281.106-.457c.323-.159 1.011-.37 2.2-.458v.153c.001.59.001 1.085-.08 2.302-.77-.299-1.57-.778-2.226-1.54z" fill="#fff" style="stroke-width:1.4"/></svg>