<svg width="40" height="40" fill="none" xmlns="http://www.w3.org/2000/svg"><g clip-path="url(#a)" transform="matrix(1.4 0 0 1.4 -8 -8)"><path fill-rule="evenodd" clip-rule="evenodd" d="m10 19.978 10 3.313 10-3.313-10-3.27Zm6.794-1.33h-1.847v.158h.083c.06.011.097.023.141.065.037.035.046.067.054.119v1.998a.16.16 0 0 1-.049.13c-.033.042-.078.063-.146.069h-.087v.158h1.855c.588.004 1.328-.507 1.328-1.357 0-.792-.744-1.34-1.332-1.34zm4.632.523h1.226v.164h-.062a.171.171 0 0 0-.137.096.201.201 0 0 0 .004.157l.37.884.504-1.301H24l.52 1.294.386-.923c.007-.06.007-.085-.025-.133-.035-.05-.066-.067-.126-.074h-.073v-.164h1.217v.164h-.092c-.072 0-.119.028-.178.07a.33.33 0 0 0-.112.147l-.595 1.436c-.022.065-.024.104-.004.149.02.038.063.05.113.054h.088v.154h-1.195v-.154h.08c.037-.01.066-.021.085-.065.019-.045.011-.066-.008-.115l-.434-1.034-.43 1.019c-.019.048-.028.091-.008.137.017.035.05.05.091.058h.056v.154H22.17v-.154h.064c.047-.006.083-.016.106-.056.025-.048.016-.093-.006-.147l-.601-1.468c-.026-.053-.035-.082-.095-.13a.241.241 0 0 0-.139-.055h-.072v-.164zm-1.422-.198c-.826-.004-1.448.488-1.448 1.224.003.76.643 1.2 1.437 1.196.799-.003 1.443-.436 1.454-1.196.008-.732-.633-1.224-1.443-1.224zm-.011 1.804c-.42.005-.763-.213-.763-.586 0-.36.33-.605.77-.605.43 0 .772.244.767.605-.009.373-.348.586-.774.586zm-3.225-.017h-.885v-1.539h.885c.423.004.662.223.7.766.027.405-.266.777-.7.773z" fill="#eb192e"/></g><defs><clipPath id="a"><path fill="#fff" d="M0 0h40v40H0z"/></clipPath></defs></svg>