<svg width="40" height="40" fill="none" xmlns="http://www.w3.org/2000/svg"><g clip-path="url(#a)" transform="matrix(1.4 0 0 1.4 -8 -7.99)"><mask id="b" mask-type="alpha" maskUnits="userSpaceOnUse" x="10" y="16" width="20" height="8"><path fill="#fff" d="M10 16.972h20v6.056H10z"/></mask><g mask="url(#b)"><path fill-rule="evenodd" clip-rule="evenodd" d="M21.766 16.975c-.707-.037-1.128.299-1.128 1.068v3.82c0 .812.381 1.146 1.128 1.11.73-.034 1.111-.333 1.111-1.196v-3.646c0-.823-.344-1.116-1.111-1.156zm-2.743.032c-.132 0-.616.018-1.06.046v5.84c.15.009.547.031.762.037v-1.983h.298c.8-.003 1.13-.389 1.13-1.13v-1.72c0-.727-.372-1.09-1.13-1.09zm-2.418 4.654c0 .231-.074.377-.341.342-.263-.034-.334-.154-.334-.427v-4.339c-.175.02-.564.079-.73.105v4.388c0 .7.316.973 1.064 1.065.684.085 1.103-.288 1.103-1.065v-4.636c-.143.008-.611.05-.762.068v4.5zm8.388-1.433-.845-2.97a19.53 19.53 0 0 0-.723-.087v5.604c.15-.015.535-.062.734-.09l-.06-3.302.894 3.174c.19-.033.468-.085.651-.122V17.51a20.17 20.17 0 0 0-.703-.131l.052 2.848zm-11.206-2.535c-.242 0-.591.077-1.223.287v3.986c.555.181.981.287 1.223.287.558 0 .873-.367.873-.957V18.65c0-.589-.315-.956-.873-.956zm12.234.679c.19.036.375.077.556.12v3.726c.167-.042.477-.13.683-.195v-3.356c.198.056.385.11.556.164v-.719a13.373 13.373 0 0 0-1.795-.52v.78zm-3.914 3.422c0 .231-.071.35-.341.36-.278.008-.353-.12-.353-.36v-3.64c0-.24.075-.372.353-.363.27.008.341.132.341.363zm-8.138-.6c0 .23-.129.307-.283.307a1.91 1.91 0 0 1-.455-.091v-2.876c.15-.043.335-.09.455-.09.154 0 .283.077.283.308zm14.666-2.728c.867.44 1.365.952 1.365 1.498 0 .552-.498 1.068-1.365 1.51zM10 19.964c0 .552.497 1.068 1.364 1.51v-3.007c-.867.439-1.364.951-1.364 1.497Zm9.384-.209c0 .252-.082.379-.392.38h-.267v-2.304c.119-.006.182-.008.254-.008.335 0 .405.136.405.393z" fill="#e4001c"/></g></g><defs><clipPath id="a"><path fill="#fff" d="M0 0h40v40H0z"/></clipPath></defs></svg>