<svg width="40" height="40" fill="none" xmlns="http://www.w3.org/2000/svg"><g clip-path="url(#a)" transform="matrix(1.4 0 0 1.4 -8 -8)"><mask id="b" mask-type="alpha" maskUnits="userSpaceOnUse" x="10" y="15" width="21" height="10"><path fill="#fff" d="M10 15.993h20v8.015H10z"/></mask><g mask="url(#b)" fill-rule="evenodd" clip-rule="evenodd"><path d="M22.665 20.246c-.91.03-1.474.198-1.474.794 0 .386.314.804 1.098.804 1.055 0 1.609-.574 1.609-1.515v-.104c-.366 0-.826.01-1.233.02zm2.236 1.243c0 .293.01.575.031.836h-.93a6.458 6.458 0 0 1-.031-.627c-.502.617-1.108.794-1.933.794-1.244 0-1.902-.648-1.902-1.41 0-1.098.899-1.474 2.456-1.516.428-.01.909-.01 1.306-.01v-.105c0-.731-.47-1.034-1.285-1.034-.607 0-1.045.25-1.098.68H20.46c.115-1.077 1.243-1.349 2.236-1.349 1.191 0 2.194.429 2.194 1.682v2.059z" fill="#f5af02"/><path d="M13.992 19.713c-.042-.94-.71-1.286-1.442-1.286-.774-.01-1.4.387-1.505 1.286zm-2.968.668c.052.91.68 1.453 1.547 1.453.595 0 1.128-.24 1.306-.773h1.034c-.209 1.065-1.348 1.431-2.33 1.431-1.787 0-2.58-.982-2.58-2.31 0-1.462.814-2.423 2.59-2.423 1.411 0 2.456.742 2.456 2.35v.272z" fill="#e53238"/><path d="M17.618 21.802c.93 0 1.567-.668 1.567-1.682 0-1.013-.637-1.682-1.567-1.682-.93 0-1.568.669-1.568 1.682 0 1.014.638 1.682 1.568 1.682zm-2.57-5.81h1.002v2.519c.491-.585 1.17-.752 1.84-.752 1.117 0 2.36.752 2.36 2.382 0 1.358-.981 2.351-2.371 2.351-.732 0-1.41-.261-1.84-.773 0 .209-.01.418-.03.616h-.993c.02-.313.031-.71.031-1.034z" fill="#0064d2"/><path d="m30 17.926-3.103 6.092h-1.118l.888-1.693-2.33-4.4h1.17l1.714 3.439 1.713-3.438H30z" fill="#86b817"/></g></g><defs><clipPath id="a"><path fill="#fff" d="M0 0h40v40H0z"/></clipPath></defs></svg>