<svg width="40" height="40" fill="none" xmlns="http://www.w3.org/2000/svg"><mask id="a" mask-type="alpha" maskUnits="userSpaceOnUse" x="10" y="15" width="20" height="10"><path fill="#fff" d="M10 15.136h20v9.727H10z"/></mask><g mask="url(#a)" transform="matrix(1.4 0 0 1.4 -8 -8)"><path fill-rule="evenodd" clip-rule="evenodd" d="m20.068 24.84-.015.024H10l.015-.023.023-.038.023-.038.022-.038.03-.038.023-.038.023-.037.023-.038.023-.038.022-.038.023-.038.023-.038.03-.038.023-.038.023-.03.022-.038.023-.038.023-.038.022-.037.023-.038.03-.038.023-.038.023-.038.023-.038.022-.038.023-.038.023-.037.023-.038.03-.038.023-.038.022-.038.023-.03.023-.038.023-.038.022-.038.023-.038.03-.038.023-.038.023-.037.022-.038.023-.038.023-.038.023-.038.022-.038.03-.038.023-.038.023-.037.023-.038.023-.038.022-.03.023-.038.023-.038.03-.038.023-.038.023-.038.022-.038.023-.038.023-.038.022-.037.023-.038.03-.038.023-.038.023-.038.023-.038.022-.038.023-.038.023-.03.023-.038.03-.038.023-.037.022-.038.023-.038.023-.038.022-.038.023-.038.023-.038.03-.038.023-.038.023-.037.022-.038.023-.038.023-.038.023-.038.022-.038.03-.03.023-.038.023-.038.023-.038.023-.038.022-.037.023-.038.023-.038.03-.038.023-.038.022-.038.023-.038.023-.038.023-.038.022-.037.023-.038.03-.038.023-.038.023-.03.007-.015h-1.795l.023-.023.022-.038.023-.038.023-.038.023-.038.022-.038.023-.037.023-.038.023-.038.022-.038.03-.038.023-.038.023-.038.023-.038.022-.038.023-.037.023-.03.023-.039.022-.037.03-.038.023-.038.023-.038.023-.038.023-.038.022-.038.023-.038.023-.037.023-.038.022-.038.03-.038.023-.038.023-.038.023-.038.022-.038.023-.03.023-.038.023-.038.022-.038.03-.037.023-.038.023-.038.023-.038.023-.038.022-.038.023-.038.023-.038.022-.037.03-.038.024-.038.022-.038.023-.038.023-.03v-.008h7.492l-.007.008-.023.03-.023.038-.023.038-.022.038-.023.038-.023.037-.023.038-.022.038-.03.038-.023.038-.023.038-.023.038-.022.038-.023.037-.023.038-.023.038-.022.038-.03.03-.023.038-.023.038-.023.038-.023.038-.022.038-.023.038-.023.038-.023.037-.022.038-.03.038-.023.038-.023.038-.023.038-.022.038-.023.038-.023.037-.023.038-.022.03-.03.038-.023.038-.023.038-.023.038-.023.038-.022.038-.023.038-.023.038-.022.038-.03.037-.024.038-.022.038-.023.038-.023.038-.022.038-.016.023H14.78l-.015.015-.023.03-.022.038-.023.038-.023.038-.03.037-.023.038-.022.038-.023.038-.023.038-.03.038-.023.038-.023.038-.022.038-.023.037-.03.038-.023.038-.023.038-.023.038-.022.03-.03.038-.023.038-.023.038-.023.038-.03.038-.023.037-.023.038-.022.038-.023.038-.03.038-.023.038-.023.038-.023.038-.022.038-.03.037-.023.038-.023.038-.023.03-.022.038-.03.038-.023.038-.023.038-.023.038-.03.038-.023.038-.023.037-.022.038-.023.038-.03.038-.023.038-.023.038-.023.03h5.402l.023-.03.022-.038.023-.038.023-.038.023-.038.022-.038.023-.037.023-.038.03-.038.023-.038.022-.038.023-.038.023-.038.023-.038.022-.03.023-.038.03-.038.023-.037.023-.038.023-.038.022-.038.023-.038.023-.038.022-.038.03-.038.024-.038.022-.037.023-.038.023-.038.022-.038.023-.038.023-.038.03-.03.023-.038.023-.038.022-.038.023-.038.023-.037.023-.038.022-.038.03-.038.023-.038.023-.038.023-.038.022-.038.023-.038.023-.037.03-.038.023-.038.023-.038.022-.03.023-.038.023-.038.023-.038.022-.038.03-.038.023-.038.023-.037.023-.038.023-.038.022-.038.023-.038.023-.038.03-.038.023-.038.022-.038.023-.037.023-.03.023-.039.022-.037.023-.038.03-.038.023-.038.023-.038.023-.038.022-.038.023-.038.023-.037.023-.038.03-.038.023-.038.022-.038.023-.038.023-.038.022-.038.023-.03.023-.038.03-.038.023-.038.023-.037.022-.038.023-.038.023-.038.023-.038.022-.038.03-.038.023-.038.023-.037.023-.038.023-.038.022-.038.023-.038.03-.03.023-.038.023-.038.022-.038.023-.038.023-.038.023-.038.022-.037.03-.038.023-.038.023-.038.023-.038.023-.038.022-.038.023-.038.023-.037.03-.038.023-.038.023-.03.022-.038.023-.038.023-.038.022-.038.023-.038.03-.038.023-.038.023-.038.023-.037.022-.038.023-.038.023-.038.023-.038.03-.038.023-.038.022-.038.023-.037.023-.03.022-.039.023-.038.023-.037.03-.038.023-.038.023-.038.022-.038.023-.038.023-.038.023-.038.022-.037.03-.038.023-.038.023-.038.023-.038.023-.038.022-.03.023-.038.03-.038.023-.038.023-.038.022-.038.023-.037.023-.038.023-.038.022-.038.03-.038.023-.038.023-.038.023-.038.023-.037.022-.038.023-.038.023-.038.03-.03.023-.038.023-.038.022-.038.023-.038.023-.038.022-.038.023-.038.03-.037.023-.038.023-.038.023-.038.022-.038.023-.038.023-.038.023-.038.03-.037.023-.03.022-.039.023-.038.023-.037.023-.038.022-.038.023-.038.03-.038.023-.038.023-.038.022-.038.023-.037.023-.038.023-.038.098-.152.099.152.022.038.023.038.023.037.023.038.03.038.023.038.022.038.023.038.023.038.022.038.023.037.023.038.03.038.023.03.023.038.022.038.023.038.023.038.023.038.022.038.03.038.023.038.023.037.023.038.023.038.022.038.023.038.023.038.03.038.023.038.022.03.023.038.023.038.023.038.022.037.023.038.03.038.023.038.023.038.023.038.022.038.023.038.023.037.022.038.023.038.03.038.023.038.023.038.023.03.022.038.023.038.023.038.023.038.03.038.023.037.022.038.023.038.023.038.023.038.022.038.023.038.03.038.023.037.023.038.022.038.023.03.023.038.023.038.022.038.03.038.023.038.023.038.023.038.023.038.022.037.023.038.023.038.03.038.023.038.023.038.022.038.023.038.023.037.022.03.023.039.03.038.023.037.023.038.023.038.022.038.023.038.023.038.023.038.022.038.03.037.023.038.023.038.023.038.023.038.022.038.023.038.023.03.03.038.023.038.022.038.023.038.023.037.023.038.022.038.023.038.03.038.023.038.023.038.023.038.022.037.023.038.023.038.022.038.03.03.024.038.022.038.023.038.023.038.022.038.023.038.023.038.03.037.023.038.023.038.022.038.023.038.023.038.023.038.022.038.03.037.023.038.023.03.023.038.022.038.023.038.023.038.023.038.03.038.023.038.022.038.023.038.023.037.023.038.022.038.023.038.023.038.03.038.023.038.023.03.022.038.023.038.023.038.022.037.023.038.03.038.023.038.023.038.023.038.022.038.023.038.023.038.023.037.03.038.023.038.022.038.023.038.023.03.023.038.022.038.023.038.03.038.023.038.023.037.022.038.023.038.023.038.023.038.022.038.03.038.023.038.023.038.023.037.023.038.022.038.023.03.023.038.03.038.023.038.023.038.022.038.023.038.023.038.022.037.023.038.03.038.023.038.023.038.023.038.022.038.023.038.023.038.023.03.022.038.03.038.023.038.023.037.023.038.022.038.023.038.023.038.023.038.03.038.023.038.022.037.023.038.023.038.023.038.022.038.023.038.03.03.023.038.023.038.023.038.022.038.023.038.023.037.022.038.03.038.023.038.023.038.023.038.023.038.022.038.023.037.023.038.03.038.023.03.023.038.022.038.023.038.023.038.023.038.022.038.03.038.023.038.023.037.023.038.022.038.023.038.023.038.015.023h-2.31l-.016-.023-.023-.038-.022-.038-.023-.038-.03-.038-.023-.038-.023-.037-.022-.038-.023-.038-.023-.038-.023-.038-.022-.038-.023-.038-.03-.037-.023-.03-.023-.039-.023-.038-.022-.038-.023-.037-.023-.038-.023-.038-.022-.038-.023-.038-.03-.038-.023-.038-.023-.038-.022-.037-.023-.038-.023-.038-.023-.038-.022-.038-.023-.03-.03-.038-.023-.038-.023-.038-.022-.038-.023-.038-.023-.038-.023-.037-.022-.038-.023-.038-.023-.038-.03-.038-.023-.038-.023-.038-.022-.038-.023-.037-.023-.038-.023-.038-.022-.03-.023-.038-.03-.038v-.008h-3.63l.016-.03.023-.038.022-.038.03-.038.023-.038.023-.038.023-.037.023-.038.023-.038.022-.038.03-.038.023-.038.023-.038.023-.038.022-.03.023-.038.023-.038.03-.037.023-.038.023-.038.022-.038.023-.038.023-.038.03-.038.023-.038.023-.038.022-.037.023-.038.023-.038.023-.038.03-.038.023-.038.022-.03.023-.038.023-.038.022-.038.023-.038.03-.037.023-.038.023-.038.023-.038.022-.038.023-.038.023-.038.03-.038.023-.038.023-.037.022-.038.023-.038.023-.038.023-.03.007-.015h1.197l-.015-.023-.023-.038-.023-.038-.022-.038-.023-.038-.03-.038-.023-.037-.023-.038-.023-.038-.022-.038-.023-.038-.023-.038-.023-.038-.022-.038-.03-.038-.023-.037-.023-.03-.023-.038-.022-.038-.023-.038-.023-.038-.023-.038-.022-.038-.03-.038-.023-.038-.023-.038-.023-.037-.022-.038-.023-.038-.023-.038-.023-.038-.022-.038-.03-.038-.024-.038-.022-.03-.023-.038-.023-.038-.022-.037-.023-.038-.023-.038-.023-.038-.03-.038-.023-.038-.022-.038-.023-.038-.023-.038-.023-.037-.022-.038-.023-.038-.023-.038-.03-.038-.023-.03-.022-.038-.023-.038-.023-.038-.023-.038-.022-.038-.023-.037-.023-.038-.015-.016-.008.016-.022.038-.023.037-.023.038-.03.038-.023.038-.023.038-.022.038-.023.03-.023.038-.022.038-.023.038-.023.038-.023.037-.03.038-.023.038-.022.038-.023.038-.023.038-.023.038-.022.038-.023.038-.023.037-.022.038-.03.038-.023.03-.023.038-.023.038-.023.038-.022.038-.023.038-.023.038-.023.038-.022.037-.03.038-.023.038-.023.038-.023.038-.023.038-.022.038-.023.038-.023.038-.022.037-.023.03-.03.039-.023.037-.023.038-.023.038-.022.038-.023.038-.023.038-.023.038-.022.038-.023.037-.03.038-.023.038-.023.038-.022.038-.023.038-.023.038-.023.03-.022.038-.023.038-.023.038-.03.038-.023.037-.023.038-.022.038-.023.038-.023.038-.023.038-.022.038-.023.038-.023.037-.03.038-.023.038-.022.038-.023.038-.023.03-.023.038-.022.038-.023.038-.023.038-.023.038-.03.038-.023.037-.022.038-.023.038-.023.038-.022.038-.023.038-.023.038-.023.038-.022.037-.03.038-.023.038-.023.03-.023.038-.023.038-.022.038-.023.038-.023.038-.023.038-.022.038-.03.038-.023.037-.023.038-.023.038-.022.038-.023.038-.023.038-.023.038-.022.038-.023.03-.03.038-.023.038-.023.038-.023.037-.022.038-.023.038-.023.038-.022.038-.023.038-.023.038-.03.038-.023.037-.023.038-.022.038-.023.038-.023.038-.023.038-.022.03-.023.038-.023.038-.03.038-.023.038-.023.038-.022.037-.023.038-.023.038-.022.038-.023.038-.023.038-.023.038-.03.038-.023.037-.022.038-.023.038-.023.03-.023.038-.022.038-.023.038-.023.038-.022.038-.03.038-.024.038-.022.038-.023.037-.023.038-.022.038-.023.038zm.955-7.719v.008l-7.94.023.016-.03.03-.031.023-.038.022-.038.023-.038.023-.038.022-.038.023-.037.023-.038.023-.038.03-.038.023-.038.022-.038.023-.038.023-.038.023-.037.022-.038.023-.038.023-.038.023-.03.03-.038.023-.038.022-.038.023-.038.023-.038.022-.038.023-.038.023-.037.023-.038.03-.038.023-.038.022-.038.023-.038.023-.038.023-.038.022-.037.023-.03.023-.039.022-.038.03-.037.024-.038.022-.038.023-.038.023-.038.022-.038.023-.038.023-.038.023-.037.03-.038.023-.038.045-.076h7.94l-.054.076-.022.038-.023.038-.023.037-.022.038-.03.038-.023.038-.023.038-.023.038-.023.038-.022.038-.023.037-.03.038-.023.038-.023.03-.023.038-.022.038-.023.038-.03.038-.023.038-.023.038-.023.038-.022.038-.023.037-.023.038-.03.038-.023.038-.022.038-.023.038-.023.038-.023.038-.022.03-.03.038-.023.038-.023.038-.023.037-.023.038-.022.038-.023.038-.03.038-.023.038-.023.038-.023.038-.022.037-.023.038-.023.038-.03.038-.023.038-.023.038z" fill="#fff"/></g></svg>