<svg width="40" height="40" fill="none" xmlns="http://www.w3.org/2000/svg"><path d="M12.1 22.25c0-6.257 5.073-11.333 11.333-11.333v-.945c-6.782 0-12.278 5.5-12.278 12.278zm11.333-11.333c6.261 0 11.333 5.076 11.333 11.333h.945c0-6.779-5.495-12.278-12.278-12.278zM34.766 22.25c0 6.259-5.072 11.336-11.333 11.336v.945c6.783 0 12.278-5.5 12.278-12.28zM23.433 33.586c-6.26 0-11.333-5.077-11.333-11.336h-.945c0 6.78 5.496 12.28 12.278 12.28zm8.823-20.567a6.515 6.515 0 0 1-6.515 6.514v.945a7.46 7.46 0 0 0 7.46-7.46zm-6.515 6.514a6.513 6.513 0 0 1-6.513-6.514h-.945a7.458 7.458 0 0 0 7.458 7.459zm-6.513-6.514c0-3.6 2.915-6.516 6.513-6.516v-.945a7.458 7.458 0 0 0-7.458 7.46zm6.513-6.516a6.515 6.515 0 0 1 6.515 6.516h.945a7.46 7.46 0 0 0-7.46-7.461zm-14.586-.509v27.973h.945V5.994Zm4.561-.03-.277 4.339.943.06.278-4.339zm-11.063 4.86h27.975v-.946H4.653Zm0 19.165h27.975v-.945H4.653ZM25.828 5.88l-2.459 28.104.942.082 2.458-28.104zm-1.503 18.345h8.303v-.945h-8.303z" fill="#fff" style="stroke-width:1.4"/><path fill-rule="evenodd" clip-rule="evenodd" d="M11.594 29.574v-.878h1.55c.127-.02.317-.138.335-.288V11.45c-.002-.181-.208-.327-.382-.338h-1.503v-.88H23.94l.35 4.74h-.706l-.314-1.65a2.81 2.81 0 0 0-2.74-2.21h-4.44v8.092h2.789c.892-.144 1.248-.837 1.427-1.693l.274-1.37h.649v7.282h-.602l-.323-1.647c-.2-.975-.685-1.689-1.69-1.689h-2.525v7.819c0 .428.346.778.769.789h3.853a3.304 3.304 0 0 0 3.02-2.495l.46-2.63h.745l-.526 6.003z" fill="#fff" style="stroke-width:1.4"/><path fill-rule="evenodd" clip-rule="evenodd" d="M4.626 5.985h27.958v27.958H4.626V5.985Z" fill="#827a71" style="stroke-width:1.4"/><path d="M12.068 22.233c0-6.255 5.072-11.328 11.328-11.328V9.96c-6.778 0-12.273 5.497-12.273 12.273zm11.328-11.328c6.259 0 11.328 5.073 11.328 11.328h.945c0-6.776-5.492-12.273-12.273-12.273zm11.328 11.328c0 6.255-5.07 11.33-11.328 11.33v.944c6.78 0 12.273-5.498 12.273-12.274zm-11.328 11.33c-6.256 0-11.328-5.075-11.328-11.33h-.945c0 6.776 5.495 12.274 12.273 12.274zm8.82-20.557a6.512 6.512 0 0 1-6.512 6.51v.946a7.457 7.457 0 0 0 7.456-7.456zm-6.512 6.51a6.51 6.51 0 0 1-6.51-6.51h-.945a7.455 7.455 0 0 0 7.455 7.456zm-6.51-6.51a6.51 6.51 0 0 1 6.51-6.512v-.945a7.455 7.455 0 0 0-7.455 7.457zm6.51-6.512a6.511 6.511 0 0 1 6.511 6.512h.945a7.456 7.456 0 0 0-7.456-7.457zm-14.58-.508v27.958h.944V5.986Zm4.56-.03-.277 4.336.943.06.277-4.336zM4.626 10.813h27.96v-.945H4.627Zm0 19.155h27.96v-.945H4.627Zm21.166-24.1L23.334 33.96l.941.083L26.733 5.95zm-1.504 18.338h8.299v-.945h-8.3z" fill="#fff" style="stroke-width:1.4"/><path fill-rule="evenodd" clip-rule="evenodd" d="M11.565 29.553v-.879h1.548c.127-.019.318-.136.335-.287V11.439c-.001-.182-.207-.328-.382-.338h-1.5v-.881h12.337l.351 4.74h-.704l-.316-1.65a2.806 2.806 0 0 0-2.737-2.209h-4.44v8.089h2.79c.89-.145 1.246-.838 1.425-1.693l.274-1.368h.647v7.277h-.6l-.322-1.646c-.199-.975-.685-1.688-1.69-1.688h-2.523v7.815c0 .427.345.777.77.787h3.849a3.3 3.3 0 0 0 3.019-2.493l.46-2.629h.744l-.527 6.001z" fill="#fff" style="stroke-width:1.4"/></svg>