<svg width="40" height="40" fill="none" xmlns="http://www.w3.org/2000/svg"><path d="M15.737 8.803v10.362s3.652 0 5.606-.148c1.536-.27 1.82-.418 2.102-1.954l.566-2.251h1.671L25.4 19.73l.149 5.04h-1.685l-.418-1.968c-.417-1.4-.983-1.685-2.102-1.82-1.4-.148-5.606-.148-5.606-.148v8.69c0 1.672.849 2.386 2.803 2.386h5.888c1.82 0 3.638-.148 4.771-2.802l1.523-3.369h1.414c-.148.7-.848 6.872-.983 8.26 0 0-5.322-.135-7.56-.135H13.5L7.477 34v-1.523l1.954-.431c1.415-.283 1.832-.7 1.832-1.82 0 0 .149-3.786.149-10.093 0-6.292-.149-10.08-.149-10.08 0-1.254-.417-1.536-1.832-1.82L7.477 7.82V6.283l5.889.12h11.21c2.238 0 6.01-.403 6.01-.403s-.135 2.372-.283 7.977h-1.537L28.2 12.01c-.552-2.52-1.388-3.774-2.937-3.774h-8.812c-.714.002-.714.137-.714.568z" fill="#f45800" style="stroke-width:1.4"/></svg>