<svg width="40" height="40" fill="none" xmlns="http://www.w3.org/2000/svg"><path fill-rule="evenodd" clip-rule="evenodd" d="M19.952 34c-5.274 0-10.164-3.069-12.466-7.959-.48-.767-.096-1.822.767-2.205.863-.384 1.822 0 2.302.767 1.726 3.835 5.657 6.233 9.876 6.04 3.932-.19 7.384-2.492 9.11-6.04.384-.863 1.343-1.15 2.205-.767.864.383 1.247 1.342.768 2.205-2.206 4.699-6.809 7.767-11.987 7.959h-.575zM31.938 21.534H8.062c-.96 0-1.727-.767-1.727-1.63 0-.959.768-1.726 1.727-1.726h22.054c-.767-4.986-5.178-8.822-10.356-8.822-3.931 0-7.48 2.206-9.301 5.658-.384.863-1.439 1.15-2.302.67-.767-.383-1.15-1.437-.67-2.204C9.882 8.877 14.581 6 19.76 6c7.671 0 13.904 6.233 13.904 13.904 0 .384-.191.863-.48 1.15-.383.288-.766.48-1.246.48z" fill="#f47c3f" style="stroke-width:1.4"/></svg>