<svg width="40" height="40" fill="none" xmlns="http://www.w3.org/2000/svg"><g clip-path="url(#a)" transform="matrix(1.4 0 0 1.4 -8 -7.835)"><path d="M10.079 20.633c.177-2.372.912-4.525 2.618-6.246 1.722-1.736 3.968-1.84 5.898-.327a7.648 7.648 0 0 1 1.59 1.661c.42.455.75.976 1.1 1.482.662.913 1.208 1.9 1.8 2.857.668 1.082 1.31 2.183 2.113 3.174.277.342.57.682 1.044.768-.006.118-.072.205-.143.295a.764.764 0 0 0-.105.808c.122.265.1.427-.192.538.227.145.433.017.644.045-.173.25-.36.413-.652.395l-.092-.016c-.088-.028-.134-.036-.2-.056-.66-.134-1.166-.528-1.63-.982-.723-.706-1.272-1.546-1.797-2.398-.668-1.085-1.312-2.185-1.966-3.277l-.049-.066c-.016 0-.025-.008-.026-.024-.358-.516-.646-1.08-1.06-1.56-.509-.816-1.104-1.562-1.903-2.113-.842-.58-1.779-.554-2.569.026-.58.426-1.004.995-1.303 1.623-.755 1.587-1.153 3.262-1.02 5.036-.132-.005-.182-.086-.235-.2a.594.594 0 0 0-1.045-.09c-.078.114-.155.25-.32.19-.14-.051-.2-.172-.201-.327-.001-.104.05-.264-.086-.294-.258-.055-.206-.236-.208-.403-.003-.17-.003-.345-.005-.519Z" fill="#3367b0"/><path d="M21.284 17.203c-.35-.507-.659-.955-1.05-1.43.12-.111.157-.158.228-.248.391-.5.814-.972 1.287-1.396 1.596-1.437 3.549-1.488 5.211-.12 1.24 1.02 1.984 2.365 2.46 3.871.551 1.744.763 3.522.4 5.33-.239 1.191-.783 2.204-1.977 2.711-.659.28-1.349.32-2.048.163.292.018.48-.145.652-.395-.21-.028-.418.1-.644-.045.292-.111.315-.273.192-.538a.764.764 0 0 1 .105-.808c.071-.09.136-.177.143-.295 1.193.128 1.653-.52 1.79-1.65.098-.791.042-1.589-.076-2.38-.203-1.366-.582-2.667-1.392-3.812-.334-.472-.729-.885-1.25-1.152-.842-.43-1.66-.407-2.414.193-.686.545-1.256 1.19-1.617 2z" fill="url(#b)" style="fill:url(#b)"/><path d="m10.079 20.633.004.522c.003.167-.05.347.208.403.136.029.085.189.086.294 0 .155.062.276.2.327.166.06.243-.076.32-.19a.594.594 0 0 1 1.046.09c.053.114.102.195.234.2.05.192.093.385.15.574.268.894.917 1.306 1.779 1.126.38-.08.672-.31.936-.58.639-.652 1.124-1.42 1.624-2.177.772-1.17 1.54-2.343 2.309-3.515.414.48.702 1.044 1.06 1.56-.423.522-.693 1.135-1.03 1.71-.78 1.339-1.53 2.696-2.572 3.862-1.065 1.19-2.361 1.6-3.905 1.17-.777-.218-1.375-.697-1.783-1.383-.737-1.242-.853-2.594-.666-3.993Z" fill="url(#c)" style="fill:url(#c)"/><path d="M20.06 19.289c.016.022.032.044.05.066l-.05-.066z" fill="#3c76bb"/></g><defs><linearGradient id="b" x1="25.116" y1="24.599" x2="25.116" y2="11.44" gradientUnits="userSpaceOnUse"><stop offset=".232" stop-color="#3367B0"/><stop offset="1" stop-color="#3C81C3"/></linearGradient><linearGradient id="c" x1="10" y1="21.939" x2="20.035" y2="21.939" gradientUnits="userSpaceOnUse"><stop offset=".22" stop-color="#3367B0"/><stop offset=".999" stop-color="#367CC0"/></linearGradient><clipPath id="a"><path fill="#fff" transform="translate(10 13)" d="M0 0h20v13.174H0z"/></clipPath></defs></svg>