<svg width="40" height="40" fill="none" xmlns="http://www.w3.org/2000/svg"><path d="M33.246 24.521c2.497-7.316-1.41-15.27-8.725-17.767-7.316-2.497-15.27 1.41-17.767 8.725-2.497 7.316 1.41 15.27 8.725 17.767 7.316 2.497 15.27-1.41 17.767-8.725z" fill="#fff" style="stroke-width:1.4"/><path d="M8.149 27.447c2.178-1.04 9.592-4.678 11.053-5.535 1.2-.699 2.987-1.73 2.987-1.73l.758 1.545 1.157 7.613.884-.51.588-10.634c1.786-1.117 3.36-2.204 5.007-3.34.604-.417 1.218-.841 1.855-1.275a14.04 14.04 0 0 0-.658-1.14c-.695.335-1.369.655-2.031.97-1.809.858-3.536 1.677-5.397 2.665L14.85 11.27l-.885.51 6.015 4.81.957 1.426.002.002s-1.787 1.032-2.993 1.722c-1.472.837-8.331 5.439-10.32 6.805.164.308.338.608.523.903" fill="#ffc94c" style="stroke-width:1.4"/></svg>