<svg width="40" height="40" fill="none" xmlns="http://www.w3.org/2000/svg"><g clip-path="url(#a)" transform="matrix(1.4 0 0 1.4 -8 -8)"><mask id="b" mask-type="alpha" maskUnits="userSpaceOnUse" x="10" y="18" width="20" height="4"><path fill="#fff" d="M10 18.113h20v3.773H10z"/></mask><g mask="url(#b)" fill-rule="evenodd" clip-rule="evenodd" fill="#ed1c2e"><path d="M17.833 18.843h.554v.189a.861.861 0 0 1 .605-.235c.416 0 .748.307.748.79v1.254h-.586v-1.099c0-.269-.13-.428-.368-.428-.23 0-.37.15-.37.428v1.099h-.583v-1.998zM23.972 19.842a.49.49 0 0 1 .493-.503.49.49 0 0 1 .493.503.49.49 0 0 1-.493.503.49.49 0 0 1-.493-.503zm-.577 0c0 .576.462 1.044 1.066 1.044.604 0 1.066-.468 1.066-1.044 0-.576-.461-1.045-1.066-1.045-.604 0-1.065.469-1.065 1.045zM15.951 19.842a.49.49 0 0 1 .493-.503.49.49 0 0 1 .493.503.49.49 0 0 1-.493.503.49.49 0 0 1-.493-.503zm-.576 0c0 .576.462 1.045 1.065 1.045s1.066-.468 1.066-1.044c0-.576-.461-1.046-1.066-1.046s-1.066.469-1.066 1.045zM28.36 18.843h.591v1.998h-.592v-1.998zm0-.73h.591v.509h-.592v-.509zM29.408 18.113H30v2.728h-.592zM27.415 19.84a.5.5 0 1 1-.498-.498c.285 0 .498.218.498.499zm-.985 1 .006-.153c.042.031.225.2.608.2.503 0 .97-.452.97-1.045s-.438-1.045-.964-1.045c-.401 0-.585.184-.613.205v-.889h-.567v2.728z"/><path d="m11.932 20.84.931-1.165-.824-.832h.818l.365.377.673-.866h.686l-.985 1.24.383.386.886-1.137h.687l-1.198 1.514 1.521 1.53h-.83l-1.058-1.078-.562.729h-.687l.878-1.1-.384-.388-.615.79zM10 18.113h1.796v.509h-1.185v.565h1.132v.493H10.61v.652h1.185v.509H10ZM20.206 18.113h.965l.456 1.991h.02l.468-1.99h.938v2.727h-.574v-2.06h-.027l-.506 2.06h-.645l-.494-2.06h-.027v2.06h-.574z"/></g></g><defs><clipPath id="a"><path fill="#fff" d="M0 0h40v40H0z"/></clipPath></defs></svg>