<svg width="40" height="40" fill="none" xmlns="http://www.w3.org/2000/svg"><path fill-rule="evenodd" clip-rule="evenodd" d="m26.848 23.988 2.338-2.627-2.338-2.627h2.466l1.158 1.276 1.115-1.276h2.381l-2.327 2.617L34 23.988h-2.477l-1.147-1.286-1.137 1.286zM26.848 17.556H24.2v1.178h2.648v1.775H24.2v1.63h2.648v1.85h-4.595v-8.277h4.595z" fill="#f60" style="stroke-width:1.4"/><path fill-rule="evenodd" clip-rule="evenodd" d="M20.315 15.711V19.1h-.021c-.429-.493-.965-.665-1.587-.665-1.274 0-2.234.866-2.57 2.011-.385-1.261-1.376-2.034-2.845-2.034-1.193 0-2.136.535-2.627 1.408v-1.085H8.199v-1.177h2.69v-1.845H6v8.276h2.199V20.51h2.19c-.065.256-.1.53-.1.818 0 1.727 1.32 2.938 3.003 2.938 1.415 0 2.348-.664 2.842-1.876H14.25c-.255.364-.449.472-.958.472-.59 0-1.1-.515-1.1-1.126h3.836c.166 1.371 1.235 2.554 2.7 2.554.633 0 1.212-.311 1.566-.837h.021v.536h1.938v-8.277Zm-8.062 4.823c.122-.526.53-.87 1.039-.87.56 0 .947.334 1.05.87h-2.089zm6.886 2.194c-.714 0-1.158-.666-1.158-1.36 0-.743.386-1.458 1.158-1.458.8 0 1.12.715 1.12 1.458 0 .704-.338 1.36-1.12 1.36z" fill="#652c8f" style="stroke-width:1.4"/></svg>