<svg width="40" height="40" fill="none" xmlns="http://www.w3.org/2000/svg"><path fill-rule="evenodd" clip-rule="evenodd" d="M20.86 16.489c0 3.562-2.904 6.455-6.487 6.455-3.584 0-6.487-2.893-6.487-6.455 0-3.568 2.903-6.46 6.487-6.46 3.583 0 6.487 2.892 6.487 6.46zM6 22.992s4.639 2.448 8.389 2.351c2.335-.064 3.953-.52 5.844-.926 1.896-.407 4.687-.997 6.466-.938 1.628.054 4.88.927 7.301 3.477 0 0-2.845-2.39-7.548-2.33 0 0-2.25.048-5.903.975-4.425 1.12-6.792.889-6.792.889S9.097 26.485 6 22.992z" fill="#ec3423" style="stroke-width:1.4"/><path fill-rule="evenodd" clip-rule="evenodd" d="M6 26.008s4.639 2.448 8.389 2.351c2.335-.064 3.953-.52 5.844-.926 1.896-.408 4.687-.997 6.466-.938 1.628.054 4.88.932 7.301 3.477 0 0-2.845-2.39-7.548-2.33 0 0-2.25.048-5.903.974-4.425 1.12-6.792.89-6.792.89S9.097 29.5 6 26.008z" fill="#ec3423" style="stroke-width:1.4"/></svg>