<svg width="40" height="40" fill="none" xmlns="http://www.w3.org/2000/svg"><g clip-path="url(#a)" transform="matrix(1.4 0 0 1.4 -8 -8)" fill-rule="evenodd" clip-rule="evenodd"><path d="M20 16.4c-5.525 0-10 1.609-10 3.6 0 1.99 4.475 3.6 10 3.6 5.526 0 10-1.61 10-3.6 0-1.991-4.474-3.6-10-3.6zm-.985 2.75c.007.032.02.04.035.037a.377.377 0 0 0 .209-.15c.044-.065.065-.159.021-.197-.04-.034-.105-.024-.153.018a.333.333 0 0 0-.112.292zm-3.81 2.9c-.56.005-1.05-.337-1.106-.927-.032-.328.062-.62.248-.86.167-.214.448-.392.685-.434.078-.014.182-.006.225.045.068.077.048.162-.02.196-.18.093-.4.249-.507.464a.566.566 0 0 0 .028.586c.224.336.848.344 1.43-.19a4.91 4.91 0 0 0 .401-.405c.256-.288.341-.394.68-.861.005-.006.007-.013.004-.016-.003-.005-.007-.007-.017-.008a1.048 1.048 0 0 0-.617.216c-.055.04-.135.034-.169-.019-.04-.06-.011-.136.053-.18.308-.213.646-.252.991-.31 0 0 .024.002.044-.024.141-.18.248-.342.4-.524.152-.185.348-.354.498-.482.21-.179.344-.239.48-.312.036-.019-.005-.04-.015-.04-.763-.142-1.554-.326-2.312-.048-.524.193-.754.605-.643.88.078.195.336.226.58.11.201-.098.387-.256.52-.46.075-.111.23-.03.146.166-.222.515-.645.923-1.161.942-.44.012-.722-.306-.72-.7.001-.778.876-1.29 1.794-1.368 1.107-.09 2.155.202 3.254.334.842.101 1.649.103 2.494-.09.101-.02.17.042.165.143-.008.143-.122.283-.4.433-.317.172-.648.225-.995.228-.838.007-1.618-.316-2.425-.49.001.035.011.076-.019.099-.447.327-.85.658-1.122 1.124-.009.01-.004.02.011.02.236-.013.446-.019.667-.036.038-.004.04-.013.035-.041a.539.539 0 0 1 .17-.47c.147-.128.33-.144.451-.05.138.106.126.297.05.44a.536.536 0 0 1-.324.262s-.026.005-.023.028c.006.037.17.128.185.152.014.023.007.058-.019.085a.1.1 0 0 1-.08.039c-.028 0-.045-.01-.082-.03a.759.759 0 0 1-.228-.183c-.022-.026-.032-.026-.086-.023-.237.013-.606.048-.858.08-.06.006-.07.018-.082.04-.4.651-.827 1.356-1.296 1.828-.503.505-.92.638-1.364.642zm8.867-1.282c.003.017.026.034.049.041.007.003.013.009.003.027-.063.135-.123.213-.202.33a1.201 1.201 0 0 1-.256.274c-.15.124-.36.259-.533.168-.076-.04-.11-.147-.108-.233.003-.242.113-.492.313-.736.246-.299.517-.455.695-.37.184.087.126.299.044.465a.042.042 0 0 0-.004.034zm1.977-1.891c.014-.023 0-.04-.03-.04h-.516c-.038 0-.058.006-.077.04-.058.112-.78 1.182-.913 1.39-.023.032-.05.028-.054-.01-.013-.123-.12-.263-.29-.332a.743.743 0 0 0-.388-.044c-.237.032-.447.155-.633.296-.28.21-.522.483-.834.685-.17.11-.402.206-.559.062-.14-.13-.125-.418.091-.64.023-.023.05-.003.046.018-.02.1.004.2.082.271a.312.312 0 0 0 .344.037.45.45 0 0 0 .24-.342.39.39 0 0 0-.362-.444c-.18-.012-.351.05-.519.187a.973.973 0 0 0-.204.223c-.019.024-.046.027-.045-.01.009-.292-.113-.455-.356-.46-.19-.005-.39.096-.547.221-.172.136-.323.318-.483.487-.02.022-.039.022-.044-.02a.97.97 0 0 0-.144-.511.12.12 0 0 0-.155-.038c-.025.014-.116.055-.183.108-.033.027-.045.065-.03.115.087.287.067.615-.05.89-.109.255-.32.482-.566.56-.164.051-.333.026-.438-.118-.143-.197-.085-.54.13-.825.188-.252.463-.41.735-.513.033-.013.039-.033.03-.06-.014-.045-.038-.105-.048-.133-.026-.066-.095-.077-.18-.067-.2.023-.378.09-.556.183-.463.246-.695.722-.797.976a.962.962 0 0 1-.145.266c-.072.091-.165.173-.332.32a.056.056 0 0 0-.015.066.704.704 0 0 0 .13.168c.027.014.06-.004.072-.014.117-.078.257-.203.325-.288.025-.029.05-.016.063.028.064.226.232.41.463.489.425.14.865-.064 1.2-.422.21-.228.286-.373.367-.472.138-.169.408-.546.73-.789.12-.088.259-.156.33-.11.057.035.074.12-.016.282-.33.596-.814 1.295-.902 1.464-.015.03-.003.052.029.052h.5c.025-.001.037-.012.05-.03.252-.393.49-.765.744-1.15.014-.023.028-.005.028.005.006.09.027.212.081.292a.445.445 0 0 0 .384.213.726.726 0 0 0 .311-.066c.107-.038.19-.09.256-.135.038-.027.044.017.044.025-.058.31.013.679.325.83.373.183.783-.073 1.019-.305.023-.021.048-.02.05.029a.425.425 0 0 0 .119.265c.198.198.597.12.997-.187.256-.196.526-.473.769-.767.009-.012.016-.03-.001-.049-.039-.038-.091-.082-.128-.116-.017-.014-.041-.01-.056.001-.248.235-.473.502-.797.722-.11.077-.282.136-.36.033-.032-.042-.028-.098.002-.172.094-.233 1.59-2.487 1.667-2.62zm-5.997-1.945c-5.135 0-9.295 1.357-9.295 3.032s4.16 3.032 9.295 3.032c5.133 0 9.293-1.357 9.293-3.032s-4.16-3.032-9.293-3.032zm0 6.35c-5.321 0-9.634-1.486-9.634-3.318 0-1.834 4.313-3.32 9.634-3.32 5.32 0 9.632 1.486 9.632 3.32 0 1.833-4.313 3.319-9.632 3.319z" fill="#2d4185"/><path d="M24.071 20.76v-.002.003zm.018.143.035-.067c.01-.018.004-.024-.003-.027-.023-.007-.046-.024-.048-.041l-.002-.007c.003.032.011.095.018.142z" fill="url(#b)" style="fill:url(#b)"/><path d="M24.459 20.258c.004.037.031.041.054.008l.02-.03c-.006-.01-.013-.018-.019-.025a2.054 2.054 0 0 0-.179-.18.392.392 0 0 1 .124.227z" fill="url(#c)" style="fill:url(#c)"/><path d="M23.023 17.791a.063.063 0 0 0-.009-.014l.009.014z" fill="url(#d)" style="fill:url(#d)"/></g><defs><linearGradient id="b" x1="24.129" y1="20.904" x2="24.129" y2="20.758" gradientUnits="userSpaceOnUse"><stop stop-color="#00053E"/><stop offset=".169" stop-color="#00073F"/><stop offset=".329" stop-color="#001046"/><stop offset=".478" stop-color="#001950"/><stop offset=".62" stop-color="#00245D"/><stop offset=".761" stop-color="#002F6D"/><stop offset=".812" stop-color="#003475"/><stop offset=".922" stop-color="#005693"/><stop offset="1" stop-color="#006CA9"/></linearGradient><linearGradient id="c" x1="24.533" y1="20.288" x2="24.533" y2="20.031" gradientUnits="userSpaceOnUse"><stop stop-color="#00053E"/><stop offset=".169" stop-color="#00073F"/><stop offset=".329" stop-color="#001046"/><stop offset=".478" stop-color="#001950"/><stop offset=".62" stop-color="#00245D"/><stop offset=".761" stop-color="#002F6D"/><stop offset=".812" stop-color="#003475"/><stop offset=".922" stop-color="#005693"/><stop offset="1" stop-color="#006CA9"/></linearGradient><linearGradient id="d" x1="23.023" y1="17.791" x2="23.023" y2="17.777" gradientUnits="userSpaceOnUse"><stop stop-color="#00053E"/><stop offset=".169" stop-color="#00073F"/><stop offset=".329" stop-color="#001046"/><stop offset=".478" stop-color="#001950"/><stop offset=".62" stop-color="#00245D"/><stop offset=".761" stop-color="#002F6D"/><stop offset=".812" stop-color="#003475"/><stop offset=".922" stop-color="#005693"/><stop offset="1" stop-color="#006CA9"/></linearGradient><clipPath id="a"><path fill="#fff" d="M0 0h40v40H0z"/></clipPath></defs></svg>