<svg width="39" height="40" fill="none" xmlns="http://www.w3.org/2000/svg"><g clip-path="url(#a)" transform="matrix(1.4 0 0 1.4 -7.997 -8)"><g clip-path="url(#b)"><path d="M22.053 29.989a2.121 2.121 0 0 1-1.272-.577c-.018-.017-.052-.03-.016-.065l.774-.769c.045-.018.063.021.085.044l.916.914.287.288c.019.02.048.034.042.07a1.758 1.758 0 0 1-.421.093c-.014.002-.032-.008-.039.013h-.079c-.069-.015-.138-.003-.207-.007-.024-.001-.047.004-.07-.004z" fill="#4c308c"/><path d="M17.607 30c-.071-.03-.148-.02-.222-.038-.084-.021-.171-.032-.253-.064-.015-.022-.003-.042.009-.06.01-.017.025-.03.039-.045l1.177-1.176c.021-.021.04-.057.081-.039l.79.809a2.102 2.102 0 0 1-1.37.602c-.07.014-.142-.007-.212.011h-.04z" fill="#51308b"/><path d="M26.356 26.749c-.176.177-.351.355-.529.53-.108.108-.21.223-.326.323-.031-.018-.052-.047-.077-.072l-1.356-1.356c-.021-.02-.048-.039-.057-.07l.71-.715.133-.127c.041-.018.059.018.081.039.43.4.834.826 1.252 1.238.048.047.097.095.144.144.016.018.044.034.025.066z" fill="#404396"/><path d="M28.803 24.301c-.264.27-.529.54-.802.8-.032-.017-.052-.046-.077-.07l-1.356-1.356c-.021-.022-.048-.04-.057-.07l.61-.616.179-.174c.025-.013.046-.002.067.013.017.013.032.029.048.044l1.344 1.345c.022.023.062.039.044.084z" fill="#3f509d"/><path d="m15.778 28.908-.702-.708c.008-.027.03-.043.048-.061l1.384-1.384c.019-.019.035-.04.061-.049l.692.69c.002.003.002.008.003.012-.008.037-.032.062-.057.087l-1.343 1.342a.495.495 0 0 1-.086.07z" fill="#5d308b"/><path d="M26.511 23.605c.018.015.038.03.055.046l1.389 1.39c.018.017.043.031.046.06l-.638.645c-.005.006-.013.01-.02.014-.036-.007-.055-.036-.077-.059l-1.338-1.337c-.03-.03-.063-.054-.088-.088.22-.227.443-.452.671-.671z" fill="#3e4c9b"/><path d="M15.778 28.908c.002-.042.042-.047.064-.07l1.366-1.367c.02-.02.037-.042.056-.063.208.189.401.393.6.59.017.017.04.029.045.055-.018.025-.042.044-.064.066l-1.339 1.339c-.025.024-.045.053-.07.077a2.585 2.585 0 0 1-.303-.27l-.355-.357z" fill="#57308b"/><path d="M22.867 27.25c.193-.202.39-.4.592-.593.042-.018.06.018.082.04l.682.68.69.692c.021.02.052.036.048.074-.194.2-.389.4-.592.59-.036-.006-.054-.036-.077-.059-.446-.445-.892-.89-1.337-1.337-.03-.029-.063-.054-.088-.087z" fill="#433d93"/><path d="M27.813 22.302c.185-.193.374-.38.566-.566.03-.01.044.015.06.03l1.285 1.285a.198.198 0 0 1 .055.095 2.098 2.098 0 0 1-.427.612c-.015.015-.032.028-.049.042-.031-.018-.052-.047-.077-.072-.452-.451-.904-.903-1.355-1.356-.022-.021-.048-.039-.058-.07z" fill="#4056a1"/><path d="M14.566 27.69c-.189-.182-.377-.364-.556-.556a.208.208 0 0 1 .06-.085l1.358-1.358c.022-.022.043-.045.076-.05.191.179.373.367.555.555-.008.026-.03.042-.048.06l-1.384 1.385c-.019.019-.035.04-.062.049z" fill="#65308c"/><path d="m24.96 28.143-.043-.049-1.39-1.39c-.02-.019-.035-.045-.068-.046l.552-.553c.018.015.038.03.055.046l1.39 1.39c.017.018.042.031.045.061-.175.185-.357.364-.54.54z" fill="#414094"/><path d="M21.893 28.223c.176-.183.356-.364.54-.54.042-.018.06.018.081.04.234.231.466.464.698.697l.675.675c.02.02.051.036.047.073-.158.169-.315.339-.51.465-.022.014-.04.036-.068.036-.034-.008-.054-.037-.076-.06l-1.3-1.298c-.028-.03-.062-.054-.087-.088z" fill="#46378f"/><path d="m16.065 22.434.524-.527c.041-.017.06.016.083.038l.478.478c.297.297.595.594.891.892.022.022.056.038.052.078-.174.186-.356.364-.539.541-.03-.02-.053-.051-.08-.077l-1.352-1.353c-.022-.021-.048-.039-.057-.07z" fill="#61368e"/><path d="m15.504 25.641-1.278 1.274-.216.22c-.179-.172-.354-.347-.525-.527.007-.052.044-.084.078-.118.44-.44.88-.881 1.322-1.32.024-.025.037-.067.083-.066.181.176.362.353.536.537z" fill="#6a308c"/><path d="M14.566 27.69c.013-.018.025-.036.04-.05l1.403-1.403c.015-.015.033-.028.05-.042.175.166.344.337.51.51-.013.018-.025.036-.04.051l-1.403 1.402c-.015.016-.033.028-.05.041-.172-.168-.347-.333-.51-.51z" fill="#62308c"/><path d="M12.224 25.346c-.173-.169-.348-.336-.513-.513-.01-.03.014-.044.03-.06l1.404-1.404c.017-.017.033-.045.066-.026l.49.494c.007.044-.03.061-.053.084-.443.445-.887.889-1.331 1.332-.031.031-.058.066-.093.093z" fill="#77308b"/><path d="M27.813 22.302c.019.015.038.03.055.046l1.39 1.39c.017.018.042.031.045.061-.16.174-.33.338-.5.502 0-.028-.023-.04-.04-.058l-1.375-1.376c-.025-.025-.051-.048-.089-.052.167-.176.34-.345.514-.513z" fill="#3f54a0"/><path d="M25.84 24.276c.025 0 .039.017.055.033l1.435 1.436c.005.004.008.01.012.015l-.451.458c-.015.015-.033.029-.049.043-.035-.007-.053-.037-.076-.06l-1.338-1.337c-.029-.03-.063-.055-.088-.088l.5-.5z" fill="#3e499a"/><path d="M16.436 29.535c-.004-.03.018-.047.037-.065l1.378-1.378c.017-.017.03-.039.058-.04.167.155.326.316.486.477l.043.05c-.03 0-.045.023-.063.042l-1.19 1.189c-.025.025-.049.05-.053.088a1.853 1.853 0 0 1-.696-.363z" fill="#55308b"/><path d="M25.34 24.776c.025 0 .04.017.055.033l1.431 1.431c.006.006.011.014.016.021-.16.165-.318.332-.486.488 0-.028-.023-.041-.04-.058-.419-.42-.837-.84-1.26-1.257-.062-.06-.118-.134-.202-.171l.486-.487z" fill="#3f4798"/><path d="M29.78 23.146c-.43-.47-.897-.903-1.342-1.358-.018-.019-.039-.035-.059-.052.18-.188.364-.372.552-.552.045-.018.064.02.087.042l.788.788c.03.03.055.064.089.087.094.062.098.15.08.247-.007.28-.073.546-.196.798z" fill="#4159a3"/><path d="m17.445 21.052.448-.447c.025-.013.046-.002.066.013.018.013.033.029.049.044l1.342 1.343c.022.023.062.04.046.084l-.413.419c-.015.015-.032.029-.048.043-.032-.02-.054-.05-.08-.077l-1.353-1.352c-.021-.021-.047-.04-.057-.07Z" fill="#544395"/><path d="M12.224 25.346c.002-.035.03-.052.052-.073l1.37-1.371c.02-.02.044-.037.055-.065.156.147.31.296.455.453-.007.036-.036.055-.059.077-.444.445-.888.89-1.333 1.333-.03.031-.058.066-.092.093a10.843 10.843 0 0 1-.448-.447z" fill="#72308c"/><path d="m23.934 29.168-.034-.039-1.403-1.403c-.019-.018-.034-.042-.064-.042l.434-.435c.025 0 .039.018.054.033l1.435 1.436c.005.004.008.01.013.015-.14.15-.285.295-.435.435z" fill="#453991"/><path d="M17.445 21.052c.02.017.04.032.06.05l1.381 1.383c.02.019.047.034.05.066l-.421.423c-.033-.007-.05-.035-.072-.056-.448-.448-.896-.895-1.343-1.344-.03-.029-.063-.054-.088-.087.14-.15.284-.295.433-.435z" fill="#584093"/><path d="m14.968 25.103-1.257 1.26c-.078.08-.163.152-.227.244a10.02 10.02 0 0 1-.418-.418c-.013-.053.024-.081.054-.112l.711-.711c.214-.214.427-.428.642-.64.02-.021.037-.058.078-.04l.417.417z" fill="#6c308c"/><path d="M17.012 21.486c.024 0 .039.018.054.033l1.428 1.429c.008.007.014.017.02.025a9.27 9.27 0 0 1-.421.42c-.015-.016-.028-.033-.044-.048l-1.386-1.387c-.022-.021-.038-.05-.074-.051.136-.145.279-.283.423-.42z" fill="#5c3b91"/><path d="M10.975 24.095c-.143-.137-.287-.275-.42-.423-.009-.03.015-.043.03-.06l1.4-1.399c.017-.016.033-.044.066-.028l.378.372c.016.015.029.033.043.05-.018.03-.047.051-.071.076l-1.356 1.355c-.021.022-.039.049-.07.057z" fill="#81308b"/><path d="M17.225 24.264c-.13.132-.262.263-.391.397-.026.027-.039.013-.057-.005l-.808-.809-.622-.622c-.02-.02-.046-.035-.012-.068.136-.13.269-.264.403-.396l.757.757.679.68c.02.019.045.035.05.066z" fill="#6a308c"/><path d="M20.764 20.72a9.257 9.257 0 0 1-.421.423c-.03-.018-.051-.048-.076-.072l-1.362-1.362c-.02-.02-.044-.037-.053-.066.137-.145.279-.286.424-.423.026.008.042.03.06.048l1.374 1.374c.022.022.055.04.054.078z" fill="#4a529e"/><path d="M28.552 15.449c.136.127.267.259.393.395-.018.03-.047.051-.072.076l-1.356 1.356c-.021.022-.04.048-.07.058a9.383 9.383 0 0 1-.394-.397c-.009-.022.009-.03.02-.043.478-.466.946-.942 1.419-1.412.016-.016.024-.051.06-.033z" fill="#476db0"/><path d="M14.552 24.685c-.028 0-.041.024-.058.04l-1.37 1.37a.261.261 0 0 0-.058.093l-.394-.395c0-.024.017-.039.032-.054l1.437-1.436c.004-.005.01-.008.015-.013.131.133.271.256.396.395z" fill="#70308c"/><path d="M13.21 23.343c-.025 0-.037.02-.052.035l-1.415 1.415c-.012.012-.022.027-.032.04l-.368-.368c-.013-.026-.002-.047.013-.067.013-.018.03-.033.044-.048l1.345-1.343c.022-.022.038-.063.083-.045.132.122.26.249.383.382z" fill="#7b308b"/><path d="m26.604 13.502.337.328c.017.016.032.035.048.053-.102.105-.207.208-.31.311l-1.12 1.12c-.022.022-.04.049-.071.057a8.961 8.961 0 0 1-.383-.38c-.009-.03.015-.044.031-.06.467-.468.934-.936 1.402-1.402.017-.017.033-.045.066-.027z" fill="#4d80bf"/><path d="M18.852 19.644c.018.015.038.029.055.045l1.391 1.392c.018.018.043.031.045.062-.12.127-.241.251-.368.37-.033-.007-.05-.034-.071-.056-.449-.447-.896-.895-1.344-1.343-.03-.03-.063-.054-.088-.088.123-.131.25-.259.38-.382z" fill="#4e4c9b"/><path d="m20.282 18.212.373-.371c.058.003.09.048.127.083l1.175 1.175c.056.055.112.11.167.167.016.017.038.031.034.06-.131.122-.245.263-.38.381-.032-.017-.053-.046-.077-.071l-1.386-1.384c-.012-.013-.026-.024-.033-.04z" fill="#475fa7"/><path d="M12.305 17.554c-.119.127-.241.25-.368.369-.028-.006-.044-.029-.062-.047-.474-.472-.944-.947-1.419-1.416a.037.037 0 0 1-.007-.011c.106-.148.236-.272.367-.396.03-.01.044.015.06.03l1.4 1.4c.018.019.048.036.029.071z" fill="#763d91"/><path d="M20.282 18.212c.027.002.04.025.057.041l1.397 1.398c.016.016.039.03.041.056-.118.127-.24.252-.368.368-.017-.007-.028-.02-.04-.033l-1.403-1.403c-.019-.019-.04-.035-.049-.061l.365-.366z" fill="#485ba4"/><path d="M26.604 13.502c-.025 0-.038.02-.053.035l-1.413 1.413c-.012.012-.022.027-.033.04l-.355-.355c-.014-.022-.008-.042.007-.06.01-.014.023-.026.035-.039l1.35-1.35c.027-.026.05-.064.098-.054.126.118.25.239.364.37z" fill="#4f85c2"/><path d="M10.29 23.304a1.671 1.671 0 0 1-.224-.562c-.007-.022.01-.03.023-.042.393-.39.781-.782 1.174-1.172.023-.023.043-.067.091-.04.131.124.26.25.383.382-.005.029-.028.044-.046.062l-1.328 1.328c-.02.02-.035.053-.073.044z" fill="#86308b"/><path d="M26.46 16.346a7.592 7.592 0 0 1-.368-.37c-.008-.03.016-.043.032-.06l1.398-1.398c.018-.018.035-.049.07-.03.123.115.243.232.356.356-.007.032-.034.05-.056.07-.447.449-.895.897-1.343 1.344-.03.03-.055.063-.088.088z" fill="#4a75b6"/><path d="M14.042 15.817c-.114.123-.23.243-.356.352-.035-.008-.054-.036-.077-.059l-1.341-1.341c-.028-.028-.06-.052-.083-.084a6.8 6.8 0 0 1 .355-.356c.026-.016.046 0 .066.014.016.011.03.026.043.04l1.35 1.35c.022.022.061.04.043.084z" fill="#61529d"/><path d="M12.828 22.962c-.025 0-.038.02-.053.035l-1.384 1.384c-.024.024-.044.049-.048.084a8.327 8.327 0 0 1-.368-.37c.015-.018.03-.037.046-.054l1.39-1.389c.017-.018.031-.043.06-.046.122.117.245.23.357.356z" fill="#7d308b"/><path d="m22.158 19.326-.402-.406-.97-.97a.888.888 0 0 0-.13-.109l.346-.353c.025-.018.04.003.056.016.02.017.038.036.057.055l1.341 1.343c.021.021.058.036.048.078-.115.116-.223.238-.346.346z" fill="#4664aa"/><path d="M19.918 18.578c.018.015.038.029.055.046l1.394 1.394c.017.017.04.03.042.057-.117.111-.219.238-.343.342-.029-.003-.045-.026-.063-.044-.46-.46-.921-.92-1.381-1.382-.02-.02-.052-.036-.044-.074.11-.117.222-.231.34-.34z" fill="#4858a2"/><path d="M17.225 24.263c-.018-.015-.037-.03-.054-.047l-1.382-1.382c-.02-.021-.05-.038-.051-.073.103-.115.215-.22.327-.327.016.014.034.026.05.041l1.396 1.397c.018.018.043.032.043.062-.104.116-.218.222-.33.33z" fill="#66318c"/><path d="M12.305 17.554c0-.022-.015-.035-.03-.049l-1.433-1.433c-.008-.008-.018-.013-.026-.02l.329-.328c.042-.018.06.018.081.04l.726.724c.217.217.434.433.65.651.02.02.053.036.045.074-.11.118-.223.232-.342.341z" fill="#714293"/><path d="m24.138 17.346-.329.329c-.067-.012-.106-.064-.15-.107-.207-.204-.412-.41-.618-.616-.244-.244-.487-.49-.733-.732a.07.07 0 0 1-.016-.021l.343-.341c.032-.006.047.02.065.038l1.403 1.403c.014.013.029.027.035.047z" fill="#4b7aba"/><path d="M21.893 28.223c.025 0 .039.017.055.032l1.392 1.393.016.02a1.62 1.62 0 0 1-.449.219c-.012.003-.025.004-.038.006l-.043-.049-1.22-1.219c-.019-.019-.034-.046-.067-.047.113-.123.232-.241.354-.355z" fill="#49348e"/><path d="M11.354 21.488c-.037-.005-.054.025-.075.046l-1.12 1.118-.093.09c-.047-.147-.056-.3-.066-.452.002-.128.004-.256.03-.382.012-.048.06-.061.09-.092.165-.168.333-.334.5-.501.077-.078.154-.156.232-.232.02-.018.035-.049.071-.03.147.142.294.284.43.435z" fill="#89308b"/><path d="M26.24 13.132a.221.221 0 0 0-.074.053l-1.373 1.373c-.022.021-.047.04-.043.077a6.392 6.392 0 0 1-.328-.33c-.009-.03.015-.044.03-.06l1.4-1.399c.019-.019.036-.048.071-.03.11.101.214.208.317.316z" fill="#508ac6"/><path d="M28.723 18.61a7.584 7.584 0 0 1-.368-.369c-.008-.041.027-.057.049-.079.304-.314.629-.608.934-.922.12-.122.241-.242.363-.362.02-.019.035-.054.075-.035.089.174.15.357.172.553-.06.032-.107.082-.155.13-.316.317-.631.633-.95.948-.043.043-.07.1-.12.136z" fill="#4562a9"/><path d="M26.46 16.346c0-.025.018-.04.034-.055l1.424-1.424c.009-.009.02-.016.03-.024.11.102.215.206.315.316-.02.032-.051.054-.077.08l-1.352 1.352c-.022.022-.04.049-.071.057a5.428 5.428 0 0 1-.302-.302z" fill="#4972b4"/><path d="M27.446 17.334c.016-.018.03-.038.047-.055l1.39-1.39c.018-.018.032-.044.062-.045.105.097.207.195.302.303-.004.028-.027.044-.045.063l-1.373 1.372c-.022.023-.044.05-.08.053a5.598 5.598 0 0 1-.303-.301z" fill="#4669ae"/><path d="M10.29 23.304c.02-.017.04-.033.059-.051l1.334-1.335.054-.048c.108.102.215.204.314.315-.023.001-.034.019-.048.032l-1.424 1.425c-.01.009-.017.02-.025.03a1.689 1.689 0 0 1-.264-.368z" fill="#83308b"/><path d="M19.396 22.09c-.002-.028-.025-.041-.041-.058l-1.37-1.37c-.026-.026-.052-.053-.092-.057.101-.11.206-.215.316-.316.04-.008.057.027.078.049.445.443.889.887 1.331 1.332.033.033.086.049.093.104-.1.11-.203.217-.315.315z" fill="#514898"/><path d="M27.592 14.488c-.022 0-.035.016-.049.03l-1.431 1.432c-.008.008-.013.018-.02.026a5.53 5.53 0 0 1-.303-.302c-.008-.03.015-.044.031-.06l1.4-1.4c.019-.018.036-.048.071-.029.105.097.205.198.301.303z" fill="#4b79ba"/><path d="M27.292 14.185c-.025 0-.039.018-.054.034l-1.42 1.42c-.01.01-.019.024-.029.035l-.302-.303.038-.045 1.401-1.4c.018-.019.033-.043.063-.043.104.097.206.197.303.302z" fill="#4c7dbc"/><path d="M13.066 13.803c.096-.105.199-.205.303-.303.03-.008.044.015.06.031l1.399 1.4c.018.018.049.035.03.07l-.303.304c-.09-.086-.177-.176-.265-.264l-1.167-1.167c-.021-.021-.048-.038-.057-.07z" fill="#5a60a6"/><path d="M19.578 18.917c.011.028.035.044.055.064l1.384 1.384.05.053c-.101.1-.194.21-.303.303l-.528-.531-.91-.91c-.018-.019-.04-.034-.05-.06.097-.105.198-.206.302-.303z" fill="#4a549f"/><path d="m27.75 17.636.33-.327c.39-.387.778-.775 1.167-1.163.082.084.178.156.249.251.015.021.037.037.043.065-.01.034-.038.053-.06.076-.44.44-.88.881-1.321 1.32-.031.032-.058.067-.093.094a5.888 5.888 0 0 1-.316-.316z" fill="#4566ac"/><path d="M25.399 12.29c.1.092.197.188.289.29-.007.027-.03.042-.048.06-.476.48-.956.954-1.43 1.434a.033.033 0 0 1-.012.007 4.726 4.726 0 0 1-.302-.303c-.018-.029.004-.046.02-.062.23-.225.45-.46.688-.678.136-.124.262-.26.392-.39l.326-.324c.02-.02.038-.052.077-.034z" fill="#5393cc"/><path d="M23.662 10.553c.105.088.2.186.29.289-.006.024-.026.04-.043.056-.476.478-.956.954-1.43 1.433a.052.052 0 0 1-.017.012 4.406 4.406 0 0 1-.302-.303c-.018-.025.005-.035.018-.048.468-.463.931-.931 1.398-1.396.023-.022.041-.061.086-.043z" fill="#55abdf"/><path d="M22.504 18.98c-.01-.025-.032-.041-.05-.06l-1.385-1.383c-.02-.02-.034-.047-.067-.049l.304-.301c.035-.006.05.023.07.042l1.394 1.394c.015.015.032.03.039.051-.098.105-.198.21-.305.306z" fill="#4868ad"/><path d="M26.763 16.648c.014-.017.027-.034.042-.05l1.395-1.395c.019-.018.032-.043.063-.044.1.092.196.19.289.29-.034.01-.047.043-.07.065l-1.349 1.348c-.026.026-.054.05-.08.075a5.3 5.3 0 0 1-.29-.289z" fill="#476fb3"/><path d="M24.138 17.346c-.028-.011-.044-.035-.064-.055l-1.385-1.385c-.017-.017-.036-.032-.054-.048l.295-.293c.03-.011.045.013.06.03.469.466.937.934 1.404 1.403.017.016.045.032.028.065-.095.093-.181.196-.284.283z" fill="#4d7ebd"/><path d="M28.065 17.952c0-.024.017-.04.033-.055l1.42-1.42.02-.015c.1.114.178.242.238.381-.028 0-.041.023-.058.04-.117.116-.232.233-.35.348l-.962.951c-.019.018-.034.04-.051.06a5.088 5.088 0 0 1-.29-.29z" fill="#4564aa"/><path d="M11.437 18.423a5.72 5.72 0 0 1-.345.34c-.042.019-.058-.02-.08-.04l-.885-.885c-.041-.042-.09-.077-.123-.126a1.766 1.766 0 0 1 .105-.619c.025-.01.041.006.056.022.404.42.822.824 1.231 1.239.019.018.048.033.04.069z" fill="#83338c"/><path d="M14.042 15.818c0-.028-.022-.042-.039-.059l-1.38-1.38c-.024-.024-.048-.046-.083-.05l.302-.302c.03-.009.044.015.06.03l1.4 1.4c.018.019.048.036.03.072l-.29.289z" fill="#5d58a1"/><path d="m24.19 11.078.289.29c-.006.023-.024.037-.039.052-.48.481-.962.96-1.44 1.443a.035.035 0 0 1-.012.007 4.38 4.38 0 0 1-.289-.291c-.02-.036.012-.052.03-.07.086-.088.173-.174.26-.26.374-.375.748-.75 1.123-1.123.021-.021.037-.057.078-.048z" fill="#54a3d9"/><path d="M22.292 16.199c.033.001.047.029.067.048l1.306 1.305c.044.044.096.082.144.122-.098.099-.188.206-.295.295-.033-.01-.055-.034-.078-.058l-1.359-1.358c-.023-.023-.047-.046-.058-.078l.273-.276z" fill="#4975b6"/><path d="M24.663 11.553c.093.09.19.176.272.278-.008.026-.028.044-.047.062-.476.477-.954.952-1.428 1.43a.035.035 0 0 1-.012.007 4.93 4.93 0 0 1-.29-.288c-.008-.03.016-.044.032-.06l1.4-1.4c.02-.02.039-.045.073-.03z" fill="#539dd4"/><path d="M12.185 14.685c.022 0 .035.015.05.029l1.439 1.44c.005.005.008.01.012.016l-.228.235c-.014.015-.025.036-.049.04-.034-.007-.053-.036-.076-.059l-1.338-1.337c-.03-.03-.063-.055-.088-.088.088-.097.181-.188.278-.276z" fill="#644f9b"/><path d="M19.711 21.773c-.5-.478-.979-.976-1.471-1.461-.01-.01-.02-.016-.031-.023.084-.092.17-.18.263-.263.024 0 .039.017.054.032l1.429 1.43c.008.007.013.016.02.025-.084.09-.169.18-.264.26z" fill="#4f4a99"/><path d="M22.633 10.043c.16.028.315.069.46.142.015.018.004.033-.006.047-.013.017-.03.032-.045.048l-1.258 1.257c-.022.021-.039.048-.072.055a5.387 5.387 0 0 1-.303-.301c-.007-.024.01-.037.023-.05.397-.397.791-.796 1.19-1.19.004-.002.008-.005.01-.008z" fill="#59b6e7"/><path d="M13.147 16.709c-.085.092-.17.183-.263.266-.033-.023-.057-.055-.085-.083l-1.347-1.347c-.022-.022-.049-.04-.057-.071l.263-.263c.03-.01.044.014.06.03.467.467.935.934 1.401 1.402.017.017.045.033.028.066z" fill="#6a4897"/><path d="M14.857 15.002c0-.025-.018-.039-.033-.054l-1.42-1.419c-.01-.01-.024-.019-.035-.028.08-.087.163-.17.25-.25.018-.013.033-.004.048.007.015.012.029.027.043.04l1.361 1.364c.022.021.057.037.05.078a4.048 4.048 0 0 1-.264.262z" fill="#5764a9"/><path d="M13.147 16.709c-.001-.025-.021-.038-.036-.053l-1.413-1.412c-.012-.013-.027-.022-.04-.033l.25-.25c.024 0 .038.017.054.033l1.431 1.431.016.021a2.397 2.397 0 0 1-.262.263z" fill="#674b99"/><path d="M22.809 18.674c-.028-.01-.044-.035-.064-.055l-1.385-1.384c-.017-.017-.036-.032-.053-.048.08-.09.168-.172.256-.254.03-.009.044.014.06.03l1.404 1.404c.017.017.045.033.026.066-.076.086-.16.163-.244.241z" fill="#476cb0"/><path d="M23.662 10.553c-.035.002-.052.03-.073.051l-1.36 1.36c-.023.025-.058.04-.07.075a3.737 3.737 0 0 1-.25-.248c-.016-.022 0-.037.012-.052s.027-.029.04-.043l1.32-1.319c.023-.022.04-.062.085-.047a1.3 1.3 0 0 1 .296.223z" fill="#55afe2"/><path d="M28.723 18.61a.436.436 0 0 1 .086-.122l1.034-1.034c.03-.03.058-.061.105-.058.04.218.048.437.013.657-.002.015-.007.03-.011.044-.034-.012-.047.018-.064.034l-.76.76c-.021.02-.039.048-.072.054l-.332-.335z" fill="#445fa7"/><path d="m11.437 18.423-.052-.059c-.393-.393-.785-.786-1.179-1.178-.032-.031-.05-.078-.097-.093a1.41 1.41 0 0 1 .168-.383c.028.006.044.028.062.047l1.327 1.327c.018.018.041.034.047.062-.088.096-.18.188-.276.277z" fill="#7e378e"/><path d="M24.422 17.062c-.002-.025-.022-.037-.037-.052l-1.404-1.404c-.016-.015-.034-.028-.05-.041l.218-.226c.026-.028.043-.017.064.005l.974.977c.151.152.302.304.455.454.03.03.03.044 0 .072-.076.07-.147.143-.22.215z" fill="#4d83c1"/><path d="M11.395 15.474c.018.016.037.03.054.047l1.387 1.387c.02.02.046.034.048.067a3.42 3.42 0 0 1-.237.238c-.012-.015-.024-.031-.038-.045l-1.4-1.401c-.019-.018-.034-.042-.064-.043.08-.087.162-.171.25-.25z" fill="#6d4495"/><path d="M14.671 12.198c.075-.083.154-.163.238-.236.018-.014.033-.004.047.007.016.012.03.027.043.04l1.362 1.363c.021.022.056.037.05.078a3.6 3.6 0 0 1-.25.25 4.673 4.673 0 0 0-.38-.389c-.36-.337-.7-.696-1.053-1.042-.022-.021-.049-.039-.056-.07z" fill="#517dbc"/><path d="M24.19 11.078c-.02.017-.04.032-.059.05l-1.383 1.384c-.02.02-.047.034-.049.067a2.953 2.953 0 0 1-.237-.236c0-.026.02-.038.035-.054l1.415-1.415c.012-.012.027-.021.04-.032.08.078.169.148.238.236z" fill="#55a7dc"/><path d="M15.752 14.107a3.255 3.255 0 0 1-.237.237c-.054-.047-.103-.101-.154-.152l-1.278-1.278c-.021-.022-.049-.04-.057-.071.076-.082.154-.162.237-.237.03-.009.044.015.06.03l1.4 1.4c.018.018.048.035.029.07z" fill="#5470b2"/><path d="M18.343 11.513c-.08.086-.158.177-.249.253-.028-.006-.043-.029-.06-.047-.348-.346-.697-.69-1.04-1.041l-.35-.362c.105-.075.221-.13.345-.17.028.006.043.029.061.047l1.246 1.246c.02.02.052.036.047.074z" fill="#52aade"/><path d="M24.198 14.08c0-.021.015-.035.03-.048l1.433-1.434.026-.019c.082.076.162.154.236.237-.024 0-.038.019-.054.034l-1.423 1.424c-.01.01-.016.02-.024.03a2.898 2.898 0 0 1-.224-.223z" fill="#528fc9"/><path d="m22.018 16.475.074.071 1.35 1.35c.025.024.048.05.072.074-.08.078-.15.165-.236.236-.015-.006-.025-.017-.036-.028l-1.436-1.436c-.01-.009-.019-.018-.024-.03l.237-.237z" fill="#4972b4"/><path d="M25.399 12.29c-.01.004-.022.005-.03.01-.011.008-.02.018-.03.028l-1.395 1.383c-.02.019-.047.034-.048.067a2.926 2.926 0 0 1-.224-.223c-.014-.018-.004-.033.007-.047.012-.016.027-.03.04-.043l1.36-1.36c.022-.021.039-.055.079-.05.078.08.17.147.24.235z" fill="#5296cf"/><path d="M11.713 18.146c-.013-.011-.028-.021-.04-.034l-1.358-1.357c-.014-.014-.025-.03-.037-.045.044-.096.103-.182.171-.262.025 0 .039.019.054.034l1.405 1.405c.01.01.019.024.029.035-.071.079-.146.153-.224.224z" fill="#7a3a8f"/><path d="M14.331 15.529c0-.025-.018-.039-.033-.054l-1.42-1.42c-.01-.01-.024-.019-.036-.028.07-.08.146-.153.224-.224.017.014.035.027.05.043l1.396 1.396c.018.018.043.033.043.063a2.81 2.81 0 0 1-.224.224z" fill="#5c5ba3"/><path d="M25.158 12.054c-.016.015-.034.028-.049.044l-1.39 1.39c-.019.019-.046.034-.047.067a3.073 3.073 0 0 1-.223-.225c0-.022.015-.035.029-.049l1.436-1.435c.006-.006.014-.01.021-.015.081.067.157.14.223.223z" fill="#5399d1"/><path d="M21.782 16.712c.027.002.04.025.057.041l1.396 1.397c.017.017.04.03.042.057-.073.076-.142.157-.224.226 0-.023-.017-.035-.03-.049l-1.424-1.423c-.011-.011-.024-.019-.036-.028l.219-.221z" fill="#486fb2"/><path d="M16.171 10.698a1.37 1.37 0 0 1 .25-.226c.04.024.064.065.097.097l1.32 1.32c.022.022.063.04.045.084-.069.081-.143.157-.223.227-.166-.162-.329-.328-.493-.492l-.94-.94c-.02-.02-.048-.038-.056-.07z" fill="#50a0d7"/><path d="M15.121 14.74c-.015-.018-.03-.038-.047-.054l-1.387-1.388c-.02-.02-.035-.046-.068-.047.066-.075.136-.144.21-.211.042-.019.06.017.08.039l.703.7.673.675c.02.02.053.036.046.074a2.51 2.51 0 0 1-.21.212z" fill="#5668ac"/><path d="M15.435 11.435c.067-.073.136-.144.21-.21.03-.01.044.015.06.03l1.4 1.4c.018.019.047.036.029.072a2.295 2.295 0 0 1-.211.21c-.04-.032-.072-.071-.107-.106l-1.325-1.325c-.02-.021-.048-.038-.056-.07Z" fill="#508ec9"/><path d="M14.671 12.198c.019.016.038.03.055.047.261.262.522.524.785.785.192.19.388.38.581.569.03.029.058.06.068.101a2.13 2.13 0 0 1-.198.197c-.032-.008-.05-.035-.07-.056l-1.348-1.348c-.028-.028-.06-.052-.083-.084l.21-.21z" fill="#5279b8"/><path d="M14.46 12.409c.026 0 .04.018.055.033l1.424 1.424c.009.009.016.02.024.03a2.485 2.485 0 0 1-.211.21c0-.022-.016-.035-.03-.049l-1.433-1.432c-.007-.008-.017-.013-.026-.02l.198-.196z" fill="#5375b6"/><path d="M16.752 13.107c-.068.072-.132.147-.21.208-.03-.019-.052-.047-.077-.072l-1.355-1.355c-.021-.021-.048-.039-.056-.07.061-.07.127-.136.196-.199.042-.018.06.018.081.04.25.248.5.497.748.747.21.209.419.417.627.627.02.02.053.036.046.074z" fill="#5086c3"/><path d="M17.883 11.973c-.002-.032-.03-.047-.05-.067l-1.35-1.35a.233.233 0 0 1-.062-.084.926.926 0 0 1 .222-.156c.028 0 .043.02.06.038.449.467.91.923 1.368 1.381l.024.031c-.068.073-.133.146-.212.207z" fill="#52a4d9"/><path d="M29.976 22.348c.02-.11-.034-.182-.11-.256-.293-.283-.578-.574-.866-.862-.02-.02-.036-.045-.068-.046l.44-.426c.284.291.477.642.563 1.05.037.178.062.357.04.54z" fill="#425ca5"/><path d="M21.172 11.054c-.133-.133-.266-.266-.4-.397-.036-.035-.011-.053.012-.074.286-.264.616-.445.998-.528.141-.03.283-.055.429-.05-.011.035-.042.054-.066.078-.32.322-.642.641-.961.964a.033.033 0 0 1-.012.007z" fill="#57bfed"/><path d="M18.343 11.513c-.016-.018-.031-.037-.048-.053l-1.254-1.255c-.019-.019-.035-.04-.053-.059.1-.044.204-.079.313-.093.044-.017.07.012.096.039l.556.556.57.57c.02.021.053.036.045.074-.072.077-.142.156-.225.22z" fill="#53aee2"/><path d="M15.331 14.528c-.014-.016-.027-.034-.043-.049l-1.391-1.392c-.02-.02-.036-.046-.068-.047.062-.07.127-.136.197-.197.018.015.037.03.054.046l1.387 1.388c.02.02.047.034.048.067a1.914 1.914 0 0 1-.184.184z" fill="#556caf"/><path d="M21.172 11.054c.001-.03.026-.045.044-.063l.957-.963c.01-.01.025-.016.038-.024.142-.006.283.006.422.039-.003.032-.03.047-.05.067l-1.122 1.123c-.018.018-.034.038-.052.058l-.236-.237z" fill="#58baea"/><path d="M23.366 10.33c-.028.003-.04.026-.057.042l-1.357 1.356c-.018.018-.043.033-.043.063a2.296 2.296 0 0 1-.197-.199c.016-.018.031-.037.048-.053l1.286-1.287c.02-.02.047-.035.048-.067.096.037.19.08.271.146z" fill="#57b2e4"/><path d="M16.171 10.698c.018.016.037.03.054.047l1.388 1.388c.02.02.046.035.047.068-.054.059-.106.12-.172.167-.034-.009-.054-.037-.076-.06-.447-.446-.893-.891-1.338-1.338-.03-.029-.063-.054-.088-.088.062-.06.124-.122.185-.184z" fill="#509ad3"/><path d="M24.663 11.553c-.024 0-.039.016-.055.032l-1.43 1.43c-.008.008-.013.018-.02.027a1.788 1.788 0 0 1-.17-.172c0-.026.019-.039.034-.054l1.416-1.415c.012-.013.027-.022.04-.033l.185.184z" fill="#54a0d6"/><path d="m16.752 13.107-.043-.05-1.391-1.39c-.02-.02-.035-.046-.068-.048a1.97 1.97 0 0 1 .185-.184c.018.016.037.031.054.048l1.386 1.386c.02.02.047.034.048.067-.053.061-.11.119-.171.171z" fill="#508bc6"/><path d="M15.986 10.882c.022 0 .036.015.05.029l1.44 1.44c.005.005.008.012.012.017-.064.06-.112.135-.183.187-.066-.06-.128-.126-.191-.19l-1.241-1.24c-.021-.022-.049-.04-.057-.071l.17-.172z" fill="#5197d0"/><path d="M15.816 11.054c.018.015.037.03.054.047l1.387 1.387c.02.02.047.034.048.067-.053.061-.11.118-.171.172 0-.025-.018-.04-.034-.054l-1.42-1.42c-.01-.01-.023-.019-.035-.028l.171-.171z" fill="#5194cd"/><path d="M10.004 17.712a.246.246 0 0 1 .078.06l.948.947c.018.018.032.043.062.045a2.559 2.559 0 0 1-.277.277c-.04.018-.055-.018-.074-.037-.182-.18-.363-.36-.543-.542a1.143 1.143 0 0 0-.102-.092 1.9 1.9 0 0 1-.092-.658z" fill="#88308b"/><path d="M15.054 11.817c.018.016.037.03.054.047l1.384 1.384c.02.02.047.035.05.067-.042.047-.08.098-.132.135-.015-.018-.03-.037-.047-.054l-1.387-1.387c-.02-.02-.035-.046-.067-.048.044-.051.092-.1.145-.144z" fill="#5082c0"/><path d="m29.055 18.945.755-.76.107-.107c.034-.034.03-.002.033.019a1.778 1.778 0 0 1-.16.536 2.12 2.12 0 0 1-.395.584c-.02.021-.035.042-.067.01-.09-.096-.182-.188-.273-.282z" fill="#435da6"/><path d="M18.87 10.987c-.06.063-.114.133-.184.187-.189-.185-.374-.374-.561-.56a105.93 105.93 0 0 1-.52-.52c-.02-.021-.057-.038-.037-.08.113-.019.227-.019.341 0 .026.016.05.034.072.056l.842.843c.02.02.052.036.047.074z" fill="#56b7e8"/><path d="M10.923 21.053c-.03.001-.045.026-.063.044l-.627.627c-.065.064-.125.133-.202.184.067-.438.26-.813.565-1.133.018-.02.03-.025.051-.003.091.095.184.188.276.282z" fill="#8d308b"/><path d="M17.567 10.014c.001.033.028.048.048.068l1.024 1.024c.019.02.046.035.047.068a.806.806 0 0 1-.118.118c-.014-.016-.027-.034-.043-.05L17.384 10.1c-.023-.023-.043-.051-.082-.047a.89.89 0 0 1 .266-.039z" fill="#55b3e5"/><path d="m18.87 10.987-.206-.21-.708-.71c-.017-.016-.031-.035-.047-.053.15.003.294.028.435.08.207.23.435.44.65.662.02.02.053.038.034.076-.05.054-.098.111-.158.155z" fill="#57bbe9"/><path d="M19.029 10.832c-.001-.03-.025-.045-.043-.063l-.574-.574a.222.222 0 0 1-.068-.101c.267.069.502.2.717.37.053.042.101.09.153.134.023.018.024.031.003.052l-.188.182z" fill="#59bfeb"/><path d="M10.096 18.37c.034-.006.051.02.071.04l.586.585c.018.018.032.043.062.045-.05.069-.118.122-.176.184-.03.032-.042-.004-.055-.018a2.092 2.092 0 0 1-.386-.568c-.04-.087-.081-.174-.102-.269z" fill="#8c308b"/></g></g><defs><clipPath id="a"><path fill="#fff" d="M0 0h39v40H0z"/></clipPath><clipPath id="b"><path fill="#fff" transform="translate(10 10)" d="M0 0h19.984v20H0z"/></clipPath></defs></svg>