<svg width="40" height="40" fill="none" xmlns="http://www.w3.org/2000/svg"><mask id="a" style="mask-type:alpha" maskUnits="userSpaceOnUse" x="10" y="10" width="20" height="20"><path fill="#fff" d="M10 10h20v20H10z"/></mask><g mask="url(#a)" transform="matrix(1.4 0 0 1.4 -8 -8)" fill-rule="evenodd" clip-rule="evenodd"><path d="M20 29.8c5.413 0 9.8-4.387 9.8-9.8 0-5.411-4.387-9.8-9.8-9.8-5.413 0-9.8 4.389-9.8 9.8 0 5.413 4.387 9.8 9.8 9.8z" fill="#fff"/><path d="M22.199 17.448c0-1.114.754-2.195 1.166-1.991.469.235-.352 1.285-1.166 1.991zm-5.13.406c0-.896.884-2.598 1.424-2.418.638.213-.53 1.93-1.424 2.418zm-.897 6.408c-.406.019-.678-.241-.678-.675 0-1.166 1.618-2.28 2.84-2.878-.217 1.628-.767 3.49-2.162 3.553zm7.465-3.8c-.923 0-1.628.68-1.628 1.494 0 .678.408 1.221.95 1.221.19 0 .38-.109.38-.351 0-.355-.468-.44-.432-.968.023-.348.351-.58.677-.58.65 0 .955.63.955 1.28-.026 1.006-.766 1.704-1.634 1.704-1.14 0-1.873-1.085-1.873-2.252 0-1.739 1.14-2.417 1.738-2.58.006 0 1.561.277 1.513-.408-.023-.302-.471-.418-.795-.43-.36-.014-.725.115-.725.115-.188-.096-.32-.283-.4-.5 1.112-.842 1.9-1.655 1.9-2.579 0-.488-.327-.922-.951-.922-1.113 0-1.955 1.411-1.955 2.687 0 .217 0 .435.056.624-.706.515-1.232.837-2.18 1.407 0-.12.024-.426.104-.823.325-.353.772-.882.772-1.29 0-.19-.108-.353-.327-.353-.542 0-.948.815-1.057 1.385-.244.3-.733.68-1.141.68-.325 0-.435-.299-.462-.408 1.032-.353 2.308-1.765 2.308-3.04 0-.271-.109-.87-.923-.87-1.222 0-2.252 1.82-2.252 3.23-.436 0-.598-.46-.598-.814 0-.353.136-.705.136-.814 0-.109-.054-.244-.218-.244-.406 0-.65.543-.65 1.167.027.869.597 1.413 1.356 1.466.11.517.57 1.006 1.14 1.006.353 0 .787-.11 1.086-.38-.026.19-.053.353-.08.515-1.196.626-2.065 1.06-2.852 1.765-.623.571-.976 1.33-.976 1.927 0 .816.515 1.575 1.574 1.575 1.248 0 2.199-1.004 2.66-2.389.217-.65.304-1.599.36-2.469a25.274 25.274 0 0 0 2.49-1.576c.082.136.164.244.272.325-.57.299-1.927 1.141-1.927 3.122 0 1.412.949 2.987 2.823 2.987 1.548 0 2.606-1.276 2.606-2.498 0-1.112-.625-2.143-1.82-2.143zm4.668 2.333c-.004.008-.02.02-.05.01-.024-.009-.03-.02-.03-.036.002-.015.328-.981.326-2.089-.003-1.196-.489-1.93-1.112-1.93-.38 0-.652.273-.652.68 0 .734.895.788.895 2.39 0 .65-.135 1.275-.351 1.953-1.006 3.393-4.21 4.968-7.33 4.968-1.44 0-2.462-.296-2.766-.432-.012-.007-.024-.031-.014-.055.007-.018.028-.032.04-.026.124.047 1.002.324 2.088.324 1.194 0 1.9-.489 1.9-1.087a.672.672 0 0 0-.678-.678c-.733 0-.788.923-2.362.923-.679 0-1.276-.136-1.982-.354-3.367-1.031-4.97-4.206-4.968-7.355 0-1.535.431-2.757.438-2.768.006-.008.025-.017.048-.008.024.008.03.028.028.035-.038.127-.324 1.003-.324 2.09 0 1.194.489 1.9 1.113 1.9.352 0 .651-.271.651-.651 0-.734-.896-.815-.896-2.39 0-.679.136-1.277.353-1.982 1.032-3.366 4.209-4.944 7.33-4.968 1.451-.011 2.72.423 2.77.462.008.007.016.025.008.047-.012.027-.029.03-.037.028-.015-.001-.84-.346-2.09-.346-1.167-.002-1.9.487-1.9 1.112 0 .352.272.651.678.651.733 0 .788-.895 2.363-.895.677 0 1.275.134 1.98.352 3.394 1.032 4.939 4.235 4.968 7.33.016 1.586-.431 2.785-.435 2.795zM20 10.662A9.337 9.337 0 0 0 10.663 20 9.337 9.337 0 0 0 20 29.338 9.336 9.336 0 0 0 29.338 20c0-5.13-4.18-9.338-9.337-9.338zm0 19.138c-5.402 0-9.8-4.37-9.8-9.8 0-5.403 4.398-9.8 9.8-9.8 5.4 0 9.8 4.397 9.8 9.8 0 5.43-4.4 9.8-9.8 9.8z" fill="#3b73b9"/></g></svg>