<svg width="40" height="40" fill="none" xmlns="http://www.w3.org/2000/svg"><g clip-path="url(#a)" transform="matrix(1.4 0 0 1.4 -8.004 -8.08)" fill="#fff"><path d="M13.465 23.404c-1.877 0-3.444-1.266-3.444-3.198 0-1.95 1.558-3.206 3.444-3.206h5.81v1.536h-5.203c-1.012 0-1.894.58-1.894 1.67 0 1.08.881 1.659 1.894 1.659h3.08v-1.027h-2.288v-1.406h4.41v3.972zM26.561 23.404h-6.075V17h6.075c1.88 0 3.436 1.256 3.436 3.206 0 1.932-1.564 3.198-3.436 3.198zm-.606-4.868h-3.36v3.329h3.36c1.01 0 1.89-.57 1.89-1.66 0-1.09-.87-1.67-1.89-1.67z"/></g><defs><clipPath id="a"><path fill="#fff" transform="translate(10 17)" d="M0 0h20v6.406H0z"/></clipPath></defs></svg>