<svg width="40" height="40" fill="none" xmlns="http://www.w3.org/2000/svg"><g clip-path="url(#a)" transform="matrix(1.4 0 0 1.4 -8 -8)" fill-rule="evenodd" clip-rule="evenodd"><path d="M13.427 19.554c0-.147.007-.24.023-.279.015-.039.054-.054.124-.054.054 0 .093.023.116.062.023.046.039.14.039.279a.46.46 0 0 1-.039.225c-.015.039-.186.108-.496.217-.295.1-.48.186-.55.263-.078.07-.109.21-.109.411v.225c0 .271.07.45.21.535a.892.892 0 0 0 .457.116.72.72 0 0 0 .325-.07.603.603 0 0 0 .225-.217v.24h.93v-1.364c0-.45-.023-.752-.054-.891-.031-.147-.132-.264-.294-.364-.163-.101-.404-.148-.73-.148-.263 0-.488.04-.65.132a.74.74 0 0 0-.341.302c-.055.109-.078.272-.078.489v.116h.891zm.302 1.217c0 .14-.008.225-.031.256-.016.031-.054.047-.116.047-.063 0-.101-.016-.125-.062a.864.864 0 0 1-.03-.272c0-.124.015-.217.038-.279.023-.062.109-.147.264-.24zM15.86 18.787l-.023.256a.72.72 0 0 1 .613-.303c.256 0 .457.101.604.303a.81.81 0 0 1 .272-.225.704.704 0 0 1 .333-.078c.163 0 .302.031.403.101.109.07.178.147.21.248.023.1.038.264.038.488v1.93h-.922v-1.774c0-.233-.016-.373-.031-.427-.016-.062-.062-.085-.124-.085-.07 0-.109.023-.132.077a2.345 2.345 0 0 0-.023.435v1.775h-.93v-1.729c0-.264-.008-.426-.024-.48-.015-.055-.054-.078-.124-.078a.185.185 0 0 0-.108.039.14.14 0 0 0-.047.108c-.008.039-.008.124-.008.256v1.884h-.93v-2.721zM20.729 19.833c0-.263-.031-.465-.101-.612a.761.761 0 0 0-.364-.349c-.179-.093-.396-.132-.667-.132-.217 0-.41.031-.581.109a.705.705 0 0 0-.365.318c-.07.131-.108.325-.108.558v.79c0 .21.015.365.046.466a.77.77 0 0 0 .179.294.96.96 0 0 0 .364.21c.155.046.333.07.535.07.201 0 .38-.024.52-.07a.957.957 0 0 0 .34-.233.82.82 0 0 0 .17-.287c.024-.093.032-.225.032-.388v-.201h-.9v.357a.685.685 0 0 1-.038.27c-.023.047-.07.07-.147.07-.055 0-.101-.015-.117-.054-.023-.03-.03-.108-.03-.232v-.59h1.232zm-1.233-.085v-.194c0-.155.008-.248.023-.279.016-.039.055-.054.124-.054.055 0 .094.015.11.062a.864.864 0 0 1 .03.271v.194z" fill="#fff"/><path d="M24.473 18.422v.334h.256v.434h-.256v1.55c0 .179.008.28.031.295.023.023.108.03.271.03v.443h-.387c-.217 0-.372-.008-.465-.023a.48.48 0 0 1-.248-.109.35.35 0 0 1-.132-.194 3.445 3.445 0 0 1-.023-.52V19.19h-.21v-.434h.21v-.333zM27.062 19.314a.715.715 0 0 0-.17-.28.933.933 0 0 0-.357-.216 1.687 1.687 0 0 0-.55-.078c-.256 0-.465.04-.636.124a.708.708 0 0 0-.333.341c-.07.148-.101.342-.101.597v.698c0 .233.023.403.054.52a.739.739 0 0 0 .17.294.83.83 0 0 0 .35.186c.139.039.325.054.534.054.186 0 .357-.023.504-.07a.837.837 0 0 0 .357-.217c.093-.1.155-.209.178-.317.031-.117.047-.295.047-.543v-.667a1.43 1.43 0 0 0-.047-.426zm-.907 1.48c0 .117-.008.194-.03.225-.016.04-.055.055-.11.055-.061 0-.1-.016-.116-.055-.023-.038-.03-.124-.03-.255v-1.225c0-.14.007-.233.03-.264.016-.039.055-.054.117-.054.054 0 .093.015.108.054.023.031.031.124.031.264zM23.016 19.95c-.117-.148-.396-.334-.838-.566-.155-.078-.248-.147-.279-.202-.038-.054-.054-.14-.054-.248 0-.093.016-.155.047-.194.03-.046.077-.062.131-.062.062 0 .101.016.124.047.024.03.031.1.031.217v.248h.923v-.132c0-.263-.031-.45-.085-.566-.062-.108-.179-.201-.365-.271a1.83 1.83 0 0 0-.659-.109c-.232 0-.434.031-.604.101a.688.688 0 0 0-.357.272c-.077.124-.116.31-.116.565 0 .171.03.318.085.435a.688.688 0 0 0 .194.263c.085.062.248.17.488.31.248.14.403.24.465.303.062.062.093.186.093.387 0 .085-.015.155-.046.194-.031.046-.085.07-.147.07-.07 0-.109-.016-.14-.055-.023-.03-.039-.116-.039-.24v-.341h-.922v.155c0 .248.03.442.093.581.054.132.178.249.364.334.186.085.419.132.682.132.24 0 .458-.04.636-.117.186-.077.31-.17.372-.279.062-.116.093-.287.093-.527 0-.326-.054-.558-.17-.705zM27.326 18.787v3.1h.969v-.62c.077.093.17.163.271.21.1.046.21.07.333.07a.746.746 0 0 0 .38-.094c.101-.062.17-.139.21-.248.03-.1.046-.279.046-.527v-1.14a1.96 1.96 0 0 0-.039-.457c-.023-.093-.093-.17-.201-.24a.705.705 0 0 0-.388-.1.803.803 0 0 0-.333.07.937.937 0 0 0-.287.216l.023-.24zm1.248 1.953c0 .148-.008.24-.023.272-.016.038-.055.062-.109.062-.062 0-.108-.024-.124-.062a1.114 1.114 0 0 1-.031-.31l.008-1.125c0-.155.007-.255.023-.294.016-.047.054-.062.116-.062.07 0 .109.015.117.047.015.038.023.139.023.31z" fill="#ed3237"/><path d="M12.31 19.407h-.992v-.302c0-.194-.008-.31-.031-.357-.016-.046-.062-.07-.132-.07-.062 0-.1.016-.124.062-.023.04-.039.148-.039.31v1.597c0 .148.016.248.04.295.022.046.061.07.13.07.07 0 .125-.024.148-.078a.87.87 0 0 0 .039-.31v-.395h-.202v-.45h1.163v1.729h-.628l-.093-.233a.554.554 0 0 1-.256.225.766.766 0 0 1-.364.077c-.163 0-.318-.038-.465-.108a.829.829 0 0 1-.333-.264.674.674 0 0 1-.14-.325 2.881 2.881 0 0 1-.03-.512v-.984c0-.318.022-.55.061-.698.039-.14.147-.271.333-.395a1.39 1.39 0 0 1 .73-.179c.294 0 .534.055.728.155.186.101.318.225.372.373.062.14.085.348.085.62z" fill="#fff"/><path d="M29.79 18.919h.024c.023 0 .047-.016.047-.04 0-.015-.008-.03-.047-.03h-.023zm0 .108h-.03v-.201h.054c.031 0 .054.007.062.015.016.008.016.016.016.039s-.016.039-.04.046c.024.008.032.024.04.047 0 .03.007.046.007.054h-.03c-.008-.008-.008-.03-.016-.054 0-.023-.016-.031-.039-.031h-.023zm.032-.256c-.078 0-.14.07-.14.148 0 .085.062.155.14.155.077 0 .14-.07.14-.148 0-.085-.063-.155-.14-.155zm0-.023c.1 0 .178.078.178.17 0 .101-.077.179-.178.179a.174.174 0 0 1-.17-.178c0-.093.077-.17.17-.17z" fill="#d81e05"/></g><defs><clipPath id="a"><path fill="#fff" d="M0 0h40v40H0z"/></clipPath></defs></svg>