<svg width="40" height="40" fill="none" xmlns="http://www.w3.org/2000/svg"><mask id="a" mask-type="alpha" maskUnits="userSpaceOnUse" x="11" y="11" width="18" height="18"><path fill="#fff" d="M11 11h18v18H11z"/></mask><g mask="url(#a)" transform="matrix(1.4 0 0 1.4 -8 -8)" fill-rule="evenodd" clip-rule="evenodd" fill="#0671d8"><path d="M13.323 11A2.323 2.323 0 0 0 11 13.323v13.354A2.323 2.323 0 0 0 13.323 29h13.354A2.323 2.323 0 0 0 29 26.677V13.323A2.323 2.323 0 0 0 26.677 11Zm0 1.161h13.354c.642 0 1.162.52 1.162 1.162v13.354c0 .642-.52 1.162-1.162 1.162H13.323c-.642 0-1.162-.52-1.162-1.162V13.323c0-.642.52-1.162 1.162-1.162z"/><path d="M19.129 23.194v1.16h6.387v-1.16zM19.129 15.645v6.242h1.306v-5.08h1.307v5.08h1.306v-5.08h.871c.24 0 .436.194.436.435v4.645h1.306v-4.79c0-.802-.65-1.452-1.451-1.452zM15.79 15.645c-.801 0-1.451.65-1.451 1.452v3.338c0 .802.65 1.452 1.451 1.452h1.162v.29c0 .562-.52 1.016-1.162 1.016h-.726v1.162h.726c1.363 0 2.468-.975 2.468-2.178v-6.532zm.29 1.161h.872v3.92h-.871a.436.436 0 0 1-.436-.436v-3.048c0-.24.195-.436.436-.436z"/></g></svg>