<svg width="40" height="40" fill="none" xmlns="http://www.w3.org/2000/svg"><g clip-path="url(#a)" transform="matrix(1.4 0 0 1.4 -8.168 -7.2)"><path d="M19.407 9.923h.56c.561.057 1.11.206 1.58.526.56.366.95.95 1.12 1.59.207.813.115 1.67-.17 2.438-.104.274-.195.549-.298.823.458-.126.892-.332 1.213-.675.354-.354.526-.835.64-1.304.824-.011 1.636-.011 2.46-.011-.423 1.132-.743 2.31-.72 3.523.01 1.396.526 2.724.663 4.108.103.927.069 1.888-.194 2.803a5.453 5.453 0 0 1-1.316 2.265c-.607.641-1.373 1.122-2.208 1.442-1.053.423-2.197.572-3.33.55-1.35-.024-2.723-.333-3.879-1.042-1.006-.606-1.83-1.533-2.242-2.643-.412-1.098-.389-2.357.114-3.42a4.05 4.05 0 0 1 1.9-1.912c1.018-.492 2.185-.606 3.295-.492.149-.412.309-.812.458-1.212-.927-.4-1.785-1.064-2.277-1.98-.744-1.361-.572-3.203.503-4.347.538-.607 1.327-.962 2.128-1.03zm-.606 2.86c-.183.424-.206.916-.012 1.327.218.447.572.87 1.03 1.087.103-.217.183-.446.263-.663.137-.355.298-.698.343-1.076.046-.32-.011-.663-.217-.915a.845.845 0 0 0-.892-.252c-.24.08-.412.275-.515.492zm2.551 4.794c-.183.503-.377 1.007-.56 1.522.572.263 1.155.538 1.59.995-.275.698-.55 1.407-.835 2.117-.447-.435-.95-.801-1.534-1.03-.308.835-.617 1.66-.915 2.494h-2.414c.366-.96.72-1.922 1.076-2.883-.79-.023-1.58.378-2.003 1.053-.183.274-.297.606-.251.95a2.59 2.59 0 0 0 .96 1.819c.744.617 1.728.87 2.667.938.789.057 1.59.011 2.334-.24.675-.218 1.304-.63 1.739-1.19.572-.721.8-1.682.732-2.598-.057-.698-.229-1.384-.355-2.07-.149-.779-.274-1.557-.274-2.357-.63.24-1.282.4-1.957.48z" fill="#fff"/><path d="M25.265 12.451c1.247-.95 1.888-1.476 2.288-2.174.572-.984.23-1.83-.492-2.15a1.365 1.365 0 0 0-1.796.64 1.348 1.348 0 0 0-1.785-.64c-.72.32-1.064 1.166-.503 2.15.412.698 1.041 1.225 2.288 2.174z" fill="#e32123"/></g><defs><clipPath id="a"><path fill="#fff" transform="translate(13 8)" d="M0 0h14.839v20H0z"/></clipPath></defs></svg>