<svg width="40" height="40" fill="none" xmlns="http://www.w3.org/2000/svg"><g clip-path="url(#a)" transform="matrix(1.4 0 0 1.4 -8 -8)"><path fill-rule="evenodd" clip-rule="evenodd" d="M27.443 10c-12.479 1.188-14.057 9.794-9.978 12.543-.705 3.106-.059 3.036-.059 3.036a23.52 23.52 0 0 1 .545-2.756c1.593-6.056 5.533-11.325 9.507-12.705v-.015c.025-.002.059-.016.059-.044a.058.058 0 0 0-.06-.059Zm-.648 1.975c-.022 0-.049.022-.06.044-1.031 2.022-1.323 4.915-2.107 7.134-.901 2.531-2.502 4.247-4.967 4.082v6.16s-6.588-2.99-6.588-7.781v-8.976l5.38-.501h.014c.03 0 .044-.014.044-.045 0-.034-.016-.055-.044-.059h-5.984v9.58c0 5.39 7.178 8.387 7.178 8.387s7.192-3.045 7.192-8.386v-9.58c0-.025-.03-.06-.059-.06z" fill="#c6093b"/></g><defs><clipPath id="a"><path fill="#fff" d="M0 0h40v40H0z"/></clipPath></defs></svg>