<svg width="40" height="40" fill="none" xmlns="http://www.w3.org/2000/svg"><mask id="a" mask-type="alpha" maskUnits="userSpaceOnUse" x="10" y="10" width="20" height="20"><path fill="#fff" d="M10 10h20v20H10z"/></mask><g mask="url(#a)" transform="matrix(1.4 0 0 1.4 -7.99 -7.99)"><path fill="#7399c6" d="M10 10h19.95v19.95H10z"/><path fill-rule="evenodd" clip-rule="evenodd" d="M12.428 12.805h1.094v1.748c-.377.063-.78.101-1.019.101-1.082 0-1.534-.667-1.534-1.786 0-1.195.578-1.862 1.71-1.862.151 0 .453.013.805.088v1.082h-.251l-.151-.415c-.139-.377-.302-.528-.554-.528-.465 0-.704.59-.704 1.635 0 1.082.138 1.56.704 1.56.063 0 .151 0 .264-.026v-1.22l-.377-.239v-.138Zm1.031 4.742c0 .705-.478 1.107-1.333 1.107-.24 0-.579-.038-.893-.1V17.22h.251l.1.302c.227.704.403.918.705.918.315 0 .529-.239.529-.578 0-.265-.139-.478-.44-.642l-.516-.277c-.403-.213-.617-.54-.617-.943 0-.616.49-.981 1.321-.981.189 0 .403.013.755.063v1.107h-.252l-.15-.403c-.14-.39-.278-.54-.567-.54-.29 0-.478.163-.478.414 0 .214.139.403.415.566l.529.29c.44.251.641.578.641 1.031zm2.327.818.1.15v.076h-.792l-.025-.327c-.088.24-.327.39-.629.39-.39 0-.666-.239-.666-.68 0-.44.239-.704.955-.993l.328-.138v-.365c0-.277-.089-.403-.29-.403-.176 0-.289.114-.402.39l-.164.403h-.239v-.83c.302-.088.617-.151.88-.151.604 0 .932.277.932.792v1.686zm.34-5.107c0 .893-.478 1.396-1.082 1.396-.604 0-1.082-.49-1.082-1.396 0-.906.478-1.396 1.082-1.396.604 0 1.082.503 1.082 1.396zm-1.057 4.641v-.855l-.113.05c-.302.139-.44.365-.44.755 0 .327.088.478.264.478.189.013.29-.176.29-.428zm.29-4.641c0-.956-.089-1.195-.328-1.195-.239 0-.327.239-.327 1.195 0 .956.088 1.195.327 1.195.24 0 .327-.227.327-1.195zm2.54 4.68.164.087c-.151.428-.377.642-.83.642-.667 0-1.02-.516-1.02-1.371 0-.931.416-1.41 1.158-1.41.189 0 .465.026.68.114v.88h-.252l-.1-.34c-.114-.376-.215-.464-.353-.464-.214 0-.377.264-.377 1.232 0 .793.113 1.082.44 1.082.201-.013.34-.126.49-.453zm-.49-3.347h-.931v-.075l.1-.151v-2.893l-.1-.151v-.076l.818-.063v3.183l.1.15v.076zm1.295.063c-.603 0-.93-.49-.93-1.421 0-.906.364-1.371.943-1.371.264 0 .428.125.49.327v-.717l-.1-.151v-.076l.83-.063v3.183l.1.15v.076h-.729l-.063-.377c-.075.302-.239.44-.54.44zm1.812 3.71.1.152v.075h-.93v-.075l.1-.151v-1.887c0-.189-.088-.315-.239-.315-.201 0-.34.19-.34.453v1.749l.101.15v.076h-.93v-.075l.1-.151v-2.893l-.1-.151v-.076l.83-.063v1.032c.113-.24.377-.34.616-.34.44 0 .692.264.692.793zm-1.988-5.119c0 .906.088 1.195.34 1.195.277 0 .34-.39.34-1.207 0-.78-.063-1.157-.34-1.157-.24 0-.34.289-.34 1.17zm5.283 1.12.101.15v.076h-.93v-.075l.1-.151v-1.9c0-.176-.076-.314-.24-.314-.2 0-.314.201-.314.465v1.749l.1.15v.076h-.93v-.075l.1-.151v-1.9c0-.176-.075-.314-.238-.314-.202 0-.327.201-.327.465v1.749l.1.15v.076h-.93v-.075l.1-.151v-2.139l-.1-.125v-.076l.73-.088h.062l.025.315c.1-.24.352-.378.642-.378.314 0 .503.151.603.415.114-.251.353-.415.68-.415.415 0 .641.252.641.78v1.71zm-1.019 3.434c0 .49-.289.868-1.018.868a5.19 5.19 0 0 1-.805-.088v-.956h.226l.075.2c.19.504.302.642.58.642.263 0 .402-.125.402-.39 0-.213-.114-.352-.365-.49l-.466-.252c-.301-.163-.44-.39-.44-.691 0-.491.365-.768.994-.768.189 0 .415.025.667.076v.742h-.214l-.113-.264c-.114-.264-.214-.365-.44-.365-.227 0-.353.113-.353.29 0 .163.1.263.352.402l.466.264c.289.189.453.415.453.78zm3.434-3.434.101.15v.076h-.792l-.026-.327c-.088.24-.327.39-.629.39-.39 0-.666-.239-.666-.68 0-.44.239-.704.956-.993l.327-.138v-.365c0-.277-.088-.403-.29-.403-.176 0-.289.114-.402.39l-.164.403h-.238v-.843c.301-.088.616-.15.88-.15.604 0 .93.276.93.792v1.698zm-.73-.478v-.843l-.112.05c-.302.139-.44.365-.44.755 0 .327.087.478.264.478.2 0 .289-.189.289-.44zm3.435.629v.075H28v-.075l.1-.151v-1.9c0-.188-.087-.314-.238-.314-.202 0-.34.189-.34.453v1.748l.1.151v.076h-.93v-.076l.1-.15v-2.14l-.1-.125v-.075l.73-.089h.062l.025.328c.101-.277.378-.378.642-.378.44 0 .692.264.692.793v1.698z" fill="#fff"/></g></svg>