<svg width="41" height="40" fill="none" xmlns="http://www.w3.org/2000/svg"><g clip-path="url(#a)" transform="matrix(1.4 0 0 1.4 -8.398 -8)"><g clip-path="url(#b)"><path d="M12.911 14.114a9.219 9.219 0 0 1 1.827-1.924 9.85 9.85 0 0 1 4.71-2.078c.012-.002.022-.011.033-.017.447-.032.892-.088 1.341-.094.635-.009 1.264.035 1.89.138.06.01.121.013.182.02.593.141 1.184.289 1.752.518 2.392.966 4.17 2.599 5.328 4.904.135.27.242.554.37.828.067.145.02.17-.124.17-2.108-.002-4.216.002-6.324.004-.464 0-.928.005-1.391 0-.114-.001-.158.028-.175.149-.15 1.05-.31 2.1-.461 3.151-.017.117-.052.155-.17.152l-1.038-.001c-.127.002-.181-.01-.157-.171.154-1.032.29-2.066.44-3.099.02-.137.005-.184-.146-.183-1.193.005-2.387.004-3.58 0-.133 0-.19.032-.21.175-.17 1.154-.35 2.307-.525 3.46-.206 1.361-.407 2.722-.618 4.082-.025.155.013.186.159.185 1.193-.005 2.386-.004 3.58 0 .12 0 .167-.026.187-.156.151-.994.317-1.986.467-2.98.028-.186.085-.26.287-.246l.982.005c.098 0 .142.01.122.132-.165 1.005-.32 2.012-.481 3.018-.036.224-.04.225.184.225 1.15 0 2.3-.002 3.45.004.145 0 .195-.037.217-.188.288-1.91.584-3.82.88-5.729.045-.299.097-.597.14-.896.013-.102.059-.13.157-.129 1.459.002 2.918.003 4.377 0 .117-.001.142.058.165.15.09.367.135.74.202 1.11.039.567.061 1.134.042 1.703-.015.452-.091.895-.146 1.342a10.252 10.252 0 0 1-1.025 2.88 9.224 9.224 0 0 1-1.378 1.944c-.14.088-.224.234-.342.345-.128.12-.26.237-.373.372-.643.613-1.375 1.101-2.162 1.507a9.884 9.884 0 0 1-3.249 1.012c-.162.021-.188.032-.487.06-.543.053-1.092.032-1.637 0a7.956 7.956 0 0 1-1.96-.368c-3.69-1.183-6.024-3.645-6.983-7.404-.107-.42-.146-.85-.213-1.275a14.324 14.324 0 0 1 .025-2.082c.122-.901.327-1.781.678-2.623.128-.307.258-.613.428-.9" fill="#fd273d"/></g></g><defs><clipPath id="a"><path fill="#fff" transform="translate(.879)" d="M0 0h40v40H0z"/></clipPath><clipPath id="b"><path fill="#fff" transform="translate(11 10)" d="M0 0h19.988v20H0z"/></clipPath></defs></svg>