<svg width="40" height="40" fill="none" xmlns="http://www.w3.org/2000/svg"><g clip-path="url(#a)" transform="matrix(1.4 0 0 1.4 -8.072 -8)"><g clip-path="url(#b)" fill="#fff"><path d="m17.87 29.996.509-1.54 1.703-5.164 1.614-4.887c.102-.31.2-.62.31-.927.019-.051.085-.121.13-.122.539-.008 1.077-.005 1.625-.005-.003.026-.001.06-.01.09l-2.18 6.598c-.634 1.923-1.268 3.845-1.897 5.77-.043.134-.095.194-.246.191-.51-.01-1.02-.004-1.557-.004zM13 22.67l.315-.97 1.3-3.944c.501-1.515 1.003-3.03 1.503-4.546.334-1.01.667-2.02.996-3.032.04-.125.086-.181.232-.178.516.012 1.032.004 1.562.004-.092.287-.188.59-.288.89l-2.633 7.97a753.32 753.32 0 0 0-1.186 3.62c-.04.125-.1.165-.23.165-.454-.001-.907.013-1.36.02-.06.002-.12 0-.211 0zM20.156 17.355c-.145.455-.284.895-.426 1.335-.4 1.24-.802 2.481-1.201 3.722-.091.282-.088.28-.38.274-.43-.01-.86-.013-1.291-.02-.056-.001-.112-.006-.19-.01.088-.283.17-.548.255-.812.471-1.458.945-2.915 1.413-4.375.04-.126.093-.167.227-.161.47.02.94.025 1.41.036.055 0 .11.006.183.01zM23.843 22.708l.5-1.55c.394-1.218.79-2.437 1.178-3.658.041-.13.096-.174.238-.171.521.012 1.043.004 1.6.004l-.15.471c-.517 1.6-1.033 3.2-1.554 4.8-.014.043-.08.099-.124.1-.55.007-1.1.004-1.688.004z"/></g></g><defs><clipPath id="a"><path fill="#fff" d="M0 0h40v40H0z"/></clipPath><clipPath id="b"><path fill="#fff" transform="translate(13 10)" d="M0 0h14.359v20H0z"/></clipPath></defs></svg>