<svg width="40" height="40" fill="none" xmlns="http://www.w3.org/2000/svg"><g clip-path="url(#a)" transform="matrix(1.4 0 0 1.4 -7.989 -8.007)"><mask id="b" mask-type="alpha" maskUnits="userSpaceOnUse" x="10" y="11" width="20" height="18"><path fill="#fff" d="M10 11.896h20v16.207H10z"/></mask><g mask="url(#b)"><mask id="c" mask-type="alpha" maskUnits="userSpaceOnUse" x="10" y="11" width="20" height="18"><path fill-rule="evenodd" clip-rule="evenodd" d="M10 11.935h19.944V28.1H10Z" fill="#fff"/></mask><g mask="url(#c)"><path fill-rule="evenodd" clip-rule="evenodd" d="M11.232 21.472h17.48v-2.758h-17.48Zm13.957 2.465s-2.256 2.064-5.217 2.81c-2.96-.745-5.216-2.81-5.216-2.81.672-.403.9-.924.975-1.247h8.482c.077.323.303.844.976 1.247zM14.737 15.7s2.542.134 5.235-1.873c2.693 2.007 5.235 1.873 5.235 1.873-.824.839-.961 1.508-.978 1.795h-8.515c-.016-.288-.153-.957-.977-1.795Zm15.207 1.795h-4.382c.026-.697.926-1.03.926-1.03v-1.797c-4.893-.267-6.516-2.733-6.516-2.733s-1.623 2.466-6.516 2.733v1.796s.9.334.926 1.031H10v5.195h4.367c-.25.896-1.494 1.123-1.494 1.123 3.565 3.698 7.099 4.29 7.099 4.29s3.535-.592 7.099-4.29c0 0-1.245-.227-1.494-1.122h4.367z" fill="#fff"/></g><path fill-rule="evenodd" clip-rule="evenodd" d="M27.67 24.069a.28.28 0 1 1 .002-.56.28.28 0 0 1-.002.56zm0-.598a.318.318 0 0 0 0 .636.318.318 0 0 0 0-.636z" fill="#fff"/><path fill-rule="evenodd" clip-rule="evenodd" d="M27.677 23.777h-.09v-.132h.09c.047 0 .089.006.087.064 0 .059-.039.068-.087.068zm.133.09a.108.108 0 0 0-.012-.05.054.054 0 0 0-.032-.02c.036-.018.053-.05.053-.09a.111.111 0 0 0-.013-.056c-.025-.048-.074-.052-.12-.052h-.15v.389h.051v-.166h.089c.034 0 .056.004.065.012.01.008.016.025.017.05l.003.05c0 .015.002.04.01.054h.06a.13.13 0 0 1-.017-.055Z" fill="#fff"/></g></g><defs><clipPath id="a"><path fill="#fff" d="M0 0h40v40H0z"/></clipPath></defs></svg>