<svg width="40" height="40" fill="none" xmlns="http://www.w3.org/2000/svg"><g clip-path="url(#a)" transform="matrix(1.4 0 0 1.4 -8 -7.925)"><g clip-path="url(#b)"><path d="M10 17.05c.289 0 .578.002.867-.003.07-.001.066.033.066.08-.001.639 0 1.277-.003 1.915 0 .074.016.103.094.095a1.28 1.28 0 0 1 .225 0c.06.005.072-.017.072-.074-.002-.641 0-1.282-.004-1.923 0-.08.024-.094.097-.093.256.004.511.003.767 0 .056 0 .069.016.069.07v5.344c0 .057-.018.069-.07.068a32.506 32.506 0 0 0-.785 0c-.063.002-.077-.016-.077-.077.002-.813 0-1.627.003-2.44 0-.069-.015-.091-.086-.085a1.464 1.464 0 0 1-.233 0c-.061-.004-.071.019-.071.074.002.813 0 1.627.003 2.44 0 .076-.021.09-.092.089-.28-.004-.561-.002-.842-.001V17.05zM19.77 19.782c0-.883 0-1.765-.002-2.648 0-.066.012-.088.084-.087.259.005.517.004.776 0 .063 0 .078.017.078.079-.003.64 0 1.282-.004 1.922 0 .076.02.095.092.089.069-.006.14-.008.208 0 .081.01.092-.025.092-.096-.003-.627-.002-1.254-.002-1.881 0-.11 0-.11.115-.11.248 0 .495 0 .742-.002.054 0 .07.012.07.068v5.344c0 .054-.013.07-.069.07a28.047 28.047 0 0 0-.783 0c-.065.001-.077-.018-.076-.078.002-.813 0-1.626.003-2.44 0-.069-.016-.09-.086-.084a1.29 1.29 0 0 1-.225 0c-.068-.006-.08.019-.08.082.002.804 0 1.61.003 2.414 0 .088-.024.109-.109.107a17.994 17.994 0 0 0-.742 0c-.068 0-.087-.015-.087-.086.003-.888.002-1.776.002-2.664zM16.507 19.556c.266.172.374.418.372.722-.003.405-.002.81 0 1.216 0 .152.004.305.037.455.061.28.115.381.31.58h-.487c-.194 0-.389-.003-.583 0-.047.001-.068-.015-.086-.056a1.292 1.292 0 0 1-.093-.52c-.004-.563-.002-1.127-.003-1.69 0-.036 0-.072-.002-.108-.007-.138-.077-.205-.217-.207-.14-.003-.14-.003-.14.135 0 .785-.001 1.57.002 2.356 0 .073-.016.093-.09.091-.25-.005-.501-.003-.751 0-.053 0-.071-.012-.07-.069a3174.1 3174.1 0 0 0-.001-5.344c0-.056.015-.07.069-.069.44.002.878 0 1.318.002.409.002.704.253.78.655.016.088.025.176.026.264.003.272.005.544 0 .816-.007.363-.094.529-.39.77zm-.852-1.006v.548c0 .146 0 .146.146.136.145-.01.222-.09.222-.235v-.897c0-.143-.055-.204-.2-.224-.03-.005-.06-.004-.09-.009-.06-.009-.081.01-.08.075.005.202.002.404.002.606zM17.223 21.189c0-.183.003-.366-.001-.55-.002-.06.018-.073.075-.072.256.003.512.003.767 0 .058 0 .075.015.075.074-.003.324-.002.65 0 .974 0 .154.138.237.278.17.058-.028.091-.072.091-.137 0-.295.004-.589-.003-.883-.005-.175-.103-.312-.211-.441-.216-.258-.455-.495-.664-.758a1.61 1.61 0 0 1-.372-1.091c.008-.225-.009-.45.014-.674a.858.858 0 0 1 .872-.8h.4c.444 0 .789.316.83.758.028.324.007.649.015.973 0 .04-.014.051-.053.051a42.653 42.653 0 0 0-.775 0c-.056.001-.054-.026-.054-.065.001-.247.002-.494 0-.741-.001-.142-.11-.216-.236-.166-.057.023-.096.065-.097.124-.004.21-.014.422.007.632.02.2.127.357.255.502.213.242.43.48.633.73.244.302.365.64.353 1.03-.007.26-.001.521-.001.782 0 .495-.24.814-.717.952a1.411 1.411 0 0 1-.883-.022.861.861 0 0 1-.596-.828c-.004-.174 0-.35 0-.524h-.002zM25.573 19.016c.086-.63.173-1.258.257-1.886.008-.059.023-.084.09-.082.206.005.411.002.617.001.039 0 .057 0 .048.053-.113.626-.222 1.253-.332 1.88l-.315 1.799c-.005.03-.005.06-.005.091 0 .525-.001 1.05.002 1.573 0 .072-.02.086-.087.085a21.557 21.557 0 0 0-.776 0c-.072.002-.084-.021-.084-.088.003-.5.002-.999.003-1.498.001-.246-.065-.482-.106-.721-.104-.617-.215-1.232-.323-1.848l-.232-1.317c.036-.016.072-.008.107-.008h.767c.048-.001.07.004.078.062.085.61.175 1.217.264 1.825.004.027.004.055.027.079zM12.675 19.79c0-.886 0-1.77-.002-2.656 0-.07.017-.087.086-.087.503.003 1.007.003 1.51 0 .071 0 .086.02.085.087-.005.214-.005.428 0 .641.001.065-.02.077-.08.076-.194-.004-.388 0-.583-.003-.054 0-.07.012-.07.068.002.394.002.789 0 1.183 0 .055.016.069.07.068.18-.003.361 0 .542-.003.053 0 .07.013.07.069-.004.222-.003.444 0 .666 0 .05-.013.066-.065.065-.183-.003-.367 0-.55-.002-.05 0-.067.01-.067.063a190.8 190.8 0 0 1 0 1.64c0 .06.022.067.072.066.211-.002.423.001.634-.002.058 0 .082.007.08.074-.005.22-.004.439 0 .658 0 .055-.015.069-.07.069-.53-.003-1.061-.003-1.592 0-.073 0-.071-.033-.071-.084V19.79zM22.445 19.785c0-.882.001-1.764-.002-2.647 0-.071.015-.092.09-.091.495.004.99.003 1.484 0 .057 0 .082.007.08.075-.005.222-.004.444 0 .666 0 .052-.015.064-.065.063-.192-.003-.384 0-.576-.003-.052 0-.064.013-.064.065.003.396.003.793 0 1.19 0 .05.012.065.064.064.18-.004.362.002.542-.003.067-.002.077.022.076.08-.003.214-.004.428 0 .641.001.06-.013.081-.077.08-.178-.005-.356 0-.534-.003-.05 0-.071.007-.07.066.002.546.001 1.093 0 1.64 0 .05.012.064.064.063.216-.003.433 0 .65-.002.05 0 .073.005.072.065-.004.225-.003.45 0 .674 0 .047-.012.061-.06.061-.537-.002-1.073-.002-1.61 0-.07.001-.064-.034-.064-.08v-2.664zM27.605 22.528c-.256 0-.512-.008-.767.002-.315.014-.535-.24-.516-.568a.952.952 0 0 1 .239-.555c.154-.186.33-.352.498-.526.242-.252.428-.536.506-.881.006-.026.01-.06.047-.057.032.002.033.032.039.056.086.368.29.666.553.93.165.165.335.325.478.51.128.166.214.35.215.564 0 .28-.194.542-.525.527-.255-.01-.511-.002-.767-.002z" fill="#fff"/><path d="M30 18.005v.7c0 .055-.045.08-.081.108-.183.141-.4.2-.619.253-.304.072-.616.107-.923.166-.3.057-.547.195-.717.454-.013.02-.026.05-.056.042-.035-.008-.022-.04-.022-.063.001-.127-.006-.256.008-.382.03-.3.22-.48.479-.599.25-.114.522-.142.787-.2a4.48 4.48 0 0 0 .742-.215c.147-.06.277-.147.402-.264z" fill="#aaaaae"/></g></g><defs><clipPath id="a"><path fill="#fff" d="M0 0h40v40H0z"/></clipPath><clipPath id="b"><path fill="#fff" transform="translate(10 17)" d="M0 0h20v5.624H0z"/></clipPath></defs></svg>