<svg width="40" height="40" fill="none" xmlns="http://www.w3.org/2000/svg"><path fill-rule="evenodd" clip-rule="evenodd" d="M9.133 23.597h2.084v1.726H9.133Zm6.419-.298c0-.44.345-.536.967-.536s.967.096.967.536zm14.704.813c.383 0 .862-.028.862.307s-.479.32-.862.32-.862.015-.862-.32.48-.307.862-.307zM7.03 25.322h-.91V11.01h27.753v14.313h-.91v-2.04c0-1.215-.868-1.458-2.544-1.458-1.675 0-2.598.153-2.598 1.159h1.75c0-.316.274-.311.848-.311s.794.106.794.49v.43c-.228-.268-.149-.366-1.585-.366s-1.933.198-1.933 1.156c0 .47.171.761.49.94h-1.026v-4.842h-1.723v4.842h-1.268c.027-.011.053-.02.079-.033.417-.195.59-.557.59-1.215h-1.75c0 .436-.026.564-.82.564-.66 0-.818-.088-.818-.913 0-.806.206-.872.819-.872.612 0 .797.046.819.428h1.75c0-1.255-1.048-1.457-2.585-1.457-2.187 0-2.553.706-2.553 1.9 0 .875.193 1.358.85 1.598h-2.203c.458-.175.723-.483.723-1.013h-1.576c0 .369-.442.41-.98.41-.767 0-.961-.129-.961-.799h3.517v-.195c0-1.436-.6-1.901-2.604-1.901-2.148 0-2.568.586-2.568 1.901 0 .85.193 1.348.897 1.598h-1.471V20.48h-2.106v1.82H9.131v-1.82H7.026zM8.292 28.94V26.81h-.659l-.471 1.463h-.006l-.498-1.463H6v2.128h.438v-1.493h.006l.522 1.493h.36l.522-1.508h.006v1.508z" fill="#fff" style="stroke-width:1.4"/><path fill="#fff" style="stroke-width:1.4" d="M8.838 26.811h.468v2.128h-.468z"/><path fill-rule="evenodd" clip-rule="evenodd" d="m11.143 28.239-.889-1.428H9.79v2.128h.439v-1.424h.006l.885 1.424h.468v-2.128h-.438v1.428z" fill="#fff" style="stroke-width:1.4"/><path fill="#fff" style="stroke-width:1.4" d="M12.163 26.811h.468v2.128h-.468z"/><path fill-rule="evenodd" clip-rule="evenodd" d="m14.473 28.239-.888-1.428h-.465v2.128h.438v-1.424h.006l.885 1.424h.468v-2.128h-.438v1.428zM16.986 28.94h.298v-1.152h-.894v.35h.47c-.026.294-.202.458-.506.458-.42 0-.578-.358-.578-.712 0-.373.157-.73.578-.73.22 0 .396.122.45.357h.447c-.05-.483-.462-.75-.897-.75-.659 0-1.047.49-1.047 1.123 0 .614.388 1.106 1.047 1.106a.72.72 0 0 0 .584-.293zM20.515 27.526c-.057-.492-.45-.766-.918-.766-.66 0-1.047.492-1.047 1.124 0 .614.388 1.106 1.047 1.106.521 0 .888-.34.936-.87h-.453c-.036.28-.197.476-.483.476-.42 0-.579-.358-.579-.712 0-.373.158-.73.579-.73.232 0 .435.16.465.372h.453zM20.77 27.884c0 .615.388 1.106 1.047 1.106.66 0 1.047-.491 1.047-1.106 0-.632-.388-1.124-1.047-1.124-.659 0-1.046.492-1.046 1.124zm.469 0c0-.373.158-.73.578-.73.42 0 .578.357.578.73 0 .355-.157.713-.578.713-.42 0-.578-.358-.578-.713zM25.491 28.94V26.81h-.659l-.47 1.463h-.007l-.497-1.463h-.659v2.128h.438v-1.493h.006l.521 1.493h.361l.522-1.508h.006v1.508zM26.01 28.939h.468v-.763h.492c.53 0 .736-.337.736-.683 0-.346-.205-.683-.736-.683h-.96zm.468-1.764h.364c.217 0 .411.047.411.319 0 .271-.194.318-.411.318h-.364zM27.563 28.94h.474l.167-.475H29l.161.474h.486l-.797-2.128h-.48Zm1.04-1.604h.006l.268.78h-.551l.277-.78zM31.262 28.239l-.888-1.428h-.465v2.128h.438v-1.424h.007l.885 1.424h.468v-2.128h-.438v1.428zM32.744 28.94h.468v-.817l.79-1.312h-.522l-.495.84-.498-.84h-.527l.784 1.3z" fill="#fff" style="stroke-width:1.4"/></svg>