<svg width="40" height="40" fill="none" xmlns="http://www.w3.org/2000/svg"><g clip-path="url(#a)" transform="matrix(1.4 0 0 1.4 -8 -8)" fill-rule="evenodd" clip-rule="evenodd"><path d="M11 11h17.998v17.998H11Z" fill="#fff"/><path d="M11.001 11h11.292c.91 0 1.819-.001 2.726.003-.252.255-.509.508-.762.763.1.106.206.204.306.308.23-.159.492-.285.775-.306.255-.027.512.04.746.142.09.037.172.098.273.107.098-.005.172-.092.206-.18.028-.06.001-.131-.046-.175-.219-.22-.44-.438-.657-.66 1.047-.005 2.094 0 3.139-.001 0 1.02.002 2.043 0 3.065-.216-.212-.426-.427-.64-.639-.056-.058-.148-.089-.226-.053a.243.243 0 0 0-.123.12c-.028.11.021.217.064.315.133.28.191.595.152.903-.027.21-.102.416-.216.596a1.98 1.98 0 0 0-.085.134c.11.094.202.208.314.3.25-.256.506-.508.76-.763v5.12c-.05.017-.104.05-.155.026-.068-.043-.12-.108-.176-.162-.613-.609-1.22-1.223-1.833-1.83-.244.244-.484.49-.732.728.13.147.276.278.412.42l1.476 1.473c.042.044.091.082.114.139.007.062-.036.115-.053.171-.025.067.028.146.098.148.062.011.115-.03.155-.072.23-.232.463-.463.694-.694v8.552h-8.554l.658-.656c-.746-.744-1.492-1.49-2.236-2.235-.244.234-.478.478-.72.714-.051.053-.108.104-.132.176-.012.07.052.136.12.14.061-.008.112-.048.172-.06.053-.005.095.037.133.071.442.446.886.888 1.33 1.332.112.117.233.223.337.344.047.053.015.121-.012.174H14.98l1.207-1.207c.076-.072.153-.155.164-.265.018-.127-.11-.253-.238-.227-.105.02-.192.104-.302.104-.07-.006-.123-.057-.17-.102-.962-.96-1.922-1.922-2.882-2.882-.064-.064-.142-.127-.164-.22-.004-.109.073-.198.102-.298.036-.126-.084-.265-.212-.255a.36.36 0 0 0-.229.12l-1.255 1.258c-.002-4.674 0-9.35 0-14.023" fill="#f96302"/><path d="M23.987 12.038c.017-.019.047-.036.064-.007 1.317 1.315 2.634 2.632 3.95 3.95-.463.461-.924.924-1.386 1.387a.366.366 0 0 1-.217.11c-.115.009-.23-.095-.221-.212.004-.116.102-.204.104-.322.004-.073-.053-.128-.1-.18-.977-.974-1.952-1.951-2.93-2.929-.054-.052-.115-.119-.198-.113-.123.002-.215.115-.34.102-.072.002-.13-.055-.166-.113-.05-.102-.004-.225.07-.3l1.37-1.373m1.897.384c.038-.07.11-.134.195-.123.094.008.162.085.225.147.377.38.755.758 1.134 1.136.072.07.157.138.174.242.01.108-.09.204-.193.216-.087.001-.166-.046-.242-.087-.16-.095-.342-.17-.533-.161a.676.676 0 0 0-.282.077c-.104-.111-.223-.211-.32-.327.03-.085.07-.166.075-.257.013-.205-.07-.402-.174-.574-.053-.085-.095-.19-.059-.29zm-8.328 1.001c.204-.215.42-.417.623-.63.195.188.384.38.575.57.062.06.005.162-.065.187-.058.008-.11-.032-.162-.051a.735.735 0 0 0-.661-.002c-.053.023-.097.068-.154.078-.056-.046-.104-.102-.156-.152m-.13.121c.279.269.547.547.821.817.43.427.856.858 1.287 1.285-.246.248-.492.495-.74.74-.052.057-.154.082-.203.012-.06-.064.006-.144.025-.21.022-.049-.017-.092-.05-.126-.494-.493-.988-.987-1.481-1.482-.046-.042-.083-.093-.138-.12-.076-.018-.134.05-.208.054-.057-.006-.11-.062-.102-.121a.194.194 0 0 1 .062-.117c.242-.244.488-.484.728-.732m.986.303a.112.112 0 0 1 .085-.148c.05-.007.09.03.123.063.204.204.408.41.614.612.036.04.087.075.091.134.008.059-.049.115-.11.11-.079 0-.14-.063-.211-.09a.38.38 0 0 0-.338.005c-.055-.055-.11-.112-.167-.163a.502.502 0 0 0 .027-.259c-.015-.098-.084-.174-.114-.264m3.62.147a.329.329 0 0 1 .187-.098c.126-.019.258.104.234.232-.017.114-.112.204-.104.324.019.083.087.14.142.198.965.964 1.931 1.926 2.893 2.891.053.048.106.11.182.11.113 0 .2-.085.308-.104.124-.02.247.102.232.227a.364.364 0 0 1-.117.217c-.486.484-.97.972-1.455 1.455-.063.063-.142.12-.235.12a.215.215 0 0 1-.213-.182c-.014-.132.11-.23.105-.363-.005-.062-.049-.113-.09-.159-.849-.846-1.695-1.695-2.544-2.541.701 1.302 1.408 2.6 2.11 3.902l.03.063c-.052.047-.1.098-.15.149-1.404-.692-2.806-1.391-4.209-2.085-.22-.11-.44-.238-.69-.268-.083-.011-.14.057-.2.1-.062.05-.146.08-.223.055-.093-.042-.157-.151-.128-.251a.415.415 0 0 1 .115-.174c.453-.452.905-.905 1.359-1.355.706.346 1.415.684 2.124 1.03.023.017.047.034.068.056l.032-.04-.026.004c-.373-.708-.764-1.408-1.136-2.116.468-.465.932-.932 1.398-1.397m-2.481.32c.034-.063.13-.07.176-.018.19.193.385.386.578.579-.215.217-.432.433-.65.648-.05-.057-.115-.102-.153-.168.062-.106.128-.214.145-.338a.855.855 0 0 0-.07-.513c-.02-.06-.066-.13-.026-.19m-3.173.283c.038-.04.08-.081.134-.094.055-.012.123.022.13.083.014.066-.035.12-.049.185-.007.05.034.087.065.12.504.505 1.007 1.01 1.511 1.513.035.032.07.072.12.083.06-.006.111-.045.17-.059.071-.007.138.07.115.138-.01.051-.05.09-.083.125l-.737.735c-.044.044-.1.09-.165.074a.143.143 0 0 1-.08-.08c-.018-.083.07-.15.05-.234-.019-.032-.045-.056-.07-.083-.23-.229-.46-.461-.692-.69a15.39 15.39 0 0 1-.245.246c-.057-.055-.114-.11-.167-.168l.248-.246c-.204-.2-.406-.404-.609-.607-.043-.041-.08-.086-.132-.117-.092-.03-.181.1-.27.029-.072-.051-.05-.154.01-.206.247-.252.498-.497.746-.747m-.968.981c.057-.036.142-.013.169.051.026.078-.044.144-.046.22-.002.039.03.067.055.094.523.523 1.045 1.047 1.569 1.568.094.102.215-.073.317.002.066.053.044.157-.013.206-.246.248-.493.492-.737.74-.04.037-.08.082-.134.1-.06.016-.135-.021-.142-.086-.011-.075.057-.134.053-.208a.217.217 0 0 0-.053-.083c-.496-.493-.99-.988-1.484-1.483-.047-.044-.087-.099-.149-.121-.068-.004-.125.047-.19.055-.057.002-.107-.05-.109-.104-.005-.059.036-.106.076-.146l.735-.737c.027-.024.051-.05.083-.068m-1.366 1.351c.113-.11.223-.223.336-.334.199.193.394.393.592.588.034.037.076.071.094.12.023.093-.083.195-.175.154-.093-.042-.166-.116-.255-.165a.786.786 0 0 0-.501-.13c-.051-.053-.108-.102-.153-.159.015-.03.04-.051.062-.074m-.824.824c.212-.208.42-.417.63-.627.397.399.795.797 1.194 1.194.22.217.433.439.654.652.062.07.145.012.213-.013.068-.03.148.03.146.102 0 .049-.029.09-.06.125-.258.255-.51.51-.766.765-.036.036-.081.072-.134.068-.059.006-.116-.05-.11-.108.004-.06.051-.11.051-.17.004-.05-.04-.083-.07-.117-.603-.599-1.2-1.204-1.805-1.8.02-.025.036-.048.057-.07m14.184-.186c.234.23.467.463.697.697.074.07.02.21-.077.225-.091.014-.161-.058-.23-.105-.188-.13-.41-.25-.643-.21a1.445 1.445 0 0 1-.174-.182c.145-.14.285-.283.427-.425m-14.377.384c.07.026.114.106.17.155-.03.219.074.425.197.597.036.055.08.106.102.168.025.083-.057.17-.14.16-.047 0-.08-.039-.11-.067l-.62-.62c.137-.129.263-.267.401-.393m4.205 1.066a2.322 2.322 0 0 1 1.172-.055c.658.14 1.24.525 1.705 1.003.455.461.818 1.04.94 1.684.069.354.054.724-.048 1.07a2.59 2.59 0 0 1-.51.93c-.1-.104-.207-.2-.301-.306 0-.052.032-.095.041-.144a.473.473 0 0 0-.126-.474L17.3 19.919a.508.508 0 0 0-.316-.166c-.1-.013-.198.023-.293.056-.037.021-.062-.026-.086-.045-.076-.081-.16-.155-.235-.238l-.002-.023a2.52 2.52 0 0 1 .864-.485m2.548-.104c.087.028.166.071.247.113.305.147.607.3.913.45a.34.34 0 0 1 .074.055c.257.26.516.517.775.776.14.15.314.265.506.337a.615.615 0 0 0 .42.004c.068-.023.142-.05.213-.027.073.03.124.1.13.178-.005.104-.071.19-.141.263-.231.234-.464.466-.7.697-.062.057-.133.115-.22.125-.125.019-.248-.114-.21-.235.036-.123.085-.247.064-.376-.03-.215-.153-.406-.29-.57-.511-.515-1.025-1.027-1.54-1.543-.079-.083-.166-.159-.241-.247m5.764.514.427-.427c.062.05.117.111.176.168a.828.828 0 0 0 .138.535c.05.09.125.168.17.262.025.046.007.097-.01.142.239.161.447.363.615.597.19.27.325.592.317.928.002.32-.136.626-.338.868-.055-.057-.12-.108-.166-.172.01-.07.043-.138.026-.208-.019-.09-.089-.155-.151-.217-.499-.497-.996-.994-1.493-1.492-.05-.049-.108-.094-.178-.1a.443.443 0 0 0-.193.032c-.058-.054-.117-.113-.173-.17.25-.215.578-.353.912-.336.129-.004.254.026.378.055-.15-.157-.312-.305-.457-.465m-9.89 1.11a2.68 2.68 0 0 1 .463-.79c.097.097.199.192.293.292.019.06-.03.117-.04.178-.049.162.016.34.135.457.918.92 1.838 1.839 2.759 2.76.089.096.196.186.332.207.121.02.24-.022.352-.064l.306.304a2.583 2.583 0 0 1-.758.456c-.416.16-.88.187-1.317.09-.663-.145-1.247-.544-1.714-1.03-.431-.451-.779-1.005-.902-1.623a2.265 2.265 0 0 1 .091-1.238m8.59.546c.022-.287.15-.56.338-.776l.17.17c-.02.068-.053.14-.034.211a.314.314 0 0 0 .1.161c.5.497.994.996 1.493 1.493.059.057.116.125.199.147.075.021.153-.005.227-.028.056.057.115.113.17.174-.238.196-.535.334-.849.334-.304.014-.603-.094-.856-.253a2.196 2.196 0 0 1-.491-.423.932.932 0 0 1-.053.676c-.102.204-.261.37-.418.531l-.174-.172c.05-.079.081-.173.051-.266-.036-.095-.113-.163-.181-.234-.14-.143-.282-.284-.424-.426-.083-.077-.172-.166-.29-.173-.07-.008-.133.028-.192.062l-.173-.172c.226-.229.485-.465.818-.507.272-.045.546.072.739.26a1.464 1.464 0 0 1-.17-.789m-9.962.66a.345.345 0 0 1 .21-.102c.13-.008.25.128.213.255-.028.096-.098.181-.102.285.008.091.084.155.144.216l2.91 2.91c.046.044.097.087.161.093.11 0 .195-.081.299-.106.124-.025.25.089.243.214a.354.354 0 0 1-.11.223l-1.464 1.464c-.064.063-.143.117-.236.117a.211.211 0 0 1-.21-.219c.012-.113.106-.204.108-.321-.004-.07-.059-.123-.102-.172-.435-.437-.871-.87-1.304-1.304-.017-.013-.04-.051-.064-.025-.152.146-.297.299-.448.444l-.307-.308c.147-.153.297-.303.45-.45l.002-.032c-.41-.402-.813-.81-1.22-1.217-.063-.058-.122-.132-.209-.153-.119-.007-.211.085-.323.106-.143.025-.274-.138-.225-.272.025-.094.1-.162.167-.227.472-.474.946-.945 1.417-1.42m8.438.511c.227.212.44.439.664.656l1.273 1.276c.03.024.059.058.099.066.081.007.145-.072.226-.057.05.017.095.064.09.12 0 .073-.063.124-.109.173l-.795.792c-.059.064-.168.032-.204-.04-.053-.089.09-.183.015-.264a635.802 635.802 0 0 1-1.642-1.643c-.04-.036-.074-.081-.121-.106-.082-.022-.146.046-.221.055-.059-.005-.116-.056-.112-.117-.006-.066.043-.117.085-.16l.752-.75m-1.685 1.683c.225-.221.444-.45.673-.667l.608.61c.068.066-.004.167-.074.197-.049.006-.094-.025-.138-.043a.826.826 0 0 0-.565-.078c-.12.025-.226.093-.332.155-.057-.059-.114-.117-.172-.174m-.919.92c.261-.264.525-.523.786-.786.424.418.841.843 1.267 1.26.325.324.646.651.973.972-.253.261-.514.514-.768.773a.381.381 0 0 1-.134.083c-.047-.016-.106-.033-.12-.086-.029-.09.064-.16.052-.246-.038-.074-.104-.127-.16-.185l-1.378-1.378c-.081-.076-.15-.166-.246-.223-.096-.02-.183.104-.276.038-.079-.051-.056-.165.004-.222m1.833-.468c-.03-.078.042-.168.123-.155.038.01.066.034.093.06.198.2.399.397.595.598.064.066.148.122.174.217-.024.041-.05.098-.108.104-.092.01-.16-.064-.243-.095a.406.406 0 0 0-.365.002l-.18-.18a.394.394 0 0 0 .03-.285c-.022-.096-.086-.175-.118-.266m1.215.493c.04-.06.136-.07.183-.013.204.206.412.41.614.618-.232.227-.455.465-.694.686-.054-.059-.113-.115-.17-.174.203-.25.231-.61.095-.898-.025-.068-.078-.15-.028-.219" fill="#fff"/><path d="M11.001 25.634c.076-.03.148-.078.231-.076.1.02.163.108.232.174.951.947 1.898 1.896 2.847 2.843.052.058.12.117.13.2-.004.081-.047.153-.081.225-1.121-.002-2.24-.002-3.359-.002 0-1.12-.002-2.243 0-3.364" fill="#f96302"/><path d="M19.799 25.583c.336-.028.67.093.949.276.217.146.419.314.574.523.185.248.299.55.3.862.006.356-.134.715-.387.966a7.152 7.152 0 0 1-.172-.172c.034-.064.074-.132.062-.208-.018-.113-.096-.206-.174-.283l-1.275-1.276c-.087-.085-.185-.178-.314-.187-.07-.008-.132.028-.19.062-.056-.06-.131-.106-.165-.181.208-.214.491-.363.792-.382z" fill="#fff"/></g><defs><clipPath id="a"><path fill="#fff" d="M0 0h40v40H0z"/></clipPath></defs></svg>