<svg width="40" height="40" fill="none" xmlns="http://www.w3.org/2000/svg"><mask id="a" mask-type="alpha" maskUnits="userSpaceOnUse" x="10" y="18" width="20" height="4"><path fill="#fff" d="M10 18.229h20v3.543H10z"/></mask><g mask="url(#a)" transform="matrix(1.4 0 0 1.4 -8 -8)" fill-rule="evenodd" clip-rule="evenodd" fill="#de1e34"><path d="M28.123 20.933h.76v-2.704h-.76ZM30 18.229v2.704h-.76v-2.704zM11.62 19.279h-.614v-1.05H10v2.704h1.006v-1.341h.614v1.34h1.006V18.23H11.62ZM16.341 19.234l-.061-.179h-.827v1.878h.827v-1.129c0-.246.156-.38.29-.38.112 0 .257.023.257.268v1.24h.827v-1.217c0-.682-.765-.95-1.313-.48zM24.832 20.145l-.385-1.09h-.564l-.386 1.135-.402-1.135h-1.106l-.397.956-.559-.955h-.944l1.112 1.899-.145.357c-.05.112-.17.118-.194.012a.348.348 0 0 0-.696 0c.002.2.203.463.6.447.396-.017.564-.347.62-.486l.918-2.222.663 1.87h.603l.369-1.079.38 1.079h.57l.642-1.878h-.33zM14.05 18.96c-.632 0-1.145.47-1.145 1.05 0 .581.513 1.052 1.145 1.052.633 0 1.146-.47 1.146-1.051 0-.58-.513-1.051-1.146-1.051zm.285 1.542a.285.285 0 0 1-.57 0v-.983a.285.285 0 0 1 .57 0z"/><path d="M20.181 20.162c.006-.044.01-.106.01-.151 0-.58-.514-1.051-1.146-1.051-.633 0-1.146.47-1.146 1.05 0 .581.513 1.052 1.146 1.052.434 0 .812-.223 1.007-.55l-.253-.094a.896.896 0 0 1-.754.39c-.158 0-.285-.148-.285-.306v-.34zm-1.421-.643a.285.285 0 0 1 .57 0v.375h-.57zM27.835 20.162c.006-.044.009-.106.009-.151 0-.58-.513-1.051-1.146-1.051-.632 0-1.145.47-1.145 1.05 0 .581.513 1.052 1.145 1.052.435 0 .813-.223 1.007-.55l-.253-.094a.896.896 0 0 1-.754.39c-.157 0-.285-.148-.285-.306v-.34zm-1.422-.643a.285.285 0 0 1 .57 0v.375h-.57z"/></g></svg>