<svg width="40" height="40" fill="none" xmlns="http://www.w3.org/2000/svg"><path fill-rule="evenodd" clip-rule="evenodd" d="M34 15.152h-4.66l.286-.804H34zM21.575 14.348h4.328l.283.805c.002 0-4.609.002-4.609 0l-.002-.805zM18.138 14.348c.714.069 1.333.323 1.861.805h-7.843v-.806z" fill="#4c83c3" style="stroke-width:1.4"/><path fill="#4c83c3" style="stroke-width:1.4" d="M6 14.348h5.449v.803H6z"/><path fill-rule="evenodd" clip-rule="evenodd" d="M34 16.66h-5.195s.284-.8.282-.8H34zM26.721 16.66h-5.146v-.8h4.864zM20.61 15.86c.104.264.226.49.226.8h-8.679v-.8Z" fill="#4c83c3" style="stroke-width:1.4"/><path fill="#4c83c3" style="stroke-width:1.4" d="M6 15.859h5.449v.8H6z"/><path fill-rule="evenodd" clip-rule="evenodd" d="m28.274 18.171.285-.803h3.9v.801zM26.972 17.367l.284.804h-4.147v-.804ZM20.905 17.367c0 .276-.034.563-.115.804h-2.376v-.804Z" fill="#4c83c3" style="stroke-width:1.4"/><path fill="#4c83c3" style="stroke-width:1.4" d="M7.519 17.371h2.342v.8H7.519zM13.734 17.367h2.338v.803h-2.338z"/><path fill-rule="evenodd" clip-rule="evenodd" d="M25.412 19.039v.609H23.11v-.8h4.39l.272.746.263-.746h4.424v.8h-2.292l-.002-.61-.212.61-4.328-.001zM13.734 18.849h6.712a3.013 3.013 0 0 1-.666.8h-6.047v-.8z" fill="#4c83c3" style="stroke-width:1.4"/><path fill="#4c83c3" style="stroke-width:1.4" d="M7.519 18.848h2.342v.8H7.519zM30.166 20.356h2.292v.8h-2.292z"/><path fill-rule="evenodd" clip-rule="evenodd" d="M25.412 20.356H23.11v.8h2.304s.003-.8 0-.8zM29.703 20.356c-.01 0-.268.8-.28.8l-3.264.001c-.003-.001-.287-.802-.287-.8zM13.734 20.356h6.035c.275.23.524.513.72.8h-6.755v-.8zM9.861 21.156v-.8H7.523v.8h2.338z" fill="#4c83c3" style="stroke-width:1.4"/><path fill="#4c83c3" style="stroke-width:1.4" d="M30.166 21.864h2.292v.8h-2.292zM23.109 21.864h2.303v.8h-2.303z"/><path fill-rule="evenodd" clip-rule="evenodd" d="M28.888 22.667c0-.003.282-.804.286-.803H26.4c-.005 0 .285.8.285.8s2.203.007 2.204.003zM13.734 22.664v-.8h2.372s.003.8 0 .8h-2.372zM20.821 21.864c.115.24.126.528.15.803h-2.515v-.803z" fill="#4c83c3" style="stroke-width:1.4"/><path fill="#4c83c3" style="stroke-width:1.4" d="M7.523 21.864h2.338v.8H7.523zM30.166 23.341H34v.8h-3.834zM21.575 23.341h3.838v.8h-3.838z"/><path fill-rule="evenodd" clip-rule="evenodd" d="M28.372 24.14h-1.17l-.282-.8h1.723zM6 23.34v.8h5.446c.002.002-.003-.799 0-.799H6zM20.87 23.34c-.057.265-.11.586-.302.8h-8.411v-.8zM27.841 25.65h-.107l-.274-.801h.662z" fill="#4c83c3" style="stroke-width:1.4"/><path fill="#4c83c3" style="stroke-width:1.4" d="M30.166 24.849H34v.803h-3.834z"/><path fill-rule="evenodd" clip-rule="evenodd" d="M12.156 25.65v-.8l7.89.001c-.529.505-1.253.79-2.034.801h-5.855" fill="#4c83c3" style="stroke-width:1.4"/><path fill="#4c83c3" style="stroke-width:1.4" d="M21.575 24.849h3.838v.803h-3.838z"/><path fill-rule="evenodd" clip-rule="evenodd" d="M11.446 24.852s-.003.798 0 .798c.002 0-5.444.003-5.446.002-.001-.002.002-.802 0-.802-.001 0 5.443.005 5.446.002z" fill="#4c83c3" style="stroke-width:1.4"/></svg>