<svg width="40" height="40" fill="none" xmlns="http://www.w3.org/2000/svg"><g clip-path="url(#a)" transform="matrix(1.4 0 0 1.4 -8 -8)"><mask id="b" mask-type="alpha" maskUnits="userSpaceOnUse" x="10" y="16" width="20" height="8"><path fill="#fff" d="M10 16.598h20v6.805H10z"/></mask><g mask="url(#b)" fill-rule="evenodd" clip-rule="evenodd" fill="#bf2519"><path d="m10.338 23.402 2.184-6.804h-.338L10 23.402ZM10.893 23.402l2.184-6.804h-.339l-2.183 6.804zM11.448 23.402l2.184-6.804h-.339l-2.184 6.804zM12.002 23.402l2.183-6.804h-.338l-2.184 6.804zM16.522 23.402l1.756-5.471h-.001 1.775l.43-1.333-5.96.002-.428 1.334h2.152l-1.756 5.468zM27.986 16.599l-1.397 2.859-.096.197s-.23.513-.288.684c-.056.17-.119.324-.119.324s.046-.284.068-.495c.023-.21.04-.426.051-.597l.006-.16.11-2.811-2.071-.002-1.43 2.64s-.074.126-.108.198c0 0-.094.18-.162.32s-.12.243-.205.452c-.06.148-.149.414-.149.414s.07-.311.103-.482c.034-.183.05-.329.05-.329.009-.102.026-.238.026-.238l.28-2.974h-2.057l-.269 6.803h1.987l1.949-3.595s.1-.189.132-.26c0 0 .081-.14.14-.29.06-.15.142-.345.142-.345s-.03.179-.043.324c-.01.102-.017.226-.017.226-.004.085-.01.286-.01.286l-.08 3.65 1.909.002L30 16.6zm-1.742 6.476-1.385.003.104-4.746-.003-.248c0-.175-.068-.128-.09-.094a59.111 59.111 0 0 1-.76 1.467c-.152.29-.616 1.157-.75 1.4-.26.473-.93 1.658-.93 1.658l-.122.226-.183.338h-1.46l.243-6.163H22.3l-.061.653-.02.22c-.012.139-.097 1.088-.125 1.43-.029.34-.08.887-.108 1.154-.029.267-.08.614-.108.836-.029.222-.034.323-.04.38-.006.057.062.079.102-.001.04-.08.245-.498.381-.749.137-.25.286-.53.286-.53l.118-.217 1.722-3.174 1.544.002-.178 4.526c0 .095-.017.146 0 .18.017.035.064.025.098-.043.023-.046.05-.09.05-.09l2.229-4.577 1.28.003z"/></g></g><defs><clipPath id="a"><path fill="#fff" d="M0 0h40v40H0z"/></clipPath></defs></svg>