<svg width="40" height="40" fill="none" xmlns="http://www.w3.org/2000/svg"><path fill-rule="evenodd" clip-rule="evenodd" d="M7.06 16.618h1.997V14.62H7.06Z" fill="#3abeef" style="stroke-width:1.4"/><path fill-rule="evenodd" clip-rule="evenodd" d="M23.91 20.752c0-.526.606-1.442 1.905-1.45 1.3 0 1.91.916 1.91 1.443zm5.634.66c0-.519-.092-1.002-.268-1.455a3.942 3.942 0 0 0-.76-1.187 3.462 3.462 0 0 0-1.174-.796 3.846 3.846 0 0 0-1.506-.285 3.739 3.739 0 0 0-2.65 1.088 3.697 3.697 0 0 0-.794 1.187c-.2.453-.293.943-.293 1.463 0 .518.093 1.008.277 1.463.185.455.448.852.776 1.187.326.333.73.603 1.2.795.469.199.987.298 1.541.298 1.606 0 2.6-.732 3.196-1.414l-1.363-1.037c-.284.342-.966.804-1.819.804-.533 0-.973-.12-1.306-.37a1.83 1.83 0 0 1-.683-1.001l-.021-.064h5.647zm-13.07-2.876c-.526-.569-1.266-.853-2.204-.853-.453 0-.866.092-1.241.276a2.65 2.65 0 0 0-.938.769l-.108.134v-1.03h-1.868v7.188h1.883v-3.829.264-.128c.021-.675.185-1.172.497-1.492a1.63 1.63 0 0 1 1.201-.511c.546 0 .966.17 1.242.497.27.326.413.788.413 1.377v3.816h1.91v-4.077c.008-1.024-.262-1.833-.787-2.401zm14.052 6.484h1.895V14.471h-1.895zm-8.959.072V23.33c-.277 0-.512-.014-.683-.042a.777.777 0 0 1-.447-.2c-.099-.1-.163-.241-.198-.426a4.467 4.467 0 0 1-.044-.696v-2.516h1.372v-1.62h-1.372v-2.805H18.3v6.954c0 .59.049 1.088.148 1.485.1.39.27.711.504.952.235.242.547.413.924.518.384.106.867.157 1.442.157zm-14.45-.072h1.89v-7.189h-1.89z" fill="#1671b8" style="stroke-width:1.4"/><mask id="a" mask-type="alpha" maskUnits="userSpaceOnUse" x="29" y="22" width="2" height="2"><path fill-rule="evenodd" clip-rule="evenodd" d="M29.704 22.56h.994v1h-.994v-1Z" fill="#fff"/></mask><g mask="url(#a)" transform="matrix(1.4 0 0 1.4 -8.34 -7.928)"><path fill-rule="evenodd" clip-rule="evenodd" d="M30.237 23.018h-.127v-.162h.126c.016 0 .03.005.046.01a.05.05 0 0 1 .03.025c.006.01.01.025.01.046 0 .02-.004.036-.01.045a.105.105 0 0 1-.03.026.146.146 0 0 1-.045.01zm.056.08a.157.157 0 0 0 .096-.044.149.149 0 0 0 .04-.112c0-.056-.014-.096-.05-.127-.03-.03-.086-.046-.152-.046h-.223v.574h.106v-.234h.076l.142.234h.112zm.284.123a.402.402 0 0 1-.086.132.426.426 0 0 1-.295.117.444.444 0 0 1-.162-.031.387.387 0 0 1-.218-.218.45.45 0 0 1 0-.325.383.383 0 0 1 .218-.218.449.449 0 0 1 .325 0 .4.4 0 0 1 .249.38.36.36 0 0 1-.031.163zm.08-.355a.475.475 0 0 0-.106-.158.514.514 0 0 0-.35-.147.502.502 0 0 0-.497.498c0 .07.015.132.04.192a.488.488 0 0 0 .264.265.49.49 0 0 0 .543-.107.509.509 0 0 0 .148-.35.514.514 0 0 0-.041-.193z" fill="#1671b8"/></g></svg>