<svg width="40" height="40" fill="none" xmlns="http://www.w3.org/2000/svg"><g clip-path="url(#a)" transform="matrix(1.4 0 0 1.4 -7.85 -8)"><g clip-path="url(#b)" fill="#e59d28"><path d="M18.366 22.899c0-2.19.008-4.379-.007-6.567-.003-.346.07-.454.443-.454h1.576c.429 0 .56.09.558.54-.02 4.076-.012 8.154-.012 12.23 0 .333-.014.667.005.999.015.268-.075.35-.35.351L18.813 30c-.349 0-.457-.072-.454-.438.018-2.221.009-4.442.009-6.663zM18 11.643c0-.98.668-1.647 1.646-1.643.944.003 1.604.674 1.605 1.636.002.97-.679 1.672-1.63 1.682-.943.01-1.621-.69-1.621-1.675Z"/></g></g><defs><clipPath id="a"><path fill="#fff" d="M0 0h40v40H0z"/></clipPath><clipPath id="b"><path fill="#fff" transform="translate(18 10)" d="M0 0h3.252v20H0z"/></clipPath></defs></svg>