<svg width="40" height="40" fill="none" xmlns="http://www.w3.org/2000/svg"><mask id="a" mask-type="alpha" maskUnits="userSpaceOnUse" x="10" y="17" width="20" height="6"><path fill="#fff" d="M10 17.021h20v5.959H10z"/></mask><g mask="url(#a)" transform="matrix(1.4 0 0 1.4 -8.024 -8.024)"><path fill-rule="evenodd" clip-rule="evenodd" d="M29.804 23.184a.465.465 0 0 1-.457-.468.463.463 0 0 1 .457-.448c.246 0 .447.197.458.448a.464.464 0 0 1-.458.468zm-.045-.97a.458.458 0 1 0 0 .915.458.458 0 0 0 0-.916zm-.224 1.088v-.915h.414c.237 0 .502.09.502.44 0 .389-.295.475-.55.475zm.81-.697c0-.195-.22-.268-.445-.268h-.422v.915h.214v-.382h.156l.282.383h.263l-.325-.4c.17-.029.277-.115.277-.247zm-2.452-4.282a.59.59 0 1 0 .023-1.181.59.59 0 0 0-.023 1.18zm-1.584.51v.866h1.095v3.045h.978V19.7h1.095v-.866zm-8.527-.51a.59.59 0 0 0 0-1.181.59.59 0 0 0 0 1.18zm-1.585 1.376h1.096v3.045h.977V19.7h1.096v-.866h-3.169v.866zm8.45 3.045h.977v-3.909h-.977v3.91zm-1.978-1.759c0 .521-.294 1.059-.912 1.059-.628 0-.733-.578-.733-1.043v-2.166h-.978v2.443c0 .799.424 1.58 1.442 1.58.578 0 1.042-.35 1.213-.741h.017v.627h.928v-3.909h-.977zm-8.411-2.264c-.578 0-1.043.35-1.214.741h-.016v-.627H12.1v3.91h.977v-2.15c0-.522.293-1.06.912-1.06.627 0 .733.578.733 1.043v2.166h.977V20.3c0-.797-.423-1.58-1.441-1.58zm-4.137 4.023h.977v-3.909h-.977z" fill="#0077c5"/></g></svg>