<svg width="40" height="40" fill="none" xmlns="http://www.w3.org/2000/svg"><path fill-rule="evenodd" clip-rule="evenodd" d="M19.998 16.24a.99.99 0 1 1-.99.988.996.996 0 0 1 .99-.989zm0 1.492a.51.51 0 0 0 0-1.017.51.51 0 0 0-.509.509.513.513 0 0 0 .509.508zm-.252 5.963v-4.493h.508v4.493zM6 23.695v-4.493h.509v4.493zm4.307-4.493h.457v4.493h-.574L8.636 19.94v3.756H8.18v-4.493h.607l1.52 3.64zm15.35 4.493v-4.493h.509v4.493h-.509zm8.338-4.036H32.39v1.437h1.484v.458H32.39v1.689h1.605v.457h-2.09v-4.493H34c-.005-.005-.005.452-.005.452zm-4.031-.457h.523l-1.167 4.493h-.592l-1.097-4.493h.523l.872 3.938zm-8.291 0h2.5v.457h-.998v4.036h-.508V19.66h-.999c.005 0 .005-.457.005-.457zm-9.743 0h2.501v.457h-.994v4.036h-.508V19.66h-.999Zm5.74 0h.49v3.327c-.02.676-.551 1.232-1.232 1.232-.682 0-1.218-.556-1.232-1.232v-3.327h.508v3.331a.74.74 0 0 0 .733.733.74.74 0 0 0 .732-.733z" fill="#fff" style="stroke-width:1.4"/></svg>