<svg width="40" height="40" fill="none" xmlns="http://www.w3.org/2000/svg"><g clip-path="url(#a)" transform="matrix(1.4 0 0 1.4 -8 -7.985)"><mask id="b" mask-type="alpha" maskUnits="userSpaceOnUse" x="10" y="10" width="20" height="20"><path fill="#fff" d="M10.039 10h19.923v20H10.039z"/></mask><g mask="url(#b)" fill-rule="evenodd" clip-rule="evenodd" fill="#fff"><path d="M18.9 10.072c3.001-.381 6.116.77 8.223 2.922.669.68 1.266 1.443 1.669 2.31a10.736 10.736 0 0 1 1.148 5.505 9.936 9.936 0 0 1-1.006 3.645c-.63 1.408-1.683 2.603-2.913 3.52-1.858 1.353-4.181 2.082-6.482 1.934-3.29-.1-6.42-2.011-8.12-4.811-1.024-1.637-1.463-3.598-1.368-5.517.032-1.42.46-2.803 1.068-4.078.905-1.815 2.371-3.356 4.17-4.302 1.122-.589 2.343-1.016 3.61-1.128zm-2.102 2.464c-1.056.411-1.962 1.13-2.741 1.943-1.472 1.534-2.243 3.68-2.208 5.794a8.118 8.118 0 0 0 1.174 3.916c.654 1.056 1.566 1.942 2.602 2.624.832.554 1.793.87 2.754 1.123.198.054.405.062.61.063.032-.201.05-.403.049-.606.022-2.833-.023-5.667-.008-8.5a.47.47 0 0 1 .076-.289c.36-.615.72-1.23 1.077-1.847.376-.656.711-1.34 1.139-1.965a.834.834 0 0 1 .224.259c1.594 2.95 3.362 5.801 5.035 8.706-.097.024-.195.041-.293.052-1.2.029-2.4-.067-3.6-.028-.395.005-.794.035-1.188-.028-.026-.587-.042-1.177.009-1.763.617-.06 1.245.047 1.856-.06-.122-.313-.304-.598-.48-.883-.522-.859-.973-1.76-1.518-2.605-.135-.19-.21-.426-.386-.584-.067.47-.007.944-.024 1.416.006 2.581.002 5.163.003 7.744.004.327-.024.657.025.981.21.002.423-.01.627-.062a8.389 8.389 0 0 0 4.13-2.162c.591-.568 1.063-1.249 1.46-1.962.84-1.522 1.102-3.33.825-5.037A8.374 8.374 0 0 0 25 13.583c-1.45-1.15-3.311-1.728-5.153-1.708-1.051-.005-2.078.284-3.05.66z"/><path d="M18.61 14.812c.362-.83.906-1.565 1.324-2.366.081.04.174.073.216.161.152.258.282.529.442.783.16.27.358.524.448.83-.023.104-.073.2-.122.295-.46.834-.966 1.64-1.427 2.474-1.06 1.871-2.123 3.743-3.243 5.58-.249.388-.423.82-.7 1.19-.694.006-1.39.039-2.083-.018.26-.594.631-1.134.953-1.697.6-.97 1.128-1.983 1.72-2.96.858-1.403 1.645-2.85 2.471-4.272z"/></g></g><defs><clipPath id="a"><path fill="#fff" d="M0 0h40v40H0z"/></clipPath></defs></svg>