<svg width="40" height="40" fill="none" xmlns="http://www.w3.org/2000/svg"><mask id="a" mask-type="alpha" maskUnits="userSpaceOnUse" x="10" y="17" width="20" height="6"><path fill="#fff" d="M10 17.786h20v4.429H10z"/></mask><g mask="url(#a)" transform="matrix(1.4 0 0 1.4 -7.819 -8.116)" fill-rule="evenodd" clip-rule="evenodd" fill="#fff"><path d="M11.986 18.372H10.87v.092h.358v1.843c0 .55-.158.707-.5.707a.233.233 0 0 1-.258-.207v-.043c0-.2-.014-.321-.192-.321-.179 0-.208.186-.208.243 0 .257.115.45.622.45.607 0 .928-.2.928-.879v-1.793h.372zM12.129 20.7a.222.222 0 0 0-.158.064.222.222 0 0 0-.064.157c0 .058.022.115.064.15.043.043.1.065.158.065a.222.222 0 0 0 .157-.065.206.206 0 0 0 .064-.15.21.21 0 0 0-.214-.214h-.007M14.607 20.7a.225.225 0 0 0-.221.207v.007c0 .057.028.115.071.15a.221.221 0 0 0 .314 0 .194.194 0 0 0 .065-.15.221.221 0 0 0-.215-.221M13.836 18.372h-1.1v.092h.321v2.1a.636.636 0 0 1-.028.258.226.226 0 0 1-.136.12.664.664 0 0 1-.207.037v.085h1.164v-.085a.75.75 0 0 1-.221-.029.21.21 0 0 1-.136-.121.362.362 0 0 1-.029-.172v-.728h.293c.843 0 1.079-.336 1.079-.786s-.15-.771-1-.771zm-.157 1.45h-.222v-1.343h.2c.65 0 .807.264.807.693 0 .428-.257.664-.771.664M18.314 20.814c-.021-.057-.028-.121-.021-.185v-2.165h.293v-.085h-.693l-.843 2.05c0 .007-.007.014-.014.014-.008 0-.015-.007-.022-.014 0 0-.871-2.029-.878-2.05h-.772v.085h.336v2.279c0 .05-.021.093-.043.136a.213.213 0 0 1-.121.085c-.05.015-.107.015-.157.015v.085h.764v-.085a.416.416 0 0 1-.136-.022.248.248 0 0 1-.136-.086.313.313 0 0 1-.05-.135l-.007-.193v-1.8h.043s.993 2.293.993 2.321h.093l.936-2.3h.021v1.85a.886.886 0 0 1-.021.193.213.213 0 0 1-.115.122.613.613 0 0 1-.193.035v.086h1.065v-.086a.657.657 0 0 1-.2-.035.25.25 0 0 1-.122-.136M19.75 19.093c-.571 0-.929.371-.929 1.029 0 .964.75 1.02.915 1.02.321 0 .928-.2.928-1.042-.007-.657-.393-1.007-.914-1.007zm-.007 1.929c-.429 0-.493-.215-.493-.893 0-.529.036-.929.493-.929.493 0 .5.414.5.886 0 .693-.122.936-.5.936zM22.15 19.122c-.343 0-.443.2-.543.407h-.029s-.05-.293-.064-.386h-.664v.1h.357v1.336a.587.587 0 0 1-.043.271c-.036.064-.121.1-.25.1h-.057v.122h1.1v-.122h-.05c-.143 0-.207-.029-.243-.093a.533.533 0 0 1-.043-.278v-.693c0-.229.179-.5.386-.5.214 0 .214.335.464.2.129-.079.1-.465-.321-.465zM26.543 20.864c-.122 0-.157-.064-.164-.171v-1.057a.52.52 0 0 0-.136-.4c-.1-.1-.3-.157-.586-.157a1.015 1.015 0 0 0-.607.15.363.363 0 0 0-.171.307c-.008.05.014.1.05.135a.194.194 0 0 0 .121.043c.107 0 .171-.057.193-.2 0-.085.036-.164.086-.228a.332.332 0 0 1 .264-.086.33.33 0 0 1 .293.114.485.485 0 0 1 .078.279v.336c-.35.028-1.185.1-1.15.728a.513.513 0 0 0 .522.457.845.845 0 0 0 .643-.321c.035.179.192.3.371.293.257 0 .414-.129.429-.436h-.065c-.014.143-.1.214-.171.214zm-.579-.207v.022a.705.705 0 0 1-.443.228.303.303 0 0 1-.314-.293v-.043c0-.357.493-.535.764-.535zM28.8 20.85a.566.566 0 0 1-.071-.286v-.871a.62.62 0 0 0-.065-.322.5.5 0 0 0-.193-.192.698.698 0 0 0-.292-.065.684.684 0 0 0-.629.372h-.043l-.071-.35h-.593v.1h.3v1.328c0 .079-.007.15-.022.229a.164.164 0 0 1-.114.121.42.42 0 0 1-.164.029v.121h.95v-.121a.248.248 0 0 1-.193-.079.452.452 0 0 1-.05-.271v-.507a1.208 1.208 0 0 1 .071-.55.429.429 0 0 1 .386-.215.265.265 0 0 1 .264.136c.05.143.072.3.065.45v.629c.007.078.007.157 0 .235a.177.177 0 0 1-.086.136.3.3 0 0 1-.15.043v.121h.921v-.121c-.114-.014-.185-.043-.221-.1ZM24.493 19.014a.19.19 0 0 0-.114.15c-.015.079-.043.122-.086.136a.22.22 0 0 1-.136-.007.866.866 0 0 0-.621-.207.719.719 0 0 0-.772.657v.086c0 .414.157.6.5.678.022 0 .022.029 0 .029-.293.05-.55.135-.55.421 0 .136.086.257.214.3.186.064.38.093.572.086.15 0 .307.007.457.021a.552.552 0 0 1 .25.086c.064.057.1.136.093.221a.336.336 0 0 1-.207.308 1.104 1.104 0 0 1-.522.107.804.804 0 0 1-.478-.107.256.256 0 0 1-.1-.272.157.157 0 0 0-.1-.2h-.022a.18.18 0 0 0-.164.072.302.302 0 0 0-.043.178.389.389 0 0 0 .322.372c.171.057.35.078.528.078.207.007.414-.028.607-.114a.63.63 0 0 0 .386-.572.556.556 0 0 0-.093-.335c-.193-.265-.464-.229-1.078-.257-.293 0-.35-.05-.35-.136 0-.136.107-.186.528-.25.422-.064.814-.222.814-.729a.818.818 0 0 0-.078-.364.465.465 0 0 0 .243 0 .296.296 0 0 0 .171-.136c.036-.05.05-.121.036-.178-.036-.107-.107-.15-.207-.122zm-.95 1.407c-.25 0-.4-.092-.4-.6 0-.357.121-.621.4-.621.314 0 .4.243.4.614-.007.529-.172.607-.4.607z"/></g></svg>