<svg width="40" height="40" fill="none" xmlns="http://www.w3.org/2000/svg"><mask id="a" mask-type="alpha" maskUnits="userSpaceOnUse" x="10" y="10" width="20" height="20"><path fill="#fff" d="M10 10.945h20v18.11H10z"/></mask><g mask="url(#a)" transform="matrix(1.4 0 0 1.4 -8 -8)"><path fill-rule="evenodd" clip-rule="evenodd" d="M13.683 21.433c-1.422 1.665-2.066 3.828-2.073 5.302-.003.854.299 1.179.685 1.184.776.013 1.626-1.338 1.647-3.771.008-.879-.11-1.798-.259-2.716m-.814-.099c.209-.262.431-.513.667-.75-.22-1.24-.45-2.453-.465-3.535a10.918 10.918 0 0 1 .676-3.893c.277-.761.487-1.256.556-1.453.017-.049.028-.107.01-.133-.014-.023-.042-.032-.095-.03-.347.018-.875.325-1.352.888-.765.902-1.472 2.457-1.472 4.349 0 2.017.505 3.277 1.475 4.557m10.816-4.558c0 2.037.514 3.3 1.502 4.593a11.922 11.922 0 0 1 .634-.82c-.218-1.227-.445-2.428-.46-3.5a10.913 10.913 0 0 1 .677-3.893c.275-.762.487-1.256.555-1.453.018-.049.028-.107.011-.133-.015-.023-.042-.032-.095-.03-.347.018-.875.326-1.352.888-.766.902-1.472 2.457-1.472 4.348m2.294 4.694c-1.305 1.76-2.108 3.706-2.078 5.266.017.853.299 1.178.685 1.185.776.012 1.626-1.339 1.646-3.772.008-.867-.105-1.773-.252-2.68m-3.264-.87c-.644.026-1.106.163-1.576.288-.032.45-.102.815-.2 1.096-.083.24-.202.392-.346.392-.187 0-.237-.168-.263-.544-.018-.255-.028-.52-.028-.761-.569.101-.912.134-1.48.11-1.207-.053-2.295-.531-2.287-1.429 0-.07.008-.141.024-.21a4.64 4.64 0 0 0-1.592.707c.06.867.092 1.55.092 2.253 0 2.806-1.378 6.657-3.088 6.552-.945-.057-1.302-1.127-1.196-2.388.14-1.662.703-3.307 1.638-4.707C10.957 20.508 10 19.137 10 16.775c-.001-3.495 3.218-5.829 4.684-5.83.197 0 .264.07.264.218.002.13-.026.326-.066.522-.081.4-.367 1.723-.359 3.19.01 1.664.27 3.23.39 4.623 1.186-.69 2.386-.841 3.417-.7.925.127 1.536.514 1.866.896-.105-.708-.361-1.056-.599-1.396-.074-.106-.068-.19.034-.262a4.18 4.18 0 0 1 .72-.35c.116-.036.234-.038.296.032.311.357.47 1.273.505 2.21.005.127.007.249.008.367.422-.091.89-.195 1.38-.22.167-.008.402-.002.628.02-.556-.913-.877-1.95-.877-3.32 0-3.494 3.22-5.829 4.685-5.83.197 0 .263.072.264.219.001.13-.027.326-.067.521-.082.4-.367 1.724-.358 3.191.009 1.526.228 2.969.357 4.272.776-.712 1.551-1.287 2.133-1.635.287-.173.557-.195.653-.013.095.183.041.328-.286.529a12.896 12.896 0 0 0-2.43 1.96c.07.994.11 1.74.11 2.51 0 2.807-1.379 6.658-3.088 6.553-.946-.057-1.282-1.125-1.197-2.388.107-1.584.713-3.15 1.685-4.659a12.331 12.331 0 0 1-1.186-1.326 3.377 3.377 0 0 0-.85-.081m-2.544-.154c-.453-.64-1.168-.942-1.734-.959-.307-.009-.515.105-.536.333-.038.448.592.675 1.374.692.326.008.585-.007.896-.066" fill="#d51900"/></g></svg>