<svg width="40" height="40" fill="none" xmlns="http://www.w3.org/2000/svg"><path d="M21.701 32.668c-.31.975-1.594 1.332-2.546 1.332-1.047 0-3.64-.88-3.64-3.688 0-3.45 1.808-5.9 2.117-7.947.167-1.142-.142-1.69-.642-1.95-.476.927-2.784 5.186-3.188 5.876-1.047 1.713-2.784 5.187-5.377 5.187-1.238 0-2.38-.809-2.38-2.332 0-2.331 2.76-3.783 6.139-7.423 2.332-2.499 3.83-4.711 3.83-5.473 0-.238-.095-.309-.214-.309-.38 0-1.38.857-1.784 1.261-1.095 1-3.331 5.044-5.591 5.044-1.166 0-1.713-1-1.713-1.784 0-1.785 1.38-3.165 7.137-6.115 3.236-1.666 5.901-3.521 6.258-3.76 1.69-1.165 3.426-.475 2.022 1.38-1.165 1.547-4.33 6.71-4.33 6.71.809-.119 1.642-.143 3.355-1.618 2.189-1.903 4.14-4.164 7.352-8.803 1.166-1.69 3.14-2.832 4.354-1.951 1.214.88 1.047 2.64.167 4.02-.88 1.38-7.71 7.71-12.349 9.566 1.213 1.237 1.07 3.426.738 4.758-.333 1.333-1.166 4.14-1.166 5.449 0 1.19.38 2.165 1.19 2.189v-.024c.261 0 .309.262.261.405z" fill="#d31245" style="stroke-width:1.4"/></svg>