<svg width="40" height="40" fill="none" xmlns="http://www.w3.org/2000/svg"><g clip-path="url(#a)" transform="matrix(1.4 0 0 1.4 -7.996 -7.997)"><mask id="b" mask-type="alpha" maskUnits="userSpaceOnUse" x="10" y="17" width="20" height="6"><path fill="#fff" d="M10 17.771h20v4.459H10z"/></mask><g mask="url(#b)"><path fill-rule="evenodd" clip-rule="evenodd" d="M15.952 21.826h2.995v.376h-2.998a.49.49 0 0 1-.488-.491v-3.938h.378v3.94c0 .062.051.113.113.113zm-1.758-4.053h-.48l-3.152 4.024a.096.096 0 0 1-.116.033.1.1 0 0 1-.068-.097v-3.96H10v3.96a.47.47 0 0 0 .324.453.471.471 0 0 0 .535-.157l1.505-1.922 1.632 2.095h.488l-1.88-2.4zm9.819 4.43h.417l-1.938-4.148a.489.489 0 0 0-.888 0l-1.938 4.148h.419l1.863-3.986a.107.107 0 0 1 .1-.062.104.104 0 0 1 .1.062z" fill="#fff"/><path fill="#00a7e1" d="M25.54 17.773h4.44v4.429h-4.44z"/><path fill-rule="evenodd" clip-rule="evenodd" d="M29.647 19.78H27.97v-1.674h-.418v1.674h-1.678v.416h1.678v1.675h.418v-1.675h1.678z" fill="#fff"/></g></g><defs><clipPath id="a"><path fill="#fff" d="M0 0h40v40H0z"/></clipPath></defs></svg>