<svg width="40" height="40" fill="none" xmlns="http://www.w3.org/2000/svg"><g clip-path="url(#a)" transform="matrix(1.4 0 0 1.4 -7.997 -7.997)"><mask id="b" mask-type="alpha" maskUnits="userSpaceOnUse" x="10" y="11" width="20" height="18"><path fill="#fff" d="M10 11.527h20v16.946H10z"/></mask><g mask="url(#b)" fill-rule="evenodd" clip-rule="evenodd"><path d="M10.002 20.387c-.098-2.953 2.658-8.76 9.942-8.859 6.595-.086 10.138 4.725 10.04 8.367-.098 3.641-3.051 8.661-10.138 8.563-7.087-.099-9.745-5.118-9.844-8.071z" fill="#2c318c"/><path d="M12.438 16.324s1.6 1.897 2.388 2.881c.787.984.295 1.575-.591 1.575h-2.756l-.006 2.753 4.435.003s1.674-.098 2.166-1.083V25.8h3.642v-3.248c.197.492 1.378.984 2.46.984 1.083 0 4.103.048 4.103.048l.032-2.804s-.591.099-2.756 0c-1.963-.086-.197-2.362 1.772-4.429l-3.82-.027s-1.102.913-1.791 2.488l-.099-5.217-3.594.037s.15 2.916.051 5.18c-.099-.69-1.28-2.067-1.969-2.461z" fill="#fff"/></g></g><defs><clipPath id="a"><path fill="#fff" d="M0 0h40v40H0z"/></clipPath></defs></svg>