<svg width="40" height="40" fill="none" xmlns="http://www.w3.org/2000/svg"><mask id="a" style="mask-type:alpha" maskUnits="userSpaceOnUse" x="10" y="18" width="20" height="4"><path fill="#fff" d="M10 18.302h20v3.395H10z"/></mask><g mask="url(#a)" transform="matrix(1.4 0 0 1.4 -8 -8)" fill-rule="evenodd" clip-rule="evenodd"><path d="M18.895 19.894v-.566h-.478v-.619h-.636v.619h-.265v.566h.265V20.778c0 .265.106.566.318.725.212.141.46.16.69.16a1.386 1.386 0 0 1-.354-.744v-.017c-.018-.053-.018-.142-.018-.23V19.894h.478zM17.392 18.886v-.566c-.089 0-.177-.018-.266-.018h-.035c-.23 0-.46.053-.637.213-.212.194-.265.53-.265.813h-.265v.566H16.207v1.697h.637V19.894h.442v-.566h-.442c0-.124 0-.283.088-.371.141-.106.3-.071.46-.071zM15.04 21.591H15.676v-1.45c-.017-.282-.123-.6-.389-.742-.389-.195-.83-.142-1.255-.071v.601c.265-.053.566-.106.831-.017.106.053.16.176.177.3-.177-.035-.372-.07-.548-.035a.772.772 0 0 0-.566.318c-.195.3-.142.76.159.973.265.212.672.194.955 0v.124zm-.018-.495c-.177.053-.371.106-.53 0-.124-.106-.107-.336.035-.424.16-.07.336-.053.495-.018.018.16.018.3 0 .442zM11.733 18.532h.778c-.389.495-.76 1.026-1.132 1.521l1.008 1.538c-.265 0-.53-.017-.796 0-.3-.46-.6-.919-.901-1.361v1.362H10v-3.06h.69v1.433c.353-.478.69-.955 1.043-1.433zM12.546 19.328h.655v.442a.75.75 0 0 1 .583-.442v.637c-.283.035-.566.247-.566.548-.017.354-.017.707-.017 1.079h-.655v-2.264z" fill="#fff"/><path d="M24.13 21.132c-.09.035-.107.053-.213.088a.601.601 0 0 1-.354 0c-.336-.141-.124-.672-.124-.672 1.415-.354 1.22-1.114.832-1.15-.23 0-1.08.036-1.486 1.009-.053.159-.442 1.202.424 1.273.177 0 .372-.018.566-.124a1.19 1.19 0 0 0 .39-.336c.088-.159-.036-.088-.036-.088zm-.195-1.468c.106.035-.16.584-.16.584-.123.035-.23.07-.3.07.035-.07.247-.76.46-.654zM27.454 21.326c-.018-.017-.071-.017-.089-.035-.106-.07-.017-.265 0-.39l.336-1.166c.018-.071.142-.442-.371-.372-.425.071-.743.336-.743.336.035-.106.07-.265 0-.3-.088-.036-.619.123-.743.23-.035 0-.088.053-.035.106.053.07.07.141.035.265-.07.212-.283.973-.353 1.132-.053.141-.124.406 0 .512.106.071.477-.106.53-.14.053-.019.106-.054.142-.072.07-.07-.053-.106.07-.495 0-.018.124-.389.213-.725a.62.62 0 0 1 .424-.424c.141-.018.106.124.088.212-.123.389-.283 1.008-.336 1.15-.053.14-.141.424 0 .494.124.089.708-.176.76-.212.125-.07.125-.106.072-.106z" fill="#ea4544"/><path d="M25.226 21.326c-.036-.017-.054-.017-.071-.035-.106-.07-.036-.265 0-.39l.336-1.166c.017-.124.106-.283 0-.336-.106-.036-.637.124-.76.23-.018 0-.071.053-.018.106.053.07.053.141.017.265-.053.212-.3 1.008-.353 1.15-.053.14-.142.424.035.495.124.088.672-.16.743-.213.123-.053.123-.106.07-.106zM25.12 19.116c.035.07.353-.07.53-.16.018-.017.088-.07.106-.123.035-.142.053-.195.07-.283.018-.035.018-.088-.035-.106-.07-.018-.513.035-.619.212-.035.088-.159.424-.053.46zM30 20.389c-.053-.195-.389-.248-.513-.141-.07.07-.106.23-.088.265.3-.106.353.177.3.283-.106.159-.141.23-.283.23h-.972c-.018-.036-.035-.053 0-.089.053-.07 1.008-1.361 1.043-1.415.018-.035.07-.123-.053-.123h-1.06c-.107 0-.16.035-.248.124-.071.088-.177.37-.23.548 0 0 0 .07.106-.018.035-.018.07-.088.124-.088h.636c.195 0-.866.99-1.185 1.52-.053.107.036.107.089.107h1.38c.353 0 .3.053.477-.213 0 0 .477-.619.477-.92v-.07zM22.378 21.026l.39-1.486c.247-.902.406-.937.495-1.025h-.602c-.212 0-.389.318-.424.512l-.248.938h-.548s.319-1.185.372-1.327c.017-.053.017-.123-.106-.123-.018 0-1.168-.036-1.521.088-.16.053-.407.212-.478.424-.053.124-.124.372.036.796.017.07.053.106.07.124.053.035.53-.035.513-.035.035 0 .053-.018.018-.106-.035-.089-.142-.248-.16-.407-.07-.637.372-.743.46-.76a.858.858 0 0 1 .301 0c.035 0 .124.017.141.052.036.089-.017.213-.052.354-.036.106-.336 1.238-.425 1.556-.07.23-.3.743-.53.814a.427.427 0 0 1-.213 0 .652.652 0 0 1-.194-.089c-.142-.141-.23-.442-.248-.654-.017-.283.036-.477-.017-.477-.106 0-.425.123-.549.212l-.053.053c-.035.07-.035.265-.017.389.053.283.194.583.406.743.584.389 1.61-.336 1.716-.407a1.12 1.12 0 0 0 .318-.495c.053-.177.141-.496.141-.496h.549l-.283 1.026c-.053.16-.089.442.053.424.548 0 .778-.212.796-.23a.054.054 0 0 0 0-.07c-.036-.018-.177-.142-.107-.318z" fill="#ea4544"/></g></svg>