<svg width="40" height="40" fill="none" xmlns="http://www.w3.org/2000/svg"><mask id="a" mask-type="alpha" maskUnits="userSpaceOnUse" x="10" y="14" width="20" height="12"><path fill="#fff" d="M10 14.438h20v11.124H10z"/></mask><g mask="url(#a)" transform="matrix(1.4 0 0 1.4 -8 -8)"><path fill-rule="evenodd" clip-rule="evenodd" d="M18.928 19.147a.477.477 0 1 1-.478.478c0-.264.212-.478.478-.478zm10.828 1.63c-.753.749-3.099 2.807-3.72 4.54l-.768-.197c.25-.719 1.008-1.835 1.85-2.696-.179.068-.366.093-.516.093-.227 0-.405-.07-.511-.198a.548.548 0 0 1-.116-.359c0-.031.002-.062.008-.099-.743.453-1.338.656-1.921.656-.455 0-.838-.198-1.014-.546-.735.367-1.44.546-2.03.546-.548 0-.992-.218-1.194-.614-.744.418-1.376.614-1.878.614-.292 0-.52-.08-.67-.232a.65.65 0 0 1-.172-.437c-.476.314-1.173.67-1.887.67-.73 0-1.221-.252-1.6-.501a4.04 4.04 0 0 1-1.978.5c-.533 0-1.395-.221-1.395-.986 0-.617.645-1.035 1.507-1.035.731 0 1.437.308 1.88.628.42-.333.862-.802 1.382-1.464a5.33 5.33 0 0 1-.337.011c-.997 0-1.827-.295-2.282-.808a1.41 1.41 0 0 1-.361-.955c0-1.386 1.75-2.46 3.28-2.62.102.23.193.408.287.617-1.514.175-2.773 1.072-2.773 1.946 0 .575.647 1.153 2.018 1.153.234 0 .47-.022.703-.055 1.212-1.672 3.067-4.267 4.665-4.267.47 0 .718.288.718.67 0 .793-.68 1.643-1.121 2.087-.697.698-1.956 1.739-3.714 2.083-.683.952-1.244 1.582-1.807 2.039.341.183.66.295 1.041.295.946 0 1.864-.865 2.58-1.6l.026-.024.56.436-.026.031c-.317.363-.61.748-.61.962 0 .164.139.197.256.197.363 0 .922-.235 1.578-.64v-.006c.073-1.622 2.29-4.107 3.635-4.107.379 0 .597.189.597.52 0 .816-1.404 2.561-3.446 3.895v.002c.105.227.349.337.761.337.323 0 .953-.143 1.703-.535.086-.841.562-1.745 1.167-2.388.607-.645 1.287-1.065 1.875-1.065.363 0 .578.2.578.513 0 .71-.825 1.925-2.812 3.195.088.17.258.279.524.279.592 0 1.633-.63 2.445-1.408l.583.453c-.25.302-.5.634-.493.824.002.063.044.105.143.105.598 0 1.54-.79 2.245-1.488zm-13.05-2.12c.877-.282 1.709-.868 2.33-1.482.572-.569 1.032-1.243 1.032-1.577 0-.077-.055-.122-.125-.122-.264 0-.768.353-1.446 1.032-.528.527-1.142 1.25-1.79 2.15zm-3.746 2.898c-.322-.225-.82-.42-1.268-.42-.432 0-.71.169-.71.385 0 .246.338.352.714.352.454 0 .869-.123 1.264-.317zm7.51-.812c1.222-.924 2.507-2.269 2.644-2.82.004-.019.01-.037.008-.054-.002-.036-.022-.07-.068-.07-.387 0-2.18 1.654-2.584 2.944zm3.242.147c.113-.08.236-.174.35-.264.878-.702 1.549-1.472 1.682-1.899a.352.352 0 0 0 .015-.084c0-.044-.02-.075-.06-.075-.404 0-1.698 1.288-2.011 2.331v.004z" fill="#c00"/></g></svg>