<svg width="40" height="40" fill="none" xmlns="http://www.w3.org/2000/svg"><g clip-path="url(#a)" transform="matrix(1.4 0 0 1.4 -8 -8.007)"><g clip-path="url(#b)"><path fill-rule="evenodd" clip-rule="evenodd" d="m10 18.473 9.327.486-3.132 3.235 3.63-3.212 3.167.012-.607 2.61-8.738 4.41-1.511.795 2.519-1.15 7.604-3.59-1.03 4.952 1.505-5.187c.784-.361 6.934-3.052 7.266-3.367l-6.298-.006 1.546-5.445-5.434 5.451-2.027-.006zm12.843 2.868 4.483-2.267-3.819-.086zm-2.456-2.88h2.725l.756-3.143z" fill="#fff"/></g></g><defs><clipPath id="a"><path fill="#fff" d="M0 0h40v40H0z"/></clipPath><clipPath id="b"><path fill="#fff" transform="translate(10 13)" d="M0 0h20v14.038H0z"/></clipPath></defs></svg>