<svg width="40" height="40" fill="none" xmlns="http://www.w3.org/2000/svg"><g clip-path="url(#a)" transform="matrix(1.4 0 0 1.4 -8 -8)"><path fill-rule="evenodd" clip-rule="evenodd" d="M19.984 10c-5.51.009-9.975 4.473-9.984 9.984v.032C10.01 25.53 14.483 30 19.998 30S29.982 25.535 30 20.03v-.06c-.018-5.505-4.478-9.961-9.984-9.97Zm6.909 14.602c-.803 1.204-1.83 1.844-2.976 1.844-.5 0-1.029-.126-1.57-.365-.572-.252-1.077-.717-1.42-1.308-.338-.59-.474-1.226-.379-1.803.117-.501.383-1.182.69-1.976.794-2.056 1.885-4.875.943-6.254-.397-.582-1.11-.866-2.183-.866-1.069 0-1.781.284-2.183.866-.938 1.38.149 4.198.947 6.259.302.79.573 1.47.686 1.98.099.568-.036 1.204-.38 1.794-.337.591-.842 1.056-1.415 1.308-.541.24-1.073.365-1.57.365-1.145 0-2.173-.64-2.971-1.844l-.095-.162c.383.19 1.114.505 1.74.505.316 0 .614-.095.907-.289 1.615-1.073 1.064-2.367-.04-4.365-.47-.848-.952-1.723-1.164-2.625-.23-.97-.442-2.385.401-3.454.393-.505.997-.893 1.786-1.15.826-.275 1.88-.42 3.148-.442h.41c1.268.023 2.323.167 3.148.442.79.257 1.389.645 1.786 1.15.843 1.069.631 2.485.401 3.454-.212.902-.694 1.777-1.163 2.625-1.105 1.998-1.66 3.292-.04 4.365.292.194.585.289.906.289.626 0 1.352-.316 1.74-.505z" fill="#d41935"/></g><defs><clipPath id="a"><path fill="#fff" d="M0 0h40v40H0z"/></clipPath></defs></svg>