<svg width="40" height="40" fill="none" xmlns="http://www.w3.org/2000/svg"><g clip-path="url(#a)" transform="matrix(1.4 0 0 1.4 -8 -8)" fill-rule="evenodd" clip-rule="evenodd" fill="#fff"><path d="M26.547 26.705a.141.141 0 0 1-.104-.038L12.859 13.074a.136.136 0 0 1 0-.198.136.136 0 0 1 .197 0L26.65 26.47a.136.136 0 0 1 0 .197.197.197 0 0 1-.103.038z"/><path d="M12.974 26.714a.136.136 0 0 1-.103-.235l13.593-13.584a.137.137 0 0 1 .198 0 .137.137 0 0 1 0 .198L13.077 26.676a.142.142 0 0 1-.103.037z"/><path d="M19.782 29.527a.145.145 0 0 1-.141-.14v-19.23c0-.075.066-.14.14-.14.076 0 .142.065.142.14v19.23a.145.145 0 0 1-.141.14z"/><path d="M29.399 19.913H10.16a.145.145 0 0 1-.142-.141c0-.076.066-.141.142-.141h19.228c.076 0 .141.065.141.14 0 .076-.056.142-.131.142zM28.09 15.106H11.39a.145.145 0 0 1-.141-.141c0-.076.066-.141.141-.141H28.09c.075 0 .141.065.141.14a.145.145 0 0 1-.14.142zM28.07 24.72H11.391a.145.145 0 0 1-.141-.141c0-.075.066-.141.141-.141h16.68c.075 0 .14.066.14.141a.139.139 0 0 1-.14.141z"/><path d="M19.782 29.527a.145.145 0 0 1-.141-.14v-19.23c0-.075.066-.14.14-.14.076 0 .142.065.142.14v19.23a.145.145 0 0 1-.141.14zM14.977 28.21a.145.145 0 0 1-.141-.14V11.427c0-.076.066-.142.141-.142.075 0 .141.066.141.142v16.641a.139.139 0 0 1-.141.141zM24.59 28.21a.145.145 0 0 1-.14-.14V11.455c0-.076.065-.141.14-.141.076 0 .141.065.141.14V28.07a.138.138 0 0 1-.14.141z"/><path d="M29.397 19.913a.142.142 0 0 1-.104-.038l-9.614-9.623a.137.137 0 0 1 0-.198.137.137 0 0 1 .198 0l9.614 9.614a.136.136 0 0 1 0 .198c-.028.028-.056.047-.094.047zM19.784 29.527a.142.142 0 0 1-.104-.038l-9.614-9.614a.136.136 0 0 1 0-.197.136.136 0 0 1 .197 0l9.615 9.614a.137.137 0 0 1-.094.235z"/><path d="M19.782 29.527a.142.142 0 0 1-.103-.038.137.137 0 0 1 0-.197l9.614-9.614a.136.136 0 0 1 .198 0 .136.136 0 0 1 0 .197l-9.614 9.614a.135.135 0 0 1-.094.038zM10.161 19.913a.136.136 0 0 1-.103-.235l9.624-9.624a.137.137 0 0 1 .197 0 .137.137 0 0 1 0 .197l-9.614 9.624a.197.197 0 0 1-.104.038z"/><path d="M19.755 29.518c-5.38 0-9.755-4.375-9.755-9.746 0-5.381 4.374-9.746 9.755-9.746 5.382 0 9.756 4.374 9.756 9.746 0 5.371-4.374 9.746-9.756 9.746zm0-19.22c-5.22 0-9.473 4.253-9.473 9.464 0 5.221 4.252 9.464 9.473 9.464 5.222 0 9.474-4.243 9.474-9.464 0-5.22-4.252-9.463-9.474-9.463z"/><path d="M20.582 19.762a.819.819 0 1 1-.818-.818c.46.01.818.367.818.818zM20.384 24.579a.6.6 0 0 1-.602.602.606.606 0 0 1-.602-.602c0-.33.273-.602.602-.602a.6.6 0 0 1 .602.602zM15.58 14.965c0 .329-.274.602-.603.602a.606.606 0 0 1-.602-.602.6.6 0 0 1 .602-.602.6.6 0 0 1 .602.602zM15.785 24.579a.819.819 0 1 1-1.638-.001.819.819 0 0 1 1.638.001zM30.001 19.772c0 .329-.273.602-.602.602a.606.606 0 0 1-.602-.602.6.6 0 0 1 .602-.602.6.6 0 0 1 .602.602zM20.384 29.386c0 .33-.273.602-.602.602a.606.606 0 0 1-.602-.602c0-.33.273-.602.602-.602.329 0 .602.273.602.602zM25.399 28.07a.819.819 0 1 1-.819-.82c.461.01.819.367.819.82zM11.993 24.579a.6.6 0 0 1-.602.602.606.606 0 0 1-.602-.602c0-.33.273-.602.602-.602a.6.6 0 0 1 .602.602zM25.399 11.456a.819.819 0 1 1-1.638-.001.819.819 0 0 1 1.638 0zM12.2 14.974a.82.82 0 1 1-.82-.818c.462.009.82.376.82.818zM28.692 14.965c0 .329-.272.602-.602.602a.606.606 0 0 1-.602-.602.6.6 0 0 1 .602-.602.6.6 0 0 1 .602.602zM25.192 19.781a.6.6 0 0 1-.602.602.606.606 0 0 1-.602-.602c0-.33.273-.602.602-.602a.6.6 0 0 1 .602.602zM13.563 12.97c0 .33-.272.602-.602.602a.606.606 0 0 1-.602-.602c0-.329.273-.602.602-.602.33 0 .602.273.602.602zM15.58 11.456c0 .329-.274.602-.603.602a.606.606 0 0 1-.602-.602.6.6 0 0 1 .602-.602c.33 0 .602.273.602.602z"/></g><defs><clipPath id="a"><path fill="#fff" d="M0 0h40v40H0z"/></clipPath></defs></svg>