<svg width="40" height="40" fill="none" xmlns="http://www.w3.org/2000/svg"><mask id="a" mask-type="alpha" maskUnits="userSpaceOnUse" x="10" y="12" width="20" height="16"><path fill="#fff" d="M10 12.915h20v14.171H10z"/></mask><g mask="url(#a)" transform="matrix(1.4 0 0 1.4 -8.009 -8.018)"><path fill-rule="evenodd" clip-rule="evenodd" d="M10.075 13.25h3.021v8.109c0 1.283.587 2.047 1.051 2.375-.491.436-1.992.819-3.112-.11-.66-.547-.96-1.447-.96-2.293zm18.88 6.736v-.852h.922v-2.99h-1.012a3.986 3.986 0 0 0-7.883.846v6.981c.628.089 1.375-.01 2.01-.538.66-.547.96-1.447.96-2.293v-.257h1.51v-2.99h-1.51v-.902h.004a1.012 1.012 0 0 1 2.026 0v2.995a3.987 3.987 0 0 0 3.988 3.985v-2.973a1.014 1.014 0 0 1-1.014-1.012zm-11.441-3.842v4.387c0 .25-.207.451-.462.451a.456.456 0 0 1-.461-.45v-4.388H13.6v5.16c0 .928.315 2.102 1.748 2.484 1.433.383 2.265-.41 2.265-.41-.075.523-.567.905-1.359.987-.599.062-1.365-.137-1.747-.3v2.733c.974.287 2.004.38 3.012.184 1.829-.355 2.983-1.883 2.983-3.917v-6.92z" fill="#ea0b8c"/></g></svg>