<svg width="40" height="40" fill="none" xmlns="http://www.w3.org/2000/svg"><g clip-path="url(#a)" transform="matrix(1.4 0 0 1.4 -8 -8.156)"><g clip-path="url(#b)" fill="#fff"><path d="m17.387 20.132.309.582c-.129 0-.249 0-.368-.002-.013 0-.03-.019-.037-.033-.08-.147-.159-.294-.236-.443-.015-.028-.031-.044-.066-.044h-1.132c-.01 0-.02.003-.037.005v.513h-.356V19h.06c.538 0 1.076.003 1.614-.001a.491.491 0 0 1 .506.469c.005.124 0 .252-.023.374-.023.128-.114.22-.234.29zm-1.564-.773v.482h1.325c.09-.002.145-.059.147-.149v-.159c0-.128-.045-.174-.174-.174h-1.299zM10.357 19.638v1.072h-.35v-1.708l.303.001c.012 0 .025.014.034.025l.749.885c.043.052.088.102.135.156l.302-.357.578-.68c.012-.013.031-.029.047-.03.097-.002.194 0 .294 0v1.709h-.354v-1.075l-.034.031c-.224.255-.447.511-.673.765a.111.111 0 0 1-.073.033c-.24.004-.238.001-.394-.186-.176-.21-.358-.414-.538-.62-.005-.006-.012-.01-.026-.021zM26.253 20.714h-.654c-.302 0-.511-.204-.515-.505a26.03 26.03 0 0 1 0-.696c.004-.306.215-.51.521-.51l1.302-.001c.208 0 .369.084.464.27.032.062.05.139.051.209.006.25.004.5.002.75a.479.479 0 0 1-.474.481c-.232.004-.465 0-.698 0v.002zm-.011-.351h.653c.128 0 .176-.047.176-.174v-.662c0-.122-.047-.168-.17-.168h-1.305c-.11 0-.162.05-.162.159v.679c0 .118.048.165.166.166h.642zM29.62 20.224v-1.22h.357v1.709c-.101 0-.203.001-.304-.002-.017 0-.034-.02-.05-.032l-1.477-1.15-.05-.036v1.216h-.352v-1.707c.1 0 .201-.001.303.002.018 0 .036.022.053.036l1.463 1.141.057.043zM15.271 20.714c-.14 0-.27 0-.399-.002-.016 0-.037-.014-.047-.028a6.876 6.876 0 0 1-.166-.243c-.018-.027-.037-.038-.07-.038-.422.002-.843.002-1.264 0-.036 0-.056.012-.074.042a7.797 7.797 0 0 1-.16.242c-.009.011-.025.025-.037.026h-.408c.014-.023.024-.04.035-.055l.94-1.409c.047-.07.096-.141.14-.214.018-.028.037-.035.067-.035.086.002.172.002.258 0 .034-.001.052.012.07.04l.965 1.447.15.227zm-.88-.671-.433-.655-.438.655h.87zM17.827 20.714l.38-.57c.244-.366.488-.731.73-1.098.022-.033.044-.047.084-.046.084.003.168 0 .252.002.02.001.048.012.058.028.372.557.744 1.115 1.118 1.679-.017.002-.03.004-.043.004-.114 0-.227.002-.34 0a.095.095 0 0 1-.065-.036c-.057-.077-.107-.16-.163-.237-.013-.018-.04-.034-.06-.034-.426-.002-.853-.002-1.28 0a.085.085 0 0 0-.059.033 5.051 5.051 0 0 0-.157.237c-.017.028-.036.04-.07.039-.124-.002-.248-.001-.385-.001zm1.313-1.326-.433.653h.867l-.434-.653zM22.54 19.003h.35v.676h1.527v-.674h.355v1.706h-.352v-.677H22.953c-.048-.001-.063.01-.062.06.003.184.001.369.001.553v.063h-.353v-1.707zM21.345 20.712h-.356V19.36h-.943v-.354h2.234v.354h-.935v1.353zM30 21.385c-.041 0-.083.018-.106-.033-.005-.01-.03-.014-.045-.014h-.373c-.043-.001-.064.017-.064.061 0 .045.021.061.064.06h.368c.073 0 .123.034.145.094.025.071.006.161-.05.198a.16.16 0 0 1-.08.025c-.133.003-.267.002-.4.001-.086 0-.136-.058-.131-.147.037 0 .078-.02.101.034.005.011.035.017.054.017.122.002.245.001.367.002.046 0 .06-.024.06-.066s-.02-.06-.06-.06c-.121.002-.242.002-.363 0-.11 0-.164-.055-.163-.165 0-.098.06-.153.165-.153h.362c.09 0 .141.05.149.146zM13.043 21.401h-.087c-.007-.066-.051-.075-.106-.074-.114.002-.227 0-.34.001-.064 0-.083.019-.084.08a4.826 4.826 0 0 0 0 .187c.001.073.015.086.087.087h.33c.103 0 .114-.014.099-.127h-.268v-.093h.365c0 .068.006.133-.002.197-.008.068-.076.117-.145.118h-.406c-.094 0-.155-.062-.156-.153-.001-.079-.002-.157 0-.236a.146.146 0 0 1 .152-.15c.137-.002.275-.002.412 0 .09 0 .15.066.15.163zM28.575 21.402h-.088c-.008-.065-.052-.075-.107-.074h-.34c-.063.001-.086.023-.088.086a3.982 3.982 0 0 0 0 .186c0 .063.02.082.082.082h.34c.103 0 .117-.016.103-.125h-.265v-.094h.363c0 .065.005.129-.001.191-.007.069-.075.123-.146.123h-.417a.146.146 0 0 1-.15-.147 7.16 7.16 0 0 1 0-.241.15.15 0 0 1 .153-.151h.406c.094 0 .156.064.155.164zM21.545 21.777h-.214a.151.151 0 0 1-.157-.15 3.158 3.158 0 0 1 0-.245.15.15 0 0 1 .155-.145h.439c.084 0 .147.054.153.138.006.087.007.175.002.262-.004.081-.071.138-.153.14h-.225zm.01-.445h-.209c-.05.001-.077.024-.076.078a2.96 2.96 0 0 1 0 .202c-.001.05.023.073.068.073h.422c.043 0 .067-.022.067-.068v-.213c0-.05-.025-.073-.075-.073-.066.002-.132 0-.198 0zM10 21.777v-.538c.197 0 .39-.002.584 0 .058.002.118.062.122.123.005.096.006.192 0 .289a.141.141 0 0 1-.13.126c-.19.002-.38 0-.576 0zm.093-.09c.156 0 .307.002.459 0 .042 0 .066-.025.066-.07v-.196c0-.07-.017-.087-.088-.088H10.093v.355zM24.052 21.776v-.539h.548c.097 0 .163.063.165.159v.23c-.002.079-.059.148-.132.15-.192.003-.384 0-.58 0zm.095-.088h.45c.047-.001.073-.024.07-.077-.004-.064 0-.128-.001-.192 0-.07-.016-.087-.087-.087h-.384c-.016 0-.031.003-.048.005v.35zM27.005 21.238h.09v.534c-.062.02-.105-.01-.15-.045-.15-.12-.303-.238-.463-.363v.409h-.094v-.53c.059-.02.102.003.145.038l.43.337c.01.009.023.016.042.03v-.41zM20.316 21.456v-.215h.09v.532h-.088v-.215h-.527v.215H19.7v-.533h.089v.216h.528zM15.918 21.771c.117-.175.23-.345.345-.514.02-.03.103-.029.124.003.112.167.222.334.333.502v.01c-.064.016-.115.007-.148-.06-.01-.017-.042-.033-.065-.034a7.363 7.363 0 0 0-.373 0c-.02 0-.053.015-.06.033-.033.067-.085.076-.156.06zm.565-.195c-.057-.087-.11-.164-.166-.247l-.16.247h.326zM15.354 21.242v.086h-.306v.446h-.093v-.444h-.311v-.088h.71zM22.692 21.24h.09v.445h.518v.087h-.608v-.533zM17.552 21.686h.51v.087h-.598v-.533h.088v.446zM25.527 21.24h.09v.532h-.09v-.533zM13.893 21.774h-.087v-.534h.087v.534zM11.56 21.775h-.084v-.536h.084v.536z"/></g></g><defs><clipPath id="a"><path fill="#fff" d="M0 0h40v40H0z"/></clipPath><clipPath id="b"><path fill="#fff" transform="translate(10 19)" d="M0 0h20v2.779H0z"/></clipPath></defs></svg>