<svg width="40" height="40" fill="none" xmlns="http://www.w3.org/2000/svg"><g clip-path="url(#a)" transform="matrix(1.4 0 0 1.4 -8 -8)"><path fill="#ff5f00" d="M17.296 15.142h5.408v9.717h-5.408z"/><path fill-rule="evenodd" clip-rule="evenodd" d="M17.64 20c0-1.974.927-3.725 2.351-4.858A6.176 6.176 0 0 0 10 20a6.176 6.176 0 0 0 9.991 4.858A6.171 6.171 0 0 1 17.64 20z" fill="#eb001b"/><path fill-rule="evenodd" clip-rule="evenodd" d="M30 20a6.176 6.176 0 0 1-9.991 4.858A6.145 6.145 0 0 0 22.36 20a6.197 6.197 0 0 0-2.352-4.858 6.143 6.143 0 0 1 3.81-1.322A6.187 6.187 0 0 1 30 20z" fill="#f79e1b"/></g><defs><clipPath id="a"><path fill="#fff" d="M0 0h40v40H0z"/></clipPath></defs></svg>