<svg width="40" height="40" fill="none" xmlns="http://www.w3.org/2000/svg"><path d="M34 19.382c0-5.029-6.265-9.147-14-9.147S6 14.353 6 19.382v.53c0 5.353 5.47 9.676 14 9.676 8.559 0 14-4.323 14-9.676z" fill="#2d3277" style="stroke-width:1.4"/><path d="M33.5 19.382c0 4.736-6.03 8.589-13.441 8.589-7.412 0-13.441-3.853-13.441-8.589 0-4.735 6.03-8.588 13.44-8.588 7.413 0 13.442 3.853 13.442 8.588z" fill="#ffe600" style="stroke-width:1.4"/><path d="M15.588 16.677s-.147.147-.059.264c.206.265.853.412 1.53.265.382-.088.912-.5 1.382-.882.53-.412 1.06-.853 1.588-1 .56-.177.912-.089 1.148-.03.264.088.558.265 1.058.618.912.676 4.618 3.912 5.265 4.47.5-.235 2.794-1.205 5.912-1.911-.265-1.647-1.265-3.177-2.794-4.412-2.118.882-4.736 1.353-7.294.118 0 0-1.383-.648-2.765-.618-2.03.059-2.882.912-3.824 1.853z" fill="#fff" style="stroke-width:1.4"/><path d="M27.353 20.735c-.03-.03-4.353-3.794-5.324-4.53-.558-.41-.882-.529-1.206-.587-.176-.03-.411 0-.588.059-.44.117-1.058.529-1.588.94-.559.442-1.059.854-1.53.942-.617.147-1.352-.03-1.676-.265a.762.762 0 0 1-.294-.323c-.118-.295.118-.53.147-.56l1.177-1.293.411-.412c-.382.059-.735.147-1.088.235-.441.118-.853.235-1.265.235-.176 0-1.117-.147-1.294-.205a19.872 19.872 0 0 1-3.44-1.236C8.117 15 6.97 16.56 6.646 18.295c.235.058.647.176.794.205 3.824.853 5 1.735 5.235 1.912.236-.265.56-.412.942-.412.411 0 .794.206 1.03.53.205-.177.528-.324.91-.324.177 0 .354.03.56.088.44.147.647.441.764.706.147-.059.324-.118.53-.118.206 0 .412.06.647.147.706.295.823 1 .765 1.53h.147c.853 0 1.53.676 1.53 1.53 0 .264-.06.5-.177.705.235.118.794.412 1.323.353.412-.059.559-.176.618-.265.03-.058.088-.117.03-.176L21.205 23.5s-.177-.177-.118-.235c.059-.06.177.03.265.088.559.47 1.206 1.147 1.206 1.147s.059.088.294.147c.206.03.588 0 .853-.206.059-.059.147-.117.176-.176.265-.353-.03-.706-.03-.706l-1.264-1.412s-.176-.176-.117-.235c.059-.06.176.03.264.088.412.324.97.912 1.5 1.441.118.088.589.383 1.206-.03.383-.264.47-.558.441-.793-.029-.295-.264-.53-.264-.53l-1.706-1.735s-.177-.147-.118-.235c.059-.06.177.029.265.088.559.47 2.03 1.823 2.03 1.823.029 0 .529.383 1.176-.029.235-.147.382-.353.382-.618.03-.382-.294-.647-.294-.647z" fill="#fff" style="stroke-width:1.4"/><path d="M19.03 22.941c-.265 0-.56.147-.589.147-.03 0 0-.117.03-.176.029-.059.382-1.118-.471-1.5-.647-.294-1.059.03-1.176.176-.03.03-.06.03-.06 0a.929.929 0 0 0-.676-.882c-.823-.265-1.323.324-1.47.53a.93.93 0 0 0-.942-.824.93.93 0 0 0-.94.941c0 .53.411.941.94.941.265 0 .471-.088.648-.264v.029c-.03.235-.118 1.088.764 1.412.353.147.647.03.912-.147.088-.059.088-.03.088.03-.03.205 0 .676.677.94.5.206.794 0 .97-.176.089-.088.118-.059.118.059.03.617.559 1.117 1.176 1.117a1.18 1.18 0 0 0 1.177-1.176 1.18 1.18 0 0 0-1.177-1.177z" fill="#fff" style="stroke-width:1.4"/><path d="M27.53 20.294c-1.324-1.147-4.383-3.823-5.236-4.441-.47-.353-.794-.559-1.088-.618-.118-.029-.294-.088-.53-.088-.205 0-.44.03-.676.118-.53.176-1.059.588-1.588 1l-.03.03c-.47.382-.97.764-1.353.852-.176.03-.323.059-.5.059-.411 0-.794-.118-.94-.294-.03-.03 0-.088.058-.147l1.177-1.265c.911-.912 1.764-1.765 3.764-1.823h.088c1.236 0 2.471.558 2.618.617 1.176.559 2.353.853 3.559.853 1.265 0 2.559-.323 3.912-.941-.147-.118-.324-.265-.47-.382-1.207.529-2.325.764-3.442.764-1.118 0-2.235-.264-3.324-.794-.058-.03-1.411-.676-2.853-.676h-.117c-1.677.029-2.618.617-3.236 1.147-.617 0-1.147.176-1.617.294-.412.118-.794.206-1.147.206h-.441c-.412 0-2.471-.5-4.089-1.147-.176.117-.323.235-.5.353 1.706.706 3.795 1.235 4.442 1.294.176 0 .382.03.588.03.441 0 .853-.119 1.294-.236.265-.059.53-.147.794-.206l-.235.235-1.177 1.294c-.088.089-.294.353-.176.648.059.117.176.235.323.352.294.177.794.324 1.265.324.177 0 .353-.03.5-.059.5-.118 1.03-.53 1.559-.97.441-.353 1.059-.795 1.53-.942.146-.03.293-.058.44-.058h.118c.324.029.618.147 1.177.558.97.736 5.294 4.5 5.323 4.53 0 0 .265.235.265.647 0 .206-.147.412-.353.559a1.04 1.04 0 0 1-.559.176c-.294 0-.5-.147-.5-.147s-1.5-1.353-2.03-1.823c-.088-.089-.176-.148-.264-.148-.059 0-.088.03-.118.06-.088.117 0 .264.118.352l1.735 1.735s.206.206.235.471c0 .294-.117.53-.411.706a1.036 1.036 0 0 1-.618.206c-.265 0-.441-.118-.5-.147l-.265-.236c-.44-.44-.911-.911-1.264-1.176-.089-.059-.177-.147-.265-.147-.03 0-.088 0-.118.059-.03.03-.059.117.03.264a.22.22 0 0 0 .088.089l1.265 1.412s.264.323.03.588l-.06.059-.117.117c-.206.177-.5.206-.618.206h-.176c-.118-.03-.206-.059-.265-.118-.059-.088-.706-.705-1.236-1.147-.058-.058-.147-.117-.235-.117-.03 0-.088.03-.118.059-.088.117.06.294.118.353l1.088 1.176s0 .03-.029.088c-.03.06-.177.177-.559.236h-.147c-.412 0-.823-.206-1.059-.324.089-.206.147-.441.147-.676 0-.883-.706-1.589-1.588-1.589h-.059c.03-.412-.03-1.176-.823-1.5-.235-.088-.441-.147-.677-.147-.176 0-.323.03-.5.088a1.39 1.39 0 0 0-.794-.676 2.038 2.038 0 0 0-.588-.088c-.324 0-.618.088-.882.294a1.353 1.353 0 0 0-1.06-.5 1.36 1.36 0 0 0-.94.382c-.324-.264-1.647-1.088-5.206-1.912a5.721 5.721 0 0 1-.794-.235c-.03.177-.06.382-.089.588 0 0 .647.147.795.177 3.617.794 4.823 1.647 5.029 1.794a1.666 1.666 0 0 0-.088.53 1.35 1.35 0 0 0 1.353 1.352c.088 0 .176 0 .264-.03.118.56.471.972 1.03 1.177.176.06.323.089.47.089.089 0 .206 0 .324-.03.088.265.323.588.853.794.176.089.353.118.53.118a.94.94 0 0 0 .411-.088c.235.588.823 1 1.47 1 .442 0 .853-.177 1.148-.5.264.147.794.411 1.353.411h.205c.56-.058.795-.294.912-.44.03-.03.03-.06.059-.089.118.03.265.059.441.059.294 0 .588-.088.883-.324.294-.206.5-.5.5-.764.088.03.205.03.294.03.294 0 .617-.09.911-.295.56-.353.648-.853.648-1.147.088.03.205.03.294.03.294 0 .588-.089.853-.265.352-.236.558-.56.588-.941.03-.265-.06-.53-.177-.765.941-.412 3.06-1.177 5.589-1.765 0-.206-.03-.382-.089-.588-3.03.647-5.294 1.617-5.853 1.882zm-8.5 4.912a1.1 1.1 0 0 1-1.089-1.059c0-.059 0-.176-.118-.176-.058 0-.088.03-.147.059a.746.746 0 0 1-.53.235.783.783 0 0 1-.352-.088c-.618-.265-.647-.677-.618-.853 0-.06 0-.089-.029-.118l-.03-.03h-.029c-.03 0-.059 0-.117.06a.948.948 0 0 1-.53.176c-.088 0-.206-.03-.294-.059-.823-.324-.765-1.088-.706-1.324 0-.058 0-.088-.03-.117l-.058-.059-.059.059a.934.934 0 0 1-.588.235.854.854 0 0 1 0-1.706c.412 0 .794.324.853.735l.03.236.117-.206c0-.03.353-.559 1-.53.118 0 .235.03.382.06.5.146.588.617.588.794 0 .117.089.117.089.117.03 0 .088-.03.088-.059a.865.865 0 0 1 .618-.264c.147 0 .294.029.47.117.794.353.441 1.353.441 1.383-.058.176-.088.235 0 .294h.06c.029 0 .087 0 .146-.03.118-.03.265-.088.412-.088.588 0 1.088.5 1.088 1.088.03.647-.47 1.118-1.059 1.118z" fill="#2d3277" style="stroke-width:1.4"/></svg>