<svg width="40" height="40" fill="none" xmlns="http://www.w3.org/2000/svg"><g clip-path="url(#a)" transform="matrix(1.4 0 0 1.4 -8 -7.97)" fill="#0090da"><path d="M29.708 12.72c-.915-1.311-3.758-.78-7.445 1.167-.145.07-.285.15-.419.24-.178.124-.074.214.058.167.157-.056.31-.12.46-.193 2.765-1.31 4.92-1.546 5.762-.631 1.283 1.393-1.346 5.959-5.898 9.336-.608.45-1.546 1.108-2.157 1.476-.04.026-.085.05-.122.077a6.9 6.9 0 0 0-.419.292c-.113.088-.085.222.11.136.147-.065.29-.14.427-.226.035-.02.07-.04.106-.064.687-.417 1.706-1.12 2.403-1.606.599-.419 1.164-.842 1.696-1.27v2.705h2.473v-4.937c2.72-2.806 3.846-5.413 2.97-6.67z"/><path d="M14.615 27.857h2.473v-2.559c.675-.399 1.358-.835 2.03-1.294.134-.09.262-.189.382-.296.16-.146.045-.22-.079-.156a6.161 6.161 0 0 0-.44.26c-3.814 2.44-6.39 3.186-7.341 1.894-.826-1.12.528-3.288 2.978-5.736v5.681a15.49 15.49 0 0 0 2.473-1.142v-5.276l.544 1.155c.596 1.28 1.675 2.04 3.049 2.04 1.374 0 2.454-.763 3.05-2.04l.542-1.155v1.345a17.532 17.532 0 0 0 2.205-2.54.267.267 0 0 0 .026-.284 2.37 2.37 0 0 0-4.264-.02l-1.032 2.192a.597.597 0 0 1-1.069 0l-1.033-2.192a2.388 2.388 0 0 0-.878-.963 21.735 21.735 0 0 1 2.217-1.575c.144-.088.282-.184.414-.287.111-.086.091-.221-.108-.138-.15.064-.296.139-.435.224a49.4 49.4 0 0 0-2.217 1.4l-.261.179a2.365 2.365 0 0 0-3.222 2.206v.326c-3.493 3.109-5.324 6.192-4.367 7.557.703 1.006 2.368.773 4.364-.093v1.279z"/></g><defs><clipPath id="a"><path fill="#fff" transform="translate(10 12)" d="M0 0h20v15.852H0z"/></clipPath></defs></svg>