<svg width="40" height="40" fill="none" xmlns="http://www.w3.org/2000/svg"><path fill-rule="evenodd" clip-rule="evenodd" d="M6.495 18.92a1.71 1.71 0 0 1 .258-.3c.378-.33.805-.429 1.28-.252a.918.918 0 0 1 .535.52c.026.055.048.111.069.169.014-.005.015-.017.021-.026.133-.23.301-.428.532-.565.335-.196.689-.247 1.056-.108.326.122.523.37.617.7.067.24.081.486.083.732l.001 1.796c0 .031-.006.042-.04.041a15.173 15.173 0 0 0-.356 0c-.03.001-.034-.008-.034-.036l-.001-1.855a2.186 2.186 0 0 0-.052-.532.679.679 0 0 0-.587-.506c-.52-.064-.974.297-1.09.786-.05.208-.066.42-.07.632-.011.489-.003.976-.006 1.462 0 .056.007.049-.047.049h-.335c-.03.001-.038-.007-.038-.038v-1.634c0-.215-.004-.428-.036-.64-.048-.333-.263-.56-.59-.613a.91.91 0 0 0-.72.192c-.229.174-.353.41-.407.689-.039.21-.05.421-.05.636l.001 1.367c0 .031-.007.042-.04.041a14.467 14.467 0 0 0-.349 0c-.026.001-.033-.006-.033-.032v-3.196c0-.028.008-.033.033-.033.12.002.238.002.357 0 .025 0 .032.006.032.033l-.001.494c0 .007-.003.017.007.026zM26.444 18.95a2.31 2.31 0 0 1 .25-.28c.213-.194.457-.327.744-.369.42-.061.792.032 1.09.349.163.172.25.382.29.613.036.209.049.42.05.631 0 .566 0 1.129.002 1.694 0 .033-.01.04-.04.04-.116-.002-.229-.003-.344 0-.03 0-.038-.01-.038-.04.002-.543.002-1.087 0-1.63-.001-.188-.002-.376-.032-.562a.938.938 0 0 0-.18-.45.713.713 0 0 0-.496-.265 1.015 1.015 0 0 0-.64.107 1.164 1.164 0 0 0-.621.895c-.035.258-.035.517-.035.776v1.118c0 .056.008.05-.05.05-.11 0-.22-.002-.33 0-.03 0-.042-.006-.042-.041.003-.145.002-.29.002-.434 0-.915 0-1.827-.002-2.742 0-.035.01-.044.045-.044.115.002.228.001.343 0 .027 0 .035.007.034.035v.492zM24.318 18.827c.056-.063.104-.129.158-.189.126-.138.268-.253.448-.315a.71.71 0 0 1 .593.059c.016.008.02.017.01.032-.068.105-.132.21-.197.318-.012.02-.023.01-.037.006a.528.528 0 0 0-.196-.047.596.596 0 0 0-.406.175 1.009 1.009 0 0 0-.266.437c-.063.18-.077.366-.09.55-.025.41-.015.822-.017 1.234v.508c0 .025-.007.032-.032.032h-.36c-.032 0-.038-.01-.038-.04V18.95c0-.183.002-.365 0-.549 0-.025.005-.033.033-.033h.366c.027 0 .031.008.031.033v.394z" fill="#e01c37" style="stroke-width:1.4"/><mask id="a" mask-type="alpha" maskUnits="userSpaceOnUse" x="21" y="21" width="2" height="2"><path fill-rule="evenodd" clip-rule="evenodd" d="M21.452 21.837h1.296v.617h-1.296v-.617Z" fill="#fff"/></mask><g mask="url(#a)" transform="matrix(1.4 0 0 1.4 -7.954 -8.09)"><path fill-rule="evenodd" clip-rule="evenodd" d="M22.1 22.22h.54c.064 0 .095.024.105.088.005.04.004.08-.024.115-.02.024-.047.03-.077.03H21.55c-.054 0-.084-.025-.095-.078a.21.21 0 0 1 .001-.083c.011-.047.041-.071.09-.071h.553z" fill="#3cb9ea"/></g><mask id="b" mask-type="alpha" maskUnits="userSpaceOnUse" x="23" y="21" width="2" height="2"><path fill-rule="evenodd" clip-rule="evenodd" d="M23.072 21.837h1.297v.617h-1.297v-.617Z" fill="#fff"/></mask><g mask="url(#b)" transform="matrix(1.4 0 0 1.4 -7.954 -8.09)"><path fill-rule="evenodd" clip-rule="evenodd" d="M23.723 22.22h.548c.058 0 .095.036.097.094.001.027.003.054-.007.08-.016.039-.043.059-.085.059H23.194c-.093 0-.137-.055-.118-.147.013-.063.04-.085.104-.085h.543z" fill="#35b4e8"/></g><mask id="c" mask-type="alpha" maskUnits="userSpaceOnUse" x="24" y="21" width="3" height="2"><path fill-rule="evenodd" clip-rule="evenodd" d="M24.743 21.837h1.296v.617h-1.296v-.617Z" fill="#fff"/></mask><g mask="url(#c)" transform="matrix(1.4 0 0 1.4 -7.954 -8.09)"><path fill-rule="evenodd" clip-rule="evenodd" d="M25.393 22.22h.541c.063 0 .095.029.103.093a.2.2 0 0 1-.005.073.089.089 0 0 1-.09.067h-1.091c-.072 0-.107-.035-.108-.107l.001-.037c.007-.06.04-.088.101-.088z" fill="#2eb1e6"/></g><mask id="d" mask-type="alpha" maskUnits="userSpaceOnUse" x="26" y="21" width="2" height="2"><path fill-rule="evenodd" clip-rule="evenodd" d="M26.365 21.837h1.295v.617h-1.295v-.617Z" fill="#fff"/></mask><g mask="url(#d)" transform="matrix(1.4 0 0 1.4 -7.954 -8.09)"><path fill-rule="evenodd" clip-rule="evenodd" d="M27.016 22.22h.546c.059 0 .096.036.097.095.001.022.003.045-.003.067-.013.047-.042.07-.091.07h-.101c-.326 0-.654-.001-.98.002-.106 0-.127-.071-.117-.145.009-.066.039-.088.106-.088z" fill="#2caee4"/></g><mask id="e" mask-type="alpha" maskUnits="userSpaceOnUse" x="18" y="21" width="2" height="2"><path fill-rule="evenodd" clip-rule="evenodd" d="M18.16 21.837h1.295v.617h-1.294v-.617Z" fill="#fff"/></mask><g mask="url(#e)" transform="matrix(1.4 0 0 1.4 -7.954 -8.09)"><path fill-rule="evenodd" clip-rule="evenodd" d="M18.808 22.453h-.541c-.067 0-.104-.036-.106-.103a.177.177 0 0 1 .009-.072.08.08 0 0 1 .078-.057h1.117c.052 0 .086.037.09.097.001.02 0 .04-.004.06-.012.05-.042.075-.095.075z" fill="#55c0ed"/></g><mask id="f" mask-type="alpha" maskUnits="userSpaceOnUse" x="19" y="21" width="3" height="2"><path fill-rule="evenodd" clip-rule="evenodd" d="M19.83 21.836h1.294v.618H19.83v-.618Z" fill="#fff"/></mask><g mask="url(#f)" transform="matrix(1.4 0 0 1.4 -7.954 -8.09)"><path fill-rule="evenodd" clip-rule="evenodd" d="M20.478 22.22c.18 0 .357.003.536 0 .09-.001.111.06.11.127l-.003.022c-.006.05-.04.084-.093.084h-1.093c-.068 0-.103-.033-.105-.1l.001-.047a.088.088 0 0 1 .091-.085h.556z" fill="#46bdec"/></g><mask id="g" mask-type="alpha" maskUnits="userSpaceOnUse" x="14" y="21" width="3" height="2"><path fill-rule="evenodd" clip-rule="evenodd" d="M14.914 21.837h1.295v.617h-1.295v-.617Z" fill="#fff"/></mask><g mask="url(#g)" transform="matrix(1.4 0 0 1.4 -7.954 -8.09)"><path fill-rule="evenodd" clip-rule="evenodd" d="M15.564 22.22h.545c.062 0 .099.037.1.099 0 .026 0 .052-.01.078-.014.039-.046.056-.086.056h-.308c-.258 0-.516-.003-.774 0-.103.003-.127-.074-.113-.15.012-.062.04-.082.105-.082h.54z" fill="#72c9f0"/></g><mask id="h" mask-type="alpha" maskUnits="userSpaceOnUse" x="27" y="21" width="3" height="2"><path fill-rule="evenodd" clip-rule="evenodd" d="M27.988 21.837h1.293v.617h-1.293v-.617Z" fill="#fff"/></mask><g mask="url(#h)" transform="matrix(1.4 0 0 1.4 -7.954 -8.09)"><path fill-rule="evenodd" clip-rule="evenodd" d="M28.635 22.22h.55c.059 0 .096.037.096.094 0 .026.003.05-.005.076-.014.04-.042.063-.084.063h-1.11c-.046 0-.08-.027-.09-.073a.217.217 0 0 1 0-.088c.013-.048.043-.071.092-.071h.55z" fill="#28abe2"/></g><mask id="i" mask-type="alpha" maskUnits="userSpaceOnUse" x="16" y="21" width="2" height="2"><path fill-rule="evenodd" clip-rule="evenodd" d="M16.538 21.837h1.293v.617h-1.293v-.617Z" fill="#fff"/></mask><g mask="url(#i)" transform="matrix(1.4 0 0 1.4 -7.954 -8.09)"><path fill-rule="evenodd" clip-rule="evenodd" d="M17.184 22.22h.548c.06 0 .093.034.098.092a.347.347 0 0 1 0 .056.088.088 0 0 1-.09.085h-1.092c-.075 0-.109-.033-.11-.107l.001-.042c.008-.054.042-.083.097-.083h.548z" fill="#62c5f0"/></g><mask id="j" mask-type="alpha" maskUnits="userSpaceOnUse" x="11" y="21" width="2" height="2"><path fill-rule="evenodd" clip-rule="evenodd" d="M11.624 21.837h1.294v.617h-1.294v-.617Z" fill="#fff"/></mask><g mask="url(#j)" transform="matrix(1.4 0 0 1.4 -7.954 -8.09)"><path fill-rule="evenodd" clip-rule="evenodd" d="M12.274 22.22h.543c.063 0 .1.036.1.098 0 .029.003.059-.012.087-.018.03-.043.048-.077.048H11.72c-.077-.001-.1-.065-.095-.133a.119.119 0 0 1 .017-.058c.02-.032.05-.041.085-.041z" fill="#95d3f1"/></g><mask id="k" mask-type="alpha" maskUnits="userSpaceOnUse" x="13" y="21" width="2" height="2"><path fill-rule="evenodd" clip-rule="evenodd" d="M13.247 21.837h1.295v.617h-1.295v-.617Z" fill="#fff"/></mask><g mask="url(#k)" transform="matrix(1.4 0 0 1.4 -7.954 -8.09)"><path fill-rule="evenodd" clip-rule="evenodd" d="M13.893 22.453h-.543c-.065 0-.1-.035-.103-.1l.001-.042c.003-.055.04-.09.093-.09h1.093c.073 0 .113.045.107.118 0 .014-.002.028-.004.042-.01.045-.045.072-.093.072z" fill="#85cff0"/></g><mask id="l" mask-type="alpha" maskUnits="userSpaceOnUse" x="10" y="21" width="2" height="2"><path fill-rule="evenodd" clip-rule="evenodd" d="M10 21.837h1.297v.617H10v-.617Z" fill="#fff"/></mask><g mask="url(#l)" transform="matrix(1.4 0 0 1.4 -7.954 -8.09)"><path fill-rule="evenodd" clip-rule="evenodd" d="M10.653 22.22h.534c.067 0 .096.022.106.087.007.043.006.088-.029.122a.093.093 0 0 1-.068.024H10.11c-.062 0-.095-.025-.106-.086a.162.162 0 0 1 .01-.095c.016-.04.051-.051.092-.051z" fill="#a5daf3"/></g><path fill-rule="evenodd" clip-rule="evenodd" d="M18.663 19.599c-.123-.427-.525-.847-1.074-.903a1.296 1.296 0 0 0-.824.175 1.324 1.324 0 0 0-.602 1.387c.14.685.753 1.147 1.433 1.055.325-.045.6-.187.815-.433a1.27 1.27 0 0 0 .31-.865c0-.142-.019-.28-.058-.416zm.44-2.49.002.039c0 1.48 0 2.96.002 4.442 0 .028-.006.038-.035.038a14.351 14.351 0 0 0-.347 0c-.026 0-.033-.007-.033-.034.002-.16 0-.32 0-.48v-.037c-.015.003-.02.014-.028.024-.212.248-.466.44-.782.535-.629.188-1.305.034-1.777-.53a1.674 1.674 0 0 1-.393-1.025 1.642 1.642 0 0 1 .189-.888c.232-.417.568-.718 1.034-.847a1.589 1.589 0 0 1 1.214.123c.21.114.377.275.52.464.004.007.01.012.014.02a.01.01 0 0 0 .007.002c.007-.008.002-.02.002-.028v-1.784l.003-.033z" fill="#e01c37" style="stroke-width:1.4"/><mask id="m" mask-type="alpha" maskUnits="userSpaceOnUse" x="29" y="18" width="1" height="2"><path fill-rule="evenodd" clip-rule="evenodd" d="M29.481 18.89h.289v1h-.289v-1Z" fill="#fff"/></mask><g mask="url(#m)" transform="matrix(1.4 0 0 1.4 -7.954 -8.09)"><path fill-rule="evenodd" clip-rule="evenodd" d="M29.501 19.035a.124.124 0 1 0 .248 0 .125.125 0 0 0-.124-.124.123.123 0 0 0-.124.124zm.258.056a.146.146 0 0 1-.16.087.144.144 0 0 1-.118-.143.144.144 0 0 1 .278-.052.14.14 0 0 1 0 .108z" fill="#e0203a"/></g><path fill-rule="evenodd" clip-rule="evenodd" d="M22.402 19.667h.367c.03.001.035-.007.025-.034-.014-.04-.024-.083-.038-.122a1.096 1.096 0 0 0-.383-.56 1.313 1.313 0 0 0-.906-.262c-.314.026-.58.152-.791.384-.146.158-.23.353-.293.557-.01.032-.005.037.028.037h1.175zm-.606.364c-.475 0-.95 0-1.425-.002-.032 0-.042.006-.04.04.012.236.062.46.187.662.207.334.501.544.897.585.392.039.746-.065 1.046-.324.134-.116.23-.264.32-.414.017-.028.03-.03.058-.015.097.053.196.103.294.154.018.01.024.016.013.036-.167.323-.394.588-.719.763-.205.11-.427.17-.659.188a2 2 0 0 1-.682-.056c-.3-.08-.55-.237-.75-.475a1.754 1.754 0 0 1-.42-.911 1.763 1.763 0 0 1 .403-1.412c.238-.284.536-.469.903-.533.426-.077.841-.038 1.22.189.442.266.705.66.793 1.169.017.102.027.203.028.307.002.057.006.047-.045.047-.474.002-.949.002-1.422.002zM31.561 21.304a1.257 1.257 0 0 0 1.067-1.191 1.317 1.317 0 0 0-.133-.713c-.231-.435-.588-.683-1.088-.71a1.24 1.24 0 0 0-.784.216 1.319 1.319 0 0 0-.435 1.682c.236.47.623.714 1.148.737.077-.002.15-.007.225-.02zm1.043-.233-.098.107a1.597 1.597 0 0 1-.813.485c-.667.152-1.31-.058-1.75-.654a1.646 1.646 0 0 1-.317-.889c-.02-.295.017-.584.149-.851.236-.476.6-.81 1.124-.937.469-.113.915-.05 1.317.237a1.653 1.653 0 0 1 .388.396V18.402c0-.03.007-.036.036-.036.114.003.226.003.34 0 .03 0 .04.007.038.039v3.186c.002.03-.007.037-.036.035h-.346c-.025 0-.032-.005-.032-.032v-.523zM13.13 18.716c-.38.077-.657.297-.854.622-.18.295-.22.62-.15.955.07.336.244.61.53.805.25.168.528.232.827.208a1.21 1.21 0 0 0 .77-.341c.438-.424.529-1.131.201-1.648-.242-.384-.59-.606-1.023-.623a1.373 1.373 0 0 0-.301.022zm.267 2.995c-.325-.001-.613-.059-.876-.214a1.671 1.671 0 0 1-.755-.92 1.688 1.688 0 0 1 .098-1.376c.235-.445.592-.758 1.092-.87 1.061-.238 1.829.405 2.048 1.176a1.725 1.725 0 0 1-.73 1.96 1.54 1.54 0 0 1-.765.238l-.112.006z" fill="#e01c37" style="stroke-width:1.4"/><mask id="n" mask-type="alpha" maskUnits="userSpaceOnUse" x="29" y="18" width="1" height="2"><path fill-rule="evenodd" clip-rule="evenodd" d="M29.565 18.951h.205v1h-.205v-1Z" fill="#fff"/></mask><g mask="url(#n)" transform="matrix(1.4 0 0 1.4 -7.954 -8.09)"><path fill-rule="evenodd" clip-rule="evenodd" d="M29.697 19.114c-.022.008-.03 0-.03-.02l-.002-.02c0-.018-.009-.028-.027-.027h-.005c-.042 0-.042 0-.042.041v.017c0 .01-.003.012-.01.012-.01 0-.016 0-.016-.012v-.143c0-.008.004-.01.012-.01.026 0 .051-.002.076 0a.044.044 0 0 1 .031.072c-.006.008-.009.012 0 .02.008.005.006.015.007.024 0 .016-.002.031.006.046z" fill="#e11f3a"/></g></svg>