<svg width="40" height="40" fill="none" xmlns="http://www.w3.org/2000/svg"><mask id="a" mask-type="alpha" maskUnits="userSpaceOnUse" x="10" y="17" width="20" height="6"><path fill="#fff" d="M10 17.531h20v4.939H10z"/></mask><g mask="url(#a)" transform="matrix(1.4 0 0 1.4 -8 -8)" fill-rule="evenodd" clip-rule="evenodd"><path d="M12.213 20.775a.574.574 0 0 1-.307.121.505.505 0 0 1-.455-.17c-.092-.109-.139-.251-.228-.365-.142-.18-.367-.298-.6-.256a.64.64 0 0 0-.408.991c.371.532 1.207.44 1.635.071.134-.114.258-.241.363-.392zM27.789 20.775a.572.572 0 0 0 .307.121.505.505 0 0 0 .455-.17c.091-.109.139-.251.228-.365.141-.18.367-.298.6-.256a.64.64 0 0 1 .407.991c-.37.531-1.206.44-1.635.072a2.072 2.072 0 0 1-.362-.393" fill="#e51636"/><path d="M26.258 17.94h-1.119c-.12.004-.22.116-.225.23-.006.122.1.242.225.249h1.119c.12-.004.22-.115.225-.23a.247.247 0 0 0-.225-.248zM19.27 20.325a1.126 1.126 0 0 1-.027-.19l-.001-.335c.011-.406.087-1.12-.464-1.12-.371 0-.592.313-.654.415-.009-.285-.234-.492-.578-.492-.219 0-.35.174-.35.174s.215.074.215.362c.002.206 0 1.208 0 1.212.008.178.132.344.354.344.222 0 .36-.17.36-.344v-.89c.03-.144.113-.293.236-.293.16 0 .169.178.17.178l-.001.86a.524.524 0 0 0 .05.206c.085.174.274.287.527.287a.47.47 0 0 0 .35-.175s-.129-.045-.187-.2M24.563 20.325a1.086 1.086 0 0 1-.028-.19v-2.129a.375.375 0 0 0-.75 0l.001 1.886c.002.17-.015.344.065.5.085.173.295.307.548.307.22 0 .35-.175.35-.175s-.128-.045-.186-.2M16.183 18.661a1.019 1.019 0 1 0 0 2.038 1.019 1.019 0 0 0 0-2.038zm.008 1.605h-.005c-.192-.003-.288-.224-.288-.586 0-.36.122-.582.288-.586h.005c.166.004.289.225.289.586 0 .362-.097.583-.29.586z" fill="#fff"/><path d="M21.562 20.325a1.087 1.087 0 0 1-.028-.19v-2.129a.375.375 0 1 0-.749 0l-.002 1.01c-.09-.126-.288-.339-.601-.339-.862 0-.916 1.534-.325 1.913a.824.824 0 0 0 .607.085c.131-.034.338-.163.371-.317a.44.44 0 0 0 .016.034c.085.173.294.307.548.307a.47.47 0 0 0 .35-.175s-.129-.045-.187-.2m-1.117-.123h-.005c-.192-.003-.288-.196-.288-.51 0-.315.122-.508.288-.511h.005c.167.003.289.196.289.51 0 .315-.097.508-.29.51zM23.513 20.068s-.11.151-.536.151c-.427 0-.518-.332-.518-.332.621 0 1.143-.041 1.143-.545 0-.503-.57-.669-.907-.669-.557 0-.964.444-.964 1.03 0 .66.53.996.97.996.775 0 .812-.63.812-.63zm-1.095-.504c.022-.16.06-.363.205-.457.12-.078.288.011.29.161.003.159-.1.267-.242.297-.015.003-.255.015-.253 0M26.513 20.068s-.11.151-.536.151c-.427 0-.518-.332-.518-.332.621 0 1.143-.041 1.143-.545 0-.503-.57-.669-.907-.669-.557 0-.964.444-.964 1.03 0 .66.53.996.97.996.775 0 .812-.63.812-.63zm-1.095-.504c.022-.16.06-.363.205-.457.12-.078.288.011.29.161.003.159-.1.267-.242.297-.015.003-.255.015-.253 0M27.92 20.123h-.427c.031 0 .347-.267.452-.355.275-.233.768-.57.624-1.005v.003c-.026-.103-.105-.163-.105-.163s-.03.084-.132.122a.706.706 0 0 1-.124.02h-1.194a.289.289 0 0 0-.29.275c-.003.15.121.27.28.273l.677.004c-.314.175-.688.382-.878.699-.109.181-.225.461-.181.676.15-.133.545-.262.845-.2.113.024.232.081.33.142.563.352.901-.337.632-.64 0 0-.153.149-.509.149M15.22 20.552c-.346-.38-.454-1.01-.475-1.428-.018-.362.001-.989.286-1.171-.095-.12-.284-.168-.427-.168-.321 0-.476.214-.586.368l-.577.796-.51-.788c-.078-.116-.222-.33-.476-.368-.11-.015-.394-.03-.548.182.266.213.26.756.202 1.126-.174 1.113-.647 1.215-.647 1.215.242.655.867.396 1.043-.126.114-.34.188-.769.205-1.125l.685 1.051.776-1.047c-.128 1.853.508 2.378 1.065 2.378.557 0 .746-.509.746-.509a1.13 1.13 0 0 1-.762-.387M16.957 21.154c.007.027.01.054.012.081v.98c.002.082.077.148.154.152a.166.166 0 0 0 .167-.151v-.877c-.001-.072.006-.147-.028-.213a.259.259 0 0 0-.235-.132c-.094 0-.15.075-.15.075s.055.02.08.085M27.118 22.207a.466.466 0 0 1-.012-.08v-.981c-.002-.081-.077-.148-.154-.152a.166.166 0 0 0-.166.152v.876c0 .073-.006.147.028.214a.259.259 0 0 0 .234.131c.094 0 .15-.074.15-.074s-.055-.02-.08-.086M21.32 21.492c-.168 0-.266.14-.294.186h-.001v-.085c-.003-.08-.077-.14-.154-.144-.082-.004-.163.06-.167.144v.622c.003.08.077.147.154.151a.165.165 0 0 0 .167-.15v-.373h.001c.014-.066.05-.132.106-.132.072 0 .075.08.076.08v.424c.002.08.076.147.153.151a.165.165 0 0 0 .167-.15v-.223c0-.228.023-.502-.209-.501M25.416 21.492c-.167 0-.265.14-.293.186h-.001v-.085c-.003-.08-.078-.14-.154-.144-.082-.004-.163.06-.167.144v.622c.002.08.077.147.154.151a.165.165 0 0 0 .166-.15v-.373h.002c.014-.066.05-.132.106-.132.071 0 .075.08.076.08l-.001.424c.002.08.077.147.154.151a.165.165 0 0 0 .166-.15v-.223c0-.228.024-.502-.208-.501M18.065 21.492c-.166 0-.265.14-.293.186h-.001v-.085c-.003-.08-.077-.14-.154-.144-.082-.004-.163.06-.167.144v.622c.003.08.078.147.154.151a.166.166 0 0 0 .167-.15v-.373h.001c.014-.066.05-.132.106-.132.072 0 .076.08.076.08v.424c.002.08.076.147.153.151a.166.166 0 0 0 .167-.15v-.223c0-.228.023-.502-.209-.501M24.254 21.451a.456.456 0 1 0 0 .913.456.456 0 0 0 0-.913zm.003.72h-.002c-.086-.002-.13-.101-.13-.263s.055-.26.13-.263h.002c.075.002.13.101.13.263s-.044.26-.13.263zM22.55 21.582c-.004-.084-.083-.154-.163-.158a.173.173 0 0 0-.175.158v.022a.338.338 0 0 0-.27-.151c-.386 0-.41.687-.146.857a.37.37 0 0 0 .272.038.28.28 0 0 0 .151-.106c.02.067.087.119.156.122.085.004.17-.07.174-.158v-.624m-.49.553h-.002c-.086 0-.129-.087-.129-.228 0-.141.055-.228.13-.23h.001c.075.002.13.089.13.23 0 .14-.043.227-.13.228zM26.642 21.582c-.002-.084-.082-.154-.162-.158a.173.173 0 0 0-.175.158v.022a.338.338 0 0 0-.27-.151c-.386 0-.41.687-.146.857a.37.37 0 0 0 .272.038.28.28 0 0 0 .152-.106c.02.067.086.119.155.122.085.004.17-.07.174-.158v-.624m-.49.553h-.001c-.086 0-.13-.087-.13-.228 0-.141.055-.228.13-.23h.002c.074.002.13.089.13.23 0 .14-.044.227-.13.228zM23.697 21.669a.157.157 0 0 0-.145-.15h-.014c-.071 0-.161.061-.161.139v.556c.004.08.066.142.145.149l.014.001c.071 0 .161-.061.161-.14v-.556zM23.696 21.269a.159.159 0 1 1-.318 0 .159.159 0 0 1 .318 0zM20.449 21.48c-.095.005-.142.075-.207.165v-.043c-.002-.08-.077-.147-.154-.151a.165.165 0 0 0-.166.15v.616c.002.08.076.148.153.151.081.004.161-.065.167-.148v-.39c.005-.057.03-.129.076-.128.065 0-.002.157.147.157.214 0 .237-.389-.016-.378M19.795 22.081s-.049.068-.24.068c-.192 0-.233-.149-.233-.149.28 0 .513-.018.513-.244s-.255-.3-.406-.3c-.25 0-.433.199-.433.462 0 .296.238.446.435.446.348 0 .364-.283.364-.283zm-.49-.226c.009-.072.026-.163.091-.205.054-.035.13.005.13.073.002.07-.044.12-.108.133a.506.506 0 0 1-.114 0M18.977 22.196s-.083.168-.238.168c-.126 0-.282-.112-.289-.274l-.001-.43h-.043c-.023 0-.063-.013-.063-.071 0-.059.045-.071.067-.071h.038V21.4a.165.165 0 0 1 .166-.15c.077.003.153.07.156.15v.118h.135c.02 0 .063.012.063.072s-.044.07-.067.07h-.131v.359c0 .116.1.176.207.177M23.264 22.196s-.083.168-.237.168c-.127 0-.283-.112-.29-.274v-.43h-.044c-.022 0-.062-.013-.062-.071 0-.059.045-.071.067-.071h.038V21.4a.165.165 0 0 1 .166-.15c.076.003.153.07.155.15v.118h.136c.019 0 .062.012.062.072s-.043.07-.067.07h-.13v.359c0 .116.1.176.207.177" fill="#fff"/></g></svg>