<svg width="40" height="40" fill="none" xmlns="http://www.w3.org/2000/svg"><path fill-rule="evenodd" clip-rule="evenodd" d="M28.974 17.932v2.873a.32.32 0 0 0 .15.277c.082.055.203.082.365.082a1.2 1.2 0 0 0 .238-.034v-.257c-.04.002-.077.004-.117.004-.241 0-.277-.094-.277-.199v-2.746zm-7.598.029c-.271 0-.517.085-.69.238a.764.764 0 0 0-.263.578c0 .246.1.438.306.589.183.133.424.219.656.301.404.144.783.275.783.642a.524.524 0 0 1-.16.398c-.116.105-.282.156-.501.156-.384 0-.664-.213-.822-.627l-.345.092c.075.168.201.41.384.574.201.18.45.267.763.267.371 0 .652-.095.837-.287a.904.904 0 0 0 .233-.632c0-.255-.108-.452-.326-.607-.19-.137-.436-.225-.675-.306-.39-.134-.763-.26-.759-.589a.453.453 0 0 1 .15-.355c.1-.084.239-.126.419-.126.19 0 .358.053.486.156a.715.715 0 0 1 .243.389l.336-.044c-.148-.502-.507-.807-1.055-.807zM6 18.005v3.12h.36v-2.853l.01.01.855 2.843h.277l.86-2.843.005-.01v2.853h.36v-3.12H8.13l-.763 2.508v.01l-.005-.01-.763-2.508zm17.126.063v.748h-.345v.287h.345v1.702c0 .142.064.224.14.277.083.055.203.082.365.082.103 0 .243-.034.243-.034v-.257c-.04.002-.081.004-.121.004-.242 0-.268-.094-.268-.199v-1.575h.39v-.287h-.39v-.748zm-12.94.705a.909.909 0 0 0-.74.35c-.166.212-.257.513-.257.845 0 .333.091.633.258.846.179.229.435.35.738.35.305 0 .56-.121.74-.35.166-.213.257-.513.257-.846 0-.332-.091-.633-.258-.845a.907.907 0 0 0-.739-.35zm20.752.004c-.154 0-.297.029-.419.083a.816.816 0 0 0-.306.238c-.163.205-.257.508-.257.875 0 .41.117.721.33.929.225.22.511.262.71.262.516 0 .77-.279.875-.534l-.287-.141c-.07.155-.23.393-.588.393a.596.596 0 0 1-.491-.238c-.115-.15-.18-.356-.18-.603H31.9v-.218c0-.378-.1-.66-.287-.832-.158-.145-.38-.214-.676-.214zm-17.068.005c-.406 0-.982.273-.982 1.191 0 .892.575 1.191.963 1.191.226 0 .432-.125.573-.306l.02-.01v.438c0 .307-.266.496-.55.496a1.7 1.7 0 0 1-.719-.146v.31c.168.073.441.118.676.118.638 0 .943-.352.943-.86v-2.378h-.268l-.077.243a.679.679 0 0 0-.579-.287Zm2.324 0a.924.924 0 0 0-.856.496l.287.15c.04-.108.185-.359.574-.359.306 0 .461.135.461.404v.082s.003.025-.004.034c-.012.015-.044.026-.122.034-.429.048-.714.119-.924.253-.227.146-.369.351-.369.632 0 .2.097.37.224.491.118.112.279.17.457.175.378.012.627-.145.748-.33.01.127.055.2.156.252.094.05.25.04.316.025v-.244c-.08-.004-.132-.042-.132-.14v-1.26a.63.63 0 0 0-.262-.54.968.968 0 0 0-.554-.155zm2.474 0c-.234 0-.474.122-.676.35v-.306h-.36v2.304h.36v-1.71c.123-.132.397-.35.647-.35s.36.122.36.398v1.662h.36v-1.672c0-.498-.355-.676-.691-.676zm6.51 0a.925.925 0 0 0-.856.496l.286.15c.04-.108.185-.359.574-.359.306 0 .462.135.462.404v.082s-.003.025-.01.034c-.011.015-.039.026-.117.034-.429.048-.714.119-.923.253-.228.146-.37.351-.37.632 0 .2.097.37.224.491.118.112.28.17.457.175.378.012.628-.145.748-.33.01.127.055.2.156.252.094.05.25.04.316.025v-.244c-.08-.003-.131-.042-.131-.14v-1.26a.634.634 0 0 0-.268-.54.953.953 0 0 0-.549-.155zm2.473 0c-.234 0-.473.122-.675.35v-.306h-.36v2.304h.36v-1.71c.122-.132.396-.35.646-.35s.36.122.36.398v1.662h.36v-1.672c0-.498-.354-.676-.69-.676zm-14.899.01c-.365 0-.581.142-.768.476v-.442h-.36v2.3h.36v-1.303c.089-.474.34-.696.768-.696zm19.391.03.802 2.284v.02c-.048.218-.186.489-.311.573a.55.55 0 0 1-.32.083c-.045 0-.137-.015-.176-.025v.277c.05.013.165.034.238.034a.72.72 0 0 0 .438-.13c.145-.106.307-.382.384-.618L34 18.82h-.35l-.525 1.77-.005.039-.01-.04-.617-1.769Zm-21.958.237c.388 0 .618.34.618.91 0 .569-.23.908-.618.908-.386 0-.617-.34-.617-.909s.23-.909.617-.909zm3.71.005c.202 0 .38.088.549.297v1.098c-.093.265-.36.418-.55.418-.37 0-.627-.23-.627-.923 0-.583.23-.89.627-.89zm17.052 0c.412 0 .597.218.598.69h-1.21c.031-.471.229-.69.612-.69zm-14.277.812v.583c-.016.202-.393.446-.7.428-.17-.009-.333-.146-.35-.37-.028-.373.253-.528.88-.597a.515.515 0 0 0 .17-.044zm8.983 0v.583c-.016.202-.392.446-.7.428-.169-.01-.333-.146-.35-.37-.028-.373.253-.528.88-.597a.517.517 0 0 0 .17-.044z" fill="#fff" style="stroke-width:1.4"/></svg>