<svg width="40" height="40" fill="none" xmlns="http://www.w3.org/2000/svg"><mask id="a" mask-type="alpha" maskUnits="userSpaceOnUse" x="19" y="11" width="11" height="14"><path fill-rule="evenodd" clip-rule="evenodd" d="M19.811 11.74H30v12.446H19.811V11.74Z" fill="#fff"/></mask><g mask="url(#a)" transform="matrix(1.4 0 0 1.4 -8.022 -8)"><path fill-rule="evenodd" clip-rule="evenodd" d="M25.099 11.74 20.79 23.576a.826.826 0 0 1-.693.539v.005h4.555a.824.824 0 0 0 .775-.543l4.31-11.839z" fill="#0996c7"/></g><path fill-rule="evenodd" clip-rule="evenodd" d="M19.594 25.518c.37 0 .694-.183.892-.462.02-.029.093-.13.144-.268l2.212-6.082-1.294-3.552a1.094 1.094 0 0 0-1.9-.21 1.227 1.227 0 0 0-.144.268l-2.213 6.08 1.3 3.566c.173.4.567.66 1.003.66z" fill="#0996c7" style="stroke-width:1.4"/><mask id="b" mask-type="alpha" maskUnits="userSpaceOnUse" x="10" y="15" width="11" height="14"><path fill-rule="evenodd" clip-rule="evenodd" d="M10 15.507h10.189v12.754H10V15.507Z" fill="#fff"/></mask><g mask="url(#b)" transform="matrix(1.4 0 0 1.4 -8.022 -8)"><path fill-rule="evenodd" clip-rule="evenodd" d="M20.063 15.878H15.46a.826.826 0 0 0-.777.544l-4.31 11.838h4.64l4.309-11.837a.825.825 0 0 1 .742-.543z" fill="#0996c7"/></g></svg>