<svg width="40" height="40" fill="none" xmlns="http://www.w3.org/2000/svg"><path d="m21.967 6.117-.01 6.04-.011 6.04-.492-1.402v-.004l-.637 13.447c.626 1.783.961 2.736.965 2.74.003.003.36.025.79.046 1.304.065 2.92.205 4.15.36.284.036.526.054.544.04.018-.015.022-6.163.018-13.666l-.01-13.641ZM12.37 6.099v13.655c0 7.51.006 13.662.017 13.673.01.01.47-.036 1.026-.097.555-.061 1.32-.14 1.702-.173a98.18 98.18 0 0 1 2.536-.165c.06 0 .064-.306.07-5.785l.012-5.785.423 1.208c.064.187.086.245.15.428l.637-13.443-.217-.622-.98-2.797-.035-.1H12.37z" fill="#b30a13" style="stroke-width:1.4"/><path d="m12.37 6.099 5.359 15.334v-.007l.424 1.208a3848.47 3848.47 0 0 0 3.625 10.344c.004.003.36.025.79.046a60.24 60.24 0 0 1 4.15.36c.281.036.527.054.541.04l-5.313-15.23v.003l-.492-1.402-2.735-7.802c-.52-1.485-.962-2.74-.98-2.797l-.035-.1h-2.667z" fill="#e50914" style="stroke-width:1.4"/></svg>