<svg width="40" height="40" fill="none" xmlns="http://www.w3.org/2000/svg"><mask id="a" mask-type="alpha" maskUnits="userSpaceOnUse" x="10" y="16" width="20" height="8"><path fill-rule="evenodd" clip-rule="evenodd" d="M10 16h20v7.128H10V16Z" fill="#fff"/></mask><g mask="url(#a)" transform="matrix(1.4 0 0 1.4 -8 -7.826)"><path fill-rule="evenodd" clip-rule="evenodd" d="M12.206 23.125c-.596-.023-1.084-.187-1.465-.489a3.018 3.018 0 0 1-.304-.305 1.898 1.898 0 0 1-.33-.594c-.215-.646-.104-1.493.318-2.424.361-.797.92-1.587 1.892-2.681.144-.161.571-.632.574-.632l-.052.089c-.253.424-.47.924-.587 1.356-.19.694-.167 1.288.066 1.75.161.318.438.594.748.746.544.266 1.34.288 2.313.064.066-.015 3.384-.896 7.371-1.956L30 16.121c.001.001-9.264 3.965-14.072 6.022-.762.326-.966.408-1.324.534-.916.321-1.735.474-2.398.448z" fill="#fff"/></g></svg>