<svg width="40" height="40" fill="none" xmlns="http://www.w3.org/2000/svg"><g clip-path="url(#a)" transform="matrix(1.4 0 0 1.4 -8 -8)"><mask id="b" mask-type="alpha" maskUnits="userSpaceOnUse" x="10" y="17" width="20" height="6"><path fill="#fff" d="M10 17.788h20v4.425H10z"/></mask><g mask="url(#b)" fill-rule="evenodd" clip-rule="evenodd" fill="#fff"><path d="M19.777 19.753h.507v-.667h.099c.011.047.243.42.287.492.025.04.085.134.096.175h.606c-.022-.033-.04-.066-.062-.1l-.445-.691c.175-.04.322-.238.322-.458 0-.213-.028-.375-.196-.508a.722.722 0 0 0-.46-.147h-.754zm.483-1.52h.21a.21.21 0 0 1 .21.21v.057a.21.21 0 0 1-.21.21h-.21zM12.114 18.752v.086c0 .778.84 1.175 1.474.906.12-.05.237-.126.322-.21.077-.077.166-.197.212-.307.11-.265.13-.575.01-.838-.154-.344-.51-.601-.881-.601-.302 0-.449.007-.71.18-.066.044-.08.06-.134.113a.927.927 0 0 0-.293.67zm.488.026v.046c0 .416.45.629.789.485a.565.565 0 0 0 .172-.113.558.558 0 0 0 .12-.612.542.542 0 0 0-.473-.322c-.161 0-.24.004-.38.097-.035.023-.042.031-.071.06a.496.496 0 0 0-.157.359zM10 19.753h.507V18.64l.817 1.049c.018.023.036.063.073.063h.494v-1.904h-.507v1.113l-.775-.98c-.148-.18-.01-.133-.609-.133ZM12.114 21.162v.062c0 .538.415.989.951.989.436 0 .783-.14.94-.569.076-.208.074-.36.074-.58h-.952v.395h.433a.346.346 0 0 1-.14.231.488.488 0 0 1-.787-.417c0-.271.05-.577.33-.646.25-.06.548.08.585.238.06-.005.157-.071.21-.098l.198-.112a.635.635 0 0 0-.133-.188c-.057-.057-.104-.104-.174-.148-.169-.107-.342-.146-.571-.146-.534 0-.964.458-.964.99zM14.363 22.114c0 .028.009.037.037.037h.433c.028 0 .037-.009.037-.037v-.63c.125 0 .083-.022.19.156l.208.348.05.085c.018.03.036.078.071.078h.532c.043 0 .05.004-.007-.079a1.598 1.598 0 0 1-.068-.106c-.041-.069-.088-.128-.131-.202l-.264-.404c.097-.052.159-.07.223-.16a.677.677 0 0 0 .045-.627c-.018-.035-.026-.058-.049-.087a.607.607 0 0 0-.479-.239h-.828Zm.49-1.483h.217c.12 0 .217.098.217.217v.043c0 .12-.097.217-.217.217h-.217zM14.475 19.753h.47c.028 0 .036-.009.036-.037v-.63c.115 0 .08-.015.18.153l.302.514h.594c-.013-.053-.09-.15-.121-.2l-.314-.49c-.023-.035-.049-.06-.06-.101.458-.107.492-1.113-.321-1.113h-.766zm.477-1.52h.21a.21.21 0 0 1 .21.21v.057a.21.21 0 0 1-.21.21h-.21ZM25.525 18.356h3.968v3.758c0 .028.009.037.037.037h.433c.029 0 .037-.009.037-.037v-4.265h-4.475v.507zM21.434 18.789c0 .169.033.325.086.445.168.377.55.593.964.593.98 0 1.368-1.135.764-1.74-.261-.26-.49-.3-.85-.3-.483 0-.964.43-.964 1.002zm.49-.012v.047c0 .416.449.628.788.484a.56.56 0 0 0 .172-.112.56.56 0 0 0 .12-.613.541.541 0 0 0-.472-.322c-.162 0-.24.004-.38.097-.036.023-.043.032-.072.06a.496.496 0 0 0-.157.36zM20.791 22.15h.494V21.04c.011.012-.001-.004.017.02l.426.662c.066.105.006.084.3.084.034 0 .052-.049.07-.078l.246-.384c.045-.069.142-.238.19-.292v.99c-.003.145-.053.11.47.11.028 0 .037-.009.037-.037v-1.867h-.482c-.04 0-.134.167-.171.225l-.472.74c-.04-.03-.478-.742-.544-.841-.023-.036-.063-.08-.074-.124h-.507v1.904zM18.146 22.15h.494v-1.1c.038.028.456.696.495.755h.272c.01-.04.209-.336.237-.381l.119-.19.126-.183v1.1h.494v-1.904h-.507c-.013.056-.33.53-.38.608-.04.063-.195.328-.238.356-.05-.076-.097-.158-.148-.235-.056-.083-.446-.687-.457-.729h-.507ZM25.525 22.114c0 .028.009.037.038.037.508 0 .472.035.47-.098v-1.014c.053.035.656.85.763.979.146.176-.003.133.596.133v-1.904h-.494v1.113l-.764-.98c-.146-.177.004-.133-.609-.133zM17.726 19.753h.507v-.73h.68v.73h.506v-1.904h-.507v.668h-.68v-.668h-.506zM23.288 22.15h.494c.045 0 .065-.09.092-.167.024-.069.041-.132.07-.19h.654c.005.061.043.133.06.187.026.075.047.17.089.17h.506c-.002-.098-.649-1.717-.692-1.903h-.58l-.259.706-.09.244-.088.233c-.038.096-.255.666-.256.72zm1.17-.746h-.409l.215-.577.193.577zM16.119 21.558c0 .399.384.655.766.655h.111c.453 0 .804-.277.804-.73v-1.236h-.507v1.237a.28.28 0 0 1-.096.2c-.16.14-.572.1-.572-.188v-1.249h-.506zM23.832 19.753h.507v-.655c.304 0 .576.037.776-.164a.549.549 0 0 0 .159-.298.747.747 0 0 0-.031-.405.513.513 0 0 0-.116-.193.551.551 0 0 0-.442-.189h-.853zm.512-1.52h.218c.12 0 .217.097.217.217v.043c0 .12-.098.217-.217.217h-.218zM16.119 18.356h.407v1.397h.495v-1.397h.37c.03 0 .038-.009.038-.037v-.432c0-.029-.009-.038-.037-.038h-1.273z"/></g></g><defs><clipPath id="a"><path fill="#fff" d="M0 0h40v40H0z"/></clipPath></defs></svg>