<svg width="40" height="40" fill="none" xmlns="http://www.w3.org/2000/svg"><g clip-path="url(#a)" transform="matrix(1.4 0 0 1.4 -8 -8)" fill-rule="evenodd" clip-rule="evenodd"><path d="m23.014 17.863-1.619 2.132 1.62 2.166h-2.212l-.804-1.072-.827 1.072h-2.189l1.631-2.166-1.63-2.2h2.097l.947 1.334.877-1.266zM14.283 20.967c.304-.015.244-.41.244-.41s-.016-.685 0-1.095c.014-.411-.35-.32-.35-.32H12.49c-.274 0-.243.29-.243.29v1.124c-.076.32.243.41.243.41s1.49.016 1.793 0zm1.976-2.238c-.015.943 0 2.676 0 2.676s.243.806-.79.829c-1.034.023-4.166 0-4.166 0s-.927-.144-.927-.829V18.73s.077-.872 1.003-.861c.927.01 4.134 0 4.134 0s.76-.08.746.861zM29.624 17.77l-2.118 2.718.005 1.673-1.855-.01.02-1.705-2.087-2.677h1.984l1.043 1.374.942-1.374z" fill="#ed1c2e"/><path d="M29.121 16.268h-5.449c-1.262-2.154-4.011-3.981-7.157-3.743-2.673.203-4.498 1.892-5.778 3.743 1.565-3.202 4.074-5.92 8.404-6.237 5.069-.373 8.49 2.67 9.98 6.237zM23.392 27.494c2.674-.187 4.509-1.865 5.799-3.709-1.583 3.193-4.11 5.896-8.44 6.189-5.07.343-8.475-2.72-9.944-6.297l5.45.033c1.25 2.16 3.988 4.005 7.135 3.784z" fill="#005bac"/></g><defs><clipPath id="a"><path fill="#fff" d="M0 0h40v40H0z"/></clipPath></defs></svg>