<svg width="40" height="40" fill="none" xmlns="http://www.w3.org/2000/svg"><g clip-path="url(#a)" transform="matrix(1.4 0 0 1.4 -8 -7.849)"><g clip-path="url(#b)"><path d="M29.995 19.645c0-2.136-.002-4.272.004-6.407 0-.188-.05-.237-.236-.237-4.028.005-8.057.006-12.085-.001-.207 0-.248.062-.243.253.014.447-.001.896.009 1.344.003.149-.053.197-.19.204a6.482 6.482 0 0 0-1.427.266c-2.192.627-4.057 1.822-5.747 3.318-.077.069-.104.13-.056.232.093.195.165.4.258.595.678 1.402 1.576 2.64 2.778 3.64 1.199.996 2.57 1.619 4.125 1.8.211.025.272.1.26.307-.019.342.01.687-.01 1.03-.013.215.065.254.264.254 4.013-.005 8.026-.005 12.04 0 .203.001.262-.048.261-.257-.008-2.114-.005-4.228-.005-6.341zM17.44 21.483c0 .021-.007.042-.015.084-.47-.15-.856-.422-1.19-.766a4.53 4.53 0 0 1-.988-1.609c-.031-.084-.07-.165.014-.246.554-.54 1.168-.952 1.98-.959.136-.001.203.023.202.182-.005 1.104-.003 2.209-.003 3.314zm.01 1.076h-.004c-.002.29-.01.579-.002.868.004.15-.035.195-.191.17A5.574 5.574 0 0 1 14.47 22.3c-1.093-.93-1.839-2.103-2.36-3.43-.052-.131-.029-.219.056-.32 1.163-1.4 2.631-2.292 4.416-2.657.226-.046.457-.066.685-.103.14-.022.181.032.176.17-.01.261-.01.523 0 .783.005.14-.035.195-.179.215a6.48 6.48 0 0 0-2.582.952 7.176 7.176 0 0 0-1.027.79c-.074.068-.131.128-.087.249.552 1.512 1.448 2.716 2.982 3.355a3.911 3.911 0 0 0 .752.228c.047.01.095.018.143.026v-.003l.004-.001.009-.579v-.195c-.001-.114.04-.143.148-.115 1.101.284 2.079-.04 2.997-.622.982-.623 1.787-1.44 2.51-2.343.089-.112.101-.187.001-.302-1.134-1.312-2.486-2.27-4.224-2.598a3.974 3.974 0 0 0-1.18-.067c-.185.02-.28-.02-.254-.235.02-.169.012-.343.001-.514-.008-.133.031-.176.171-.185a7.617 7.617 0 0 1 2.89.38c1.847.615 3.362 1.718 4.639 3.169.072.081.129.143.024.26-1.127 1.25-2.377 2.348-3.866 3.156-1.19.645-2.442.992-3.809.777-.018-.003-.038.007-.057.013v.005l-.003-.004Zm.011-5.098c0-.239 0-.369.051-.44a.162.162 0 0 1 .053-.046.29.29 0 0 1 .081-.026.674.674 0 0 1 .053-.008c.066-.008.151-.01.26-.012 1.355-.027 2.452.533 3.366 1.5.079.083.06.133-.017.198-.492.412-.983.826-1.471 1.242-.089.075-.123.028-.168-.047a37.302 37.302 0 0 0-.479-.782c-.355-.562-.833-.953-1.515-1.036-.182-.022-.242-.101-.217-.275a.822.822 0 0 0 .006-.133l-.003-.135zm10.652 4.185c-1.043.754-2.208 1.269-3.406 1.712a23.447 23.447 0 0 1-4.317 1.146c-.691.114-1.389.192-2.093.204-.224-.013-.447-.031-.67-.037-.125-.003-.172-.05-.168-.175.007-.224.006-.448 0-.672-.002-.111.021-.158.15-.148 2.632.209 4.873-.767 6.93-2.295a28.694 28.694 0 0 0 1.518-1.22c.066-.056.114-.123.227-.057.597.352 1.203.689 1.8 1.041.392.233.388.242.03.501z" fill="#75b857"/></g></g><defs><clipPath id="a"><path fill="#fff" d="M0 0h40v40H0z"/></clipPath><clipPath id="b"><path fill="#fff" transform="translate(10 13)" d="M0 0h20v13.243H0z"/></clipPath></defs></svg>