<svg width="40" height="40" fill="none" xmlns="http://www.w3.org/2000/svg"><path fill-rule="evenodd" clip-rule="evenodd" d="M34 20.53c0 7.594-6.155 13.75-13.75 13.75-7.594 0-13.705-6.156-13.705-13.75 0-7.55 6.11-13.706 13.706-13.706C27.845 6.824 34 12.98 34 20.53z" fill="#d1d3d6" style="stroke-width:1.4"/><path fill-rule="evenodd" clip-rule="evenodd" d="M33.455 19.425c0 7.595-6.155 13.751-13.75 13.751S6 27.02 6 19.426C6 11.875 12.11 5.72 19.705 5.72s13.75 6.156 13.75 13.704z" fill="url(#a)" style="fill:url(#a);stroke-width:1.4"/><path fill-rule="evenodd" clip-rule="evenodd" d="M15.542 26.097c2.054 0 3.032-1.593 3.032-2.923v-7.397c0-1.43-.77-2.977-2.979-2.977-2.462 0-3.286 1.548-3.286 2.977v7.441c0 1.033.57 2.88 3.233 2.88zm-.046-11.143c.561 0 .77.47.77.933v7.232a.815.815 0 0 1-.825.824c-.515 0-.769-.517-.769-.824v-7.287c0-.407.308-.878.824-.878zM22.73 25.835c0 .154 0 .154-.101.154h-1.847c-.108 0-.108 0-.108-.154V13.062c0-.154 0-.154.154-.154h2.209c.154 0 .154 0 .208.154.253 1.131.924 3.44 1.747 6.31.045.207.099.153.099-.1v-6.21c0-.154 0-.154.154-.154 0 0 .154.046.362.046.508 0 1.385-.046 1.43-.046.11 0 .11 0 .11.154v12.773c0 .154 0 .154-.11.154h-2c-.1 0-.154 0-.154-.154-.507-1.793-1.131-3.947-2-6.98-.055-.153-.154-.153-.154 0v6.98z" fill="#fefefe" style="stroke-width:1.4"/><defs><radialGradient id="a" cx="0" cy="0" r="1" gradientUnits="userSpaceOnUse" gradientTransform="matrix(13.72776 0 0 13.72815 14.237 13.134)"><stop stop-color="#FEFEFE"/><stop offset=".361" stop-color="#84C5B3"/><stop offset="1" stop-color="#00A358"/></radialGradient></defs></svg>