<svg width="40" height="40" fill="none" xmlns="http://www.w3.org/2000/svg"><g clip-path="url(#a)" transform="matrix(1.4 0 0 1.4 -7.994 -8.087)"><g clip-path="url(#b)"><path fill-rule="evenodd" clip-rule="evenodd" d="M16.207 14.008h7.558c3.414 0 6.207 2.794 6.207 6.21s-2.793 6.21-6.207 6.21h-7.558c-3.414 0-6.207-2.794-6.207-6.21s2.793-6.21 6.207-6.21zm.276 2.222h7.006a4 4 0 0 1 3.987 3.988 4 4 0 0 1-3.987 3.988h-7.006a4 4 0 0 1-3.987-3.988 4 4 0 0 1 3.987-3.988z" fill="#e65947"/></g></g><defs><clipPath id="a"><path fill="#fff" d="M0 0h40v40H0z"/></clipPath><clipPath id="b"><path fill="#fff" transform="translate(10 14)" d="M0 0h20v12.448H0z"/></clipPath></defs></svg>