<svg width="40" height="40" fill="none" xmlns="http://www.w3.org/2000/svg"><path fill-rule="evenodd" clip-rule="evenodd" d="m18.586 7.505 2.003-.012-.956-1.035zm-1.924 1.912 4.176-.013-2.186-1.192-.89.08Zm-.56.668-.985.955h5.865l-2.686-.955zm-1.757 1.754-1.073 1.034h7.697l-3.365-1.244Zm-1.82 1.754-1.034 1.047h9.543l-3.94-1.178Zm-1.859 1.832-1.008 1.048h11.298l-4.542-1.244ZM8.991 17.18l-.982.982h12.764l-4.543-1.178zm-2.042 2.03-.812.85h14.636l-4.66-1.217Zm-.04 1.767.865.785h12.972l-4.477-1.178zm1.833 1.766.76.786h10.995l-3.953-1.047zm1.728 1.833.917.851h9.294l-4.02-1.178zm1.65 1.57.85.917h7.645l-3.626-1.047Zm1.662 1.638 1.086 1.178h5.538l-2.958-1.113zm1.689 1.701 1.099 1.113 3.587.013-2.383-1.126zm1.806 1.833.995 1.047h1.505l-1.348-1.047zm1.637 1.597L20 34v-1.113zm1.151-26.403h.524L20.065 6Zm.786 1.112.458.59h1.02l-.536-.59Zm.249 1.849.903.47h1.937l-.406-.486zm.393 1.607 1.243.537 2.775-.144-.432-.432zm.065 1.859 1.466.576 4.424-.118-.458-.471zm0 1.754 2.134.628 5.537-.105-.576-.523zm.065 1.833 2.37.654 6.95-.196-.497-.524zm-.13 1.701 2.67.72 8.613-.196-.537-.524zm.065 1.768 2.8.72 9.086-.288.419-.432zm0 1.767 2.173.72 7.893-.262.472-.458zm-.262 1.767 2.435.654 6.205-.261.497-.393zm.013 1.846 1.833.575 5.013-.196.393-.393zm-.013 1.819 1.335.525 3.613-.067.406-.392zM21.1 28.96l1.387.523h1.924l.485-.498zm-.459 1.701 1.192.524h.955l.498-.524zm-.248 1.833.589.524.55-.498z" fill="#0097d5" style="stroke-width:1.4"/></svg>