<svg width="40" height="40" fill="none" xmlns="http://www.w3.org/2000/svg"><path fill-rule="evenodd" clip-rule="evenodd" d="M19.712 33.637c-.144-.058-.27-.11-.396-.163-3.36-1.427-6.717-2.856-10.079-4.273-.318-.134-.426-.24-.228-.582a30.15 30.15 0 0 0 1.146-2.19c.17-.364.335-.365.665-.22 2.787 1.217 5.586 2.407 8.371 3.625.374.162.674.172 1.05.007 2.786-1.22 5.587-2.406 8.37-3.63.384-.17.53-.097.7.256.356.742.742 1.472 1.144 2.191.158.281.106.392-.182.514-3.416 1.443-6.826 2.898-10.239 4.35-.106.044-.218.079-.322.115z" fill="#fff" style="stroke-width:1.4"/><mask id="a" mask-type="alpha" maskUnits="userSpaceOnUse" x="12" y="10" width="16" height="15"><path fill-rule="evenodd" clip-rule="evenodd" d="M12.254 10.002h14.948v14.926H12.254V10.002Z" fill="#fff"/></mask><g mask="url(#a)" transform="matrix(1.4 0 0 1.4 -7.89 -7.94)"><path fill-rule="evenodd" clip-rule="evenodd" d="M19.715 22.63c2.832.006 5.152-2.301 5.159-5.126a5.141 5.141 0 0 0-5.14-5.18 5.144 5.144 0 0 0-5.16 5.12c-.008 2.86 2.292 5.182 5.141 5.187zm-7.46-5.257c.046-4.217 3.605-7.618 7.984-7.357 4.01.24 7.166 3.786 6.952 7.84a7.468 7.468 0 0 1-7.898 7.06 7.447 7.447 0 0 1-7.038-7.543z" fill="#fff"/></g></svg>