<svg width="40" height="40" fill="none" xmlns="http://www.w3.org/2000/svg"><g clip-path="url(#a)" transform="matrix(1.4 0 0 1.4 -8 -8)"><path fill-rule="evenodd" clip-rule="evenodd" d="M29.613 20.804h-.645v1.8h-1.126l.001-2.148c.016-.218.169-.381.354-.501.375-.234.953-.125 1.416-.146m-2.017 1.687h-1.15v-.81h-.191v.99h1.341v.929s-1.167-.005-1.744-.005c-.354-.055-.735-.31-.816-.68-.05-.447-.055-.93.005-1.372.022-.294.245-.555.517-.658.56-.174 1.262-.18 1.768.13l.109.088c.185.179.141.424.163.669-.005.234-.002.719-.002.719zm-3.554 1.109-.517-.885v.885h-1.128v-3.996h1.128v2.087l.528-.888h1.195l-.784 1.366.79 1.43zm-1.817-1.801h-.645v1.8h-1.12s-.01-1.452 0-2.148c0-.3.304-.5.555-.593.359-.11 1.21-.054 1.21-.054v.995zm-2.016 1.8-2.067-.005c-.234-.049-.473-.19-.583-.419-.108-.277-.141-.636.028-.897.3-.376 1.289-.294 1.289-.294v.765h.19v-.97H17.86v-.958h1.665c.24.006.462.146.582.358a.98.98 0 0 1 .109.457zm-4.37-.679v.68h-1.593v-1.616h1.855v-1.3h-1.855v-1.08l1.926-.014c.522-.01 1.017.18 1.29.647.299.582.342 1.458-.017 2.03-.375.511-.987.664-1.607.653zm-5.82-5.675v3.623h5.872v.93h-5.872v2.947H29.98v-7.5z" fill="#fff"/></g><defs><clipPath id="a"><path fill="#fff" d="M0 0h40v40H0z"/></clipPath></defs></svg>