<svg width="40" height="40" fill="none" xmlns="http://www.w3.org/2000/svg"><mask id="a" mask-type="alpha" maskUnits="userSpaceOnUse" x="12" y="9" width="17" height="21"><path fill-rule="evenodd" clip-rule="evenodd" d="M12 10h16.695v19.7H12V10Z" fill="#fff"/></mask><g mask="url(#a)" transform="matrix(1.4 0 0 1.4 -8.139 -7.94)"><path fill-rule="evenodd" clip-rule="evenodd" d="M27.045 15.005c.24-1.532 0-2.575-.83-3.52-.913-1.04-2.562-1.485-4.67-1.485H15.42a.876.876 0 0 0-.865.74l-2.55 16.167a.526.526 0 0 0 .52.607h3.78l-.26 1.655a.46.46 0 0 0 .453.53h3.186a.767.767 0 0 0 .757-.646l.031-.162.6-3.806.04-.21a.766.766 0 0 1 .756-.647h.476c3.087 0 5.504-1.254 6.21-4.881.295-1.515.142-2.78-.638-3.67a3.05 3.05 0 0 0-.872-.672z" fill="#009ade"/></g><mask id="b" mask-type="alpha" maskUnits="userSpaceOnUse" x="12" y="9" width="16" height="19"><path fill-rule="evenodd" clip-rule="evenodd" d="M12 10h15.133v17.514H12V10Z" fill="#fff"/></mask><g mask="url(#b)" transform="matrix(1.4 0 0 1.4 -8.139 -7.94)"><path fill-rule="evenodd" clip-rule="evenodd" d="M27.045 15.005c.24-1.532 0-2.575-.83-3.52-.913-1.04-2.562-1.485-4.67-1.485H15.42a.876.876 0 0 0-.865.74l-2.55 16.167a.526.526 0 0 0 .52.607h3.78l.95-6.021-.03.189a.873.873 0 0 1 .862-.74h1.796c3.53 0 6.291-1.433 7.1-5.578.022-.123.043-.242.061-.36z" fill="#002169"/></g><path fill-rule="evenodd" clip-rule="evenodd" d="M17.446 13.095a1.076 1.076 0 0 1 1.06-.905h6.72c.795 0 1.537.051 2.216.16.193.033.382.068.566.108a8.234 8.234 0 0 1 .787.216c.334.11.644.242.93.392.335-2.145-.002-3.605-1.164-4.927-1.277-1.456-3.586-2.079-6.538-2.079H13.45c-.604 0-1.118.439-1.211 1.035L8.67 29.73a.737.737 0 0 0 .726.851h5.294l1.328-8.43z" fill="#002f87" style="stroke-width:1.4"/></svg>