<svg width="40" height="40" fill="none" xmlns="http://www.w3.org/2000/svg"><g clip-path="url(#a)" transform="matrix(1.4 0 0 1.4 -8 -7.988)" fill="#fff"><path d="M11.054 18.863c.638-2.334 3.297-2.89 5.745-2.958 2.012-.056 4.255.21 4.255.21L20 19.969s-2.244-.266-4.256-.21c-2.447.069-5.106.624-5.744 2.958z"/><path d="M26.329 26.084c-7.202-.45-15.57-4.164-15.275-7.221l-.993 3.633c-.302 3.119 7.461 6.822 15.214 7.442z"/><path d="M28.946 21.075c-.638 2.333-3.297 2.889-5.744 2.957-2.013.057-4.256-.21-4.256-.21L20 19.97s2.244.266 4.256.21c2.447-.07 5.106-.625 5.744-2.958z"/><path d="M13.671 13.854c7.202.45 15.57 4.164 15.275 7.22l.993-3.632c.302-3.119-7.461-6.822-15.214-7.442Z"/></g><defs><clipPath id="a"><path fill="#fff" d="M0 0h40v40H0z"/></clipPath></defs></svg>