<svg width="40" height="40" fill="none" xmlns="http://www.w3.org/2000/svg"><path fill-rule="evenodd" clip-rule="evenodd" d="M32.533 26.203c.368-7.674-6.255-16.318-15.283-17.388l.013-.106c8.902 0 15.726 8.236 15.726 14.734-.01 1.35-.116 2.191-.307 2.799zm-.54.976a14.41 14.41 0 0 1-2.208 2.143c-1.603-9.228-8.391-17.297-13.185-19.65l-.103.071c4.822 3.957 10.576 11.64 12.813 19.941a18.79 18.79 0 0 1-3.675 2.105c-4.551-5.188-8.796-15.193-10.163-21.542l-.14.042c.033 6.162 4.41 16.625 9.75 21.73-1.186.468-2.46.83-3.798 1.047-5.12-2.027-8.76-8.518-8.76-15.164 0-4.341 1.325-7.024 1.58-7.574l-.11-.042c-.31.469-2.25 3.152-2.25 7.836 0 7.515 3.708 13.26 8.635 15.067-1.684.184-3.459.129-5.276-.25l-.035.117c.527.194 2.314.944 5.04.944 6.164 0 10.334-3.827 12.011-6.737z" fill="#01539b" style="stroke-width:1.4"/><path fill-rule="evenodd" clip-rule="evenodd" d="M19.486 6C14.812 6 9.33 9.371 9.33 12.452c0 1.193 1.093 2.201 3.349 2.201 5.243 0 10.114-3.6 10.114-6.397C22.793 6.78 21.378 6 19.486 6Zm1.865 2.166c0 2.36-4.531 5.243-8.323 5.243-1.675 0-2.58-.66-2.58-1.746 0-2.392 4.584-5.227 8.14-5.227 2.317 0 2.763 1.177 2.763 1.73z" fill="#0f99d6" style="stroke-width:1.4"/><path fill-rule="evenodd" clip-rule="evenodd" d="M7.469 13.878c-.133.226-.656 1.257-.656 2.31 0 1.956 1.978 3.773 5.615 3.773 6.998 0 15.086-5.15 15.086-9.927 0-2.146-2.033-3.313-3.443-3.552l-.026.084c.44.139 2.046.885 2.046 2.796 0 3.808-7.14 8.996-14.252 8.996-2.721 0-4.438-1.342-4.438-3.3 0-.618.13-1.025.165-1.145z" fill="#f37a3c" style="stroke-width:1.4"/><path fill-rule="evenodd" clip-rule="evenodd" d="M30.4 10.393c.191.146 1.345 1.105 1.345 2.922 0 6.19-9.707 12.28-18.286 12.28-5.117 0-7.451-2.524-7.348-4.767h.09c.201 1.163 1.863 3.245 6.34 3.245 8.592 0 18.186-6.3 18.186-11.818 0-.947-.255-1.535-.404-1.797z" fill="#04a54f" style="stroke-width:1.4"/><path fill-rule="evenodd" clip-rule="evenodd" d="M33.644 16.173c.042.129.249.724.249 1.651 0 6.889-9.824 12.782-18.367 12.782-4.396 0-6.695-2.134-7.176-3l.077-.058c1.216 1.063 3.614 1.871 6.41 1.871 7.545 0 18.804-5.734 18.704-13.22z" fill="#eb2227" style="stroke-width:1.4"/></svg>