<svg width="40" height="40" fill="none" xmlns="http://www.w3.org/2000/svg"><mask id="a" mask-type="alpha" maskUnits="userSpaceOnUse" x="10" y="12" width="20" height="16"><path fill="#fff" d="M10 12.896h20v14.207H10z"/></mask><g mask="url(#a)" transform="matrix(1.4 0 0 1.4 -7.887 -8.066)"><mask id="b" mask-type="alpha" maskUnits="userSpaceOnUse" x="18" y="18" width="2" height="3"><path fill-rule="evenodd" clip-rule="evenodd" d="M18.657 20.328c.043.026.107-.006.177-.038.145-.075.172-.204.226-.983.043-.634-.113-.866-.177-.94a.166.166 0 0 0-.124-.065c-.107.005-.118.129-.118.242 0 .134-.016 1.295-.027 1.558-.01.134 0 .204.043.226z" fill="#fff"/></mask><g mask="url(#b)"><path fill="#0074c2" d="M18.061 17.754h1.548v3.127h-1.548z"/></g><mask id="c" mask-type="alpha" maskUnits="userSpaceOnUse" x="15" y="25" width="1" height="2"><path fill-rule="evenodd" clip-rule="evenodd" d="m15.467 25.853.124-.038.18.597-.124.038z" fill="#fff"/></mask><g mask="url(#c)"><path fill="#0074c2" d="M14.925 25.267h1.392v1.725h-1.392z"/></g><mask id="d" mask-type="alpha" maskUnits="userSpaceOnUse" x="15" y="25" width="2" height="2"><path fill-rule="evenodd" clip-rule="evenodd" d="m15.857 25.738.134-.032.339.36-.102-.42.112-.032.156.602-.129.032-.349-.36.107.425-.112.032z" fill="#fff"/></mask><g mask="url(#d)"><path fill="#0074c2" d="M15.314 25.072h1.73v1.816h-1.73z"/></g><mask id="e" mask-type="alpha" maskUnits="userSpaceOnUse" x="16" y="25" width="2" height="2"><path fill-rule="evenodd" clip-rule="evenodd" d="m17.064 25.465.021.107-.182.038.102.5-.13.027-.096-.505-.183.037-.021-.107z" fill="#fff"/></mask><g mask="url(#e)"><path fill="#0074c2" d="M16.027 24.917h1.607v1.762h-1.607z"/></g><mask id="f" mask-type="alpha" maskUnits="userSpaceOnUse" x="17" y="25" width="1" height="2"><path fill-rule="evenodd" clip-rule="evenodd" d="m17.763 25.468-.317.048.022.13.29-.044.016.103-.29.048.021.156.334-.049.016.108-.457.07-.097-.613.446-.07z" fill="#fff"/></mask><g mask="url(#f)"><path fill="#0074c2" d="M16.759 24.813h1.644v1.773h-1.644z"/></g><mask id="g" mask-type="alpha" maskUnits="userSpaceOnUse" x="18" y="25" width="1" height="1"><path fill-rule="evenodd" clip-rule="evenodd" d="M18.418 25.301a.198.198 0 0 1 .065.038.293.293 0 0 1 .037.048c.011.022.016.043.016.065 0 .032 0 .059-.016.086-.01.032-.037.053-.064.07a.107.107 0 0 1 .064.042c.016.027.027.06.027.097l.006.043c0 .022.005.038.01.06a.055.055 0 0 0 .027.031v.017l-.14.016a.076.076 0 0 1-.01-.033.159.159 0 0 1-.01-.053l-.006-.06a.129.129 0 0 0-.027-.075c-.022-.016-.049-.016-.075-.01l-.124.01.021.242-.123.011-.06-.618.296-.027c.022-.01.054-.01.086 0zm-.258.118.016.167.14-.016a.109.109 0 0 0 .06-.016c.026-.016.037-.043.032-.075 0-.033-.016-.06-.043-.07-.022-.006-.043-.011-.06-.006z" fill="#fff"/></mask><g mask="url(#g)"><path fill="#0074c2" d="M17.478 24.748h1.655v1.741h-1.655z"/></g><mask id="h" mask-type="alpha" maskUnits="userSpaceOnUse" x="18" y="25" width="2" height="1"><path fill-rule="evenodd" clip-rule="evenodd" d="m18.797 25.253.134-.005.263.419-.021-.43.124-.005.026.618-.129.005-.268-.424.016.44-.118.006z" fill="#fff"/></mask><g mask="url(#h)"><path fill="#0074c2" d="M18.249 24.684h1.617v1.736h-1.617z"/></g><mask id="i" mask-type="alpha" maskUnits="userSpaceOnUse" x="19" y="25" width="2" height="1"><path fill-rule="evenodd" clip-rule="evenodd" d="M19.749 25.226h.15l.215.623h-.14l-.037-.13h-.231l-.043.124h-.135zm-.006.387h.156l-.075-.242z" fill="#fff"/></mask><g mask="url(#i)"><path fill="#0074c2" d="M18.98 24.683h1.682v1.714H18.98z"/></g><mask id="j" mask-type="alpha" maskUnits="userSpaceOnUse" x="20" y="25" width="1" height="1"><path fill-rule="evenodd" clip-rule="evenodd" d="m20.74 25.259-.006.107-.188-.01-.027.516-.13-.006.028-.516-.188-.01.005-.108z" fill="#fff"/></mask><g mask="url(#j)"><path fill="#0074c2" d="M19.686 24.69h1.601v1.73h-1.601z"/></g><mask id="k" mask-type="alpha" maskUnits="userSpaceOnUse" x="20" y="25" width="2" height="1"><path fill-rule="evenodd" clip-rule="evenodd" d="m20.893 25.898.056-.621.129.012-.057.62z" fill="#fff"/></mask><g mask="url(#k)"><path fill="#0074c2" d="M20.353 24.729h1.274v1.725h-1.274z"/></g><mask id="l" mask-type="alpha" maskUnits="userSpaceOnUse" x="21" y="25" width="1" height="1"><path fill-rule="evenodd" clip-rule="evenodd" d="M21.757 25.936c-.129.08-.3.059-.403-.054-.059-.075-.08-.172-.059-.263a.344.344 0 0 1 .124-.242c.129-.08.3-.06.403.054.059.075.08.171.059.268a.354.354 0 0 1-.124.237zm-.07-.108a.27.27 0 0 0 .065-.156.3.3 0 0 0-.021-.166.158.158 0 0 0-.22-.049c-.006.006-.017.011-.022.016a.27.27 0 0 0-.065.156c-.01.054 0 .113.027.167a.153.153 0 0 0 .215.048c.005 0 .01-.01.022-.016z" fill="#fff"/></mask><g mask="url(#l)"><path fill="#0074c2" d="M20.742 24.78h1.687v1.752h-1.687z"/></g><mask id="m" mask-type="alpha" maskUnits="userSpaceOnUse" x="22" y="25" width="1" height="2"><path fill-rule="evenodd" clip-rule="evenodd" d="m22.174 25.426.135.027.161.468.075-.425.118.022-.107.612-.129-.027-.167-.472-.08.43-.118-.022z" fill="#fff"/></mask><g mask="url(#m)"><path fill="#0074c2" d="M21.519 24.878h1.693v1.795h-1.693z"/></g><mask id="n" mask-type="alpha" maskUnits="userSpaceOnUse" x="22" y="25" width="2" height="2"><path fill-rule="evenodd" clip-rule="evenodd" d="m23.12 25.62.145.032.07.656-.14-.032-.01-.135-.22-.053-.07.113-.135-.033zm-.097.37.156.039-.016-.253z" fill="#fff"/></mask><g mask="url(#n)"><path fill="#0074c2" d="M22.206 25.072h1.666v1.784h-1.666z"/></g><mask id="o" mask-type="alpha" maskUnits="userSpaceOnUse" x="23" y="25" width="1" height="2"><path fill-rule="evenodd" clip-rule="evenodd" d="m23.697 25.769.129.032-.145.495.296.086-.033.107-.419-.124z" fill="#fff"/></mask><g mask="url(#o)"><path fill="#0074c2" d="M22.977 25.221h1.542v1.811h-1.542z"/></g><mask id="p" mask-type="alpha" maskUnits="userSpaceOnUse" x="15" y="24" width="1" height="2"><path fill-rule="evenodd" clip-rule="evenodd" d="M15.748 25.291a.226.226 0 0 1-.134.086l-.124.038.065.215-.124.038-.177-.597.258-.075a.223.223 0 0 1 .156.005c.048.027.08.07.096.124a.225.225 0 0 1-.016.167zm-.16-.188a.08.08 0 0 0-.07 0l-.114.033.054.177.108-.032a.113.113 0 0 0 .059-.043.117.117 0 0 0 .005-.075c-.005-.027-.016-.049-.043-.06z" fill="#fff"/></mask><g mask="url(#p)"><path fill="#0074c2" d="M14.706 24.437h1.612v1.773h-1.612z"/></g><mask id="q" mask-type="alpha" maskUnits="userSpaceOnUse" x="16" y="24" width="1" height="2"><path fill-rule="evenodd" clip-rule="evenodd" d="m16.177 25.454-.14-.607.124-.027.054.23.236-.053-.053-.231.123-.032.14.607-.124.032-.064-.269-.231.054.059.269z" fill="#fff"/></mask><g mask="url(#q)"><path fill="#0074c2" d="M15.49 24.191h1.72v1.811h-1.72z"/></g><mask id="r" mask-type="alpha" maskUnits="userSpaceOnUse" x="16" y="24" width="2" height="2"><path fill-rule="evenodd" clip-rule="evenodd" d="m16.878 24.664.127-.023.11.614-.126.023z" fill="#fff"/></mask><g mask="url(#r)"><path fill="#0074c2" d="M16.331 24.1h1.333v1.725h-1.333z"/></g><mask id="s" mask-type="alpha" maskUnits="userSpaceOnUse" x="17" y="24" width="1" height="2"><path fill-rule="evenodd" clip-rule="evenodd" d="m17.36 24.58.128-.016.075.505.307-.048.016.113-.435.064z" fill="#fff"/></mask><g mask="url(#s)"><path fill="#0074c2" d="M16.817 24.016h1.617v1.725h-1.617z"/></g><mask id="t" mask-type="alpha" maskUnits="userSpaceOnUse" x="18" y="24" width="1" height="2"><path fill-rule="evenodd" clip-rule="evenodd" d="m18.118 24.48.128-.012.062.62-.128.013z" fill="#fff"/></mask><g mask="url(#t)"><path fill="#0074c2" d="M17.568 23.925h1.284v1.725h-1.284z"/></g><mask id="u" mask-type="alpha" maskUnits="userSpaceOnUse" x="18" y="24" width="2" height="2"><path fill-rule="evenodd" clip-rule="evenodd" d="M19.045 24.766a.225.225 0 0 1-.15.054l-.13.005.011.22-.129.011-.038-.623.27-.016a.212.212 0 0 1 .15.037.192.192 0 0 1 .064.145.22.22 0 0 1-.048.167zm-.113-.22a.082.082 0 0 0-.07-.016l-.113.005.011.183.113-.006c.027 0 .048-.01.064-.027.016-.021.027-.048.022-.07a.102.102 0 0 0-.027-.07z" fill="#fff"/></mask><g mask="url(#u)"><path fill="#0074c2" d="M18.067 23.874h1.569v1.73h-1.569z"/></g><mask id="v" mask-type="alpha" maskUnits="userSpaceOnUse" x="19" y="24" width="2" height="2"><path fill-rule="evenodd" clip-rule="evenodd" d="m20.308 24.407.188.005-.022.624-.118-.006.01-.419v-.096l-.134.515-.123-.005-.102-.527v.097l-.011.42h-.124l.022-.624.188.005.097.495z" fill="#fff"/></mask><g mask="url(#v)"><path fill="#0074c2" d="M19.33 23.848h1.709v1.73H19.33z"/></g><mask id="w" mask-type="alpha" maskUnits="userSpaceOnUse" x="20" y="24" width="2" height="2"><path fill-rule="evenodd" clip-rule="evenodd" d="M21.283 25.044a.317.317 0 0 1-.403-.038.336.336 0 0 1-.07-.263c0-.097.043-.183.119-.247a.266.266 0 0 1 .21-.054c.074 0 .144.037.193.091a.33.33 0 0 1 .07.263.35.35 0 0 1-.119.248zm-.07-.102a.295.295 0 0 0 .027-.318.17.17 0 0 0-.113-.07.147.147 0 0 0-.123.044.245.245 0 0 0-.06.155c-.01.06 0 .113.033.162.048.07.145.09.22.043l.016-.016z" fill="#fff"/></mask><g mask="url(#w)"><path fill="#0074c2" d="M20.257 23.894h1.687v1.752h-1.687z"/></g><mask id="x" mask-type="alpha" maskUnits="userSpaceOnUse" x="21" y="24" width="2" height="2"><path fill-rule="evenodd" clip-rule="evenodd" d="M22.163 24.608c.022.01.038.032.054.054.01.016.021.037.021.059a.13.13 0 0 1 0 .064.141.141 0 0 1-.037.08.127.127 0 0 1-.08.05c.02.01.042.032.053.058.01.033.01.065.005.097l-.005.043c-.006.022-.006.038-.006.06 0 .015.006.026.017.037v.016l-.14-.022c0-.01-.005-.021-.005-.032 0-.016 0-.038.005-.054l.005-.059a.107.107 0 0 0-.01-.08.087.087 0 0 0-.07-.032l-.124-.017-.038.242-.123-.021.097-.613.295.043c.027 0 .054.01.086.027zm-.28.054-.026.166.14.022a.13.13 0 0 0 .064 0c.027-.011.048-.033.048-.065a.09.09 0 0 0-.021-.08.189.189 0 0 0-.06-.022z" fill="#fff"/></mask><g mask="url(#x)"><path fill="#0074c2" d="M21.137 23.99h1.65v1.784h-1.65z"/></g><mask id="y" mask-type="alpha" maskUnits="userSpaceOnUse" x="22" y="24" width="2" height="2"><path fill-rule="evenodd" clip-rule="evenodd" d="M23.018 24.772a.153.153 0 0 1 .049.053c.01.017.016.038.021.06.006.053-.005.107-.043.145a.112.112 0 0 1-.086.043c.022.016.043.037.049.059a.197.197 0 0 1-.006.096l-.01.043c-.006.022-.006.038-.011.06 0 .016.005.026.016.037v.016l-.14-.032v-.032c0-.016 0-.038.005-.054l.011-.059c.011-.027.006-.054-.005-.08a.113.113 0 0 0-.07-.038l-.124-.027-.048.236-.124-.027.13-.607.29.06c.037.02.064.032.096.048zm-.284.037-.033.161.135.027a.26.26 0 0 0 .064.006.063.063 0 0 0 .048-.06.075.075 0 0 0-.016-.08.113.113 0 0 0-.053-.021z" fill="#fff"/></mask><g mask="url(#y)"><path fill="#0074c2" d="M21.96 24.127h1.671v1.805H21.96z"/></g><mask id="z" mask-type="alpha" maskUnits="userSpaceOnUse" x="23" y="24" width="1" height="2"><path fill-rule="evenodd" clip-rule="evenodd" d="m23.434 25.497-.129-.032.156-.602.13.032z" fill="#fff"/></mask><g mask="url(#z)"><path fill="#0074c2" d="M22.763 24.315h1.376v1.725h-1.376z"/></g><mask id="A" mask-type="alpha" maskUnits="userSpaceOnUse" x="23" y="25" width="2" height="1"><path fill-rule="evenodd" clip-rule="evenodd" d="M23.906 25.432a.107.107 0 0 0 .005.07c.022.038.054.06.092.07.021.005.048.01.075.01.032 0 .064-.02.07-.053.005-.016 0-.038-.01-.054a.38.38 0 0 0-.076-.054l-.06-.032a.351.351 0 0 1-.112-.086.143.143 0 0 1-.022-.145.17.17 0 0 1 .097-.113.282.282 0 0 1 .188 0 .25.25 0 0 1 .145.097.2.2 0 0 1 .027.167l-.118-.038c.01-.032 0-.07-.021-.091a.288.288 0 0 0-.07-.038.138.138 0 0 0-.081-.005.076.076 0 0 0-.048.043.06.06 0 0 0 .016.059.796.796 0 0 0 .07.048l.096.06a.298.298 0 0 1 .092.074.16.16 0 0 1 .016.14.187.187 0 0 1-.102.118.298.298 0 0 1-.194 0 .31.31 0 0 1-.166-.107.184.184 0 0 1-.022-.167z" fill="#fff"/></mask><g mask="url(#A)"><path fill="#0074c2" d="M23.229 24.476h1.655v1.757h-1.655z"/></g><mask id="B" mask-type="alpha" maskUnits="userSpaceOnUse" x="17" y="17" width="6" height="7"><path fill-rule="evenodd" clip-rule="evenodd" d="M19.733 23.25c1.386 0 2.51-1.354 2.51-3.014 0-1.66-1.129-3.01-2.51-3.01-1.38 0-2.504 1.355-2.504 3.015 0 1.66 1.123 3.01 2.504 3.01zm0-5.878c1.3 0 2.364 1.284 2.364 2.869 0 1.585-1.058 2.87-2.364 2.87-1.306 0-2.364-1.285-2.364-2.87 0-1.585 1.064-2.87 2.364-2.87z" fill="#fff"/></mask><g mask="url(#B)"><path fill="#0074c2" d="M16.681 16.678h6.104v7.12h-6.104z"/></g><mask id="C" mask-type="alpha" maskUnits="userSpaceOnUse" x="17" y="17" width="6" height="7"><path fill-rule="evenodd" clip-rule="evenodd" d="M18.103 21.856c-.027.016-.048.022-.06.011a.04.04 0 0 1-.01-.027.1.1 0 0 1 .01-.043c.135-.741.194-1.499.167-2.257 0-.344-.01-.628-.021-.768-.005-.032-.005-.06-.005-.08 0-.108.032-.13.102-.156h.005a.254.254 0 0 0 .167-.108.377.377 0 0 1 .333-.253c.14 0 .666.188.666 1.123.054.511-.242 1-.725 1.183l-.017.005c-.064.021-.07.08-.075.129v.016c-.091.876-.43 1.16-.537 1.225zm1.666-3.401c-.006-.038-.006-.054.005-.06.01-.005.022.012.043.05l.01.015c.226.452.404.925.544 1.414 0 .01.005.021.01.026.006-.01.011-.016.011-.026.145-.506.344-.99.58-1.457.043-.064.06-.075.07-.07.01.006.01.027.006.06l-.006.021c-.091 1.14.01 2.29.317 3.39.016.049.016.065.006.07-.011.006-.033-.01-.049-.026 0 0-.005-.006 0-.006-.462-.306-.698-1.279-.704-1.354-.005-.032-.01-.043-.01-.043l-.006.006c-.038.123-.145.618-.215.94-.032.15-.059.263-.064.28l-.006.032c-.005.021-.005.032-.016.032-.01 0-.016-.01-.032-.065-.016-.053-.107-.413-.183-.704-.053-.204-.096-.376-.107-.403a.25.25 0 0 0-.016-.037c0 .005-.006.01-.006.01l-.059.183a1.84 1.84 0 0 1-.586 1.032c-.08.059-.096.059-.102.054-.01-.006 0-.033.033-.076a6.771 6.771 0 0 0 .532-3.288zm-.038 4.653c1.3 0 2.364-1.284 2.364-2.87 0-1.584-1.058-2.869-2.364-2.869-1.306 0-2.364 1.285-2.364 2.87 0 1.585 1.058 2.87 2.364 2.87z" fill="#fff"/></mask><g mask="url(#C)"><path fill="#0074c2" d="M16.824 16.827h5.814v6.824h-5.814z"/></g><mask id="D" mask-type="alpha" maskUnits="userSpaceOnUse" x="19" y="13" width="1" height="2"><path fill-rule="evenodd" clip-rule="evenodd" d="M19.596 14.115a.12.12 0 0 1 .118-.118.12.12 0 0 1 .119.118.12.12 0 0 1-.119.118c-.064.006-.118-.048-.118-.118zm.382 0a.264.264 0 1 0-.528.001.264.264 0 0 0 .528 0z" fill="#fff"/></mask><g mask="url(#D)"><path fill="#0074c2" d="M18.903 13.304h1.623v1.623h-1.623z"/></g><mask id="E" mask-type="alpha" maskUnits="userSpaceOnUse" x="10" y="13" width="20" height="15"><path fill="#fff" d="M10.254 13.256h18.925v13.837H10.254z"/></mask><g mask="url(#E)"><mask id="F" mask-type="alpha" maskUnits="userSpaceOnUse" x="10" y="13" width="20" height="15"><path fill="#fff" d="M10.254 13.256h18.995V27.12H10.254z"/></mask><g mask="url(#F)"><mask id="G" mask-type="alpha" maskUnits="userSpaceOnUse" x="10" y="13" width="20" height="15"><path fill-rule="evenodd" clip-rule="evenodd" d="M28.997 18.28c.01.011.016.027.021.043v.006c-.005.016-.032.043-.086.064a.282.282 0 0 1-.21-.016l-.01-.005-.022-.006c-.268-.102-.166-.075-.204.178l-.016.107c-.027.183-.065.36-.124.538l-.021.08c0 .006 0 .011-.005.016-.038-.027-.07-.064-.103-.096l-.053-.054a1.28 1.28 0 0 1-.452-.736c0-.097.038-.194.108-.264a.161.161 0 0 0 .08-.129v-.01c-.005-.08-.091-.124-.15-.156l-.027-.016a.94.94 0 0 0-.715-.011.782.782 0 0 0-.397.618v.005c-.08.409.075.828.408 1.08a.533.533 0 0 0-.054.156.487.487 0 0 1-.032.118 1.333 1.333 0 0 0-.043.156c-.145-.22-.344-.559-.408-.671a1.45 1.45 0 0 1-.054-1.247.914.914 0 0 1 .462-.425.848.848 0 0 1 .629-.032c.107.049.215.086.333.108a.996.996 0 0 0 .355-.049.553.553 0 0 1 .188-.032c.091.022.177.048.263.091.054.022.107.043.167.06.026.005.053.005.086.005.042-.005.08 0 .123.01a.217.217 0 0 1-.043.103.472.472 0 0 0-.059.225.276.276 0 0 0 .065.189zm-.215.699a1.66 1.66 0 0 0-.172.618c.005.091.059.177.14.226.01.005.01.021-.006.026l-.048.027a.57.57 0 0 1-.21.07.168.168 0 0 1-.14-.048.949.949 0 0 1-.198-.58c.102.096.16.128.225.112.07-.021.08-.096.092-.145l.01-.053c.06-.188.108-.377.135-.575a.854.854 0 0 1 .032-.162c.005 0 .005 0 .01.006l.011.005c.017.006.033.01.054.022.054.107.086.22.091.338 0 .038-.01.075-.026.113zm-1.71.838c.017-.053.022-.086.038-.134a.745.745 0 0 1 .194-.317s0-.005.005-.005c.006.01.011.037.011.037l.016.054c.022.08.06.193.08.247.076.199.05.226.275.129l.059-.027c.005-.005.01-.005.016-.005.005.016.005.032.005.048v.01c.006.055.092.382.108.463.075.28-.005.258.23.167.162-.065.253-.049.259-.038.059.097-.22.543-.35.66a1.54 1.54 0 0 0-.214.334l-.006.016a1.762 1.762 0 0 1-.21.382.865.865 0 0 1-1.106.22l-.016-.005a.984.984 0 0 0 .07-.301.67.67 0 0 0 .446.15.725.725 0 0 0 .666-.72.56.56 0 0 0-.543-.548.581.581 0 0 0-.328.065c0-.011-.005-.038-.005-.07 0-.102.021-.285.145-.339.022-.005.054-.021.07-.027.215-.059.21-.059.064-.166a.075.075 0 0 1-.021-.016l-.005-.006c-.006-.01-.006-.021-.006-.032.01-.075.032-.15.054-.226zm-.338 2.81.038.028c.08.059.253.188.242.311-.011.091-.011.484-.011.49.01.096.027.187.048.284.016.091.038.188.043.231.006.188-.021.376-.08.559a.131.131 0 0 1-.097.059.151.151 0 0 1-.107-.022l-.022-.021c-.08-.231-.118-.107-.193.021l-.033.022c-.08.054-.156-.027-.177-.054a.086.086 0 0 1-.027-.059v-.021c.038-.21.027-.188-.134-.097l-.027.016c-.016.01-.086.038-.102.027-.038-.032-.054-.048-.054-.124a.747.747 0 0 1 .35-.419.482.482 0 0 0 .225-.44c0-.022 0-.049-.005-.076a.445.445 0 0 0-.22-.349 2.163 2.163 0 0 0-.409-.07 1.448 1.448 0 0 1-.693-.322 1.79 1.79 0 0 1-.527-.844c-.005-.027-.01-.054-.005-.08.01-.21.054-.42.134-.618a.77.77 0 0 0 .075-.328v-.038c.086.065.167.134.242.204.264.258.215.14.08-.048a1.208 1.208 0 0 0-.284-.312 1.6 1.6 0 0 0-.537-.23 1.276 1.276 0 0 1-.473-.183.22.22 0 0 1 .048-.027c.01-.011.124-.08.231-.162.038.06.097.103.162.124a.369.369 0 0 0 .338-.118.917.917 0 0 0 .091-.177s.033-.07.033-.076c.09-.08.188-.15.295-.215.065-.032.049-.043-.016-.037-.08.01-.355.086-.403.172l-.043.091a.789.789 0 0 1-.075.15.212.212 0 0 1-.183.06.17.17 0 0 1-.08-.07l.048-.049a.07.07 0 0 0-.022-.096c-.032-.022-.075-.011-.102.021v-.005a4.163 4.163 0 0 1-.349.258 1.919 1.919 0 0 1-.29.161l-.08.043-.038.016a.253.253 0 0 0-.188.247c-.017.15-.076.263-.119.269a.178.178 0 0 1-.14-.07c-.01-.01-.02-.027-.032-.043-.048-.124-.07-.124-.145-.032-.021.027-.113 0-.145-.01-.032-.012-.07-.039-.059-.087.048-.252.048-.263-.134-.215-.027.005-.049-.01-.065-.043-.016-.032.006-.097.043-.21l.006-.01a.62.62 0 0 1 .198-.242c.038-.038.097-.086.135-.124a.971.971 0 0 1 .349-.15c.15-.048.296-.124.42-.226.144-.123.3-.23.472-.317.075-.037.07-.059-.054-.027-.182.054-.36.135-.52.242-.006.006-.017.016-.028.022a.83.83 0 0 1 .06-.806l.005-.011h.016l.037-.005.135-.006c0 .043.016.086.048.118.086.06.199.076.296.038.005 0 .408-.172.489-.226l.08-.048c.011.091.033.242.054.355.01.086.06.16.14.198a.177.177 0 0 0 .156-.01l.016-.006a.59.59 0 0 0 .29-.322.506.506 0 0 0 .027-.06c.005.006.005.012.005.017l.022.048.026.054c.27.494.441 1.042.506 1.601l.026.274c.011.21.103.409.253.548a.472.472 0 0 1 .048.054c.065.13.108.274.124.42v.01c0 .032.005.065.01.097.017.15 0 .3-.048.44-.032-.048-.064-.09-.08-.123-.167-.258-.51-.478-.124.075.134.29.333.527.564.742zm.452 1.833H28.9l-.452.784.425.828H24.66l.344-1.166-.06-.027a15.39 15.39 0 0 0-.595-.204c.128-.102.257-.21.268-.215h1.333a.246.246 0 0 0 .064.064c.065.033.14.033.204 0 .011.038.027.076.054.108a.28.28 0 0 0 .366.08l.064-.042a.266.266 0 0 0 .226.059.271.271 0 0 0 .204-.135.416.416 0 0 0 .054-.134zm-2.918 2.445a14.259 14.259 0 0 0-4.525-.768h-.01c-1.542.01-3.069.268-4.525.768l-.559-1.918a15.47 15.47 0 0 1 5.084-.887h.01c1.736.01 3.456.312 5.09.887zm-13.735-.838.425-.828-.451-.784h1.407v.021c0 .032.006.065.022.091a.22.22 0 0 0 .15.097c.08.016.161.022.247.016h.033c.172-.005.365-.01.424-.22h2.064c.01.005.15.107.284.21-.204.064-.408.134-.607.204l-.059.021.344 1.172zm1.333-1.956-.134-.006c-.011 0-.016-.005-.027-.01-.016-.022.005-.108.016-.15.01-.05.016-.092.021-.14l.016-.14c.038-.162.054-.328.054-.495 0-.059 0-.129-.005-.199-.006-.064-.006-.112-.006-.155 0-.135.017-.172.027-.183.006-.005.022-.005.049-.01l.048-.006.043-.005a.858.858 0 0 0 .693-.366c.14-.226.178-.451.21-1.01.043-.42.258-.8.596-1.053l.097-.054c.129-.07.29-.172.424-.253a.294.294 0 0 0 .15-.15c.028-.08.065-.161.098-.236a3 3 0 0 0 .16-.436c.076-.311.06-.64-.053-.935a.19.19 0 0 0 .054.011.173.173 0 0 0 .193-.097.48.48 0 0 0 .172.092c.167.064.376.118.478.027.006.005.011.01.017.021.225.194.467.37.725.521.285.188.58.382.71.495.07.059.096.086.096.166 0 .022 0 .049-.005.07-.006.06-.027.145-.043.237a3.456 3.456 0 0 0-.06.467c-.005.167 0 .328.017.494l.005.076c.005.026.005.059.005.086a.097.097 0 0 1-.048.102c-.134.059-.269.113-.408.155-.097.033-.15.054-.178.065a.103.103 0 0 1-.096 0c-.033-.022-.038-.075-.038-.118l-.005-.102c-.011-.146-.011-.15.096-.189a.08.08 0 0 1 .07 0 .223.223 0 0 0 .167 0 .4.4 0 0 0 .236-.23c.054-.097.022-.216.038-.43l.01-.15c.011-.108.07-.264-.214-.356-.484-.155-.769-.236-.865-.252a.935.935 0 0 1-.312-.108.068.068 0 0 0-.097 0 .075.075 0 0 0 0 .103c.113.08.247.128.387.15.06.01.258.064.844.253l.043.016c-.022.048-.049.096-.076.145-.128.226-.284.43-.467.612a1.262 1.262 0 0 1-.677.333 1.297 1.297 0 0 0-1.09.747c-.081.156-.151.318-.216.484-.037.113-.086.22-.15.322-.097.113-.344.242-.468.189a.357.357 0 0 0-.365-.017c-.06.033-.038.081-.15.07-.044-.005-.183-.01-.189.027-.005.038.097.075.14.08.22.017.199-.005.274-.048.038-.021.075-.043.199.006a.266.266 0 0 1-.183.193.88.88 0 0 1-.392.01c-.14-.015-.344.022-.365.14l-.011.06c-.016.075-.032.15-.043.225-.022.15.01.307.091.441.032.032.118.102.199.172l.134.113.022.021c.059.054.123.108.118.317-.005.188-.075.2-.301.205h-.032a.385.385 0 0 1-.253-.06c-.043-.026.027-.118.038-.15.005-.016.01-.032.01-.043.038-.167.151-.161-.155-.167-.043-.005-.075-.005-.113-.01zm-.107-2.81c-.151-.301-.022-.764.349-1.236l.096-.135.043-.054a.856.856 0 0 0 .2-.462c0-.027-.006-.053-.012-.08a.247.247 0 0 0-.166-.167c-.027-.005-.048-.021-.07-.032a.422.422 0 0 1 .08-.065l.038-.021a.32.32 0 0 1 .231-.048l.038.01a.177.177 0 0 0 .156-.005c.064-.038.102-.118.14-.274a1.008 1.008 0 0 0-.156-.742.812.812 0 0 0-.677-.376.342.342 0 0 0-.28.285.5.5 0 0 0-.027.156c0 .172.07.338.188.462l.011.01a.11.11 0 0 0-.027.006c-.01 0-.027 0-.037-.005-.086-.011-.371-.07-.403.15v.016a.627.627 0 0 1-.124.317.824.824 0 0 1-.113.156.426.426 0 0 1-.027-.075l-.01-.032a.865.865 0 0 1-.033-.237v-.021c0-.027.006-.06.011-.086.016-.027.022-.06.027-.092a.087.087 0 0 0-.032-.07c-.065-.048-.118.011-.258.103-.113.075-.15.075-.22.064a.741.741 0 0 1-.146-.043c-.026-.01-.048-.01-.064-.016.145-.124.269-.274.36-.44 0-.028 0-.049-.01-.076a.575.575 0 0 0-.27-.21 3.09 3.09 0 0 1 .382-.107c.21-.038.414-.118.586-.236a1.9 1.9 0 0 1 .548-.237c.29-.064.548.092.865.538.113.177.167.392.156.601 0 .21-.038.42-.113.618l-.016.038a.415.415 0 0 0-.065.193c.006.076.049.15.113.188.065.043.097.076.097.119a.271.271 0 0 1-.048.123l-.108.167a2.93 2.93 0 0 0-.166.28c-.006.015-.054.09-.06.07l-.016-.055-.027-.107c-.037-.226-.075-.269-.134-.28a.09.09 0 0 0-.097.054l-.064.113-.065.102-.064.086-.07.097c-.188.258-.478.645-.177 1.016.177.166.44.21.666.107a3.147 3.147 0 0 1-.027.274c-.43-.005-.779-.145-.903-.398zm-.323-1.967-.075.113c-.108.182-.199.36-.264.489l-.021.053c-.054.113-.064.118-.097.113.006-.027.006-.054.016-.075a.581.581 0 0 0 .022-.134v-.022a1.696 1.696 0 0 0-.274-.537l-.022-.033a.478.478 0 0 1-.048-.241c0-.07.005-.14.01-.194a.417.417 0 0 0 .329-.08v.016c0 .102.021.204.048.3l.005.028c.016.07.049.182.15.193.087.01.173-.06.275-.236a.736.736 0 0 0 .145-.403v-.006l.005-.005s.011-.006.022-.006c.005.237-.076.473-.226.667zm2.826-1.413a1.616 1.616 0 0 0-.155-.264c-.006-.01-.016-.016-.022-.027-.28-.354-.215-.215-.247.049-.005.021-.005.043-.005.064 0 .032-.006.06-.011.091a.103.103 0 0 1-.027.054c-.005.006-.021.006-.08-.01a.537.537 0 0 1-.377-.387v-.006c-.01-.032-.021-.053-.032-.08-.14-.355-.097-.21-.21-.086l-.032.032-.01.01a.065.065 0 0 1-.027.027c-.006-.005-.011-.005-.011-.01a1.318 1.318 0 0 1-.183-.301c-.01-.027-.016-.06-.01-.091.005-.081.016-.162.032-.242l.005-.033.005-.021c.033-.118.049-.183.006-.231-.049-.048-.108-.027-.21 0l-.021.005-.06.016c.022-.102.033-.204.033-.306a.409.409 0 0 0-.215-.414l-.065-.032c.323-.07.618-.22.866-.435l.059-.06a.651.651 0 0 1 .252-.198.268.268 0 0 1 .188.064c.022.011.06.049.086.076.043.043.092.08.14.037a.082.082 0 0 0 0-.107c-.091-.108-.145-.237-.124-.263 0 0 .027-.027.188.005h-.005c.129.032.484.193.29.032.043-.01.086-.027.13-.037l.064-.011a.296.296 0 0 1 .096 0c.086.016.15.021.194.037l.01.006h.06c-.006.01-.006.016-.011.027a.041.041 0 0 0-.01.027c-.011.085.182.257.182.257.038.033.177.172.328.317.22.215.467.463.559.538.134.113.112.215.096.242-.021.043-.07.075-.102.064l-.043-.016c-.059-.027-.134-.065-.193-.01-.022.02-.038.053-.032.085 0 .048.01.097.032.14.005.016.01.038.016.054-.022.043-.113.043-.172.01a2.549 2.549 0 0 1-.188-.15l-.124-.102a1.113 1.113 0 0 0-.43-.172c-.032-.005-.059-.016-.086-.027-.021-.01-.043-.016-.064-.022a.437.437 0 0 1-.183-.3c-.01-.043-.037-.06-.043-.006a.628.628 0 0 0 .102.435c.038.06.076.119.124.167l.064.08c.156.22.36.404.597.538l.204.107c.376.188.924.398 1.145.994.086.258.096.538.032.806-.15-.107-.344-.236-.537-.36l-.344-.23.075-.038a.4.4 0 0 0 .21-.247c.026-.13-.076-.242-.162-.387-.21-.339-.704-.409-1.026-.452l-.215-.032a2.209 2.209 0 0 1-.983-.44c-.344-.307-.296-.892-.264-1.07.006-.037 0-.123-.032-.032-.048.193-.204.849.199 1.209.312.247.682.408 1.075.478l.204.032c.29.038.757.119.93.398.075.118.15.204.134.274-.011.043-.06.097-.145.15l-.135.065a1.547 1.547 0 0 1-.21-.161.462.462 0 0 0-.07-.075c-.236-.188-.128-.07-.144.037-.027.022-.14.022-.339-.053-.118-.043-.123-.049-.172-.119-.145-.188-.118-.113-.15.049-.01.059-.022.075-.075.07-.097-.043-.145-.065-.188-.102zm-.45-3.235h-.017a.15.15 0 0 0-.134.064c-.006.006-.006.01-.011.016a2.02 2.02 0 0 1-.274-.204.329.329 0 0 1-.08-.091.754.754 0 0 1 .343.064h.016c.038.01.08.016.119.022zm.547-.076-.005.011a.203.203 0 0 1-.065.07l-.091-.285a.462.462 0 0 0 .07-.075v-.005a.725.725 0 0 1 .242-.253v.022a.34.34 0 0 1-.016.102c-.017.145-.07.285-.135.413zm-1.134.13a.41.41 0 0 1-.177-.334.189.189 0 0 1 .108-.145.73.73 0 0 1 .542.032c.038.011.07.017.108.017h.032l-.07-.22c.032-.012.134-.044.161-.054l.07.225.032-.021a.578.578 0 0 0 .076-.086.726.726 0 0 1 .408-.328.184.184 0 0 1 .172.054c.048.059.075.14.07.215a.498.498 0 0 1-.022.155c-.032.145-.08.29-.14.425-.01 0-.026-.006-.037-.006-.021-.005-.048-.005-.075-.005h-.022c.07-.14.124-.29.156-.446a.533.533 0 0 0 .016-.129.215.215 0 0 0-.037-.129.07.07 0 0 0-.065-.016c-.102.016-.22.124-.354.317a.589.589 0 0 1-.119.113 18.968 18.968 0 0 1 .124.36h-.01l-.205-.038-.01-.032-.076-.247h-.016a.67.67 0 0 1-.177-.021.657.657 0 0 0-.484-.044.092.092 0 0 0-.054.07v.017c.016.09.07.177.145.23.092.081.194.156.296.22-.006 0-.01.006-.016.006-.038-.005-.07-.01-.108 0-.01.006-.027.006-.037.011-.065-.054-.135-.102-.205-.167zm4.417 9.027a4.044 4.044 0 0 0-.193.027c-.15.021-.355.059-.424 0-.022-.016-.027-.043-.027-.07-.006-.333.134-.65.376-.876.397.537.95.93 1.585 1.128h.064c-.274.016-.553.038-.832.065l-.038-.038-.01-.01a.7.7 0 0 0-.5-.226Zm-1.128.29a.194.194 0 0 0 .193-.177.834.834 0 0 0-.241-.618c.096-.355.3-.672.585-.908l.006-.006c.07.13.15.258.236.376a1.3 1.3 0 0 0-.435 1.005c0 .065.027.13.08.172.119.097.344.065.538.032.07-.01.129-.021.177-.021.124.016.242.07.339.15-.425.054-.85.118-1.269.2a.567.567 0 0 1-.155-.12.287.287 0 0 1-.054-.085zm-1.123-2.794a.23.23 0 0 1 .274.096l.07.119c.054.08.097.172.134.263.016.107-.285.424-.467.527a2.75 2.75 0 0 0-.35.225.296.296 0 0 0-.059.161c0 .017 0 .038.006.054.032.08.096.145.177.172.177.091.365.156.559.194a.79.79 0 0 1 .381.182c.06.054.13.092.204.118l.076.017c.091.123.15.274.166.43 0 .01 0 .021-.005.032a.08.08 0 0 1-.021.048c-.027.016-.092 0-.14-.01l-.054-.011-.043-.011-.064-.01c-.13-.017-.22-.033-.231-.108l-.017-.097c-.064-.253-.053-.145-.16-.102l-.022.005c-.054.016-.108.006-.285-.086a.982.982 0 0 1-.194-.14.729.729 0 0 0-.21-.144l-.193-.076a2.146 2.146 0 0 1-.322-.134l-.016-.01c-.091-.05-.21-.114-.231-.2a.214.214 0 0 1 .059-.166c.06-.092.134-.172.22-.242.027-.01.124-.097.102-.161-.021-.06-.075-.124-.274-.086a.734.734 0 0 1-.489-.092l-.021-.01c.054-.145.118-.285.193-.42.043-.085.102-.171.162-.247l.043-.043c.343.049.698.033 1.042-.037zm.983-.865c-.059.102-.07.134-.16.166a.091.091 0 0 1-.076 0 .196.196 0 0 0-.156 0c-.204.075-.199.183-.188.339l.005.096c0 .054.011.108.038.156a.462.462 0 0 0 .07.075.24.24 0 0 0 .225.006c.022-.01.092-.038.167-.06.097-.032.215-.074.306-.112.07.398.2.784.382 1.15l-.038.032c-.3.253-.521.591-.623.973-.038-.022-.075-.043-.113-.076a.902.902 0 0 0-.457-.215 2.224 2.224 0 0 1-.52-.182c-.055-.027-.087-.054-.098-.08-.005-.033.011-.07.033-.098.091-.07.193-.129.295-.171.15-.081.58-.452.543-.678a1.321 1.321 0 0 0-.15-.317l-.07-.118a.367.367 0 0 0-.436-.172c-.29.06-.585.08-.88.06.182-.151.407-.237.644-.253.285-.038.553-.167.763-.366a2.98 2.98 0 0 0 .5-.655l.016-.032c0 .016 0 .032-.006.053l-.005.043c.021.15.016.296-.01.436zm-3.74 3.503-.021-.016-.135-.118c-.075-.065-.166-.14-.188-.167a.624.624 0 0 1-.053-.263c0-.016 0-.038.005-.054.01-.07.022-.14.043-.215 0 0 .005-.037.01-.054.065-.032.135-.043.21-.032.15.032.312.022.462-.021a.42.42 0 0 0 .264-.29.74.74 0 0 0 .537-.253.982.982 0 0 0 .14-.269l.016.006a.93.93 0 0 0 .575.102c.021-.006.037-.006.054-.006a1.285 1.285 0 0 0-.242.27.399.399 0 0 0-.092.23c0 .016 0 .038.006.054.032.15.188.231.3.296l.017.01c.107.054.226.102.344.14l.182.07c.065.032.119.07.172.118.065.06.14.113.22.161.178.092.275.13.388.102h.016c.005.027.01.065.01.076.027.188.226.215.355.23l.06.006.064.016a.791.791 0 0 0 .113.21s.048.037.086.064a14.86 14.86 0 0 0-1.236.317l-.409-.306h-2.095v-.01a.498.498 0 0 0-.178-.404zm11.983-2.1c0 .01.005.02.01.031-.026.022-.048.043-.069.065-.118.054-.29-.07-.376-.13l-.01-.005c-.189-.145-.356-.177-.087.081l.01.005a.994.994 0 0 0 .356.194.475.475 0 0 0 .048.462l.016.027c.016.032.038.059.064.08.049.049.076.076.043.156-.048.113-.333.113-.44.113h-.032c-.21.027-.42.08-.613.161a.994.994 0 0 0-.355.376.988.988 0 0 1-.129.167c-.01.01-.026.01-.043.01a.085.085 0 0 1-.053-.042l-.038-.118c-.027-.119-.005-.183-.145-.081a.092.092 0 0 1-.075 0c-.032-.022-.075-.06-.054-.091a.695.695 0 0 0 .032-.06c.092-.16.027-.155-.113-.145-.01 0-.021 0-.032.006-.016.005-.075-.032-.097-.097-.026-.08.011-.145.108-.199a.644.644 0 0 1 .193-.07c.054-.01.108-.021.162-.026.145-.011.284-.017.43-.006l.118.006a.53.53 0 0 0 .387-.13.198.198 0 0 0 .032-.187.833.833 0 0 0-.215-.312 2.403 2.403 0 0 1-.183-.215.801.801 0 0 1-.016-.763.3.3 0 0 1 .124-.167c.032-.016.075 0 .129.027l.037.016c.344.086.704.081 1.048-.016a.253.253 0 0 1-.032.08 1.685 1.685 0 0 0-.14.796zm-2.81 2.11c.048.006.113.012.182.022.2.033.42.07.538-.032a.237.237 0 0 0 .08-.172 1.22 1.22 0 0 0-.016-.28.223.223 0 0 0 .2.05c.005.02.015.047.02.069l.006.021a.218.218 0 0 0 .161.15.11.11 0 0 0 .06 0 .845.845 0 0 1-.14.404.882.882 0 0 1-.162.118 16.55 16.55 0 0 0-1.257-.199.578.578 0 0 1 .328-.15zm.36-1.187c.086-.123.166-.247.236-.376l.011.01c.064.065.14.135.215.221a.894.894 0 0 0-.167.065.324.324 0 0 0-.177.215c-.043-.06-.086-.102-.118-.135zm.295 1a.089.089 0 0 1-.027.07c-.07.059-.274.026-.424 0-.07-.011-.14-.022-.193-.027a.701.701 0 0 0-.5.225l-.049.049a22.63 22.63 0 0 0-.827-.065h.048a3.135 3.135 0 0 0 1.59-1.133c.248.225.388.548.382.88zm3.445.59h-1.333l-.387.307a14.717 14.717 0 0 0-1.252-.317c.027-.021.049-.043.075-.064.119-.172.183-.376.189-.586l.005-.005.086-.124a1.04 1.04 0 0 1 .306-.344c.177-.075.366-.129.554-.15h.032c.161 0 .494.005.58-.205a.251.251 0 0 0-.075-.311c-.016-.016-.027-.027-.038-.049l-.021-.032a.302.302 0 0 1 .021-.419c.006 0 .006-.005.011-.005.01-.006.016-.016.022-.027.107.29.29.543.52.747.221.188.484.306.77.354.128.011.252.033.375.065a.31.31 0 0 1 .124.22.356.356 0 0 1-.15.376.855.855 0 0 0-.42.543c0 .005 0 .016.006.027zm-2.058-4.104c.166.134.365.22.575.252.129.027.252.075.37.14.017.054.022.107.017.161a2.014 2.014 0 0 1-1.027.038l-.032-.011a.295.295 0 0 0-.242-.027.424.424 0 0 0-.204.247.93.93 0 0 0 .032.903c.06.08.124.156.194.231.075.07.14.156.182.247.011.022.006.043-.005.065a.39.39 0 0 1-.274.075l-.113-.006a2.999 2.999 0 0 0-.537.017 3.444 3.444 0 0 0-.274-.285l-.043-.038a4.41 4.41 0 0 0 .424-1.478.108.108 0 0 0 .06-.016c.01.011.015.022.015.022.065.08.167.123.27.123.128-.016.23-.214.246-.397.011-.092.038-.102.097-.124l.054-.021.08-.038c.124-.07-.01-.005.135-.08zm-7.029-.076c.006-.15.027-.3.054-.446.021-.096.038-.182.048-.247a.318.318 0 0 0-.102-.328c.135-.516.371-1.005.693-1.429a2.673 2.673 0 0 1 3.724-.699 2.7 2.7 0 0 1 .699.699c.419.559.693 1.214.795 1.902l-.075.07a.752.752 0 0 0-.242.306l-.005.011a.852.852 0 0 0-.054.231c0 .032.005.065.021.091.033.06.092.103.162.113.01 0 .021.038.021.07v.032c0 .06.027.14.167.2.01.005.016.005.027.01-.2 1.816-1.483 3.224-3.026 3.224-1.467 0-2.692-1.263-2.987-2.94a.302.302 0 0 0 .102-.327l-.006-.06a3.636 3.636 0 0 1-.016-.483zm1.381-4.277-.048-.064c.005-.022.005-.038.005-.06a.264.264 0 0 0-.263-.263c-.016 0-.038 0-.054.005a.306.306 0 0 0-.274-.446h-.027a.358.358 0 0 0 .065-.209.371.371 0 0 1-.247-.462.349.349 0 0 1 .188-.22.41.41 0 0 0-.016-.113.398.398 0 0 0 .58-.29c.059.08.15.134.252.134a.318.318 0 0 0 .248-.124.258.258 0 0 0 .3.215.27.27 0 0 0 .205-.166l.102.553a1.572 1.572 0 0 0-.962-.274.543.543 0 0 0-.44.274.697.697 0 0 0 .134.742c.16.236.354.451.575.634l.005.005c-.113.038-.22.08-.328.13zm-.306 0a.12.12 0 0 1-.118-.118.12.12 0 0 1 .118-.118.12.12 0 0 1 .118.118c.005.064-.048.118-.118.118zm-.328-.355a.163.163 0 0 1-.161-.166c0-.092.075-.161.167-.161.09 0 .16.075.16.16a.164.164 0 0 1-.166.167zm-.328-.451a.227.227 0 0 1-.225-.226c0-.123.102-.225.225-.225.124 0 .226.102.226.225a.238.238 0 0 1-.226.226zm-.29-.908c0-.124.102-.226.226-.226.124 0 .226.102.226.226a.227.227 0 0 1-.226.226.227.227 0 0 1-.226-.226zm.769-.72a.25.25 0 0 1 .252.258.25.25 0 0 1-.258.252.254.254 0 0 1-.252-.258c0-.134.113-.252.258-.252zm.644-.022a.162.162 0 0 1 0 .322.162.162 0 0 1-.16-.16c0-.086.07-.162.16-.162zm.51.183a.12.12 0 0 1 .12.118.12.12 0 0 1-.12.119.12.12 0 0 1-.117-.119c-.006-.064.048-.118.118-.118zm.63-.134c0-.038.043-.043.07-.043h.322c.027 0 .07.005.07.043.01.14.118.258.258.274l-.339 1.821c-.048 0-.097-.005-.15-.005-.049 0-.097 0-.145.005l-.339-1.821a.302.302 0 0 0 .253-.274zm.52 2.1.194-1.02c.28-.215.624-.328.973-.328a.42.42 0 0 1 .328.204.603.603 0 0 1-.124.624 2.541 2.541 0 0 1-.618.65l-.005.005a3.458 3.458 0 0 0-.747-.134zm-1.332.13a2.54 2.54 0 0 1-.618-.65.603.603 0 0 1-.123-.624.421.421 0 0 1 .333-.204c.35 0 .693.113.972.328l.189 1.02a4.013 4.013 0 0 0-.753.13zm2.461 1.09a2.724 2.724 0 0 0-2.832-.005c.027-.113.043-.225.043-.338a3.186 3.186 0 0 1 2.752.01c-.006.108.005.22.037.334zm-.021-.494a3.343 3.343 0 0 0-2.778-.01.844.844 0 0 0-.086-.28 3.718 3.718 0 0 1 2.955.005.803.803 0 0 0-.091.285zm-.78-2.477a.27.27 0 0 0 .34.156.267.267 0 0 0 .171-.204c.06.075.15.123.247.123a.302.302 0 0 0 .253-.134.408.408 0 0 0 .392.338.393.393 0 0 0 .188-.048.407.407 0 0 0-.016.113.373.373 0 0 1 .161.5.357.357 0 0 1-.22.182.37.37 0 0 0 .064.21h-.026a.306.306 0 0 0-.275.446c-.016-.005-.037-.005-.053-.005a.264.264 0 0 0-.264.263.32.32 0 0 0 .011.07l-.054.053a2.427 2.427 0 0 0-.327-.123l.005-.005c.22-.183.414-.398.575-.635a.695.695 0 0 0 .129-.741.569.569 0 0 0-.44-.274 1.572 1.572 0 0 0-.963.274zm.253-.215a.12.12 0 0 1 .118.118.12.12 0 0 1-.118.118.12.12 0 0 1-.118-.118c0-.059.048-.113.118-.118zm.505-.183a.162.162 0 0 1 0 .322.162.162 0 0 1-.16-.16c0-.086.069-.156.16-.162zm.65.022c.14 0 .258.113.258.252 0 .14-.112.258-.252.258a.257.257 0 0 1-.258-.252c-.005-.14.107-.253.253-.258zm.543.494c.124 0 .226.102.226.226a.227.227 0 0 1-.226.226.227.227 0 0 1-.225-.226c0-.124.096-.226.225-.226zm.161.908a.227.227 0 0 1-.225.226.227.227 0 0 1-.226-.226c0-.123.102-.225.226-.225a.23.23 0 0 1 .225.225zm-.553.677a.162.162 0 0 1-.161-.16c0-.087.075-.162.16-.162.092 0 .162.075.162.161a.162.162 0 0 1-.161.161c-.005 0-.005 0 0 0zm-.328.355a.12.12 0 0 1-.118-.118.12.12 0 0 1 .118-.118.12.12 0 0 1 .118.118.12.12 0 0 1-.118.118c-.005 0-.005 0 0 0zm1.816 3.412a1.375 1.375 0 0 1-.204.086c-.113.027-.226.07-.328.124a4.665 4.665 0 0 0-.188-.715l.634.043c.011.156.038.312.086.462zm-.978-1.408c.033.226.21.398.436.43a.455.455 0 0 0 .327-.166.27.27 0 0 0 .237.252.666.666 0 0 0-.097.285l-.698-.043a4.307 4.307 0 0 0-.382-.752c.06 0 .118 0 .177-.006zm1.005-.677.306-.021a1.12 1.12 0 0 0 1.064-.774l.006-.016a.987.987 0 0 0 .016-.333l-.01-.097-.087.032a2.966 2.966 0 0 1-.478.118.892.892 0 0 0-.489.167l-.01.005-.006.011a.074.074 0 0 1-.022.016c-.01 0-.032-.01-.059-.048-.048-.07-.102-.134-.156-.199 0 0-.005-.01-.01-.016 0-.016.021-.054.118-.075l.102-.022c.118-.021.247-.048.253-.242v-.005a.188.188 0 0 0-.076-.15.7.7 0 0 0-.5-.07h-.01c-.005 0-.01.005-.022.005-.016-.016-.021-.037-.026-.064-.011-.027-.011-.054-.011-.08 0-.033.01-.039.016-.044a.172.172 0 0 0 .059-.129.428.428 0 0 0-.048-.166l-.016-.033c-.011-.027-.022-.053-.022-.086 0-.005 0-.016.005-.021.017-.016.038-.032.065-.032.091-.017.177-.017.269-.011a.99.99 0 0 0 .177 0 .812.812 0 0 0 .188-.075.5.5 0 0 1 .177-.065c.075-.005.231 0 .36.005l.188.006c.247-.032.484-.124.683-.274.016-.016.032-.027.048-.038 0 0 0 .006.005.006.027.059.043.123.049.188a.945.945 0 0 0 .091.295c.06.086.13.167.204.237.043.043.086.086.13.134.048.075.085.156.112.236.049.135.118.264.204.377.097.09.328.311.575.263 0 .005-.005.01-.005.01l-.07.065c-.086.075-.177.15-.177.242v.027c.005.07.021.134.059.193l.005.011a.06.06 0 0 1 .016.043.174.174 0 0 1-.053.097c-.092.096-.124.155-.124.22a.21.21 0 0 0 .022.097l.005.01c.01.027.016.054.022.086v.006h-.006l-.021.01a.399.399 0 0 1-.097.043h-.01c-.167.038-.248.124-.248.27v.026l.005.054c0 .032.006.064.006.086v.016a.076.076 0 0 1-.032.01l-.043.011c-.097.022-.242.06-.258.328l-.006.108c-.005.21-.016.306-.08.311a.245.245 0 0 1-.22-.118c-.011-.027-.033-.118-.038-.129-.092-.28-.06-.21-.194.032-.021.033-.037.081-.07.135a.547.547 0 0 1-.215.252l-.032.016a.035.035 0 0 1-.032 0c-.016-.005-.038-.037-.054-.102a3.191 3.191 0 0 1-.059-.387c-.005-.193.199-.397-.22-.064l-.08.054c-.055.032-.372.172-.463.21-.032.01-.14.02-.14-.006 0-.01 0-.022.006-.032v-.011c.048-.178.129-.14-.156-.108l-.14.006-.043.005a.331.331 0 0 1-.226-.032.154.154 0 0 1-.043-.124.422.422 0 0 1 .328-.43c.178-.037.86-.107 1.161-.134a1.17 1.17 0 0 0 .935-.516c.129-.344.166-.72.113-1.085-.027-.113-.14-.285-.07.032.032.339-.027.672-.172.978a1.049 1.049 0 0 1-.822.446 20.4 20.4 0 0 0-1.177.134.551.551 0 0 0-.398.339c-.064.097-.215.306-.365.3-.172-.005-.306-.209-.306-.386-.022-.521.236-.532.87-.57zm5.648.892c0-.053.016-.107.043-.156a.357.357 0 0 0 .064-.177.124.124 0 0 0-.021-.075c-.054-.086-.167-.08-.253-.08h-.054c-.048-.017-.09-.033-.14-.049a1.51 1.51 0 0 0-.3-.097c-.08 0-.167.011-.242.038a.816.816 0 0 1-.3.043 1.464 1.464 0 0 1-.297-.097.993.993 0 0 0-.703.016 1.05 1.05 0 0 0-.565.5 1.56 1.56 0 0 0 .054 1.38c.075.146.355.614.5.812l.016.017h-.005a.48.48 0 0 0-.237.472c0 .033 0 .065.006.097.01.075.037.124.075.145.027.01.059.006.086-.01a.446.446 0 0 1 .295-.076c.22.006.398.183.409.403a.578.578 0 0 1-.522.575.413.413 0 0 1-.446-.263 1.555 1.555 0 0 0-.155-.575c-.022-.027-.043-.054-.07-.075-.08-.081-.21-.2-.237-.726a4.2 4.2 0 0 0-.44-1.499c.037.01.075.01.113.005.193-.021.204-.241.21-.451l.004-.107c.011-.162.06-.172.146-.194l.053-.01c.113-.033.135-.087.135-.173 0-.026 0-.059-.006-.09l-.005-.055v-.016c0-.08.048-.107.134-.129l.016-.005a.467.467 0 0 0 .13-.054l.02-.01a.152.152 0 0 0 .081-.135.375.375 0 0 0-.026-.134l-.006-.011c-.005-.016-.01-.032-.01-.048 0-.027.02-.054.08-.119a.305.305 0 0 0 .097-.198.221.221 0 0 0-.038-.119l-.005-.005a.255.255 0 0 1-.038-.124c.005-.032.086-.096.124-.134l.086-.075a.263.263 0 0 0 .059-.15c0-.033-.01-.07-.027-.097a.09.09 0 0 0-.113-.022h.005c-.16.075-.349-.07-.494-.21a1.128 1.128 0 0 1-.172-.327 1.143 1.143 0 0 0-.134-.269c-.043-.054-.091-.102-.14-.15a.983.983 0 0 1-.182-.21.853.853 0 0 1-.076-.252.708.708 0 0 0-.07-.237.141.141 0 0 0-.113-.075.237.237 0 0 0-.171.08c-.172.119-.371.2-.575.232l-.183-.006c-.14-.005-.296-.005-.37-.005a.594.594 0 0 0-.232.08.483.483 0 0 1-.145.06.7.7 0 0 1-.15 0 1.174 1.174 0 0 0-.307.01.216.216 0 0 0-.16.108.256.256 0 0 0 .01.225l.021.043c.032.065.049.108.027.124a.258.258 0 0 0-.048.274c.01.064.048.118.102.15a.148.148 0 0 0 .134 0h-.005a.556.556 0 0 1 .37.044c.017.01.022.021.022.037-.005.075-.01.08-.134.108l-.113.026a.272.272 0 0 0-.215.156.154.154 0 0 0 .005.13l.033.037c.053.059.102.118.15.183a.206.206 0 0 0 .177.107.177.177 0 0 0 .13-.065.748.748 0 0 1 .408-.14c.145-.02.29-.053.43-.096v.043a.538.538 0 0 1-.016.134l-.006.017a.957.957 0 0 1-.935.671l-.3.016c-.603.033-1.006.054-1.006.672a.894.894 0 0 1-.268-.021l-.011-.006c-.021-.032-.048-.064-.07-.097-.199-.263-.44-.5-.71-.693a.88.88 0 0 1 .087-.94.266.266 0 0 0 .14.043.264.264 0 0 0 .241-.366.306.306 0 0 0 .387-.296.289.289 0 0 0-.043-.15c.049-.392.226-.757.495-1.042a.37.37 0 0 0-.532-.333.405.405 0 0 0-.376-.537c-.146 0-.28.08-.35.204a.301.301 0 0 0-.376-.215.303.303 0 0 0-.226.263.259.259 0 0 0-.44.065h-.07a.172.172 0 0 1-.183-.15v-.006c0-.097-.091-.167-.215-.167h-.317c-.123 0-.215.07-.215.167a.17.17 0 0 1-.182.156h-.06a.27.27 0 0 0-.241-.162.246.246 0 0 0-.2.097.309.309 0 0 0-.343-.269.304.304 0 0 0-.258.226.398.398 0 0 0-.747.194.39.39 0 0 0 .022.134.345.345 0 0 0-.167-.038c.043.376-.07.758-.312 1.053 0 .205.167.371.371.371.022 0 .043 0 .065-.005a.304.304 0 0 0-.043.15.306.306 0 0 0 .387.296c-.054.134.01.29.145.344a.264.264 0 0 0 .252-.033c.188.14.22.597.065.94-.274.2-.516.43-.72.7-.27.36-.479.757-.624 1.182.038-.237.011-.479-.075-.699-.274-.607-.844-.849-1.22-1.037l-.198-.102a1.702 1.702 0 0 1-.554-.5l-.07-.086-.01-.01c.005 0 .015.005.02.005.13.021.253.07.366.145l.118.097c.065.059.135.118.21.166a.35.35 0 0 0 .355-.016.147.147 0 0 0 .043-.102c0-.043-.011-.08-.027-.118a.345.345 0 0 0-.016-.043l.016.005.064.027a.249.249 0 0 0 .269-.129.345.345 0 0 0-.124-.43c-.091-.075-.349-.328-.553-.532-.161-.161-.29-.29-.333-.322a.767.767 0 0 1-.124-.14.165.165 0 0 0 0-.172.138.138 0 0 0-.14-.038h-.031c-.006 0-.011-.005-.022-.005l-.006.005h-.01c.059-.134.102-.274.134-.413a.549.549 0 0 0-.08-.505.327.327 0 0 0-.302-.097.757.757 0 0 0-.43.295l-.026-.129-.076.022-.354.113.043.123a.786.786 0 0 0-.543.011.336.336 0 0 0-.188.253c-.005.182.08.349.231.456.06.054.113.092.161.124-.01.016-.016.027-.027.027a3.409 3.409 0 0 0-.14.134l-.053.06c-.242.22-.548.365-.87.413-.044.005-.076.032-.081.075-.01.076.07.162.199.22.129.06.155.232.096.576l-.005.01a.117.117 0 0 0 .021.119c.043.043.108.032.22 0l.022-.006.043-.01-.016.064-.005.032-.006.032a1.115 1.115 0 0 0-.032.27c0 .047.006.096.022.144.053.124.129.242.215.35a.173.173 0 0 0 .118.053.197.197 0 0 0 .134-.08v-.006c.01.027.022.049.032.075v.006a.684.684 0 0 0 .473.478.256.256 0 0 0 .2 0 .228.228 0 0 0 .096-.145l.016-.113v-.027l.021.022c.194.28.301.612.312.95 0 .108-.016.216-.043.323a2.41 2.41 0 0 1-.156.414c-.037.08-.064.161-.091.236a2.675 2.675 0 0 1-.516.339l-.102.054a1.626 1.626 0 0 0-.666 1.171v.032c-.28.097-.462.081-.565-.043-.215-.263-.053-.526.183-.838l.07-.097.075-.096.07-.086c.006.016.006.032.01.053l.033.124.027.097a.12.12 0 0 0 .097.107c.032.006.086.06.23-.21.033-.058.092-.155.157-.257l.107-.172a.28.28 0 0 0-.021-.393c-.022-.016-.043-.032-.07-.043-.07-.048-.065-.075-.006-.193l.016-.038c.183-.44.167-.94-.048-1.364-.236-.36-.57-.699-1.016-.597-.21.054-.408.134-.59.253a1.38 1.38 0 0 1-.538.215c-.172.037-.338.08-.5.14-.043.015-.107.037-.113.101v.006c0 .07.076.107.178.15.07.027.134.07.188.124a2.2 2.2 0 0 1-.317.354.13.13 0 0 0-.065.108v.021c.016.076.086.119.22.146v.021a.845.845 0 0 0 .065.527l.022.032c.107.145.188.306.252.473a.344.344 0 0 1-.016.107.23.23 0 0 0 0 .188.131.131 0 0 0 .091.06c.156.037.215-.092.264-.189l.027-.053c.064-.124.15-.301.252-.479l.07-.107c.167-.22.253-.484.253-.758h.053c.033.006.06.006.092 0l.026-.005c.054-.01.124-.027.146-.097.016-.07-.043-.123-.103-.172a.56.56 0 0 1-.112-.457c.032-.112.086-.172.166-.188a.69.69 0 0 1 .532.317c.097.14.145.312.145.479a.67.67 0 0 1-.016.145c-.037.166-.07.182-.07.182-.016 0-.027-.005-.043-.01l-.053-.011a.463.463 0 0 0-.344.075l-.027.022c-.07.048-.161.107-.15.204.01.086.102.123.171.15a.11.11 0 0 1 .076.07c0 .15-.054.301-.156.414l-.043.054-.102.134c-.409.527-.543 1.032-.366 1.392.108.215.376.473 1.037.478a1.035 1.035 0 0 1-.123.333.723.723 0 0 1-.586.301l-.048.005h-.038a.187.187 0 0 0-.15.06c-.06.064-.076.188-.06.44.022.22.006.44-.042.656-.011.053-.022.102-.027.156-.006.037-.011.08-.022.118-.016.054-.021.107-.027.161 0 .043.011.08.033.113a.19.19 0 0 0 .134.075l.15.01c.033 0 .07 0 .097.006v.005c-.005.011-.01.022-.01.033h-1.704l.537.93-.5.967h4.563l.258.875a13.964 13.964 0 0 1 4.62-.81h.011c1.575.01 3.139.279 4.622.81l.258-.875h4.492s-.462-.903-.5-.968l.537-.93h-1.94c.017-.117.027-.236.022-.354a2.712 2.712 0 0 0-.043-.247c-.021-.086-.032-.172-.043-.258 0-.097 0-.403.01-.473.022-.204-.193-.365-.295-.44l-.032-.027a2.168 2.168 0 0 1-.269-.274.97.97 0 0 0 1.145-.312c.097-.129.172-.269.23-.42l.012-.015c.048-.102.102-.194.172-.28.096-.086.51-.628.376-.843-.092-.145-.328-.065-.403-.033-.043.017-.065-.016-.097-.123a3.438 3.438 0 0 1-.08-.371c-.006-.043-.011-.134-.086-.172a.149.149 0 0 0-.156.022c-.022.016-.049.021-.07.016a.129.129 0 0 1-.054-.054c-.021-.048-.054-.167-.075-.236l-.016-.054-.011-.038c-.01-.048-.027-.113-.091-.134-.065-.016-.113.032-.162.08l-.096.113a.933.933 0 0 1-.344-.935.627.627 0 0 1 .317-.51.789.789 0 0 1 .586.005l.037.022c.022.01.043.021.065.037-.006.006-.016.011-.022.016l-.005.006-.006.005a.524.524 0 0 0-.145.355c.049.3.205.58.436.779v.005c-.017.301.07.597.247.839.07.064.16.096.258.086.145-.033.29-.092.419-.167.037-.016.15-.129-.033-.177-.182-.049-.134-.21-.123-.29.027-.146.075-.285.145-.414a.337.337 0 0 0 .032-.178 1.076 1.076 0 0 0-.064-.317c.032-.005.064-.01.097-.021a.265.265 0 0 0 .177-.161c.005-.016.005-.032.005-.043a.212.212 0 0 0-.054-.135.123.123 0 0 1-.053-.102z" fill="#fff"/></mask><g mask="url(#G)"><mask id="H" mask-type="alpha" maskUnits="userSpaceOnUse" x="10" y="13" width="20" height="15"><path fill="#fff" d="M10.254 13.256h18.995V27.12H10.254z"/></mask><g mask="url(#H)"><path fill="#0074c2" d="M9.706 12.714h20.016v14.928H9.706z"/></g></g></g></g><mask id="I" mask-type="alpha" maskUnits="userSpaceOnUse" x="24" y="14" width="1" height="2"><path fill-rule="evenodd" clip-rule="evenodd" d="M24.587 14.94a.442.442 0 0 0-.317-.06.08.08 0 0 0-.065.065c0 .038.081.107.124.14a.206.206 0 0 0 .177.016.6.6 0 0 1 .14-.043c.06-.016.048-.043.032-.06a2.46 2.46 0 0 1-.091-.058z" fill="#fff"/></mask><g mask="url(#I)"><path fill="#0074c2" d="M23.663 14.327h1.58v1.333h-1.58z"/></g><mask id="J" mask-type="alpha" maskUnits="userSpaceOnUse" x="14" y="15" width="1" height="1"><path fill-rule="evenodd" clip-rule="evenodd" d="M14.552 15.425c.059.037.118.07.182.102.102.043.118-.006.145-.102.033-.103-.032-.103-.07-.103-.037 0-.14.006-.214.017-.151.016-.076.075-.044.085z" fill="#fff"/></mask><g mask="url(#J)"><path fill="#0074c2" d="M13.96 14.78h1.472v1.311H13.96z"/></g></g></svg>