<svg width="40" height="40" fill="none" xmlns="http://www.w3.org/2000/svg"><g clip-path="url(#a)" transform="matrix(1.4 0 0 1.4 -8 -8)"><mask id="b" mask-type="alpha" maskUnits="userSpaceOnUse" x="10" y="10" width="20" height="20"><path fill="#fff" d="M10 10.024h20v19.951H10z"/></mask><g mask="url(#b)"><mask id="c" mask-type="alpha" maskUnits="userSpaceOnUse" x="10" y="10" width="20" height="20"><path fill-rule="evenodd" clip-rule="evenodd" d="M10 10.024v19.952h20V10.024Z" fill="#fff"/></mask><g mask="url(#c)" fill-rule="evenodd" clip-rule="evenodd"><path d="M19.998 29.976c1.013-1.343 2.418-1.618 4.162-1.783 2.062-.196 2.983-.406 4.162-1.719.74-.821 1.255-2.157 1.255-3.368 0-.845-.044-1.542-.463-2.753-.896-2.594-1.177-3.567.883-5.947L25.7 10.113c-.924.77-2.928 2.114-5.702-.089-2.797 2.225-4.737.838-5.704.09L10 14.405c2.049 2.38 1.858 3.36.881 5.947-.44 1.167-.462 1.939-.462 2.753 0 1.211.473 2.542 1.255 3.368 1.218 1.287 2.137 1.521 4.162 1.718 1.806.176 3.15.463 4.162 1.784z" fill="#fff"/><path d="M19.998 29.447c1.035-1.166 2.603-1.427 4.181-1.586 1.984-.198 2.758-.404 3.856-1.585.713-.767 1.188-1.96 1.188-3.17 0-.813-.13-1.802-.505-2.819-1.025-2.775-.795-3.92.815-5.858l-3.877-3.876s-2.488 2.312-5.658-.131c-3.15 2.443-5.66.131-5.66.131l-3.876 3.876c1.649 1.939 1.885 3.104.816 5.858a7.746 7.746 0 0 0-.508 2.82c0 1.187.469 2.436 1.19 3.17 1.137 1.157 1.878 1.365 3.853 1.584 1.587.177 3.15.42 4.185 1.586z" fill="#161413"/><path d="M19.999 28.5c1.608-1.035 2.421-1.013 4.073-1.255 1.432-.21 2.37-.323 3.413-1.364 1.476-1.477 1.333-3.573.442-5.946-1.037-2.753-.121-4.361.747-5.462l-3.083-3.083S23.17 13.305 20 11.236c-3.171 2.07-5.595.154-5.595.154l-3.085 3.083c.862 1.1 1.81 2.687.752 5.462-.908 2.381-1.013 4.469.44 5.946 1.034 1.048 1.964 1.157 3.413 1.365 1.696.24 2.467.22 4.075 1.255z" fill="#fff"/><path d="M19.999 27.51c1.74-.966 2.801-.868 4.754-1.167 3.34-.513 3.136-3.307 2.924-4.392a8.376 8.376 0 0 0-.227-.916c-.27-.785-.881-2.286-.78-3.786H13.326c.125 1.567-.544 3.164-.805 3.909a7.173 7.173 0 0 0-.173.647c-.209.95-.588 3.982 2.892 4.538 2.085.333 3.015.2 4.758 1.166z" fill="#e20010"/><path d="M15.527 13.489h.53v1.124h.547v-1.124h.556v2.84h-.556v-1.215h-.547v1.216h-.53zM17.735 13.488h.575v2.842h-.575zM25.715 13.388c.811 0 .871.513.86.914h-.564c-.002-.626-.616-.531-.61-.142.001.215.396.443.724.643.293.182.495.473.503.792.006.28-.12.804-.913.804-.808 0-.874-.6-.875-.941h.54c0 .696.654.612.66.157 0 0 .04-.212-.32-.428-.407-.242-.865-.424-.853-1.016 0-.163.035-.783.848-.783zM20.365 13.489h.573v2.396h.621v.445h-1.194zM18.885 13.483h.573v2.396h.62v.445h-1.193zM13.538 13.478v2.866h.575v-.935c.16-.006 1.097.092 1.12-.917.03-1.12-.922-1.014-1.12-1.014zm.575.432v1.026c.085 0 .592.115.59-.524-.001-.567-.474-.502-.59-.502zM22.979 13.478v2.866h.574v-.935c.16-.006 1.097.092 1.12-.917.029-1.12-.922-1.014-1.12-1.014zm.574.432v1.026c.084 0 .59.115.59-.524-.002-.567-.474-.502-.59-.502zM21.84 13.489h.575v2.84h-.575z" fill="#161413"/><path d="M24.127 20.785c1.178.427.888 1.933.296 2.904-.738 1.211-2.35 1.358-3.303.991-1.518-.584-1.059-2.272-.561-3.666.715-2.004 2.103-2.952 3.92-2.344.97.321 1.11 1.302 1.013 1.584l-1.575-.116s.1-.646-.352-.646c-.693 0-1.141 1.477-1.141 1.477s.663-.56 1.703-.184zm-2.191 1.67c.193-.438.49-.906.88-.825.528.11.347.81.162 1.309-.186.503-.558 1.048-1.016.925-.425-.113-.248-.906-.026-1.409zm-3.614-1.67c1.178.427.888 1.933.298 2.904-.738 1.211-2.352 1.358-3.305.991-1.518-.584-1.06-2.274-.56-3.666.705-1.96 2.048-2.963 3.92-2.344.972.318 1.11 1.302 1.012 1.584l-1.574-.116s.1-.646-.352-.646c-.693 0-1.141 1.477-1.141 1.477s.663-.56 1.702-.184zm-2.178 1.67c.194-.438.477-.906.868-.825.529.11.345.81.162 1.309-.187.503-.558 1.048-1.015.925-.427-.113-.237-.906-.015-1.409z" fill="#fff"/><path d="M29.224 27.826h.122c.103 0 .197-.005.197-.124 0-.099-.086-.114-.165-.114h-.154zm-.117-.333h.29c.178 0 .262.071.262.215 0 .135-.085.192-.197.204l.214.33h-.125l-.203-.322h-.124v.322h-.117zm.25.922c.297 0 .526-.236.526-.55a.527.527 0 1 0-1.055 0c0 .314.23.55.53.55zm0-1.187c.35 0 .643.276.643.637a.639.639 0 0 1-.642.645.64.64 0 1 1 0-1.282z" fill="#161413"/></g></g></g><defs><clipPath id="a"><path fill="#fff" d="M0 0h40v40H0z"/></clipPath></defs></svg>