<svg width="40" height="40" fill="none" xmlns="http://www.w3.org/2000/svg"><g clip-path="url(#a)" transform="matrix(1.4 0 0 1.4 -8 -8.16)"><g clip-path="url(#b)"><path d="m17.338 12-.001.1v7.371c0 .12.017.103-.102.103H16.042c-.023.001-.032-.01-.031-.033v-7.455l.002-.086h1.325ZM30 15.335l-.023-.001c-.12-.001-.12-.001-.12-.125v-.422c-.022.013-.023.034-.03.052-.048.148-.098.296-.145.444-.012.039-.03.057-.07.051a.162.162 0 0 0-.047 0c-.04.006-.055-.013-.065-.048-.044-.147-.09-.293-.135-.44-.008-.023-.01-.049-.034-.072.013.16.01.316.01.472v.055c0 .022-.011.03-.034.033-.104.013-.113.006-.113-.101v-.6c0-.059.001-.06.06-.06.052 0 .113-.02.152.008.04.028.039.093.054.142.036.11.07.222.105.334.007.023.01.05.033.078.01-.025.019-.045.025-.065.049-.148.099-.295.144-.444.013-.043.033-.057.077-.054.052.003.104 0 .156 0v.763ZM23.295 20.09c0 .39.006.779-.001 1.168a2.613 2.613 0 0 1-5.222-.05v-2.415c0-.02.01-.028.028-.029h1.271c.02 0 .027.012.027.03v2.377a1.287 1.287 0 1 0 2.572-.011V18.805c-.002-.029.007-.045.039-.042h1.2c.016 0 .031.001.047 0 .03-.003.043.01.04.04v1.286h-.001z" fill="#00ab4d"/><path d="M28.71 15.015v-.257c.002-.037-.01-.05-.048-.048-.039.003-.078 0-.117 0-.03.002-.04-.011-.041-.04-.006-.098-.007-.097.093-.097h.413c.076 0 .07-.006.07.073v.023c.003.03-.01.043-.04.042-.041-.002-.083 0-.125 0-.03-.002-.041.009-.04.04v.536c0 .032-.008.046-.043.048-.122.006-.122.007-.122-.117v-.203z" fill="#00ab4e"/><path d="M28.713 18.725a13.14 13.14 0 0 0-.07-1.594 5.508 5.508 0 0 0-.125-.72 2.613 2.613 0 0 0-3.054-1.919 2.607 2.607 0 0 0-2.087 2.39 2.547 2.547 0 0 0 .362 1.505 2.609 2.609 0 0 0 3.589.905c.018-.012.034-.033.067-.023v.239c.004.474-.032.944-.111 1.411a7.664 7.664 0 0 1-.763 2.279 7.863 7.863 0 0 1-3.613 3.51 7.67 7.67 0 0 1-2.71.741 9.19 9.19 0 0 1-2.589-.16 8.178 8.178 0 0 1-1.54-.465c-.016-.006-.03-.021-.05-.014-.01.008-.008.019-.008.029l-.001 1.23c0 .039.015.055.047.07.13.054.26.105.392.151a9.358 9.358 0 0 0 6.24-.057c2.765-1.018 4.991-3.397 5.743-6.37.152-.6.244-1.21.272-1.829.02-.436.007-.872.009-1.309zm-1.444-1.624a1.288 1.288 0 0 1-1.294 1.237 1.29 1.29 0 0 1-1.276-1.333 1.291 1.291 0 0 1 1.314-1.238c.675.013 1.284.58 1.256 1.334zM15.29 16.54a2.609 2.609 0 0 0-2.988-2.064 2.61 2.61 0 0 0-2.016 1.645c-.137.36-.187.738-.229 1.118-.025.227-.037.455-.049.683.006.14-.007.28-.007.42v3.937c0 .029-.005.058.01.084h1.216c.102 0 .09.012.09-.092l.001-2.914v-.09c.034-.005.05.015.07.026a2.565 2.565 0 0 0 1.905.308 2.606 2.606 0 0 0 1.998-3.06zm-1.276.542a1.288 1.288 0 0 1-1.291 1.256 1.29 1.29 0 0 1-1.28-1.313 1.286 1.286 0 0 1 2.57.057z" fill="#00ab4d"/></g></g><defs><clipPath id="a"><path fill="#fff" d="M0 0h40v40H0z"/></clipPath><clipPath id="b"><path fill="#fff" transform="translate(10 12)" d="M0 0h20v16.799H0z"/></clipPath></defs></svg>