<svg width="40" height="40" fill="none" xmlns="http://www.w3.org/2000/svg"><path d="M20 6c7.732 0 14 6.268 14 14s-6.268 14-14 14S6 27.732 6 20 12.268 6 20 6Z" fill="url(#a)" style="fill:url(#a);stroke-width:1.4"/><path d="M9.718 20.004c0 6.413 4.048 11.88 9.73 13.984C11.973 33.697 6 27.548 6 20c0-7.556 5.985-13.712 13.471-13.988-5.69 2.1-9.753 7.571-9.753 13.992z" fill="url(#b)" style="fill:url(#b);stroke-width:1.4"/><path d="M19.763 18.87c.93-2.291-.809-2.913-1.94-2.913h-3.75c.312.214.261.497.199.672l-2.186 6.98c-.085.277-.412.569-.587.612h3.033c-.167-.032-.404-.269-.318-.592l.793-2.523c.004 0 3.652.493 4.756-2.237zm-2.948-2.272c.397 0 1.497.055.786 2.135-.743 2.186-2.392 1.735-2.392 1.735l1.213-3.87z" fill="#fff" style="stroke-width:1.4"/><path d="M22.19 24.224h2.041c-.653-.21-1.617-.828-2.002-1.267.31-.339.696-.766.766-1.634h-1.058s.202.117.202.366c0 .23-.093.548-.272.77-.311-.46-.642-.984-.758-1.754.416-.206.999-.432 1.462-.836.44-.385.54-.75.548-.988v-.031a.912.912 0 0 0-.276-.657c-.307-.304-.79-.428-1.299-.335a2.031 2.031 0 0 0-.93.455c-.614.58-.692 1.533-.692 1.964 0 .105.004.183.008.23l-.097.039c-.451.167-1.653.486-2.08 1.473a1.928 1.928 0 0 0-.133.712c0 .272.059.576.234.852.303.474.816.774 1.64.758.895-.015 1.778-.626 1.933-.739.152.144.553.521.763.622zm0-5.522c-.105.665-.969 1.338-1.179 1.427-.039-.373-.02-.964.292-1.446.206-.32.482-.46.704-.381.179.062.198.225.183.4zm-1.198 4.45c-.12.073-.595.314-1.038.357-.413.039-1.097-.12-1.093-.945 0-.704.766-1.221 1.182-1.4.167.68.544 1.45.949 1.987z" fill="#fff" style="stroke-width:1.4"/><path d="M28.392 16.606c1.214-.292 2.213.657 2.303.723l.346-1.1c-.479-.144-3.96-1.322-6.42 1.485-1.514 1.727-1.883 5.266.034 6.215 2.054 1.015 4.32-.156 4.488-.237l.937-2.987c.101-.362.33-.595.735-.747h-3.259c.475.199.44.556.405.704l-.937 2.987c-.125.023-2.746.676-1.28-3.909.323-.983 1.206-2.788 2.648-3.134z" fill="#fff" style="stroke-width:1.4"/><mask id="d" mask-type="alpha" maskUnits="userSpaceOnUse" x="10" y="10" width="10" height="20"><path d="M12.656 20.003c0 4.58 2.891 8.486 6.95 9.989C14.266 29.783 10 25.392 10 20c0-5.397 4.275-9.794 9.622-9.992-4.064 1.5-6.966 5.409-6.966 9.995Z" fill="url(#c)"/></mask><g mask="url(#d)" transform="matrix(1.4 0 0 1.4 -8 -8)"><path d="M12.656 20.003c0 4.58 2.891 8.486 6.95 9.989C14.266 29.783 10 25.392 10 20c0-5.397 4.275-9.794 9.622-9.992-4.064 1.5-6.966 5.409-6.966 9.995z" fill="url(#e)" style="fill:url(#e)"/></g><defs><radialGradient id="a" cx="0" cy="0" r="1" gradientUnits="userSpaceOnUse" gradientTransform="translate(11.938 28.551) scale(26.14556)"><stop stop-color="#00A1DF"/><stop offset=".13" stop-color="#0092D7"/><stop offset=".37" stop-color="#006CC1"/><stop offset=".62" stop-color="#003DA6"/><stop offset=".73" stop-color="#043799"/><stop offset=".93" stop-color="#102777"/><stop offset="1" stop-color="#152169"/></radialGradient><radialGradient id="b" cx="0" cy="0" r="1" gradientUnits="userSpaceOnUse" gradientTransform="translate(10.035 31.841) scale(43.351)"><stop offset=".02" stop-color="#fff"/><stop offset=".03" stop-color="#FBFEFF"/><stop offset=".09" stop-color="#BAE7F9"/><stop offset=".14" stop-color="#87D5F4"/><stop offset=".19" stop-color="#63C9F1"/><stop offset=".23" stop-color="#4CC1EF"/><stop offset=".26" stop-color="#44BEEE"/><stop offset=".28" stop-color="#37B8EB"/><stop offset=".35" stop-color="#19ACE5"/><stop offset=".41" stop-color="#07A4E0"/><stop offset=".45" stop-color="#00A1DF"/><stop offset=".79" stop-color="#0045AB"/><stop offset=".82" stop-color="#003DA6"/><stop offset=".96" stop-color="#0059B6"/></radialGradient><radialGradient id="c" cx="0" cy="0" r="1" gradientUnits="userSpaceOnUse" gradientTransform="rotate(88.232 -1.276 19.635) scale(10.7704 10.9601)"><stop offset=".1" stop-color="#fff"/><stop offset=".35" stop-color="#FDFDFD"/><stop offset=".45" stop-color="#F6F6F6"/><stop offset=".51" stop-color="#EAEAEA"/><stop offset=".57" stop-color="#D9D9D9"/><stop offset=".62" stop-color="#C3C3C3"/><stop offset=".66" stop-color="#A7A7A7"/><stop offset=".7" stop-color="#868686"/><stop offset=".73" stop-color="#606060"/><stop offset=".77" stop-color="#353535"/><stop offset=".8"/></radialGradient><radialGradient id="e" cx="0" cy="0" r="1" gradientUnits="userSpaceOnUse" gradientTransform="translate(17.78 21.951) scale(12.5814)"><stop offset=".32" stop-color="#44BEEE" stop-opacity="0"/><stop offset=".48" stop-color="#2B99D9" stop-opacity=".27"/><stop offset=".67" stop-color="#1476C6" stop-opacity=".58"/><stop offset=".82" stop-color="#0561BA" stop-opacity=".84"/><stop offset=".92" stop-color="#0059B6"/></radialGradient></defs></svg>