<svg width="40" height="40" fill="none" xmlns="http://www.w3.org/2000/svg"><g clip-path="url(#a)" transform="matrix(1.4 0 0 1.4 -7.999 -8)"><mask id="b" mask-type="alpha" maskUnits="userSpaceOnUse" x="10" y="10" width="20" height="20"><path fill="#fff" d="M10 10h20v20H10z"/></mask><g mask="url(#b)" fill-rule="evenodd" clip-rule="evenodd" fill="#42c4dd"><path d="M20.456 19.839c-.086-.178-.053-.428.025-.411.294.036.372-.028.372-.22-.108-.386-.692-.227-1.111-.258a.278.278 0 0 0-.245.375c.075.136.156.12.264.092.109-.028.09-.075.225-.028a.37.37 0 0 1 .192.372c-.047.136-.18.17-.336.175-.067 0-.43.02-.497 0-.211-.025-.484 0-.514-.344-.02-.464.439-.656.678-1.086.08-.409-.109-.525-.167-.798-.058-.272-.278-.602.042-.791.891-.37.819 1.039 1.23 1.11.278.037.472.087.639-.155.047-.116.089-.33-.089-.4-.933.24-.555-1.022-1.389-.997-.114-.203-.047-.594-.394-.603-.097.02-.136.136-.114.245.244.694-.406.405-.63.75-.278.78-.64.277-1.142.4a.325.325 0 0 0-.23.502c.155.345.702.323 1.166.22.142.153.256.33.336.522.175.353-.128.595-.32.833-.163.323-.176.7-.036 1.034.115.329.38.583.714.683a.864.864 0 0 0 .795-.278c-.278-.077-.667-.277-.717-.594.28-.099.58-.126.872-.078.278.036.534.12.717.033.061-.036.028-.094-.047-.102-.075-.009-.2-.042-.278-.214m-4.411-2.545c.21.05.341.345.48.323.09-.059 0-.325-.064-.475a.778.778 0 0 0-.755-.556c-.128.07-.1.186-.078.361.047.256.25.495.417.35M28.064 23.564a.614.614 0 0 0-.278-.072.662.662 0 0 0-.667.67c0 .122.033.242.097.346a.656.656 0 0 0 .556.32.628.628 0 0 0 .461-.206.644.644 0 0 0 .192-.472.645.645 0 0 0-.361-.586Zm-.048 1.017a.206.206 0 0 1-.03-.112 1.059 1.059 0 0 0 0-.133.12.12 0 0 0-.075-.1.383.383 0 0 0-.117-.014h-.222v.359h-.139v-.85h.417a.365.365 0 0 1 .18.038.214.214 0 0 1 .114.2.211.211 0 0 1-.128.203c.037.014.066.04.084.075a.236.236 0 0 1 .025.09v.094c-.001.043.01.086.03.125l.028.03z"/><path d="M27.917 23.858a.369.369 0 0 0-.114 0h-.242v.278h.212a.383.383 0 0 0 .163-.025.12.12 0 0 0 .059-.114.111.111 0 0 0-.078-.139z"/><path d="M10 10v20h6.197a1.466 1.466 0 0 0-.2-.617c-.291-.527-.833-.833-.92-1.436a3.333 3.333 0 0 1 0-1.522c.264.294.555.562.87.8-.278-.97-.986-2.38-.591-3.794.244-1.453.041-2.57 1.425-4.067.126-.306.126-.65 0-.956-.725-.277-1.306-.555-1.578-1.239-.615.19-1.084.69-1.23 1.317-.048.392-.045.833.358.956.241.05.4 0 .513-.361 0-.175-.047-.459.195-.481.261-.067.358.167.475.322.146.469.075.979-.195 1.39-.4.491-1.057.695-1.666.516a2.253 2.253 0 0 1-1.503-1.834c-.278-1.638.261-3.288 1.667-4.183.261-.18.557-.304.87-.364-.165.156-.615.367-.412.62.444-.25.87-.748 1.33-.903.131-.008.263.005.39.039-.278.255-1.006.672-.756.95.194-.084.88-.745 1.364-.88.14-.003.281.016.416.055-.319.278-.794.528-1.027.916.08.12.158.09.241.037.084-.053.64-.414.864-.573.127-.09.268-.16.417-.205.13.011.254.054.364.125-.309.33-.784.464-1.034.828a.915.915 0 0 0-.063.1c0 .15.03.202.166.147.156-.096.305-.202.447-.317.281-.209.587-.381.911-.514.135.061.26.14.373.236-.475.278-1.39.864-1.142 1.111.483-.094.895-.705 1.389-.788.114-.02.18.11.358.094.114 0 .184-.142.278-.144a.87.87 0 0 1 .445.152c.155.092.833.49 1.025.59.073.037.149.07.227.096.256-.375-.966-.763-1.464-1.155a.815.815 0 0 1 .367-.23c.066.01.13.03.189.063.139.072 1.042.597 1.389.736.058-.172-.03-.277-.167-.372a38.107 38.107 0 0 0-1.116-.639c.13-.064.271-.1.416-.105.39.06.834.458 1.25.672.059 0 .078-.058.117-.089-.175-.408-.567-.478-.95-.672.375-.063.761.012 1.086.21l.08.054c1.045 1.055.484 2.82.64 4.194a.38.38 0 0 0 .319.322.533.533 0 0 0 .555-.439c0-.172 0-.341.156-.438.325-.025.417.213.475.438a1.53 1.53 0 0 1-.308 1.15 1.55 1.55 0 0 1-1.667.4c-.833-.35-.95-1.216-1.036-1.988-.045-.064-.236-.04-.325 0l-.253.152c1.389 3.142 1.9 7.695-.278 10.634.523-.098.93-.734 1.39-1.13.12.144.19.326.194.516a3.43 3.43 0 0 0 .52-1.575c.132-1.27.091-2.55-.12-3.809 1.025 1.267 1.11 2.975 1.305 4.548.853-.94.33-2.323-.116-3.27 1.725 1.036 2.963 2.592 3.36 4.509.359-.734.017-1.759-.31-2.314a4.841 4.841 0 0 0-.556-.684c1.22.556 2.58 1.517 2.933 2.998.062.36.088.727.078 1.094h.583V10Zm18.425 14.561a.775.775 0 1 1-1.011-1.094.78.78 0 0 1 .755.03c.12.075.216.182.278.309.056.109.084.23.084.352a.756.756 0 0 1-.106.403z"/></g></g><defs><clipPath id="a"><path fill="#fff" d="M0 0h40v40H0z"/></clipPath></defs></svg>