<svg width="40" height="40" fill="none" xmlns="http://www.w3.org/2000/svg"><path d="M19.687 6C12.954 6 7.525 11.234 7.525 18.22c0 7.005 5.43 12.22 12.162 12.22a12.34 12.34 0 0 0 3.307-.448l1.324 3.405c.136.37.408.603.895.603h2.101c.506 0 .876-.33.642-.973l-1.712-4.456c3.366-2.12 5.604-5.876 5.604-10.37C31.848 11.233 26.419 6 19.687 6Zm5.292 19.322-1.537-3.99c-.136-.33-.409-.641-.992-.641h-2.005c-.505 0-.895.33-.661.973l2.023 5.234a8.335 8.335 0 0 1-2.12.253c-4.923 0-8.426-3.872-8.426-8.931 0-5.06 3.503-8.932 8.426-8.932 4.922 0 8.425 3.873 8.425 8.932 0 2.957-1.187 5.487-3.133 7.102z" fill="#fff" style="stroke-width:1.4"/></svg>