<svg width="40" height="40" fill="none" xmlns="http://www.w3.org/2000/svg"><mask id="a" mask-type="alpha" maskUnits="userSpaceOnUse" x="10" y="10" width="20" height="20"><path fill="#fff" d="M10.156 10h19.688v20H10.156z"/></mask><g mask="url(#a)" transform="matrix(1.4 0 0 1.4 -7.996 -7.955)"><path fill-rule="evenodd" clip-rule="evenodd" d="M20.388 15.896c.202.02.399.055.59.104l1.026-5.891a9.758 9.758 0 0 0-.588-.105zm-3.101 1.043-4.52-3.839c-.21.23-.408.47-.596.719l4.509 3.832c.174-.26.378-.5.607-.712zm7.88-5.548a9.882 9.882 0 0 0-.482-.286l-2.953 5.173c.169.083.331.177.486.282zm2.232 1.922-4.506 3.826c.111.118.215.243.311.375l4.504-3.824a9.426 9.426 0 0 0-.309-.377zm-11.292 5.668c.081-.355.209-.692.376-1.004l-5.535-2.04c-.139.327-.26.664-.365 1.01zm7.869.901c0 2.214-1.785 4.008-3.986 4.008a3.991 3.991 0 0 1-3.927-3.33l-5.525 2.038c.122.434.273.855.45 1.263l5.491-2.025-4.482 3.813c.284.401.595.78.933 1.132l4.192-3.562-2.734 4.815c.434.306.893.578 1.374.81l2.57-4.524-.897 5.148c.549.15 1.116.25 1.698.302l.837-4.812.84 4.815a9.702 9.702 0 0 0 1.775-.317l-.778-4.466 2.241 3.932a9.867 9.867 0 0 0 1.733-1.023l-2.058-3.605 3.146 2.671a9.964 9.964 0 0 0 1.338-1.645l-2.811-2.385 3.441 1.268c.319-.664.565-1.37.732-2.106l-3.02-1.112h3.21c.041-.372.064-.749.064-1.13 0-.443-.031-.878-.086-1.305h-5.988c.146.417.227.865.227 1.332zm-7.971 0c0-.222.019-.44.053-.652h-5.88a9.852 9.852 0 0 0-.022.624c0 .196.007.39.019.584h5.869a4.077 4.077 0 0 1-.04-.555zm1.675-3.263a3.93 3.93 0 0 1 .691-.398l-2.954-5.18c-.235.125-.463.26-.687.403zm.264-6.503a9.53 9.53 0 0 1 .652-.116l1.027 5.893c-.223.02-.441.06-.653.116z" fill="#ce1126"/></g></svg>