<svg width="40" height="40" fill="none" xmlns="http://www.w3.org/2000/svg"><g clip-path="url(#a)" transform="matrix(1.4 0 0 1.4 -8 -8)"><mask id="b" mask-type="alpha" maskUnits="userSpaceOnUse" x="10" y="17" width="20" height="6"><path fill="#fff" d="M10 17.829h20v4.341H10z"/></mask><g mask="url(#b)"><path fill-rule="evenodd" clip-rule="evenodd" d="M12.278 21.25a.82.82 0 0 1-.066.344.843.843 0 0 1-.17.248.927.927 0 0 1-.398.234c-.156.047-.323.07-.499.07-.152 0-.302-.022-.45-.066a1.018 1.018 0 0 1-.399-.226.948.948 0 0 1-.212-.286.83.83 0 0 1-.084-.375h.529c0 .07.014.135.042.195.028.06.063.111.106.154a.45.45 0 0 0 .222.122 1.13 1.13 0 0 0 .535-.004.432.432 0 0 0 .292-.228.338.338 0 0 0 .032-.162c0-.104-.034-.182-.102-.235a.54.54 0 0 0-.235-.102 2.592 2.592 0 0 0-.316-.04 3.128 3.128 0 0 1-.312-.036 1.075 1.075 0 0 1-.278-.084.73.73 0 0 1-.384-.395.803.803 0 0 1 .01-.622.925.925 0 0 1 .18-.252.967.967 0 0 1 .36-.22c.147-.054.304-.08.472-.08.152 0 .299.023.439.07a.941.941 0 0 1 .56.478c.052.101.08.212.082.332h-.528a.411.411 0 0 0-.038-.15.497.497 0 0 0-.086-.13.451.451 0 0 0-.192-.112.787.787 0 0 0-.24-.04 1 1 0 0 0-.247.032.44.44 0 0 0-.214.124.32.32 0 0 0-.096.24c0 .094.026.165.08.214.053.05.123.081.208.094.09.014.193.026.306.037.114.01.217.022.31.036.107.016.208.045.303.086a.842.842 0 0 1 .248.164c.07.068.127.15.169.246a.817.817 0 0 1 .062.325z" fill="#d6002a"/></g><mask id="c" mask-type="alpha" maskUnits="userSpaceOnUse" x="10" y="17" width="20" height="6"><path fill="#fff" d="M10 17.829h20v4.341H10z"/></mask><g mask="url(#c)"><path fill-rule="evenodd" clip-rule="evenodd" d="m14.514 22.099-.2-.225a1.134 1.134 0 0 1-.379.225c-.137.048-.28.072-.426.072-.126 0-.246-.02-.36-.06a.916.916 0 0 1-.3-.17.811.811 0 0 1-.281-.631c0-.177.046-.327.138-.453.092-.125.214-.235.366-.328a2.205 2.205 0 0 1-.124-.143.999.999 0 0 1-.096-.142.682.682 0 0 1-.084-.332.699.699 0 0 1 .228-.527.693.693 0 0 1 .247-.142.96.96 0 0 1 .6-.002c.095.03.178.076.25.136a.67.67 0 0 1 .173.22.668.668 0 0 1 .064.299.702.702 0 0 1-.152.45c-.048.06-.105.116-.17.167-.066.05-.137.098-.215.144l.493.536a.503.503 0 0 0 .05-.158 2.63 2.63 0 0 0 .03-.378v-.16h.733v.396h-.329c-.005.112-.02.223-.044.333a.901.901 0 0 1-.128.304l.525.569h-.609Zm-1.15-1.258-.131.084a.552.552 0 0 0-.107.092.396.396 0 0 0-.098.273.418.418 0 0 0 .154.332c.047.037.101.065.163.084a.656.656 0 0 0 .192.028.94.94 0 0 0 .256-.036.452.452 0 0 0 .22-.14zm.497-.925c0-.099-.03-.175-.09-.228a.328.328 0 0 0-.226-.08.35.35 0 0 0-.22.074c-.064.05-.096.123-.096.222 0 .045.008.088.026.128a.771.771 0 0 0 .15.216l.092.092c.043-.023.086-.048.13-.074a.64.64 0 0 0 .118-.086.335.335 0 0 0 .116-.264z" fill="#d6002a"/></g><mask id="d" mask-type="alpha" maskUnits="userSpaceOnUse" x="10" y="17" width="20" height="6"><path fill="#fff" d="M10 17.829h20v4.341H10z"/></mask><g mask="url(#d)"><path fill-rule="evenodd" clip-rule="evenodd" d="M17.615 20.164c0 .136-.022.26-.064.373a.772.772 0 0 1-.19.288.86.86 0 0 1-.315.186 1.3 1.3 0 0 1-.432.066h-.601v1.017H15.5v-2.839h1.113c.163 0 .307.022.433.066.126.044.23.106.314.185a.755.755 0 0 1 .19.286c.043.112.065.236.065.372zm-.52.004a.466.466 0 0 0-.121-.332c-.08-.085-.207-.128-.38-.128h-.58v.917h.58c.173 0 .3-.042.38-.126a.46.46 0 0 0 .12-.33z" fill="#d6002a"/></g><mask id="e" mask-type="alpha" maskUnits="userSpaceOnUse" x="10" y="17" width="20" height="6"><path fill="#fff" d="M10 17.829h20v4.341H10z"/></mask><g mask="url(#e)"><path fill-rule="evenodd" clip-rule="evenodd" d="m20.658 22.095-.06-.313a.674.674 0 0 1-.254.244 1.035 1.035 0 0 1-.21.087.886.886 0 0 1-.249.033c-.165 0-.32-.022-.462-.068a.885.885 0 0 1-.383-.248 1.128 1.128 0 0 1-.182-.244 1.354 1.354 0 0 1-.112-.272 1.689 1.689 0 0 1-.058-.303 3.732 3.732 0 0 1-.002-.665c.01-.105.027-.204.054-.298a1.129 1.129 0 0 1 .69-.76c.151-.057.303-.085.455-.085.176 0 .336.03.48.088.145.059.265.138.361.237.07.072.128.154.176.246a.81.81 0 0 1 .084.326h-.528a.34.34 0 0 0-.044-.144 1.13 1.13 0 0 0-.08-.116c-.1-.115-.25-.172-.453-.172a.689.689 0 0 0-.252.05.555.555 0 0 0-.212.142.613.613 0 0 0-.117.176c-.029.067-.052.137-.068.21a1.381 1.381 0 0 0-.03.223 3.807 3.807 0 0 0 .002.418c.006.076.016.151.032.226.016.075.039.146.068.215.03.068.068.127.117.178a.506.506 0 0 0 .21.136c.084.03.167.044.25.044a.637.637 0 0 0 .246-.044.57.57 0 0 0 .328-.374c.023-.09.035-.19.035-.299h-.677v-.428h1.177v1.554h-.332z" fill="#d6002a"/></g><mask id="f" mask-type="alpha" maskUnits="userSpaceOnUse" x="10" y="17" width="20" height="6"><path fill="#fff" d="M10 17.829h20v4.341H10z"/></mask><g mask="url(#f)"><path fill-rule="evenodd" clip-rule="evenodd" d="m22.243 22.09-.11.022a.696.696 0 0 1-.11.006.617.617 0 0 1-.412-.132c-.105-.088-.157-.23-.157-.428v-2.359h.505v2.275c0 .061.012.11.036.146.024.036.079.054.164.054a.43.43 0 0 0 .048-.002.295.295 0 0 1 .036-.002v.42z" fill="#d6002a"/></g><mask id="g" mask-type="alpha" maskUnits="userSpaceOnUse" x="10" y="17" width="20" height="6"><path fill="#fff" d="M10 17.829h20v4.341H10z"/></mask><g mask="url(#g)"><path fill-rule="evenodd" clip-rule="evenodd" d="M24.368 21.053c0 .176-.021.324-.064.443a1.166 1.166 0 0 1-.18.326.943.943 0 0 1-.729.324.942.942 0 0 1-.729-.324 1.166 1.166 0 0 1-.18-.326 1.322 1.322 0 0 1-.064-.443c0-.176.021-.323.064-.442s.103-.228.18-.327a.905.905 0 0 1 .299-.228.94.94 0 0 1 .43-.096.942.942 0 0 1 .729.324c.077.1.137.208.18.327.042.119.064.266.064.442zm-.509 0c0-.098-.01-.194-.028-.286a.489.489 0 0 0-.12-.238.428.428 0 0 0-.316-.133.424.424 0 0 0-.317.133.488.488 0 0 0-.12.238 1.436 1.436 0 0 0 0 .573.487.487 0 0 0 .12.238.43.43 0 0 0 .317.132.424.424 0 0 0 .316-.132.488.488 0 0 0 .12-.238c.019-.092.028-.188.028-.287z" fill="#d6002a"/></g><mask id="h" mask-type="alpha" maskUnits="userSpaceOnUse" x="10" y="17" width="20" height="6"><path fill="#fff" d="M10 17.829h20v4.341H10z"/></mask><g mask="url(#h)"><path fill-rule="evenodd" clip-rule="evenodd" d="M26.678 21.057c0 .198-.031.373-.093.527a.924.924 0 0 1-.28.382.778.778 0 0 1-.504.176.863.863 0 0 1-.333-.066.534.534 0 0 1-.252-.21l-.032.228h-.432v-2.89h.5v.96a.531.531 0 0 1 .214-.146.87.87 0 0 1 .33-.058.87.87 0 0 1 .287.044c.084.03.158.07.222.124.248.206.373.515.373.93zm-.509-.008a1.4 1.4 0 0 0-.026-.268.556.556 0 0 0-.106-.236.513.513 0 0 0-.138-.117.387.387 0 0 0-.199-.047.423.423 0 0 0-.24.062.434.434 0 0 0-.144.16.676.676 0 0 0-.07.216 1.392 1.392 0 0 0 .018.54.49.49 0 0 0 .144.259.38.38 0 0 0 .125.076.46.46 0 0 0 .168.028.384.384 0 0 0 .198-.048c.054-.032.1-.07.138-.116a.562.562 0 0 0 .106-.239c.017-.089.026-.179.026-.27z" fill="#d6002a"/></g><mask id="i" mask-type="alpha" maskUnits="userSpaceOnUse" x="10" y="17" width="20" height="6"><path fill="#fff" d="M10 17.829h20v4.341H10z"/></mask><g mask="url(#i)"><path fill-rule="evenodd" clip-rule="evenodd" d="M28.9 22.07a.502.502 0 0 1-.248.056c-.11 0-.194-.029-.252-.087a.33.33 0 0 1-.1-.205.59.59 0 0 1-.24.22.803.803 0 0 1-.393.093.91.91 0 0 1-.329-.054.694.694 0 0 1-.234-.145.597.597 0 0 1-.142-.208.647.647 0 0 1-.048-.246.6.6 0 0 1 .204-.465.69.69 0 0 1 .224-.13c.086-.03.178-.05.277-.058l.612-.044v-.128a.378.378 0 0 0-.07-.238c-.046-.06-.14-.09-.282-.09a.44.44 0 0 0-.274.075.285.285 0 0 0-.107.22h-.484a.73.73 0 0 1 .082-.304.615.615 0 0 1 .186-.21.825.825 0 0 1 .268-.122c.102-.027.211-.04.329-.04.179 0 .338.031.478.094a.57.57 0 0 1 .303.33.744.744 0 0 1 .05.209c.006.072.01.143.01.212v.773c0 .048.008.082.026.102.017.02.047.03.09.03a.159.159 0 0 0 .044-.004.046.046 0 0 0 .02-.004v.368zm-.669-.9-.528.04a.39.39 0 0 0-.209.075.23.23 0 0 0-.092.197c0 .08.03.143.09.19.06.047.13.07.207.07.157 0 .285-.04.384-.122.099-.082.148-.2.148-.355v-.096z" fill="#d6002a"/></g><mask id="j" mask-type="alpha" maskUnits="userSpaceOnUse" x="10" y="17" width="20" height="6"><path fill="#fff" d="M10 17.829h20v4.341H10z"/></mask><g mask="url(#j)"><path fill-rule="evenodd" clip-rule="evenodd" d="m30 22.09-.11.022a.699.699 0 0 1-.11.006.617.617 0 0 1-.413-.132c-.104-.088-.156-.23-.156-.428v-2.359h.505v2.275c0 .061.012.11.036.146.024.036.078.054.164.054.021 0 .037 0 .048-.002A.295.295 0 0 1 30 21.67v.42z" fill="#d6002a"/></g><mask id="k" mask-type="alpha" maskUnits="userSpaceOnUse" x="10" y="17" width="20" height="6"><path fill="#fff" d="M10 17.829h20v4.341H10z"/></mask><g mask="url(#k)"><path fill="#000" d="M10 17.829h20v.461H10z"/></g></g><defs><clipPath id="a"><path fill="#fff" d="M0 0h40v40H0z"/></clipPath></defs></svg>