<svg width="40" height="40" fill="none" xmlns="http://www.w3.org/2000/svg"><path fill-rule="evenodd" clip-rule="evenodd" d="M17.655 12.335a4.891 4.891 0 0 1 3.55-1.52c1.845 0 3.462 1.03 4.318 2.556a6.015 6.015 0 0 1 2.446-.518c3.33 0 6.031 2.729 6.031 6.094 0 3.364-2.701 6.086-6.031 6.086-.408 0-.808-.042-1.195-.118a4.408 4.408 0 0 1-3.848 2.26c-.691 0-1.347-.16-1.935-.443a5.03 5.03 0 0 1-9.354-.228c-.31.07-.635.104-.96.104C8.093 26.608 6 24.494 6 21.883c0-1.748.94-3.275 2.335-4.09a5.499 5.499 0 0 1-.442-2.163 5.432 5.432 0 0 1 5.437-5.43c1.762 0 3.33.836 4.325 2.135z" fill="#2b9fd9" style="stroke-width:1.4"/><path fill-rule="evenodd" clip-rule="evenodd" d="M10.055 20.363c-.013.048.007.055.014.062.048.041.104.069.159.097.283.152.553.2.836.2.573 0 .933-.304.933-.801v-.007c0-.456-.401-.622-.781-.74l-.048-.013c-.284-.097-.532-.173-.532-.36v-.013c0-.16.145-.277.366-.277.248 0 .539.083.732.187 0 0 .055.034.076-.021.007-.028.104-.283.117-.31.007-.035-.013-.056-.027-.07a1.662 1.662 0 0 0-.83-.221h-.055c-.525 0-.89.318-.89.774v.014c0 .476.407.635.78.739l.062.02c.277.083.518.16.518.353v.014c0 .172-.159.304-.407.304-.097 0-.408 0-.74-.208a2.088 2.088 0 0 0-.096-.062c-.014-.007-.055-.027-.076.028zm5.382.248c0 .028-.02.049-.048.049h-.429a.047.047 0 0 1-.048-.049v-3.468c0-.027.02-.048.048-.048h.429c.027 0 .048.02.048.048zm7.254-3.51c-.055-.02-.104-.027-.166-.04-.062-.014-.131-.014-.214-.014-.297 0-.525.083-.69.241-.16.166-.27.415-.326.74l-.02.11h-.367s-.048-.007-.055.049l-.062.331c-.007.035.007.055.055.055h.36l-.367 2.032a2.638 2.638 0 0 1-.096.4.637.637 0 0 1-.118.228c-.041.055-.076.097-.145.118a.57.57 0 0 1-.193.027.952.952 0 0 1-.132-.014.293.293 0 0 1-.082-.027s-.042-.021-.063.027c-.014.035-.11.298-.117.325-.014.035 0 .062.02.07.05.013.083.027.153.04.09.021.165.021.235.021.151 0 .29-.02.4-.062a.728.728 0 0 0 .297-.207c.097-.104.16-.214.214-.366.056-.145.104-.332.146-.546l.366-2.066h.532s.041 0 .055-.048l.062-.338c0-.028-.014-.049-.055-.049H21.8c0-.014.027-.193.083-.366A.474.474 0 0 1 22 17.6a.344.344 0 0 1 .131-.09.711.711 0 0 1 .311-.006.272.272 0 0 1 .083.02c.048.014.055 0 .07-.027l.124-.339c.013-.041-.021-.055-.028-.055zm4 1.12c.014-.034-.014-.055-.02-.055a1.185 1.185 0 0 0-.277-.049.745.745 0 0 0-.415.07.681.681 0 0 0-.276.2v-.2a.047.047 0 0 0-.048-.049h-.415a.047.047 0 0 0-.048.049v2.424c0 .028.02.049.048.049h.428c.028 0 .049-.021.049-.049v-1.209c0-.165.02-.324.055-.428a.675.675 0 0 1 .138-.242.519.519 0 0 1 .207-.117.86.86 0 0 1 .215-.035c.083 0 .18.028.18.028.027 0 .048-.02.055-.048.027-.07.11-.298.124-.339zm-13.092.836c-.062-.007-.152-.007-.255-.007-.138 0-.27.014-.394.048-.131.035-.242.09-.339.16a.758.758 0 0 0-.241.269.804.804 0 0 0-.083.373c0 .145.02.27.076.373a.659.659 0 0 0 .207.249c.09.069.2.117.332.145.13.027.276.048.428.048.173 0 .331-.02.497-.041.16-.028.353-.07.408-.083l.11-.028c.042-.014.042-.055.042-.055v-1.486c0-.324-.09-.566-.263-.711-.165-.152-.421-.228-.746-.228-.117 0-.318.02-.435.041 0 0-.352.07-.497.18 0 0-.035.02-.014.069l.11.304c.021.041.056.028.056.028s.013 0 .027-.014c.311-.166.705-.166.705-.166.18 0 .31.042.408.11.082.07.13.166.13.387v.07c-.137-.021-.269-.035-.269-.035Zm-.642 1.14c-.07-.048-.076-.062-.097-.097-.034-.048-.048-.117-.048-.207 0-.145.048-.249.145-.318 0 0 .138-.117.47-.117.234.007.442.041.442.041v.732s-.208.049-.435.063c-.332.02-.484-.097-.477-.097zm5.119-1.403a.979.979 0 0 0-.518-.614 1.203 1.203 0 0 0-.463-.09c-.2 0-.387.027-.532.103a1.12 1.12 0 0 0-.38.284 1.213 1.213 0 0 0-.214.421 1.769 1.769 0 0 0-.076.518c0 .187.028.36.076.518.048.16.131.297.235.415.11.11.242.2.407.27.166.062.367.096.588.09.47 0 .718-.104.822-.16.014-.007.034-.027.014-.076l-.11-.297c-.015-.048-.056-.027-.056-.027-.118.041-.283.117-.67.117-.249 0-.436-.076-.553-.193-.124-.118-.18-.29-.193-.54h1.623s.041 0 .048-.04c0-.015.056-.332-.048-.699zm-1.617.339c.028-.152.07-.283.132-.38a.53.53 0 0 1 .47-.235c.207 0 .352.083.449.235.069.097.096.235.11.38zm14.619-.339a1.077 1.077 0 0 0-.208-.38.923.923 0 0 0-.31-.234 1.204 1.204 0 0 0-.463-.09c-.208 0-.387.027-.54.103a1.09 1.09 0 0 0-.372.284 1.226 1.226 0 0 0-.221.421c-.049.159-.07.332-.07.518 0 .187.028.36.077.518.048.16.124.297.235.415.103.11.241.2.407.27a1.5 1.5 0 0 0 .587.09c.47 0 .719-.104.816-.16.02-.007.034-.027.013-.076l-.103-.297c-.014-.048-.062-.027-.062-.027-.118.041-.284.117-.664.117-.255 0-.442-.076-.56-.193-.117-.118-.179-.29-.186-.54h1.624s.041 0 .048-.04c0-.015.055-.332-.048-.699zm-1.617.339a.947.947 0 0 1 .131-.38c.097-.152.25-.235.463-.235.214 0 .353.083.456.235.07.097.097.235.11.38zm-.836 1.07c-.02-.04-.062-.027-.062-.027a.789.789 0 0 1-.228.062c-.076.014-.166.021-.262.021-.228 0-.415-.069-.546-.207-.131-.132-.208-.353-.208-.65 0-.276.07-.476.187-.635.118-.152.297-.235.532-.235.2 0 .345.028.504.076 0 0 .042.014.056-.035.041-.117.076-.2.117-.324.014-.042-.014-.056-.028-.062a1.95 1.95 0 0 0-.317-.076 1.897 1.897 0 0 0-.36-.028c-.2 0-.38.034-.538.104a1.144 1.144 0 0 0-.387.283c-.097.11-.18.255-.228.414a1.566 1.566 0 0 0-.083.519c0 .393.11.718.324.953.208.235.526.352.947.352.242 0 .497-.048.677-.117 0 0 .034-.021.02-.062zm-3.938-1.319a1.196 1.196 0 0 0-.22-.414 1.063 1.063 0 0 0-.367-.283 1.303 1.303 0 0 0-.518-.104c-.193 0-.366.041-.511.104-.145.069-.27.165-.366.283a1.193 1.193 0 0 0-.221.414 1.775 1.775 0 0 0-.07.518c0 .18.021.36.07.512.048.159.124.304.22.421.097.117.222.207.367.276.145.07.318.097.511.097.2 0 .373-.027.518-.097.145-.069.27-.159.366-.276.097-.117.173-.262.221-.421a2.03 2.03 0 0 0 .07-.512c0-.186-.028-.359-.07-.518zm-.483.518c0 .277-.049.498-.152.65-.104.152-.256.228-.47.228-.207 0-.36-.076-.463-.228-.097-.152-.152-.373-.152-.65 0-.276.055-.497.152-.649.104-.152.256-.228.463-.228.214 0 .366.076.47.228.103.152.152.373.152.65zm-5.741.96c-.014.05.007.056.014.063a1.71 1.71 0 0 0 .995.297c.58 0 .932-.304.932-.801v-.007c0-.456-.4-.622-.78-.74l-.049-.013c-.283-.097-.532-.173-.532-.36v-.013c0-.16.145-.277.366-.277.249 0 .546.083.733.187 0 0 .055.034.076-.021.013-.028.103-.283.117-.31.007-.035-.007-.056-.028-.07a1.635 1.635 0 0 0-.822-.221h-.062c-.525 0-.891.318-.891.774v.014c0 .476.408.635.788.739l.055.02c.283.083.518.16.518.353v.014c0 .172-.152.304-.408.304-.096 0-.4 0-.739-.208-.034-.027-.062-.041-.09-.062-.013-.007-.062-.027-.076.028z" fill="#fefefe" style="stroke-width:1.4"/></svg>