<svg width="40" height="40" fill="none" xmlns="http://www.w3.org/2000/svg"><g clip-path="url(#a)" transform="matrix(1.4 0 0 1.4 -8 -7.968)"><path fill-rule="evenodd" clip-rule="evenodd" d="M20 11c-5.398 0-10 4.4-10 9.902 0 2.898 1.201 5.503 3.1 7.402.699.699 1.802.699 2.598.098 1.104-.9 2.598-1.396 4.302-1.396 1.697 0 3.1.502 4.302 1.396.803.6 1.9.503 2.597-.202C28.8 26.398 30 23.8 30 20.902 29.902 15.497 25.503 11 20 11Zm-.098 15c-2.898 0-5-2.2-5-5s1.997-5 5-5 5 2.297 5 5-2.004 5-5 5z" fill="#82b6a1"/></g><defs><clipPath id="a"><path fill="#fff" d="M0 0h40v40H0z"/></clipPath></defs></svg>