<svg width="40" height="40" fill="none" xmlns="http://www.w3.org/2000/svg"><g clip-path="url(#a)" transform="matrix(1.4 0 0 1.4 -8 -8)" fill-rule="evenodd" clip-rule="evenodd"><path d="M28.936 24.165c-.125-.346-.364-.53-.635-.684a1.584 1.584 0 0 0-.138-.073l-.246-.127c-.846-.455-1.506-1.03-1.964-1.71a3.89 3.89 0 0 1-.337-.607c-.04-.114-.038-.178-.01-.237a.382.382 0 0 1 .109-.115 50.3 50.3 0 0 1 .396-.263c.182-.119.325-.213.418-.28.347-.247.59-.509.741-.801.215-.41.243-.893.078-1.326-.23-.614-.801-.995-1.494-.995a2.023 2.023 0 0 0-.548.073c.006-.42-.003-.864-.04-1.3-.13-1.535-.66-2.34-1.212-2.981a4.84 4.84 0 0 0-1.232-1.007C21.985 11.246 21.035 11 20 11c-1.035 0-1.98.246-2.819.732-.463.265-.88.606-1.234 1.009-.552.641-1.081 1.447-1.212 2.98-.037.437-.046.883-.04 1.301a2.03 2.03 0 0 0-.548-.074c-.693 0-1.265.382-1.494.996a1.62 1.62 0 0 0 .076 1.327c.152.293.395.555.742.801.092.065.236.16.417.28l.381.253c.05.033.091.075.123.125.029.061.03.127-.014.248a3.868 3.868 0 0 1-.331.595c-.448.665-1.09 1.23-1.908 1.68-.434.234-.884.39-1.075.916-.143.396-.05.847.315 1.227.134.142.29.261.46.354.356.198.733.352 1.126.457.08.021.157.056.227.103.133.118.114.296.29.557.09.134.203.25.334.343.371.26.789.277 1.231.294.4.016.853.033 1.37.207.215.072.437.21.695.373.62.387 1.468.916 2.887.916 1.42 0 2.273-.532 2.897-.92.256-.16.478-.297.686-.367.517-.174.97-.191 1.37-.207.443-.017.86-.033 1.232-.294.155-.11.284-.253.379-.42.127-.22.124-.374.243-.481a.701.701 0 0 1 .214-.1c.397-.105.78-.26 1.14-.46.182-.1.345-.23.483-.384l.005-.006c.342-.372.428-.81.288-1.196z" fill="#fff"/><path d="M28.301 23.481c.271.153.51.338.635.684.14.387.054.825-.288 1.196l-.005.006a1.801 1.801 0 0 1-.483.384c-.36.2-.743.355-1.14.46a.701.701 0 0 0-.214.1.533.533 0 0 0-.131.232c-.027.072-.058.154-.112.249-.095.167-.224.31-.38.42-.371.26-.789.277-1.231.294h-.001c-.4.016-.852.033-1.369.207-.208.07-.43.207-.686.367l-.002.001C22.271 28.47 21.417 29 20 29c-1.42 0-2.267-.529-2.887-.916-.258-.162-.48-.301-.695-.373-.517-.173-.97-.191-1.37-.207-.442-.017-.86-.033-1.231-.294a1.288 1.288 0 0 1-.333-.343c-.087-.127-.126-.235-.16-.325-.035-.095-.063-.171-.131-.232a.735.735 0 0 0-.228-.103 4.939 4.939 0 0 1-1.125-.457 1.824 1.824 0 0 1-.46-.354c-.365-.38-.458-.831-.315-1.227.163-.449.515-.628.884-.816.063-.032.127-.065.19-.1.82-.45 1.46-1.015 1.909-1.68.127-.188.238-.387.331-.594.044-.122.043-.188.013-.249a.412.412 0 0 0-.122-.125 45.66 45.66 0 0 0-.489-.324c-.13-.087-.236-.157-.31-.209-.346-.246-.59-.508-.742-.801a1.62 1.62 0 0 1-.075-1.327c.229-.614.801-.996 1.494-.996a2.03 2.03 0 0 1 .548.074c-.006-.418.003-.864.04-1.3.13-1.534.66-2.34 1.212-2.981.354-.403.77-.744 1.234-1.009C18.02 11.246 18.965 11 20 11s1.985.246 2.822.732a4.84 4.84 0 0 1 1.232 1.007c.552.642 1.081 1.446 1.212 2.98.037.437.046.881.04 1.301.037-.01.075-.018.113-.027.143-.031.289-.047.435-.046.693 0 1.264.38 1.494.995.165.433.137.916-.078 1.326-.151.292-.394.554-.741.8-.093.068-.236.162-.418.281a50.3 50.3 0 0 0-.396.263.382.382 0 0 0-.109.115c-.028.059-.03.123.01.237.094.212.207.415.337.607.458.68 1.118 1.255 1.964 1.71l.13.067.116.06c.04.019.087.043.138.073zm-1.641 1.796c.292-.078.638-.172 1.062-.409.493-.277.213-.448.048-.532-2.805-1.372-3.252-3.494-3.272-3.654l-.003-.019c-.023-.182-.042-.328.16-.515.135-.128.59-.426.945-.659.167-.11.311-.204.39-.26.409-.288.588-.577.455-.93-.092-.244-.317-.338-.555-.338-.075 0-.15.009-.223.025-.264.058-.523.161-.744.248a3.4 3.4 0 0 1-.39.14.392.392 0 0 1-.093.012c-.134 0-.183-.06-.172-.224l.003-.053c.033-.51.092-1.442.018-2.314-.106-1.243-.502-1.859-.972-2.404-.226-.26-1.29-1.391-3.32-1.391-2.029 0-3.09 1.135-3.316 1.397-.47.545-.866 1.16-.972 2.404-.07.83-.018 1.715.013 2.238l.008.129c.01.155-.038.224-.172.224a.397.397 0 0 1-.093-.013c-.103-.025-.237-.078-.39-.139-.22-.087-.48-.19-.744-.248a1.017 1.017 0 0 0-.223-.025c-.237 0-.462.092-.555.337-.132.354.047.642.455.93.08.057.224.152.391.261.355.233.81.531.945.658.201.188.182.335.16.517l-.003.018c-.02.157-.468 2.28-3.272 3.654-.164.08-.444.25.049.526.423.236.768.329 1.06.407.242.065.447.12.63.239.183.12.209.314.233.495.02.154.039.297.152.376.132.092.376.102.703.114.43.017 1.002.04 1.657.259.33.11.615.287.917.475.588.365 1.233.767 2.37.767 1.142 0 1.795-.405 2.384-.772.299-.185.581-.36.903-.468.656-.22 1.23-.242 1.657-.258.328-.013.571-.022.703-.114.113-.08.132-.223.153-.377.023-.18.049-.375.233-.495.181-.118.385-.173.627-.238z" fill="#000"/></g><defs><clipPath id="a"><path fill="#fff" transform="translate(11 11)" d="M0 0h18v18H0z"/></clipPath></defs></svg>