<svg width="40" height="40" fill="none" xmlns="http://www.w3.org/2000/svg"><g clip-path="url(#a)" transform="matrix(1.4 0 0 1.4 -8 -8)"><path fill-rule="evenodd" clip-rule="evenodd" d="M18.528 17.056c.253-.252.379-.546.379-.925v-4.836a1.22 1.22 0 0 0-2.44 0v2.776l-2.354-1.388c-.589-.378-1.346-.21-1.682.379-.378.588-.21 1.345.378 1.682.042 0 .042.042.084.042l4.206 2.439c.42.294 1.05.21 1.43-.169zM16.72 20c0-.463-.21-.883-.63-1.093l-4.206-2.44c-.589-.378-1.345-.21-1.682.38-.378.588-.21 1.345.379 1.681.042 0 .042.042.084.042l2.397 1.388-2.397 1.388c-.59.336-.841 1.051-.505 1.682.337.63 1.051.84 1.682.504h.084l4.205-2.439c.379-.21.59-.63.59-1.093zm2.187 3.827v4.878a1.22 1.22 0 0 1-2.44 0V25.97l-2.396 1.388c-.589.378-1.346.21-1.682-.378-.379-.59-.21-1.346.378-1.682.042 0 .042-.042.084-.042l4.206-2.44a1.264 1.264 0 0 1 1.724.505c.084.126.168.337.126.505zm2.186.126v4.752a1.22 1.22 0 0 0 2.44 0V25.97l2.354 1.346c.589.378 1.346.21 1.682-.379.379-.588.21-1.345-.378-1.682-.042 0-.042-.042-.084-.042L22.9 22.775a1.238 1.238 0 0 0-1.682.463c-.084.21-.168.505-.126.715zM23.28 20c0-.463.21-.883.63-1.093l4.206-2.44c.589-.378 1.346-.21 1.682.38.378.588.21 1.345-.378 1.681-.042 0-.042.042-.085.042l-2.397 1.388 2.397 1.388c.59.336.841 1.051.505 1.682-.336.588-1.051.84-1.682.504-.042 0-.042-.042-.084-.042l-4.205-2.439c-.379-.168-.631-.588-.589-1.05zm-2.187-3.953v-4.752a1.22 1.22 0 0 1 2.44 0v2.734l2.354-1.346c.589-.378 1.346-.21 1.682.379.379.589.21 1.345-.378 1.682-.042 0-.042.042-.084.042L22.9 17.225a1.238 1.238 0 0 1-1.682-.463c-.084-.21-.168-.463-.126-.715zm-.588 1.766a.382.382 0 0 0-.295-.126h-.42a.382.382 0 0 0-.295.126l-1.682 1.683a.382.382 0 0 0-.126.294v.42c0 .127.042.21.126.295l1.682 1.682a.382.382 0 0 0 .295.126h.42c.126 0 .21-.042.295-.126l1.682-1.682a.78.78 0 0 0 .084-.295v-.42a.381.381 0 0 0-.126-.294zm-.253 1.472a.32.32 0 0 0-.21-.084.32.32 0 0 0-.21.084l-.505.505a.321.321 0 0 0-.084.21c0 .084.042.169.084.21l.505.505a.32.32 0 0 0 .21.084.322.322 0 0 0 .21-.084l.505-.504a.322.322 0 0 0 .084-.21.322.322 0 0 0-.084-.211z" fill="#31bef0"/></g><defs><clipPath id="a"><path fill="#fff" d="M0 0h40v40H0z"/></clipPath></defs></svg>