<svg width="40" height="40" fill="none" xmlns="http://www.w3.org/2000/svg"><g clip-path="url(#a)" transform="matrix(1.4 0 0 1.4 -7.985 -8)"><path fill-rule="evenodd" clip-rule="evenodd" d="M21.23 15.386c.222 0 .595 0 .968.076V15.688h-.075c-.298-.08-.67-.156-.893-.302-.075.07-.075 0 0 0zm.595 1.115c0 .075-.075.075-.075.15 0 .076-.076.076-.151.076-.595-.222-1.12-.373-1.715-.448.373 0 1.12 0 1.861.222.08-.147.156-.076.08 0zm-2.011-.671c-.076.075-.152.151-.152.222 0 .075-.075.075-.15.075-.969-.15-2.013-.15-2.013-.15-.075 0-.075 0 0 0 0 0 .822-.223 2.234-.223.08 0 .08.076.08.076zm-2.234 3.65c.297-.15.968-.222 1.79-.297 0 0 .075 0 0 .076 0 .075-.076.15-.076.222v.075h-.076c-.595-.151-1.265-.151-1.638-.075zm3.05-3.65c.298 0 .822 0 1.342.151 0 0 .075 0 0 .076 0 .075-.076.15-.076.15s-.075.076-.075 0c-.293-.155-.817-.302-1.19-.377zm-4.094 4.321c.373-.222 1.266-.373 2.531-.373.076 0 .076.075.076.075a.163.163 0 0 1-.151.152l-.076.075h-.15c-.813-.08-1.71-.004-2.23.071zm2.385-5.067s.449-.151 1.12-.076v.076c0 .075 0 .075-.076.15h-.076c-.373-.15-.968-.15-.968-.15Zm2.158-2.007c.222 0 .373 0 .595.075.151 0 .298.076.373.076l.076.075v.076s0 .076-.076 0h-.075c-.076-.076-.222-.076-.298-.076-.222-.156-.444-.226-.595-.226-.075 0-.075 0 0 0zm-1.417 1.487s.222-.075.52 0v.076c-.293 0-.52 0-.52-.076-.07.076-.07 0 0 0zm1.866-1.79h.373c.076 0 .151 0 .222.076v.151c-.076 0-.151-.075-.151-.075-.222-.076-.298-.152-.444-.152zm-1.714-.52h.595v.077c-.076 0-.151-.076-.222-.076-.151.076-.298.076-.373 0zm-1.493 6.631c.222-.075.67-.15 1.19-.15v.15h-1.19zm-.07-3.428s.594-.151 1.714-.076c0 0 .075 0 0 .076 0 .075-.076.075-.076.15 0 0-.075.077-.075 0-.747-.15-1.564-.15-1.564-.15-.075 0-.075 0 0 0zm3.796-1.785v.075c0 .076-.075.076-.075.076-.151-.076-.222-.076-.373-.151-.151-.076-.298-.076-.449-.151-.297-.076-.52-.151-.822-.222.298 0 .595 0 .893.075.151 0 .297.076.52.076.075 0 .221.075.297.075.01.071.01.071.01.147zm-.075 12.141-.222-.222s0-.075-.076-.075l-.075-.076c.52-.075 1.043-.15 1.638-.222.076 0 .076.076.076.076v.444s0 .075-.076.075h-.595c0-.15.076-.222.076-.297 0-.076 0-.151-.076-.151-.075 0-.15.075-.15.075v.152c0 .075 0 .15-.223.15-.146.142-.222.142-.297.071zm-.595 2.31c.075.075.222.15.297.222.298.222.746.448 1.044.595.297.15.373.15.449.15 0 0 .075 0 .075.076h-.075s-.298-.075-.52-.15c-.151-.076-.595-.223-.822-.298-.15-.076-.52-.298-.595-.298-.075-.075-.075-.15-.075-.222.075-.15.146-.15.222-.075zm2.234-.298s0 .076.075.076c.076.075.449.297.822.52.373.221.968.448 1.417.594.075 0 .075.076.075.076h-.151c-.373-.151-1.19-.449-1.563-.595-.298-.151-1.044-.595-1.266-.67h-.075c.075.075.968.745 1.79 1.119.075 0 .075.075.075.075h-.075c-.222-.075-.822-.373-1.342-.67-.52-.298-.892-.52-.968-.671-.075-.151-.15-.298 0-.449.151-.15.373-.15.449-.075a.557.557 0 0 0 .297.075c.076 0 .151-.075.298-.075.297.075.52.448 1.563.968.746.373 1.488.67 1.563.67.076 0 .076.076 0 .076h-.075c-.152 0-.893-.222-1.64-.595-.372-.151-.745-.373-1.043-.52zm3.428 1.266c.076 0 .076 0 0 0 0 .075 0 .075-.076.075h-.15c-.076 0-.076-.075 0-.075h.075c0-.076.151-.076.151 0zm-8.194-10.8c.152-.076.52-.076.747-.076v.15c-.227-.004-.6-.075-.746-.075zm8.34 9.308c1.342.821 2.683 1.119 2.759 1.19.075 0 .075.075 0 .075-.076 0-1.79-.52-2.683-.968-.822-.449-1.341-.746-1.341-.746h-.076v.075c.076.076.373.298.822.596.449.297 1.266.67 1.341.746.076 0 .076.075 0 .075-.075 0-1.341-.595-1.936-.968s-1.044-.746-1.12-.968c-.075-.151-.075-.373.076-.52.151-.15.373-.15.449-.221.076-.076.076-.222.151-.298.076-.076.298-.076.373-.076a.162.162 0 0 0 .151-.15c0-.076-.075-.152-.222-.152-.222 0-.448.076-.52.076-.075-.076-.075-.151-.15-.151-.076-.076-.373.15-.373.15h-.08v-.075s.297-.373.448-.297c.151 0 .151.15.222.222.075 0 .222-.076.449-.076 0 0 .15 0 .221.076.152.075.222.222.152.373 0 0-.076.15-.222.15-.076 0-.151 0-.222.076-.222 0-.222.152-.222.222 0 .071-.076.076-.151.152 0 0-.076.075 0 .221.066.076.292.374 1.704 1.19zm-2.007.15s0 .076.449.298c.373.222.968.449 1.86.746.223.076.152.076 0 .076-.15-.076-1.487-.449-2.157-.822-.671-.297-1.12-.595-1.342-.822-.075-.075-.15-.297 0-.373.076-.075.222-.075.373 0 .076.076.893.671 2.012 1.19 1.12.52 2.158.822 2.385.822.151.076.222.076.222.076s.076.075-.222 0c-.222 0-1.044-.222-2.31-.67-.528-.147-.901-.374-1.27-.52zM21.23 26.63c-.15-.075-.297-.15-.448-.222.15 0 .297-.075.448-.075.076 0 .076.075.151.075.076.076 0 .152 0 .222h-.15zm3.278-.221a.163.163 0 0 1-.151.15.162.162 0 0 1-.151-.15c0-.076.075-.152.15-.152.076 0 .152.076.152.151zm-2.834.373a.224.224 0 0 1 .298 0c.075.075.15.222.075.297-.075.076-.15.076-.297 0-.076 0-.151-.151-.076-.298zm2.905-1.417c-.076.075-.222.15-.373.373-.152.222-.298.52-.45.746 0-.746.152-1.266.596-1.936h.075c.08.146.152.444.152.817zm-3.127.892c.151 0 .298-.075.449-.075.075.15.151.373 0 .373-.151.075-.302-.147-.449-.298zm-2.309-13.553c.151 0 .373-.076.52-.076h.594v.076c0 .075 0 .075-.075.15h-.076c-.15-.075-.373-.075-.52-.075-.07-.075-.221-.075-.443-.075zm4.17 13.407v.449c-.297 0-.52-.222-.595-.45v-.075c.151 0 .373 0 .595.076 0-.076 0 0 0 0zm-8.118-8.864c.151-.222.151-.449.151-.746v-.298l.67.151.45.076s.075.075.075.222c0 .075 0 .075-.076.075-.222 0-.448.076-.52.076.152 0 .374 0 .52.075.076 0 .076.076.076.076 0 .075-.076.075-.076.075-.52 0-.822.152-.892.152h.746s.075.075 0 .075c-.076.076-.222.151-.449.222-.448.076-.822.151-.968.222.52 0 1.266.076 1.714.076 0 0 .076 0 .076.075 0 0 0 .076-.076.076-.746-.076-1.416-.151-2.011-.076.292-.16.439-.382.59-.604zm.968-2.088c.151-.297.222-.67.151-1.119l1.19.373v.151s0 .076-.075.076c-.222.075-.449.15-.52.15h.449s.075 0 0 .076v.076l-.076.076c-.373.075-.67.15-.746.222h.67s.076 0 0 .075c0 0 0 .076-.075.076l-.075.075c-.449.076-.969.222-1.12.298h.822c-.595.373-1.341.297-1.341.297.373-.378.595-.675.746-.902zm.893-2.012c.222-.297.297-.594.373-.892l.746.298v.075s0 .076-.076.076c-.075 0-.15 0-.222.075h.222v.076l-.075.075h-.373c.075 0 .222.076.297.076v.075l-.151.151h-.076l-.297-.075c-.076 0-.076 0-.076.075 0 .076 0 .076.076.076l.222.076c-.222.15-.822.297-1.12.297.086-.085.308-.307.53-.534zm1.865-1.785 4.619 1.715c0 .075.075.15.075.297v.151c-.222-.075-.297-.15-.595-.15.298.15.449.221.595.372.076.076.076.151.076.151s-.076.076-.076 0c-.373-.15-.67-.297-.968-.297.373.151.746.373 1.044.595.075 0 .075.076.075.151h-.075a4.827 4.827 0 0 0-1.341-.449c.448.222.892.449 1.265.747.076.075.076.075.076.15 0 .076-.076.076-.151 0-1.937-1.34-4.468-1.714-5.587-1.487.968-.756.968-1.573.968-1.946zm1.785 2.83v-.45c.076 0 .076 0 .151.076v.449zm-1.563-.671s.076 0 0 0c.373 0 .67.075 1.044.15.15 0 .297.076.448.076v.151c-.373-.08-1.346-.302-1.492-.377.076.075 0 0 0 0zm-1.341.746-1.266-.373c.449 0 .893 0 1.266.075v.298zm3.797.373.373.449h-.373c.15 0 .448.075.595.221l.892.969h-.595c.151.075.298.15.449.15.075 0 .151.152.075.223 0 .075-.075.15-.15.075-.374-.075-.671-.075-.893-.075.297.075.52.222.746.297.075.076.075.151.075.222-.075.076-.15.076-.221.076-2.31-1.266-4.841-1.266-5.663-1.12 1.266-1.34 1.12-2.46 1.044-2.757zm1.714 1.86.893.969v.075c-.076 0-.222.076-.298.076v.075h.373c.076 0 .076 0 .151.076l.151.222v.075c-.222 0-.448 0-.595.076v.076c.222 0 .52.075.747.15.075 0 .075.076.15.076l.152.151v.076c-.298-.076-.67-.076-.893 0v.076c.298 0 .746.075 1.12.221.075 0 .075.076.15.076l.076.076v.075c-.373-.075-.892-.151-1.19-.075v.075c.449 0 .968.151 1.488.298.075 0 .075.075.15.075l.45.449a5.33 5.33 0 0 0-1.266-.449c-.52-.075-1.044-.075-1.563.076-.543-1.431-.392-2.55-.246-3.145zm1.266 3.278.15.222v.076a2.79 2.79 0 0 0-1.118 0v.075c.373 0 .892.076 1.416.222.076 0 .076.076.151.076l.298.373c-.373-.151-.746-.298-1.12-.373-.594-.076-1.19 0-1.714.15-.297-.967-.297-2.011-.075-3.055l.52.52c0 .52.075 1.043.221 1.487 0 .076.076.076.076.076h.075c.374-.076.671 0 .969.075.004 0 .08.076.15.076zm-.222 1.563c.075 0 .075.076.15.076l.223.297c-.822-.448-1.715-.52-2.758-.222-.298-1.043-.449-2.158-.298-3.126l.373.373c.076.076.076.076.076.222 0 .595.076 1.266.222 1.86 0 0 0 .076.075.076h.076c.076 0 .076 0 .151-.075.449-.151.893-.076 1.19 0 .076 0 .076 0 .151.075l.076.151v.076a2.79 2.79 0 0 0-1.12 0v.076c.445-.08.964-.08 1.413.141zm.222.6v-.151c.15.075.222.15.297.222zm-1.412-.227v-.222c.297.076.52.222.821.373zm-2.536-.67v-.152c.448.076.821.222 1.19.374 0 .075 0 .075.075.15-.444-.146-.817-.297-1.265-.372zm-.147.226-.373-.075.076-.595c.075 0 .222.075.373.075zm-.449-.373c-.221 0-.519-.075-.746-.075a7.654 7.654 0 0 0-1.86 0l-.67-.076c1.043-.151 2.233-.076 3.277.076v.075zm1.493-3.206.52.15v.45l.15.15v.076h-.075L20.857 17.1v-.075h.076l.151.15c.298.152.52.298.822.45l-.52-.152zm-1.044-.444.076-.52c.075 0 .15.076.222.076v.52zm-1.639-.525v-.15c.52.075.969.221 1.488.372v.222a5.134 5.134 0 0 0-1.487-.444Zm-.297.076v-.373h.222v.373zm-1.195-.373c.373 0 .746 0 1.12.075v.152c-.45-.152-.822-.152-1.12-.227Zm-.741-.07-.968-.223h1.119c-.005.071-.08.147-.151.222zm.07.221 4.397 1.044.52.595c0 .075 0 .222-.076.373 0 .075 0 .075-.075.075-.152 0-.298 0-.449.076.151 0 .297.076.449.076.075 0 .075.075.075.075v.151c0 .076-.075.076-.075.076-.374 0-.747 0-1.044.075.297.076.67.076 1.044.152.075 0 .075.075.075.075v.076c0 .075 0 .075-.075.075-.671-.075-1.266-.075-1.64 0 .45.076 1.045.151 1.564.222.076 0 .076.076.076.151 0 .076-.076.076-.152.076-.892-.076-1.79-.076-2.158 0 .595.075 1.266.151 2.012.297.076 0 .076.076.076.152-.076.075-.076.075-.152.075h-.15c-2.532-.52-4.544-.222-5.068-.075 1.795-2.404.978-3.816.826-3.892zm-2.753.146.373.076c.151.449.151.822.076 1.19l1.639.373c0 .076.075.151.075.222v.076l-.297.15c.075 0 .222 0 .373-.075h.075V18.961c-.222.076-.448.222-.52.298.076 0 .298-.076.52-.076 0 0 .076 0 0 0v.076s0 .075-.075.075c-.373.151-.595.373-.746.449.15-.076.373-.151.595-.222 0 .075-.076.15-.076.15s0 .076-.075.076c-.373.152-.595.374-.822.52.15-.076.297-.151.52-.222l-.223.222 9.61 1.488.152-.222-.595-.671-.373-.151v-.076h.075l.449.52v-.449c.373.076.822.222 1.12.449l.075.075.075-.15-1.487-1.64c.67 0 1.34.222 2.158.747l.076.075.075-.15-5.747-6.334v-.075h.075l.222.222c.746.297 1.488.595 2.158 1.043l-1.638-.52.222.223 1.638.52c0 .075.076.15.076.221 0 .076 0 .076-.076.076h-.52c.152.075.45.15.596.297l.076.076s0 .075-.076.075c-.298-.075-.52-.075-.746-.075l.15.15c.223.152.52.223.672.374-.152 0-.298-.076-.374-.076l.52.595c.076-.519.076-1.043-.151-1.638h.075c.076 0 .076 0 .076-.076 0-.075 0-.075-.076-.075l-.373-.076c.298-.822.151-1.563.076-1.936l.15.075c.077 0 .077 0 .077-.075 0-.076 0-.076-.076-.076l-2.824-1.034.222-1.417a.162.162 0 0 0-.151-.15.162.162 0 0 0-.151.15l-.076 1.266-2.234-.822c-.075 0-.075 0-.075.076 0 .075 0 .075.075.075l.222.076c0 .15.076.595-.222 1.12l-1.416-.52c-.076 0-.076 0-.076.075 0 .076 0 .076.076.076l.221.075c0 .67-.52 1.12-1.119 1.563h-.297c-.076 0-.076 0-.076.076 0 .075 0 .075.076.075l.297.076c0 .968-.15 1.341-.968 2.012l-.449-.076c-.075 0-.075 0-.075.076 0 .075 0 .075.075.075l.45.076c0 .076.075.222.075.373s0 .222-.076.373l-1.19-.297c-.076 0-.076 0-.076.075-.141.133-.141.133-.066.133zm6.853 11.028c.075 0 .075.075.075.15-.075.076-.15.076-.15 0-.076 0-.076-.15-.076-.15h.15zm-3.575 1.412c.075 0 .222-.076.222 0 .075.075-.151.15-.151.15-.076 0-.45.223-.968.223-.596 0-1.342-.298-1.64-.373h.076c.298.075.968.222 1.417.222.52.004.822-.147 1.044-.222zm6.257.075h-.075v-.075c.075 0 .075 0 .075.075.076-.075.076-.075.151 0v.076h-.075s0-.076-.076-.076zm-9.237-3.126.373-.151s.075 0 .075.075c-.075.151-.222.298-.373.449h-.075v-.222c-.076-.076 0-.151 0-.151zm-.076-.298c-.075 0-.075 0-.075-.075 0-.076 0-.076-.076-.151 0-.076 0-.076.076-.076l.746-.222s.075 0 .075.076v.075c0 .076-.075.076-.075.151zm-.297-.67s0-.076-.076-.076c0-.075 0-.075.076-.075l.968-.298c.075 0 .075 0 .075.076 0 .075 0 .075-.075.15l-.893.374c0-.076-.075-.076-.075-.151zm-.222-.524-.076-.076v-.07l1.19-.298c.076 0 .076 0 .076.075 0 .076 0 .076-.076.076l-1.043.373c.004-.005-.071-.005-.071-.08zm-.373-.444c0-.076-.076-.076-.076-.151v-.076l.52.076-.298.15h-.146zm2.012-.524c.075.075.075.15.15.221 0 .076.076.076.076.152l-2.46-.222c.741-.151 1.487-.222 2.234-.151zm-2.163-.222c.075-.076.15-.222.222-.298 0-.076.075-.076.15-.076l.969-.297c.075 0 .075 0 .075.076 0 .075 0 .075-.075.075zm.524-.893c0-.076.075-.151.075-.222 0-.076.076-.076.076-.076l.373-.075c.076 0 .076 0 .076.075 0 .076 0 .076-.076.076l-.524.222s-.076 0 0 0zm5.96 6.03c.15-.15.297-.448.15-.67-.075-.151-.221-.222-.448-.222h-.297v-.076c0-.075.075-.075.075-.15.076-.076.222-.223.449-.223.297 0 .746.152 1.044.152.075 0 .221 0 .373-.152.15-.15.222-.373.075-.519-.075-.076-.151-.076-.222-.076-.07 0-.222.076-.297.076-.076 0-.151-.076-.151-.076l-.152-.15c-.373.075-.746.221-1.119.372-1.265.449-2.904 1.19-3.575 1.488 0 0-.15.075-.15 0 0 0 0-.076.075-.076 1.043-.52 2.758-1.34 3.726-1.638.222-.076.373-.151.595-.222 0-.076-.222-.151-.298-.076h-.15v-.151a.224.224 0 0 1 .297 0c.075 0 .075.076.15.076h.152l.075-.076s0-.076.076-.076.076 0 .076.076v.076c.222-.076.519-.152.746-.152l-.076-.075c-.151 0-.151-.076-.151-.151 0 0 0-.076.151-.076s.222.076.222.151c0 0 0 .076.076.076.15 0 .297-.076.448-.076 0-.075-.15-.15-.15-.222-.076-.15-.298-.075-.374-.15v-.152c-.746.151-1.417.373-2.087.595-1.341.52-4.321 2.012-4.397 2.012h-.075v-.076c.595-.297 3.277-1.714 4.543-2.233a11.685 11.685 0 0 1 3.948-.893c.075 0 .075 0 .075-.075 0-.222.076-.374.076-.45 0-.075 0-.075-.076-.075-1.119.222-2.607.671-3.797 1.12-1.265.52-2.904 1.487-3.726 1.936l-1.341.67c.076-.373.076-.746.076-1.119.519-.297 1.119-.52 1.79-.746 0 .222 0 .449.075.67.076 0 .076-.075.151-.075 0-.222 0-.449-.075-.595 0-.151-.076-.298-.076-.52-.151-.746-.373-1.416-.595-1.86a5.705 5.705 0 0 0-1.488-2.012l-1.265-.151c-.076 0-.076 0-.076.075 0 .076 0 .076.076.076l.821.076c0 .075 0 .075-.075.15-.222.671-.595 1.266-1.044 1.64l-.52-.076c-.075 0-.075 0-.075.075 0 .076 0 .076.076.076l.821.076c.969 1.119 1.342 2.46 1.12 4.099-.222-.076-.373-.076-.52-.151h-.151v.15c.076.374-.892.374-1.563.298-.893-.075-1.417-.15-1.639-.15h-.075H10c.298 0 .968.15 1.86.297.671.075 1.19 0 1.418-.076.075-.075.15-.222.075-.373 0-.076-.075-.076-.075-.151h.075c.151 0 .298.075.52.151h.151c.373.151.822.298 1.19.373.746.151 1.12.076 1.341 0 .076-.075.151-.075.151-.151s0-.151-.075-.151c0 0-.076 0-.076-.076 0-.075.373-.075.52-.075.15 0 .448 0 .746.075.746.076 1.043.076 1.265-.15 0 0 .076-.076.076 0v.075c-.076.15-.222.373-.746.373-.151 0-.222 0-.373-.076h-.076l.076.076c.15.075.373.151.67.151.506.463.727.387.879.312zm-2.385.227c0 .076-.076.152-.076.152-.075 0-.448.221-.968.221-.297 0-.595-.075-.968-.15a1.863 1.863 0 0 0-.746-.152s-.151 0-.151-.075h.15c.152 0 .223 0 .374.075.151 0 .746.151 1.12.151.448 0 .892-.075 1.043-.15.07-.072.222-.147.222-.072zm1.341-15.716c.222-.076.449-.076.67-.076h.45c.15 0 .297 0 .372.076 0 0 .076 0 0 .075 0 .076-.075.076-.075.151 0 0-.076.076-.076 0-.222-.075-.52-.075-.746-.075-.151-.151-.373-.151-.595-.151zm5.884 16.236c-.075 0-1.044-.298-1.79-.67-.746-.374-.892-.52-.968-.52-.075-.076-.15-.222-.075-.298.075-.075.222 0 .297 0 0 0 .222.222.67.52.747.448 1.715.892 1.861.892.076 0 .076.076.076.076h-.07zm-1.79-6.036c.076 0 .076.076.076.076 0 .076 0 .076-.076.151 0 .076-.075.076-.075.076-.222 0-.449-.076-.67-.076h-.969c.151-.075.822-.227 1.714-.227zm-3.05-1.039c.075-.075.373-.221.746-.297h.075c0 .076.076.076.076.151-.453.07-.675.07-.897.146zm-.151.444c.075-.075.448-.297 1.043-.373h.076c0 .076 0 .076.075.151-.6.147-.972.222-1.194.222zm3.277.449h-1.266c.151-.076.67-.151 1.266-.151 0 0 .075 0 .075.075 0-.075 0 0-.075.076.075 0 0 0 0 0zm.151-.822h-.076c-.221-.075-.448-.075-.67-.075.075 0 .373-.076.746-.076v.151zm-3.726.968c.151-.075.595-.373 1.488-.52 0 0 .075 0 .075.076v.152s0 .075-.075.075a4.743 4.743 0 0 0-1.488.217zm3.65-.595h-.15c-.298 0-.52-.075-.747-.075.151 0 .449-.151.968-.076.005.076.005.076-.07.151.075 0 0 0 0 0zm-4.17 1.266c.222-.151.822-.52 2.012-.67.076 0 .076 0 .076.075v.151c0 .076-.076.076-.076.076-.973.07-1.714.297-2.012.368zm-8.42 4.845c-.075 0-.075-.075 0 0-.075-.075 0-.075 0 0 .151-.075.52-.075 1.79.152 1.044.15 1.488-.076 1.563-.076.076 0 .151 0 .151.076 0 .075 0 .15-.15.221-.374.152-1.044.152-1.715 0-.67-.226-1.115-.373-1.639-.373zm3.575-8.864.595.076-.52.075s-.075 0-.075-.075c0 .07-.07-.005 0-.076-.07 0-.07 0 0 0zm.968-.373c0 .151 0 .222-.075.373l-.893-.151c.373-.076.67-.146.968-.222zm-.67-.373c.075-.076.075-.151.075-.151 0-.076.076-.076.151-.076h.151c.076 0 .076 0 .076.076v.075c0 .076-.076.152-.076.152l-.377-.076c0 .076 0 0 0 0zm.448 1.341-.595.151s-.075 0-.075-.075v-.076s0-.075.075-.075l.595-.152s.076 0 .076.076l-.076.151c.076-.075.076 0 0 0zm-.15.52c0 .075-.076.075-.076.075l-.373.076s-.076 0-.076-.076v-.15s0-.076.076-.076l.373-.076s.075 0 .075.076v.15zm.372.524a11.56 11.56 0 0 1 1.861-.373c.151.075.222.222.298.297-.671-.075-1.488 0-2.012.076H14.747c-.072 0-.072 0 0 0zm-1.86-1.79.595.151c.222.52.222 1.12.15 1.714h.223l.297.076 3.056.449c0 .075.075.075.075.15 0 .076 0 .152-.075.223-.222.075-.373.222-.52.297.151-.075.373-.15.52-.15.075 0 .15 0 .222.075 0 .075 0 .15-.076.222-.373.15-.595.297-.746.448.222-.075.52-.222.822-.297.075 0 .15 0 .15.075 0 .076 0 .151-.075.222-.448.222-.822.449-1.043.595.297-.15.67-.297 1.043-.373.076 0 .151 0 .151.076 0 .075 0 .15-.075.15-.52.223-.968.52-1.266.747 0 0 0 .076 0 0 .373-.151.746-.297 1.19-.449.076 0 .151 0 .151.076s-.075.151-.075.151c-.595.298-1.12.52-1.417.822v.075c.893-.448 2.234-.821 3.5-.968v.222h-.152c-1.265.151-2.46.449-3.353.893v.075c0 .152.076.373.076.52.52-.151.968-.222 1.488-.222l.075-.822c.151 0 .298-.075.449-.075v.746c.297-.151.67-.298.968-.449.222-.075.373-.151.595-.222l.075-.892c.152 0 .298-.076.45-.076v.741c.221-.075.448-.15.67-.221h-.595v-.222c.52 0 1.043-.076 1.487 0a6.116 6.116 0 0 1 1.639-.222l1.341-1.564v.595c-.15.298-.52.671-.892 1.342-.52.821-.595 1.416-.595 2.158H23.615c0-1.044.151-1.417 1.044-2.683.298-.448.449-.595.52-.746v-.599l1.86-2.46v-.076h-.075l-2.088 2.384-.07.076c-.374-.076-.671 0-.822 0 .222.076.448.076.595.151v.076s-.076.075-.151.075h-.893c.222.076.449.076.67.151v.076l-.075.075c-.52 0-.893.076-1.044.076.222.076.52.076.822.151v.076h-.076c-.519 0-.968.075-1.119.075.298 0 .52.076.822.151.075 0 0 .076 0 .152-.076.075-.151.075-.222 0-.595-.076-1.341-.152-1.936-.152-1.417 0-2.905.449-3.127.52-.448-2.31-1.638-3.278-1.714-3.353h-.151l-1.488-.222c-.075 0-.075 0-.075.075 0 .076 0 .076.075.076h.152c-.152.076-.298.222-.52.298.298-.076.595-.222.893-.298l.448.076c-.595.15-1.19.297-1.714.519.297-.373.52-.892.595-1.341.151-.746.076-1.417-.222-1.86l-.67-.152c-.076 0-.076 0-.076.076 0 .075 0 .075.075.075l.373.076c-.15.52-.519.968-.821 1.34h-.449c-.075 0-.075 0-.075.077-.076.051 0 .127 0 .127z" fill="#fff"/></g><defs><clipPath id="a"><path fill="#fff" d="M0 0h40v40H0z"/></clipPath></defs></svg>