<svg width="40" height="40" fill="none" xmlns="http://www.w3.org/2000/svg"><g clip-path="url(#a)" transform="matrix(1.4 0 0 1.4 -8 -7.995)"><g clip-path="url(#b)"><path d="M19.979 29.977c5.504 0 9.966-4.462 9.966-9.966 0-5.505-4.462-9.967-9.966-9.967s-9.966 4.462-9.966 9.966c0 5.505 4.462 9.967 9.966 9.967z" fill="#fff"/><path d="M29.956 21.056c-.085.236-.085.234-.376.228-.327-.007-.614-.137-.893-.29-.277-.152-.544-.324-.85-.419a1.592 1.592 0 0 0-.61-.077l.145.693c.01.045.04.052.081.053.344.012.64.158.929.328.267.158.53.327.84.397.183.041.367.062.577.028-.066.264-.129.507-.188.752-.018.076-.074.059-.123.06-.26.012-.486-.086-.703-.217-.204-.123-.398-.264-.615-.365a1.552 1.552 0 0 0-.585-.148c-.084-.004-.108.02-.104.104.008.156.005.312.003.468 0 .053.002.09.071.09.317.003.576.154.827.325.24.163.475.338.776.38.066.009.132.015.215.024-.101.241-.2.474-.295.709-.037.093-.102.066-.167.049-.208-.056-.365-.195-.526-.325-.192-.155-.394-.286-.642-.333l-.03-.008c-.256-.045-.285-.027-.332.223-.019.097-.07.208-.04.287.033.092.164.029.251.051.202.052.371.156.526.291.188.163.366.343.64.39-.116.243-.263.455-.394.675-.047.078-.09.025-.125-.004-.144-.12-.282-.246-.426-.366-.17-.142-.356-.253-.581-.277-.092-.01-.097-.048-.07-.125.04-.107.063-.219.097-.328.029-.092.031-.141-.098-.15a2.497 2.497 0 0 1-1.42-.574c-.07-.055-.106-.108-.1-.206.017-.303-.112-.565-.265-.816a5.537 5.537 0 0 0-.626-.835c-.439-.484-.51-1.016-.305-1.619.128-.378.228-.766.248-1.17.052-1.042-.342-1.89-1.122-2.57-.015-.013-.034-.022-.052-.032-.003 0-.008.003-.023.01.177.236.341.478.476.74.398.765.469 1.558.22 2.384-.106.347-.224.69-.276 1.052-.054.364-.003.7.194 1.016.187.3.403.582.628.853.504.608.582 1.252.211 1.95-.07.133-.13.272-.205.402-.038.069-.026.109.03.158.465.416.984.726 1.615.813.295.041.387-.01.504-.287.095-.227.114-.234.35-.143.241.093.406.284.583.46.19.188.191.189.026.395-.1.126-.188.324-.313.352-.144.033-.212-.2-.33-.3-.14-.119-.274-.24-.45-.303-.036-.013-.076-.045-.106.012-.057.105-.113.21-.173.313-.036.063.025.057.048.067.27.116.438.343.617.559.041.05.029.078-.011.116-.16.15-.32.299-.474.453-.058.058-.08.028-.114-.022a2.28 2.28 0 0 0-.393-.441c-.065-.056-.114-.083-.17.012-.048.08-.152.146-.159.225-.007.081.116.13.177.197.31.341.31.343-.056.616-.129.095-.261.186-.41.292-.092-.51-.402-.882-.68-1.272-.21-.296-.42-.592-.498-.959a1.49 1.49 0 0 1 .012-.607c-.252.384-.314.758-.175 1.163.103.302.274.569.438.84.178.292.355.584.439.923.031.128.016.213-.118.27-.123.052-.238.126-.356.19-.041.024-.074.044-.083-.029-.076-.625-.414-1.145-.683-1.692a6.098 6.098 0 0 1-.22-.497 1.24 1.24 0 0 1 .04-.998c.133-.294.312-.562.48-.836.144-.234.281-.472.385-.728a1.46 1.46 0 0 0-.103-1.372 5.671 5.671 0 0 0-.597-.818c-.49-.56-.566-1.174-.31-1.857.164-.437.335-.873.376-1.344.091-1.073-.276-1.955-1.099-2.648-.043-.037-.094-.065-.142-.096-.01-.007-.025-.01-.058-.02.103.138.197.259.285.384.634.91.76 1.886.384 2.93-.15.414-.326.818-.395 1.259-.074.466.013.889.288 1.27.198.273.404.541.61.81.406.532.438 1.087.114 1.673-.169.304-.365.591-.547.888-.177.288-.34.583-.392.924-.059.394.072.747.242 1.092.19.386.421.75.59 1.148.1.24.178.486.2.748.008.087-.017.132-.1.163-.189.069-.37.16-.583.213.049-.596-.204-1.096-.457-1.595-.147-.292-.302-.579-.435-.878-.211-.478-.18-.935.069-1.39.142-.26.309-.504.468-.753.14-.218.275-.439.383-.676.248-.545.195-1.06-.15-1.545a7.557 7.557 0 0 0-.445-.582c-.554-.636-.6-1.338-.299-2.095.169-.422.382-.828.494-1.273.27-1.064-.157-2.272-1.042-2.928-.034-.025-.075-.081-.116-.03-.035.043.019.085.046.12.331.419.549.887.637 1.417.106.642 0 1.248-.267 1.836-.17.377-.35.752-.468 1.151-.194.652-.1 1.252.313 1.797.14.186.283.372.427.557.422.542.439 1.109.113 1.701-.188.342-.423.654-.628.985-.244.393-.446.8-.398 1.283.032.326.162.62.3.91.202.432.442.846.589 1.303.082.255.124.514.11.782-.005.098-.029.161-.146.179-.169.025-.334.075-.501.11-.05.011-.106.03-.092-.066.087-.6-.093-1.15-.333-1.686-.153-.34-.318-.676-.472-1.015-.224-.497-.176-.979.084-1.45.185-.337.41-.649.62-.97.139-.214.269-.433.36-.671a1.31 1.31 0 0 0-.099-1.182c-.129-.221-.297-.413-.45-.616-.204-.268-.366-.552-.414-.893-.026-.185-.145-.254-.328-.207-.216.055-.427.128-.652.144-.292.02-.565-.056-.841-.133-.227-.063-.32-.005-.362.226-.06.33-.217.614-.42.875l-.288.37c-.427.543-.453 1.114-.121 1.713.184.332.406.64.612.957.107.166.205.336.294.513.212.421.218.845.044 1.28-.149.37-.34.721-.505 1.085-.235.518-.387 1.052-.326 1.628.01.102-.023.117-.109.096-.146-.035-.292-.076-.44-.097-.134-.02-.174-.08-.18-.212-.024-.48.144-.907.338-1.328.172-.372.368-.731.524-1.111.213-.523.175-1.021-.09-1.514-.164-.307-.366-.59-.555-.882a4.976 4.976 0 0 1-.31-.539c-.259-.532-.211-1.035.135-1.51.135-.185.275-.366.418-.544.492-.615.574-1.292.315-2.024-.146-.41-.346-.798-.504-1.204-.414-1.065-.262-2.054.4-2.975.042-.059.146-.132.09-.185-.065-.063-.13.048-.185.094-.999.84-1.302 2.12-.8 3.358.142.35.312.689.423 1.052.193.635.095 1.21-.323 1.728-.163.202-.32.41-.476.617-.411.547-.44 1.123-.13 1.725.163.32.37.614.562.915.101.157.194.319.278.486.207.41.216.822.04 1.247-.17.414-.401.796-.591 1.2-.186.392-.345.79-.326 1.235.003.068-.017.085-.08.06-.178-.07-.356-.142-.536-.209-.075-.027-.064-.08-.059-.14.034-.4.19-.762.373-1.113.146-.28.296-.559.445-.838.324-.61.293-1.205-.073-1.786-.155-.246-.308-.493-.464-.739a3.837 3.837 0 0 1-.287-.534 1.322 1.322 0 0 1 .089-1.28c.141-.232.302-.451.483-.65.625-.686.695-1.448.365-2.286-.152-.385-.319-.768-.385-1.18-.14-.875.055-1.671.579-2.385.04-.055.081-.108.122-.162l.146-.189a1.252 1.252 0 0 0-.357.247c-.944.931-1.187 2.032-.788 3.287.119.374.278.736.34 1.13a1.35 1.35 0 0 1-.203.966c-.172.273-.384.517-.574.777-.065.088-.127.177-.189.267-.36.522-.39 1.066-.116 1.635.133.277.298.534.455.797.091.151.18.303.269.456.254.443.273.895.048 1.355-.209.428-.425.854-.628 1.285-.113.24-.186.495-.206.774-.195-.071-.36-.186-.537-.28-.058-.032-.037-.076-.03-.122.052-.308.196-.577.354-.84.158-.263.33-.517.46-.795.214-.453.225-.898-.077-1.354.01.108.023.19.024.27.001.089 0 .178-.015.265-.06.353-.249.644-.45.93-.173.247-.36.484-.51.745a1.795 1.795 0 0 0-.222.596 6.302 6.302 0 0 1-.697-.5c-.049-.04-.005-.074.015-.106.096-.156.205-.302.347-.419.05-.041.066-.072.012-.12-.023-.021-.04-.048-.059-.072-.161-.206-.161-.206-.35-.027a2.49 2.49 0 0 0-.336.422c-.198-.158-.369-.339-.546-.513-.04-.04-.029-.066 0-.104.188-.238.372-.479.682-.585l-.114-.204c-.12-.217-.123-.22-.34-.088a2.01 2.01 0 0 0-.522.489c-.06.077-.098.085-.16.001-.12-.158-.25-.307-.373-.461-.022-.029-.07-.058-.013-.102.197-.154.346-.36.556-.5.043-.028.088-.055.135-.077.273-.131.317-.115.43.157.093.224.183.284.418.256.66-.079 1.202-.4 1.69-.833.066-.058.04-.105.01-.16a4.828 4.828 0 0 1-.348-.764 1.382 1.382 0 0 1 .137-1.239c.17-.274.36-.538.572-.778.529-.596.601-1.258.352-1.99-.145-.427-.281-.858-.298-1.316-.03-.817.266-1.521.742-2.165a.825.825 0 0 0 .088-.14c-.158.08-.28.205-.392.337-.779.91-.979 1.943-.647 3.087.09.309.188.615.216.939.02.233-.032.44-.154.637-.19.306-.43.574-.642.863-.225.306-.449.613-.506 1.003-.004.02-.014.043-.01.061.056.23-.1.332-.255.44-.389.27-.818.426-1.29.454-.097.006-.107.04-.084.12.037.123.067.25.107.373.022.065.014.097-.059.105-.283.03-.502.183-.706.366-.1.09-.204.178-.303.27-.068.062-.115.068-.166-.023-.107-.19-.221-.375-.334-.562-.029-.048-.035-.082.034-.096.197-.042.342-.17.484-.3.233-.209.476-.39.812-.373.073.004.072-.04.063-.09-.023-.128-.05-.256-.068-.384-.011-.076-.054-.084-.12-.085a1.097 1.097 0 0 0-.632.184c-.113.074-.217.16-.326.24-.08.058-.157.121-.241.17-.265.156-.31.14-.427-.133-.072-.167-.139-.335-.207-.503-.004-.009-.002-.02-.003-.045.384.007.684-.197.982-.405.245-.17.502-.316.813-.319.05 0 .076-.014.076-.07 0-.171-.001-.343.005-.514.003-.084-.047-.077-.1-.076-.3.004-.568.113-.82.266-.168.103-.333.21-.503.31-.178.102-.37.159-.579.156-.077-.001-.12-.013-.139-.102-.05-.232-.116-.46-.18-.71.513.07.928-.133 1.331-.38.316-.193.64-.37 1.024-.375.057 0 .069-.035.078-.077.043-.192.083-.385.131-.576.023-.092-.014-.101-.09-.101-.326 0-.623.1-.907.248-.3.154-.579.347-.899.461-.225.08-.456.095-.691.078-.06-.005-.094-.017-.1-.088a11.63 11.63 0 0 0-.054-.543c-.009-.07.012-.092.083-.085.508.048.959-.128 1.394-.364.351-.19.7-.386 1.107-.438.036-.005.074-.019.108-.011.266.059.385-.078.457-.314a1.84 1.84 0 0 1 .19-.39c.062-.104.05-.133-.075-.145a2.379 2.379 0 0 0-1.284.236c-.328.156-.639.346-.98.472-.282.104-.572.15-.872.135-.104-.006-.14-.04-.136-.15.063-1.708.521-3.3 1.41-4.756 1.38-2.26 3.348-3.776 5.9-4.474 5.6-1.531 11.112 1.916 12.4 7.325.097.41.17.824.214 1.243.002.024-.003.053.03.062v.75c-.19.08-.388.05-.58.02-.399-.058-.75-.241-1.098-.431-.449-.245-.915-.423-1.44-.391-.19.012-.203.026-.118.199.075.154.16.304.222.464.029.073.078.102.156.1.368-.007.708.097 1.032.265.222.114.445.225.67.335.28.136.57.22.886.21.09-.003.188-.025.27.04v.5z" fill="#0a653d"/><path d="M30 20.59c-.462.058-.888-.058-1.297-.264-.334-.169-.652-.372-1.017-.474a1.528 1.528 0 0 0-.587-.065c-.085.01-.116-.016-.148-.09-.09-.205-.177-.412-.288-.605-.082-.141-.014-.152.095-.16.359-.027.707.01 1.044.146.232.093.456.203.675.324.475.261.972.427 1.524.373v.816zM15.337 13.912c.684.054 1.3.275 1.866.717a7.335 7.335 0 0 0-.832-1.66c.613-.032 1.45.334 2.283.996l.425-1.106c.03-.075-.03-.103-.07-.14l-.897-.796c.222-.017.409-.033.596-.046.203-.015.407-.033.61-.037.095-.002.137-.042.17-.124.135-.322.274-.641.414-.961.02-.046.027-.101.08-.138.15.344.306.683.443 1.03.056.142.125.194.281.198.364.009.726.046 1.128.074l-.624.559c-.098.087-.193.177-.294.26-.052.04-.069.077-.043.143.14.359.276.719.42 1.093.63-.628 1.401-.927 2.29-1.027-.344.53-.635 1.065-.84 1.682a3.38 3.38 0 0 1 1.88-.718l-.21.29c-.34.465-.642.95-.879 1.476-.074.164-.102.171-.275.088a7.472 7.472 0 0 0-3.999-.72 7.422 7.422 0 0 0-2.56.714c-.194.094-.211.088-.304-.11a9.117 9.117 0 0 0-.966-1.586c-.034-.045-.08-.083-.093-.15z" fill="#fff"/><path d="M19.965 15.473c.608.004 1.148.185 1.583.628.148.151.257.328.326.528.01.032.042.067.014.103-.038.047-.08.008-.114-.004a1.463 1.463 0 0 0-1.011-.001c-.313.111-.484.317-.49.661-.004.241-.012.48.065.713.014.041.009.103.07.106.05.003.084-.04.108-.08.038-.062.073-.126.104-.192.056-.122.142-.157.267-.105.17.071.345.114.533.07a.677.677 0 0 0 .175-.065c.154-.085.259-.045.313.131.065.21.043.426-.002.636-.15.701-.486 1.298-1.048 1.75-.63.507-1.296.467-1.913-.118a2.974 2.974 0 0 1-.946-1.906 1.1 1.1 0 0 1 .02-.327c.037-.187.167-.27.332-.182.239.127.47.116.708.02.153-.062.284-.025.41.066.08.058.132.064.157-.058.053-.267.043-.53-.015-.793-.02-.086-.095-.137-.162-.185-.378-.269-.792-.289-1.225-.17-.053.015-.114.073-.159.026-.05-.052.008-.12.031-.171.25-.559.713-.853 1.28-1.01a1.97 1.97 0 0 1 .589-.071zM10.194 18.954c.384-.416.736-.828 1.035-1.282.388-.589.685-1.215.782-1.922.03-.218.045-.436.029-.656-.006-.072-.029-.155.057-.194.076-.034.125.034.176.073.499.386.8.899.94 1.507.03.125.042.15.168.08.667-.372 1.37-.477 2.11-.243.046.015.092.033.158.058a8.769 8.769 0 0 0-.882.729 8.215 8.215 0 0 0-.994 1.146c-.033.046-.051.116-.141.087-.614-.198-1.181-.025-1.738.226-.34.154-.673.332-1.043.411a1.244 1.244 0 0 1-.657-.02zM29.753 18.956a1.46 1.46 0 0 1-.866-.04c-.377-.122-.725-.315-1.091-.462-.482-.193-.971-.28-1.48-.12-.095.031-.116-.034-.153-.086a7.771 7.771 0 0 0-1.531-1.624c-.102-.08-.205-.157-.312-.239.561-.271 1.51-.291 2.376.24.036-.129.066-.257.106-.381.173-.53.469-.974.924-1.305.037-.027.074-.065.126-.042.06.027.054.083.05.136-.06 1.063.341 1.974.936 2.82.271.384.577.74.915 1.103z" fill="#fff"/><path d="M19.224 17.397a1.781 1.781 0 0 0-.614-.106c-.126.004-.25.017-.354.097-.057.043-.088.026-.125-.023-.116-.155-.07-.33.116-.38a.924.924 0 0 1 .873.203c.071.06.071.072.104.21z" fill="#fdfefd"/><path d="M21.311 17.29c-.131 0-.258.026-.384.06-.035.01-.086.048-.11.005a.136.136 0 0 1 .016-.16.613.613 0 0 1 .245-.163.95.95 0 0 1 .612-.043c.148.041.215.15.179.28-.038.131-.092.156-.21.087-.11-.064-.228-.066-.348-.066z" fill="#fcfdfc"/><path d="M20.913 14.322a5.64 5.64 0 0 0-1.193-.065c-.234.012-.467.044-.7.066-.029.003-.065.02-.083-.016-.02-.039.02-.054.042-.072.315-.24.63-.479.943-.722.056-.044.087-.022.131.012l.919.703c.026.02.074.036.05.082-.019.034-.057.013-.109.012z" fill="#0a653d"/><path d="M19.963 19.909a.573.573 0 0 1-.42-.157 6.204 6.204 0 0 1-.292-.303c-.024-.027-.086-.041-.054-.096.025-.043.068-.032.112-.025a4.252 4.252 0 0 0 1.338-.003c.04-.006.075-.01.097.026.03.046-.019.063-.041.087-.092.1-.181.201-.279.295a.595.595 0 0 1-.461.176z" fill="#0b653d"/><path d="M19.985 18.968c-.17.016-.306-.078-.455-.12-.06-.017-.072-.068-.01-.116.12-.095.772-.102.899-.008.064.048.071.104-.007.125-.145.04-.275.134-.427.12z" fill="#0e663f"/></g></g><defs><clipPath id="a"><path fill="#fff" d="M0 0h40v40H0z"/></clipPath><clipPath id="b"><path fill="#fff" transform="translate(10 10)" d="M0 0h20v19.977H0z"/></clipPath></defs></svg>