<svg width="40" height="40" fill="none" xmlns="http://www.w3.org/2000/svg"><g clip-path="url(#a)" transform="matrix(1.4 0 0 1.4 -7.98 -8)"><path d="M13.822 13.832a9.924 9.924 0 0 1 1.723-.496c.07.108-.014.154-.087.194-.081.043-.114.08-.026.15a.186.186 0 0 1 .067.21c-.058.185.044.18.172.155.431-.085.865-.16 1.3-.228.453-.072.91-.12 1.36-.212.08-.016.168-.038.246.016.053.116-.049.137-.11.183-.064.009-.109.055-.163.081-.3.06-.606.103-.872.275-.408.125-.81.263-1.216.395-.086.027-.173.054-.245.113-.917.349-1.769.83-2.633 1.285-.058.011-.113.045-.175.033-.218-.12-.238-.196-.094-.388.144-.191.25-.384.287-.637.05-.344.238-.65.415-.95.032-.056.076-.107.05-.18z" fill="#fee0b8"/><path d="M18.586 13.642c-.97.178-1.954.281-2.92.486-.098.02-.203.045-.277-.031-.082-.083.015-.15.05-.222.043-.088.004-.136-.082-.154-.071-.015-.123-.044-.12-.126.005-.083.069-.096.134-.115.076-.022.177-.024.174-.145.19-.079.426-.031.58-.21.44-.104.885-.167 1.336-.187.301-.034.604-.043.907-.056.44.022.88-.065 1.32-.003h.071c.644-.011 1.278.087 1.914.167a.699.699 0 0 1 .346.113c.022.169-.101.195-.219.204-.16.012-.324.016-.485.02-.713.02-1.417.116-2.12.221-.197.03-.402.105-.609.038z" fill="#fffbf6"/><path d="M18.352 12.943c-.296.064-.6.032-.897.074-.126-.04-.13-.11-.042-.195.051-.05.117-.08.181-.11.324-.148.647-.297.98-.426.16-.062.32-.129.457-.26-.104-.09-.228-.091-.33-.14-.238-.112-.283-.219-.186-.463a.964.964 0 0 1 .186-.316.406.406 0 0 0 .115-.391c.308-.238.634-.447.976-.632.116.073.08.187.073.29-.005.076-.029.15-.042.223-.11.282-.006.502.198.695.237.225.493.42.814.51.025.008-.005-.003.018.008.123.057.278.097.263.27-.015.167-.167.198-.3.23-.2.05-.4.11-.604.144a.441.441 0 0 0-.246.145c-.486.117-.95.342-1.466.323-.05-.002-.104-.02-.148.02z" fill="#deece5"/><path d="M18.816 10.715c.13.099.136.23-.013.383-.123.125-.186.275-.256.43-.058.126-.016.2.094.248.094.043.193.075.29.11.077.028.194.015.213.106.022.11-.104.136-.175.182-.235.155-.51.222-.763.339-.241.112-.482.224-.724.334-.096.044-.115.097-.028.17a8.052 8.052 0 0 0-1.094.137c-.083.015-.165.043-.237-.028.69-.813 1.477-1.52 2.327-2.16.118-.09.244-.168.366-.251z" fill="#edf7f8"/><path d="M13.822 13.832c.129.003.092.071.055.139-.16.288-.33.57-.425.888-.013.043-.052.088-.045.126.059.314-.159.5-.326.703-.123.148.007.185.082.253.22.12.405.301.65.38.34.182.663.395 1.002.58.032.021.067.038.101.055.07.042.143.08.207.132.06.05.086.106.045.18-.073.062-.133.01-.194-.024-.334-.181-.664-.369-.989-.567-.19-.117-.4-.203-.585-.332-.115-.125-.302-.153-.402-.297-.206-.21-.463-.35-.712-.498a1.29 1.29 0 0 1-.217-.163.327.327 0 0 1-.1-.353c.056-.193.124-.38.252-.54a8.936 8.936 0 0 1 1.601-.662z" fill="#efead5"/><path d="M23.659 12.159c-.064.067-.144.053-.22.032a2.33 2.33 0 0 0-.654-.07 6.763 6.763 0 0 1-1.504-.175c-.233-.052-.439-.145-.576-.362-.07-.109-.19-.173-.31-.226a2.175 2.175 0 0 1-.469-.276c-.158-.125-.223-.28-.171-.478.005-.174.084-.343.037-.52.03-.041.068-.068.12-.068.09.097.206.155.319.216.13.071.214.168.22.318.008.17.102.275.25.338.256.11.504.239.783.285.202.033.356.18.551.235.017-.113.023-.122.096-.142l.73.395" fill="#e1d7bd"/><path d="M22.13 11.267c-.075.024-.032.05 0 .073.044.03.097.061.06.122-.03.053-.092.034-.142.032a.155.155 0 0 1-.074-.021c-.398-.253-.88-.294-1.294-.506-.182-.092-.318-.202-.3-.426.01-.125-.076-.174-.162-.24-.11-.083-.303-.085-.305-.285.031-.034.062-.006.085.007.712.414 1.422.829 2.133 1.244z" fill="#ead59d"/><path d="m11.255 20.745-.006-4.047-.003-1.692.045-.035c.031.018.048.046.055.08.005.056.003.111.01.167-.01.12-.004.24-.005.36-.044.593.083 1.18.062 1.773-.002.047-.018.116.05.13.047.01.072-.047.098-.083.04-.058.079-.118.151-.142.125.012.1.106.07.166-.053.108-.01.16.078.205.039.08.004.148-.04.211-.079.115-.144.237-.217.356-.269.335-.248.735-.238 1.127.011.42.006.84.005 1.26a.221.221 0 0 1-.05.144.068.068 0 0 1-.065.02z" fill="#f8b9b7"/><path d="m11.293 15.044-.002-.074c.304-.171.603-.351.93-.477.048.04.024.077-.003.117-.09.13-.128.282-.176.429-.06.177.015.302.242.443.236.146.467.299.7.448a.125.125 0 0 1 .063.092c-.155.069-.251-.056-.361-.118-.223-.126-.435-.27-.668-.377-.24-.164-.534-.246-.725-.483z" fill="#fefaf3"/><path d="M27.162 24.706c-.48-.12-.969-.142-1.46-.13a5.812 5.812 0 0 0-2.46.61 4.454 4.454 0 0 0-.595.346c-.253.125-.453.321-.665.502-.02.017-.037.036-.056.054-.073.07-.144.162-.259.134-.063-.015-.068-.284.01-.362.238-.24.432-.537.815-.59.22-.03.397-.19.59-.293.577-.311 1.198-.476 1.836-.602.327-.064.658-.074.917-.107a7.388 7.388 0 0 0-1.188.162c-.189.045-.382.07-.563.146-.08.034-.183.068-.226-.023-.05-.107.057-.153.137-.196a.143.143 0 0 1 .045-.016c-.107.046-.251.069-.38.131-.234.115-.458.04-.68-.032-.113-.038-.129-.14-.08-.242a.604.604 0 0 1 .214-.272c.393-.241.786-.5 1.264-.523.276-.014.55-.07.829-.038.066.008.126-.025.19-.035.084-.014.168-.022.226.034-.07-.048-.169-.082-.242-.155-.05-.05-.114-.091-.094-.177.043-.038.09-.034.14-.014.46.275.894.591 1.328.907.136.087.267.184.399.277.167.123.349.225.515.351.072.083.208.112.214.25-.013.029-.029.051-.063.026-.226-.007-.43-.13-.658-.123z" fill="#ec1f25"/><path d="m27.82 24.828.048-.038c.21-.092.283-.285.352-.48.074-.206.138-.416.222-.618.03-.07.06-.189.185-.092.003.055.002.11.002.166-.009.414.018.828-.014 1.241-.165.071-.308-.023-.458-.064-.115-.032-.225-.076-.338-.115z" fill="#cc2526"/><path d="M28.63 20.98c.003.39.026 1.276.027 1.665l-.017 1.087-.025.004-.005-.157c-.079-.065-.081-.156-.083-.247a6.582 6.582 0 0 1 .013-.56c-.033-.217.001-.435-.005-.652-.02-.132 0-.263.014-.394-.008-.09-.017-.178-.012-.282-.06.025-.08.082-.124.112-.232.162-.46.33-.704.475a.145.145 0 0 1-.114-.031c-.069-.138.066-.198.111-.292.128-.132.298-.205.445-.31.162-.115.348-.203.415-.417" fill="#929763"/><path d="M28.615 23.735a.186.186 0 0 0 .025-.004c.001.37.003.74.002 1.11 0 .056.024.118-.027.166v-1.272z" fill="#bb6028"/><path d="m11.254 24.979-.011-2.02.012-2.214a.09.09 0 0 1 .037-.005c.081.053.057.137.058.211.001.11-.004.22.06.32.05.585.077 1.171.043 1.76-.009.147.022.294.02.442-.02.184-.015.37-.038.555-.084.315-.026.619.079.916.016.048.052.088.03.143-.125.04-.196-.064-.29-.108z" fill="#b5c8b6"/><path d="M25.41 23.387c-.109.072-.226.02-.34.024-.657.02-1.285.14-1.845.516-.126.085-.197.204-.28.317-.058.08-.006.128.08.152.241.069.472.084.714-.032a1.24 1.24 0 0 1 .58-.098c-.155.071-.321.116-.43.27a8.175 8.175 0 0 1 2.307-.331.37.37 0 0 1-.304.135 6.462 6.462 0 0 0-2.553.592c-.2.09-.39.202-.58.312-.115.066-.225.134-.362.118a.155.155 0 0 0-.125.039c-.181.157-.363.313-.54.474-.098.09.032.216-.073.309l.048.023c.222-.182.443-.366.667-.545.08-.063.156-.142.273-.13-.354.28-.703.565-1.02.888-.1.059-.146.21-.3.18-.071-.055.02-.162-.069-.211-.021-.1.039-.17.092-.241.107-.143.221-.282.343-.412.08-.085.044-.127-.037-.167-.021-.159.094-.234.201-.303.317-.203.655-.368.984-.55.06-.033.13-.054.166-.113-.01-.05-.048-.052-.076-.066-.218-.105-.256-.19-.178-.415.015-.043.023-.087.04-.13a.182.182 0 0 1 .056-.066c.399-.267.795-.538 1.241-.725.078-.032.155-.069.244-.052.219.118.458.122.7.134.13.006.276-.02.377.104z" fill="#de202c"/><path d="M20.103 29.736c-.058.085-.039.219-.162.264a.409.409 0 0 1-.049-.224c.002-.427-.003-.853.002-1.279.01-.077.04-.15.05-.226.124-.108.12-.319.304-.38.096.039.137.148.236.185.008.244-.14.444-.199.669-.06.226-.161.442-.142.685l-.04.306z" fill="#e52e2f"/><path d="M20.142 29.43c-.087-.054-.059-.125-.043-.204.07-.353.19-.69.324-1.022.018-.046.022-.099.033-.148-.063-.107.004-.187.062-.261.09-.114.15-.24.194-.377.128-.262.308-.491.462-.737.034-.056.08-.103.155-.098.11-.035.176-.15.299-.162-.19.267-.39.526-.566.801a6.944 6.944 0 0 0-.876 2.08c-.01.043-.029.085-.044.127z" fill="#c82532"/><path d="M16.099 27.825c-.235-.166-.49-.295-.744-.428a10.047 10.047 0 0 0-.868-.502 7.377 7.377 0 0 0-.816-.469c-.166-.131-.358-.216-.544-.313a5.043 5.043 0 0 0-.588-.344l-.352-.201a3.032 3.032 0 0 0-.502-.284c-.125-.128-.328-.146-.431-.305.103.01.181.08.273.116.085-.035.155.014.218.052.234.14.476.265.71.405.32.218.684.36 1.014.564.077.047.159.087.233.139.255.184.552.298.81.479.244.144.499.272.744.417.508.297 1.013.599 1.517.902.044.048.15.072.063.168a515.23 515.23 0 0 0-.737-.396z" fill="#ec8b58"/><path d="M16.837 28.222c.028-.08-.066-.071-.085-.117-.123-.094-.227-.21-.35-.306-.072-.056-.141-.114-.233-.134-.296-.063-.492-.256-.623-.512-.151-.298-.312-.593-.41-.917-.074-.244-.265-.428-.362-.663-.043-.102-.09-.2-.085-.315a.522.522 0 0 0-.058-.26c-.025-.055-.039-.108-.003-.164.104-.048.145.03.171.1.042.114.118.2.201.282.12.132.194.294.264.452.13.29.295.56.407.861a1.4 1.4 0 0 0 .439.612c.231.181.45.37.622.61.196.274.481.444.743.642.064.047.134.088.097.185-.122.02-.196-.075-.289-.122a3.34 3.34 0 0 0-.258-.12l-.108-.048-.08-.066z" fill="#d4b195"/><path d="M17.025 28.335c.215.004.35.194.55.234.17-.021.267.159.43.16.604.323 1.176.703 1.81 1 .032-.067.017-.138.017-.205v-2.115c0-.091-.003-.182.018-.271.01-.188.003-.375-.016-.562.056-.208-.021-.416 0-.623.033-.249-.023-.497-.005-.745.007-.096-.003-.194.08-.265.136.01.115.121.117.2.006.262.027.525-.044.784.01-.067 0-.14.081-.173.013-.004.032-.008.037 0 .085.152.209.236.39.221.037.059.022.124.022.187a.172.172 0 0 1-.025.062c-.05.051-.075.127-.14.16-.277.14-.304.402-.31.661-.006.259-.04.517-.028.776.01.213-.015.423-.056.632L19.94 30l-.723-.38-.669-.388-.896-.516-.628-.38z" fill="#c4a685"/><path d="M19.755 10.604c-.024.317.23.424.434.562.15.1.335.137.473.26.039.034.093.06.112.104.123.272.38.303.625.358.564.126 1.135.156 1.711.161.184.002.366.071.549.11.32.14.613.326.908.51.091.124.072.187-.065.203a.474.474 0 0 1-.174-.017 8.79 8.79 0 0 0-1.147-.21 2.997 2.997 0 0 0-.632-.067 1.73 1.73 0 0 0-.444-.05c-.642-.006-1.284-.004-1.923.087-.085.012-.17.013-.23-.065.05-.093.134-.133.233-.157.226-.054.453-.11.678-.169.086-.022.194-.039.206-.15.012-.118-.095-.144-.181-.167-.395-.107-.713-.34-.992-.621-.184-.186-.23-.426-.141-.681z" fill="#d2d8c9"/><path d="M25.22 13.052c.04.044.123.075.08.154-.043.08-.128.082-.206.07-.26-.044-.52-.096-.782-.128-.287-.036-.575-.047-.862-.074-.206-.02-.41-.045-.612.018-.226.023-.454.01-.684.037-.258.03-.543-.041-.806-.123.005-.152.124-.16.231-.183.262-.054.532-.03.795-.076.099-.017.192-.028.255-.116.083-.114.2-.06.306-.062.085-.002.168.006.252.02.438-.008.853.122 1.275.212.149.032.16-.016.105-.132l.295.152" fill="#e8bba3"/><path d="M13.316 15.903c.51-.302 1.035-.574 1.568-.836.342-.169.696-.31 1.049-.452.245-.118.467-.076.719.03.494.207.851.53 1.063 1.018.03.07.065.141.06.222-.007.082-.06.14-.105.204-.134.187-.135.229.062.354.29.184.596.342.908.487.317.147.641.28.941.464.021.023.034.05.033.081-.012.045-.046.066-.088.077-.959-.133-1.855-.417-2.593-1.082-.214-.194-.242-.314-.117-.558.069-.135.028-.292-.133-.375-.317-.161-.631-.337-.989-.402a.807.807 0 0 0-.51.08c-.455.223-.905.456-1.344.708-.12.07-.213.168-.312.26-.1.005-.162-.061-.225-.125-.058-.057-.06-.109.013-.155z" fill="#b7cfab"/><path d="M17.729 15.902c-.14-.383-.328-.739-.68-.964-.216-.138-.46-.235-.696-.34-.138-.062-.28.004-.42.018.371-.186.767-.305 1.162-.425.105-.032.213-.054.32-.081.18-.068.296.01.379.165.06.114.11.234.151.356.088.26.213.498.41.695.076.095.127.2.106.328-.147.307-.473.418-.732.248z" fill="#c9c4ad"/><path d="M18.31 13.836a.143.143 0 0 1 .121-.079c.485-.163.99-.213 1.493-.264.093.059.066.159.084.243.056.263.083.536.26.758.065.098.12.202.162.313.022.142.162.261.085.423-.107.05-.146-.043-.196-.1-.144-.162-.241-.359-.38-.527a.678.678 0 0 0-.625-.307c-.174.007-.325-.076-.462-.174a1.03 1.03 0 0 0-.475-.197c-.04-.016-.076-.035-.067-.089z" fill="#f0a8b6"/><path d="m18.31 13.836.083.04a.32.32 0 0 1 .109.24c.015.317.064.627.152.932-.056.166-.139.303-.341.308-.316-.212-.377-.57-.507-.886-.078-.187-.156-.354-.392-.361.265-.203.572-.265.896-.273z" fill="#dcbab2"/><path d="m19.947 13.526-1.516.232c.043-.05.129-.044.155-.116a21.261 21.261 0 0 1 1.646-.238c.532-.062 1.066-.1 1.601-.114.088-.002.146-.046.187-.117.148-.085.296-.031.445-.006.06.022.12.05.182.067.064.018.105.056.098.125-.007.069-.057.101-.12.104-.181.008-.354.065-.536.066a18.42 18.42 0 0 1-1.07-.024c-.299-.016-.595.014-.891.05-.064.007-.129.032-.18-.03z" fill="#fccfc2"/><path d="M13.316 15.902c-.058.182.096.205.2.266.143-.004.258.029.27.201-.244-.09-.467-.21-.622-.428l.152-.039z" fill="#d4d8cb"/><path d="M23.186 12.588c-.074.056-.148-.01-.223-.002-.116.013-.245-.032-.294.14-.018.063-.109.086-.182.093-.294.028-.589.059-.883.078a.41.41 0 0 0-.25.084c-.07.053-.147.034-.224.027-.454-.039-.906-.117-1.364-.078l-.048.009c-.03-.039-.118.01-.118-.068 0-.057.05-.087.095-.115.092-.056.199-.059.299-.08.829-.172 1.669-.203 2.512-.184.02 0 .037.008.055.017.21.006.42.021.625.079z" fill="#f2cdbf"/><path d="M19.765 12.93c.389-.072.775.017 1.162.022.142.002.284.02.426.03.32.02.63.142.963.05.163-.045.347-.01.521-.011.78.016 1.551.112 2.315.27.1.02.21.024.224.163-.083.08-.179.053-.274.033-.487-.102-.976-.186-1.475-.176-.16.003-.318-.084-.48-.01-.215.038-.41-.064-.616-.094-.029-.004-.061-.035-.078.016-.146-.006-.284-.072-.433-.05-.4-.072-.802-.132-1.208-.17-.348-.03-.696-.075-1.047-.072z" fill="#f39c72"/><path d="M22.561 12.508c-.926-.05-1.832.11-2.736.28-.067.012-.14.025-.177.093-.003.005.046.038.07.057l-1.366.003c.004-.01.009-.032.012-.031.563.028 1.041-.317 1.587-.36.593-.062 1.188-.093 1.783-.087.275.004.555-.032.827.045z" fill="#ece1cd"/><path d="M13.786 16.37c-.063-.105-.192-.12-.271-.202a.193.193 0 0 1 .095-.181c.547-.348 1.114-.66 1.715-.903.287-.116.561.008.827.112.18.07.354.159.53.242.26.126.31.333.15.574-.104.157 0 .273.11.368.376.332.788.6 1.266.773.429.154.862.278 1.311.349-.045.18-.192.14-.312.13-.35-.028-.682-.142-1.017-.242-.57-.171-1.136-.357-1.724-.456-.038-.006-.076-.02-.145.009.253.137.51.21.758.303.09.033.233.03.215.193-.065.054-.132.03-.202.012-.468-.122-.936-.251-1.412-.335-.293-.05-.578-.14-.875-.161-.36-.16-.684-.383-1.02-.585z" fill="#aad0ab"/><path d="M14.805 16.954c.088-.068.187-.045.28-.026.695.147 1.395.275 2.078.48.042.012.09.009.134.013.05-.019.1-.028.152-.013.61.172 1.22.345 1.809.582.018.008.034.02.05.03.289.19.621.29.926.446.786.404 1.57.806 2.3 1.307.128.088.292.155.312.345-.03.045-.078.062-.127.075-.117.011-.212-.046-.31-.096-.388-.202-.796-.364-1.191-.55a.365.365 0 0 0-.149-.04c-.25-.078-.466-.227-.7-.337-.348-.163-.7-.311-1.06-.438-.134-.047-.276-.084-.374-.2-.215-.364-.544-.563-.937-.704a15.296 15.296 0 0 0-2.597-.678c-.18-.03-.346-.103-.519-.156l-.077-.04z" fill="#c3cbb9"/><path d="M14.881 16.994c.39.017.764.125 1.143.197.79.15 1.551.393 2.3.68.322.124.504.358.653.64-.035.055-.091.057-.147.059-.501-.11-.984-.288-1.48-.419-.245-.064-.496-.106-.736-.187-.135-.046-.27.044-.402-.02-.336-.165-.651-.368-.978-.552-.044-.025-.093-.053-.08-.119 0-.181-.189-.179-.273-.279z" fill="#d4d8cb"/><path d="M15.155 17.273c.35.205.702.409 1.053.613.79.33 1.493.818 2.244 1.218.042.049.03.09-.014.13-.123.049-.214-.034-.305-.085a346.075 346.075 0 0 1-3.805-2.176 7.103 7.103 0 0 0-.755-.393c-.166-.1-.328-.056-.473.038-.357.23-.653.52-.818.923a.778.778 0 0 1-.073.137c-.185.272-.228.581-.247.9-.006.102.082.103.125.153a.147.147 0 0 1 .03.052c0 .265-.18.448-.309.651-.056.089-.073.236-.23.23-.182-.122-.212-.305-.22-.506-.012-.361.07-.7.207-1.03.055-.19.238-.31.273-.508-.033-.055-.004-.103.027-.142.314-.39.61-.797.982-1.137.187-.125.384-.113.586-.042l1.721.974z" fill="#f4a189"/><path d="M13.432 16.3c-.186.074-.406-.034-.58.106-.056-.108-.001-.278-.177-.321-.148-.173-.336-.3-.517-.434-.057-.042-.151-.066-.127-.172.326.124.601.344.911.497.035.017.07.031.105.047.106.124.294.132.385.276z" fill="#fac3bc"/><path d="M12.031 15.48c.125.11.265.196.406.285.111.07.225.151.26.294.013.074-.033.123-.076.17a7.7 7.7 0 0 0-.716.923c-.035.054-.072.11-.146.118-.103.068-.126.192-.2.281-.038.046-.068.094-.141.073-.072-.02-.084-.072-.083-.134.018-.634-.07-1.266-.039-1.9.11.008.09.095.09.16.001.156.026.31.02.466a.57.57 0 0 0 .014.174c.066.243.18.282.372.123.146-.12.26-.273.375-.42.092-.119.062-.245-.095-.391-.093-.087-.193-.175-.326-.204a.613.613 0 0 1-.217-.13c-.052-.094-.142-.132-.236-.166v-.158l.738.435z" fill="#f8a189"/><path d="M11.293 15.202c.132-.063.203.017.268.113-.144.064-.172.17-.124.312.021.06.029.127.05.188.084.244.185.267.368.083.085-.086.104-.172.011-.27-.05-.052-.132-.093-.103-.19.207.061.36.2.489.364.081.104.081.23-.007.323-.17.177-.3.388-.51.531-.132.091-.212.06-.294-.048a.585.585 0 0 1-.11-.344c-.01-.225.033-.453-.034-.675l-.004-.387z" fill="#f3746c"/><path d="M11.759 17.27c.257-.448.571-.85.938-1.211.235.044.248.072.155.347-.352.393-.688.8-1.015 1.213-.055.016-.102.109-.167.027-.048-.06-.019-.121.02-.178a.314.314 0 0 0 .069-.199z" fill="#f497b2"/><path d="M11.564 18.127c.008.11-.033.213-.054.319-.077.404-.184.818.095 1.196.043.027.053.07.058.116.047.132-.048.256-.025.387-.02.221-.117.426-.132.648 0 .02-.003.04-.007.061-.05.132-.045.279-.103.41l-.025.017c-.148-.163-.054-.36-.08-.542.001-.582.01-1.164-.002-1.746-.006-.325.11-.6.275-.866z" fill="#ebbaa4"/><path d="m26.735 23.972-1.004-.681-.317-.22c-.006-.071-.056-.109-.107-.15-.304-.25-.62-.486-.924-.737-.094-.077-.193-.152-.234-.276-.01-.05-.025-.1.017-.143.088-.066.177-.027.266-.002a.23.23 0 0 1 .114.072c.22.275.504.485.752.732.295.268.584.542.928.749.06.036.126.065.195.084.202.055.354.026.338-.214a.167.167 0 0 1 .053-.14c.18-.076.386-.054.559-.155.06-.009.12-.02.166.036.03.067.008.13-.027.185-.115.18-.16.378-.153.59-.07.138-.206.163-.338.177a.572.572 0 0 0-.284.093z" fill="#b4826e"/><path d="m28.612 22.753-.002.826c-.09.018-.09.101-.113.164-.105.284-.205.57-.312.852-.054.142-.137.25-.316.195l-.236-.194c.008-.04.038-.065.065-.093.148-.155.158-.254.041-.425-.04-.058-.088-.112-.094-.187.033-.183.2-.278.287-.427.038-.066.089-.125.12-.197.088-.127.186-.247.275-.374.065-.093.139-.199.285-.14z" fill="#bb6028"/><path d="M24.2 21.907c.278.312.634.532.95.799.099.084.201.163.305.24.116.087.002.093-.04.126l-.12-.031c-.098-.003-.162-.073-.236-.123-.265-.187-.548-.343-.817-.52-.041-.027-.08-.071-.113.015-.017.044-.07.059-.115.062-.264.022-.495.141-.733.242-.247.09-.499.105-.756.056-.014-.183.132-.178.245-.197.173-.028.342-.06.465-.201a.946.946 0 0 1 .312-.148c.09-.02.178-.033.185-.157.001-.035.051-.045.116-.034-.1-.025-.175-.04-.227-.105-.174-.233-.437-.352-.666-.514-.08-.057-.194-.089-.155-.227.057-.036.116-.024.164.008.399.26.834.455 1.236.71z" fill="#d67562"/><path d="M25.104 22.877c.071.045.157.075.192.164.1.121.263.174.381.346h-.266c-.285-.043-.575-.014-.86-.07a.383.383 0 0 1-.23-.126c-.042-.133.054-.198.135-.27.02-.015.045-.022.067-.035.193-.105.385-.15.58-.01z" fill="#e7353f"/><path d="M27.676 23.89c.072.111.201.184.224.326.03.181-.063.308-.267.38a2.986 2.986 0 0 1-.508-.351c.054-.216.263-.258.413-.368.048-.018.095-.029.138.013z" fill="#be7b2f"/><path d="m27.556 23.929-.432.315a1.633 1.633 0 0 1-.389-.272c-.032-.118.016-.17.134-.158a.708.708 0 0 0 .454-.115c.075-.049.145-.032.213.019.055.066.07.135.02.21z" fill="#b67e53"/><path d="m27.593 21.98.12.002c.035.084-.02.142-.074.182a4.623 4.623 0 0 0-.651.606.926.926 0 0 1-.637-.052.572.572 0 0 1-.269-.164c-.023-.038-.036-.076-.01-.119a.258.258 0 0 1 .173-.074c.223-.023.413-.127.603-.234.177-.074.367-.109.549-.168.066-.023.137-.042.196.022z" fill="#85b370"/><path d="M28.612 22.754a.392.392 0 0 0-.247.204c-.066.136-.179.234-.264.354-.082.045-.143.17-.262.066-.083-.161-.055-.328-.026-.495.184-.299.43-.544.69-.776a.104.104 0 0 1 .11-.016l-.001.663z" fill="#e04741"/><path d="M27.01 22.72c.073-.256.297-.376.485-.526.08-.065.162-.125.218-.213.186-.202.44-.308.656-.466.08.076.033.156.001.23a.977.977 0 0 1-.23.331c-.248.233-.474.491-.749.695-.133.023-.273.101-.382-.051z" fill="#97a747"/><path d="M27.398 22.719c.171-.213.378-.39.575-.577.185-.175.355-.36.396-.627l.237-.292v.453c-.23.474-.563.865-.956 1.21-.024.022-.048.043-.08.053a.095.095 0 0 1-.055-.008l-.12-.006c-.064-.07-.05-.139.003-.206z" fill="#c29230"/><path d="M27.562 22.91c.14-.194.33-.34.485-.522a3.9 3.9 0 0 0 .44-.628c.027-.048.06-.085.12-.083l.006.413c-.283.215-.462.533-.74.752-.085.11-.181.166-.31.068z" fill="#df742d"/><path d="m28.655 20.502-.003.271-.017.167c-.022.353-.343.432-.564.596-.1.075-.212.14-.319.21-.05.027-.088.085-.157.05-.057-.082.01-.148.03-.22.125-.195.338-.276.518-.402.13-.09.3-.142.336-.329.064-.128.05-.27.066-.406-.016-.122-.04-.244.038-.356.018-.02.038-.023.061-.01l.011.429z" fill="#a08a73"/><path d="m27.594 21.788.159-.04-.16.233c-.247.057-.48.17-.735.196-.083-.007-.131-.051-.14-.135a.09.09 0 0 1 .029-.054c.217-.103.452-.152.68-.223.056-.017.116-.016.167.023z" fill="#86a485"/><path d="M11.368 24.049c-.01-.197.012-.392.042-.587.03-.458.011-.918.016-1.377.004-.277-.047-.559.01-.83.078-.38.171-.576.594-.626a.428.428 0 0 1 .223.046c.254.106.487.25.642.483.08.122.174.22.295.3.354.236.552.574.624.99.044.251-.113.687-.288.792-.134-.104-.087-.249-.071-.376a1.24 1.24 0 0 0-.09-.7c-.066-.145-.135-.277-.266-.372a.893.893 0 0 1-.224-.24c-.16-.245-.395-.363-.677-.403-.058.012-.116-.004-.174-.003-.239.002-.352.118-.375.352-.042.414.015.827.008 1.24-.006.394-.01.79-.033 1.183-.008.139.003.272.03.405.093.45.277.525.75.577.177.019.233-.045.237-.23a.876.876 0 0 1 .119-.407c.094-.172.25-.2.398-.064.045.041.09.073.144.095.139.015.08-.102.108-.161.03-.065.017-.198.15-.09.058.158.02.32 0 .475-.018.13-.13.183-.267.141a.473.473 0 0 1-.192-.127c-.08-.075-.136-.052-.18.038-.047.096-.049.198-.05.302-.011.452-.249.618-.679.455-.22-.083-.451-.15-.63-.324a.57.57 0 0 1-.158-.36 4.158 4.158 0 0 1-.036-.597Z" fill="#64c1ad"/><path d="M13.517 23.23c.456-.68.216-1.326-.45-1.76a.542.542 0 0 1-.194-.204c-.164-.298-.448-.466-.753-.57-.262-.091-.593.189-.624.539a11.806 11.806 0 0 0-.032 1.795.96.96 0 0 1-.054.433c-.02-.275-.012-.55-.007-.825.009-.451-.02-.904-.032-1.356.047-.068-.013-.16.052-.223.186-.56.79-.743 1.267-.385.212.16.442.295.627.488.428.37.516.89.61 1.404.053.287-.108.54-.181.804-.053.188-.079.362-.009.545.039.23-.026.453-.047.68-.019.048-.055.087-.07.138-.035.125-.12.174-.234.121-.105-.048-.188-.125-.105-.259.15.07.222.001.231-.144.01-.146.002-.294.003-.442-.119-.17-.117-.613.002-.779z" fill="#7cc6b5"/><path d="M13.28 24.595c.002.045.006.091.038.127.043.049.084.103.159.1.083-.005.068-.08.092-.13.016-.034.04-.065.06-.097.1.05.096.145.1.235.007.156-.014.31-.013.465 0 .075-.012.149-.093.175-.083.026-.133-.026-.171-.093a.411.411 0 0 0-.095-.122c-.078-.089-.104-.207-.168-.303-.067-.1-.125-.075-.165.02-.03.072-.026.152-.026.23a.835.835 0 0 1-.027.249c-.068.227-.185.288-.405.206-.048-.018-.1-.02-.144-.05l-.895-.513c-.19-.327-.229-.678-.158-1.045.103.19.027.403.074.604.045.193.133.335.314.413.164.072.33.145.5.205.364.13.584-.037.541-.419a.609.609 0 0 1 .077-.37c.075-.14.163-.152.265-.02.04.05.093.088.14.133z" fill="#9ccca7"/><path d="m24.474 22.954-.153.237c-.364.124-.692.313-1.012.52-.14.09-.286.17-.43.255a.836.836 0 0 1-.277-.654c.066-.324.12-.377.453-.424.22-.03.426-.11.635-.18.18-.06.36-.05.537-.004.121.032.252.081.247.25z" fill="#d2582c"/><path d="M22.837 24.016c-.012.05-.02.102-.034.151-.06.2-.014.276.188.31.057.009.129-.001.138.076.008.07-.037.123-.097.156-.263.14-.525.28-.79.416-.218.114-.446.213-.575.443-.042.199-.295.358-.515.324-.09-.136.01-.246.055-.36a.902.902 0 0 1 .224-.336c.38-.284.731-.6 1.048-.954.116-.081.171-.257.358-.226z" fill="#ea2838"/><path d="m22.837 24.016-.314.265c-.095.043-.153.139-.25.18-.07.031-.14.074-.22.03-.04-.038-.048-.089-.055-.14-.02-.157-.033-.314-.13-.453-.05-.07-.034-.16-.01-.241.02-.049.06-.08.094-.116.117-.078.25-.13.34-.247a.702.702 0 0 0 .136-.314c.015-.078.014-.17.1-.22a.55.55 0 0 1 .334-.034c.146.035.273-.03.402-.08.015.19-.132.22-.261.247-.305.065-.368.146-.324.45-.065.13.046.216.082.32.037.101.079.202.118.303l-.042.05z" fill="#c75f4d"/><path d="M21.163 25.884c.194-.065.36-.174.504-.317.066.019.127-.114.182-.023.049.08-.022.151-.08.216-.175.202-.367.391-.492.632.009.01.02.022.018.032-.024.163-.269.387-.422.386-.055-.159.042-.286.092-.421.034-.092.07-.18.054-.28.013-.097.028-.194.144-.225z" fill="#c43a3c"/><path d="M20.887 26.815c.142-.13.275-.267.389-.422.218.008.056.121.053.19l-.563.856c-.072.092-.106.208-.182.298-.028.034-.063.076-.113.057-.059-.023-.06-.079-.049-.133.028-.134.092-.256.121-.389.075-.182.163-.355.344-.457z" fill="#db2063"/><path d="M19.953 28.451c.003-.586-.023-1.174.036-1.76.01-.093.039-.171.12-.23.121-.086.236-.18.352-.271.076 0 .082.057.094.11.015.168-.077.31-.12.463-.015.056-.038.109-.036.168-.02.114-.071.217-.128.317-.13.206-.185.435-.2.673-.007.117-.006.233-.078.333-.01.067.012.14-.04.198z" fill="#e07e57"/><path d="M19.993 28.255c-.026-.372.012-.73.23-1.047.138.123.077.315.159.458.018.109-.007.195-.12.238-.12.094-.105.29-.269.35z" fill="#d66136"/><path d="M20.262 27.904c.007-.084.096-.138.084-.23.02-.173.053-.337.258-.387l-.155.478c.19-.06.181-.262.318-.326-.046.235-.24.395-.311.617-.215.141-.135-.094-.194-.152z" fill="#df2c4c"/><path d="M14.763 25.258c-.006.22.132.384.233.56.1.172.171.356.253.534.176.382.303.8.612 1.11.037.038.072.084.126.086.381.014.574.285.766.557-.257-.148-.517-.29-.769-.445-.445-.273-.9-.53-1.359-.78-.05-.027-.107-.048-.139-.101.024-.147-.025-.27-.09-.404-.206-.427-.382-.866-.364-1.355v-.097c.015-.205.097-.356.212-.356.175 0 .262.134.324.27.065.14.11.29.195.42z" fill="#f8ac88"/><path d="M14.763 25.258a.47.47 0 0 1-.202-.275.734.734 0 0 0-.198-.305c-.111-.11-.17-.074-.222.055-.082.207-.06.435-.02.626.081.385.188.774.423 1.109.08.115.073.227-.058.31a8.112 8.112 0 0 1-.82-.469c.04-.078.146-.044.192-.112.088-.09.053-.196.03-.294a5.683 5.683 0 0 1-.16-1.227 1.692 1.692 0 0 1 .144-.698c.088-.203.285-.241.415-.075.182.235.292.512.381.795.015.044.02.09-.021.125.018.151.12.279.116.434z" fill="#e5c3a2"/><path d="M13.904 26.27c-.071.063-.159.029-.238.04-.406-.251-.848-.437-1.244-.704.032.002.068-.006.095.006.296.127.402-.046.407-.36.004-.148-.014-.294.082-.424.068-.09.124-.095.197-.003.094.119.126.267.197.395.198.336.283.726.504 1.05z" fill="#d7ce97"/><path d="M17.958 28.768c-.158-.009-.258-.128-.383-.2-.109-.143-.269-.219-.414-.314-.247-.162-.416-.4-.607-.617-.09-.102-.173-.21-.291-.279a1.597 1.597 0 0 1-.642-.754c-.117-.272-.257-.532-.373-.804-.08-.188-.191-.364-.288-.545-.163-.226-.27-.483-.372-.737a12.816 12.816 0 0 0-.384-.839c-.044-.09-.105-.182-.041-.29.103-.051.158.017.203.09.088.142.162.292.232.446.148.32.303.637.484.94.186.34.361.686.493 1.051.018.05.032.1.062.142.29.387.507.828.86 1.172.152.148.244.349.389.507.216.236.493.399.726.613.015.01.029.022.041.035a.749.749 0 0 0 .224.192c.052.052.125.097.08.191z" fill="#afbba0"/><path d="M14.18 23.386c-.007.097.051.171.087.254l.692 1.614c-.178-.09-.17-.313-.312-.43a2.892 2.892 0 0 0-.384-.844c-.044-.067-.088-.134-.181-.121-.089.012-.133.082-.157.157-.088.285-.132.57-.117.875.02.385.116.753.183 1.127.02.109.012.192-.087.252-.066-.011-.132-.032-.159-.097-.13-.312-.288-.614-.345-.953.107.033.088.237.203.201.128-.04.01-.18.031-.276.04-.18.038-.368-.004-.551l.04-.705c.013-.216 0-.44.165-.615.06-.064.133-.108.224-.075.084.03.146.082.12.187z" fill="#c1c9a9"/><path d="m17.957 28.768-.113-.156c-.085-.058-.144-.147-.236-.197-.021-.034-.034-.07-.016-.11.087-.083.165-.02.221.034.362.35.848.433 1.29.608.142.055.213.005.225-.142.018-.23.08-.46-.048-.685-.048-.084-.017-.19-.01-.288.025-.356.11-.7.191-1.045.03-.128-.043-.195-.104-.275-.05-.067-.12-.127-.044-.219.051-.062-.008-.093-.04-.129-.3-.343-.63-.64-1.04-.86-.457-.245-.917-.481-1.377-.717-.253-.129-.437-.343-.65-.521-.191-.16-.351-.365-.61-.434a.085.085 0 0 1-.063-.088c.063-.072.14-.13.198-.207.203.006.337.147.488.252.148.104.27.242.408.36.287.247.63.383.967.532.101.045.203.085.293.15.327.235.702.39 1.024.631a.35.35 0 0 0 .125.055c.312.079.454.31.551.593.054.156.166.292.176.465.066.262.075.534.144.795v2.726c-.59-.335-1.158-.656-1.724-.98-.079-.044-.169-.071-.226-.148z" fill="#61bba0"/><path d="M19.943 24.942c-.07.253-.015.511-.03.766-.005.084-.003.168-.004.252-.137.022-.175-.086-.186-.176-.043-.343-.237-.578-.51-.764-.173-.12-.368-.215-.486-.404-.027-.043-.087-.064-.134-.074-.38-.073-.658-.332-.977-.517-.318-.184-.639-.36-.913-.61-.074-.067-.188-.083-.281-.128a1.525 1.525 0 0 1-.416-.281c-.12-.117-.296-.122-.425-.224-.076-.06-.175-.099-.225-.181-.17-.285-.476-.365-.746-.493-.13-.062-.267-.111-.366-.213-.242-.249-.515-.476-.638-.82-.025-.128-.159-.23-.1-.38.038-.026.075-.015.112.002a.896.896 0 0 1 .3.35c.155.311.429.48.717.63.288.149.554.327.824.506.416.276.798.599 1.25.83.37.19.739.402 1.078.653a1.2 1.2 0 0 0 .34.185c.38.123.682.359.979.613.165.142.38.216.544.368.108.1.153-.006.174-.106a.122.122 0 0 1 .062-.07c.037-.01.069-.003.094.027.052.095.059.184-.037.26z" fill="#b4ae91"/><path d="M19.248 24.983c.285.176.487.407.523.757.01.09.05.173.139.22l-.002.621c-.104.016-.131-.056-.147-.133-.017-.087-.023-.175-.06-.257-.012-.059-.049-.11-.045-.173.018-.093-.002-.186.002-.279-.02-.197-.105-.354-.284-.446-.115-.059-.182-.182-.313-.216a.219.219 0 0 1-.049-.026c-.429-.26-.876-.49-1.3-.759a.438.438 0 0 0-.161-.062c-.072-.024-.145-.043-.205-.09-.092-.107-.218-.153-.348-.191-.25-.122-.466-.291-.685-.463-.245-.192-.52-.351-.791-.512-.24-.142-.508-.212-.752-.342-.143-.076-.296-.067-.448-.024-.123-.048-.23-.108-.196-.27a1.32 1.32 0 0 1 1.244.294c.135.116.28.209.446.267.03.01.065.015.088.037.319.301.755.42 1.085.705.231.2.534.284.779.466.242.181.495.345.79.43.108.03.202.085.269.18.103.146.284.172.421.266z" fill="#9ab599"/><path d="m20.464 26.148-.005-.186c0-.163.118-.287.149-.44.144-.303.073-.538-.216-.7-.045-.026-.091-.05-.131-.083-.051-.053-.085-.112-.056-.189.145-.12.235-.279.328-.44.053-.09.096-.222.253-.175.06.088.026.178-.007.26-.08.198-.04.366.094.523a.912.912 0 0 1 .222.489c-.071.313-.29.548-.438.82-.039.072-.086.15-.193.121z" fill="#b08780"/><path d="M20.231 24.556c-.008.068.05.107.073.161.152.209.027.426.015.638-.002.05-.033.098-.04.15-.029.106-.068.206-.175.261-.132.09-.042.261-.161.397v-1.22a62.1 62.1 0 0 0 .005-.272c-.087-.116-.06-.242-.035-.368a.1.1 0 0 1 .082-.051c.084 0 .132.058.178.116a.284.284 0 0 1 .058.188z" fill="#ccadaf"/><path d="M20.104 25.765c-.002-.1.06-.17.12-.24.152-.153.28-.152.43.005a.634.634 0 0 1-.195.431c-.254.18-.288.16-.355-.196z" fill="#959e92"/><path d="M20.464 26.148c.108-.062.155-.175.214-.273.128-.216.246-.438.368-.658.06-.052.116-.037.168.015.057.09.018.173-.027.252-.146.257-.34.48-.497.73-.04.064-.097.123-.19.096-.002-.043-.005-.087-.04-.12l.004-.043z" fill="#bf7373"/><path d="M19.717 26.19c.075.04.076.11.08.18.004.086.035.16.11.21v.588c-.038-.01-.08-.018-.086-.065l-.105-.717c-.036-.065-.03-.13.001-.196z" fill="#8eb79c"/><path d="M28.658 18.045v.195l-.01.858-.01.163c-.02.163-.001.327-.011.49-.003.203-.145.255-.308.284-.087-.004-.178.04-.26-.02a.15.15 0 0 1-.045-.116c.027-.174.17-.248.295-.336.101-.072.203-.14.199-.286a.428.428 0 0 1 .003-.151c.02-.092.05-.183.04-.28.007-.08-.016-.157-.018-.237.05-.23-.024-.459-.008-.689.014-.33-.005-.66.004-.99.002-.096-.015-.197.059-.278.021-.019.037-.175.064-.163" fill="#9fa79f"/><path d="M28.61 19.767c.011-.168-.017-.339.027-.505l.013.225-.005.587-.03-.002c-.044-.027-.054-.068-.047-.116.035-.058.003-.132.043-.189z" fill="#929763"/><path d="M25.367 13.444c-.31-.142-.649-.17-.977-.224-.478-.08-.957-.162-1.444-.166-.036 0-.072-.022-.108-.034.296-.092.593-.006.887.01.472.026.942.077 1.405.177.044.01.1.02.13-.018.043-.055-.034-.09-.04-.138.178.07.332.185.498.279.121.144.1.177-.146.23-.085-.01-.183.005-.205-.116z" fill="#d6ad7f"/><path d="M26.424 13.762c-.23.021-.606-.129-.818-.195-.029-.008-.047-.043-.037-.08.085-.018.253.042.148-.157" fill="#c08854"/><path d="M28.651 15.358v1.13c-.003.05-.005.099-.009.147a1.051 1.051 0 0 0-.025.01c-.079-.046-.086-.123-.088-.202a54.263 54.263 0 0 1 0-1.237c0-.072.008-.142.068-.195.038-.055.044.021.055.269l-.001.079z" fill="#cee5f1"/><path d="M26.852 13.994c.134.129.312.184.47.272l.433.224.505.278.057.068c-.091.056-.175.015-.26-.019a31.593 31.593 0 0 0-3.11-1.065c-.342-.1-.7-.122-1.03-.261-.037-.027-.073-.052-.076-.103.048-.1.14-.084.22-.074.592.08 1.179.19 1.763.318.2.044.392.13.601.131" fill="#ed5929"/><path d="M27.54 14.378c-.181-.048-.713-.253-.806-.452z" fill="#c85d28"/><path d="m19.6 17.462-.042-.043a3.587 3.587 0 0 1-.547-.712c-.054-.092-.103-.194-.055-.31.27-.212.555-.171.837-.041.206.094.391.228.563.376.456.39.948.739 1.362 1.177.036.039.087.055.134.076.309.247.625.483.977.668.068.035.16.075.119.188-.08.055-.148.009-.219-.022-.48-.21-.937-.463-1.389-.726a1.803 1.803 0 0 0-.997-.264c-.285-.047-.557-.12-.744-.366z" fill="#aad4d3"/><path d="M19.6 17.463c.246.107.47.266.743.309.031.023.064.044.042.09-.02.017.01 0-.012.016-.271.192-.271.192.026.381.157.1.324.185.48.286.063.04.165.07.117.186-.031.028-.07.032-.11.036-.291-.09-.553-.243-.828-.368-.253-.115-.514-.207-.77-.315-.529-.223-1.082-.374-1.63-.539a4.073 4.073 0 0 1-.361-.124l-.972-.383a.433.433 0 0 1-.117-.067c-.022-.019-.047-.054-.045-.08.004-.045.052-.05.09-.053.164-.01.322.03.48.064.678.145 1.332.38 1.999.565.182.05.368.068.552.104.084.017.165-.016.235-.07l.08-.038z" fill="#98d2b5"/><path d="M18.977 16.408c.046.282.237.482.403.694.076.097.139.2.179.318-.65-.282-1.303-.557-1.9-.944-.235-.153-.23-.204-.054-.426.04-.05.083-.099.124-.148.277.02.539.003.7-.272.163-.015.296.056.422.146.09.201.147.409.126.632z" fill="#c2cfbe"/><path d="M18.82 15.785a.71.71 0 0 1-.391-.155l-.116-.274.311-.273c.057-.079.143-.08.226-.079.149.003.288-.063.436-.062.218.03.378.146.506.321.186.255.432.462.598.735.044.074.088.147.021.231-.11.041-.188-.026-.264-.083-.338-.249-.71-.363-1.13-.304-.073.01-.143 0-.197-.057z" fill="#c6c4c7"/><path d="M19.328 15.005c-.232.05-.464.102-.704.078-.168-.228-.141-.506-.19-.763-.028-.145-.029-.295-.042-.443a.57.57 0 0 1 .432.136c.176.138.368.232.606.216.262-.018.442.12.558.347-.082.27-.331.318-.546.412-.035.015-.077.003-.114.017z" fill="#dfb8c3"/><path d="m23.858 13.4.077.047c.06.088.163.068.247.095.085.026.173.045.262.06.077.014.147.045.223.061.06.014.12.045.119.109-.001.075-.075.075-.132.083-.168-.02-.333-.059-.502-.072-.275-.09-.565-.068-.845-.113-.133-.06-.276-.02-.413-.04-.124-.057-.254-.03-.382-.02-.093.007-.147.07-.185.152-.037.076-.075.152-.163.184a2.385 2.385 0 0 1-.835-.138c-.148-.264-.416-.222-.649-.23-.15-.005-.307.018-.46.039-.092.006-.114.051-.098.142.033.178.098.347.13.524.016.087.058.177-.029.252-.21-.304-.281-.647-.276-1.01.577-.118 1.163-.071 1.745-.082.285-.006.569-.015.853-.029.052-.002.14.018.152-.052.018-.099-.09-.061-.138-.093-.031-.021-.07-.032-.106-.047l-.102-.093.76.117c.22-.021.427.064.644.072.046.003.074.046.103.082z" fill="#f59c97"/><path d="M19.328 15.005c.213-.154.484-.217.66-.429.2.196.312.459.503.66.083-.006.094.056.107.115-.02.133.043.267.003.399-.04.133-.069.283-.262.268-.206-.24-.424-.47-.614-.722a.767.767 0 0 0-.397-.291z" fill="#d3b4b7"/><path d="M20.223 14.535c-.057-.267-.11-.535-.173-.801-.028-.123.013-.184.132-.203.048.247.187.455.293.678.024.153.058.305.113.45.028.074.052.15.004.224-.102.067-.155-.01-.213-.073-.077-.077-.104-.183-.156-.275z" fill="#f17d90"/><path d="m20.38 14.81.193.076c.126-.013.152.1.211.17.075.145.177.27.263.407.046.07.097.14.058.233-.048.072-.12.075-.195.066-.215-.05-.293-.226-.374-.401 0-.047-.002-.093-.045-.125.007-.153-.118-.272-.111-.426z" fill="#d0779a"/><path d="m23.858 13.4-.747-.154c.063-.046.137-.036.206-.03.596.05 1.197.06 1.782.201a.893.893 0 0 0 .268.028c.058.057.133.036.202.043l.703.197.153.077c-.211.111-.405-.028-.596-.065-.563-.106-1.123-.227-1.689-.314-.095-.016-.192-.04-.282.016z" fill="#f2744f"/><path d="M16.053 16.765c-.608-.112-1.216-.21-1.763-.518-.123-.07-.15-.174-.063-.293.319-.432 1.163-.631 1.622-.388.117.062.195.142.216.278.04.25.11.49.196.729.07.194-.115.15-.208.192z" fill="#8bcda4"/><path d="M19.288 18.084c.336.074.645.22.959.353l.64.271c.336.087.624.281.928.433.396.197.81.343 1.222.495.473.175.943.355 1.42.516.36.122.73.206 1.1.288.058.013.11.036.167.051.083.074.197.123.21.255-.02.06-.068.071-.122.073-.626-.168-1.236-.39-1.853-.585-.162-.052-.323-.126-.529-.114.102.138.225.21.341.287.152.1.313.185.466.283.06.04.148.067.123.172-.15.09-.257-.075-.393-.068-.372-.156-.702-.388-1.056-.577a.128.128 0 0 1-.072-.108c-.533-.474-1.167-.79-1.78-1.138a12.904 12.904 0 0 0-1.658-.813c-.041-.016-.076-.049-.113-.074Z" fill="#b6d6c8"/><path d="m18.82 18.515.157-.003c.482.22.998.357 1.467.612.21.115.425.217.639.324.2.091.353.24.485.41.045.058.116.116.048.204-.056.039-.12.025-.18.029-.222-.058-.422-.167-.625-.268-.677-.335-1.386-.585-2.105-.811-.08-.025-.167-.036-.214-.12-.014-.115.077-.15.153-.153.16-.007.197-.087.175-.224z" fill="#e1bfa5"/><path d="m21.63 20.032-.548-.584c.372.097.707.282 1.056.431.196.084.373.208.579.27.053.005.1.026.14.061.307.265.64.497.952.758.047.06.096.119.13.189.014.056.043.112-.002.168-.077.038-.139-.003-.199-.04a29.329 29.329 0 0 0-1.95-1.096c-.069-.035-.146-.064-.157-.157z" fill="#bab4a0"/><path d="M23.772 21.007c-.364-.27-.745-.52-1.055-.857.032-.036.076-.039.12-.04l1.13.625c.116.095.306.09.365.265-.09.055.002.165-.069.226-.214.04-.339-.12-.49-.22z" fill="#90c2b5"/><path d="M18.82 18.515c.023.03.046.063.073.09.111.114.034.161-.071.176-.11.015-.22.009-.313.082-.063.08-.148.056-.234.05.055.076.187.096.158.226-.28-.09-.517-.265-.77-.405-.471-.26-.939-.524-1.406-.789-.021-.011-.034-.038-.05-.058.862-.008 1.634.379 2.453.557.055.013.106.047.16.071z" fill="#f4cbb3"/><path d="M12.075 18.746c-.228-.002-.226-.001-.173-.223a.447.447 0 0 0 .012-.173c-.036-.227.07-.42.17-.6.139-.251.254-.52.46-.733.19-.196.382-.38.63-.504a.418.418 0 0 1 .421.01c-.02.04-.056.053-.097.057a.513.513 0 0 0-.373.134c-.157.127-.298.27-.443.408-.235.225-.295.524-.362.822-.028.121.01.174.138.15a.274.274 0 0 1 .172.016c.16.099.245.288.431.356.232.087.463.176.618.386.04.068.072.14.087.218-.002.15.135.284.05.442-.059.06-.116.023-.151-.02-.082-.1-.193-.117-.307-.148a.794.794 0 0 1-.41-.249c-.106-.124-.231-.227-.353-.334-.124-.108-.246-.173-.394-.038-.033.028-.077.051-.126.023z" fill="#ea856c"/><path d="M18.433 19.139c-.067-.091-.169-.135-.262-.191-.028-.016-.065-.032-.058-.068.008-.046.052-.053.09-.052.104.003.2.053.306.035.477.155.953.314 1.423.493.514.196 1.002.445 1.499.678.168.046.318.134.468.217.07.038.158.075.113.186-.095.05-.175-.009-.258-.04-.4-.15-.795-.315-1.215-.402-.298-.05-.545-.233-.832-.315-.142-.04-.278-.105-.402-.144.186.116.389.24.593.362.05.03.1.062.11.128a.249.249 0 0 1-.12.185c-.172.042-.24-.103-.32-.198a1.034 1.034 0 0 0-.566-.334.174.174 0 0 1-.089-.063c-.053-.156-.22-.157-.327-.238-.06-.045-.168-.046-.156-.161.008-.026.029-.05.004-.078z" fill="#f4aa8d"/><path d="M11.606 19.762v-.12c.161-.282.366-.54.468-.854.159-.118.307-.096.464.015.122.086.246.166.35.275.077.08.162.16.265.196a.72.72 0 0 1 .494.552c.036.123.174.227.072.375-.089.067-.18.006-.27.006-.315-.11-.565-.321-.795-.545-.16-.155-.357-.176-.543-.23-.129-.038-.199.118-.28.206-.061.065-.093.184-.225.124z" fill="#db9b84"/><path d="M13.594 19.838c-.101-.155-.111-.381-.337-.439-.15-.038-.264-.133-.38-.224-.111-.086-.204-.19-.32-.275a.59.59 0 0 0-.482-.111v-.042c.045-.038.092-.072.131-.115.098-.105.212-.105.313-.026.156.123.319.248.444.4.104.128.232.237.372.255a.652.652 0 0 1 .454.265c.006.002.016.001.018.005.188.291.335.598.353.951-.128.066-.152-.056-.201-.118-.132-.168-.201-.38-.365-.526z" fill="#dd9170"/><path d="M18.43 19.217c.133.105.294.16.44.24.063.033.117.063.068.145-.096.084-.174.003-.246-.037-.4-.216-.788-.45-1.184-.67-.68-.377-1.339-.788-2.018-1.164-.362-.2-.706-.432-1.077-.618-.077-.04-.156-.056-.234-.083-.181-.161-.398-.265-.61-.375-.04-.037-.112-.05-.093-.129l.119-.002c.585.279 1.139.615 1.7.938.97.56 1.946 1.11 2.92 1.664.068.038.143.061.215.091z" fill="#f58860"/><path d="M11.762 15.438c.053.046.107.092.16.14.131.12.129.26-.006.377-.295.255-.415.216-.515-.172a3.78 3.78 0 0 1-.053-.246c-.045-.238-.027-.256.213-.222l.201.123z" fill="#f1604d"/><path d="m13.515 20.697.156.35c-.056.067-.132.06-.207.057-.315-.053-.542-.263-.773-.453-.228-.186-.5-.267-.762-.367-.128-.048-.237.032-.287.165-.025.066-.033.138-.055.205-.023.07-.03.158-.136.158-.014-.23.11-.436.117-.662.05-.097.06-.212.14-.296a.495.495 0 0 1 .588-.102c.292.155.576.323.81.562.069.071.156.114.238.164.083.052.169.104.171.219z" fill="#b4b5a4"/><path d="M13.515 20.696c-.419-.26-.757-.632-1.208-.851-.252-.123-.516-.067-.653.182-.024.046-.035.098-.086.123.013-.13.025-.26.039-.389.161-.048.179-.225.291-.323.123-.106.23-.14.362-.046.062.043.128.06.201.057.054-.002.11.004.143.048.222.29.539.458.835.653.17.093.25.238.249.43-.018.059-.028.123-.093.154a2.962 2.962 0 0 1-.08-.038z" fill="#cda995"/><path d="M11.45 20.812c.086-.107.073-.245.11-.367.066-.213.244-.3.453-.227.433.15.794.42 1.15.694.086.066.185.09.277.136.128.047.226.111.165.273-.146.069-.21-.092-.322-.117l-.646-.472c-.337-.25-1.034-.194-1.15.29-.005.022-.027.042-.04.063a.334.334 0 0 1 0-.233l.004-.04z" fill="#91bba6"/><path d="M11.447 20.852v.232c-.06.053-.012.146-.076.196a.92.92 0 0 1 .076-.428z" fill="#b5c8b6"/><path d="M20.54 19.918c.5.146 1 .293 1.479.506.062-.058.123-.022.178.007.635.333 1.27.665 1.818 1.138.068.059.146.112.147.216l.039.122c-.343-.065-.617-.278-.918-.432-.166-.085-.299-.227-.485-.274-.07.012-.128-.017-.183-.052a20.42 20.42 0 0 0-1.947-1.066c-.067-.033-.151-.06-.129-.165z" fill="#df8d83"/><path d="m23.926 21.319-.032-.156c.15-.048.235.076.337.139.376.234.697.54 1.054.8.193.14.407.228.625.309a.56.56 0 0 1 .198.117l.242.12c.048.099.23.131.144.295-.33.063-.652.037-.95-.13-.101-.055-.19-.132-.283-.203a6.753 6.753 0 0 1-.828-.785 2.356 2.356 0 0 1-.403-.329c-.048-.05-.106-.097-.104-.177z" fill="#8d9a8a"/><path d="M23.926 21.319c.178.16.379.297.507.506a.818.818 0 0 0-.271-.04c-.638-.575-1.38-.983-2.143-1.361-.17-.17-.42-.218-.589-.391h.2c.783.398 1.558.81 2.296 1.286z" fill="#c49b88"/><path d="M25.26 22.61c.084.005.138.067.201.108.138.088.28.14.45.14.197 0 .39.068.59.06.152-.04.254.018.315.158.003.039.003.077.008.116.03.23-.06.325-.29.31-.195-.015-.358-.113-.508-.222-.274-.2-.52-.436-.765-.67z" fill="#a58a81"/><path d="m27.562 22.91.31-.067-.006.545c-.022.21-.168.296-.35.347a.362.362 0 0 1-.193-.035c-.095-.208-.006-.388.09-.565.036-.067.091-.124.102-.204l.047-.021z" fill="#ca695c"/><path d="m26.816 23.076-.315-.158c-.05-.09-.147-.153-.151-.269.213.088.436.078.66.071.13.053.258-.012.388 0l-.003.205c-.159.18-.375.141-.58.151z" fill="#ab9f6c"/><path d="M27.517 23.734c.102-.13.261-.202.35-.346l.233-.076c-.105.219-.268.397-.424.578l-.12.04-.039-.196z" fill="#c06042"/><path d="M20.539 19.919c.21.162.466.238.697.363.504.274 1.01.544 1.495.852.026.016.045.045.066.068.217.216.5.342.731.538.055.047.118.08.128.161-.069.046-.125-.006-.185-.024-.273-.151-.533-.326-.818-.457-.164-.068-.303-.183-.47-.246-.597-.364-1.24-.636-1.872-.927-.12-.055-.265-.078-.325-.223-.319-.156-.609-.36-.905-.551.04-.077.086-.042.126-.03.327.085.642.202.949.343.124.057.243.123.383.133z" fill="#ef7d64"/><path d="M22.68 23.343c-.094-.283-.017-.433.265-.501.13-.032.252-.068.32-.196.247-.106.488-.223.767-.244.163-.011-.001-.106.017-.196.37.207.719.427 1.055.67-.23-.133-.417.077-.63.078-.266-.295-.584-.245-.905-.126-.19.07-.378.126-.584.131-.214.006-.3.124-.306.384z" fill="#dd6d40"/><path d="M22.527 22.76c-.01.262-.057.504-.273.69-.085.073-.184.085-.273.13-.093.016-.177.016-.192-.106.013-.11.1-.157.177-.213.305-.182.34-.262.272-.612-.061-.315.043-.419.344-.34.12.032.245.016.36.064.104.045.23-.082.324.04a.59.59 0 0 1-.468.231c-.107.004-.207.015-.27.116z" fill="#cf646a"/><path d="m23.266 22.413-.35.037c-.034-.144.108-.201.15-.308a.42.42 0 0 1 .204-.137c.043-.014.088-.025.075-.09-.037-.177.086-.079.149-.084.069-.01.108.048.163.07.11.062.23.11.355.242l-.223-.082c-.045.075.096.099.039.164-.043.05-.11.041-.164.045-.149.009-.26.109-.398.143z" fill="#e77a78"/><path d="M26.735 22.062a.266.266 0 0 1 .123.115c-.222.21-.498.26-.788.271-.225.011-.394-.13-.581-.217a1.258 1.258 0 0 1-.282-.204c-.055-.048-.125-.105-.048-.191.082-.042.166-.02.246.002.397.105.79.229 1.21.17.048-.006.087.021.12.054z" fill="#5dbb9a"/><path d="M25.137 21.865c.272.257.579.457.933.583l.038.08c-.608-.12-1.06-.502-1.521-.878a4.56 4.56 0 0 0-.692-.487l-.122-.157c.177.045.323.169.507.197.018-.004.041-.012.057-.003.306.173.587.378.8.665z" fill="#79ab9e"/><path d="M28.526 20.895c-.052.178-.205.26-.347.344-.178.105-.355.21-.506.352-.203.207-.47.155-.718.177a.18.18 0 0 1-.104-.063c-.044-.102-.017-.22-.065-.321 0-.088.039-.156.103-.213a.188.188 0 0 1 .09-.025.596.596 0 0 1 .307.043c.172.13.348.116.525.011.16-.095.309-.214.482-.29.074-.031.15-.09.233-.015z" fill="#bc8292"/><path d="M28.526 20.895c-.248.07-.448.226-.66.362-.235.15-.414.143-.577-.015.005-.08.07-.102.126-.132.285-.15.56-.315.8-.536a.781.781 0 0 1 .246-.152c.057-.022.114-.03.148.039-.007.149.04.307-.083.434z" fill="#d66e80"/><path d="M28.609 20.46c-.168-.017-.277.098-.378.194-.275.262-.61.422-.943.587a.914.914 0 0 0-.313-.039.05.05 0 0 1-.014-.052c.02-.044.059-.065.103-.08.527-.178.939-.51 1.28-.941.067-.084.109-.216.262-.173l.008.116-.005.388z" fill="#e07e67"/><path d="M26.938 21.714c.245-.042.496-.049.735-.123l-.079.198c-.284.072-.55.208-.848.232-.084.038-.138 0-.183-.067-.016-.055.001-.103.038-.144.102-.066.222-.072.337-.096z" fill="#8e9e9f"/><path d="M26.577 21.942c.056.026.099.08.168.078l-.01.042c-.481.109-.934-.03-1.39-.155-.068-.019-.139-.028-.208-.041-.31-.19-.558-.46-.858-.663-.023-.073-.118-.1-.127-.186.054-.05.112.005.166-.01.14-.043.256.03.364.096.504.31 1.055.514 1.605.723.097.037.232-.018.29.116z" fill="#55bebc"/><path d="M13.282 24.36c-.123-.018-.162-.182-.312-.17-.064.006-.103 0-.131.07-.06.148-.138.28-.121.458.026.28-.227.31-.507.247-.629-.141-.647-.488-.651-1.042-.002-.202.005-.404.01-.607.006-.294.017-.59.018-.884 0-.207-.069-.41-.029-.623.027-.142.008-.292.021-.436.017-.177.225-.318.437-.305.058.004.116.012.173.019.156.078.172.21.102.344a.666.666 0 0 0-.064.375c.025.297-.024.593-.005.89.02.32.22.543.412.748.113.122.31.17.42.323.085.116.168.232.23.36.035.075.072.157-.003.233z" fill="#00b6a6"/><path d="M13.281 24.36c-.054-.31-.234-.621-.473-.72-.267-.11-.345-.326-.507-.488-.171-.171-.182-.433-.17-.659.01-.22.013-.44.018-.66.004-.158-.03-.314.095-.458.076-.087-.01-.196-.054-.288.32.018.579.142.749.426.039.066.088.134.15.174.196.125.285.31.376.518.098.223.085.434.065.658-.012.121-.01.244-.013.366l-.002.78c-.064.08-.022.176-.041.262-.025.104-.05.227-.193.09z" fill="#00b7b9"/><path d="M13.283 21.204c.127-.025.207.075.31.115.034 0 .067.009.088.034.238.287.401.61.46.981.02.116.11.172.195.233.096.028.197.05.198.182-.013.135-.168.244-.071.4a.39.39 0 0 1 .016.05c.052.124.067.261.147.374.154.348.36.674.444 1.052.022.097.084.2-.034.28-.183-.313-.366-.625-.51-.959-.09-.203-.168-.412-.347-.56-.163-.202-.227-.196-.358.028-.086.148-.062.33-.15.476a.687.687 0 0 1 .011-.54c.208-.491.203-.977.002-1.476-.101-.25-.2-.486-.401-.67z" fill="#96c6a9"/><path d="M20.5 26.31c.269-.326.541-.651.7-1.052a.098.098 0 0 1 .042-.076c.074-.04.15-.066.23-.016.015.018.016.036.003.054-.136.207-.272.413-.312.664l-.083.235c-.098.338-.355.555-.6.78-.036.033-.082.063-.138.03-.006-.22.117-.41.158-.618z" fill="#d2605e"/><path d="M21.475 25.22a2.01 2.01 0 0 1-.01-.046c-.038-.045-.041-.1-.01-.143.143-.205.297-.402.51-.541.027-.018.061-.02.093-.016l.465-.193c-.316.35-.633.699-1.048.939z" fill="#d2582c"/><path d="M22.059 24.474c-.182.156-.34.335-.497.515-.049.056-.091.11-.097.185-.073.025-.146.051-.225.043-.254-.294-.367-.633-.228-1.003.136-.36.444-.524.815-.576a.096.096 0 0 1 .072.024c-.008.126.042.224.108.334.08.136.079.313.052.478z" fill="#ba6e4e"/><path d="M21.899 23.662c-.151.056-.31.097-.451.172-.34.183-.536.544-.348 1.004.051.124.137.237.14.38l-.04.04a.276.276 0 0 0-.154-.04c-.07-.178-.13-.36-.271-.505-.154-.156-.147-.343-.069-.538.03-.076.043-.16.063-.241-.04-.095.028-.159.072-.224.116-.172.203-.37.407-.466.198.055.403.095.576.218.008.098.116.064.157.119a4.843 4.843 0 0 0-.082.081z" fill="#be7e67"/><path d="M20.342 26.929c.291-.229.521-.514.738-.81.01.251-.13.463-.192.695-.058.18-.235.288-.285.473-.125.103-.139.28-.257.387-.135-.13-.112-.303-.123-.467l.12-.278z" fill="#bb5846"/><path d="M15.036 24.906c.012-.238-.096-.445-.169-.66-.077-.232-.248-.423-.3-.667-.04-.133-.06-.275-.154-.387l-.002-.003c-.025-.2.008-.251.196-.27.353-.036.682.045.991.214.084.046.149.107.14.214.021.148-.039.217-.191.194-.08.055-.15.01-.218-.024a.886.886 0 0 0-.18-.074c-.154-.04-.168-.025-.13.136.023.101.051.201.096.295.185.383.26.798.358 1.207.076.314.217.61.428.843.22.244.344.532.486.813.083.165.172.315.322.43.199.151.313.38.478.562.113.124.215.259.343.37.058.049.12.106.08.198l-.001.119c-.287-.217-.585-.419-.834-.68-.07-.073-.104-.179-.17-.256-.197-.234-.452-.445-.585-.698-.167-.317-.452-.56-.54-.928-.048-.199-.178-.378-.274-.564-.064-.125-.079-.272-.17-.384z" fill="#61bea5"/><path d="M17.608 28.415c.119.018.176.109.236.197-.112-.026-.172-.113-.236-.197z" fill="#61bea5"/><path d="M17.61 28.298c-.186-.21-.408-.389-.563-.625-.17-.26-.43-.442-.607-.69a2.999 2.999 0 0 1-.34-.67c-.05-.128-.151-.187-.223-.281-.214-.278-.396-.582-.475-.925-.102-.446-.2-.892-.396-1.309-.056-.117-.055-.249-.121-.367-.046-.081.04-.109.125-.1.2.02.358.139.537.21.395.103.632.415.915.672.184.167.395.305.628.415.346.165.7.32 1.024.528.06.038.117.084.182.11.399.157.677.463.96.764.043.046.075.102.131.14.055.038.102.1.08.165-.027.081-.101-.062-.146.02-.012.072.073.056.097.094.08.133.156.228.097.435a4.523 4.523 0 0 0-.187 1.07c-.002.045-.015.104.008.134.178.238.067.5.067.751 0 .177-.12.268-.282.196-.274-.12-.57-.173-.841-.287-.191-.08-.351-.237-.522-.364-.047-.035-.083-.084-.147-.086z" fill="#00b4a1"/><path d="M15.738 23.348c-.338-.344-.768-.373-1.212-.347-.118.006-.113.103-.114.188-.089-.164-.035-.3.079-.427.09-.095.202-.067.311-.057.3.027.553.158.806.31.383.23.73.509 1.096.761.263.182.524.38.84.474.07.02.136.05.19.098.304.268.683.42 1.009.652.136.097.309.098.452.207.272.209.493.43.521.79l.001.195-.001.195c-.066-.131-.117-.273-.166-.407-.055-.15-.14-.272-.219-.403-.06-.1-.137-.164-.263-.171-.144-.008-.233-.125-.348-.193-.321-.19-.641-.383-.962-.575-.22-.131-.474-.202-.706-.314-.328-.16-.592-.409-.854-.657-.138-.132-.326-.186-.46-.32Z" fill="#7cb99f"/><path d="M14.14 22.334c-.106-.103-.135-.249-.185-.378-.09-.232-.226-.433-.363-.636a.475.475 0 0 0-.153-.271l.231-.001c.24.423.501.818.996.994.218.077.461.168.608.33.13.14.234.319.412.387.375.144.64.464 1.033.592.193.063.337.287.534.4.29.169.578.338.861.514.147.092.278.213.471.185.016-.003.037.012.052.024.199.176.384.368.611.51a1.12 1.12 0 0 1-.474-.25c-.194-.159-.453-.21-.666-.349a35.097 35.097 0 0 0-1.304-.795c-.399-.234-.768-.521-1.196-.704-.206-.089-.347-.262-.539-.373-.23-.134-.46-.157-.706-.135a.363.363 0 0 1-.222-.043z" fill="#a8b69b"/><path d="M13.594 20.735a.281.281 0 0 1 .04-.156c.118-.035.182.046.23.126.079.132.175.252.254.383.159.269.453.358.695.513.196.126.398.238.576.392.17.148.394.225.563.377.307.275.705.398 1.037.626.318.22.667.389.982.61a.646.646 0 0 0 .154.08c.196.07.387.156.551.282.38.29.798.52 1.197.78-.006.075.03.172-.058.211-.103.046-.205-.024-.257-.092-.097-.126-.23-.177-.36-.248-.208-.113-.354-.309-.564-.43-.126-.073-.24-.162-.382-.212a1.699 1.699 0 0 1-.579-.31 1.432 1.432 0 0 0-.296-.183c-.368-.187-.711-.418-1.065-.627-.208-.124-.402-.308-.602-.434-.36-.229-.683-.518-1.09-.683-.284-.115-.57-.27-.711-.587-.073-.16-.205-.283-.315-.418Z" fill="#c4a685"/><path d="M19.872 24.749a.376.376 0 0 1-.27-.09c-.292-.224-.615-.403-.924-.602-.447-.289-.933-.516-1.396-.783-.188-.109-.355-.253-.549-.357-.045-.024-.083-.066-.13-.08-.302-.087-.522-.306-.772-.475-.46-.311-.902-.648-1.393-.91a1.124 1.124 0 0 1-.377-.328.088.088 0 0 1 .125-.005c.185.163.423.224.636.33.344.172.599.454.902.675.38.276.802.476 1.2.72.513.316 1.035.616 1.579.876.19.09.336.242.51.353.233.151.471.293.704.446.054.036.108.07.147.125l.009.027-.001.078z" fill="#cba383"/><path d="m19.958 24.28-.01.39-.074.002h-.003a.251.251 0 0 1-.065-.23.665.665 0 0 1 .013-.308c.048-.153.034-.31.032-.465a.155.155 0 0 1 .048-.127.06.06 0 0 1 .066.001.137.137 0 0 1 .035.062c-.007.226.06.457-.042.676z" fill="#c4a685"/><path d="M19.717 25.996c-.03-.049-.075-.094-.09-.147-.11-.41-.444-.568-.785-.744-.337-.173-.677-.348-.976-.587-.07-.057-.14-.132-.221-.155-.39-.106-.698-.361-1.03-.567-.242-.15-.43-.38-.687-.514-.28-.145-.502-.397-.822-.46a2.502 2.502 0 0 0-.615-.061c-.005-.102-.1-.133-.155-.194a.13.13 0 0 0 .115-.09c.013-.033.044-.062.07-.025.068.098.183.05.264.095.428.232.879.417 1.285.697.316.218.588.504.955.648.103.091.228.142.351.195l.195.078c.383.286.82.486 1.213.754.08.054.186.052.27.103.266.19.541.374.662.702-.023.09.049.182 0 .272z" fill="#8eb79c"/><path d="M19.054 25.023a.797.797 0 0 1-.424-.155c-.233-.16-.497-.272-.73-.437a2.502 2.502 0 0 1-.328-.266c.172.032.294.159.437.243.349.204.716.376 1.045.614z" fill="#97b498"/><path d="M19.717 25.724c-.188-.265-.433-.477-.663-.702.293.069.614.408.663.702zM17.377 24.086c-.157.008-.28-.048-.351-.194.13.04.26.082.35.194z" fill="#97b498"/><path d="m21.24 23.272-.472.66c-.145.098-.2.258-.278.402-.058.107-.112.218-.26.221-.07-.03-.089-.087-.078-.159-.02-.07.007-.13.047-.181.231-.3.4-.634.558-.975a.469.469 0 0 1 .065-.096c.099-.102.21-.158.355-.102.08.06.137.127.063.23z" fill="#ac9b7e"/><path d="M20.655 25.53c-.143-.042-.286-.067-.43-.005.01-.27.097-.535.08-.808.286.078.446.254.457.562.003.108-.022.189-.107.252z" fill="#a98da2"/><path d="M20.847 23.192a4.521 4.521 0 0 1-.695 1.204c-.058-.02-.095-.064-.127-.114-.062-.101-.028-.212-.03-.318.006-.025.015-.053.038-.063.32-.134.43-.395.438-.719a.21.21 0 0 1 .142-.12c.106-.008.2.008.234.13z" fill="#98af90"/><path d="m20.034 23.934-.009.348-.067-.002-.002-.698c-.014-.195-.07-.39.019-.582a.058.058 0 0 1 .067-.003c.056.072.051.161.071.244-.004.154-.002.308-.002.462-.001.087-.011.168-.077.23z" fill="#c7bfc9"/><path d="M24.669 13.795c.019-.003.043.001.056-.01.039-.031-.007-.04-.021-.044-.176-.06-.352-.118-.53-.173-.116-.036-.234-.065-.378-.105l.139-.017c.64.138 1.276.293 1.902.488a30.9 30.9 0 0 1 2.48.901c.096.062.22.07.3.162v1.648l-.01 1.283a.813.813 0 0 1-.466-.165c-.637-.433-1.282-.86-1.863-1.364-.655-.567-1.12-1.288-1.427-2.101-.062-.167-.158-.323-.182-.503z" fill="#fffefe"/><path d="M24.668 13.796c.098.065.142.161.177.27.278.873.785 1.602 1.426 2.244.318.318.725.522 1.08.794.246.189.477.399.75.552.134.074.249.189.421.176.056-.005.047.072.085.096l-.005.698c-.05.01-.071-.027-.083-.063-.11-.347-.386-.541-.675-.714-.21-.127-.433-.233-.63-.382a.856.856 0 0 0-.433-.162c-.418-.045-.759-.206-.944-.613a.861.861 0 0 0-.193-.266c-.304-.287-.538-.63-.777-.968a.893.893 0 0 0-.272-.272c-.166-.098-.323-.051-.485-.002-.088-.014-.125-.082-.164-.15-.162-.325-.196-.68-.205-1.032-.008-.246.057-.352.423-.29.171.01.341.025.504.084z" fill="#cee5f1"/><path d="M24.125 15.16c.175-.191.509-.138.698.113.226.3.414.628.68.895.197.2.37.411.502.659.152.285.437.351.718.395.196.03.384.064.542.19.194.153.41.268.633.375.258.125.427.354.627.546.085.082.011.206.078.292 0 .077-.001.155-.003.232-.078.017-.118-.045-.161-.088a3.087 3.087 0 0 0-.49-.382 4.325 4.325 0 0 1-.591-.441.752.752 0 0 0-.603-.219c-.2.019-.381-.049-.555-.147-.418-.238-.777-.539-1.045-.942-.1-.15-.218-.29-.316-.443-.091-.14-.195-.24-.378-.218a.156.156 0 0 1-.127-.037c-.109-.2-.157-.423-.235-.635-.018-.049-.017-.103.026-.145z" fill="#b1e1ee"/><path d="M24.36 15.94c.278-.086.368-.038.531.203.36.53.728 1.055 1.322 1.363.17.088.338.176.534.148a.745.745 0 0 1 .654.23c.257.257.582.41.86.633.125.1.255.198.339.34.004.095.024.192-.025.282-.212-.288-.54-.429-.819-.632-.14-.102-.292-.188-.416-.313a.79.79 0 0 0-.476-.235c-.399-.051-.788-.13-1.145-.34-.135-.079-.304-.103-.459-.145-.452-.246-.76-.623-.99-1.074.017-.156.012-.316.09-.46z" fill="#96d4de"/><path d="M25.256 17.42c.229.041.449.089.657.211.3.176.646.216.986.255.17.02.32.078.433.194.314.324.718.519 1.08.77.122.085.172.156.163.289l-.008.155a.2.2 0 0 1-.232.057c-.123-.2-.318-.308-.517-.42a2.61 2.61 0 0 1-.59-.467c-.212-.218-.475-.313-.758-.252a1.03 1.03 0 0 1-.672-.072.8.8 0 0 1-.361-.291c-.034-.09-.107-.154-.15-.237-.03-.06-.075-.118-.03-.191z" fill="#6acbe0"/><path d="M28.606 19.956c-.012.004-.03.004-.036.012-.27.404-.65.686-1.03.98-.182.14-.367.16-.561.21-.136-.02-.21-.086-.178-.233.063-.072.151-.069.234-.068a.418.418 0 0 0 .35-.174c.102-.13.227-.232.375-.302.21-.099.328-.312.533-.415.131-.026.269-.042.318-.2l-.005.19z" fill="#ca9661"/><path d="M28.292 19.966c-.139.214-.306.393-.545.503a.52.52 0 0 0-.227.174c-.167.273-.414.32-.7.286-.16.03-.213-.086-.27-.197a.123.123 0 0 1 .02-.087c.095-.082.208-.067.313-.043.207.046.361-.035.504-.173.195-.188.414-.341.675-.427l.23-.036z" fill="#b0a968"/><path d="M28.063 20.002a.579.579 0 0 1-.205.175c-.158.09-.313.18-.436.32-.149.167-.33.24-.559.175-.084-.024-.18-.011-.27-.016-.076-.008-.112-.049-.103-.126.078-.132.212-.14.339-.14a.924.924 0 0 0 .587-.209c.168-.13.357-.228.535-.343.044-.009.085-.005.119.03l-.007.134z" fill="#81ad71"/><path d="m28.07 19.867-.128.024a.098.098 0 0 1-.06-.059.31.31 0 0 1 .026-.2c.113-.143.211-.306.429-.3a.395.395 0 0 1 .23-.038c.024.13-.031.216-.144.282-.132.078-.268.155-.353.291z" fill="#67b4bc"/><path d="M18.82 15.786c.198-.006.391-.064.593-.03.305.05.578.16.818.357.052.044.108.093.184.1.044.005.07.032.09.069.054.203.222.31.368.435.437.376.966.597 1.467.864.183.097.364.197.534.316.066.046.15.088.124.196-.09.07-.172.018-.253-.019-.178-.08-.35-.172-.528-.249a.719.719 0 0 0-.206-.056c-.113-.012-.202-.002-.163.151.01.044.016.09-.027.125-.222-.114-.37-.318-.562-.469-.405-.318-.797-.652-1.199-.975-.324-.26-.682-.358-1.084-.192-.124-.19-.114-.413-.156-.623z" fill="#adc5c7"/><path d="M21.821 18.044c-.014-.035-.026-.072-.044-.106-.037-.068-.05-.137-.001-.2.047-.062.112-.067.192-.057.305.038.55.22.822.336.066.028.125.07.2.065.092-.048.164.01.23.056.315.215.62.444.884.722.074.079.139.16.047.27-.154.095-.31.016-.452-.02-.257-.066-.534-.098-.744-.291-.294-.2-.622-.347-.896-.578-.078-.066-.158-.131-.238-.197z" fill="#cfcdc5"/><path d="M22.956 18.82c.308.079.594.234.92.258.095.007.19.018.286.018.188-.07.414.024.48.2-.114.136-.266.119-.412.091a6.194 6.194 0 0 1-1.006-.282c-.339-.126-.685-.23-1.019-.371-.423-.267-.882-.46-1.347-.642-.165-.065-.352-.096-.478-.24l-.036-.08c.48-.058.875.15 1.267.388.385.234.785.442 1.196.629a.254.254 0 0 0 .149.03z" fill="#89cbd6"/><path d="M20.38 17.852c.481.149.954.323 1.396.568.146.08.31.132.437.247-.13.123-.268-.032-.416.012.049.108.138.17.223.233.287.212.614.352.928.514.079.04.196.058.156.196-.171.063-.292-.073-.431-.121a8.63 8.63 0 0 1-1.668-.794c-.243-.148-.49-.29-.727-.446-.097-.063-.268-.112-.228-.252.037-.125.203-.136.33-.157z" fill="#75cac2"/><path d="M21.006 18.708c.317.075.58.271.878.394.408.169.8.376 1.226.502.104-.077.2-.011.292.026.462.188.932.352 1.411.492.343.1.696.15 1.042.233.096.022.247-.01.253.164a.34.34 0 0 1-.387.021c-.832-.154-1.623-.44-2.411-.738-.413-.155-.836-.287-1.24-.466a8.273 8.273 0 0 1-1.183-.627l.119-.001z" fill="#92d3cc"/><path d="m20.46 16.293-.045-.08-.076-.195c.179-.1.2-.267.197-.446v-.21c.142.09.198.268.353.346.196.135.298.348.435.531.05.155.186.275.19.45-.076.196-.157.24-.337.155-.278-.13-.539-.288-.716-.551z" fill="#b39da9"/><path d="M24.164 13.713c-.34.02-.37.095-.337.448.028.304.113.59.18.882.002.145-.024.271-.197.302-.094-.019-.142-.086-.177-.168-.198-.426-.343-.874-.542-1.3-.102-.22-.028-.31.211-.278.291.013.58.04.862.114z" fill="#dccfde"/><path d="M23.303 13.6c-.205.018-.24.063-.153.234.216.427.368.88.543 1.324-.082.073-.156.017-.227-.019-.166-.082-.31-.197-.465-.3a.61.61 0 0 1-.18-.363c.02-.19.016-.372-.086-.545a.371.371 0 0 1-.04-.264c.02-.098.071-.153.18-.106.142.015.29-.027.428.038z" fill="#e3b6ca"/><path d="M20.415 14.187c-.122-.142-.19-.313-.26-.483-.031-.072-.013-.12.028-.173.27.005.537-.052.813-.016.18.023.313.055.362.244-.035.174-.158.286-.284.396-.217.058-.432.177-.66.032z" fill="#f27179"/><path d="M22.874 13.561c-.138.066-.163.204-.041.397.087.138.091.277.072.426-.005.038-.02.074-.03.111-.074.048-.138.005-.197-.03-.127-.075-.27-.121-.389-.21a1.17 1.17 0 0 1-.116-.342c.011-.023.024-.045.035-.069.154-.335.303-.399.666-.283z" fill="#eba2b1"/><path d="M22.173 13.913c.127.071.149.181.119.311-.044.08-.129.075-.202.094a3.57 3.57 0 0 0-.599-.002.576.576 0 0 1-.302-.07c-.061-.027-.105-.067-.108-.14.07-.133.147-.262.277-.347l.815.154z" fill="#f3869b"/><path d="m21.081 14.106.12.084c.034.055.071.11.074.178.01.194.087.362.183.527.046.079.12.165.03.264-.26.055-.519.118-.754-.074l-.162-.198c-.037-.237-.192-.447-.158-.7.228.017.444-.06.667-.08z" fill="#e94680"/><path d="M20.735 15.085c.256.07.517.025.775.036.056-.037.113-.02.168 0 .237.09.475.178.686.324.07.078.118.16.062.268a.135.135 0 0 1-.052.037.276.276 0 0 1-.114.014c-.314-.045-.625-.06-.926.065-.116-.005-.21-.044-.252-.163-.094-.207-.268-.366-.347-.581z" fill="#c74984"/><path d="m21.082 15.667.237.12c.228.127.373.337.532.534a.175.175 0 0 1 .008.057c-.012.057-.015.118-.067.159-.234.017-.383-.116-.513-.284a2.113 2.113 0 0 1-.389-.545c.065-.006.137.017.192-.041z" fill="#a76e90"/><path d="M24.356 20.85c-.28-.188-.59-.328-.853-.542-.01-.008-.022-.012-.032-.021-.072-.064-.183-.133-.137-.233.049-.105.17-.029.244-.008.35.1.697.21 1.04.33.392.137.8.228 1.183.39.034.08-.016.125-.069.168-.124.09-.267.045-.401.058-.103.015-.202-.014-.298-.041-.111-.032-.145.024-.167.112a.144.144 0 0 1-.08.035c-.172-.032-.344-.066-.43-.249z" fill="#cfdcd0"/><path d="m25.722 20.896.079-.13c.044.01.084.008.113-.033.222-.036.445-.138.665.005l.241.191c.002.112.107.152.158.23l-.004.044-.092.004c-.047.05-.108.08-.174.07-.28-.043-.57-.05-.829-.184-.079-.04-.168-.08-.157-.197z" fill="#e1c493"/><path d="m24.356 20.85.428.2c.284.095.52.28.787.41.303.148.615.263.95.31.041.005.075.02.095.058l-.04.114c-.683-.14-1.301-.444-1.912-.767-.113-.06-.23-.112-.346-.168-.09-.126-.267-.14-.352-.272.145-.01.246.127.39.115z" fill="#8dc5d0"/><path d="M26.58 20.738c-.222-.026-.445.093-.666-.006a.685.685 0 0 1-.193-.192l.382-.042c.064-.075.145-.077.232-.058.075.004.144.02.18.096l.078.12-.014.082z" fill="#a7d2b2"/><path d="m19.914 23.544-.003.114c-.039.108-.008.22-.02.33-.035.093-.114.095-.193.086a.254.254 0 0 1-.128-.043c-.314-.238-.668-.424-.974-.667-.353-.28-.737-.503-1.112-.744-.11-.071-.24-.1-.35-.17-.51-.32-1.03-.62-1.494-1.01-.242-.203-.527-.352-.784-.538-.021-.016 0 .007-.016-.01-.187-.206-.457-.25-.69-.365l-.01-.027-.351-.974-.077-.467c.192-.017.232.146.28.267.109.273.254.527.414.766.146.217.403.321.615.468.216.149.413.329.67.421.13.047.244.145.342.252a.777.777 0 0 0 .264.197c.57.244 1.018.686 1.578.952.267.127.517.316.754.509.263.214.586.33.869.512.074.048.163.097.254.033.093-.065.053-.162.045-.251.023-.075-.018-.197.132-.177.03.18.048.359-.015.535z" fill="#e8845c"/><path d="M19.872 23.23c-.005.107.032.233-.098.291-.119.053-.22-.01-.327-.065a7.8 7.8 0 0 1-1.185-.735c-.352-.271-.778-.417-1.124-.688-.309-.241-.65-.42-.99-.604-.136-.073-.196-.221-.336-.288-.488-.236-.908-.578-1.354-.88a.442.442 0 0 1-.17-.204c-.106-.258-.277-.483-.367-.75a.45.45 0 0 0-.21-.248c-.051-.055-.063-.126-.08-.195-.117-.164-.062-.333-.016-.502.096-.038.13.04.161.097.122.222.236.444.264.705.033.323.35.655.672.72.14.03.258.083.335.21a.435.435 0 0 0 .14.133c.425.274.818.592 1.23.883.175.124.381.216.578.313.107.053.2.116.266.22.132.204.31.345.56.38a.235.235 0 0 1 .14.063c.216.224.503.368.694.62.061.08.16.109.237.166.178.13.393.198.563.343.081.067.182.098.289.03.037-.024.082-.042.128-.015z" fill="#ed7b59"/><path d="M13.476 16.525c.039.025.078.05.117.077-.233.099-.423.254-.595.439-.12.128-.212.276-.316.415-.063.078-.085.156-.014.244a.242.242 0 0 1 .046.146c.008.117.004.231-.096.315-.065-.032-.128-.004-.19.008-.185.036-.217.006-.197-.176.068-.626.432-1.052.932-1.388a.464.464 0 0 1 .313-.08zM13.633 18.36c.056.168-.026.336-.001.504-.17-.158-.381-.248-.585-.35-.069-.096-.006-.17.049-.24.039-.049.09-.09.114-.15.077-.089.175-.172.284-.091.096.071.204.17.139.326z" fill="#f37662"/><path d="M13.241 18.163c-.023.14-.192.198-.194.35-.217-.026-.292-.227-.43-.351l.041-.35c.075-.06.137-.012.186.034.122.12.251.228.397.317z" fill="#ed7b59"/><path d="M19.993 22.995c-.02.194.027.394-.037.586l-.014-.043c-.067-.876-.047-1.753-.05-2.63 0-.174.007-.349-.006-.523.01-.066-.043-.128-.015-.196.041-.053.027-.146.116-.166.76.336 1.513.685 2.235 1.098-.091.091-.184.034-.268-.006-.227-.11-.457-.215-.689-.315-.057-.024-.124-.074-.18-.029-.062.05-.015.124.005.181.094.276.212.543.298.82.111.359.15.722-.015 1.079a.145.145 0 0 1-.043.045.138.138 0 0 1-.093.012c-.092-.054-.179-.114-.215-.223-.28-.57-.5-1.17-.848-1.703-.065.028-.066.063-.064.093.037.57-.063 1.134-.062 1.702 0 .077.01.157-.055.218z" fill="#e1a6ca"/><path d="M14.18 16.99c.261.006.46.171.669.29.74.417 1.467.856 2.2 1.283.539.312 1.08.619 1.622.925.084.047.164.106.266.113l.072.038c.159.055.3.144.43.245.068.053.162.117.123.236-.06.038-.108.007-.16-.023-.78-.446-1.561-.889-2.338-1.34-.81-.471-1.623-.938-2.442-1.394a2.185 2.185 0 0 0-.322-.202c-.062-.033-.128-.062-.134-.146a.318.318 0 0 0 .014-.026z" fill="#f2673a"/><path d="M19.561 20.106c-.146-.2-.38-.297-.551-.467.23.015.42.12.567.29.088.101.16.214.293.26.033.038.085.063.078.125a.162.162 0 0 1-.053.028c-.142-.035-.274-.084-.334-.236z" fill="#f193ab"/><path d="m19.875 24.127-.003.31c-.09.09-.186.074-.284.015-.28-.172-.574-.319-.82-.548-.23-.213-.528-.325-.798-.477-.028-.016-.068-.018-.088-.04-.244-.27-.608-.333-.893-.526-.254-.172-.462-.412-.776-.489-.023-.006 0 .01-.015-.01-.241-.318-.642-.395-.943-.624-.305-.231-.637-.42-.952-.637a1.391 1.391 0 0 1-.593-.911c.008-.133-.084-.232-.115-.351.224.055.262.279.384.426.06.073.108.157.16.236l.001.001c.343.275.688.543 1.052.793.547.376 1.162.641 1.677 1.063.1.082.215.146.332.203.54.26 1.028.607 1.541.91.286.17.545.373.825.546.092.057.2.041.292.087l.016.023z" fill="#db9471"/><path d="M13.71 20.19c.072.107.136.218.193.335.123.255.31.445.561.595.376.224.707.53 1.096.72.276.135.508.298.728.5.05.047.144.053.22.068.1.019.185.063.245.144a.985.985 0 0 0 .651.414.356.356 0 0 1 .207.1c.243.296.616.39.918.592.185.125.333.286.506.417.247.187.506.362.837.361v.235c-.122-.019-.204-.108-.304-.167-.435-.257-.808-.619-1.278-.81-.382-.154-.73-.372-1.073-.582-.583-.359-1.22-.635-1.744-1.088-.22-.19-.432-.391-.7-.518-.244-.115-.5-.207-.711-.38-.16-.17-.218-.418-.429-.547-.001-.171-.134-.284-.195-.428.094-.01.183.016.272.038z" fill="#cfa383"/><path d="M12.618 17.425c.15-.244.345-.448.545-.65.124-.125.256-.192.43-.173.212.103.436.19.587.388l-.002.004c-.147.091-.259-.027-.381-.067-.194-.064-.223-.061-.343.092.359.107.494.278.522.669.031.426.192.82.319 1.22.044.138.157.18.279.147.408-.109.638.127.834.42.092.137.21.246.317.366.044.049.088.066.154.054a.472.472 0 0 1 .456.167c.33.38.748.65 1.136.962.443.355.924.669 1.318 1.09.203.216.494.328.737.499.069.048.145.051.203-.034.024-.036.058-.072.113-.055.096.162.008.291-.098.394-.112.109-.264.092-.377.002-.325-.256-.71-.423-1.007-.722a3.1 3.1 0 0 0-.996-.668.484.484 0 0 1-.244-.215c-.063-.115-.164-.176-.28-.228-.237-.106-.462-.232-.641-.426a.758.758 0 0 0-.353-.226c-.22-.065-.387-.234-.553-.385a.97.97 0 0 0-.3-.204c-.454-.176-.792-.46-.92-.952-.087-.332-.364-.546-.54-.823-.024-.038-.072-.07-.114-.069-.28.004-.463-.221-.713-.29-.148-.041-.134-.168-.088-.287z" fill="#f16247"/><path d="M21.322 22.834c.155-.462.072-.902-.111-1.337-.085-.202-.155-.41-.228-.618-.024-.067-.04-.143.012-.203.064-.073.133-.015.195.012.265.118.53.239.794.36.076.035.147.084.238.073.172.042.296.172.452.244.017.061.064.091.116.118.065.034.121.08.11.161-.012.089-.086.119-.16.147-.054.02-.112.014-.168.02-.156.033-.308.007-.46-.022-.179-.035-.204-.014-.207.17-.004.175 0 .35-.06.517-.059.162-.146.303-.31.379-.072.032-.148.05-.213-.021z" fill="#dd8cba"/><path d="M22.601 21.75c.026-.003.054 0 .077-.01.062-.026.161-.015.174-.098.014-.09-.091-.09-.144-.133-.049-.039-.202-.053-.033-.144.292.12.559.287.819.464-.03.047-.072.003-.111.014-.006.076.133.075.093.16-.033.072-.11.05-.172.059-.08.012-.138.063-.195.116-.148.116-.31.12-.472.04a38.681 38.681 0 0 0-.536-.256c-.01-.157.117-.116.198-.129.105-.015.223.024.302-.082z" fill="#e57e97"/><path d="M22.098 21.942c.12-.01.233.009.328.08a.815.815 0 0 0 .683.157c-.035.111-.135.177-.194.271-.156-.065-.332-.029-.488-.107-.075-.037-.133.015-.136.109a.804.804 0 0 0 .043.266c.088.289-.051.52-.353.59-.09-.022-.115-.086-.113-.17.24-.253.205-.543.11-.843a.433.433 0 0 1-.018-.23c.017-.07.039-.142.138-.123z" fill="#cf677e"/><path d="m21.902 23.154.08.154c-.034.072-.108.101-.159.154-.216.006-.405-.075-.582-.19.006-.08-.037-.138-.086-.194-.03-.057-.023-.111.009-.164a.112.112 0 0 1 .071-.046c.029.004.058.01.087.013.22.034.418.114.58.273z" fill="#c47b87"/><path d="M26.81 21.396c.155.073.11.172.037.275-.042.114-.142.096-.23.096a1.684 1.684 0 0 1-.853-.223c-.084-.207-.037-.279.215-.331.23.005.459.042.687.073.066.009.122.04.145.11z" fill="#dba6c3"/><path d="M26.81 21.395c-.264-.086-.546-.056-.815-.116-.188-.03-.378-.053-.545-.155-.073-.045-.167-.078-.157-.192l.429-.036c.116.12.266.19.422.211.246.033.485.124.739.098.008.076-.04.13-.072.19z" fill="#eebfb0"/><path d="M25.8 21.512c.332.164.675.258 1.047.159l.09.043c-.086.097-.202.108-.321.114-.413-.012-.785-.162-1.14-.353-.239-.128-.492-.234-.692-.426l.082-.003c.06-.037.116-.013.165.016.257.15.539.256.768.45z" fill="#aab4d2"/><path d="M14.414 23.191c.132.097.17.232.155.387-.097-.11-.098-.26-.155-.387z" fill="#7cb99f"/><path d="M19.915 20.323a.06.06 0 0 1 .033-.009l-.007 3.225a.383.383 0 0 1-.028.004l-.007-.548c-.06-.049-.085-.116-.064-.187.054-.186.015-.367-.017-.548-.014-.325.072-.65.002-.975.014-.27.044-.54.02-.811-.006-.063.014-.115.068-.15zM19.87 24.006c.017-.116-.03-.239.041-.349-.01.157.038.318-.036.47l-.003-.002c-.031-.04-.03-.079-.001-.119z" fill="#db9471"/><path d="M21.186 22.914c.018.06 0 .113-.03.163-.126-.022-.216.05-.309.114-.073-.038-.144-.084-.232-.08-.133-.091-.245-.191-.182-.377.274-.033.538-.029.753.18z" fill="#bdb8a8"/><path d="M20.034 23.933v-.701c.03-.074-.016-.2.117-.207.14-.008.283.001.345.166.106.332-.127.704-.462.742z" fill="#6bc39f"/><path d="M20.497 23.191c-.069-.035-.141-.058-.212-.086-.142-.056-.215-.01-.251.126l-.013-.237c-.023-.086-.008-.173-.01-.26.02-.08.028-.177.144-.17.128.01.237.056.269.2.071.111.149.22.19.346l-.117.081z" fill="#92cbbc"/><path d="m20.033 22.724-.012.27-.029.001c-.018-.668.066-1.334.038-2.003-.002-.057-.01-.13.056-.153.077-.027.117.045.152.095.218.31.373.653.517.999.104.25.282.47.324.746-.08.052-.148.001-.216-.03-.198-.091-.402-.169-.596-.27-.095-.05-.158-.038-.165.088-.006.09-.06.167-.07.257z" fill="#dcbedb"/><path d="M23.814 15.317c.124-.05.105-.199.193-.274l.118.117c.071.262.222.5.235.78.071.164-.01.314-.04.47-.156.136-.312.054-.468-.001-.107-.088-.133-.209-.134-.34.029-.208.104-.413.05-.63-.01-.045.01-.09.046-.122z" fill="#afc0da"/><path d="M23.855 16.367c.156 0 .307.061.465.042.262.383.543.75.936 1.012l.23.387c-.119.121-.23.006-.346-.01-.419-.262-.823-.543-1.176-.892-.105-.135-.193-.278-.193-.458.013-.042.038-.072.084-.08z" fill="#90bbc2"/><path d="m28.337 19.332-.387.31c-.213.043-.417-.021-.597-.105a5.188 5.188 0 0 1-1.314-.915c-.076-.117-.13-.245-.21-.36-.034-.052-.068-.11-.026-.176a.335.335 0 0 1 .167.044c.127.06.244.056.389.021.311-.075.622-.037.865.208.27.272.574.495.916.67.12.06.212.15.197.303z" fill="#00bbd5"/><path d="M25.803 18.086c.086.171.235.309.272.506.058.102.016.177-.062.243-.192.037-.28-.12-.4-.218-.086-.189-.226-.343-.334-.518-.068-.111-.178-.21-.14-.364.117.015.223.092.348.073.074.129.21.187.316.278z" fill="#5aa9ae"/><path d="m26.515 20.536-.171-.038a.151.151 0 0 1-.04-.152c.155-.207.392-.254.622-.305.19-.042.377-.08.547-.18.142-.023.279-.14.43-.028l.039.058c-.354.261-.666.606-1.166.573-.093-.006-.178.034-.26.072z" fill="#39ab81"/><path d="m27.903 19.833-.431.088c-.276.117-.494.024-.672-.192-.238-.287-.574-.469-.804-.762-.029-.048-.041-.096-.001-.144l.08-.23c.409.297.796.622 1.247.858.199.105.437.068.628.191-.003.067-.002.135-.047.191z" fill="#00a5af"/><path d="M20.46 16.293c.209.1.351.294.563.39.058.025.114.057.168.093.132.087.226.061.282-.09.072-.032.109.024.143.065.312.373.722.621 1.125.876.245.156.49.31.718.492.312.281.633.552.954.825.097.082.203.158.28.263a.09.09 0 0 1-.017.08c-.018.012-.035.012-.05-.003-.134-.115-.296-.158-.463-.188-.032-.202-.201-.301-.335-.414a4.956 4.956 0 0 0-.838-.599c-.18-.182-.408-.294-.63-.41-.531-.28-1.087-.519-1.55-.914-.152-.128-.32-.246-.35-.466Z" fill="#9b9fb4"/><path d="m24.625 19.285.042-.001.028-.002c.253.075.435.267.655.397.223.13.436.276.692.335.036.011.065.034.096.054.085.078.177.151.213.268l-.008.162h-.24c-.234-.099-.488-.117-.732-.163-.767-.148-1.487-.426-2.205-.718-.018-.007-.038-.01-.057-.014-.067-.1-.188-.106-.283-.157-.301-.16-.62-.291-.89-.508a1.8 1.8 0 0 1-.21-.2c-.032-.037-.066-.088-.03-.141.037-.054.09-.037.14-.02.124.038.246.081.376.09.67.215 1.318.5 2.012.643a.86.86 0 0 0 .4-.025z" fill="#00bccf"/><path d="M23.422 18.162c-.462-.308-.926-.614-1.386-.925a2.348 2.348 0 0 1-.564-.551c-.058-.147-.16-.275-.194-.433l.506.275c.082-.01.133.043.183.093.597.596 1.257 1.12 1.915 1.646.066.053.14.093.206.145.06.047.134.094.08.19-.11.054-.183-.019-.255-.078a6.336 6.336 0 0 0-.491-.362z" fill="#857b9a"/><path d="M23.814 15.317c.071.252.08.5-.044.74-.124.083-.221-.017-.325-.053a.763.763 0 0 1-.288-.158.39.39 0 0 1-.105-.264 1.39 1.39 0 0 0-.06-.556c-.021-.075-.033-.155.042-.214.169.038.28.177.429.25.075.036.142.088.23.097l.12.158z" fill="#c5a1ca"/><path d="M23.035 14.812c-.011.08.015.154.04.227.064.18.097.363.033.55-.211.063-.39-.018-.562-.126-.093-.13-.112-.287-.164-.433-.07-.2-.125-.408-.256-.583-.038-.052-.068-.112-.03-.18a.357.357 0 0 1 .196-.042c.223.028.389.18.583.271l.16.316z" fill="#e08ab8"/><path d="M22.096 14.266c.267.344.378.75.47 1.164-.035.051-.085.056-.14.047a3.622 3.622 0 0 1-.904-.927c-.053-.08-.127-.174-.048-.284a1.03 1.03 0 0 1 .622 0z" fill="#eb79ad"/><path d="M21.474 14.267c.06.202.165.376.312.526l.623.637c.003.073-.033.07-.083.043l-.816-.351c-.194-.28-.358-.57-.31-.93.092.024.183.05.274.075z" fill="#e45895"/><path d="M21.819 16.33a2.52 2.52 0 0 1-.5-.543c.335-.22.692-.135 1.046-.075.093.145.03.265-.063.379-.159.084-.344.115-.483.239z" fill="#af557a"/><path d="M22.254 16.058c.1-.096.07-.233.11-.346l.047-.004c.066-.058.135-.028.197.002.143.07.297.124.418.235.052.056.088.119.095.197-.004.117-.045.211-.154.268a.225.225 0 0 1-.126.009c-.163-.057-.307-.155-.47-.212-.062-.022-.136-.055-.117-.15z" fill="#ad6f87"/><path d="M22.994 15.978c-.198-.083-.375-.209-.583-.27 0-.089-.043-.162-.085-.235.034-.002.064-.013.083-.043l.157.001.542.158.082.235c-.02.108-.073.176-.196.154z" fill="#c47ea4"/><path d="M24.162 18.59c-.168-.208-.41-.325-.612-.493-.603-.507-1.23-.986-1.766-1.569.002-.055-.01-.114.041-.156.116-.037.176.056.246.113.155.124.286.276.45.39.51.453 1.013.915 1.553 1.334.226.233.492.418.75.611.17.13.316.285.482.42.05.042.093.092.077.167a.093.093 0 0 1-.046.03c-.11.003-.179-.072-.254-.131a7.442 7.442 0 0 0-.452-.338c-.174-.104-.363-.191-.47-.379z" fill="#857184"/><path d="M22.486 16.916c-.255-.14-.422-.386-.66-.544l-.007-.042c.033-.155.127-.231.286-.236.05-.001.1-.024.15-.036.172.142.423.14.58.312.02.031.018.069-.005.089-.148.129-.226.308-.344.457z" fill="#99696d"/><path d="M25.8 21.513c-.292-.064-.52-.255-.783-.378-.052-.025-.1-.059-.15-.089-.021-.059-.122-.092-.088-.157.04-.073.126-.032.193-.02.107.02.213.042.32.064.196.192.48.208.703.347-.148.008-.277.032-.196.233z" fill="#dfc2ce"/><path d="M19.906 22.254v.741c-.053.072-.026.156-.033.235-.206.187-.232.213-.56-.029-.158-.116-.34-.199-.512-.296-.05-.028-.124-.043-.15-.086-.17-.296-.512-.41-.712-.673-.088-.116-.24-.053-.36-.11-.175-.084-.286-.218-.384-.365a.396.396 0 0 0-.164-.154 6.17 6.17 0 0 1-1.048-.633c-.258-.19-.5-.404-.783-.561-.106-.059-.208-.126-.255-.255-.032-.091-.134-.095-.215-.108-.426-.072-.723-.427-.768-.862-.029-.272-.179-.51-.328-.74-.015-.035-.028-.072-.044-.107-.104-.23-.146-.24-.348-.087-.135.02-.23-.033-.317-.137-.073-.086-.138-.192-.266-.214-.066-.124-.177-.243-.04-.388-.02.147.045.202.188.256.636.235 1.176.588 1.374 1.29.11.394.385.631.745.759.305.108.488.363.743.529.059.039.108.114.178.11.2-.01.302.13.417.248.18.187.396.316.637.409.117.045.225.104.27.233.038.108.122.164.221.204.514.21.923.563 1.314.943.04.04.096.065.143.097.174.118.385.17.529.347.11.135.31.079.394-.08a.424.424 0 0 0 .062-.241c-.05-.111-.067-.213.072-.275z" fill="#f1724e"/><path d="m19.87 24.007.002.118c-.205.025-.362-.087-.518-.19-.457-.306-.934-.58-1.403-.867-.59-.36-1.186-.708-1.772-1.072-.404-.25-.804-.512-1.215-.754-.315-.185-.642-.393-.824-.741.127.043.251.1.392.044.043-.017.098.003.107.058.023.14.147.165.24.232.346.246.742.429 1.028.747.108.12.25.156.37.23.335.206.635.47 1.007.626.26.108.511.249.732.433.06.05.124.099.194.128.153.062.29.139.38.286a.287.287 0 0 0 .123.093c.318.15.58.383.86.587.095.07.194.058.298.042z" fill="#dd9170"/><path d="M21.902 23.154a1.592 1.592 0 0 1-.58-.273v-.047c.288.009.473-.264.5-.632.008-.116.004-.233 0-.35-.004-.163.08-.21.223-.164.182.058.368.065.556.063.002.14-.073.174-.202.16-.1-.01-.206-.036-.3.03-.1.058-.093.153-.07.24.045.169.059.343.122.509.06.158-.076.258-.154.37-.025.036-.063.063-.095.094z" fill="#cf749f"/><path d="M20.033 22.723c-.016-.663.012-.534.468-.312.19.094.385.179.578.268l.156.188-.049.047a4.05 4.05 0 0 0-.762-.15c-.061-.037-.124-.071-.183-.112-.103-.072-.164-.027-.208.071Z" fill="#c7bfc9"/><path d="m19.915 20.323-.008.959c-.05.143-.035.294-.053.441-.032.27-.206.389-.428.244-.353-.23-.73-.422-1.069-.672-.307-.228-.628-.435-.927-.674a12.945 12.945 0 0 0-1.128-.826c-.45-.287-.847-.64-1.277-.95-.175-.126-.377-.22-.547-.363a.76.76 0 0 1-.268-.416c-.038-.158-.106-.307-.146-.464a.67.67 0 0 1-.027-.27c.025-.167.134-.233.294-.174.109.04.205.108.316.146.728.394 1.438.82 2.153 1.237.62.362 1.247.712 1.872 1.066.296.168.593.333.89.499l.353.217z" fill="#ef4531"/><path d="M14.646 17.305c-.116.004-.207-.073-.314-.098-.174-.042-.226-.002-.233.174-.005.128.06.238.08.359.07.413.285.752.657.921.291.133.53.33.746.532.364.339.82.53 1.194.852.285.244.59.482.907.687.449.289.841.662 1.34.878.168.073.288.238.462.316.173.078.222.056.286-.125.06-.17.02-.364.135-.518v.972a69.42 69.42 0 0 0-.073.274c-.026.052-.051.104-.079.155-.038.068-.09.093-.16.047-.353-.23-.742-.404-1.027-.732-.17-.194-.394-.331-.603-.482-.094-.068-.201-.122-.273-.216-.203-.265-.512-.397-.774-.58-.241-.168-.388-.408-.605-.585-.128-.105-.243-.282-.449-.123-.045.034-.095.002-.118-.035-.1-.167-.296-.25-.376-.437-.068-.159-.215-.258-.334-.374-.091-.088-.214-.077-.333-.054-.36.071-.416.045-.52-.306-.118-.396-.281-.78-.286-1.206a.52.52 0 0 0-.17-.382c-.088-.083-.174-.128-.295-.098-.04.01-.09.049-.121-.006-.024-.04.021-.07.04-.102.133-.22.23-.256.466-.157.12.05.234.114.363.14.129.142.328.179.467.309z" fill="#f15e3b"/><path d="m22.994 15.978.196-.154.58.233.085.31-.046.083a.113.113 0 0 1-.11.026c-.23-.072-.45-.163-.624-.34a20.153 20.153 0 0 1-.081-.158z" fill="#af96b2"/><path d="M25.138 17.736c.148.296.398.532.508.85-.036.03-.072.016-.108-.001-.32-.23-.634-.47-.958-.693-.297-.204-.522-.482-.763-.742-.044-.048-.08-.102-.069-.174.055-.115.145-.14.259-.098.361.307.748.58 1.131.858z" fill="#82a59f"/><path d="M24.006 16.879c-.076.041-.173.04-.233.115-.14.04-.223-.063-.319-.13-.113-.08-.205-.19-.336-.247-.075-.068-.177-.118-.162-.245a.573.573 0 0 0 .119-.235c.264.058.47.254.733.314.067.142.132.285.198.428z" fill="#9b989e"/><path d="m25.564 18.548.082.038c.133.054.21.19.348.236l.044.125c.051.106.145.204.066.335-.116.1-.214.008-.317-.032-.079-.03-.139-.09-.208-.136-.124-.15-.262-.293-.31-.493a.095.095 0 0 1 .028-.054c.085-.066.176-.035.267-.019z" fill="#478687"/><path d="m26.074 19.292-.037-.345c.277.27.614.469.853.78.143.188.362.206.581.193a.86.86 0 0 1-.419.175c-.255.03-.477.133-.701.241a.608.608 0 0 1-.239-.231c-.03-.041-.048-.084-.024-.135.075-.075.142-.004.212.012.064.014.139.078.19-.003.043-.067-.001-.135-.04-.195a1.35 1.35 0 0 0-.246-.27c-.068-.059-.139-.118-.13-.222z" fill="#009589"/><path d="M24.162 18.59c.192.067.315.241.5.32.01.103.089.197.037.308-.001.003-.01.004-.015.004-.006-.002-.01-.006-.016-.01a4.22 4.22 0 0 1-.773-.63c-.15-.15-.345-.248-.473-.42.241.066.4.27.62.373l.12.054z" fill="#977ca5"/><path d="M24.668 19.212c.019-.1-.155-.198-.006-.302l.669.498c.045.035.125.05.075.137-.134.092-.248.015-.352-.055a1.475 1.475 0 0 0-.369-.195l-.017-.01v-.073z" fill="#6f6cac"/><path d="M24.685 19.295c.149-.028.256.068.372.13.116.062.23.113.365.106.04-.02.073-.002.107.02.149.103.277.23.42.34.051.039.12.086.076.175-.332-.048-.588-.25-.855-.428-.165-.11-.323-.228-.485-.343z" fill="#008dc9"/><path d="M26.025 20.066c-.168-.215-.404-.354-.603-.535l-.091-.123.042-.009c.087-.049.148.01.204.06.063.055.13.104.205.141.113.118.295.17.334.357l-.003.149-.088-.04z" fill="#227a94"/><path d="M25.292 18.585v.046c-.053.038-.112.032-.167.013-.363-.127-.74-.218-1.08-.404-.333-.181-.605-.444-.876-.697-.226-.211-.497-.375-.683-.628a.49.49 0 0 1 .227-.424c.049-.033.096-.065.121-.12h.122l.197.197c.14.166.225.363.316.556.087.188.217.336.38.46.374.284.803.477 1.194.732.102.067.242.11.25.27z" fill="#8c8076"/><path d="M24.044 18.24c.44.055.832.26 1.248.39.13.125.208.289.315.429.082.188.192.369.155.588-.16-.037-.244-.19-.39-.248a8.782 8.782 0 0 0-.943-.79 1.542 1.542 0 0 1-.385-.369z" fill="#686d6b"/><path d="M19.79 20.755c.028.178-.038.328-.092.48-.055.155-.152.182-.285.088-.01-.007-.025-.01-.033-.02-.239-.288-.6-.413-.873-.659a1.972 1.972 0 0 0-.528-.357c-.34-.146-.572-.414-.827-.658a1.435 1.435 0 0 0-.492-.337c-.152-.057-.247-.19-.342-.31a.504.504 0 0 0-.264-.186 1 1 0 0 1-.483-.313.515.515 0 0 0-.288-.178c-.135-.027-.215-.162-.3-.266-.077-.094-.134-.206-.198-.311-.02-.033-.05-.07-.025-.107.034-.052.081-.022.123-.008.231.072.432.209.64.323.802.437 1.587.904 2.39 1.338.388.209.754.458 1.13.687.128.078.252.168.39.218.282.103.397.294.357.576z" fill="#ee3628"/><path d="M25.292 18.586c-.337-.277-.723-.477-1.105-.68-.55-.293-.867-.754-1.035-1.337.234.103.393.315.621.425.414.542.958.935 1.51 1.32.1.07.188.156.28.235-.084.057-.178.043-.27.037z" fill="#889389"/><path d="M25.761 19.647c-.096-.184-.17-.374-.154-.587.146.095.296.186.467.232.134.155.315.264.43.442.066.103.137.208.059.316-.094.13-.212.021-.315-.012-.048-.015-.089-.053-.133-.08-.116-.106-.262-.178-.354-.31z" fill="#327c69"/></g><defs><clipPath id="a"><path fill="#fff" d="M0 0h40v40H0z"/></clipPath></defs></svg>