<svg width="39" height="40" fill="none" xmlns="http://www.w3.org/2000/svg"><g clip-path="url(#a)" transform="matrix(1.4 0 0 1.4 -8 -8.028)"><g clip-path="url(#b)"><path d="M28.453 21.107c-.274.392-.604.73-.965 1.04-.811.697-1.732 1.213-2.709 1.634-1.128.485-2.3.821-3.507 1.043-.962.177-1.931.283-2.91.304-.294.012-.589.002-.883.005a11.852 11.852 0 0 1-1.824-.13 11.99 11.99 0 0 1-2.22-.522c-.695-.24-1.355-.548-1.952-.981-.446-.325-.835-.705-1.116-1.185a2.717 2.717 0 0 1-.333-.844c-.02-.103-.016-.21-.034-.313v-.535c.04-.09.038-.188.059-.281.148-.662.49-1.22.93-1.724.548-.625 1.204-1.118 1.915-1.541 1.116-.663 2.316-1.123 3.566-1.46a17.44 17.44 0 0 1 2.005-.413 18.111 18.111 0 0 1 3.38-.19c1.307.054 2.59.242 3.832.67.742.255 1.444.587 2.068 1.07.515.399.938.872 1.184 1.486.13.325.188.663.188 1.012-.026.021-.053.02-.08.004-.038-.067-.028-.142-.034-.212a2.383 2.383 0 0 0-.486-1.246 4.121 4.121 0 0 0-1.153-1.033c-.742-.462-1.552-.758-2.395-.973a12.893 12.893 0 0 0-1.745-.314c-.316-.036-.633-.055-.95-.076-.268-.018-.536-.016-.803-.017a16.3 16.3 0 0 0-1.12.033c-.663.044-1.322.122-1.976.24-.602.107-1.196.247-1.782.426-.562.171-1.113.371-1.645.618-.748.346-1.454.76-2.073 1.31-.404.36-.75.764-.997 1.248-.166.328-.26.68-.27 1.045-.01.394.087.767.271 1.118.226.43.55.776.93 1.074.558.439 1.188.746 1.853.989.774.282 1.574.46 2.39.573a16.652 16.652 0 0 0 2.628.136c.384-.01.768-.038 1.151-.075a17.214 17.214 0 0 0 1.804-.269 14.025 14.025 0 0 0 3.01-.957 8.62 8.62 0 0 0 1.913-1.161c.25-.205.488-.425.695-.676.015-.019.031-.039.054-.051.069.001.11.042.136.101z" fill="#429350"/><path d="m17.455 25.142-.003-.014h.91l-.002.014h-.905z" fill="#93b78d"/><path d="m29.046 19.248.08.005c.206.041.394.118.549.264.376.353.433.916.133 1.327a1.003 1.003 0 0 1-1.31.285l-.045-.022-.124-.094a.11.11 0 0 1-.065-.035 1.03 1.03 0 0 1-.067-1.37c.18-.212.407-.331.678-.373.057-.01.116-.021.17.013z" fill="#c63c37"/><path d="M29.046 19.248c-.344-.003-.633.119-.846.392a.998.998 0 0 0 .095 1.337l.034.036c-.567.683-1.278 1.182-2.053 1.598-1.04.557-2.15.93-3.298 1.19a17.1 17.1 0 0 1-4.245.416c-1.255-.033-2.49-.2-3.69-.581-.734-.233-1.433-.539-2.063-.989-.426-.305-.8-.662-1.061-1.122-.433-.764-.423-1.538-.03-2.314.281-.552.697-.993 1.172-1.38.762-.623 1.626-1.069 2.538-1.425.939-.366 1.909-.62 2.902-.792.98-.17 1.969-.254 2.964-.255 1.218 0 2.423.122 3.603.43.894.234 1.75.56 2.518 1.089.476.328.888.719 1.169 1.233.193.354.292.733.29 1.137z" fill="#fefefe"/><path d="M22.274 20.6c.19-.414.383-.826.57-1.24.03-.064.061-.086.13-.084.153.005.307.001.46.002.034 0 .078-.016.074.047-.003.042.005.075-.059.084-.18.025-.18.031-.181.211v1.272c0 .14.029.173.17.18.061.004.069.028.07.081.004.066-.036.055-.073.055h-.729c-.035 0-.069.005-.062-.048.004-.039-.014-.081.055-.087.171-.013.191-.029.194-.192.005-.359.001-.717.001-1.08-.034.014-.035.045-.045.069-.191.422-.38.846-.572 1.268-.016.035-.02.08-.08.08s-.067-.04-.084-.077l-.55-1.187-.052-.11c-.002.045-.004.068-.004.091 0 .298-.001.597.003.895.002.18.026.21.2.236.065.01.05.048.054.087.004.057-.036.044-.067.044h-.611c-.034 0-.07.008-.065-.047.004-.04-.01-.075.057-.083.186-.022.213-.052.215-.24.004-.412.003-.825.002-1.238 0-.158-.025-.178-.187-.189-.039-.002-.084.01-.083-.06 0-.057.013-.076.073-.075.162.005.324.004.486 0 .052 0 .076.016.098.064.18.4.365.798.548 1.197.011.025.017.053.044.074zM13.103 21.275a1.179 1.179 0 0 1-.437-.089c-.118-.042-.117-.04-.181.066-.03.05-.08.017-.122.023-.038.005-.032-.028-.035-.052-.032-.229-.065-.458-.095-.687-.003-.025-.036-.076.02-.078.048-.002.113-.036.142.042.035.091.077.179.133.26.13.186.301.302.538.299.149-.002.271-.058.33-.198a.363.363 0 0 0-.07-.411c-.05-.056-.114-.097-.176-.14-.187-.131-.394-.232-.573-.374-.33-.262-.353-.726-.045-.98.206-.17.444-.193.694-.118.07.021.14.039.208.063.06.022.103.003.115-.056.018-.083.079-.038.12-.046.052-.009.038.039.041.064.027.23.052.459.075.69.002.022.018.066-.029.06-.046-.007-.11.04-.137-.036-.025-.068-.042-.138-.071-.204a.587.587 0 0 0-.547-.357c-.121.005-.23.05-.274.17-.042.119-.028.236.073.33.164.154.366.253.553.373.108.07.215.14.305.233.384.395.227.972-.305 1.12a.799.799 0 0 1-.25.033zM20.145 20.3c.16.196.317.384.468.576.079.1.16.191.296.212.06.01.023.058.03.088.009.035-.016.04-.045.04-.142-.001-.284-.002-.427 0-.045 0-.062-.03-.084-.058l-.6-.741c-.016-.02-.03-.044-.05-.055-.03-.016-.067-.029-.067.03.001.178 0 .357.002.536.001.09.056.122.14.133.036.005.089-.012.108.034.027.066-.002.102-.074.102h-.72c-.033 0-.077.015-.074-.048.002-.042-.006-.074.057-.085.174-.031.176-.036.176-.217.002-.418.002-.837 0-1.255 0-.152-.025-.18-.177-.19-.065-.004-.058-.037-.062-.08-.004-.055.024-.057.065-.056.327.008.653-.016.98.015.092.01.18.036.262.077a.457.457 0 0 1 .271.427.457.457 0 0 1-.258.435c-.065.036-.136.056-.217.08zM27.229 20.298c.2.242.39.475.583.705.04.05.102.068.164.072.063.005.065.042.065.091 0 .061-.039.05-.073.05-.126 0-.252-.002-.377.001a.118.118 0 0 1-.106-.05c-.204-.255-.41-.507-.615-.76-.013-.016-.022-.036-.038-.044-.03-.015-.069-.028-.068.03.001.187 0 .373.007.56.004.106.094.105.167.11.064.006.085.031.078.094-.004.034-.018.041-.048.041h-.778c-.026 0-.046-.006-.04-.036.005-.03-.022-.068.02-.088.007-.004.016-.002.024-.004.186-.047.188-.047.188-.238.002-.402.001-.803 0-1.205 0-.187-.012-.203-.196-.226-.065-.008-.044-.05-.049-.084-.005-.042.016-.051.053-.05.327.009.653-.016.98.015.083.008.163.03.24.064a.461.461 0 0 1 .298.45c0 .215-.108.356-.296.444a.8.8 0 0 1-.183.058z" fill="#253c6b"/><path d="M19.107 20.645c-.046.172-.092.343-.136.514-.009.034-.03.033-.057.033h-1.49c-.044 0-.061-.012-.056-.055.005-.036-.014-.085.052-.079h.025c.138-.013.174-.049.175-.19v-.803c0-.156.002-.312 0-.468-.004-.156-.03-.185-.185-.195-.063-.004-.059-.036-.062-.08-.005-.056.026-.055.066-.055h1.449c.047-.001.06.013.06.06-.002.12.002.24.002.36 0 .025.02.07-.034.064-.043-.005-.105.035-.122-.046-.007-.038-.023-.074-.034-.111-.023-.08-.08-.116-.159-.125-.186-.02-.374-.011-.56-.014-.045 0-.06.021-.06.061v.544c-.001.038.015.047.05.047.142-.002.284 0 .426-.004.109-.004.133-.036.174-.177.008-.032-.007-.082.054-.089.093-.01.105-.002.105.093v.57c0 .031.01.072-.045.067-.042-.004-.09.022-.108-.053-.056-.221-.066-.225-.297-.225-.097 0-.195.002-.293-.001-.049-.002-.069.009-.068.063.004.187.003.374.001.56 0 .063.017.096.09.1.167.01.333.009.5-.012a.428.428 0 0 0 .349-.263c.052-.108.055-.106.188-.09z" fill="#253c6b"/><path d="M16.197 20.22v-.61c-.002-.168-.02-.19-.187-.209-.067-.007-.042-.05-.047-.084-.007-.041.012-.052.051-.05.312.009.625-.018.937.016.083.009.164.03.24.064.195.088.322.228.33.451.009.234-.086.408-.304.51-.19.088-.392.103-.596.092-.05-.003-.055.01-.054.05.001.145-.001.29.001.435.003.137.022.156.157.176.055.009.122 0 .105.094-.006.032-.017.042-.047.042h-.779c-.025 0-.046-.005-.04-.036.005-.03-.021-.067.02-.088.007-.004.016-.002.024-.004.186-.047.187-.047.188-.238.002-.203 0-.407 0-.61zM14.104 20.076v-.435c0-.197-.005-.204-.198-.235-.033-.005-.053-.006-.055-.05-.002-.06.01-.081.077-.08.242.005.485.002.728.002.034 0 .075-.013.071.05-.002.042.006.084-.06.08-.024-.002-.05.007-.074.01-.065.011-.108.042-.111.114-.001.036-.007.072-.007.108v.862c0 .064.007.128.014.192.022.195.135.314.33.343.074.011.15.011.225-.002.22-.037.334-.166.35-.391.025-.343.02-.686.005-1.028-.007-.162-.036-.187-.194-.207-.06-.008-.07-.03-.068-.083.002-.067.049-.04.078-.041.198-.002.396 0 .594-.002.042 0 .07.001.066.056-.003.044.003.077-.062.08-.154.009-.196.057-.199.228-.004.24-.002.48-.002.72 0 .125-.002.25-.028.373a.584.584 0 0 1-.503.49 1.13 1.13 0 0 1-.49-.01c-.305-.078-.479-.32-.486-.675-.003-.157 0-.313 0-.47zM26.074 19.6v.275c0 .024.02.066-.027.063-.04-.003-.097.034-.12-.035a1.658 1.658 0 0 0-.044-.117.566.566 0 0 0-.95-.169c-.273.293-.283.918-.02 1.217.226.255.618.284.928.068.05-.035.096-.077.14-.119.06-.057.084.005.12.032.047.035.017.057-.007.085-.401.465-1.054.416-1.384.16-.286-.222-.4-.52-.383-.873.02-.419.267-.767.639-.895a1.21 1.21 0 0 1 .683-.02c.09.02.199.116.278-.032.009-.016.07-.01.104-.005.036.006.019.042.02.063.007.1.011.2.016.301h.007z" fill="#253c6b"/><path d="M24.059 19.278c.131 0 .262.002.393 0 .043-.002.062.01.056.055-.004.033.013.066-.047.073-.23.024-.234.032-.234.26V20.853c.002.185.024.21.211.217.052.002.08.006.079.07-.001.071-.044.057-.083.057h-.762c-.036 0-.073.009-.07-.051.004-.044 0-.072.062-.08.208-.025.208-.03.209-.236v-1.187c0-.207-.005-.213-.211-.237-.039-.005-.066-.005-.066-.059.001-.052.013-.072.07-.07.13.004.262.001.393.001z" fill="#253c6b"/><path d="M19.655 19.81c0-.091.002-.183-.001-.275-.002-.053.018-.075.07-.078a.892.892 0 0 1 .306.035c.13.04.191.137.2.268.007.13-.024.244-.147.314a.79.79 0 0 1-.386.084c-.043 0-.042-.025-.042-.055v-.292z" fill="#fefefe"/><path d="M26.746 19.817c0-.095.002-.19-.001-.284-.002-.054.02-.074.072-.076.1-.004.2.004.297.033.126.037.192.128.203.256.011.128-.013.246-.133.32-.122.076-.26.09-.4.091-.047.001-.038-.03-.038-.057v-.283zM16.703 20.21c-.011 0-.023 0-.034.002-.073.01-.108-.01-.104-.097.007-.194.004-.389 0-.583 0-.056.02-.076.072-.076a.76.76 0 0 1 .302.052c.155.068.223.209.196.4-.023.164-.142.273-.324.295-.036.004-.072.005-.108.007z" fill="#fff"/></g></g><defs><clipPath id="a"><path fill="#fff" d="M0 0h39v40H0z"/></clipPath><clipPath id="b"><path fill="#fff" transform="translate(10 15)" d="M0 0h20v10.142H0z"/></clipPath></defs></svg>