<svg width="40" height="40" fill="none" xmlns="http://www.w3.org/2000/svg"><g clip-path="url(#a)" transform="matrix(1.4 0 0 1.4 -8.151 -8)"><g clip-path="url(#b)"><path d="M28.755 10.016v6.798c-.021.027-.051.03-.083.03-.34.002-.68.003-1.019 0-.09 0-.116-.03-.118-.122-.002-.099 0-.198 0-.297a5.896 5.896 0 0 0-.245-1.631 4.69 4.69 0 0 0-.77-1.527 4.315 4.315 0 0 0-.92-.892c-.609-.435-1.288-.695-2.02-.827a6.586 6.586 0 0 0-.793-.088c-.158-.009-.316-.01-.473-.01-.088 0-.097.01-.098.098v14.664c0 .424.078.835.267 1.22.167.34.413.611.745.8.316.181.66.275 1.02.308.403.036.806.024 1.21.027.042 0 .09-.011.123.033.01.022.009.046.009.07V29.9c0 .09-.003.092-.091.092H15.198c-.053-.023-.04-.071-.04-.111v-1.204c.004-.086.025-.11.112-.11.261-.003.524.005.785-.003.26-.008.519-.015.774-.07.35-.074.677-.202.957-.433.24-.196.42-.438.542-.724.134-.313.197-.642.217-.982.01-.165.01-.33.01-.495l.001-14.234c0-.19.012-.177-.175-.178a6.287 6.287 0 0 0-1.549.174 4.704 4.704 0 0 0-1.884.923c-.523.429-.923.953-1.21 1.565a5.312 5.312 0 0 0-.416 1.34 5.81 5.81 0 0 0-.087 1.05 1.04 1.04 0 0 0-.022.245c.003.055-.026.075-.078.075h-1.061c-.05 0-.076-.02-.072-.072.002-.021 0-.042 0-.064v-6.559c0-.033-.002-.066.004-.099a.038.038 0 0 1 .017-.021c.03-.008.061-.005.092-.005h16.537c.035 0 .071-.008.103.015z" fill="#ec0b79"/><path d="m28.755 23.201-1.055.002-2.853.001c-.058 0-.074-.014-.074-.073.002-1.284.002-2.568 0-3.852 0-.06.016-.073.074-.073 1.303.002 2.606.001 3.908.001v3.994z" fill="#ed0a79"/><path d="M25.57 28.597c.023.024.012.054.012.08L25.583 30H15.188l.003-.015h10.256l.057.001c.05.005.065-.016.065-.065-.002-.217-.001-.434 0-.651v-.673z" fill="#f16b97"/><path d="M13.204 16.484c.001.092.001.184.004.275.001.044-.02.057-.06.057h-1.083c-.045 0-.067-.015-.063-.061V10.11c0-.032-.01-.067.016-.095l-.002.085v6.603c0 .113-.017.1.102.1.335.001.67 0 1.005.002.06 0 .077-.017.076-.075-.003-.082-.009-.165.005-.247z" fill="#fcdee4"/><path d="M12.014 21.205c0-.64.001-1.28-.002-1.92 0-.066.02-.08.082-.079 1.275.002 2.549.002 3.824 0 .06 0 .078.012.078.076-.002 1.282-.002 2.564 0 3.845 0 .064-.018.077-.079.077-1.276-.002-2.553-.002-3.83 0-.058 0-.075-.013-.075-.073.003-.642.002-1.284.002-1.926z" fill="#ed0a79"/></g></g><defs><clipPath id="a"><path fill="#fff" d="M0 0h40v40H0z"/></clipPath><clipPath id="b"><path fill="#fff" transform="translate(12 10)" d="M0 0h16.755v20H0z"/></clipPath></defs></svg>