<svg width="40" height="40" fill="none" xmlns="http://www.w3.org/2000/svg"><g clip-path="url(#a)" transform="matrix(1.4 0 0 1.4 -7.996 -7.999)"><mask id="b" mask-type="alpha" maskUnits="userSpaceOnUse" x="10" y="14" width="20" height="12"><path fill="#fff" d="M10 14.132h20v11.736H10z"/></mask><g mask="url(#b)" fill-rule="evenodd" clip-rule="evenodd" fill="#9c1c26"><path d="M17.912 16.572h-2.758l-.02 9.291h-2.39v-9.271L10 16.572v-2.406h7.912zM24.787 16.186l1.399-2h2.572l-2.572 4.19 2.665 4.167h-2.616l-1.457-2.108-3.629 5.408h-2.591l4.86-7.457-2.68-4.2h2.656z"/><path d="M20.503 21.355c-.185 1.672-1.29 3.207-2.797 3.946-.689.327-1.447.543-2.288.533v-2.328a2.902 2.902 0 0 0 2.665-1.946c.064-.103.073-.27.103-.391l.02-7.037h2.307zM29.98 14.9a.653.653 0 0 0-.65-.65.65.65 0 1 0 .65.65zm-.073 0a.578.578 0 0 1-1.154 0 .577.577 0 0 1 1.154 0zm-.821.342h.093v-.308h.234c.152 0 .108.132.122.215l.015.093h.108c-.04-.064-.025-.078-.035-.171-.01-.122-.014-.137-.088-.181.069-.054.098-.088.093-.181-.01-.161-.117-.186-.23-.186h-.312zm.322-.636c.059 0 .147.015.132.137-.01.093-.068.108-.132.108h-.23v-.25z"/></g></g><defs><clipPath id="a"><path fill="#fff" d="M0 0h40v40H0z"/></clipPath></defs></svg>