<svg width="40" height="40" fill="none" xmlns="http://www.w3.org/2000/svg"><mask id="a" mask-type="alpha" maskUnits="userSpaceOnUse" x="10" y="17" width="20" height="5"><path fill="#fff" d="M10 17.5h20v4.303H10z"/></mask><g mask="url(#a)" transform="matrix(1.4 0 0 1.4 -8 -7.86)"><path fill-rule="evenodd" clip-rule="evenodd" d="M23.318 17.5c-.292-.005-.592.037-.773.126-.232.115-.253.156-.263.53-.005.173-.001.343.007.376.024.097.147.22.69.693.28.245.537.481.572.524.06.074.064.099.072.43l.009.35-.074.074c-.132.132-.467.138-.618.011-.076-.064-.076-.064-.076-.342v-.278h-.637v.249c0 .136.012.29.026.341.049.176.261.306.572.35.238.034.618.03.835-.01.232-.04.387-.11.492-.218l.074-.078.008-.412c.006-.39.003-.418-.052-.515-.037-.063-.267-.28-.619-.582-.308-.265-.585-.523-.617-.573-.05-.081-.057-.127-.057-.367 0-.255.005-.28.06-.335.11-.11.454-.117.588-.012.06.047.064.067.071.31l.007.26.312.008.312.007v-.25c-.001-.3-.048-.428-.189-.514-.154-.096-.44-.147-.732-.153zm4.652.001c-.328.001-.654.063-.807.163-.16.105-.185.183-.185.547 0 .283.006.329.055.408.03.049.317.318.637.598.358.314.598.544.626.599.034.069.044.154.044.374 0 .157-.011.314-.024.349-.039.101-.166.154-.37.154-.205 0-.332-.053-.37-.154a1.387 1.387 0 0 1-.025-.304v-.24h-.616l.008.311c.008.276.016.322.066.393.074.103.24.182.472.227.229.043.815.03 1.004-.023.175-.05.335-.14.4-.229.048-.064.055-.114.062-.453.011-.532.04-.487-.693-1.116-.325-.279-.605-.537-.621-.574-.019-.04-.031-.185-.031-.357 0-.28.002-.292.064-.34.135-.107.479-.1.59.01.054.054.059.081.059.316v.255h.615l-.008-.304-.009-.305-.086-.09c-.104-.106-.24-.156-.535-.196a2.382 2.382 0 0 0-.322-.019zm-17 .002c-.427.005-.743.104-.857.272-.058.086-.062.113-.062.423 0 .3.006.34.059.428.032.053.31.317.617.586.307.27.584.529.616.576.053.08.058.115.058.416 0 .327 0 .33-.072.4-.055.056-.107.078-.216.092-.222.027-.406-.03-.465-.144-.025-.048-.037-.151-.037-.314v-.244H10v.273c0 .368.042.46.263.567.086.042.232.086.323.099.62.086 1.206-.032 1.368-.274.054-.08.058-.113.057-.459 0-.309-.008-.389-.048-.477-.037-.082-.179-.218-.635-.61-.36-.308-.603-.536-.627-.586-.027-.057-.039-.162-.039-.352 0-.25.005-.276.06-.331.11-.11.454-.117.589-.01.062.048.065.061.065.315v.266h.611v-.282c0-.198-.011-.302-.037-.353-.083-.16-.35-.252-.791-.273a3.141 3.141 0 0 0-.19-.004zm7.614.006c-.234 0-.468.016-.586.048-.235.063-.382.16-.452.297-.057.113-.057.117-.056 1.375 0 1.174.004 1.27.048 1.366a.5.5 0 0 0 .116.158c.094.074.31.152.503.182.227.035.84.014 1.026-.036.223-.059.371-.158.44-.293.056-.113.057-.117.057-1.376s0-1.263-.058-1.376c-.069-.137-.216-.234-.452-.297a2.765 2.765 0 0 0-.586-.048zm1.452.008v3.42h.612v-1.528h.21c.316 0 .761-.046.887-.09a.601.601 0 0 0 .172-.096c.119-.109.132-.182.132-.755 0-.61-.02-.7-.17-.793-.18-.112-.313-.13-1.098-.144zm-5.17 0v3.42h.611l.006-1.573.006-1.573.395.002c.419.003.527.028.585.137.017.032.026.562.026 1.528v1.479h.613l-.007-1.54c-.007-1.509-.008-1.54-.06-1.61-.162-.217-.292-.242-1.329-.257zm9.493.006c-.002 0 .6 1.925.79 2.51l.042.127.147-.446c.08-.245.146-.472.147-.504.001-.033-.114-.425-.257-.873l-.26-.813zm-12.235 0c-.001 0 .612 1.94.786 2.471l.054.166.148-.459c.082-.252.148-.475.149-.496 0-.021-.116-.408-.26-.86l-.26-.821zm1.93 0-.039.122c-.119.363-1.314 4.11-1.327 4.158.207-.002.415 0 .622 0l.036-.121c.02-.067.324-1.022.676-2.124.351-1.101.64-2.01.64-2.019 0-.008-.137-.015-.304-.015zm12.225 0-.049.16-.677 2.121c-.344 1.08-.633 1.996-.633 1.998.205.002.41 0 .616 0l.05-.16.676-2.122c.345-1.08.626-1.97.626-1.98 0-.009-.137-.016-.305-.016zm3.318.012a.407.407 0 0 0-.403.41c0 .225.18.409.403.409a.406.406 0 0 0 .403-.41c0-.225-.18-.409-.403-.409zm0 .08c.18 0 .326.147.326.33 0 .182-.146.33-.326.33a.328.328 0 0 1-.325-.33c0-.183.146-.33.325-.33zm-.143.11v.46h.05v-.204h.06c.013 0 .023 0 .028.002a.073.073 0 0 1 .024.013.126.126 0 0 1 .025.03c.01.014.023.036.037.064l.051.095h.064l-.067-.125a.312.312 0 0 0-.042-.061.137.137 0 0 0-.031-.023.125.125 0 0 0 .082-.042.13.13 0 0 0 .027-.083.148.148 0 0 0-.017-.069.091.091 0 0 0-.042-.044.197.197 0 0 0-.079-.012zm-10.92.04c.149-.004.31.012.377.048.157.083.157.09.157 1.417 0 1.324 0 1.335-.154 1.415a.815.815 0 0 1-.276.051c-.298.014-.442-.038-.502-.181-.03-.07-.036-.309-.036-1.285 0-1.326 0-1.334.157-1.417a.744.744 0 0 1 .277-.047zm10.97.012h.123c.028 0 .05.006.063.02.013.014.02.032.02.054a.087.087 0 0 1-.01.041.062.062 0 0 1-.031.028.136.136 0 0 1-.054.009h-.11zm-8.856.001h.184c.298 0 .481.04.548.116.055.063.057.084.057.562 0 .308-.01.517-.028.549a.263.263 0 0 1-.113.088c-.057.023-.183.035-.367.035h-.281v-.675z" fill="#fff"/></g></svg>