<svg width="40" height="40" fill="none" xmlns="http://www.w3.org/2000/svg"><g clip-path="url(#a)" transform="matrix(1.4 0 0 1.4 -8 -8)"><mask id="b" mask-type="alpha" maskUnits="userSpaceOnUse" x="10" y="16" width="20" height="8"><path fill="#fff" d="M10 16.13h20v7.74H10z"/></mask><g mask="url(#b)"><mask id="c" mask-type="alpha" maskUnits="userSpaceOnUse" x="8" y="13" width="24" height="12"><path fill-rule="evenodd" clip-rule="evenodd" d="M8.465 24.435h23.443V13.07H8.465Z" fill="#fff"/></mask><g mask="url(#c)" fill-rule="evenodd" clip-rule="evenodd"><path d="M13.61 17.367a3.778 3.778 0 0 0-1.355-.283c-.422 0-.969.183-.969.842 0 1.05 2.696.607 2.696 2.637 0 1.327-1.066 1.83-2.308 1.83-.67 0-.97-.086-1.577-.233l-.002-1.094a3.488 3.488 0 0 0 1.509.374c.467 0 1.092-.235 1.092-.781 0-1.154-2.696-.677-2.696-2.681 0-1.353 1.066-1.848 2.15-1.848.529 0 1.022.07 1.471.217zM20.675 18.88a3.194 3.194 0 0 0-1.088-.186c-.308 0-.676.11-.676.48 0 .69 1.994.253 1.994 1.82 0 1.01-.915 1.414-1.848 1.414-.436 0-.881-.076-1.3-.185l.068-.927c.36.177.736.287 1.13.287.29 0 .752-.11.752-.53 0-.852-1.993-.27-1.993-1.837 0-.935.83-1.348 1.728-1.348.539 0 .89.085 1.249.16zM24.305 18.904a1.75 1.75 0 0 0-.778-.16c-.71 0-1.164.556-1.164 1.373 0 .8.385 1.415 1.189 1.415.325 0 .684-.118.88-.202l.052.935c-.333.1-.676.143-1.146.143-1.446 0-2.173-.969-2.173-2.29 0-1.256.753-2.25 2.13-2.25.462 0 .796.05 1.113.144zM26.916 21.532c.88 0 1.112-.775 1.112-1.499 0-.665-.36-1.288-1.112-1.288-.745 0-1.104.64-1.104 1.288 0 .716.231 1.5 1.103 1.5zm0-3.664c1.308 0 2.309.868 2.309 2.3 0 1.246-.847 2.24-2.31 2.24-1.453 0-2.3-.994-2.3-2.24 0-1.432 1-2.3 2.3-2.3zM17.843 17.91h-1.164l-2.189 5.96h1.052z" fill="#0081c6"/><path d="M13.086 17.803c.486.493.97 1.092 1.322 1.795.314.63.472 1.243.586 1.862.005.021.02.02.027.003.418-.73.674-1.725.3-2.474-.392-.786-1.334-1.147-2.219-1.22-.03-.001-.036.015-.016.034z" fill="#6db33f"/><path d="M29.203 17.963h-.157v-.057h.382v.057h-.158v.46h-.067zM29.922 18.196a4.715 4.715 0 0 1-.008-.223h-.002c-.019.06-.04.126-.065.197l-.092.25h-.05l-.085-.246a2.24 2.24 0 0 1-.058-.2h-.002a7.2 7.2 0 0 1-.01.228l-.014.221h-.063l.036-.516h.085l.088.25c.021.063.038.12.052.174h.001c.014-.052.033-.11.056-.175l.092-.25h.085l.032.517h-.066z" fill="#0081c6"/></g></g></g><defs><clipPath id="a"><path fill="#fff" d="M0 0h40v40H0z"/></clipPath></defs></svg>