<svg width="40" height="40" fill="none" xmlns="http://www.w3.org/2000/svg"><g clip-path="url(#a)" transform="matrix(1.4 0 0 1.4 -7.992 -7.992)"><mask id="b" mask-type="alpha" maskUnits="userSpaceOnUse" x="10" y="10" width="20" height="20"><path fill="#fff" d="M10 10h20v20H10z"/></mask><g mask="url(#b)" fill-rule="evenodd" clip-rule="evenodd" fill="#e50024"><path d="M19.12 10.037a9.858 9.858 0 0 1 4.506.661c2.66 1.041 4.823 3.279 5.762 5.977 1.11 3.045.57 6.62-1.382 9.205-1.722 2.367-4.532 3.916-7.46 4.059-2.658.173-5.36-.81-7.306-2.625-2.131-1.93-3.36-4.823-3.23-7.7a9.753 9.753 0 0 1 1.032-4.05c1.37-2.795 4.114-4.876 7.186-5.406.296-.045.591-.108.891-.12zm.038 3.344c-1.77.215-3.421 1.193-4.487 2.618a6.58 6.58 0 0 0-1.33 4.343 6.61 6.61 0 0 0 1.752 4.123c1.138 1.249 2.765 2.048 4.456 2.149a6.553 6.553 0 0 0 3.812-.924 6.744 6.744 0 0 0 2.9-3.547 6.568 6.568 0 0 0-.015-4.37 6.747 6.747 0 0 0-2.881-3.504 6.579 6.579 0 0 0-4.207-.888z"/><path d="M19.183 16.746a3.333 3.333 0 0 1 2.385.314 3.327 3.327 0 0 1 1.63 2.088 3.299 3.299 0 0 1-.35 2.507 3.331 3.331 0 0 1-2.031 1.541 3.299 3.299 0 0 1-2.51-.347 3.321 3.321 0 0 1-1.225-4.498 3.358 3.358 0 0 1 2.101-1.605z"/></g></g><defs><clipPath id="a"><path fill="#fff" d="M0 0h40v40H0z"/></clipPath></defs></svg>