<svg width="40" height="40" fill="none" xmlns="http://www.w3.org/2000/svg"><path fill-rule="evenodd" clip-rule="evenodd" d="M32.455 14.944v-3.383h-5.433l-.686 3.415h1.955l-.626 3.147H25.71l-.677 3.406c-.053.231-.092.398-.116.558-.16 1.046.295.993 1.758.993l-.67 3.35h-2.557c-2.417 0-4.384-.02-3.873-2.5.08-.379.177-.761.246-1.128l.914-4.676h-1.88l.627-3.147h1.88l.683-3.415h-1.757V6.402h-6.506v10.484H6c.193 2.719 2.598 3.114 3.475 5.046.605 1.33 1.133 3.676 2.897 3.692 1.351.017 1.351-1.749 3.091-1.749 1.738 0 2.51 3.302 4.055 6.02 1.158 2.134 3.083 3.567 4.826 3.69 1.432.099 2.125-.388 2.125-.388-.387-.777-.58-1.552-.58-2.719 0-1.748 1.352-3.494 2.897-4.658 2.124-1.552 4.442-2.14 5.214-2.329v-5.44s-1.545-.826-1.545-3.107zm-8.862 8.127 2.285-11.515h-2.633l-2.282 11.515zm2.991-15.156H23.95l-.503 2.54h2.632z" fill="#c00" style="stroke-width:1.4"/></svg>