<svg width="40" height="40" fill="none" xmlns="http://www.w3.org/2000/svg"><mask id="a" mask-type="alpha" maskUnits="userSpaceOnUse" x="10" y="17" width="20" height="6"><path fill="#fff" d="M10 17.75h20v4.5H10z"/></mask><g mask="url(#a)" transform="matrix(1.4 0 0 1.4 -8.004 -8.008)"><path fill-rule="evenodd" clip-rule="evenodd" d="M12.025 18.326v-.423h-1.902v.423h.652v1.84h.59v-1.84zm7.332 1.84a3.773 3.773 0 0 1-.025-.345v-.762c0-.316-.232-.513-.539-.513a.606.606 0 0 0-.523.279c-.066-.176-.26-.27-.442-.27-.22 0-.405.072-.508.27l-.013-.235h-.539v1.576h.558v-.95c0-.05-.022-.32.235-.32.173 0 .214.154.214.305v.965h.554v-.95c0-.05-.022-.32.235-.32.173 0 .213.154.213.305v.965zm-2.717-1.113v-.48c-.241-.003-.426.076-.498.317l-.012-.3h-.558c.012.128.012.3.012.404v1.172h.558v-.69c0-.26.075-.42.382-.426.038 0 .076 0 .116.003zm3.678-.507c-.514 0-.849.285-.849.827 0 .558.339.837.85.837.51 0 .849-.28.849-.837 0-.542-.336-.827-.85-.827zm0 .332c.235 0 .28.241.28.489 0 .288-.05.514-.28.514-.229 0-.279-.226-.279-.514 0-.251.044-.492.28-.492zm-6.575 1.288a3.365 3.365 0 0 1-.022-.345v-.762c0-.316-.235-.513-.542-.513a.658.658 0 0 0-.263.05.556.556 0 0 0-.2.16v-.853h-.558v2.263h.558v-.95c0-.05-.022-.32.235-.32.175 0 .213.154.213.304v.966h.58zm1.705-.68c.004-.567-.166-.94-.796-.94-.498 0-.795.307-.795.786 0 .59.21.878.824.878.19 0 .36-.044.488-.132a.567.567 0 0 0 .267-.432h-.527c-.015.144-.1.24-.266.24-.213 0-.257-.203-.254-.4zm-.532-.304h-.517c.012-.166.05-.335.257-.345a.207.207 0 0 1 .197.11.436.436 0 0 1 .063.238zM29.896 19.025v-.48c-.241-.003-.426.076-.498.317l-.013-.272h-.558c.013.128.013.3.013.404v1.172h.558v-.69c0-.26.075-.448.382-.454.038 0 .075 0 .116.003zm-2.902 1.141a3.349 3.349 0 0 1-.022-.345v-.762c0-.316-.235-.513-.542-.513a.626.626 0 0 0-.257.05.578.578 0 0 0-.207.16v-.853h-.558v2.263h.558v-.95c0-.05-.022-.32.235-.32.176 0 .214.154.214.305v.965h.58zm-1.722-.47c0-.245-.129-.364-.307-.43-.336-.119-.586-.125-.586-.25 0-.094.053-.148.143-.148.073 0 .12.02.151.05.028.032.04.082.04.151h.53c-.012-.414-.338-.524-.695-.524-.304 0-.7.107-.7.486 0 .552.894.408.894.702 0 .104-.085.15-.194.15a.174.174 0 0 1-.144-.075.201.201 0 0 1-.035-.153h-.533c-.01.47.339.555.725.555.36 0 .71-.132.71-.514zm3.43-.21c.004-.567-.166-.94-.796-.94-.498 0-.796.307-.796.786 0 .59.21.878.824.878.192 0 .36-.044.49-.132a.567.567 0 0 0 .266-.432h-.527c-.015.144-.1.24-.266.24-.213 0-.257-.203-.254-.4zm-.532-.304h-.517c.012-.166.05-.335.257-.345a.208.208 0 0 1 .197.11.437.437 0 0 1 .063.238zm-4.476-.593h-.558v1.577h.558zm-.731-.269.131-.417h-1.499v2.263h.59v-.89h.476l.13-.417h-.606v-.539h.778zm.73-.001.133-.416h-.55l-.133.416z" fill="#ef4135"/><path fill="#000" d="M15.242 20.829h.205v1.283h-.205z"/><path fill-rule="evenodd" clip-rule="evenodd" d="M29.015 22.134c-.427 0-.747-.237-.747-.654 0-.422.359-.678.76-.678.144 0 .302.047.403.113l-.105.124a.618.618 0 0 0-.295-.084.534.534 0 0 0-.406.157.526.526 0 0 0-.13.375c0 .18.055.28.152.375.098.097.248.123.395.123a.72.72 0 0 0 .324-.091l.1.12a.872.872 0 0 1-.45.12z" fill="#000"/><path fill="#000" d="M26.864 20.829h.205v1.283h-.205z"/><path fill-rule="evenodd" clip-rule="evenodd" d="M22.238 20.982h-.478v1.13h-.2v-1.13h-.474v-.153h1.175zM11.58 22.066a.814.814 0 0 1-.36.072c-.182 0-.367-.04-.52-.115l.085-.146c.149.075.29.108.448.108.102 0 .17-.018.233-.052.073-.04.113-.095.113-.166 0-.107-.083-.174-.281-.22l-.209-.049c-.207-.048-.338-.178-.338-.33 0-.219.215-.373.522-.373.178 0 .37.044.492.122l-.093.134a.795.795 0 0 0-.389-.103c-.182 0-.308.071-.308.191 0 .093.077.148.256.191l.193.046a.69.69 0 0 1 .284.13c.06.055.1.144.1.23 0 .13-.084.258-.227.33zM19.798 22.111l-.51-.684c-.096-.128-.257-.378-.257-.378s.018.217.02.406l.004.657h-.203v-1.283h.242l.515.698c.1.136.24.352.24.352s-.03-.237-.032-.407l-.004-.643h.201v1.282z" fill="#000"/><path fill="#000" d="M23.312 20.829h.205v1.283h-.205z"/><path fill-rule="evenodd" clip-rule="evenodd" d="M25.747 20.98h-.703v.38h.595v.15h-.595v.601h-.205V20.83h.936zM16.768 22.111V20.83h.946l-.027.153h-.714v.382h.609v.154h-.606v.433h.764v.16zM13.66 22.134c-.427 0-.747-.237-.747-.654 0-.422.359-.678.76-.678.144 0 .302.047.403.113l-.105.124a.618.618 0 0 0-.295-.084.534.534 0 0 0-.407.157.526.526 0 0 0-.13.375c0 .18.056.28.153.375.098.097.248.123.395.123a.72.72 0 0 0 .324-.091l.1.12a.871.871 0 0 1-.45.12z" fill="#000"/></g></svg>