<svg width="40" height="40" fill="none" xmlns="http://www.w3.org/2000/svg"><path fill-rule="evenodd" clip-rule="evenodd" d="M31.894 12.33C27.692 10.486 23.587 9.899 20 9.926c-3.587-.027-7.693.56-11.894 2.406-.501-.915-.706-1.47-.706-1.47C11.993 9.03 16.295 8.404 20 8.388c3.704.016 8.006.643 12.6 2.475 0 0-.144.45-.706 1.469zm-8.367 1.364L20 33.678 16.447 13.69c-3.337.002-4.396.374-4.55 1.89 0 0-2.255-.847-3.391-2.568 4.436-2.072 8.894-2.166 8.894-2.166L20 14.037l2.598-3.19s4.458.094 8.894 2.166c-1.137 1.721-3.39 2.568-3.39 2.568-.154-1.516-1.214-1.887-4.574-1.887z" fill="#e82227" style="stroke-width:1.4"/></svg>