<svg width="40" height="40" fill="none" xmlns="http://www.w3.org/2000/svg"><g clip-path="url(#a)" transform="matrix(1.4 0 0 1.4 -8 -8)"><mask id="b" mask-type="alpha" maskUnits="userSpaceOnUse" x="10" y="14" width="20" height="12"><path fill="#fff" d="M10 14.686h20v10.628H10z"/></mask><g mask="url(#b)"><path fill-rule="evenodd" clip-rule="evenodd" d="m24.042 21.178-1.837-6.492h-4.122v1.74c-.539-1.043-1.834-1.668-3.644-1.668-2.125 0-4.02 1-4.122 3.34h2.72c.087-.722.608-1.083 1.316-1.083.593 0 1.185.244 1.185.91 0 .954-1 1.04-1.793 1.04v1.78c.723 0 1.88.102 1.88 1.128 0 .593-.461 1.186-1.345 1.186-.94 0-1.446-.564-1.446-1.503H10c0 2.5 1.75 3.758 4.122 3.758 1.846 0 3.24-.562 3.961-1.648v1.433h3.067V21.57c0-.84-.116-2.242-.217-3.155h.029l1.894 6.682h2.371l1.895-6.682h.03a32.056 32.056 0 0 0-.218 3.5v3.184H30V14.686h-4.124zm-5.959-.943a2.349 2.349 0 0 0-.91-.615c.383-.176.7-.467.91-.832z" fill="#e82527"/></g></g><defs><clipPath id="a"><path fill="#fff" d="M0 0h40v40H0z"/></clipPath></defs></svg>