<svg width="40" height="40" fill="none" xmlns="http://www.w3.org/2000/svg"><g clip-path="url(#a)" transform="matrix(1.4 0 0 1.4 -7.99 -7.994)"><path d="M15.326 11.187c1.4-.743 2.98-1.135 4.563-1.156.05-.016.085.022.122.044-.044.053-.081.11-.115.17-.764 1.335-1.54 2.663-2.3 4 .821 1.404 1.623 2.82 2.443 4.224-1.627-.008-3.254-.002-4.88-.003-1.26 2.185-2.52 4.369-3.778 6.555A9.79 9.79 0 0 1 10 19.887a9.884 9.884 0 0 1 2.392-6.36 10.015 10.015 0 0 1 2.933-2.34z" fill="#5da2f4"/><path d="m19.957 10.083.055-.055c.712.014 1.424.085 2.119.243a10.003 10.003 0 0 1 7.535 7.372c.614 2.491.228 5.223-1.095 7.424-2.804-4.889-5.611-9.777-8.416-14.666-.063-.108-.12-.22-.198-.318z" fill="#0051ce"/><path d="M19.943 18.5c.015-.056.08-.004.088.029 1.735 3.034 3.475 6.065 5.212 9.098.11.198.231.391.335.594a9.976 9.976 0 0 1-3.922 1.579c-2.509.439-5.183-.127-7.285-1.575 1.856-3.242 3.716-6.483 5.572-9.725z" fill="#00cf86"/></g><defs><clipPath id="a"><path fill="#fff" d="M0 0h40v40H0z"/></clipPath></defs></svg>