<svg width="40" height="40" fill="none" xmlns="http://www.w3.org/2000/svg"><mask id="a" mask-type="alpha" maskUnits="userSpaceOnUse" x="10" y="10" width="20" height="20"><path fill="#fff" d="M10 10.578h20v18.845H10z"/></mask><g mask="url(#a)" transform="matrix(1.4 0 0 1.4 -8 -8)" fill-rule="evenodd" clip-rule="evenodd"><path d="m24.052 20.47-.396-5.125c-.019-.15.094-.189.226-.094l.696.471c1.715 1.244 2.223 2.6 2.562 4.86l.245 1.828c.02.15-.15.132-.282.057l-2.732-1.45c-.188-.096-.32-.34-.32-.548Zm1.544-6.557-4.313-3.278c-.208-.15-.603.019-.603.264l.15 10.003c.019.848.471 1.601 1.225 1.96l6.725 3.033c.678.3 1.319-.283 1.206-1.018l-.847-4.954c-.416-2.411-1.622-4.521-3.543-6.01z" fill="#4d4d4d"/><path d="m18.419 29.192-6.5-1.658c-.32-.094-.207-.32.076-.433l.414-.17c.565-.207 1.187-.263 1.771-.093l4.333 1.224c.32.094.942.264 1.206.189l.49-.132c.113-.038.056-.15-.132-.207l-4.107-1.225c-.716-.207-1.282-1.054.282-1.696l2.035-.83c.923-.357 2.468-.357 3.58.114l5.839 2.374c.358.15.32.376.075.433l-1.375.358c-.528.132-1.093.15-1.62-.019l-4.296-1.507c-.396-.132-.885-.32-1.206-.188l-.432.15c-.132.038-.15.189-.019.226l3.222 1.074c1.77.584 1.526 1.507.697 1.733l-1.357.34c-1.15.282-1.94.188-2.976-.058z" fill="#1a1a1a"/><path d="M11.184 18.02c-.038.226.19.49.377.34l4.558-3.128c.15-.114.226-.057.226.132l-.075 1.092c-.019.283-.207.453-.452.603l-3.673 2.355a1.1 1.1 0 0 0-.47.678l-.227 1.413c-.018.15.17.246.301.189l4.089-2.355c.094-.057.226.056.226.15l-.076 1.055a.59.59 0 0 1-.339.47l-5.18 2.752c-.282.15-.301.301-.358.565l-.094.453c-.132.772.509 1.413 1.206 1.11l6.726-3.032c.772-.358 1.224-1.187 1.243-2.035l.15-9.833c0-.264-.395-.509-.602-.34l-5.86 4.447c-.942.696-1.488 1.77-1.696 2.92z" fill="gray"/><path d="m24.052 20.47-.396-5.125c-.019-.15.094-.189.226-.094l.696.471c1.715 1.244 2.223 2.6 2.562 4.86l.245 1.828c.02.15-.15.132-.282.057l-2.732-1.45c-.188-.096-.32-.34-.32-.548Zm1.544-6.557-4.313-3.278c-.208-.15-.603.019-.603.264l.15 10.003c.019.848.471 1.601 1.225 1.96l6.725 3.033c.678.3 1.319-.283 1.206-1.018l-.847-4.954c-.416-2.411-1.622-4.521-3.543-6.01zM18.419 29.192l-6.5-1.658c-.32-.094-.207-.32.076-.433l.414-.17c.565-.207 1.187-.263 1.771-.093l4.333 1.224c.32.094.942.264 1.206.189l.49-.132c.113-.038.056-.15-.132-.207l-4.107-1.225c-.716-.207-1.282-1.054.282-1.696l2.035-.83c.923-.357 2.468-.357 3.58.114l5.839 2.374c.358.15.32.376.075.433l-1.375.358c-.528.132-1.093.15-1.62-.019l-4.296-1.507c-.396-.132-.885-.32-1.206-.188l-.432.15c-.132.038-.15.189-.019.226l3.222 1.074c1.77.584 1.526 1.507.697 1.733l-1.357.34c-1.15.282-1.94.188-2.976-.058zM11.184 18.02c-.038.226.19.49.377.34l4.558-3.128c.15-.114.226-.057.226.132l-.075 1.092c-.019.283-.207.453-.452.603l-3.673 2.355a1.1 1.1 0 0 0-.47.678l-.227 1.413c-.018.15.17.246.301.189l4.089-2.355c.094-.057.226.056.226.15l-.076 1.055a.59.59 0 0 1-.339.47l-5.18 2.752c-.282.15-.301.301-.358.565l-.094.453c-.132.772.509 1.413 1.206 1.11l6.726-3.032c.772-.358 1.224-1.187 1.243-2.035l.15-9.833c0-.264-.395-.509-.602-.34l-5.86 4.447c-.942.696-1.488 1.77-1.696 2.92z" fill="#000"/><path d="m24.052 20.47-.396-5.125c-.019-.15.094-.189.226-.094l.696.471c1.715 1.244 2.223 2.6 2.562 4.86l.245 1.828c.02.15-.15.132-.282.057l-2.732-1.45c-.188-.096-.32-.34-.32-.548Zm1.544-6.557-4.313-3.278c-.208-.15-.603.019-.603.264l.15 10.003c.019.848.471 1.601 1.225 1.96l6.725 3.033c.678.3 1.319-.283 1.206-1.018l-.847-4.954c-.416-2.411-1.622-4.521-3.543-6.01z" fill="#b3b3b3"/><path d="m18.419 29.192-6.5-1.658c-.32-.094-.207-.32.076-.433l.414-.17c.565-.207 1.187-.263 1.771-.093l4.333 1.224c.32.094.942.264 1.206.189l.49-.132c.113-.038.056-.15-.132-.207l-4.107-1.225c-.716-.207-1.282-1.054.282-1.696l2.035-.83c.923-.357 2.468-.357 3.58.114l5.839 2.374c.358.15.32.376.075.433l-1.375.358c-.528.132-1.093.15-1.62-.019l-4.296-1.507c-.396-.132-.885-.32-1.206-.188l-.432.15c-.132.038-.15.189-.019.226l3.222 1.074c1.77.584 1.526 1.507.697 1.733l-1.357.34c-1.15.282-1.94.188-2.976-.058z" fill="gray"/><path d="M11.184 18.02c-.038.226.19.49.377.34l4.558-3.128c.15-.114.226-.057.226.132l-.075 1.092c-.019.283-.207.453-.452.603l-3.673 2.355a1.1 1.1 0 0 0-.47.678l-.227 1.413c-.018.15.17.246.301.189l4.089-2.355c.094-.057.226.056.226.15l-.076 1.055a.59.59 0 0 1-.339.47l-5.18 2.752c-.282.15-.301.301-.358.565l-.094.453c-.132.772.509 1.413 1.206 1.11l6.726-3.032c.772-.358 1.224-1.187 1.243-2.035l.15-9.833c0-.264-.395-.509-.602-.34l-5.86 4.447c-.942.696-1.488 1.77-1.696 2.92z" fill="#f0f0f0"/><path d="m24.052 20.47-.396-5.125c-.019-.15.094-.189.226-.094l.696.471c1.715 1.244 2.223 2.6 2.562 4.86l.245 1.828c.02.15-.15.132-.282.057l-2.732-1.45c-.188-.096-.32-.34-.32-.548Zm1.544-6.557-4.313-3.278c-.208-.15-.603.019-.603.264l.15 10.003c.019.848.471 1.601 1.225 1.96l6.725 3.033c.678.3 1.319-.283 1.206-1.018l-.847-4.954c-.416-2.411-1.622-4.521-3.543-6.01z" fill="#4d4d4d"/><path d="m18.419 29.192-6.5-1.658c-.32-.094-.207-.32.076-.433l.414-.17c.565-.207 1.187-.263 1.771-.093l4.333 1.224c.32.094.942.264 1.206.189l.49-.132c.113-.038.056-.15-.132-.207l-4.107-1.225c-.716-.207-1.282-1.054.282-1.696l2.035-.83c.923-.357 2.468-.357 3.58.114l5.839 2.374c.358.15.32.376.075.433l-1.375.358c-.528.132-1.093.15-1.62-.019l-4.296-1.507c-.396-.132-.885-.32-1.206-.188l-.432.15c-.132.038-.15.189-.019.226l3.222 1.074c1.77.584 1.526 1.507.697 1.733l-1.357.34c-1.15.282-1.94.188-2.976-.058z" fill="#1a1a1a"/><path d="M11.184 18.02c-.038.226.19.49.377.34l4.558-3.128c.15-.114.226-.057.226.132l-.075 1.092c-.019.283-.207.453-.452.603l-3.673 2.355a1.1 1.1 0 0 0-.47.678l-.227 1.413c-.018.15.17.246.301.189l4.089-2.355c.094-.057.226.056.226.15l-.076 1.055a.59.59 0 0 1-.339.47l-5.18 2.752c-.282.15-.301.301-.358.565l-.094.453c-.132.772.509 1.413 1.206 1.11l6.726-3.032c.772-.358 1.224-1.187 1.243-2.035l.15-9.833c0-.264-.395-.509-.602-.34l-5.86 4.447c-.942.696-1.488 1.77-1.696 2.92z" fill="gray"/></g></svg>