<svg width="40" height="40" fill="none" xmlns="http://www.w3.org/2000/svg"><path fill-rule="evenodd" clip-rule="evenodd" d="M13.36 6v4.351h4.464v11.39h4.314V6Z" fill="#009bdf" style="stroke-width:1.4"/><path fill-rule="evenodd" clip-rule="evenodd" d="M11.014 20.719a8.926 8.926 0 0 1 4.692-7.87H9.31a13.187 13.187 0 0 0-2.611 7.87c0 5.865 3.784 10.822 9.081 12.6v-4.654a8.995 8.995 0 0 1-4.767-7.946zM24.294 8.157v4.692a8.926 8.926 0 0 1 4.692 7.87 8.962 8.962 0 0 1-8.967 8.967c-.757 0-1.476-.075-2.157-.264v4.389c.681.113 1.4.189 2.157.189 7.34 0 13.28-5.94 13.28-13.281-.037-5.827-3.783-10.746-9.005-12.562Z" fill="#009bdf" style="stroke-width:1.4"/></svg>