<svg width="40" height="40" fill="none" xmlns="http://www.w3.org/2000/svg"><mask id="a" mask-type="alpha" maskUnits="userSpaceOnUse" x="10" y="8" width="20" height="24"><path fill="#fff" d="M10 8.485h20v23.031H10z"/></mask><g mask="url(#a)" transform="matrix(1.4 0 0 1.4 -8 -8)"><path fill-rule="evenodd" clip-rule="evenodd" d="M22.97 30.004c-2.274.152-2.965 1.511-2.965 1.511s-.686-1.511-2.965-1.511c-1.295 0-3.045-.238-4.734-1.674A6.514 6.514 0 0 1 10 23.358c0-1.65.517-2.97.969-4.068.213-.518.428-1.018.588-1.523.15-.47.235-.903.235-1.34 0-.868-.353-1.65-.927-2.217l-.67-.662 4.746-5.063.66.367A9.021 9.021 0 0 0 20 9.99 9.019 9.019 0 0 0 24.4 8.852l.66-.367 4.745 5.063-.67.662a3.102 3.102 0 0 0-.927 2.218c0 .436.086.87.235 1.34.16.504.375 1.004.588 1.522.452 1.098.969 2.418.969 4.068a6.513 6.513 0 0 1-2.306 4.972c-1.688 1.436-3.431 1.587-4.723 1.674z" fill="#fff"/><path fill-rule="evenodd" clip-rule="evenodd" d="M20 10.957a9.99 9.99 0 0 1-4.87-1.26l-3.585 3.825a4.07 4.07 0 0 1 1.215 2.906c0 2.263-1.793 4.041-1.793 6.93 0 1.698.766 3.215 1.966 4.235 2.869 2.44 5.9.564 7.067 2.555 1.166-1.991 4.199-.115 7.067-2.555a5.546 5.546 0 0 0 1.966-4.235c0-2.889-1.792-4.667-1.792-6.93a4.07 4.07 0 0 1 1.214-2.906L24.87 9.697a9.986 9.986 0 0 1-4.87 1.26z" fill="#00529b"/><path fill-rule="evenodd" clip-rule="evenodd" d="M12.412 26.738a5.3 5.3 0 0 1-1.217-3.38c0-1.396.432-2.527.879-3.613.115-.28.23-.554.338-.827v7.819zM13.791 27.93v-9.012h1.383v9.613a5.307 5.307 0 0 1-1.383-.601zM16.551 28.775v-9.857h1.381v9.953c-.258-.024-.53-.04-.812-.06-.184-.012-.378-.019-.569-.036zM27.588 26.738a5.3 5.3 0 0 0 1.216-3.38c0-1.396-.432-2.527-.879-3.613-.115-.28-.23-.554-.338-.827v7.819zM26.208 27.93v-9.012h-1.383v9.613a5.306 5.306 0 0 0 1.383-.601zM23.448 28.775v-9.857h-1.381v9.953c.258-.024.53-.04.812-.06.184-.012.379-.019.569-.036zM20 29.748a2.026 2.026 0 0 0-.684-.543V18.918h1.367v10.287a2.028 2.028 0 0 0-.683.543z" fill="#ef3e42"/><path fill-rule="evenodd" clip-rule="evenodd" d="M13.792 27.931a5.435 5.435 0 0 1-1.385-1.197l.005.003v-7.819h1.38zM16.551 28.768a7.923 7.923 0 0 1-1.377-.237v-9.613h1.377zM17.932 28.871v-9.953h1.384v10.286a2.68 2.68 0 0 0-.446-.171 4.897 4.897 0 0 0-.839-.152zM26.208 27.931a5.434 5.434 0 0 0 1.385-1.197l-.005.003v-7.819h-1.38zM23.448 28.768a7.924 7.924 0 0 0 1.377-.237v-9.613h-1.377zM22.067 28.871v-9.953h-1.384v10.286c.141-.07.29-.126.446-.171.259-.075.54-.12.839-.152zM23.688 15.37h-.626v2.126h.626zM22.662 15.846v-.477h-1.446v2.127h.63v-.74h.816v-.498h-.815v-.412zM20.771 15.37h-.626v2.126h.626zM15.344 15.37a.719.719 0 0 1-.003 1.438h-.411v.689h-.585v-2.128h1zM16.6 17.13l-.13.367h-.592l.768-2.128h.705l.767 2.128h-.592l-.129-.366ZM18.659 16.464a.518.518 0 0 1 .52-.545c.146-.004.336.073.534.124v-.586a1.278 1.278 0 0 0-.513-.132c-.599 0-1.129.454-1.129 1.133 0 .68.53 1.134 1.129 1.134.162 0 .418-.073.513-.132v-.586c-.198.051-.388.128-.535.124a.518.518 0 0 1-.52-.545v.01zM24.6 16.464a.518.518 0 0 1 .52-.545c.148-.004.338.073.535.124v-.586a1.278 1.278 0 0 0-.513-.132c-.598 0-1.128.454-1.128 1.133 0 .68.53 1.134 1.128 1.134.162 0 .419-.073.513-.132v-.586c-.197.051-.387.128-.534.124a.518.518 0 0 1-.52-.545z" fill="#fff"/><path fill-rule="evenodd" clip-rule="evenodd" d="m17.219 16.648-.22-.683h-.005l-.222.683zM14.93 15.843h.373c.123 0 .222.1.222.224 0 .123-.1.256-.223.256h-.373z" fill="#00529b"/><path fill-rule="evenodd" clip-rule="evenodd" d="M20.282 12.399h-.626v2.127h.626zM20.644 13.466c0-.618.506-1.118 1.13-1.118.623 0 1.128.5 1.128 1.118 0 .617-.505 1.118-1.129 1.118-.623 0-1.129-.5-1.129-1.118zM23.292 14.525h.602v-1.071h.006l.722 1.072h.683v-2.127h-.648v1.123h-.006l-.724-1.123h-.635ZM17.11 14.525h.603v-1.071h.006l.721 1.072h.683v-2.127h-.647v1.123h-.006l-.724-1.123h-.635z" fill="#fff"/><path fill-rule="evenodd" clip-rule="evenodd" d="M21.241 13.466a.53.53 0 0 1 .532-.527.53.53 0 0 1 .533.527.53.53 0 0 1-.533.527.53.53 0 0 1-.532-.527z" fill="#00529b"/><path fill-rule="evenodd" clip-rule="evenodd" d="M15.949 12.397h.616v1.185c0 .27-.012.539-.225.743-.179.173-.46.234-.71.234-.25 0-.53-.061-.71-.234-.213-.204-.224-.472-.224-.743v-1.185h.616v1.032c0 .274-.04.573.318.573s.319-.299.319-.573v-1.032z" fill="#fff"/><path d="m15.174 28.53-.086.313zm-1.383-.6-.169.276zm-.71-.51-.21.246zm-.633-.662.324.007.003-.192-.166-.096zm-.374-7.013.3.123zm15.851 0-.3.123zm-.337 7.013-.161-.28-.175.099.012.2zm-.669.662.21.246zm-.711.512.17.276zm-1.383.599.086.312zm-1.377.237-.03-.323zm-.569.043-.021-.323zm-1.75.224-.09-.312zm-.446.171.144.29zm-.683.542-.252.205.252.31.251-.31zm-.683-.543-.145.29zm-.447-.172.09-.311zm-1.75-.222.022-.323zm-.539-.366a7.605 7.605 0 0 1-1.321-.227l-.172.625c.495.136.975.204 1.433.247zm-1.321-.227a4.983 4.983 0 0 1-1.3-.565l-.338.553c.493.302.98.503 1.466.637zm-1.3-.565a5.338 5.338 0 0 1-.67-.48l-.42.493c.25.213.507.39.752.54zm-.67-.48a5.112 5.112 0 0 1-.633-.644l-.5.412c.215.262.454.505.713.725zm-1.045-.157.041.023.323-.562-.041-.023zm-.121-.264v.018l.647.012v-.017zm.537-.22a4.975 4.975 0 0 1-1.142-3.174h-.648c0 1.363.487 2.61 1.29 3.586zm-1.142-3.174c0-1.327.409-2.407.854-3.49l-.599-.246c-.448 1.09-.903 2.27-.903 3.736zm.854-3.49c.115-.277.231-.555.34-.83l-.603-.239c-.106.27-.22.54-.336.823zm.038-.626h15.177v-.648H12.41Zm14.875-.205c.11.276.226.554.34.831l.599-.246c-.116-.282-.23-.553-.336-.823zm.34.831c.446 1.083.854 2.163.854 3.49h.648c0-1.465-.455-2.647-.903-3.736zm.854 3.49c0 1.205-.43 2.31-1.142 3.174l.5.412a5.623 5.623 0 0 0 1.29-3.586zm-.568 3.399v-.018l-.648.038.001.018zm-.163.282.04-.023-.321-.562-.041.023zm-.407-.51a5.11 5.11 0 0 1-.633.644l.42.493a5.77 5.77 0 0 0 .714-.725zm-.633.644a5.368 5.368 0 0 1-.67.482l.338.553c.247-.151.503-.33.752-.542zm-.67.482a4.975 4.975 0 0 1-1.3.563l.172.625a5.624 5.624 0 0 0 1.466-.635zm-1.3.563a7.608 7.608 0 0 1-1.321.227l.06.645a8.255 8.255 0 0 0 1.433-.247zm-1.321.227c-.186.017-.376.03-.56.043l.043.647c.185-.013.382-.027.577-.045zm-.56.043c-.28.019-.557.036-.822.06l.062.646c.252-.024.517-.04.803-.06zm-.915.084-.099.04.247.6.1-.041zm-.01-.01c-.308.032-.61.08-.893.161l.18.623c.233-.067.493-.11.782-.14zm-.894.161c-.17.05-.339.112-.5.193l.288.58c.121-.06.252-.11.392-.15zm-.5.193a2.349 2.349 0 0 0-.79.628l.502.409a1.7 1.7 0 0 1 .576-.457zm-.288.628a2.35 2.35 0 0 0-.79-.63l-.289.581c.218.108.411.255.576.458zm-.79-.63a2.987 2.987 0 0 0-.501-.192l-.18.622c.139.04.27.09.392.151zm-.501-.193a5.212 5.212 0 0 0-.895-.162l-.068.645c.29.03.55.073.783.14zm-.805-.108-.1-.041-.246.599.099.04zm-.192-.064c-.264-.025-.543-.042-.821-.06l-.044.646c.286.019.551.035.803.059zm-.821-.06a21.376 21.376 0 0 1-.56-.044l-.061.645c.195.018.393.032.577.045z" fill="#00529b"/></g></svg>