<svg width="40" height="40" fill="none" xmlns="http://www.w3.org/2000/svg"><path fill-rule="evenodd" clip-rule="evenodd" d="M8.103 23.358a2.393 2.393 0 0 1-.492-.805 2.938 2.938 0 0 1-.177-1.044v-5.897H6v5.979c0 .564.094 1.076.28 1.535.187.46.442.853.765 1.18.323.329.705.581 1.146.759a3.79 3.79 0 0 0 1.427.266c.5 0 .967-.091 1.399-.273a3.29 3.29 0 0 0 1.126-.778v.887h1.42v-9.555H12.13v5.897c0 .382-.06.728-.178 1.037-.118.31-.284.576-.498.799a2.266 2.266 0 0 1-.75.518 2.316 2.316 0 0 1-.922.185c-.337 0-.649-.06-.935-.178a2.115 2.115 0 0 1-.744-.512Zm7.93-7.746v3.48a3.652 3.652 0 0 1 1.106-.757c.419-.187.874-.28 1.365-.28a3.659 3.659 0 0 1 2.594 1.065 3.66 3.66 0 0 1 1.065 2.58c0 .5-.096.971-.287 1.413-.191.44-.45.825-.778 1.153a3.661 3.661 0 0 1-2.594 1.065c-.491 0-.948-.093-1.372-.28a3.626 3.626 0 0 1-1.112-.758v.874h-1.365v-9.555zm.157 7.03c.123.29.294.546.512.764.219.218.474.391.765.519.291.127.605.191.942.191.327 0 .637-.064.928-.191.291-.128.544-.3.758-.519.213-.218.384-.473.511-.764.128-.292.192-.606.192-.942 0-.337-.064-.653-.192-.95a2.51 2.51 0 0 0-.511-.77 2.365 2.365 0 0 0-1.686-.696 2.379 2.379 0 0 0-2.211 1.467 2.373 2.373 0 0 0-.192.949c0 .336.062.65.184.942zm7.501-3.502a3.712 3.712 0 0 0-.75 1.154 3.582 3.582 0 0 0-.273 1.392 3.585 3.585 0 0 0 2.245 3.358c.45.182.935.273 1.454.273.637 0 1.21-.132 1.72-.396s.937-.628 1.283-1.092l-.996-.737c-.51.683-1.179 1.024-2.007 1.024-.291 0-.567-.05-.826-.15a2.341 2.341 0 0 1-1.208-1.045 2.333 2.333 0 0 1-.273-.784h5.665v-.45c0-.52-.086-1-.26-1.441a3.464 3.464 0 0 0-.723-1.147 3.302 3.302 0 0 0-1.106-.757 3.519 3.519 0 0 0-1.392-.273 3.503 3.503 0 0 0-2.553 1.071zm.396 1.905c.128-.537.385-.967.772-1.29.386-.324.84-.485 1.358-.485.519 0 .971.161 1.358.485.387.323.64.753.758 1.29zm7.781.163c0-.546.146-.978.437-1.297.291-.318.664-.477 1.12-.477h.573V18.15h-.478c-.382 0-.712.081-.99.245a1.94 1.94 0 0 0-.676.67v-.86H30.49v6.961h1.38z" fill="#fff" style="stroke-width:1.4"/></svg>