<svg width="40" height="40" fill="none" xmlns="http://www.w3.org/2000/svg"><g clip-path="url(#a)" transform="matrix(1.4 0 0 1.4 -8 -7.996)"><mask id="b" mask-type="alpha" maskUnits="userSpaceOnUse" x="10" y="17" width="20" height="6"><path fill="#fff" d="M10 17.489h20v5.022H10z"/></mask><g mask="url(#b)" fill-rule="evenodd" clip-rule="evenodd"><path d="M10 17.489h6.583v3.883l-3.291 1.121L10 21.373Z" fill="#dd1f2c"/><path d="M16.95 17.489h1.041v1.327H18a.894.894 0 0 1 .744-.368c.915 0 1.166.78 1.166 1.418 0 .681-.376 1.443-1.148 1.443-.51 0-.672-.197-.798-.367h-.009v.296h-1.004zm1.463 1.722c-.377 0-.458.35-.458.672 0 .323.08.682.458.682.376 0 .457-.35.457-.682 0-.322-.08-.672-.457-.672zM22.816 20.637c0 .206.01.44.126.61h-1.068a.652.652 0 0 1-.035-.26c-.225.25-.539.322-.88.322-.529 0-.959-.25-.959-.825 0-.86 1.014-.834 1.543-.932.143-.027.287-.072.287-.243 0-.188-.17-.25-.341-.25-.323 0-.386.16-.386.277h-.969c.036-.771.763-.897 1.409-.897 1.309 0 1.291.539 1.291 1.068v1.13m-1.013-.61a2.013 2.013 0 0 1-.413.134c-.233.054-.35.108-.35.296 0 .126.135.251.323.251.233 0 .422-.143.44-.43zM23.193 18.52h1.004v.35h.01c.197-.278.475-.413.887-.413.493 0 .933.296.933.924v1.874h-1.04V19.82c0-.313-.036-.538-.341-.538-.18 0-.413.09-.413.53v1.443h-1.04zM26.404 17.489h1.04v1.82l.664-.789h1.184l-.978 1.031 1.13 1.696H28.19l-.556-.987-.189.197v.79h-1.04zM13.291 21.247V18.52h-1.049v1.444c0 .44-.233.53-.413.53-.304 0-.34-.225-.34-.539V18.52h-1.04v1.875c0 .628.448.924.932.924.413 0 .69-.144.888-.413h.009v.35zm1.937-1.937h.951c-.027-.7-.735-.861-1.327-.861-.547 0-1.292.179-1.292.87 0 .466.323.717 1.113.86.484.081.574.135.574.287 0 .162-.216.207-.35.207a.446.446 0 0 1-.278-.081c-.081-.072-.126-.143-.126-.242h-.995c.018.708.717.96 1.363.96.664 0 1.39-.207 1.39-.96 0-.449-.305-.655-.655-.763-.35-.116-.744-.134-.915-.206-.053-.027-.125-.063-.125-.143 0-.18.17-.207.314-.207.08 0 .17.027.233.081.072.045.126.108.126.198zM29.901 20.87c.036.045.063.09.063.143a.21.21 0 0 1-.063.153.191.191 0 0 1-.143.063.178.178 0 0 1-.144-.063.234.234 0 0 1-.063-.152c0-.054.018-.108.063-.144a.19.19 0 0 1 .144-.063.262.262 0 0 1 .143.063zm.027-.018a.245.245 0 0 0-.17-.072.245.245 0 0 0-.242.242.23.23 0 0 0 .071.17.245.245 0 0 0 .17.073.245.245 0 0 0 .243-.243.23.23 0 0 0-.072-.17zm-.134.162c-.01 0-.027.008-.045.008h-.045v-.098h.036c.027 0 .045 0 .054.009.009.009.018.018.018.036.009.018 0 .036-.018.045zm-.135.143h.045v-.108h.036c.027 0 .045 0 .054.01.018.008.027.026.027.062v.027h.044v-.054c0-.009-.009-.027-.018-.045a.05.05 0 0 0-.044-.027c.018 0 .026-.008.035-.008.018-.01.027-.027.027-.054 0-.036-.017-.054-.044-.063-.018-.01-.036-.01-.072-.01h-.09z" fill="#fff"/></g></g><defs><clipPath id="a"><path fill="#fff" d="M0 0h40v40H0z"/></clipPath></defs></svg>