<svg width="40" height="40" fill="none" xmlns="http://www.w3.org/2000/svg"><g clip-path="url(#a)" transform="matrix(1.4 0 0 1.4 -8 -8)"><path fill-rule="evenodd" clip-rule="evenodd" d="M30 10.002v19.996h-4.143c.875-2.298 1.072-5.138.455-7.629-.749-3.165-2.82-6.173-5.756-8.03-2.773-1.766-6.295-2.461-9.759-1.746l-.797.194v-2.785h20zm-14.495 3.136c-1.062-.587-2.462-.672-3.717-.459l.444.05.063-.03c.581-.042 1.192-.022 1.734.096a7.11 7.11 0 0 0-.695.24c.119.044.273.122.38.19.311-.104.628-.191.95-.261.208.064.75.313 1.086.56-.398.041-.94.119-1.376.22.102.091.191.197.267.316.52-.093 1.048-.15 1.576-.17.272.234.493.516.644.809a12.26 12.26 0 0 0-1.849.02c.048.088.117.305.147.438.593-.026 1.564.017 1.97.076.133.322.21.667.241 1.03-.68-.135-1.479-.247-2.104-.277.008.2 0 .393-.019.582.743.076 1.463.21 2.161.392-.008.355-.06.795-.155 1.136a17.755 17.755 0 0 0-2.186-.612c-.074.31-.177.61-.306.9.731.245 1.454.563 2.147.906-.116.335-.26.66-.433.97-.693-.388-1.406-.77-2.113-1.071-.221.4-.47.783-.743 1.15.685.42 1.348.874 1.989 1.36-.195.282-.472.624-.642.827-.618-.515-1.89-1.53-1.89-1.53-.378.454-.697.79-1.17 1.154.57.587 1.116 1.197 1.635 1.83-.21.22-.443.419-.694.59a51.236 51.236 0 0 1-1.508-1.945c-.51.4-.82.616-1.339.886v.746l.827 1.655a3.596 3.596 0 0 1-.58.296L10 25.727v.87c3.19-1.418 6.432-4.54 7.377-7.932.345-1.171.407-2.68-.158-3.773-.332-.718-1.004-1.388-1.714-1.754m-.475-.492c.14.045.272.107.404.165l.075-.012c.671.11 1.318.332 1.915.658-.316.002-.645-.003-.96.022.132.12.271.258.387.384.417-.008.834.001 1.25.028.404.297.817.697 1.047 1.107a13.591 13.591 0 0 0-1.706-.251c.077.173.152.352.217.535a19.02 19.02 0 0 1 1.908.37c.204.425.361.874.427 1.346-.686-.245-1.39-.476-2.11-.623.018.23.018.473.02.709.745.216 1.471.465 2.176.784.005.46-.047.919-.154 1.366-.71-.354-1.432-.701-2.183-.957a9.705 9.705 0 0 1-.368 1.228c.722.372 1.438.748 2.12 1.193-.139.392-.318.768-.535 1.122-.67-.457-1.34-.903-2.04-1.293a8.135 8.135 0 0 1-.896 1.463 36.35 36.35 0 0 1 1.862 1.546c-.226.34-.48.658-.76.954-.44-.462-1.17-1.117-1.778-1.632-.43.521-.94 1.096-1.454 1.524.391.41 1.553 1.812 1.553 1.812a6.868 6.868 0 0 1-.82.683s-1.184-1.521-1.479-1.887c-.7.556-1.263.946-2.083 1.382a91.79 91.79 0 0 1 1.134 2.056 3.63 3.63 0 0 1-.643.326c-.38-.633-.838-1.55-1.083-2.074-.235.13-.473.213-.473.213v2.736c2.473-.802 4.75-2.223 6.68-4.278 1.759-1.904 3.147-3.962 3.561-6.42.33-1.96-.32-3.804-1.875-5.053-.943-.806-2.114-1.09-3.336-1.232m-.822 1.307c-1.084-1.097-2.746-1.188-4.208-.843v.133c.35-.079.706-.121 1.065-.127-.235.146-.46.309-.671.487.088.02.182.048.265.084.294-.211.6-.407.916-.585.345.002.793.067 1.086.183-.482.174-1.065.441-1.442.693a.84.84 0 0 1 .196.155c.537-.28 1.097-.516 1.673-.706.257.103.534.287.693.44-.696.165-1.364.349-2.035.622.066.076.134.192.168.263a17.214 17.214 0 0 1 2.185-.592c.136.145.298.38.383.596-.823.087-1.766.23-2.399.41.038.108.062.212.082.311a16.91 16.91 0 0 1 2.48-.295c.078.241.119.5.12.765a16.364 16.364 0 0 0-2.562.061c0 .1-.013.297-.027.42a17.897 17.897 0 0 1 2.563.09c-.031.25-.093.574-.174.854a15.48 15.48 0 0 0-2.518-.35c-.042.19-.105.374-.188.55a15.46 15.46 0 0 1 2.411.654 7.377 7.377 0 0 1-.37.745 17.829 17.829 0 0 0-2.314-.858 4.3 4.3 0 0 1-.491.77c.492.239 1.435.771 2.08 1.187a6.528 6.528 0 0 1-.51.613c-.619-.49-1.261-.95-1.926-1.378a7.462 7.462 0 0 1-.739.732v.078l1.56 1.662c-.17.155-.349.3-.535.435L10 20.902v2.315c1.585-.931 3.19-2.456 4.09-4.074.737-1.295 1.292-3.049.581-4.537-.127-.23-.26-.454-.463-.653m4.66.014.46.056c.463.24.885.577 1.267.979.14.154.29.309.389.475-.38-.107-.75-.237-1.143-.322a3.9 3.9 0 0 1 .327.65c.438.124.871.277 1.298.43.272.517.472 1.075.566 1.663-.49-.246-.98-.485-1.489-.684.04.288.052.584.04.87.554.255 1.177.597 1.562.843.013.407-.025 1.13-.145 1.592a13.507 13.507 0 0 0-1.6-1.006 7.038 7.038 0 0 1-.459 1.46c.543.366 1.08.742 1.595 1.183-.163.43-.355.85-.575 1.253-.513-.44-1.04-.863-1.579-1.27a9.346 9.346 0 0 1-1.113 1.729c.52.474 1.025.964 1.517 1.467a7.984 7.984 0 0 1-.836 1.035c-.475-.51-.962-1.032-1.46-1.519-.515.596-1.096 1.219-1.707 1.731.478.516.922 1.062 1.328 1.635-.303.259-.585.505-.889.725l-1.281-1.652c-.792.615-1.63 1.125-2.474 1.585l.673 1.123h2.085c3.185-2.178 6.065-5.409 6.95-9.015.537-2.209.028-4.466-1.494-6.11-.81-.875-1.71-1.169-2.346-1.364.162.107.35.272.533.458m-8.867-.183v.385l.216-.15c.18.043.384.132.52.223-.247.145-.503.29-.734.446v.243c.311-.196.629-.38.953-.553.116.074.22.183.301.293-.413.164-.989.445-1.256.588v.247c.458-.221.964-.446 1.445-.595.064.11.124.248.149.374-.513.1-1.106.315-1.592.504v.227c.512-.178 1.204-.36 1.655-.432.035.146.037.332.039.466a14.51 14.51 0 0 0-1.691.257v.26c.492-.067 1.309-.127 1.664-.113-.029.18-.076.355-.141.525a15.071 15.071 0 0 0-1.526-.056c-.002 0-.002.347-.002.349.45.026.94.133 1.334.208-.065.163-.145.32-.239.469-.308-.104-.759-.246-1.095-.3v.685c.216.096.527.252.632.32-.09.132-.193.255-.309.366a6.902 6.902 0 0 0-.324-.204v.872c.361-.352.716-.723.996-1.117.697-1.006 1.25-2.31.747-3.57-.303-.689-1.039-1.123-1.742-1.217m11.679 1.927c.145.246.285.499.4.757l.556.257c.395.642.709 1.321.88 2.056-.306-.192-.618-.393-.93-.565.048.334.06.636.067.989.353.245.72.505 1.06.81a8.372 8.372 0 0 1-.106 1.798 9.287 9.287 0 0 0-1.143-.95 8.51 8.51 0 0 1-.506 1.656c.425.345.823.722 1.192 1.127a8.596 8.596 0 0 1-.592 1.341 16.293 16.293 0 0 0-1.203-1.193c-.253.494-.766 1.29-1.218 1.903.404.423.794.859 1.17 1.307-.274.377-.57.738-.887 1.08-.383-.442-.742-.893-1.14-1.324-.605.703-1.111 1.252-1.834 1.86.428.517 1.072 1.378 1.072 1.378h.366c.68-.612 1.32-1.267 1.916-1.96 1.46-1.782 2.612-3.69 3.016-5.904.437-2.324-.174-4.585-1.71-6.265l-.426-.158zm1.458 1.161-.005.017c.667.82 1.194 1.7 1.47 2.677l-.005.012-.514-.389c.065.397.117.765.13 1.18.242.185.508.423.716.673.035.675.035 1.393-.082 2.058-.23-.31-.435-.53-.797-.89-.08.49-.262 1.26-.484 1.778.315.342.638.775.841 1.092a8.107 8.107 0 0 1-.592 1.409c-.29-.374-.495-.679-.875-1.125-.384.713-.82 1.396-1.303 2.046.33.39.632.798.922 1.212-.275.387-.571.76-.886 1.116-.302-.414-.621-.826-.934-1.234-.438.508-.879 1.027-1.412 1.494h2.456c1.58-1.835 2.727-3.864 3.192-6.159.484-2.313.103-4.76-1.386-6.504-.14-.154-.284-.348-.452-.463m2.097 3.215c.094.443.136.808.191 1.387.184.2.403.536.403.536a8.814 8.814 0 0 1-.158 2.055l-.372-.459a10.95 10.95 0 0 1-.507 1.894l.414.719a10.63 10.63 0 0 1-.585 1.493c-.153-.25-.3-.525-.457-.746a17.4 17.4 0 0 1-1.295 2.103l.575.93h.133c1.389-2.064 2.32-4.34 2.416-6.926.047-1.084-.293-2.026-.7-2.928l-.058-.058zm1.101 3.71c-.044.346-.072.697-.133 1.027l-.11-.15c-.112.692-.291 1.37-.535 2.027l.171.472c-.14.476-.317.987-.546 1.52a2.566 2.566 0 0 0-.247-.504c-.31.623-.656 1.227-1.037 1.81l.92-.001c.501-.975.898-2.001 1.182-3.06.243-.992.462-2.053.34-3.14h-.005zm.06 2.535a28.172 28.172 0 0 1-.836 3.156 3.415 3.415 0 0 1-.1-.214c-.136.278-.345.724-.345.724h.472c.408-.96.693-2.344.81-3.666zm-14.644 2.883a15.82 15.82 0 0 1-1.752.673v.108h2.19zm4.794.147c-.227.163-.517.42-.867.636h1.286s-.28-.416-.42-.636" fill="#275da6"/></g><defs><clipPath id="a"><path fill="#fff" d="M0 0h40v40H0z"/></clipPath></defs></svg>