<svg width="40" height="40" fill="none" xmlns="http://www.w3.org/2000/svg"><mask id="a" mask-type="alpha" maskUnits="userSpaceOnUse" x="10" y="16" width="20" height="8"><path fill="#fff" d="M10 16.569h20v6.862H10z"/></mask><g mask="url(#a)" transform="matrix(1.4 0 0 1.4 -8 -8)" fill-rule="evenodd" clip-rule="evenodd"><path d="m16.917 17.447-.128 3.386c0 .64-.348 1.262-.769 1.683a2.14 2.14 0 0 1-.951.586c-.66.2-2.032.347-2.763.329-.64 0-1.19-.201-1.61-.622A2.277 2.277 0 0 1 10 21.144l.037-3.276 1.591-.11v3.422c0 .22 0 .403.147.55a.803.803 0 0 0 .567.237l2.141-.183a.79.79 0 0 0 .586-.256.803.803 0 0 0 .237-.567v-3.422z" fill="url(#b)" style="fill:url(#b)"/><path d="m17.796 17.338 5.69-.366v1.482l-5.69.366zm-.238 4.19 5.69-.348v1.482l-5.69.366zm.146-1.903 4.08-.293v1.208l-4.08.293z" fill="url(#c)" style="fill:url(#c)"/><path d="m30 18.051-3.037.165c-.421 0-.787.165-1.062.44-.256.255-.42.64-.42 1.042 0 1.116.933 1.263 1.463 1.244l2.91-.238v1.483l-2.891.237c-1.794 0-3.148-.731-3.148-2.726 0-1.629 1.72-2.964 3.294-2.964L30 16.569z" fill="url(#d)" style="fill:url(#d)"/></g><defs><linearGradient id="b" x1="16.804" y1="23.505" x2="16.948" y2="17.54" gradientUnits="userSpaceOnUse"><stop stop-color="#65921D"/><stop offset="1" stop-color="#93BF46"/></linearGradient><linearGradient id="c" x1="23.417" y1="22.633" x2="23.085" y2="17.035" gradientUnits="userSpaceOnUse"><stop stop-color="#65921D"/><stop offset="1" stop-color="#93BF46"/></linearGradient><linearGradient id="d" x1="29.906" y1="22.188" x2="29.767" y2="16.652" gradientUnits="userSpaceOnUse"><stop stop-color="#65921D"/><stop offset="1" stop-color="#65921D"/></linearGradient></defs></svg>