<svg width="40" height="40" fill="none" xmlns="http://www.w3.org/2000/svg"><mask id="a" mask-type="alpha" maskUnits="userSpaceOnUse" x="10" y="10" width="20" height="20"><path fill="#fff" d="M10 10h20v20H10z"/></mask><g mask="url(#a)" transform="matrix(1.4 0 0 1.4 -8 -8)"><path fill-rule="evenodd" clip-rule="evenodd" d="m28.852 15.35-.77 1.882-4.012.003.779-1.933h3.98A9.998 9.998 0 0 0 20 10a9.997 9.997 0 0 0-8.828 5.301h3.022c.582 0 .936.277 1.057.662l2.388 6.754.241.757.279-.79 2.108-5.402c.433-1.04.483-1.98 2.69-1.98h.793l-1.962 4.795h4.93l-.792 1.931-4.93.002-2.41 5.89h-1.471l-4.522-11.187c-.293-.686-.713-.94-1.577-1.126A9.956 9.956 0 0 0 10 20c0 5.523 4.477 10 10 10s10-4.477 10-10a9.952 9.952 0 0 0-1.147-4.65" fill="#fff"/></g></svg>