<svg width="40" height="40" fill="none" xmlns="http://www.w3.org/2000/svg"><g clip-path="url(#a)" transform="matrix(1.4 0 0 1.4 -8 -8)" fill-rule="evenodd" clip-rule="evenodd" fill="#015289"><path d="M20 10.113c-5.46 0-9.887 4.427-9.887 9.887 0 5.46 4.427 9.887 9.887 9.887 5.46 0 9.888-4.426 9.888-9.887 0-5.46-4.428-9.887-9.888-9.887zm0 1.385A8.502 8.502 0 0 1 28.502 20 8.501 8.501 0 0 1 20 28.502 8.501 8.501 0 0 1 11.498 20 8.501 8.501 0 0 1 20 11.498z"/><path d="M13.393 15.77h1.468v5.541c0 .28.315.454.525.446.228-.01.56-.166.56-.455V15.77h1.467v5.716c0 1.136-.996 1.73-2.01 1.73-.961 0-2.01-.594-2.01-1.73zM22.333 23.094c-.01 1.355-1.144 1.923-2.228 1.931-1.092.009-2.185-.577-2.185-1.888v-.952h1.433v.996c.07.393.42.56.734.56.315 0 .726-.105.734-.568.01-.341.035-.673-.637-1.04-.053-.027-.423-.214-.874-.411-.14-.062-1.46-.41-1.46-2.264 0-.288.114-2.115 2.255-2.115 1.608 0 2.141.874 2.141 2.115v.734h-1.442v-.786c0-.271-.184-.76-.7-.76-.489 0-.768.332-.768.742 0 .7.245.717.507.927.376.218.978.489.978.489.455.245 1.521.35 1.512 2.29zM27.018 21.136c-.01 1.355-1.145 1.923-2.229 1.931-1.092.01-2.185-.576-2.185-1.887v-.953h1.434v.997c.07.393.42.559.734.559.315 0 .726-.105.734-.568.009-.34.035-.673-.638-1.04-.053-.026-.423-.214-.874-.411-.14-.061-1.46-.41-1.46-2.263 0-.289.114-2.115 2.255-2.115 1.608 0 2.141.874 2.141 2.115v.734h-1.442v-.787c0-.27-.183-.76-.699-.76-.49 0-.769.332-.769.743 0 .699.245.716.507.926.376.219.979.49.979.49.454.244 1.52.35 1.512 2.29z"/></g><defs><clipPath id="a"><path fill="#fff" d="M0 0h40v40H0z"/></clipPath></defs></svg>