<svg width="40" height="40" fill="none" xmlns="http://www.w3.org/2000/svg"><g clip-path="url(#a)" transform="matrix(1.4 0 0 1.4 -8 -7.896)"><g clip-path="url(#b)" fill="#fff"><path d="M17.058 19.625h.583v-.493c0-.07.025-.093.095-.095h.028c.108 0 .124.016.124.122v1.182c0 .095-.017.111-.11.113h-.05c-.064-.003-.087-.026-.087-.09v-.552h-.583V20.359c0 .072-.02.09-.093.094h-.011c-.13.003-.143-.01-.143-.137v-1.16c0-.04-.01-.095.04-.104a.537.537 0 0 1 .18.006c.012.002.025.047.026.072.002.144 0 .288 0 .432v.063zM11.595 19.43v.929c-.001.078-.02.095-.11.095-.076 0-.096-.019-.096-.096v-1.07c0-.076.018-.093.092-.094h.146c.061 0 .1.03.125.085l.404.894a.1.1 0 0 0 .034.044v-.933c0-.074.017-.09.095-.09.085 0 .108.018.108.09v1.08c0 .064-.02.086-.081.088a2.307 2.307 0 0 1-.169 0 .11.11 0 0 1-.104-.071c-.1-.225-.204-.45-.306-.676l-.126-.278a.278.278 0 0 1-.012.002zM24.855 20.29v-.43c0-.07.004-.074.073-.075.174-.002.174-.002.174.173 0 .123-.002.246.001.37.001.047-.016.07-.06.085a.958.958 0 0 1-.724-.008.49.49 0 0 1-.277-.339 1.134 1.134 0 0 1 .017-.708.49.49 0 0 1 .319-.31.96.96 0 0 1 .663.023c.044.017.055.045.047.087-.008.04-.013.08-.023.12-.005.02-.015.049-.026.05-.018.003-.043-.01-.056-.023a.418.418 0 0 0-.304-.134c-.157-.004-.28.061-.339.208a.94.94 0 0 0-.007.704c.07.183.206.247.421.224.032-.003.063-.01.101-.017zM11.047 19.595c0 .147.003.295 0 .442-.008.267-.18.403-.42.43a.672.672 0 0 1-.409-.06.41.41 0 0 1-.216-.379c-.004-.302-.001-.605 0-.908 0-.062.026-.088.087-.09.15-.005.159.004.159.153V20.007c.001.239.119.34.357.308.114-.016.186-.084.204-.198a.86.86 0 0 0 .01-.128l.001-.852c0-.094.014-.107.114-.107.099 0 .117.016.117.105v.46h-.004zM23.192 19.892h-.486v.477c-.001.062-.02.082-.08.084-.172.006-.166-.003-.166-.149.002-.338 0-.676 0-1.014 0-.078.018-.095.095-.096.148 0 .151.002.151.15v.362h.486v-.428c0-.062.023-.083.085-.084.158-.003.16 0 .16.156v.997c0 .088-.016.105-.103.107-.137.002-.142-.003-.142-.14v-.422zM15.461 19.824v-.537c0-.074.018-.093.093-.093.172.002.344-.006.515.01.229.022.367.154.419.38.044.19.043.38-.027.565a.438.438 0 0 1-.408.297c-.17.012-.34.007-.51.007-.065 0-.081-.02-.081-.086v-.543zm.244.48c.085 0 .165.002.244 0 .15-.005.251-.08.292-.224a.92.92 0 0 0-.004-.518c-.031-.104-.097-.186-.208-.206-.105-.018-.213-.015-.324-.022v.97zM26.51 19.843c.005-.153.015-.278.066-.398a.43.43 0 0 1 .3-.26.754.754 0 0 1 .378 0c.19.048.295.183.337.365.044.189.044.38-.009.57a.453.453 0 0 1-.422.349.72.72 0 0 1-.348-.04c-.175-.073-.25-.22-.282-.395-.014-.07-.015-.144-.02-.191zm.873-.005c-.014-.12-.02-.21-.037-.3-.026-.142-.123-.228-.253-.234-.159-.006-.256.056-.297.205a1.166 1.166 0 0 0-.036.253.986.986 0 0 0 .046.397.248.248 0 0 0 .249.172c.138 0 .23-.05.265-.17.033-.113.046-.232.063-.323zM26.048 19.862l.223.415c.018.034.038.068.053.104.017.041 0 .063-.044.066h-.006c-.16.004-.161.005-.238-.14-.08-.15-.156-.301-.232-.452-.044-.087-.036-.1.062-.103.171-.006.261-.152.191-.31a.165.165 0 0 0-.148-.102c-.083-.005-.167-.002-.259-.002v1.004c0 .088-.017.105-.103.105-.148 0-.148 0-.148-.15v-1.003c0-.092.01-.103.103-.103.15 0 .3-.003.45.003.119.006.229.042.297.15.126.202.054.42-.166.507l-.035.01zM28.594 19.686v-.414c0-.064.016-.08.079-.08.14-.003.146.002.145.14-.002.256 0 .513-.01.768-.007.192-.113.308-.3.352a.665.665 0 0 1-.407-.02c-.14-.056-.227-.161-.233-.308-.011-.287-.007-.575-.008-.863 0-.045.023-.073.074-.07.028.002.056 0 .084 0 .073 0 .092.019.092.093.001.256-.001.512.002.768 0 .058.01.12.032.172a.175.175 0 0 0 .095.086c.157.055.351.013.351-.22 0-.068.003-.135.004-.202v-.202zM19.778 19.194h.04c.101 0 .115.01.147.107l.339 1.047c.028.086.016.104-.073.105h-.056c-.08-.002-.096-.015-.12-.09-.019-.058-.035-.117-.057-.174-.005-.014-.027-.03-.042-.03-.13-.002-.261-.002-.392 0-.016 0-.039.02-.044.035-.023.06-.039.124-.059.186-.02.064-.145.104-.196.06-.013-.013-.016-.048-.009-.069.078-.249.158-.496.238-.745l.107-.33c.029-.09.044-.103.138-.103l.039.001zm-.016.186-.188.62h.363l-.175-.62zM14.654 19.366v.348H15.081c.063.002.083.026.082.094 0 .057-.023.079-.083.08h-.424v.392h.504c.058.001.076.022.078.08.002.074-.008.092-.07.092-.231.002-.461.001-.692 0-.05 0-.072-.028-.071-.079V19.28c0-.064.024-.086.09-.086h.623c.081 0 .116.045.094.123-.012.043-.047.049-.085.049h-.473zM18.466 19.366v.313c0 .01.003.018.005.035H18.89c.065.001.085.022.085.084 0 .067-.019.089-.085.09h-.42v.392h.498c.061.001.086.03.086.092 0 .058-.019.08-.082.08-.226.002-.453.002-.68.002-.051 0-.074-.025-.074-.076v-1.11c0-.049.026-.073.073-.073h.657c.06 0 .08.028.08.091-.002.054-.023.079-.08.08h-.483zM29.338 19.328v1.03c0 .076-.013.089-.087.089-.152 0-.152 0-.152-.15v-1.014c0-.076.017-.096.09-.095.156 0 .311 0 .466.005.2.007.335.148.344.348.006.135-.018.26-.137.34-.122.083-.26.084-.398.054-.034-.007-.062-.033-.048-.068.008-.021.04-.04.065-.046.037-.009.078-.005.117-.01.085-.011.144-.059.159-.143a.551.551 0 0 0 0-.182c-.013-.075-.061-.13-.14-.14-.09-.012-.182-.012-.28-.018zM21.865 19.372v.998c0 .061-.018.082-.079.083-.163.003-.17.007-.169-.158.003-.285.001-.57.001-.856v-.067h-.272c-.078 0-.098-.018-.097-.087 0-.071.02-.09.095-.09.264 0 .528.002.791-.002.106-.001.112.067.091.137-.005.02-.044.039-.068.04-.095.004-.19.002-.293.002zM13.843 19.372v.974c0 .089-.016.106-.103.108-.139.002-.144-.002-.144-.143V19.372h-.273c-.057 0-.075-.02-.076-.078-.002-.073.016-.1.074-.1h.792c.06 0 .079.027.077.097-.001.06-.02.08-.08.08-.087.001-.173 0-.267 0zM20.798 20.275h.398c.065.001.084.022.085.084 0 .077-.016.094-.096.095h-.539c-.08 0-.096-.018-.096-.095v-1.07c0-.076.02-.095.096-.095.15 0 .152 0 .152.148V20.274zM12.775 19.825v-.544c0-.067.019-.085.086-.087.156-.005.16 0 .16.156v1.003c0 .085-.014.1-.1.1-.143.001-.146-.001-.146-.14v-.488z"/></g></g><defs><clipPath id="a"><path fill="#fff" d="M0 0h40v40H0z"/></clipPath><clipPath id="b"><path fill="#fff" transform="translate(10 19)" d="M0 0h20v1.48H0z"/></clipPath></defs></svg>