<svg width="40" height="40" fill="none" xmlns="http://www.w3.org/2000/svg"><g clip-path="url(#a)" transform="matrix(1.4 0 0 1.4 -7.924 -8)"><path d="M18.478 27.275c-1.218-2.472-5.28-10.695-7.575-15.337C10.405 10.928 10 10.03 10 10h3.321c2.187 4.383 4.368 8.772 6.555 13.155C22.239 18.42 24.405 13.99 26.369 10h3.249a2441.94 2441.94 0 0 1-9.166 18.725L19.82 30Z" fill="#ff9100"/><path d="M15.41 10.005h8.788c0 .042-4.342 8.777-4.363 8.777-1.445-2.974-3.191-6.119-4.425-8.777z" fill="#fff"/></g><defs><clipPath id="a"><path fill="#fff" transform="translate(10 10)" d="M0 0h19.624v20H0z"/></clipPath></defs></svg>