<svg width="40" height="40" fill="none" xmlns="http://www.w3.org/2000/svg"><g clip-path="url(#a)" transform="matrix(1.4 0 0 1.4 -8.053 -8)"><mask id="b" mask-type="alpha" maskUnits="userSpaceOnUse" x="10" y="14" width="21" height="12"><path fill="#fff" d="M10.1 14.705h20v10.59h-20z"/></mask><g mask="url(#b)" fill-rule="evenodd" clip-rule="evenodd" fill="#fff"><path d="m23.068 19.814-3.036-5.042-3.036 5.042zM14.326 24.249l-.59.979h12.591l-.59-.98zM13.69 20.557c-.258 0-.535.832-.93 1.712-.263.58-.476 1.133-.56 1.301-.099-.01-.198-.02-.302-.02-.119 0-.242.01-.366.02a39.434 39.434 0 0 0-.55-1.45c-.3-.741-.568-1.553-.816-1.563v-.044c.253.01.5.02.748.02.178 0 .356-.01.53-.02v.044c-.065.02-.134.025-.134.179 0 .39.757 2.112.836 2.345.108-.272.737-1.692.737-2.296 0-.168-.07-.208-.173-.228v-.044c.168.01.341.02.514.02.153 0 .312-.01.465-.02zM16.495 22.818c-.119.272-.208.48-.257.797-.045-.035-.198-.05-.376-.054-.179-.01-.381-.01-.545-.01h-.583c-.396 0-.713.015-.762.02v-.045c.242 0 .242-.42.242-1.484 0-1.143-.005-1.46-.242-1.485v-.044c.104 0 .227.005.376.01.153.005.331.01.544.01h.425c.465 0 .812-.015 1.02-.065a2.515 2.515 0 0 0-.085.668v.1h-.103c0-.456-.376-.525-.886-.525-.104 0-.198.01-.277.03-.04.316-.04.974-.04 1.098.065.005.139.015.282.015.54 0 .604-.12.624-.362h.104c-.02.188-.035.376-.035.57 0 .326 0 .123.005.38h-.109c0-.262-.104-.405-.589-.405-.118 0-.217 0-.282.004 0 .159 0 .94.015 1.267.109.005.218.02.332.02.786 0 .95-.248 1.113-.554zM16.918 23.526c.242-.005.242-.435.242-1.484 0-1.05 0-1.475-.242-1.485v-.044l.307.015c.103 0 .207.005.287.005.148 0 .321-.015.52-.035.192-.015.41-.03.633-.03.138 0 .945 0 .945.732 0 .584-.59.782-.866.832.104.118.396.564.717.97.282.356.41.514.55.524v.044l-.174-.015c-.064-.004-.129-.004-.193-.004-.203 0-.415.01-.618.04-.06-.095-.248-.411-.475-.753-.213-.317-.381-.633-.574-.633-.07 0-.03 0-.084.01 0 .821 0 1.31.252 1.31v.045a8.525 8.525 0 0 0-.614-.02c-.207 0-.42.005-.613.02zm1.118-1.494c.44 0 .782-.104.782-.643 0-.45-.267-.698-.584-.698-.109 0-.218.02-.322.04-.02.356-.02 1.142-.02 1.296.04 0 .065.005.144.005M22.716 21.2c0-.346-.198-.44-.732-.44-.05 0-.094.005-.143.01-.025.124-.025.623-.025 1.271 0 1.05 0 1.48.252 1.485v.044a8.173 8.173 0 0 0-.614-.02c-.207 0-.42.005-.613.02v-.044c.252-.005.252-.436.252-1.484 0-.649 0-1.148-.024-1.272-.05-.005-.094-.01-.144-.01-.579 0-.772.262-.846.589l-.124-.03c.065-.218.124-.53.124-.85.03.02.193.029.406.034.213.01.475.01.693.01h.539c.594 0 1.004-.005 1.212-.045-.03.144-.08.351-.08.772v.094h-.133zM25.804 22.818c-.119.272-.208.48-.258.797-.044-.035-.198-.05-.376-.054-.178-.01-.38-.01-.544-.01h-.584c-.396 0-.712.015-.762.02v-.045c.243 0 .243-.42.243-1.484 0-1.143-.005-1.46-.243-1.485v-.044c.104 0 .228.005.376.01.154.005.332.01.545.01h.425c.465 0 .811-.015 1.02-.065a2.515 2.515 0 0 0-.085.668v.1h-.104c0-.456-.376-.525-.885-.525-.104 0-.198.01-.277.03-.04.316-.04.974-.04 1.098.064.005.139.015.282.015.54 0 .604-.12.624-.362h.103c-.02.188-.034.376-.034.57 0 .326 0 .123.005.38h-.11c0-.262-.103-.405-.588-.405-.119 0-.218 0-.282.004 0 .159 0 .94.015 1.267.109.005.218.02.331.02.787 0 .95-.248 1.113-.554zM25.977 23.526c.099 0 .134-.04.213-.109.158-.143 1.192-1.247 1.212-1.267-.094-.113-.48-.618-.95-1.222-.272-.346-.292-.336-.426-.37v-.045c.253.01.505.02.757.02.213 0 .44-.01.649-.02v.044c-.06.01-.129.025-.129.1 0 .207.54.865.643 1.009.144-.169.609-.812.609-.965 0-.134-.09-.134-.163-.144v-.044c.178.005.356.02.539.02a8.1 8.1 0 0 0 .495-.02v.044a.64.64 0 0 0-.178.055c-.12.05-.767.826-1.173 1.207.099.119.599.747 1.108 1.356.267.321.297.336.42.35v.046c-.267-.02-.539-.02-.806-.02-.202 0-.41.01-.613.02v-.045c.069 0 .129-.01.129-.094 0-.158-.673-.94-.792-1.128-.129.158-.663.84-.663 1.108 0 .114.099.114.163.114v.045c-.168-.01-.332-.02-.5-.02-.183 0-.366.01-.544.02zM29.916 20.98a.247.247 0 0 1-.255-.255.25.25 0 0 1 .255-.254c.136 0 .254.101.254.254a.249.249 0 0 1-.254.255zm.04-.476a.247.247 0 0 0-.254.254c0 .14.097.254.255.254a.247.247 0 0 0 .253-.254.247.247 0 0 0-.253-.254zm-.071.564h-.11v-.51h.253c.161 0 .243.044.243.147 0 .092-.074.13-.173.139l.186.224h-.124l-.172-.218h-.103zm.15.029c.15 0 .284-.021.284-.275 0-.209-.146-.234-.266-.234h-.243v.509z"/></g></g><defs><clipPath id="a"><path fill="#fff" d="M0 0h40v40H0z"/></clipPath></defs></svg>