<svg width="40" height="40" fill="none" xmlns="http://www.w3.org/2000/svg"><path fill-rule="evenodd" clip-rule="evenodd" d="M6.095 15.913a2.21 2.21 0 0 0-.095-.02l.034-.156.02-.095H9.976c.034 0 .074.007.108.014.04.006.074.013.115.027.04.006.081.02.122.04.04.02.08.04.128.068a.919.919 0 0 1 .318.304c.088.122.149.27.183.433l.013.101.108.582.115.581.108.582.109.581.108.582.108.581.115.582.108.575.054.317.034-.074.054-.135.054-.142.054-.136.054-.135.054-.135.054-.142.055-.135.054-.135.054-.136.054-.142.054-.135.054-.135.054-.135.054-.142.054-.136.054-.135.054-.142.055-.135.054-.135.054-.136.054-.141.054-.136.054-.135.054-.135.054-.142.054-.135.054-.136.055-.135.054-.142.054-.135.054-.135.054-.142.054-.136.054-.135.054-.135.054-.142.054-.135.054-.135.055-.136.054-.142.054-.135.054-.135.054-.122h2.373l-.033.074-.055.136-.054.135-.06.128-.055.136-.054.135-.054.128-.06.136-.055.135-.054.128-.054.136-.054.135-.06.128-.055.136-.054.135-.054.128-.061.135-.054.136-.054.128-.054.135-.061.136-.054.128-.054.135-.054.135-.061.129-.054.135-.054.135-.055.129-.06.135-.055.129-.054.135-.054.135-.06.128-.055.136-.054.135-.054.128-.054.136-.06.135-.055.128-.054.136-.054.135-.06.128-.055.136-.054.135-.054.128-.061.136-.054.135-.054.128-.054.135-.061.136-.054.128-.054.135-.054.136-.061.128-.054.135-.055.136-.054.128-.06.135-.055.136-.054.128-.054.135-.054.135-.06.129-.055.135-.054.135-.054.129-.014.027H10.571l-.007-.034-.243-.953-.25-.954-.244-.953-.25-.954-.243-.953-.25-.953-.244-.954-.068-.27c-.067-.25-.128-.406-.23-.534a1.08 1.08 0 0 0-.155-.142c-.04-.027-.088-.054-.135-.081l-.02-.014c-.034-.02-.075-.034-.109-.054-.04-.02-.088-.04-.128-.06-.04-.021-.081-.041-.129-.055a.963.963 0 0 0-.121-.054c-.041-.014-.082-.034-.122-.047-.04-.014-.081-.034-.122-.048l-.122-.04c-.033-.014-.074-.027-.115-.04l-.121-.042c-.04-.013-.081-.02-.115-.033l-.122-.04c-.04-.008-.074-.021-.115-.035-.04-.006-.081-.02-.115-.027-.04-.013-.081-.02-.122-.034-.033-.013-.074-.02-.115-.027-.033-.013-.074-.02-.114-.033-.034-.007-.075-.014-.115-.027-.034-.007-.075-.014-.115-.027Zm26.066-.27h.013l.007.046.135.656.142.656.136.656.135.656.135.656.142.656.135.656.136.655.135.656.142.663.135.656.135.656.142.656.034.162H31.904l-.034-.162-.135-.656-.102-.487H28.726l-.047.142-.054.149-.054.142-.048.142-.054.142-.054.142-.047.148-.055.142-.054.142v.014H25.886l.04-.102.055-.135.054-.135.06-.128.055-.136.054-.135.054-.128.06-.136.055-.135.054-.128.054-.136.054-.135.061-.128.054-.136.054-.135.054-.128.061-.135.054-.136.054-.128.055-.135.06-.136.054-.128.054-.135.055-.135.06-.129.055-.135.054-.135.054-.129.06-.135.055-.135.054-.129.054-.135.054-.135.06-.129.055-.135.054-.135.054-.129.061-.135.054-.135.054-.129.054-.135.061-.135.054-.129.054-.135.054-.135.061-.129.054-.135.054-.135.055-.129.054-.135.06-.135.055-.128.054-.136.054-.135.06-.128.055-.136.054-.135.054-.128.06-.136.055-.135.054-.128.007-.027c.02-.034.034-.068.054-.102a.887.887 0 0 1 .067-.101c.02-.034.041-.061.068-.095l.074-.074c.027-.02.054-.047.082-.068.027-.02.054-.034.088-.054.027-.013.054-.034.087-.047a.476.476 0 0 1 .088-.034c.034-.014.061-.02.095-.034.034-.007.067-.013.095-.02.033 0 .067-.007.101-.007H32.059zm-1.522 2.67-.067-.311-.027.068-.048.141-.054.142-.054.15-.047.141-.054.142-.054.142-.054.142-.048.149-.054.142-.054.142-.047.142-.054.142-.054.142-.048.149-.054.142-.054.142-.047.142-.054.142-.054.142-.048.148-.054.142-.054.142-.02.068H31.255l-.068-.352-.142-.655-.135-.656-.135-.656zm-4.26-2.461.041.013-.013.061-.04.176-.035.182-.04.176-.04.183-.041.176-.034.182-.04.183-.041.176-.034.182-.04.176v.007a.966.966 0 0 0-.123-.054c-.04-.02-.087-.04-.128-.054-.04-.014-.081-.034-.122-.048-.033-.013-.074-.027-.115-.04-.04-.014-.08-.027-.121-.034-.04-.014-.075-.027-.115-.034a.715.715 0 0 0-.115-.027.7.7 0 0 0-.115-.027.7.7 0 0 0-.115-.027l-.108-.02c-.04 0-.075-.007-.115-.014-.034-.007-.075-.007-.108-.013-.034-.007-.075-.007-.109-.014-.033 0-.074 0-.108-.007h-.108c-.034 0-.068-.007-.101-.007-.034 0-.075 0-.109.007h-.101c-.034 0-.068.007-.102.007-.033.007-.067.007-.094.014h-.007c-.034.006-.068.006-.095.013l-.101.02c-.034.007-.06.02-.095.027-.033.007-.06.02-.094.034a.47.47 0 0 0-.088.034.37.37 0 0 0-.088.047c-.034.014-.06.034-.088.054l-.081.061c-.027.027-.054.048-.074.075-.028.033-.048.067-.068.101a.448.448 0 0 0-.061.129.434.434 0 0 0-.02.135c0 .04.006.088.013.128.014.034.02.068.04.102a.88.88 0 0 0 .19.243c.047.04.095.075.149.115.047.034.095.06.142.095.04.027.088.054.135.08.04.021.088.048.129.075.047.02.087.048.135.068.04.02.081.047.128.068l.129.067c.04.027.088.047.128.068.048.027.088.047.135.074.041.02.082.047.129.074.047.02.088.048.135.075.04.027.088.054.135.081.04.027.088.06.136.088l.142.101c.047.034.094.068.142.109.054.04.101.08.155.128.054.054.108.101.162.162a2.039 2.039 0 0 1 .575 1.271c.007.068.007.129.007.196v.102l-.02.237c-.007.067-.02.135-.034.202a.822.822 0 0 1-.04.176 5.085 5.085 0 0 1-.041.156c-.02.054-.034.101-.054.149-.02.04-.034.087-.054.128l-.061.122c-.02.04-.04.074-.068.115l-.06.101a.85.85 0 0 0-.068.102l-.075.094c-.02.027-.047.054-.074.088a.815.815 0 0 1-.074.081c-.02.027-.048.048-.075.075-.027.027-.047.054-.074.074-.027.027-.054.047-.081.068-.028.027-.055.047-.082.067l-.08.061-.082.061a.383.383 0 0 1-.088.054.555.555 0 0 1-.08.054c-.028.02-.062.034-.089.054-.027.014-.06.027-.088.048-.027.013-.054.027-.088.04-.027.02-.06.034-.087.047l-.088.041c-.034.014-.061.02-.095.034a.473.473 0 0 1-.088.034c-.034.013-.06.027-.095.033a.387.387 0 0 1-.094.034c-.027.014-.061.02-.095.027a.39.39 0 0 1-.095.027.388.388 0 0 1-.094.027c-.027.007-.061.02-.095.027-.034.007-.06.014-.095.02l-.101.021c-.027.007-.06.014-.095.02a.512.512 0 0 0-.101.014.403.403 0 0 1-.095.013c-.034.007-.067.014-.101.014-.034.007-.068.007-.102.013-.033 0-.067.007-.101.007-.034.007-.068.007-.101.007-.034.007-.068.007-.102.007-.034.006-.068.006-.101.006-.034 0-.068.007-.109.007h-.31c-.034 0-.068-.007-.109-.007-.034 0-.067 0-.101-.006h-.108c-.04-.007-.075-.007-.108-.014-.034 0-.075-.007-.109-.007-.04-.006-.074-.006-.108-.013-.04 0-.074-.007-.108-.007l-.115-.02a.598.598 0 0 1-.108-.014c-.034-.006-.075-.006-.108-.013l-.115-.02-.109-.02c-.04-.008-.08-.014-.114-.028l-.115-.02a.727.727 0 0 0-.115-.027c-.041-.014-.082-.02-.115-.034a.574.574 0 0 1-.115-.034c-.04-.007-.081-.02-.122-.034-.04-.013-.081-.027-.115-.04a.51.51 0 0 1-.122-.048c-.047-.013-.088-.033-.128-.047l-.02-.013.006-.027.041-.176.04-.183.034-.176.04-.182.041-.183.034-.176.04-.182.041-.176.034-.183.04-.182.021-.088.06.034c.041.013.089.034.13.054.04.02.08.04.128.06.04.014.08.035.122.048.04.02.08.034.121.054.04.014.081.027.122.048l.122.04c.04.014.074.02.115.034.04.013.08.02.121.034.034.006.075.02.115.027.034.013.075.02.115.027l.108.02.115.02c.034.007.068.007.109.014.033.007.074.007.108.013a.57.57 0 0 0 .108.007c.034.007.074.007.108.014h.108c.034.006.068.006.102.006h.209c.034 0 .075-.006.109-.006.033 0 .067-.007.1-.007.035-.007.062-.007.096-.014a22.764 22.764 0 0 0 .196-.04.383.383 0 0 0 .094-.027c.034-.007.068-.02.095-.027.034-.014.06-.027.095-.034.027-.014.06-.027.088-.047.027-.014.06-.027.087-.048.027-.02.055-.033.082-.06.027-.02.054-.041.08-.068.028-.027.048-.054.075-.081.02-.034.048-.068.061-.109a.444.444 0 0 0 .054-.141.53.53 0 0 0 .02-.15c0-.033-.006-.067-.006-.107a.746.746 0 0 0-.082-.224 1.286 1.286 0 0 0-.189-.21.804.804 0 0 0-.142-.114 1.7 1.7 0 0 0-.142-.095 2.316 2.316 0 0 0-.135-.08 1.264 1.264 0 0 0-.129-.075 1.269 1.269 0 0 0-.135-.068.775.775 0 0 0-.128-.067c-.027-.014-.054-.028-.088-.048l-.04-.013c-.041-.02-.082-.048-.13-.068-.04-.02-.08-.047-.128-.068-.04-.027-.088-.047-.128-.074-.047-.02-.088-.047-.135-.074a1.573 1.573 0 0 1-.136-.088c-.047-.027-.094-.061-.142-.095-.047-.027-.094-.067-.142-.101-.047-.041-.094-.075-.148-.115-.054-.048-.102-.095-.156-.142-.06-.061-.115-.115-.169-.176a2.56 2.56 0 0 1-.203-.27 1.93 1.93 0 0 1-.324-1.096c0-.02.006-.04.006-.06 0-.082.007-.156.014-.237.007-.068.02-.129.034-.197l.04-.175c.014-.048.027-.102.048-.156.013-.047.033-.088.054-.135.013-.047.034-.088.054-.129l.06-.121c.02-.034.048-.075.068-.108.02-.034.04-.068.068-.102a.484.484 0 0 1 .067-.095c.02-.033.048-.06.075-.094.02-.027.047-.054.067-.081a.816.816 0 0 0 .075-.082l.081-.08c.027-.02.047-.048.074-.068a.691.691 0 0 1 .082-.068.681.681 0 0 1 .08-.067l.082-.061.081-.061c.034-.02.06-.034.088-.054.027-.02.054-.034.088-.054.027-.014.054-.034.08-.048.035-.013.062-.034.089-.047.027-.014.06-.034.088-.047a1.06 1.06 0 0 0 .088-.041c.033-.013.06-.027.094-.04a.463.463 0 0 1 .088-.034l.095-.041a.461.461 0 0 0 .088-.034c.034-.006.067-.02.094-.027.034-.013.061-.02.095-.034a.486.486 0 0 0 .095-.027c.034-.006.06-.013.094-.02.034-.013.068-.02.095-.027l.101-.02c.027-.007.061-.014.095-.02.034-.007.068-.014.102-.014.027-.007.06-.014.094-.02.034 0 .068-.007.102-.014a.524.524 0 0 0 .101-.013c.034 0 .068-.007.101-.007.034-.007.068-.007.102-.007.034-.007.068-.007.101-.007.034-.007.068-.007.102-.007.034 0 .067-.006.101-.006h.318c.034 0 .068.006.101.006.04 0 .075 0 .109.007.04 0 .074 0 .108.007.04 0 .074.007.108.007.04.007.074.013.108.013.04.007.075.014.115.014l.108.02.108.02.115.02.115.021c.04.007.075.02.115.027.04.007.075.02.115.027.04.014.075.02.115.034.04.013.081.02.115.034.04.013.081.027.122.034.04.013.081.027.115.04l.122.04zm-6.565-.21h.047l-.02.081-.034.183-.04.182-.041.176-.034.183-.04.175-.04.183-.035.183-.04.175-.04.183-.035.176-.04.182-.04.176-.041.183-.034.182-.04.176-.041.183-.034.175-.04.183-.041.183-.034.175-.04.183-.041.176-.034.182-.04.183-.041.176-.034.182-.04.176-.041.183-.04.175-.034.183-.041.183-.04.175-.034.183-.041.176-.04.182-.034.183-.04.176-.042.182-.033.176-.04.183-.041.182-.034.176-.04.183-.041.175-.041.183-.034.183-.04.175-.04.183v.027H15.73l.027-.142.04-.176.041-.182.034-.176.04-.183.041-.182.034-.176.04-.183.041-.176.04-.182.034-.176.04-.182.042-.183.033-.176.041-.182.04-.176.034-.183.04-.182.041-.176.034-.183.04-.175.041-.183.034-.176.04-.182.041-.183.04-.176.035-.182.04-.176.04-.183.035-.182.04-.176.04-.183.035-.175.04-.183.04-.183.035-.175.04-.183.04-.176.041-.182.034-.176.04-.183.041-.182.034-.176.04-.183.041-.175.034-.183.04-.183.041-.175.034-.156h2.103z" fill="url(#a)" style="fill:url(#a);stroke-width:1.4"/><defs><linearGradient id="a" x1="12.2" y1="22.518" x2="27.798" y2="22.518" gradientUnits="userSpaceOnUse" gradientTransform="matrix(1.4 0 0 1.4 -8 -8)"><stop stop-color="#363860"/><stop offset="1" stop-color="#3753A2"/></linearGradient></defs></svg>