<svg width="40" height="40" fill="none" xmlns="http://www.w3.org/2000/svg"><g clip-path="url(#a)" transform="matrix(1.4 0 0 1.4 -8 -8)" fill-rule="evenodd" clip-rule="evenodd" fill="#fdbb30"><path d="M19.996 16.732c.516 0 .938-.243.995-.557l.51-5.233c0-.516-.665-.942-1.505-.942-.834 0-1.499.426-1.499.942l.51 5.233c.052.314.48.557.99.557zM16.89 18.367c.258-.403.237-.862-.036-1.063l-4.729-3.017c-.489-.258-1.226.051-1.648.712-.417.66-.345 1.396.144 1.654l5.234 2.216c.335.112.778-.099 1.035-.502zM23.108 18.367c.257.403.7.619 1.03.506l5.239-2.216c.494-.257.561-.993.144-1.654-.417-.66-1.154-.97-1.648-.712l-4.73 3.017c-.272.197-.288.656-.035 1.06zM19.996 23.268c.516 0 .938.243.995.557l.51 5.233c0 .516-.665.942-1.505.942-.834 0-1.499-.426-1.499-.942l.51-5.233c.052-.314.48-.557.99-.557zM23.108 21.637c.257-.407.7-.618 1.03-.506l5.239 2.216c.494.258.561.998.144 1.654-.417.656-1.154.97-1.648.712l-4.73-3.017c-.272-.201-.288-.656-.035-1.059zM16.89 21.633c.258.403.237.862-.036 1.063l-4.729 3.013c-.489.257-1.226-.052-1.648-.712-.417-.661-.345-1.397.144-1.659l5.234-2.216c.335-.103.778.108 1.035.51z"/></g><defs><clipPath id="a"><path fill="#fff" d="M0 0h40v40H0z"/></clipPath></defs></svg>