<svg width="40" height="40" fill="none" xmlns="http://www.w3.org/2000/svg"><path fill-rule="evenodd" clip-rule="evenodd" d="M31.284 11.485a88.34 88.34 0 0 0-1.541-.705c.208.6.391 1.201.574 1.802.784.287 1.541.575 2.22.914a14.402 14.402 0 0 0-1.253-2.01zM9.683 27.418a17.13 17.13 0 0 1-2.22-.914c.365.705.783 1.384 1.253 2.01.497.262 1.02.497 1.542.706a29.198 29.198 0 0 1-.575-1.802zm12.433-12.224c-.706-.026-1.41-.026-2.116-.026-.705 0-1.41 0-2.142.026 0 .757-.026 1.541-.026 2.325h4.336c0-.784-.026-1.568-.052-2.325zm-6.817-3.918c.052-.653.13-1.306.235-1.933-.94.157-1.855.34-2.717.575a34.018 34.018 0 0 0-.574 1.933 37.176 37.176 0 0 1 3.056-.575zm9.141.261a29.7 29.7 0 0 0-2.141-.183c.052 1.15.078 2.325.13 3.553l2.272.078a132.66 132.66 0 0 0-.26-3.448zm-2.324 13.269a67.34 67.34 0 0 0 .052-2.325h-4.336c0 .784.026 1.568.026 2.325a58.42 58.42 0 0 0 2.142.026c.705 0 1.41 0 2.116-.026zM10.963 20c0-.653.026-1.306.078-1.985-.679.052-1.358.078-1.985.13A22.43 22.43 0 0 0 8.978 20c0 .627.026 1.254.078 1.854.627.053 1.306.079 1.985.131A25.222 25.222 0 0 1 10.963 20Zm12.746 13.634c.157-.81.287-1.697.418-2.612-.653.079-1.306.157-1.985.21-.079.966-.13 1.906-.21 2.768a15.361 15.361 0 0 0 1.777-.366zm3.474-3.552c.209-.627.392-1.254.575-1.933a37.19 37.19 0 0 1-3.057.575c-.052.653-.13 1.306-.235 1.933.94-.157 1.855-.34 2.717-.575zm1.776-8.097c.052-.653.052-1.332.052-1.985s0-1.306-.052-1.985c.68.052 1.358.078 1.985.13.052.627.078 1.254.078 1.855 0 .627-.026 1.254-.078 1.854-.627.053-1.306.079-1.985.131z" fill="#43c0be" style="stroke-width:1.4"/><path fill-rule="evenodd" clip-rule="evenodd" d="M28.515 8.716a14.415 14.415 0 0 0-2.011-1.253c.34.679.627 1.436.914 2.22.6.183 1.201.366 1.802.574a88.34 88.34 0 0 0-.705-1.54ZM12.582 30.317a29.294 29.294 0 0 1-1.802-.574c.209.522.444 1.044.705 1.54.627.47 1.306.889 2.011 1.254a17.13 17.13 0 0 1-.914-2.22zm9.272-21.261A22.49 22.49 0 0 0 20 8.978c-.627 0-1.254.026-1.854.078-.053.627-.079 1.306-.131 1.985.653-.052 1.332-.052 1.985-.052s1.306 0 1.985.052c-.052-.679-.078-1.358-.13-1.985zm-6.947 8.515c0-.758.052-1.515.078-2.272-1.175.078-2.324.156-3.448.26a29.69 29.69 0 0 0-.183 2.142c1.124-.052 2.325-.078 3.553-.13zm-6.138.287c.052-.679.13-1.332.209-1.985-.915.13-1.803.261-2.612.418-.157.6-.288 1.202-.366 1.776.862-.078 1.802-.13 2.769-.209Zm14.94-11.492c-.6-.157-1.202-.288-1.802-.366.104.862.156 1.802.235 2.769.653.052 1.332.13 1.985.209a61.2 61.2 0 0 0-.418-2.612zm6.373 6.451c-.627-.209-1.28-.392-1.933-.574.235.992.418 2.01.575 3.056.653.052 1.306.13 1.933.235-.157-.94-.34-1.855-.575-2.717ZM17.858 31.231c-.679-.052-1.332-.13-1.985-.209.13.915.261 1.803.418 2.612.6.157 1.175.288 1.776.366a75.91 75.91 0 0 1-.209-2.769zm-2.951-8.802c-1.228-.052-2.43-.078-3.553-.13.027.705.105 1.436.183 2.141 1.123.105 2.273.183 3.448.261-.026-.757-.078-1.514-.078-2.272zm9.533 6.034c.105-1.123.183-2.273.261-3.448-.757.026-1.514.078-2.272.078-.052 1.228-.078 2.43-.157 3.553a29.174 29.174 0 0 0 2.168-.183zm5.642-1.28c.235-.862.418-1.776.575-2.717-.627.105-1.28.183-1.933.235a37.176 37.176 0 0 1-.575 3.056c.68-.182 1.306-.365 1.933-.574zm.914-3.056c.105-.653.183-1.306.235-1.985a75.91 75.91 0 0 0 2.769-.21 14.32 14.32 0 0 1-.366 1.777 56.5 56.5 0 0 1-2.638.418z" fill="#6dbae4" style="stroke-width:1.4"/><path fill-rule="evenodd" clip-rule="evenodd" d="M9.683 12.582c.183-.627.392-1.228.6-1.802a11.94 11.94 0 0 0-1.54.705 12.468 12.468 0 0 0-1.28 2.011c.705-.34 1.436-.653 2.22-.914Zm21.6 15.933c.47-.627.915-1.306 1.28-2.011-.705.34-1.436.627-2.246.914-.157.6-.366 1.201-.574 1.802.548-.235 1.044-.47 1.54-.705zM17.859 8.769c.079-.967.157-1.907.235-2.769-.6.078-1.201.209-1.776.366-.157.81-.313 1.697-.444 2.612a51.013 51.013 0 0 1 1.985-.21zm10.605 6.79a70.955 70.955 0 0 0-3.448-.26c.052.757.078 1.514.104 2.272 1.202.052 2.403.078 3.553.13a59.563 59.563 0 0 0-.21-2.141zM21.88 30.945c.026-.627.078-1.306.104-1.985-.653.052-1.332.052-1.985.052s-1.306 0-1.959-.052c.026.679.052 1.358.105 1.985a22.493 22.493 0 0 0 3.735 0zM17.519 20c0-.731 0-1.463.026-2.168-.784 0-1.567.026-2.35.026 0 .705-.027 1.437-.027 2.142 0 .705.026 1.41.026 2.116.784.026 1.567.052 2.35.052-.025-.731-.025-1.463-.025-2.168Zm-5.668 7.757c-.653-.182-1.306-.365-1.907-.574a27.618 27.618 0 0 1-.6-2.717c.626.105 1.28.157 1.958.235.13 1.045.314 2.064.549 3.056z" fill="#a6b4d9" style="stroke-width:1.4"/><path fill-rule="evenodd" clip-rule="evenodd" d="M12.582 9.683c.287-.784.575-1.541.914-2.22-.705.365-1.384.783-2.01 1.253-.236.497-.471 1.02-.706 1.542.6-.21 1.201-.392 1.802-.575Zm15.933 21.6a16.39 16.39 0 0 0 .705-1.54c-.574.208-1.201.391-1.802.574a17.122 17.122 0 0 1-.914 2.22 14.402 14.402 0 0 0 2.01-1.253zM17.57 14.908c.052-1.228.078-2.43.13-3.552a29.61 29.61 0 0 0-2.141.182 132.651 132.651 0 0 0-.261 3.448c.757-.026 1.514-.078 2.272-.078zm-6.295.392c.157-1.045.34-2.064.575-3.056-.653.182-1.306.365-1.933.574a27.672 27.672 0 0 0-.575 2.717c.627-.105 1.28-.183 1.933-.235zm15.907-5.381a28.827 28.827 0 0 0-2.69-.575c.078.627.156 1.28.208 1.933 1.045.157 2.064.34 3.056.575a33.938 33.938 0 0 0-.574-1.933zm6.451 6.373a54.858 54.858 0 0 0-2.612-.418c.079.653.157 1.306.21 1.985.966.053 1.906.13 2.768.21-.078-.602-.209-1.176-.366-1.777zm-16.063 8.802c-.758 0-1.515-.052-2.272-.078.078 1.175.156 2.325.26 3.448a29.61 29.61 0 0 0 2.142.183c-.052-1.124-.078-2.325-.13-3.553zm-2.272 3.631a37.235 37.235 0 0 1-3.056-.575c.182.68.365 1.306.574 1.933.862.235 1.776.418 2.717.575-.105-.627-.157-1.28-.235-1.933zm-6.53-6.582c-.967-.079-1.907-.13-2.769-.21.078.602.209 1.176.366 1.777a56.5 56.5 0 0 0 2.638.418 24.26 24.26 0 0 1-.235-1.985Zm16.037 0c.026-.732.026-1.437.026-2.142 0-.705 0-1.41-.026-2.142-.757 0-1.541-.026-2.325-.026v4.336c.784 0 1.568-.026 2.325-.026zm.209 2.56c.026-.758.078-1.515.078-2.273 1.228-.052 2.43-.078 3.553-.13a29.7 29.7 0 0 1-.183 2.141 132.66 132.66 0 0 1-3.448.261z" fill="#92c652" style="stroke-width:1.4"/></svg>