<svg width="40" height="40" fill="none" xmlns="http://www.w3.org/2000/svg"><g clip-path="url(#a)" transform="matrix(1.4 0 0 1.4 -8 -7.854)"><g clip-path="url(#b)"><path d="M10.877 19.619c-.098-.252-.174-.512-.25-.771a16.441 16.441 0 0 1-.474-2.164l-.14-.939c-.001-.011.002-.026-.013-.032v-.075l.855-.462.034-.015c.029.032.02.07.02.107V19.5c0 .04.014.089-.033.119z" fill="#ffc40e"/><path d="M27.775 13.51c.147.073.294.147.44.222.098.05.195.104.294.152.034.017.043.037.043.073-.001.287 0 .575-.002.863 0 .042.013.062.05.08.456.226.91.454 1.365.68.029.015.039.03.034.063-.067.44-.127.882-.2 1.322a15.737 15.737 0 0 1-1.82 5.175l-.021.031c-.034-.003-.037-.03-.04-.054-.004-.029-.003-.058-.003-.087V19.56c0-.02.003-.042-.006-.061-.017-.046.013-.083.025-.123l.024-.075c.09-.243.17-.489.242-.737a14.483 14.483 0 0 0 .48-2.173c.012-.09.013-.09-.063-.134-.138-.078-.282-.146-.419-.226-.083-.042-.165-.087-.247-.13-.055-.026-.105-.06-.159-.087-.025-.013-.045-.03-.049-.06-.004-.025-.003-.05-.003-.075v-2.065c0-.027-.002-.054.006-.08.004-.014.01-.029.029-.026z" fill="#f2a71f"/><path d="M10.877 19.62a.122.122 0 0 0 .012-.067V15.16c.151-.082.301-.168.455-.247.054-.027.071-.06.07-.12-.003-.279 0-.558-.002-.838 0-.041.013-.062.05-.081.202-.107.403-.216.605-.325.029.034.02.076.02.114v2.145c.002.037-.025.052-.05.069-.239.129-.476.26-.715.388-.04.022-.05.047-.044.09a14.909 14.909 0 0 0 .65 2.748c.028.084.06.165.087.249.023.062.044.125.068.188.01.027.023.054.009.084-.01.043-.005.087-.005.13v2.336c0 .046.011.098-.034.134-.105-.166-.192-.341-.282-.514a15.67 15.67 0 0 1-.89-2.067c-.003-.008-.003-.017-.004-.025z" fill="#ffc20f"/><path d="M27.37 23.123c-.197.307-.41.602-.63.893-.332.44-.687.86-1.065 1.26l-.04.04c-.031 0-.03-.025-.034-.044-.005-.027-.003-.054-.003-.081v-1.494c0-.042 0-.083-.004-.125-.013-.026-.002-.047.015-.067.03-.037.056-.076.086-.112.087-.107.17-.217.253-.327.086-.126.18-.246.263-.373.116-.165.231-.33.337-.503.104-.164.208-.328.302-.498a9.74 9.74 0 0 0 .261-.467c.066-.118.121-.241.185-.36.01-.021.017-.063.06-.036.023.033.023.07.023.108v2.088c.001.033-.016.064-.009.098zM25.634 11.444c.232.084.455.191.683.287.304.128.58.306.87.461.033.018.035.041.035.072 0 .291.002.582-.002.874 0 .06.012.098.07.117.025.009.047.027.07.04.02.025.02.055.02.084v1.07c0 .03-.001.059-.015.085-.024.038-.054.021-.081.006l-.162-.091c-.092-.047-.181-.098-.272-.146-.105-.054-.202-.12-.309-.17-.102-.06-.209-.112-.314-.168-.161-.096-.151-.045-.151-.26 0-.216-.007-.433.003-.65.004-.105-.025-.172-.127-.202-.1-.047-.196-.097-.297-.14-.023-.01-.046-.019-.063-.039a.039.039 0 0 1-.003-.022c.01-.039.01-.078.01-.118v-.997c0-.032-.018-.077.035-.093z" fill="#f4ab1d"/><path d="M12.082 15.828c-.026-.021-.015-.05-.015-.076V13.55c.207-.114.414-.23.623-.341.04-.022.054-.045.054-.09-.002-.298 0-.596-.002-.893 0-.041.01-.063.049-.081.152-.072.302-.147.453-.222.03.034.02.076.02.114v1.993c0 .048.002.096 0 .143-.006.034-.035.045-.06.059-.176.1-.354.196-.533.29-.054.028-.075.062-.074.122.002.275.001.55 0 .826 0 .035.006.071-.017.103-.097.062-.2.116-.303.17-.042.023-.085.044-.126.069-.02.012-.042.03-.069.016z" fill="#fec110"/><path d="M15.61 10.984c.244-.085.493-.156.74-.23.321-.095.646-.176.971-.256.014-.003.03-.003.044-.004.019.018.019.041.019.064 0 .358.002.716 0 1.075a.12.12 0 0 1-.004.024c-.017.054-.07.047-.11.065-.117.026-.232.06-.349.091a7.076 7.076 0 0 0-.369.107c-.192.056-.383.117-.574.178-.101.033-.2.074-.303.105-.026.008-.055.025-.08-.006a.155.155 0 0 1-.016-.084v-1.04c0-.033-.003-.068.032-.09z" fill="#febb14"/><path d="M13.257 14.183c-.019-.024-.013-.052-.013-.078v-2.181c.252-.133.515-.24.777-.351.124-.053.25-.1.375-.15.027.03.02.066.02.1v.968c0 .056.005.112.004.168-.008.035-.037.049-.066.061-.112.049-.222.105-.336.15-.067.025-.096.063-.094.139.005.245 0 .49.003.736 0 .07-.023.114-.085.143-.076.035-.147.079-.22.117-.106.051-.203.116-.31.165-.017.008-.032.028-.055.013z" fill="#febf11"/><path d="M25.593 23.549c.035.016.025.049.025.077v1.614c0 .025-.01.055.016.076-.236.255-.485.5-.741.735-.135.124-.273.246-.41.368-.018.016-.039.03-.058.045-.037-.018-.028-.053-.028-.082-.002-.152 0-.304 0-.456v-.8c0-.08 0-.162-.012-.242-.005-.028.011-.046.03-.062.078-.064.135-.147.206-.217.081-.079.161-.158.237-.242.084-.083.163-.17.24-.259.098-.106.191-.216.285-.325.052-.067.109-.13.162-.196.012-.015.022-.037.048-.034z" fill="#f5ac1c"/><path d="m17.366 11.674-.001-1.18c.146-.048.297-.074.447-.107a28.27 28.27 0 0 1 1.275-.242h.03c.023.024.02.054.02.083.001.329.001.657 0 .986 0 .032.002.063-.018.09-.025.026-.058.029-.09.035-.079.014-.158.027-.236.044-.176.028-.35.066-.523.104-.21.042-.417.092-.625.14-.068.013-.135.032-.203.048-.025.006-.05.017-.076-.001z" fill="#fcb815"/><path d="M23.842 26.941a7.495 7.495 0 0 1-.525.402c-.209.15-.415.305-.637.438-.027.011-.038-.005-.045-.027-.005-.019-.005-.037-.005-.056v-1.294c0-.013 0-.025.003-.038.002-.04.032-.06.06-.081.18-.128.352-.268.525-.405.183-.142.355-.296.534-.444.02-.016.041-.049.072-.012.014.034.01.07.01.105v1.094c0 .106-.003.212.008.318z" fill="#f7af1b"/><path d="M22.65 26.34v1.371c0 .026-.015.062.03.07-.273.19-.557.365-.843.536-.116.069-.234.134-.351.2-.027-.029-.02-.066-.02-.1v-1.101c0-.05-.001-.1-.007-.15-.002-.04.025-.058.055-.077.123-.074.244-.152.363-.232.106-.07.213-.138.315-.213.106-.073.215-.141.314-.225.05-.02.082-.077.144-.079z" fill="#f8b21a"/><path d="M21.472 27.14c.016.06.013.123.013.185v1.193c-.381.212-.757.432-1.16.603-.012.004-.02-.002-.025-.012a.109.109 0 0 1-.011-.054c-.001-.416-.002-.832 0-1.247.01-.043.052-.049.082-.069.033-.022.07-.036.103-.057.09-.053.19-.091.28-.148.033-.018.069-.032.1-.054.109-.061.217-.122.324-.186.09-.052.177-.11.268-.16.01-.002.018-.001.026.005z" fill="#fab418"/><path d="M20.308 27.793v1.26c0 .023-.01.05.017.068-.111.058-.22.118-.343.15l-.713-.341c-.052-.025-.101-.056-.152-.084-.018-.023-.02-.05-.02-.077v-1.202c0-.019.001-.038.006-.056.013-.037.04-.028.065-.017.046.018.086.045.129.069.213.113.424.229.64.334.026.012.05.033.082.02.07-.036.141-.07.21-.107.024-.013.047-.039.079-.017z" fill="#fcb616"/><path d="M14.409 12.67c-.016-.055-.013-.111-.013-.167v-1.081c.262-.112.532-.207.8-.3.138-.048.277-.093.415-.139-.015.023-.012.048-.012.073v1.064c0 .03.003.058.012.086-.012.026-.039.031-.062.042a13.457 13.457 0 0 0-1.06.412c-.024.011-.05.032-.08.01z" fill="#febd12"/><path d="M25.633 11.444c-.024.019-.014.046-.014.07-.001.359 0 .718 0 1.078 0 .028.006.06-.026.077-.036.015-.06-.014-.09-.026l-.13-.055c-.05-.02-.1-.044-.15-.063-.08-.033-.158-.069-.238-.1-.04-.012-.079-.031-.12-.04-.08-.036-.16-.072-.242-.1-.072-.03-.147-.052-.218-.085a.055.055 0 0 1-.017-.029c-.006-.029-.005-.058-.005-.087v-.948c0-.03-.002-.059.006-.087.008-.026.015-.055.054-.043.263.08.52.174.775.271.14.053.281.1.415.167z" fill="#f5ac1c"/><path d="M27.37 23.123c-.02-.022-.01-.048-.01-.072V20.93a.212.212 0 0 0-.022-.109c-.017-.038.017-.062.025-.093a9.12 9.12 0 0 0 .25-.55c.092-.205.173-.415.255-.625.01-.026.015-.057.046-.071.03.02.021.052.021.08v2.531c0 .028-.01.06.022.08-.18.325-.374.644-.587.951z" fill="#f4a91e"/><path d="M19.105 11.304c.018-.024.013-.052.013-.078v-1.081c.187-.04.377-.061.566-.089.08-.012.161-.018.239-.044a.211.211 0 0 1 .156.006c.082.035.172.024.256.05-.014.105-.007.211-.007.318-.002.214 0 .428-.001.643 0 .058 0 .116.009.174-.02.027-.048.019-.074.016-.088-.011-.176-.028-.265-.031-.23.025-.457.066-.685.101-.048.007-.096.017-.144.023-.02.003-.044.013-.062-.008z" fill="#fcb616"/><path d="M22.68 10.505c.175.032.346.081.519.127.216.057.433.11.644.186-.017.161-.006.324-.008.486-.002.19 0 .382 0 .573 0 .031.002.063-.008.093a.041.041 0 0 1-.013.018c-.02.009-.04.002-.06-.005-.18-.06-.362-.108-.543-.162-.167-.044-.331-.096-.499-.136-.032-.007-.067-.012-.077-.052-.008-.044-.005-.088-.005-.131v-.882c0-.027-.002-.054.004-.08.005-.024.013-.047.045-.035z" fill="#f7af1b"/><path d="M20.333 11.205c-.025-.015-.026-.04-.026-.065l.001-1.013c0-.023-.011-.053.027-.06.183.014.363.049.544.078.203.032.406.064.607.109.02.025.019.054.019.083v.953c0 .033 0 .067-.013.098-.008.017-.024.018-.04.018-.09-.015-.179-.033-.27-.047a13.053 13.053 0 0 0-.31-.052c-.133-.029-.269-.029-.4-.059-.046-.018-.102 0-.14-.043z" fill="#fab418"/><path d="M21.485 11.393v-1.139c.235.034.467.084.698.134.166.036.333.069.496.117-.041.007-.029.04-.029.064v1.078c-.015.014-.032.012-.05.01-.12-.032-.243-.06-.364-.087-.13-.031-.26-.06-.39-.084l-.292-.059c-.026-.005-.054-.006-.069-.034Z" fill="#f8b21a"/><path d="M23.842 26.941c-.032-.023-.027-.058-.027-.09v-1.367c0-.024.009-.05-.013-.071a.018.018 0 0 1-.003-.017c.114-.107.23-.213.347-.317.063-.061.124-.125.188-.186.016-.016.029-.043.06-.03a.42.42 0 0 1 .022.14v1.388c0 .024-.007.05.008.072-.185.171-.381.327-.582.478z" fill="#f6ae1c"/><path d="M27.346 14.55a.34.34 0 0 0 .014-.104v-1.151c.14.067.28.137.415.214-.026.021-.014.05-.014.076l-.001 2.192c-.027.016-.048-.002-.068-.013-.034-.019-.067-.04-.103-.054-.227-.114-.183-.09-.185-.293-.003-.243 0-.485 0-.728 0-.043-.001-.084-.044-.11-.008-.008-.016-.016-.014-.029z" fill="#f4a91e"/><path d="M23.815 11.981v-1.088c0-.029-.008-.06.028-.076.203.055.404.115.6.19-.048.011-.04.051-.04.085v1.093c-.018.013-.036.003-.052-.003-.068-.025-.137-.046-.205-.07-.09-.028-.177-.061-.267-.089-.025-.007-.055-.01-.064-.042z" fill="#f6ae1c"/><path d="M14.998 25.936c-.22-.194-.424-.406-.628-.617-.392-.404-.76-.83-1.108-1.272l-.02-.032a.212.212 0 0 1-.018-.097v-1.806c0-.033-.003-.068.02-.096.041-.032.054.008.069.032.095.148.188.298.289.443.147.23.313.445.478.662.176.236.366.462.552.69.123.134.24.275.366.406.021.021.04.044.032.077v1.489c0 .042.01.09-.032.121z" fill="#febe12"/><path d="M13.268 22.01c-.034.017-.024.05-.024.077v1.847l-.001.081a6.02 6.02 0 0 1-.326-.426c-.305-.427-.586-.87-.846-1.325-.008-.013-.012-.026-.018-.04a.343.343 0 0 0 .014-.11v-2.429c0-.028-.01-.06.022-.079.023.004.028.023.035.04.132.337.27.67.427.997.006.011.01.023.014.034.176.368.366.727.574 1.077.032.067.075.128.112.193.01.02.029.036.017.062z" fill="#fec110"/><path d="m19.12 27.487-.002 1.197-.001.162c-.274-.136-.54-.286-.803-.44-.323-.19-.643-.383-.951-.596a.162.162 0 0 1-.019-.09v-1.242c0-.03-.003-.063.02-.09.066-.021.098.036.143.061.16.11.318.221.48.329.12.075.238.155.359.229.148.095.301.183.452.274.088.056.181.105.272.157.02.012.047.019.05.05z" fill="#fdb815"/><path d="M14.998 25.936c.01-.03.012-.06.012-.092v-1.463c0-.027-.005-.055.012-.08.028-.009.034.018.047.031.097.1.201.193.29.3.042.052.097.092.147.135.183.195.384.37.58.553.033.026.065.054.097.084.017.016.03.034.025.059-.002.463 0 .925-.001 1.387 0 .037.009.076-.021.107-.194-.14-.376-.296-.558-.451-.215-.184-.43-.37-.63-.57z" fill="#febc13"/><path d="m16.186 26.957.001-1.438c0-.027-.004-.054.012-.079.046-.007.063.035.09.057.2.167.4.335.607.495.146.113.292.226.441.335.022.016.055.026.054.063-.042.009-.026.042-.026.066v1.273l-.002.081c-.34-.222-.67-.458-.992-.705-.063-.048-.123-.098-.185-.148z" fill="#fdba14"/><path d="M27.61 15.704c.053.017.094.06.15.073l.2.114c.02.027.02.058.02.09l.001 3.213c0 .037-.012.074-.009.112l-.058.175-.256.637c-.009.022-.022.044-.033.065-.03 0-.03-.024-.033-.043-.004-.027-.003-.055-.003-.082l.001-4.234c0-.04-.01-.084.02-.12z" fill="#28286f"/><path d="m28.198 16.018.483.255c.025.013.03.026.026.054-.099.71-.248 1.41-.446 2.099-.014.049-.032.097-.048.146-.027-.012-.03-.038-.033-.063-.003-.023-.002-.046-.002-.069v-2.309c0-.038-.01-.08.02-.113z" fill="#26266b"/><path d="M28.198 16.017v2.463c0 .032-.003.063.015.091-.054.21-.127.414-.197.62-.013.038-.03.076-.044.114-.02-.02-.011-.047-.011-.071V15.89l.237.126z" fill="#27276d"/><path d="M12.556 20.683a9.429 9.429 0 0 1-.328-.733l-.139-.344c-.025-.084-.067-.163-.086-.25.005-.055.006-.111.006-.168v-3.202c0-.042-.006-.085.02-.122l.053-.036.413-.22c.023-.013.048-.023.072-.034.027.027.02.062.02.095l.001.644v4.228c0 .03.002.06-.002.088-.003.021.001.048-.03.053z" fill="#4c5ca9"/><path d="M12.03 15.864v3.394c0 .035 0 .07-.027.099-.098-.247-.175-.502-.253-.756a14.504 14.504 0 0 1-.395-1.643c-.04-.211-.068-.425-.101-.638-.003-.02-.003-.037.022-.05.252-.134.502-.27.753-.406z" fill="#4c5daa"/><path d="M26.25 13.959c.1.051.202.1.296.163.016.02.019.045.02.07v7.906c0 .034-.004.067-.007.1a5.437 5.437 0 0 1-.338.502c-.031-.033-.021-.075-.021-.113V20.01c0-.047.006-.096-.02-.14-.016-.032-.003-.061.007-.09.076-.222.14-.447.157-.68.014-.173.039-.348.01-.522a.884.884 0 0 0-.123-.325c-.016-.026-.038-.051-.025-.086.008-.046.006-.092.006-.137v-3.931c0-.032-.003-.063.002-.094.004-.02 0-.05.036-.046z" fill="#2b2c79"/><path d="M26.558 22.198c-.014-.022-.013-.047-.013-.072v-7.967l.001-.037c.108.048.21.11.312.17.01.016.01.035.01.054-.004 2.402-.001 4.803-.003 7.205 0 .05.015.1-.005.148a5.044 5.044 0 0 1-.302.5z" fill="#2b2b78"/><path d="M26.86 21.7c-.018-.061-.014-.124-.014-.186v-7.125c0-.033 0-.066.012-.098l.264.144a.104.104 0 0 1 .02.065v6.591a.358.358 0 0 1-.02.141 4.361 4.361 0 0 1-.262.467z" fill="#2b2b75"/><path d="M27.121 21.233v-6.704l.001-.093c.079.03.144.087.224.115l.013.013c.026.035.02.076.02.115v5.95c0 .036-.004.071-.006.106l-.035.085c-.06.119-.12.237-.182.356-.01.02-.023.038-.035.057z" fill="#2a2973"/><path d="m25.593 23.549-.2.237c-.025-.011-.028-.034-.031-.057-.002-.017-.002-.034-.002-.05V21.44c-.01-.043.018-.073.035-.108.086-.124.161-.256.241-.384.015-.025.027-.061.07-.041.023.026.02.058.02.089v2.307a.228.228 0 0 1-.02.097l-.113.149z" fill="#2d2d7f"/><path d="M26.183 19.856c.04.02.037.056.037.092V22.7c-.08.13-.173.25-.263.374-.027-.012-.03-.038-.032-.063-.002-.029-.001-.058-.001-.087v-2.417c0-.01 0-.02-.003-.03-.014-.026-.005-.049.006-.071.08-.162.15-.329.217-.497.008-.02.013-.044.039-.053z" fill="#2c2d7c"/><path d="M25.921 20.457c.04.013.022.045.022.07v2.462c0 .03-.003.059.014.085-.079.112-.16.222-.25.326 0-.807 0-1.614-.002-2.42 0-.026.019-.062-.026-.073-.007-.023.005-.041.015-.059.064-.117.13-.233.189-.353.008-.016.016-.034.038-.038z" fill="#2c2d7e"/><path d="M26.25 13.959c-.03.022-.017.054-.017.08-.001 1.357 0 2.712-.002 4.068 0 .025.02.062-.026.073-.017.002-.027-.01-.035-.022-.063-.087-.146-.153-.226-.223-.02-.017-.038-.034-.025-.063.012-.135.004-.27.005-.404.002-.122 0-.245 0-.367 0-.022.003-.046-.009-.067-.006-.024.003-.045.011-.066a1.88 1.88 0 0 0 .103-.53 1.405 1.405 0 0 0-.103-.646c-.009-.02-.018-.042-.013-.066.014-.047.01-.095.01-.143V12.95c0-.038-.009-.08.02-.114.05.006.087.038.13.055.03.012.019.039.019.06 0 .285.002.57 0 .856-.001.049.01.077.057.094.036.014.067.038.1.058z" fill="#2c2d7c"/><path d="M25.944 12.836v2.808c0 .033.004.067-.022.094-.025-.003-.032-.025-.04-.042a1.964 1.964 0 0 0-.265-.382c-.024-.029-.049-.058-.043-.1-.002-.812 0-1.624 0-2.437 0-.037-.004-.076.032-.102.115.05.23.096.338.161z" fill="#2c2d7e"/><path d="M25.606 12.675a.273.273 0 0 0-.013.098v2.391c0 .026.011.055-.016.076-.042-.005-.06-.042-.086-.066-.038-.034-.071-.074-.112-.106-.02-.017-.036-.034-.024-.063.005-.04.005-.079.005-.119V12.69c0-.039-.01-.08.02-.114l.213.094a.234.234 0 0 0 .013.006z" fill="#2d2e80"/><path d="M12.555 20.682c.018-.014.012-.034.012-.052v-5.056c.02-.02.013-.047.013-.07 0-.297.002-.593-.001-.889 0-.052.018-.074.062-.097.206-.11.41-.223.615-.335l.35-.185c.03.032.02.07.02.107l.001 1.731c0 .04 0 .08.005.119.013.032-.01.049-.029.067-.018.016-.035.035-.052.052-.2.169-.372.364-.543.56-.068.08-.133.161-.2.24-.04.046-.043.09-.03.144a23.375 23.375 0 0 0 .388 1.372c.01.028.019.056.003.085-.01.042-.005.083-.005.125v3.024c0 .048.012.101-.035.139-.086-.129-.159-.266-.232-.401-.113-.207-.221-.416-.321-.628-.008-.017-.014-.034-.02-.052z" fill="#4b5aa8"/><path d="m17.366 11.674.274-.064c.011.022.008.045.008.068v8.58c0 .046.01.096-.017.14-.042.027-.043-.013-.05-.034a19.672 19.672 0 0 1-.33-1.164c-.009-.037-.02-.073-.01-.111.011-.046.003-.092.003-.137v-7.123c0-.04-.009-.084.02-.12l.102-.035z" fill="#414ea1"/><path d="M17.264 11.709v7.303c0 .033.005.067-.015.097-.031-.01-.03-.041-.037-.066-.032-.117-.054-.236-.086-.354a25.913 25.913 0 0 1-.222-1.1.346.346 0 0 1-.008-.086c.016-.09.01-.179.01-.268v-5.363c0-.025-.001-.05.008-.074.117-.03.23-.07.35-.09z" fill="#424fa2"/><path d="M16.914 11.798c.015.023.012.048.012.073v5.516c0 .043-.008.086-.013.13-.033-.007-.03-.037-.034-.06-.06-.344-.113-.69-.159-1.037a22.6 22.6 0 0 1-.108-.943c-.021-.233-.043-.467-.057-.702-.005-.08 0-.162-.019-.242-.009-.075-.005-.15-.004-.226-.003-.762-.001-1.523-.002-2.285 0-.04-.007-.08.02-.115.118-.045.241-.077.364-.109z" fill="#4351a3"/><path d="M16.55 11.907v2.377l-.002.031c-.043-.024-.024-.066-.026-.1-.003-.082-.003-.083-.073-.048l-.39.195c-.03.014-.059.035-.093.01-.025-.024-.024-.056-.024-.087v-2.111c0-.033-.003-.068.032-.089.19-.067.38-.128.575-.178z" fill="#4452a3"/><path d="M15.974 12.085c-.015.023-.012.048-.012.073V14.3c0 .028-.009.06.027.076-.003.028-.028.033-.047.044-.102.058-.207.107-.308.167-.027.009-.052.03-.081.006-.024-.032-.024-.07-.024-.107v-2.169c0-.029-.002-.058.02-.082l.062-.029.363-.12z" fill="#4553a4"/><path d="M13.632 15.976c-.041-.01-.024-.044-.024-.067l-.001-1.855v-.056c.084-.047.168-.096.254-.14.038-.02.053-.043.053-.087-.002-.267 0-.534-.003-.8 0-.059.018-.085.07-.106.124-.05.246-.107.368-.163.02-.009.04-.022.06-.032.08-.015.146-.068.225-.086.019.018.019.042.02.064v6.059c0 .046.008.093-.014.136-.039.035-.046-.006-.055-.026-.037-.082-.065-.167-.096-.251-.126-.342-.234-.69-.342-1.038a27.069 27.069 0 0 1-.263-.99c-.045-.187-.087-.374-.13-.56-.013-.058-.014-.058-.061-.027-.019.012-.034.032-.061.025z" fill="#4957a6"/><path d="M25.362 21.419c.03.02.018.05.018.075V23.7c0 .029-.004.058.012.085a4.731 4.731 0 0 1-.286.328c-.03-.034-.02-.075-.02-.113l-.001-2.018c0-.042 0-.083-.007-.125a.066.066 0 0 1 .008-.07c.084-.11.155-.23.238-.341.01-.013.02-.027.038-.028z" fill="#2d2f82"/><path d="m24.394 24.863-.241.224c-.023-.024-.02-.054-.02-.082V23.02c-.003-.027.008-.048.025-.069.065-.079.134-.153.2-.231.018-.021.037-.043.068-.017.023.028.023.062.023.095v1.94c0 .03-.002.059-.021.084l-.034.04z" fill="#2d318a"/><path d="M25.077 21.833c.04.017.027.052.027.082v2.111l.002.088a2.526 2.526 0 0 1-.24.258c-.02-.02-.019-.045-.019-.07 0-.714-.002-1.429 0-2.143a.084.084 0 0 1 .014-.066l.184-.245c.007-.01.018-.017.032-.015z" fill="#2c3085"/><path d="M24.852 22.133c.025.022.014.051.014.077v2.162a3.109 3.109 0 0 1-.236.245c-.022-.018-.02-.044-.02-.069-.001-.696-.003-1.393 0-2.089a.08.08 0 0 1 .016-.063c.063-.082.129-.161.19-.244.009-.011.02-.022.036-.019z" fill="#2d3086"/><path d="M24.616 22.435c.022.02.012.047.012.07l.001 2.025.002.087c-.064.072-.131.142-.203.206v-2.048c0-.03 0-.058-.027-.078.007-.06.06-.092.09-.137.017-.024.037-.045.054-.068.025-.018.034-.055.071-.057z" fill="#2c3188"/><path d="M17.615 20.406c.018-.028.012-.06.012-.091V11.7c0-.03-.006-.062.013-.09.208-.05.415-.101.626-.14.028.033.02.072.02.109v1.758c0 .046.002.092.01.137-.02.038-.06.035-.093.043-.175.047-.154.017-.155.2 0 .237-.007.472.002.708.017.481-.002.963.014 1.444.013.406-.003.813.01 1.219.018.469-.002.938.014 1.406.015.43-.004.86.012 1.288.018.465.003.93.012 1.394.002.098.015.195.011.293-.001.048-.016.086-.064.104-.041.015-.055-.012-.068-.043a12.456 12.456 0 0 1-.157-.409c-.076-.21-.146-.421-.215-.633-.009-.026-.026-.054-.004-.083z" fill="#404da0"/><path d="M18.291 13.473c-.04-.01-.024-.044-.024-.067v-1.934c.173-.044.348-.076.524-.107.03.03.021.07.021.107v1.733c0 .052.005.104.002.156-.01.03-.037.036-.064.04-.128.023-.255.05-.382.078-.025.006-.053.016-.077-.006z" fill="#3e4b9f"/><path d="M18.805 13.371a.3.3 0 0 1-.013-.098l-.001-1.908.315-.06.2-.033c.011.022.008.045.008.068v1.827c0 .041 0 .083.007.124-.002.041-.035.034-.06.037-.11.011-.22.026-.328.045-.043 0-.086.025-.128-.002z" fill="#3d499e"/><path d="m22.65 26.34-.135.092c-.033-.015-.033-.046-.034-.075-.003-.06-.001-.12-.001-.18v-1.414c0-.04 0-.079-.005-.118-.017-.049.026-.065.05-.091.157-.123.301-.26.449-.394.057-.052.117-.1.17-.155.019-.02.042-.037.07-.012.021.027.02.06.02.09v1.745c0 .02-.004.04-.007.062-.186.158-.384.301-.577.45z" fill="#2b3693"/><path d="M23.227 25.89c-.023-.02-.013-.047-.013-.071l-.001-1.75c0-.03.012-.065-.027-.083-.003-.03.02-.044.037-.061.085-.091.18-.172.27-.258.08-.077.148-.167.23-.244.027-.016.043-.064.087-.029.015.03.012.061.012.092V25.3c0 .036-.001.07-.019.103l-.001.01c-.192.159-.375.327-.575.476z" fill="#2d3390"/><path d="m21.472 27.139-.022.003c-.031.003-.038-.02-.043-.043-.006-.022-.005-.045-.005-.068v-1.52c0-.024 0-.05.005-.074.005-.032.027-.05.052-.066.116-.078.23-.158.341-.24.023-.018.051-.049.075.001.009.035.006.07.006.106v1.491c0 .046 0 .091.007.137-.124.091-.258.167-.388.25l-.028.023z" fill="#323c98"/><path d="M21.888 26.866c-.042-.009-.027-.042-.027-.066v-1.595l-.002-.094a.02.02 0 0 1 0-.019c.091-.08.191-.147.285-.224.024-.019.047-.018.057.017.008.036.005.071.005.107.002.536-.002 1.072.003 1.608 0 .019 0 .037-.01.055-.099.076-.204.145-.311.211z" fill="#2e3b96"/><path d="M22.2 26.655a.332.332 0 0 1-.014-.104v-1.69c-.004-.02.007-.032.02-.043.074-.06.148-.118.222-.179.012-.01.026-.02.045-.015.044.011.026.048.026.073v1.644c0 .032-.002.063.015.091-.1.081-.206.154-.314.223z" fill="#2c3995"/><path d="M20.333 11.205c.044.02.095.005.138.028.017.018.018.041.02.064V27.612a.59.59 0 0 1-.006.08l-.177.1-.287.138c-.031.012-.036-.012-.042-.031-.007-.027-.004-.054-.004-.081v-16.54c0-.036-.008-.075.02-.107.093-.003.184.022.277.03l.06.004z" fill="#39439b"/><path d="M20.485 27.692c-.026-.024-.014-.055-.014-.082V11.233c.134.022.271.027.404.06a.302.302 0 0 0-.022.128v1.774c0 .04.004.078.01.118-.004.021-.021.02-.036.02a.41.41 0 0 0-.106-.005c-.045.009-.092-.021-.136.007-.014.024-.01.05-.01.074v12.407c0 .02-.001.041.005.061.027.024.045-.005.066-.012.032-.011.061-.037.099-.016.029.034.02.075.02.114v1.452c0 .043.01.087-.005.13-.084.063-.185.095-.275.147z" fill="#38419a"/><path d="M21.185 27.305c-.105.068-.214.13-.326.186-.031 0-.037-.022-.042-.045-.004-.02-.003-.041-.003-.062v-1.522c0-.021 0-.042.003-.062a.067.067 0 0 1 .036-.055c.09-.05.175-.11.267-.158.023-.006.047-.03.067.004.018.035.017.073.017.11v1.507a.179.179 0 0 1-.019.097z" fill="#364099"/><path d="m21.186 27.305-.001-1.565c0-.054.003-.108-.013-.16.048-.069.129-.095.192-.144.015-.012.032-.035.059-.018v1.642c0 .03-.011.065.027.082-.083.063-.174.112-.264.163z" fill="#343f99"/><path d="m20.833 25.775.001 1.639c0 .027-.01.06.025.077a.325.325 0 0 1-.099.054c-.017-.028-.014-.06-.014-.09V25.92c0-.026.015-.061-.03-.07.024-.05.07-.065.117-.075z" fill="#38419a"/><path d="M19.995 11.171v16.685c0 .025-.019.062.025.074-.018.027-.039.005-.054-.002a16.075 16.075 0 0 1-.673-.351c-.02-.027-.02-.059-.02-.09v-1.499c0-.039-.004-.08.036-.107.022-.01.025-.03.026-.052V13.447c0-.05.007-.1-.015-.148-.04-.009-.026-.042-.026-.066v-1.888c0-.025-.004-.05.011-.073l.64-.1c.016-.003.033 0 .05-.001z" fill="#3c469d"/><path d="M19.318 25.89c-.035.017-.024.05-.024.077v1.61l-.174-.09-.328-.195a.163.163 0 0 1-.02-.09v-1.748c0-.04.002-.079.021-.115.017-.027.035-.013.052 0 .031.026.054.058.08.089.12.139.238.28.368.41.014.013.034.026.025.051z" fill="#3d499e"/><path d="M14.62 18.857c.02-.03.014-.064.014-.097v-6.175c.249-.114.506-.207.763-.301.05-.018.101-.033.152-.05v2.263c0 .036.004.07.02.102.005.037-.027.043-.048.056l-.234.144c-.044.026-.064.058-.06.112a26.47 26.47 0 0 0 .163 1.647c.058.44.126.879.208 1.315.018.096.034.193.055.289.028.155.066.309.097.464.006.03.018.06-.002.09-.023.02-.016.046-.016.07v2.13c0 .037.003.075-.007.111-.042.048-.049-.008-.07-.023-.18-.294-.347-.595-.507-.901-.035-.068-.06-.142-.1-.208a12.018 12.018 0 0 1-.42-.962c-.009-.024-.028-.048-.007-.076z" fill="#4755a5"/><path d="m24.992 12.414.238.098c.02.027.02.059.02.09v2.228c0 .02 0 .041-.006.062-.007.024-.025.036-.046.02a2.068 2.068 0 0 1-.218-.171c-.01-.009-.008-.023-.008-.035V12.49c0-.026-.002-.054.02-.076z" fill="#2c2f83"/><path d="m24.153 12.099.25.086a.784.784 0 0 1 .013.013c.011.014.01.031.009.048-.004.664 0 1.327-.002 1.991 0 .035.003.07-.006.106-.013.037-.04.026-.065.016-.05-.02-.093-.05-.143-.07-.033-.02-.074-.032-.077-.082l.001-1.994c0-.039-.01-.08.02-.114z" fill="#2d318a"/><path d="M24.629 12.273c.083.025.163.056.238.1.022.023.02.053.02.082v2.1c0 .025 0 .05-.012.073-.016.022-.036.017-.055.007-.064-.038-.125-.079-.188-.119a.046.046 0 0 1-.023-.047c-.002-.707 0-1.413 0-2.12 0-.026-.002-.055.02-.076z" fill="#2d3187"/><path d="M24.629 12.273v2.142c0 .024.009.05-.012.072a.366.366 0 0 1-.215-.122l.001-1.006v-1.063c0-.034.002-.066.013-.098.075.012.143.046.213.075z" fill="#2d3188"/><path d="m25.228 14.915.002-.882v-1.52l.15.062v2.377c0 .025.019.061-.025.073-.057-.02-.103-.052-.127-.11z" fill="#2d2f82"/><path d="M24.852 14.637c.025-.021.014-.05.014-.076v-2.189c.047-.002.084.027.126.042v2.234c0 .026.01.054-.013.077a.147.147 0 0 1-.126-.087z" fill="#2c3085"/><path d="M27.373 20.735c-.018-.028-.014-.06-.014-.091v-6.08c.05.011.065.04.065.093-.003.296-.001.592-.003.887 0 .04.009.065.047.082.049.022.095.051.142.077v4.404c0 .026-.01.055.016.076a5.64 5.64 0 0 1-.253.552z" fill="#292971"/><path d="m22.6 11.643.05.004.537.149c.01.002.018.008.027.012.021.024.02.054.02.083v1.835c0 .029.001.059-.017.084a.05.05 0 0 1-.031.013c-.047-.002-.088-.027-.13-.041-.14-.048-.282-.091-.423-.136-.03-.01-.061-.015-.072-.052a.228.228 0 0 1-.006-.062v-1.775c0-.042-.003-.09.046-.114z" fill="#2b3593"/><path d="M23.198 13.812c.026-.02.015-.05.015-.076v-1.928c.183.042.36.1.538.156l.051.02c.022.025.02.055.02.084v1.912c0 .021 0 .042-.006.062-.01.03-.031.031-.054.021-.179-.079-.361-.148-.54-.224-.013-.004-.023-.012-.024-.027z" fill="#2d3390"/><path d="M23.802 14.062v-2.077l.013-.004.338.118v2.05c0 .026.01.055-.015.077-.019.012-.036.002-.052-.006-.087-.041-.171-.089-.26-.127-.013-.005-.027-.013-.024-.03z" fill="#2e318c"/><path d="m21.485 11.393.31.065.053.014c.023.024.02.054.02.083v1.792c0 .033 0 .067-.022.096-.016.018-.038.013-.058.01-.105-.014-.21-.028-.314-.045-.022-.004-.046-.007-.06-.028-.014-.028-.012-.057-.012-.086v-1.801c0-.023-.001-.046.005-.068.006-.02.012-.043.042-.03l.036-.002z" fill="#323c98"/><path d="M20.859 13.32c-.025-.015-.026-.039-.026-.065v-1.892c0-.031-.003-.065.042-.07.104.01.208.026.31.053.021.024.02.054.02.082v1.838c0 .025 0 .05-.01.074-.019.028-.047.024-.075.025a.19.19 0 0 1-.032-.005.18.18 0 0 0-.068-.008.284.284 0 0 1-.059-.005c-.025-.01-.052-.006-.078-.01a.037.037 0 0 1-.024-.016z" fill="#364099"/><path d="m21.183 13.352.002-1.587v-.42c.09.006.178.024.264.05-.041.008-.026.042-.026.066V13.383a.347.347 0 0 1-.24-.031z" fill="#343f99"/><path d="M21.836 13.444c.01-.03.013-.06.013-.092v-1.88c.13.021.261.045.388.085.02.024.02.054.02.083v1.812c0 .023 0 .046-.008.068-.014.032-.042.023-.065.018-.111-.026-.222-.053-.334-.078a.032.032 0 0 1-.014-.016z" fill="#2e3b96"/><path d="M22.237 13.533v-1.976c.124.02.245.049.364.086a.204.204 0 0 0-.027.113v1.853c-.036.024-.07-.007-.106-.005-.078-.02-.162-.02-.231-.07z" fill="#2c3895"/><path d="m23.803 25.403-.001-1.942c0-.026.011-.055-.015-.076.002-.04.032-.063.055-.087.088-.095.175-.19.26-.285.01-.011.021-.022.038-.015.02.018.012.043.012.064v2.025c-.112.11-.226.218-.349.316z" fill="#2e318c"/><path d="M15.494 24.777c-.167-.148-.313-.318-.472-.475l-.37-.416c-.011-.012-.02-.026-.03-.039-.01-.021-.008-.044-.008-.067v-1.992c0-.037-.005-.076.019-.109.042-.03.054.01.07.034.093.145.192.288.288.434a14.861 14.861 0 0 0 .509.675c.022.029.052.056.033.1-.006.333-.001.666-.002 1l-.001.769c0 .03.016.074-.036.086z" fill="#4755a5"/><path d="M13.13 21.763a.33.33 0 0 0 .014-.11v-3.114c0-.029-.012-.064.023-.084.037.023.043.065.055.102a14.434 14.434 0 0 0 .4 1.067c.012.028.026.057.01.09-.009.042-.004.086-.004.13l-.001 2.538c0 .041.014.09-.034.119-.11-.146-.202-.303-.3-.457-.007-.012-.016-.023-.025-.035-.04-.085-.103-.158-.139-.246z" fill="#4a59a8"/><path d="M14.656 21.671c-.031.02-.022.052-.022.08v1.998a.305.305 0 0 1-.012.098c-.193-.221-.379-.449-.552-.687a.742.742 0 0 1-.007-.118v-2.2c0-.04-.009-.084.023-.119.01-.007.02-.009.03-.002.056.056.082.13.118.197.128.237.268.467.406.698.01.016.03.031.016.055z" fill="#4957a6"/><path d="M14.106 20.72c-.033.02-.023.051-.023.079v2.276c0 .03.005.06-.013.086-.169-.206-.32-.424-.472-.643-.004-.004-.004-.011-.005-.017.018-.028.014-.06.014-.091v-2.637c0-.028-.01-.06.023-.08.027.007.031.032.04.053.108.252.226.499.342.747.025.052.052.104.081.154.013.022.034.044.013.073z" fill="#4958a7"/><path d="m17.39 26.39-.435-.335-.066-.053c-.01-.027-.008-.054-.008-.08v-3.02c0-.032-.002-.063-.001-.094-.002-.017 0-.035.015-.045.056-.037.112-.073.172-.1.042-.02.053.016.07.042.114.235.238.465.367.693.017.03.04.06.022.098-.005.046-.003.092-.003.138v2.713c0 .038.009.08-.02.114l-.112-.072z" fill="#424fa2"/><path d="M17.503 26.46v-2.908c0-.028-.01-.06.024-.078.04.025.06.068.083.106.118.197.236.393.366.582.02.03.041.06.034.098.003.372 0 .743.001 1.114v1.27c0 .05.006.102-.032.143a8.772 8.772 0 0 1-.476-.326z" fill="#404da1"/><path d="M18.815 25.326a.284.284 0 0 0-.023.127v1.839a6.19 6.19 0 0 1-.452-.275c-.02-.025-.019-.054-.019-.083v-2.09c0-.03 0-.06.018-.085.043-.032.059.01.077.033.098.129.199.256.299.384.028.036.06.069.086.106.01.013.025.024.014.044z" fill="#3e4b9f"/><path d="M18.365 24.75c-.033.019-.023.051-.023.079v2.12l-.001.069c-.126-.07-.243-.152-.363-.231.021-.11.012-.22.012-.33l.001-2.148c0-.024-.008-.05.01-.072.01 0 .018.004.025.01.112.153.216.312.33.463.009.011.018.025.01.04z" fill="#404ca0"/><path d="M16.889 22.785c.014.023.012.048.012.073v3.07c0 .026.002.051-.012.073-.239-.176-.461-.372-.69-.561l-.125-.114a.155.155 0 0 1-.02-.084v-1.907c0-.017.001-.033.004-.05.007-.039.038-.057.068-.075l.404-.235c.094-.056.19-.11.285-.167.022-.013.043-.034.074-.023z" fill="#4351a3"/><path d="M16.074 23.262v2.064a9.568 9.568 0 0 1-.58-.549c.028-.02.016-.05.016-.075 0-.578 0-1.157.002-1.735 0-.024-.017-.057.022-.07.052.015.064.073.107.098.082.1.17.196.255.295.024.03.046.03.08.013.03-.017.055-.053.098-.041z" fill="#4553a4"/><path d="m25.393 15.065.184.175c.13.155.257.314.345.498.192.43.16.86 0 1.29.013.027-.005.048-.016.07-.09.184-.213.347-.347.502-.043.05-.04.05.017.079.099.05.196.102.289.162.02.013.046.023.052.05.105.088.208.177.289.288.154.217.186.459.173.72-.016.331-.093.646-.196.957a9.375 9.375 0 0 1-.262.6l-.242.45c-.09.143-.17.292-.269.43-.03.001-.03-.023-.034-.042-.005-.025-.003-.05-.003-.075v-6.04c0-.038-.01-.08.02-.114z" fill="#f2a71f"/><path d="m25.392 15.066.001 6.188c0 .027-.013.06.017.081l-.048.084-.285.414-.225.3-.236.302-.061.065c-.03-.031-.021-.07-.021-.107v-1.697c0-.044 0-.087-.003-.13-.016-.028-.003-.052.01-.075.03-.051.062-.102.091-.153.162-.276.307-.56.372-.876.027-.13.03-.26.013-.392-.034-.25-.175-.422-.393-.537a.986.986 0 0 0-.203-.076.135.135 0 0 0-.118.014c-.024.014-.052.029-.078 0-.022-.033-.017-.072-.017-.109v-1.125c0-.038 0-.075-.005-.112-.013-.034.004-.056.028-.075.065-.05.12-.112.178-.17.098-.12.184-.246.23-.397a.534.534 0 0 0-.074-.453 1.062 1.062 0 0 0-.156-.194c-.056-.052-.116-.099-.176-.147-.024-.02-.043-.04-.034-.073a.49.49 0 0 0 .01-.112l-.001-1.16c0-.023-.004-.047.007-.068.068.019.12.068.186.09.07.044.14.085.215.12l.236.151.126.087.25.19.126.11.038.042z" fill="#f4a91d"/><path d="M25.917 17.892c-.13-.08-.26-.162-.401-.223-.045-.02-.009-.035.003-.047.13-.146.25-.299.343-.472.021-.04.04-.081.06-.122.03.007.021.032.022.051v.76c0 .022.007.049-.027.053z" fill="#2c2d7e"/><path d="M14.106 20.72c-.065-.134-.131-.267-.193-.402-.096-.208-.189-.416-.283-.625l-.102-.26c-.009-1.09-.002-2.179-.004-3.268 0-.036 0-.071.02-.103l.088-.086.118-.091.093.403c.09.402.196.799.309 1.195.004.013.005.028.007.042.015 1.04.003 2.081.005 3.122 0 .03.023.085-.045.086l-.013-.013z" fill="#ffcb07"/><path d="M13.544 16.062v3.314c0 .02.006.042-.016.056-.103-.236-.185-.48-.271-.722l-.09-.256c-.085-.287-.174-.574-.255-.863-.059-.208-.107-.419-.162-.628-.005-.02-.006-.036.006-.052a7.45 7.45 0 0 1 .757-.828l.03-.021z" fill="#ffcd05"/><path d="M18.015 24.25 18 24.237l-.44-.7c-.013-.02-.023-.042-.035-.063-.134-.245-.27-.489-.392-.74l-.009-.023c-.008-.062-.006-.125-.006-.187v-3.717c0-.04-.011-.084.022-.119l.108.422c.028.154.076.302.115.453.071.277.155.55.239.823.002.007.008.014.012.02.051.2.123.393.191.586.065.185.139.366.208.548.005.014.004.03.025.026.025.023.022.054.022.082v2.508c0 .036.012.084-.046.094z" fill="#febe12"/><path d="m17.141 18.688-.002.087v3.859c0 .026.01.055-.014.077-.017-.044-.04-.053-.08-.023-.05.037-.104.065-.156.097l-.351.2c-.04-.036-.032-.084-.032-.129v-1.303c0-.052 0-.104-.002-.156 0-.035-.007-.07.006-.104.013-.02.007-.04.007-.061v-6.469c0-.058 0-.116.012-.174.004-.02.005-.042.023-.056.02.077.015.157.02.235.016.271.04.542.068.813.04.392.085.783.147 1.171l.117.748c0 .006.006.01.01.016.015.156.052.309.082.463.046.237.097.472.145.709z" fill="#ffc110"/><path d="M16.553 14.533c-.023.176-.015.353-.015.53v6.16c0 .03.012.064-.023.085-.032-.01-.034-.04-.044-.064a18.152 18.152 0 0 1-.437-1.355c-.104-.364-.2-.731-.288-1.1-.006-.028-.019-.056 0-.084-.035-.18-.072-.359-.108-.539.01-.047.003-.095.003-.143v-3.168c0-.094.003-.187-.006-.28.105-.075.224-.122.335-.186l.02-.013.495-.243.047-.022c.015.07-.006.14.016.205l.005.217z" fill="#ffc30f"/><path d="M15.635 14.574c.03.012.026.039.026.064v3.453c0 .028-.001.054-.023.075-.025-.129-.053-.257-.076-.386a35.29 35.29 0 0 1-.121-.722 39.007 39.007 0 0 1-.151-1.19c-.016-.144-.03-.286-.041-.43-.015-.186-.026-.373-.042-.559-.003-.035.004-.051.034-.07.11-.067.219-.14.328-.21a8.9 8.9 0 0 1 .066-.025z" fill="#ffc50d"/><path d="M14.12 20.733c.038-.007.025-.038.025-.06v-3.056c0-.031-.003-.063.015-.092.078.242.155.485.236.726.07.204.136.41.225.606.076.226.173.444.269.662.055.125.114.25.17.375.008.05.008.1.008.15v2.02c0 .029.002.058-.003.087-.005.026-.006.056-.043.059-.122-.16-.226-.331-.338-.498l-.028-.04a19.205 19.205 0 0 1-.535-.927c-.002-.003-.001-.008-.002-.012z" fill="#ffc90a"/><path d="M24.527 20.544c.042.01.026.043.026.067v1.708l.002.181-.154.197-.26.3-.354.388-.06.052c-.03-.015-.034-.045-.04-.074-.007-.035-.005-.07-.005-.106v-1.451c0-.038 0-.075-.005-.113-.013-.034.004-.06.024-.083.031-.035.059-.073.09-.107.12-.145.236-.293.352-.44.098-.135.2-.267.29-.409.034-.034.042-.091.094-.11z" fill="#f6ab1c"/><path d="M18.015 24.25c.026-.012.026-.035.026-.058l-.002-2.626c.057-.018.065-.058.064-.114-.015-1.353-.027-2.707-.04-4.06-.008-.876-.014-1.752-.026-2.628-.005-.388-.006-.776-.01-1.164-.001-.052.02-.067.061-.076.068-.015.136-.034.203-.05l.411-.082.103-.021.12-.013c.032-.003.031.022.035.041.005.029.003.059.003.088V25.3c0 .03.002.059-.003.088-.004.025-.008.051-.043.05l-.102-.112-.45-.576-.35-.5z" fill="#fdba14"/><path d="M18.917 25.439c.02-.01.026-.025.026-.046v-.044l-.001-11.91c0-.027.013-.059-.017-.08.109-.026.219-.038.33-.048.022-.003.045.002.066-.012.017.002.039-.003.035.027-.002.017 0 .034 0 .05V25.92l-.039-.03c-.134-.15-.275-.292-.4-.45z" fill="#fdb815"/><path d="m22.237 13.533.238.055c.03.017.031.047.031.076v1.184a.14.14 0 0 1-.008.055c-.02.032-.05.022-.079.016a2.276 2.276 0 0 0-.153-.029c-.047-.01-.096-.015-.143-.028a.173.173 0 0 0-.073-.006c-.093.003-.095.004-.095.097v3.314c0 .076.005.078.072.045.074-.035.142-.08.216-.114.059-.024.11-.062.169-.087.026-.011.052-.027.08-.006.023.023.027.052.027.081 0 .416.002.833 0 1.25 0 .008-.003.016-.004.024-.01.039-.042.055-.073.072-.067.037-.132.078-.198.118a1.912 1.912 0 0 1-.231.137c-.073.037-.098.086-.098.168.004.534.002 1.068.002 1.601v1.74c0 .024-.007.049.011.077.109-.083.206-.178.311-.262.068-.058.135-.116.2-.178.024-.023.052-.06.096-.029.022.028.022.062.022.096v1.476c0 .03-.002.059-.02.084l-.064.065a4.14 4.14 0 0 0-.288.236l-.268.202-.056.038c-.019-.018-.019-.041-.02-.064-.002-.031 0-.063 0-.094V13.518c0-.023-.004-.046.007-.068.133.013.26.056.389.083z" fill="#fab019"/><path d="M22.537 24.56v-1.572c0-.033.005-.068-.027-.091-.004-.02.011-.032.022-.046.169-.152.326-.315.487-.474.065-.064.13-.129.187-.2.147-.145.272-.308.408-.462.017-.02.028-.048.062-.044.041.009.026.042.026.066v1.56c0 .05.007.095.025.14-.154.177-.327.335-.494.5-.016.015-.03.033-.046.05l-.554.497c-.03.027-.064.05-.096.076z" fill="#f8ae1b"/><path d="M21.849 13.45c.019.029.012.06.012.092a146222.112 146222.112 0 0 1-.002 11.57l-.436.306-.25.161c-.02.002-.03.026-.05.02-.025-.014-.03-.04-.032-.065-.003-.027-.002-.054-.002-.08V13.475c0-.043-.01-.088.02-.126l.074.002.24.031.413.062.013.005z" fill="#fcb217"/><path d="M21.11 13.35v12.145c0 .035 0 .07.012.104l-.289.176-.116.074c-.05.02-.1.044-.143.076-.017-.018-.009-.04-.009-.06V13.36c0-.02-.007-.042.007-.061l.15.013c.033.012.068-.003.102.01l.035-.001.025.004c.025.01.053-.003.077.01l.061.003c.02.01.045-.002.065.009l.022.002z" fill="#fcb416"/><path d="M20.572 13.299c-.001.025-.004.05-.004.075v12.483c0 .023.004.045.005.068-.01-.005-.014-.014-.015-.025V13.375c0-.025-.011-.055.014-.076z" fill="#39439b"/><path d="M20.824 13.322c-.034-.003-.07.011-.102-.01.034 0 .069-.005.102.01z" fill="#fcb217"/><path d="M16.512 21.383c.023.02.013.047.013.07v1.352c0 .06-.003.12.013.18l-.464.277c-.048.027-.101.08-.143.073-.044-.008-.08-.073-.116-.116-.062-.072-.123-.145-.184-.219-.007-.043-.002-.087-.002-.13v-1.76c0-.042-.013-.09.034-.119l.047.057c.053.04.08.1.113.154.075.118.161.227.238.343.026.04.052.037.088.016a5.5 5.5 0 0 1 .307-.167c.017-.009.033-.027.056-.011z" fill="#ffc40e"/><path d="M15.663 20.991c-.018.028-.014.06-.014.091v1.843c0 .026.01.056-.018.075-.048-.019-.059-.074-.097-.102l-.413-.547c-.035-.046-.066-.094-.1-.141.031-.025.026-.06.026-.092V19.97c0-.026-.01-.055.013-.077.13.252.258.506.4.751l.203.346z" fill="#ffc60c"/><path d="m16.512 21.383-.383.204c-.018.01-.035.032-.056.002-.124-.178-.255-.352-.364-.54l.002-1.157v-1.113c0-.029-.012-.066.036-.074.038.202.097.4.147.599.168.672.376 1.331.608 1.984.002.007.008.014.013.02.001.025.027.051-.003.075z" fill="#4552a4"/><path d="M24.216 14.276c.014.02.012.044.012.067v1.212c0 .03.003.063-.027.085-.025.014-.039-.008-.056-.018-.113-.078-.233-.143-.353-.209a5.883 5.883 0 0 0-.59-.26c-.026-.012-.06-.014-.055-.055.01-.04.01-.079.01-.118v-1.066c0-.035-.008-.072.019-.101h.023l.603.249.336.164.078.05z" fill="#f6ac1c"/><path d="M23.176 13.812v1.222c0 .028.01.06-.024.078-.022.018-.044.005-.065-.001-.18-.06-.361-.121-.548-.161-.018-.012-.049-.005-.052-.037v-1.259c0-.023.002-.046-.012-.066l.1.02.399.129c.068.022.135.05.202.075z" fill="#f9af1a"/><path d="M20.961 13.335c-.025-.002-.053.01-.077-.01.027-.002.053-.004.077.01zM21.087 13.347c-.022-.001-.045.008-.065-.01.022-.001.045-.004.065.01z" fill="#fcb217"/><path d="M24.201 17.102c.042.009.026.043.026.066l.001 1.228c0 .03-.003.059.013.085-.02.045-.064.06-.1.084-.12.061-.233.134-.35.2-.183.098-.36.206-.54.31-.02.01-.038.026-.063.025-.012-.002-.02-.01-.024-.02-.011-.035-.008-.07-.008-.106v-1.228c-.003-.036.024-.049.05-.063.197-.102.393-.207.586-.318.124-.071.24-.154.353-.243.017-.013.033-.027.056-.02z" fill="#f6ac1c"/><path d="m24.137 18.552.104-.07c.025 0 .042-.017.06-.029a.116.116 0 0 1 .127-.01c.022.024.02.054.02.083l.001 2.064c0 .023-.005.046-.005.069a4.263 4.263 0 0 1-.291.411c-.03-.034-.02-.075-.02-.114v-2.28c0-.04-.005-.082.004-.123z" fill="#2d318a"/><path d="M24.629 18.519c.266.133.4.35.414.645.014.297-.083.564-.204.825a2.222 2.222 0 0 1-.196.358c-.04-.022-.033-.06-.034-.095V18.621c0-.035-.007-.072.02-.102z" fill="#2d3086"/><path d="M24.629 18.519v1.743c0 .029-.003.058.013.085-.029.07-.079.13-.115.197l-.083.115c-.026-.02-.015-.05-.015-.076v-2.14c.07.015.135.044.2.076z" fill="#2c3188"/><path d="m24.201 17.102-.047.028c-.024-.023-.021-.053-.021-.082v-1.352c0-.028-.003-.059.02-.082.019.002.025.03.048.025.069.066.15.116.215.187.01.017.01.035.01.054-.005.318-.005.637 0 .955 0 .02 0 .038-.01.054-.062.082-.143.142-.215.213z" fill="#2d318a"/><path d="M24.416 16.89c-.017-.066-.013-.132-.013-.199v-.686c0-.06-.002-.12.013-.179a.785.785 0 0 1 .257.442.563.563 0 0 1-.06.33.976.976 0 0 1-.197.291z" fill="#2d3188"/><path d="M23.2 19.09c.192-.118.386-.232.586-.337.03 0 .03.024.034.043.005.027.003.054.003.081v2.505c0 .044 0 .087-.02.128l-.127.16c-.087.1-.172.2-.26.3-.065.073-.126.152-.201.217-.031-.033-.021-.075-.021-.113v-2.59c0-.113 0-.225-.002-.338 0-.019 0-.037.008-.055z" fill="#2d3390"/><path d="M23.802 21.51v-2.681c0-.026.011-.055-.016-.076.116-.069.228-.143.35-.2.027.02.016.05.016.075v2.442c-.112.15-.227.298-.35.44z" fill="#2e318c"/><path d="m22.262 23.112-.352.307c-.02-.017-.011-.037-.011-.054 0-1.159 0-2.318-.002-3.478 0-.04.012-.063.047-.083.103-.055.204-.115.305-.173.03.034.02.076.02.114v2.794c.001.173-.005.346.006.519a.1.1 0 0 1-.013.054zM22.262 18.205l-.326.18v-3.458c0-.093 0-.093.092-.09l.03.001c.021.012.045 0 .066.01.045.012.094.008.138.03.03.035.02.079.02.12v3.124c0 .029 0 .058-.02.083z" fill="#2e3a96"/><path d="M22.262 23.112c-.023-.124-.012-.249-.012-.373v-3.107l.25-.153c.013-.006.024-.005.033.008.018.037.012.078.012.117v3.11c0 .049.012.1-.007.148l-.028.035-.248.215z" fill="#2c3895"/><path d="M22.523 19.479H22.5v-1.288c0-.033.003-.068-.03-.09.006-.037.043-.04.064-.06.197-.099.39-.206.585-.309.014-.008.029-.018.045-.004.02.022.012.048.012.072v1.294c0 .029-.024.038-.043.048-.188.103-.37.216-.558.32-.016.009-.031.021-.052.017z" fill="#f9af1a"/><path d="m22.54 18.055-.07.046-.208.103v-3.327c.06-.009.114.018.171.03l.054.006c.013.02.04.003.054.022.008.037.004.074.004.112v2.914c0 .032 0 .063-.006.094z" fill="#2c3895"/><path d="M22.124 14.848a.101.101 0 0 1-.065-.01c.022.002.045-.008.065.01z" fill="#f9af1a"/><path d="m22.523 19.479.597-.349c.02-.011.038-.024.057-.036l.023-.003c.018.028.014.06.014.09V22.188c-.165.194-.352.368-.534.545-.046.045-.095.087-.142.13a.34.34 0 0 1-.014-.105V19.48zM22.54 18.055c-.025-.02-.015-.046-.015-.07v-2.98c0-.024-.009-.051.016-.07.197.038.386.105.576.169.011.004.023.006.035.009l.061.028c.021.027.02.058.02.09v2.373c0 .032.001.063-.018.09l-.05.035-.485.255c-.047.025-.094.048-.14.071z" fill="#2b3693"/><path d="m23.215 17.694-.001-1.092V15.14c.2.078.4.156.588.263.021.026.02.058.02.09v1.79c0 .031 0 .063-.02.09-.19.117-.388.219-.587.32z" fill="#2d3390"/><path d="M23.802 17.374v-1.97c.122.06.24.128.35.21l.002 1.516a2 2 0 0 1-.352.244z" fill="#2e318c"/></g></g><defs><clipPath id="a"><path fill="#fff" d="M0 0h40v40H0z"/></clipPath><clipPath id="b"><path fill="#fff" transform="translate(10 10)" d="M0 0h20v19.27H0z"/></clipPath></defs></svg>