<svg width="40" height="40" fill="none" xmlns="http://www.w3.org/2000/svg"><mask id="a" mask-type="alpha" maskUnits="userSpaceOnUse" x="10" y="18" width="20" height="4"><path fill="#fff" d="M10 18.992h20v2.015H10z"/></mask><g mask="url(#a)" transform="matrix(1.4 0 0 1.4 -8 -8)"><path fill-rule="evenodd" clip-rule="evenodd" d="M14.282 20.305h.2v.644h-1.635v-.234h.234v-1.43h-.374l-.475 1.664h-.38l-.382-1.377-.398 1.377h-.375l-.48-1.664H10v-.234h.885v.234h-.258l.322 1.148.375-1.382h.393l.386 1.383.316-1.149h-.269v-.234h2.302v.615h-.193l-.023-.07c-.06-.229-.124-.31-.305-.31h-.445v.573h.544c.018.041.03.088.03.13a.405.405 0 0 1-.03.14h-.544v.586h.468c.176 0 .252-.076.305-.317zm1.717.093c-.053.24-.13.317-.31.317h-.376v-1.43h.258v-.234h-.896v.234h.234v1.43h-.234v.234h1.54v-.644h-.193zm1.71 0c-.058.24-.134.317-.31.317h-.38v-1.43h.257v-.234h-.89v.234h.228v1.43h-.228v.234h1.54v-.644h-.199Zm1.43-.562-.346-.076c-.205-.047-.287-.123-.287-.258 0-.158.129-.258.375-.258.252 0 .398.088.457.299l.024.094h.193v-.469a1.466 1.466 0 0 0-.686-.17c-.462 0-.761.223-.761.58 0 .276.17.48.504.55l.345.077c.223.053.299.14.299.281 0 .176-.129.276-.398.276-.3 0-.451-.118-.522-.346l-.035-.117h-.193v.533c.246.123.521.182.797.176.457 0 .755-.229.755-.586 0-.299-.181-.504-.521-.586zm2.613-.55c.181 0 .246.081.304.31l.018.07h.193v-.615h-1.634v.234h.228v1.43h-.228v.234h.908v-.234h-.276v-.551h.563a.404.404 0 0 0 .03-.14.344.344 0 0 0-.03-.13h-.563v-.609zm4.136 1.452c.029.07.029.152 0 .223-.07.006-.141.012-.211.012-.264 0-.393-.106-.422-.364l-.012-.094c-.035-.275-.123-.38-.422-.38h-.146v.58h.258v.234h-1.711v-.234h.223l-.123-.34h-.703l-.13.34h.23v.234h-.716v-.234h.188l.662-1.664h.363l.68 1.664h.375v-1.43h-.235v-.234h1.09c.393 0 .644.193.644.504 0 .304-.251.468-.498.48v.006c.247.018.346.158.37.375l.011.1c.018.158.053.228.176.228.018 0 .035-.006.059-.006zm-2.654-.592-.264-.72-.27.72zm2.126-.556c0-.193-.123-.305-.369-.305h-.316v.615h.316c.24 0 .37-.11.37-.31zm1.617.498a.32.32 0 0 0 .03.129h.328v.48a.878.878 0 0 1-.323.065c-.392 0-.597-.282-.597-.762 0-.486.205-.762.574-.762a.462.462 0 0 1 .474.334l.03.076h.199v-.486a1.61 1.61 0 0 0-.72-.17c-.598 0-.997.399-.997 1.008 0 .615.387 1.008.996 1.008.264-.012.528-.077.762-.205v-.844h-.727a.32.32 0 0 0-.029.129ZM30 20c0 .556-.451 1.008-1.008 1.008A1.016 1.016 0 0 1 27.98 20a1.016 1.016 0 0 1 1.013-1.008c.557 0 1.008.451 1.008 1.008Zm-.445 0c0-.48-.2-.762-.563-.762-.369 0-.568.282-.568.762 0 .48.2.756.568.756.37 0 .563-.276.563-.756z" fill="#d71e28"/></g></svg>