<svg width="40" height="40" fill="none" xmlns="http://www.w3.org/2000/svg"><g clip-path="url(#a)" transform="matrix(1.4 0 0 1.4 -8 -8)" fill-rule="evenodd" clip-rule="evenodd"><path d="M10 17.186h2.294l.742 3.507h.025l1.04-3.507h2.64l1.023 3.507h.041l.726-3.507h2.137l-1.336 5.611h-2.979l-.998-3.416h-.025l-1.015 3.416h-3.003Z" fill="#006f4b"/><path d="M20.644 17.186h3.003l1.015 3.408h.025l.998-3.408h2.978L30 22.813h-2.137l-.726-3.506h-.041l-1.023 3.507h-2.64l-1.04-3.507h-.025l-.742 3.507h-2.294z" fill="#eeb52c"/></g><defs><clipPath id="a"><path fill="#fff" d="M0 0h40v40H0z"/></clipPath></defs></svg>