<svg width="40" height="40" fill="none" xmlns="http://www.w3.org/2000/svg"><mask id="a" mask-type="alpha" maskUnits="userSpaceOnUse" x="10" y="10" width="20" height="20"><path fill-rule="evenodd" clip-rule="evenodd" d="M10.464 20.413c0 5.231 4.24 9.472 9.473 9.472 5.23 0 9.472-4.24 9.472-9.472 0-5.232-4.241-9.473-9.472-9.473-5.232 0-9.473 4.241-9.473 9.473Z" fill="#fff"/></mask><g mask="url(#a)" transform="matrix(1.4 0 0 1.4 -7.974 -8.165)"><path fill-rule="evenodd" clip-rule="evenodd" d="M10 30.349h19.872V10.477H10Z" fill="#e5e5e4"/></g><mask id="b" mask-type="alpha" maskUnits="userSpaceOnUse" x="10" y="11" width="20" height="19"><path fill-rule="evenodd" clip-rule="evenodd" d="M10.65 20.413a9.287 9.287 0 1 0 18.574-.001 9.287 9.287 0 0 0-18.575 0Z" fill="#fff"/></mask><g mask="url(#b)" transform="matrix(1.4 0 0 1.4 -7.974 -8.165)"><path fill-rule="evenodd" clip-rule="evenodd" d="M10.186 30.164h19.502V10.662H10.186Z" fill="#fff"/></g><mask id="c" mask-type="alpha" maskUnits="userSpaceOnUse" x="11" y="11" width="18" height="18"><path fill-rule="evenodd" clip-rule="evenodd" d="M11.392 20.413a8.545 8.545 0 1 0 17.09-.002 8.545 8.545 0 0 0-17.09.002Z" fill="#fff"/></mask><g mask="url(#c)" transform="matrix(1.4 0 0 1.4 -7.974 -8.165)"><path fill-rule="evenodd" clip-rule="evenodd" d="M10.929 29.42h18.015V11.405H10.929Z" fill="#4a8cff"/></g><mask id="d" mask-type="alpha" maskUnits="userSpaceOnUse" x="14" y="17" width="12" height="7"><path fill-rule="evenodd" clip-rule="evenodd" d="m24.95 17.539-2.414 1.765v2.223l2.415 1.764c.17.13.37.171.37-.186v-5.38c0-.196-.06-.286-.156-.286-.06 0-.134.035-.214.1Zm-4.435-.098h-5.851a.297.297 0 0 0-.3.298v4.01c.005.908.744 1.64 1.65 1.635h5.852a.3.3 0 0 0 .3-.297v-4.012a1.643 1.643 0 0 0-1.642-1.634h-.009Z" fill="#fff"/></mask><g mask="url(#d)" transform="matrix(1.4 0 0 1.4 -7.974 -8.165)"><path fill-rule="evenodd" clip-rule="evenodd" d="M13.9 23.848h11.887v-6.871H13.9Z" fill="#fff"/></g></svg>