<svg width="40" height="40" fill="none" xmlns="http://www.w3.org/2000/svg"><g clip-path="url(#a)" transform="matrix(1.4 0 0 1.4 -7.967 -8)"><mask id="b" mask-type="alpha" maskUnits="userSpaceOnUse" x="10" y="11" width="20" height="18"><path fill="#fff" d="M10 11.736h20v16.529H10z"/></mask><g mask="url(#b)" fill-rule="evenodd" clip-rule="evenodd"><path d="m10.656 28.264 7.86-4.16c.467.046.916.073 1.384.073 5.48 0 9.935-2.803 9.935-6.234 0-3.432-4.456-6.208-9.935-6.208-5.472 0-9.9 2.776-9.9 6.208 0 2.335 2.04 4.374 5.058 5.425z" fill="#ed1c24"/><path d="M16.44 15.113h-1.93l.071.548h.189c.233 0 .315.027.341.027.045.027.045.054.045.08 0 .027 0 .135-.099.342-.08.108-.188.288-.314.521 0 0-.288.45-.503.763l-.656-1.419c-.027-.027-.027-.054-.045-.125-.027-.081-.053-.108-.053-.108v-.027h.026c0-.027.072-.027.315-.054h.234l-.082-.548H11.6l.099.521.161.027c.234.027.315.08.342.08 0 0 .054.055.18.342 0 0 .97 2.04 1.023 2.147-.026.108-.206 1.68-.206 1.68-.027.18-.08.314-.162.341-.027.027-.125.072-.395.072l-.234.027.081.53h2.803l-.108-.53-.153-.027c-.341 0-.476-.018-.52-.045-.027 0-.054-.054-.082-.135v-.152c0-.054 0-.162.028-.27 0 0 .125-1.23.152-1.464.054-.08 1.393-2.2 1.393-2.2.126-.207.206-.288.233-.315.027-.027.108-.054.26-.081l.216-.027-.108-.521z" fill="#fff"/><path d="m17.097 16.847-.602.125-.755.162.072.467h.189c.18 0 .26 0 .287.027 0 0 .027.027.027.054v.108l-.162 2.219v.341c.081.314.26.476.396.557a.929.929 0 0 0 .341.072c.422 0 .781-.26 1.096-.755.054-.08.135-.215.215-.341-.026.08-.026.153-.026.234v.026c0 .081.026.18.026.26a.651.651 0 0 0 .234.423.699.699 0 0 0 .45.153c.287 0 .574-.18.808-.548.134-.153.233-.341.314-.548l.081-.162-.45-.287-.286.449c-.082.108-.108.153-.108.153l-.019.026v-.072l.261-2.829.027-.242h-.997l-.054.188c-.08.44-.135.755-.18.97-.08.314-.161.602-.296.863a8.283 8.283 0 0 1-.44.835c-.207.315-.342.342-.369.342v-.207l.234-2.749v-.054a.272.272 0 0 0-.072-.188c-.108-.1-.188-.072-.242-.072zM21.426 16.847c-.557.125-.97.233-1.24.26l-.206.054.08.494h.18c.243 0 .315 0 .342.027 0 0 .027 0 .027.027v.099l-.314 3.072h1.024l.027-.188c.08-.44.125-.782.153-1.016.08-.368.161-.683.26-.898.108-.234.27-.494.449-.755.234-.314.342-.34.395-.34v.125c0 .027-.26 3.072-.26 3.072h1.015l.027-.188c.054-.657.107-1.043.134-1.231.028-.18.108-.413.207-.683.108-.26.26-.52.45-.755.125-.215.287-.314.395-.34v.125l-.189 2.254v.315a.881.881 0 0 0 .287.503.826.826 0 0 0 .342.099c.26 0 .476-.099.682-.315.18-.18.369-.413.522-.7l.026-.054.081-.162-.467-.314-.314.476-.027.054c-.027.026-.054.071-.081.098v.028c.027-.261.18-2.04.18-2.04v-.503a.958.958 0 0 0-.315-.548.825.825 0 0 0-.494-.152c-.368 0-.71.233-1.078.727-.027.054-.054.081-.099.135v-.162c-.054-.26-.188-.467-.368-.575a.776.776 0 0 0-.422-.125c-.342 0-.683.206-1.024.673-.054.081-.099.162-.153.243.027-.314.08-.79.08-.79l-.214-.153zM27.032 15.346c-.081.162-.108.45-.108.818v.728c0 .053 0 .287-.027 1.077l-.027 1.393.162.045.341.054.288-1.312c.099-.548.153-.755.18-.835.188-.71.287-1.123.314-1.258.027-.18.027-.341 0-.494a.888.888 0 0 0-.207-.395.59.59 0 0 0-.422-.162.521.521 0 0 0-.494.341zm-.503 4.564a.567.567 0 0 0-.126.44c.054.215.126.368.287.476a.675.675 0 0 0 .441.153.551.551 0 0 0 .45-.207c.106-.134.16-.287.106-.467-.026-.188-.107-.314-.26-.449a.726.726 0 0 0-.449-.162c-.233 0-.395.108-.449.216z" fill="#fff"/></g></g><defs><clipPath id="a"><path fill="#fff" d="M0 0h40v40H0z"/></clipPath></defs></svg>