<svg width="40" height="40" fill="none" xmlns="http://www.w3.org/2000/svg"><g clip-path="url(#a)" transform="matrix(1.4 0 0 1.4 -7.998 -8.01)"><mask id="b" mask-type="alpha" maskUnits="userSpaceOnUse" x="10" y="16" width="20" height="8"><path fill="#fff" d="M10 16.258h20v7.485H10z"/></mask><g mask="url(#b)" fill-rule="evenodd" clip-rule="evenodd" fill="#f26323"><path d="m13.987 18.041-.075.603-2.49 2.609s1-.07 2.53 1.09c1.53 1.16 3.223.475 4-.267l.522.534s-2.26 2.527-5.553.023c0 0-.765-.58-1.287-.58-.521 0-1.634-.011-1.634-.011l.093-.499 2.515-2.69h-1.88l.2-.797 3.013-.018"/><path d="M16.013 17.97s-1.657.306-1.926 2.167c-.27 1.86 1.74 2.484 2.847 1.656 1.107-.828 1.525-2.475.576-3.48 0 0-.465-.511-1.497-.344zm.479.711c.496.16.703.897.462 1.646-.242.75-.84 1.227-1.336 1.067-.497-.16-.704-.897-.462-1.646.241-.749.84-1.227 1.336-1.067zM20.941 18.696s-.981-.36-1.388.963c0 0 1.768.194 1.647-.648 0 0-.037-.25-.259-.315zm1.111.63c-.213 1.305-2.592 1.037-2.592 1.037-.074.185.01.453.01.453.657 1.176 2.018.296 2.018.296l.083.74c-.306.288-3.314.862-3.055-1.471.26-2.333 2.203-2.462 2.203-2.462.343-.047 1.546.101 1.333 1.407zM22.656 18.094c.019 0-.136.703-.136.703h.544l-.365 1.99s-.303 1.235.628 1.347c.932.112.932-.1.932-.1l.022-.73s-.774.25-.662-.48c.112-.729.393-2.027.393-2.027h.894l.183-.748-.931.012.202-1.066s-1.055.303-1.021.303c.033 0-.112.774-.112.774zM26.981 17.196c-.185.274-.535.36-.783.194-.247-.167-.297-.525-.113-.798.185-.274.536-.36.783-.194.247.167.298.525.113.798zM25.858 18.052l-.754 3.983h.975l.745-3.98zM29.735 20.849c-.01.102-.03.165-.03.165-.497 1.746-2.873.928-2.873.928l.285-.682c.15.075.545.16.545.16 1.05.186 1.274-.633.61-1.066a1.336 1.336 0 0 0-.242-.123 1.728 1.728 0 0 1-.222-.106c-.54-.375-.51-.877-.478-1.058.008-.044.016-.07.016-.07.459-1.596 2.645-.848 2.645-.848l-.263.624c-.138-.069-.501-.147-.501-.147-.862-.152-1.118.427-.731.835.093.098.223.187.392.253.714.279.831.867.85 1.068 0 0 .002.045-.003.067z"/></g></g><defs><clipPath id="a"><path fill="#fff" d="M0 0h40v40H0z"/></clipPath></defs></svg>