<svg width="40" height="40" fill="none" xmlns="http://www.w3.org/2000/svg"><mask id="a" mask-type="alpha" maskUnits="userSpaceOnUse" x="10" y="16" width="20" height="8"><path fill="#fff" d="M10 16.191h20v7.618H10z"/></mask><g mask="url(#a)" transform="matrix(1.4 0 0 1.4 -8 -8)"><path fill-rule="evenodd" clip-rule="evenodd" d="M18.983 16.19v4.25c0 .268.009.428.026.482.018.053.053.1.106.138a.349.349 0 0 0 .206.057c.03 0 .061-.003.095-.008s.07-.012.11-.02l.143.742c-.11.03-.211.054-.305.07a1.667 1.667 0 0 1-.265.022c-.227 0-.414-.048-.561-.145a.712.712 0 0 1-.298-.403c-.052-.172-.077-.468-.077-.886v-4.298M22.61 19.705c-.007-.274-.084-.483-.23-.626a.735.735 0 0 0-.534-.214.74.74 0 0 0-.555.226c-.146.15-.218.356-.216.614zm-.058.958 1.023.159c-.132.346-.34.61-.623.791-.284.181-.639.272-1.065.272-.675 0-1.175-.204-1.499-.611-.256-.326-.384-.738-.384-1.235 0-.593.168-1.059.505-1.395.336-.336.761-.504 1.275-.504.578 0 1.033.175 1.367.528.334.352.493.891.479 1.617h-2.573c.007.282.09.5.248.657a.808.808 0 0 0 .593.234c.16 0 .295-.04.405-.121.11-.081.192-.212.249-.392z" fill="#007bc1"/><mask id="b" mask-type="alpha" maskUnits="userSpaceOnUse" x="10" y="18" width="8" height="6"><path fill-rule="evenodd" clip-rule="evenodd" d="M10 18.054h7.733v5.755H10Z" fill="#fff"/></mask><g mask="url(#b)"><path fill-rule="evenodd" clip-rule="evenodd" d="m16.871 18.2-.978 2.896s-.163.249-.295.008c-.06-.11-.963-2.31-.963-2.31s-.116-.593-1.002-.71c-.597-.078-1.048.303-1.187.513-.007.009-.01.018-.012.028l-.512.755-.897-1.187H10l1.443 1.837-.713.911c-.357.456-.73.357-.73.357v.625h.481c.45-.011 1.073-.825 1.073-.825l.368-.431.873 1.256h.978l-1.36-1.928.763-1.067c.17-.126.484-.27.737.111.358.538 1.027 2.391 1.062 2.49 0 0 .219.43.483.394.146-.02-.143.553-.143.553-.049.185-.12.337-.212.456-.092.12-.235.18-.427.18-.104 0-.221-.014-.35-.041l.073.685c.153.036.31.053.468.053.157 0 .298-.017.423-.053a.97.97 0 0 0 .315-.148.931.931 0 0 0 .227-.247c.066-.102.135-.25.208-.443l.197-.576 1.45-4.141" fill="#007bc1"/></g><mask id="c" mask-type="alpha" maskUnits="userSpaceOnUse" x="24" y="18" width="7" height="5"><path fill-rule="evenodd" clip-rule="evenodd" d="M24.534 18.054H30v4.006h-5.466z" fill="#fff"/></mask><g mask="url(#c)"><path fill-rule="evenodd" clip-rule="evenodd" d="M29.898 21.246a.704.704 0 0 1-.095.007.369.369 0 0 1-.206-.053.256.256 0 0 1-.107-.128c-.017-.05-.026-.199-.026-.447l.009-1.376a1.413 1.413 0 0 0-2.456-.642 1.414 1.414 0 0 0-2.456.642v2.678h.719l.005-2.678a.651.651 0 0 1 1.228 0v2.678h.917l-.003-2.678a.651.651 0 0 1 1.228 0l-.013 1.422c0 .388.026.662.078.821a.67.67 0 0 0 .298.374c.147.09.335.135.563.135a1.788 1.788 0 0 0 .419-.05v-.723l-.102.018z" fill="#007bc1"/></g></g></svg>