<svg width="40" height="40" fill="none" xmlns="http://www.w3.org/2000/svg"><mask id="a" mask-type="alpha" maskUnits="userSpaceOnUse" x="10" y="13" width="20" height="14"><path fill="#fff" d="M10 13.83h20v12.341H10z"/></mask><g mask="url(#a)" transform="matrix(1.4 0 0 1.4 -8 -8)"><path fill-rule="evenodd" clip-rule="evenodd" d="M22.931 16.499c.013-.005-1.666-.598-4.015.417a2.774 2.774 0 0 1-.278-.12c2.26-1.5 4.24-2.138 5.933-1.89-1.088-.938-2.286-1.076-4.028-1.076-1.941 0-3.662.729-4.746 1.856a4.984 4.984 0 0 0-1.028-.106c-2.623 0-4.902 2.376-4.763 5.076.14 2.699 3.086 4.382 4.763 3.926.04-.011.083 0 .121-.001.375-1.783 1.89-5.935 8.041-8.082zm7.03 3.604c.324 1.983-1.399 3.1-3.143 3.23-.875 1.571-2.7 2.838-5.326 2.838-1.209 0-2.155-.19-3.094-.676-.229.04-.463.063-.704.063-.92 0-1.543-.205-2.157-.898 1.241-1.597 4.999-4.47 9.589-2.987 2.45.791 3.087-1.07 2.47-1.767-2.312-2.626-7.534-.262-7.72-.065 2.051-3.136 9.385-4.016 10.084.262z" fill="#0095d6"/></g></svg>